<?xml version="1.0" encoding="utf-8" standalone="no"?>
<!DOCTYPE svg PUBLIC "-//W3C//DTD SVG 1.1//EN"
  "http://www.w3.org/Graphics/SVG/1.1/DTD/svg11.dtd">
<svg xmlns:xlink="http://www.w3.org/1999/xlink" width="648pt" height="432pt" viewBox="0 0 648 432" xmlns="http://www.w3.org/2000/svg" version="1.1">
 <metadata>
  <rdf:RDF xmlns:dc="http://purl.org/dc/elements/1.1/" xmlns:cc="http://creativecommons.org/ns#" xmlns:rdf="http://www.w3.org/1999/02/22-rdf-syntax-ns#">
   <cc:Work>
    <dc:type rdf:resource="http://purl.org/dc/dcmitype/StillImage"/>
    <dc:date>2024-02-07T23:15:04.628500</dc:date>
    <dc:format>image/svg+xml</dc:format>
    <dc:creator>
     <cc:Agent>
      <dc:title>Matplotlib v3.7.2, https://matplotlib.org/</dc:title>
     </cc:Agent>
    </dc:creator>
   </cc:Work>
  </rdf:RDF>
 </metadata>
 <defs>
  <style type="text/css">*{stroke-linejoin: round; stroke-linecap: butt}</style>
 </defs>
 <g id="figure_1">
  <g id="patch_1">
   <path d="M 0 432 
L 648 432 
L 648 0 
L 0 0 
z
" style="fill: #ffffff"/>
  </g>
  <g id="axes_1">
   <g id="patch_2">
    <path d="M 54.47 386.44 
L 637.2 386.44 
L 637.2 10.8 
L 54.47 10.8 
z
" style="fill: #ffffff"/>
   </g>
   <g id="patch_3">
    <path d="M 80.957727 386.44 
L 87.264329 386.44 
L 87.264329 386.061826 
L 80.957727 386.061826 
z
" clip-path="url(#p973123e612)" style="fill: #1f77b4"/>
   </g>
   <g id="patch_4">
    <path d="M 87.264329 386.44 
L 93.570931 386.44 
L 93.570931 386.061826 
L 87.264329 386.061826 
z
" clip-path="url(#p973123e612)" style="fill: #1f77b4"/>
   </g>
   <g id="patch_5">
    <path d="M 93.570931 386.44 
L 99.877532 386.44 
L 99.877532 386.44 
L 93.570931 386.44 
z
" clip-path="url(#p973123e612)" style="fill: #1f77b4"/>
   </g>
   <g id="patch_6">
    <path d="M 99.877532 386.44 
L 106.184134 386.44 
L 106.184134 386.44 
L 99.877532 386.44 
z
" clip-path="url(#p973123e612)" style="fill: #1f77b4"/>
   </g>
   <g id="patch_7">
    <path d="M 106.184134 386.44 
L 112.490736 386.44 
L 112.490736 386.44 
L 106.184134 386.44 
z
" clip-path="url(#p973123e612)" style="fill: #1f77b4"/>
   </g>
   <g id="patch_8">
    <path d="M 112.490736 386.44 
L 118.797338 386.44 
L 118.797338 385.305479 
L 112.490736 385.305479 
z
" clip-path="url(#p973123e612)" style="fill: #1f77b4"/>
   </g>
   <g id="patch_9">
    <path d="M 118.797338 386.44 
L 125.103939 386.44 
L 125.103939 384.549131 
L 118.797338 384.549131 
z
" clip-path="url(#p973123e612)" style="fill: #1f77b4"/>
   </g>
   <g id="patch_10">
    <path d="M 125.103939 386.44 
L 131.410541 386.44 
L 131.410541 383.036436 
L 125.103939 383.036436 
z
" clip-path="url(#p973123e612)" style="fill: #1f77b4"/>
   </g>
   <g id="patch_11">
    <path d="M 131.410541 386.44 
L 137.717143 386.44 
L 137.717143 382.280089 
L 131.410541 382.280089 
z
" clip-path="url(#p973123e612)" style="fill: #1f77b4"/>
   </g>
   <g id="patch_12">
    <path d="M 137.717143 386.44 
L 144.023745 386.44 
L 144.023745 382.658262 
L 137.717143 382.658262 
z
" clip-path="url(#p973123e612)" style="fill: #1f77b4"/>
   </g>
   <g id="patch_13">
    <path d="M 144.023745 386.44 
L 150.330346 386.44 
L 150.330346 381.901915 
L 144.023745 381.901915 
z
" clip-path="url(#p973123e612)" style="fill: #1f77b4"/>
   </g>
   <g id="patch_14">
    <path d="M 150.330346 386.44 
L 156.636948 386.44 
L 156.636948 374.716613 
L 150.330346 374.716613 
z
" clip-path="url(#p973123e612)" style="fill: #1f77b4"/>
   </g>
   <g id="patch_15">
    <path d="M 156.636948 386.44 
L 162.94355 386.44 
L 162.94355 379.254698 
L 156.636948 379.254698 
z
" clip-path="url(#p973123e612)" style="fill: #1f77b4"/>
   </g>
   <g id="patch_16">
    <path d="M 162.94355 386.44 
L 169.250152 386.44 
L 169.250152 373.203918 
L 162.94355 373.203918 
z
" clip-path="url(#p973123e612)" style="fill: #1f77b4"/>
   </g>
   <g id="patch_17">
    <path d="M 169.250152 386.44 
L 175.556753 386.44 
L 175.556753 376.607482 
L 169.250152 376.607482 
z
" clip-path="url(#p973123e612)" style="fill: #1f77b4"/>
   </g>
   <g id="patch_18">
    <path d="M 175.556753 386.44 
L 181.863355 386.44 
L 181.863355 375.472961 
L 175.556753 375.472961 
z
" clip-path="url(#p973123e612)" style="fill: #1f77b4"/>
   </g>
   <g id="patch_19">
    <path d="M 181.863355 386.44 
L 188.169957 386.44 
L 188.169957 370.934876 
L 181.863355 370.934876 
z
" clip-path="url(#p973123e612)" style="fill: #1f77b4"/>
   </g>
   <g id="patch_20">
    <path d="M 188.169957 386.44 
L 194.476558 386.44 
L 194.476558 370.934876 
L 188.169957 370.934876 
z
" clip-path="url(#p973123e612)" style="fill: #1f77b4"/>
   </g>
   <g id="patch_21">
    <path d="M 194.476558 386.44 
L 200.78316 386.44 
L 200.78316 370.934876 
L 194.476558 370.934876 
z
" clip-path="url(#p973123e612)" style="fill: #1f77b4"/>
   </g>
   <g id="patch_22">
    <path d="M 200.78316 386.44 
L 207.089762 386.44 
L 207.089762 366.018617 
L 200.78316 366.018617 
z
" clip-path="url(#p973123e612)" style="fill: #1f77b4"/>
   </g>
   <g id="patch_23">
    <path d="M 207.089762 386.44 
L 213.396364 386.44 
L 213.396364 367.153138 
L 207.089762 367.153138 
z
" clip-path="url(#p973123e612)" style="fill: #1f77b4"/>
   </g>
   <g id="patch_24">
    <path d="M 213.396364 386.44 
L 219.702965 386.44 
L 219.702965 369.422181 
L 213.396364 369.422181 
z
" clip-path="url(#p973123e612)" style="fill: #1f77b4"/>
   </g>
   <g id="patch_25">
    <path d="M 219.702965 386.44 
L 226.009567 386.44 
L 226.009567 362.615053 
L 219.702965 362.615053 
z
" clip-path="url(#p973123e612)" style="fill: #1f77b4"/>
   </g>
   <g id="patch_26">
    <path d="M 226.009567 386.44 
L 232.316169 386.44 
L 232.316169 364.505922 
L 226.009567 364.505922 
z
" clip-path="url(#p973123e612)" style="fill: #1f77b4"/>
   </g>
   <g id="patch_27">
    <path d="M 232.316169 386.44 
L 238.622771 386.44 
L 238.622771 364.505922 
L 232.316169 364.505922 
z
" clip-path="url(#p973123e612)" style="fill: #1f77b4"/>
   </g>
   <g id="patch_28">
    <path d="M 238.622771 386.44 
L 244.929372 386.44 
L 244.929372 364.505922 
L 238.622771 364.505922 
z
" clip-path="url(#p973123e612)" style="fill: #1f77b4"/>
   </g>
   <g id="patch_29">
    <path d="M 244.929372 386.44 
L 251.235974 386.44 
L 251.235974 362.236879 
L 244.929372 362.236879 
z
" clip-path="url(#p973123e612)" style="fill: #1f77b4"/>
   </g>
   <g id="patch_30">
    <path d="M 251.235974 386.44 
L 257.542576 386.44 
L 257.542576 351.26984 
L 251.235974 351.26984 
z
" clip-path="url(#p973123e612)" style="fill: #1f77b4"/>
   </g>
   <g id="patch_31">
    <path d="M 257.542576 386.44 
L 263.849177 386.44 
L 263.849177 349.378971 
L 257.542576 349.378971 
z
" clip-path="url(#p973123e612)" style="fill: #1f77b4"/>
   </g>
   <g id="patch_32">
    <path d="M 263.849177 386.44 
L 270.155779 386.44 
L 270.155779 326.310371 
L 263.849177 326.310371 
z
" clip-path="url(#p973123e612)" style="fill: #1f77b4"/>
   </g>
   <g id="patch_33">
    <path d="M 270.155779 386.44 
L 276.462381 386.44 
L 276.462381 297.190992 
L 270.155779 297.190992 
z
" clip-path="url(#p973123e612)" style="fill: #1f77b4"/>
   </g>
   <g id="patch_34">
    <path d="M 276.462381 386.44 
L 282.768983 386.44 
L 282.768983 263.533527 
L 276.462381 263.533527 
z
" clip-path="url(#p973123e612)" style="fill: #1f77b4"/>
   </g>
   <g id="patch_35">
    <path d="M 282.768983 386.44 
L 289.075584 386.44 
L 289.075584 230.254235 
L 282.768983 230.254235 
z
" clip-path="url(#p973123e612)" style="fill: #1f77b4"/>
   </g>
   <g id="patch_36">
    <path d="M 289.075584 386.44 
L 295.382186 386.44 
L 295.382186 185.251557 
L 289.075584 185.251557 
z
" clip-path="url(#p973123e612)" style="fill: #1f77b4"/>
   </g>
   <g id="patch_37">
    <path d="M 295.382186 386.44 
L 301.688788 386.44 
L 301.688788 157.644873 
L 295.382186 157.644873 
z
" clip-path="url(#p973123e612)" style="fill: #1f77b4"/>
   </g>
   <g id="patch_38">
    <path d="M 301.688788 386.44 
L 307.99539 386.44 
L 307.99539 168.611912 
L 301.688788 168.611912 
z
" clip-path="url(#p973123e612)" style="fill: #1f77b4"/>
   </g>
   <g id="patch_39">
    <path d="M 307.99539 386.44 
L 314.301991 386.44 
L 314.301991 161.42661 
L 307.99539 161.42661 
z
" clip-path="url(#p973123e612)" style="fill: #1f77b4"/>
   </g>
   <g id="patch_40">
    <path d="M 314.301991 386.44 
L 320.608593 386.44 
L 320.608593 174.284518 
L 314.301991 174.284518 
z
" clip-path="url(#p973123e612)" style="fill: #1f77b4"/>
   </g>
   <g id="patch_41">
    <path d="M 320.608593 386.44 
L 326.915195 386.44 
L 326.915195 158.779394 
L 320.608593 158.779394 
z
" clip-path="url(#p973123e612)" style="fill: #1f77b4"/>
   </g>
   <g id="patch_42">
    <path d="M 326.915195 386.44 
L 333.221797 386.44 
L 333.221797 173.149997 
L 326.915195 173.149997 
z
" clip-path="url(#p973123e612)" style="fill: #1f77b4"/>
   </g>
   <g id="patch_43">
    <path d="M 333.221797 386.44 
L 339.528398 386.44 
L 339.528398 140.627053 
L 333.221797 140.627053 
z
" clip-path="url(#p973123e612)" style="fill: #1f77b4"/>
   </g>
   <g id="patch_44">
    <path d="M 339.528398 386.44 
L 345.835 386.44 
L 345.835 98.649765 
L 339.528398 98.649765 
z
" clip-path="url(#p973123e612)" style="fill: #1f77b4"/>
   </g>
   <g id="patch_45">
    <path d="M 345.835 386.44 
L 352.141602 386.44 
L 352.141602 75.95934 
L 345.835 75.95934 
z
" clip-path="url(#p973123e612)" style="fill: #1f77b4"/>
   </g>
   <g id="patch_46">
    <path d="M 352.141602 386.44 
L 358.448203 386.44 
L 358.448203 34.738399 
L 352.141602 34.738399 
z
" clip-path="url(#p973123e612)" style="fill: #1f77b4"/>
   </g>
   <g id="patch_47">
    <path d="M 358.448203 386.44 
L 364.754805 386.44 
L 364.754805 29.065793 
L 358.448203 29.065793 
z
" clip-path="url(#p973123e612)" style="fill: #1f77b4"/>
   </g>
   <g id="patch_48">
    <path d="M 364.754805 386.44 
L 371.061407 386.44 
L 371.061407 28.687619 
L 364.754805 28.687619 
z
" clip-path="url(#p973123e612)" style="fill: #1f77b4"/>
   </g>
   <g id="patch_49">
    <path d="M 371.061407 386.44 
L 377.368009 386.44 
L 377.368009 44.570917 
L 371.061407 44.570917 
z
" clip-path="url(#p973123e612)" style="fill: #1f77b4"/>
   </g>
   <g id="patch_50">
    <path d="M 377.368009 386.44 
L 383.67461 386.44 
L 383.67461 39.276484 
L 377.368009 39.276484 
z
" clip-path="url(#p973123e612)" style="fill: #1f77b4"/>
   </g>
   <g id="patch_51">
    <path d="M 383.67461 386.44 
L 389.981212 386.44 
L 389.981212 87.682726 
L 383.67461 87.682726 
z
" clip-path="url(#p973123e612)" style="fill: #1f77b4"/>
   </g>
   <g id="patch_52">
    <path d="M 389.981212 386.44 
L 396.287814 386.44 
L 396.287814 81.631946 
L 389.981212 81.631946 
z
" clip-path="url(#p973123e612)" style="fill: #1f77b4"/>
   </g>
   <g id="patch_53">
    <path d="M 396.287814 386.44 
L 402.594416 386.44 
L 402.594416 72.933949 
L 396.287814 72.933949 
z
" clip-path="url(#p973123e612)" style="fill: #1f77b4"/>
   </g>
   <g id="patch_54">
    <path d="M 402.594416 386.44 
L 408.901017 386.44 
L 408.901017 75.202992 
L 402.594416 75.202992 
z
" clip-path="url(#p973123e612)" style="fill: #1f77b4"/>
   </g>
   <g id="patch_55">
    <path d="M 408.901017 386.44 
L 415.207619 386.44 
L 415.207619 80.497425 
L 408.901017 80.497425 
z
" clip-path="url(#p973123e612)" style="fill: #1f77b4"/>
   </g>
   <g id="patch_56">
    <path d="M 415.207619 386.44 
L 421.514221 386.44 
L 421.514221 64.9923 
L 415.207619 64.9923 
z
" clip-path="url(#p973123e612)" style="fill: #1f77b4"/>
   </g>
   <g id="patch_57">
    <path d="M 421.514221 386.44 
L 427.820823 386.44 
L 427.820823 58.563346 
L 421.514221 58.563346 
z
" clip-path="url(#p973123e612)" style="fill: #1f77b4"/>
   </g>
   <g id="patch_58">
    <path d="M 427.820823 386.44 
L 434.127424 386.44 
L 434.127424 83.900989 
L 427.820823 83.900989 
z
" clip-path="url(#p973123e612)" style="fill: #1f77b4"/>
   </g>
   <g id="patch_59">
    <path d="M 434.127424 386.44 
L 440.434026 386.44 
L 440.434026 101.675156 
L 434.127424 101.675156 
z
" clip-path="url(#p973123e612)" style="fill: #1f77b4"/>
   </g>
   <g id="patch_60">
    <path d="M 440.434026 386.44 
L 446.740628 386.44 
L 446.740628 132.30723 
L 440.434026 132.30723 
z
" clip-path="url(#p973123e612)" style="fill: #1f77b4"/>
   </g>
   <g id="patch_61">
    <path d="M 446.740628 386.44 
L 453.047229 386.44 
L 453.047229 148.568702 
L 446.740628 148.568702 
z
" clip-path="url(#p973123e612)" style="fill: #1f77b4"/>
   </g>
   <g id="patch_62">
    <path d="M 453.047229 386.44 
L 459.353831 386.44 
L 459.353831 162.939305 
L 453.047229 162.939305 
z
" clip-path="url(#p973123e612)" style="fill: #1f77b4"/>
   </g>
   <g id="patch_63">
    <path d="M 459.353831 386.44 
L 465.660433 386.44 
L 465.660433 198.487639 
L 459.353831 198.487639 
z
" clip-path="url(#p973123e612)" style="fill: #1f77b4"/>
   </g>
   <g id="patch_64">
    <path d="M 465.660433 386.44 
L 471.967035 386.44 
L 471.967035 218.152675 
L 465.660433 218.152675 
z
" clip-path="url(#p973123e612)" style="fill: #1f77b4"/>
   </g>
   <g id="patch_65">
    <path d="M 471.967035 386.44 
L 478.273636 386.44 
L 478.273636 244.624838 
L 471.967035 244.624838 
z
" clip-path="url(#p973123e612)" style="fill: #1f77b4"/>
   </g>
   <g id="patch_66">
    <path d="M 478.273636 386.44 
L 484.580238 386.44 
L 484.580238 272.231523 
L 478.273636 272.231523 
z
" clip-path="url(#p973123e612)" style="fill: #1f77b4"/>
   </g>
   <g id="patch_67">
    <path d="M 484.580238 386.44 
L 490.88684 386.44 
L 490.88684 291.518385 
L 484.580238 291.518385 
z
" clip-path="url(#p973123e612)" style="fill: #1f77b4"/>
   </g>
   <g id="patch_68">
    <path d="M 490.88684 386.44 
L 497.193442 386.44 
L 497.193442 314.208811 
L 490.88684 314.208811 
z
" clip-path="url(#p973123e612)" style="fill: #1f77b4"/>
   </g>
   <g id="patch_69">
    <path d="M 497.193442 386.44 
L 503.500043 386.44 
L 503.500043 328.20124 
L 497.193442 328.20124 
z
" clip-path="url(#p973123e612)" style="fill: #1f77b4"/>
   </g>
   <g id="patch_70">
    <path d="M 503.500043 386.44 
L 509.806645 386.44 
L 509.806645 333.873847 
L 503.500043 333.873847 
z
" clip-path="url(#p973123e612)" style="fill: #1f77b4"/>
   </g>
   <g id="patch_71">
    <path d="M 509.806645 386.44 
L 516.113247 386.44 
L 516.113247 347.488102 
L 509.806645 347.488102 
z
" clip-path="url(#p973123e612)" style="fill: #1f77b4"/>
   </g>
   <g id="patch_72">
    <path d="M 516.113247 386.44 
L 522.419848 386.44 
L 522.419848 351.648014 
L 516.113247 351.648014 
z
" clip-path="url(#p973123e612)" style="fill: #1f77b4"/>
   </g>
   <g id="patch_73">
    <path d="M 522.419848 386.44 
L 528.72645 386.44 
L 528.72645 370.934876 
L 522.419848 370.934876 
z
" clip-path="url(#p973123e612)" style="fill: #1f77b4"/>
   </g>
   <g id="patch_74">
    <path d="M 528.72645 386.44 
L 535.033052 386.44 
L 535.033052 367.531312 
L 528.72645 367.531312 
z
" clip-path="url(#p973123e612)" style="fill: #1f77b4"/>
   </g>
   <g id="patch_75">
    <path d="M 535.033052 386.44 
L 541.339654 386.44 
L 541.339654 373.203918 
L 535.033052 373.203918 
z
" clip-path="url(#p973123e612)" style="fill: #1f77b4"/>
   </g>
   <g id="patch_76">
    <path d="M 541.339654 386.44 
L 547.646255 386.44 
L 547.646255 380.767394 
L 541.339654 380.767394 
z
" clip-path="url(#p973123e612)" style="fill: #1f77b4"/>
   </g>
   <g id="patch_77">
    <path d="M 547.646255 386.44 
L 553.952857 386.44 
L 553.952857 381.901915 
L 547.646255 381.901915 
z
" clip-path="url(#p973123e612)" style="fill: #1f77b4"/>
   </g>
   <g id="patch_78">
    <path d="M 553.952857 386.44 
L 560.259459 386.44 
L 560.259459 383.036436 
L 553.952857 383.036436 
z
" clip-path="url(#p973123e612)" style="fill: #1f77b4"/>
   </g>
   <g id="patch_79">
    <path d="M 560.259459 386.44 
L 566.566061 386.44 
L 566.566061 383.792784 
L 560.259459 383.792784 
z
" clip-path="url(#p973123e612)" style="fill: #1f77b4"/>
   </g>
   <g id="patch_80">
    <path d="M 566.566061 386.44 
L 572.872662 386.44 
L 572.872662 384.170957 
L 566.566061 384.170957 
z
" clip-path="url(#p973123e612)" style="fill: #1f77b4"/>
   </g>
   <g id="patch_81">
    <path d="M 572.872662 386.44 
L 579.179264 386.44 
L 579.179264 385.305479 
L 572.872662 385.305479 
z
" clip-path="url(#p973123e612)" style="fill: #1f77b4"/>
   </g>
   <g id="patch_82">
    <path d="M 579.179264 386.44 
L 585.485866 386.44 
L 585.485866 385.305479 
L 579.179264 385.305479 
z
" clip-path="url(#p973123e612)" style="fill: #1f77b4"/>
   </g>
   <g id="patch_83">
    <path d="M 585.485866 386.44 
L 591.792468 386.44 
L 591.792468 385.683652 
L 585.485866 385.683652 
z
" clip-path="url(#p973123e612)" style="fill: #1f77b4"/>
   </g>
   <g id="patch_84">
    <path d="M 591.792468 386.44 
L 598.099069 386.44 
L 598.099069 386.44 
L 591.792468 386.44 
z
" clip-path="url(#p973123e612)" style="fill: #1f77b4"/>
   </g>
   <g id="patch_85">
    <path d="M 598.099069 386.44 
L 604.405671 386.44 
L 604.405671 386.44 
L 598.099069 386.44 
z
" clip-path="url(#p973123e612)" style="fill: #1f77b4"/>
   </g>
   <g id="patch_86">
    <path d="M 604.405671 386.44 
L 610.712273 386.44 
L 610.712273 385.683652 
L 604.405671 385.683652 
z
" clip-path="url(#p973123e612)" style="fill: #1f77b4"/>
   </g>
   <g id="matplotlib.axis_1">
    <g id="xtick_1">
     <g id="line2d_1">
      <defs>
       <path id="m8873f566d2" d="M 0 0 
L 0 3.5 
" style="stroke: #000000; stroke-width: 0.8"/>
      </defs>
      <g>
       <use xlink:href="#m8873f566d2" x="94.015264" y="386.44" style="stroke: #000000; stroke-width: 0.8"/>
      </g>
     </g>
     <g id="text_1">
      <!-- −10 -->
      <g transform="translate(83.462921 401.038437) scale(0.1 -0.1)">
       <defs>
        <path id="DejaVuSans-2212" d="M 678 2272 
L 4684 2272 
L 4684 1741 
L 678 1741 
L 678 2272 
z
" transform="scale(0.015625)"/>
        <path id="DejaVuSans-31" d="M 794 531 
L 1825 531 
L 1825 4091 
L 703 3866 
L 703 4441 
L 1819 4666 
L 2450 4666 
L 2450 531 
L 3481 531 
L 3481 0 
L 794 0 
L 794 531 
z
" transform="scale(0.015625)"/>
        <path id="DejaVuSans-30" d="M 2034 4250 
Q 1547 4250 1301 3770 
Q 1056 3291 1056 2328 
Q 1056 1369 1301 889 
Q 1547 409 2034 409 
Q 2525 409 2770 889 
Q 3016 1369 3016 2328 
Q 3016 3291 2770 3770 
Q 2525 4250 2034 4250 
z
M 2034 4750 
Q 2819 4750 3233 4129 
Q 3647 3509 3647 2328 
Q 3647 1150 3233 529 
Q 2819 -91 2034 -91 
Q 1250 -91 836 529 
Q 422 1150 422 2328 
Q 422 3509 836 4129 
Q 1250 4750 2034 4750 
z
" transform="scale(0.015625)"/>
       </defs>
       <use xlink:href="#DejaVuSans-2212"/>
       <use xlink:href="#DejaVuSans-31" x="83.789062"/>
       <use xlink:href="#DejaVuSans-30" x="147.412109"/>
      </g>
     </g>
    </g>
    <g id="xtick_2">
     <g id="line2d_2">
      <g>
       <use xlink:href="#m8873f566d2" x="176.1492" y="386.44" style="stroke: #000000; stroke-width: 0.8"/>
      </g>
     </g>
     <g id="text_2">
      <!-- −9 -->
      <g transform="translate(168.778106 401.038437) scale(0.1 -0.1)">
       <defs>
        <path id="DejaVuSans-39" d="M 703 97 
L 703 672 
Q 941 559 1184 500 
Q 1428 441 1663 441 
Q 2288 441 2617 861 
Q 2947 1281 2994 2138 
Q 2813 1869 2534 1725 
Q 2256 1581 1919 1581 
Q 1219 1581 811 2004 
Q 403 2428 403 3163 
Q 403 3881 828 4315 
Q 1253 4750 1959 4750 
Q 2769 4750 3195 4129 
Q 3622 3509 3622 2328 
Q 3622 1225 3098 567 
Q 2575 -91 1691 -91 
Q 1453 -91 1209 -44 
Q 966 3 703 97 
z
M 1959 2075 
Q 2384 2075 2632 2365 
Q 2881 2656 2881 3163 
Q 2881 3666 2632 3958 
Q 2384 4250 1959 4250 
Q 1534 4250 1286 3958 
Q 1038 3666 1038 3163 
Q 1038 2656 1286 2365 
Q 1534 2075 1959 2075 
z
" transform="scale(0.015625)"/>
       </defs>
       <use xlink:href="#DejaVuSans-2212"/>
       <use xlink:href="#DejaVuSans-39" x="83.789062"/>
      </g>
     </g>
    </g>
    <g id="xtick_3">
     <g id="line2d_3">
      <g>
       <use xlink:href="#m8873f566d2" x="258.283135" y="386.44" style="stroke: #000000; stroke-width: 0.8"/>
      </g>
     </g>
     <g id="text_3">
      <!-- −8 -->
      <g transform="translate(250.912041 401.038437) scale(0.1 -0.1)">
       <defs>
        <path id="DejaVuSans-38" d="M 2034 2216 
Q 1584 2216 1326 1975 
Q 1069 1734 1069 1313 
Q 1069 891 1326 650 
Q 1584 409 2034 409 
Q 2484 409 2743 651 
Q 3003 894 3003 1313 
Q 3003 1734 2745 1975 
Q 2488 2216 2034 2216 
z
M 1403 2484 
Q 997 2584 770 2862 
Q 544 3141 544 3541 
Q 544 4100 942 4425 
Q 1341 4750 2034 4750 
Q 2731 4750 3128 4425 
Q 3525 4100 3525 3541 
Q 3525 3141 3298 2862 
Q 3072 2584 2669 2484 
Q 3125 2378 3379 2068 
Q 3634 1759 3634 1313 
Q 3634 634 3220 271 
Q 2806 -91 2034 -91 
Q 1263 -91 848 271 
Q 434 634 434 1313 
Q 434 1759 690 2068 
Q 947 2378 1403 2484 
z
M 1172 3481 
Q 1172 3119 1398 2916 
Q 1625 2713 2034 2713 
Q 2441 2713 2670 2916 
Q 2900 3119 2900 3481 
Q 2900 3844 2670 4047 
Q 2441 4250 2034 4250 
Q 1625 4250 1398 4047 
Q 1172 3844 1172 3481 
z
" transform="scale(0.015625)"/>
       </defs>
       <use xlink:href="#DejaVuSans-2212"/>
       <use xlink:href="#DejaVuSans-38" x="83.789062"/>
      </g>
     </g>
    </g>
    <g id="xtick_4">
     <g id="line2d_4">
      <g>
       <use xlink:href="#m8873f566d2" x="340.41707" y="386.44" style="stroke: #000000; stroke-width: 0.8"/>
      </g>
     </g>
     <g id="text_4">
      <!-- −7 -->
      <g transform="translate(333.045977 401.038437) scale(0.1 -0.1)">
       <defs>
        <path id="DejaVuSans-37" d="M 525 4666 
L 3525 4666 
L 3525 4397 
L 1831 0 
L 1172 0 
L 2766 4134 
L 525 4134 
L 525 4666 
z
" transform="scale(0.015625)"/>
       </defs>
       <use xlink:href="#DejaVuSans-2212"/>
       <use xlink:href="#DejaVuSans-37" x="83.789062"/>
      </g>
     </g>
    </g>
    <g id="xtick_5">
     <g id="line2d_5">
      <g>
       <use xlink:href="#m8873f566d2" x="422.551006" y="386.44" style="stroke: #000000; stroke-width: 0.8"/>
      </g>
     </g>
     <g id="text_5">
      <!-- −6 -->
      <g transform="translate(415.179912 401.038437) scale(0.1 -0.1)">
       <defs>
        <path id="DejaVuSans-36" d="M 2113 2584 
Q 1688 2584 1439 2293 
Q 1191 2003 1191 1497 
Q 1191 994 1439 701 
Q 1688 409 2113 409 
Q 2538 409 2786 701 
Q 3034 994 3034 1497 
Q 3034 2003 2786 2293 
Q 2538 2584 2113 2584 
z
M 3366 4563 
L 3366 3988 
Q 3128 4100 2886 4159 
Q 2644 4219 2406 4219 
Q 1781 4219 1451 3797 
Q 1122 3375 1075 2522 
Q 1259 2794 1537 2939 
Q 1816 3084 2150 3084 
Q 2853 3084 3261 2657 
Q 3669 2231 3669 1497 
Q 3669 778 3244 343 
Q 2819 -91 2113 -91 
Q 1303 -91 875 529 
Q 447 1150 447 2328 
Q 447 3434 972 4092 
Q 1497 4750 2381 4750 
Q 2619 4750 2861 4703 
Q 3103 4656 3366 4563 
z
" transform="scale(0.015625)"/>
       </defs>
       <use xlink:href="#DejaVuSans-2212"/>
       <use xlink:href="#DejaVuSans-36" x="83.789062"/>
      </g>
     </g>
    </g>
    <g id="xtick_6">
     <g id="line2d_6">
      <g>
       <use xlink:href="#m8873f566d2" x="504.684941" y="386.44" style="stroke: #000000; stroke-width: 0.8"/>
      </g>
     </g>
     <g id="text_6">
      <!-- −5 -->
      <g transform="translate(497.313847 401.038437) scale(0.1 -0.1)">
       <defs>
        <path id="DejaVuSans-35" d="M 691 4666 
L 3169 4666 
L 3169 4134 
L 1269 4134 
L 1269 2991 
Q 1406 3038 1543 3061 
Q 1681 3084 1819 3084 
Q 2600 3084 3056 2656 
Q 3513 2228 3513 1497 
Q 3513 744 3044 326 
Q 2575 -91 1722 -91 
Q 1428 -91 1123 -41 
Q 819 9 494 109 
L 494 744 
Q 775 591 1075 516 
Q 1375 441 1709 441 
Q 2250 441 2565 725 
Q 2881 1009 2881 1497 
Q 2881 1984 2565 2268 
Q 2250 2553 1709 2553 
Q 1456 2553 1204 2497 
Q 953 2441 691 2322 
L 691 4666 
z
" transform="scale(0.015625)"/>
       </defs>
       <use xlink:href="#DejaVuSans-2212"/>
       <use xlink:href="#DejaVuSans-35" x="83.789062"/>
      </g>
     </g>
    </g>
    <g id="xtick_7">
     <g id="line2d_7">
      <g>
       <use xlink:href="#m8873f566d2" x="586.818876" y="386.44" style="stroke: #000000; stroke-width: 0.8"/>
      </g>
     </g>
     <g id="text_7">
      <!-- −4 -->
      <g transform="translate(579.447782 401.038437) scale(0.1 -0.1)">
       <defs>
        <path id="DejaVuSans-34" d="M 2419 4116 
L 825 1625 
L 2419 1625 
L 2419 4116 
z
M 2253 4666 
L 3047 4666 
L 3047 1625 
L 3713 1625 
L 3713 1100 
L 3047 1100 
L 3047 0 
L 2419 0 
L 2419 1100 
L 313 1100 
L 313 1709 
L 2253 4666 
z
" transform="scale(0.015625)"/>
       </defs>
       <use xlink:href="#DejaVuSans-2212"/>
       <use xlink:href="#DejaVuSans-34" x="83.789062"/>
      </g>
     </g>
    </g>
    <g id="text_8">
     <!-- homo -->
     <g transform="translate(326.014062 417.755938) scale(0.14 -0.14)">
      <defs>
       <path id="DejaVuSans-68" d="M 3513 2113 
L 3513 0 
L 2938 0 
L 2938 2094 
Q 2938 2591 2744 2837 
Q 2550 3084 2163 3084 
Q 1697 3084 1428 2787 
Q 1159 2491 1159 1978 
L 1159 0 
L 581 0 
L 581 4863 
L 1159 4863 
L 1159 2956 
Q 1366 3272 1645 3428 
Q 1925 3584 2291 3584 
Q 2894 3584 3203 3211 
Q 3513 2838 3513 2113 
z
" transform="scale(0.015625)"/>
       <path id="DejaVuSans-6f" d="M 1959 3097 
Q 1497 3097 1228 2736 
Q 959 2375 959 1747 
Q 959 1119 1226 758 
Q 1494 397 1959 397 
Q 2419 397 2687 759 
Q 2956 1122 2956 1747 
Q 2956 2369 2687 2733 
Q 2419 3097 1959 3097 
z
M 1959 3584 
Q 2709 3584 3137 3096 
Q 3566 2609 3566 1747 
Q 3566 888 3137 398 
Q 2709 -91 1959 -91 
Q 1206 -91 779 398 
Q 353 888 353 1747 
Q 353 2609 779 3096 
Q 1206 3584 1959 3584 
z
" transform="scale(0.015625)"/>
       <path id="DejaVuSans-6d" d="M 3328 2828 
Q 3544 3216 3844 3400 
Q 4144 3584 4550 3584 
Q 5097 3584 5394 3201 
Q 5691 2819 5691 2113 
L 5691 0 
L 5113 0 
L 5113 2094 
Q 5113 2597 4934 2840 
Q 4756 3084 4391 3084 
Q 3944 3084 3684 2787 
Q 3425 2491 3425 1978 
L 3425 0 
L 2847 0 
L 2847 2094 
Q 2847 2600 2669 2842 
Q 2491 3084 2119 3084 
Q 1678 3084 1418 2786 
Q 1159 2488 1159 1978 
L 1159 0 
L 581 0 
L 581 3500 
L 1159 3500 
L 1159 2956 
Q 1356 3278 1631 3431 
Q 1906 3584 2284 3584 
Q 2666 3584 2933 3390 
Q 3200 3197 3328 2828 
z
" transform="scale(0.015625)"/>
      </defs>
      <use xlink:href="#DejaVuSans-68"/>
      <use xlink:href="#DejaVuSans-6f" x="63.378906"/>
      <use xlink:href="#DejaVuSans-6d" x="124.560547"/>
      <use xlink:href="#DejaVuSans-6f" x="221.972656"/>
     </g>
    </g>
   </g>
   <g id="matplotlib.axis_2">
    <g id="ytick_1">
     <g id="line2d_8">
      <defs>
       <path id="md850ca8735" d="M 0 0 
L -3.5 0 
" style="stroke: #000000; stroke-width: 0.8"/>
      </defs>
      <g>
       <use xlink:href="#md850ca8735" x="54.47" y="386.44" style="stroke: #000000; stroke-width: 0.8"/>
      </g>
     </g>
     <g id="text_9">
      <!-- 0 -->
      <g transform="translate(41.1075 390.239219) scale(0.1 -0.1)">
       <use xlink:href="#DejaVuSans-30"/>
      </g>
     </g>
    </g>
    <g id="ytick_2">
     <g id="line2d_9">
      <g>
       <use xlink:href="#md850ca8735" x="54.47" y="310.805247" style="stroke: #000000; stroke-width: 0.8"/>
      </g>
     </g>
     <g id="text_10">
      <!-- 200 -->
      <g transform="translate(28.3825 314.604466) scale(0.1 -0.1)">
       <defs>
        <path id="DejaVuSans-32" d="M 1228 531 
L 3431 531 
L 3431 0 
L 469 0 
L 469 531 
Q 828 903 1448 1529 
Q 2069 2156 2228 2338 
Q 2531 2678 2651 2914 
Q 2772 3150 2772 3378 
Q 2772 3750 2511 3984 
Q 2250 4219 1831 4219 
Q 1534 4219 1204 4116 
Q 875 4013 500 3803 
L 500 4441 
Q 881 4594 1212 4672 
Q 1544 4750 1819 4750 
Q 2544 4750 2975 4387 
Q 3406 4025 3406 3419 
Q 3406 3131 3298 2873 
Q 3191 2616 2906 2266 
Q 2828 2175 2409 1742 
Q 1991 1309 1228 531 
z
" transform="scale(0.015625)"/>
       </defs>
       <use xlink:href="#DejaVuSans-32"/>
       <use xlink:href="#DejaVuSans-30" x="63.623047"/>
       <use xlink:href="#DejaVuSans-30" x="127.246094"/>
      </g>
     </g>
    </g>
    <g id="ytick_3">
     <g id="line2d_10">
      <g>
       <use xlink:href="#md850ca8735" x="54.47" y="235.170494" style="stroke: #000000; stroke-width: 0.8"/>
      </g>
     </g>
     <g id="text_11">
      <!-- 400 -->
      <g transform="translate(28.3825 238.969713) scale(0.1 -0.1)">
       <use xlink:href="#DejaVuSans-34"/>
       <use xlink:href="#DejaVuSans-30" x="63.623047"/>
       <use xlink:href="#DejaVuSans-30" x="127.246094"/>
      </g>
     </g>
    </g>
    <g id="ytick_4">
     <g id="line2d_11">
      <g>
       <use xlink:href="#md850ca8735" x="54.47" y="159.535741" style="stroke: #000000; stroke-width: 0.8"/>
      </g>
     </g>
     <g id="text_12">
      <!-- 600 -->
      <g transform="translate(28.3825 163.33496) scale(0.1 -0.1)">
       <use xlink:href="#DejaVuSans-36"/>
       <use xlink:href="#DejaVuSans-30" x="63.623047"/>
       <use xlink:href="#DejaVuSans-30" x="127.246094"/>
      </g>
     </g>
    </g>
    <g id="ytick_5">
     <g id="line2d_12">
      <g>
       <use xlink:href="#md850ca8735" x="54.47" y="83.900989" style="stroke: #000000; stroke-width: 0.8"/>
      </g>
     </g>
     <g id="text_13">
      <!-- 800 -->
      <g transform="translate(28.3825 87.700207) scale(0.1 -0.1)">
       <use xlink:href="#DejaVuSans-38"/>
       <use xlink:href="#DejaVuSans-30" x="63.623047"/>
       <use xlink:href="#DejaVuSans-30" x="127.246094"/>
      </g>
     </g>
    </g>
    <g id="text_14">
     <!-- Count -->
     <g transform="translate(21.470938 219.407813) rotate(-90) scale(0.14 -0.14)">
      <defs>
       <path id="DejaVuSans-43" d="M 4122 4306 
L 4122 3641 
Q 3803 3938 3442 4084 
Q 3081 4231 2675 4231 
Q 1875 4231 1450 3742 
Q 1025 3253 1025 2328 
Q 1025 1406 1450 917 
Q 1875 428 2675 428 
Q 3081 428 3442 575 
Q 3803 722 4122 1019 
L 4122 359 
Q 3791 134 3420 21 
Q 3050 -91 2638 -91 
Q 1578 -91 968 557 
Q 359 1206 359 2328 
Q 359 3453 968 4101 
Q 1578 4750 2638 4750 
Q 3056 4750 3426 4639 
Q 3797 4528 4122 4306 
z
" transform="scale(0.015625)"/>
       <path id="DejaVuSans-75" d="M 544 1381 
L 544 3500 
L 1119 3500 
L 1119 1403 
Q 1119 906 1312 657 
Q 1506 409 1894 409 
Q 2359 409 2629 706 
Q 2900 1003 2900 1516 
L 2900 3500 
L 3475 3500 
L 3475 0 
L 2900 0 
L 2900 538 
Q 2691 219 2414 64 
Q 2138 -91 1772 -91 
Q 1169 -91 856 284 
Q 544 659 544 1381 
z
M 1991 3584 
L 1991 3584 
z
" transform="scale(0.015625)"/>
       <path id="DejaVuSans-6e" d="M 3513 2113 
L 3513 0 
L 2938 0 
L 2938 2094 
Q 2938 2591 2744 2837 
Q 2550 3084 2163 3084 
Q 1697 3084 1428 2787 
Q 1159 2491 1159 1978 
L 1159 0 
L 581 0 
L 581 3500 
L 1159 3500 
L 1159 2956 
Q 1366 3272 1645 3428 
Q 1925 3584 2291 3584 
Q 2894 3584 3203 3211 
Q 3513 2838 3513 2113 
z
" transform="scale(0.015625)"/>
       <path id="DejaVuSans-74" d="M 1172 4494 
L 1172 3500 
L 2356 3500 
L 2356 3053 
L 1172 3053 
L 1172 1153 
Q 1172 725 1289 603 
Q 1406 481 1766 481 
L 2356 481 
L 2356 0 
L 1766 0 
Q 1100 0 847 248 
Q 594 497 594 1153 
L 594 3053 
L 172 3053 
L 172 3500 
L 594 3500 
L 594 4494 
L 1172 4494 
z
" transform="scale(0.015625)"/>
      </defs>
      <use xlink:href="#DejaVuSans-43"/>
      <use xlink:href="#DejaVuSans-6f" x="69.824219"/>
      <use xlink:href="#DejaVuSans-75" x="131.005859"/>
      <use xlink:href="#DejaVuSans-6e" x="194.384766"/>
      <use xlink:href="#DejaVuSans-74" x="257.763672"/>
     </g>
    </g>
   </g>
   <g id="line2d_13">
    <path d="M 448.790459 386.44 
L 448.790459 28.687619 
" clip-path="url(#p973123e612)" style="fill: none; stroke: #ff0000; stroke-width: 1.6; stroke-linecap: square"/>
   </g>
   <g id="patch_87">
    <path d="M 54.47 386.44 
L 54.47 10.8 
" style="fill: none; stroke: #000000; stroke-width: 0.8; stroke-linejoin: miter; stroke-linecap: square"/>
   </g>
   <g id="patch_88">
    <path d="M 637.2 386.44 
L 637.2 10.8 
" style="fill: none; stroke: #000000; stroke-width: 0.8; stroke-linejoin: miter; stroke-linecap: square"/>
   </g>
   <g id="patch_89">
    <path d="M 54.47 386.44 
L 637.2 386.44 
" style="fill: none; stroke: #000000; stroke-width: 0.8; stroke-linejoin: miter; stroke-linecap: square"/>
   </g>
   <g id="patch_90">
    <path d="M 54.47 10.8 
L 637.2 10.8 
" style="fill: none; stroke: #000000; stroke-width: 0.8; stroke-linejoin: miter; stroke-linecap: square"/>
   </g>
   <g id="text_15">
    <!-- $\mu_1 = -6.535$ -->
    <g transform="translate(462.381 66.857188) scale(0.17 -0.17)">
     <defs>
      <path id="DejaVuSans-Oblique-3bc" d="M -84 -1331 
L 856 3500 
L 1434 3500 
L 1009 1322 
Q 997 1256 987 1175 
Q 978 1094 978 1013 
Q 978 722 1161 565 
Q 1344 409 1684 409 
Q 2147 409 2431 671 
Q 2716 934 2816 1459 
L 3213 3500 
L 3788 3500 
L 3266 809 
Q 3253 750 3248 706 
Q 3244 663 3244 628 
Q 3244 531 3283 486 
Q 3322 441 3406 441 
Q 3438 441 3492 456 
Q 3547 472 3647 513 
L 3559 50 
Q 3422 -19 3297 -55 
Q 3172 -91 3053 -91 
Q 2847 -91 2730 40 
Q 2613 172 2613 403 
Q 2438 153 2195 31 
Q 1953 -91 1625 -91 
Q 1334 -91 1117 43 
Q 900 178 831 397 
L 494 -1331 
L -84 -1331 
z
" transform="scale(0.015625)"/>
      <path id="DejaVuSans-3d" d="M 678 2906 
L 4684 2906 
L 4684 2381 
L 678 2381 
L 678 2906 
z
M 678 1631 
L 4684 1631 
L 4684 1100 
L 678 1100 
L 678 1631 
z
" transform="scale(0.015625)"/>
      <path id="DejaVuSans-2e" d="M 684 794 
L 1344 794 
L 1344 0 
L 684 0 
L 684 794 
z
" transform="scale(0.015625)"/>
      <path id="DejaVuSans-33" d="M 2597 2516 
Q 3050 2419 3304 2112 
Q 3559 1806 3559 1356 
Q 3559 666 3084 287 
Q 2609 -91 1734 -91 
Q 1441 -91 1130 -33 
Q 819 25 488 141 
L 488 750 
Q 750 597 1062 519 
Q 1375 441 1716 441 
Q 2309 441 2620 675 
Q 2931 909 2931 1356 
Q 2931 1769 2642 2001 
Q 2353 2234 1838 2234 
L 1294 2234 
L 1294 2753 
L 1863 2753 
Q 2328 2753 2575 2939 
Q 2822 3125 2822 3475 
Q 2822 3834 2567 4026 
Q 2313 4219 1838 4219 
Q 1578 4219 1281 4162 
Q 984 4106 628 3988 
L 628 4550 
Q 988 4650 1302 4700 
Q 1616 4750 1894 4750 
Q 2613 4750 3031 4423 
Q 3450 4097 3450 3541 
Q 3450 3153 3228 2886 
Q 3006 2619 2597 2516 
z
" transform="scale(0.015625)"/>
     </defs>
     <use xlink:href="#DejaVuSans-Oblique-3bc" transform="translate(0 0.78125)"/>
     <use xlink:href="#DejaVuSans-31" transform="translate(63.623047 -15.625) scale(0.7)"/>
     <use xlink:href="#DejaVuSans-3d" transform="translate(130.375977 0.78125)"/>
     <use xlink:href="#DejaVuSans-2212" transform="translate(253.129883 0.78125)"/>
     <use xlink:href="#DejaVuSans-36" transform="translate(356.401367 0.78125)"/>
     <use xlink:href="#DejaVuSans-2e" transform="translate(420.024414 0.78125)"/>
     <use xlink:href="#DejaVuSans-35" transform="translate(451.811523 0.78125)"/>
     <use xlink:href="#DejaVuSans-33" transform="translate(515.43457 0.78125)"/>
     <use xlink:href="#DejaVuSans-35" transform="translate(579.057617 0.78125)"/>
    </g>
    <!-- $\sigma_1 = 0.82$ -->
    <g transform="translate(462.381 85.928) scale(0.17 -0.17)">
     <defs>
      <path id="DejaVuSans-Oblique-3c3" d="M 2219 3044 
Q 1744 3044 1422 2700 
Q 1081 2341 969 1747 
Q 844 1119 1044 756 
Q 1241 397 1706 397 
Q 2166 397 2503 759 
Q 2844 1122 2966 1747 
Q 3075 2319 2881 2700 
Q 2700 3044 2219 3044 
z
M 2309 3503 
L 4219 3500 
L 4106 2925 
L 3463 2925 
Q 3706 2438 3575 1747 
Q 3406 888 2884 400 
Q 2359 -91 1609 -91 
Q 856 -91 525 400 
Q 194 888 363 1747 
Q 528 2609 1050 3097 
Q 1484 3503 2309 3503 
z
" transform="scale(0.015625)"/>
     </defs>
     <use xlink:href="#DejaVuSans-Oblique-3c3" transform="translate(0 0.78125)"/>
     <use xlink:href="#DejaVuSans-31" transform="translate(63.378906 -15.625) scale(0.7)"/>
     <use xlink:href="#DejaVuSans-3d" transform="translate(130.131836 0.78125)"/>
     <use xlink:href="#DejaVuSans-30" transform="translate(233.40332 0.78125)"/>
     <use xlink:href="#DejaVuSans-2e" transform="translate(297.026367 0.78125)"/>
     <use xlink:href="#DejaVuSans-38" transform="translate(326.188477 0.78125)"/>
     <use xlink:href="#DejaVuSans-32" transform="translate(389.811523 0.78125)"/>
    </g>
   </g>
  </g>
 </g>
 <defs>
  <clipPath id="p973123e612">
   <rect x="54.47" y="10.8" width="582.73" height="375.64"/>
  </clipPath>
 </defs>
</svg>
