<?xml version="1.0" encoding="utf-8" standalone="no"?>
<!DOCTYPE svg PUBLIC "-//W3C//DTD SVG 1.1//EN"
  "http://www.w3.org/Graphics/SVG/1.1/DTD/svg11.dtd">
<svg xmlns:xlink="http://www.w3.org/1999/xlink" width="504pt" height="504pt" viewBox="0 0 504 504" xmlns="http://www.w3.org/2000/svg" version="1.1">
 <metadata>
  <rdf:RDF xmlns:dc="http://purl.org/dc/elements/1.1/" xmlns:cc="http://creativecommons.org/ns#" xmlns:rdf="http://www.w3.org/1999/02/22-rdf-syntax-ns#">
   <cc:Work>
    <dc:type rdf:resource="http://purl.org/dc/dcmitype/StillImage"/>
    <dc:date>2023-11-23T17:13:09.141422</dc:date>
    <dc:format>image/svg+xml</dc:format>
    <dc:creator>
     <cc:Agent>
      <dc:title>Matplotlib v3.7.2, https://matplotlib.org/</dc:title>
     </cc:Agent>
    </dc:creator>
   </cc:Work>
  </rdf:RDF>
 </metadata>
 <defs>
  <style type="text/css">*{stroke-linejoin: round; stroke-linecap: butt}</style>
 </defs>
 <g id="figure_1">
  <g id="patch_1">
   <path d="M 0 504 
L 504 504 
L 504 0 
L 0 0 
z
" style="fill: #ffffff"/>
  </g>
  <g id="axes_1">
   <g id="patch_2">
    <path d="M 63 448.56 
L 453.6 448.56 
L 453.6 60.48 
L 63 60.48 
z
" style="fill: #ffffff"/>
   </g>
   <g id="patch_3">
    <path d="M 80.754545 448.56 
L 84.614229 448.56 
L 84.614229 448.1758 
L 80.754545 448.1758 
z
" clip-path="url(#pbb27a6e8ed)" style="fill: #1f77b4"/>
   </g>
   <g id="patch_4">
    <path d="M 84.614229 448.56 
L 88.473913 448.56 
L 88.473913 448.56 
L 84.614229 448.56 
z
" clip-path="url(#pbb27a6e8ed)" style="fill: #1f77b4"/>
   </g>
   <g id="patch_5">
    <path d="M 88.473913 448.56 
L 92.333597 448.56 
L 92.333597 448.56 
L 88.473913 448.56 
z
" clip-path="url(#pbb27a6e8ed)" style="fill: #1f77b4"/>
   </g>
   <g id="patch_6">
    <path d="M 92.333597 448.56 
L 96.193281 448.56 
L 96.193281 448.1758 
L 92.333597 448.1758 
z
" clip-path="url(#pbb27a6e8ed)" style="fill: #1f77b4"/>
   </g>
   <g id="patch_7">
    <path d="M 96.193281 448.56 
L 100.052964 448.56 
L 100.052964 448.56 
L 96.193281 448.56 
z
" clip-path="url(#pbb27a6e8ed)" style="fill: #1f77b4"/>
   </g>
   <g id="patch_8">
    <path d="M 100.052964 448.56 
L 103.912648 448.56 
L 103.912648 448.56 
L 100.052964 448.56 
z
" clip-path="url(#pbb27a6e8ed)" style="fill: #1f77b4"/>
   </g>
   <g id="patch_9">
    <path d="M 103.912648 448.56 
L 107.772332 448.56 
L 107.772332 448.56 
L 103.912648 448.56 
z
" clip-path="url(#pbb27a6e8ed)" style="fill: #1f77b4"/>
   </g>
   <g id="patch_10">
    <path d="M 107.772332 448.56 
L 111.632016 448.56 
L 111.632016 448.56 
L 107.772332 448.56 
z
" clip-path="url(#pbb27a6e8ed)" style="fill: #1f77b4"/>
   </g>
   <g id="patch_11">
    <path d="M 111.632016 448.56 
L 115.4917 448.56 
L 115.4917 448.56 
L 111.632016 448.56 
z
" clip-path="url(#pbb27a6e8ed)" style="fill: #1f77b4"/>
   </g>
   <g id="patch_12">
    <path d="M 115.4917 448.56 
L 119.351383 448.56 
L 119.351383 448.1758 
L 115.4917 448.1758 
z
" clip-path="url(#pbb27a6e8ed)" style="fill: #1f77b4"/>
   </g>
   <g id="patch_13">
    <path d="M 119.351383 448.56 
L 123.211067 448.56 
L 123.211067 447.791601 
L 119.351383 447.791601 
z
" clip-path="url(#pbb27a6e8ed)" style="fill: #1f77b4"/>
   </g>
   <g id="patch_14">
    <path d="M 123.211067 448.56 
L 127.070751 448.56 
L 127.070751 447.791601 
L 123.211067 447.791601 
z
" clip-path="url(#pbb27a6e8ed)" style="fill: #1f77b4"/>
   </g>
   <g id="patch_15">
    <path d="M 127.070751 448.56 
L 130.930435 448.56 
L 130.930435 447.407401 
L 127.070751 447.407401 
z
" clip-path="url(#pbb27a6e8ed)" style="fill: #1f77b4"/>
   </g>
   <g id="patch_16">
    <path d="M 130.930435 448.56 
L 134.790119 448.56 
L 134.790119 445.870603 
L 130.930435 445.870603 
z
" clip-path="url(#pbb27a6e8ed)" style="fill: #1f77b4"/>
   </g>
   <g id="patch_17">
    <path d="M 134.790119 448.56 
L 138.649802 448.56 
L 138.649802 446.254802 
L 134.790119 446.254802 
z
" clip-path="url(#pbb27a6e8ed)" style="fill: #1f77b4"/>
   </g>
   <g id="patch_18">
    <path d="M 138.649802 448.56 
L 142.509486 448.56 
L 142.509486 446.639002 
L 138.649802 446.639002 
z
" clip-path="url(#pbb27a6e8ed)" style="fill: #1f77b4"/>
   </g>
   <g id="patch_19">
    <path d="M 142.509486 448.56 
L 146.36917 448.56 
L 146.36917 445.870603 
L 142.509486 445.870603 
z
" clip-path="url(#pbb27a6e8ed)" style="fill: #1f77b4"/>
   </g>
   <g id="patch_20">
    <path d="M 146.36917 448.56 
L 150.228854 448.56 
L 150.228854 445.870603 
L 146.36917 445.870603 
z
" clip-path="url(#pbb27a6e8ed)" style="fill: #1f77b4"/>
   </g>
   <g id="patch_21">
    <path d="M 150.228854 448.56 
L 154.088538 448.56 
L 154.088538 445.102204 
L 150.228854 445.102204 
z
" clip-path="url(#pbb27a6e8ed)" style="fill: #1f77b4"/>
   </g>
   <g id="patch_22">
    <path d="M 154.088538 448.56 
L 157.948221 448.56 
L 157.948221 446.639002 
L 154.088538 446.639002 
z
" clip-path="url(#pbb27a6e8ed)" style="fill: #1f77b4"/>
   </g>
   <g id="patch_23">
    <path d="M 157.948221 448.56 
L 161.807905 448.56 
L 161.807905 443.949605 
L 157.948221 443.949605 
z
" clip-path="url(#pbb27a6e8ed)" style="fill: #1f77b4"/>
   </g>
   <g id="patch_24">
    <path d="M 161.807905 448.56 
L 165.667589 448.56 
L 165.667589 443.181206 
L 161.807905 443.181206 
z
" clip-path="url(#pbb27a6e8ed)" style="fill: #1f77b4"/>
   </g>
   <g id="patch_25">
    <path d="M 165.667589 448.56 
L 169.527273 448.56 
L 169.527273 439.33921 
L 165.667589 439.33921 
z
" clip-path="url(#pbb27a6e8ed)" style="fill: #1f77b4"/>
   </g>
   <g id="patch_26">
    <path d="M 169.527273 448.56 
L 173.386957 448.56 
L 173.386957 443.181206 
L 169.527273 443.181206 
z
" clip-path="url(#pbb27a6e8ed)" style="fill: #1f77b4"/>
   </g>
   <g id="patch_27">
    <path d="M 173.386957 448.56 
L 177.24664 448.56 
L 177.24664 437.802412 
L 173.386957 437.802412 
z
" clip-path="url(#pbb27a6e8ed)" style="fill: #1f77b4"/>
   </g>
   <g id="patch_28">
    <path d="M 177.24664 448.56 
L 181.106324 448.56 
L 181.106324 436.649813 
L 177.24664 436.649813 
z
" clip-path="url(#pbb27a6e8ed)" style="fill: #1f77b4"/>
   </g>
   <g id="patch_29">
    <path d="M 181.106324 448.56 
L 184.966008 448.56 
L 184.966008 438.186611 
L 181.106324 438.186611 
z
" clip-path="url(#pbb27a6e8ed)" style="fill: #1f77b4"/>
   </g>
   <g id="patch_30">
    <path d="M 184.966008 448.56 
L 188.825692 448.56 
L 188.825692 439.72341 
L 184.966008 439.72341 
z
" clip-path="url(#pbb27a6e8ed)" style="fill: #1f77b4"/>
   </g>
   <g id="patch_31">
    <path d="M 188.825692 448.56 
L 192.685375 448.56 
L 192.685375 428.197422 
L 188.825692 428.197422 
z
" clip-path="url(#pbb27a6e8ed)" style="fill: #1f77b4"/>
   </g>
   <g id="patch_32">
    <path d="M 192.685375 448.56 
L 196.545059 448.56 
L 196.545059 420.89763 
L 192.685375 420.89763 
z
" clip-path="url(#pbb27a6e8ed)" style="fill: #1f77b4"/>
   </g>
   <g id="patch_33">
    <path d="M 196.545059 448.56 
L 200.404743 448.56 
L 200.404743 415.134636 
L 196.545059 415.134636 
z
" clip-path="url(#pbb27a6e8ed)" style="fill: #1f77b4"/>
   </g>
   <g id="patch_34">
    <path d="M 200.404743 448.56 
L 204.264427 448.56 
L 204.264427 402.840249 
L 200.404743 402.840249 
z
" clip-path="url(#pbb27a6e8ed)" style="fill: #1f77b4"/>
   </g>
   <g id="patch_35">
    <path d="M 204.264427 448.56 
L 208.124111 448.56 
L 208.124111 400.150852 
L 204.264427 400.150852 
z
" clip-path="url(#pbb27a6e8ed)" style="fill: #1f77b4"/>
   </g>
   <g id="patch_36">
    <path d="M 208.124111 448.56 
L 211.983794 448.56 
L 211.983794 364.804491 
L 208.124111 364.804491 
z
" clip-path="url(#pbb27a6e8ed)" style="fill: #1f77b4"/>
   </g>
   <g id="patch_37">
    <path d="M 211.983794 448.56 
L 215.843478 448.56 
L 215.843478 359.809896 
L 211.983794 359.809896 
z
" clip-path="url(#pbb27a6e8ed)" style="fill: #1f77b4"/>
   </g>
   <g id="patch_38">
    <path d="M 215.843478 448.56 
L 219.703162 448.56 
L 219.703162 316.779543 
L 215.843478 316.779543 
z
" clip-path="url(#pbb27a6e8ed)" style="fill: #1f77b4"/>
   </g>
   <g id="patch_39">
    <path d="M 219.703162 448.56 
L 223.562846 448.56 
L 223.562846 317.163742 
L 219.703162 317.163742 
z
" clip-path="url(#pbb27a6e8ed)" style="fill: #1f77b4"/>
   </g>
   <g id="patch_40">
    <path d="M 223.562846 448.56 
L 227.42253 448.56 
L 227.42253 283.354179 
L 223.562846 283.354179 
z
" clip-path="url(#pbb27a6e8ed)" style="fill: #1f77b4"/>
   </g>
   <g id="patch_41">
    <path d="M 227.42253 448.56 
L 231.282213 448.56 
L 231.282213 278.359584 
L 227.42253 278.359584 
z
" clip-path="url(#pbb27a6e8ed)" style="fill: #1f77b4"/>
   </g>
   <g id="patch_42">
    <path d="M 231.282213 448.56 
L 235.141897 448.56 
L 235.141897 262.607401 
L 231.282213 262.607401 
z
" clip-path="url(#pbb27a6e8ed)" style="fill: #1f77b4"/>
   </g>
   <g id="patch_43">
    <path d="M 235.141897 448.56 
L 239.001581 448.56 
L 239.001581 253.002412 
L 235.141897 253.002412 
z
" clip-path="url(#pbb27a6e8ed)" style="fill: #1f77b4"/>
   </g>
   <g id="patch_44">
    <path d="M 239.001581 448.56 
L 242.861265 448.56 
L 242.861265 264.1442 
L 239.001581 264.1442 
z
" clip-path="url(#pbb27a6e8ed)" style="fill: #1f77b4"/>
   </g>
   <g id="patch_45">
    <path d="M 242.861265 448.56 
L 246.720949 448.56 
L 246.720949 230.334636 
L 242.861265 230.334636 
z
" clip-path="url(#pbb27a6e8ed)" style="fill: #1f77b4"/>
   </g>
   <g id="patch_46">
    <path d="M 246.720949 448.56 
L 250.580632 448.56 
L 250.580632 220.729647 
L 246.720949 220.729647 
z
" clip-path="url(#pbb27a6e8ed)" style="fill: #1f77b4"/>
   </g>
   <g id="patch_47">
    <path d="M 250.580632 448.56 
L 254.440316 448.56 
L 254.440316 209.587859 
L 250.580632 209.587859 
z
" clip-path="url(#pbb27a6e8ed)" style="fill: #1f77b4"/>
   </g>
   <g id="patch_48">
    <path d="M 254.440316 448.56 
L 258.3 448.56 
L 258.3 181.925489 
L 254.440316 181.925489 
z
" clip-path="url(#pbb27a6e8ed)" style="fill: #1f77b4"/>
   </g>
   <g id="patch_49">
    <path d="M 258.3 448.56 
L 262.159684 448.56 
L 262.159684 183.846486 
L 258.3 183.846486 
z
" clip-path="url(#pbb27a6e8ed)" style="fill: #1f77b4"/>
   </g>
   <g id="patch_50">
    <path d="M 262.159684 448.56 
L 266.019368 448.56 
L 266.019368 180.004491 
L 262.159684 180.004491 
z
" clip-path="url(#pbb27a6e8ed)" style="fill: #1f77b4"/>
   </g>
   <g id="patch_51">
    <path d="M 266.019368 448.56 
L 269.879051 448.56 
L 269.879051 161.178711 
L 266.019368 161.178711 
z
" clip-path="url(#pbb27a6e8ed)" style="fill: #1f77b4"/>
   </g>
   <g id="patch_52">
    <path d="M 269.879051 448.56 
L 273.738735 448.56 
L 273.738735 145.426528 
L 269.879051 145.426528 
z
" clip-path="url(#pbb27a6e8ed)" style="fill: #1f77b4"/>
   </g>
   <g id="patch_53">
    <path d="M 273.738735 448.56 
L 277.598419 448.56 
L 277.598419 145.810728 
L 273.738735 145.810728 
z
" clip-path="url(#pbb27a6e8ed)" style="fill: #1f77b4"/>
   </g>
   <g id="patch_54">
    <path d="M 277.598419 448.56 
L 281.458103 448.56 
L 281.458103 116.22736 
L 277.598419 116.22736 
z
" clip-path="url(#pbb27a6e8ed)" style="fill: #1f77b4"/>
   </g>
   <g id="patch_55">
    <path d="M 281.458103 448.56 
L 285.317787 448.56 
L 285.317787 128.905946 
L 281.458103 128.905946 
z
" clip-path="url(#pbb27a6e8ed)" style="fill: #1f77b4"/>
   </g>
   <g id="patch_56">
    <path d="M 285.317787 448.56 
L 289.17747 448.56 
L 289.17747 83.570395 
L 285.317787 83.570395 
z
" clip-path="url(#pbb27a6e8ed)" style="fill: #1f77b4"/>
   </g>
   <g id="patch_57">
    <path d="M 289.17747 448.56 
L 293.037154 448.56 
L 293.037154 84.338794 
L 289.17747 84.338794 
z
" clip-path="url(#pbb27a6e8ed)" style="fill: #1f77b4"/>
   </g>
   <g id="patch_58">
    <path d="M 293.037154 448.56 
L 296.896838 448.56 
L 296.896838 96.633181 
L 293.037154 96.633181 
z
" clip-path="url(#pbb27a6e8ed)" style="fill: #1f77b4"/>
   </g>
   <g id="patch_59">
    <path d="M 296.896838 448.56 
L 300.756522 448.56 
L 300.756522 83.186195 
L 296.896838 83.186195 
z
" clip-path="url(#pbb27a6e8ed)" style="fill: #1f77b4"/>
   </g>
   <g id="patch_60">
    <path d="M 300.756522 448.56 
L 304.616206 448.56 
L 304.616206 78.96 
L 300.756522 78.96 
z
" clip-path="url(#pbb27a6e8ed)" style="fill: #1f77b4"/>
   </g>
   <g id="patch_61">
    <path d="M 304.616206 448.56 
L 308.475889 448.56 
L 308.475889 85.491393 
L 304.616206 85.491393 
z
" clip-path="url(#pbb27a6e8ed)" style="fill: #1f77b4"/>
   </g>
   <g id="patch_62">
    <path d="M 308.475889 448.56 
L 312.335573 448.56 
L 312.335573 113.537963 
L 308.475889 113.537963 
z
" clip-path="url(#pbb27a6e8ed)" style="fill: #1f77b4"/>
   </g>
   <g id="patch_63">
    <path d="M 312.335573 448.56 
L 316.195257 448.56 
L 316.195257 115.84316 
L 312.335573 115.84316 
z
" clip-path="url(#pbb27a6e8ed)" style="fill: #1f77b4"/>
   </g>
   <g id="patch_64">
    <path d="M 316.195257 448.56 
L 320.054941 448.56 
L 320.054941 163.483909 
L 316.195257 163.483909 
z
" clip-path="url(#pbb27a6e8ed)" style="fill: #1f77b4"/>
   </g>
   <g id="patch_65">
    <path d="M 320.054941 448.56 
L 323.914625 448.56 
L 323.914625 173.088898 
L 320.054941 173.088898 
z
" clip-path="url(#pbb27a6e8ed)" style="fill: #1f77b4"/>
   </g>
   <g id="patch_66">
    <path d="M 323.914625 448.56 
L 327.774308 448.56 
L 327.774308 221.882245 
L 323.914625 221.882245 
z
" clip-path="url(#pbb27a6e8ed)" style="fill: #1f77b4"/>
   </g>
   <g id="patch_67">
    <path d="M 327.774308 448.56 
L 331.633992 448.56 
L 331.633992 223.034844 
L 327.774308 223.034844 
z
" clip-path="url(#pbb27a6e8ed)" style="fill: #1f77b4"/>
   </g>
   <g id="patch_68">
    <path d="M 331.633992 448.56 
L 335.493676 448.56 
L 335.493676 261.454802 
L 331.633992 261.454802 
z
" clip-path="url(#pbb27a6e8ed)" style="fill: #1f77b4"/>
   </g>
   <g id="patch_69">
    <path d="M 335.493676 448.56 
L 339.35336 448.56 
L 339.35336 277.591185 
L 335.493676 277.591185 
z
" clip-path="url(#pbb27a6e8ed)" style="fill: #1f77b4"/>
   </g>
   <g id="patch_70">
    <path d="M 339.35336 448.56 
L 343.213043 448.56 
L 343.213043 321.389938 
L 339.35336 321.389938 
z
" clip-path="url(#pbb27a6e8ed)" style="fill: #1f77b4"/>
   </g>
   <g id="patch_71">
    <path d="M 343.213043 448.56 
L 347.072727 448.56 
L 347.072727 335.989522 
L 343.213043 335.989522 
z
" clip-path="url(#pbb27a6e8ed)" style="fill: #1f77b4"/>
   </g>
   <g id="patch_72">
    <path d="M 347.072727 448.56 
L 350.932411 448.56 
L 350.932411 349.820707 
L 347.072727 349.820707 
z
" clip-path="url(#pbb27a6e8ed)" style="fill: #1f77b4"/>
   </g>
   <g id="patch_73">
    <path d="M 350.932411 448.56 
L 354.792095 448.56 
L 354.792095 367.493888 
L 350.932411 367.493888 
z
" clip-path="url(#pbb27a6e8ed)" style="fill: #1f77b4"/>
   </g>
   <g id="patch_74">
    <path d="M 354.792095 448.56 
L 358.651779 448.56 
L 358.651779 370.951684 
L 354.792095 370.951684 
z
" clip-path="url(#pbb27a6e8ed)" style="fill: #1f77b4"/>
   </g>
   <g id="patch_75">
    <path d="M 358.651779 448.56 
L 362.511462 448.56 
L 362.511462 392.082661 
L 358.651779 392.082661 
z
" clip-path="url(#pbb27a6e8ed)" style="fill: #1f77b4"/>
   </g>
   <g id="patch_76">
    <path d="M 362.511462 448.56 
L 366.371146 448.56 
L 366.371146 408.603243 
L 362.511462 408.603243 
z
" clip-path="url(#pbb27a6e8ed)" style="fill: #1f77b4"/>
   </g>
   <g id="patch_77">
    <path d="M 366.371146 448.56 
L 370.23083 448.56 
L 370.23083 418.208233 
L 366.371146 418.208233 
z
" clip-path="url(#pbb27a6e8ed)" style="fill: #1f77b4"/>
   </g>
   <g id="patch_78">
    <path d="M 370.23083 448.56 
L 374.090514 448.56 
L 374.090514 420.51343 
L 370.23083 420.51343 
z
" clip-path="url(#pbb27a6e8ed)" style="fill: #1f77b4"/>
   </g>
   <g id="patch_79">
    <path d="M 374.090514 448.56 
L 377.950198 448.56 
L 377.950198 426.660624 
L 374.090514 426.660624 
z
" clip-path="url(#pbb27a6e8ed)" style="fill: #1f77b4"/>
   </g>
   <g id="patch_80">
    <path d="M 377.950198 448.56 
L 381.809881 448.56 
L 381.809881 432.807817 
L 377.950198 432.807817 
z
" clip-path="url(#pbb27a6e8ed)" style="fill: #1f77b4"/>
   </g>
   <g id="patch_81">
    <path d="M 381.809881 448.56 
L 385.669565 448.56 
L 385.669565 433.576216 
L 381.809881 433.576216 
z
" clip-path="url(#pbb27a6e8ed)" style="fill: #1f77b4"/>
   </g>
   <g id="patch_82">
    <path d="M 385.669565 448.56 
L 389.529249 448.56 
L 389.529249 441.644407 
L 385.669565 441.644407 
z
" clip-path="url(#pbb27a6e8ed)" style="fill: #1f77b4"/>
   </g>
   <g id="patch_83">
    <path d="M 389.529249 448.56 
L 393.388933 448.56 
L 393.388933 440.491809 
L 389.529249 440.491809 
z
" clip-path="url(#pbb27a6e8ed)" style="fill: #1f77b4"/>
   </g>
   <g id="patch_84">
    <path d="M 393.388933 448.56 
L 397.248617 448.56 
L 397.248617 443.181206 
L 393.388933 443.181206 
z
" clip-path="url(#pbb27a6e8ed)" style="fill: #1f77b4"/>
   </g>
   <g id="patch_85">
    <path d="M 397.248617 448.56 
L 401.1083 448.56 
L 401.1083 445.870603 
L 397.248617 445.870603 
z
" clip-path="url(#pbb27a6e8ed)" style="fill: #1f77b4"/>
   </g>
   <g id="patch_86">
    <path d="M 401.1083 448.56 
L 404.967984 448.56 
L 404.967984 443.565405 
L 401.1083 443.565405 
z
" clip-path="url(#pbb27a6e8ed)" style="fill: #1f77b4"/>
   </g>
   <g id="patch_87">
    <path d="M 404.967984 448.56 
L 408.827668 448.56 
L 408.827668 448.1758 
L 404.967984 448.1758 
z
" clip-path="url(#pbb27a6e8ed)" style="fill: #1f77b4"/>
   </g>
   <g id="patch_88">
    <path d="M 408.827668 448.56 
L 412.687352 448.56 
L 412.687352 446.639002 
L 408.827668 446.639002 
z
" clip-path="url(#pbb27a6e8ed)" style="fill: #1f77b4"/>
   </g>
   <g id="patch_89">
    <path d="M 412.687352 448.56 
L 416.547036 448.56 
L 416.547036 447.023202 
L 412.687352 447.023202 
z
" clip-path="url(#pbb27a6e8ed)" style="fill: #1f77b4"/>
   </g>
   <g id="patch_90">
    <path d="M 416.547036 448.56 
L 420.406719 448.56 
L 420.406719 447.407401 
L 416.547036 447.407401 
z
" clip-path="url(#pbb27a6e8ed)" style="fill: #1f77b4"/>
   </g>
   <g id="patch_91">
    <path d="M 420.406719 448.56 
L 424.266403 448.56 
L 424.266403 448.56 
L 420.406719 448.56 
z
" clip-path="url(#pbb27a6e8ed)" style="fill: #1f77b4"/>
   </g>
   <g id="patch_92">
    <path d="M 424.266403 448.56 
L 428.126087 448.56 
L 428.126087 448.1758 
L 424.266403 448.1758 
z
" clip-path="url(#pbb27a6e8ed)" style="fill: #1f77b4"/>
   </g>
   <g id="patch_93">
    <path d="M 428.126087 448.56 
L 431.985771 448.56 
L 431.985771 448.56 
L 428.126087 448.56 
z
" clip-path="url(#pbb27a6e8ed)" style="fill: #1f77b4"/>
   </g>
   <g id="patch_94">
    <path d="M 431.985771 448.56 
L 435.845455 448.56 
L 435.845455 448.1758 
L 431.985771 448.1758 
z
" clip-path="url(#pbb27a6e8ed)" style="fill: #1f77b4"/>
   </g>
   <g id="matplotlib.axis_1">
    <g id="xtick_1">
     <g id="line2d_1">
      <defs>
       <path id="m30ae09181e" d="M 0 0 
L 0 3.5 
" style="stroke: #000000; stroke-width: 0.8"/>
      </defs>
      <g>
       <use xlink:href="#m30ae09181e" x="97.118182" y="448.56" style="stroke: #000000; stroke-width: 0.8"/>
      </g>
     </g>
     <g id="text_1">
      <!-- −10.0 -->
      <g transform="translate(81.795526 463.158437) scale(0.1 -0.1)">
       <defs>
        <path id="DejaVuSans-2212" d="M 678 2272 
L 4684 2272 
L 4684 1741 
L 678 1741 
L 678 2272 
z
" transform="scale(0.015625)"/>
        <path id="DejaVuSans-31" d="M 794 531 
L 1825 531 
L 1825 4091 
L 703 3866 
L 703 4441 
L 1819 4666 
L 2450 4666 
L 2450 531 
L 3481 531 
L 3481 0 
L 794 0 
L 794 531 
z
" transform="scale(0.015625)"/>
        <path id="DejaVuSans-30" d="M 2034 4250 
Q 1547 4250 1301 3770 
Q 1056 3291 1056 2328 
Q 1056 1369 1301 889 
Q 1547 409 2034 409 
Q 2525 409 2770 889 
Q 3016 1369 3016 2328 
Q 3016 3291 2770 3770 
Q 2525 4250 2034 4250 
z
M 2034 4750 
Q 2819 4750 3233 4129 
Q 3647 3509 3647 2328 
Q 3647 1150 3233 529 
Q 2819 -91 2034 -91 
Q 1250 -91 836 529 
Q 422 1150 422 2328 
Q 422 3509 836 4129 
Q 1250 4750 2034 4750 
z
" transform="scale(0.015625)"/>
        <path id="DejaVuSans-2e" d="M 684 794 
L 1344 794 
L 1344 0 
L 684 0 
L 684 794 
z
" transform="scale(0.015625)"/>
       </defs>
       <use xlink:href="#DejaVuSans-2212"/>
       <use xlink:href="#DejaVuSans-31" x="83.789062"/>
       <use xlink:href="#DejaVuSans-30" x="147.412109"/>
       <use xlink:href="#DejaVuSans-2e" x="211.035156"/>
       <use xlink:href="#DejaVuSans-30" x="242.822266"/>
      </g>
     </g>
    </g>
    <g id="xtick_2">
     <g id="line2d_2">
      <g>
       <use xlink:href="#m30ae09181e" x="144.686892" y="448.56" style="stroke: #000000; stroke-width: 0.8"/>
      </g>
     </g>
     <g id="text_2">
      <!-- −9.5 -->
      <g transform="translate(132.545486 463.158437) scale(0.1 -0.1)">
       <defs>
        <path id="DejaVuSans-39" d="M 703 97 
L 703 672 
Q 941 559 1184 500 
Q 1428 441 1663 441 
Q 2288 441 2617 861 
Q 2947 1281 2994 2138 
Q 2813 1869 2534 1725 
Q 2256 1581 1919 1581 
Q 1219 1581 811 2004 
Q 403 2428 403 3163 
Q 403 3881 828 4315 
Q 1253 4750 1959 4750 
Q 2769 4750 3195 4129 
Q 3622 3509 3622 2328 
Q 3622 1225 3098 567 
Q 2575 -91 1691 -91 
Q 1453 -91 1209 -44 
Q 966 3 703 97 
z
M 1959 2075 
Q 2384 2075 2632 2365 
Q 2881 2656 2881 3163 
Q 2881 3666 2632 3958 
Q 2384 4250 1959 4250 
Q 1534 4250 1286 3958 
Q 1038 3666 1038 3163 
Q 1038 2656 1286 2365 
Q 1534 2075 1959 2075 
z
" transform="scale(0.015625)"/>
        <path id="DejaVuSans-35" d="M 691 4666 
L 3169 4666 
L 3169 4134 
L 1269 4134 
L 1269 2991 
Q 1406 3038 1543 3061 
Q 1681 3084 1819 3084 
Q 2600 3084 3056 2656 
Q 3513 2228 3513 1497 
Q 3513 744 3044 326 
Q 2575 -91 1722 -91 
Q 1428 -91 1123 -41 
Q 819 9 494 109 
L 494 744 
Q 775 591 1075 516 
Q 1375 441 1709 441 
Q 2250 441 2565 725 
Q 2881 1009 2881 1497 
Q 2881 1984 2565 2268 
Q 2250 2553 1709 2553 
Q 1456 2553 1204 2497 
Q 953 2441 691 2322 
L 691 4666 
z
" transform="scale(0.015625)"/>
       </defs>
       <use xlink:href="#DejaVuSans-2212"/>
       <use xlink:href="#DejaVuSans-39" x="83.789062"/>
       <use xlink:href="#DejaVuSans-2e" x="147.412109"/>
       <use xlink:href="#DejaVuSans-35" x="179.199219"/>
      </g>
     </g>
    </g>
    <g id="xtick_3">
     <g id="line2d_3">
      <g>
       <use xlink:href="#m30ae09181e" x="192.255603" y="448.56" style="stroke: #000000; stroke-width: 0.8"/>
      </g>
     </g>
     <g id="text_3">
      <!-- −9.0 -->
      <g transform="translate(180.114196 463.158437) scale(0.1 -0.1)">
       <use xlink:href="#DejaVuSans-2212"/>
       <use xlink:href="#DejaVuSans-39" x="83.789062"/>
       <use xlink:href="#DejaVuSans-2e" x="147.412109"/>
       <use xlink:href="#DejaVuSans-30" x="179.199219"/>
      </g>
     </g>
    </g>
    <g id="xtick_4">
     <g id="line2d_4">
      <g>
       <use xlink:href="#m30ae09181e" x="239.824313" y="448.56" style="stroke: #000000; stroke-width: 0.8"/>
      </g>
     </g>
     <g id="text_4">
      <!-- −8.5 -->
      <g transform="translate(227.682907 463.158437) scale(0.1 -0.1)">
       <defs>
        <path id="DejaVuSans-38" d="M 2034 2216 
Q 1584 2216 1326 1975 
Q 1069 1734 1069 1313 
Q 1069 891 1326 650 
Q 1584 409 2034 409 
Q 2484 409 2743 651 
Q 3003 894 3003 1313 
Q 3003 1734 2745 1975 
Q 2488 2216 2034 2216 
z
M 1403 2484 
Q 997 2584 770 2862 
Q 544 3141 544 3541 
Q 544 4100 942 4425 
Q 1341 4750 2034 4750 
Q 2731 4750 3128 4425 
Q 3525 4100 3525 3541 
Q 3525 3141 3298 2862 
Q 3072 2584 2669 2484 
Q 3125 2378 3379 2068 
Q 3634 1759 3634 1313 
Q 3634 634 3220 271 
Q 2806 -91 2034 -91 
Q 1263 -91 848 271 
Q 434 634 434 1313 
Q 434 1759 690 2068 
Q 947 2378 1403 2484 
z
M 1172 3481 
Q 1172 3119 1398 2916 
Q 1625 2713 2034 2713 
Q 2441 2713 2670 2916 
Q 2900 3119 2900 3481 
Q 2900 3844 2670 4047 
Q 2441 4250 2034 4250 
Q 1625 4250 1398 4047 
Q 1172 3844 1172 3481 
z
" transform="scale(0.015625)"/>
       </defs>
       <use xlink:href="#DejaVuSans-2212"/>
       <use xlink:href="#DejaVuSans-38" x="83.789062"/>
       <use xlink:href="#DejaVuSans-2e" x="147.412109"/>
       <use xlink:href="#DejaVuSans-35" x="179.199219"/>
      </g>
     </g>
    </g>
    <g id="xtick_5">
     <g id="line2d_5">
      <g>
       <use xlink:href="#m30ae09181e" x="287.393023" y="448.56" style="stroke: #000000; stroke-width: 0.8"/>
      </g>
     </g>
     <g id="text_5">
      <!-- −8.0 -->
      <g transform="translate(275.251617 463.158437) scale(0.1 -0.1)">
       <use xlink:href="#DejaVuSans-2212"/>
       <use xlink:href="#DejaVuSans-38" x="83.789062"/>
       <use xlink:href="#DejaVuSans-2e" x="147.412109"/>
       <use xlink:href="#DejaVuSans-30" x="179.199219"/>
      </g>
     </g>
    </g>
    <g id="xtick_6">
     <g id="line2d_6">
      <g>
       <use xlink:href="#m30ae09181e" x="334.961734" y="448.56" style="stroke: #000000; stroke-width: 0.8"/>
      </g>
     </g>
     <g id="text_6">
      <!-- −7.5 -->
      <g transform="translate(322.820327 463.158437) scale(0.1 -0.1)">
       <defs>
        <path id="DejaVuSans-37" d="M 525 4666 
L 3525 4666 
L 3525 4397 
L 1831 0 
L 1172 0 
L 2766 4134 
L 525 4134 
L 525 4666 
z
" transform="scale(0.015625)"/>
       </defs>
       <use xlink:href="#DejaVuSans-2212"/>
       <use xlink:href="#DejaVuSans-37" x="83.789062"/>
       <use xlink:href="#DejaVuSans-2e" x="147.412109"/>
       <use xlink:href="#DejaVuSans-35" x="179.199219"/>
      </g>
     </g>
    </g>
    <g id="xtick_7">
     <g id="line2d_7">
      <g>
       <use xlink:href="#m30ae09181e" x="382.530444" y="448.56" style="stroke: #000000; stroke-width: 0.8"/>
      </g>
     </g>
     <g id="text_7">
      <!-- −7.0 -->
      <g transform="translate(370.389038 463.158437) scale(0.1 -0.1)">
       <use xlink:href="#DejaVuSans-2212"/>
       <use xlink:href="#DejaVuSans-37" x="83.789062"/>
       <use xlink:href="#DejaVuSans-2e" x="147.412109"/>
       <use xlink:href="#DejaVuSans-30" x="179.199219"/>
      </g>
     </g>
    </g>
    <g id="xtick_8">
     <g id="line2d_8">
      <g>
       <use xlink:href="#m30ae09181e" x="430.099154" y="448.56" style="stroke: #000000; stroke-width: 0.8"/>
      </g>
     </g>
     <g id="text_8">
      <!-- −6.5 -->
      <g transform="translate(417.957748 463.158437) scale(0.1 -0.1)">
       <defs>
        <path id="DejaVuSans-36" d="M 2113 2584 
Q 1688 2584 1439 2293 
Q 1191 2003 1191 1497 
Q 1191 994 1439 701 
Q 1688 409 2113 409 
Q 2538 409 2786 701 
Q 3034 994 3034 1497 
Q 3034 2003 2786 2293 
Q 2538 2584 2113 2584 
z
M 3366 4563 
L 3366 3988 
Q 3128 4100 2886 4159 
Q 2644 4219 2406 4219 
Q 1781 4219 1451 3797 
Q 1122 3375 1075 2522 
Q 1259 2794 1537 2939 
Q 1816 3084 2150 3084 
Q 2853 3084 3261 2657 
Q 3669 2231 3669 1497 
Q 3669 778 3244 343 
Q 2819 -91 2113 -91 
Q 1303 -91 875 529 
Q 447 1150 447 2328 
Q 447 3434 972 4092 
Q 1497 4750 2381 4750 
Q 2619 4750 2861 4703 
Q 3103 4656 3366 4563 
z
" transform="scale(0.015625)"/>
       </defs>
       <use xlink:href="#DejaVuSans-2212"/>
       <use xlink:href="#DejaVuSans-36" x="83.789062"/>
       <use xlink:href="#DejaVuSans-2e" x="147.412109"/>
       <use xlink:href="#DejaVuSans-35" x="179.199219"/>
      </g>
     </g>
    </g>
    <g id="text_9">
     <!-- lumo -->
     <g transform="translate(240.8175 479.875938) scale(0.14 -0.14)">
      <defs>
       <path id="DejaVuSans-6c" d="M 603 4863 
L 1178 4863 
L 1178 0 
L 603 0 
L 603 4863 
z
" transform="scale(0.015625)"/>
       <path id="DejaVuSans-75" d="M 544 1381 
L 544 3500 
L 1119 3500 
L 1119 1403 
Q 1119 906 1312 657 
Q 1506 409 1894 409 
Q 2359 409 2629 706 
Q 2900 1003 2900 1516 
L 2900 3500 
L 3475 3500 
L 3475 0 
L 2900 0 
L 2900 538 
Q 2691 219 2414 64 
Q 2138 -91 1772 -91 
Q 1169 -91 856 284 
Q 544 659 544 1381 
z
M 1991 3584 
L 1991 3584 
z
" transform="scale(0.015625)"/>
       <path id="DejaVuSans-6d" d="M 3328 2828 
Q 3544 3216 3844 3400 
Q 4144 3584 4550 3584 
Q 5097 3584 5394 3201 
Q 5691 2819 5691 2113 
L 5691 0 
L 5113 0 
L 5113 2094 
Q 5113 2597 4934 2840 
Q 4756 3084 4391 3084 
Q 3944 3084 3684 2787 
Q 3425 2491 3425 1978 
L 3425 0 
L 2847 0 
L 2847 2094 
Q 2847 2600 2669 2842 
Q 2491 3084 2119 3084 
Q 1678 3084 1418 2786 
Q 1159 2488 1159 1978 
L 1159 0 
L 581 0 
L 581 3500 
L 1159 3500 
L 1159 2956 
Q 1356 3278 1631 3431 
Q 1906 3584 2284 3584 
Q 2666 3584 2933 3390 
Q 3200 3197 3328 2828 
z
" transform="scale(0.015625)"/>
       <path id="DejaVuSans-6f" d="M 1959 3097 
Q 1497 3097 1228 2736 
Q 959 2375 959 1747 
Q 959 1119 1226 758 
Q 1494 397 1959 397 
Q 2419 397 2687 759 
Q 2956 1122 2956 1747 
Q 2956 2369 2687 2733 
Q 2419 3097 1959 3097 
z
M 1959 3584 
Q 2709 3584 3137 3096 
Q 3566 2609 3566 1747 
Q 3566 888 3137 398 
Q 2709 -91 1959 -91 
Q 1206 -91 779 398 
Q 353 888 353 1747 
Q 353 2609 779 3096 
Q 1206 3584 1959 3584 
z
" transform="scale(0.015625)"/>
      </defs>
      <use xlink:href="#DejaVuSans-6c"/>
      <use xlink:href="#DejaVuSans-75" x="27.783203"/>
      <use xlink:href="#DejaVuSans-6d" x="91.162109"/>
      <use xlink:href="#DejaVuSans-6f" x="188.574219"/>
     </g>
    </g>
   </g>
   <g id="matplotlib.axis_2">
    <g id="ytick_1">
     <g id="line2d_9">
      <defs>
       <path id="ma6c9c77c6f" d="M 0 0 
L -3.5 0 
" style="stroke: #000000; stroke-width: 0.8"/>
      </defs>
      <g>
       <use xlink:href="#ma6c9c77c6f" x="63" y="448.56" style="stroke: #000000; stroke-width: 0.8"/>
      </g>
     </g>
     <g id="text_10">
      <!-- 0.0 -->
      <g transform="translate(40.096875 452.359219) scale(0.1 -0.1)">
       <use xlink:href="#DejaVuSans-30"/>
       <use xlink:href="#DejaVuSans-2e" x="63.623047"/>
       <use xlink:href="#DejaVuSans-30" x="95.410156"/>
      </g>
     </g>
    </g>
    <g id="ytick_2">
     <g id="line2d_10">
      <g>
       <use xlink:href="#ma6c9c77c6f" x="63" y="370.772466" style="stroke: #000000; stroke-width: 0.8"/>
      </g>
     </g>
     <g id="text_11">
      <!-- 0.2 -->
      <g transform="translate(40.096875 374.571684) scale(0.1 -0.1)">
       <defs>
        <path id="DejaVuSans-32" d="M 1228 531 
L 3431 531 
L 3431 0 
L 469 0 
L 469 531 
Q 828 903 1448 1529 
Q 2069 2156 2228 2338 
Q 2531 2678 2651 2914 
Q 2772 3150 2772 3378 
Q 2772 3750 2511 3984 
Q 2250 4219 1831 4219 
Q 1534 4219 1204 4116 
Q 875 4013 500 3803 
L 500 4441 
Q 881 4594 1212 4672 
Q 1544 4750 1819 4750 
Q 2544 4750 2975 4387 
Q 3406 4025 3406 3419 
Q 3406 3131 3298 2873 
Q 3191 2616 2906 2266 
Q 2828 2175 2409 1742 
Q 1991 1309 1228 531 
z
" transform="scale(0.015625)"/>
       </defs>
       <use xlink:href="#DejaVuSans-30"/>
       <use xlink:href="#DejaVuSans-2e" x="63.623047"/>
       <use xlink:href="#DejaVuSans-32" x="95.410156"/>
      </g>
     </g>
    </g>
    <g id="ytick_3">
     <g id="line2d_11">
      <g>
       <use xlink:href="#ma6c9c77c6f" x="63" y="292.984931" style="stroke: #000000; stroke-width: 0.8"/>
      </g>
     </g>
     <g id="text_12">
      <!-- 0.4 -->
      <g transform="translate(40.096875 296.78415) scale(0.1 -0.1)">
       <defs>
        <path id="DejaVuSans-34" d="M 2419 4116 
L 825 1625 
L 2419 1625 
L 2419 4116 
z
M 2253 4666 
L 3047 4666 
L 3047 1625 
L 3713 1625 
L 3713 1100 
L 3047 1100 
L 3047 0 
L 2419 0 
L 2419 1100 
L 313 1100 
L 313 1709 
L 2253 4666 
z
" transform="scale(0.015625)"/>
       </defs>
       <use xlink:href="#DejaVuSans-30"/>
       <use xlink:href="#DejaVuSans-2e" x="63.623047"/>
       <use xlink:href="#DejaVuSans-34" x="95.410156"/>
      </g>
     </g>
    </g>
    <g id="ytick_4">
     <g id="line2d_12">
      <g>
       <use xlink:href="#ma6c9c77c6f" x="63" y="215.197397" style="stroke: #000000; stroke-width: 0.8"/>
      </g>
     </g>
     <g id="text_13">
      <!-- 0.6 -->
      <g transform="translate(40.096875 218.996615) scale(0.1 -0.1)">
       <use xlink:href="#DejaVuSans-30"/>
       <use xlink:href="#DejaVuSans-2e" x="63.623047"/>
       <use xlink:href="#DejaVuSans-36" x="95.410156"/>
      </g>
     </g>
    </g>
    <g id="ytick_5">
     <g id="line2d_13">
      <g>
       <use xlink:href="#ma6c9c77c6f" x="63" y="137.409862" style="stroke: #000000; stroke-width: 0.8"/>
      </g>
     </g>
     <g id="text_14">
      <!-- 0.8 -->
      <g transform="translate(40.096875 141.209081) scale(0.1 -0.1)">
       <use xlink:href="#DejaVuSans-30"/>
       <use xlink:href="#DejaVuSans-2e" x="63.623047"/>
       <use xlink:href="#DejaVuSans-38" x="95.410156"/>
      </g>
     </g>
    </g>
    <g id="text_15">
     <!-- Relative frequency -->
     <g transform="translate(33.185312 320.081563) rotate(-90) scale(0.14 -0.14)">
      <defs>
       <path id="DejaVuSans-52" d="M 2841 2188 
Q 3044 2119 3236 1894 
Q 3428 1669 3622 1275 
L 4263 0 
L 3584 0 
L 2988 1197 
Q 2756 1666 2539 1819 
Q 2322 1972 1947 1972 
L 1259 1972 
L 1259 0 
L 628 0 
L 628 4666 
L 2053 4666 
Q 2853 4666 3247 4331 
Q 3641 3997 3641 3322 
Q 3641 2881 3436 2590 
Q 3231 2300 2841 2188 
z
M 1259 4147 
L 1259 2491 
L 2053 2491 
Q 2509 2491 2742 2702 
Q 2975 2913 2975 3322 
Q 2975 3731 2742 3939 
Q 2509 4147 2053 4147 
L 1259 4147 
z
" transform="scale(0.015625)"/>
       <path id="DejaVuSans-65" d="M 3597 1894 
L 3597 1613 
L 953 1613 
Q 991 1019 1311 708 
Q 1631 397 2203 397 
Q 2534 397 2845 478 
Q 3156 559 3463 722 
L 3463 178 
Q 3153 47 2828 -22 
Q 2503 -91 2169 -91 
Q 1331 -91 842 396 
Q 353 884 353 1716 
Q 353 2575 817 3079 
Q 1281 3584 2069 3584 
Q 2775 3584 3186 3129 
Q 3597 2675 3597 1894 
z
M 3022 2063 
Q 3016 2534 2758 2815 
Q 2500 3097 2075 3097 
Q 1594 3097 1305 2825 
Q 1016 2553 972 2059 
L 3022 2063 
z
" transform="scale(0.015625)"/>
       <path id="DejaVuSans-61" d="M 2194 1759 
Q 1497 1759 1228 1600 
Q 959 1441 959 1056 
Q 959 750 1161 570 
Q 1363 391 1709 391 
Q 2188 391 2477 730 
Q 2766 1069 2766 1631 
L 2766 1759 
L 2194 1759 
z
M 3341 1997 
L 3341 0 
L 2766 0 
L 2766 531 
Q 2569 213 2275 61 
Q 1981 -91 1556 -91 
Q 1019 -91 701 211 
Q 384 513 384 1019 
Q 384 1609 779 1909 
Q 1175 2209 1959 2209 
L 2766 2209 
L 2766 2266 
Q 2766 2663 2505 2880 
Q 2244 3097 1772 3097 
Q 1472 3097 1187 3025 
Q 903 2953 641 2809 
L 641 3341 
Q 956 3463 1253 3523 
Q 1550 3584 1831 3584 
Q 2591 3584 2966 3190 
Q 3341 2797 3341 1997 
z
" transform="scale(0.015625)"/>
       <path id="DejaVuSans-74" d="M 1172 4494 
L 1172 3500 
L 2356 3500 
L 2356 3053 
L 1172 3053 
L 1172 1153 
Q 1172 725 1289 603 
Q 1406 481 1766 481 
L 2356 481 
L 2356 0 
L 1766 0 
Q 1100 0 847 248 
Q 594 497 594 1153 
L 594 3053 
L 172 3053 
L 172 3500 
L 594 3500 
L 594 4494 
L 1172 4494 
z
" transform="scale(0.015625)"/>
       <path id="DejaVuSans-69" d="M 603 3500 
L 1178 3500 
L 1178 0 
L 603 0 
L 603 3500 
z
M 603 4863 
L 1178 4863 
L 1178 4134 
L 603 4134 
L 603 4863 
z
" transform="scale(0.015625)"/>
       <path id="DejaVuSans-76" d="M 191 3500 
L 800 3500 
L 1894 563 
L 2988 3500 
L 3597 3500 
L 2284 0 
L 1503 0 
L 191 3500 
z
" transform="scale(0.015625)"/>
       <path id="DejaVuSans-20" transform="scale(0.015625)"/>
       <path id="DejaVuSans-66" d="M 2375 4863 
L 2375 4384 
L 1825 4384 
Q 1516 4384 1395 4259 
Q 1275 4134 1275 3809 
L 1275 3500 
L 2222 3500 
L 2222 3053 
L 1275 3053 
L 1275 0 
L 697 0 
L 697 3053 
L 147 3053 
L 147 3500 
L 697 3500 
L 697 3744 
Q 697 4328 969 4595 
Q 1241 4863 1831 4863 
L 2375 4863 
z
" transform="scale(0.015625)"/>
       <path id="DejaVuSans-72" d="M 2631 2963 
Q 2534 3019 2420 3045 
Q 2306 3072 2169 3072 
Q 1681 3072 1420 2755 
Q 1159 2438 1159 1844 
L 1159 0 
L 581 0 
L 581 3500 
L 1159 3500 
L 1159 2956 
Q 1341 3275 1631 3429 
Q 1922 3584 2338 3584 
Q 2397 3584 2469 3576 
Q 2541 3569 2628 3553 
L 2631 2963 
z
" transform="scale(0.015625)"/>
       <path id="DejaVuSans-71" d="M 947 1747 
Q 947 1113 1208 752 
Q 1469 391 1925 391 
Q 2381 391 2643 752 
Q 2906 1113 2906 1747 
Q 2906 2381 2643 2742 
Q 2381 3103 1925 3103 
Q 1469 3103 1208 2742 
Q 947 2381 947 1747 
z
M 2906 525 
Q 2725 213 2448 61 
Q 2172 -91 1784 -91 
Q 1150 -91 751 415 
Q 353 922 353 1747 
Q 353 2572 751 3078 
Q 1150 3584 1784 3584 
Q 2172 3584 2448 3432 
Q 2725 3281 2906 2969 
L 2906 3500 
L 3481 3500 
L 3481 -1331 
L 2906 -1331 
L 2906 525 
z
" transform="scale(0.015625)"/>
       <path id="DejaVuSans-6e" d="M 3513 2113 
L 3513 0 
L 2938 0 
L 2938 2094 
Q 2938 2591 2744 2837 
Q 2550 3084 2163 3084 
Q 1697 3084 1428 2787 
Q 1159 2491 1159 1978 
L 1159 0 
L 581 0 
L 581 3500 
L 1159 3500 
L 1159 2956 
Q 1366 3272 1645 3428 
Q 1925 3584 2291 3584 
Q 2894 3584 3203 3211 
Q 3513 2838 3513 2113 
z
" transform="scale(0.015625)"/>
       <path id="DejaVuSans-63" d="M 3122 3366 
L 3122 2828 
Q 2878 2963 2633 3030 
Q 2388 3097 2138 3097 
Q 1578 3097 1268 2742 
Q 959 2388 959 1747 
Q 959 1106 1268 751 
Q 1578 397 2138 397 
Q 2388 397 2633 464 
Q 2878 531 3122 666 
L 3122 134 
Q 2881 22 2623 -34 
Q 2366 -91 2075 -91 
Q 1284 -91 818 406 
Q 353 903 353 1747 
Q 353 2603 823 3093 
Q 1294 3584 2113 3584 
Q 2378 3584 2631 3529 
Q 2884 3475 3122 3366 
z
" transform="scale(0.015625)"/>
       <path id="DejaVuSans-79" d="M 2059 -325 
Q 1816 -950 1584 -1140 
Q 1353 -1331 966 -1331 
L 506 -1331 
L 506 -850 
L 844 -850 
Q 1081 -850 1212 -737 
Q 1344 -625 1503 -206 
L 1606 56 
L 191 3500 
L 800 3500 
L 1894 763 
L 2988 3500 
L 3597 3500 
L 2059 -325 
z
" transform="scale(0.015625)"/>
      </defs>
      <use xlink:href="#DejaVuSans-52"/>
      <use xlink:href="#DejaVuSans-65" x="64.982422"/>
      <use xlink:href="#DejaVuSans-6c" x="126.505859"/>
      <use xlink:href="#DejaVuSans-61" x="154.289062"/>
      <use xlink:href="#DejaVuSans-74" x="215.568359"/>
      <use xlink:href="#DejaVuSans-69" x="254.777344"/>
      <use xlink:href="#DejaVuSans-76" x="282.560547"/>
      <use xlink:href="#DejaVuSans-65" x="341.740234"/>
      <use xlink:href="#DejaVuSans-20" x="403.263672"/>
      <use xlink:href="#DejaVuSans-66" x="435.050781"/>
      <use xlink:href="#DejaVuSans-72" x="470.255859"/>
      <use xlink:href="#DejaVuSans-65" x="509.119141"/>
      <use xlink:href="#DejaVuSans-71" x="570.642578"/>
      <use xlink:href="#DejaVuSans-75" x="634.119141"/>
      <use xlink:href="#DejaVuSans-65" x="697.498047"/>
      <use xlink:href="#DejaVuSans-6e" x="759.021484"/>
      <use xlink:href="#DejaVuSans-63" x="822.400391"/>
      <use xlink:href="#DejaVuSans-79" x="877.380859"/>
     </g>
    </g>
   </g>
   <g id="line2d_14">
    <path d="M 325.933192 448.56 
L 325.933192 78.96 
" clip-path="url(#pbb27a6e8ed)" style="fill: none; stroke: #ff0000; stroke-width: 1.6; stroke-linecap: square"/>
   </g>
   <g id="patch_95">
    <path d="M 63 448.56 
L 63 60.48 
" style="fill: none; stroke: #000000; stroke-width: 0.8; stroke-linejoin: miter; stroke-linecap: square"/>
   </g>
   <g id="patch_96">
    <path d="M 453.6 448.56 
L 453.6 60.48 
" style="fill: none; stroke: #000000; stroke-width: 0.8; stroke-linejoin: miter; stroke-linecap: square"/>
   </g>
   <g id="patch_97">
    <path d="M 63 448.56 
L 453.6 448.56 
" style="fill: none; stroke: #000000; stroke-width: 0.8; stroke-linejoin: miter; stroke-linecap: square"/>
   </g>
   <g id="patch_98">
    <path d="M 63 60.48 
L 453.6 60.48 
" style="fill: none; stroke: #000000; stroke-width: 0.8; stroke-linejoin: miter; stroke-linecap: square"/>
   </g>
   <g id="text_16">
    <!-- $\mu_2 = -8.032$ -->
    <g transform="translate(336.42 119.025188) scale(0.17 -0.17)">
     <defs>
      <path id="DejaVuSans-Oblique-3bc" d="M -84 -1331 
L 856 3500 
L 1434 3500 
L 1009 1322 
Q 997 1256 987 1175 
Q 978 1094 978 1013 
Q 978 722 1161 565 
Q 1344 409 1684 409 
Q 2147 409 2431 671 
Q 2716 934 2816 1459 
L 3213 3500 
L 3788 3500 
L 3266 809 
Q 3253 750 3248 706 
Q 3244 663 3244 628 
Q 3244 531 3283 486 
Q 3322 441 3406 441 
Q 3438 441 3492 456 
Q 3547 472 3647 513 
L 3559 50 
Q 3422 -19 3297 -55 
Q 3172 -91 3053 -91 
Q 2847 -91 2730 40 
Q 2613 172 2613 403 
Q 2438 153 2195 31 
Q 1953 -91 1625 -91 
Q 1334 -91 1117 43 
Q 900 178 831 397 
L 494 -1331 
L -84 -1331 
z
" transform="scale(0.015625)"/>
      <path id="DejaVuSans-3d" d="M 678 2906 
L 4684 2906 
L 4684 2381 
L 678 2381 
L 678 2906 
z
M 678 1631 
L 4684 1631 
L 4684 1100 
L 678 1100 
L 678 1631 
z
" transform="scale(0.015625)"/>
      <path id="DejaVuSans-33" d="M 2597 2516 
Q 3050 2419 3304 2112 
Q 3559 1806 3559 1356 
Q 3559 666 3084 287 
Q 2609 -91 1734 -91 
Q 1441 -91 1130 -33 
Q 819 25 488 141 
L 488 750 
Q 750 597 1062 519 
Q 1375 441 1716 441 
Q 2309 441 2620 675 
Q 2931 909 2931 1356 
Q 2931 1769 2642 2001 
Q 2353 2234 1838 2234 
L 1294 2234 
L 1294 2753 
L 1863 2753 
Q 2328 2753 2575 2939 
Q 2822 3125 2822 3475 
Q 2822 3834 2567 4026 
Q 2313 4219 1838 4219 
Q 1578 4219 1281 4162 
Q 984 4106 628 3988 
L 628 4550 
Q 988 4650 1302 4700 
Q 1616 4750 1894 4750 
Q 2613 4750 3031 4423 
Q 3450 4097 3450 3541 
Q 3450 3153 3228 2886 
Q 3006 2619 2597 2516 
z
" transform="scale(0.015625)"/>
     </defs>
     <use xlink:href="#DejaVuSans-Oblique-3bc" transform="translate(0 0.78125)"/>
     <use xlink:href="#DejaVuSans-32" transform="translate(63.623047 -15.625) scale(0.7)"/>
     <use xlink:href="#DejaVuSans-3d" transform="translate(130.375977 0.78125)"/>
     <use xlink:href="#DejaVuSans-2212" transform="translate(253.129883 0.78125)"/>
     <use xlink:href="#DejaVuSans-38" transform="translate(356.401367 0.78125)"/>
     <use xlink:href="#DejaVuSans-2e" transform="translate(420.024414 0.78125)"/>
     <use xlink:href="#DejaVuSans-30" transform="translate(451.811523 0.78125)"/>
     <use xlink:href="#DejaVuSans-33" transform="translate(515.43457 0.78125)"/>
     <use xlink:href="#DejaVuSans-32" transform="translate(579.057617 0.78125)"/>
    </g>
    <!-- $\sigma_2 = 0.426$ -->
    <g transform="translate(336.42 138.096) scale(0.17 -0.17)">
     <defs>
      <path id="DejaVuSans-Oblique-3c3" d="M 2219 3044 
Q 1744 3044 1422 2700 
Q 1081 2341 969 1747 
Q 844 1119 1044 756 
Q 1241 397 1706 397 
Q 2166 397 2503 759 
Q 2844 1122 2966 1747 
Q 3075 2319 2881 2700 
Q 2700 3044 2219 3044 
z
M 2309 3503 
L 4219 3500 
L 4106 2925 
L 3463 2925 
Q 3706 2438 3575 1747 
Q 3406 888 2884 400 
Q 2359 -91 1609 -91 
Q 856 -91 525 400 
Q 194 888 363 1747 
Q 528 2609 1050 3097 
Q 1484 3503 2309 3503 
z
" transform="scale(0.015625)"/>
     </defs>
     <use xlink:href="#DejaVuSans-Oblique-3c3" transform="translate(0 0.78125)"/>
     <use xlink:href="#DejaVuSans-32" transform="translate(63.378906 -15.625) scale(0.7)"/>
     <use xlink:href="#DejaVuSans-3d" transform="translate(130.131836 0.78125)"/>
     <use xlink:href="#DejaVuSans-30" transform="translate(233.40332 0.78125)"/>
     <use xlink:href="#DejaVuSans-2e" transform="translate(297.026367 0.78125)"/>
     <use xlink:href="#DejaVuSans-34" transform="translate(328.813477 0.78125)"/>
     <use xlink:href="#DejaVuSans-32" transform="translate(392.436523 0.78125)"/>
     <use xlink:href="#DejaVuSans-36" transform="translate(456.05957 0.78125)"/>
    </g>
   </g>
   <g id="text_17">
    <!-- Distribution of lumo -->
    <g transform="translate(178.85375 54.48) scale(0.16 -0.16)">
     <defs>
      <path id="DejaVuSans-44" d="M 1259 4147 
L 1259 519 
L 2022 519 
Q 2988 519 3436 956 
Q 3884 1394 3884 2338 
Q 3884 3275 3436 3711 
Q 2988 4147 2022 4147 
L 1259 4147 
z
M 628 4666 
L 1925 4666 
Q 3281 4666 3915 4102 
Q 4550 3538 4550 2338 
Q 4550 1131 3912 565 
Q 3275 0 1925 0 
L 628 0 
L 628 4666 
z
" transform="scale(0.015625)"/>
      <path id="DejaVuSans-73" d="M 2834 3397 
L 2834 2853 
Q 2591 2978 2328 3040 
Q 2066 3103 1784 3103 
Q 1356 3103 1142 2972 
Q 928 2841 928 2578 
Q 928 2378 1081 2264 
Q 1234 2150 1697 2047 
L 1894 2003 
Q 2506 1872 2764 1633 
Q 3022 1394 3022 966 
Q 3022 478 2636 193 
Q 2250 -91 1575 -91 
Q 1294 -91 989 -36 
Q 684 19 347 128 
L 347 722 
Q 666 556 975 473 
Q 1284 391 1588 391 
Q 1994 391 2212 530 
Q 2431 669 2431 922 
Q 2431 1156 2273 1281 
Q 2116 1406 1581 1522 
L 1381 1569 
Q 847 1681 609 1914 
Q 372 2147 372 2553 
Q 372 3047 722 3315 
Q 1072 3584 1716 3584 
Q 2034 3584 2315 3537 
Q 2597 3491 2834 3397 
z
" transform="scale(0.015625)"/>
      <path id="DejaVuSans-62" d="M 3116 1747 
Q 3116 2381 2855 2742 
Q 2594 3103 2138 3103 
Q 1681 3103 1420 2742 
Q 1159 2381 1159 1747 
Q 1159 1113 1420 752 
Q 1681 391 2138 391 
Q 2594 391 2855 752 
Q 3116 1113 3116 1747 
z
M 1159 2969 
Q 1341 3281 1617 3432 
Q 1894 3584 2278 3584 
Q 2916 3584 3314 3078 
Q 3713 2572 3713 1747 
Q 3713 922 3314 415 
Q 2916 -91 2278 -91 
Q 1894 -91 1617 61 
Q 1341 213 1159 525 
L 1159 0 
L 581 0 
L 581 4863 
L 1159 4863 
L 1159 2969 
z
" transform="scale(0.015625)"/>
     </defs>
     <use xlink:href="#DejaVuSans-44"/>
     <use xlink:href="#DejaVuSans-69" x="77.001953"/>
     <use xlink:href="#DejaVuSans-73" x="104.785156"/>
     <use xlink:href="#DejaVuSans-74" x="156.884766"/>
     <use xlink:href="#DejaVuSans-72" x="196.09375"/>
     <use xlink:href="#DejaVuSans-69" x="237.207031"/>
     <use xlink:href="#DejaVuSans-62" x="264.990234"/>
     <use xlink:href="#DejaVuSans-75" x="328.466797"/>
     <use xlink:href="#DejaVuSans-74" x="391.845703"/>
     <use xlink:href="#DejaVuSans-69" x="431.054688"/>
     <use xlink:href="#DejaVuSans-6f" x="458.837891"/>
     <use xlink:href="#DejaVuSans-6e" x="520.019531"/>
     <use xlink:href="#DejaVuSans-20" x="583.398438"/>
     <use xlink:href="#DejaVuSans-6f" x="615.185547"/>
     <use xlink:href="#DejaVuSans-66" x="676.367188"/>
     <use xlink:href="#DejaVuSans-20" x="711.572266"/>
     <use xlink:href="#DejaVuSans-6c" x="743.359375"/>
     <use xlink:href="#DejaVuSans-75" x="771.142578"/>
     <use xlink:href="#DejaVuSans-6d" x="834.521484"/>
     <use xlink:href="#DejaVuSans-6f" x="931.933594"/>
    </g>
   </g>
  </g>
 </g>
 <defs>
  <clipPath id="pbb27a6e8ed">
   <rect x="63" y="60.48" width="390.6" height="388.08"/>
  </clipPath>
 </defs>
</svg>
