<?xml version="1.0" encoding="utf-8" standalone="no"?>
<!DOCTYPE svg PUBLIC "-//W3C//DTD SVG 1.1//EN"
  "http://www.w3.org/Graphics/SVG/1.1/DTD/svg11.dtd">
<svg xmlns:xlink="http://www.w3.org/1999/xlink" width="576pt" height="432pt" viewBox="0 0 576 432" xmlns="http://www.w3.org/2000/svg" version="1.1">
 <metadata>
  <rdf:RDF xmlns:dc="http://purl.org/dc/elements/1.1/" xmlns:cc="http://creativecommons.org/ns#" xmlns:rdf="http://www.w3.org/1999/02/22-rdf-syntax-ns#">
   <cc:Work>
    <dc:type rdf:resource="http://purl.org/dc/dcmitype/StillImage"/>
    <dc:date>2024-09-05T19:40:53.953763</dc:date>
    <dc:format>image/svg+xml</dc:format>
    <dc:creator>
     <cc:Agent>
      <dc:title>Matplotlib v3.7.2, https://matplotlib.org/</dc:title>
     </cc:Agent>
    </dc:creator>
   </cc:Work>
  </rdf:RDF>
 </metadata>
 <defs>
  <style type="text/css">*{stroke-linejoin: round; stroke-linecap: butt}</style>
 </defs>
 <g id="figure_1">
  <g id="patch_1">
   <path d="M 0 432 
L 576 432 
L 576 0 
L 0 0 
z
" style="fill: #ffffff"/>
  </g>
  <g id="axes_1">
   <g id="patch_2">
    <path d="M 64.37 382.84 
L 564.717766 382.84 
L 564.717766 11.433929 
L 64.37 11.433929 
z
" style="fill: #ffffff"/>
   </g>
   <g id="patch_3">
    <path d="M 87.11308 382.84 
L 92.057228 382.84 
L 92.057228 382.472308 
L 87.11308 382.472308 
z
" clip-path="url(#p75afb2112d)" style="fill: #1f77b4"/>
   </g>
   <g id="patch_4">
    <path d="M 92.057228 382.84 
L 97.001376 382.84 
L 97.001376 382.84 
L 92.057228 382.84 
z
" clip-path="url(#p75afb2112d)" style="fill: #1f77b4"/>
   </g>
   <g id="patch_5">
    <path d="M 97.001376 382.84 
L 101.945524 382.84 
L 101.945524 382.84 
L 97.001376 382.84 
z
" clip-path="url(#p75afb2112d)" style="fill: #1f77b4"/>
   </g>
   <g id="patch_6">
    <path d="M 101.945524 382.84 
L 106.889672 382.84 
L 106.889672 382.472308 
L 101.945524 382.472308 
z
" clip-path="url(#p75afb2112d)" style="fill: #1f77b4"/>
   </g>
   <g id="patch_7">
    <path d="M 106.889672 382.84 
L 111.83382 382.84 
L 111.83382 382.84 
L 106.889672 382.84 
z
" clip-path="url(#p75afb2112d)" style="fill: #1f77b4"/>
   </g>
   <g id="patch_8">
    <path d="M 111.83382 382.84 
L 116.777968 382.84 
L 116.777968 382.84 
L 111.83382 382.84 
z
" clip-path="url(#p75afb2112d)" style="fill: #1f77b4"/>
   </g>
   <g id="patch_9">
    <path d="M 116.777968 382.84 
L 121.722115 382.84 
L 121.722115 382.84 
L 116.777968 382.84 
z
" clip-path="url(#p75afb2112d)" style="fill: #1f77b4"/>
   </g>
   <g id="patch_10">
    <path d="M 121.722115 382.84 
L 126.666263 382.84 
L 126.666263 382.84 
L 121.722115 382.84 
z
" clip-path="url(#p75afb2112d)" style="fill: #1f77b4"/>
   </g>
   <g id="patch_11">
    <path d="M 126.666263 382.84 
L 131.610411 382.84 
L 131.610411 382.84 
L 126.666263 382.84 
z
" clip-path="url(#p75afb2112d)" style="fill: #1f77b4"/>
   </g>
   <g id="patch_12">
    <path d="M 131.610411 382.84 
L 136.554559 382.84 
L 136.554559 382.472308 
L 131.610411 382.472308 
z
" clip-path="url(#p75afb2112d)" style="fill: #1f77b4"/>
   </g>
   <g id="patch_13">
    <path d="M 136.554559 382.84 
L 141.498707 382.84 
L 141.498707 382.104615 
L 136.554559 382.104615 
z
" clip-path="url(#p75afb2112d)" style="fill: #1f77b4"/>
   </g>
   <g id="patch_14">
    <path d="M 141.498707 382.84 
L 146.442855 382.84 
L 146.442855 382.104615 
L 141.498707 382.104615 
z
" clip-path="url(#p75afb2112d)" style="fill: #1f77b4"/>
   </g>
   <g id="patch_15">
    <path d="M 146.442855 382.84 
L 151.387003 382.84 
L 151.387003 381.736923 
L 146.442855 381.736923 
z
" clip-path="url(#p75afb2112d)" style="fill: #1f77b4"/>
   </g>
   <g id="patch_16">
    <path d="M 151.387003 382.84 
L 156.331151 382.84 
L 156.331151 380.266153 
L 151.387003 380.266153 
z
" clip-path="url(#p75afb2112d)" style="fill: #1f77b4"/>
   </g>
   <g id="patch_17">
    <path d="M 156.331151 382.84 
L 161.275299 382.84 
L 161.275299 380.633846 
L 156.331151 380.633846 
z
" clip-path="url(#p75afb2112d)" style="fill: #1f77b4"/>
   </g>
   <g id="patch_18">
    <path d="M 161.275299 382.84 
L 166.219446 382.84 
L 166.219446 381.001538 
L 161.275299 381.001538 
z
" clip-path="url(#p75afb2112d)" style="fill: #1f77b4"/>
   </g>
   <g id="patch_19">
    <path d="M 166.219446 382.84 
L 171.163594 382.84 
L 171.163594 380.266153 
L 166.219446 380.266153 
z
" clip-path="url(#p75afb2112d)" style="fill: #1f77b4"/>
   </g>
   <g id="patch_20">
    <path d="M 171.163594 382.84 
L 176.107742 382.84 
L 176.107742 380.266153 
L 171.163594 380.266153 
z
" clip-path="url(#p75afb2112d)" style="fill: #1f77b4"/>
   </g>
   <g id="patch_21">
    <path d="M 176.107742 382.84 
L 181.05189 382.84 
L 181.05189 379.530769 
L 176.107742 379.530769 
z
" clip-path="url(#p75afb2112d)" style="fill: #1f77b4"/>
   </g>
   <g id="patch_22">
    <path d="M 181.05189 382.84 
L 185.996038 382.84 
L 185.996038 381.001538 
L 181.05189 381.001538 
z
" clip-path="url(#p75afb2112d)" style="fill: #1f77b4"/>
   </g>
   <g id="patch_23">
    <path d="M 185.996038 382.84 
L 190.940186 382.84 
L 190.940186 378.427691 
L 185.996038 378.427691 
z
" clip-path="url(#p75afb2112d)" style="fill: #1f77b4"/>
   </g>
   <g id="patch_24">
    <path d="M 190.940186 382.84 
L 195.884334 382.84 
L 195.884334 377.692307 
L 190.940186 377.692307 
z
" clip-path="url(#p75afb2112d)" style="fill: #1f77b4"/>
   </g>
   <g id="patch_25">
    <path d="M 195.884334 382.84 
L 200.828482 382.84 
L 200.828482 374.015383 
L 195.884334 374.015383 
z
" clip-path="url(#p75afb2112d)" style="fill: #1f77b4"/>
   </g>
   <g id="patch_26">
    <path d="M 200.828482 382.84 
L 205.77263 382.84 
L 205.77263 377.692307 
L 200.828482 377.692307 
z
" clip-path="url(#p75afb2112d)" style="fill: #1f77b4"/>
   </g>
   <g id="patch_27">
    <path d="M 205.77263 382.84 
L 210.716777 382.84 
L 210.716777 372.544613 
L 205.77263 372.544613 
z
" clip-path="url(#p75afb2112d)" style="fill: #1f77b4"/>
   </g>
   <g id="patch_28">
    <path d="M 210.716777 382.84 
L 215.660925 382.84 
L 215.660925 371.441536 
L 210.716777 371.441536 
z
" clip-path="url(#p75afb2112d)" style="fill: #1f77b4"/>
   </g>
   <g id="patch_29">
    <path d="M 215.660925 382.84 
L 220.605073 382.84 
L 220.605073 372.912306 
L 215.660925 372.912306 
z
" clip-path="url(#p75afb2112d)" style="fill: #1f77b4"/>
   </g>
   <g id="patch_30">
    <path d="M 220.605073 382.84 
L 225.549221 382.84 
L 225.549221 374.383075 
L 220.605073 374.383075 
z
" clip-path="url(#p75afb2112d)" style="fill: #1f77b4"/>
   </g>
   <g id="patch_31">
    <path d="M 225.549221 382.84 
L 230.493369 382.84 
L 230.493369 363.352304 
L 225.549221 363.352304 
z
" clip-path="url(#p75afb2112d)" style="fill: #1f77b4"/>
   </g>
   <g id="patch_32">
    <path d="M 230.493369 382.84 
L 235.437517 382.84 
L 235.437517 356.366149 
L 230.493369 356.366149 
z
" clip-path="url(#p75afb2112d)" style="fill: #1f77b4"/>
   </g>
   <g id="patch_33">
    <path d="M 235.437517 382.84 
L 240.381665 382.84 
L 240.381665 350.850763 
L 235.437517 350.850763 
z
" clip-path="url(#p75afb2112d)" style="fill: #1f77b4"/>
   </g>
   <g id="patch_34">
    <path d="M 240.381665 382.84 
L 245.325813 382.84 
L 245.325813 339.084607 
L 240.381665 339.084607 
z
" clip-path="url(#p75afb2112d)" style="fill: #1f77b4"/>
   </g>
   <g id="patch_35">
    <path d="M 245.325813 382.84 
L 250.269961 382.84 
L 250.269961 336.51076 
L 245.325813 336.51076 
z
" clip-path="url(#p75afb2112d)" style="fill: #1f77b4"/>
   </g>
   <g id="patch_36">
    <path d="M 250.269961 382.84 
L 255.214108 382.84 
L 255.214108 302.683062 
L 250.269961 302.683062 
z
" clip-path="url(#p75afb2112d)" style="fill: #1f77b4"/>
   </g>
   <g id="patch_37">
    <path d="M 255.214108 382.84 
L 260.158256 382.84 
L 260.158256 297.903061 
L 255.214108 297.903061 
z
" clip-path="url(#p75afb2112d)" style="fill: #1f77b4"/>
   </g>
   <g id="patch_38">
    <path d="M 260.158256 382.84 
L 265.102404 382.84 
L 265.102404 256.721514 
L 260.158256 256.721514 
z
" clip-path="url(#p75afb2112d)" style="fill: #1f77b4"/>
   </g>
   <g id="patch_39">
    <path d="M 265.102404 382.84 
L 270.046552 382.84 
L 270.046552 257.089207 
L 265.102404 257.089207 
z
" clip-path="url(#p75afb2112d)" style="fill: #1f77b4"/>
   </g>
   <g id="patch_40">
    <path d="M 270.046552 382.84 
L 274.9907 382.84 
L 274.9907 224.732278 
L 270.046552 224.732278 
z
" clip-path="url(#p75afb2112d)" style="fill: #1f77b4"/>
   </g>
   <g id="patch_41">
    <path d="M 274.9907 382.84 
L 279.934848 382.84 
L 279.934848 219.952277 
L 274.9907 219.952277 
z
" clip-path="url(#p75afb2112d)" style="fill: #1f77b4"/>
   </g>
   <g id="patch_42">
    <path d="M 279.934848 382.84 
L 284.878996 382.84 
L 284.878996 204.876889 
L 279.934848 204.876889 
z
" clip-path="url(#p75afb2112d)" style="fill: #1f77b4"/>
   </g>
   <g id="patch_43">
    <path d="M 284.878996 382.84 
L 289.823144 382.84 
L 289.823144 195.68458 
L 284.878996 195.68458 
z
" clip-path="url(#p75afb2112d)" style="fill: #1f77b4"/>
   </g>
   <g id="patch_44">
    <path d="M 289.823144 382.84 
L 294.767292 382.84 
L 294.767292 206.347659 
L 289.823144 206.347659 
z
" clip-path="url(#p75afb2112d)" style="fill: #1f77b4"/>
   </g>
   <g id="patch_45">
    <path d="M 294.767292 382.84 
L 299.711439 382.84 
L 299.711439 173.990729 
L 294.767292 173.990729 
z
" clip-path="url(#p75afb2112d)" style="fill: #1f77b4"/>
   </g>
   <g id="patch_46">
    <path d="M 299.711439 382.84 
L 304.655587 382.84 
L 304.655587 164.79842 
L 299.711439 164.79842 
z
" clip-path="url(#p75afb2112d)" style="fill: #1f77b4"/>
   </g>
   <g id="patch_47">
    <path d="M 304.655587 382.84 
L 309.599735 382.84 
L 309.599735 154.135341 
L 304.655587 154.135341 
z
" clip-path="url(#p75afb2112d)" style="fill: #1f77b4"/>
   </g>
   <g id="patch_48">
    <path d="M 309.599735 382.84 
L 314.543883 382.84 
L 314.543883 127.66149 
L 309.599735 127.66149 
z
" clip-path="url(#p75afb2112d)" style="fill: #1f77b4"/>
   </g>
   <g id="patch_49">
    <path d="M 314.543883 382.84 
L 319.488031 382.84 
L 319.488031 129.499952 
L 314.543883 129.499952 
z
" clip-path="url(#p75afb2112d)" style="fill: #1f77b4"/>
   </g>
   <g id="patch_50">
    <path d="M 319.488031 382.84 
L 324.432179 382.84 
L 324.432179 125.823028 
L 319.488031 125.823028 
z
" clip-path="url(#p75afb2112d)" style="fill: #1f77b4"/>
   </g>
   <g id="patch_51">
    <path d="M 324.432179 382.84 
L 329.376327 382.84 
L 329.376327 107.806102 
L 324.432179 107.806102 
z
" clip-path="url(#p75afb2112d)" style="fill: #1f77b4"/>
   </g>
   <g id="patch_52">
    <path d="M 329.376327 382.84 
L 334.320475 382.84 
L 334.320475 92.730714 
L 329.376327 92.730714 
z
" clip-path="url(#p75afb2112d)" style="fill: #1f77b4"/>
   </g>
   <g id="patch_53">
    <path d="M 334.320475 382.84 
L 339.264622 382.84 
L 339.264622 93.098406 
L 334.320475 93.098406 
z
" clip-path="url(#p75afb2112d)" style="fill: #1f77b4"/>
   </g>
   <g id="patch_54">
    <path d="M 339.264622 382.84 
L 344.20877 382.84 
L 344.20877 64.786093 
L 339.264622 64.786093 
z
" clip-path="url(#p75afb2112d)" style="fill: #1f77b4"/>
   </g>
   <g id="patch_55">
    <path d="M 344.20877 382.84 
L 349.152918 382.84 
L 349.152918 76.919942 
L 344.20877 76.919942 
z
" clip-path="url(#p75afb2112d)" style="fill: #1f77b4"/>
   </g>
   <g id="patch_56">
    <path d="M 349.152918 382.84 
L 354.097066 382.84 
L 354.097066 33.532241 
L 349.152918 33.532241 
z
" clip-path="url(#p75afb2112d)" style="fill: #1f77b4"/>
   </g>
   <g id="patch_57">
    <path d="M 354.097066 382.84 
L 359.041214 382.84 
L 359.041214 34.267626 
L 354.097066 34.267626 
z
" clip-path="url(#p75afb2112d)" style="fill: #1f77b4"/>
   </g>
   <g id="patch_58">
    <path d="M 359.041214 382.84 
L 363.985362 382.84 
L 363.985362 46.033782 
L 359.041214 46.033782 
z
" clip-path="url(#p75afb2112d)" style="fill: #1f77b4"/>
   </g>
   <g id="patch_59">
    <path d="M 363.985362 382.84 
L 368.92951 382.84 
L 368.92951 33.164549 
L 363.985362 33.164549 
z
" clip-path="url(#p75afb2112d)" style="fill: #1f77b4"/>
   </g>
   <g id="patch_60">
    <path d="M 368.92951 382.84 
L 373.873658 382.84 
L 373.873658 29.119933 
L 368.92951 29.119933 
z
" clip-path="url(#p75afb2112d)" style="fill: #1f77b4"/>
   </g>
   <g id="patch_61">
    <path d="M 373.873658 382.84 
L 378.817806 382.84 
L 378.817806 35.370703 
L 373.873658 35.370703 
z
" clip-path="url(#p75afb2112d)" style="fill: #1f77b4"/>
   </g>
   <g id="patch_62">
    <path d="M 378.817806 382.84 
L 383.761953 382.84 
L 383.761953 62.212247 
L 378.817806 62.212247 
z
" clip-path="url(#p75afb2112d)" style="fill: #1f77b4"/>
   </g>
   <g id="patch_63">
    <path d="M 383.761953 382.84 
L 388.706101 382.84 
L 388.706101 64.418401 
L 383.761953 64.418401 
z
" clip-path="url(#p75afb2112d)" style="fill: #1f77b4"/>
   </g>
   <g id="patch_64">
    <path d="M 388.706101 382.84 
L 393.650249 382.84 
L 393.650249 110.012256 
L 388.706101 110.012256 
z
" clip-path="url(#p75afb2112d)" style="fill: #1f77b4"/>
   </g>
   <g id="patch_65">
    <path d="M 393.650249 382.84 
L 398.594397 382.84 
L 398.594397 119.204565 
L 393.650249 119.204565 
z
" clip-path="url(#p75afb2112d)" style="fill: #1f77b4"/>
   </g>
   <g id="patch_66">
    <path d="M 398.594397 382.84 
L 403.538545 382.84 
L 403.538545 165.901497 
L 398.594397 165.901497 
z
" clip-path="url(#p75afb2112d)" style="fill: #1f77b4"/>
   </g>
   <g id="patch_67">
    <path d="M 403.538545 382.84 
L 408.482693 382.84 
L 408.482693 167.004574 
L 403.538545 167.004574 
z
" clip-path="url(#p75afb2112d)" style="fill: #1f77b4"/>
   </g>
   <g id="patch_68">
    <path d="M 408.482693 382.84 
L 413.426841 382.84 
L 413.426841 203.773812 
L 408.482693 203.773812 
z
" clip-path="url(#p75afb2112d)" style="fill: #1f77b4"/>
   </g>
   <g id="patch_69">
    <path d="M 413.426841 382.84 
L 418.370989 382.84 
L 418.370989 219.216892 
L 413.426841 219.216892 
z
" clip-path="url(#p75afb2112d)" style="fill: #1f77b4"/>
   </g>
   <g id="patch_70">
    <path d="M 418.370989 382.84 
L 423.315137 382.84 
L 423.315137 261.133823 
L 418.370989 261.133823 
z
" clip-path="url(#p75afb2112d)" style="fill: #1f77b4"/>
   </g>
   <g id="patch_71">
    <path d="M 423.315137 382.84 
L 428.259284 382.84 
L 428.259284 275.106133 
L 423.315137 275.106133 
z
" clip-path="url(#p75afb2112d)" style="fill: #1f77b4"/>
   </g>
   <g id="patch_72">
    <path d="M 428.259284 382.84 
L 433.203432 382.84 
L 433.203432 288.343059 
L 428.259284 288.343059 
z
" clip-path="url(#p75afb2112d)" style="fill: #1f77b4"/>
   </g>
   <g id="patch_73">
    <path d="M 433.203432 382.84 
L 438.14758 382.84 
L 438.14758 305.256908 
L 433.203432 305.256908 
z
" clip-path="url(#p75afb2112d)" style="fill: #1f77b4"/>
   </g>
   <g id="patch_74">
    <path d="M 438.14758 382.84 
L 443.091728 382.84 
L 443.091728 308.56614 
L 438.14758 308.56614 
z
" clip-path="url(#p75afb2112d)" style="fill: #1f77b4"/>
   </g>
   <g id="patch_75">
    <path d="M 443.091728 382.84 
L 448.035876 382.84 
L 448.035876 328.78922 
L 443.091728 328.78922 
z
" clip-path="url(#p75afb2112d)" style="fill: #1f77b4"/>
   </g>
   <g id="patch_76">
    <path d="M 448.035876 382.84 
L 452.980024 382.84 
L 452.980024 344.599993 
L 448.035876 344.599993 
z
" clip-path="url(#p75afb2112d)" style="fill: #1f77b4"/>
   </g>
   <g id="patch_77">
    <path d="M 452.980024 382.84 
L 457.924172 382.84 
L 457.924172 353.792302 
L 452.980024 353.792302 
z
" clip-path="url(#p75afb2112d)" style="fill: #1f77b4"/>
   </g>
   <g id="patch_78">
    <path d="M 457.924172 382.84 
L 462.86832 382.84 
L 462.86832 355.998456 
L 457.924172 355.998456 
z
" clip-path="url(#p75afb2112d)" style="fill: #1f77b4"/>
   </g>
   <g id="patch_79">
    <path d="M 462.86832 382.84 
L 467.812468 382.84 
L 467.812468 361.881534 
L 462.86832 361.881534 
z
" clip-path="url(#p75afb2112d)" style="fill: #1f77b4"/>
   </g>
   <g id="patch_80">
    <path d="M 467.812468 382.84 
L 472.756615 382.84 
L 472.756615 367.764613 
L 467.812468 367.764613 
z
" clip-path="url(#p75afb2112d)" style="fill: #1f77b4"/>
   </g>
   <g id="patch_81">
    <path d="M 472.756615 382.84 
L 477.700763 382.84 
L 477.700763 368.499997 
L 472.756615 368.499997 
z
" clip-path="url(#p75afb2112d)" style="fill: #1f77b4"/>
   </g>
   <g id="patch_82">
    <path d="M 477.700763 382.84 
L 482.644911 382.84 
L 482.644911 376.221537 
L 477.700763 376.221537 
z
" clip-path="url(#p75afb2112d)" style="fill: #1f77b4"/>
   </g>
   <g id="patch_83">
    <path d="M 482.644911 382.84 
L 487.589059 382.84 
L 487.589059 375.11846 
L 482.644911 375.11846 
z
" clip-path="url(#p75afb2112d)" style="fill: #1f77b4"/>
   </g>
   <g id="patch_84">
    <path d="M 487.589059 382.84 
L 492.533207 382.84 
L 492.533207 377.692307 
L 487.589059 377.692307 
z
" clip-path="url(#p75afb2112d)" style="fill: #1f77b4"/>
   </g>
   <g id="patch_85">
    <path d="M 492.533207 382.84 
L 497.477355 382.84 
L 497.477355 380.266153 
L 492.533207 380.266153 
z
" clip-path="url(#p75afb2112d)" style="fill: #1f77b4"/>
   </g>
   <g id="patch_86">
    <path d="M 497.477355 382.84 
L 502.421503 382.84 
L 502.421503 378.059999 
L 497.477355 378.059999 
z
" clip-path="url(#p75afb2112d)" style="fill: #1f77b4"/>
   </g>
   <g id="patch_87">
    <path d="M 502.421503 382.84 
L 507.365651 382.84 
L 507.365651 382.472308 
L 502.421503 382.472308 
z
" clip-path="url(#p75afb2112d)" style="fill: #1f77b4"/>
   </g>
   <g id="patch_88">
    <path d="M 507.365651 382.84 
L 512.309799 382.84 
L 512.309799 381.001538 
L 507.365651 381.001538 
z
" clip-path="url(#p75afb2112d)" style="fill: #1f77b4"/>
   </g>
   <g id="patch_89">
    <path d="M 512.309799 382.84 
L 517.253946 382.84 
L 517.253946 381.36923 
L 512.309799 381.36923 
z
" clip-path="url(#p75afb2112d)" style="fill: #1f77b4"/>
   </g>
   <g id="patch_90">
    <path d="M 517.253946 382.84 
L 522.198094 382.84 
L 522.198094 381.736923 
L 517.253946 381.736923 
z
" clip-path="url(#p75afb2112d)" style="fill: #1f77b4"/>
   </g>
   <g id="patch_91">
    <path d="M 522.198094 382.84 
L 527.142242 382.84 
L 527.142242 382.84 
L 522.198094 382.84 
z
" clip-path="url(#p75afb2112d)" style="fill: #1f77b4"/>
   </g>
   <g id="patch_92">
    <path d="M 527.142242 382.84 
L 532.08639 382.84 
L 532.08639 382.472308 
L 527.142242 382.472308 
z
" clip-path="url(#p75afb2112d)" style="fill: #1f77b4"/>
   </g>
   <g id="patch_93">
    <path d="M 532.08639 382.84 
L 537.030538 382.84 
L 537.030538 382.84 
L 532.08639 382.84 
z
" clip-path="url(#p75afb2112d)" style="fill: #1f77b4"/>
   </g>
   <g id="patch_94">
    <path d="M 537.030538 382.84 
L 541.974686 382.84 
L 541.974686 382.472308 
L 537.030538 382.472308 
z
" clip-path="url(#p75afb2112d)" style="fill: #1f77b4"/>
   </g>
   <g id="matplotlib.axis_1">
    <g id="xtick_1">
     <g id="line2d_1">
      <defs>
       <path id="m8b15a83bbd" d="M 0 0 
L 0 3.5 
" style="stroke: #000000; stroke-width: 0.8"/>
      </defs>
      <g>
       <use xlink:href="#m8b15a83bbd" x="108.074445" y="382.84" style="stroke: #000000; stroke-width: 0.8"/>
      </g>
     </g>
     <g id="text_1">
      <!-- −10.0 -->
      <g transform="translate(92.751788 397.438438) scale(0.1 -0.1)">
       <defs>
        <path id="DejaVuSans-2212" d="M 678 2272 
L 4684 2272 
L 4684 1741 
L 678 1741 
L 678 2272 
z
" transform="scale(0.015625)"/>
        <path id="DejaVuSans-31" d="M 794 531 
L 1825 531 
L 1825 4091 
L 703 3866 
L 703 4441 
L 1819 4666 
L 2450 4666 
L 2450 531 
L 3481 531 
L 3481 0 
L 794 0 
L 794 531 
z
" transform="scale(0.015625)"/>
        <path id="DejaVuSans-30" d="M 2034 4250 
Q 1547 4250 1301 3770 
Q 1056 3291 1056 2328 
Q 1056 1369 1301 889 
Q 1547 409 2034 409 
Q 2525 409 2770 889 
Q 3016 1369 3016 2328 
Q 3016 3291 2770 3770 
Q 2525 4250 2034 4250 
z
M 2034 4750 
Q 2819 4750 3233 4129 
Q 3647 3509 3647 2328 
Q 3647 1150 3233 529 
Q 2819 -91 2034 -91 
Q 1250 -91 836 529 
Q 422 1150 422 2328 
Q 422 3509 836 4129 
Q 1250 4750 2034 4750 
z
" transform="scale(0.015625)"/>
        <path id="DejaVuSans-2e" d="M 684 794 
L 1344 794 
L 1344 0 
L 684 0 
L 684 794 
z
" transform="scale(0.015625)"/>
       </defs>
       <use xlink:href="#DejaVuSans-2212"/>
       <use xlink:href="#DejaVuSans-31" x="83.789062"/>
       <use xlink:href="#DejaVuSans-30" x="147.412109"/>
       <use xlink:href="#DejaVuSans-2e" x="211.035156"/>
       <use xlink:href="#DejaVuSans-30" x="242.822266"/>
      </g>
     </g>
    </g>
    <g id="xtick_2">
     <g id="line2d_2">
      <g>
       <use xlink:href="#m8b15a83bbd" x="169.008643" y="382.84" style="stroke: #000000; stroke-width: 0.8"/>
      </g>
     </g>
     <g id="text_2">
      <!-- −9.5 -->
      <g transform="translate(156.867237 397.438438) scale(0.1 -0.1)">
       <defs>
        <path id="DejaVuSans-39" d="M 703 97 
L 703 672 
Q 941 559 1184 500 
Q 1428 441 1663 441 
Q 2288 441 2617 861 
Q 2947 1281 2994 2138 
Q 2813 1869 2534 1725 
Q 2256 1581 1919 1581 
Q 1219 1581 811 2004 
Q 403 2428 403 3163 
Q 403 3881 828 4315 
Q 1253 4750 1959 4750 
Q 2769 4750 3195 4129 
Q 3622 3509 3622 2328 
Q 3622 1225 3098 567 
Q 2575 -91 1691 -91 
Q 1453 -91 1209 -44 
Q 966 3 703 97 
z
M 1959 2075 
Q 2384 2075 2632 2365 
Q 2881 2656 2881 3163 
Q 2881 3666 2632 3958 
Q 2384 4250 1959 4250 
Q 1534 4250 1286 3958 
Q 1038 3666 1038 3163 
Q 1038 2656 1286 2365 
Q 1534 2075 1959 2075 
z
" transform="scale(0.015625)"/>
        <path id="DejaVuSans-35" d="M 691 4666 
L 3169 4666 
L 3169 4134 
L 1269 4134 
L 1269 2991 
Q 1406 3038 1543 3061 
Q 1681 3084 1819 3084 
Q 2600 3084 3056 2656 
Q 3513 2228 3513 1497 
Q 3513 744 3044 326 
Q 2575 -91 1722 -91 
Q 1428 -91 1123 -41 
Q 819 9 494 109 
L 494 744 
Q 775 591 1075 516 
Q 1375 441 1709 441 
Q 2250 441 2565 725 
Q 2881 1009 2881 1497 
Q 2881 1984 2565 2268 
Q 2250 2553 1709 2553 
Q 1456 2553 1204 2497 
Q 953 2441 691 2322 
L 691 4666 
z
" transform="scale(0.015625)"/>
       </defs>
       <use xlink:href="#DejaVuSans-2212"/>
       <use xlink:href="#DejaVuSans-39" x="83.789062"/>
       <use xlink:href="#DejaVuSans-2e" x="147.412109"/>
       <use xlink:href="#DejaVuSans-35" x="179.199219"/>
      </g>
     </g>
    </g>
    <g id="xtick_3">
     <g id="line2d_3">
      <g>
       <use xlink:href="#m8b15a83bbd" x="229.942842" y="382.84" style="stroke: #000000; stroke-width: 0.8"/>
      </g>
     </g>
     <g id="text_3">
      <!-- −9.0 -->
      <g transform="translate(217.801435 397.438438) scale(0.1 -0.1)">
       <use xlink:href="#DejaVuSans-2212"/>
       <use xlink:href="#DejaVuSans-39" x="83.789062"/>
       <use xlink:href="#DejaVuSans-2e" x="147.412109"/>
       <use xlink:href="#DejaVuSans-30" x="179.199219"/>
      </g>
     </g>
    </g>
    <g id="xtick_4">
     <g id="line2d_4">
      <g>
       <use xlink:href="#m8b15a83bbd" x="290.87704" y="382.84" style="stroke: #000000; stroke-width: 0.8"/>
      </g>
     </g>
     <g id="text_4">
      <!-- −8.5 -->
      <g transform="translate(278.735634 397.438438) scale(0.1 -0.1)">
       <defs>
        <path id="DejaVuSans-38" d="M 2034 2216 
Q 1584 2216 1326 1975 
Q 1069 1734 1069 1313 
Q 1069 891 1326 650 
Q 1584 409 2034 409 
Q 2484 409 2743 651 
Q 3003 894 3003 1313 
Q 3003 1734 2745 1975 
Q 2488 2216 2034 2216 
z
M 1403 2484 
Q 997 2584 770 2862 
Q 544 3141 544 3541 
Q 544 4100 942 4425 
Q 1341 4750 2034 4750 
Q 2731 4750 3128 4425 
Q 3525 4100 3525 3541 
Q 3525 3141 3298 2862 
Q 3072 2584 2669 2484 
Q 3125 2378 3379 2068 
Q 3634 1759 3634 1313 
Q 3634 634 3220 271 
Q 2806 -91 2034 -91 
Q 1263 -91 848 271 
Q 434 634 434 1313 
Q 434 1759 690 2068 
Q 947 2378 1403 2484 
z
M 1172 3481 
Q 1172 3119 1398 2916 
Q 1625 2713 2034 2713 
Q 2441 2713 2670 2916 
Q 2900 3119 2900 3481 
Q 2900 3844 2670 4047 
Q 2441 4250 2034 4250 
Q 1625 4250 1398 4047 
Q 1172 3844 1172 3481 
z
" transform="scale(0.015625)"/>
       </defs>
       <use xlink:href="#DejaVuSans-2212"/>
       <use xlink:href="#DejaVuSans-38" x="83.789062"/>
       <use xlink:href="#DejaVuSans-2e" x="147.412109"/>
       <use xlink:href="#DejaVuSans-35" x="179.199219"/>
      </g>
     </g>
    </g>
    <g id="xtick_5">
     <g id="line2d_5">
      <g>
       <use xlink:href="#m8b15a83bbd" x="351.811239" y="382.84" style="stroke: #000000; stroke-width: 0.8"/>
      </g>
     </g>
     <g id="text_5">
      <!-- −8.0 -->
      <g transform="translate(339.669833 397.438438) scale(0.1 -0.1)">
       <use xlink:href="#DejaVuSans-2212"/>
       <use xlink:href="#DejaVuSans-38" x="83.789062"/>
       <use xlink:href="#DejaVuSans-2e" x="147.412109"/>
       <use xlink:href="#DejaVuSans-30" x="179.199219"/>
      </g>
     </g>
    </g>
    <g id="xtick_6">
     <g id="line2d_6">
      <g>
       <use xlink:href="#m8b15a83bbd" x="412.745437" y="382.84" style="stroke: #000000; stroke-width: 0.8"/>
      </g>
     </g>
     <g id="text_6">
      <!-- −7.5 -->
      <g transform="translate(400.604031 397.438438) scale(0.1 -0.1)">
       <defs>
        <path id="DejaVuSans-37" d="M 525 4666 
L 3525 4666 
L 3525 4397 
L 1831 0 
L 1172 0 
L 2766 4134 
L 525 4134 
L 525 4666 
z
" transform="scale(0.015625)"/>
       </defs>
       <use xlink:href="#DejaVuSans-2212"/>
       <use xlink:href="#DejaVuSans-37" x="83.789062"/>
       <use xlink:href="#DejaVuSans-2e" x="147.412109"/>
       <use xlink:href="#DejaVuSans-35" x="179.199219"/>
      </g>
     </g>
    </g>
    <g id="xtick_7">
     <g id="line2d_7">
      <g>
       <use xlink:href="#m8b15a83bbd" x="473.679636" y="382.84" style="stroke: #000000; stroke-width: 0.8"/>
      </g>
     </g>
     <g id="text_7">
      <!-- −7.0 -->
      <g transform="translate(461.53823 397.438438) scale(0.1 -0.1)">
       <use xlink:href="#DejaVuSans-2212"/>
       <use xlink:href="#DejaVuSans-37" x="83.789062"/>
       <use xlink:href="#DejaVuSans-2e" x="147.412109"/>
       <use xlink:href="#DejaVuSans-30" x="179.199219"/>
      </g>
     </g>
    </g>
    <g id="xtick_8">
     <g id="line2d_8">
      <g>
       <use xlink:href="#m8b15a83bbd" x="534.613835" y="382.84" style="stroke: #000000; stroke-width: 0.8"/>
      </g>
     </g>
     <g id="text_8">
      <!-- −6.5 -->
      <g transform="translate(522.472428 397.438438) scale(0.1 -0.1)">
       <defs>
        <path id="DejaVuSans-36" d="M 2113 2584 
Q 1688 2584 1439 2293 
Q 1191 2003 1191 1497 
Q 1191 994 1439 701 
Q 1688 409 2113 409 
Q 2538 409 2786 701 
Q 3034 994 3034 1497 
Q 3034 2003 2786 2293 
Q 2538 2584 2113 2584 
z
M 3366 4563 
L 3366 3988 
Q 3128 4100 2886 4159 
Q 2644 4219 2406 4219 
Q 1781 4219 1451 3797 
Q 1122 3375 1075 2522 
Q 1259 2794 1537 2939 
Q 1816 3084 2150 3084 
Q 2853 3084 3261 2657 
Q 3669 2231 3669 1497 
Q 3669 778 3244 343 
Q 2819 -91 2113 -91 
Q 1303 -91 875 529 
Q 447 1150 447 2328 
Q 447 3434 972 4092 
Q 1497 4750 2381 4750 
Q 2619 4750 2861 4703 
Q 3103 4656 3366 4563 
z
" transform="scale(0.015625)"/>
       </defs>
       <use xlink:href="#DejaVuSans-2212"/>
       <use xlink:href="#DejaVuSans-36" x="83.789062"/>
       <use xlink:href="#DejaVuSans-2e" x="147.412109"/>
       <use xlink:href="#DejaVuSans-35" x="179.199219"/>
      </g>
     </g>
    </g>
    <g id="text_9">
     <!-- lumo -->
     <g transform="translate(292.066383 417.195312) scale(0.18 -0.18)">
      <defs>
       <path id="DejaVuSans-6c" d="M 603 4863 
L 1178 4863 
L 1178 0 
L 603 0 
L 603 4863 
z
" transform="scale(0.015625)"/>
       <path id="DejaVuSans-75" d="M 544 1381 
L 544 3500 
L 1119 3500 
L 1119 1403 
Q 1119 906 1312 657 
Q 1506 409 1894 409 
Q 2359 409 2629 706 
Q 2900 1003 2900 1516 
L 2900 3500 
L 3475 3500 
L 3475 0 
L 2900 0 
L 2900 538 
Q 2691 219 2414 64 
Q 2138 -91 1772 -91 
Q 1169 -91 856 284 
Q 544 659 544 1381 
z
M 1991 3584 
L 1991 3584 
z
" transform="scale(0.015625)"/>
       <path id="DejaVuSans-6d" d="M 3328 2828 
Q 3544 3216 3844 3400 
Q 4144 3584 4550 3584 
Q 5097 3584 5394 3201 
Q 5691 2819 5691 2113 
L 5691 0 
L 5113 0 
L 5113 2094 
Q 5113 2597 4934 2840 
Q 4756 3084 4391 3084 
Q 3944 3084 3684 2787 
Q 3425 2491 3425 1978 
L 3425 0 
L 2847 0 
L 2847 2094 
Q 2847 2600 2669 2842 
Q 2491 3084 2119 3084 
Q 1678 3084 1418 2786 
Q 1159 2488 1159 1978 
L 1159 0 
L 581 0 
L 581 3500 
L 1159 3500 
L 1159 2956 
Q 1356 3278 1631 3431 
Q 1906 3584 2284 3584 
Q 2666 3584 2933 3390 
Q 3200 3197 3328 2828 
z
" transform="scale(0.015625)"/>
       <path id="DejaVuSans-6f" d="M 1959 3097 
Q 1497 3097 1228 2736 
Q 959 2375 959 1747 
Q 959 1119 1226 758 
Q 1494 397 1959 397 
Q 2419 397 2687 759 
Q 2956 1122 2956 1747 
Q 2956 2369 2687 2733 
Q 2419 3097 1959 3097 
z
M 1959 3584 
Q 2709 3584 3137 3096 
Q 3566 2609 3566 1747 
Q 3566 888 3137 398 
Q 2709 -91 1959 -91 
Q 1206 -91 779 398 
Q 353 888 353 1747 
Q 353 2609 779 3096 
Q 1206 3584 1959 3584 
z
" transform="scale(0.015625)"/>
      </defs>
      <use xlink:href="#DejaVuSans-6c"/>
      <use xlink:href="#DejaVuSans-75" x="27.783203"/>
      <use xlink:href="#DejaVuSans-6d" x="91.162109"/>
      <use xlink:href="#DejaVuSans-6f" x="188.574219"/>
     </g>
    </g>
   </g>
   <g id="matplotlib.axis_2">
    <g id="ytick_1">
     <g id="line2d_9">
      <defs>
       <path id="me8cb7e8196" d="M 0 0 
L -3.5 0 
" style="stroke: #000000; stroke-width: 0.8"/>
      </defs>
      <g>
       <use xlink:href="#me8cb7e8196" x="64.37" y="382.84" style="stroke: #000000; stroke-width: 0.8"/>
      </g>
     </g>
     <g id="text_10">
      <!-- 0 -->
      <g transform="translate(51.0075 386.639219) scale(0.1 -0.1)">
       <use xlink:href="#DejaVuSans-30"/>
      </g>
     </g>
    </g>
    <g id="ytick_2">
     <g id="line2d_10">
      <g>
       <use xlink:href="#me8cb7e8196" x="64.37" y="309.301524" style="stroke: #000000; stroke-width: 0.8"/>
      </g>
     </g>
     <g id="text_11">
      <!-- 200 -->
      <g transform="translate(38.2825 313.100743) scale(0.1 -0.1)">
       <defs>
        <path id="DejaVuSans-32" d="M 1228 531 
L 3431 531 
L 3431 0 
L 469 0 
L 469 531 
Q 828 903 1448 1529 
Q 2069 2156 2228 2338 
Q 2531 2678 2651 2914 
Q 2772 3150 2772 3378 
Q 2772 3750 2511 3984 
Q 2250 4219 1831 4219 
Q 1534 4219 1204 4116 
Q 875 4013 500 3803 
L 500 4441 
Q 881 4594 1212 4672 
Q 1544 4750 1819 4750 
Q 2544 4750 2975 4387 
Q 3406 4025 3406 3419 
Q 3406 3131 3298 2873 
Q 3191 2616 2906 2266 
Q 2828 2175 2409 1742 
Q 1991 1309 1228 531 
z
" transform="scale(0.015625)"/>
       </defs>
       <use xlink:href="#DejaVuSans-32"/>
       <use xlink:href="#DejaVuSans-30" x="63.623047"/>
       <use xlink:href="#DejaVuSans-30" x="127.246094"/>
      </g>
     </g>
    </g>
    <g id="ytick_3">
     <g id="line2d_11">
      <g>
       <use xlink:href="#me8cb7e8196" x="64.37" y="235.763049" style="stroke: #000000; stroke-width: 0.8"/>
      </g>
     </g>
     <g id="text_12">
      <!-- 400 -->
      <g transform="translate(38.2825 239.562268) scale(0.1 -0.1)">
       <defs>
        <path id="DejaVuSans-34" d="M 2419 4116 
L 825 1625 
L 2419 1625 
L 2419 4116 
z
M 2253 4666 
L 3047 4666 
L 3047 1625 
L 3713 1625 
L 3713 1100 
L 3047 1100 
L 3047 0 
L 2419 0 
L 2419 1100 
L 313 1100 
L 313 1709 
L 2253 4666 
z
" transform="scale(0.015625)"/>
       </defs>
       <use xlink:href="#DejaVuSans-34"/>
       <use xlink:href="#DejaVuSans-30" x="63.623047"/>
       <use xlink:href="#DejaVuSans-30" x="127.246094"/>
      </g>
     </g>
    </g>
    <g id="ytick_4">
     <g id="line2d_12">
      <g>
       <use xlink:href="#me8cb7e8196" x="64.37" y="162.224573" style="stroke: #000000; stroke-width: 0.8"/>
      </g>
     </g>
     <g id="text_13">
      <!-- 600 -->
      <g transform="translate(38.2825 166.023792) scale(0.1 -0.1)">
       <use xlink:href="#DejaVuSans-36"/>
       <use xlink:href="#DejaVuSans-30" x="63.623047"/>
       <use xlink:href="#DejaVuSans-30" x="127.246094"/>
      </g>
     </g>
    </g>
    <g id="ytick_5">
     <g id="line2d_13">
      <g>
       <use xlink:href="#me8cb7e8196" x="64.37" y="88.686098" style="stroke: #000000; stroke-width: 0.8"/>
      </g>
     </g>
     <g id="text_14">
      <!-- 800 -->
      <g transform="translate(38.2825 92.485317) scale(0.1 -0.1)">
       <use xlink:href="#DejaVuSans-38"/>
       <use xlink:href="#DejaVuSans-30" x="63.623047"/>
       <use xlink:href="#DejaVuSans-30" x="127.246094"/>
      </g>
     </g>
    </g>
    <g id="ytick_6">
     <g id="line2d_14">
      <g>
       <use xlink:href="#me8cb7e8196" x="64.37" y="15.147622" style="stroke: #000000; stroke-width: 0.8"/>
      </g>
     </g>
     <g id="text_15">
      <!-- 1000 -->
      <g transform="translate(31.92 18.946841) scale(0.1 -0.1)">
       <use xlink:href="#DejaVuSans-31"/>
       <use xlink:href="#DejaVuSans-30" x="63.623047"/>
       <use xlink:href="#DejaVuSans-30" x="127.246094"/>
       <use xlink:href="#DejaVuSans-30" x="190.869141"/>
      </g>
     </g>
    </g>
    <g id="text_16">
     <!-- Count -->
     <g transform="translate(24.176563 223.864152) rotate(-90) scale(0.18 -0.18)">
      <defs>
       <path id="DejaVuSans-43" d="M 4122 4306 
L 4122 3641 
Q 3803 3938 3442 4084 
Q 3081 4231 2675 4231 
Q 1875 4231 1450 3742 
Q 1025 3253 1025 2328 
Q 1025 1406 1450 917 
Q 1875 428 2675 428 
Q 3081 428 3442 575 
Q 3803 722 4122 1019 
L 4122 359 
Q 3791 134 3420 21 
Q 3050 -91 2638 -91 
Q 1578 -91 968 557 
Q 359 1206 359 2328 
Q 359 3453 968 4101 
Q 1578 4750 2638 4750 
Q 3056 4750 3426 4639 
Q 3797 4528 4122 4306 
z
" transform="scale(0.015625)"/>
       <path id="DejaVuSans-6e" d="M 3513 2113 
L 3513 0 
L 2938 0 
L 2938 2094 
Q 2938 2591 2744 2837 
Q 2550 3084 2163 3084 
Q 1697 3084 1428 2787 
Q 1159 2491 1159 1978 
L 1159 0 
L 581 0 
L 581 3500 
L 1159 3500 
L 1159 2956 
Q 1366 3272 1645 3428 
Q 1925 3584 2291 3584 
Q 2894 3584 3203 3211 
Q 3513 2838 3513 2113 
z
" transform="scale(0.015625)"/>
       <path id="DejaVuSans-74" d="M 1172 4494 
L 1172 3500 
L 2356 3500 
L 2356 3053 
L 1172 3053 
L 1172 1153 
Q 1172 725 1289 603 
Q 1406 481 1766 481 
L 2356 481 
L 2356 0 
L 1766 0 
Q 1100 0 847 248 
Q 594 497 594 1153 
L 594 3053 
L 172 3053 
L 172 3500 
L 594 3500 
L 594 4494 
L 1172 4494 
z
" transform="scale(0.015625)"/>
      </defs>
      <use xlink:href="#DejaVuSans-43"/>
      <use xlink:href="#DejaVuSans-6f" x="69.824219"/>
      <use xlink:href="#DejaVuSans-75" x="131.005859"/>
      <use xlink:href="#DejaVuSans-6e" x="194.384766"/>
      <use xlink:href="#DejaVuSans-74" x="257.763672"/>
     </g>
    </g>
   </g>
   <g id="line2d_15">
    <path d="M 401.180127 382.84 
L 401.180127 29.119933 
" clip-path="url(#p75afb2112d)" style="fill: none; stroke: #ff0000; stroke-width: 1.6; stroke-linecap: square"/>
   </g>
   <g id="patch_95">
    <path d="M 64.37 382.84 
L 64.37 11.433929 
" style="fill: none; stroke: #000000; stroke-width: 0.8; stroke-linejoin: miter; stroke-linecap: square"/>
   </g>
   <g id="patch_96">
    <path d="M 564.717766 382.84 
L 564.717766 11.433929 
" style="fill: none; stroke: #000000; stroke-width: 0.8; stroke-linejoin: miter; stroke-linecap: square"/>
   </g>
   <g id="patch_97">
    <path d="M 64.37 382.84 
L 564.717766 382.84 
" style="fill: none; stroke: #000000; stroke-width: 0.8; stroke-linejoin: miter; stroke-linecap: square"/>
   </g>
   <g id="patch_98">
    <path d="M 64.37 11.433929 
L 564.717766 11.433929 
" style="fill: none; stroke: #000000; stroke-width: 0.8; stroke-linejoin: miter; stroke-linecap: square"/>
   </g>
   <g id="text_17">
    <!-- $\mu_2 = -8.032$ -->
    <g transform="translate(414.613436 62.157081) scale(0.21 -0.21)">
     <defs>
      <path id="DejaVuSans-Oblique-3bc" d="M -84 -1331 
L 856 3500 
L 1434 3500 
L 1009 1322 
Q 997 1256 987 1175 
Q 978 1094 978 1013 
Q 978 722 1161 565 
Q 1344 409 1684 409 
Q 2147 409 2431 671 
Q 2716 934 2816 1459 
L 3213 3500 
L 3788 3500 
L 3266 809 
Q 3253 750 3248 706 
Q 3244 663 3244 628 
Q 3244 531 3283 486 
Q 3322 441 3406 441 
Q 3438 441 3492 456 
Q 3547 472 3647 513 
L 3559 50 
Q 3422 -19 3297 -55 
Q 3172 -91 3053 -91 
Q 2847 -91 2730 40 
Q 2613 172 2613 403 
Q 2438 153 2195 31 
Q 1953 -91 1625 -91 
Q 1334 -91 1117 43 
Q 900 178 831 397 
L 494 -1331 
L -84 -1331 
z
" transform="scale(0.015625)"/>
      <path id="DejaVuSans-3d" d="M 678 2906 
L 4684 2906 
L 4684 2381 
L 678 2381 
L 678 2906 
z
M 678 1631 
L 4684 1631 
L 4684 1100 
L 678 1100 
L 678 1631 
z
" transform="scale(0.015625)"/>
      <path id="DejaVuSans-33" d="M 2597 2516 
Q 3050 2419 3304 2112 
Q 3559 1806 3559 1356 
Q 3559 666 3084 287 
Q 2609 -91 1734 -91 
Q 1441 -91 1130 -33 
Q 819 25 488 141 
L 488 750 
Q 750 597 1062 519 
Q 1375 441 1716 441 
Q 2309 441 2620 675 
Q 2931 909 2931 1356 
Q 2931 1769 2642 2001 
Q 2353 2234 1838 2234 
L 1294 2234 
L 1294 2753 
L 1863 2753 
Q 2328 2753 2575 2939 
Q 2822 3125 2822 3475 
Q 2822 3834 2567 4026 
Q 2313 4219 1838 4219 
Q 1578 4219 1281 4162 
Q 984 4106 628 3988 
L 628 4550 
Q 988 4650 1302 4700 
Q 1616 4750 1894 4750 
Q 2613 4750 3031 4423 
Q 3450 4097 3450 3541 
Q 3450 3153 3228 2886 
Q 3006 2619 2597 2516 
z
" transform="scale(0.015625)"/>
     </defs>
     <use xlink:href="#DejaVuSans-Oblique-3bc" transform="translate(0 0.78125)"/>
     <use xlink:href="#DejaVuSans-32" transform="translate(63.623047 -15.625) scale(0.7)"/>
     <use xlink:href="#DejaVuSans-3d" transform="translate(130.375977 0.78125)"/>
     <use xlink:href="#DejaVuSans-2212" transform="translate(253.129883 0.78125)"/>
     <use xlink:href="#DejaVuSans-38" transform="translate(356.401367 0.78125)"/>
     <use xlink:href="#DejaVuSans-2e" transform="translate(420.024414 0.78125)"/>
     <use xlink:href="#DejaVuSans-30" transform="translate(451.811523 0.78125)"/>
     <use xlink:href="#DejaVuSans-33" transform="translate(515.43457 0.78125)"/>
     <use xlink:href="#DejaVuSans-32" transform="translate(579.057617 0.78125)"/>
    </g>
    <!-- $\sigma_2 = 0.426$ -->
    <g transform="translate(414.613436 85.715143) scale(0.21 -0.21)">
     <defs>
      <path id="DejaVuSans-Oblique-3c3" d="M 2219 3044 
Q 1744 3044 1422 2700 
Q 1081 2341 969 1747 
Q 844 1119 1044 756 
Q 1241 397 1706 397 
Q 2166 397 2503 759 
Q 2844 1122 2966 1747 
Q 3075 2319 2881 2700 
Q 2700 3044 2219 3044 
z
M 2309 3503 
L 4219 3500 
L 4106 2925 
L 3463 2925 
Q 3706 2438 3575 1747 
Q 3406 888 2884 400 
Q 2359 -91 1609 -91 
Q 856 -91 525 400 
Q 194 888 363 1747 
Q 528 2609 1050 3097 
Q 1484 3503 2309 3503 
z
" transform="scale(0.015625)"/>
     </defs>
     <use xlink:href="#DejaVuSans-Oblique-3c3" transform="translate(0 0.78125)"/>
     <use xlink:href="#DejaVuSans-32" transform="translate(63.378906 -15.625) scale(0.7)"/>
     <use xlink:href="#DejaVuSans-3d" transform="translate(130.131836 0.78125)"/>
     <use xlink:href="#DejaVuSans-30" transform="translate(233.40332 0.78125)"/>
     <use xlink:href="#DejaVuSans-2e" transform="translate(297.026367 0.78125)"/>
     <use xlink:href="#DejaVuSans-34" transform="translate(328.813477 0.78125)"/>
     <use xlink:href="#DejaVuSans-32" transform="translate(392.436523 0.78125)"/>
     <use xlink:href="#DejaVuSans-36" transform="translate(456.05957 0.78125)"/>
    </g>
   </g>
  </g>
 </g>
 <defs>
  <clipPath id="p75afb2112d">
   <rect x="64.37" y="11.433929" width="500.347766" height="371.406071"/>
  </clipPath>
 </defs>
</svg>
