<?xml version="1.0" encoding="utf-8" standalone="no"?>
<!DOCTYPE svg PUBLIC "-//W3C//DTD SVG 1.1//EN"
  "http://www.w3.org/Graphics/SVG/1.1/DTD/svg11.dtd">
<svg xmlns:xlink="http://www.w3.org/1999/xlink" width="720pt" height="360pt" viewBox="0 0 720 360" xmlns="http://www.w3.org/2000/svg" version="1.1">
 <metadata>
  <rdf:RDF xmlns:dc="http://purl.org/dc/elements/1.1/" xmlns:cc="http://creativecommons.org/ns#" xmlns:rdf="http://www.w3.org/1999/02/22-rdf-syntax-ns#">
   <cc:Work>
    <dc:type rdf:resource="http://purl.org/dc/dcmitype/StillImage"/>
    <dc:date>2023-09-28T23:19:07.561607</dc:date>
    <dc:format>image/svg+xml</dc:format>
    <dc:creator>
     <cc:Agent>
      <dc:title>Matplotlib v3.7.1, https://matplotlib.org/</dc:title>
     </cc:Agent>
    </dc:creator>
   </cc:Work>
  </rdf:RDF>
 </metadata>
 <defs>
  <style type="text/css">*{stroke-linejoin: round; stroke-linecap: butt}</style>
 </defs>
 <g id="figure_1">
  <g id="patch_1">
   <path d="M 0 360 
L 720 360 
L 720 0 
L 0 0 
z
" style="fill: #ffffff"/>
  </g>
  <g id="axes_1">
   <g id="patch_2">
    <path d="M 90 320.4 
L 648 320.4 
L 648 43.2 
L 90 43.2 
z
" style="fill: #ffffff"/>
   </g>
   <g id="patch_3">
    <path d="M 115.363636 320.4 
L 118.419496 320.4 
L 118.419496 320.354864 
L 115.363636 320.354864 
z
" clip-path="url(#pf295e8ce7a)" style="fill: #1f77b4"/>
   </g>
   <g id="patch_4">
    <path d="M 118.419496 320.4 
L 121.475356 320.4 
L 121.475356 320.354864 
L 118.419496 320.354864 
z
" clip-path="url(#pf295e8ce7a)" style="fill: #1f77b4"/>
   </g>
   <g id="patch_5">
    <path d="M 121.475356 320.4 
L 124.531216 320.4 
L 124.531216 320.4 
L 121.475356 320.4 
z
" clip-path="url(#pf295e8ce7a)" style="fill: #1f77b4"/>
   </g>
   <g id="patch_6">
    <path d="M 124.531216 320.4 
L 127.587076 320.4 
L 127.587076 320.4 
L 124.531216 320.4 
z
" clip-path="url(#pf295e8ce7a)" style="fill: #1f77b4"/>
   </g>
   <g id="patch_7">
    <path d="M 127.587076 320.4 
L 130.642935 320.4 
L 130.642935 320.4 
L 127.587076 320.4 
z
" clip-path="url(#pf295e8ce7a)" style="fill: #1f77b4"/>
   </g>
   <g id="patch_8">
    <path d="M 130.642935 320.4 
L 133.698795 320.4 
L 133.698795 320.309728 
L 130.642935 320.309728 
z
" clip-path="url(#pf295e8ce7a)" style="fill: #1f77b4"/>
   </g>
   <g id="patch_9">
    <path d="M 133.698795 320.4 
L 136.754655 320.4 
L 136.754655 320.4 
L 133.698795 320.4 
z
" clip-path="url(#pf295e8ce7a)" style="fill: #1f77b4"/>
   </g>
   <g id="patch_10">
    <path d="M 136.754655 320.4 
L 139.810515 320.4 
L 139.810515 320.219456 
L 136.754655 320.219456 
z
" clip-path="url(#pf295e8ce7a)" style="fill: #1f77b4"/>
   </g>
   <g id="patch_11">
    <path d="M 139.810515 320.4 
L 142.866375 320.4 
L 142.866375 320.4 
L 139.810515 320.4 
z
" clip-path="url(#pf295e8ce7a)" style="fill: #1f77b4"/>
   </g>
   <g id="patch_12">
    <path d="M 142.866375 320.4 
L 145.922234 320.4 
L 145.922234 320.309728 
L 142.866375 320.309728 
z
" clip-path="url(#pf295e8ce7a)" style="fill: #1f77b4"/>
   </g>
   <g id="patch_13">
    <path d="M 145.922234 320.4 
L 148.978094 320.4 
L 148.978094 320.4 
L 145.922234 320.4 
z
" clip-path="url(#pf295e8ce7a)" style="fill: #1f77b4"/>
   </g>
   <g id="patch_14">
    <path d="M 148.978094 320.4 
L 152.033954 320.4 
L 152.033954 320.264592 
L 148.978094 320.264592 
z
" clip-path="url(#pf295e8ce7a)" style="fill: #1f77b4"/>
   </g>
   <g id="patch_15">
    <path d="M 152.033954 320.4 
L 155.089814 320.4 
L 155.089814 320.4 
L 152.033954 320.4 
z
" clip-path="url(#pf295e8ce7a)" style="fill: #1f77b4"/>
   </g>
   <g id="patch_16">
    <path d="M 155.089814 320.4 
L 158.145674 320.4 
L 158.145674 320.038913 
L 155.089814 320.038913 
z
" clip-path="url(#pf295e8ce7a)" style="fill: #1f77b4"/>
   </g>
   <g id="patch_17">
    <path d="M 158.145674 320.4 
L 161.201533 320.4 
L 161.201533 320.4 
L 158.145674 320.4 
z
" clip-path="url(#pf295e8ce7a)" style="fill: #1f77b4"/>
   </g>
   <g id="patch_18">
    <path d="M 161.201533 320.4 
L 164.257393 320.4 
L 164.257393 319.677825 
L 161.201533 319.677825 
z
" clip-path="url(#pf295e8ce7a)" style="fill: #1f77b4"/>
   </g>
   <g id="patch_19">
    <path d="M 164.257393 320.4 
L 167.313253 320.4 
L 167.313253 320.4 
L 164.257393 320.4 
z
" clip-path="url(#pf295e8ce7a)" style="fill: #1f77b4"/>
   </g>
   <g id="patch_20">
    <path d="M 167.313253 320.4 
L 170.369113 320.4 
L 170.369113 319.903505 
L 167.313253 319.903505 
z
" clip-path="url(#pf295e8ce7a)" style="fill: #1f77b4"/>
   </g>
   <g id="patch_21">
    <path d="M 170.369113 320.4 
L 173.424973 320.4 
L 173.424973 320.4 
L 170.369113 320.4 
z
" clip-path="url(#pf295e8ce7a)" style="fill: #1f77b4"/>
   </g>
   <g id="patch_22">
    <path d="M 173.424973 320.4 
L 176.480832 320.4 
L 176.480832 319.587553 
L 173.424973 319.587553 
z
" clip-path="url(#pf295e8ce7a)" style="fill: #1f77b4"/>
   </g>
   <g id="patch_23">
    <path d="M 176.480832 320.4 
L 179.536692 320.4 
L 179.536692 319.045922 
L 176.480832 319.045922 
z
" clip-path="url(#pf295e8ce7a)" style="fill: #1f77b4"/>
   </g>
   <g id="patch_24">
    <path d="M 179.536692 320.4 
L 182.592552 320.4 
L 182.592552 320.4 
L 179.536692 320.4 
z
" clip-path="url(#pf295e8ce7a)" style="fill: #1f77b4"/>
   </g>
   <g id="patch_25">
    <path d="M 182.592552 320.4 
L 185.648412 320.4 
L 185.648412 318.639699 
L 182.592552 318.639699 
z
" clip-path="url(#pf295e8ce7a)" style="fill: #1f77b4"/>
   </g>
   <g id="patch_26">
    <path d="M 185.648412 320.4 
L 188.704272 320.4 
L 188.704272 320.4 
L 185.648412 320.4 
z
" clip-path="url(#pf295e8ce7a)" style="fill: #1f77b4"/>
   </g>
   <g id="patch_27">
    <path d="M 188.704272 320.4 
L 191.760131 320.4 
L 191.760131 317.736981 
L 188.704272 317.736981 
z
" clip-path="url(#pf295e8ce7a)" style="fill: #1f77b4"/>
   </g>
   <g id="patch_28">
    <path d="M 191.760131 320.4 
L 194.815991 320.4 
L 194.815991 320.4 
L 191.760131 320.4 
z
" clip-path="url(#pf295e8ce7a)" style="fill: #1f77b4"/>
   </g>
   <g id="patch_29">
    <path d="M 194.815991 320.4 
L 197.871851 320.4 
L 197.871851 316.247495 
L 194.815991 316.247495 
z
" clip-path="url(#pf295e8ce7a)" style="fill: #1f77b4"/>
   </g>
   <g id="patch_30">
    <path d="M 197.871851 320.4 
L 200.927711 320.4 
L 200.927711 320.4 
L 197.871851 320.4 
z
" clip-path="url(#pf295e8ce7a)" style="fill: #1f77b4"/>
   </g>
   <g id="patch_31">
    <path d="M 200.927711 320.4 
L 203.983571 320.4 
L 203.983571 316.428039 
L 200.927711 316.428039 
z
" clip-path="url(#pf295e8ce7a)" style="fill: #1f77b4"/>
   </g>
   <g id="patch_32">
    <path d="M 203.983571 320.4 
L 207.03943 320.4 
L 207.03943 320.4 
L 203.983571 320.4 
z
" clip-path="url(#pf295e8ce7a)" style="fill: #1f77b4"/>
   </g>
   <g id="patch_33">
    <path d="M 207.03943 320.4 
L 210.09529 320.4 
L 210.09529 312.997709 
L 207.03943 312.997709 
z
" clip-path="url(#pf295e8ce7a)" style="fill: #1f77b4"/>
   </g>
   <g id="patch_34">
    <path d="M 210.09529 320.4 
L 213.15115 320.4 
L 213.15115 320.4 
L 210.09529 320.4 
z
" clip-path="url(#pf295e8ce7a)" style="fill: #1f77b4"/>
   </g>
   <g id="patch_35">
    <path d="M 213.15115 320.4 
L 216.20701 320.4 
L 216.20701 312.410942 
L 213.15115 312.410942 
z
" clip-path="url(#pf295e8ce7a)" style="fill: #1f77b4"/>
   </g>
   <g id="patch_36">
    <path d="M 216.20701 320.4 
L 219.26287 320.4 
L 219.26287 320.4 
L 216.20701 320.4 
z
" clip-path="url(#pf295e8ce7a)" style="fill: #1f77b4"/>
   </g>
   <g id="patch_37">
    <path d="M 219.26287 320.4 
L 222.318729 320.4 
L 222.318729 308.664661 
L 219.26287 308.664661 
z
" clip-path="url(#pf295e8ce7a)" style="fill: #1f77b4"/>
   </g>
   <g id="patch_38">
    <path d="M 222.318729 320.4 
L 225.374589 320.4 
L 225.374589 320.4 
L 222.318729 320.4 
z
" clip-path="url(#pf295e8ce7a)" style="fill: #1f77b4"/>
   </g>
   <g id="patch_39">
    <path d="M 225.374589 320.4 
L 228.430449 320.4 
L 228.430449 304.647564 
L 225.374589 304.647564 
z
" clip-path="url(#pf295e8ce7a)" style="fill: #1f77b4"/>
   </g>
   <g id="patch_40">
    <path d="M 228.430449 320.4 
L 231.486309 320.4 
L 231.486309 320.4 
L 228.430449 320.4 
z
" clip-path="url(#pf295e8ce7a)" style="fill: #1f77b4"/>
   </g>
   <g id="patch_41">
    <path d="M 231.486309 320.4 
L 234.542169 320.4 
L 234.542169 302.796991 
L 231.486309 302.796991 
z
" clip-path="url(#pf295e8ce7a)" style="fill: #1f77b4"/>
   </g>
   <g id="patch_42">
    <path d="M 234.542169 320.4 
L 237.598028 320.4 
L 237.598028 320.4 
L 234.542169 320.4 
z
" clip-path="url(#pf295e8ce7a)" style="fill: #1f77b4"/>
   </g>
   <g id="patch_43">
    <path d="M 237.598028 320.4 
L 240.653888 320.4 
L 240.653888 296.523098 
L 237.598028 296.523098 
z
" clip-path="url(#pf295e8ce7a)" style="fill: #1f77b4"/>
   </g>
   <g id="patch_44">
    <path d="M 240.653888 320.4 
L 243.709748 320.4 
L 243.709748 292.19005 
L 240.653888 292.19005 
z
" clip-path="url(#pf295e8ce7a)" style="fill: #1f77b4"/>
   </g>
   <g id="patch_45">
    <path d="M 243.709748 320.4 
L 246.765608 320.4 
L 246.765608 320.4 
L 243.709748 320.4 
z
" clip-path="url(#pf295e8ce7a)" style="fill: #1f77b4"/>
   </g>
   <g id="patch_46">
    <path d="M 246.765608 320.4 
L 249.821468 320.4 
L 249.821468 283.930176 
L 246.765608 283.930176 
z
" clip-path="url(#pf295e8ce7a)" style="fill: #1f77b4"/>
   </g>
   <g id="patch_47">
    <path d="M 249.821468 320.4 
L 252.877327 320.4 
L 252.877327 320.4 
L 249.821468 320.4 
z
" clip-path="url(#pf295e8ce7a)" style="fill: #1f77b4"/>
   </g>
   <g id="patch_48">
    <path d="M 252.877327 320.4 
L 255.933187 320.4 
L 255.933187 272.37538 
L 252.877327 272.37538 
z
" clip-path="url(#pf295e8ce7a)" style="fill: #1f77b4"/>
   </g>
   <g id="patch_49">
    <path d="M 255.933187 320.4 
L 258.989047 320.4 
L 258.989047 320.4 
L 255.933187 320.4 
z
" clip-path="url(#pf295e8ce7a)" style="fill: #1f77b4"/>
   </g>
   <g id="patch_50">
    <path d="M 258.989047 320.4 
L 262.044907 320.4 
L 262.044907 268.854779 
L 258.989047 268.854779 
z
" clip-path="url(#pf295e8ce7a)" style="fill: #1f77b4"/>
   </g>
   <g id="patch_51">
    <path d="M 262.044907 320.4 
L 265.100767 320.4 
L 265.100767 320.4 
L 262.044907 320.4 
z
" clip-path="url(#pf295e8ce7a)" style="fill: #1f77b4"/>
   </g>
   <g id="patch_52">
    <path d="M 265.100767 320.4 
L 268.156627 320.4 
L 268.156627 251.703129 
L 265.100767 251.703129 
z
" clip-path="url(#pf295e8ce7a)" style="fill: #1f77b4"/>
   </g>
   <g id="patch_53">
    <path d="M 268.156627 320.4 
L 271.212486 320.4 
L 271.212486 320.4 
L 268.156627 320.4 
z
" clip-path="url(#pf295e8ce7a)" style="fill: #1f77b4"/>
   </g>
   <g id="patch_54">
    <path d="M 271.212486 320.4 
L 274.268346 320.4 
L 274.268346 239.651838 
L 271.212486 239.651838 
z
" clip-path="url(#pf295e8ce7a)" style="fill: #1f77b4"/>
   </g>
   <g id="patch_55">
    <path d="M 274.268346 320.4 
L 277.324206 320.4 
L 277.324206 320.4 
L 274.268346 320.4 
z
" clip-path="url(#pf295e8ce7a)" style="fill: #1f77b4"/>
   </g>
   <g id="patch_56">
    <path d="M 277.324206 320.4 
L 280.380066 320.4 
L 280.380066 226.833236 
L 277.324206 226.833236 
z
" clip-path="url(#pf295e8ce7a)" style="fill: #1f77b4"/>
   </g>
   <g id="patch_57">
    <path d="M 280.380066 320.4 
L 283.435926 320.4 
L 283.435926 320.4 
L 280.380066 320.4 
z
" clip-path="url(#pf295e8ce7a)" style="fill: #1f77b4"/>
   </g>
   <g id="patch_58">
    <path d="M 283.435926 320.4 
L 286.491785 320.4 
L 286.491785 208.598324 
L 283.435926 208.598324 
z
" clip-path="url(#pf295e8ce7a)" style="fill: #1f77b4"/>
   </g>
   <g id="patch_59">
    <path d="M 286.491785 320.4 
L 289.547645 320.4 
L 289.547645 320.4 
L 286.491785 320.4 
z
" clip-path="url(#pf295e8ce7a)" style="fill: #1f77b4"/>
   </g>
   <g id="patch_60">
    <path d="M 289.547645 320.4 
L 292.603505 320.4 
L 292.603505 193.387519 
L 289.547645 193.387519 
z
" clip-path="url(#pf295e8ce7a)" style="fill: #1f77b4"/>
   </g>
   <g id="patch_61">
    <path d="M 292.603505 320.4 
L 295.659365 320.4 
L 295.659365 320.4 
L 292.603505 320.4 
z
" clip-path="url(#pf295e8ce7a)" style="fill: #1f77b4"/>
   </g>
   <g id="patch_62">
    <path d="M 295.659365 320.4 
L 298.715225 320.4 
L 298.715225 174.114481 
L 295.659365 174.114481 
z
" clip-path="url(#pf295e8ce7a)" style="fill: #1f77b4"/>
   </g>
   <g id="patch_63">
    <path d="M 298.715225 320.4 
L 301.771084 320.4 
L 301.771084 320.4 
L 298.715225 320.4 
z
" clip-path="url(#pf295e8ce7a)" style="fill: #1f77b4"/>
   </g>
   <g id="patch_64">
    <path d="M 301.771084 320.4 
L 304.826944 320.4 
L 304.826944 159.85153 
L 301.771084 159.85153 
z
" clip-path="url(#pf295e8ce7a)" style="fill: #1f77b4"/>
   </g>
   <g id="patch_65">
    <path d="M 304.826944 320.4 
L 307.882804 320.4 
L 307.882804 140.668764 
L 304.826944 140.668764 
z
" clip-path="url(#pf295e8ce7a)" style="fill: #1f77b4"/>
   </g>
   <g id="patch_66">
    <path d="M 307.882804 320.4 
L 310.938664 320.4 
L 310.938664 320.4 
L 307.882804 320.4 
z
" clip-path="url(#pf295e8ce7a)" style="fill: #1f77b4"/>
   </g>
   <g id="patch_67">
    <path d="M 310.938664 320.4 
L 313.994524 320.4 
L 313.994524 119.13893 
L 310.938664 119.13893 
z
" clip-path="url(#pf295e8ce7a)" style="fill: #1f77b4"/>
   </g>
   <g id="patch_68">
    <path d="M 313.994524 320.4 
L 317.050383 320.4 
L 317.050383 320.4 
L 313.994524 320.4 
z
" clip-path="url(#pf295e8ce7a)" style="fill: #1f77b4"/>
   </g>
   <g id="patch_69">
    <path d="M 317.050383 320.4 
L 320.106243 320.4 
L 320.106243 100.046435 
L 317.050383 100.046435 
z
" clip-path="url(#pf295e8ce7a)" style="fill: #1f77b4"/>
   </g>
   <g id="patch_70">
    <path d="M 320.106243 320.4 
L 323.162103 320.4 
L 323.162103 320.4 
L 320.106243 320.4 
z
" clip-path="url(#pf295e8ce7a)" style="fill: #1f77b4"/>
   </g>
   <g id="patch_71">
    <path d="M 323.162103 320.4 
L 326.217963 320.4 
L 326.217963 83.662096 
L 323.162103 83.662096 
z
" clip-path="url(#pf295e8ce7a)" style="fill: #1f77b4"/>
   </g>
   <g id="patch_72">
    <path d="M 326.217963 320.4 
L 329.273823 320.4 
L 329.273823 320.4 
L 326.217963 320.4 
z
" clip-path="url(#pf295e8ce7a)" style="fill: #1f77b4"/>
   </g>
   <g id="patch_73">
    <path d="M 329.273823 320.4 
L 332.329682 320.4 
L 332.329682 72.648931 
L 329.273823 72.648931 
z
" clip-path="url(#pf295e8ce7a)" style="fill: #1f77b4"/>
   </g>
   <g id="patch_74">
    <path d="M 332.329682 320.4 
L 335.385542 320.4 
L 335.385542 320.4 
L 332.329682 320.4 
z
" clip-path="url(#pf295e8ce7a)" style="fill: #1f77b4"/>
   </g>
   <g id="patch_75">
    <path d="M 335.385542 320.4 
L 338.441402 320.4 
L 338.441402 65.336912 
L 335.385542 65.336912 
z
" clip-path="url(#pf295e8ce7a)" style="fill: #1f77b4"/>
   </g>
   <g id="patch_76">
    <path d="M 338.441402 320.4 
L 341.497262 320.4 
L 341.497262 320.4 
L 338.441402 320.4 
z
" clip-path="url(#pf295e8ce7a)" style="fill: #1f77b4"/>
   </g>
   <g id="patch_77">
    <path d="M 341.497262 320.4 
L 344.553122 320.4 
L 344.553122 57.754078 
L 341.497262 57.754078 
z
" clip-path="url(#pf295e8ce7a)" style="fill: #1f77b4"/>
   </g>
   <g id="patch_78">
    <path d="M 344.553122 320.4 
L 347.608981 320.4 
L 347.608981 320.4 
L 344.553122 320.4 
z
" clip-path="url(#pf295e8ce7a)" style="fill: #1f77b4"/>
   </g>
   <g id="patch_79">
    <path d="M 347.608981 320.4 
L 350.664841 320.4 
L 350.664841 56.4 
L 347.608981 56.4 
z
" clip-path="url(#pf295e8ce7a)" style="fill: #1f77b4"/>
   </g>
   <g id="patch_80">
    <path d="M 350.664841 320.4 
L 353.720701 320.4 
L 353.720701 320.4 
L 350.664841 320.4 
z
" clip-path="url(#pf295e8ce7a)" style="fill: #1f77b4"/>
   </g>
   <g id="patch_81">
    <path d="M 353.720701 320.4 
L 356.776561 320.4 
L 356.776561 60.236553 
L 353.720701 60.236553 
z
" clip-path="url(#pf295e8ce7a)" style="fill: #1f77b4"/>
   </g>
   <g id="patch_82">
    <path d="M 356.776561 320.4 
L 359.832421 320.4 
L 359.832421 320.4 
L 356.776561 320.4 
z
" clip-path="url(#pf295e8ce7a)" style="fill: #1f77b4"/>
   </g>
   <g id="patch_83">
    <path d="M 359.832421 320.4 
L 362.88828 320.4 
L 362.88828 61.364951 
L 359.832421 61.364951 
z
" clip-path="url(#pf295e8ce7a)" style="fill: #1f77b4"/>
   </g>
   <g id="patch_84">
    <path d="M 362.88828 320.4 
L 365.94414 320.4 
L 365.94414 320.4 
L 362.88828 320.4 
z
" clip-path="url(#pf295e8ce7a)" style="fill: #1f77b4"/>
   </g>
   <g id="patch_85">
    <path d="M 365.94414 320.4 
L 369 320.4 
L 369 65.156369 
L 365.94414 65.156369 
z
" clip-path="url(#pf295e8ce7a)" style="fill: #1f77b4"/>
   </g>
   <g id="patch_86">
    <path d="M 369 320.4 
L 372.05586 320.4 
L 372.05586 71.836485 
L 369 71.836485 
z
" clip-path="url(#pf295e8ce7a)" style="fill: #1f77b4"/>
   </g>
   <g id="patch_87">
    <path d="M 372.05586 320.4 
L 375.11172 320.4 
L 375.11172 320.4 
L 372.05586 320.4 
z
" clip-path="url(#pf295e8ce7a)" style="fill: #1f77b4"/>
   </g>
   <g id="patch_88">
    <path d="M 375.11172 320.4 
L 378.167579 320.4 
L 378.167579 84.158591 
L 375.11172 84.158591 
z
" clip-path="url(#pf295e8ce7a)" style="fill: #1f77b4"/>
   </g>
   <g id="patch_89">
    <path d="M 378.167579 320.4 
L 381.223439 320.4 
L 381.223439 320.4 
L 378.167579 320.4 
z
" clip-path="url(#pf295e8ce7a)" style="fill: #1f77b4"/>
   </g>
   <g id="patch_90">
    <path d="M 381.223439 320.4 
L 384.279299 320.4 
L 384.279299 83.752368 
L 381.223439 83.752368 
z
" clip-path="url(#pf295e8ce7a)" style="fill: #1f77b4"/>
   </g>
   <g id="patch_91">
    <path d="M 384.279299 320.4 
L 387.335159 320.4 
L 387.335159 320.4 
L 384.279299 320.4 
z
" clip-path="url(#pf295e8ce7a)" style="fill: #1f77b4"/>
   </g>
   <g id="patch_92">
    <path d="M 387.335159 320.4 
L 390.391019 320.4 
L 390.391019 94.855804 
L 387.335159 94.855804 
z
" clip-path="url(#pf295e8ce7a)" style="fill: #1f77b4"/>
   </g>
   <g id="patch_93">
    <path d="M 390.391019 320.4 
L 393.446878 320.4 
L 393.446878 320.4 
L 390.391019 320.4 
z
" clip-path="url(#pf295e8ce7a)" style="fill: #1f77b4"/>
   </g>
   <g id="patch_94">
    <path d="M 393.446878 320.4 
L 396.502738 320.4 
L 396.502738 97.383416 
L 393.446878 97.383416 
z
" clip-path="url(#pf295e8ce7a)" style="fill: #1f77b4"/>
   </g>
   <g id="patch_95">
    <path d="M 396.502738 320.4 
L 399.558598 320.4 
L 399.558598 320.4 
L 396.502738 320.4 
z
" clip-path="url(#pf295e8ce7a)" style="fill: #1f77b4"/>
   </g>
   <g id="patch_96">
    <path d="M 399.558598 320.4 
L 402.614458 320.4 
L 402.614458 98.692358 
L 399.558598 98.692358 
z
" clip-path="url(#pf295e8ce7a)" style="fill: #1f77b4"/>
   </g>
   <g id="patch_97">
    <path d="M 402.614458 320.4 
L 405.670318 320.4 
L 405.670318 320.4 
L 402.614458 320.4 
z
" clip-path="url(#pf295e8ce7a)" style="fill: #1f77b4"/>
   </g>
   <g id="patch_98">
    <path d="M 405.670318 320.4 
L 408.726177 320.4 
L 408.726177 107.087639 
L 405.670318 107.087639 
z
" clip-path="url(#pf295e8ce7a)" style="fill: #1f77b4"/>
   </g>
   <g id="patch_99">
    <path d="M 408.726177 320.4 
L 411.782037 320.4 
L 411.782037 320.4 
L 408.726177 320.4 
z
" clip-path="url(#pf295e8ce7a)" style="fill: #1f77b4"/>
   </g>
   <g id="patch_100">
    <path d="M 411.782037 320.4 
L 414.837897 320.4 
L 414.837897 117.92026 
L 411.782037 117.92026 
z
" clip-path="url(#pf295e8ce7a)" style="fill: #1f77b4"/>
   </g>
   <g id="patch_101">
    <path d="M 414.837897 320.4 
L 417.893757 320.4 
L 417.893757 320.4 
L 414.837897 320.4 
z
" clip-path="url(#pf295e8ce7a)" style="fill: #1f77b4"/>
   </g>
   <g id="patch_102">
    <path d="M 417.893757 320.4 
L 420.949617 320.4 
L 420.949617 132.318619 
L 417.893757 132.318619 
z
" clip-path="url(#pf295e8ce7a)" style="fill: #1f77b4"/>
   </g>
   <g id="patch_103">
    <path d="M 420.949617 320.4 
L 424.005476 320.4 
L 424.005476 320.4 
L 420.949617 320.4 
z
" clip-path="url(#pf295e8ce7a)" style="fill: #1f77b4"/>
   </g>
   <g id="patch_104">
    <path d="M 424.005476 320.4 
L 427.061336 320.4 
L 427.061336 151.591657 
L 424.005476 151.591657 
z
" clip-path="url(#pf295e8ce7a)" style="fill: #1f77b4"/>
   </g>
   <g id="patch_105">
    <path d="M 427.061336 320.4 
L 430.117196 320.4 
L 430.117196 320.4 
L 427.061336 320.4 
z
" clip-path="url(#pf295e8ce7a)" style="fill: #1f77b4"/>
   </g>
   <g id="patch_106">
    <path d="M 430.117196 320.4 
L 433.173056 320.4 
L 433.173056 164.997025 
L 430.117196 164.997025 
z
" clip-path="url(#pf295e8ce7a)" style="fill: #1f77b4"/>
   </g>
   <g id="patch_107">
    <path d="M 433.173056 320.4 
L 436.228916 320.4 
L 436.228916 182.64517 
L 433.173056 182.64517 
z
" clip-path="url(#pf295e8ce7a)" style="fill: #1f77b4"/>
   </g>
   <g id="patch_108">
    <path d="M 436.228916 320.4 
L 439.284775 320.4 
L 439.284775 320.4 
L 436.228916 320.4 
z
" clip-path="url(#pf295e8ce7a)" style="fill: #1f77b4"/>
   </g>
   <g id="patch_109">
    <path d="M 439.284775 320.4 
L 442.340635 320.4 
L 442.340635 194.651325 
L 439.284775 194.651325 
z
" clip-path="url(#pf295e8ce7a)" style="fill: #1f77b4"/>
   </g>
   <g id="patch_110">
    <path d="M 442.340635 320.4 
L 445.396495 320.4 
L 445.396495 320.4 
L 442.340635 320.4 
z
" clip-path="url(#pf295e8ce7a)" style="fill: #1f77b4"/>
   </g>
   <g id="patch_111">
    <path d="M 445.396495 320.4 
L 448.452355 320.4 
L 448.452355 215.413849 
L 445.396495 215.413849 
z
" clip-path="url(#pf295e8ce7a)" style="fill: #1f77b4"/>
   </g>
   <g id="patch_112">
    <path d="M 448.452355 320.4 
L 451.508215 320.4 
L 451.508215 320.4 
L 448.452355 320.4 
z
" clip-path="url(#pf295e8ce7a)" style="fill: #1f77b4"/>
   </g>
   <g id="patch_113">
    <path d="M 451.508215 320.4 
L 454.564074 320.4 
L 454.564074 223.493178 
L 451.508215 223.493178 
z
" clip-path="url(#pf295e8ce7a)" style="fill: #1f77b4"/>
   </g>
   <g id="patch_114">
    <path d="M 454.564074 320.4 
L 457.619934 320.4 
L 457.619934 320.4 
L 454.564074 320.4 
z
" clip-path="url(#pf295e8ce7a)" style="fill: #1f77b4"/>
   </g>
   <g id="patch_115">
    <path d="M 457.619934 320.4 
L 460.675794 320.4 
L 460.675794 239.019935 
L 457.619934 239.019935 
z
" clip-path="url(#pf295e8ce7a)" style="fill: #1f77b4"/>
   </g>
   <g id="patch_116">
    <path d="M 460.675794 320.4 
L 463.731654 320.4 
L 463.731654 320.4 
L 460.675794 320.4 
z
" clip-path="url(#pf295e8ce7a)" style="fill: #1f77b4"/>
   </g>
   <g id="patch_117">
    <path d="M 463.731654 320.4 
L 466.787514 320.4 
L 466.787514 252.199624 
L 463.731654 252.199624 
z
" clip-path="url(#pf295e8ce7a)" style="fill: #1f77b4"/>
   </g>
   <g id="patch_118">
    <path d="M 466.787514 320.4 
L 469.843373 320.4 
L 469.843373 320.4 
L 466.787514 320.4 
z
" clip-path="url(#pf295e8ce7a)" style="fill: #1f77b4"/>
   </g>
   <g id="patch_119">
    <path d="M 469.843373 320.4 
L 472.899233 320.4 
L 472.899233 266.643118 
L 469.843373 266.643118 
z
" clip-path="url(#pf295e8ce7a)" style="fill: #1f77b4"/>
   </g>
   <g id="patch_120">
    <path d="M 472.899233 320.4 
L 475.955093 320.4 
L 475.955093 320.4 
L 472.899233 320.4 
z
" clip-path="url(#pf295e8ce7a)" style="fill: #1f77b4"/>
   </g>
   <g id="patch_121">
    <path d="M 475.955093 320.4 
L 479.010953 320.4 
L 479.010953 276.076526 
L 475.955093 276.076526 
z
" clip-path="url(#pf295e8ce7a)" style="fill: #1f77b4"/>
   </g>
   <g id="patch_122">
    <path d="M 479.010953 320.4 
L 482.066813 320.4 
L 482.066813 320.4 
L 479.010953 320.4 
z
" clip-path="url(#pf295e8ce7a)" style="fill: #1f77b4"/>
   </g>
   <g id="patch_123">
    <path d="M 482.066813 320.4 
L 485.122673 320.4 
L 485.122673 284.697487 
L 482.066813 284.697487 
z
" clip-path="url(#pf295e8ce7a)" style="fill: #1f77b4"/>
   </g>
   <g id="patch_124">
    <path d="M 485.122673 320.4 
L 488.178532 320.4 
L 488.178532 320.4 
L 485.122673 320.4 
z
" clip-path="url(#pf295e8ce7a)" style="fill: #1f77b4"/>
   </g>
   <g id="patch_125">
    <path d="M 488.178532 320.4 
L 491.234392 320.4 
L 491.234392 293.273312 
L 488.178532 293.273312 
z
" clip-path="url(#pf295e8ce7a)" style="fill: #1f77b4"/>
   </g>
   <g id="patch_126">
    <path d="M 491.234392 320.4 
L 494.290252 320.4 
L 494.290252 320.4 
L 491.234392 320.4 
z
" clip-path="url(#pf295e8ce7a)" style="fill: #1f77b4"/>
   </g>
   <g id="patch_127">
    <path d="M 494.290252 320.4 
L 497.346112 320.4 
L 497.346112 299.05071 
L 494.290252 299.05071 
z
" clip-path="url(#pf295e8ce7a)" style="fill: #1f77b4"/>
   </g>
   <g id="patch_128">
    <path d="M 497.346112 320.4 
L 500.401972 320.4 
L 500.401972 302.751855 
L 497.346112 302.751855 
z
" clip-path="url(#pf295e8ce7a)" style="fill: #1f77b4"/>
   </g>
   <g id="patch_129">
    <path d="M 500.401972 320.4 
L 503.457831 320.4 
L 503.457831 320.4 
L 500.401972 320.4 
z
" clip-path="url(#pf295e8ce7a)" style="fill: #1f77b4"/>
   </g>
   <g id="patch_130">
    <path d="M 503.457831 320.4 
L 506.513691 320.4 
L 506.513691 309.11602 
L 503.457831 309.11602 
z
" clip-path="url(#pf295e8ce7a)" style="fill: #1f77b4"/>
   </g>
   <g id="patch_131">
    <path d="M 506.513691 320.4 
L 509.569551 320.4 
L 509.569551 320.4 
L 506.513691 320.4 
z
" clip-path="url(#pf295e8ce7a)" style="fill: #1f77b4"/>
   </g>
   <g id="patch_132">
    <path d="M 509.569551 320.4 
L 512.625411 320.4 
L 512.625411 312.681758 
L 509.569551 312.681758 
z
" clip-path="url(#pf295e8ce7a)" style="fill: #1f77b4"/>
   </g>
   <g id="patch_133">
    <path d="M 512.625411 320.4 
L 515.681271 320.4 
L 515.681271 320.4 
L 512.625411 320.4 
z
" clip-path="url(#pf295e8ce7a)" style="fill: #1f77b4"/>
   </g>
   <g id="patch_134">
    <path d="M 515.681271 320.4 
L 518.73713 320.4 
L 518.73713 313.900427 
L 515.681271 313.900427 
z
" clip-path="url(#pf295e8ce7a)" style="fill: #1f77b4"/>
   </g>
   <g id="patch_135">
    <path d="M 518.73713 320.4 
L 521.79299 320.4 
L 521.79299 320.4 
L 518.73713 320.4 
z
" clip-path="url(#pf295e8ce7a)" style="fill: #1f77b4"/>
   </g>
   <g id="patch_136">
    <path d="M 521.79299 320.4 
L 524.84885 320.4 
L 524.84885 316.112088 
L 521.79299 316.112088 
z
" clip-path="url(#pf295e8ce7a)" style="fill: #1f77b4"/>
   </g>
   <g id="patch_137">
    <path d="M 524.84885 320.4 
L 527.90471 320.4 
L 527.90471 320.4 
L 524.84885 320.4 
z
" clip-path="url(#pf295e8ce7a)" style="fill: #1f77b4"/>
   </g>
   <g id="patch_138">
    <path d="M 527.90471 320.4 
L 530.96057 320.4 
L 530.96057 317.466165 
L 527.90471 317.466165 
z
" clip-path="url(#pf295e8ce7a)" style="fill: #1f77b4"/>
   </g>
   <g id="patch_139">
    <path d="M 530.96057 320.4 
L 534.016429 320.4 
L 534.016429 320.4 
L 530.96057 320.4 
z
" clip-path="url(#pf295e8ce7a)" style="fill: #1f77b4"/>
   </g>
   <g id="patch_140">
    <path d="M 534.016429 320.4 
L 537.072289 320.4 
L 537.072289 317.827253 
L 534.016429 317.827253 
z
" clip-path="url(#pf295e8ce7a)" style="fill: #1f77b4"/>
   </g>
   <g id="patch_141">
    <path d="M 537.072289 320.4 
L 540.128149 320.4 
L 540.128149 320.4 
L 537.072289 320.4 
z
" clip-path="url(#pf295e8ce7a)" style="fill: #1f77b4"/>
   </g>
   <g id="patch_142">
    <path d="M 540.128149 320.4 
L 543.184009 320.4 
L 543.184009 318.278612 
L 540.128149 318.278612 
z
" clip-path="url(#pf295e8ce7a)" style="fill: #1f77b4"/>
   </g>
   <g id="patch_143">
    <path d="M 543.184009 320.4 
L 546.239869 320.4 
L 546.239869 320.4 
L 543.184009 320.4 
z
" clip-path="url(#pf295e8ce7a)" style="fill: #1f77b4"/>
   </g>
   <g id="patch_144">
    <path d="M 546.239869 320.4 
L 549.295728 320.4 
L 549.295728 319.136194 
L 546.239869 319.136194 
z
" clip-path="url(#pf295e8ce7a)" style="fill: #1f77b4"/>
   </g>
   <g id="patch_145">
    <path d="M 549.295728 320.4 
L 552.351588 320.4 
L 552.351588 320.4 
L 549.295728 320.4 
z
" clip-path="url(#pf295e8ce7a)" style="fill: #1f77b4"/>
   </g>
   <g id="patch_146">
    <path d="M 552.351588 320.4 
L 555.407448 320.4 
L 555.407448 319.587553 
L 552.351588 319.587553 
z
" clip-path="url(#pf295e8ce7a)" style="fill: #1f77b4"/>
   </g>
   <g id="patch_147">
    <path d="M 555.407448 320.4 
L 558.463308 320.4 
L 558.463308 320.4 
L 555.407448 320.4 
z
" clip-path="url(#pf295e8ce7a)" style="fill: #1f77b4"/>
   </g>
   <g id="patch_148">
    <path d="M 558.463308 320.4 
L 561.519168 320.4 
L 561.519168 319.993777 
L 558.463308 319.993777 
z
" clip-path="url(#pf295e8ce7a)" style="fill: #1f77b4"/>
   </g>
   <g id="patch_149">
    <path d="M 561.519168 320.4 
L 564.575027 320.4 
L 564.575027 319.858369 
L 561.519168 319.858369 
z
" clip-path="url(#pf295e8ce7a)" style="fill: #1f77b4"/>
   </g>
   <g id="patch_150">
    <path d="M 564.575027 320.4 
L 567.630887 320.4 
L 567.630887 320.4 
L 564.575027 320.4 
z
" clip-path="url(#pf295e8ce7a)" style="fill: #1f77b4"/>
   </g>
   <g id="patch_151">
    <path d="M 567.630887 320.4 
L 570.686747 320.4 
L 570.686747 319.993777 
L 567.630887 319.993777 
z
" clip-path="url(#pf295e8ce7a)" style="fill: #1f77b4"/>
   </g>
   <g id="patch_152">
    <path d="M 570.686747 320.4 
L 573.742607 320.4 
L 573.742607 320.4 
L 570.686747 320.4 
z
" clip-path="url(#pf295e8ce7a)" style="fill: #1f77b4"/>
   </g>
   <g id="patch_153">
    <path d="M 573.742607 320.4 
L 576.798467 320.4 
L 576.798467 320.219456 
L 573.742607 320.219456 
z
" clip-path="url(#pf295e8ce7a)" style="fill: #1f77b4"/>
   </g>
   <g id="patch_154">
    <path d="M 576.798467 320.4 
L 579.854326 320.4 
L 579.854326 320.4 
L 576.798467 320.4 
z
" clip-path="url(#pf295e8ce7a)" style="fill: #1f77b4"/>
   </g>
   <g id="patch_155">
    <path d="M 579.854326 320.4 
L 582.910186 320.4 
L 582.910186 320.129184 
L 579.854326 320.129184 
z
" clip-path="url(#pf295e8ce7a)" style="fill: #1f77b4"/>
   </g>
   <g id="patch_156">
    <path d="M 582.910186 320.4 
L 585.966046 320.4 
L 585.966046 320.4 
L 582.910186 320.4 
z
" clip-path="url(#pf295e8ce7a)" style="fill: #1f77b4"/>
   </g>
   <g id="patch_157">
    <path d="M 585.966046 320.4 
L 589.021906 320.4 
L 589.021906 319.948641 
L 585.966046 319.948641 
z
" clip-path="url(#pf295e8ce7a)" style="fill: #1f77b4"/>
   </g>
   <g id="patch_158">
    <path d="M 589.021906 320.4 
L 592.077766 320.4 
L 592.077766 320.4 
L 589.021906 320.4 
z
" clip-path="url(#pf295e8ce7a)" style="fill: #1f77b4"/>
   </g>
   <g id="patch_159">
    <path d="M 592.077766 320.4 
L 595.133625 320.4 
L 595.133625 319.40701 
L 592.077766 319.40701 
z
" clip-path="url(#pf295e8ce7a)" style="fill: #1f77b4"/>
   </g>
   <g id="patch_160">
    <path d="M 595.133625 320.4 
L 598.189485 320.4 
L 598.189485 320.4 
L 595.133625 320.4 
z
" clip-path="url(#pf295e8ce7a)" style="fill: #1f77b4"/>
   </g>
   <g id="patch_161">
    <path d="M 598.189485 320.4 
L 601.245345 320.4 
L 601.245345 320.354864 
L 598.189485 320.354864 
z
" clip-path="url(#pf295e8ce7a)" style="fill: #1f77b4"/>
   </g>
   <g id="patch_162">
    <path d="M 601.245345 320.4 
L 604.301205 320.4 
L 604.301205 320.4 
L 601.245345 320.4 
z
" clip-path="url(#pf295e8ce7a)" style="fill: #1f77b4"/>
   </g>
   <g id="patch_163">
    <path d="M 604.301205 320.4 
L 607.357065 320.4 
L 607.357065 320.4 
L 604.301205 320.4 
z
" clip-path="url(#pf295e8ce7a)" style="fill: #1f77b4"/>
   </g>
   <g id="patch_164">
    <path d="M 607.357065 320.4 
L 610.412924 320.4 
L 610.412924 320.4 
L 607.357065 320.4 
z
" clip-path="url(#pf295e8ce7a)" style="fill: #1f77b4"/>
   </g>
   <g id="patch_165">
    <path d="M 610.412924 320.4 
L 613.468784 320.4 
L 613.468784 320.4 
L 610.412924 320.4 
z
" clip-path="url(#pf295e8ce7a)" style="fill: #1f77b4"/>
   </g>
   <g id="patch_166">
    <path d="M 613.468784 320.4 
L 616.524644 320.4 
L 616.524644 320.4 
L 613.468784 320.4 
z
" clip-path="url(#pf295e8ce7a)" style="fill: #1f77b4"/>
   </g>
   <g id="patch_167">
    <path d="M 616.524644 320.4 
L 619.580504 320.4 
L 619.580504 320.309728 
L 616.524644 320.309728 
z
" clip-path="url(#pf295e8ce7a)" style="fill: #1f77b4"/>
   </g>
   <g id="patch_168">
    <path d="M 619.580504 320.4 
L 622.636364 320.4 
L 622.636364 320.084049 
L 619.580504 320.084049 
z
" clip-path="url(#pf295e8ce7a)" style="fill: #1f77b4"/>
   </g>
   <g id="matplotlib.axis_1">
    <g id="xtick_1">
     <g id="line2d_1">
      <defs>
       <path id="m83fecc4af9" d="M 0 0 
L 0 3.5 
" style="stroke: #000000; stroke-width: 0.8"/>
      </defs>
      <g>
       <use xlink:href="#m83fecc4af9" x="103.702194" y="320.4" style="stroke: #000000; stroke-width: 0.8"/>
      </g>
     </g>
     <g id="text_1">
      <!-- −10 -->
      <g transform="translate(93.149851 334.998438) scale(0.1 -0.1)">
       <defs>
        <path id="DejaVuSans-2212" d="M 678 2272 
L 4684 2272 
L 4684 1741 
L 678 1741 
L 678 2272 
z
" transform="scale(0.015625)"/>
        <path id="DejaVuSans-31" d="M 794 531 
L 1825 531 
L 1825 4091 
L 703 3866 
L 703 4441 
L 1819 4666 
L 2450 4666 
L 2450 531 
L 3481 531 
L 3481 0 
L 794 0 
L 794 531 
z
" transform="scale(0.015625)"/>
        <path id="DejaVuSans-30" d="M 2034 4250 
Q 1547 4250 1301 3770 
Q 1056 3291 1056 2328 
Q 1056 1369 1301 889 
Q 1547 409 2034 409 
Q 2525 409 2770 889 
Q 3016 1369 3016 2328 
Q 3016 3291 2770 3770 
Q 2525 4250 2034 4250 
z
M 2034 4750 
Q 2819 4750 3233 4129 
Q 3647 3509 3647 2328 
Q 3647 1150 3233 529 
Q 2819 -91 2034 -91 
Q 1250 -91 836 529 
Q 422 1150 422 2328 
Q 422 3509 836 4129 
Q 1250 4750 2034 4750 
z
" transform="scale(0.015625)"/>
       </defs>
       <use xlink:href="#DejaVuSans-2212"/>
       <use xlink:href="#DejaVuSans-31" x="83.789062"/>
       <use xlink:href="#DejaVuSans-30" x="147.412109"/>
      </g>
     </g>
    </g>
    <g id="xtick_2">
     <g id="line2d_2">
      <g>
       <use xlink:href="#m83fecc4af9" x="220.316614" y="320.4" style="stroke: #000000; stroke-width: 0.8"/>
      </g>
     </g>
     <g id="text_2">
      <!-- −8 -->
      <g transform="translate(212.945521 334.998438) scale(0.1 -0.1)">
       <defs>
        <path id="DejaVuSans-38" d="M 2034 2216 
Q 1584 2216 1326 1975 
Q 1069 1734 1069 1313 
Q 1069 891 1326 650 
Q 1584 409 2034 409 
Q 2484 409 2743 651 
Q 3003 894 3003 1313 
Q 3003 1734 2745 1975 
Q 2488 2216 2034 2216 
z
M 1403 2484 
Q 997 2584 770 2862 
Q 544 3141 544 3541 
Q 544 4100 942 4425 
Q 1341 4750 2034 4750 
Q 2731 4750 3128 4425 
Q 3525 4100 3525 3541 
Q 3525 3141 3298 2862 
Q 3072 2584 2669 2484 
Q 3125 2378 3379 2068 
Q 3634 1759 3634 1313 
Q 3634 634 3220 271 
Q 2806 -91 2034 -91 
Q 1263 -91 848 271 
Q 434 634 434 1313 
Q 434 1759 690 2068 
Q 947 2378 1403 2484 
z
M 1172 3481 
Q 1172 3119 1398 2916 
Q 1625 2713 2034 2713 
Q 2441 2713 2670 2916 
Q 2900 3119 2900 3481 
Q 2900 3844 2670 4047 
Q 2441 4250 2034 4250 
Q 1625 4250 1398 4047 
Q 1172 3844 1172 3481 
z
" transform="scale(0.015625)"/>
       </defs>
       <use xlink:href="#DejaVuSans-2212"/>
       <use xlink:href="#DejaVuSans-38" x="83.789062"/>
      </g>
     </g>
    </g>
    <g id="xtick_3">
     <g id="line2d_3">
      <g>
       <use xlink:href="#m83fecc4af9" x="336.931034" y="320.4" style="stroke: #000000; stroke-width: 0.8"/>
      </g>
     </g>
     <g id="text_3">
      <!-- −6 -->
      <g transform="translate(329.559941 334.998438) scale(0.1 -0.1)">
       <defs>
        <path id="DejaVuSans-36" d="M 2113 2584 
Q 1688 2584 1439 2293 
Q 1191 2003 1191 1497 
Q 1191 994 1439 701 
Q 1688 409 2113 409 
Q 2538 409 2786 701 
Q 3034 994 3034 1497 
Q 3034 2003 2786 2293 
Q 2538 2584 2113 2584 
z
M 3366 4563 
L 3366 3988 
Q 3128 4100 2886 4159 
Q 2644 4219 2406 4219 
Q 1781 4219 1451 3797 
Q 1122 3375 1075 2522 
Q 1259 2794 1537 2939 
Q 1816 3084 2150 3084 
Q 2853 3084 3261 2657 
Q 3669 2231 3669 1497 
Q 3669 778 3244 343 
Q 2819 -91 2113 -91 
Q 1303 -91 875 529 
Q 447 1150 447 2328 
Q 447 3434 972 4092 
Q 1497 4750 2381 4750 
Q 2619 4750 2861 4703 
Q 3103 4656 3366 4563 
z
" transform="scale(0.015625)"/>
       </defs>
       <use xlink:href="#DejaVuSans-2212"/>
       <use xlink:href="#DejaVuSans-36" x="83.789062"/>
      </g>
     </g>
    </g>
    <g id="xtick_4">
     <g id="line2d_4">
      <g>
       <use xlink:href="#m83fecc4af9" x="453.545455" y="320.4" style="stroke: #000000; stroke-width: 0.8"/>
      </g>
     </g>
     <g id="text_4">
      <!-- −4 -->
      <g transform="translate(446.174361 334.998438) scale(0.1 -0.1)">
       <defs>
        <path id="DejaVuSans-34" d="M 2419 4116 
L 825 1625 
L 2419 1625 
L 2419 4116 
z
M 2253 4666 
L 3047 4666 
L 3047 1625 
L 3713 1625 
L 3713 1100 
L 3047 1100 
L 3047 0 
L 2419 0 
L 2419 1100 
L 313 1100 
L 313 1709 
L 2253 4666 
z
" transform="scale(0.015625)"/>
       </defs>
       <use xlink:href="#DejaVuSans-2212"/>
       <use xlink:href="#DejaVuSans-34" x="83.789062"/>
      </g>
     </g>
    </g>
    <g id="xtick_5">
     <g id="line2d_5">
      <g>
       <use xlink:href="#m83fecc4af9" x="570.159875" y="320.4" style="stroke: #000000; stroke-width: 0.8"/>
      </g>
     </g>
     <g id="text_5">
      <!-- −2 -->
      <g transform="translate(562.788781 334.998438) scale(0.1 -0.1)">
       <defs>
        <path id="DejaVuSans-32" d="M 1228 531 
L 3431 531 
L 3431 0 
L 469 0 
L 469 531 
Q 828 903 1448 1529 
Q 2069 2156 2228 2338 
Q 2531 2678 2651 2914 
Q 2772 3150 2772 3378 
Q 2772 3750 2511 3984 
Q 2250 4219 1831 4219 
Q 1534 4219 1204 4116 
Q 875 4013 500 3803 
L 500 4441 
Q 881 4594 1212 4672 
Q 1544 4750 1819 4750 
Q 2544 4750 2975 4387 
Q 3406 4025 3406 3419 
Q 3406 3131 3298 2873 
Q 3191 2616 2906 2266 
Q 2828 2175 2409 1742 
Q 1991 1309 1228 531 
z
" transform="scale(0.015625)"/>
       </defs>
       <use xlink:href="#DejaVuSans-2212"/>
       <use xlink:href="#DejaVuSans-32" x="83.789062"/>
      </g>
     </g>
    </g>
    <g id="text_6">
     <!-- 6y2f score -->
     <g transform="translate(327.23375 353.235625) scale(0.16 -0.16)">
      <defs>
       <path id="DejaVuSans-79" d="M 2059 -325 
Q 1816 -950 1584 -1140 
Q 1353 -1331 966 -1331 
L 506 -1331 
L 506 -850 
L 844 -850 
Q 1081 -850 1212 -737 
Q 1344 -625 1503 -206 
L 1606 56 
L 191 3500 
L 800 3500 
L 1894 763 
L 2988 3500 
L 3597 3500 
L 2059 -325 
z
" transform="scale(0.015625)"/>
       <path id="DejaVuSans-66" d="M 2375 4863 
L 2375 4384 
L 1825 4384 
Q 1516 4384 1395 4259 
Q 1275 4134 1275 3809 
L 1275 3500 
L 2222 3500 
L 2222 3053 
L 1275 3053 
L 1275 0 
L 697 0 
L 697 3053 
L 147 3053 
L 147 3500 
L 697 3500 
L 697 3744 
Q 697 4328 969 4595 
Q 1241 4863 1831 4863 
L 2375 4863 
z
" transform="scale(0.015625)"/>
       <path id="DejaVuSans-20" transform="scale(0.015625)"/>
       <path id="DejaVuSans-73" d="M 2834 3397 
L 2834 2853 
Q 2591 2978 2328 3040 
Q 2066 3103 1784 3103 
Q 1356 3103 1142 2972 
Q 928 2841 928 2578 
Q 928 2378 1081 2264 
Q 1234 2150 1697 2047 
L 1894 2003 
Q 2506 1872 2764 1633 
Q 3022 1394 3022 966 
Q 3022 478 2636 193 
Q 2250 -91 1575 -91 
Q 1294 -91 989 -36 
Q 684 19 347 128 
L 347 722 
Q 666 556 975 473 
Q 1284 391 1588 391 
Q 1994 391 2212 530 
Q 2431 669 2431 922 
Q 2431 1156 2273 1281 
Q 2116 1406 1581 1522 
L 1381 1569 
Q 847 1681 609 1914 
Q 372 2147 372 2553 
Q 372 3047 722 3315 
Q 1072 3584 1716 3584 
Q 2034 3584 2315 3537 
Q 2597 3491 2834 3397 
z
" transform="scale(0.015625)"/>
       <path id="DejaVuSans-63" d="M 3122 3366 
L 3122 2828 
Q 2878 2963 2633 3030 
Q 2388 3097 2138 3097 
Q 1578 3097 1268 2742 
Q 959 2388 959 1747 
Q 959 1106 1268 751 
Q 1578 397 2138 397 
Q 2388 397 2633 464 
Q 2878 531 3122 666 
L 3122 134 
Q 2881 22 2623 -34 
Q 2366 -91 2075 -91 
Q 1284 -91 818 406 
Q 353 903 353 1747 
Q 353 2603 823 3093 
Q 1294 3584 2113 3584 
Q 2378 3584 2631 3529 
Q 2884 3475 3122 3366 
z
" transform="scale(0.015625)"/>
       <path id="DejaVuSans-6f" d="M 1959 3097 
Q 1497 3097 1228 2736 
Q 959 2375 959 1747 
Q 959 1119 1226 758 
Q 1494 397 1959 397 
Q 2419 397 2687 759 
Q 2956 1122 2956 1747 
Q 2956 2369 2687 2733 
Q 2419 3097 1959 3097 
z
M 1959 3584 
Q 2709 3584 3137 3096 
Q 3566 2609 3566 1747 
Q 3566 888 3137 398 
Q 2709 -91 1959 -91 
Q 1206 -91 779 398 
Q 353 888 353 1747 
Q 353 2609 779 3096 
Q 1206 3584 1959 3584 
z
" transform="scale(0.015625)"/>
       <path id="DejaVuSans-72" d="M 2631 2963 
Q 2534 3019 2420 3045 
Q 2306 3072 2169 3072 
Q 1681 3072 1420 2755 
Q 1159 2438 1159 1844 
L 1159 0 
L 581 0 
L 581 3500 
L 1159 3500 
L 1159 2956 
Q 1341 3275 1631 3429 
Q 1922 3584 2338 3584 
Q 2397 3584 2469 3576 
Q 2541 3569 2628 3553 
L 2631 2963 
z
" transform="scale(0.015625)"/>
       <path id="DejaVuSans-65" d="M 3597 1894 
L 3597 1613 
L 953 1613 
Q 991 1019 1311 708 
Q 1631 397 2203 397 
Q 2534 397 2845 478 
Q 3156 559 3463 722 
L 3463 178 
Q 3153 47 2828 -22 
Q 2503 -91 2169 -91 
Q 1331 -91 842 396 
Q 353 884 353 1716 
Q 353 2575 817 3079 
Q 1281 3584 2069 3584 
Q 2775 3584 3186 3129 
Q 3597 2675 3597 1894 
z
M 3022 2063 
Q 3016 2534 2758 2815 
Q 2500 3097 2075 3097 
Q 1594 3097 1305 2825 
Q 1016 2553 972 2059 
L 3022 2063 
z
" transform="scale(0.015625)"/>
      </defs>
      <use xlink:href="#DejaVuSans-36"/>
      <use xlink:href="#DejaVuSans-79" x="63.623047"/>
      <use xlink:href="#DejaVuSans-32" x="122.802734"/>
      <use xlink:href="#DejaVuSans-66" x="186.425781"/>
      <use xlink:href="#DejaVuSans-20" x="221.630859"/>
      <use xlink:href="#DejaVuSans-73" x="253.417969"/>
      <use xlink:href="#DejaVuSans-63" x="305.517578"/>
      <use xlink:href="#DejaVuSans-6f" x="360.498047"/>
      <use xlink:href="#DejaVuSans-72" x="421.679688"/>
      <use xlink:href="#DejaVuSans-65" x="460.542969"/>
     </g>
    </g>
   </g>
   <g id="matplotlib.axis_2">
    <g id="ytick_1">
     <g id="line2d_6">
      <defs>
       <path id="m69b8ff2d54" d="M 0 0 
L -3.5 0 
" style="stroke: #000000; stroke-width: 0.8"/>
      </defs>
      <g>
       <use xlink:href="#m69b8ff2d54" x="90" y="320.4" style="stroke: #000000; stroke-width: 0.8"/>
      </g>
     </g>
     <g id="text_7">
      <!-- 0.0 -->
      <g transform="translate(67.096875 324.199219) scale(0.1 -0.1)">
       <defs>
        <path id="DejaVuSans-2e" d="M 684 794 
L 1344 794 
L 1344 0 
L 684 0 
L 684 794 
z
" transform="scale(0.015625)"/>
       </defs>
       <use xlink:href="#DejaVuSans-30"/>
       <use xlink:href="#DejaVuSans-2e" x="63.623047"/>
       <use xlink:href="#DejaVuSans-30" x="95.410156"/>
      </g>
     </g>
    </g>
    <g id="ytick_2">
     <g id="line2d_7">
      <g>
       <use xlink:href="#m69b8ff2d54" x="90" y="284.373509" style="stroke: #000000; stroke-width: 0.8"/>
      </g>
     </g>
     <g id="text_8">
      <!-- 0.1 -->
      <g transform="translate(67.096875 288.172727) scale(0.1 -0.1)">
       <use xlink:href="#DejaVuSans-30"/>
       <use xlink:href="#DejaVuSans-2e" x="63.623047"/>
       <use xlink:href="#DejaVuSans-31" x="95.410156"/>
      </g>
     </g>
    </g>
    <g id="ytick_3">
     <g id="line2d_8">
      <g>
       <use xlink:href="#m69b8ff2d54" x="90" y="248.347017" style="stroke: #000000; stroke-width: 0.8"/>
      </g>
     </g>
     <g id="text_9">
      <!-- 0.2 -->
      <g transform="translate(67.096875 252.146236) scale(0.1 -0.1)">
       <use xlink:href="#DejaVuSans-30"/>
       <use xlink:href="#DejaVuSans-2e" x="63.623047"/>
       <use xlink:href="#DejaVuSans-32" x="95.410156"/>
      </g>
     </g>
    </g>
    <g id="ytick_4">
     <g id="line2d_9">
      <g>
       <use xlink:href="#m69b8ff2d54" x="90" y="212.320526" style="stroke: #000000; stroke-width: 0.8"/>
      </g>
     </g>
     <g id="text_10">
      <!-- 0.3 -->
      <g transform="translate(67.096875 216.119745) scale(0.1 -0.1)">
       <defs>
        <path id="DejaVuSans-33" d="M 2597 2516 
Q 3050 2419 3304 2112 
Q 3559 1806 3559 1356 
Q 3559 666 3084 287 
Q 2609 -91 1734 -91 
Q 1441 -91 1130 -33 
Q 819 25 488 141 
L 488 750 
Q 750 597 1062 519 
Q 1375 441 1716 441 
Q 2309 441 2620 675 
Q 2931 909 2931 1356 
Q 2931 1769 2642 2001 
Q 2353 2234 1838 2234 
L 1294 2234 
L 1294 2753 
L 1863 2753 
Q 2328 2753 2575 2939 
Q 2822 3125 2822 3475 
Q 2822 3834 2567 4026 
Q 2313 4219 1838 4219 
Q 1578 4219 1281 4162 
Q 984 4106 628 3988 
L 628 4550 
Q 988 4650 1302 4700 
Q 1616 4750 1894 4750 
Q 2613 4750 3031 4423 
Q 3450 4097 3450 3541 
Q 3450 3153 3228 2886 
Q 3006 2619 2597 2516 
z
" transform="scale(0.015625)"/>
       </defs>
       <use xlink:href="#DejaVuSans-30"/>
       <use xlink:href="#DejaVuSans-2e" x="63.623047"/>
       <use xlink:href="#DejaVuSans-33" x="95.410156"/>
      </g>
     </g>
    </g>
    <g id="ytick_5">
     <g id="line2d_10">
      <g>
       <use xlink:href="#m69b8ff2d54" x="90" y="176.294035" style="stroke: #000000; stroke-width: 0.8"/>
      </g>
     </g>
     <g id="text_11">
      <!-- 0.4 -->
      <g transform="translate(67.096875 180.093254) scale(0.1 -0.1)">
       <use xlink:href="#DejaVuSans-30"/>
       <use xlink:href="#DejaVuSans-2e" x="63.623047"/>
       <use xlink:href="#DejaVuSans-34" x="95.410156"/>
      </g>
     </g>
    </g>
    <g id="ytick_6">
     <g id="line2d_11">
      <g>
       <use xlink:href="#m69b8ff2d54" x="90" y="140.267544" style="stroke: #000000; stroke-width: 0.8"/>
      </g>
     </g>
     <g id="text_12">
      <!-- 0.5 -->
      <g transform="translate(67.096875 144.066762) scale(0.1 -0.1)">
       <defs>
        <path id="DejaVuSans-35" d="M 691 4666 
L 3169 4666 
L 3169 4134 
L 1269 4134 
L 1269 2991 
Q 1406 3038 1543 3061 
Q 1681 3084 1819 3084 
Q 2600 3084 3056 2656 
Q 3513 2228 3513 1497 
Q 3513 744 3044 326 
Q 2575 -91 1722 -91 
Q 1428 -91 1123 -41 
Q 819 9 494 109 
L 494 744 
Q 775 591 1075 516 
Q 1375 441 1709 441 
Q 2250 441 2565 725 
Q 2881 1009 2881 1497 
Q 2881 1984 2565 2268 
Q 2250 2553 1709 2553 
Q 1456 2553 1204 2497 
Q 953 2441 691 2322 
L 691 4666 
z
" transform="scale(0.015625)"/>
       </defs>
       <use xlink:href="#DejaVuSans-30"/>
       <use xlink:href="#DejaVuSans-2e" x="63.623047"/>
       <use xlink:href="#DejaVuSans-35" x="95.410156"/>
      </g>
     </g>
    </g>
    <g id="ytick_7">
     <g id="line2d_12">
      <g>
       <use xlink:href="#m69b8ff2d54" x="90" y="104.241052" style="stroke: #000000; stroke-width: 0.8"/>
      </g>
     </g>
     <g id="text_13">
      <!-- 0.6 -->
      <g transform="translate(67.096875 108.040271) scale(0.1 -0.1)">
       <use xlink:href="#DejaVuSans-30"/>
       <use xlink:href="#DejaVuSans-2e" x="63.623047"/>
       <use xlink:href="#DejaVuSans-36" x="95.410156"/>
      </g>
     </g>
    </g>
    <g id="ytick_8">
     <g id="line2d_13">
      <g>
       <use xlink:href="#m69b8ff2d54" x="90" y="68.214561" style="stroke: #000000; stroke-width: 0.8"/>
      </g>
     </g>
     <g id="text_14">
      <!-- 0.7 -->
      <g transform="translate(67.096875 72.01378) scale(0.1 -0.1)">
       <defs>
        <path id="DejaVuSans-37" d="M 525 4666 
L 3525 4666 
L 3525 4397 
L 1831 0 
L 1172 0 
L 2766 4134 
L 525 4134 
L 525 4666 
z
" transform="scale(0.015625)"/>
       </defs>
       <use xlink:href="#DejaVuSans-30"/>
       <use xlink:href="#DejaVuSans-2e" x="63.623047"/>
       <use xlink:href="#DejaVuSans-37" x="95.410156"/>
      </g>
     </g>
    </g>
    <g id="text_15">
     <!-- Relative frequency -->
     <g transform="translate(59.769375 256.7275) rotate(-90) scale(0.16 -0.16)">
      <defs>
       <path id="DejaVuSans-52" d="M 2841 2188 
Q 3044 2119 3236 1894 
Q 3428 1669 3622 1275 
L 4263 0 
L 3584 0 
L 2988 1197 
Q 2756 1666 2539 1819 
Q 2322 1972 1947 1972 
L 1259 1972 
L 1259 0 
L 628 0 
L 628 4666 
L 2053 4666 
Q 2853 4666 3247 4331 
Q 3641 3997 3641 3322 
Q 3641 2881 3436 2590 
Q 3231 2300 2841 2188 
z
M 1259 4147 
L 1259 2491 
L 2053 2491 
Q 2509 2491 2742 2702 
Q 2975 2913 2975 3322 
Q 2975 3731 2742 3939 
Q 2509 4147 2053 4147 
L 1259 4147 
z
" transform="scale(0.015625)"/>
       <path id="DejaVuSans-6c" d="M 603 4863 
L 1178 4863 
L 1178 0 
L 603 0 
L 603 4863 
z
" transform="scale(0.015625)"/>
       <path id="DejaVuSans-61" d="M 2194 1759 
Q 1497 1759 1228 1600 
Q 959 1441 959 1056 
Q 959 750 1161 570 
Q 1363 391 1709 391 
Q 2188 391 2477 730 
Q 2766 1069 2766 1631 
L 2766 1759 
L 2194 1759 
z
M 3341 1997 
L 3341 0 
L 2766 0 
L 2766 531 
Q 2569 213 2275 61 
Q 1981 -91 1556 -91 
Q 1019 -91 701 211 
Q 384 513 384 1019 
Q 384 1609 779 1909 
Q 1175 2209 1959 2209 
L 2766 2209 
L 2766 2266 
Q 2766 2663 2505 2880 
Q 2244 3097 1772 3097 
Q 1472 3097 1187 3025 
Q 903 2953 641 2809 
L 641 3341 
Q 956 3463 1253 3523 
Q 1550 3584 1831 3584 
Q 2591 3584 2966 3190 
Q 3341 2797 3341 1997 
z
" transform="scale(0.015625)"/>
       <path id="DejaVuSans-74" d="M 1172 4494 
L 1172 3500 
L 2356 3500 
L 2356 3053 
L 1172 3053 
L 1172 1153 
Q 1172 725 1289 603 
Q 1406 481 1766 481 
L 2356 481 
L 2356 0 
L 1766 0 
Q 1100 0 847 248 
Q 594 497 594 1153 
L 594 3053 
L 172 3053 
L 172 3500 
L 594 3500 
L 594 4494 
L 1172 4494 
z
" transform="scale(0.015625)"/>
       <path id="DejaVuSans-69" d="M 603 3500 
L 1178 3500 
L 1178 0 
L 603 0 
L 603 3500 
z
M 603 4863 
L 1178 4863 
L 1178 4134 
L 603 4134 
L 603 4863 
z
" transform="scale(0.015625)"/>
       <path id="DejaVuSans-76" d="M 191 3500 
L 800 3500 
L 1894 563 
L 2988 3500 
L 3597 3500 
L 2284 0 
L 1503 0 
L 191 3500 
z
" transform="scale(0.015625)"/>
       <path id="DejaVuSans-71" d="M 947 1747 
Q 947 1113 1208 752 
Q 1469 391 1925 391 
Q 2381 391 2643 752 
Q 2906 1113 2906 1747 
Q 2906 2381 2643 2742 
Q 2381 3103 1925 3103 
Q 1469 3103 1208 2742 
Q 947 2381 947 1747 
z
M 2906 525 
Q 2725 213 2448 61 
Q 2172 -91 1784 -91 
Q 1150 -91 751 415 
Q 353 922 353 1747 
Q 353 2572 751 3078 
Q 1150 3584 1784 3584 
Q 2172 3584 2448 3432 
Q 2725 3281 2906 2969 
L 2906 3500 
L 3481 3500 
L 3481 -1331 
L 2906 -1331 
L 2906 525 
z
" transform="scale(0.015625)"/>
       <path id="DejaVuSans-75" d="M 544 1381 
L 544 3500 
L 1119 3500 
L 1119 1403 
Q 1119 906 1312 657 
Q 1506 409 1894 409 
Q 2359 409 2629 706 
Q 2900 1003 2900 1516 
L 2900 3500 
L 3475 3500 
L 3475 0 
L 2900 0 
L 2900 538 
Q 2691 219 2414 64 
Q 2138 -91 1772 -91 
Q 1169 -91 856 284 
Q 544 659 544 1381 
z
M 1991 3584 
L 1991 3584 
z
" transform="scale(0.015625)"/>
       <path id="DejaVuSans-6e" d="M 3513 2113 
L 3513 0 
L 2938 0 
L 2938 2094 
Q 2938 2591 2744 2837 
Q 2550 3084 2163 3084 
Q 1697 3084 1428 2787 
Q 1159 2491 1159 1978 
L 1159 0 
L 581 0 
L 581 3500 
L 1159 3500 
L 1159 2956 
Q 1366 3272 1645 3428 
Q 1925 3584 2291 3584 
Q 2894 3584 3203 3211 
Q 3513 2838 3513 2113 
z
" transform="scale(0.015625)"/>
      </defs>
      <use xlink:href="#DejaVuSans-52"/>
      <use xlink:href="#DejaVuSans-65" x="64.982422"/>
      <use xlink:href="#DejaVuSans-6c" x="126.505859"/>
      <use xlink:href="#DejaVuSans-61" x="154.289062"/>
      <use xlink:href="#DejaVuSans-74" x="215.568359"/>
      <use xlink:href="#DejaVuSans-69" x="254.777344"/>
      <use xlink:href="#DejaVuSans-76" x="282.560547"/>
      <use xlink:href="#DejaVuSans-65" x="341.740234"/>
      <use xlink:href="#DejaVuSans-20" x="403.263672"/>
      <use xlink:href="#DejaVuSans-66" x="435.050781"/>
      <use xlink:href="#DejaVuSans-72" x="470.255859"/>
      <use xlink:href="#DejaVuSans-65" x="509.119141"/>
      <use xlink:href="#DejaVuSans-71" x="570.642578"/>
      <use xlink:href="#DejaVuSans-75" x="634.119141"/>
      <use xlink:href="#DejaVuSans-65" x="697.498047"/>
      <use xlink:href="#DejaVuSans-6e" x="759.021484"/>
      <use xlink:href="#DejaVuSans-63" x="822.400391"/>
      <use xlink:href="#DejaVuSans-79" x="877.380859"/>
     </g>
    </g>
   </g>
   <g id="line2d_14">
    <path d="M 290.285266 320.4 
L 290.285266 56.4 
" clip-path="url(#pf295e8ce7a)" style="fill: none; stroke: #ff0000; stroke-width: 1.6; stroke-linecap: square"/>
   </g>
   <g id="patch_169">
    <path d="M 90 320.4 
L 90 43.2 
" style="fill: none; stroke: #000000; stroke-width: 0.8; stroke-linejoin: miter; stroke-linecap: square"/>
   </g>
   <g id="patch_170">
    <path d="M 648 320.4 
L 648 43.2 
" style="fill: none; stroke: #000000; stroke-width: 0.8; stroke-linejoin: miter; stroke-linecap: square"/>
   </g>
   <g id="patch_171">
    <path d="M 90 320.4 
L 648 320.4 
" style="fill: none; stroke: #000000; stroke-width: 0.8; stroke-linejoin: miter; stroke-linecap: square"/>
   </g>
   <g id="patch_172">
    <path d="M 90 43.2 
L 648 43.2 
" style="fill: none; stroke: #000000; stroke-width: 0.8; stroke-linejoin: miter; stroke-linecap: square"/>
   </g>
   <g id="text_16">
    <!-- $\mu_3 = -5.528$ -->
    <g transform="translate(480.6 77.325562) scale(0.19 -0.19)">
     <defs>
      <path id="DejaVuSans-Oblique-3bc" d="M -84 -1331 
L 856 3500 
L 1434 3500 
L 1009 1322 
Q 997 1256 987 1175 
Q 978 1094 978 1013 
Q 978 722 1161 565 
Q 1344 409 1684 409 
Q 2147 409 2431 671 
Q 2716 934 2816 1459 
L 3213 3500 
L 3788 3500 
L 3266 809 
Q 3253 750 3248 706 
Q 3244 663 3244 628 
Q 3244 531 3283 486 
Q 3322 441 3406 441 
Q 3438 441 3492 456 
Q 3547 472 3647 513 
L 3559 50 
Q 3422 -19 3297 -55 
Q 3172 -91 3053 -91 
Q 2847 -91 2730 40 
Q 2613 172 2613 403 
Q 2438 153 2195 31 
Q 1953 -91 1625 -91 
Q 1334 -91 1117 43 
Q 900 178 831 397 
L 494 -1331 
L -84 -1331 
z
" transform="scale(0.015625)"/>
      <path id="DejaVuSans-3d" d="M 678 2906 
L 4684 2906 
L 4684 2381 
L 678 2381 
L 678 2906 
z
M 678 1631 
L 4684 1631 
L 4684 1100 
L 678 1100 
L 678 1631 
z
" transform="scale(0.015625)"/>
     </defs>
     <use xlink:href="#DejaVuSans-Oblique-3bc" transform="translate(0 0.78125)"/>
     <use xlink:href="#DejaVuSans-33" transform="translate(63.623047 -15.625) scale(0.7)"/>
     <use xlink:href="#DejaVuSans-3d" transform="translate(130.375977 0.78125)"/>
     <use xlink:href="#DejaVuSans-2212" transform="translate(253.129883 0.78125)"/>
     <use xlink:href="#DejaVuSans-35" transform="translate(356.401367 0.78125)"/>
     <use xlink:href="#DejaVuSans-2e" transform="translate(420.024414 0.78125)"/>
     <use xlink:href="#DejaVuSans-35" transform="translate(451.811523 0.78125)"/>
     <use xlink:href="#DejaVuSans-32" transform="translate(515.43457 0.78125)"/>
     <use xlink:href="#DejaVuSans-38" transform="translate(579.057617 0.78125)"/>
    </g>
    <!-- $\sigma_3 = 0.997$ -->
    <g transform="translate(480.6 98.64) scale(0.19 -0.19)">
     <defs>
      <path id="DejaVuSans-Oblique-3c3" d="M 2219 3044 
Q 1744 3044 1422 2700 
Q 1081 2341 969 1747 
Q 844 1119 1044 756 
Q 1241 397 1706 397 
Q 2166 397 2503 759 
Q 2844 1122 2966 1747 
Q 3075 2319 2881 2700 
Q 2700 3044 2219 3044 
z
M 2309 3503 
L 4219 3500 
L 4106 2925 
L 3463 2925 
Q 3706 2438 3575 1747 
Q 3406 888 2884 400 
Q 2359 -91 1609 -91 
Q 856 -91 525 400 
Q 194 888 363 1747 
Q 528 2609 1050 3097 
Q 1484 3503 2309 3503 
z
" transform="scale(0.015625)"/>
      <path id="DejaVuSans-39" d="M 703 97 
L 703 672 
Q 941 559 1184 500 
Q 1428 441 1663 441 
Q 2288 441 2617 861 
Q 2947 1281 2994 2138 
Q 2813 1869 2534 1725 
Q 2256 1581 1919 1581 
Q 1219 1581 811 2004 
Q 403 2428 403 3163 
Q 403 3881 828 4315 
Q 1253 4750 1959 4750 
Q 2769 4750 3195 4129 
Q 3622 3509 3622 2328 
Q 3622 1225 3098 567 
Q 2575 -91 1691 -91 
Q 1453 -91 1209 -44 
Q 966 3 703 97 
z
M 1959 2075 
Q 2384 2075 2632 2365 
Q 2881 2656 2881 3163 
Q 2881 3666 2632 3958 
Q 2384 4250 1959 4250 
Q 1534 4250 1286 3958 
Q 1038 3666 1038 3163 
Q 1038 2656 1286 2365 
Q 1534 2075 1959 2075 
z
" transform="scale(0.015625)"/>
     </defs>
     <use xlink:href="#DejaVuSans-Oblique-3c3" transform="translate(0 0.78125)"/>
     <use xlink:href="#DejaVuSans-33" transform="translate(63.378906 -15.625) scale(0.7)"/>
     <use xlink:href="#DejaVuSans-3d" transform="translate(130.131836 0.78125)"/>
     <use xlink:href="#DejaVuSans-30" transform="translate(233.40332 0.78125)"/>
     <use xlink:href="#DejaVuSans-2e" transform="translate(297.026367 0.78125)"/>
     <use xlink:href="#DejaVuSans-39" transform="translate(328.813477 0.78125)"/>
     <use xlink:href="#DejaVuSans-39" transform="translate(392.436523 0.78125)"/>
     <use xlink:href="#DejaVuSans-37" transform="translate(456.05957 0.78125)"/>
    </g>
   </g>
   <g id="text_17">
    <!-- Distribution of 6y2f score -->
    <g transform="translate(255.113438 37.2) scale(0.18 -0.18)">
     <defs>
      <path id="DejaVuSans-44" d="M 1259 4147 
L 1259 519 
L 2022 519 
Q 2988 519 3436 956 
Q 3884 1394 3884 2338 
Q 3884 3275 3436 3711 
Q 2988 4147 2022 4147 
L 1259 4147 
z
M 628 4666 
L 1925 4666 
Q 3281 4666 3915 4102 
Q 4550 3538 4550 2338 
Q 4550 1131 3912 565 
Q 3275 0 1925 0 
L 628 0 
L 628 4666 
z
" transform="scale(0.015625)"/>
      <path id="DejaVuSans-62" d="M 3116 1747 
Q 3116 2381 2855 2742 
Q 2594 3103 2138 3103 
Q 1681 3103 1420 2742 
Q 1159 2381 1159 1747 
Q 1159 1113 1420 752 
Q 1681 391 2138 391 
Q 2594 391 2855 752 
Q 3116 1113 3116 1747 
z
M 1159 2969 
Q 1341 3281 1617 3432 
Q 1894 3584 2278 3584 
Q 2916 3584 3314 3078 
Q 3713 2572 3713 1747 
Q 3713 922 3314 415 
Q 2916 -91 2278 -91 
Q 1894 -91 1617 61 
Q 1341 213 1159 525 
L 1159 0 
L 581 0 
L 581 4863 
L 1159 4863 
L 1159 2969 
z
" transform="scale(0.015625)"/>
     </defs>
     <use xlink:href="#DejaVuSans-44"/>
     <use xlink:href="#DejaVuSans-69" x="77.001953"/>
     <use xlink:href="#DejaVuSans-73" x="104.785156"/>
     <use xlink:href="#DejaVuSans-74" x="156.884766"/>
     <use xlink:href="#DejaVuSans-72" x="196.09375"/>
     <use xlink:href="#DejaVuSans-69" x="237.207031"/>
     <use xlink:href="#DejaVuSans-62" x="264.990234"/>
     <use xlink:href="#DejaVuSans-75" x="328.466797"/>
     <use xlink:href="#DejaVuSans-74" x="391.845703"/>
     <use xlink:href="#DejaVuSans-69" x="431.054688"/>
     <use xlink:href="#DejaVuSans-6f" x="458.837891"/>
     <use xlink:href="#DejaVuSans-6e" x="520.019531"/>
     <use xlink:href="#DejaVuSans-20" x="583.398438"/>
     <use xlink:href="#DejaVuSans-6f" x="615.185547"/>
     <use xlink:href="#DejaVuSans-66" x="676.367188"/>
     <use xlink:href="#DejaVuSans-20" x="711.572266"/>
     <use xlink:href="#DejaVuSans-36" x="743.359375"/>
     <use xlink:href="#DejaVuSans-79" x="806.982422"/>
     <use xlink:href="#DejaVuSans-32" x="866.162109"/>
     <use xlink:href="#DejaVuSans-66" x="929.785156"/>
     <use xlink:href="#DejaVuSans-20" x="964.990234"/>
     <use xlink:href="#DejaVuSans-73" x="996.777344"/>
     <use xlink:href="#DejaVuSans-63" x="1048.876953"/>
     <use xlink:href="#DejaVuSans-6f" x="1103.857422"/>
     <use xlink:href="#DejaVuSans-72" x="1165.039062"/>
     <use xlink:href="#DejaVuSans-65" x="1203.902344"/>
    </g>
   </g>
  </g>
 </g>
 <defs>
  <clipPath id="pf295e8ce7a">
   <rect x="90" y="43.2" width="558" height="277.2"/>
  </clipPath>
 </defs>
</svg>
