<?xml version="1.0" encoding="utf-8" standalone="no"?>
<!DOCTYPE svg PUBLIC "-//W3C//DTD SVG 1.1//EN"
  "http://www.w3.org/Graphics/SVG/1.1/DTD/svg11.dtd">
<svg xmlns:xlink="http://www.w3.org/1999/xlink" width="460.8pt" height="345.6pt" viewBox="0 0 460.8 345.6" xmlns="http://www.w3.org/2000/svg" version="1.1">
 <metadata>
  <rdf:RDF xmlns:dc="http://purl.org/dc/elements/1.1/" xmlns:cc="http://creativecommons.org/ns#" xmlns:rdf="http://www.w3.org/1999/02/22-rdf-syntax-ns#">
   <cc:Work>
    <dc:type rdf:resource="http://purl.org/dc/dcmitype/StillImage"/>
    <dc:date>2023-11-23T10:54:15.625746</dc:date>
    <dc:format>image/svg+xml</dc:format>
    <dc:creator>
     <cc:Agent>
      <dc:title>Matplotlib v3.7.2, https://matplotlib.org/</dc:title>
     </cc:Agent>
    </dc:creator>
   </cc:Work>
  </rdf:RDF>
 </metadata>
 <defs>
  <style type="text/css">*{stroke-linejoin: round; stroke-linecap: butt}</style>
 </defs>
 <g id="figure_1">
  <g id="patch_1">
   <path d="M 0 345.6 
L 460.8 345.6 
L 460.8 0 
L 0 0 
z
" style="fill: #ffffff"/>
  </g>
  <g id="axes_1">
   <g id="patch_2">
    <path d="M 57.6 307.584 
L 414.72 307.584 
L 414.72 41.472 
L 57.6 41.472 
z
" style="fill: #ffffff"/>
   </g>
   <g id="PolyCollection_1">
    <defs>
     <path id="ma850caf172" d="M 73.832727 -239.958386 
L 73.832727 -249.49513 
L 109.905455 -242.660263 
L 145.978182 -240.934523 
L 182.050909 -228.656738 
L 218.123636 -223.053352 
L 254.196364 -207.628453 
L 290.269091 -199.88279 
L 326.341818 -196.644118 
L 362.414545 -173.419205 
L 398.487273 -165.017377 
L 398.487273 -50.112 
L 398.487273 -50.112 
L 362.414545 -56.453262 
L 326.341818 -90.647924 
L 290.269091 -93.22967 
L 254.196364 -148.396061 
L 218.123636 -163.637086 
L 182.050909 -168.502258 
L 145.978182 -188.218733 
L 109.905455 -216.791733 
L 73.832727 -239.958386 
z
" style="stroke: #ff0000; stroke-opacity: 0.25"/>
    </defs>
    <g clip-path="url(#p780cce14b3)">
     <use xlink:href="#ma850caf172" x="0" y="345.6" style="fill: #ff0000; fill-opacity: 0.25; stroke: #ff0000; stroke-opacity: 0.25"/>
    </g>
   </g>
   <g id="PolyCollection_2">
    <defs>
     <path id="m1b026543b2" d="M 73.832727 -263.640422 
L 73.832727 -265.704669 
L 109.905455 -274.07616 
L 145.978182 -275.886084 
L 182.050909 -278.463506 
L 218.123636 -281.207688 
L 254.196364 -286.706866 
L 290.269091 -289.080536 
L 326.341818 -288.619938 
L 362.414545 -290.865231 
L 398.487273 -292.032 
L 398.487273 -283.014135 
L 398.487273 -283.014135 
L 362.414545 -279.642463 
L 326.341818 -277.66595 
L 290.269091 -278.99962 
L 254.196364 -276.201578 
L 218.123636 -272.201694 
L 182.050909 -271.357341 
L 145.978182 -269.818502 
L 109.905455 -266.14008 
L 73.832727 -263.640422 
z
" style="stroke: #ffa500; stroke-opacity: 0.25"/>
    </defs>
    <g clip-path="url(#p780cce14b3)">
     <use xlink:href="#m1b026543b2" x="0" y="345.6" style="fill: #ffa500; fill-opacity: 0.25; stroke: #ffa500; stroke-opacity: 0.25"/>
    </g>
   </g>
   <g id="PolyCollection_3">
    <defs>
     <path id="m60fb07da3f" d="M 73.832727 -240.290021 
L 73.832727 -248.984699 
L 109.905455 -240.382392 
L 145.978182 -239.442626 
L 182.050909 -238.124967 
L 218.123636 -238.402977 
L 254.196364 -235.856739 
L 290.269091 -234.117129 
L 326.341818 -235.7971 
L 362.414545 -234.345487 
L 398.487273 -237.053589 
L 398.487273 -227.325507 
L 398.487273 -227.325507 
L 362.414545 -224.529177 
L 326.341818 -228.428282 
L 290.269091 -226.471483 
L 254.196364 -228.427341 
L 218.123636 -229.408834 
L 182.050909 -228.469177 
L 145.978182 -230.14057 
L 109.905455 -231.707696 
L 73.832727 -240.290021 
z
" style="stroke: #008000; stroke-opacity: 0.25"/>
    </defs>
    <g clip-path="url(#p780cce14b3)">
     <use xlink:href="#m60fb07da3f" x="0" y="345.6" style="fill: #008000; fill-opacity: 0.25; stroke: #008000; stroke-opacity: 0.25"/>
    </g>
   </g>
   <g id="PolyCollection_4">
    <defs>
     <path id="m1e084a15e3" d="M 73.832727 -260.845489 
L 73.832727 -264.277796 
L 109.905455 -269.714751 
L 145.978182 -272.833848 
L 182.050909 -276.307956 
L 218.123636 -278.380944 
L 254.196364 -276.31736 
L 290.269091 -280.001868 
L 326.341818 -277.808493 
L 362.414545 -280.367826 
L 398.487273 -277.465527 
L 398.487273 -270.455507 
L 398.487273 -270.455507 
L 362.414545 -272.408285 
L 326.341818 -270.112541 
L 290.269091 -270.45225 
L 254.196364 -267.909595 
L 218.123636 -269.434545 
L 182.050909 -268.868905 
L 145.978182 -266.643575 
L 109.905455 -263.852145 
L 73.832727 -260.845489 
z
" style="stroke: #0000ff; stroke-opacity: 0.25"/>
    </defs>
    <g clip-path="url(#p780cce14b3)">
     <use xlink:href="#m1e084a15e3" x="0" y="345.6" style="fill: #0000ff; fill-opacity: 0.25; stroke: #0000ff; stroke-opacity: 0.25"/>
    </g>
   </g>
   <g id="matplotlib.axis_1">
    <g id="xtick_1">
     <g id="line2d_1">
      <path d="M 109.905455 307.584 
L 109.905455 41.472 
" clip-path="url(#p780cce14b3)" style="fill: none; stroke: #808080; stroke-width: 0.25; stroke-linecap: square"/>
     </g>
     <g id="line2d_2">
      <defs>
       <path id="md5d3ca2df3" d="M 0 0 
L 0 3.5 
" style="stroke: #000000; stroke-width: 0.8"/>
      </defs>
      <g>
       <use xlink:href="#md5d3ca2df3" x="109.905455" y="307.584" style="stroke: #000000; stroke-width: 0.8"/>
      </g>
     </g>
     <g id="text_1">
      <!-- 2 -->
      <g transform="translate(106.724205 322.182437) scale(0.1 -0.1)">
       <defs>
        <path id="DejaVuSans-32" d="M 1228 531 
L 3431 531 
L 3431 0 
L 469 0 
L 469 531 
Q 828 903 1448 1529 
Q 2069 2156 2228 2338 
Q 2531 2678 2651 2914 
Q 2772 3150 2772 3378 
Q 2772 3750 2511 3984 
Q 2250 4219 1831 4219 
Q 1534 4219 1204 4116 
Q 875 4013 500 3803 
L 500 4441 
Q 881 4594 1212 4672 
Q 1544 4750 1819 4750 
Q 2544 4750 2975 4387 
Q 3406 4025 3406 3419 
Q 3406 3131 3298 2873 
Q 3191 2616 2906 2266 
Q 2828 2175 2409 1742 
Q 1991 1309 1228 531 
z
" transform="scale(0.015625)"/>
       </defs>
       <use xlink:href="#DejaVuSans-32"/>
      </g>
     </g>
    </g>
    <g id="xtick_2">
     <g id="line2d_3">
      <path d="M 182.050909 307.584 
L 182.050909 41.472 
" clip-path="url(#p780cce14b3)" style="fill: none; stroke: #808080; stroke-width: 0.25; stroke-linecap: square"/>
     </g>
     <g id="line2d_4">
      <g>
       <use xlink:href="#md5d3ca2df3" x="182.050909" y="307.584" style="stroke: #000000; stroke-width: 0.8"/>
      </g>
     </g>
     <g id="text_2">
      <!-- 4 -->
      <g transform="translate(178.869659 322.182437) scale(0.1 -0.1)">
       <defs>
        <path id="DejaVuSans-34" d="M 2419 4116 
L 825 1625 
L 2419 1625 
L 2419 4116 
z
M 2253 4666 
L 3047 4666 
L 3047 1625 
L 3713 1625 
L 3713 1100 
L 3047 1100 
L 3047 0 
L 2419 0 
L 2419 1100 
L 313 1100 
L 313 1709 
L 2253 4666 
z
" transform="scale(0.015625)"/>
       </defs>
       <use xlink:href="#DejaVuSans-34"/>
      </g>
     </g>
    </g>
    <g id="xtick_3">
     <g id="line2d_5">
      <path d="M 254.196364 307.584 
L 254.196364 41.472 
" clip-path="url(#p780cce14b3)" style="fill: none; stroke: #808080; stroke-width: 0.25; stroke-linecap: square"/>
     </g>
     <g id="line2d_6">
      <g>
       <use xlink:href="#md5d3ca2df3" x="254.196364" y="307.584" style="stroke: #000000; stroke-width: 0.8"/>
      </g>
     </g>
     <g id="text_3">
      <!-- 6 -->
      <g transform="translate(251.015114 322.182437) scale(0.1 -0.1)">
       <defs>
        <path id="DejaVuSans-36" d="M 2113 2584 
Q 1688 2584 1439 2293 
Q 1191 2003 1191 1497 
Q 1191 994 1439 701 
Q 1688 409 2113 409 
Q 2538 409 2786 701 
Q 3034 994 3034 1497 
Q 3034 2003 2786 2293 
Q 2538 2584 2113 2584 
z
M 3366 4563 
L 3366 3988 
Q 3128 4100 2886 4159 
Q 2644 4219 2406 4219 
Q 1781 4219 1451 3797 
Q 1122 3375 1075 2522 
Q 1259 2794 1537 2939 
Q 1816 3084 2150 3084 
Q 2853 3084 3261 2657 
Q 3669 2231 3669 1497 
Q 3669 778 3244 343 
Q 2819 -91 2113 -91 
Q 1303 -91 875 529 
Q 447 1150 447 2328 
Q 447 3434 972 4092 
Q 1497 4750 2381 4750 
Q 2619 4750 2861 4703 
Q 3103 4656 3366 4563 
z
" transform="scale(0.015625)"/>
       </defs>
       <use xlink:href="#DejaVuSans-36"/>
      </g>
     </g>
    </g>
    <g id="xtick_4">
     <g id="line2d_7">
      <path d="M 326.341818 307.584 
L 326.341818 41.472 
" clip-path="url(#p780cce14b3)" style="fill: none; stroke: #808080; stroke-width: 0.25; stroke-linecap: square"/>
     </g>
     <g id="line2d_8">
      <g>
       <use xlink:href="#md5d3ca2df3" x="326.341818" y="307.584" style="stroke: #000000; stroke-width: 0.8"/>
      </g>
     </g>
     <g id="text_4">
      <!-- 8 -->
      <g transform="translate(323.160568 322.182437) scale(0.1 -0.1)">
       <defs>
        <path id="DejaVuSans-38" d="M 2034 2216 
Q 1584 2216 1326 1975 
Q 1069 1734 1069 1313 
Q 1069 891 1326 650 
Q 1584 409 2034 409 
Q 2484 409 2743 651 
Q 3003 894 3003 1313 
Q 3003 1734 2745 1975 
Q 2488 2216 2034 2216 
z
M 1403 2484 
Q 997 2584 770 2862 
Q 544 3141 544 3541 
Q 544 4100 942 4425 
Q 1341 4750 2034 4750 
Q 2731 4750 3128 4425 
Q 3525 4100 3525 3541 
Q 3525 3141 3298 2862 
Q 3072 2584 2669 2484 
Q 3125 2378 3379 2068 
Q 3634 1759 3634 1313 
Q 3634 634 3220 271 
Q 2806 -91 2034 -91 
Q 1263 -91 848 271 
Q 434 634 434 1313 
Q 434 1759 690 2068 
Q 947 2378 1403 2484 
z
M 1172 3481 
Q 1172 3119 1398 2916 
Q 1625 2713 2034 2713 
Q 2441 2713 2670 2916 
Q 2900 3119 2900 3481 
Q 2900 3844 2670 4047 
Q 2441 4250 2034 4250 
Q 1625 4250 1398 4047 
Q 1172 3844 1172 3481 
z
" transform="scale(0.015625)"/>
       </defs>
       <use xlink:href="#DejaVuSans-38"/>
      </g>
     </g>
    </g>
    <g id="xtick_5">
     <g id="line2d_9">
      <path d="M 398.487273 307.584 
L 398.487273 41.472 
" clip-path="url(#p780cce14b3)" style="fill: none; stroke: #808080; stroke-width: 0.25; stroke-linecap: square"/>
     </g>
     <g id="line2d_10">
      <g>
       <use xlink:href="#md5d3ca2df3" x="398.487273" y="307.584" style="stroke: #000000; stroke-width: 0.8"/>
      </g>
     </g>
     <g id="text_5">
      <!-- 10 -->
      <g transform="translate(392.124773 322.182437) scale(0.1 -0.1)">
       <defs>
        <path id="DejaVuSans-31" d="M 794 531 
L 1825 531 
L 1825 4091 
L 703 3866 
L 703 4441 
L 1819 4666 
L 2450 4666 
L 2450 531 
L 3481 531 
L 3481 0 
L 794 0 
L 794 531 
z
" transform="scale(0.015625)"/>
        <path id="DejaVuSans-30" d="M 2034 4250 
Q 1547 4250 1301 3770 
Q 1056 3291 1056 2328 
Q 1056 1369 1301 889 
Q 1547 409 2034 409 
Q 2525 409 2770 889 
Q 3016 1369 3016 2328 
Q 3016 3291 2770 3770 
Q 2525 4250 2034 4250 
z
M 2034 4750 
Q 2819 4750 3233 4129 
Q 3647 3509 3647 2328 
Q 3647 1150 3233 529 
Q 2819 -91 2034 -91 
Q 1250 -91 836 529 
Q 422 1150 422 2328 
Q 422 3509 836 4129 
Q 1250 4750 2034 4750 
z
" transform="scale(0.015625)"/>
       </defs>
       <use xlink:href="#DejaVuSans-31"/>
       <use xlink:href="#DejaVuSans-30" x="63.623047"/>
      </g>
     </g>
    </g>
    <g id="text_6">
     <!-- Generation -->
     <g transform="translate(202.688437 337.38025) scale(0.12 -0.12)">
      <defs>
       <path id="DejaVuSans-47" d="M 3809 666 
L 3809 1919 
L 2778 1919 
L 2778 2438 
L 4434 2438 
L 4434 434 
Q 4069 175 3628 42 
Q 3188 -91 2688 -91 
Q 1594 -91 976 548 
Q 359 1188 359 2328 
Q 359 3472 976 4111 
Q 1594 4750 2688 4750 
Q 3144 4750 3555 4637 
Q 3966 4525 4313 4306 
L 4313 3634 
Q 3963 3931 3569 4081 
Q 3175 4231 2741 4231 
Q 1884 4231 1454 3753 
Q 1025 3275 1025 2328 
Q 1025 1384 1454 906 
Q 1884 428 2741 428 
Q 3075 428 3337 486 
Q 3600 544 3809 666 
z
" transform="scale(0.015625)"/>
       <path id="DejaVuSans-65" d="M 3597 1894 
L 3597 1613 
L 953 1613 
Q 991 1019 1311 708 
Q 1631 397 2203 397 
Q 2534 397 2845 478 
Q 3156 559 3463 722 
L 3463 178 
Q 3153 47 2828 -22 
Q 2503 -91 2169 -91 
Q 1331 -91 842 396 
Q 353 884 353 1716 
Q 353 2575 817 3079 
Q 1281 3584 2069 3584 
Q 2775 3584 3186 3129 
Q 3597 2675 3597 1894 
z
M 3022 2063 
Q 3016 2534 2758 2815 
Q 2500 3097 2075 3097 
Q 1594 3097 1305 2825 
Q 1016 2553 972 2059 
L 3022 2063 
z
" transform="scale(0.015625)"/>
       <path id="DejaVuSans-6e" d="M 3513 2113 
L 3513 0 
L 2938 0 
L 2938 2094 
Q 2938 2591 2744 2837 
Q 2550 3084 2163 3084 
Q 1697 3084 1428 2787 
Q 1159 2491 1159 1978 
L 1159 0 
L 581 0 
L 581 3500 
L 1159 3500 
L 1159 2956 
Q 1366 3272 1645 3428 
Q 1925 3584 2291 3584 
Q 2894 3584 3203 3211 
Q 3513 2838 3513 2113 
z
" transform="scale(0.015625)"/>
       <path id="DejaVuSans-72" d="M 2631 2963 
Q 2534 3019 2420 3045 
Q 2306 3072 2169 3072 
Q 1681 3072 1420 2755 
Q 1159 2438 1159 1844 
L 1159 0 
L 581 0 
L 581 3500 
L 1159 3500 
L 1159 2956 
Q 1341 3275 1631 3429 
Q 1922 3584 2338 3584 
Q 2397 3584 2469 3576 
Q 2541 3569 2628 3553 
L 2631 2963 
z
" transform="scale(0.015625)"/>
       <path id="DejaVuSans-61" d="M 2194 1759 
Q 1497 1759 1228 1600 
Q 959 1441 959 1056 
Q 959 750 1161 570 
Q 1363 391 1709 391 
Q 2188 391 2477 730 
Q 2766 1069 2766 1631 
L 2766 1759 
L 2194 1759 
z
M 3341 1997 
L 3341 0 
L 2766 0 
L 2766 531 
Q 2569 213 2275 61 
Q 1981 -91 1556 -91 
Q 1019 -91 701 211 
Q 384 513 384 1019 
Q 384 1609 779 1909 
Q 1175 2209 1959 2209 
L 2766 2209 
L 2766 2266 
Q 2766 2663 2505 2880 
Q 2244 3097 1772 3097 
Q 1472 3097 1187 3025 
Q 903 2953 641 2809 
L 641 3341 
Q 956 3463 1253 3523 
Q 1550 3584 1831 3584 
Q 2591 3584 2966 3190 
Q 3341 2797 3341 1997 
z
" transform="scale(0.015625)"/>
       <path id="DejaVuSans-74" d="M 1172 4494 
L 1172 3500 
L 2356 3500 
L 2356 3053 
L 1172 3053 
L 1172 1153 
Q 1172 725 1289 603 
Q 1406 481 1766 481 
L 2356 481 
L 2356 0 
L 1766 0 
Q 1100 0 847 248 
Q 594 497 594 1153 
L 594 3053 
L 172 3053 
L 172 3500 
L 594 3500 
L 594 4494 
L 1172 4494 
z
" transform="scale(0.015625)"/>
       <path id="DejaVuSans-69" d="M 603 3500 
L 1178 3500 
L 1178 0 
L 603 0 
L 603 3500 
z
M 603 4863 
L 1178 4863 
L 1178 4134 
L 603 4134 
L 603 4863 
z
" transform="scale(0.015625)"/>
       <path id="DejaVuSans-6f" d="M 1959 3097 
Q 1497 3097 1228 2736 
Q 959 2375 959 1747 
Q 959 1119 1226 758 
Q 1494 397 1959 397 
Q 2419 397 2687 759 
Q 2956 1122 2956 1747 
Q 2956 2369 2687 2733 
Q 2419 3097 1959 3097 
z
M 1959 3584 
Q 2709 3584 3137 3096 
Q 3566 2609 3566 1747 
Q 3566 888 3137 398 
Q 2709 -91 1959 -91 
Q 1206 -91 779 398 
Q 353 888 353 1747 
Q 353 2609 779 3096 
Q 1206 3584 1959 3584 
z
" transform="scale(0.015625)"/>
      </defs>
      <use xlink:href="#DejaVuSans-47"/>
      <use xlink:href="#DejaVuSans-65" x="77.490234"/>
      <use xlink:href="#DejaVuSans-6e" x="139.013672"/>
      <use xlink:href="#DejaVuSans-65" x="202.392578"/>
      <use xlink:href="#DejaVuSans-72" x="263.916016"/>
      <use xlink:href="#DejaVuSans-61" x="305.029297"/>
      <use xlink:href="#DejaVuSans-74" x="366.308594"/>
      <use xlink:href="#DejaVuSans-69" x="405.517578"/>
      <use xlink:href="#DejaVuSans-6f" x="433.300781"/>
      <use xlink:href="#DejaVuSans-6e" x="494.482422"/>
     </g>
    </g>
   </g>
   <g id="matplotlib.axis_2">
    <g id="ytick_1">
     <g id="line2d_11">
      <path d="M 57.6 285.737793 
L 414.72 285.737793 
" clip-path="url(#p780cce14b3)" style="fill: none; stroke: #808080; stroke-width: 0.25; stroke-linecap: square"/>
     </g>
     <g id="line2d_12">
      <defs>
       <path id="mcdd88eda0e" d="M 0 0 
L -3.5 0 
" style="stroke: #000000; stroke-width: 0.8"/>
      </defs>
      <g>
       <use xlink:href="#mcdd88eda0e" x="57.6" y="285.737793" style="stroke: #000000; stroke-width: 0.8"/>
      </g>
     </g>
     <g id="text_7">
      <!-- −35 -->
      <g transform="translate(29.495313 289.537012) scale(0.1 -0.1)">
       <defs>
        <path id="DejaVuSans-2212" d="M 678 2272 
L 4684 2272 
L 4684 1741 
L 678 1741 
L 678 2272 
z
" transform="scale(0.015625)"/>
        <path id="DejaVuSans-33" d="M 2597 2516 
Q 3050 2419 3304 2112 
Q 3559 1806 3559 1356 
Q 3559 666 3084 287 
Q 2609 -91 1734 -91 
Q 1441 -91 1130 -33 
Q 819 25 488 141 
L 488 750 
Q 750 597 1062 519 
Q 1375 441 1716 441 
Q 2309 441 2620 675 
Q 2931 909 2931 1356 
Q 2931 1769 2642 2001 
Q 2353 2234 1838 2234 
L 1294 2234 
L 1294 2753 
L 1863 2753 
Q 2328 2753 2575 2939 
Q 2822 3125 2822 3475 
Q 2822 3834 2567 4026 
Q 2313 4219 1838 4219 
Q 1578 4219 1281 4162 
Q 984 4106 628 3988 
L 628 4550 
Q 988 4650 1302 4700 
Q 1616 4750 1894 4750 
Q 2613 4750 3031 4423 
Q 3450 4097 3450 3541 
Q 3450 3153 3228 2886 
Q 3006 2619 2597 2516 
z
" transform="scale(0.015625)"/>
        <path id="DejaVuSans-35" d="M 691 4666 
L 3169 4666 
L 3169 4134 
L 1269 4134 
L 1269 2991 
Q 1406 3038 1543 3061 
Q 1681 3084 1819 3084 
Q 2600 3084 3056 2656 
Q 3513 2228 3513 1497 
Q 3513 744 3044 326 
Q 2575 -91 1722 -91 
Q 1428 -91 1123 -41 
Q 819 9 494 109 
L 494 744 
Q 775 591 1075 516 
Q 1375 441 1709 441 
Q 2250 441 2565 725 
Q 2881 1009 2881 1497 
Q 2881 1984 2565 2268 
Q 2250 2553 1709 2553 
Q 1456 2553 1204 2497 
Q 953 2441 691 2322 
L 691 4666 
z
" transform="scale(0.015625)"/>
       </defs>
       <use xlink:href="#DejaVuSans-2212"/>
       <use xlink:href="#DejaVuSans-33" x="83.789062"/>
       <use xlink:href="#DejaVuSans-35" x="147.412109"/>
      </g>
     </g>
    </g>
    <g id="ytick_2">
     <g id="line2d_13">
      <path d="M 57.6 246.158367 
L 414.72 246.158367 
" clip-path="url(#p780cce14b3)" style="fill: none; stroke: #808080; stroke-width: 0.25; stroke-linecap: square"/>
     </g>
     <g id="line2d_14">
      <g>
       <use xlink:href="#mcdd88eda0e" x="57.6" y="246.158367" style="stroke: #000000; stroke-width: 0.8"/>
      </g>
     </g>
     <g id="text_8">
      <!-- −30 -->
      <g transform="translate(29.495313 249.957585) scale(0.1 -0.1)">
       <use xlink:href="#DejaVuSans-2212"/>
       <use xlink:href="#DejaVuSans-33" x="83.789062"/>
       <use xlink:href="#DejaVuSans-30" x="147.412109"/>
      </g>
     </g>
    </g>
    <g id="ytick_3">
     <g id="line2d_15">
      <path d="M 57.6 206.57894 
L 414.72 206.57894 
" clip-path="url(#p780cce14b3)" style="fill: none; stroke: #808080; stroke-width: 0.25; stroke-linecap: square"/>
     </g>
     <g id="line2d_16">
      <g>
       <use xlink:href="#mcdd88eda0e" x="57.6" y="206.57894" style="stroke: #000000; stroke-width: 0.8"/>
      </g>
     </g>
     <g id="text_9">
      <!-- −25 -->
      <g transform="translate(29.495313 210.378159) scale(0.1 -0.1)">
       <use xlink:href="#DejaVuSans-2212"/>
       <use xlink:href="#DejaVuSans-32" x="83.789062"/>
       <use xlink:href="#DejaVuSans-35" x="147.412109"/>
      </g>
     </g>
    </g>
    <g id="ytick_4">
     <g id="line2d_17">
      <path d="M 57.6 166.999514 
L 414.72 166.999514 
" clip-path="url(#p780cce14b3)" style="fill: none; stroke: #808080; stroke-width: 0.25; stroke-linecap: square"/>
     </g>
     <g id="line2d_18">
      <g>
       <use xlink:href="#mcdd88eda0e" x="57.6" y="166.999514" style="stroke: #000000; stroke-width: 0.8"/>
      </g>
     </g>
     <g id="text_10">
      <!-- −20 -->
      <g transform="translate(29.495313 170.798733) scale(0.1 -0.1)">
       <use xlink:href="#DejaVuSans-2212"/>
       <use xlink:href="#DejaVuSans-32" x="83.789062"/>
       <use xlink:href="#DejaVuSans-30" x="147.412109"/>
      </g>
     </g>
    </g>
    <g id="ytick_5">
     <g id="line2d_19">
      <path d="M 57.6 127.420088 
L 414.72 127.420088 
" clip-path="url(#p780cce14b3)" style="fill: none; stroke: #808080; stroke-width: 0.25; stroke-linecap: square"/>
     </g>
     <g id="line2d_20">
      <g>
       <use xlink:href="#mcdd88eda0e" x="57.6" y="127.420088" style="stroke: #000000; stroke-width: 0.8"/>
      </g>
     </g>
     <g id="text_11">
      <!-- −15 -->
      <g transform="translate(29.495313 131.219306) scale(0.1 -0.1)">
       <use xlink:href="#DejaVuSans-2212"/>
       <use xlink:href="#DejaVuSans-31" x="83.789062"/>
       <use xlink:href="#DejaVuSans-35" x="147.412109"/>
      </g>
     </g>
    </g>
    <g id="ytick_6">
     <g id="line2d_21">
      <path d="M 57.6 87.840661 
L 414.72 87.840661 
" clip-path="url(#p780cce14b3)" style="fill: none; stroke: #808080; stroke-width: 0.25; stroke-linecap: square"/>
     </g>
     <g id="line2d_22">
      <g>
       <use xlink:href="#mcdd88eda0e" x="57.6" y="87.840661" style="stroke: #000000; stroke-width: 0.8"/>
      </g>
     </g>
     <g id="text_12">
      <!-- −10 -->
      <g transform="translate(29.495313 91.63988) scale(0.1 -0.1)">
       <use xlink:href="#DejaVuSans-2212"/>
       <use xlink:href="#DejaVuSans-31" x="83.789062"/>
       <use xlink:href="#DejaVuSans-30" x="147.412109"/>
      </g>
     </g>
    </g>
    <g id="ytick_7">
     <g id="line2d_23">
      <path d="M 57.6 48.261235 
L 414.72 48.261235 
" clip-path="url(#p780cce14b3)" style="fill: none; stroke: #808080; stroke-width: 0.25; stroke-linecap: square"/>
     </g>
     <g id="line2d_24">
      <g>
       <use xlink:href="#mcdd88eda0e" x="57.6" y="48.261235" style="stroke: #000000; stroke-width: 0.8"/>
      </g>
     </g>
     <g id="text_13">
      <!-- −5 -->
      <g transform="translate(35.857813 52.060454) scale(0.1 -0.1)">
       <use xlink:href="#DejaVuSans-2212"/>
       <use xlink:href="#DejaVuSans-35" x="83.789062"/>
      </g>
     </g>
    </g>
    <g id="text_14">
     <!-- 1syh score -->
     <g transform="translate(22.999688 206.851125) rotate(-90) scale(0.12 -0.12)">
      <defs>
       <path id="DejaVuSans-73" d="M 2834 3397 
L 2834 2853 
Q 2591 2978 2328 3040 
Q 2066 3103 1784 3103 
Q 1356 3103 1142 2972 
Q 928 2841 928 2578 
Q 928 2378 1081 2264 
Q 1234 2150 1697 2047 
L 1894 2003 
Q 2506 1872 2764 1633 
Q 3022 1394 3022 966 
Q 3022 478 2636 193 
Q 2250 -91 1575 -91 
Q 1294 -91 989 -36 
Q 684 19 347 128 
L 347 722 
Q 666 556 975 473 
Q 1284 391 1588 391 
Q 1994 391 2212 530 
Q 2431 669 2431 922 
Q 2431 1156 2273 1281 
Q 2116 1406 1581 1522 
L 1381 1569 
Q 847 1681 609 1914 
Q 372 2147 372 2553 
Q 372 3047 722 3315 
Q 1072 3584 1716 3584 
Q 2034 3584 2315 3537 
Q 2597 3491 2834 3397 
z
" transform="scale(0.015625)"/>
       <path id="DejaVuSans-79" d="M 2059 -325 
Q 1816 -950 1584 -1140 
Q 1353 -1331 966 -1331 
L 506 -1331 
L 506 -850 
L 844 -850 
Q 1081 -850 1212 -737 
Q 1344 -625 1503 -206 
L 1606 56 
L 191 3500 
L 800 3500 
L 1894 763 
L 2988 3500 
L 3597 3500 
L 2059 -325 
z
" transform="scale(0.015625)"/>
       <path id="DejaVuSans-68" d="M 3513 2113 
L 3513 0 
L 2938 0 
L 2938 2094 
Q 2938 2591 2744 2837 
Q 2550 3084 2163 3084 
Q 1697 3084 1428 2787 
Q 1159 2491 1159 1978 
L 1159 0 
L 581 0 
L 581 4863 
L 1159 4863 
L 1159 2956 
Q 1366 3272 1645 3428 
Q 1925 3584 2291 3584 
Q 2894 3584 3203 3211 
Q 3513 2838 3513 2113 
z
" transform="scale(0.015625)"/>
       <path id="DejaVuSans-20" transform="scale(0.015625)"/>
       <path id="DejaVuSans-63" d="M 3122 3366 
L 3122 2828 
Q 2878 2963 2633 3030 
Q 2388 3097 2138 3097 
Q 1578 3097 1268 2742 
Q 959 2388 959 1747 
Q 959 1106 1268 751 
Q 1578 397 2138 397 
Q 2388 397 2633 464 
Q 2878 531 3122 666 
L 3122 134 
Q 2881 22 2623 -34 
Q 2366 -91 2075 -91 
Q 1284 -91 818 406 
Q 353 903 353 1747 
Q 353 2603 823 3093 
Q 1294 3584 2113 3584 
Q 2378 3584 2631 3529 
Q 2884 3475 3122 3366 
z
" transform="scale(0.015625)"/>
      </defs>
      <use xlink:href="#DejaVuSans-31"/>
      <use xlink:href="#DejaVuSans-73" x="63.623047"/>
      <use xlink:href="#DejaVuSans-79" x="115.722656"/>
      <use xlink:href="#DejaVuSans-68" x="174.902344"/>
      <use xlink:href="#DejaVuSans-20" x="238.28125"/>
      <use xlink:href="#DejaVuSans-73" x="270.068359"/>
      <use xlink:href="#DejaVuSans-63" x="322.167969"/>
      <use xlink:href="#DejaVuSans-6f" x="377.148438"/>
      <use xlink:href="#DejaVuSans-72" x="438.330078"/>
      <use xlink:href="#DejaVuSans-65" x="477.193359"/>
     </g>
    </g>
   </g>
   <g id="line2d_25">
    <path d="M 73.832727 100.873242 
L 109.905455 115.874002 
L 145.978182 131.023372 
L 182.050909 147.020502 
L 218.123636 152.254781 
L 254.196364 167.587743 
L 290.269091 199.04377 
L 326.341818 201.953979 
L 362.414545 230.663767 
L 398.487273 238.035312 
" clip-path="url(#p780cce14b3)" style="fill: none; stroke: #ff0000; stroke-width: 1.5; stroke-linecap: square"/>
   </g>
   <g id="line2d_26">
    <path d="M 73.832727 96.10487 
L 109.905455 102.939737 
L 145.978182 104.665477 
L 182.050909 116.943262 
L 218.123636 122.546648 
L 254.196364 137.971547 
L 290.269091 145.71721 
L 326.341818 148.955882 
L 362.414545 172.180795 
L 398.487273 180.582623 
" clip-path="url(#p780cce14b3)" style="fill: none; stroke: #ff0000; stroke-opacity: 0.25; stroke-width: 0.1; stroke-linecap: square"/>
   </g>
   <g id="line2d_27">
    <path d="M 73.832727 105.641614 
L 109.905455 128.808267 
L 145.978182 157.381267 
L 182.050909 177.097742 
L 218.123636 181.962914 
L 254.196364 197.203939 
L 290.269091 252.37033 
L 326.341818 254.952076 
L 362.414545 289.146738 
L 398.487273 295.488 
" clip-path="url(#p780cce14b3)" style="fill: none; stroke: #ff0000; stroke-opacity: 0.25; stroke-width: 0.1; stroke-linecap: square"/>
   </g>
   <g id="line2d_28">
    <path d="M 73.832727 80.927455 
L 109.905455 75.49188 
L 145.978182 72.747707 
L 182.050909 70.689577 
L 218.123636 68.895309 
L 254.196364 64.145778 
L 290.269091 61.559922 
L 326.341818 62.457056 
L 362.414545 60.346153 
L 398.487273 58.076933 
" clip-path="url(#p780cce14b3)" style="fill: none; stroke: #ffa500; stroke-width: 1.5; stroke-linecap: square"/>
   </g>
   <g id="line2d_29">
    <path d="M 73.832727 79.895331 
L 109.905455 71.52384 
L 145.978182 69.713916 
L 182.050909 67.136494 
L 218.123636 64.392312 
L 254.196364 58.893134 
L 290.269091 56.519464 
L 326.341818 56.980062 
L 362.414545 54.734769 
L 398.487273 53.568 
" clip-path="url(#p780cce14b3)" style="fill: none; stroke: #ffa500; stroke-opacity: 0.25; stroke-width: 0.1; stroke-linecap: square"/>
   </g>
   <g id="line2d_30">
    <path d="M 73.832727 81.959578 
L 109.905455 79.45992 
L 145.978182 75.781498 
L 182.050909 74.242659 
L 218.123636 73.398306 
L 254.196364 69.398422 
L 290.269091 66.60038 
L 326.341818 67.93405 
L 362.414545 65.957537 
L 398.487273 62.585865 
" clip-path="url(#p780cce14b3)" style="fill: none; stroke: #ffa500; stroke-opacity: 0.25; stroke-width: 0.1; stroke-linecap: square"/>
   </g>
   <g id="line2d_31">
    <path d="M 73.832727 100.96264 
L 109.905455 109.554956 
L 145.978182 110.808402 
L 182.050909 112.302928 
L 218.123636 111.694094 
L 254.196364 113.45796 
L 290.269091 115.305694 
L 326.341818 113.487309 
L 362.414545 116.162668 
L 398.487273 113.410452 
" clip-path="url(#p780cce14b3)" style="fill: none; stroke: #008000; stroke-width: 1.5; stroke-linecap: square"/>
   </g>
   <g id="line2d_32">
    <path d="M 73.832727 96.615301 
L 109.905455 105.217608 
L 145.978182 106.157374 
L 182.050909 107.475033 
L 218.123636 107.197023 
L 254.196364 109.743261 
L 290.269091 111.482871 
L 326.341818 109.8029 
L 362.414545 111.254513 
L 398.487273 108.546411 
" clip-path="url(#p780cce14b3)" style="fill: none; stroke: #008000; stroke-opacity: 0.25; stroke-width: 0.1; stroke-linecap: square"/>
   </g>
   <g id="line2d_33">
    <path d="M 73.832727 105.309979 
L 109.905455 113.892304 
L 145.978182 115.45943 
L 182.050909 117.130823 
L 218.123636 116.191166 
L 254.196364 117.172659 
L 290.269091 119.128517 
L 326.341818 117.171718 
L 362.414545 121.070823 
L 398.487273 118.274493 
" clip-path="url(#p780cce14b3)" style="fill: none; stroke: #008000; stroke-opacity: 0.25; stroke-width: 0.1; stroke-linecap: square"/>
   </g>
   <g id="line2d_34">
    <path d="M 73.832727 83.038358 
L 109.905455 78.816552 
L 145.978182 75.861288 
L 182.050909 73.01157 
L 218.123636 71.692255 
L 254.196364 73.486523 
L 290.269091 70.372941 
L 326.341818 71.639483 
L 362.414545 69.211945 
L 398.487273 71.639483 
" clip-path="url(#p780cce14b3)" style="fill: none; stroke: #0000ff; stroke-width: 1.5; stroke-linecap: square"/>
   </g>
   <g id="line2d_35">
    <path d="M 73.832727 81.322204 
L 109.905455 75.885249 
L 145.978182 72.766152 
L 182.050909 69.292044 
L 218.123636 67.219056 
L 254.196364 69.28264 
L 290.269091 65.598132 
L 326.341818 67.791507 
L 362.414545 65.232174 
L 398.487273 68.134473 
" clip-path="url(#p780cce14b3)" style="fill: none; stroke: #0000ff; stroke-opacity: 0.25; stroke-width: 0.1; stroke-linecap: square"/>
   </g>
   <g id="line2d_36">
    <path d="M 73.832727 84.754511 
L 109.905455 81.747855 
L 145.978182 78.956425 
L 182.050909 76.731095 
L 218.123636 76.165455 
L 254.196364 77.690405 
L 290.269091 75.14775 
L 326.341818 75.487459 
L 362.414545 73.191715 
L 398.487273 75.144493 
" clip-path="url(#p780cce14b3)" style="fill: none; stroke: #0000ff; stroke-opacity: 0.25; stroke-width: 0.1; stroke-linecap: square"/>
   </g>
   <g id="patch_3">
    <path d="M 57.6 307.584 
L 57.6 41.472 
" style="fill: none; stroke: #000000; stroke-width: 0.8; stroke-linejoin: miter; stroke-linecap: square"/>
   </g>
   <g id="patch_4">
    <path d="M 414.72 307.584 
L 414.72 41.472 
" style="fill: none; stroke: #000000; stroke-width: 0.8; stroke-linejoin: miter; stroke-linecap: square"/>
   </g>
   <g id="patch_5">
    <path d="M 57.6 307.584 
L 414.72 307.584 
" style="fill: none; stroke: #000000; stroke-width: 0.8; stroke-linejoin: miter; stroke-linecap: square"/>
   </g>
   <g id="patch_6">
    <path d="M 57.6 41.472 
L 414.72 41.472 
" style="fill: none; stroke: #000000; stroke-width: 0.8; stroke-linejoin: miter; stroke-linecap: square"/>
   </g>
   <g id="legend_1">
    <g id="patch_7">
     <path d="M 63.9 303.084 
L 226.125 303.084 
Q 227.925 303.084 227.925 301.284 
L 227.925 248.3415 
Q 227.925 246.5415 226.125 246.5415 
L 63.9 246.5415 
Q 62.1 246.5415 62.1 248.3415 
L 62.1 301.284 
Q 62.1 303.084 63.9 303.084 
z
" style="fill: #ffffff; opacity: 0.8; stroke: #cccccc; stroke-linejoin: miter"/>
    </g>
    <g id="line2d_37">
     <path d="M 65.7 253.830094 
L 74.7 253.830094 
L 83.7 253.830094 
" style="fill: none; stroke: #ff0000; stroke-width: 1.5; stroke-linecap: square"/>
    </g>
    <g id="text_15">
     <!-- janus_scaler (surrogate) -->
     <g transform="translate(90.9 256.980094) scale(0.09 -0.09)">
      <defs>
       <path id="DejaVuSans-6a" d="M 603 3500 
L 1178 3500 
L 1178 -63 
Q 1178 -731 923 -1031 
Q 669 -1331 103 -1331 
L -116 -1331 
L -116 -844 
L 38 -844 
Q 366 -844 484 -692 
Q 603 -541 603 -63 
L 603 3500 
z
M 603 4863 
L 1178 4863 
L 1178 4134 
L 603 4134 
L 603 4863 
z
" transform="scale(0.015625)"/>
       <path id="DejaVuSans-75" d="M 544 1381 
L 544 3500 
L 1119 3500 
L 1119 1403 
Q 1119 906 1312 657 
Q 1506 409 1894 409 
Q 2359 409 2629 706 
Q 2900 1003 2900 1516 
L 2900 3500 
L 3475 3500 
L 3475 0 
L 2900 0 
L 2900 538 
Q 2691 219 2414 64 
Q 2138 -91 1772 -91 
Q 1169 -91 856 284 
Q 544 659 544 1381 
z
M 1991 3584 
L 1991 3584 
z
" transform="scale(0.015625)"/>
       <path id="DejaVuSans-5f" d="M 3263 -1063 
L 3263 -1509 
L -63 -1509 
L -63 -1063 
L 3263 -1063 
z
" transform="scale(0.015625)"/>
       <path id="DejaVuSans-6c" d="M 603 4863 
L 1178 4863 
L 1178 0 
L 603 0 
L 603 4863 
z
" transform="scale(0.015625)"/>
       <path id="DejaVuSans-28" d="M 1984 4856 
Q 1566 4138 1362 3434 
Q 1159 2731 1159 2009 
Q 1159 1288 1364 580 
Q 1569 -128 1984 -844 
L 1484 -844 
Q 1016 -109 783 600 
Q 550 1309 550 2009 
Q 550 2706 781 3412 
Q 1013 4119 1484 4856 
L 1984 4856 
z
" transform="scale(0.015625)"/>
       <path id="DejaVuSans-67" d="M 2906 1791 
Q 2906 2416 2648 2759 
Q 2391 3103 1925 3103 
Q 1463 3103 1205 2759 
Q 947 2416 947 1791 
Q 947 1169 1205 825 
Q 1463 481 1925 481 
Q 2391 481 2648 825 
Q 2906 1169 2906 1791 
z
M 3481 434 
Q 3481 -459 3084 -895 
Q 2688 -1331 1869 -1331 
Q 1566 -1331 1297 -1286 
Q 1028 -1241 775 -1147 
L 775 -588 
Q 1028 -725 1275 -790 
Q 1522 -856 1778 -856 
Q 2344 -856 2625 -561 
Q 2906 -266 2906 331 
L 2906 616 
Q 2728 306 2450 153 
Q 2172 0 1784 0 
Q 1141 0 747 490 
Q 353 981 353 1791 
Q 353 2603 747 3093 
Q 1141 3584 1784 3584 
Q 2172 3584 2450 3431 
Q 2728 3278 2906 2969 
L 2906 3500 
L 3481 3500 
L 3481 434 
z
" transform="scale(0.015625)"/>
       <path id="DejaVuSans-29" d="M 513 4856 
L 1013 4856 
Q 1481 4119 1714 3412 
Q 1947 2706 1947 2009 
Q 1947 1309 1714 600 
Q 1481 -109 1013 -844 
L 513 -844 
Q 928 -128 1133 580 
Q 1338 1288 1338 2009 
Q 1338 2731 1133 3434 
Q 928 4138 513 4856 
z
" transform="scale(0.015625)"/>
      </defs>
      <use xlink:href="#DejaVuSans-6a"/>
      <use xlink:href="#DejaVuSans-61" x="27.783203"/>
      <use xlink:href="#DejaVuSans-6e" x="89.0625"/>
      <use xlink:href="#DejaVuSans-75" x="152.441406"/>
      <use xlink:href="#DejaVuSans-73" x="215.820312"/>
      <use xlink:href="#DejaVuSans-5f" x="267.919922"/>
      <use xlink:href="#DejaVuSans-73" x="317.919922"/>
      <use xlink:href="#DejaVuSans-63" x="370.019531"/>
      <use xlink:href="#DejaVuSans-61" x="425"/>
      <use xlink:href="#DejaVuSans-6c" x="486.279297"/>
      <use xlink:href="#DejaVuSans-65" x="514.0625"/>
      <use xlink:href="#DejaVuSans-72" x="575.585938"/>
      <use xlink:href="#DejaVuSans-20" x="616.699219"/>
      <use xlink:href="#DejaVuSans-28" x="648.486328"/>
      <use xlink:href="#DejaVuSans-73" x="687.5"/>
      <use xlink:href="#DejaVuSans-75" x="739.599609"/>
      <use xlink:href="#DejaVuSans-72" x="802.978516"/>
      <use xlink:href="#DejaVuSans-72" x="842.341797"/>
      <use xlink:href="#DejaVuSans-6f" x="881.205078"/>
      <use xlink:href="#DejaVuSans-67" x="942.386719"/>
      <use xlink:href="#DejaVuSans-61" x="1005.863281"/>
      <use xlink:href="#DejaVuSans-74" x="1067.142578"/>
      <use xlink:href="#DejaVuSans-65" x="1106.351562"/>
      <use xlink:href="#DejaVuSans-29" x="1167.875"/>
     </g>
    </g>
    <g id="line2d_38">
     <path d="M 65.7 267.290719 
L 74.7 267.290719 
L 83.7 267.290719 
" style="fill: none; stroke: #ffa500; stroke-width: 1.5; stroke-linecap: square"/>
    </g>
    <g id="text_16">
     <!-- janus_scaler (actual) -->
     <g transform="translate(90.9 270.440719) scale(0.09 -0.09)">
      <use xlink:href="#DejaVuSans-6a"/>
      <use xlink:href="#DejaVuSans-61" x="27.783203"/>
      <use xlink:href="#DejaVuSans-6e" x="89.0625"/>
      <use xlink:href="#DejaVuSans-75" x="152.441406"/>
      <use xlink:href="#DejaVuSans-73" x="215.820312"/>
      <use xlink:href="#DejaVuSans-5f" x="267.919922"/>
      <use xlink:href="#DejaVuSans-73" x="317.919922"/>
      <use xlink:href="#DejaVuSans-63" x="370.019531"/>
      <use xlink:href="#DejaVuSans-61" x="425"/>
      <use xlink:href="#DejaVuSans-6c" x="486.279297"/>
      <use xlink:href="#DejaVuSans-65" x="514.0625"/>
      <use xlink:href="#DejaVuSans-72" x="575.585938"/>
      <use xlink:href="#DejaVuSans-20" x="616.699219"/>
      <use xlink:href="#DejaVuSans-28" x="648.486328"/>
      <use xlink:href="#DejaVuSans-61" x="687.5"/>
      <use xlink:href="#DejaVuSans-63" x="748.779297"/>
      <use xlink:href="#DejaVuSans-74" x="803.759766"/>
      <use xlink:href="#DejaVuSans-75" x="842.96875"/>
      <use xlink:href="#DejaVuSans-61" x="906.347656"/>
      <use xlink:href="#DejaVuSans-6c" x="967.626953"/>
      <use xlink:href="#DejaVuSans-29" x="995.410156"/>
     </g>
    </g>
    <g id="line2d_39">
     <path d="M 65.7 280.751344 
L 74.7 280.751344 
L 83.7 280.751344 
" style="fill: none; stroke: #008000; stroke-width: 1.5; stroke-linecap: square"/>
    </g>
    <g id="text_17">
     <!-- janus_uncertainty (surrogate) -->
     <g transform="translate(90.9 283.901344) scale(0.09 -0.09)">
      <use xlink:href="#DejaVuSans-6a"/>
      <use xlink:href="#DejaVuSans-61" x="27.783203"/>
      <use xlink:href="#DejaVuSans-6e" x="89.0625"/>
      <use xlink:href="#DejaVuSans-75" x="152.441406"/>
      <use xlink:href="#DejaVuSans-73" x="215.820312"/>
      <use xlink:href="#DejaVuSans-5f" x="267.919922"/>
      <use xlink:href="#DejaVuSans-75" x="317.919922"/>
      <use xlink:href="#DejaVuSans-6e" x="381.298828"/>
      <use xlink:href="#DejaVuSans-63" x="444.677734"/>
      <use xlink:href="#DejaVuSans-65" x="499.658203"/>
      <use xlink:href="#DejaVuSans-72" x="561.181641"/>
      <use xlink:href="#DejaVuSans-74" x="602.294922"/>
      <use xlink:href="#DejaVuSans-61" x="641.503906"/>
      <use xlink:href="#DejaVuSans-69" x="702.783203"/>
      <use xlink:href="#DejaVuSans-6e" x="730.566406"/>
      <use xlink:href="#DejaVuSans-74" x="793.945312"/>
      <use xlink:href="#DejaVuSans-79" x="833.154297"/>
      <use xlink:href="#DejaVuSans-20" x="892.333984"/>
      <use xlink:href="#DejaVuSans-28" x="924.121094"/>
      <use xlink:href="#DejaVuSans-73" x="963.134766"/>
      <use xlink:href="#DejaVuSans-75" x="1015.234375"/>
      <use xlink:href="#DejaVuSans-72" x="1078.613281"/>
      <use xlink:href="#DejaVuSans-72" x="1117.976562"/>
      <use xlink:href="#DejaVuSans-6f" x="1156.839844"/>
      <use xlink:href="#DejaVuSans-67" x="1218.021484"/>
      <use xlink:href="#DejaVuSans-61" x="1281.498047"/>
      <use xlink:href="#DejaVuSans-74" x="1342.777344"/>
      <use xlink:href="#DejaVuSans-65" x="1381.986328"/>
      <use xlink:href="#DejaVuSans-29" x="1443.509766"/>
     </g>
    </g>
    <g id="line2d_40">
     <path d="M 65.7 294.211969 
L 74.7 294.211969 
L 83.7 294.211969 
" style="fill: none; stroke: #0000ff; stroke-width: 1.5; stroke-linecap: square"/>
    </g>
    <g id="text_18">
     <!-- janus_uncertainty (actual) -->
     <g transform="translate(90.9 297.361969) scale(0.09 -0.09)">
      <use xlink:href="#DejaVuSans-6a"/>
      <use xlink:href="#DejaVuSans-61" x="27.783203"/>
      <use xlink:href="#DejaVuSans-6e" x="89.0625"/>
      <use xlink:href="#DejaVuSans-75" x="152.441406"/>
      <use xlink:href="#DejaVuSans-73" x="215.820312"/>
      <use xlink:href="#DejaVuSans-5f" x="267.919922"/>
      <use xlink:href="#DejaVuSans-75" x="317.919922"/>
      <use xlink:href="#DejaVuSans-6e" x="381.298828"/>
      <use xlink:href="#DejaVuSans-63" x="444.677734"/>
      <use xlink:href="#DejaVuSans-65" x="499.658203"/>
      <use xlink:href="#DejaVuSans-72" x="561.181641"/>
      <use xlink:href="#DejaVuSans-74" x="602.294922"/>
      <use xlink:href="#DejaVuSans-61" x="641.503906"/>
      <use xlink:href="#DejaVuSans-69" x="702.783203"/>
      <use xlink:href="#DejaVuSans-6e" x="730.566406"/>
      <use xlink:href="#DejaVuSans-74" x="793.945312"/>
      <use xlink:href="#DejaVuSans-79" x="833.154297"/>
      <use xlink:href="#DejaVuSans-20" x="892.333984"/>
      <use xlink:href="#DejaVuSans-28" x="924.121094"/>
      <use xlink:href="#DejaVuSans-61" x="963.134766"/>
      <use xlink:href="#DejaVuSans-63" x="1024.414062"/>
      <use xlink:href="#DejaVuSans-74" x="1079.394531"/>
      <use xlink:href="#DejaVuSans-75" x="1118.603516"/>
      <use xlink:href="#DejaVuSans-61" x="1181.982422"/>
      <use xlink:href="#DejaVuSans-6c" x="1243.261719"/>
      <use xlink:href="#DejaVuSans-29" x="1271.044922"/>
     </g>
    </g>
   </g>
  </g>
 </g>
 <defs>
  <clipPath id="p780cce14b3">
   <rect x="57.6" y="41.472" width="357.12" height="266.112"/>
  </clipPath>
 </defs>
</svg>
