<?xml version="1.0" encoding="utf-8" standalone="no"?>
<!DOCTYPE svg PUBLIC "-//W3C//DTD SVG 1.1//EN"
  "http://www.w3.org/Graphics/SVG/1.1/DTD/svg11.dtd">
<svg xmlns:xlink="http://www.w3.org/1999/xlink" width="460.8pt" height="345.6pt" viewBox="0 0 460.8 345.6" xmlns="http://www.w3.org/2000/svg" version="1.1">
 <metadata>
  <rdf:RDF xmlns:dc="http://purl.org/dc/elements/1.1/" xmlns:cc="http://creativecommons.org/ns#" xmlns:rdf="http://www.w3.org/1999/02/22-rdf-syntax-ns#">
   <cc:Work>
    <dc:type rdf:resource="http://purl.org/dc/dcmitype/StillImage"/>
    <dc:date>2023-11-23T10:54:16.048000</dc:date>
    <dc:format>image/svg+xml</dc:format>
    <dc:creator>
     <cc:Agent>
      <dc:title>Matplotlib v3.7.2, https://matplotlib.org/</dc:title>
     </cc:Agent>
    </dc:creator>
   </cc:Work>
  </rdf:RDF>
 </metadata>
 <defs>
  <style type="text/css">*{stroke-linejoin: round; stroke-linecap: butt}</style>
 </defs>
 <g id="figure_1">
  <g id="patch_1">
   <path d="M 0 345.6 
L 460.8 345.6 
L 460.8 0 
L 0 0 
z
" style="fill: #ffffff"/>
  </g>
  <g id="axes_1">
   <g id="patch_2">
    <path d="M 57.6 307.584 
L 414.72 307.584 
L 414.72 41.472 
L 57.6 41.472 
z
" style="fill: #ffffff"/>
   </g>
   <g id="PolyCollection_1">
    <defs>
     <path id="m46da536f31" d="M 73.832727 -114.379701 
L 73.832727 -141.503063 
L 109.905455 -123.677011 
L 145.978182 -114.56859 
L 182.050909 -108.944885 
L 218.123636 -100.086702 
L 254.196364 -92.796664 
L 290.269091 -87.522784 
L 326.341818 -82.467372 
L 362.414545 -75.565866 
L 398.487273 -71.222334 
L 398.487273 -50.112 
L 398.487273 -50.112 
L 362.414545 -52.538817 
L 326.341818 -56.802604 
L 290.269091 -62.31121 
L 254.196364 -68.416526 
L 218.123636 -73.634498 
L 182.050909 -80.315772 
L 145.978182 -87.305397 
L 109.905455 -95.834419 
L 73.832727 -114.379701 
z
" style="stroke: #ff0000; stroke-opacity: 0.25"/>
    </defs>
    <g clip-path="url(#p6b75616fd6)">
     <use xlink:href="#m46da536f31" x="0" y="345.6" style="fill: #ff0000; fill-opacity: 0.25; stroke: #ff0000; stroke-opacity: 0.25"/>
    </g>
   </g>
   <g id="PolyCollection_2">
    <defs>
     <path id="mf45c4d08e5" d="M 73.832727 -172.257316 
L 73.832727 -241.460281 
L 109.905455 -218.276585 
L 145.978182 -224.469698 
L 182.050909 -236.076473 
L 218.123636 -244.597865 
L 254.196364 -215.481433 
L 290.269091 -203.074496 
L 326.341818 -203.56714 
L 362.414545 -215.03877 
L 398.487273 -227.245364 
L 398.487273 -168.626574 
L 398.487273 -168.626574 
L 362.414545 -165.961786 
L 326.341818 -156.61348 
L 290.269091 -169.003231 
L 254.196364 -178.407655 
L 218.123636 -175.068285 
L 182.050909 -183.589677 
L 145.978182 -194.205026 
L 109.905455 -158.758269 
L 73.832727 -172.257316 
z
" style="stroke: #ffa500; stroke-opacity: 0.25"/>
    </defs>
    <g clip-path="url(#p6b75616fd6)">
     <use xlink:href="#mf45c4d08e5" x="0" y="345.6" style="fill: #ffa500; fill-opacity: 0.25; stroke: #ffa500; stroke-opacity: 0.25"/>
    </g>
   </g>
   <g id="PolyCollection_3">
    <defs>
     <path id="mfa1b5b3bb3" d="M 73.832727 -164.913833 
L 73.832727 -216.458683 
L 109.905455 -204.322416 
L 145.978182 -160.878863 
L 182.050909 -153.192591 
L 218.123636 -150.33296 
L 254.196364 -149.165006 
L 290.269091 -139.405305 
L 326.341818 -135.488697 
L 362.414545 -134.38135 
L 398.487273 -129.482541 
L 398.487273 -96.682993 
L 398.487273 -96.682993 
L 362.414545 -104.738549 
L 326.341818 -108.620259 
L 290.269091 -104.319353 
L 254.196364 -110.97243 
L 218.123636 -113.38579 
L 182.050909 -115.554431 
L 145.978182 -136.596705 
L 109.905455 -137.562148 
L 73.832727 -164.913833 
z
" style="stroke: #008000; stroke-opacity: 0.25"/>
    </defs>
    <g clip-path="url(#p6b75616fd6)">
     <use xlink:href="#mfa1b5b3bb3" x="0" y="345.6" style="fill: #008000; fill-opacity: 0.25; stroke: #008000; stroke-opacity: 0.25"/>
    </g>
   </g>
   <g id="PolyCollection_4">
    <defs>
     <path id="m0426d3e3f6" d="M 73.832727 -233.067708 
L 73.832727 -290.698118 
L 109.905455 -292.032 
L 145.978182 -266.519295 
L 182.050909 -240.118336 
L 218.123636 -268.154845 
L 254.196364 -247.141167 
L 290.269091 -264.397168 
L 326.341818 -266.34402 
L 362.414545 -275.550057 
L 398.487273 -246.687954 
L 398.487273 -172.978196 
L 398.487273 -172.978196 
L 362.414545 -201.760403 
L 326.341818 -195.114527 
L 290.269091 -207.602085 
L 254.196364 -193.344918 
L 218.123636 -202.074005 
L 182.050909 -186.487792 
L 145.978182 -211.640958 
L 109.905455 -208.93104 
L 73.832727 -233.067708 
z
" style="stroke: #0000ff; stroke-opacity: 0.25"/>
    </defs>
    <g clip-path="url(#p6b75616fd6)">
     <use xlink:href="#m0426d3e3f6" x="0" y="345.6" style="fill: #0000ff; fill-opacity: 0.25; stroke: #0000ff; stroke-opacity: 0.25"/>
    </g>
   </g>
   <g id="matplotlib.axis_1">
    <g id="xtick_1">
     <g id="line2d_1">
      <path d="M 109.905455 307.584 
L 109.905455 41.472 
" clip-path="url(#p6b75616fd6)" style="fill: none; stroke: #808080; stroke-width: 0.25; stroke-linecap: square"/>
     </g>
     <g id="line2d_2">
      <defs>
       <path id="m26c178582c" d="M 0 0 
L 0 3.5 
" style="stroke: #000000; stroke-width: 0.8"/>
      </defs>
      <g>
       <use xlink:href="#m26c178582c" x="109.905455" y="307.584" style="stroke: #000000; stroke-width: 0.8"/>
      </g>
     </g>
     <g id="text_1">
      <!-- 2 -->
      <g transform="translate(106.724205 322.182437) scale(0.1 -0.1)">
       <defs>
        <path id="DejaVuSans-32" d="M 1228 531 
L 3431 531 
L 3431 0 
L 469 0 
L 469 531 
Q 828 903 1448 1529 
Q 2069 2156 2228 2338 
Q 2531 2678 2651 2914 
Q 2772 3150 2772 3378 
Q 2772 3750 2511 3984 
Q 2250 4219 1831 4219 
Q 1534 4219 1204 4116 
Q 875 4013 500 3803 
L 500 4441 
Q 881 4594 1212 4672 
Q 1544 4750 1819 4750 
Q 2544 4750 2975 4387 
Q 3406 4025 3406 3419 
Q 3406 3131 3298 2873 
Q 3191 2616 2906 2266 
Q 2828 2175 2409 1742 
Q 1991 1309 1228 531 
z
" transform="scale(0.015625)"/>
       </defs>
       <use xlink:href="#DejaVuSans-32"/>
      </g>
     </g>
    </g>
    <g id="xtick_2">
     <g id="line2d_3">
      <path d="M 182.050909 307.584 
L 182.050909 41.472 
" clip-path="url(#p6b75616fd6)" style="fill: none; stroke: #808080; stroke-width: 0.25; stroke-linecap: square"/>
     </g>
     <g id="line2d_4">
      <g>
       <use xlink:href="#m26c178582c" x="182.050909" y="307.584" style="stroke: #000000; stroke-width: 0.8"/>
      </g>
     </g>
     <g id="text_2">
      <!-- 4 -->
      <g transform="translate(178.869659 322.182437) scale(0.1 -0.1)">
       <defs>
        <path id="DejaVuSans-34" d="M 2419 4116 
L 825 1625 
L 2419 1625 
L 2419 4116 
z
M 2253 4666 
L 3047 4666 
L 3047 1625 
L 3713 1625 
L 3713 1100 
L 3047 1100 
L 3047 0 
L 2419 0 
L 2419 1100 
L 313 1100 
L 313 1709 
L 2253 4666 
z
" transform="scale(0.015625)"/>
       </defs>
       <use xlink:href="#DejaVuSans-34"/>
      </g>
     </g>
    </g>
    <g id="xtick_3">
     <g id="line2d_5">
      <path d="M 254.196364 307.584 
L 254.196364 41.472 
" clip-path="url(#p6b75616fd6)" style="fill: none; stroke: #808080; stroke-width: 0.25; stroke-linecap: square"/>
     </g>
     <g id="line2d_6">
      <g>
       <use xlink:href="#m26c178582c" x="254.196364" y="307.584" style="stroke: #000000; stroke-width: 0.8"/>
      </g>
     </g>
     <g id="text_3">
      <!-- 6 -->
      <g transform="translate(251.015114 322.182437) scale(0.1 -0.1)">
       <defs>
        <path id="DejaVuSans-36" d="M 2113 2584 
Q 1688 2584 1439 2293 
Q 1191 2003 1191 1497 
Q 1191 994 1439 701 
Q 1688 409 2113 409 
Q 2538 409 2786 701 
Q 3034 994 3034 1497 
Q 3034 2003 2786 2293 
Q 2538 2584 2113 2584 
z
M 3366 4563 
L 3366 3988 
Q 3128 4100 2886 4159 
Q 2644 4219 2406 4219 
Q 1781 4219 1451 3797 
Q 1122 3375 1075 2522 
Q 1259 2794 1537 2939 
Q 1816 3084 2150 3084 
Q 2853 3084 3261 2657 
Q 3669 2231 3669 1497 
Q 3669 778 3244 343 
Q 2819 -91 2113 -91 
Q 1303 -91 875 529 
Q 447 1150 447 2328 
Q 447 3434 972 4092 
Q 1497 4750 2381 4750 
Q 2619 4750 2861 4703 
Q 3103 4656 3366 4563 
z
" transform="scale(0.015625)"/>
       </defs>
       <use xlink:href="#DejaVuSans-36"/>
      </g>
     </g>
    </g>
    <g id="xtick_4">
     <g id="line2d_7">
      <path d="M 326.341818 307.584 
L 326.341818 41.472 
" clip-path="url(#p6b75616fd6)" style="fill: none; stroke: #808080; stroke-width: 0.25; stroke-linecap: square"/>
     </g>
     <g id="line2d_8">
      <g>
       <use xlink:href="#m26c178582c" x="326.341818" y="307.584" style="stroke: #000000; stroke-width: 0.8"/>
      </g>
     </g>
     <g id="text_4">
      <!-- 8 -->
      <g transform="translate(323.160568 322.182437) scale(0.1 -0.1)">
       <defs>
        <path id="DejaVuSans-38" d="M 2034 2216 
Q 1584 2216 1326 1975 
Q 1069 1734 1069 1313 
Q 1069 891 1326 650 
Q 1584 409 2034 409 
Q 2484 409 2743 651 
Q 3003 894 3003 1313 
Q 3003 1734 2745 1975 
Q 2488 2216 2034 2216 
z
M 1403 2484 
Q 997 2584 770 2862 
Q 544 3141 544 3541 
Q 544 4100 942 4425 
Q 1341 4750 2034 4750 
Q 2731 4750 3128 4425 
Q 3525 4100 3525 3541 
Q 3525 3141 3298 2862 
Q 3072 2584 2669 2484 
Q 3125 2378 3379 2068 
Q 3634 1759 3634 1313 
Q 3634 634 3220 271 
Q 2806 -91 2034 -91 
Q 1263 -91 848 271 
Q 434 634 434 1313 
Q 434 1759 690 2068 
Q 947 2378 1403 2484 
z
M 1172 3481 
Q 1172 3119 1398 2916 
Q 1625 2713 2034 2713 
Q 2441 2713 2670 2916 
Q 2900 3119 2900 3481 
Q 2900 3844 2670 4047 
Q 2441 4250 2034 4250 
Q 1625 4250 1398 4047 
Q 1172 3844 1172 3481 
z
" transform="scale(0.015625)"/>
       </defs>
       <use xlink:href="#DejaVuSans-38"/>
      </g>
     </g>
    </g>
    <g id="xtick_5">
     <g id="line2d_9">
      <path d="M 398.487273 307.584 
L 398.487273 41.472 
" clip-path="url(#p6b75616fd6)" style="fill: none; stroke: #808080; stroke-width: 0.25; stroke-linecap: square"/>
     </g>
     <g id="line2d_10">
      <g>
       <use xlink:href="#m26c178582c" x="398.487273" y="307.584" style="stroke: #000000; stroke-width: 0.8"/>
      </g>
     </g>
     <g id="text_5">
      <!-- 10 -->
      <g transform="translate(392.124773 322.182437) scale(0.1 -0.1)">
       <defs>
        <path id="DejaVuSans-31" d="M 794 531 
L 1825 531 
L 1825 4091 
L 703 3866 
L 703 4441 
L 1819 4666 
L 2450 4666 
L 2450 531 
L 3481 531 
L 3481 0 
L 794 0 
L 794 531 
z
" transform="scale(0.015625)"/>
        <path id="DejaVuSans-30" d="M 2034 4250 
Q 1547 4250 1301 3770 
Q 1056 3291 1056 2328 
Q 1056 1369 1301 889 
Q 1547 409 2034 409 
Q 2525 409 2770 889 
Q 3016 1369 3016 2328 
Q 3016 3291 2770 3770 
Q 2525 4250 2034 4250 
z
M 2034 4750 
Q 2819 4750 3233 4129 
Q 3647 3509 3647 2328 
Q 3647 1150 3233 529 
Q 2819 -91 2034 -91 
Q 1250 -91 836 529 
Q 422 1150 422 2328 
Q 422 3509 836 4129 
Q 1250 4750 2034 4750 
z
" transform="scale(0.015625)"/>
       </defs>
       <use xlink:href="#DejaVuSans-31"/>
       <use xlink:href="#DejaVuSans-30" x="63.623047"/>
      </g>
     </g>
    </g>
    <g id="text_6">
     <!-- Generation -->
     <g transform="translate(202.688437 337.38025) scale(0.12 -0.12)">
      <defs>
       <path id="DejaVuSans-47" d="M 3809 666 
L 3809 1919 
L 2778 1919 
L 2778 2438 
L 4434 2438 
L 4434 434 
Q 4069 175 3628 42 
Q 3188 -91 2688 -91 
Q 1594 -91 976 548 
Q 359 1188 359 2328 
Q 359 3472 976 4111 
Q 1594 4750 2688 4750 
Q 3144 4750 3555 4637 
Q 3966 4525 4313 4306 
L 4313 3634 
Q 3963 3931 3569 4081 
Q 3175 4231 2741 4231 
Q 1884 4231 1454 3753 
Q 1025 3275 1025 2328 
Q 1025 1384 1454 906 
Q 1884 428 2741 428 
Q 3075 428 3337 486 
Q 3600 544 3809 666 
z
" transform="scale(0.015625)"/>
       <path id="DejaVuSans-65" d="M 3597 1894 
L 3597 1613 
L 953 1613 
Q 991 1019 1311 708 
Q 1631 397 2203 397 
Q 2534 397 2845 478 
Q 3156 559 3463 722 
L 3463 178 
Q 3153 47 2828 -22 
Q 2503 -91 2169 -91 
Q 1331 -91 842 396 
Q 353 884 353 1716 
Q 353 2575 817 3079 
Q 1281 3584 2069 3584 
Q 2775 3584 3186 3129 
Q 3597 2675 3597 1894 
z
M 3022 2063 
Q 3016 2534 2758 2815 
Q 2500 3097 2075 3097 
Q 1594 3097 1305 2825 
Q 1016 2553 972 2059 
L 3022 2063 
z
" transform="scale(0.015625)"/>
       <path id="DejaVuSans-6e" d="M 3513 2113 
L 3513 0 
L 2938 0 
L 2938 2094 
Q 2938 2591 2744 2837 
Q 2550 3084 2163 3084 
Q 1697 3084 1428 2787 
Q 1159 2491 1159 1978 
L 1159 0 
L 581 0 
L 581 3500 
L 1159 3500 
L 1159 2956 
Q 1366 3272 1645 3428 
Q 1925 3584 2291 3584 
Q 2894 3584 3203 3211 
Q 3513 2838 3513 2113 
z
" transform="scale(0.015625)"/>
       <path id="DejaVuSans-72" d="M 2631 2963 
Q 2534 3019 2420 3045 
Q 2306 3072 2169 3072 
Q 1681 3072 1420 2755 
Q 1159 2438 1159 1844 
L 1159 0 
L 581 0 
L 581 3500 
L 1159 3500 
L 1159 2956 
Q 1341 3275 1631 3429 
Q 1922 3584 2338 3584 
Q 2397 3584 2469 3576 
Q 2541 3569 2628 3553 
L 2631 2963 
z
" transform="scale(0.015625)"/>
       <path id="DejaVuSans-61" d="M 2194 1759 
Q 1497 1759 1228 1600 
Q 959 1441 959 1056 
Q 959 750 1161 570 
Q 1363 391 1709 391 
Q 2188 391 2477 730 
Q 2766 1069 2766 1631 
L 2766 1759 
L 2194 1759 
z
M 3341 1997 
L 3341 0 
L 2766 0 
L 2766 531 
Q 2569 213 2275 61 
Q 1981 -91 1556 -91 
Q 1019 -91 701 211 
Q 384 513 384 1019 
Q 384 1609 779 1909 
Q 1175 2209 1959 2209 
L 2766 2209 
L 2766 2266 
Q 2766 2663 2505 2880 
Q 2244 3097 1772 3097 
Q 1472 3097 1187 3025 
Q 903 2953 641 2809 
L 641 3341 
Q 956 3463 1253 3523 
Q 1550 3584 1831 3584 
Q 2591 3584 2966 3190 
Q 3341 2797 3341 1997 
z
" transform="scale(0.015625)"/>
       <path id="DejaVuSans-74" d="M 1172 4494 
L 1172 3500 
L 2356 3500 
L 2356 3053 
L 1172 3053 
L 1172 1153 
Q 1172 725 1289 603 
Q 1406 481 1766 481 
L 2356 481 
L 2356 0 
L 1766 0 
Q 1100 0 847 248 
Q 594 497 594 1153 
L 594 3053 
L 172 3053 
L 172 3500 
L 594 3500 
L 594 4494 
L 1172 4494 
z
" transform="scale(0.015625)"/>
       <path id="DejaVuSans-69" d="M 603 3500 
L 1178 3500 
L 1178 0 
L 603 0 
L 603 3500 
z
M 603 4863 
L 1178 4863 
L 1178 4134 
L 603 4134 
L 603 4863 
z
" transform="scale(0.015625)"/>
       <path id="DejaVuSans-6f" d="M 1959 3097 
Q 1497 3097 1228 2736 
Q 959 2375 959 1747 
Q 959 1119 1226 758 
Q 1494 397 1959 397 
Q 2419 397 2687 759 
Q 2956 1122 2956 1747 
Q 2956 2369 2687 2733 
Q 2419 3097 1959 3097 
z
M 1959 3584 
Q 2709 3584 3137 3096 
Q 3566 2609 3566 1747 
Q 3566 888 3137 398 
Q 2709 -91 1959 -91 
Q 1206 -91 779 398 
Q 353 888 353 1747 
Q 353 2609 779 3096 
Q 1206 3584 1959 3584 
z
" transform="scale(0.015625)"/>
      </defs>
      <use xlink:href="#DejaVuSans-47"/>
      <use xlink:href="#DejaVuSans-65" x="77.490234"/>
      <use xlink:href="#DejaVuSans-6e" x="139.013672"/>
      <use xlink:href="#DejaVuSans-65" x="202.392578"/>
      <use xlink:href="#DejaVuSans-72" x="263.916016"/>
      <use xlink:href="#DejaVuSans-61" x="305.029297"/>
      <use xlink:href="#DejaVuSans-74" x="366.308594"/>
      <use xlink:href="#DejaVuSans-69" x="405.517578"/>
      <use xlink:href="#DejaVuSans-6f" x="433.300781"/>
      <use xlink:href="#DejaVuSans-6e" x="494.482422"/>
     </g>
    </g>
   </g>
   <g id="matplotlib.axis_2">
    <g id="ytick_1">
     <g id="line2d_11">
      <path d="M 57.6 279.027908 
L 414.72 279.027908 
" clip-path="url(#p6b75616fd6)" style="fill: none; stroke: #808080; stroke-width: 0.25; stroke-linecap: square"/>
     </g>
     <g id="line2d_12">
      <defs>
       <path id="m08090eca42" d="M 0 0 
L -3.5 0 
" style="stroke: #000000; stroke-width: 0.8"/>
      </defs>
      <g>
       <use xlink:href="#m08090eca42" x="57.6" y="279.027908" style="stroke: #000000; stroke-width: 0.8"/>
      </g>
     </g>
     <g id="text_7">
      <!-- −11.5 -->
      <g transform="translate(19.954687 282.827127) scale(0.1 -0.1)">
       <defs>
        <path id="DejaVuSans-2212" d="M 678 2272 
L 4684 2272 
L 4684 1741 
L 678 1741 
L 678 2272 
z
" transform="scale(0.015625)"/>
        <path id="DejaVuSans-2e" d="M 684 794 
L 1344 794 
L 1344 0 
L 684 0 
L 684 794 
z
" transform="scale(0.015625)"/>
        <path id="DejaVuSans-35" d="M 691 4666 
L 3169 4666 
L 3169 4134 
L 1269 4134 
L 1269 2991 
Q 1406 3038 1543 3061 
Q 1681 3084 1819 3084 
Q 2600 3084 3056 2656 
Q 3513 2228 3513 1497 
Q 3513 744 3044 326 
Q 2575 -91 1722 -91 
Q 1428 -91 1123 -41 
Q 819 9 494 109 
L 494 744 
Q 775 591 1075 516 
Q 1375 441 1709 441 
Q 2250 441 2565 725 
Q 2881 1009 2881 1497 
Q 2881 1984 2565 2268 
Q 2250 2553 1709 2553 
Q 1456 2553 1204 2497 
Q 953 2441 691 2322 
L 691 4666 
z
" transform="scale(0.015625)"/>
       </defs>
       <use xlink:href="#DejaVuSans-2212"/>
       <use xlink:href="#DejaVuSans-31" x="83.789062"/>
       <use xlink:href="#DejaVuSans-31" x="147.412109"/>
       <use xlink:href="#DejaVuSans-2e" x="211.035156"/>
       <use xlink:href="#DejaVuSans-35" x="242.822266"/>
      </g>
     </g>
    </g>
    <g id="ytick_2">
     <g id="line2d_13">
      <path d="M 57.6 241.849452 
L 414.72 241.849452 
" clip-path="url(#p6b75616fd6)" style="fill: none; stroke: #808080; stroke-width: 0.25; stroke-linecap: square"/>
     </g>
     <g id="line2d_14">
      <g>
       <use xlink:href="#m08090eca42" x="57.6" y="241.849452" style="stroke: #000000; stroke-width: 0.8"/>
      </g>
     </g>
     <g id="text_8">
      <!-- −11.0 -->
      <g transform="translate(19.954687 245.648671) scale(0.1 -0.1)">
       <use xlink:href="#DejaVuSans-2212"/>
       <use xlink:href="#DejaVuSans-31" x="83.789062"/>
       <use xlink:href="#DejaVuSans-31" x="147.412109"/>
       <use xlink:href="#DejaVuSans-2e" x="211.035156"/>
       <use xlink:href="#DejaVuSans-30" x="242.822266"/>
      </g>
     </g>
    </g>
    <g id="ytick_3">
     <g id="line2d_15">
      <path d="M 57.6 204.670996 
L 414.72 204.670996 
" clip-path="url(#p6b75616fd6)" style="fill: none; stroke: #808080; stroke-width: 0.25; stroke-linecap: square"/>
     </g>
     <g id="line2d_16">
      <g>
       <use xlink:href="#m08090eca42" x="57.6" y="204.670996" style="stroke: #000000; stroke-width: 0.8"/>
      </g>
     </g>
     <g id="text_9">
      <!-- −10.5 -->
      <g transform="translate(19.954687 208.470215) scale(0.1 -0.1)">
       <use xlink:href="#DejaVuSans-2212"/>
       <use xlink:href="#DejaVuSans-31" x="83.789062"/>
       <use xlink:href="#DejaVuSans-30" x="147.412109"/>
       <use xlink:href="#DejaVuSans-2e" x="211.035156"/>
       <use xlink:href="#DejaVuSans-35" x="242.822266"/>
      </g>
     </g>
    </g>
    <g id="ytick_4">
     <g id="line2d_17">
      <path d="M 57.6 167.492541 
L 414.72 167.492541 
" clip-path="url(#p6b75616fd6)" style="fill: none; stroke: #808080; stroke-width: 0.25; stroke-linecap: square"/>
     </g>
     <g id="line2d_18">
      <g>
       <use xlink:href="#m08090eca42" x="57.6" y="167.492541" style="stroke: #000000; stroke-width: 0.8"/>
      </g>
     </g>
     <g id="text_10">
      <!-- −10.0 -->
      <g transform="translate(19.954687 171.291759) scale(0.1 -0.1)">
       <use xlink:href="#DejaVuSans-2212"/>
       <use xlink:href="#DejaVuSans-31" x="83.789062"/>
       <use xlink:href="#DejaVuSans-30" x="147.412109"/>
       <use xlink:href="#DejaVuSans-2e" x="211.035156"/>
       <use xlink:href="#DejaVuSans-30" x="242.822266"/>
      </g>
     </g>
    </g>
    <g id="ytick_5">
     <g id="line2d_19">
      <path d="M 57.6 130.314085 
L 414.72 130.314085 
" clip-path="url(#p6b75616fd6)" style="fill: none; stroke: #808080; stroke-width: 0.25; stroke-linecap: square"/>
     </g>
     <g id="line2d_20">
      <g>
       <use xlink:href="#m08090eca42" x="57.6" y="130.314085" style="stroke: #000000; stroke-width: 0.8"/>
      </g>
     </g>
     <g id="text_11">
      <!-- −9.5 -->
      <g transform="translate(26.317187 134.113304) scale(0.1 -0.1)">
       <defs>
        <path id="DejaVuSans-39" d="M 703 97 
L 703 672 
Q 941 559 1184 500 
Q 1428 441 1663 441 
Q 2288 441 2617 861 
Q 2947 1281 2994 2138 
Q 2813 1869 2534 1725 
Q 2256 1581 1919 1581 
Q 1219 1581 811 2004 
Q 403 2428 403 3163 
Q 403 3881 828 4315 
Q 1253 4750 1959 4750 
Q 2769 4750 3195 4129 
Q 3622 3509 3622 2328 
Q 3622 1225 3098 567 
Q 2575 -91 1691 -91 
Q 1453 -91 1209 -44 
Q 966 3 703 97 
z
M 1959 2075 
Q 2384 2075 2632 2365 
Q 2881 2656 2881 3163 
Q 2881 3666 2632 3958 
Q 2384 4250 1959 4250 
Q 1534 4250 1286 3958 
Q 1038 3666 1038 3163 
Q 1038 2656 1286 2365 
Q 1534 2075 1959 2075 
z
" transform="scale(0.015625)"/>
       </defs>
       <use xlink:href="#DejaVuSans-2212"/>
       <use xlink:href="#DejaVuSans-39" x="83.789062"/>
       <use xlink:href="#DejaVuSans-2e" x="147.412109"/>
       <use xlink:href="#DejaVuSans-35" x="179.199219"/>
      </g>
     </g>
    </g>
    <g id="ytick_6">
     <g id="line2d_21">
      <path d="M 57.6 93.135629 
L 414.72 93.135629 
" clip-path="url(#p6b75616fd6)" style="fill: none; stroke: #808080; stroke-width: 0.25; stroke-linecap: square"/>
     </g>
     <g id="line2d_22">
      <g>
       <use xlink:href="#m08090eca42" x="57.6" y="93.135629" style="stroke: #000000; stroke-width: 0.8"/>
      </g>
     </g>
     <g id="text_12">
      <!-- −9.0 -->
      <g transform="translate(26.317187 96.934848) scale(0.1 -0.1)">
       <use xlink:href="#DejaVuSans-2212"/>
       <use xlink:href="#DejaVuSans-39" x="83.789062"/>
       <use xlink:href="#DejaVuSans-2e" x="147.412109"/>
       <use xlink:href="#DejaVuSans-30" x="179.199219"/>
      </g>
     </g>
    </g>
    <g id="ytick_7">
     <g id="line2d_23">
      <path d="M 57.6 55.957173 
L 414.72 55.957173 
" clip-path="url(#p6b75616fd6)" style="fill: none; stroke: #808080; stroke-width: 0.25; stroke-linecap: square"/>
     </g>
     <g id="line2d_24">
      <g>
       <use xlink:href="#m08090eca42" x="57.6" y="55.957173" style="stroke: #000000; stroke-width: 0.8"/>
      </g>
     </g>
     <g id="text_13">
      <!-- −8.5 -->
      <g transform="translate(26.317187 59.756392) scale(0.1 -0.1)">
       <use xlink:href="#DejaVuSans-2212"/>
       <use xlink:href="#DejaVuSans-38" x="83.789062"/>
       <use xlink:href="#DejaVuSans-2e" x="147.412109"/>
       <use xlink:href="#DejaVuSans-35" x="179.199219"/>
      </g>
     </g>
    </g>
    <g id="text_14">
     <!-- 6y2f score -->
     <g transform="translate(13.459062 205.852688) rotate(-90) scale(0.12 -0.12)">
      <defs>
       <path id="DejaVuSans-79" d="M 2059 -325 
Q 1816 -950 1584 -1140 
Q 1353 -1331 966 -1331 
L 506 -1331 
L 506 -850 
L 844 -850 
Q 1081 -850 1212 -737 
Q 1344 -625 1503 -206 
L 1606 56 
L 191 3500 
L 800 3500 
L 1894 763 
L 2988 3500 
L 3597 3500 
L 2059 -325 
z
" transform="scale(0.015625)"/>
       <path id="DejaVuSans-66" d="M 2375 4863 
L 2375 4384 
L 1825 4384 
Q 1516 4384 1395 4259 
Q 1275 4134 1275 3809 
L 1275 3500 
L 2222 3500 
L 2222 3053 
L 1275 3053 
L 1275 0 
L 697 0 
L 697 3053 
L 147 3053 
L 147 3500 
L 697 3500 
L 697 3744 
Q 697 4328 969 4595 
Q 1241 4863 1831 4863 
L 2375 4863 
z
" transform="scale(0.015625)"/>
       <path id="DejaVuSans-20" transform="scale(0.015625)"/>
       <path id="DejaVuSans-73" d="M 2834 3397 
L 2834 2853 
Q 2591 2978 2328 3040 
Q 2066 3103 1784 3103 
Q 1356 3103 1142 2972 
Q 928 2841 928 2578 
Q 928 2378 1081 2264 
Q 1234 2150 1697 2047 
L 1894 2003 
Q 2506 1872 2764 1633 
Q 3022 1394 3022 966 
Q 3022 478 2636 193 
Q 2250 -91 1575 -91 
Q 1294 -91 989 -36 
Q 684 19 347 128 
L 347 722 
Q 666 556 975 473 
Q 1284 391 1588 391 
Q 1994 391 2212 530 
Q 2431 669 2431 922 
Q 2431 1156 2273 1281 
Q 2116 1406 1581 1522 
L 1381 1569 
Q 847 1681 609 1914 
Q 372 2147 372 2553 
Q 372 3047 722 3315 
Q 1072 3584 1716 3584 
Q 2034 3584 2315 3537 
Q 2597 3491 2834 3397 
z
" transform="scale(0.015625)"/>
       <path id="DejaVuSans-63" d="M 3122 3366 
L 3122 2828 
Q 2878 2963 2633 3030 
Q 2388 3097 2138 3097 
Q 1578 3097 1268 2742 
Q 959 2388 959 1747 
Q 959 1106 1268 751 
Q 1578 397 2138 397 
Q 2388 397 2633 464 
Q 2878 531 3122 666 
L 3122 134 
Q 2881 22 2623 -34 
Q 2366 -91 2075 -91 
Q 1284 -91 818 406 
Q 353 903 353 1747 
Q 353 2603 823 3093 
Q 1294 3584 2113 3584 
Q 2378 3584 2631 3529 
Q 2884 3475 3122 3366 
z
" transform="scale(0.015625)"/>
      </defs>
      <use xlink:href="#DejaVuSans-36"/>
      <use xlink:href="#DejaVuSans-79" x="63.623047"/>
      <use xlink:href="#DejaVuSans-32" x="122.802734"/>
      <use xlink:href="#DejaVuSans-66" x="186.425781"/>
      <use xlink:href="#DejaVuSans-20" x="221.630859"/>
      <use xlink:href="#DejaVuSans-73" x="253.417969"/>
      <use xlink:href="#DejaVuSans-63" x="305.517578"/>
      <use xlink:href="#DejaVuSans-6f" x="360.498047"/>
      <use xlink:href="#DejaVuSans-72" x="421.679688"/>
      <use xlink:href="#DejaVuSans-65" x="460.542969"/>
     </g>
    </g>
   </g>
   <g id="line2d_25">
    <path d="M 73.832727 217.658618 
L 109.905455 235.844285 
L 145.978182 244.663006 
L 182.050909 250.969671 
L 218.123636 258.7394 
L 254.196364 264.993405 
L 290.269091 270.683003 
L 326.341818 275.965012 
L 362.414545 281.547658 
L 398.487273 284.932833 
" clip-path="url(#p6b75616fd6)" style="fill: none; stroke: #ff0000; stroke-width: 1.5; stroke-linecap: square"/>
   </g>
   <g id="line2d_26">
    <path d="M 73.832727 204.096937 
L 109.905455 221.922989 
L 145.978182 231.03141 
L 182.050909 236.655115 
L 218.123636 245.513298 
L 254.196364 252.803336 
L 290.269091 258.077216 
L 326.341818 263.132628 
L 362.414545 270.034134 
L 398.487273 274.377666 
" clip-path="url(#p6b75616fd6)" style="fill: none; stroke: #ff0000; stroke-opacity: 0.25; stroke-width: 0.1; stroke-linecap: square"/>
   </g>
   <g id="line2d_27">
    <path d="M 73.832727 231.220299 
L 109.905455 249.765581 
L 145.978182 258.294603 
L 182.050909 265.284228 
L 218.123636 271.965502 
L 254.196364 277.183474 
L 290.269091 283.28879 
L 326.341818 288.797396 
L 362.414545 293.061183 
L 398.487273 295.488 
" clip-path="url(#p6b75616fd6)" style="fill: none; stroke: #ff0000; stroke-opacity: 0.25; stroke-width: 0.1; stroke-linecap: square"/>
   </g>
   <g id="line2d_28">
    <path d="M 73.832727 138.741201 
L 109.905455 157.082573 
L 145.978182 136.262638 
L 182.050909 135.766925 
L 218.123636 135.766925 
L 254.196364 148.655456 
L 290.269091 159.561137 
L 326.341818 165.50969 
L 362.414545 155.099722 
L 398.487273 147.664031 
" clip-path="url(#p6b75616fd6)" style="fill: none; stroke: #ffa500; stroke-width: 1.5; stroke-linecap: square"/>
   </g>
   <g id="line2d_29">
    <path d="M 73.832727 104.139719 
L 109.905455 127.323415 
L 145.978182 121.130302 
L 182.050909 109.523527 
L 218.123636 101.002135 
L 254.196364 130.118567 
L 290.269091 142.525504 
L 326.341818 142.03286 
L 362.414545 130.56123 
L 398.487273 118.354636 
" clip-path="url(#p6b75616fd6)" style="fill: none; stroke: #ffa500; stroke-opacity: 0.25; stroke-width: 0.1; stroke-linecap: square"/>
   </g>
   <g id="line2d_30">
    <path d="M 73.832727 173.342684 
L 109.905455 186.841731 
L 145.978182 151.394974 
L 182.050909 162.010323 
L 218.123636 170.531715 
L 254.196364 167.192345 
L 290.269091 176.596769 
L 326.341818 188.98652 
L 362.414545 179.638214 
L 398.487273 176.973426 
" clip-path="url(#p6b75616fd6)" style="fill: none; stroke: #ffa500; stroke-opacity: 0.25; stroke-width: 0.1; stroke-linecap: square"/>
   </g>
   <g id="line2d_31">
    <path d="M 73.832727 154.913742 
L 109.905455 174.657718 
L 145.978182 196.862216 
L 182.050909 211.226489 
L 218.123636 213.740625 
L 254.196364 215.531282 
L 290.269091 223.737671 
L 326.341818 223.545522 
L 362.414545 226.040051 
L 398.487273 232.517233 
" clip-path="url(#p6b75616fd6)" style="fill: none; stroke: #008000; stroke-width: 1.5; stroke-linecap: square"/>
   </g>
   <g id="line2d_32">
    <path d="M 73.832727 129.141317 
L 109.905455 141.277584 
L 145.978182 184.721137 
L 182.050909 192.407409 
L 218.123636 195.26704 
L 254.196364 196.434994 
L 290.269091 206.194695 
L 326.341818 210.111303 
L 362.414545 211.21865 
L 398.487273 216.117459 
" clip-path="url(#p6b75616fd6)" style="fill: none; stroke: #008000; stroke-opacity: 0.25; stroke-width: 0.1; stroke-linecap: square"/>
   </g>
   <g id="line2d_33">
    <path d="M 73.832727 180.686167 
L 109.905455 208.037852 
L 145.978182 209.003295 
L 182.050909 230.045569 
L 218.123636 232.21421 
L 254.196364 234.62757 
L 290.269091 241.280647 
L 326.341818 236.979741 
L 362.414545 240.861451 
L 398.487273 248.917007 
" clip-path="url(#p6b75616fd6)" style="fill: none; stroke: #008000; stroke-opacity: 0.25; stroke-width: 0.1; stroke-linecap: square"/>
   </g>
   <g id="line2d_34">
    <path d="M 73.832727 83.717087 
L 109.905455 95.11848 
L 145.978182 106.519873 
L 182.050909 132.296936 
L 218.123636 110.485575 
L 254.196364 125.356957 
L 290.269091 109.600374 
L 326.341818 114.870726 
L 362.414545 106.94477 
L 398.487273 135.766925 
" clip-path="url(#p6b75616fd6)" style="fill: none; stroke: #0000ff; stroke-width: 1.5; stroke-linecap: square"/>
   </g>
   <g id="line2d_35">
    <path d="M 73.832727 54.901882 
L 109.905455 53.568 
L 145.978182 79.080705 
L 182.050909 105.481664 
L 218.123636 77.445155 
L 254.196364 98.458833 
L 290.269091 81.202832 
L 326.341818 79.25598 
L 362.414545 70.049943 
L 398.487273 98.912046 
" clip-path="url(#p6b75616fd6)" style="fill: none; stroke: #0000ff; stroke-opacity: 0.25; stroke-width: 0.1; stroke-linecap: square"/>
   </g>
   <g id="line2d_36">
    <path d="M 73.832727 112.532292 
L 109.905455 136.66896 
L 145.978182 133.959042 
L 182.050909 159.112208 
L 218.123636 143.525995 
L 254.196364 152.255082 
L 290.269091 137.997915 
L 326.341818 150.485473 
L 362.414545 143.839597 
L 398.487273 172.621804 
" clip-path="url(#p6b75616fd6)" style="fill: none; stroke: #0000ff; stroke-opacity: 0.25; stroke-width: 0.1; stroke-linecap: square"/>
   </g>
   <g id="patch_3">
    <path d="M 57.6 307.584 
L 57.6 41.472 
" style="fill: none; stroke: #000000; stroke-width: 0.8; stroke-linejoin: miter; stroke-linecap: square"/>
   </g>
   <g id="patch_4">
    <path d="M 414.72 307.584 
L 414.72 41.472 
" style="fill: none; stroke: #000000; stroke-width: 0.8; stroke-linejoin: miter; stroke-linecap: square"/>
   </g>
   <g id="patch_5">
    <path d="M 57.6 307.584 
L 414.72 307.584 
" style="fill: none; stroke: #000000; stroke-width: 0.8; stroke-linejoin: miter; stroke-linecap: square"/>
   </g>
   <g id="patch_6">
    <path d="M 57.6 41.472 
L 414.72 41.472 
" style="fill: none; stroke: #000000; stroke-width: 0.8; stroke-linejoin: miter; stroke-linecap: square"/>
   </g>
   <g id="legend_1">
    <g id="patch_7">
     <path d="M 246.195 102.5145 
L 408.42 102.5145 
Q 410.22 102.5145 410.22 100.7145 
L 410.22 47.772 
Q 410.22 45.972 408.42 45.972 
L 246.195 45.972 
Q 244.395 45.972 244.395 47.772 
L 244.395 100.7145 
Q 244.395 102.5145 246.195 102.5145 
z
" style="fill: #ffffff; opacity: 0.8; stroke: #cccccc; stroke-linejoin: miter"/>
    </g>
    <g id="line2d_37">
     <path d="M 247.995 53.260594 
L 256.995 53.260594 
L 265.995 53.260594 
" style="fill: none; stroke: #ff0000; stroke-width: 1.5; stroke-linecap: square"/>
    </g>
    <g id="text_15">
     <!-- janus_scaler (surrogate) -->
     <g transform="translate(273.195 56.410594) scale(0.09 -0.09)">
      <defs>
       <path id="DejaVuSans-6a" d="M 603 3500 
L 1178 3500 
L 1178 -63 
Q 1178 -731 923 -1031 
Q 669 -1331 103 -1331 
L -116 -1331 
L -116 -844 
L 38 -844 
Q 366 -844 484 -692 
Q 603 -541 603 -63 
L 603 3500 
z
M 603 4863 
L 1178 4863 
L 1178 4134 
L 603 4134 
L 603 4863 
z
" transform="scale(0.015625)"/>
       <path id="DejaVuSans-75" d="M 544 1381 
L 544 3500 
L 1119 3500 
L 1119 1403 
Q 1119 906 1312 657 
Q 1506 409 1894 409 
Q 2359 409 2629 706 
Q 2900 1003 2900 1516 
L 2900 3500 
L 3475 3500 
L 3475 0 
L 2900 0 
L 2900 538 
Q 2691 219 2414 64 
Q 2138 -91 1772 -91 
Q 1169 -91 856 284 
Q 544 659 544 1381 
z
M 1991 3584 
L 1991 3584 
z
" transform="scale(0.015625)"/>
       <path id="DejaVuSans-5f" d="M 3263 -1063 
L 3263 -1509 
L -63 -1509 
L -63 -1063 
L 3263 -1063 
z
" transform="scale(0.015625)"/>
       <path id="DejaVuSans-6c" d="M 603 4863 
L 1178 4863 
L 1178 0 
L 603 0 
L 603 4863 
z
" transform="scale(0.015625)"/>
       <path id="DejaVuSans-28" d="M 1984 4856 
Q 1566 4138 1362 3434 
Q 1159 2731 1159 2009 
Q 1159 1288 1364 580 
Q 1569 -128 1984 -844 
L 1484 -844 
Q 1016 -109 783 600 
Q 550 1309 550 2009 
Q 550 2706 781 3412 
Q 1013 4119 1484 4856 
L 1984 4856 
z
" transform="scale(0.015625)"/>
       <path id="DejaVuSans-67" d="M 2906 1791 
Q 2906 2416 2648 2759 
Q 2391 3103 1925 3103 
Q 1463 3103 1205 2759 
Q 947 2416 947 1791 
Q 947 1169 1205 825 
Q 1463 481 1925 481 
Q 2391 481 2648 825 
Q 2906 1169 2906 1791 
z
M 3481 434 
Q 3481 -459 3084 -895 
Q 2688 -1331 1869 -1331 
Q 1566 -1331 1297 -1286 
Q 1028 -1241 775 -1147 
L 775 -588 
Q 1028 -725 1275 -790 
Q 1522 -856 1778 -856 
Q 2344 -856 2625 -561 
Q 2906 -266 2906 331 
L 2906 616 
Q 2728 306 2450 153 
Q 2172 0 1784 0 
Q 1141 0 747 490 
Q 353 981 353 1791 
Q 353 2603 747 3093 
Q 1141 3584 1784 3584 
Q 2172 3584 2450 3431 
Q 2728 3278 2906 2969 
L 2906 3500 
L 3481 3500 
L 3481 434 
z
" transform="scale(0.015625)"/>
       <path id="DejaVuSans-29" d="M 513 4856 
L 1013 4856 
Q 1481 4119 1714 3412 
Q 1947 2706 1947 2009 
Q 1947 1309 1714 600 
Q 1481 -109 1013 -844 
L 513 -844 
Q 928 -128 1133 580 
Q 1338 1288 1338 2009 
Q 1338 2731 1133 3434 
Q 928 4138 513 4856 
z
" transform="scale(0.015625)"/>
      </defs>
      <use xlink:href="#DejaVuSans-6a"/>
      <use xlink:href="#DejaVuSans-61" x="27.783203"/>
      <use xlink:href="#DejaVuSans-6e" x="89.0625"/>
      <use xlink:href="#DejaVuSans-75" x="152.441406"/>
      <use xlink:href="#DejaVuSans-73" x="215.820312"/>
      <use xlink:href="#DejaVuSans-5f" x="267.919922"/>
      <use xlink:href="#DejaVuSans-73" x="317.919922"/>
      <use xlink:href="#DejaVuSans-63" x="370.019531"/>
      <use xlink:href="#DejaVuSans-61" x="425"/>
      <use xlink:href="#DejaVuSans-6c" x="486.279297"/>
      <use xlink:href="#DejaVuSans-65" x="514.0625"/>
      <use xlink:href="#DejaVuSans-72" x="575.585938"/>
      <use xlink:href="#DejaVuSans-20" x="616.699219"/>
      <use xlink:href="#DejaVuSans-28" x="648.486328"/>
      <use xlink:href="#DejaVuSans-73" x="687.5"/>
      <use xlink:href="#DejaVuSans-75" x="739.599609"/>
      <use xlink:href="#DejaVuSans-72" x="802.978516"/>
      <use xlink:href="#DejaVuSans-72" x="842.341797"/>
      <use xlink:href="#DejaVuSans-6f" x="881.205078"/>
      <use xlink:href="#DejaVuSans-67" x="942.386719"/>
      <use xlink:href="#DejaVuSans-61" x="1005.863281"/>
      <use xlink:href="#DejaVuSans-74" x="1067.142578"/>
      <use xlink:href="#DejaVuSans-65" x="1106.351562"/>
      <use xlink:href="#DejaVuSans-29" x="1167.875"/>
     </g>
    </g>
    <g id="line2d_38">
     <path d="M 247.995 66.721219 
L 256.995 66.721219 
L 265.995 66.721219 
" style="fill: none; stroke: #ffa500; stroke-width: 1.5; stroke-linecap: square"/>
    </g>
    <g id="text_16">
     <!-- janus_scaler (actual) -->
     <g transform="translate(273.195 69.871219) scale(0.09 -0.09)">
      <use xlink:href="#DejaVuSans-6a"/>
      <use xlink:href="#DejaVuSans-61" x="27.783203"/>
      <use xlink:href="#DejaVuSans-6e" x="89.0625"/>
      <use xlink:href="#DejaVuSans-75" x="152.441406"/>
      <use xlink:href="#DejaVuSans-73" x="215.820312"/>
      <use xlink:href="#DejaVuSans-5f" x="267.919922"/>
      <use xlink:href="#DejaVuSans-73" x="317.919922"/>
      <use xlink:href="#DejaVuSans-63" x="370.019531"/>
      <use xlink:href="#DejaVuSans-61" x="425"/>
      <use xlink:href="#DejaVuSans-6c" x="486.279297"/>
      <use xlink:href="#DejaVuSans-65" x="514.0625"/>
      <use xlink:href="#DejaVuSans-72" x="575.585938"/>
      <use xlink:href="#DejaVuSans-20" x="616.699219"/>
      <use xlink:href="#DejaVuSans-28" x="648.486328"/>
      <use xlink:href="#DejaVuSans-61" x="687.5"/>
      <use xlink:href="#DejaVuSans-63" x="748.779297"/>
      <use xlink:href="#DejaVuSans-74" x="803.759766"/>
      <use xlink:href="#DejaVuSans-75" x="842.96875"/>
      <use xlink:href="#DejaVuSans-61" x="906.347656"/>
      <use xlink:href="#DejaVuSans-6c" x="967.626953"/>
      <use xlink:href="#DejaVuSans-29" x="995.410156"/>
     </g>
    </g>
    <g id="line2d_39">
     <path d="M 247.995 80.181844 
L 256.995 80.181844 
L 265.995 80.181844 
" style="fill: none; stroke: #008000; stroke-width: 1.5; stroke-linecap: square"/>
    </g>
    <g id="text_17">
     <!-- janus_uncertainty (surrogate) -->
     <g transform="translate(273.195 83.331844) scale(0.09 -0.09)">
      <use xlink:href="#DejaVuSans-6a"/>
      <use xlink:href="#DejaVuSans-61" x="27.783203"/>
      <use xlink:href="#DejaVuSans-6e" x="89.0625"/>
      <use xlink:href="#DejaVuSans-75" x="152.441406"/>
      <use xlink:href="#DejaVuSans-73" x="215.820312"/>
      <use xlink:href="#DejaVuSans-5f" x="267.919922"/>
      <use xlink:href="#DejaVuSans-75" x="317.919922"/>
      <use xlink:href="#DejaVuSans-6e" x="381.298828"/>
      <use xlink:href="#DejaVuSans-63" x="444.677734"/>
      <use xlink:href="#DejaVuSans-65" x="499.658203"/>
      <use xlink:href="#DejaVuSans-72" x="561.181641"/>
      <use xlink:href="#DejaVuSans-74" x="602.294922"/>
      <use xlink:href="#DejaVuSans-61" x="641.503906"/>
      <use xlink:href="#DejaVuSans-69" x="702.783203"/>
      <use xlink:href="#DejaVuSans-6e" x="730.566406"/>
      <use xlink:href="#DejaVuSans-74" x="793.945312"/>
      <use xlink:href="#DejaVuSans-79" x="833.154297"/>
      <use xlink:href="#DejaVuSans-20" x="892.333984"/>
      <use xlink:href="#DejaVuSans-28" x="924.121094"/>
      <use xlink:href="#DejaVuSans-73" x="963.134766"/>
      <use xlink:href="#DejaVuSans-75" x="1015.234375"/>
      <use xlink:href="#DejaVuSans-72" x="1078.613281"/>
      <use xlink:href="#DejaVuSans-72" x="1117.976562"/>
      <use xlink:href="#DejaVuSans-6f" x="1156.839844"/>
      <use xlink:href="#DejaVuSans-67" x="1218.021484"/>
      <use xlink:href="#DejaVuSans-61" x="1281.498047"/>
      <use xlink:href="#DejaVuSans-74" x="1342.777344"/>
      <use xlink:href="#DejaVuSans-65" x="1381.986328"/>
      <use xlink:href="#DejaVuSans-29" x="1443.509766"/>
     </g>
    </g>
    <g id="line2d_40">
     <path d="M 247.995 93.642469 
L 256.995 93.642469 
L 265.995 93.642469 
" style="fill: none; stroke: #0000ff; stroke-width: 1.5; stroke-linecap: square"/>
    </g>
    <g id="text_18">
     <!-- janus_uncertainty (actual) -->
     <g transform="translate(273.195 96.792469) scale(0.09 -0.09)">
      <use xlink:href="#DejaVuSans-6a"/>
      <use xlink:href="#DejaVuSans-61" x="27.783203"/>
      <use xlink:href="#DejaVuSans-6e" x="89.0625"/>
      <use xlink:href="#DejaVuSans-75" x="152.441406"/>
      <use xlink:href="#DejaVuSans-73" x="215.820312"/>
      <use xlink:href="#DejaVuSans-5f" x="267.919922"/>
      <use xlink:href="#DejaVuSans-75" x="317.919922"/>
      <use xlink:href="#DejaVuSans-6e" x="381.298828"/>
      <use xlink:href="#DejaVuSans-63" x="444.677734"/>
      <use xlink:href="#DejaVuSans-65" x="499.658203"/>
      <use xlink:href="#DejaVuSans-72" x="561.181641"/>
      <use xlink:href="#DejaVuSans-74" x="602.294922"/>
      <use xlink:href="#DejaVuSans-61" x="641.503906"/>
      <use xlink:href="#DejaVuSans-69" x="702.783203"/>
      <use xlink:href="#DejaVuSans-6e" x="730.566406"/>
      <use xlink:href="#DejaVuSans-74" x="793.945312"/>
      <use xlink:href="#DejaVuSans-79" x="833.154297"/>
      <use xlink:href="#DejaVuSans-20" x="892.333984"/>
      <use xlink:href="#DejaVuSans-28" x="924.121094"/>
      <use xlink:href="#DejaVuSans-61" x="963.134766"/>
      <use xlink:href="#DejaVuSans-63" x="1024.414062"/>
      <use xlink:href="#DejaVuSans-74" x="1079.394531"/>
      <use xlink:href="#DejaVuSans-75" x="1118.603516"/>
      <use xlink:href="#DejaVuSans-61" x="1181.982422"/>
      <use xlink:href="#DejaVuSans-6c" x="1243.261719"/>
      <use xlink:href="#DejaVuSans-29" x="1271.044922"/>
     </g>
    </g>
   </g>
  </g>
 </g>
 <defs>
  <clipPath id="p6b75616fd6">
   <rect x="57.6" y="41.472" width="357.12" height="266.112"/>
  </clipPath>
 </defs>
</svg>
