<?xml version="1.0" encoding="utf-8" standalone="no"?>
<!DOCTYPE svg PUBLIC "-//W3C//DTD SVG 1.1//EN"
  "http://www.w3.org/Graphics/SVG/1.1/DTD/svg11.dtd">
<svg xmlns:xlink="http://www.w3.org/1999/xlink" width="648pt" height="432pt" viewBox="0 0 648 432" xmlns="http://www.w3.org/2000/svg" version="1.1">
 <metadata>
  <rdf:RDF xmlns:dc="http://purl.org/dc/elements/1.1/" xmlns:cc="http://creativecommons.org/ns#" xmlns:rdf="http://www.w3.org/1999/02/22-rdf-syntax-ns#">
   <cc:Work>
    <dc:type rdf:resource="http://purl.org/dc/dcmitype/StillImage"/>
    <dc:date>2024-02-07T23:15:48.947907</dc:date>
    <dc:format>image/svg+xml</dc:format>
    <dc:creator>
     <cc:Agent>
      <dc:title>Matplotlib v3.7.2, https://matplotlib.org/</dc:title>
     </cc:Agent>
    </dc:creator>
   </cc:Work>
  </rdf:RDF>
 </metadata>
 <defs>
  <style type="text/css">*{stroke-linejoin: round; stroke-linecap: butt}</style>
 </defs>
 <g id="figure_1">
  <g id="patch_1">
   <path d="M 0 432 
L 648 432 
L 648 0 
L 0 0 
z
" style="fill: #ffffff"/>
  </g>
  <g id="axes_1">
   <g id="patch_2">
    <path d="M 60.77 386.44 
L 637.2 386.44 
L 637.2 10.8 
L 60.77 10.8 
z
" style="fill: #ffffff"/>
   </g>
   <g id="patch_3">
    <path d="M 86.971364 386.44 
L 89.819338 386.44 
L 89.819338 386.129046 
L 86.971364 386.129046 
z
" clip-path="url(#p87ece0230b)" style="fill: #1f77b4"/>
   </g>
   <g id="patch_4">
    <path d="M 89.819338 386.44 
L 92.667312 386.44 
L 92.667312 386.44 
L 89.819338 386.44 
z
" clip-path="url(#p87ece0230b)" style="fill: #1f77b4"/>
   </g>
   <g id="patch_5">
    <path d="M 92.667312 386.44 
L 95.515287 386.44 
L 95.515287 386.44 
L 92.667312 386.44 
z
" clip-path="url(#p87ece0230b)" style="fill: #1f77b4"/>
   </g>
   <g id="patch_6">
    <path d="M 95.515287 386.44 
L 98.363261 386.44 
L 98.363261 386.284523 
L 95.515287 386.284523 
z
" clip-path="url(#p87ece0230b)" style="fill: #1f77b4"/>
   </g>
   <g id="patch_7">
    <path d="M 98.363261 386.44 
L 101.211235 386.44 
L 101.211235 386.44 
L 98.363261 386.44 
z
" clip-path="url(#p87ece0230b)" style="fill: #1f77b4"/>
   </g>
   <g id="patch_8">
    <path d="M 101.211235 386.44 
L 104.059209 386.44 
L 104.059209 386.44 
L 101.211235 386.44 
z
" clip-path="url(#p87ece0230b)" style="fill: #1f77b4"/>
   </g>
   <g id="patch_9">
    <path d="M 104.059209 386.44 
L 106.907184 386.44 
L 106.907184 386.284523 
L 104.059209 386.284523 
z
" clip-path="url(#p87ece0230b)" style="fill: #1f77b4"/>
   </g>
   <g id="patch_10">
    <path d="M 106.907184 386.44 
L 109.755158 386.44 
L 109.755158 386.284523 
L 106.907184 386.284523 
z
" clip-path="url(#p87ece0230b)" style="fill: #1f77b4"/>
   </g>
   <g id="patch_11">
    <path d="M 109.755158 386.44 
L 112.603132 386.44 
L 112.603132 386.129046 
L 109.755158 386.129046 
z
" clip-path="url(#p87ece0230b)" style="fill: #1f77b4"/>
   </g>
   <g id="patch_12">
    <path d="M 112.603132 386.44 
L 115.451107 386.44 
L 115.451107 386.44 
L 112.603132 386.44 
z
" clip-path="url(#p87ece0230b)" style="fill: #1f77b4"/>
   </g>
   <g id="patch_13">
    <path d="M 115.451107 386.44 
L 118.299081 386.44 
L 118.299081 386.44 
L 115.451107 386.44 
z
" clip-path="url(#p87ece0230b)" style="fill: #1f77b4"/>
   </g>
   <g id="patch_14">
    <path d="M 118.299081 386.44 
L 121.147055 386.44 
L 121.147055 386.44 
L 118.299081 386.44 
z
" clip-path="url(#p87ece0230b)" style="fill: #1f77b4"/>
   </g>
   <g id="patch_15">
    <path d="M 121.147055 386.44 
L 123.99503 386.44 
L 123.99503 386.284523 
L 121.147055 386.284523 
z
" clip-path="url(#p87ece0230b)" style="fill: #1f77b4"/>
   </g>
   <g id="patch_16">
    <path d="M 123.99503 386.44 
L 126.843004 386.44 
L 126.843004 386.284523 
L 123.99503 386.284523 
z
" clip-path="url(#p87ece0230b)" style="fill: #1f77b4"/>
   </g>
   <g id="patch_17">
    <path d="M 126.843004 386.44 
L 129.690978 386.44 
L 129.690978 386.284523 
L 126.843004 386.284523 
z
" clip-path="url(#p87ece0230b)" style="fill: #1f77b4"/>
   </g>
   <g id="patch_18">
    <path d="M 129.690978 386.44 
L 132.538953 386.44 
L 132.538953 386.44 
L 129.690978 386.44 
z
" clip-path="url(#p87ece0230b)" style="fill: #1f77b4"/>
   </g>
   <g id="patch_19">
    <path d="M 132.538953 386.44 
L 135.386927 386.44 
L 135.386927 386.44 
L 132.538953 386.44 
z
" clip-path="url(#p87ece0230b)" style="fill: #1f77b4"/>
   </g>
   <g id="patch_20">
    <path d="M 135.386927 386.44 
L 138.234901 386.44 
L 138.234901 386.129046 
L 135.386927 386.129046 
z
" clip-path="url(#p87ece0230b)" style="fill: #1f77b4"/>
   </g>
   <g id="patch_21">
    <path d="M 138.234901 386.44 
L 141.082875 386.44 
L 141.082875 386.129046 
L 138.234901 386.129046 
z
" clip-path="url(#p87ece0230b)" style="fill: #1f77b4"/>
   </g>
   <g id="patch_22">
    <path d="M 141.082875 386.44 
L 143.93085 386.44 
L 143.93085 386.129046 
L 141.082875 386.129046 
z
" clip-path="url(#p87ece0230b)" style="fill: #1f77b4"/>
   </g>
   <g id="patch_23">
    <path d="M 143.93085 386.44 
L 146.778824 386.44 
L 146.778824 386.44 
L 143.93085 386.44 
z
" clip-path="url(#p87ece0230b)" style="fill: #1f77b4"/>
   </g>
   <g id="patch_24">
    <path d="M 146.778824 386.44 
L 149.626798 386.44 
L 149.626798 386.129046 
L 146.778824 386.129046 
z
" clip-path="url(#p87ece0230b)" style="fill: #1f77b4"/>
   </g>
   <g id="patch_25">
    <path d="M 149.626798 386.44 
L 152.474773 386.44 
L 152.474773 386.129046 
L 149.626798 386.129046 
z
" clip-path="url(#p87ece0230b)" style="fill: #1f77b4"/>
   </g>
   <g id="patch_26">
    <path d="M 152.474773 386.44 
L 155.322747 386.44 
L 155.322747 386.284523 
L 152.474773 386.284523 
z
" clip-path="url(#p87ece0230b)" style="fill: #1f77b4"/>
   </g>
   <g id="patch_27">
    <path d="M 155.322747 386.44 
L 158.170721 386.44 
L 158.170721 386.284523 
L 155.322747 386.284523 
z
" clip-path="url(#p87ece0230b)" style="fill: #1f77b4"/>
   </g>
   <g id="patch_28">
    <path d="M 158.170721 386.44 
L 161.018696 386.44 
L 161.018696 386.44 
L 158.170721 386.44 
z
" clip-path="url(#p87ece0230b)" style="fill: #1f77b4"/>
   </g>
   <g id="patch_29">
    <path d="M 161.018696 386.44 
L 163.86667 386.44 
L 163.86667 386.284523 
L 161.018696 386.284523 
z
" clip-path="url(#p87ece0230b)" style="fill: #1f77b4"/>
   </g>
   <g id="patch_30">
    <path d="M 163.86667 386.44 
L 166.714644 386.44 
L 166.714644 385.973569 
L 163.86667 385.973569 
z
" clip-path="url(#p87ece0230b)" style="fill: #1f77b4"/>
   </g>
   <g id="patch_31">
    <path d="M 166.714644 386.44 
L 169.562619 386.44 
L 169.562619 386.44 
L 166.714644 386.44 
z
" clip-path="url(#p87ece0230b)" style="fill: #1f77b4"/>
   </g>
   <g id="patch_32">
    <path d="M 169.562619 386.44 
L 172.410593 386.44 
L 172.410593 386.284523 
L 169.562619 386.284523 
z
" clip-path="url(#p87ece0230b)" style="fill: #1f77b4"/>
   </g>
   <g id="patch_33">
    <path d="M 172.410593 386.44 
L 175.258567 386.44 
L 175.258567 385.818092 
L 172.410593 385.818092 
z
" clip-path="url(#p87ece0230b)" style="fill: #1f77b4"/>
   </g>
   <g id="patch_34">
    <path d="M 175.258567 386.44 
L 178.106542 386.44 
L 178.106542 386.284523 
L 175.258567 386.284523 
z
" clip-path="url(#p87ece0230b)" style="fill: #1f77b4"/>
   </g>
   <g id="patch_35">
    <path d="M 178.106542 386.44 
L 180.954516 386.44 
L 180.954516 386.284523 
L 178.106542 386.284523 
z
" clip-path="url(#p87ece0230b)" style="fill: #1f77b4"/>
   </g>
   <g id="patch_36">
    <path d="M 180.954516 386.44 
L 183.80249 386.44 
L 183.80249 385.973569 
L 180.954516 385.973569 
z
" clip-path="url(#p87ece0230b)" style="fill: #1f77b4"/>
   </g>
   <g id="patch_37">
    <path d="M 183.80249 386.44 
L 186.650464 386.44 
L 186.650464 385.973569 
L 183.80249 385.973569 
z
" clip-path="url(#p87ece0230b)" style="fill: #1f77b4"/>
   </g>
   <g id="patch_38">
    <path d="M 186.650464 386.44 
L 189.498439 386.44 
L 189.498439 385.196185 
L 186.650464 385.196185 
z
" clip-path="url(#p87ece0230b)" style="fill: #1f77b4"/>
   </g>
   <g id="patch_39">
    <path d="M 189.498439 386.44 
L 192.346413 386.44 
L 192.346413 385.818092 
L 189.498439 385.818092 
z
" clip-path="url(#p87ece0230b)" style="fill: #1f77b4"/>
   </g>
   <g id="patch_40">
    <path d="M 192.346413 386.44 
L 195.194387 386.44 
L 195.194387 385.507139 
L 192.346413 385.507139 
z
" clip-path="url(#p87ece0230b)" style="fill: #1f77b4"/>
   </g>
   <g id="patch_41">
    <path d="M 195.194387 386.44 
L 198.042362 386.44 
L 198.042362 385.973569 
L 195.194387 385.973569 
z
" clip-path="url(#p87ece0230b)" style="fill: #1f77b4"/>
   </g>
   <g id="patch_42">
    <path d="M 198.042362 386.44 
L 200.890336 386.44 
L 200.890336 385.818092 
L 198.042362 385.818092 
z
" clip-path="url(#p87ece0230b)" style="fill: #1f77b4"/>
   </g>
   <g id="patch_43">
    <path d="M 200.890336 386.44 
L 203.73831 386.44 
L 203.73831 386.129046 
L 200.890336 386.129046 
z
" clip-path="url(#p87ece0230b)" style="fill: #1f77b4"/>
   </g>
   <g id="patch_44">
    <path d="M 203.73831 386.44 
L 206.586285 386.44 
L 206.586285 384.263323 
L 203.73831 384.263323 
z
" clip-path="url(#p87ece0230b)" style="fill: #1f77b4"/>
   </g>
   <g id="patch_45">
    <path d="M 206.586285 386.44 
L 209.434259 386.44 
L 209.434259 385.196185 
L 206.586285 385.196185 
z
" clip-path="url(#p87ece0230b)" style="fill: #1f77b4"/>
   </g>
   <g id="patch_46">
    <path d="M 209.434259 386.44 
L 212.282233 386.44 
L 212.282233 385.040708 
L 209.434259 385.040708 
z
" clip-path="url(#p87ece0230b)" style="fill: #1f77b4"/>
   </g>
   <g id="patch_47">
    <path d="M 212.282233 386.44 
L 215.130208 386.44 
L 215.130208 385.196185 
L 212.282233 385.196185 
z
" clip-path="url(#p87ece0230b)" style="fill: #1f77b4"/>
   </g>
   <g id="patch_48">
    <path d="M 215.130208 386.44 
L 217.978182 386.44 
L 217.978182 384.574277 
L 215.130208 384.574277 
z
" clip-path="url(#p87ece0230b)" style="fill: #1f77b4"/>
   </g>
   <g id="patch_49">
    <path d="M 217.978182 386.44 
L 220.826156 386.44 
L 220.826156 384.574277 
L 217.978182 384.574277 
z
" clip-path="url(#p87ece0230b)" style="fill: #1f77b4"/>
   </g>
   <g id="patch_50">
    <path d="M 220.826156 386.44 
L 223.67413 386.44 
L 223.67413 384.107846 
L 220.826156 384.107846 
z
" clip-path="url(#p87ece0230b)" style="fill: #1f77b4"/>
   </g>
   <g id="patch_51">
    <path d="M 223.67413 386.44 
L 226.522105 386.44 
L 226.522105 384.574277 
L 223.67413 384.574277 
z
" clip-path="url(#p87ece0230b)" style="fill: #1f77b4"/>
   </g>
   <g id="patch_52">
    <path d="M 226.522105 386.44 
L 229.370079 386.44 
L 229.370079 384.263323 
L 226.522105 384.263323 
z
" clip-path="url(#p87ece0230b)" style="fill: #1f77b4"/>
   </g>
   <g id="patch_53">
    <path d="M 229.370079 386.44 
L 232.218053 386.44 
L 232.218053 383.485939 
L 229.370079 383.485939 
z
" clip-path="url(#p87ece0230b)" style="fill: #1f77b4"/>
   </g>
   <g id="patch_54">
    <path d="M 232.218053 386.44 
L 235.066028 386.44 
L 235.066028 382.3976 
L 232.218053 382.3976 
z
" clip-path="url(#p87ece0230b)" style="fill: #1f77b4"/>
   </g>
   <g id="patch_55">
    <path d="M 235.066028 386.44 
L 237.914002 386.44 
L 237.914002 382.242123 
L 235.066028 382.242123 
z
" clip-path="url(#p87ece0230b)" style="fill: #1f77b4"/>
   </g>
   <g id="patch_56">
    <path d="M 237.914002 386.44 
L 240.761976 386.44 
L 240.761976 382.086646 
L 237.914002 382.086646 
z
" clip-path="url(#p87ece0230b)" style="fill: #1f77b4"/>
   </g>
   <g id="patch_57">
    <path d="M 240.761976 386.44 
L 243.609951 386.44 
L 243.609951 381.775693 
L 240.761976 381.775693 
z
" clip-path="url(#p87ece0230b)" style="fill: #1f77b4"/>
   </g>
   <g id="patch_58">
    <path d="M 243.609951 386.44 
L 246.457925 386.44 
L 246.457925 380.531877 
L 243.609951 380.531877 
z
" clip-path="url(#p87ece0230b)" style="fill: #1f77b4"/>
   </g>
   <g id="patch_59">
    <path d="M 246.457925 386.44 
L 249.305899 386.44 
L 249.305899 379.599016 
L 246.457925 379.599016 
z
" clip-path="url(#p87ece0230b)" style="fill: #1f77b4"/>
   </g>
   <g id="patch_60">
    <path d="M 249.305899 386.44 
L 252.153874 386.44 
L 252.153874 378.3552 
L 249.305899 378.3552 
z
" clip-path="url(#p87ece0230b)" style="fill: #1f77b4"/>
   </g>
   <g id="patch_61">
    <path d="M 252.153874 386.44 
L 255.001848 386.44 
L 255.001848 374.779231 
L 252.153874 374.779231 
z
" clip-path="url(#p87ece0230b)" style="fill: #1f77b4"/>
   </g>
   <g id="patch_62">
    <path d="M 255.001848 386.44 
L 257.849822 386.44 
L 257.849822 370.736832 
L 255.001848 370.736832 
z
" clip-path="url(#p87ece0230b)" style="fill: #1f77b4"/>
   </g>
   <g id="patch_63">
    <path d="M 257.849822 386.44 
L 260.697796 386.44 
L 260.697796 373.535416 
L 257.849822 373.535416 
z
" clip-path="url(#p87ece0230b)" style="fill: #1f77b4"/>
   </g>
   <g id="patch_64">
    <path d="M 260.697796 386.44 
L 263.545771 386.44 
L 263.545771 369.648493 
L 260.697796 369.648493 
z
" clip-path="url(#p87ece0230b)" style="fill: #1f77b4"/>
   </g>
   <g id="patch_65">
    <path d="M 263.545771 386.44 
L 266.393745 386.44 
L 266.393745 365.450617 
L 263.545771 365.450617 
z
" clip-path="url(#p87ece0230b)" style="fill: #1f77b4"/>
   </g>
   <g id="patch_66">
    <path d="M 266.393745 386.44 
L 269.241719 386.44 
L 269.241719 366.228001 
L 266.393745 366.228001 
z
" clip-path="url(#p87ece0230b)" style="fill: #1f77b4"/>
   </g>
   <g id="patch_67">
    <path d="M 269.241719 386.44 
L 272.089694 386.44 
L 272.089694 366.694432 
L 269.241719 366.694432 
z
" clip-path="url(#p87ece0230b)" style="fill: #1f77b4"/>
   </g>
   <g id="patch_68">
    <path d="M 272.089694 386.44 
L 274.937668 386.44 
L 274.937668 362.807509 
L 272.089694 362.807509 
z
" clip-path="url(#p87ece0230b)" style="fill: #1f77b4"/>
   </g>
   <g id="patch_69">
    <path d="M 274.937668 386.44 
L 277.785642 386.44 
L 277.785642 365.139663 
L 274.937668 365.139663 
z
" clip-path="url(#p87ece0230b)" style="fill: #1f77b4"/>
   </g>
   <g id="patch_70">
    <path d="M 277.785642 386.44 
L 280.633617 386.44 
L 280.633617 363.584894 
L 277.785642 363.584894 
z
" clip-path="url(#p87ece0230b)" style="fill: #1f77b4"/>
   </g>
   <g id="patch_71">
    <path d="M 280.633617 386.44 
L 283.481591 386.44 
L 283.481591 365.139663 
L 280.633617 365.139663 
z
" clip-path="url(#p87ece0230b)" style="fill: #1f77b4"/>
   </g>
   <g id="patch_72">
    <path d="M 283.481591 386.44 
L 286.329565 386.44 
L 286.329565 356.899386 
L 283.481591 356.899386 
z
" clip-path="url(#p87ece0230b)" style="fill: #1f77b4"/>
   </g>
   <g id="patch_73">
    <path d="M 286.329565 386.44 
L 289.17754 386.44 
L 289.17754 356.277479 
L 286.329565 356.277479 
z
" clip-path="url(#p87ece0230b)" style="fill: #1f77b4"/>
   </g>
   <g id="patch_74">
    <path d="M 289.17754 386.44 
L 292.025514 386.44 
L 292.025514 350.369356 
L 289.17754 350.369356 
z
" clip-path="url(#p87ece0230b)" style="fill: #1f77b4"/>
   </g>
   <g id="patch_75">
    <path d="M 292.025514 386.44 
L 294.873488 386.44 
L 294.873488 342.129079 
L 292.025514 342.129079 
z
" clip-path="url(#p87ece0230b)" style="fill: #1f77b4"/>
   </g>
   <g id="patch_76">
    <path d="M 294.873488 386.44 
L 297.721462 386.44 
L 297.721462 336.376433 
L 294.873488 336.376433 
z
" clip-path="url(#p87ece0230b)" style="fill: #1f77b4"/>
   </g>
   <g id="patch_77">
    <path d="M 297.721462 386.44 
L 300.569437 386.44 
L 300.569437 337.464772 
L 297.721462 337.464772 
z
" clip-path="url(#p87ece0230b)" style="fill: #1f77b4"/>
   </g>
   <g id="patch_78">
    <path d="M 300.569437 386.44 
L 303.417411 386.44 
L 303.417411 327.358772 
L 300.569437 327.358772 
z
" clip-path="url(#p87ece0230b)" style="fill: #1f77b4"/>
   </g>
   <g id="patch_79">
    <path d="M 303.417411 386.44 
L 306.265385 386.44 
L 306.265385 321.45065 
L 303.417411 321.45065 
z
" clip-path="url(#p87ece0230b)" style="fill: #1f77b4"/>
   </g>
   <g id="patch_80">
    <path d="M 306.265385 386.44 
L 309.11336 386.44 
L 309.11336 308.701543 
L 306.265385 308.701543 
z
" clip-path="url(#p87ece0230b)" style="fill: #1f77b4"/>
   </g>
   <g id="patch_81">
    <path d="M 309.11336 386.44 
L 311.961334 386.44 
L 311.961334 299.217451 
L 309.11336 299.217451 
z
" clip-path="url(#p87ece0230b)" style="fill: #1f77b4"/>
   </g>
   <g id="patch_82">
    <path d="M 311.961334 386.44 
L 314.809308 386.44 
L 314.809308 298.595543 
L 311.961334 298.595543 
z
" clip-path="url(#p87ece0230b)" style="fill: #1f77b4"/>
   </g>
   <g id="patch_83">
    <path d="M 314.809308 386.44 
L 317.657283 386.44 
L 317.657283 294.553143 
L 314.809308 294.553143 
z
" clip-path="url(#p87ece0230b)" style="fill: #1f77b4"/>
   </g>
   <g id="patch_84">
    <path d="M 317.657283 386.44 
L 320.505257 386.44 
L 320.505257 288.955974 
L 317.657283 288.955974 
z
" clip-path="url(#p87ece0230b)" style="fill: #1f77b4"/>
   </g>
   <g id="patch_85">
    <path d="M 320.505257 386.44 
L 323.353231 386.44 
L 323.353231 268.277545 
L 320.505257 268.277545 
z
" clip-path="url(#p87ece0230b)" style="fill: #1f77b4"/>
   </g>
   <g id="patch_86">
    <path d="M 323.353231 386.44 
L 326.201206 386.44 
L 326.201206 245.111484 
L 323.353231 245.111484 
z
" clip-path="url(#p87ece0230b)" style="fill: #1f77b4"/>
   </g>
   <g id="patch_87">
    <path d="M 326.201206 386.44 
L 329.04918 386.44 
L 329.04918 247.599115 
L 326.201206 247.599115 
z
" clip-path="url(#p87ece0230b)" style="fill: #1f77b4"/>
   </g>
   <g id="patch_88">
    <path d="M 329.04918 386.44 
L 331.897154 386.44 
L 331.897154 241.224562 
L 329.04918 241.224562 
z
" clip-path="url(#p87ece0230b)" style="fill: #1f77b4"/>
   </g>
   <g id="patch_89">
    <path d="M 331.897154 386.44 
L 334.745128 386.44 
L 334.745128 260.503699 
L 331.897154 260.503699 
z
" clip-path="url(#p87ece0230b)" style="fill: #1f77b4"/>
   </g>
   <g id="patch_90">
    <path d="M 334.745128 386.44 
L 337.593103 386.44 
L 337.593103 250.553176 
L 334.745128 250.553176 
z
" clip-path="url(#p87ece0230b)" style="fill: #1f77b4"/>
   </g>
   <g id="patch_91">
    <path d="M 337.593103 386.44 
L 340.441077 386.44 
L 340.441077 244.023146 
L 337.593103 244.023146 
z
" clip-path="url(#p87ece0230b)" style="fill: #1f77b4"/>
   </g>
   <g id="patch_92">
    <path d="M 340.441077 386.44 
L 343.289051 386.44 
L 343.289051 238.2705 
L 340.441077 238.2705 
z
" clip-path="url(#p87ece0230b)" style="fill: #1f77b4"/>
   </g>
   <g id="patch_93">
    <path d="M 343.289051 386.44 
L 346.137026 386.44 
L 346.137026 217.592071 
L 343.289051 217.592071 
z
" clip-path="url(#p87ece0230b)" style="fill: #1f77b4"/>
   </g>
   <g id="patch_94">
    <path d="M 346.137026 386.44 
L 348.985 386.44 
L 348.985 221.012563 
L 346.137026 221.012563 
z
" clip-path="url(#p87ece0230b)" style="fill: #1f77b4"/>
   </g>
   <g id="patch_95">
    <path d="M 348.985 386.44 
L 351.832974 386.44 
L 351.832974 222.256378 
L 348.985 222.256378 
z
" clip-path="url(#p87ece0230b)" style="fill: #1f77b4"/>
   </g>
   <g id="patch_96">
    <path d="M 351.832974 386.44 
L 354.680949 386.44 
L 354.680949 201.733425 
L 351.832974 201.733425 
z
" clip-path="url(#p87ece0230b)" style="fill: #1f77b4"/>
   </g>
   <g id="patch_97">
    <path d="M 354.680949 386.44 
L 357.528923 386.44 
L 357.528923 185.87478 
L 354.680949 185.87478 
z
" clip-path="url(#p87ece0230b)" style="fill: #1f77b4"/>
   </g>
   <g id="patch_98">
    <path d="M 357.528923 386.44 
L 360.376897 386.44 
L 360.376897 183.231672 
L 357.528923 183.231672 
z
" clip-path="url(#p87ece0230b)" style="fill: #1f77b4"/>
   </g>
   <g id="patch_99">
    <path d="M 360.376897 386.44 
L 363.224872 386.44 
L 363.224872 180.122134 
L 360.376897 180.122134 
z
" clip-path="url(#p87ece0230b)" style="fill: #1f77b4"/>
   </g>
   <g id="patch_100">
    <path d="M 363.224872 386.44 
L 366.072846 386.44 
L 366.072846 165.662781 
L 363.224872 165.662781 
z
" clip-path="url(#p87ece0230b)" style="fill: #1f77b4"/>
   </g>
   <g id="patch_101">
    <path d="M 366.072846 386.44 
L 368.92082 386.44 
L 368.92082 147.471982 
L 366.072846 147.471982 
z
" clip-path="url(#p87ece0230b)" style="fill: #1f77b4"/>
   </g>
   <g id="patch_102">
    <path d="M 368.92082 386.44 
L 371.768794 386.44 
L 371.768794 130.991429 
L 368.92082 130.991429 
z
" clip-path="url(#p87ece0230b)" style="fill: #1f77b4"/>
   </g>
   <g id="patch_103">
    <path d="M 371.768794 386.44 
L 374.616769 386.44 
L 374.616769 100.984384 
L 371.768794 100.984384 
z
" clip-path="url(#p87ece0230b)" style="fill: #1f77b4"/>
   </g>
   <g id="patch_104">
    <path d="M 374.616769 386.44 
L 377.464743 386.44 
L 377.464743 78.284755 
L 374.616769 78.284755 
z
" clip-path="url(#p87ece0230b)" style="fill: #1f77b4"/>
   </g>
   <g id="patch_105">
    <path d="M 377.464743 386.44 
L 380.312717 386.44 
L 380.312717 28.687619 
L 377.464743 28.687619 
z
" clip-path="url(#p87ece0230b)" style="fill: #1f77b4"/>
   </g>
   <g id="patch_106">
    <path d="M 380.312717 386.44 
L 383.160692 386.44 
L 383.160692 84.503831 
L 380.312717 84.503831 
z
" clip-path="url(#p87ece0230b)" style="fill: #1f77b4"/>
   </g>
   <g id="patch_107">
    <path d="M 383.160692 386.44 
L 386.008666 386.44 
L 386.008666 134.256444 
L 383.160692 134.256444 
z
" clip-path="url(#p87ece0230b)" style="fill: #1f77b4"/>
   </g>
   <g id="patch_108">
    <path d="M 386.008666 386.44 
L 388.85664 386.44 
L 388.85664 126.949029 
L 386.008666 126.949029 
z
" clip-path="url(#p87ece0230b)" style="fill: #1f77b4"/>
   </g>
   <g id="patch_109">
    <path d="M 388.85664 386.44 
L 391.704615 386.44 
L 391.704615 124.150445 
L 388.85664 124.150445 
z
" clip-path="url(#p87ece0230b)" style="fill: #1f77b4"/>
   </g>
   <g id="patch_110">
    <path d="M 391.704615 386.44 
L 394.552589 386.44 
L 394.552589 132.390721 
L 391.704615 132.390721 
z
" clip-path="url(#p87ece0230b)" style="fill: #1f77b4"/>
   </g>
   <g id="patch_111">
    <path d="M 394.552589 386.44 
L 397.400563 386.44 
L 397.400563 132.546198 
L 394.552589 132.546198 
z
" clip-path="url(#p87ece0230b)" style="fill: #1f77b4"/>
   </g>
   <g id="patch_112">
    <path d="M 397.400563 386.44 
L 400.248538 386.44 
L 400.248538 179.655703 
L 397.400563 179.655703 
z
" clip-path="url(#p87ece0230b)" style="fill: #1f77b4"/>
   </g>
   <g id="patch_113">
    <path d="M 400.248538 386.44 
L 403.096512 386.44 
L 403.096512 182.920719 
L 400.248538 182.920719 
z
" clip-path="url(#p87ece0230b)" style="fill: #1f77b4"/>
   </g>
   <g id="patch_114">
    <path d="M 403.096512 386.44 
L 405.944486 386.44 
L 405.944486 188.828841 
L 403.096512 188.828841 
z
" clip-path="url(#p87ece0230b)" style="fill: #1f77b4"/>
   </g>
   <g id="patch_115">
    <path d="M 405.944486 386.44 
L 408.79246 386.44 
L 408.79246 193.026718 
L 405.944486 193.026718 
z
" clip-path="url(#p87ece0230b)" style="fill: #1f77b4"/>
   </g>
   <g id="patch_116">
    <path d="M 408.79246 386.44 
L 411.640435 386.44 
L 411.640435 215.10444 
L 408.79246 215.10444 
z
" clip-path="url(#p87ece0230b)" style="fill: #1f77b4"/>
   </g>
   <g id="patch_117">
    <path d="M 411.640435 386.44 
L 414.488409 386.44 
L 414.488409 219.302317 
L 411.640435 219.302317 
z
" clip-path="url(#p87ece0230b)" style="fill: #1f77b4"/>
   </g>
   <g id="patch_118">
    <path d="M 414.488409 386.44 
L 417.336383 386.44 
L 417.336383 228.941885 
L 414.488409 228.941885 
z
" clip-path="url(#p87ece0230b)" style="fill: #1f77b4"/>
   </g>
   <g id="patch_119">
    <path d="M 417.336383 386.44 
L 420.184358 386.44 
L 420.184358 250.3977 
L 417.336383 250.3977 
z
" clip-path="url(#p87ece0230b)" style="fill: #1f77b4"/>
   </g>
   <g id="patch_120">
    <path d="M 420.184358 386.44 
L 423.032332 386.44 
L 423.032332 264.701576 
L 420.184358 264.701576 
z
" clip-path="url(#p87ece0230b)" style="fill: #1f77b4"/>
   </g>
   <g id="patch_121">
    <path d="M 423.032332 386.44 
L 425.880306 386.44 
L 425.880306 278.07259 
L 423.032332 278.07259 
z
" clip-path="url(#p87ece0230b)" style="fill: #1f77b4"/>
   </g>
   <g id="patch_122">
    <path d="M 425.880306 386.44 
L 428.728281 386.44 
L 428.728281 285.224528 
L 425.880306 285.224528 
z
" clip-path="url(#p87ece0230b)" style="fill: #1f77b4"/>
   </g>
   <g id="patch_123">
    <path d="M 428.728281 386.44 
L 431.576255 386.44 
L 431.576255 296.418866 
L 428.728281 296.418866 
z
" clip-path="url(#p87ece0230b)" style="fill: #1f77b4"/>
   </g>
   <g id="patch_124">
    <path d="M 431.576255 386.44 
L 434.424229 386.44 
L 434.424229 305.28105 
L 431.576255 305.28105 
z
" clip-path="url(#p87ece0230b)" style="fill: #1f77b4"/>
   </g>
   <g id="patch_125">
    <path d="M 434.424229 386.44 
L 437.272204 386.44 
L 437.272204 312.743942 
L 434.424229 312.743942 
z
" clip-path="url(#p87ece0230b)" style="fill: #1f77b4"/>
   </g>
   <g id="patch_126">
    <path d="M 437.272204 386.44 
L 440.120178 386.44 
L 440.120178 316.475388 
L 437.272204 316.475388 
z
" clip-path="url(#p87ece0230b)" style="fill: #1f77b4"/>
   </g>
   <g id="patch_127">
    <path d="M 440.120178 386.44 
L 442.968152 386.44 
L 442.968152 329.846403 
L 440.120178 329.846403 
z
" clip-path="url(#p87ece0230b)" style="fill: #1f77b4"/>
   </g>
   <g id="patch_128">
    <path d="M 442.968152 386.44 
L 445.816126 386.44 
L 445.816126 336.220957 
L 442.968152 336.220957 
z
" clip-path="url(#p87ece0230b)" style="fill: #1f77b4"/>
   </g>
   <g id="patch_129">
    <path d="M 445.816126 386.44 
L 448.664101 386.44 
L 448.664101 334.977141 
L 445.816126 334.977141 
z
" clip-path="url(#p87ece0230b)" style="fill: #1f77b4"/>
   </g>
   <g id="patch_130">
    <path d="M 448.664101 386.44 
L 451.512075 386.44 
L 451.512075 340.57431 
L 448.664101 340.57431 
z
" clip-path="url(#p87ece0230b)" style="fill: #1f77b4"/>
   </g>
   <g id="patch_131">
    <path d="M 451.512075 386.44 
L 454.360049 386.44 
L 454.360049 342.284556 
L 451.512075 342.284556 
z
" clip-path="url(#p87ece0230b)" style="fill: #1f77b4"/>
   </g>
   <g id="patch_132">
    <path d="M 454.360049 386.44 
L 457.208024 386.44 
L 457.208024 349.281017 
L 454.360049 349.281017 
z
" clip-path="url(#p87ece0230b)" style="fill: #1f77b4"/>
   </g>
   <g id="patch_133">
    <path d="M 457.208024 386.44 
L 460.055998 386.44 
L 460.055998 345.549571 
L 457.208024 345.549571 
z
" clip-path="url(#p87ece0230b)" style="fill: #1f77b4"/>
   </g>
   <g id="patch_134">
    <path d="M 460.055998 386.44 
L 462.903972 386.44 
L 462.903972 351.768648 
L 460.055998 351.768648 
z
" clip-path="url(#p87ece0230b)" style="fill: #1f77b4"/>
   </g>
   <g id="patch_135">
    <path d="M 462.903972 386.44 
L 465.751947 386.44 
L 465.751947 355.344617 
L 462.903972 355.344617 
z
" clip-path="url(#p87ece0230b)" style="fill: #1f77b4"/>
   </g>
   <g id="patch_136">
    <path d="M 465.751947 386.44 
L 468.599921 386.44 
L 468.599921 358.143202 
L 465.751947 358.143202 
z
" clip-path="url(#p87ece0230b)" style="fill: #1f77b4"/>
   </g>
   <g id="patch_137">
    <path d="M 468.599921 386.44 
L 471.447895 386.44 
L 471.447895 359.387017 
L 468.599921 359.387017 
z
" clip-path="url(#p87ece0230b)" style="fill: #1f77b4"/>
   </g>
   <g id="patch_138">
    <path d="M 471.447895 386.44 
L 474.29587 386.44 
L 474.29587 362.496555 
L 471.447895 362.496555 
z
" clip-path="url(#p87ece0230b)" style="fill: #1f77b4"/>
   </g>
   <g id="patch_139">
    <path d="M 474.29587 386.44 
L 477.143844 386.44 
L 477.143844 361.097263 
L 474.29587 361.097263 
z
" clip-path="url(#p87ece0230b)" style="fill: #1f77b4"/>
   </g>
   <g id="patch_140">
    <path d="M 477.143844 386.44 
L 479.991818 386.44 
L 479.991818 367.938247 
L 477.143844 367.938247 
z
" clip-path="url(#p87ece0230b)" style="fill: #1f77b4"/>
   </g>
   <g id="patch_141">
    <path d="M 479.991818 386.44 
L 482.839792 386.44 
L 482.839792 369.337539 
L 479.991818 369.337539 
z
" clip-path="url(#p87ece0230b)" style="fill: #1f77b4"/>
   </g>
   <g id="patch_142">
    <path d="M 482.839792 386.44 
L 485.687767 386.44 
L 485.687767 371.047785 
L 482.839792 371.047785 
z
" clip-path="url(#p87ece0230b)" style="fill: #1f77b4"/>
   </g>
   <g id="patch_143">
    <path d="M 485.687767 386.44 
L 488.535741 386.44 
L 488.535741 371.980647 
L 485.687767 371.980647 
z
" clip-path="url(#p87ece0230b)" style="fill: #1f77b4"/>
   </g>
   <g id="patch_144">
    <path d="M 488.535741 386.44 
L 491.383715 386.44 
L 491.383715 373.84637 
L 488.535741 373.84637 
z
" clip-path="url(#p87ece0230b)" style="fill: #1f77b4"/>
   </g>
   <g id="patch_145">
    <path d="M 491.383715 386.44 
L 494.23169 386.44 
L 494.23169 375.401139 
L 491.383715 375.401139 
z
" clip-path="url(#p87ece0230b)" style="fill: #1f77b4"/>
   </g>
   <g id="patch_146">
    <path d="M 494.23169 386.44 
L 497.079664 386.44 
L 497.079664 377.111385 
L 494.23169 377.111385 
z
" clip-path="url(#p87ece0230b)" style="fill: #1f77b4"/>
   </g>
   <g id="patch_147">
    <path d="M 497.079664 386.44 
L 499.927638 386.44 
L 499.927638 376.023047 
L 497.079664 376.023047 
z
" clip-path="url(#p87ece0230b)" style="fill: #1f77b4"/>
   </g>
   <g id="patch_148">
    <path d="M 499.927638 386.44 
L 502.775613 386.44 
L 502.775613 379.90997 
L 499.927638 379.90997 
z
" clip-path="url(#p87ece0230b)" style="fill: #1f77b4"/>
   </g>
   <g id="patch_149">
    <path d="M 502.775613 386.44 
L 505.623587 386.44 
L 505.623587 379.132585 
L 502.775613 379.132585 
z
" clip-path="url(#p87ece0230b)" style="fill: #1f77b4"/>
   </g>
   <g id="patch_150">
    <path d="M 505.623587 386.44 
L 508.471561 386.44 
L 508.471561 379.443539 
L 505.623587 379.443539 
z
" clip-path="url(#p87ece0230b)" style="fill: #1f77b4"/>
   </g>
   <g id="patch_151">
    <path d="M 508.471561 386.44 
L 511.319536 386.44 
L 511.319536 380.531877 
L 508.471561 380.531877 
z
" clip-path="url(#p87ece0230b)" style="fill: #1f77b4"/>
   </g>
   <g id="patch_152">
    <path d="M 511.319536 386.44 
L 514.16751 386.44 
L 514.16751 382.864031 
L 511.319536 382.864031 
z
" clip-path="url(#p87ece0230b)" style="fill: #1f77b4"/>
   </g>
   <g id="patch_153">
    <path d="M 514.16751 386.44 
L 517.015484 386.44 
L 517.015484 382.708554 
L 514.16751 382.708554 
z
" clip-path="url(#p87ece0230b)" style="fill: #1f77b4"/>
   </g>
   <g id="patch_154">
    <path d="M 517.015484 386.44 
L 519.863458 386.44 
L 519.863458 383.641416 
L 517.015484 383.641416 
z
" clip-path="url(#p87ece0230b)" style="fill: #1f77b4"/>
   </g>
   <g id="patch_155">
    <path d="M 519.863458 386.44 
L 522.711433 386.44 
L 522.711433 384.4188 
L 519.863458 384.4188 
z
" clip-path="url(#p87ece0230b)" style="fill: #1f77b4"/>
   </g>
   <g id="patch_156">
    <path d="M 522.711433 386.44 
L 525.559407 386.44 
L 525.559407 384.263323 
L 522.711433 384.263323 
z
" clip-path="url(#p87ece0230b)" style="fill: #1f77b4"/>
   </g>
   <g id="patch_157">
    <path d="M 525.559407 386.44 
L 528.407381 386.44 
L 528.407381 385.196185 
L 525.559407 385.196185 
z
" clip-path="url(#p87ece0230b)" style="fill: #1f77b4"/>
   </g>
   <g id="patch_158">
    <path d="M 528.407381 386.44 
L 531.255356 386.44 
L 531.255356 385.196185 
L 528.407381 385.196185 
z
" clip-path="url(#p87ece0230b)" style="fill: #1f77b4"/>
   </g>
   <g id="patch_159">
    <path d="M 531.255356 386.44 
L 534.10333 386.44 
L 534.10333 384.729754 
L 531.255356 384.729754 
z
" clip-path="url(#p87ece0230b)" style="fill: #1f77b4"/>
   </g>
   <g id="patch_160">
    <path d="M 534.10333 386.44 
L 536.951304 386.44 
L 536.951304 385.818092 
L 534.10333 385.818092 
z
" clip-path="url(#p87ece0230b)" style="fill: #1f77b4"/>
   </g>
   <g id="patch_161">
    <path d="M 536.951304 386.44 
L 539.799279 386.44 
L 539.799279 385.507139 
L 536.951304 385.507139 
z
" clip-path="url(#p87ece0230b)" style="fill: #1f77b4"/>
   </g>
   <g id="patch_162">
    <path d="M 539.799279 386.44 
L 542.647253 386.44 
L 542.647253 385.662615 
L 539.799279 385.662615 
z
" clip-path="url(#p87ece0230b)" style="fill: #1f77b4"/>
   </g>
   <g id="patch_163">
    <path d="M 542.647253 386.44 
L 545.495227 386.44 
L 545.495227 385.196185 
L 542.647253 385.196185 
z
" clip-path="url(#p87ece0230b)" style="fill: #1f77b4"/>
   </g>
   <g id="patch_164">
    <path d="M 545.495227 386.44 
L 548.343202 386.44 
L 548.343202 385.973569 
L 545.495227 385.973569 
z
" clip-path="url(#p87ece0230b)" style="fill: #1f77b4"/>
   </g>
   <g id="patch_165">
    <path d="M 548.343202 386.44 
L 551.191176 386.44 
L 551.191176 386.129046 
L 548.343202 386.129046 
z
" clip-path="url(#p87ece0230b)" style="fill: #1f77b4"/>
   </g>
   <g id="patch_166">
    <path d="M 551.191176 386.44 
L 554.03915 386.44 
L 554.03915 385.662615 
L 551.191176 385.662615 
z
" clip-path="url(#p87ece0230b)" style="fill: #1f77b4"/>
   </g>
   <g id="patch_167">
    <path d="M 554.03915 386.44 
L 556.887125 386.44 
L 556.887125 386.284523 
L 554.03915 386.284523 
z
" clip-path="url(#p87ece0230b)" style="fill: #1f77b4"/>
   </g>
   <g id="patch_168">
    <path d="M 556.887125 386.44 
L 559.735099 386.44 
L 559.735099 386.129046 
L 556.887125 386.129046 
z
" clip-path="url(#p87ece0230b)" style="fill: #1f77b4"/>
   </g>
   <g id="patch_169">
    <path d="M 559.735099 386.44 
L 562.583073 386.44 
L 562.583073 386.284523 
L 559.735099 386.284523 
z
" clip-path="url(#p87ece0230b)" style="fill: #1f77b4"/>
   </g>
   <g id="patch_170">
    <path d="M 562.583073 386.44 
L 565.431047 386.44 
L 565.431047 386.284523 
L 562.583073 386.284523 
z
" clip-path="url(#p87ece0230b)" style="fill: #1f77b4"/>
   </g>
   <g id="patch_171">
    <path d="M 565.431047 386.44 
L 568.279022 386.44 
L 568.279022 386.284523 
L 565.431047 386.284523 
z
" clip-path="url(#p87ece0230b)" style="fill: #1f77b4"/>
   </g>
   <g id="patch_172">
    <path d="M 568.279022 386.44 
L 571.126996 386.44 
L 571.126996 386.44 
L 568.279022 386.44 
z
" clip-path="url(#p87ece0230b)" style="fill: #1f77b4"/>
   </g>
   <g id="patch_173">
    <path d="M 571.126996 386.44 
L 573.97497 386.44 
L 573.97497 386.44 
L 571.126996 386.44 
z
" clip-path="url(#p87ece0230b)" style="fill: #1f77b4"/>
   </g>
   <g id="patch_174">
    <path d="M 573.97497 386.44 
L 576.822945 386.44 
L 576.822945 386.284523 
L 573.97497 386.284523 
z
" clip-path="url(#p87ece0230b)" style="fill: #1f77b4"/>
   </g>
   <g id="patch_175">
    <path d="M 576.822945 386.44 
L 579.670919 386.44 
L 579.670919 386.284523 
L 576.822945 386.284523 
z
" clip-path="url(#p87ece0230b)" style="fill: #1f77b4"/>
   </g>
   <g id="patch_176">
    <path d="M 579.670919 386.44 
L 582.518893 386.44 
L 582.518893 386.284523 
L 579.670919 386.284523 
z
" clip-path="url(#p87ece0230b)" style="fill: #1f77b4"/>
   </g>
   <g id="patch_177">
    <path d="M 582.518893 386.44 
L 585.366868 386.44 
L 585.366868 386.44 
L 582.518893 386.44 
z
" clip-path="url(#p87ece0230b)" style="fill: #1f77b4"/>
   </g>
   <g id="patch_178">
    <path d="M 585.366868 386.44 
L 588.214842 386.44 
L 588.214842 386.44 
L 585.366868 386.44 
z
" clip-path="url(#p87ece0230b)" style="fill: #1f77b4"/>
   </g>
   <g id="patch_179">
    <path d="M 588.214842 386.44 
L 591.062816 386.44 
L 591.062816 386.44 
L 588.214842 386.44 
z
" clip-path="url(#p87ece0230b)" style="fill: #1f77b4"/>
   </g>
   <g id="patch_180">
    <path d="M 591.062816 386.44 
L 593.910791 386.44 
L 593.910791 386.284523 
L 591.062816 386.284523 
z
" clip-path="url(#p87ece0230b)" style="fill: #1f77b4"/>
   </g>
   <g id="patch_181">
    <path d="M 593.910791 386.44 
L 596.758765 386.44 
L 596.758765 386.129046 
L 593.910791 386.129046 
z
" clip-path="url(#p87ece0230b)" style="fill: #1f77b4"/>
   </g>
   <g id="patch_182">
    <path d="M 596.758765 386.44 
L 599.606739 386.44 
L 599.606739 386.44 
L 596.758765 386.44 
z
" clip-path="url(#p87ece0230b)" style="fill: #1f77b4"/>
   </g>
   <g id="patch_183">
    <path d="M 599.606739 386.44 
L 602.454713 386.44 
L 602.454713 386.129046 
L 599.606739 386.129046 
z
" clip-path="url(#p87ece0230b)" style="fill: #1f77b4"/>
   </g>
   <g id="patch_184">
    <path d="M 602.454713 386.44 
L 605.302688 386.44 
L 605.302688 386.44 
L 602.454713 386.44 
z
" clip-path="url(#p87ece0230b)" style="fill: #1f77b4"/>
   </g>
   <g id="patch_185">
    <path d="M 605.302688 386.44 
L 608.150662 386.44 
L 608.150662 386.44 
L 605.302688 386.44 
z
" clip-path="url(#p87ece0230b)" style="fill: #1f77b4"/>
   </g>
   <g id="patch_186">
    <path d="M 608.150662 386.44 
L 610.998636 386.44 
L 610.998636 386.284523 
L 608.150662 386.284523 
z
" clip-path="url(#p87ece0230b)" style="fill: #1f77b4"/>
   </g>
   <g id="matplotlib.axis_1">
    <g id="xtick_1">
     <g id="line2d_1">
      <defs>
       <path id="mb6211514f7" d="M 0 0 
L 0 3.5 
" style="stroke: #000000; stroke-width: 0.8"/>
      </defs>
      <g>
       <use xlink:href="#mb6211514f7" x="87.929334" y="386.44" style="stroke: #000000; stroke-width: 0.8"/>
      </g>
     </g>
     <g id="text_1">
      <!-- 65 -->
      <g transform="translate(81.566834 401.038437) scale(0.1 -0.1)">
       <defs>
        <path id="DejaVuSans-36" d="M 2113 2584 
Q 1688 2584 1439 2293 
Q 1191 2003 1191 1497 
Q 1191 994 1439 701 
Q 1688 409 2113 409 
Q 2538 409 2786 701 
Q 3034 994 3034 1497 
Q 3034 2003 2786 2293 
Q 2538 2584 2113 2584 
z
M 3366 4563 
L 3366 3988 
Q 3128 4100 2886 4159 
Q 2644 4219 2406 4219 
Q 1781 4219 1451 3797 
Q 1122 3375 1075 2522 
Q 1259 2794 1537 2939 
Q 1816 3084 2150 3084 
Q 2853 3084 3261 2657 
Q 3669 2231 3669 1497 
Q 3669 778 3244 343 
Q 2819 -91 2113 -91 
Q 1303 -91 875 529 
Q 447 1150 447 2328 
Q 447 3434 972 4092 
Q 1497 4750 2381 4750 
Q 2619 4750 2861 4703 
Q 3103 4656 3366 4563 
z
" transform="scale(0.015625)"/>
        <path id="DejaVuSans-35" d="M 691 4666 
L 3169 4666 
L 3169 4134 
L 1269 4134 
L 1269 2991 
Q 1406 3038 1543 3061 
Q 1681 3084 1819 3084 
Q 2600 3084 3056 2656 
Q 3513 2228 3513 1497 
Q 3513 744 3044 326 
Q 2575 -91 1722 -91 
Q 1428 -91 1123 -41 
Q 819 9 494 109 
L 494 744 
Q 775 591 1075 516 
Q 1375 441 1709 441 
Q 2250 441 2565 725 
Q 2881 1009 2881 1497 
Q 2881 1984 2565 2268 
Q 2250 2553 1709 2553 
Q 1456 2553 1204 2497 
Q 953 2441 691 2322 
L 691 4666 
z
" transform="scale(0.015625)"/>
       </defs>
       <use xlink:href="#DejaVuSans-36"/>
       <use xlink:href="#DejaVuSans-35" x="63.623047"/>
      </g>
     </g>
    </g>
    <g id="xtick_2">
     <g id="line2d_2">
      <g>
       <use xlink:href="#mb6211514f7" x="162.99395" y="386.44" style="stroke: #000000; stroke-width: 0.8"/>
      </g>
     </g>
     <g id="text_2">
      <!-- 70 -->
      <g transform="translate(156.63145 401.038437) scale(0.1 -0.1)">
       <defs>
        <path id="DejaVuSans-37" d="M 525 4666 
L 3525 4666 
L 3525 4397 
L 1831 0 
L 1172 0 
L 2766 4134 
L 525 4134 
L 525 4666 
z
" transform="scale(0.015625)"/>
        <path id="DejaVuSans-30" d="M 2034 4250 
Q 1547 4250 1301 3770 
Q 1056 3291 1056 2328 
Q 1056 1369 1301 889 
Q 1547 409 2034 409 
Q 2525 409 2770 889 
Q 3016 1369 3016 2328 
Q 3016 3291 2770 3770 
Q 2525 4250 2034 4250 
z
M 2034 4750 
Q 2819 4750 3233 4129 
Q 3647 3509 3647 2328 
Q 3647 1150 3233 529 
Q 2819 -91 2034 -91 
Q 1250 -91 836 529 
Q 422 1150 422 2328 
Q 422 3509 836 4129 
Q 1250 4750 2034 4750 
z
" transform="scale(0.015625)"/>
       </defs>
       <use xlink:href="#DejaVuSans-37"/>
       <use xlink:href="#DejaVuSans-30" x="63.623047"/>
      </g>
     </g>
    </g>
    <g id="xtick_3">
     <g id="line2d_3">
      <g>
       <use xlink:href="#mb6211514f7" x="238.058566" y="386.44" style="stroke: #000000; stroke-width: 0.8"/>
      </g>
     </g>
     <g id="text_3">
      <!-- 75 -->
      <g transform="translate(231.696066 401.038437) scale(0.1 -0.1)">
       <use xlink:href="#DejaVuSans-37"/>
       <use xlink:href="#DejaVuSans-35" x="63.623047"/>
      </g>
     </g>
    </g>
    <g id="xtick_4">
     <g id="line2d_4">
      <g>
       <use xlink:href="#mb6211514f7" x="313.123182" y="386.44" style="stroke: #000000; stroke-width: 0.8"/>
      </g>
     </g>
     <g id="text_4">
      <!-- 80 -->
      <g transform="translate(306.760682 401.038437) scale(0.1 -0.1)">
       <defs>
        <path id="DejaVuSans-38" d="M 2034 2216 
Q 1584 2216 1326 1975 
Q 1069 1734 1069 1313 
Q 1069 891 1326 650 
Q 1584 409 2034 409 
Q 2484 409 2743 651 
Q 3003 894 3003 1313 
Q 3003 1734 2745 1975 
Q 2488 2216 2034 2216 
z
M 1403 2484 
Q 997 2584 770 2862 
Q 544 3141 544 3541 
Q 544 4100 942 4425 
Q 1341 4750 2034 4750 
Q 2731 4750 3128 4425 
Q 3525 4100 3525 3541 
Q 3525 3141 3298 2862 
Q 3072 2584 2669 2484 
Q 3125 2378 3379 2068 
Q 3634 1759 3634 1313 
Q 3634 634 3220 271 
Q 2806 -91 2034 -91 
Q 1263 -91 848 271 
Q 434 634 434 1313 
Q 434 1759 690 2068 
Q 947 2378 1403 2484 
z
M 1172 3481 
Q 1172 3119 1398 2916 
Q 1625 2713 2034 2713 
Q 2441 2713 2670 2916 
Q 2900 3119 2900 3481 
Q 2900 3844 2670 4047 
Q 2441 4250 2034 4250 
Q 1625 4250 1398 4047 
Q 1172 3844 1172 3481 
z
" transform="scale(0.015625)"/>
       </defs>
       <use xlink:href="#DejaVuSans-38"/>
       <use xlink:href="#DejaVuSans-30" x="63.623047"/>
      </g>
     </g>
    </g>
    <g id="xtick_5">
     <g id="line2d_5">
      <g>
       <use xlink:href="#mb6211514f7" x="388.187798" y="386.44" style="stroke: #000000; stroke-width: 0.8"/>
      </g>
     </g>
     <g id="text_5">
      <!-- 85 -->
      <g transform="translate(381.825298 401.038437) scale(0.1 -0.1)">
       <use xlink:href="#DejaVuSans-38"/>
       <use xlink:href="#DejaVuSans-35" x="63.623047"/>
      </g>
     </g>
    </g>
    <g id="xtick_6">
     <g id="line2d_6">
      <g>
       <use xlink:href="#mb6211514f7" x="463.252414" y="386.44" style="stroke: #000000; stroke-width: 0.8"/>
      </g>
     </g>
     <g id="text_6">
      <!-- 90 -->
      <g transform="translate(456.889914 401.038437) scale(0.1 -0.1)">
       <defs>
        <path id="DejaVuSans-39" d="M 703 97 
L 703 672 
Q 941 559 1184 500 
Q 1428 441 1663 441 
Q 2288 441 2617 861 
Q 2947 1281 2994 2138 
Q 2813 1869 2534 1725 
Q 2256 1581 1919 1581 
Q 1219 1581 811 2004 
Q 403 2428 403 3163 
Q 403 3881 828 4315 
Q 1253 4750 1959 4750 
Q 2769 4750 3195 4129 
Q 3622 3509 3622 2328 
Q 3622 1225 3098 567 
Q 2575 -91 1691 -91 
Q 1453 -91 1209 -44 
Q 966 3 703 97 
z
M 1959 2075 
Q 2384 2075 2632 2365 
Q 2881 2656 2881 3163 
Q 2881 3666 2632 3958 
Q 2384 4250 1959 4250 
Q 1534 4250 1286 3958 
Q 1038 3666 1038 3163 
Q 1038 2656 1286 2365 
Q 1534 2075 1959 2075 
z
" transform="scale(0.015625)"/>
       </defs>
       <use xlink:href="#DejaVuSans-39"/>
       <use xlink:href="#DejaVuSans-30" x="63.623047"/>
      </g>
     </g>
    </g>
    <g id="xtick_7">
     <g id="line2d_7">
      <g>
       <use xlink:href="#mb6211514f7" x="538.317029" y="386.44" style="stroke: #000000; stroke-width: 0.8"/>
      </g>
     </g>
     <g id="text_7">
      <!-- 95 -->
      <g transform="translate(531.954529 401.038437) scale(0.1 -0.1)">
       <use xlink:href="#DejaVuSans-39"/>
       <use xlink:href="#DejaVuSans-35" x="63.623047"/>
      </g>
     </g>
    </g>
    <g id="xtick_8">
     <g id="line2d_8">
      <g>
       <use xlink:href="#mb6211514f7" x="613.381645" y="386.44" style="stroke: #000000; stroke-width: 0.8"/>
      </g>
     </g>
     <g id="text_8">
      <!-- 100 -->
      <g transform="translate(603.837895 401.038437) scale(0.1 -0.1)">
       <defs>
        <path id="DejaVuSans-31" d="M 794 531 
L 1825 531 
L 1825 4091 
L 703 3866 
L 703 4441 
L 1819 4666 
L 2450 4666 
L 2450 531 
L 3481 531 
L 3481 0 
L 794 0 
L 794 531 
z
" transform="scale(0.015625)"/>
       </defs>
       <use xlink:href="#DejaVuSans-31"/>
       <use xlink:href="#DejaVuSans-30" x="63.623047"/>
       <use xlink:href="#DejaVuSans-30" x="127.246094"/>
      </g>
     </g>
    </g>
    <g id="text_9">
     <!-- activation energy -->
     <g transform="translate(287.698906 417.755938) scale(0.14 -0.14)">
      <defs>
       <path id="DejaVuSans-61" d="M 2194 1759 
Q 1497 1759 1228 1600 
Q 959 1441 959 1056 
Q 959 750 1161 570 
Q 1363 391 1709 391 
Q 2188 391 2477 730 
Q 2766 1069 2766 1631 
L 2766 1759 
L 2194 1759 
z
M 3341 1997 
L 3341 0 
L 2766 0 
L 2766 531 
Q 2569 213 2275 61 
Q 1981 -91 1556 -91 
Q 1019 -91 701 211 
Q 384 513 384 1019 
Q 384 1609 779 1909 
Q 1175 2209 1959 2209 
L 2766 2209 
L 2766 2266 
Q 2766 2663 2505 2880 
Q 2244 3097 1772 3097 
Q 1472 3097 1187 3025 
Q 903 2953 641 2809 
L 641 3341 
Q 956 3463 1253 3523 
Q 1550 3584 1831 3584 
Q 2591 3584 2966 3190 
Q 3341 2797 3341 1997 
z
" transform="scale(0.015625)"/>
       <path id="DejaVuSans-63" d="M 3122 3366 
L 3122 2828 
Q 2878 2963 2633 3030 
Q 2388 3097 2138 3097 
Q 1578 3097 1268 2742 
Q 959 2388 959 1747 
Q 959 1106 1268 751 
Q 1578 397 2138 397 
Q 2388 397 2633 464 
Q 2878 531 3122 666 
L 3122 134 
Q 2881 22 2623 -34 
Q 2366 -91 2075 -91 
Q 1284 -91 818 406 
Q 353 903 353 1747 
Q 353 2603 823 3093 
Q 1294 3584 2113 3584 
Q 2378 3584 2631 3529 
Q 2884 3475 3122 3366 
z
" transform="scale(0.015625)"/>
       <path id="DejaVuSans-74" d="M 1172 4494 
L 1172 3500 
L 2356 3500 
L 2356 3053 
L 1172 3053 
L 1172 1153 
Q 1172 725 1289 603 
Q 1406 481 1766 481 
L 2356 481 
L 2356 0 
L 1766 0 
Q 1100 0 847 248 
Q 594 497 594 1153 
L 594 3053 
L 172 3053 
L 172 3500 
L 594 3500 
L 594 4494 
L 1172 4494 
z
" transform="scale(0.015625)"/>
       <path id="DejaVuSans-69" d="M 603 3500 
L 1178 3500 
L 1178 0 
L 603 0 
L 603 3500 
z
M 603 4863 
L 1178 4863 
L 1178 4134 
L 603 4134 
L 603 4863 
z
" transform="scale(0.015625)"/>
       <path id="DejaVuSans-76" d="M 191 3500 
L 800 3500 
L 1894 563 
L 2988 3500 
L 3597 3500 
L 2284 0 
L 1503 0 
L 191 3500 
z
" transform="scale(0.015625)"/>
       <path id="DejaVuSans-6f" d="M 1959 3097 
Q 1497 3097 1228 2736 
Q 959 2375 959 1747 
Q 959 1119 1226 758 
Q 1494 397 1959 397 
Q 2419 397 2687 759 
Q 2956 1122 2956 1747 
Q 2956 2369 2687 2733 
Q 2419 3097 1959 3097 
z
M 1959 3584 
Q 2709 3584 3137 3096 
Q 3566 2609 3566 1747 
Q 3566 888 3137 398 
Q 2709 -91 1959 -91 
Q 1206 -91 779 398 
Q 353 888 353 1747 
Q 353 2609 779 3096 
Q 1206 3584 1959 3584 
z
" transform="scale(0.015625)"/>
       <path id="DejaVuSans-6e" d="M 3513 2113 
L 3513 0 
L 2938 0 
L 2938 2094 
Q 2938 2591 2744 2837 
Q 2550 3084 2163 3084 
Q 1697 3084 1428 2787 
Q 1159 2491 1159 1978 
L 1159 0 
L 581 0 
L 581 3500 
L 1159 3500 
L 1159 2956 
Q 1366 3272 1645 3428 
Q 1925 3584 2291 3584 
Q 2894 3584 3203 3211 
Q 3513 2838 3513 2113 
z
" transform="scale(0.015625)"/>
       <path id="DejaVuSans-20" transform="scale(0.015625)"/>
       <path id="DejaVuSans-65" d="M 3597 1894 
L 3597 1613 
L 953 1613 
Q 991 1019 1311 708 
Q 1631 397 2203 397 
Q 2534 397 2845 478 
Q 3156 559 3463 722 
L 3463 178 
Q 3153 47 2828 -22 
Q 2503 -91 2169 -91 
Q 1331 -91 842 396 
Q 353 884 353 1716 
Q 353 2575 817 3079 
Q 1281 3584 2069 3584 
Q 2775 3584 3186 3129 
Q 3597 2675 3597 1894 
z
M 3022 2063 
Q 3016 2534 2758 2815 
Q 2500 3097 2075 3097 
Q 1594 3097 1305 2825 
Q 1016 2553 972 2059 
L 3022 2063 
z
" transform="scale(0.015625)"/>
       <path id="DejaVuSans-72" d="M 2631 2963 
Q 2534 3019 2420 3045 
Q 2306 3072 2169 3072 
Q 1681 3072 1420 2755 
Q 1159 2438 1159 1844 
L 1159 0 
L 581 0 
L 581 3500 
L 1159 3500 
L 1159 2956 
Q 1341 3275 1631 3429 
Q 1922 3584 2338 3584 
Q 2397 3584 2469 3576 
Q 2541 3569 2628 3553 
L 2631 2963 
z
" transform="scale(0.015625)"/>
       <path id="DejaVuSans-67" d="M 2906 1791 
Q 2906 2416 2648 2759 
Q 2391 3103 1925 3103 
Q 1463 3103 1205 2759 
Q 947 2416 947 1791 
Q 947 1169 1205 825 
Q 1463 481 1925 481 
Q 2391 481 2648 825 
Q 2906 1169 2906 1791 
z
M 3481 434 
Q 3481 -459 3084 -895 
Q 2688 -1331 1869 -1331 
Q 1566 -1331 1297 -1286 
Q 1028 -1241 775 -1147 
L 775 -588 
Q 1028 -725 1275 -790 
Q 1522 -856 1778 -856 
Q 2344 -856 2625 -561 
Q 2906 -266 2906 331 
L 2906 616 
Q 2728 306 2450 153 
Q 2172 0 1784 0 
Q 1141 0 747 490 
Q 353 981 353 1791 
Q 353 2603 747 3093 
Q 1141 3584 1784 3584 
Q 2172 3584 2450 3431 
Q 2728 3278 2906 2969 
L 2906 3500 
L 3481 3500 
L 3481 434 
z
" transform="scale(0.015625)"/>
       <path id="DejaVuSans-79" d="M 2059 -325 
Q 1816 -950 1584 -1140 
Q 1353 -1331 966 -1331 
L 506 -1331 
L 506 -850 
L 844 -850 
Q 1081 -850 1212 -737 
Q 1344 -625 1503 -206 
L 1606 56 
L 191 3500 
L 800 3500 
L 1894 763 
L 2988 3500 
L 3597 3500 
L 2059 -325 
z
" transform="scale(0.015625)"/>
      </defs>
      <use xlink:href="#DejaVuSans-61"/>
      <use xlink:href="#DejaVuSans-63" x="61.279297"/>
      <use xlink:href="#DejaVuSans-74" x="116.259766"/>
      <use xlink:href="#DejaVuSans-69" x="155.46875"/>
      <use xlink:href="#DejaVuSans-76" x="183.251953"/>
      <use xlink:href="#DejaVuSans-61" x="242.431641"/>
      <use xlink:href="#DejaVuSans-74" x="303.710938"/>
      <use xlink:href="#DejaVuSans-69" x="342.919922"/>
      <use xlink:href="#DejaVuSans-6f" x="370.703125"/>
      <use xlink:href="#DejaVuSans-6e" x="431.884766"/>
      <use xlink:href="#DejaVuSans-20" x="495.263672"/>
      <use xlink:href="#DejaVuSans-65" x="527.050781"/>
      <use xlink:href="#DejaVuSans-6e" x="588.574219"/>
      <use xlink:href="#DejaVuSans-65" x="651.953125"/>
      <use xlink:href="#DejaVuSans-72" x="713.476562"/>
      <use xlink:href="#DejaVuSans-67" x="752.839844"/>
      <use xlink:href="#DejaVuSans-79" x="816.316406"/>
     </g>
    </g>
   </g>
   <g id="matplotlib.axis_2">
    <g id="ytick_1">
     <g id="line2d_9">
      <defs>
       <path id="m63f8022fa7" d="M 0 0 
L -3.5 0 
" style="stroke: #000000; stroke-width: 0.8"/>
      </defs>
      <g>
       <use xlink:href="#m63f8022fa7" x="60.77" y="386.44" style="stroke: #000000; stroke-width: 0.8"/>
      </g>
     </g>
     <g id="text_10">
      <!-- 0 -->
      <g transform="translate(47.4075 390.239219) scale(0.1 -0.1)">
       <use xlink:href="#DejaVuSans-30"/>
      </g>
     </g>
    </g>
    <g id="ytick_2">
     <g id="line2d_10">
      <g>
       <use xlink:href="#m63f8022fa7" x="60.77" y="308.701543" style="stroke: #000000; stroke-width: 0.8"/>
      </g>
     </g>
     <g id="text_11">
      <!-- 500 -->
      <g transform="translate(34.6825 312.500761) scale(0.1 -0.1)">
       <use xlink:href="#DejaVuSans-35"/>
       <use xlink:href="#DejaVuSans-30" x="63.623047"/>
       <use xlink:href="#DejaVuSans-30" x="127.246094"/>
      </g>
     </g>
    </g>
    <g id="ytick_3">
     <g id="line2d_11">
      <g>
       <use xlink:href="#m63f8022fa7" x="60.77" y="230.963085" style="stroke: #000000; stroke-width: 0.8"/>
      </g>
     </g>
     <g id="text_12">
      <!-- 1000 -->
      <g transform="translate(28.32 234.762304) scale(0.1 -0.1)">
       <use xlink:href="#DejaVuSans-31"/>
       <use xlink:href="#DejaVuSans-30" x="63.623047"/>
       <use xlink:href="#DejaVuSans-30" x="127.246094"/>
       <use xlink:href="#DejaVuSans-30" x="190.869141"/>
      </g>
     </g>
    </g>
    <g id="ytick_4">
     <g id="line2d_12">
      <g>
       <use xlink:href="#m63f8022fa7" x="60.77" y="153.224628" style="stroke: #000000; stroke-width: 0.8"/>
      </g>
     </g>
     <g id="text_13">
      <!-- 1500 -->
      <g transform="translate(28.32 157.023847) scale(0.1 -0.1)">
       <use xlink:href="#DejaVuSans-31"/>
       <use xlink:href="#DejaVuSans-35" x="63.623047"/>
       <use xlink:href="#DejaVuSans-30" x="127.246094"/>
       <use xlink:href="#DejaVuSans-30" x="190.869141"/>
      </g>
     </g>
    </g>
    <g id="ytick_5">
     <g id="line2d_13">
      <g>
       <use xlink:href="#m63f8022fa7" x="60.77" y="75.48617" style="stroke: #000000; stroke-width: 0.8"/>
      </g>
     </g>
     <g id="text_14">
      <!-- 2000 -->
      <g transform="translate(28.32 79.285389) scale(0.1 -0.1)">
       <defs>
        <path id="DejaVuSans-32" d="M 1228 531 
L 3431 531 
L 3431 0 
L 469 0 
L 469 531 
Q 828 903 1448 1529 
Q 2069 2156 2228 2338 
Q 2531 2678 2651 2914 
Q 2772 3150 2772 3378 
Q 2772 3750 2511 3984 
Q 2250 4219 1831 4219 
Q 1534 4219 1204 4116 
Q 875 4013 500 3803 
L 500 4441 
Q 881 4594 1212 4672 
Q 1544 4750 1819 4750 
Q 2544 4750 2975 4387 
Q 3406 4025 3406 3419 
Q 3406 3131 3298 2873 
Q 3191 2616 2906 2266 
Q 2828 2175 2409 1742 
Q 1991 1309 1228 531 
z
" transform="scale(0.015625)"/>
       </defs>
       <use xlink:href="#DejaVuSans-32"/>
       <use xlink:href="#DejaVuSans-30" x="63.623047"/>
       <use xlink:href="#DejaVuSans-30" x="127.246094"/>
       <use xlink:href="#DejaVuSans-30" x="190.869141"/>
      </g>
     </g>
    </g>
    <g id="text_15">
     <!-- Count -->
     <g transform="translate(21.408437 219.407813) rotate(-90) scale(0.14 -0.14)">
      <defs>
       <path id="DejaVuSans-43" d="M 4122 4306 
L 4122 3641 
Q 3803 3938 3442 4084 
Q 3081 4231 2675 4231 
Q 1875 4231 1450 3742 
Q 1025 3253 1025 2328 
Q 1025 1406 1450 917 
Q 1875 428 2675 428 
Q 3081 428 3442 575 
Q 3803 722 4122 1019 
L 4122 359 
Q 3791 134 3420 21 
Q 3050 -91 2638 -91 
Q 1578 -91 968 557 
Q 359 1206 359 2328 
Q 359 3453 968 4101 
Q 1578 4750 2638 4750 
Q 3056 4750 3426 4639 
Q 3797 4528 4122 4306 
z
" transform="scale(0.015625)"/>
       <path id="DejaVuSans-75" d="M 544 1381 
L 544 3500 
L 1119 3500 
L 1119 1403 
Q 1119 906 1312 657 
Q 1506 409 1894 409 
Q 2359 409 2629 706 
Q 2900 1003 2900 1516 
L 2900 3500 
L 3475 3500 
L 3475 0 
L 2900 0 
L 2900 538 
Q 2691 219 2414 64 
Q 2138 -91 1772 -91 
Q 1169 -91 856 284 
Q 544 659 544 1381 
z
M 1991 3584 
L 1991 3584 
z
" transform="scale(0.015625)"/>
      </defs>
      <use xlink:href="#DejaVuSans-43"/>
      <use xlink:href="#DejaVuSans-6f" x="69.824219"/>
      <use xlink:href="#DejaVuSans-75" x="131.005859"/>
      <use xlink:href="#DejaVuSans-6e" x="194.384766"/>
      <use xlink:href="#DejaVuSans-74" x="257.763672"/>
     </g>
    </g>
   </g>
   <g id="line2d_14">
    <path d="M 417.738382 386.44 
L 417.738382 28.687619 
" clip-path="url(#p87ece0230b)" style="fill: none; stroke: #ff0000; stroke-width: 1.6; stroke-linecap: square"/>
   </g>
   <g id="patch_187">
    <path d="M 60.77 386.44 
L 60.77 10.8 
" style="fill: none; stroke: #000000; stroke-width: 0.8; stroke-linejoin: miter; stroke-linecap: square"/>
   </g>
   <g id="patch_188">
    <path d="M 637.2 386.44 
L 637.2 10.8 
" style="fill: none; stroke: #000000; stroke-width: 0.8; stroke-linejoin: miter; stroke-linecap: square"/>
   </g>
   <g id="patch_189">
    <path d="M 60.77 386.44 
L 637.2 386.44 
" style="fill: none; stroke: #000000; stroke-width: 0.8; stroke-linejoin: miter; stroke-linecap: square"/>
   </g>
   <g id="patch_190">
    <path d="M 60.77 10.8 
L 637.2 10.8 
" style="fill: none; stroke: #000000; stroke-width: 0.8; stroke-linejoin: miter; stroke-linecap: square"/>
   </g>
   <g id="text_16">
    <!-- $\mu_1 = 84.104$ -->
    <g transform="translate(464.271 66.857188) scale(0.17 -0.17)">
     <defs>
      <path id="DejaVuSans-Oblique-3bc" d="M -84 -1331 
L 856 3500 
L 1434 3500 
L 1009 1322 
Q 997 1256 987 1175 
Q 978 1094 978 1013 
Q 978 722 1161 565 
Q 1344 409 1684 409 
Q 2147 409 2431 671 
Q 2716 934 2816 1459 
L 3213 3500 
L 3788 3500 
L 3266 809 
Q 3253 750 3248 706 
Q 3244 663 3244 628 
Q 3244 531 3283 486 
Q 3322 441 3406 441 
Q 3438 441 3492 456 
Q 3547 472 3647 513 
L 3559 50 
Q 3422 -19 3297 -55 
Q 3172 -91 3053 -91 
Q 2847 -91 2730 40 
Q 2613 172 2613 403 
Q 2438 153 2195 31 
Q 1953 -91 1625 -91 
Q 1334 -91 1117 43 
Q 900 178 831 397 
L 494 -1331 
L -84 -1331 
z
" transform="scale(0.015625)"/>
      <path id="DejaVuSans-3d" d="M 678 2906 
L 4684 2906 
L 4684 2381 
L 678 2381 
L 678 2906 
z
M 678 1631 
L 4684 1631 
L 4684 1100 
L 678 1100 
L 678 1631 
z
" transform="scale(0.015625)"/>
      <path id="DejaVuSans-34" d="M 2419 4116 
L 825 1625 
L 2419 1625 
L 2419 4116 
z
M 2253 4666 
L 3047 4666 
L 3047 1625 
L 3713 1625 
L 3713 1100 
L 3047 1100 
L 3047 0 
L 2419 0 
L 2419 1100 
L 313 1100 
L 313 1709 
L 2253 4666 
z
" transform="scale(0.015625)"/>
      <path id="DejaVuSans-2e" d="M 684 794 
L 1344 794 
L 1344 0 
L 684 0 
L 684 794 
z
" transform="scale(0.015625)"/>
     </defs>
     <use xlink:href="#DejaVuSans-Oblique-3bc" transform="translate(0 0.78125)"/>
     <use xlink:href="#DejaVuSans-31" transform="translate(63.623047 -15.625) scale(0.7)"/>
     <use xlink:href="#DejaVuSans-3d" transform="translate(130.375977 0.78125)"/>
     <use xlink:href="#DejaVuSans-38" transform="translate(233.647461 0.78125)"/>
     <use xlink:href="#DejaVuSans-34" transform="translate(297.270508 0.78125)"/>
     <use xlink:href="#DejaVuSans-2e" transform="translate(360.893555 0.78125)"/>
     <use xlink:href="#DejaVuSans-31" transform="translate(392.680664 0.78125)"/>
     <use xlink:href="#DejaVuSans-30" transform="translate(456.303711 0.78125)"/>
     <use xlink:href="#DejaVuSans-34" transform="translate(519.926758 0.78125)"/>
    </g>
    <!-- $\sigma_1 = 3.076$ -->
    <g transform="translate(464.271 85.928) scale(0.17 -0.17)">
     <defs>
      <path id="DejaVuSans-Oblique-3c3" d="M 2219 3044 
Q 1744 3044 1422 2700 
Q 1081 2341 969 1747 
Q 844 1119 1044 756 
Q 1241 397 1706 397 
Q 2166 397 2503 759 
Q 2844 1122 2966 1747 
Q 3075 2319 2881 2700 
Q 2700 3044 2219 3044 
z
M 2309 3503 
L 4219 3500 
L 4106 2925 
L 3463 2925 
Q 3706 2438 3575 1747 
Q 3406 888 2884 400 
Q 2359 -91 1609 -91 
Q 856 -91 525 400 
Q 194 888 363 1747 
Q 528 2609 1050 3097 
Q 1484 3503 2309 3503 
z
" transform="scale(0.015625)"/>
      <path id="DejaVuSans-33" d="M 2597 2516 
Q 3050 2419 3304 2112 
Q 3559 1806 3559 1356 
Q 3559 666 3084 287 
Q 2609 -91 1734 -91 
Q 1441 -91 1130 -33 
Q 819 25 488 141 
L 488 750 
Q 750 597 1062 519 
Q 1375 441 1716 441 
Q 2309 441 2620 675 
Q 2931 909 2931 1356 
Q 2931 1769 2642 2001 
Q 2353 2234 1838 2234 
L 1294 2234 
L 1294 2753 
L 1863 2753 
Q 2328 2753 2575 2939 
Q 2822 3125 2822 3475 
Q 2822 3834 2567 4026 
Q 2313 4219 1838 4219 
Q 1578 4219 1281 4162 
Q 984 4106 628 3988 
L 628 4550 
Q 988 4650 1302 4700 
Q 1616 4750 1894 4750 
Q 2613 4750 3031 4423 
Q 3450 4097 3450 3541 
Q 3450 3153 3228 2886 
Q 3006 2619 2597 2516 
z
" transform="scale(0.015625)"/>
     </defs>
     <use xlink:href="#DejaVuSans-Oblique-3c3" transform="translate(0 0.78125)"/>
     <use xlink:href="#DejaVuSans-31" transform="translate(63.378906 -15.625) scale(0.7)"/>
     <use xlink:href="#DejaVuSans-3d" transform="translate(130.131836 0.78125)"/>
     <use xlink:href="#DejaVuSans-33" transform="translate(233.40332 0.78125)"/>
     <use xlink:href="#DejaVuSans-2e" transform="translate(297.026367 0.78125)"/>
     <use xlink:href="#DejaVuSans-30" transform="translate(328.813477 0.78125)"/>
     <use xlink:href="#DejaVuSans-37" transform="translate(392.436523 0.78125)"/>
     <use xlink:href="#DejaVuSans-36" transform="translate(456.05957 0.78125)"/>
    </g>
   </g>
  </g>
 </g>
 <defs>
  <clipPath id="p87ece0230b">
   <rect x="60.77" y="10.8" width="576.43" height="375.64"/>
  </clipPath>
 </defs>
</svg>
