<?xml version="1.0" encoding="utf-8" standalone="no"?>
<!DOCTYPE svg PUBLIC "-//W3C//DTD SVG 1.1//EN"
  "http://www.w3.org/Graphics/SVG/1.1/DTD/svg11.dtd">
<svg xmlns:xlink="http://www.w3.org/1999/xlink" width="648pt" height="432pt" viewBox="0 0 648 432" xmlns="http://www.w3.org/2000/svg" version="1.1">
 <metadata>
  <rdf:RDF xmlns:dc="http://purl.org/dc/elements/1.1/" xmlns:cc="http://creativecommons.org/ns#" xmlns:rdf="http://www.w3.org/1999/02/22-rdf-syntax-ns#">
   <cc:Work>
    <dc:type rdf:resource="http://purl.org/dc/dcmitype/StillImage"/>
    <dc:date>2024-02-07T23:15:49.467083</dc:date>
    <dc:format>image/svg+xml</dc:format>
    <dc:creator>
     <cc:Agent>
      <dc:title>Matplotlib v3.7.2, https://matplotlib.org/</dc:title>
     </cc:Agent>
    </dc:creator>
   </cc:Work>
  </rdf:RDF>
 </metadata>
 <defs>
  <style type="text/css">*{stroke-linejoin: round; stroke-linecap: butt}</style>
 </defs>
 <g id="figure_1">
  <g id="patch_1">
   <path d="M 0 432 
L 648 432 
L 648 0 
L 0 0 
z
" style="fill: #ffffff"/>
  </g>
  <g id="axes_1">
   <g id="patch_2">
    <path d="M 60.77 386.44 
L 637.2 386.44 
L 637.2 10.8 
L 60.77 10.8 
z
" style="fill: #ffffff"/>
   </g>
   <g id="patch_3">
    <path d="M 86.971364 386.44 
L 88.598778 386.44 
L 88.598778 386.347843 
L 86.971364 386.347843 
z
" clip-path="url(#pc63f05b3f2)" style="fill: #1f77b4"/>
   </g>
   <g id="patch_4">
    <path d="M 88.598778 386.44 
L 90.226191 386.44 
L 90.226191 386.44 
L 88.598778 386.44 
z
" clip-path="url(#pc63f05b3f2)" style="fill: #1f77b4"/>
   </g>
   <g id="patch_5">
    <path d="M 90.226191 386.44 
L 91.853605 386.44 
L 91.853605 386.44 
L 90.226191 386.44 
z
" clip-path="url(#pc63f05b3f2)" style="fill: #1f77b4"/>
   </g>
   <g id="patch_6">
    <path d="M 91.853605 386.44 
L 93.481019 386.44 
L 93.481019 386.44 
L 91.853605 386.44 
z
" clip-path="url(#pc63f05b3f2)" style="fill: #1f77b4"/>
   </g>
   <g id="patch_7">
    <path d="M 93.481019 386.44 
L 95.108433 386.44 
L 95.108433 386.44 
L 93.481019 386.44 
z
" clip-path="url(#pc63f05b3f2)" style="fill: #1f77b4"/>
   </g>
   <g id="patch_8">
    <path d="M 95.108433 386.44 
L 96.735847 386.44 
L 96.735847 386.44 
L 95.108433 386.44 
z
" clip-path="url(#pc63f05b3f2)" style="fill: #1f77b4"/>
   </g>
   <g id="patch_9">
    <path d="M 96.735847 386.44 
L 98.363261 386.44 
L 98.363261 386.44 
L 96.735847 386.44 
z
" clip-path="url(#pc63f05b3f2)" style="fill: #1f77b4"/>
   </g>
   <g id="patch_10">
    <path d="M 98.363261 386.44 
L 99.990675 386.44 
L 99.990675 386.44 
L 98.363261 386.44 
z
" clip-path="url(#pc63f05b3f2)" style="fill: #1f77b4"/>
   </g>
   <g id="patch_11">
    <path d="M 99.990675 386.44 
L 101.618089 386.44 
L 101.618089 386.44 
L 99.990675 386.44 
z
" clip-path="url(#pc63f05b3f2)" style="fill: #1f77b4"/>
   </g>
   <g id="patch_12">
    <path d="M 101.618089 386.44 
L 103.245503 386.44 
L 103.245503 386.44 
L 101.618089 386.44 
z
" clip-path="url(#pc63f05b3f2)" style="fill: #1f77b4"/>
   </g>
   <g id="patch_13">
    <path d="M 103.245503 386.44 
L 104.872916 386.44 
L 104.872916 386.44 
L 103.245503 386.44 
z
" clip-path="url(#pc63f05b3f2)" style="fill: #1f77b4"/>
   </g>
   <g id="patch_14">
    <path d="M 104.872916 386.44 
L 106.50033 386.44 
L 106.50033 386.44 
L 104.872916 386.44 
z
" clip-path="url(#pc63f05b3f2)" style="fill: #1f77b4"/>
   </g>
   <g id="patch_15">
    <path d="M 106.50033 386.44 
L 108.127744 386.44 
L 108.127744 386.44 
L 106.50033 386.44 
z
" clip-path="url(#pc63f05b3f2)" style="fill: #1f77b4"/>
   </g>
   <g id="patch_16">
    <path d="M 108.127744 386.44 
L 109.755158 386.44 
L 109.755158 386.44 
L 108.127744 386.44 
z
" clip-path="url(#pc63f05b3f2)" style="fill: #1f77b4"/>
   </g>
   <g id="patch_17">
    <path d="M 109.755158 386.44 
L 111.382572 386.44 
L 111.382572 386.44 
L 109.755158 386.44 
z
" clip-path="url(#pc63f05b3f2)" style="fill: #1f77b4"/>
   </g>
   <g id="patch_18">
    <path d="M 111.382572 386.44 
L 113.009986 386.44 
L 113.009986 386.44 
L 111.382572 386.44 
z
" clip-path="url(#pc63f05b3f2)" style="fill: #1f77b4"/>
   </g>
   <g id="patch_19">
    <path d="M 113.009986 386.44 
L 114.6374 386.44 
L 114.6374 386.44 
L 113.009986 386.44 
z
" clip-path="url(#pc63f05b3f2)" style="fill: #1f77b4"/>
   </g>
   <g id="patch_20">
    <path d="M 114.6374 386.44 
L 116.264814 386.44 
L 116.264814 386.44 
L 114.6374 386.44 
z
" clip-path="url(#pc63f05b3f2)" style="fill: #1f77b4"/>
   </g>
   <g id="patch_21">
    <path d="M 116.264814 386.44 
L 117.892228 386.44 
L 117.892228 386.44 
L 116.264814 386.44 
z
" clip-path="url(#pc63f05b3f2)" style="fill: #1f77b4"/>
   </g>
   <g id="patch_22">
    <path d="M 117.892228 386.44 
L 119.519641 386.44 
L 119.519641 386.44 
L 117.892228 386.44 
z
" clip-path="url(#pc63f05b3f2)" style="fill: #1f77b4"/>
   </g>
   <g id="patch_23">
    <path d="M 119.519641 386.44 
L 121.147055 386.44 
L 121.147055 386.44 
L 119.519641 386.44 
z
" clip-path="url(#pc63f05b3f2)" style="fill: #1f77b4"/>
   </g>
   <g id="patch_24">
    <path d="M 121.147055 386.44 
L 122.774469 386.44 
L 122.774469 386.44 
L 121.147055 386.44 
z
" clip-path="url(#pc63f05b3f2)" style="fill: #1f77b4"/>
   </g>
   <g id="patch_25">
    <path d="M 122.774469 386.44 
L 124.401883 386.44 
L 124.401883 386.44 
L 122.774469 386.44 
z
" clip-path="url(#pc63f05b3f2)" style="fill: #1f77b4"/>
   </g>
   <g id="patch_26">
    <path d="M 124.401883 386.44 
L 126.029297 386.44 
L 126.029297 386.44 
L 124.401883 386.44 
z
" clip-path="url(#pc63f05b3f2)" style="fill: #1f77b4"/>
   </g>
   <g id="patch_27">
    <path d="M 126.029297 386.44 
L 127.656711 386.44 
L 127.656711 386.44 
L 126.029297 386.44 
z
" clip-path="url(#pc63f05b3f2)" style="fill: #1f77b4"/>
   </g>
   <g id="patch_28">
    <path d="M 127.656711 386.44 
L 129.284125 386.44 
L 129.284125 386.44 
L 127.656711 386.44 
z
" clip-path="url(#pc63f05b3f2)" style="fill: #1f77b4"/>
   </g>
   <g id="patch_29">
    <path d="M 129.284125 386.44 
L 130.911539 386.44 
L 130.911539 386.44 
L 129.284125 386.44 
z
" clip-path="url(#pc63f05b3f2)" style="fill: #1f77b4"/>
   </g>
   <g id="patch_30">
    <path d="M 130.911539 386.44 
L 132.538953 386.44 
L 132.538953 386.44 
L 130.911539 386.44 
z
" clip-path="url(#pc63f05b3f2)" style="fill: #1f77b4"/>
   </g>
   <g id="patch_31">
    <path d="M 132.538953 386.44 
L 134.166366 386.44 
L 134.166366 386.44 
L 132.538953 386.44 
z
" clip-path="url(#pc63f05b3f2)" style="fill: #1f77b4"/>
   </g>
   <g id="patch_32">
    <path d="M 134.166366 386.44 
L 135.79378 386.44 
L 135.79378 386.44 
L 134.166366 386.44 
z
" clip-path="url(#pc63f05b3f2)" style="fill: #1f77b4"/>
   </g>
   <g id="patch_33">
    <path d="M 135.79378 386.44 
L 137.421194 386.44 
L 137.421194 386.44 
L 135.79378 386.44 
z
" clip-path="url(#pc63f05b3f2)" style="fill: #1f77b4"/>
   </g>
   <g id="patch_34">
    <path d="M 137.421194 386.44 
L 139.048608 386.44 
L 139.048608 386.44 
L 137.421194 386.44 
z
" clip-path="url(#pc63f05b3f2)" style="fill: #1f77b4"/>
   </g>
   <g id="patch_35">
    <path d="M 139.048608 386.44 
L 140.676022 386.44 
L 140.676022 386.44 
L 139.048608 386.44 
z
" clip-path="url(#pc63f05b3f2)" style="fill: #1f77b4"/>
   </g>
   <g id="patch_36">
    <path d="M 140.676022 386.44 
L 142.303436 386.44 
L 142.303436 386.44 
L 140.676022 386.44 
z
" clip-path="url(#pc63f05b3f2)" style="fill: #1f77b4"/>
   </g>
   <g id="patch_37">
    <path d="M 142.303436 386.44 
L 143.93085 386.44 
L 143.93085 386.44 
L 142.303436 386.44 
z
" clip-path="url(#pc63f05b3f2)" style="fill: #1f77b4"/>
   </g>
   <g id="patch_38">
    <path d="M 143.93085 386.44 
L 145.558264 386.44 
L 145.558264 386.44 
L 143.93085 386.44 
z
" clip-path="url(#pc63f05b3f2)" style="fill: #1f77b4"/>
   </g>
   <g id="patch_39">
    <path d="M 145.558264 386.44 
L 147.185678 386.44 
L 147.185678 386.44 
L 145.558264 386.44 
z
" clip-path="url(#pc63f05b3f2)" style="fill: #1f77b4"/>
   </g>
   <g id="patch_40">
    <path d="M 147.185678 386.44 
L 148.813091 386.44 
L 148.813091 386.44 
L 147.185678 386.44 
z
" clip-path="url(#pc63f05b3f2)" style="fill: #1f77b4"/>
   </g>
   <g id="patch_41">
    <path d="M 148.813091 386.44 
L 150.440505 386.44 
L 150.440505 386.44 
L 148.813091 386.44 
z
" clip-path="url(#pc63f05b3f2)" style="fill: #1f77b4"/>
   </g>
   <g id="patch_42">
    <path d="M 150.440505 386.44 
L 152.067919 386.44 
L 152.067919 386.44 
L 150.440505 386.44 
z
" clip-path="url(#pc63f05b3f2)" style="fill: #1f77b4"/>
   </g>
   <g id="patch_43">
    <path d="M 152.067919 386.44 
L 153.695333 386.44 
L 153.695333 386.347843 
L 152.067919 386.347843 
z
" clip-path="url(#pc63f05b3f2)" style="fill: #1f77b4"/>
   </g>
   <g id="patch_44">
    <path d="M 153.695333 386.44 
L 155.322747 386.44 
L 155.322747 386.44 
L 153.695333 386.44 
z
" clip-path="url(#pc63f05b3f2)" style="fill: #1f77b4"/>
   </g>
   <g id="patch_45">
    <path d="M 155.322747 386.44 
L 156.950161 386.44 
L 156.950161 386.44 
L 155.322747 386.44 
z
" clip-path="url(#pc63f05b3f2)" style="fill: #1f77b4"/>
   </g>
   <g id="patch_46">
    <path d="M 156.950161 386.44 
L 158.577575 386.44 
L 158.577575 386.44 
L 156.950161 386.44 
z
" clip-path="url(#pc63f05b3f2)" style="fill: #1f77b4"/>
   </g>
   <g id="patch_47">
    <path d="M 158.577575 386.44 
L 160.204989 386.44 
L 160.204989 386.44 
L 158.577575 386.44 
z
" clip-path="url(#pc63f05b3f2)" style="fill: #1f77b4"/>
   </g>
   <g id="patch_48">
    <path d="M 160.204989 386.44 
L 161.832403 386.44 
L 161.832403 386.44 
L 160.204989 386.44 
z
" clip-path="url(#pc63f05b3f2)" style="fill: #1f77b4"/>
   </g>
   <g id="patch_49">
    <path d="M 161.832403 386.44 
L 163.459816 386.44 
L 163.459816 386.44 
L 161.832403 386.44 
z
" clip-path="url(#pc63f05b3f2)" style="fill: #1f77b4"/>
   </g>
   <g id="patch_50">
    <path d="M 163.459816 386.44 
L 165.08723 386.44 
L 165.08723 386.347843 
L 163.459816 386.347843 
z
" clip-path="url(#pc63f05b3f2)" style="fill: #1f77b4"/>
   </g>
   <g id="patch_51">
    <path d="M 165.08723 386.44 
L 166.714644 386.44 
L 166.714644 386.44 
L 165.08723 386.44 
z
" clip-path="url(#pc63f05b3f2)" style="fill: #1f77b4"/>
   </g>
   <g id="patch_52">
    <path d="M 166.714644 386.44 
L 168.342058 386.44 
L 168.342058 386.44 
L 166.714644 386.44 
z
" clip-path="url(#pc63f05b3f2)" style="fill: #1f77b4"/>
   </g>
   <g id="patch_53">
    <path d="M 168.342058 386.44 
L 169.969472 386.44 
L 169.969472 386.44 
L 168.342058 386.44 
z
" clip-path="url(#pc63f05b3f2)" style="fill: #1f77b4"/>
   </g>
   <g id="patch_54">
    <path d="M 169.969472 386.44 
L 171.596886 386.44 
L 171.596886 386.44 
L 169.969472 386.44 
z
" clip-path="url(#pc63f05b3f2)" style="fill: #1f77b4"/>
   </g>
   <g id="patch_55">
    <path d="M 171.596886 386.44 
L 173.2243 386.44 
L 173.2243 386.347843 
L 171.596886 386.347843 
z
" clip-path="url(#pc63f05b3f2)" style="fill: #1f77b4"/>
   </g>
   <g id="patch_56">
    <path d="M 173.2243 386.44 
L 174.851714 386.44 
L 174.851714 386.44 
L 173.2243 386.44 
z
" clip-path="url(#pc63f05b3f2)" style="fill: #1f77b4"/>
   </g>
   <g id="patch_57">
    <path d="M 174.851714 386.44 
L 176.479128 386.44 
L 176.479128 386.255687 
L 174.851714 386.255687 
z
" clip-path="url(#pc63f05b3f2)" style="fill: #1f77b4"/>
   </g>
   <g id="patch_58">
    <path d="M 176.479128 386.44 
L 178.106542 386.44 
L 178.106542 386.44 
L 176.479128 386.44 
z
" clip-path="url(#pc63f05b3f2)" style="fill: #1f77b4"/>
   </g>
   <g id="patch_59">
    <path d="M 178.106542 386.44 
L 179.733955 386.44 
L 179.733955 386.44 
L 178.106542 386.44 
z
" clip-path="url(#pc63f05b3f2)" style="fill: #1f77b4"/>
   </g>
   <g id="patch_60">
    <path d="M 179.733955 386.44 
L 181.361369 386.44 
L 181.361369 386.255687 
L 179.733955 386.255687 
z
" clip-path="url(#pc63f05b3f2)" style="fill: #1f77b4"/>
   </g>
   <g id="patch_61">
    <path d="M 181.361369 386.44 
L 182.988783 386.44 
L 182.988783 386.347843 
L 181.361369 386.347843 
z
" clip-path="url(#pc63f05b3f2)" style="fill: #1f77b4"/>
   </g>
   <g id="patch_62">
    <path d="M 182.988783 386.44 
L 184.616197 386.44 
L 184.616197 386.347843 
L 182.988783 386.347843 
z
" clip-path="url(#pc63f05b3f2)" style="fill: #1f77b4"/>
   </g>
   <g id="patch_63">
    <path d="M 184.616197 386.44 
L 186.243611 386.44 
L 186.243611 386.44 
L 184.616197 386.44 
z
" clip-path="url(#pc63f05b3f2)" style="fill: #1f77b4"/>
   </g>
   <g id="patch_64">
    <path d="M 186.243611 386.44 
L 187.871025 386.44 
L 187.871025 386.347843 
L 186.243611 386.347843 
z
" clip-path="url(#pc63f05b3f2)" style="fill: #1f77b4"/>
   </g>
   <g id="patch_65">
    <path d="M 187.871025 386.44 
L 189.498439 386.44 
L 189.498439 386.347843 
L 187.871025 386.347843 
z
" clip-path="url(#pc63f05b3f2)" style="fill: #1f77b4"/>
   </g>
   <g id="patch_66">
    <path d="M 189.498439 386.44 
L 191.125853 386.44 
L 191.125853 386.347843 
L 189.498439 386.347843 
z
" clip-path="url(#pc63f05b3f2)" style="fill: #1f77b4"/>
   </g>
   <g id="patch_67">
    <path d="M 191.125853 386.44 
L 192.753267 386.44 
L 192.753267 386.44 
L 191.125853 386.44 
z
" clip-path="url(#pc63f05b3f2)" style="fill: #1f77b4"/>
   </g>
   <g id="patch_68">
    <path d="M 192.753267 386.44 
L 194.38068 386.44 
L 194.38068 386.255687 
L 192.753267 386.255687 
z
" clip-path="url(#pc63f05b3f2)" style="fill: #1f77b4"/>
   </g>
   <g id="patch_69">
    <path d="M 194.38068 386.44 
L 196.008094 386.44 
L 196.008094 386.347843 
L 194.38068 386.347843 
z
" clip-path="url(#pc63f05b3f2)" style="fill: #1f77b4"/>
   </g>
   <g id="patch_70">
    <path d="M 196.008094 386.44 
L 197.635508 386.44 
L 197.635508 386.44 
L 196.008094 386.44 
z
" clip-path="url(#pc63f05b3f2)" style="fill: #1f77b4"/>
   </g>
   <g id="patch_71">
    <path d="M 197.635508 386.44 
L 199.262922 386.44 
L 199.262922 386.16353 
L 197.635508 386.16353 
z
" clip-path="url(#pc63f05b3f2)" style="fill: #1f77b4"/>
   </g>
   <g id="patch_72">
    <path d="M 199.262922 386.44 
L 200.890336 386.44 
L 200.890336 386.44 
L 199.262922 386.44 
z
" clip-path="url(#pc63f05b3f2)" style="fill: #1f77b4"/>
   </g>
   <g id="patch_73">
    <path d="M 200.890336 386.44 
L 202.51775 386.44 
L 202.51775 386.347843 
L 200.890336 386.347843 
z
" clip-path="url(#pc63f05b3f2)" style="fill: #1f77b4"/>
   </g>
   <g id="patch_74">
    <path d="M 202.51775 386.44 
L 204.145164 386.44 
L 204.145164 386.071373 
L 202.51775 386.071373 
z
" clip-path="url(#pc63f05b3f2)" style="fill: #1f77b4"/>
   </g>
   <g id="patch_75">
    <path d="M 204.145164 386.44 
L 205.772578 386.44 
L 205.772578 386.255687 
L 204.145164 386.255687 
z
" clip-path="url(#pc63f05b3f2)" style="fill: #1f77b4"/>
   </g>
   <g id="patch_76">
    <path d="M 205.772578 386.44 
L 207.399992 386.44 
L 207.399992 386.255687 
L 205.772578 386.255687 
z
" clip-path="url(#pc63f05b3f2)" style="fill: #1f77b4"/>
   </g>
   <g id="patch_77">
    <path d="M 207.399992 386.44 
L 209.027405 386.44 
L 209.027405 386.255687 
L 207.399992 386.255687 
z
" clip-path="url(#pc63f05b3f2)" style="fill: #1f77b4"/>
   </g>
   <g id="patch_78">
    <path d="M 209.027405 386.44 
L 210.654819 386.44 
L 210.654819 386.071373 
L 209.027405 386.071373 
z
" clip-path="url(#pc63f05b3f2)" style="fill: #1f77b4"/>
   </g>
   <g id="patch_79">
    <path d="M 210.654819 386.44 
L 212.282233 386.44 
L 212.282233 386.071373 
L 210.654819 386.071373 
z
" clip-path="url(#pc63f05b3f2)" style="fill: #1f77b4"/>
   </g>
   <g id="patch_80">
    <path d="M 212.282233 386.44 
L 213.909647 386.44 
L 213.909647 386.16353 
L 212.282233 386.16353 
z
" clip-path="url(#pc63f05b3f2)" style="fill: #1f77b4"/>
   </g>
   <g id="patch_81">
    <path d="M 213.909647 386.44 
L 215.537061 386.44 
L 215.537061 386.255687 
L 213.909647 386.255687 
z
" clip-path="url(#pc63f05b3f2)" style="fill: #1f77b4"/>
   </g>
   <g id="patch_82">
    <path d="M 215.537061 386.44 
L 217.164475 386.44 
L 217.164475 386.16353 
L 215.537061 386.16353 
z
" clip-path="url(#pc63f05b3f2)" style="fill: #1f77b4"/>
   </g>
   <g id="patch_83">
    <path d="M 217.164475 386.44 
L 218.791889 386.44 
L 218.791889 386.16353 
L 217.164475 386.16353 
z
" clip-path="url(#pc63f05b3f2)" style="fill: #1f77b4"/>
   </g>
   <g id="patch_84">
    <path d="M 218.791889 386.44 
L 220.419303 386.44 
L 220.419303 385.794903 
L 218.791889 385.794903 
z
" clip-path="url(#pc63f05b3f2)" style="fill: #1f77b4"/>
   </g>
   <g id="patch_85">
    <path d="M 220.419303 386.44 
L 222.046717 386.44 
L 222.046717 386.16353 
L 220.419303 386.16353 
z
" clip-path="url(#pc63f05b3f2)" style="fill: #1f77b4"/>
   </g>
   <g id="patch_86">
    <path d="M 222.046717 386.44 
L 223.67413 386.44 
L 223.67413 386.071373 
L 222.046717 386.071373 
z
" clip-path="url(#pc63f05b3f2)" style="fill: #1f77b4"/>
   </g>
   <g id="patch_87">
    <path d="M 223.67413 386.44 
L 225.301544 386.44 
L 225.301544 386.071373 
L 223.67413 386.071373 
z
" clip-path="url(#pc63f05b3f2)" style="fill: #1f77b4"/>
   </g>
   <g id="patch_88">
    <path d="M 225.301544 386.44 
L 226.928958 386.44 
L 226.928958 385.702746 
L 225.301544 385.702746 
z
" clip-path="url(#pc63f05b3f2)" style="fill: #1f77b4"/>
   </g>
   <g id="patch_89">
    <path d="M 226.928958 386.44 
L 228.556372 386.44 
L 228.556372 385.88706 
L 226.928958 385.88706 
z
" clip-path="url(#pc63f05b3f2)" style="fill: #1f77b4"/>
   </g>
   <g id="patch_90">
    <path d="M 228.556372 386.44 
L 230.183786 386.44 
L 230.183786 385.61059 
L 228.556372 385.61059 
z
" clip-path="url(#pc63f05b3f2)" style="fill: #1f77b4"/>
   </g>
   <g id="patch_91">
    <path d="M 230.183786 386.44 
L 231.8112 386.44 
L 231.8112 385.979216 
L 230.183786 385.979216 
z
" clip-path="url(#pc63f05b3f2)" style="fill: #1f77b4"/>
   </g>
   <g id="patch_92">
    <path d="M 231.8112 386.44 
L 233.438614 386.44 
L 233.438614 385.426276 
L 231.8112 385.426276 
z
" clip-path="url(#pc63f05b3f2)" style="fill: #1f77b4"/>
   </g>
   <g id="patch_93">
    <path d="M 233.438614 386.44 
L 235.066028 386.44 
L 235.066028 385.241963 
L 233.438614 385.241963 
z
" clip-path="url(#pc63f05b3f2)" style="fill: #1f77b4"/>
   </g>
   <g id="patch_94">
    <path d="M 235.066028 386.44 
L 236.693442 386.44 
L 236.693442 385.149806 
L 235.066028 385.149806 
z
" clip-path="url(#pc63f05b3f2)" style="fill: #1f77b4"/>
   </g>
   <g id="patch_95">
    <path d="M 236.693442 386.44 
L 238.320855 386.44 
L 238.320855 385.334119 
L 236.693442 385.334119 
z
" clip-path="url(#pc63f05b3f2)" style="fill: #1f77b4"/>
   </g>
   <g id="patch_96">
    <path d="M 238.320855 386.44 
L 239.948269 386.44 
L 239.948269 385.518433 
L 238.320855 385.518433 
z
" clip-path="url(#pc63f05b3f2)" style="fill: #1f77b4"/>
   </g>
   <g id="patch_97">
    <path d="M 239.948269 386.44 
L 241.575683 386.44 
L 241.575683 385.426276 
L 239.948269 385.426276 
z
" clip-path="url(#pc63f05b3f2)" style="fill: #1f77b4"/>
   </g>
   <g id="patch_98">
    <path d="M 241.575683 386.44 
L 243.203097 386.44 
L 243.203097 385.426276 
L 241.575683 385.426276 
z
" clip-path="url(#pc63f05b3f2)" style="fill: #1f77b4"/>
   </g>
   <g id="patch_99">
    <path d="M 243.203097 386.44 
L 244.830511 386.44 
L 244.830511 385.057649 
L 243.203097 385.057649 
z
" clip-path="url(#pc63f05b3f2)" style="fill: #1f77b4"/>
   </g>
   <g id="patch_100">
    <path d="M 244.830511 386.44 
L 246.457925 386.44 
L 246.457925 384.689022 
L 244.830511 384.689022 
z
" clip-path="url(#pc63f05b3f2)" style="fill: #1f77b4"/>
   </g>
   <g id="patch_101">
    <path d="M 246.457925 386.44 
L 248.085339 386.44 
L 248.085339 384.689022 
L 246.457925 384.689022 
z
" clip-path="url(#pc63f05b3f2)" style="fill: #1f77b4"/>
   </g>
   <g id="patch_102">
    <path d="M 248.085339 386.44 
L 249.712753 386.44 
L 249.712753 384.320395 
L 248.085339 384.320395 
z
" clip-path="url(#pc63f05b3f2)" style="fill: #1f77b4"/>
   </g>
   <g id="patch_103">
    <path d="M 249.712753 386.44 
L 251.340167 386.44 
L 251.340167 384.689022 
L 249.712753 384.689022 
z
" clip-path="url(#pc63f05b3f2)" style="fill: #1f77b4"/>
   </g>
   <g id="patch_104">
    <path d="M 251.340167 386.44 
L 252.96758 386.44 
L 252.96758 383.859612 
L 251.340167 383.859612 
z
" clip-path="url(#pc63f05b3f2)" style="fill: #1f77b4"/>
   </g>
   <g id="patch_105">
    <path d="M 252.96758 386.44 
L 254.594994 386.44 
L 254.594994 382.753731 
L 252.96758 382.753731 
z
" clip-path="url(#pc63f05b3f2)" style="fill: #1f77b4"/>
   </g>
   <g id="patch_106">
    <path d="M 254.594994 386.44 
L 256.222408 386.44 
L 256.222408 383.951769 
L 254.594994 383.951769 
z
" clip-path="url(#pc63f05b3f2)" style="fill: #1f77b4"/>
   </g>
   <g id="patch_107">
    <path d="M 256.222408 386.44 
L 257.849822 386.44 
L 257.849822 382.292948 
L 256.222408 382.292948 
z
" clip-path="url(#pc63f05b3f2)" style="fill: #1f77b4"/>
   </g>
   <g id="patch_108">
    <path d="M 257.849822 386.44 
L 259.477236 386.44 
L 259.477236 381.924321 
L 257.849822 381.924321 
z
" clip-path="url(#pc63f05b3f2)" style="fill: #1f77b4"/>
   </g>
   <g id="patch_109">
    <path d="M 259.477236 386.44 
L 261.10465 386.44 
L 261.10465 381.187067 
L 259.477236 381.187067 
z
" clip-path="url(#pc63f05b3f2)" style="fill: #1f77b4"/>
   </g>
   <g id="patch_110">
    <path d="M 261.10465 386.44 
L 262.732064 386.44 
L 262.732064 381.832164 
L 261.10465 381.832164 
z
" clip-path="url(#pc63f05b3f2)" style="fill: #1f77b4"/>
   </g>
   <g id="patch_111">
    <path d="M 262.732064 386.44 
L 264.359478 386.44 
L 264.359478 380.449813 
L 262.732064 380.449813 
z
" clip-path="url(#pc63f05b3f2)" style="fill: #1f77b4"/>
   </g>
   <g id="patch_112">
    <path d="M 264.359478 386.44 
L 265.986892 386.44 
L 265.986892 379.251776 
L 264.359478 379.251776 
z
" clip-path="url(#pc63f05b3f2)" style="fill: #1f77b4"/>
   </g>
   <g id="patch_113">
    <path d="M 265.986892 386.44 
L 267.614305 386.44 
L 267.614305 379.436089 
L 265.986892 379.436089 
z
" clip-path="url(#pc63f05b3f2)" style="fill: #1f77b4"/>
   </g>
   <g id="patch_114">
    <path d="M 267.614305 386.44 
L 269.241719 386.44 
L 269.241719 379.159619 
L 267.614305 379.159619 
z
" clip-path="url(#pc63f05b3f2)" style="fill: #1f77b4"/>
   </g>
   <g id="patch_115">
    <path d="M 269.241719 386.44 
L 270.869133 386.44 
L 270.869133 377.408642 
L 269.241719 377.408642 
z
" clip-path="url(#pc63f05b3f2)" style="fill: #1f77b4"/>
   </g>
   <g id="patch_116">
    <path d="M 270.869133 386.44 
L 272.496547 386.44 
L 272.496547 375.289037 
L 270.869133 375.289037 
z
" clip-path="url(#pc63f05b3f2)" style="fill: #1f77b4"/>
   </g>
   <g id="patch_117">
    <path d="M 272.496547 386.44 
L 274.123961 386.44 
L 274.123961 373.169433 
L 272.496547 373.169433 
z
" clip-path="url(#pc63f05b3f2)" style="fill: #1f77b4"/>
   </g>
   <g id="patch_118">
    <path d="M 274.123961 386.44 
L 275.751375 386.44 
L 275.751375 371.510612 
L 274.123961 371.510612 
z
" clip-path="url(#pc63f05b3f2)" style="fill: #1f77b4"/>
   </g>
   <g id="patch_119">
    <path d="M 275.751375 386.44 
L 277.378789 386.44 
L 277.378789 370.220418 
L 275.751375 370.220418 
z
" clip-path="url(#pc63f05b3f2)" style="fill: #1f77b4"/>
   </g>
   <g id="patch_120">
    <path d="M 277.378789 386.44 
L 279.006203 386.44 
L 279.006203 365.151798 
L 277.378789 365.151798 
z
" clip-path="url(#pc63f05b3f2)" style="fill: #1f77b4"/>
   </g>
   <g id="patch_121">
    <path d="M 279.006203 386.44 
L 280.633617 386.44 
L 280.633617 362.663567 
L 279.006203 362.663567 
z
" clip-path="url(#pc63f05b3f2)" style="fill: #1f77b4"/>
   </g>
   <g id="patch_122">
    <path d="M 280.633617 386.44 
L 282.26103 386.44 
L 282.26103 359.253768 
L 280.633617 359.253768 
z
" clip-path="url(#pc63f05b3f2)" style="fill: #1f77b4"/>
   </g>
   <g id="patch_123">
    <path d="M 282.26103 386.44 
L 283.888444 386.44 
L 283.888444 358.885141 
L 282.26103 358.885141 
z
" clip-path="url(#pc63f05b3f2)" style="fill: #1f77b4"/>
   </g>
   <g id="patch_124">
    <path d="M 283.888444 386.44 
L 285.515858 386.44 
L 285.515858 356.94985 
L 283.888444 356.94985 
z
" clip-path="url(#pc63f05b3f2)" style="fill: #1f77b4"/>
   </g>
   <g id="patch_125">
    <path d="M 285.515858 386.44 
L 287.143272 386.44 
L 287.143272 356.028283 
L 285.515858 356.028283 
z
" clip-path="url(#pc63f05b3f2)" style="fill: #1f77b4"/>
   </g>
   <g id="patch_126">
    <path d="M 287.143272 386.44 
L 288.770686 386.44 
L 288.770686 352.618484 
L 287.143272 352.618484 
z
" clip-path="url(#pc63f05b3f2)" style="fill: #1f77b4"/>
   </g>
   <g id="patch_127">
    <path d="M 288.770686 386.44 
L 290.3981 386.44 
L 290.3981 350.867507 
L 288.770686 350.867507 
z
" clip-path="url(#pc63f05b3f2)" style="fill: #1f77b4"/>
   </g>
   <g id="patch_128">
    <path d="M 290.3981 386.44 
L 292.025514 386.44 
L 292.025514 351.05182 
L 290.3981 351.05182 
z
" clip-path="url(#pc63f05b3f2)" style="fill: #1f77b4"/>
   </g>
   <g id="patch_129">
    <path d="M 292.025514 386.44 
L 293.652928 386.44 
L 293.652928 349.392999 
L 292.025514 349.392999 
z
" clip-path="url(#pc63f05b3f2)" style="fill: #1f77b4"/>
   </g>
   <g id="patch_130">
    <path d="M 293.652928 386.44 
L 295.280342 386.44 
L 295.280342 348.287119 
L 293.652928 348.287119 
z
" clip-path="url(#pc63f05b3f2)" style="fill: #1f77b4"/>
   </g>
   <g id="patch_131">
    <path d="M 295.280342 386.44 
L 296.907756 386.44 
L 296.907756 345.891044 
L 295.280342 345.891044 
z
" clip-path="url(#pc63f05b3f2)" style="fill: #1f77b4"/>
   </g>
   <g id="patch_132">
    <path d="M 296.907756 386.44 
L 298.535169 386.44 
L 298.535169 347.549865 
L 296.907756 347.549865 
z
" clip-path="url(#pc63f05b3f2)" style="fill: #1f77b4"/>
   </g>
   <g id="patch_133">
    <path d="M 298.535169 386.44 
L 300.162583 386.44 
L 300.162583 346.904768 
L 298.535169 346.904768 
z
" clip-path="url(#pc63f05b3f2)" style="fill: #1f77b4"/>
   </g>
   <g id="patch_134">
    <path d="M 300.162583 386.44 
L 301.789997 386.44 
L 301.789997 351.05182 
L 300.162583 351.05182 
z
" clip-path="url(#pc63f05b3f2)" style="fill: #1f77b4"/>
   </g>
   <g id="patch_135">
    <path d="M 301.789997 386.44 
L 303.417411 386.44 
L 303.417411 348.655745 
L 301.789997 348.655745 
z
" clip-path="url(#pc63f05b3f2)" style="fill: #1f77b4"/>
   </g>
   <g id="patch_136">
    <path d="M 303.417411 386.44 
L 305.044825 386.44 
L 305.044825 350.22241 
L 303.417411 350.22241 
z
" clip-path="url(#pc63f05b3f2)" style="fill: #1f77b4"/>
   </g>
   <g id="patch_137">
    <path d="M 305.044825 386.44 
L 306.672239 386.44 
L 306.672239 353.908678 
L 305.044825 353.908678 
z
" clip-path="url(#pc63f05b3f2)" style="fill: #1f77b4"/>
   </g>
   <g id="patch_138">
    <path d="M 306.672239 386.44 
L 308.299653 386.44 
L 308.299653 355.475343 
L 306.672239 355.475343 
z
" clip-path="url(#pc63f05b3f2)" style="fill: #1f77b4"/>
   </g>
   <g id="patch_139">
    <path d="M 308.299653 386.44 
L 309.927067 386.44 
L 309.927067 358.608671 
L 308.299653 358.608671 
z
" clip-path="url(#pc63f05b3f2)" style="fill: #1f77b4"/>
   </g>
   <g id="patch_140">
    <path d="M 309.927067 386.44 
L 311.554481 386.44 
L 311.554481 356.67338 
L 309.927067 356.67338 
z
" clip-path="url(#pc63f05b3f2)" style="fill: #1f77b4"/>
   </g>
   <g id="patch_141">
    <path d="M 311.554481 386.44 
L 313.181894 386.44 
L 313.181894 357.50279 
L 311.554481 357.50279 
z
" clip-path="url(#pc63f05b3f2)" style="fill: #1f77b4"/>
   </g>
   <g id="patch_142">
    <path d="M 313.181894 386.44 
L 314.809308 386.44 
L 314.809308 358.516514 
L 313.181894 358.516514 
z
" clip-path="url(#pc63f05b3f2)" style="fill: #1f77b4"/>
   </g>
   <g id="patch_143">
    <path d="M 314.809308 386.44 
L 316.436722 386.44 
L 316.436722 357.871417 
L 314.809308 357.871417 
z
" clip-path="url(#pc63f05b3f2)" style="fill: #1f77b4"/>
   </g>
   <g id="patch_144">
    <path d="M 316.436722 386.44 
L 318.064136 386.44 
L 318.064136 352.987111 
L 316.436722 352.987111 
z
" clip-path="url(#pc63f05b3f2)" style="fill: #1f77b4"/>
   </g>
   <g id="patch_145">
    <path d="M 318.064136 386.44 
L 319.69155 386.44 
L 319.69155 351.60476 
L 318.064136 351.60476 
z
" clip-path="url(#pc63f05b3f2)" style="fill: #1f77b4"/>
   </g>
   <g id="patch_146">
    <path d="M 319.69155 386.44 
L 321.318964 386.44 
L 321.318964 349.853783 
L 319.69155 349.853783 
z
" clip-path="url(#pc63f05b3f2)" style="fill: #1f77b4"/>
   </g>
   <g id="patch_147">
    <path d="M 321.318964 386.44 
L 322.946378 386.44 
L 322.946378 351.05182 
L 321.318964 351.05182 
z
" clip-path="url(#pc63f05b3f2)" style="fill: #1f77b4"/>
   </g>
   <g id="patch_148">
    <path d="M 322.946378 386.44 
L 324.573792 386.44 
L 324.573792 341.836148 
L 322.946378 341.836148 
z
" clip-path="url(#pc63f05b3f2)" style="fill: #1f77b4"/>
   </g>
   <g id="patch_149">
    <path d="M 324.573792 386.44 
L 326.201206 386.44 
L 326.201206 339.347917 
L 324.573792 339.347917 
z
" clip-path="url(#pc63f05b3f2)" style="fill: #1f77b4"/>
   </g>
   <g id="patch_150">
    <path d="M 326.201206 386.44 
L 327.828619 386.44 
L 327.828619 326.814603 
L 326.201206 326.814603 
z
" clip-path="url(#pc63f05b3f2)" style="fill: #1f77b4"/>
   </g>
   <g id="patch_151">
    <path d="M 327.828619 386.44 
L 329.456033 386.44 
L 329.456033 316.493051 
L 327.828619 316.493051 
z
" clip-path="url(#pc63f05b3f2)" style="fill: #1f77b4"/>
   </g>
   <g id="patch_152">
    <path d="M 329.456033 386.44 
L 331.083447 386.44 
L 331.083447 310.410707 
L 329.456033 310.410707 
z
" clip-path="url(#pc63f05b3f2)" style="fill: #1f77b4"/>
   </g>
   <g id="patch_153">
    <path d="M 331.083447 386.44 
L 332.710861 386.44 
L 332.710861 306.447968 
L 331.083447 306.447968 
z
" clip-path="url(#pc63f05b3f2)" style="fill: #1f77b4"/>
   </g>
   <g id="patch_154">
    <path d="M 332.710861 386.44 
L 334.338275 386.44 
L 334.338275 311.516588 
L 332.710861 311.516588 
z
" clip-path="url(#pc63f05b3f2)" style="fill: #1f77b4"/>
   </g>
   <g id="patch_155">
    <path d="M 334.338275 386.44 
L 335.965689 386.44 
L 335.965689 306.540125 
L 334.338275 306.540125 
z
" clip-path="url(#pc63f05b3f2)" style="fill: #1f77b4"/>
   </g>
   <g id="patch_156">
    <path d="M 335.965689 386.44 
L 337.593103 386.44 
L 337.593103 296.86367 
L 335.965689 296.86367 
z
" clip-path="url(#pc63f05b3f2)" style="fill: #1f77b4"/>
   </g>
   <g id="patch_157">
    <path d="M 337.593103 386.44 
L 339.220517 386.44 
L 339.220517 282.210751 
L 337.593103 282.210751 
z
" clip-path="url(#pc63f05b3f2)" style="fill: #1f77b4"/>
   </g>
   <g id="patch_158">
    <path d="M 339.220517 386.44 
L 340.847931 386.44 
L 340.847931 278.708796 
L 339.220517 278.708796 
z
" clip-path="url(#pc63f05b3f2)" style="fill: #1f77b4"/>
   </g>
   <g id="patch_159">
    <path d="M 340.847931 386.44 
L 342.475344 386.44 
L 342.475344 280.736244 
L 340.847931 280.736244 
z
" clip-path="url(#pc63f05b3f2)" style="fill: #1f77b4"/>
   </g>
   <g id="patch_160">
    <path d="M 342.475344 386.44 
L 344.102758 386.44 
L 344.102758 287.463684 
L 342.475344 287.463684 
z
" clip-path="url(#pc63f05b3f2)" style="fill: #1f77b4"/>
   </g>
   <g id="patch_161">
    <path d="M 344.102758 386.44 
L 345.730172 386.44 
L 345.730172 289.859759 
L 344.102758 289.859759 
z
" clip-path="url(#pc63f05b3f2)" style="fill: #1f77b4"/>
   </g>
   <g id="patch_162">
    <path d="M 345.730172 386.44 
L 347.357586 386.44 
L 347.357586 280.551931 
L 345.730172 280.551931 
z
" clip-path="url(#pc63f05b3f2)" style="fill: #1f77b4"/>
   </g>
   <g id="patch_163">
    <path d="M 347.357586 386.44 
L 348.985 386.44 
L 348.985 265.714699 
L 347.357586 265.714699 
z
" clip-path="url(#pc63f05b3f2)" style="fill: #1f77b4"/>
   </g>
   <g id="patch_164">
    <path d="M 348.985 386.44 
L 350.612414 386.44 
L 350.612414 236.040236 
L 348.985 236.040236 
z
" clip-path="url(#pc63f05b3f2)" style="fill: #1f77b4"/>
   </g>
   <g id="patch_165">
    <path d="M 350.612414 386.44 
L 352.239828 386.44 
L 352.239828 196.59716 
L 350.612414 196.59716 
z
" clip-path="url(#pc63f05b3f2)" style="fill: #1f77b4"/>
   </g>
   <g id="patch_166">
    <path d="M 352.239828 386.44 
L 353.867242 386.44 
L 353.867242 96.975747 
L 352.239828 96.975747 
z
" clip-path="url(#pc63f05b3f2)" style="fill: #1f77b4"/>
   </g>
   <g id="patch_167">
    <path d="M 353.867242 386.44 
L 355.494656 386.44 
L 355.494656 28.687619 
L 353.867242 28.687619 
z
" clip-path="url(#pc63f05b3f2)" style="fill: #1f77b4"/>
   </g>
   <g id="patch_168">
    <path d="M 355.494656 386.44 
L 357.122069 386.44 
L 357.122069 142.68548 
L 355.494656 142.68548 
z
" clip-path="url(#pc63f05b3f2)" style="fill: #1f77b4"/>
   </g>
   <g id="patch_169">
    <path d="M 357.122069 386.44 
L 358.749483 386.44 
L 358.749483 198.993235 
L 357.122069 198.993235 
z
" clip-path="url(#pc63f05b3f2)" style="fill: #1f77b4"/>
   </g>
   <g id="patch_170">
    <path d="M 358.749483 386.44 
L 360.376897 386.44 
L 360.376897 242.399049 
L 358.749483 242.399049 
z
" clip-path="url(#pc63f05b3f2)" style="fill: #1f77b4"/>
   </g>
   <g id="patch_171">
    <path d="M 360.376897 386.44 
L 362.004311 386.44 
L 362.004311 279.16958 
L 360.376897 279.16958 
z
" clip-path="url(#pc63f05b3f2)" style="fill: #1f77b4"/>
   </g>
   <g id="patch_172">
    <path d="M 362.004311 386.44 
L 363.631725 386.44 
L 363.631725 297.600923 
L 362.004311 297.600923 
z
" clip-path="url(#pc63f05b3f2)" style="fill: #1f77b4"/>
   </g>
   <g id="patch_173">
    <path d="M 363.631725 386.44 
L 365.259139 386.44 
L 365.259139 291.79505 
L 363.631725 291.79505 
z
" clip-path="url(#pc63f05b3f2)" style="fill: #1f77b4"/>
   </g>
   <g id="patch_174">
    <path d="M 365.259139 386.44 
L 366.886553 386.44 
L 366.886553 277.418602 
L 365.259139 277.418602 
z
" clip-path="url(#pc63f05b3f2)" style="fill: #1f77b4"/>
   </g>
   <g id="patch_175">
    <path d="M 366.886553 386.44 
L 368.513967 386.44 
L 368.513967 277.326445 
L 366.886553 277.326445 
z
" clip-path="url(#pc63f05b3f2)" style="fill: #1f77b4"/>
   </g>
   <g id="patch_176">
    <path d="M 368.513967 386.44 
L 370.141381 386.44 
L 370.141381 308.65973 
L 368.513967 308.65973 
z
" clip-path="url(#pc63f05b3f2)" style="fill: #1f77b4"/>
   </g>
   <g id="patch_177">
    <path d="M 370.141381 386.44 
L 371.768794 386.44 
L 371.768794 329.671461 
L 370.141381 329.671461 
z
" clip-path="url(#pc63f05b3f2)" style="fill: #1f77b4"/>
   </g>
   <g id="patch_178">
    <path d="M 371.768794 386.44 
L 373.396208 386.44 
L 373.396208 338.794977 
L 371.768794 338.794977 
z
" clip-path="url(#pc63f05b3f2)" style="fill: #1f77b4"/>
   </g>
   <g id="patch_179">
    <path d="M 373.396208 386.44 
L 375.023622 386.44 
L 375.023622 344.32438 
L 373.396208 344.32438 
z
" clip-path="url(#pc63f05b3f2)" style="fill: #1f77b4"/>
   </g>
   <g id="patch_180">
    <path d="M 375.023622 386.44 
L 376.651036 386.44 
L 376.651036 344.04791 
L 375.023622 344.04791 
z
" clip-path="url(#pc63f05b3f2)" style="fill: #1f77b4"/>
   </g>
   <g id="patch_181">
    <path d="M 376.651036 386.44 
L 378.27845 386.44 
L 378.27845 343.955753 
L 376.651036 343.955753 
z
" clip-path="url(#pc63f05b3f2)" style="fill: #1f77b4"/>
   </g>
   <g id="patch_182">
    <path d="M 378.27845 386.44 
L 379.905864 386.44 
L 379.905864 345.891044 
L 378.27845 345.891044 
z
" clip-path="url(#pc63f05b3f2)" style="fill: #1f77b4"/>
   </g>
   <g id="patch_183">
    <path d="M 379.905864 386.44 
L 381.533278 386.44 
L 381.533278 353.908678 
L 379.905864 353.908678 
z
" clip-path="url(#pc63f05b3f2)" style="fill: #1f77b4"/>
   </g>
   <g id="patch_184">
    <path d="M 381.533278 386.44 
L 383.160692 386.44 
L 383.160692 354.922402 
L 381.533278 354.922402 
z
" clip-path="url(#pc63f05b3f2)" style="fill: #1f77b4"/>
   </g>
   <g id="patch_185">
    <path d="M 383.160692 386.44 
L 384.788106 386.44 
L 384.788106 360.359649 
L 383.160692 360.359649 
z
" clip-path="url(#pc63f05b3f2)" style="fill: #1f77b4"/>
   </g>
   <g id="patch_186">
    <path d="M 384.788106 386.44 
L 386.415519 386.44 
L 386.415519 360.543962 
L 384.788106 360.543962 
z
" clip-path="url(#pc63f05b3f2)" style="fill: #1f77b4"/>
   </g>
   <g id="patch_187">
    <path d="M 386.415519 386.44 
L 388.042933 386.44 
L 388.042933 361.926313 
L 386.415519 361.926313 
z
" clip-path="url(#pc63f05b3f2)" style="fill: #1f77b4"/>
   </g>
   <g id="patch_188">
    <path d="M 388.042933 386.44 
L 389.670347 386.44 
L 389.670347 366.994932 
L 388.042933 366.994932 
z
" clip-path="url(#pc63f05b3f2)" style="fill: #1f77b4"/>
   </g>
   <g id="patch_189">
    <path d="M 389.670347 386.44 
L 391.297761 386.44 
L 391.297761 368.377283 
L 389.670347 368.377283 
z
" clip-path="url(#pc63f05b3f2)" style="fill: #1f77b4"/>
   </g>
   <g id="patch_190">
    <path d="M 391.297761 386.44 
L 392.925175 386.44 
L 392.925175 365.704738 
L 391.297761 365.704738 
z
" clip-path="url(#pc63f05b3f2)" style="fill: #1f77b4"/>
   </g>
   <g id="patch_191">
    <path d="M 392.925175 386.44 
L 394.552589 386.44 
L 394.552589 365.889052 
L 392.925175 365.889052 
z
" clip-path="url(#pc63f05b3f2)" style="fill: #1f77b4"/>
   </g>
   <g id="patch_192">
    <path d="M 394.552589 386.44 
L 396.180003 386.44 
L 396.180003 365.336111 
L 394.552589 365.336111 
z
" clip-path="url(#pc63f05b3f2)" style="fill: #1f77b4"/>
   </g>
   <g id="patch_193">
    <path d="M 396.180003 386.44 
L 397.807417 386.44 
L 397.807417 365.889052 
L 396.180003 365.889052 
z
" clip-path="url(#pc63f05b3f2)" style="fill: #1f77b4"/>
   </g>
   <g id="patch_194">
    <path d="M 397.807417 386.44 
L 399.434831 386.44 
L 399.434831 364.322388 
L 397.807417 364.322388 
z
" clip-path="url(#pc63f05b3f2)" style="fill: #1f77b4"/>
   </g>
   <g id="patch_195">
    <path d="M 399.434831 386.44 
L 401.062244 386.44 
L 401.062244 364.967485 
L 399.434831 364.967485 
z
" clip-path="url(#pc63f05b3f2)" style="fill: #1f77b4"/>
   </g>
   <g id="patch_196">
    <path d="M 401.062244 386.44 
L 402.689658 386.44 
L 402.689658 363.12435 
L 401.062244 363.12435 
z
" clip-path="url(#pc63f05b3f2)" style="fill: #1f77b4"/>
   </g>
   <g id="patch_197">
    <path d="M 402.689658 386.44 
L 404.317072 386.44 
L 404.317072 360.912589 
L 402.689658 360.912589 
z
" clip-path="url(#pc63f05b3f2)" style="fill: #1f77b4"/>
   </g>
   <g id="patch_198">
    <path d="M 404.317072 386.44 
L 405.944486 386.44 
L 405.944486 360.543962 
L 404.317072 360.543962 
z
" clip-path="url(#pc63f05b3f2)" style="fill: #1f77b4"/>
   </g>
   <g id="patch_199">
    <path d="M 405.944486 386.44 
L 407.5719 386.44 
L 407.5719 359.161611 
L 405.944486 359.161611 
z
" clip-path="url(#pc63f05b3f2)" style="fill: #1f77b4"/>
   </g>
   <g id="patch_200">
    <path d="M 407.5719 386.44 
L 409.199314 386.44 
L 409.199314 359.806708 
L 407.5719 359.806708 
z
" clip-path="url(#pc63f05b3f2)" style="fill: #1f77b4"/>
   </g>
   <g id="patch_201">
    <path d="M 409.199314 386.44 
L 410.826728 386.44 
L 410.826728 354.645932 
L 409.199314 354.645932 
z
" clip-path="url(#pc63f05b3f2)" style="fill: #1f77b4"/>
   </g>
   <g id="patch_202">
    <path d="M 410.826728 386.44 
L 412.454142 386.44 
L 412.454142 356.67338 
L 410.826728 356.67338 
z
" clip-path="url(#pc63f05b3f2)" style="fill: #1f77b4"/>
   </g>
   <g id="patch_203">
    <path d="M 412.454142 386.44 
L 414.081556 386.44 
L 414.081556 361.557686 
L 412.454142 361.557686 
z
" clip-path="url(#pc63f05b3f2)" style="fill: #1f77b4"/>
   </g>
   <g id="patch_204">
    <path d="M 414.081556 386.44 
L 415.70897 386.44 
L 415.70897 361.281216 
L 414.081556 361.281216 
z
" clip-path="url(#pc63f05b3f2)" style="fill: #1f77b4"/>
   </g>
   <g id="patch_205">
    <path d="M 415.70897 386.44 
L 417.336383 386.44 
L 417.336383 363.12435 
L 415.70897 363.12435 
z
" clip-path="url(#pc63f05b3f2)" style="fill: #1f77b4"/>
   </g>
   <g id="patch_206">
    <path d="M 417.336383 386.44 
L 418.963797 386.44 
L 418.963797 363.40082 
L 417.336383 363.40082 
z
" clip-path="url(#pc63f05b3f2)" style="fill: #1f77b4"/>
   </g>
   <g id="patch_207">
    <path d="M 418.963797 386.44 
L 420.591211 386.44 
L 420.591211 368.285126 
L 418.963797 368.285126 
z
" clip-path="url(#pc63f05b3f2)" style="fill: #1f77b4"/>
   </g>
   <g id="patch_208">
    <path d="M 420.591211 386.44 
L 422.218625 386.44 
L 422.218625 369.02238 
L 420.591211 369.02238 
z
" clip-path="url(#pc63f05b3f2)" style="fill: #1f77b4"/>
   </g>
   <g id="patch_209">
    <path d="M 422.218625 386.44 
L 423.846039 386.44 
L 423.846039 370.589044 
L 422.218625 370.589044 
z
" clip-path="url(#pc63f05b3f2)" style="fill: #1f77b4"/>
   </g>
   <g id="patch_210">
    <path d="M 423.846039 386.44 
L 425.473453 386.44 
L 425.473453 370.957671 
L 423.846039 370.957671 
z
" clip-path="url(#pc63f05b3f2)" style="fill: #1f77b4"/>
   </g>
   <g id="patch_211">
    <path d="M 425.473453 386.44 
L 427.100867 386.44 
L 427.100867 372.340022 
L 425.473453 372.340022 
z
" clip-path="url(#pc63f05b3f2)" style="fill: #1f77b4"/>
   </g>
   <g id="patch_212">
    <path d="M 427.100867 386.44 
L 428.728281 386.44 
L 428.728281 372.800806 
L 427.100867 372.800806 
z
" clip-path="url(#pc63f05b3f2)" style="fill: #1f77b4"/>
   </g>
   <g id="patch_213">
    <path d="M 428.728281 386.44 
L 430.355695 386.44 
L 430.355695 375.473351 
L 428.728281 375.473351 
z
" clip-path="url(#pc63f05b3f2)" style="fill: #1f77b4"/>
   </g>
   <g id="patch_214">
    <path d="M 430.355695 386.44 
L 431.983108 386.44 
L 431.983108 376.763545 
L 430.355695 376.763545 
z
" clip-path="url(#pc63f05b3f2)" style="fill: #1f77b4"/>
   </g>
   <g id="patch_215">
    <path d="M 431.983108 386.44 
L 433.610522 386.44 
L 433.610522 379.620403 
L 431.983108 379.620403 
z
" clip-path="url(#pc63f05b3f2)" style="fill: #1f77b4"/>
   </g>
   <g id="patch_216">
    <path d="M 433.610522 386.44 
L 435.237936 386.44 
L 435.237936 378.330209 
L 433.610522 378.330209 
z
" clip-path="url(#pc63f05b3f2)" style="fill: #1f77b4"/>
   </g>
   <g id="patch_217">
    <path d="M 435.237936 386.44 
L 436.86535 386.44 
L 436.86535 381.832164 
L 435.237936 381.832164 
z
" clip-path="url(#pc63f05b3f2)" style="fill: #1f77b4"/>
   </g>
   <g id="patch_218">
    <path d="M 436.86535 386.44 
L 438.492764 386.44 
L 438.492764 382.477261 
L 436.86535 382.477261 
z
" clip-path="url(#pc63f05b3f2)" style="fill: #1f77b4"/>
   </g>
   <g id="patch_219">
    <path d="M 438.492764 386.44 
L 440.120178 386.44 
L 440.120178 383.214515 
L 438.492764 383.214515 
z
" clip-path="url(#pc63f05b3f2)" style="fill: #1f77b4"/>
   </g>
   <g id="patch_220">
    <path d="M 440.120178 386.44 
L 441.747592 386.44 
L 441.747592 383.306672 
L 440.120178 383.306672 
z
" clip-path="url(#pc63f05b3f2)" style="fill: #1f77b4"/>
   </g>
   <g id="patch_221">
    <path d="M 441.747592 386.44 
L 443.375006 386.44 
L 443.375006 383.122358 
L 441.747592 383.122358 
z
" clip-path="url(#pc63f05b3f2)" style="fill: #1f77b4"/>
   </g>
   <g id="patch_222">
    <path d="M 443.375006 386.44 
L 445.00242 386.44 
L 445.00242 383.767455 
L 443.375006 383.767455 
z
" clip-path="url(#pc63f05b3f2)" style="fill: #1f77b4"/>
   </g>
   <g id="patch_223">
    <path d="M 445.00242 386.44 
L 446.629833 386.44 
L 446.629833 384.320395 
L 445.00242 384.320395 
z
" clip-path="url(#pc63f05b3f2)" style="fill: #1f77b4"/>
   </g>
   <g id="patch_224">
    <path d="M 446.629833 386.44 
L 448.257247 386.44 
L 448.257247 384.781179 
L 446.629833 384.781179 
z
" clip-path="url(#pc63f05b3f2)" style="fill: #1f77b4"/>
   </g>
   <g id="patch_225">
    <path d="M 448.257247 386.44 
L 449.884661 386.44 
L 449.884661 384.781179 
L 448.257247 384.781179 
z
" clip-path="url(#pc63f05b3f2)" style="fill: #1f77b4"/>
   </g>
   <g id="patch_226">
    <path d="M 449.884661 386.44 
L 451.512075 386.44 
L 451.512075 385.794903 
L 449.884661 385.794903 
z
" clip-path="url(#pc63f05b3f2)" style="fill: #1f77b4"/>
   </g>
   <g id="patch_227">
    <path d="M 451.512075 386.44 
L 453.139489 386.44 
L 453.139489 385.241963 
L 451.512075 385.241963 
z
" clip-path="url(#pc63f05b3f2)" style="fill: #1f77b4"/>
   </g>
   <g id="patch_228">
    <path d="M 453.139489 386.44 
L 454.766903 386.44 
L 454.766903 385.426276 
L 453.139489 385.426276 
z
" clip-path="url(#pc63f05b3f2)" style="fill: #1f77b4"/>
   </g>
   <g id="patch_229">
    <path d="M 454.766903 386.44 
L 456.394317 386.44 
L 456.394317 385.334119 
L 454.766903 385.334119 
z
" clip-path="url(#pc63f05b3f2)" style="fill: #1f77b4"/>
   </g>
   <g id="patch_230">
    <path d="M 456.394317 386.44 
L 458.021731 386.44 
L 458.021731 385.702746 
L 456.394317 385.702746 
z
" clip-path="url(#pc63f05b3f2)" style="fill: #1f77b4"/>
   </g>
   <g id="patch_231">
    <path d="M 458.021731 386.44 
L 459.649145 386.44 
L 459.649145 385.518433 
L 458.021731 385.518433 
z
" clip-path="url(#pc63f05b3f2)" style="fill: #1f77b4"/>
   </g>
   <g id="patch_232">
    <path d="M 459.649145 386.44 
L 461.276558 386.44 
L 461.276558 385.702746 
L 459.649145 385.702746 
z
" clip-path="url(#pc63f05b3f2)" style="fill: #1f77b4"/>
   </g>
   <g id="patch_233">
    <path d="M 461.276558 386.44 
L 462.903972 386.44 
L 462.903972 385.979216 
L 461.276558 385.979216 
z
" clip-path="url(#pc63f05b3f2)" style="fill: #1f77b4"/>
   </g>
   <g id="patch_234">
    <path d="M 462.903972 386.44 
L 464.531386 386.44 
L 464.531386 385.88706 
L 462.903972 385.88706 
z
" clip-path="url(#pc63f05b3f2)" style="fill: #1f77b4"/>
   </g>
   <g id="patch_235">
    <path d="M 464.531386 386.44 
L 466.1588 386.44 
L 466.1588 385.794903 
L 464.531386 385.794903 
z
" clip-path="url(#pc63f05b3f2)" style="fill: #1f77b4"/>
   </g>
   <g id="patch_236">
    <path d="M 466.1588 386.44 
L 467.786214 386.44 
L 467.786214 385.88706 
L 466.1588 385.88706 
z
" clip-path="url(#pc63f05b3f2)" style="fill: #1f77b4"/>
   </g>
   <g id="patch_237">
    <path d="M 467.786214 386.44 
L 469.413628 386.44 
L 469.413628 386.071373 
L 467.786214 386.071373 
z
" clip-path="url(#pc63f05b3f2)" style="fill: #1f77b4"/>
   </g>
   <g id="patch_238">
    <path d="M 469.413628 386.44 
L 471.041042 386.44 
L 471.041042 386.071373 
L 469.413628 386.071373 
z
" clip-path="url(#pc63f05b3f2)" style="fill: #1f77b4"/>
   </g>
   <g id="patch_239">
    <path d="M 471.041042 386.44 
L 472.668456 386.44 
L 472.668456 385.979216 
L 471.041042 385.979216 
z
" clip-path="url(#pc63f05b3f2)" style="fill: #1f77b4"/>
   </g>
   <g id="patch_240">
    <path d="M 472.668456 386.44 
L 474.29587 386.44 
L 474.29587 385.88706 
L 472.668456 385.88706 
z
" clip-path="url(#pc63f05b3f2)" style="fill: #1f77b4"/>
   </g>
   <g id="patch_241">
    <path d="M 474.29587 386.44 
L 475.923283 386.44 
L 475.923283 385.979216 
L 474.29587 385.979216 
z
" clip-path="url(#pc63f05b3f2)" style="fill: #1f77b4"/>
   </g>
   <g id="patch_242">
    <path d="M 475.923283 386.44 
L 477.550697 386.44 
L 477.550697 386.255687 
L 475.923283 386.255687 
z
" clip-path="url(#pc63f05b3f2)" style="fill: #1f77b4"/>
   </g>
   <g id="patch_243">
    <path d="M 477.550697 386.44 
L 479.178111 386.44 
L 479.178111 385.794903 
L 477.550697 385.794903 
z
" clip-path="url(#pc63f05b3f2)" style="fill: #1f77b4"/>
   </g>
   <g id="patch_244">
    <path d="M 479.178111 386.44 
L 480.805525 386.44 
L 480.805525 386.16353 
L 479.178111 386.16353 
z
" clip-path="url(#pc63f05b3f2)" style="fill: #1f77b4"/>
   </g>
   <g id="patch_245">
    <path d="M 480.805525 386.44 
L 482.432939 386.44 
L 482.432939 385.979216 
L 480.805525 385.979216 
z
" clip-path="url(#pc63f05b3f2)" style="fill: #1f77b4"/>
   </g>
   <g id="patch_246">
    <path d="M 482.432939 386.44 
L 484.060353 386.44 
L 484.060353 386.071373 
L 482.432939 386.071373 
z
" clip-path="url(#pc63f05b3f2)" style="fill: #1f77b4"/>
   </g>
   <g id="patch_247">
    <path d="M 484.060353 386.44 
L 485.687767 386.44 
L 485.687767 386.071373 
L 484.060353 386.071373 
z
" clip-path="url(#pc63f05b3f2)" style="fill: #1f77b4"/>
   </g>
   <g id="patch_248">
    <path d="M 485.687767 386.44 
L 487.315181 386.44 
L 487.315181 386.255687 
L 485.687767 386.255687 
z
" clip-path="url(#pc63f05b3f2)" style="fill: #1f77b4"/>
   </g>
   <g id="patch_249">
    <path d="M 487.315181 386.44 
L 488.942595 386.44 
L 488.942595 386.255687 
L 487.315181 386.255687 
z
" clip-path="url(#pc63f05b3f2)" style="fill: #1f77b4"/>
   </g>
   <g id="patch_250">
    <path d="M 488.942595 386.44 
L 490.570008 386.44 
L 490.570008 386.347843 
L 488.942595 386.347843 
z
" clip-path="url(#pc63f05b3f2)" style="fill: #1f77b4"/>
   </g>
   <g id="patch_251">
    <path d="M 490.570008 386.44 
L 492.197422 386.44 
L 492.197422 386.347843 
L 490.570008 386.347843 
z
" clip-path="url(#pc63f05b3f2)" style="fill: #1f77b4"/>
   </g>
   <g id="patch_252">
    <path d="M 492.197422 386.44 
L 493.824836 386.44 
L 493.824836 386.255687 
L 492.197422 386.255687 
z
" clip-path="url(#pc63f05b3f2)" style="fill: #1f77b4"/>
   </g>
   <g id="patch_253">
    <path d="M 493.824836 386.44 
L 495.45225 386.44 
L 495.45225 385.979216 
L 493.824836 385.979216 
z
" clip-path="url(#pc63f05b3f2)" style="fill: #1f77b4"/>
   </g>
   <g id="patch_254">
    <path d="M 495.45225 386.44 
L 497.079664 386.44 
L 497.079664 386.16353 
L 495.45225 386.16353 
z
" clip-path="url(#pc63f05b3f2)" style="fill: #1f77b4"/>
   </g>
   <g id="patch_255">
    <path d="M 497.079664 386.44 
L 498.707078 386.44 
L 498.707078 386.255687 
L 497.079664 386.255687 
z
" clip-path="url(#pc63f05b3f2)" style="fill: #1f77b4"/>
   </g>
   <g id="patch_256">
    <path d="M 498.707078 386.44 
L 500.334492 386.44 
L 500.334492 386.071373 
L 498.707078 386.071373 
z
" clip-path="url(#pc63f05b3f2)" style="fill: #1f77b4"/>
   </g>
   <g id="patch_257">
    <path d="M 500.334492 386.44 
L 501.961906 386.44 
L 501.961906 386.347843 
L 500.334492 386.347843 
z
" clip-path="url(#pc63f05b3f2)" style="fill: #1f77b4"/>
   </g>
   <g id="patch_258">
    <path d="M 501.961906 386.44 
L 503.58932 386.44 
L 503.58932 386.44 
L 501.961906 386.44 
z
" clip-path="url(#pc63f05b3f2)" style="fill: #1f77b4"/>
   </g>
   <g id="patch_259">
    <path d="M 503.58932 386.44 
L 505.216733 386.44 
L 505.216733 386.44 
L 503.58932 386.44 
z
" clip-path="url(#pc63f05b3f2)" style="fill: #1f77b4"/>
   </g>
   <g id="patch_260">
    <path d="M 505.216733 386.44 
L 506.844147 386.44 
L 506.844147 386.44 
L 505.216733 386.44 
z
" clip-path="url(#pc63f05b3f2)" style="fill: #1f77b4"/>
   </g>
   <g id="patch_261">
    <path d="M 506.844147 386.44 
L 508.471561 386.44 
L 508.471561 386.347843 
L 506.844147 386.347843 
z
" clip-path="url(#pc63f05b3f2)" style="fill: #1f77b4"/>
   </g>
   <g id="patch_262">
    <path d="M 508.471561 386.44 
L 510.098975 386.44 
L 510.098975 386.44 
L 508.471561 386.44 
z
" clip-path="url(#pc63f05b3f2)" style="fill: #1f77b4"/>
   </g>
   <g id="patch_263">
    <path d="M 510.098975 386.44 
L 511.726389 386.44 
L 511.726389 386.255687 
L 510.098975 386.255687 
z
" clip-path="url(#pc63f05b3f2)" style="fill: #1f77b4"/>
   </g>
   <g id="patch_264">
    <path d="M 511.726389 386.44 
L 513.353803 386.44 
L 513.353803 386.44 
L 511.726389 386.44 
z
" clip-path="url(#pc63f05b3f2)" style="fill: #1f77b4"/>
   </g>
   <g id="patch_265">
    <path d="M 513.353803 386.44 
L 514.981217 386.44 
L 514.981217 386.44 
L 513.353803 386.44 
z
" clip-path="url(#pc63f05b3f2)" style="fill: #1f77b4"/>
   </g>
   <g id="patch_266">
    <path d="M 514.981217 386.44 
L 516.608631 386.44 
L 516.608631 386.44 
L 514.981217 386.44 
z
" clip-path="url(#pc63f05b3f2)" style="fill: #1f77b4"/>
   </g>
   <g id="patch_267">
    <path d="M 516.608631 386.44 
L 518.236045 386.44 
L 518.236045 386.44 
L 516.608631 386.44 
z
" clip-path="url(#pc63f05b3f2)" style="fill: #1f77b4"/>
   </g>
   <g id="patch_268">
    <path d="M 518.236045 386.44 
L 519.863458 386.44 
L 519.863458 386.44 
L 518.236045 386.44 
z
" clip-path="url(#pc63f05b3f2)" style="fill: #1f77b4"/>
   </g>
   <g id="patch_269">
    <path d="M 519.863458 386.44 
L 521.490872 386.44 
L 521.490872 386.44 
L 519.863458 386.44 
z
" clip-path="url(#pc63f05b3f2)" style="fill: #1f77b4"/>
   </g>
   <g id="patch_270">
    <path d="M 521.490872 386.44 
L 523.118286 386.44 
L 523.118286 386.347843 
L 521.490872 386.347843 
z
" clip-path="url(#pc63f05b3f2)" style="fill: #1f77b4"/>
   </g>
   <g id="patch_271">
    <path d="M 523.118286 386.44 
L 524.7457 386.44 
L 524.7457 386.44 
L 523.118286 386.44 
z
" clip-path="url(#pc63f05b3f2)" style="fill: #1f77b4"/>
   </g>
   <g id="patch_272">
    <path d="M 524.7457 386.44 
L 526.373114 386.44 
L 526.373114 386.44 
L 524.7457 386.44 
z
" clip-path="url(#pc63f05b3f2)" style="fill: #1f77b4"/>
   </g>
   <g id="patch_273">
    <path d="M 526.373114 386.44 
L 528.000528 386.44 
L 528.000528 386.44 
L 526.373114 386.44 
z
" clip-path="url(#pc63f05b3f2)" style="fill: #1f77b4"/>
   </g>
   <g id="patch_274">
    <path d="M 528.000528 386.44 
L 529.627942 386.44 
L 529.627942 386.44 
L 528.000528 386.44 
z
" clip-path="url(#pc63f05b3f2)" style="fill: #1f77b4"/>
   </g>
   <g id="patch_275">
    <path d="M 529.627942 386.44 
L 531.255356 386.44 
L 531.255356 386.44 
L 529.627942 386.44 
z
" clip-path="url(#pc63f05b3f2)" style="fill: #1f77b4"/>
   </g>
   <g id="patch_276">
    <path d="M 531.255356 386.44 
L 532.88277 386.44 
L 532.88277 386.44 
L 531.255356 386.44 
z
" clip-path="url(#pc63f05b3f2)" style="fill: #1f77b4"/>
   </g>
   <g id="patch_277">
    <path d="M 532.88277 386.44 
L 534.510184 386.44 
L 534.510184 386.44 
L 532.88277 386.44 
z
" clip-path="url(#pc63f05b3f2)" style="fill: #1f77b4"/>
   </g>
   <g id="patch_278">
    <path d="M 534.510184 386.44 
L 536.137597 386.44 
L 536.137597 386.44 
L 534.510184 386.44 
z
" clip-path="url(#pc63f05b3f2)" style="fill: #1f77b4"/>
   </g>
   <g id="patch_279">
    <path d="M 536.137597 386.44 
L 537.765011 386.44 
L 537.765011 386.44 
L 536.137597 386.44 
z
" clip-path="url(#pc63f05b3f2)" style="fill: #1f77b4"/>
   </g>
   <g id="patch_280">
    <path d="M 537.765011 386.44 
L 539.392425 386.44 
L 539.392425 386.44 
L 537.765011 386.44 
z
" clip-path="url(#pc63f05b3f2)" style="fill: #1f77b4"/>
   </g>
   <g id="patch_281">
    <path d="M 539.392425 386.44 
L 541.019839 386.44 
L 541.019839 386.347843 
L 539.392425 386.347843 
z
" clip-path="url(#pc63f05b3f2)" style="fill: #1f77b4"/>
   </g>
   <g id="patch_282">
    <path d="M 541.019839 386.44 
L 542.647253 386.44 
L 542.647253 386.44 
L 541.019839 386.44 
z
" clip-path="url(#pc63f05b3f2)" style="fill: #1f77b4"/>
   </g>
   <g id="patch_283">
    <path d="M 542.647253 386.44 
L 544.274667 386.44 
L 544.274667 386.44 
L 542.647253 386.44 
z
" clip-path="url(#pc63f05b3f2)" style="fill: #1f77b4"/>
   </g>
   <g id="patch_284">
    <path d="M 544.274667 386.44 
L 545.902081 386.44 
L 545.902081 386.44 
L 544.274667 386.44 
z
" clip-path="url(#pc63f05b3f2)" style="fill: #1f77b4"/>
   </g>
   <g id="patch_285">
    <path d="M 545.902081 386.44 
L 547.529495 386.44 
L 547.529495 386.44 
L 545.902081 386.44 
z
" clip-path="url(#pc63f05b3f2)" style="fill: #1f77b4"/>
   </g>
   <g id="patch_286">
    <path d="M 547.529495 386.44 
L 549.156909 386.44 
L 549.156909 386.44 
L 547.529495 386.44 
z
" clip-path="url(#pc63f05b3f2)" style="fill: #1f77b4"/>
   </g>
   <g id="patch_287">
    <path d="M 549.156909 386.44 
L 550.784322 386.44 
L 550.784322 386.44 
L 549.156909 386.44 
z
" clip-path="url(#pc63f05b3f2)" style="fill: #1f77b4"/>
   </g>
   <g id="patch_288">
    <path d="M 550.784322 386.44 
L 552.411736 386.44 
L 552.411736 386.44 
L 550.784322 386.44 
z
" clip-path="url(#pc63f05b3f2)" style="fill: #1f77b4"/>
   </g>
   <g id="patch_289">
    <path d="M 552.411736 386.44 
L 554.03915 386.44 
L 554.03915 386.44 
L 552.411736 386.44 
z
" clip-path="url(#pc63f05b3f2)" style="fill: #1f77b4"/>
   </g>
   <g id="patch_290">
    <path d="M 554.03915 386.44 
L 555.666564 386.44 
L 555.666564 386.44 
L 554.03915 386.44 
z
" clip-path="url(#pc63f05b3f2)" style="fill: #1f77b4"/>
   </g>
   <g id="patch_291">
    <path d="M 555.666564 386.44 
L 557.293978 386.44 
L 557.293978 386.44 
L 555.666564 386.44 
z
" clip-path="url(#pc63f05b3f2)" style="fill: #1f77b4"/>
   </g>
   <g id="patch_292">
    <path d="M 557.293978 386.44 
L 558.921392 386.44 
L 558.921392 386.44 
L 557.293978 386.44 
z
" clip-path="url(#pc63f05b3f2)" style="fill: #1f77b4"/>
   </g>
   <g id="patch_293">
    <path d="M 558.921392 386.44 
L 560.548806 386.44 
L 560.548806 386.44 
L 558.921392 386.44 
z
" clip-path="url(#pc63f05b3f2)" style="fill: #1f77b4"/>
   </g>
   <g id="patch_294">
    <path d="M 560.548806 386.44 
L 562.17622 386.44 
L 562.17622 386.44 
L 560.548806 386.44 
z
" clip-path="url(#pc63f05b3f2)" style="fill: #1f77b4"/>
   </g>
   <g id="patch_295">
    <path d="M 562.17622 386.44 
L 563.803634 386.44 
L 563.803634 386.44 
L 562.17622 386.44 
z
" clip-path="url(#pc63f05b3f2)" style="fill: #1f77b4"/>
   </g>
   <g id="patch_296">
    <path d="M 563.803634 386.44 
L 565.431047 386.44 
L 565.431047 386.44 
L 563.803634 386.44 
z
" clip-path="url(#pc63f05b3f2)" style="fill: #1f77b4"/>
   </g>
   <g id="patch_297">
    <path d="M 565.431047 386.44 
L 567.058461 386.44 
L 567.058461 386.44 
L 565.431047 386.44 
z
" clip-path="url(#pc63f05b3f2)" style="fill: #1f77b4"/>
   </g>
   <g id="patch_298">
    <path d="M 567.058461 386.44 
L 568.685875 386.44 
L 568.685875 386.44 
L 567.058461 386.44 
z
" clip-path="url(#pc63f05b3f2)" style="fill: #1f77b4"/>
   </g>
   <g id="patch_299">
    <path d="M 568.685875 386.44 
L 570.313289 386.44 
L 570.313289 386.44 
L 568.685875 386.44 
z
" clip-path="url(#pc63f05b3f2)" style="fill: #1f77b4"/>
   </g>
   <g id="patch_300">
    <path d="M 570.313289 386.44 
L 571.940703 386.44 
L 571.940703 386.44 
L 570.313289 386.44 
z
" clip-path="url(#pc63f05b3f2)" style="fill: #1f77b4"/>
   </g>
   <g id="patch_301">
    <path d="M 571.940703 386.44 
L 573.568117 386.44 
L 573.568117 386.44 
L 571.940703 386.44 
z
" clip-path="url(#pc63f05b3f2)" style="fill: #1f77b4"/>
   </g>
   <g id="patch_302">
    <path d="M 573.568117 386.44 
L 575.195531 386.44 
L 575.195531 386.44 
L 573.568117 386.44 
z
" clip-path="url(#pc63f05b3f2)" style="fill: #1f77b4"/>
   </g>
   <g id="patch_303">
    <path d="M 575.195531 386.44 
L 576.822945 386.44 
L 576.822945 386.44 
L 575.195531 386.44 
z
" clip-path="url(#pc63f05b3f2)" style="fill: #1f77b4"/>
   </g>
   <g id="patch_304">
    <path d="M 576.822945 386.44 
L 578.450359 386.44 
L 578.450359 386.44 
L 576.822945 386.44 
z
" clip-path="url(#pc63f05b3f2)" style="fill: #1f77b4"/>
   </g>
   <g id="patch_305">
    <path d="M 578.450359 386.44 
L 580.077772 386.44 
L 580.077772 386.347843 
L 578.450359 386.347843 
z
" clip-path="url(#pc63f05b3f2)" style="fill: #1f77b4"/>
   </g>
   <g id="patch_306">
    <path d="M 580.077772 386.44 
L 581.705186 386.44 
L 581.705186 386.44 
L 580.077772 386.44 
z
" clip-path="url(#pc63f05b3f2)" style="fill: #1f77b4"/>
   </g>
   <g id="patch_307">
    <path d="M 581.705186 386.44 
L 583.3326 386.44 
L 583.3326 386.44 
L 581.705186 386.44 
z
" clip-path="url(#pc63f05b3f2)" style="fill: #1f77b4"/>
   </g>
   <g id="patch_308">
    <path d="M 583.3326 386.44 
L 584.960014 386.44 
L 584.960014 386.44 
L 583.3326 386.44 
z
" clip-path="url(#pc63f05b3f2)" style="fill: #1f77b4"/>
   </g>
   <g id="patch_309">
    <path d="M 584.960014 386.44 
L 586.587428 386.44 
L 586.587428 386.44 
L 584.960014 386.44 
z
" clip-path="url(#pc63f05b3f2)" style="fill: #1f77b4"/>
   </g>
   <g id="patch_310">
    <path d="M 586.587428 386.44 
L 588.214842 386.44 
L 588.214842 386.44 
L 586.587428 386.44 
z
" clip-path="url(#pc63f05b3f2)" style="fill: #1f77b4"/>
   </g>
   <g id="patch_311">
    <path d="M 588.214842 386.44 
L 589.842256 386.44 
L 589.842256 386.44 
L 588.214842 386.44 
z
" clip-path="url(#pc63f05b3f2)" style="fill: #1f77b4"/>
   </g>
   <g id="patch_312">
    <path d="M 589.842256 386.44 
L 591.46967 386.44 
L 591.46967 386.44 
L 589.842256 386.44 
z
" clip-path="url(#pc63f05b3f2)" style="fill: #1f77b4"/>
   </g>
   <g id="patch_313">
    <path d="M 591.46967 386.44 
L 593.097084 386.44 
L 593.097084 386.44 
L 591.46967 386.44 
z
" clip-path="url(#pc63f05b3f2)" style="fill: #1f77b4"/>
   </g>
   <g id="patch_314">
    <path d="M 593.097084 386.44 
L 594.724497 386.44 
L 594.724497 386.44 
L 593.097084 386.44 
z
" clip-path="url(#pc63f05b3f2)" style="fill: #1f77b4"/>
   </g>
   <g id="patch_315">
    <path d="M 594.724497 386.44 
L 596.351911 386.44 
L 596.351911 386.44 
L 594.724497 386.44 
z
" clip-path="url(#pc63f05b3f2)" style="fill: #1f77b4"/>
   </g>
   <g id="patch_316">
    <path d="M 596.351911 386.44 
L 597.979325 386.44 
L 597.979325 386.44 
L 596.351911 386.44 
z
" clip-path="url(#pc63f05b3f2)" style="fill: #1f77b4"/>
   </g>
   <g id="patch_317">
    <path d="M 597.979325 386.44 
L 599.606739 386.44 
L 599.606739 386.44 
L 597.979325 386.44 
z
" clip-path="url(#pc63f05b3f2)" style="fill: #1f77b4"/>
   </g>
   <g id="patch_318">
    <path d="M 599.606739 386.44 
L 601.234153 386.44 
L 601.234153 386.44 
L 599.606739 386.44 
z
" clip-path="url(#pc63f05b3f2)" style="fill: #1f77b4"/>
   </g>
   <g id="patch_319">
    <path d="M 601.234153 386.44 
L 602.861567 386.44 
L 602.861567 386.44 
L 601.234153 386.44 
z
" clip-path="url(#pc63f05b3f2)" style="fill: #1f77b4"/>
   </g>
   <g id="patch_320">
    <path d="M 602.861567 386.44 
L 604.488981 386.44 
L 604.488981 386.44 
L 602.861567 386.44 
z
" clip-path="url(#pc63f05b3f2)" style="fill: #1f77b4"/>
   </g>
   <g id="patch_321">
    <path d="M 604.488981 386.44 
L 606.116395 386.44 
L 606.116395 386.44 
L 604.488981 386.44 
z
" clip-path="url(#pc63f05b3f2)" style="fill: #1f77b4"/>
   </g>
   <g id="patch_322">
    <path d="M 606.116395 386.44 
L 607.743809 386.44 
L 607.743809 386.44 
L 606.116395 386.44 
z
" clip-path="url(#pc63f05b3f2)" style="fill: #1f77b4"/>
   </g>
   <g id="patch_323">
    <path d="M 607.743809 386.44 
L 609.371222 386.44 
L 609.371222 386.44 
L 607.743809 386.44 
z
" clip-path="url(#pc63f05b3f2)" style="fill: #1f77b4"/>
   </g>
   <g id="patch_324">
    <path d="M 609.371222 386.44 
L 610.998636 386.44 
L 610.998636 386.347843 
L 609.371222 386.347843 
z
" clip-path="url(#pc63f05b3f2)" style="fill: #1f77b4"/>
   </g>
   <g id="matplotlib.axis_1">
    <g id="xtick_1">
     <g id="line2d_1">
      <defs>
       <path id="mfe4611b841" d="M 0 0 
L 0 3.5 
" style="stroke: #000000; stroke-width: 0.8"/>
      </defs>
      <g>
       <use xlink:href="#mfe4611b841" x="121.086726" y="386.44" style="stroke: #000000; stroke-width: 0.8"/>
      </g>
     </g>
     <g id="text_1">
      <!-- 30 -->
      <g transform="translate(110.534383 401.038437) scale(0.1 -0.1)">
       <defs>
        <path id="DejaVuSans-2212" d="M 678 2272 
L 4684 2272 
L 4684 1741 
L 678 1741 
L 678 2272 
z
" transform="scale(0.015625)"/>
        <path id="DejaVuSans-33" d="M 2597 2516 
Q 3050 2419 3304 2112 
Q 3559 1806 3559 1356 
Q 3559 666 3084 287 
Q 2609 -91 1734 -91 
Q 1441 -91 1130 -33 
Q 819 25 488 141 
L 488 750 
Q 750 597 1062 519 
Q 1375 441 1716 441 
Q 2309 441 2620 675 
Q 2931 909 2931 1356 
Q 2931 1769 2642 2001 
Q 2353 2234 1838 2234 
L 1294 2234 
L 1294 2753 
L 1863 2753 
Q 2328 2753 2575 2939 
Q 2822 3125 2822 3475 
Q 2822 3834 2567 4026 
Q 2313 4219 1838 4219 
Q 1578 4219 1281 4162 
Q 984 4106 628 3988 
L 628 4550 
Q 988 4650 1302 4700 
Q 1616 4750 1894 4750 
Q 2613 4750 3031 4423 
Q 3450 4097 3450 3541 
Q 3450 3153 3228 2886 
Q 3006 2619 2597 2516 
z
" transform="scale(0.015625)"/>
        <path id="DejaVuSans-30" d="M 2034 4250 
Q 1547 4250 1301 3770 
Q 1056 3291 1056 2328 
Q 1056 1369 1301 889 
Q 1547 409 2034 409 
Q 2525 409 2770 889 
Q 3016 1369 3016 2328 
Q 3016 3291 2770 3770 
Q 2525 4250 2034 4250 
z
M 2034 4750 
Q 2819 4750 3233 4129 
Q 3647 3509 3647 2328 
Q 3647 1150 3233 529 
Q 2819 -91 2034 -91 
Q 1250 -91 836 529 
Q 422 1150 422 2328 
Q 422 3509 836 4129 
Q 1250 4750 2034 4750 
z
" transform="scale(0.015625)"/>
       </defs>
       <use xlink:href="#DejaVuSans-2212"/>
       <use xlink:href="#DejaVuSans-33" x="83.789062"/>
       <use xlink:href="#DejaVuSans-30" x="147.412109"/>
      </g>
     </g>
    </g>
    <g id="xtick_2">
     <g id="line2d_2">
      <g>
       <use xlink:href="#mfe4611b841" x="198.84374" y="386.44" style="stroke: #000000; stroke-width: 0.8"/>
      </g>
     </g>
     <g id="text_2">
      <!-- 20 -->
      <g transform="translate(188.291396 401.038437) scale(0.1 -0.1)">
       <defs>
        <path id="DejaVuSans-32" d="M 1228 531 
L 3431 531 
L 3431 0 
L 469 0 
L 469 531 
Q 828 903 1448 1529 
Q 2069 2156 2228 2338 
Q 2531 2678 2651 2914 
Q 2772 3150 2772 3378 
Q 2772 3750 2511 3984 
Q 2250 4219 1831 4219 
Q 1534 4219 1204 4116 
Q 875 4013 500 3803 
L 500 4441 
Q 881 4594 1212 4672 
Q 1544 4750 1819 4750 
Q 2544 4750 2975 4387 
Q 3406 4025 3406 3419 
Q 3406 3131 3298 2873 
Q 3191 2616 2906 2266 
Q 2828 2175 2409 1742 
Q 1991 1309 1228 531 
z
" transform="scale(0.015625)"/>
       </defs>
       <use xlink:href="#DejaVuSans-2212"/>
       <use xlink:href="#DejaVuSans-32" x="83.789062"/>
       <use xlink:href="#DejaVuSans-30" x="147.412109"/>
      </g>
     </g>
    </g>
    <g id="xtick_3">
     <g id="line2d_3">
      <g>
       <use xlink:href="#mfe4611b841" x="276.600754" y="386.44" style="stroke: #000000; stroke-width: 0.8"/>
      </g>
     </g>
     <g id="text_3">
      <!-- 10 -->
      <g transform="translate(266.04841 401.038437) scale(0.1 -0.1)">
       <defs>
        <path id="DejaVuSans-31" d="M 794 531 
L 1825 531 
L 1825 4091 
L 703 3866 
L 703 4441 
L 1819 4666 
L 2450 4666 
L 2450 531 
L 3481 531 
L 3481 0 
L 794 0 
L 794 531 
z
" transform="scale(0.015625)"/>
       </defs>
       <use xlink:href="#DejaVuSans-2212"/>
       <use xlink:href="#DejaVuSans-31" x="83.789062"/>
       <use xlink:href="#DejaVuSans-30" x="147.412109"/>
      </g>
     </g>
    </g>
    <g id="xtick_4">
     <g id="line2d_4">
      <g>
       <use xlink:href="#mfe4611b841" x="354.357768" y="386.44" style="stroke: #000000; stroke-width: 0.8"/>
      </g>
     </g>
     <g id="text_4">
      <!-- 0 -->
      <g transform="translate(351.176518 401.038437) scale(0.1 -0.1)">
       <use xlink:href="#DejaVuSans-30"/>
      </g>
     </g>
    </g>
    <g id="xtick_5">
     <g id="line2d_5">
      <g>
       <use xlink:href="#mfe4611b841" x="432.114781" y="386.44" style="stroke: #000000; stroke-width: 0.8"/>
      </g>
     </g>
     <g id="text_5">
      <!-- 10 -->
      <g transform="translate(425.752281 401.038437) scale(0.1 -0.1)">
       <use xlink:href="#DejaVuSans-31"/>
       <use xlink:href="#DejaVuSans-30" x="63.623047"/>
      </g>
     </g>
    </g>
    <g id="xtick_6">
     <g id="line2d_6">
      <g>
       <use xlink:href="#mfe4611b841" x="509.871795" y="386.44" style="stroke: #000000; stroke-width: 0.8"/>
      </g>
     </g>
     <g id="text_6">
      <!-- 20 -->
      <g transform="translate(503.509295 401.038437) scale(0.1 -0.1)">
       <use xlink:href="#DejaVuSans-32"/>
       <use xlink:href="#DejaVuSans-30" x="63.623047"/>
      </g>
     </g>
    </g>
    <g id="xtick_7">
     <g id="line2d_7">
      <g>
       <use xlink:href="#mfe4611b841" x="587.628809" y="386.44" style="stroke: #000000; stroke-width: 0.8"/>
      </g>
     </g>
     <g id="text_7">
      <!-- 30 -->
      <g transform="translate(581.266309 401.038437) scale(0.1 -0.1)">
       <use xlink:href="#DejaVuSans-33"/>
       <use xlink:href="#DejaVuSans-30" x="63.623047"/>
      </g>
     </g>
    </g>
    <g id="text_8">
     <!-- reaction energy -->
     <g transform="translate(293.793281 417.755938) scale(0.14 -0.14)">
      <defs>
       <path id="DejaVuSans-72" d="M 2631 2963 
Q 2534 3019 2420 3045 
Q 2306 3072 2169 3072 
Q 1681 3072 1420 2755 
Q 1159 2438 1159 1844 
L 1159 0 
L 581 0 
L 581 3500 
L 1159 3500 
L 1159 2956 
Q 1341 3275 1631 3429 
Q 1922 3584 2338 3584 
Q 2397 3584 2469 3576 
Q 2541 3569 2628 3553 
L 2631 2963 
z
" transform="scale(0.015625)"/>
       <path id="DejaVuSans-65" d="M 3597 1894 
L 3597 1613 
L 953 1613 
Q 991 1019 1311 708 
Q 1631 397 2203 397 
Q 2534 397 2845 478 
Q 3156 559 3463 722 
L 3463 178 
Q 3153 47 2828 -22 
Q 2503 -91 2169 -91 
Q 1331 -91 842 396 
Q 353 884 353 1716 
Q 353 2575 817 3079 
Q 1281 3584 2069 3584 
Q 2775 3584 3186 3129 
Q 3597 2675 3597 1894 
z
M 3022 2063 
Q 3016 2534 2758 2815 
Q 2500 3097 2075 3097 
Q 1594 3097 1305 2825 
Q 1016 2553 972 2059 
L 3022 2063 
z
" transform="scale(0.015625)"/>
       <path id="DejaVuSans-61" d="M 2194 1759 
Q 1497 1759 1228 1600 
Q 959 1441 959 1056 
Q 959 750 1161 570 
Q 1363 391 1709 391 
Q 2188 391 2477 730 
Q 2766 1069 2766 1631 
L 2766 1759 
L 2194 1759 
z
M 3341 1997 
L 3341 0 
L 2766 0 
L 2766 531 
Q 2569 213 2275 61 
Q 1981 -91 1556 -91 
Q 1019 -91 701 211 
Q 384 513 384 1019 
Q 384 1609 779 1909 
Q 1175 2209 1959 2209 
L 2766 2209 
L 2766 2266 
Q 2766 2663 2505 2880 
Q 2244 3097 1772 3097 
Q 1472 3097 1187 3025 
Q 903 2953 641 2809 
L 641 3341 
Q 956 3463 1253 3523 
Q 1550 3584 1831 3584 
Q 2591 3584 2966 3190 
Q 3341 2797 3341 1997 
z
" transform="scale(0.015625)"/>
       <path id="DejaVuSans-63" d="M 3122 3366 
L 3122 2828 
Q 2878 2963 2633 3030 
Q 2388 3097 2138 3097 
Q 1578 3097 1268 2742 
Q 959 2388 959 1747 
Q 959 1106 1268 751 
Q 1578 397 2138 397 
Q 2388 397 2633 464 
Q 2878 531 3122 666 
L 3122 134 
Q 2881 22 2623 -34 
Q 2366 -91 2075 -91 
Q 1284 -91 818 406 
Q 353 903 353 1747 
Q 353 2603 823 3093 
Q 1294 3584 2113 3584 
Q 2378 3584 2631 3529 
Q 2884 3475 3122 3366 
z
" transform="scale(0.015625)"/>
       <path id="DejaVuSans-74" d="M 1172 4494 
L 1172 3500 
L 2356 3500 
L 2356 3053 
L 1172 3053 
L 1172 1153 
Q 1172 725 1289 603 
Q 1406 481 1766 481 
L 2356 481 
L 2356 0 
L 1766 0 
Q 1100 0 847 248 
Q 594 497 594 1153 
L 594 3053 
L 172 3053 
L 172 3500 
L 594 3500 
L 594 4494 
L 1172 4494 
z
" transform="scale(0.015625)"/>
       <path id="DejaVuSans-69" d="M 603 3500 
L 1178 3500 
L 1178 0 
L 603 0 
L 603 3500 
z
M 603 4863 
L 1178 4863 
L 1178 4134 
L 603 4134 
L 603 4863 
z
" transform="scale(0.015625)"/>
       <path id="DejaVuSans-6f" d="M 1959 3097 
Q 1497 3097 1228 2736 
Q 959 2375 959 1747 
Q 959 1119 1226 758 
Q 1494 397 1959 397 
Q 2419 397 2687 759 
Q 2956 1122 2956 1747 
Q 2956 2369 2687 2733 
Q 2419 3097 1959 3097 
z
M 1959 3584 
Q 2709 3584 3137 3096 
Q 3566 2609 3566 1747 
Q 3566 888 3137 398 
Q 2709 -91 1959 -91 
Q 1206 -91 779 398 
Q 353 888 353 1747 
Q 353 2609 779 3096 
Q 1206 3584 1959 3584 
z
" transform="scale(0.015625)"/>
       <path id="DejaVuSans-6e" d="M 3513 2113 
L 3513 0 
L 2938 0 
L 2938 2094 
Q 2938 2591 2744 2837 
Q 2550 3084 2163 3084 
Q 1697 3084 1428 2787 
Q 1159 2491 1159 1978 
L 1159 0 
L 581 0 
L 581 3500 
L 1159 3500 
L 1159 2956 
Q 1366 3272 1645 3428 
Q 1925 3584 2291 3584 
Q 2894 3584 3203 3211 
Q 3513 2838 3513 2113 
z
" transform="scale(0.015625)"/>
       <path id="DejaVuSans-20" transform="scale(0.015625)"/>
       <path id="DejaVuSans-67" d="M 2906 1791 
Q 2906 2416 2648 2759 
Q 2391 3103 1925 3103 
Q 1463 3103 1205 2759 
Q 947 2416 947 1791 
Q 947 1169 1205 825 
Q 1463 481 1925 481 
Q 2391 481 2648 825 
Q 2906 1169 2906 1791 
z
M 3481 434 
Q 3481 -459 3084 -895 
Q 2688 -1331 1869 -1331 
Q 1566 -1331 1297 -1286 
Q 1028 -1241 775 -1147 
L 775 -588 
Q 1028 -725 1275 -790 
Q 1522 -856 1778 -856 
Q 2344 -856 2625 -561 
Q 2906 -266 2906 331 
L 2906 616 
Q 2728 306 2450 153 
Q 2172 0 1784 0 
Q 1141 0 747 490 
Q 353 981 353 1791 
Q 353 2603 747 3093 
Q 1141 3584 1784 3584 
Q 2172 3584 2450 3431 
Q 2728 3278 2906 2969 
L 2906 3500 
L 3481 3500 
L 3481 434 
z
" transform="scale(0.015625)"/>
       <path id="DejaVuSans-79" d="M 2059 -325 
Q 1816 -950 1584 -1140 
Q 1353 -1331 966 -1331 
L 506 -1331 
L 506 -850 
L 844 -850 
Q 1081 -850 1212 -737 
Q 1344 -625 1503 -206 
L 1606 56 
L 191 3500 
L 800 3500 
L 1894 763 
L 2988 3500 
L 3597 3500 
L 2059 -325 
z
" transform="scale(0.015625)"/>
      </defs>
      <use xlink:href="#DejaVuSans-72"/>
      <use xlink:href="#DejaVuSans-65" x="38.863281"/>
      <use xlink:href="#DejaVuSans-61" x="100.386719"/>
      <use xlink:href="#DejaVuSans-63" x="161.666016"/>
      <use xlink:href="#DejaVuSans-74" x="216.646484"/>
      <use xlink:href="#DejaVuSans-69" x="255.855469"/>
      <use xlink:href="#DejaVuSans-6f" x="283.638672"/>
      <use xlink:href="#DejaVuSans-6e" x="344.820312"/>
      <use xlink:href="#DejaVuSans-20" x="408.199219"/>
      <use xlink:href="#DejaVuSans-65" x="439.986328"/>
      <use xlink:href="#DejaVuSans-6e" x="501.509766"/>
      <use xlink:href="#DejaVuSans-65" x="564.888672"/>
      <use xlink:href="#DejaVuSans-72" x="626.412109"/>
      <use xlink:href="#DejaVuSans-67" x="665.775391"/>
      <use xlink:href="#DejaVuSans-79" x="729.251953"/>
     </g>
    </g>
   </g>
   <g id="matplotlib.axis_2">
    <g id="ytick_1">
     <g id="line2d_8">
      <defs>
       <path id="m7225a04872" d="M 0 0 
L -3.5 0 
" style="stroke: #000000; stroke-width: 0.8"/>
      </defs>
      <g>
       <use xlink:href="#m7225a04872" x="60.77" y="386.44" style="stroke: #000000; stroke-width: 0.8"/>
      </g>
     </g>
     <g id="text_9">
      <!-- 0 -->
      <g transform="translate(47.4075 390.239219) scale(0.1 -0.1)">
       <use xlink:href="#DejaVuSans-30"/>
      </g>
     </g>
    </g>
    <g id="ytick_2">
     <g id="line2d_9">
      <g>
       <use xlink:href="#m7225a04872" x="60.77" y="340.361641" style="stroke: #000000; stroke-width: 0.8"/>
      </g>
     </g>
     <g id="text_10">
      <!-- 500 -->
      <g transform="translate(34.6825 344.16086) scale(0.1 -0.1)">
       <defs>
        <path id="DejaVuSans-35" d="M 691 4666 
L 3169 4666 
L 3169 4134 
L 1269 4134 
L 1269 2991 
Q 1406 3038 1543 3061 
Q 1681 3084 1819 3084 
Q 2600 3084 3056 2656 
Q 3513 2228 3513 1497 
Q 3513 744 3044 326 
Q 2575 -91 1722 -91 
Q 1428 -91 1123 -41 
Q 819 9 494 109 
L 494 744 
Q 775 591 1075 516 
Q 1375 441 1709 441 
Q 2250 441 2565 725 
Q 2881 1009 2881 1497 
Q 2881 1984 2565 2268 
Q 2250 2553 1709 2553 
Q 1456 2553 1204 2497 
Q 953 2441 691 2322 
L 691 4666 
z
" transform="scale(0.015625)"/>
       </defs>
       <use xlink:href="#DejaVuSans-35"/>
       <use xlink:href="#DejaVuSans-30" x="63.623047"/>
       <use xlink:href="#DejaVuSans-30" x="127.246094"/>
      </g>
     </g>
    </g>
    <g id="ytick_3">
     <g id="line2d_10">
      <g>
       <use xlink:href="#m7225a04872" x="60.77" y="294.283282" style="stroke: #000000; stroke-width: 0.8"/>
      </g>
     </g>
     <g id="text_11">
      <!-- 1000 -->
      <g transform="translate(28.32 298.0825) scale(0.1 -0.1)">
       <use xlink:href="#DejaVuSans-31"/>
       <use xlink:href="#DejaVuSans-30" x="63.623047"/>
       <use xlink:href="#DejaVuSans-30" x="127.246094"/>
       <use xlink:href="#DejaVuSans-30" x="190.869141"/>
      </g>
     </g>
    </g>
    <g id="ytick_4">
     <g id="line2d_11">
      <g>
       <use xlink:href="#m7225a04872" x="60.77" y="248.204922" style="stroke: #000000; stroke-width: 0.8"/>
      </g>
     </g>
     <g id="text_12">
      <!-- 1500 -->
      <g transform="translate(28.32 252.004141) scale(0.1 -0.1)">
       <use xlink:href="#DejaVuSans-31"/>
       <use xlink:href="#DejaVuSans-35" x="63.623047"/>
       <use xlink:href="#DejaVuSans-30" x="127.246094"/>
       <use xlink:href="#DejaVuSans-30" x="190.869141"/>
      </g>
     </g>
    </g>
    <g id="ytick_5">
     <g id="line2d_12">
      <g>
       <use xlink:href="#m7225a04872" x="60.77" y="202.126563" style="stroke: #000000; stroke-width: 0.8"/>
      </g>
     </g>
     <g id="text_13">
      <!-- 2000 -->
      <g transform="translate(28.32 205.925782) scale(0.1 -0.1)">
       <use xlink:href="#DejaVuSans-32"/>
       <use xlink:href="#DejaVuSans-30" x="63.623047"/>
       <use xlink:href="#DejaVuSans-30" x="127.246094"/>
       <use xlink:href="#DejaVuSans-30" x="190.869141"/>
      </g>
     </g>
    </g>
    <g id="ytick_6">
     <g id="line2d_13">
      <g>
       <use xlink:href="#m7225a04872" x="60.77" y="156.048204" style="stroke: #000000; stroke-width: 0.8"/>
      </g>
     </g>
     <g id="text_14">
      <!-- 2500 -->
      <g transform="translate(28.32 159.847423) scale(0.1 -0.1)">
       <use xlink:href="#DejaVuSans-32"/>
       <use xlink:href="#DejaVuSans-35" x="63.623047"/>
       <use xlink:href="#DejaVuSans-30" x="127.246094"/>
       <use xlink:href="#DejaVuSans-30" x="190.869141"/>
      </g>
     </g>
    </g>
    <g id="ytick_7">
     <g id="line2d_14">
      <g>
       <use xlink:href="#m7225a04872" x="60.77" y="109.969845" style="stroke: #000000; stroke-width: 0.8"/>
      </g>
     </g>
     <g id="text_15">
      <!-- 3000 -->
      <g transform="translate(28.32 113.769063) scale(0.1 -0.1)">
       <use xlink:href="#DejaVuSans-33"/>
       <use xlink:href="#DejaVuSans-30" x="63.623047"/>
       <use xlink:href="#DejaVuSans-30" x="127.246094"/>
       <use xlink:href="#DejaVuSans-30" x="190.869141"/>
      </g>
     </g>
    </g>
    <g id="ytick_8">
     <g id="line2d_15">
      <g>
       <use xlink:href="#m7225a04872" x="60.77" y="63.891485" style="stroke: #000000; stroke-width: 0.8"/>
      </g>
     </g>
     <g id="text_16">
      <!-- 3500 -->
      <g transform="translate(28.32 67.690704) scale(0.1 -0.1)">
       <use xlink:href="#DejaVuSans-33"/>
       <use xlink:href="#DejaVuSans-35" x="63.623047"/>
       <use xlink:href="#DejaVuSans-30" x="127.246094"/>
       <use xlink:href="#DejaVuSans-30" x="190.869141"/>
      </g>
     </g>
    </g>
    <g id="ytick_9">
     <g id="line2d_16">
      <g>
       <use xlink:href="#m7225a04872" x="60.77" y="17.813126" style="stroke: #000000; stroke-width: 0.8"/>
      </g>
     </g>
     <g id="text_17">
      <!-- 4000 -->
      <g transform="translate(28.32 21.612345) scale(0.1 -0.1)">
       <defs>
        <path id="DejaVuSans-34" d="M 2419 4116 
L 825 1625 
L 2419 1625 
L 2419 4116 
z
M 2253 4666 
L 3047 4666 
L 3047 1625 
L 3713 1625 
L 3713 1100 
L 3047 1100 
L 3047 0 
L 2419 0 
L 2419 1100 
L 313 1100 
L 313 1709 
L 2253 4666 
z
" transform="scale(0.015625)"/>
       </defs>
       <use xlink:href="#DejaVuSans-34"/>
       <use xlink:href="#DejaVuSans-30" x="63.623047"/>
       <use xlink:href="#DejaVuSans-30" x="127.246094"/>
       <use xlink:href="#DejaVuSans-30" x="190.869141"/>
      </g>
     </g>
    </g>
    <g id="text_18">
     <!-- Count -->
     <g transform="translate(21.408437 219.407813) rotate(-90) scale(0.14 -0.14)">
      <defs>
       <path id="DejaVuSans-43" d="M 4122 4306 
L 4122 3641 
Q 3803 3938 3442 4084 
Q 3081 4231 2675 4231 
Q 1875 4231 1450 3742 
Q 1025 3253 1025 2328 
Q 1025 1406 1450 917 
Q 1875 428 2675 428 
Q 3081 428 3442 575 
Q 3803 722 4122 1019 
L 4122 359 
Q 3791 134 3420 21 
Q 3050 -91 2638 -91 
Q 1578 -91 968 557 
Q 359 1206 359 2328 
Q 359 3453 968 4101 
Q 1578 4750 2638 4750 
Q 3056 4750 3426 4639 
Q 3797 4528 4122 4306 
z
" transform="scale(0.015625)"/>
       <path id="DejaVuSans-75" d="M 544 1381 
L 544 3500 
L 1119 3500 
L 1119 1403 
Q 1119 906 1312 657 
Q 1506 409 1894 409 
Q 2359 409 2629 706 
Q 2900 1003 2900 1516 
L 2900 3500 
L 3475 3500 
L 3475 0 
L 2900 0 
L 2900 538 
Q 2691 219 2414 64 
Q 2138 -91 1772 -91 
Q 1169 -91 856 284 
Q 544 659 544 1381 
z
M 1991 3584 
L 1991 3584 
z
" transform="scale(0.015625)"/>
      </defs>
      <use xlink:href="#DejaVuSans-43"/>
      <use xlink:href="#DejaVuSans-6f" x="69.824219"/>
      <use xlink:href="#DejaVuSans-75" x="131.005859"/>
      <use xlink:href="#DejaVuSans-6e" x="194.384766"/>
      <use xlink:href="#DejaVuSans-74" x="257.763672"/>
     </g>
    </g>
   </g>
   <g id="line2d_17">
    <path d="M 311.884869 386.44 
L 311.884869 28.687619 
" clip-path="url(#pc63f05b3f2)" style="fill: none; stroke: #ff0000; stroke-width: 1.6; stroke-linecap: square"/>
   </g>
   <g id="patch_325">
    <path d="M 60.77 386.44 
L 60.77 10.8 
" style="fill: none; stroke: #000000; stroke-width: 0.8; stroke-linejoin: miter; stroke-linecap: square"/>
   </g>
   <g id="patch_326">
    <path d="M 637.2 386.44 
L 637.2 10.8 
" style="fill: none; stroke: #000000; stroke-width: 0.8; stroke-linejoin: miter; stroke-linecap: square"/>
   </g>
   <g id="patch_327">
    <path d="M 60.77 386.44 
L 637.2 386.44 
" style="fill: none; stroke: #000000; stroke-width: 0.8; stroke-linejoin: miter; stroke-linecap: square"/>
   </g>
   <g id="patch_328">
    <path d="M 60.77 10.8 
L 637.2 10.8 
" style="fill: none; stroke: #000000; stroke-width: 0.8; stroke-linejoin: miter; stroke-linecap: square"/>
   </g>
   <g id="text_19">
    <!-- $\mu_2 = -0.749$ -->
    <g transform="translate(464.271 66.857188) scale(0.17 -0.17)">
     <defs>
      <path id="DejaVuSans-Oblique-3bc" d="M -84 -1331 
L 856 3500 
L 1434 3500 
L 1009 1322 
Q 997 1256 987 1175 
Q 978 1094 978 1013 
Q 978 722 1161 565 
Q 1344 409 1684 409 
Q 2147 409 2431 671 
Q 2716 934 2816 1459 
L 3213 3500 
L 3788 3500 
L 3266 809 
Q 3253 750 3248 706 
Q 3244 663 3244 628 
Q 3244 531 3283 486 
Q 3322 441 3406 441 
Q 3438 441 3492 456 
Q 3547 472 3647 513 
L 3559 50 
Q 3422 -19 3297 -55 
Q 3172 -91 3053 -91 
Q 2847 -91 2730 40 
Q 2613 172 2613 403 
Q 2438 153 2195 31 
Q 1953 -91 1625 -91 
Q 1334 -91 1117 43 
Q 900 178 831 397 
L 494 -1331 
L -84 -1331 
z
" transform="scale(0.015625)"/>
      <path id="DejaVuSans-3d" d="M 678 2906 
L 4684 2906 
L 4684 2381 
L 678 2381 
L 678 2906 
z
M 678 1631 
L 4684 1631 
L 4684 1100 
L 678 1100 
L 678 1631 
z
" transform="scale(0.015625)"/>
      <path id="DejaVuSans-2e" d="M 684 794 
L 1344 794 
L 1344 0 
L 684 0 
L 684 794 
z
" transform="scale(0.015625)"/>
      <path id="DejaVuSans-37" d="M 525 4666 
L 3525 4666 
L 3525 4397 
L 1831 0 
L 1172 0 
L 2766 4134 
L 525 4134 
L 525 4666 
z
" transform="scale(0.015625)"/>
      <path id="DejaVuSans-39" d="M 703 97 
L 703 672 
Q 941 559 1184 500 
Q 1428 441 1663 441 
Q 2288 441 2617 861 
Q 2947 1281 2994 2138 
Q 2813 1869 2534 1725 
Q 2256 1581 1919 1581 
Q 1219 1581 811 2004 
Q 403 2428 403 3163 
Q 403 3881 828 4315 
Q 1253 4750 1959 4750 
Q 2769 4750 3195 4129 
Q 3622 3509 3622 2328 
Q 3622 1225 3098 567 
Q 2575 -91 1691 -91 
Q 1453 -91 1209 -44 
Q 966 3 703 97 
z
M 1959 2075 
Q 2384 2075 2632 2365 
Q 2881 2656 2881 3163 
Q 2881 3666 2632 3958 
Q 2384 4250 1959 4250 
Q 1534 4250 1286 3958 
Q 1038 3666 1038 3163 
Q 1038 2656 1286 2365 
Q 1534 2075 1959 2075 
z
" transform="scale(0.015625)"/>
     </defs>
     <use xlink:href="#DejaVuSans-Oblique-3bc" transform="translate(0 0.78125)"/>
     <use xlink:href="#DejaVuSans-32" transform="translate(63.623047 -15.625) scale(0.7)"/>
     <use xlink:href="#DejaVuSans-3d" transform="translate(130.375977 0.78125)"/>
     <use xlink:href="#DejaVuSans-2212" transform="translate(253.129883 0.78125)"/>
     <use xlink:href="#DejaVuSans-30" transform="translate(356.401367 0.78125)"/>
     <use xlink:href="#DejaVuSans-2e" transform="translate(420.024414 0.78125)"/>
     <use xlink:href="#DejaVuSans-37" transform="translate(444.061523 0.78125)"/>
     <use xlink:href="#DejaVuSans-34" transform="translate(507.68457 0.78125)"/>
     <use xlink:href="#DejaVuSans-39" transform="translate(571.307617 0.78125)"/>
    </g>
    <!-- $\sigma_2 = 4.507$ -->
    <g transform="translate(464.271 85.928) scale(0.17 -0.17)">
     <defs>
      <path id="DejaVuSans-Oblique-3c3" d="M 2219 3044 
Q 1744 3044 1422 2700 
Q 1081 2341 969 1747 
Q 844 1119 1044 756 
Q 1241 397 1706 397 
Q 2166 397 2503 759 
Q 2844 1122 2966 1747 
Q 3075 2319 2881 2700 
Q 2700 3044 2219 3044 
z
M 2309 3503 
L 4219 3500 
L 4106 2925 
L 3463 2925 
Q 3706 2438 3575 1747 
Q 3406 888 2884 400 
Q 2359 -91 1609 -91 
Q 856 -91 525 400 
Q 194 888 363 1747 
Q 528 2609 1050 3097 
Q 1484 3503 2309 3503 
z
" transform="scale(0.015625)"/>
     </defs>
     <use xlink:href="#DejaVuSans-Oblique-3c3" transform="translate(0 0.78125)"/>
     <use xlink:href="#DejaVuSans-32" transform="translate(63.378906 -15.625) scale(0.7)"/>
     <use xlink:href="#DejaVuSans-3d" transform="translate(130.131836 0.78125)"/>
     <use xlink:href="#DejaVuSans-34" transform="translate(233.40332 0.78125)"/>
     <use xlink:href="#DejaVuSans-2e" transform="translate(297.026367 0.78125)"/>
     <use xlink:href="#DejaVuSans-35" transform="translate(328.813477 0.78125)"/>
     <use xlink:href="#DejaVuSans-30" transform="translate(392.436523 0.78125)"/>
     <use xlink:href="#DejaVuSans-37" transform="translate(456.05957 0.78125)"/>
    </g>
   </g>
  </g>
 </g>
 <defs>
  <clipPath id="pc63f05b3f2">
   <rect x="60.77" y="10.8" width="576.43" height="375.64"/>
  </clipPath>
 </defs>
</svg>
