<?xml version="1.0" encoding="utf-8" standalone="no"?>
<!DOCTYPE svg PUBLIC "-//W3C//DTD SVG 1.1//EN"
  "http://www.w3.org/Graphics/SVG/1.1/DTD/svg11.dtd">
<svg xmlns:xlink="http://www.w3.org/1999/xlink" width="576pt" height="432pt" viewBox="0 0 576 432" xmlns="http://www.w3.org/2000/svg" version="1.1">
 <metadata>
  <rdf:RDF xmlns:dc="http://purl.org/dc/elements/1.1/" xmlns:cc="http://creativecommons.org/ns#" xmlns:rdf="http://www.w3.org/1999/02/22-rdf-syntax-ns#">
   <cc:Work>
    <dc:type rdf:resource="http://purl.org/dc/dcmitype/StillImage"/>
    <dc:date>2024-07-14T16:54:36.709176</dc:date>
    <dc:format>image/svg+xml</dc:format>
    <dc:creator>
     <cc:Agent>
      <dc:title>Matplotlib v3.7.2, https://matplotlib.org/</dc:title>
     </cc:Agent>
    </dc:creator>
   </cc:Work>
  </rdf:RDF>
 </metadata>
 <defs>
  <style type="text/css">*{stroke-linejoin: round; stroke-linecap: butt}</style>
 </defs>
 <g id="figure_1">
  <g id="patch_1">
   <path d="M 0 432 
L 576 432 
L 576 0 
L 0 0 
z
" style="fill: #ffffff"/>
  </g>
  <g id="axes_1">
   <g id="patch_2">
    <path d="M 64.37 382.84 
L 565.2 382.84 
L 565.2 10.8 
L 64.37 10.8 
z
" style="fill: #ffffff"/>
   </g>
   <g id="patch_3">
    <path d="M 87.135 382.84 
L 88.548975 382.84 
L 88.548975 382.748726 
L 87.135 382.748726 
z
" clip-path="url(#pb078ddb0ce)" style="fill: #1f77b4"/>
   </g>
   <g id="patch_4">
    <path d="M 88.548975 382.84 
L 89.96295 382.84 
L 89.96295 382.84 
L 88.548975 382.84 
z
" clip-path="url(#pb078ddb0ce)" style="fill: #1f77b4"/>
   </g>
   <g id="patch_5">
    <path d="M 89.96295 382.84 
L 91.376925 382.84 
L 91.376925 382.84 
L 89.96295 382.84 
z
" clip-path="url(#pb078ddb0ce)" style="fill: #1f77b4"/>
   </g>
   <g id="patch_6">
    <path d="M 91.376925 382.84 
L 92.790901 382.84 
L 92.790901 382.84 
L 91.376925 382.84 
z
" clip-path="url(#pb078ddb0ce)" style="fill: #1f77b4"/>
   </g>
   <g id="patch_7">
    <path d="M 92.790901 382.84 
L 94.204876 382.84 
L 94.204876 382.84 
L 92.790901 382.84 
z
" clip-path="url(#pb078ddb0ce)" style="fill: #1f77b4"/>
   </g>
   <g id="patch_8">
    <path d="M 94.204876 382.84 
L 95.618851 382.84 
L 95.618851 382.84 
L 94.204876 382.84 
z
" clip-path="url(#pb078ddb0ce)" style="fill: #1f77b4"/>
   </g>
   <g id="patch_9">
    <path d="M 95.618851 382.84 
L 97.032826 382.84 
L 97.032826 382.84 
L 95.618851 382.84 
z
" clip-path="url(#pb078ddb0ce)" style="fill: #1f77b4"/>
   </g>
   <g id="patch_10">
    <path d="M 97.032826 382.84 
L 98.446801 382.84 
L 98.446801 382.84 
L 97.032826 382.84 
z
" clip-path="url(#pb078ddb0ce)" style="fill: #1f77b4"/>
   </g>
   <g id="patch_11">
    <path d="M 98.446801 382.84 
L 99.860776 382.84 
L 99.860776 382.84 
L 98.446801 382.84 
z
" clip-path="url(#pb078ddb0ce)" style="fill: #1f77b4"/>
   </g>
   <g id="patch_12">
    <path d="M 99.860776 382.84 
L 101.274752 382.84 
L 101.274752 382.84 
L 99.860776 382.84 
z
" clip-path="url(#pb078ddb0ce)" style="fill: #1f77b4"/>
   </g>
   <g id="patch_13">
    <path d="M 101.274752 382.84 
L 102.688727 382.84 
L 102.688727 382.84 
L 101.274752 382.84 
z
" clip-path="url(#pb078ddb0ce)" style="fill: #1f77b4"/>
   </g>
   <g id="patch_14">
    <path d="M 102.688727 382.84 
L 104.102702 382.84 
L 104.102702 382.84 
L 102.688727 382.84 
z
" clip-path="url(#pb078ddb0ce)" style="fill: #1f77b4"/>
   </g>
   <g id="patch_15">
    <path d="M 104.102702 382.84 
L 105.516677 382.84 
L 105.516677 382.84 
L 104.102702 382.84 
z
" clip-path="url(#pb078ddb0ce)" style="fill: #1f77b4"/>
   </g>
   <g id="patch_16">
    <path d="M 105.516677 382.84 
L 106.930652 382.84 
L 106.930652 382.84 
L 105.516677 382.84 
z
" clip-path="url(#pb078ddb0ce)" style="fill: #1f77b4"/>
   </g>
   <g id="patch_17">
    <path d="M 106.930652 382.84 
L 108.344627 382.84 
L 108.344627 382.84 
L 106.930652 382.84 
z
" clip-path="url(#pb078ddb0ce)" style="fill: #1f77b4"/>
   </g>
   <g id="patch_18">
    <path d="M 108.344627 382.84 
L 109.758602 382.84 
L 109.758602 382.84 
L 108.344627 382.84 
z
" clip-path="url(#pb078ddb0ce)" style="fill: #1f77b4"/>
   </g>
   <g id="patch_19">
    <path d="M 109.758602 382.84 
L 111.172578 382.84 
L 111.172578 382.84 
L 109.758602 382.84 
z
" clip-path="url(#pb078ddb0ce)" style="fill: #1f77b4"/>
   </g>
   <g id="patch_20">
    <path d="M 111.172578 382.84 
L 112.586553 382.84 
L 112.586553 382.84 
L 111.172578 382.84 
z
" clip-path="url(#pb078ddb0ce)" style="fill: #1f77b4"/>
   </g>
   <g id="patch_21">
    <path d="M 112.586553 382.84 
L 114.000528 382.84 
L 114.000528 382.84 
L 112.586553 382.84 
z
" clip-path="url(#pb078ddb0ce)" style="fill: #1f77b4"/>
   </g>
   <g id="patch_22">
    <path d="M 114.000528 382.84 
L 115.414503 382.84 
L 115.414503 382.84 
L 114.000528 382.84 
z
" clip-path="url(#pb078ddb0ce)" style="fill: #1f77b4"/>
   </g>
   <g id="patch_23">
    <path d="M 115.414503 382.84 
L 116.828478 382.84 
L 116.828478 382.84 
L 115.414503 382.84 
z
" clip-path="url(#pb078ddb0ce)" style="fill: #1f77b4"/>
   </g>
   <g id="patch_24">
    <path d="M 116.828478 382.84 
L 118.242453 382.84 
L 118.242453 382.84 
L 116.828478 382.84 
z
" clip-path="url(#pb078ddb0ce)" style="fill: #1f77b4"/>
   </g>
   <g id="patch_25">
    <path d="M 118.242453 382.84 
L 119.656429 382.84 
L 119.656429 382.84 
L 118.242453 382.84 
z
" clip-path="url(#pb078ddb0ce)" style="fill: #1f77b4"/>
   </g>
   <g id="patch_26">
    <path d="M 119.656429 382.84 
L 121.070404 382.84 
L 121.070404 382.84 
L 119.656429 382.84 
z
" clip-path="url(#pb078ddb0ce)" style="fill: #1f77b4"/>
   </g>
   <g id="patch_27">
    <path d="M 121.070404 382.84 
L 122.484379 382.84 
L 122.484379 382.84 
L 121.070404 382.84 
z
" clip-path="url(#pb078ddb0ce)" style="fill: #1f77b4"/>
   </g>
   <g id="patch_28">
    <path d="M 122.484379 382.84 
L 123.898354 382.84 
L 123.898354 382.84 
L 122.484379 382.84 
z
" clip-path="url(#pb078ddb0ce)" style="fill: #1f77b4"/>
   </g>
   <g id="patch_29">
    <path d="M 123.898354 382.84 
L 125.312329 382.84 
L 125.312329 382.84 
L 123.898354 382.84 
z
" clip-path="url(#pb078ddb0ce)" style="fill: #1f77b4"/>
   </g>
   <g id="patch_30">
    <path d="M 125.312329 382.84 
L 126.726304 382.84 
L 126.726304 382.84 
L 125.312329 382.84 
z
" clip-path="url(#pb078ddb0ce)" style="fill: #1f77b4"/>
   </g>
   <g id="patch_31">
    <path d="M 126.726304 382.84 
L 128.14028 382.84 
L 128.14028 382.84 
L 126.726304 382.84 
z
" clip-path="url(#pb078ddb0ce)" style="fill: #1f77b4"/>
   </g>
   <g id="patch_32">
    <path d="M 128.14028 382.84 
L 129.554255 382.84 
L 129.554255 382.84 
L 128.14028 382.84 
z
" clip-path="url(#pb078ddb0ce)" style="fill: #1f77b4"/>
   </g>
   <g id="patch_33">
    <path d="M 129.554255 382.84 
L 130.96823 382.84 
L 130.96823 382.84 
L 129.554255 382.84 
z
" clip-path="url(#pb078ddb0ce)" style="fill: #1f77b4"/>
   </g>
   <g id="patch_34">
    <path d="M 130.96823 382.84 
L 132.382205 382.84 
L 132.382205 382.84 
L 130.96823 382.84 
z
" clip-path="url(#pb078ddb0ce)" style="fill: #1f77b4"/>
   </g>
   <g id="patch_35">
    <path d="M 132.382205 382.84 
L 133.79618 382.84 
L 133.79618 382.84 
L 132.382205 382.84 
z
" clip-path="url(#pb078ddb0ce)" style="fill: #1f77b4"/>
   </g>
   <g id="patch_36">
    <path d="M 133.79618 382.84 
L 135.210155 382.84 
L 135.210155 382.84 
L 133.79618 382.84 
z
" clip-path="url(#pb078ddb0ce)" style="fill: #1f77b4"/>
   </g>
   <g id="patch_37">
    <path d="M 135.210155 382.84 
L 136.62413 382.84 
L 136.62413 382.84 
L 135.210155 382.84 
z
" clip-path="url(#pb078ddb0ce)" style="fill: #1f77b4"/>
   </g>
   <g id="patch_38">
    <path d="M 136.62413 382.84 
L 138.038106 382.84 
L 138.038106 382.84 
L 136.62413 382.84 
z
" clip-path="url(#pb078ddb0ce)" style="fill: #1f77b4"/>
   </g>
   <g id="patch_39">
    <path d="M 138.038106 382.84 
L 139.452081 382.84 
L 139.452081 382.84 
L 138.038106 382.84 
z
" clip-path="url(#pb078ddb0ce)" style="fill: #1f77b4"/>
   </g>
   <g id="patch_40">
    <path d="M 139.452081 382.84 
L 140.866056 382.84 
L 140.866056 382.84 
L 139.452081 382.84 
z
" clip-path="url(#pb078ddb0ce)" style="fill: #1f77b4"/>
   </g>
   <g id="patch_41">
    <path d="M 140.866056 382.84 
L 142.280031 382.84 
L 142.280031 382.84 
L 140.866056 382.84 
z
" clip-path="url(#pb078ddb0ce)" style="fill: #1f77b4"/>
   </g>
   <g id="patch_42">
    <path d="M 142.280031 382.84 
L 143.694006 382.84 
L 143.694006 382.84 
L 142.280031 382.84 
z
" clip-path="url(#pb078ddb0ce)" style="fill: #1f77b4"/>
   </g>
   <g id="patch_43">
    <path d="M 143.694006 382.84 
L 145.107981 382.84 
L 145.107981 382.748726 
L 143.694006 382.748726 
z
" clip-path="url(#pb078ddb0ce)" style="fill: #1f77b4"/>
   </g>
   <g id="patch_44">
    <path d="M 145.107981 382.84 
L 146.521957 382.84 
L 146.521957 382.84 
L 145.107981 382.84 
z
" clip-path="url(#pb078ddb0ce)" style="fill: #1f77b4"/>
   </g>
   <g id="patch_45">
    <path d="M 146.521957 382.84 
L 147.935932 382.84 
L 147.935932 382.84 
L 146.521957 382.84 
z
" clip-path="url(#pb078ddb0ce)" style="fill: #1f77b4"/>
   </g>
   <g id="patch_46">
    <path d="M 147.935932 382.84 
L 149.349907 382.84 
L 149.349907 382.84 
L 147.935932 382.84 
z
" clip-path="url(#pb078ddb0ce)" style="fill: #1f77b4"/>
   </g>
   <g id="patch_47">
    <path d="M 149.349907 382.84 
L 150.763882 382.84 
L 150.763882 382.84 
L 149.349907 382.84 
z
" clip-path="url(#pb078ddb0ce)" style="fill: #1f77b4"/>
   </g>
   <g id="patch_48">
    <path d="M 150.763882 382.84 
L 152.177857 382.84 
L 152.177857 382.84 
L 150.763882 382.84 
z
" clip-path="url(#pb078ddb0ce)" style="fill: #1f77b4"/>
   </g>
   <g id="patch_49">
    <path d="M 152.177857 382.84 
L 153.591832 382.84 
L 153.591832 382.84 
L 152.177857 382.84 
z
" clip-path="url(#pb078ddb0ce)" style="fill: #1f77b4"/>
   </g>
   <g id="patch_50">
    <path d="M 153.591832 382.84 
L 155.005807 382.84 
L 155.005807 382.748726 
L 153.591832 382.748726 
z
" clip-path="url(#pb078ddb0ce)" style="fill: #1f77b4"/>
   </g>
   <g id="patch_51">
    <path d="M 155.005807 382.84 
L 156.419783 382.84 
L 156.419783 382.84 
L 155.005807 382.84 
z
" clip-path="url(#pb078ddb0ce)" style="fill: #1f77b4"/>
   </g>
   <g id="patch_52">
    <path d="M 156.419783 382.84 
L 157.833758 382.84 
L 157.833758 382.84 
L 156.419783 382.84 
z
" clip-path="url(#pb078ddb0ce)" style="fill: #1f77b4"/>
   </g>
   <g id="patch_53">
    <path d="M 157.833758 382.84 
L 159.247733 382.84 
L 159.247733 382.84 
L 157.833758 382.84 
z
" clip-path="url(#pb078ddb0ce)" style="fill: #1f77b4"/>
   </g>
   <g id="patch_54">
    <path d="M 159.247733 382.84 
L 160.661708 382.84 
L 160.661708 382.84 
L 159.247733 382.84 
z
" clip-path="url(#pb078ddb0ce)" style="fill: #1f77b4"/>
   </g>
   <g id="patch_55">
    <path d="M 160.661708 382.84 
L 162.075683 382.84 
L 162.075683 382.748726 
L 160.661708 382.748726 
z
" clip-path="url(#pb078ddb0ce)" style="fill: #1f77b4"/>
   </g>
   <g id="patch_56">
    <path d="M 162.075683 382.84 
L 163.489658 382.84 
L 163.489658 382.84 
L 162.075683 382.84 
z
" clip-path="url(#pb078ddb0ce)" style="fill: #1f77b4"/>
   </g>
   <g id="patch_57">
    <path d="M 163.489658 382.84 
L 164.903634 382.84 
L 164.903634 382.657453 
L 163.489658 382.657453 
z
" clip-path="url(#pb078ddb0ce)" style="fill: #1f77b4"/>
   </g>
   <g id="patch_58">
    <path d="M 164.903634 382.84 
L 166.317609 382.84 
L 166.317609 382.84 
L 164.903634 382.84 
z
" clip-path="url(#pb078ddb0ce)" style="fill: #1f77b4"/>
   </g>
   <g id="patch_59">
    <path d="M 166.317609 382.84 
L 167.731584 382.84 
L 167.731584 382.84 
L 166.317609 382.84 
z
" clip-path="url(#pb078ddb0ce)" style="fill: #1f77b4"/>
   </g>
   <g id="patch_60">
    <path d="M 167.731584 382.84 
L 169.145559 382.84 
L 169.145559 382.657453 
L 167.731584 382.657453 
z
" clip-path="url(#pb078ddb0ce)" style="fill: #1f77b4"/>
   </g>
   <g id="patch_61">
    <path d="M 169.145559 382.84 
L 170.559534 382.84 
L 170.559534 382.748726 
L 169.145559 382.748726 
z
" clip-path="url(#pb078ddb0ce)" style="fill: #1f77b4"/>
   </g>
   <g id="patch_62">
    <path d="M 170.559534 382.84 
L 171.973509 382.84 
L 171.973509 382.748726 
L 170.559534 382.748726 
z
" clip-path="url(#pb078ddb0ce)" style="fill: #1f77b4"/>
   </g>
   <g id="patch_63">
    <path d="M 171.973509 382.84 
L 173.387484 382.84 
L 173.387484 382.84 
L 171.973509 382.84 
z
" clip-path="url(#pb078ddb0ce)" style="fill: #1f77b4"/>
   </g>
   <g id="patch_64">
    <path d="M 173.387484 382.84 
L 174.80146 382.84 
L 174.80146 382.748726 
L 173.387484 382.748726 
z
" clip-path="url(#pb078ddb0ce)" style="fill: #1f77b4"/>
   </g>
   <g id="patch_65">
    <path d="M 174.80146 382.84 
L 176.215435 382.84 
L 176.215435 382.748726 
L 174.80146 382.748726 
z
" clip-path="url(#pb078ddb0ce)" style="fill: #1f77b4"/>
   </g>
   <g id="patch_66">
    <path d="M 176.215435 382.84 
L 177.62941 382.84 
L 177.62941 382.748726 
L 176.215435 382.748726 
z
" clip-path="url(#pb078ddb0ce)" style="fill: #1f77b4"/>
   </g>
   <g id="patch_67">
    <path d="M 177.62941 382.84 
L 179.043385 382.84 
L 179.043385 382.84 
L 177.62941 382.84 
z
" clip-path="url(#pb078ddb0ce)" style="fill: #1f77b4"/>
   </g>
   <g id="patch_68">
    <path d="M 179.043385 382.84 
L 180.45736 382.84 
L 180.45736 382.657453 
L 179.043385 382.657453 
z
" clip-path="url(#pb078ddb0ce)" style="fill: #1f77b4"/>
   </g>
   <g id="patch_69">
    <path d="M 180.45736 382.84 
L 181.871335 382.84 
L 181.871335 382.748726 
L 180.45736 382.748726 
z
" clip-path="url(#pb078ddb0ce)" style="fill: #1f77b4"/>
   </g>
   <g id="patch_70">
    <path d="M 181.871335 382.84 
L 183.285311 382.84 
L 183.285311 382.84 
L 181.871335 382.84 
z
" clip-path="url(#pb078ddb0ce)" style="fill: #1f77b4"/>
   </g>
   <g id="patch_71">
    <path d="M 183.285311 382.84 
L 184.699286 382.84 
L 184.699286 382.566179 
L 183.285311 382.566179 
z
" clip-path="url(#pb078ddb0ce)" style="fill: #1f77b4"/>
   </g>
   <g id="patch_72">
    <path d="M 184.699286 382.84 
L 186.113261 382.84 
L 186.113261 382.84 
L 184.699286 382.84 
z
" clip-path="url(#pb078ddb0ce)" style="fill: #1f77b4"/>
   </g>
   <g id="patch_73">
    <path d="M 186.113261 382.84 
L 187.527236 382.84 
L 187.527236 382.748726 
L 186.113261 382.748726 
z
" clip-path="url(#pb078ddb0ce)" style="fill: #1f77b4"/>
   </g>
   <g id="patch_74">
    <path d="M 187.527236 382.84 
L 188.941211 382.84 
L 188.941211 382.474906 
L 187.527236 382.474906 
z
" clip-path="url(#pb078ddb0ce)" style="fill: #1f77b4"/>
   </g>
   <g id="patch_75">
    <path d="M 188.941211 382.84 
L 190.355186 382.84 
L 190.355186 382.657453 
L 188.941211 382.657453 
z
" clip-path="url(#pb078ddb0ce)" style="fill: #1f77b4"/>
   </g>
   <g id="patch_76">
    <path d="M 190.355186 382.84 
L 191.769161 382.84 
L 191.769161 382.657453 
L 190.355186 382.657453 
z
" clip-path="url(#pb078ddb0ce)" style="fill: #1f77b4"/>
   </g>
   <g id="patch_77">
    <path d="M 191.769161 382.84 
L 193.183137 382.84 
L 193.183137 382.657453 
L 191.769161 382.657453 
z
" clip-path="url(#pb078ddb0ce)" style="fill: #1f77b4"/>
   </g>
   <g id="patch_78">
    <path d="M 193.183137 382.84 
L 194.597112 382.84 
L 194.597112 382.474906 
L 193.183137 382.474906 
z
" clip-path="url(#pb078ddb0ce)" style="fill: #1f77b4"/>
   </g>
   <g id="patch_79">
    <path d="M 194.597112 382.84 
L 196.011087 382.84 
L 196.011087 382.474906 
L 194.597112 382.474906 
z
" clip-path="url(#pb078ddb0ce)" style="fill: #1f77b4"/>
   </g>
   <g id="patch_80">
    <path d="M 196.011087 382.84 
L 197.425062 382.84 
L 197.425062 382.566179 
L 196.011087 382.566179 
z
" clip-path="url(#pb078ddb0ce)" style="fill: #1f77b4"/>
   </g>
   <g id="patch_81">
    <path d="M 197.425062 382.84 
L 198.839037 382.84 
L 198.839037 382.657453 
L 197.425062 382.657453 
z
" clip-path="url(#pb078ddb0ce)" style="fill: #1f77b4"/>
   </g>
   <g id="patch_82">
    <path d="M 198.839037 382.84 
L 200.253012 382.84 
L 200.253012 382.566179 
L 198.839037 382.566179 
z
" clip-path="url(#pb078ddb0ce)" style="fill: #1f77b4"/>
   </g>
   <g id="patch_83">
    <path d="M 200.253012 382.84 
L 201.666988 382.84 
L 201.666988 382.566179 
L 200.253012 382.566179 
z
" clip-path="url(#pb078ddb0ce)" style="fill: #1f77b4"/>
   </g>
   <g id="patch_84">
    <path d="M 201.666988 382.84 
L 203.080963 382.84 
L 203.080963 382.201085 
L 201.666988 382.201085 
z
" clip-path="url(#pb078ddb0ce)" style="fill: #1f77b4"/>
   </g>
   <g id="patch_85">
    <path d="M 203.080963 382.84 
L 204.494938 382.84 
L 204.494938 382.566179 
L 203.080963 382.566179 
z
" clip-path="url(#pb078ddb0ce)" style="fill: #1f77b4"/>
   </g>
   <g id="patch_86">
    <path d="M 204.494938 382.84 
L 205.908913 382.84 
L 205.908913 382.474906 
L 204.494938 382.474906 
z
" clip-path="url(#pb078ddb0ce)" style="fill: #1f77b4"/>
   </g>
   <g id="patch_87">
    <path d="M 205.908913 382.84 
L 207.322888 382.84 
L 207.322888 382.474906 
L 205.908913 382.474906 
z
" clip-path="url(#pb078ddb0ce)" style="fill: #1f77b4"/>
   </g>
   <g id="patch_88">
    <path d="M 207.322888 382.84 
L 208.736863 382.84 
L 208.736863 382.109812 
L 207.322888 382.109812 
z
" clip-path="url(#pb078ddb0ce)" style="fill: #1f77b4"/>
   </g>
   <g id="patch_89">
    <path d="M 208.736863 382.84 
L 210.150839 382.84 
L 210.150839 382.292359 
L 208.736863 382.292359 
z
" clip-path="url(#pb078ddb0ce)" style="fill: #1f77b4"/>
   </g>
   <g id="patch_90">
    <path d="M 210.150839 382.84 
L 211.564814 382.84 
L 211.564814 382.018538 
L 210.150839 382.018538 
z
" clip-path="url(#pb078ddb0ce)" style="fill: #1f77b4"/>
   </g>
   <g id="patch_91">
    <path d="M 211.564814 382.84 
L 212.978789 382.84 
L 212.978789 382.383632 
L 211.564814 382.383632 
z
" clip-path="url(#pb078ddb0ce)" style="fill: #1f77b4"/>
   </g>
   <g id="patch_92">
    <path d="M 212.978789 382.84 
L 214.392764 382.84 
L 214.392764 381.835991 
L 212.978789 381.835991 
z
" clip-path="url(#pb078ddb0ce)" style="fill: #1f77b4"/>
   </g>
   <g id="patch_93">
    <path d="M 214.392764 382.84 
L 215.806739 382.84 
L 215.806739 381.653444 
L 214.392764 381.653444 
z
" clip-path="url(#pb078ddb0ce)" style="fill: #1f77b4"/>
   </g>
   <g id="patch_94">
    <path d="M 215.806739 382.84 
L 217.220714 382.84 
L 217.220714 381.562171 
L 215.806739 381.562171 
z
" clip-path="url(#pb078ddb0ce)" style="fill: #1f77b4"/>
   </g>
   <g id="patch_95">
    <path d="M 217.220714 382.84 
L 218.634689 382.84 
L 218.634689 381.744718 
L 217.220714 381.744718 
z
" clip-path="url(#pb078ddb0ce)" style="fill: #1f77b4"/>
   </g>
   <g id="patch_96">
    <path d="M 218.634689 382.84 
L 220.048665 382.84 
L 220.048665 381.927265 
L 218.634689 381.927265 
z
" clip-path="url(#pb078ddb0ce)" style="fill: #1f77b4"/>
   </g>
   <g id="patch_97">
    <path d="M 220.048665 382.84 
L 221.46264 382.84 
L 221.46264 381.835991 
L 220.048665 381.835991 
z
" clip-path="url(#pb078ddb0ce)" style="fill: #1f77b4"/>
   </g>
   <g id="patch_98">
    <path d="M 221.46264 382.84 
L 222.876615 382.84 
L 222.876615 381.835991 
L 221.46264 381.835991 
z
" clip-path="url(#pb078ddb0ce)" style="fill: #1f77b4"/>
   </g>
   <g id="patch_99">
    <path d="M 222.876615 382.84 
L 224.29059 382.84 
L 224.29059 381.470897 
L 222.876615 381.470897 
z
" clip-path="url(#pb078ddb0ce)" style="fill: #1f77b4"/>
   </g>
   <g id="patch_100">
    <path d="M 224.29059 382.84 
L 225.704565 382.84 
L 225.704565 381.105803 
L 224.29059 381.105803 
z
" clip-path="url(#pb078ddb0ce)" style="fill: #1f77b4"/>
   </g>
   <g id="patch_101">
    <path d="M 225.704565 382.84 
L 227.11854 382.84 
L 227.11854 381.105803 
L 225.704565 381.105803 
z
" clip-path="url(#pb078ddb0ce)" style="fill: #1f77b4"/>
   </g>
   <g id="patch_102">
    <path d="M 227.11854 382.84 
L 228.532516 382.84 
L 228.532516 380.740709 
L 227.11854 380.740709 
z
" clip-path="url(#pb078ddb0ce)" style="fill: #1f77b4"/>
   </g>
   <g id="patch_103">
    <path d="M 228.532516 382.84 
L 229.946491 382.84 
L 229.946491 381.105803 
L 228.532516 381.105803 
z
" clip-path="url(#pb078ddb0ce)" style="fill: #1f77b4"/>
   </g>
   <g id="patch_104">
    <path d="M 229.946491 382.84 
L 231.360466 382.84 
L 231.360466 380.284341 
L 229.946491 380.284341 
z
" clip-path="url(#pb078ddb0ce)" style="fill: #1f77b4"/>
   </g>
   <g id="patch_105">
    <path d="M 231.360466 382.84 
L 232.774441 382.84 
L 232.774441 379.189059 
L 231.360466 379.189059 
z
" clip-path="url(#pb078ddb0ce)" style="fill: #1f77b4"/>
   </g>
   <g id="patch_106">
    <path d="M 232.774441 382.84 
L 234.188416 382.84 
L 234.188416 380.375615 
L 232.774441 380.375615 
z
" clip-path="url(#pb078ddb0ce)" style="fill: #1f77b4"/>
   </g>
   <g id="patch_107">
    <path d="M 234.188416 382.84 
L 235.602391 382.84 
L 235.602391 378.732692 
L 234.188416 378.732692 
z
" clip-path="url(#pb078ddb0ce)" style="fill: #1f77b4"/>
   </g>
   <g id="patch_108">
    <path d="M 235.602391 382.84 
L 237.016366 382.84 
L 237.016366 378.367597 
L 235.602391 378.367597 
z
" clip-path="url(#pb078ddb0ce)" style="fill: #1f77b4"/>
   </g>
   <g id="patch_109">
    <path d="M 237.016366 382.84 
L 238.430342 382.84 
L 238.430342 377.637409 
L 237.016366 377.637409 
z
" clip-path="url(#pb078ddb0ce)" style="fill: #1f77b4"/>
   </g>
   <g id="patch_110">
    <path d="M 238.430342 382.84 
L 239.844317 382.84 
L 239.844317 378.276324 
L 238.430342 378.276324 
z
" clip-path="url(#pb078ddb0ce)" style="fill: #1f77b4"/>
   </g>
   <g id="patch_111">
    <path d="M 239.844317 382.84 
L 241.258292 382.84 
L 241.258292 376.907221 
L 239.844317 376.907221 
z
" clip-path="url(#pb078ddb0ce)" style="fill: #1f77b4"/>
   </g>
   <g id="patch_112">
    <path d="M 241.258292 382.84 
L 242.672267 382.84 
L 242.672267 375.720665 
L 241.258292 375.720665 
z
" clip-path="url(#pb078ddb0ce)" style="fill: #1f77b4"/>
   </g>
   <g id="patch_113">
    <path d="M 242.672267 382.84 
L 244.086242 382.84 
L 244.086242 375.903212 
L 242.672267 375.903212 
z
" clip-path="url(#pb078ddb0ce)" style="fill: #1f77b4"/>
   </g>
   <g id="patch_114">
    <path d="M 244.086242 382.84 
L 245.500217 382.84 
L 245.500217 375.629392 
L 244.086242 375.629392 
z
" clip-path="url(#pb078ddb0ce)" style="fill: #1f77b4"/>
   </g>
   <g id="patch_115">
    <path d="M 245.500217 382.84 
L 246.914193 382.84 
L 246.914193 373.895195 
L 245.500217 373.895195 
z
" clip-path="url(#pb078ddb0ce)" style="fill: #1f77b4"/>
   </g>
   <g id="patch_116">
    <path d="M 246.914193 382.84 
L 248.328168 382.84 
L 248.328168 371.795904 
L 246.914193 371.795904 
z
" clip-path="url(#pb078ddb0ce)" style="fill: #1f77b4"/>
   </g>
   <g id="patch_117">
    <path d="M 248.328168 382.84 
L 249.742143 382.84 
L 249.742143 369.696613 
L 248.328168 369.696613 
z
" clip-path="url(#pb078ddb0ce)" style="fill: #1f77b4"/>
   </g>
   <g id="patch_118">
    <path d="M 249.742143 382.84 
L 251.156118 382.84 
L 251.156118 368.05369 
L 249.742143 368.05369 
z
" clip-path="url(#pb078ddb0ce)" style="fill: #1f77b4"/>
   </g>
   <g id="patch_119">
    <path d="M 251.156118 382.84 
L 252.570093 382.84 
L 252.570093 366.77586 
L 251.156118 366.77586 
z
" clip-path="url(#pb078ddb0ce)" style="fill: #1f77b4"/>
   </g>
   <g id="patch_120">
    <path d="M 252.570093 382.84 
L 253.984068 382.84 
L 253.984068 361.755817 
L 252.570093 361.755817 
z
" clip-path="url(#pb078ddb0ce)" style="fill: #1f77b4"/>
   </g>
   <g id="patch_121">
    <path d="M 253.984068 382.84 
L 255.398043 382.84 
L 255.398043 359.291432 
L 253.984068 359.291432 
z
" clip-path="url(#pb078ddb0ce)" style="fill: #1f77b4"/>
   </g>
   <g id="patch_122">
    <path d="M 255.398043 382.84 
L 256.812019 382.84 
L 256.812019 355.914311 
L 255.398043 355.914311 
z
" clip-path="url(#pb078ddb0ce)" style="fill: #1f77b4"/>
   </g>
   <g id="patch_123">
    <path d="M 256.812019 382.84 
L 258.225994 382.84 
L 258.225994 355.549217 
L 256.812019 355.549217 
z
" clip-path="url(#pb078ddb0ce)" style="fill: #1f77b4"/>
   </g>
   <g id="patch_124">
    <path d="M 258.225994 382.84 
L 259.639969 382.84 
L 259.639969 353.632473 
L 258.225994 353.632473 
z
" clip-path="url(#pb078ddb0ce)" style="fill: #1f77b4"/>
   </g>
   <g id="patch_125">
    <path d="M 259.639969 382.84 
L 261.053944 382.84 
L 261.053944 352.719738 
L 259.639969 352.719738 
z
" clip-path="url(#pb078ddb0ce)" style="fill: #1f77b4"/>
   </g>
   <g id="patch_126">
    <path d="M 261.053944 382.84 
L 262.467919 382.84 
L 262.467919 349.342618 
L 261.053944 349.342618 
z
" clip-path="url(#pb078ddb0ce)" style="fill: #1f77b4"/>
   </g>
   <g id="patch_127">
    <path d="M 262.467919 382.84 
L 263.881894 382.84 
L 263.881894 347.608421 
L 262.467919 347.608421 
z
" clip-path="url(#pb078ddb0ce)" style="fill: #1f77b4"/>
   </g>
   <g id="patch_128">
    <path d="M 263.881894 382.84 
L 265.29587 382.84 
L 265.29587 347.790968 
L 263.881894 347.790968 
z
" clip-path="url(#pb078ddb0ce)" style="fill: #1f77b4"/>
   </g>
   <g id="patch_129">
    <path d="M 265.29587 382.84 
L 266.709845 382.84 
L 266.709845 346.148044 
L 265.29587 346.148044 
z
" clip-path="url(#pb078ddb0ce)" style="fill: #1f77b4"/>
   </g>
   <g id="patch_130">
    <path d="M 266.709845 382.84 
L 268.12382 382.84 
L 268.12382 345.052762 
L 266.709845 345.052762 
z
" clip-path="url(#pb078ddb0ce)" style="fill: #1f77b4"/>
   </g>
   <g id="patch_131">
    <path d="M 268.12382 382.84 
L 269.537795 382.84 
L 269.537795 342.679651 
L 268.12382 342.679651 
z
" clip-path="url(#pb078ddb0ce)" style="fill: #1f77b4"/>
   </g>
   <g id="patch_132">
    <path d="M 269.537795 382.84 
L 270.95177 382.84 
L 270.95177 344.322574 
L 269.537795 344.322574 
z
" clip-path="url(#pb078ddb0ce)" style="fill: #1f77b4"/>
   </g>
   <g id="patch_133">
    <path d="M 270.95177 382.84 
L 272.365745 382.84 
L 272.365745 343.683659 
L 270.95177 343.683659 
z
" clip-path="url(#pb078ddb0ce)" style="fill: #1f77b4"/>
   </g>
   <g id="patch_134">
    <path d="M 272.365745 382.84 
L 273.77972 382.84 
L 273.77972 347.790968 
L 272.365745 347.790968 
z
" clip-path="url(#pb078ddb0ce)" style="fill: #1f77b4"/>
   </g>
   <g id="patch_135">
    <path d="M 273.77972 382.84 
L 275.193696 382.84 
L 275.193696 345.417856 
L 273.77972 345.417856 
z
" clip-path="url(#pb078ddb0ce)" style="fill: #1f77b4"/>
   </g>
   <g id="patch_136">
    <path d="M 275.193696 382.84 
L 276.607671 382.84 
L 276.607671 346.969506 
L 275.193696 346.969506 
z
" clip-path="url(#pb078ddb0ce)" style="fill: #1f77b4"/>
   </g>
   <g id="patch_137">
    <path d="M 276.607671 382.84 
L 278.021646 382.84 
L 278.021646 350.620447 
L 276.607671 350.620447 
z
" clip-path="url(#pb078ddb0ce)" style="fill: #1f77b4"/>
   </g>
   <g id="patch_138">
    <path d="M 278.021646 382.84 
L 279.435621 382.84 
L 279.435621 352.172097 
L 278.021646 352.172097 
z
" clip-path="url(#pb078ddb0ce)" style="fill: #1f77b4"/>
   </g>
   <g id="patch_139">
    <path d="M 279.435621 382.84 
L 280.849596 382.84 
L 280.849596 355.275397 
L 279.435621 355.275397 
z
" clip-path="url(#pb078ddb0ce)" style="fill: #1f77b4"/>
   </g>
   <g id="patch_140">
    <path d="M 280.849596 382.84 
L 282.263571 382.84 
L 282.263571 353.358653 
L 280.849596 353.358653 
z
" clip-path="url(#pb078ddb0ce)" style="fill: #1f77b4"/>
   </g>
   <g id="patch_141">
    <path d="M 282.263571 382.84 
L 283.677547 382.84 
L 283.677547 354.180114 
L 282.263571 354.180114 
z
" clip-path="url(#pb078ddb0ce)" style="fill: #1f77b4"/>
   </g>
   <g id="patch_142">
    <path d="M 283.677547 382.84 
L 285.091522 382.84 
L 285.091522 355.184123 
L 283.677547 355.184123 
z
" clip-path="url(#pb078ddb0ce)" style="fill: #1f77b4"/>
   </g>
   <g id="patch_143">
    <path d="M 285.091522 382.84 
L 286.505497 382.84 
L 286.505497 354.545208 
L 285.091522 354.545208 
z
" clip-path="url(#pb078ddb0ce)" style="fill: #1f77b4"/>
   </g>
   <g id="patch_144">
    <path d="M 286.505497 382.84 
L 287.919472 382.84 
L 287.919472 349.707712 
L 286.505497 349.707712 
z
" clip-path="url(#pb078ddb0ce)" style="fill: #1f77b4"/>
   </g>
   <g id="patch_145">
    <path d="M 287.919472 382.84 
L 289.333447 382.84 
L 289.333447 348.338609 
L 287.919472 348.338609 
z
" clip-path="url(#pb078ddb0ce)" style="fill: #1f77b4"/>
   </g>
   <g id="patch_146">
    <path d="M 289.333447 382.84 
L 290.747422 382.84 
L 290.747422 346.604412 
L 289.333447 346.604412 
z
" clip-path="url(#pb078ddb0ce)" style="fill: #1f77b4"/>
   </g>
   <g id="patch_147">
    <path d="M 290.747422 382.84 
L 292.161398 382.84 
L 292.161398 347.790968 
L 290.747422 347.790968 
z
" clip-path="url(#pb078ddb0ce)" style="fill: #1f77b4"/>
   </g>
   <g id="patch_148">
    <path d="M 292.161398 382.84 
L 293.575373 382.84 
L 293.575373 338.663616 
L 292.161398 338.663616 
z
" clip-path="url(#pb078ddb0ce)" style="fill: #1f77b4"/>
   </g>
   <g id="patch_149">
    <path d="M 293.575373 382.84 
L 294.989348 382.84 
L 294.989348 336.199231 
L 293.575373 336.199231 
z
" clip-path="url(#pb078ddb0ce)" style="fill: #1f77b4"/>
   </g>
   <g id="patch_150">
    <path d="M 294.989348 382.84 
L 296.403323 382.84 
L 296.403323 323.786032 
L 294.989348 323.786032 
z
" clip-path="url(#pb078ddb0ce)" style="fill: #1f77b4"/>
   </g>
   <g id="patch_151">
    <path d="M 296.403323 382.84 
L 297.817298 382.84 
L 297.817298 313.563397 
L 296.403323 313.563397 
z
" clip-path="url(#pb078ddb0ce)" style="fill: #1f77b4"/>
   </g>
   <g id="patch_152">
    <path d="M 297.817298 382.84 
L 299.231273 382.84 
L 299.231273 307.539345 
L 297.817298 307.539345 
z
" clip-path="url(#pb078ddb0ce)" style="fill: #1f77b4"/>
   </g>
   <g id="patch_153">
    <path d="M 299.231273 382.84 
L 300.645248 382.84 
L 300.645248 303.614584 
L 299.231273 303.614584 
z
" clip-path="url(#pb078ddb0ce)" style="fill: #1f77b4"/>
   </g>
   <g id="patch_154">
    <path d="M 300.645248 382.84 
L 302.059224 382.84 
L 302.059224 308.634627 
L 300.645248 308.634627 
z
" clip-path="url(#pb078ddb0ce)" style="fill: #1f77b4"/>
   </g>
   <g id="patch_155">
    <path d="M 302.059224 382.84 
L 303.473199 382.84 
L 303.473199 303.705857 
L 302.059224 303.705857 
z
" clip-path="url(#pb078ddb0ce)" style="fill: #1f77b4"/>
   </g>
   <g id="patch_156">
    <path d="M 303.473199 382.84 
L 304.887174 382.84 
L 304.887174 294.122137 
L 303.473199 294.122137 
z
" clip-path="url(#pb078ddb0ce)" style="fill: #1f77b4"/>
   </g>
   <g id="patch_157">
    <path d="M 304.887174 382.84 
L 306.301149 382.84 
L 306.301149 279.609647 
L 304.887174 279.609647 
z
" clip-path="url(#pb078ddb0ce)" style="fill: #1f77b4"/>
   </g>
   <g id="patch_158">
    <path d="M 306.301149 382.84 
L 307.715124 382.84 
L 307.715124 276.141254 
L 306.301149 276.141254 
z
" clip-path="url(#pb078ddb0ce)" style="fill: #1f77b4"/>
   </g>
   <g id="patch_159">
    <path d="M 307.715124 382.84 
L 309.129099 382.84 
L 309.129099 278.149271 
L 307.715124 278.149271 
z
" clip-path="url(#pb078ddb0ce)" style="fill: #1f77b4"/>
   </g>
   <g id="patch_160">
    <path d="M 309.129099 382.84 
L 310.543075 382.84 
L 310.543075 284.812238 
L 309.129099 284.812238 
z
" clip-path="url(#pb078ddb0ce)" style="fill: #1f77b4"/>
   </g>
   <g id="patch_161">
    <path d="M 310.543075 382.84 
L 311.95705 382.84 
L 311.95705 287.18535 
L 310.543075 287.18535 
z
" clip-path="url(#pb078ddb0ce)" style="fill: #1f77b4"/>
   </g>
   <g id="patch_162">
    <path d="M 311.95705 382.84 
L 313.371025 382.84 
L 313.371025 277.966724 
L 311.95705 277.966724 
z
" clip-path="url(#pb078ddb0ce)" style="fill: #1f77b4"/>
   </g>
   <g id="patch_163">
    <path d="M 313.371025 382.84 
L 314.785 382.84 
L 314.785 263.271687 
L 313.371025 263.271687 
z
" clip-path="url(#pb078ddb0ce)" style="fill: #1f77b4"/>
   </g>
   <g id="patch_164">
    <path d="M 314.785 382.84 
L 316.198975 382.84 
L 316.198975 233.881613 
L 314.785 233.881613 
z
" clip-path="url(#pb078ddb0ce)" style="fill: #1f77b4"/>
   </g>
   <g id="patch_165">
    <path d="M 316.198975 382.84 
L 317.61295 382.84 
L 317.61295 194.816546 
L 316.198975 194.816546 
z
" clip-path="url(#pb078ddb0ce)" style="fill: #1f77b4"/>
   </g>
   <g id="patch_166">
    <path d="M 317.61295 382.84 
L 319.026925 382.84 
L 319.026925 96.14987 
L 317.61295 96.14987 
z
" clip-path="url(#pb078ddb0ce)" style="fill: #1f77b4"/>
   </g>
   <g id="patch_167">
    <path d="M 319.026925 382.84 
L 320.440901 382.84 
L 320.440901 28.51619 
L 319.026925 28.51619 
z
" clip-path="url(#pb078ddb0ce)" style="fill: #1f77b4"/>
   </g>
   <g id="patch_168">
    <path d="M 320.440901 382.84 
L 321.854876 382.84 
L 321.854876 141.421536 
L 320.440901 141.421536 
z
" clip-path="url(#pb078ddb0ce)" style="fill: #1f77b4"/>
   </g>
   <g id="patch_169">
    <path d="M 321.854876 382.84 
L 323.268851 382.84 
L 323.268851 197.189658 
L 321.854876 197.189658 
z
" clip-path="url(#pb078ddb0ce)" style="fill: #1f77b4"/>
   </g>
   <g id="patch_170">
    <path d="M 323.268851 382.84 
L 324.682826 382.84 
L 324.682826 240.179486 
L 323.268851 240.179486 
z
" clip-path="url(#pb078ddb0ce)" style="fill: #1f77b4"/>
   </g>
   <g id="patch_171">
    <path d="M 324.682826 382.84 
L 326.096801 382.84 
L 326.096801 276.597621 
L 324.682826 276.597621 
z
" clip-path="url(#pb078ddb0ce)" style="fill: #1f77b4"/>
   </g>
   <g id="patch_172">
    <path d="M 326.096801 382.84 
L 327.510776 382.84 
L 327.510776 294.852326 
L 326.096801 294.852326 
z
" clip-path="url(#pb078ddb0ce)" style="fill: #1f77b4"/>
   </g>
   <g id="patch_173">
    <path d="M 327.510776 382.84 
L 328.924752 382.84 
L 328.924752 289.102094 
L 327.510776 289.102094 
z
" clip-path="url(#pb078ddb0ce)" style="fill: #1f77b4"/>
   </g>
   <g id="patch_174">
    <path d="M 328.924752 382.84 
L 330.338727 382.84 
L 330.338727 274.863424 
L 328.924752 274.863424 
z
" clip-path="url(#pb078ddb0ce)" style="fill: #1f77b4"/>
   </g>
   <g id="patch_175">
    <path d="M 330.338727 382.84 
L 331.752702 382.84 
L 331.752702 274.772151 
L 330.338727 274.772151 
z
" clip-path="url(#pb078ddb0ce)" style="fill: #1f77b4"/>
   </g>
   <g id="patch_176">
    <path d="M 331.752702 382.84 
L 333.166677 382.84 
L 333.166677 305.805148 
L 331.752702 305.805148 
z
" clip-path="url(#pb078ddb0ce)" style="fill: #1f77b4"/>
   </g>
   <g id="patch_177">
    <path d="M 333.166677 382.84 
L 334.580652 382.84 
L 334.580652 326.615511 
L 333.166677 326.615511 
z
" clip-path="url(#pb078ddb0ce)" style="fill: #1f77b4"/>
   </g>
   <g id="patch_178">
    <path d="M 334.580652 382.84 
L 335.994627 382.84 
L 335.994627 335.65159 
L 334.580652 335.65159 
z
" clip-path="url(#pb078ddb0ce)" style="fill: #1f77b4"/>
   </g>
   <g id="patch_179">
    <path d="M 335.994627 382.84 
L 337.408602 382.84 
L 337.408602 341.128001 
L 335.994627 341.128001 
z
" clip-path="url(#pb078ddb0ce)" style="fill: #1f77b4"/>
   </g>
   <g id="patch_180">
    <path d="M 337.408602 382.84 
L 338.822578 382.84 
L 338.822578 340.85418 
L 337.408602 340.85418 
z
" clip-path="url(#pb078ddb0ce)" style="fill: #1f77b4"/>
   </g>
   <g id="patch_181">
    <path d="M 338.822578 382.84 
L 340.236553 382.84 
L 340.236553 340.762907 
L 338.822578 340.762907 
z
" clip-path="url(#pb078ddb0ce)" style="fill: #1f77b4"/>
   </g>
   <g id="patch_182">
    <path d="M 340.236553 382.84 
L 341.650528 382.84 
L 341.650528 342.679651 
L 340.236553 342.679651 
z
" clip-path="url(#pb078ddb0ce)" style="fill: #1f77b4"/>
   </g>
   <g id="patch_183">
    <path d="M 341.650528 382.84 
L 343.064503 382.84 
L 343.064503 350.620447 
L 341.650528 350.620447 
z
" clip-path="url(#pb078ddb0ce)" style="fill: #1f77b4"/>
   </g>
   <g id="patch_184">
    <path d="M 343.064503 382.84 
L 344.478478 382.84 
L 344.478478 351.624456 
L 343.064503 351.624456 
z
" clip-path="url(#pb078ddb0ce)" style="fill: #1f77b4"/>
   </g>
   <g id="patch_185">
    <path d="M 344.478478 382.84 
L 345.892453 382.84 
L 345.892453 357.009593 
L 344.478478 357.009593 
z
" clip-path="url(#pb078ddb0ce)" style="fill: #1f77b4"/>
   </g>
   <g id="patch_186">
    <path d="M 345.892453 382.84 
L 347.306429 382.84 
L 347.306429 357.192141 
L 345.892453 357.192141 
z
" clip-path="url(#pb078ddb0ce)" style="fill: #1f77b4"/>
   </g>
   <g id="patch_187">
    <path d="M 347.306429 382.84 
L 348.720404 382.84 
L 348.720404 358.561243 
L 347.306429 358.561243 
z
" clip-path="url(#pb078ddb0ce)" style="fill: #1f77b4"/>
   </g>
   <g id="patch_188">
    <path d="M 348.720404 382.84 
L 350.134379 382.84 
L 350.134379 363.581287 
L 348.720404 363.581287 
z
" clip-path="url(#pb078ddb0ce)" style="fill: #1f77b4"/>
   </g>
   <g id="patch_189">
    <path d="M 350.134379 382.84 
L 351.548354 382.84 
L 351.548354 364.95039 
L 350.134379 364.95039 
z
" clip-path="url(#pb078ddb0ce)" style="fill: #1f77b4"/>
   </g>
   <g id="patch_190">
    <path d="M 351.548354 382.84 
L 352.962329 382.84 
L 352.962329 362.303458 
L 351.548354 362.303458 
z
" clip-path="url(#pb078ddb0ce)" style="fill: #1f77b4"/>
   </g>
   <g id="patch_191">
    <path d="M 352.962329 382.84 
L 354.376304 382.84 
L 354.376304 362.486005 
L 352.962329 362.486005 
z
" clip-path="url(#pb078ddb0ce)" style="fill: #1f77b4"/>
   </g>
   <g id="patch_192">
    <path d="M 354.376304 382.84 
L 355.79028 382.84 
L 355.79028 361.938364 
L 354.376304 361.938364 
z
" clip-path="url(#pb078ddb0ce)" style="fill: #1f77b4"/>
   </g>
   <g id="patch_193">
    <path d="M 355.79028 382.84 
L 357.204255 382.84 
L 357.204255 362.486005 
L 355.79028 362.486005 
z
" clip-path="url(#pb078ddb0ce)" style="fill: #1f77b4"/>
   </g>
   <g id="patch_194">
    <path d="M 357.204255 382.84 
L 358.61823 382.84 
L 358.61823 360.934355 
L 357.204255 360.934355 
z
" clip-path="url(#pb078ddb0ce)" style="fill: #1f77b4"/>
   </g>
   <g id="patch_195">
    <path d="M 358.61823 382.84 
L 360.032205 382.84 
L 360.032205 361.57327 
L 358.61823 361.57327 
z
" clip-path="url(#pb078ddb0ce)" style="fill: #1f77b4"/>
   </g>
   <g id="patch_196">
    <path d="M 360.032205 382.84 
L 361.44618 382.84 
L 361.44618 359.747799 
L 360.032205 359.747799 
z
" clip-path="url(#pb078ddb0ce)" style="fill: #1f77b4"/>
   </g>
   <g id="patch_197">
    <path d="M 361.44618 382.84 
L 362.860155 382.84 
L 362.860155 357.557235 
L 361.44618 357.557235 
z
" clip-path="url(#pb078ddb0ce)" style="fill: #1f77b4"/>
   </g>
   <g id="patch_198">
    <path d="M 362.860155 382.84 
L 364.27413 382.84 
L 364.27413 357.192141 
L 362.860155 357.192141 
z
" clip-path="url(#pb078ddb0ce)" style="fill: #1f77b4"/>
   </g>
   <g id="patch_199">
    <path d="M 364.27413 382.84 
L 365.688106 382.84 
L 365.688106 355.823038 
L 364.27413 355.823038 
z
" clip-path="url(#pb078ddb0ce)" style="fill: #1f77b4"/>
   </g>
   <g id="patch_200">
    <path d="M 365.688106 382.84 
L 367.102081 382.84 
L 367.102081 356.461952 
L 365.688106 356.461952 
z
" clip-path="url(#pb078ddb0ce)" style="fill: #1f77b4"/>
   </g>
   <g id="patch_201">
    <path d="M 367.102081 382.84 
L 368.516056 382.84 
L 368.516056 351.350635 
L 367.102081 351.350635 
z
" clip-path="url(#pb078ddb0ce)" style="fill: #1f77b4"/>
   </g>
   <g id="patch_202">
    <path d="M 368.516056 382.84 
L 369.930031 382.84 
L 369.930031 353.358653 
L 368.516056 353.358653 
z
" clip-path="url(#pb078ddb0ce)" style="fill: #1f77b4"/>
   </g>
   <g id="patch_203">
    <path d="M 369.930031 382.84 
L 371.344006 382.84 
L 371.344006 358.196149 
L 369.930031 358.196149 
z
" clip-path="url(#pb078ddb0ce)" style="fill: #1f77b4"/>
   </g>
   <g id="patch_204">
    <path d="M 371.344006 382.84 
L 372.757981 382.84 
L 372.757981 357.922329 
L 371.344006 357.922329 
z
" clip-path="url(#pb078ddb0ce)" style="fill: #1f77b4"/>
   </g>
   <g id="patch_205">
    <path d="M 372.757981 382.84 
L 374.171957 382.84 
L 374.171957 359.747799 
L 372.757981 359.747799 
z
" clip-path="url(#pb078ddb0ce)" style="fill: #1f77b4"/>
   </g>
   <g id="patch_206">
    <path d="M 374.171957 382.84 
L 375.585932 382.84 
L 375.585932 360.02162 
L 374.171957 360.02162 
z
" clip-path="url(#pb078ddb0ce)" style="fill: #1f77b4"/>
   </g>
   <g id="patch_207">
    <path d="M 375.585932 382.84 
L 376.999907 382.84 
L 376.999907 364.859116 
L 375.585932 364.859116 
z
" clip-path="url(#pb078ddb0ce)" style="fill: #1f77b4"/>
   </g>
   <g id="patch_208">
    <path d="M 376.999907 382.84 
L 378.413882 382.84 
L 378.413882 365.589304 
L 376.999907 365.589304 
z
" clip-path="url(#pb078ddb0ce)" style="fill: #1f77b4"/>
   </g>
   <g id="patch_209">
    <path d="M 378.413882 382.84 
L 379.827857 382.84 
L 379.827857 367.140954 
L 378.413882 367.140954 
z
" clip-path="url(#pb078ddb0ce)" style="fill: #1f77b4"/>
   </g>
   <g id="patch_210">
    <path d="M 379.827857 382.84 
L 381.241832 382.84 
L 381.241832 367.506048 
L 379.827857 367.506048 
z
" clip-path="url(#pb078ddb0ce)" style="fill: #1f77b4"/>
   </g>
   <g id="patch_211">
    <path d="M 381.241832 382.84 
L 382.655807 382.84 
L 382.655807 368.875151 
L 381.241832 368.875151 
z
" clip-path="url(#pb078ddb0ce)" style="fill: #1f77b4"/>
   </g>
   <g id="patch_212">
    <path d="M 382.655807 382.84 
L 384.069783 382.84 
L 384.069783 369.331519 
L 382.655807 369.331519 
z
" clip-path="url(#pb078ddb0ce)" style="fill: #1f77b4"/>
   </g>
   <g id="patch_213">
    <path d="M 384.069783 382.84 
L 385.483758 382.84 
L 385.483758 371.978451 
L 384.069783 371.978451 
z
" clip-path="url(#pb078ddb0ce)" style="fill: #1f77b4"/>
   </g>
   <g id="patch_214">
    <path d="M 385.483758 382.84 
L 386.897733 382.84 
L 386.897733 373.25628 
L 385.483758 373.25628 
z
" clip-path="url(#pb078ddb0ce)" style="fill: #1f77b4"/>
   </g>
   <g id="patch_215">
    <path d="M 386.897733 382.84 
L 388.311708 382.84 
L 388.311708 376.085759 
L 386.897733 376.085759 
z
" clip-path="url(#pb078ddb0ce)" style="fill: #1f77b4"/>
   </g>
   <g id="patch_216">
    <path d="M 388.311708 382.84 
L 389.725683 382.84 
L 389.725683 374.80793 
L 388.311708 374.80793 
z
" clip-path="url(#pb078ddb0ce)" style="fill: #1f77b4"/>
   </g>
   <g id="patch_217">
    <path d="M 389.725683 382.84 
L 391.139658 382.84 
L 391.139658 378.276324 
L 389.725683 378.276324 
z
" clip-path="url(#pb078ddb0ce)" style="fill: #1f77b4"/>
   </g>
   <g id="patch_218">
    <path d="M 391.139658 382.84 
L 392.553634 382.84 
L 392.553634 378.915239 
L 391.139658 378.915239 
z
" clip-path="url(#pb078ddb0ce)" style="fill: #1f77b4"/>
   </g>
   <g id="patch_219">
    <path d="M 392.553634 382.84 
L 393.967609 382.84 
L 393.967609 379.645427 
L 392.553634 379.645427 
z
" clip-path="url(#pb078ddb0ce)" style="fill: #1f77b4"/>
   </g>
   <g id="patch_220">
    <path d="M 393.967609 382.84 
L 395.381584 382.84 
L 395.381584 379.7367 
L 393.967609 379.7367 
z
" clip-path="url(#pb078ddb0ce)" style="fill: #1f77b4"/>
   </g>
   <g id="patch_221">
    <path d="M 395.381584 382.84 
L 396.795559 382.84 
L 396.795559 379.554153 
L 395.381584 379.554153 
z
" clip-path="url(#pb078ddb0ce)" style="fill: #1f77b4"/>
   </g>
   <g id="patch_222">
    <path d="M 396.795559 382.84 
L 398.209534 382.84 
L 398.209534 380.193068 
L 396.795559 380.193068 
z
" clip-path="url(#pb078ddb0ce)" style="fill: #1f77b4"/>
   </g>
   <g id="patch_223">
    <path d="M 398.209534 382.84 
L 399.623509 382.84 
L 399.623509 380.740709 
L 398.209534 380.740709 
z
" clip-path="url(#pb078ddb0ce)" style="fill: #1f77b4"/>
   </g>
   <g id="patch_224">
    <path d="M 399.623509 382.84 
L 401.037484 382.84 
L 401.037484 381.197077 
L 399.623509 381.197077 
z
" clip-path="url(#pb078ddb0ce)" style="fill: #1f77b4"/>
   </g>
   <g id="patch_225">
    <path d="M 401.037484 382.84 
L 402.45146 382.84 
L 402.45146 381.197077 
L 401.037484 381.197077 
z
" clip-path="url(#pb078ddb0ce)" style="fill: #1f77b4"/>
   </g>
   <g id="patch_226">
    <path d="M 402.45146 382.84 
L 403.865435 382.84 
L 403.865435 382.201085 
L 402.45146 382.201085 
z
" clip-path="url(#pb078ddb0ce)" style="fill: #1f77b4"/>
   </g>
   <g id="patch_227">
    <path d="M 403.865435 382.84 
L 405.27941 382.84 
L 405.27941 381.653444 
L 403.865435 381.653444 
z
" clip-path="url(#pb078ddb0ce)" style="fill: #1f77b4"/>
   </g>
   <g id="patch_228">
    <path d="M 405.27941 382.84 
L 406.693385 382.84 
L 406.693385 381.835991 
L 405.27941 381.835991 
z
" clip-path="url(#pb078ddb0ce)" style="fill: #1f77b4"/>
   </g>
   <g id="patch_229">
    <path d="M 406.693385 382.84 
L 408.10736 382.84 
L 408.10736 381.744718 
L 406.693385 381.744718 
z
" clip-path="url(#pb078ddb0ce)" style="fill: #1f77b4"/>
   </g>
   <g id="patch_230">
    <path d="M 408.10736 382.84 
L 409.521335 382.84 
L 409.521335 382.109812 
L 408.10736 382.109812 
z
" clip-path="url(#pb078ddb0ce)" style="fill: #1f77b4"/>
   </g>
   <g id="patch_231">
    <path d="M 409.521335 382.84 
L 410.935311 382.84 
L 410.935311 381.927265 
L 409.521335 381.927265 
z
" clip-path="url(#pb078ddb0ce)" style="fill: #1f77b4"/>
   </g>
   <g id="patch_232">
    <path d="M 410.935311 382.84 
L 412.349286 382.84 
L 412.349286 382.109812 
L 410.935311 382.109812 
z
" clip-path="url(#pb078ddb0ce)" style="fill: #1f77b4"/>
   </g>
   <g id="patch_233">
    <path d="M 412.349286 382.84 
L 413.763261 382.84 
L 413.763261 382.383632 
L 412.349286 382.383632 
z
" clip-path="url(#pb078ddb0ce)" style="fill: #1f77b4"/>
   </g>
   <g id="patch_234">
    <path d="M 413.763261 382.84 
L 415.177236 382.84 
L 415.177236 382.292359 
L 413.763261 382.292359 
z
" clip-path="url(#pb078ddb0ce)" style="fill: #1f77b4"/>
   </g>
   <g id="patch_235">
    <path d="M 415.177236 382.84 
L 416.591211 382.84 
L 416.591211 382.201085 
L 415.177236 382.201085 
z
" clip-path="url(#pb078ddb0ce)" style="fill: #1f77b4"/>
   </g>
   <g id="patch_236">
    <path d="M 416.591211 382.84 
L 418.005186 382.84 
L 418.005186 382.292359 
L 416.591211 382.292359 
z
" clip-path="url(#pb078ddb0ce)" style="fill: #1f77b4"/>
   </g>
   <g id="patch_237">
    <path d="M 418.005186 382.84 
L 419.419161 382.84 
L 419.419161 382.474906 
L 418.005186 382.474906 
z
" clip-path="url(#pb078ddb0ce)" style="fill: #1f77b4"/>
   </g>
   <g id="patch_238">
    <path d="M 419.419161 382.84 
L 420.833137 382.84 
L 420.833137 382.474906 
L 419.419161 382.474906 
z
" clip-path="url(#pb078ddb0ce)" style="fill: #1f77b4"/>
   </g>
   <g id="patch_239">
    <path d="M 420.833137 382.84 
L 422.247112 382.84 
L 422.247112 382.383632 
L 420.833137 382.383632 
z
" clip-path="url(#pb078ddb0ce)" style="fill: #1f77b4"/>
   </g>
   <g id="patch_240">
    <path d="M 422.247112 382.84 
L 423.661087 382.84 
L 423.661087 382.292359 
L 422.247112 382.292359 
z
" clip-path="url(#pb078ddb0ce)" style="fill: #1f77b4"/>
   </g>
   <g id="patch_241">
    <path d="M 423.661087 382.84 
L 425.075062 382.84 
L 425.075062 382.383632 
L 423.661087 382.383632 
z
" clip-path="url(#pb078ddb0ce)" style="fill: #1f77b4"/>
   </g>
   <g id="patch_242">
    <path d="M 425.075062 382.84 
L 426.489037 382.84 
L 426.489037 382.657453 
L 425.075062 382.657453 
z
" clip-path="url(#pb078ddb0ce)" style="fill: #1f77b4"/>
   </g>
   <g id="patch_243">
    <path d="M 426.489037 382.84 
L 427.903012 382.84 
L 427.903012 382.201085 
L 426.489037 382.201085 
z
" clip-path="url(#pb078ddb0ce)" style="fill: #1f77b4"/>
   </g>
   <g id="patch_244">
    <path d="M 427.903012 382.84 
L 429.316988 382.84 
L 429.316988 382.566179 
L 427.903012 382.566179 
z
" clip-path="url(#pb078ddb0ce)" style="fill: #1f77b4"/>
   </g>
   <g id="patch_245">
    <path d="M 429.316988 382.84 
L 430.730963 382.84 
L 430.730963 382.383632 
L 429.316988 382.383632 
z
" clip-path="url(#pb078ddb0ce)" style="fill: #1f77b4"/>
   </g>
   <g id="patch_246">
    <path d="M 430.730963 382.84 
L 432.144938 382.84 
L 432.144938 382.474906 
L 430.730963 382.474906 
z
" clip-path="url(#pb078ddb0ce)" style="fill: #1f77b4"/>
   </g>
   <g id="patch_247">
    <path d="M 432.144938 382.84 
L 433.558913 382.84 
L 433.558913 382.474906 
L 432.144938 382.474906 
z
" clip-path="url(#pb078ddb0ce)" style="fill: #1f77b4"/>
   </g>
   <g id="patch_248">
    <path d="M 433.558913 382.84 
L 434.972888 382.84 
L 434.972888 382.657453 
L 433.558913 382.657453 
z
" clip-path="url(#pb078ddb0ce)" style="fill: #1f77b4"/>
   </g>
   <g id="patch_249">
    <path d="M 434.972888 382.84 
L 436.386863 382.84 
L 436.386863 382.657453 
L 434.972888 382.657453 
z
" clip-path="url(#pb078ddb0ce)" style="fill: #1f77b4"/>
   </g>
   <g id="patch_250">
    <path d="M 436.386863 382.84 
L 437.800839 382.84 
L 437.800839 382.748726 
L 436.386863 382.748726 
z
" clip-path="url(#pb078ddb0ce)" style="fill: #1f77b4"/>
   </g>
   <g id="patch_251">
    <path d="M 437.800839 382.84 
L 439.214814 382.84 
L 439.214814 382.748726 
L 437.800839 382.748726 
z
" clip-path="url(#pb078ddb0ce)" style="fill: #1f77b4"/>
   </g>
   <g id="patch_252">
    <path d="M 439.214814 382.84 
L 440.628789 382.84 
L 440.628789 382.657453 
L 439.214814 382.657453 
z
" clip-path="url(#pb078ddb0ce)" style="fill: #1f77b4"/>
   </g>
   <g id="patch_253">
    <path d="M 440.628789 382.84 
L 442.042764 382.84 
L 442.042764 382.383632 
L 440.628789 382.383632 
z
" clip-path="url(#pb078ddb0ce)" style="fill: #1f77b4"/>
   </g>
   <g id="patch_254">
    <path d="M 442.042764 382.84 
L 443.456739 382.84 
L 443.456739 382.566179 
L 442.042764 382.566179 
z
" clip-path="url(#pb078ddb0ce)" style="fill: #1f77b4"/>
   </g>
   <g id="patch_255">
    <path d="M 443.456739 382.84 
L 444.870714 382.84 
L 444.870714 382.657453 
L 443.456739 382.657453 
z
" clip-path="url(#pb078ddb0ce)" style="fill: #1f77b4"/>
   </g>
   <g id="patch_256">
    <path d="M 444.870714 382.84 
L 446.284689 382.84 
L 446.284689 382.474906 
L 444.870714 382.474906 
z
" clip-path="url(#pb078ddb0ce)" style="fill: #1f77b4"/>
   </g>
   <g id="patch_257">
    <path d="M 446.284689 382.84 
L 447.698665 382.84 
L 447.698665 382.748726 
L 446.284689 382.748726 
z
" clip-path="url(#pb078ddb0ce)" style="fill: #1f77b4"/>
   </g>
   <g id="patch_258">
    <path d="M 447.698665 382.84 
L 449.11264 382.84 
L 449.11264 382.84 
L 447.698665 382.84 
z
" clip-path="url(#pb078ddb0ce)" style="fill: #1f77b4"/>
   </g>
   <g id="patch_259">
    <path d="M 449.11264 382.84 
L 450.526615 382.84 
L 450.526615 382.84 
L 449.11264 382.84 
z
" clip-path="url(#pb078ddb0ce)" style="fill: #1f77b4"/>
   </g>
   <g id="patch_260">
    <path d="M 450.526615 382.84 
L 451.94059 382.84 
L 451.94059 382.84 
L 450.526615 382.84 
z
" clip-path="url(#pb078ddb0ce)" style="fill: #1f77b4"/>
   </g>
   <g id="patch_261">
    <path d="M 451.94059 382.84 
L 453.354565 382.84 
L 453.354565 382.748726 
L 451.94059 382.748726 
z
" clip-path="url(#pb078ddb0ce)" style="fill: #1f77b4"/>
   </g>
   <g id="patch_262">
    <path d="M 453.354565 382.84 
L 454.76854 382.84 
L 454.76854 382.84 
L 453.354565 382.84 
z
" clip-path="url(#pb078ddb0ce)" style="fill: #1f77b4"/>
   </g>
   <g id="patch_263">
    <path d="M 454.76854 382.84 
L 456.182516 382.84 
L 456.182516 382.657453 
L 454.76854 382.657453 
z
" clip-path="url(#pb078ddb0ce)" style="fill: #1f77b4"/>
   </g>
   <g id="patch_264">
    <path d="M 456.182516 382.84 
L 457.596491 382.84 
L 457.596491 382.84 
L 456.182516 382.84 
z
" clip-path="url(#pb078ddb0ce)" style="fill: #1f77b4"/>
   </g>
   <g id="patch_265">
    <path d="M 457.596491 382.84 
L 459.010466 382.84 
L 459.010466 382.84 
L 457.596491 382.84 
z
" clip-path="url(#pb078ddb0ce)" style="fill: #1f77b4"/>
   </g>
   <g id="patch_266">
    <path d="M 459.010466 382.84 
L 460.424441 382.84 
L 460.424441 382.84 
L 459.010466 382.84 
z
" clip-path="url(#pb078ddb0ce)" style="fill: #1f77b4"/>
   </g>
   <g id="patch_267">
    <path d="M 460.424441 382.84 
L 461.838416 382.84 
L 461.838416 382.84 
L 460.424441 382.84 
z
" clip-path="url(#pb078ddb0ce)" style="fill: #1f77b4"/>
   </g>
   <g id="patch_268">
    <path d="M 461.838416 382.84 
L 463.252391 382.84 
L 463.252391 382.84 
L 461.838416 382.84 
z
" clip-path="url(#pb078ddb0ce)" style="fill: #1f77b4"/>
   </g>
   <g id="patch_269">
    <path d="M 463.252391 382.84 
L 464.666366 382.84 
L 464.666366 382.84 
L 463.252391 382.84 
z
" clip-path="url(#pb078ddb0ce)" style="fill: #1f77b4"/>
   </g>
   <g id="patch_270">
    <path d="M 464.666366 382.84 
L 466.080342 382.84 
L 466.080342 382.748726 
L 464.666366 382.748726 
z
" clip-path="url(#pb078ddb0ce)" style="fill: #1f77b4"/>
   </g>
   <g id="patch_271">
    <path d="M 466.080342 382.84 
L 467.494317 382.84 
L 467.494317 382.84 
L 466.080342 382.84 
z
" clip-path="url(#pb078ddb0ce)" style="fill: #1f77b4"/>
   </g>
   <g id="patch_272">
    <path d="M 467.494317 382.84 
L 468.908292 382.84 
L 468.908292 382.84 
L 467.494317 382.84 
z
" clip-path="url(#pb078ddb0ce)" style="fill: #1f77b4"/>
   </g>
   <g id="patch_273">
    <path d="M 468.908292 382.84 
L 470.322267 382.84 
L 470.322267 382.84 
L 468.908292 382.84 
z
" clip-path="url(#pb078ddb0ce)" style="fill: #1f77b4"/>
   </g>
   <g id="patch_274">
    <path d="M 470.322267 382.84 
L 471.736242 382.84 
L 471.736242 382.84 
L 470.322267 382.84 
z
" clip-path="url(#pb078ddb0ce)" style="fill: #1f77b4"/>
   </g>
   <g id="patch_275">
    <path d="M 471.736242 382.84 
L 473.150217 382.84 
L 473.150217 382.84 
L 471.736242 382.84 
z
" clip-path="url(#pb078ddb0ce)" style="fill: #1f77b4"/>
   </g>
   <g id="patch_276">
    <path d="M 473.150217 382.84 
L 474.564193 382.84 
L 474.564193 382.84 
L 473.150217 382.84 
z
" clip-path="url(#pb078ddb0ce)" style="fill: #1f77b4"/>
   </g>
   <g id="patch_277">
    <path d="M 474.564193 382.84 
L 475.978168 382.84 
L 475.978168 382.84 
L 474.564193 382.84 
z
" clip-path="url(#pb078ddb0ce)" style="fill: #1f77b4"/>
   </g>
   <g id="patch_278">
    <path d="M 475.978168 382.84 
L 477.392143 382.84 
L 477.392143 382.84 
L 475.978168 382.84 
z
" clip-path="url(#pb078ddb0ce)" style="fill: #1f77b4"/>
   </g>
   <g id="patch_279">
    <path d="M 477.392143 382.84 
L 478.806118 382.84 
L 478.806118 382.84 
L 477.392143 382.84 
z
" clip-path="url(#pb078ddb0ce)" style="fill: #1f77b4"/>
   </g>
   <g id="patch_280">
    <path d="M 478.806118 382.84 
L 480.220093 382.84 
L 480.220093 382.84 
L 478.806118 382.84 
z
" clip-path="url(#pb078ddb0ce)" style="fill: #1f77b4"/>
   </g>
   <g id="patch_281">
    <path d="M 480.220093 382.84 
L 481.634068 382.84 
L 481.634068 382.748726 
L 480.220093 382.748726 
z
" clip-path="url(#pb078ddb0ce)" style="fill: #1f77b4"/>
   </g>
   <g id="patch_282">
    <path d="M 481.634068 382.84 
L 483.048043 382.84 
L 483.048043 382.84 
L 481.634068 382.84 
z
" clip-path="url(#pb078ddb0ce)" style="fill: #1f77b4"/>
   </g>
   <g id="patch_283">
    <path d="M 483.048043 382.84 
L 484.462019 382.84 
L 484.462019 382.84 
L 483.048043 382.84 
z
" clip-path="url(#pb078ddb0ce)" style="fill: #1f77b4"/>
   </g>
   <g id="patch_284">
    <path d="M 484.462019 382.84 
L 485.875994 382.84 
L 485.875994 382.84 
L 484.462019 382.84 
z
" clip-path="url(#pb078ddb0ce)" style="fill: #1f77b4"/>
   </g>
   <g id="patch_285">
    <path d="M 485.875994 382.84 
L 487.289969 382.84 
L 487.289969 382.84 
L 485.875994 382.84 
z
" clip-path="url(#pb078ddb0ce)" style="fill: #1f77b4"/>
   </g>
   <g id="patch_286">
    <path d="M 487.289969 382.84 
L 488.703944 382.84 
L 488.703944 382.84 
L 487.289969 382.84 
z
" clip-path="url(#pb078ddb0ce)" style="fill: #1f77b4"/>
   </g>
   <g id="patch_287">
    <path d="M 488.703944 382.84 
L 490.117919 382.84 
L 490.117919 382.84 
L 488.703944 382.84 
z
" clip-path="url(#pb078ddb0ce)" style="fill: #1f77b4"/>
   </g>
   <g id="patch_288">
    <path d="M 490.117919 382.84 
L 491.531894 382.84 
L 491.531894 382.84 
L 490.117919 382.84 
z
" clip-path="url(#pb078ddb0ce)" style="fill: #1f77b4"/>
   </g>
   <g id="patch_289">
    <path d="M 491.531894 382.84 
L 492.94587 382.84 
L 492.94587 382.84 
L 491.531894 382.84 
z
" clip-path="url(#pb078ddb0ce)" style="fill: #1f77b4"/>
   </g>
   <g id="patch_290">
    <path d="M 492.94587 382.84 
L 494.359845 382.84 
L 494.359845 382.84 
L 492.94587 382.84 
z
" clip-path="url(#pb078ddb0ce)" style="fill: #1f77b4"/>
   </g>
   <g id="patch_291">
    <path d="M 494.359845 382.84 
L 495.77382 382.84 
L 495.77382 382.84 
L 494.359845 382.84 
z
" clip-path="url(#pb078ddb0ce)" style="fill: #1f77b4"/>
   </g>
   <g id="patch_292">
    <path d="M 495.77382 382.84 
L 497.187795 382.84 
L 497.187795 382.84 
L 495.77382 382.84 
z
" clip-path="url(#pb078ddb0ce)" style="fill: #1f77b4"/>
   </g>
   <g id="patch_293">
    <path d="M 497.187795 382.84 
L 498.60177 382.84 
L 498.60177 382.84 
L 497.187795 382.84 
z
" clip-path="url(#pb078ddb0ce)" style="fill: #1f77b4"/>
   </g>
   <g id="patch_294">
    <path d="M 498.60177 382.84 
L 500.015745 382.84 
L 500.015745 382.84 
L 498.60177 382.84 
z
" clip-path="url(#pb078ddb0ce)" style="fill: #1f77b4"/>
   </g>
   <g id="patch_295">
    <path d="M 500.015745 382.84 
L 501.42972 382.84 
L 501.42972 382.84 
L 500.015745 382.84 
z
" clip-path="url(#pb078ddb0ce)" style="fill: #1f77b4"/>
   </g>
   <g id="patch_296">
    <path d="M 501.42972 382.84 
L 502.843696 382.84 
L 502.843696 382.84 
L 501.42972 382.84 
z
" clip-path="url(#pb078ddb0ce)" style="fill: #1f77b4"/>
   </g>
   <g id="patch_297">
    <path d="M 502.843696 382.84 
L 504.257671 382.84 
L 504.257671 382.84 
L 502.843696 382.84 
z
" clip-path="url(#pb078ddb0ce)" style="fill: #1f77b4"/>
   </g>
   <g id="patch_298">
    <path d="M 504.257671 382.84 
L 505.671646 382.84 
L 505.671646 382.84 
L 504.257671 382.84 
z
" clip-path="url(#pb078ddb0ce)" style="fill: #1f77b4"/>
   </g>
   <g id="patch_299">
    <path d="M 505.671646 382.84 
L 507.085621 382.84 
L 507.085621 382.84 
L 505.671646 382.84 
z
" clip-path="url(#pb078ddb0ce)" style="fill: #1f77b4"/>
   </g>
   <g id="patch_300">
    <path d="M 507.085621 382.84 
L 508.499596 382.84 
L 508.499596 382.84 
L 507.085621 382.84 
z
" clip-path="url(#pb078ddb0ce)" style="fill: #1f77b4"/>
   </g>
   <g id="patch_301">
    <path d="M 508.499596 382.84 
L 509.913571 382.84 
L 509.913571 382.84 
L 508.499596 382.84 
z
" clip-path="url(#pb078ddb0ce)" style="fill: #1f77b4"/>
   </g>
   <g id="patch_302">
    <path d="M 509.913571 382.84 
L 511.327547 382.84 
L 511.327547 382.84 
L 509.913571 382.84 
z
" clip-path="url(#pb078ddb0ce)" style="fill: #1f77b4"/>
   </g>
   <g id="patch_303">
    <path d="M 511.327547 382.84 
L 512.741522 382.84 
L 512.741522 382.84 
L 511.327547 382.84 
z
" clip-path="url(#pb078ddb0ce)" style="fill: #1f77b4"/>
   </g>
   <g id="patch_304">
    <path d="M 512.741522 382.84 
L 514.155497 382.84 
L 514.155497 382.84 
L 512.741522 382.84 
z
" clip-path="url(#pb078ddb0ce)" style="fill: #1f77b4"/>
   </g>
   <g id="patch_305">
    <path d="M 514.155497 382.84 
L 515.569472 382.84 
L 515.569472 382.748726 
L 514.155497 382.748726 
z
" clip-path="url(#pb078ddb0ce)" style="fill: #1f77b4"/>
   </g>
   <g id="patch_306">
    <path d="M 515.569472 382.84 
L 516.983447 382.84 
L 516.983447 382.84 
L 515.569472 382.84 
z
" clip-path="url(#pb078ddb0ce)" style="fill: #1f77b4"/>
   </g>
   <g id="patch_307">
    <path d="M 516.983447 382.84 
L 518.397422 382.84 
L 518.397422 382.84 
L 516.983447 382.84 
z
" clip-path="url(#pb078ddb0ce)" style="fill: #1f77b4"/>
   </g>
   <g id="patch_308">
    <path d="M 518.397422 382.84 
L 519.811398 382.84 
L 519.811398 382.84 
L 518.397422 382.84 
z
" clip-path="url(#pb078ddb0ce)" style="fill: #1f77b4"/>
   </g>
   <g id="patch_309">
    <path d="M 519.811398 382.84 
L 521.225373 382.84 
L 521.225373 382.84 
L 519.811398 382.84 
z
" clip-path="url(#pb078ddb0ce)" style="fill: #1f77b4"/>
   </g>
   <g id="patch_310">
    <path d="M 521.225373 382.84 
L 522.639348 382.84 
L 522.639348 382.84 
L 521.225373 382.84 
z
" clip-path="url(#pb078ddb0ce)" style="fill: #1f77b4"/>
   </g>
   <g id="patch_311">
    <path d="M 522.639348 382.84 
L 524.053323 382.84 
L 524.053323 382.84 
L 522.639348 382.84 
z
" clip-path="url(#pb078ddb0ce)" style="fill: #1f77b4"/>
   </g>
   <g id="patch_312">
    <path d="M 524.053323 382.84 
L 525.467298 382.84 
L 525.467298 382.84 
L 524.053323 382.84 
z
" clip-path="url(#pb078ddb0ce)" style="fill: #1f77b4"/>
   </g>
   <g id="patch_313">
    <path d="M 525.467298 382.84 
L 526.881273 382.84 
L 526.881273 382.84 
L 525.467298 382.84 
z
" clip-path="url(#pb078ddb0ce)" style="fill: #1f77b4"/>
   </g>
   <g id="patch_314">
    <path d="M 526.881273 382.84 
L 528.295248 382.84 
L 528.295248 382.84 
L 526.881273 382.84 
z
" clip-path="url(#pb078ddb0ce)" style="fill: #1f77b4"/>
   </g>
   <g id="patch_315">
    <path d="M 528.295248 382.84 
L 529.709224 382.84 
L 529.709224 382.84 
L 528.295248 382.84 
z
" clip-path="url(#pb078ddb0ce)" style="fill: #1f77b4"/>
   </g>
   <g id="patch_316">
    <path d="M 529.709224 382.84 
L 531.123199 382.84 
L 531.123199 382.84 
L 529.709224 382.84 
z
" clip-path="url(#pb078ddb0ce)" style="fill: #1f77b4"/>
   </g>
   <g id="patch_317">
    <path d="M 531.123199 382.84 
L 532.537174 382.84 
L 532.537174 382.84 
L 531.123199 382.84 
z
" clip-path="url(#pb078ddb0ce)" style="fill: #1f77b4"/>
   </g>
   <g id="patch_318">
    <path d="M 532.537174 382.84 
L 533.951149 382.84 
L 533.951149 382.84 
L 532.537174 382.84 
z
" clip-path="url(#pb078ddb0ce)" style="fill: #1f77b4"/>
   </g>
   <g id="patch_319">
    <path d="M 533.951149 382.84 
L 535.365124 382.84 
L 535.365124 382.84 
L 533.951149 382.84 
z
" clip-path="url(#pb078ddb0ce)" style="fill: #1f77b4"/>
   </g>
   <g id="patch_320">
    <path d="M 535.365124 382.84 
L 536.779099 382.84 
L 536.779099 382.84 
L 535.365124 382.84 
z
" clip-path="url(#pb078ddb0ce)" style="fill: #1f77b4"/>
   </g>
   <g id="patch_321">
    <path d="M 536.779099 382.84 
L 538.193075 382.84 
L 538.193075 382.84 
L 536.779099 382.84 
z
" clip-path="url(#pb078ddb0ce)" style="fill: #1f77b4"/>
   </g>
   <g id="patch_322">
    <path d="M 538.193075 382.84 
L 539.60705 382.84 
L 539.60705 382.84 
L 538.193075 382.84 
z
" clip-path="url(#pb078ddb0ce)" style="fill: #1f77b4"/>
   </g>
   <g id="patch_323">
    <path d="M 539.60705 382.84 
L 541.021025 382.84 
L 541.021025 382.84 
L 539.60705 382.84 
z
" clip-path="url(#pb078ddb0ce)" style="fill: #1f77b4"/>
   </g>
   <g id="patch_324">
    <path d="M 541.021025 382.84 
L 542.435 382.84 
L 542.435 382.748726 
L 541.021025 382.748726 
z
" clip-path="url(#pb078ddb0ce)" style="fill: #1f77b4"/>
   </g>
   <g id="matplotlib.axis_1">
    <g id="xtick_1">
     <g id="line2d_1">
      <defs>
       <path id="m6b18ac3920" d="M 0 0 
L 0 3.5 
" style="stroke: #000000; stroke-width: 0.8"/>
      </defs>
      <g>
       <use xlink:href="#m6b18ac3920" x="116.776062" y="382.84" style="stroke: #000000; stroke-width: 0.8"/>
      </g>
     </g>
     <g id="text_1">
      <!-- 30 -->
      <g transform="translate(106.223718 397.438438) scale(0.1 -0.1)">
       <defs>
        <path id="DejaVuSans-2212" d="M 678 2272 
L 4684 2272 
L 4684 1741 
L 678 1741 
L 678 2272 
z
" transform="scale(0.015625)"/>
        <path id="DejaVuSans-33" d="M 2597 2516 
Q 3050 2419 3304 2112 
Q 3559 1806 3559 1356 
Q 3559 666 3084 287 
Q 2609 -91 1734 -91 
Q 1441 -91 1130 -33 
Q 819 25 488 141 
L 488 750 
Q 750 597 1062 519 
Q 1375 441 1716 441 
Q 2309 441 2620 675 
Q 2931 909 2931 1356 
Q 2931 1769 2642 2001 
Q 2353 2234 1838 2234 
L 1294 2234 
L 1294 2753 
L 1863 2753 
Q 2328 2753 2575 2939 
Q 2822 3125 2822 3475 
Q 2822 3834 2567 4026 
Q 2313 4219 1838 4219 
Q 1578 4219 1281 4162 
Q 984 4106 628 3988 
L 628 4550 
Q 988 4650 1302 4700 
Q 1616 4750 1894 4750 
Q 2613 4750 3031 4423 
Q 3450 4097 3450 3541 
Q 3450 3153 3228 2886 
Q 3006 2619 2597 2516 
z
" transform="scale(0.015625)"/>
        <path id="DejaVuSans-30" d="M 2034 4250 
Q 1547 4250 1301 3770 
Q 1056 3291 1056 2328 
Q 1056 1369 1301 889 
Q 1547 409 2034 409 
Q 2525 409 2770 889 
Q 3016 1369 3016 2328 
Q 3016 3291 2770 3770 
Q 2525 4250 2034 4250 
z
M 2034 4750 
Q 2819 4750 3233 4129 
Q 3647 3509 3647 2328 
Q 3647 1150 3233 529 
Q 2819 -91 2034 -91 
Q 1250 -91 836 529 
Q 422 1150 422 2328 
Q 422 3509 836 4129 
Q 1250 4750 2034 4750 
z
" transform="scale(0.015625)"/>
       </defs>
       <use xlink:href="#DejaVuSans-2212"/>
       <use xlink:href="#DejaVuSans-33" x="83.789062"/>
       <use xlink:href="#DejaVuSans-30" x="147.412109"/>
      </g>
     </g>
    </g>
    <g id="xtick_2">
     <g id="line2d_2">
      <g>
       <use xlink:href="#m6b18ac3920" x="184.33508" y="382.84" style="stroke: #000000; stroke-width: 0.8"/>
      </g>
     </g>
     <g id="text_2">
      <!-- 20 -->
      <g transform="translate(173.782737 397.438438) scale(0.1 -0.1)">
       <defs>
        <path id="DejaVuSans-32" d="M 1228 531 
L 3431 531 
L 3431 0 
L 469 0 
L 469 531 
Q 828 903 1448 1529 
Q 2069 2156 2228 2338 
Q 2531 2678 2651 2914 
Q 2772 3150 2772 3378 
Q 2772 3750 2511 3984 
Q 2250 4219 1831 4219 
Q 1534 4219 1204 4116 
Q 875 4013 500 3803 
L 500 4441 
Q 881 4594 1212 4672 
Q 1544 4750 1819 4750 
Q 2544 4750 2975 4387 
Q 3406 4025 3406 3419 
Q 3406 3131 3298 2873 
Q 3191 2616 2906 2266 
Q 2828 2175 2409 1742 
Q 1991 1309 1228 531 
z
" transform="scale(0.015625)"/>
       </defs>
       <use xlink:href="#DejaVuSans-2212"/>
       <use xlink:href="#DejaVuSans-32" x="83.789062"/>
       <use xlink:href="#DejaVuSans-30" x="147.412109"/>
      </g>
     </g>
    </g>
    <g id="xtick_3">
     <g id="line2d_3">
      <g>
       <use xlink:href="#m6b18ac3920" x="251.894099" y="382.84" style="stroke: #000000; stroke-width: 0.8"/>
      </g>
     </g>
     <g id="text_3">
      <!-- 10 -->
      <g transform="translate(241.341755 397.438438) scale(0.1 -0.1)">
       <defs>
        <path id="DejaVuSans-31" d="M 794 531 
L 1825 531 
L 1825 4091 
L 703 3866 
L 703 4441 
L 1819 4666 
L 2450 4666 
L 2450 531 
L 3481 531 
L 3481 0 
L 794 0 
L 794 531 
z
" transform="scale(0.015625)"/>
       </defs>
       <use xlink:href="#DejaVuSans-2212"/>
       <use xlink:href="#DejaVuSans-31" x="83.789062"/>
       <use xlink:href="#DejaVuSans-30" x="147.412109"/>
      </g>
     </g>
    </g>
    <g id="xtick_4">
     <g id="line2d_4">
      <g>
       <use xlink:href="#m6b18ac3920" x="319.453118" y="382.84" style="stroke: #000000; stroke-width: 0.8"/>
      </g>
     </g>
     <g id="text_4">
      <!-- 0 -->
      <g transform="translate(316.271868 397.438438) scale(0.1 -0.1)">
       <use xlink:href="#DejaVuSans-30"/>
      </g>
     </g>
    </g>
    <g id="xtick_5">
     <g id="line2d_5">
      <g>
       <use xlink:href="#m6b18ac3920" x="387.012137" y="382.84" style="stroke: #000000; stroke-width: 0.8"/>
      </g>
     </g>
     <g id="text_5">
      <!-- 10 -->
      <g transform="translate(380.649637 397.438438) scale(0.1 -0.1)">
       <use xlink:href="#DejaVuSans-31"/>
       <use xlink:href="#DejaVuSans-30" x="63.623047"/>
      </g>
     </g>
    </g>
    <g id="xtick_6">
     <g id="line2d_6">
      <g>
       <use xlink:href="#m6b18ac3920" x="454.571155" y="382.84" style="stroke: #000000; stroke-width: 0.8"/>
      </g>
     </g>
     <g id="text_6">
      <!-- 20 -->
      <g transform="translate(448.208655 397.438438) scale(0.1 -0.1)">
       <use xlink:href="#DejaVuSans-32"/>
       <use xlink:href="#DejaVuSans-30" x="63.623047"/>
      </g>
     </g>
    </g>
    <g id="xtick_7">
     <g id="line2d_7">
      <g>
       <use xlink:href="#m6b18ac3920" x="522.130174" y="382.84" style="stroke: #000000; stroke-width: 0.8"/>
      </g>
     </g>
     <g id="text_7">
      <!-- 30 -->
      <g transform="translate(515.767674 397.438438) scale(0.1 -0.1)">
       <use xlink:href="#DejaVuSans-33"/>
       <use xlink:href="#DejaVuSans-30" x="63.623047"/>
      </g>
     </g>
    </g>
    <g id="text_8">
     <!-- Reaction energy -->
     <g transform="translate(241.472969 417.195312) scale(0.18 -0.18)">
      <defs>
       <path id="DejaVuSans-52" d="M 2841 2188 
Q 3044 2119 3236 1894 
Q 3428 1669 3622 1275 
L 4263 0 
L 3584 0 
L 2988 1197 
Q 2756 1666 2539 1819 
Q 2322 1972 1947 1972 
L 1259 1972 
L 1259 0 
L 628 0 
L 628 4666 
L 2053 4666 
Q 2853 4666 3247 4331 
Q 3641 3997 3641 3322 
Q 3641 2881 3436 2590 
Q 3231 2300 2841 2188 
z
M 1259 4147 
L 1259 2491 
L 2053 2491 
Q 2509 2491 2742 2702 
Q 2975 2913 2975 3322 
Q 2975 3731 2742 3939 
Q 2509 4147 2053 4147 
L 1259 4147 
z
" transform="scale(0.015625)"/>
       <path id="DejaVuSans-65" d="M 3597 1894 
L 3597 1613 
L 953 1613 
Q 991 1019 1311 708 
Q 1631 397 2203 397 
Q 2534 397 2845 478 
Q 3156 559 3463 722 
L 3463 178 
Q 3153 47 2828 -22 
Q 2503 -91 2169 -91 
Q 1331 -91 842 396 
Q 353 884 353 1716 
Q 353 2575 817 3079 
Q 1281 3584 2069 3584 
Q 2775 3584 3186 3129 
Q 3597 2675 3597 1894 
z
M 3022 2063 
Q 3016 2534 2758 2815 
Q 2500 3097 2075 3097 
Q 1594 3097 1305 2825 
Q 1016 2553 972 2059 
L 3022 2063 
z
" transform="scale(0.015625)"/>
       <path id="DejaVuSans-61" d="M 2194 1759 
Q 1497 1759 1228 1600 
Q 959 1441 959 1056 
Q 959 750 1161 570 
Q 1363 391 1709 391 
Q 2188 391 2477 730 
Q 2766 1069 2766 1631 
L 2766 1759 
L 2194 1759 
z
M 3341 1997 
L 3341 0 
L 2766 0 
L 2766 531 
Q 2569 213 2275 61 
Q 1981 -91 1556 -91 
Q 1019 -91 701 211 
Q 384 513 384 1019 
Q 384 1609 779 1909 
Q 1175 2209 1959 2209 
L 2766 2209 
L 2766 2266 
Q 2766 2663 2505 2880 
Q 2244 3097 1772 3097 
Q 1472 3097 1187 3025 
Q 903 2953 641 2809 
L 641 3341 
Q 956 3463 1253 3523 
Q 1550 3584 1831 3584 
Q 2591 3584 2966 3190 
Q 3341 2797 3341 1997 
z
" transform="scale(0.015625)"/>
       <path id="DejaVuSans-63" d="M 3122 3366 
L 3122 2828 
Q 2878 2963 2633 3030 
Q 2388 3097 2138 3097 
Q 1578 3097 1268 2742 
Q 959 2388 959 1747 
Q 959 1106 1268 751 
Q 1578 397 2138 397 
Q 2388 397 2633 464 
Q 2878 531 3122 666 
L 3122 134 
Q 2881 22 2623 -34 
Q 2366 -91 2075 -91 
Q 1284 -91 818 406 
Q 353 903 353 1747 
Q 353 2603 823 3093 
Q 1294 3584 2113 3584 
Q 2378 3584 2631 3529 
Q 2884 3475 3122 3366 
z
" transform="scale(0.015625)"/>
       <path id="DejaVuSans-74" d="M 1172 4494 
L 1172 3500 
L 2356 3500 
L 2356 3053 
L 1172 3053 
L 1172 1153 
Q 1172 725 1289 603 
Q 1406 481 1766 481 
L 2356 481 
L 2356 0 
L 1766 0 
Q 1100 0 847 248 
Q 594 497 594 1153 
L 594 3053 
L 172 3053 
L 172 3500 
L 594 3500 
L 594 4494 
L 1172 4494 
z
" transform="scale(0.015625)"/>
       <path id="DejaVuSans-69" d="M 603 3500 
L 1178 3500 
L 1178 0 
L 603 0 
L 603 3500 
z
M 603 4863 
L 1178 4863 
L 1178 4134 
L 603 4134 
L 603 4863 
z
" transform="scale(0.015625)"/>
       <path id="DejaVuSans-6f" d="M 1959 3097 
Q 1497 3097 1228 2736 
Q 959 2375 959 1747 
Q 959 1119 1226 758 
Q 1494 397 1959 397 
Q 2419 397 2687 759 
Q 2956 1122 2956 1747 
Q 2956 2369 2687 2733 
Q 2419 3097 1959 3097 
z
M 1959 3584 
Q 2709 3584 3137 3096 
Q 3566 2609 3566 1747 
Q 3566 888 3137 398 
Q 2709 -91 1959 -91 
Q 1206 -91 779 398 
Q 353 888 353 1747 
Q 353 2609 779 3096 
Q 1206 3584 1959 3584 
z
" transform="scale(0.015625)"/>
       <path id="DejaVuSans-6e" d="M 3513 2113 
L 3513 0 
L 2938 0 
L 2938 2094 
Q 2938 2591 2744 2837 
Q 2550 3084 2163 3084 
Q 1697 3084 1428 2787 
Q 1159 2491 1159 1978 
L 1159 0 
L 581 0 
L 581 3500 
L 1159 3500 
L 1159 2956 
Q 1366 3272 1645 3428 
Q 1925 3584 2291 3584 
Q 2894 3584 3203 3211 
Q 3513 2838 3513 2113 
z
" transform="scale(0.015625)"/>
       <path id="DejaVuSans-20" transform="scale(0.015625)"/>
       <path id="DejaVuSans-72" d="M 2631 2963 
Q 2534 3019 2420 3045 
Q 2306 3072 2169 3072 
Q 1681 3072 1420 2755 
Q 1159 2438 1159 1844 
L 1159 0 
L 581 0 
L 581 3500 
L 1159 3500 
L 1159 2956 
Q 1341 3275 1631 3429 
Q 1922 3584 2338 3584 
Q 2397 3584 2469 3576 
Q 2541 3569 2628 3553 
L 2631 2963 
z
" transform="scale(0.015625)"/>
       <path id="DejaVuSans-67" d="M 2906 1791 
Q 2906 2416 2648 2759 
Q 2391 3103 1925 3103 
Q 1463 3103 1205 2759 
Q 947 2416 947 1791 
Q 947 1169 1205 825 
Q 1463 481 1925 481 
Q 2391 481 2648 825 
Q 2906 1169 2906 1791 
z
M 3481 434 
Q 3481 -459 3084 -895 
Q 2688 -1331 1869 -1331 
Q 1566 -1331 1297 -1286 
Q 1028 -1241 775 -1147 
L 775 -588 
Q 1028 -725 1275 -790 
Q 1522 -856 1778 -856 
Q 2344 -856 2625 -561 
Q 2906 -266 2906 331 
L 2906 616 
Q 2728 306 2450 153 
Q 2172 0 1784 0 
Q 1141 0 747 490 
Q 353 981 353 1791 
Q 353 2603 747 3093 
Q 1141 3584 1784 3584 
Q 2172 3584 2450 3431 
Q 2728 3278 2906 2969 
L 2906 3500 
L 3481 3500 
L 3481 434 
z
" transform="scale(0.015625)"/>
       <path id="DejaVuSans-79" d="M 2059 -325 
Q 1816 -950 1584 -1140 
Q 1353 -1331 966 -1331 
L 506 -1331 
L 506 -850 
L 844 -850 
Q 1081 -850 1212 -737 
Q 1344 -625 1503 -206 
L 1606 56 
L 191 3500 
L 800 3500 
L 1894 763 
L 2988 3500 
L 3597 3500 
L 2059 -325 
z
" transform="scale(0.015625)"/>
      </defs>
      <use xlink:href="#DejaVuSans-52"/>
      <use xlink:href="#DejaVuSans-65" x="64.982422"/>
      <use xlink:href="#DejaVuSans-61" x="126.505859"/>
      <use xlink:href="#DejaVuSans-63" x="187.785156"/>
      <use xlink:href="#DejaVuSans-74" x="242.765625"/>
      <use xlink:href="#DejaVuSans-69" x="281.974609"/>
      <use xlink:href="#DejaVuSans-6f" x="309.757812"/>
      <use xlink:href="#DejaVuSans-6e" x="370.939453"/>
      <use xlink:href="#DejaVuSans-20" x="434.318359"/>
      <use xlink:href="#DejaVuSans-65" x="466.105469"/>
      <use xlink:href="#DejaVuSans-6e" x="527.628906"/>
      <use xlink:href="#DejaVuSans-65" x="591.007812"/>
      <use xlink:href="#DejaVuSans-72" x="652.53125"/>
      <use xlink:href="#DejaVuSans-67" x="691.894531"/>
      <use xlink:href="#DejaVuSans-79" x="755.371094"/>
     </g>
    </g>
   </g>
   <g id="matplotlib.axis_2">
    <g id="ytick_1">
     <g id="line2d_8">
      <defs>
       <path id="mdd40deb82b" d="M 0 0 
L -3.5 0 
" style="stroke: #000000; stroke-width: 0.8"/>
      </defs>
      <g>
       <use xlink:href="#mdd40deb82b" x="64.37" y="382.84" style="stroke: #000000; stroke-width: 0.8"/>
      </g>
     </g>
     <g id="text_9">
      <!-- 0 -->
      <g transform="translate(51.0075 386.639219) scale(0.1 -0.1)">
       <use xlink:href="#DejaVuSans-30"/>
      </g>
     </g>
    </g>
    <g id="ytick_2">
     <g id="line2d_9">
      <g>
       <use xlink:href="#mdd40deb82b" x="64.37" y="337.203239" style="stroke: #000000; stroke-width: 0.8"/>
      </g>
     </g>
     <g id="text_10">
      <!-- 500 -->
      <g transform="translate(38.2825 341.002458) scale(0.1 -0.1)">
       <defs>
        <path id="DejaVuSans-35" d="M 691 4666 
L 3169 4666 
L 3169 4134 
L 1269 4134 
L 1269 2991 
Q 1406 3038 1543 3061 
Q 1681 3084 1819 3084 
Q 2600 3084 3056 2656 
Q 3513 2228 3513 1497 
Q 3513 744 3044 326 
Q 2575 -91 1722 -91 
Q 1428 -91 1123 -41 
Q 819 9 494 109 
L 494 744 
Q 775 591 1075 516 
Q 1375 441 1709 441 
Q 2250 441 2565 725 
Q 2881 1009 2881 1497 
Q 2881 1984 2565 2268 
Q 2250 2553 1709 2553 
Q 1456 2553 1204 2497 
Q 953 2441 691 2322 
L 691 4666 
z
" transform="scale(0.015625)"/>
       </defs>
       <use xlink:href="#DejaVuSans-35"/>
       <use xlink:href="#DejaVuSans-30" x="63.623047"/>
       <use xlink:href="#DejaVuSans-30" x="127.246094"/>
      </g>
     </g>
    </g>
    <g id="ytick_3">
     <g id="line2d_10">
      <g>
       <use xlink:href="#mdd40deb82b" x="64.37" y="291.566479" style="stroke: #000000; stroke-width: 0.8"/>
      </g>
     </g>
     <g id="text_11">
      <!-- 1000 -->
      <g transform="translate(31.92 295.365697) scale(0.1 -0.1)">
       <use xlink:href="#DejaVuSans-31"/>
       <use xlink:href="#DejaVuSans-30" x="63.623047"/>
       <use xlink:href="#DejaVuSans-30" x="127.246094"/>
       <use xlink:href="#DejaVuSans-30" x="190.869141"/>
      </g>
     </g>
    </g>
    <g id="ytick_4">
     <g id="line2d_11">
      <g>
       <use xlink:href="#mdd40deb82b" x="64.37" y="245.929718" style="stroke: #000000; stroke-width: 0.8"/>
      </g>
     </g>
     <g id="text_12">
      <!-- 1500 -->
      <g transform="translate(31.92 249.728937) scale(0.1 -0.1)">
       <use xlink:href="#DejaVuSans-31"/>
       <use xlink:href="#DejaVuSans-35" x="63.623047"/>
       <use xlink:href="#DejaVuSans-30" x="127.246094"/>
       <use xlink:href="#DejaVuSans-30" x="190.869141"/>
      </g>
     </g>
    </g>
    <g id="ytick_5">
     <g id="line2d_12">
      <g>
       <use xlink:href="#mdd40deb82b" x="64.37" y="200.292957" style="stroke: #000000; stroke-width: 0.8"/>
      </g>
     </g>
     <g id="text_13">
      <!-- 2000 -->
      <g transform="translate(31.92 204.092176) scale(0.1 -0.1)">
       <use xlink:href="#DejaVuSans-32"/>
       <use xlink:href="#DejaVuSans-30" x="63.623047"/>
       <use xlink:href="#DejaVuSans-30" x="127.246094"/>
       <use xlink:href="#DejaVuSans-30" x="190.869141"/>
      </g>
     </g>
    </g>
    <g id="ytick_6">
     <g id="line2d_13">
      <g>
       <use xlink:href="#mdd40deb82b" x="64.37" y="154.656197" style="stroke: #000000; stroke-width: 0.8"/>
      </g>
     </g>
     <g id="text_14">
      <!-- 2500 -->
      <g transform="translate(31.92 158.455416) scale(0.1 -0.1)">
       <use xlink:href="#DejaVuSans-32"/>
       <use xlink:href="#DejaVuSans-35" x="63.623047"/>
       <use xlink:href="#DejaVuSans-30" x="127.246094"/>
       <use xlink:href="#DejaVuSans-30" x="190.869141"/>
      </g>
     </g>
    </g>
    <g id="ytick_7">
     <g id="line2d_14">
      <g>
       <use xlink:href="#mdd40deb82b" x="64.37" y="109.019436" style="stroke: #000000; stroke-width: 0.8"/>
      </g>
     </g>
     <g id="text_15">
      <!-- 3000 -->
      <g transform="translate(31.92 112.818655) scale(0.1 -0.1)">
       <use xlink:href="#DejaVuSans-33"/>
       <use xlink:href="#DejaVuSans-30" x="63.623047"/>
       <use xlink:href="#DejaVuSans-30" x="127.246094"/>
       <use xlink:href="#DejaVuSans-30" x="190.869141"/>
      </g>
     </g>
    </g>
    <g id="ytick_8">
     <g id="line2d_15">
      <g>
       <use xlink:href="#mdd40deb82b" x="64.37" y="63.382676" style="stroke: #000000; stroke-width: 0.8"/>
      </g>
     </g>
     <g id="text_16">
      <!-- 3500 -->
      <g transform="translate(31.92 67.181894) scale(0.1 -0.1)">
       <use xlink:href="#DejaVuSans-33"/>
       <use xlink:href="#DejaVuSans-35" x="63.623047"/>
       <use xlink:href="#DejaVuSans-30" x="127.246094"/>
       <use xlink:href="#DejaVuSans-30" x="190.869141"/>
      </g>
     </g>
    </g>
    <g id="ytick_9">
     <g id="line2d_16">
      <g>
       <use xlink:href="#mdd40deb82b" x="64.37" y="17.745915" style="stroke: #000000; stroke-width: 0.8"/>
      </g>
     </g>
     <g id="text_17">
      <!-- 4000 -->
      <g transform="translate(31.92 21.545134) scale(0.1 -0.1)">
       <defs>
        <path id="DejaVuSans-34" d="M 2419 4116 
L 825 1625 
L 2419 1625 
L 2419 4116 
z
M 2253 4666 
L 3047 4666 
L 3047 1625 
L 3713 1625 
L 3713 1100 
L 3047 1100 
L 3047 0 
L 2419 0 
L 2419 1100 
L 313 1100 
L 313 1709 
L 2253 4666 
z
" transform="scale(0.015625)"/>
       </defs>
       <use xlink:href="#DejaVuSans-34"/>
       <use xlink:href="#DejaVuSans-30" x="63.623047"/>
       <use xlink:href="#DejaVuSans-30" x="127.246094"/>
       <use xlink:href="#DejaVuSans-30" x="190.869141"/>
      </g>
     </g>
    </g>
    <g id="text_18">
     <!-- Count -->
     <g transform="translate(24.176563 223.547188) rotate(-90) scale(0.18 -0.18)">
      <defs>
       <path id="DejaVuSans-43" d="M 4122 4306 
L 4122 3641 
Q 3803 3938 3442 4084 
Q 3081 4231 2675 4231 
Q 1875 4231 1450 3742 
Q 1025 3253 1025 2328 
Q 1025 1406 1450 917 
Q 1875 428 2675 428 
Q 3081 428 3442 575 
Q 3803 722 4122 1019 
L 4122 359 
Q 3791 134 3420 21 
Q 3050 -91 2638 -91 
Q 1578 -91 968 557 
Q 359 1206 359 2328 
Q 359 3453 968 4101 
Q 1578 4750 2638 4750 
Q 3056 4750 3426 4639 
Q 3797 4528 4122 4306 
z
" transform="scale(0.015625)"/>
       <path id="DejaVuSans-75" d="M 544 1381 
L 544 3500 
L 1119 3500 
L 1119 1403 
Q 1119 906 1312 657 
Q 1506 409 1894 409 
Q 2359 409 2629 706 
Q 2900 1003 2900 1516 
L 2900 3500 
L 3475 3500 
L 3475 0 
L 2900 0 
L 2900 538 
Q 2691 219 2414 64 
Q 2138 -91 1772 -91 
Q 1169 -91 856 284 
Q 544 659 544 1381 
z
M 1991 3584 
L 1991 3584 
z
" transform="scale(0.015625)"/>
      </defs>
      <use xlink:href="#DejaVuSans-43"/>
      <use xlink:href="#DejaVuSans-6f" x="69.824219"/>
      <use xlink:href="#DejaVuSans-75" x="131.005859"/>
      <use xlink:href="#DejaVuSans-6e" x="194.384766"/>
      <use xlink:href="#DejaVuSans-74" x="257.763672"/>
     </g>
    </g>
   </g>
   <g id="line2d_17">
    <path d="M 282.550629 382.84 
L 282.550629 28.51619 
" clip-path="url(#pb078ddb0ce)" style="fill: none; stroke: #ff0000; stroke-width: 1.6; stroke-linecap: square"/>
   </g>
   <g id="patch_325">
    <path d="M 64.37 382.84 
L 64.37 10.8 
" style="fill: none; stroke: #000000; stroke-width: 0.8; stroke-linejoin: miter; stroke-linecap: square"/>
   </g>
   <g id="patch_326">
    <path d="M 565.2 382.84 
L 565.2 10.8 
" style="fill: none; stroke: #000000; stroke-width: 0.8; stroke-linejoin: miter; stroke-linecap: square"/>
   </g>
   <g id="patch_327">
    <path d="M 64.37 382.84 
L 565.2 382.84 
" style="fill: none; stroke: #000000; stroke-width: 0.8; stroke-linejoin: miter; stroke-linecap: square"/>
   </g>
   <g id="patch_328">
    <path d="M 64.37 10.8 
L 565.2 10.8 
" style="fill: none; stroke: #000000; stroke-width: 0.8; stroke-linejoin: miter; stroke-linecap: square"/>
   </g>
   <g id="text_19">
    <!-- $\mu_2 = -0.749$ -->
    <g transform="translate(414.951 61.649937) scale(0.21 -0.21)">
     <defs>
      <path id="DejaVuSans-Oblique-3bc" d="M -84 -1331 
L 856 3500 
L 1434 3500 
L 1009 1322 
Q 997 1256 987 1175 
Q 978 1094 978 1013 
Q 978 722 1161 565 
Q 1344 409 1684 409 
Q 2147 409 2431 671 
Q 2716 934 2816 1459 
L 3213 3500 
L 3788 3500 
L 3266 809 
Q 3253 750 3248 706 
Q 3244 663 3244 628 
Q 3244 531 3283 486 
Q 3322 441 3406 441 
Q 3438 441 3492 456 
Q 3547 472 3647 513 
L 3559 50 
Q 3422 -19 3297 -55 
Q 3172 -91 3053 -91 
Q 2847 -91 2730 40 
Q 2613 172 2613 403 
Q 2438 153 2195 31 
Q 1953 -91 1625 -91 
Q 1334 -91 1117 43 
Q 900 178 831 397 
L 494 -1331 
L -84 -1331 
z
" transform="scale(0.015625)"/>
      <path id="DejaVuSans-3d" d="M 678 2906 
L 4684 2906 
L 4684 2381 
L 678 2381 
L 678 2906 
z
M 678 1631 
L 4684 1631 
L 4684 1100 
L 678 1100 
L 678 1631 
z
" transform="scale(0.015625)"/>
      <path id="DejaVuSans-2e" d="M 684 794 
L 1344 794 
L 1344 0 
L 684 0 
L 684 794 
z
" transform="scale(0.015625)"/>
      <path id="DejaVuSans-37" d="M 525 4666 
L 3525 4666 
L 3525 4397 
L 1831 0 
L 1172 0 
L 2766 4134 
L 525 4134 
L 525 4666 
z
" transform="scale(0.015625)"/>
      <path id="DejaVuSans-39" d="M 703 97 
L 703 672 
Q 941 559 1184 500 
Q 1428 441 1663 441 
Q 2288 441 2617 861 
Q 2947 1281 2994 2138 
Q 2813 1869 2534 1725 
Q 2256 1581 1919 1581 
Q 1219 1581 811 2004 
Q 403 2428 403 3163 
Q 403 3881 828 4315 
Q 1253 4750 1959 4750 
Q 2769 4750 3195 4129 
Q 3622 3509 3622 2328 
Q 3622 1225 3098 567 
Q 2575 -91 1691 -91 
Q 1453 -91 1209 -44 
Q 966 3 703 97 
z
M 1959 2075 
Q 2384 2075 2632 2365 
Q 2881 2656 2881 3163 
Q 2881 3666 2632 3958 
Q 2384 4250 1959 4250 
Q 1534 4250 1286 3958 
Q 1038 3666 1038 3163 
Q 1038 2656 1286 2365 
Q 1534 2075 1959 2075 
z
" transform="scale(0.015625)"/>
     </defs>
     <use xlink:href="#DejaVuSans-Oblique-3bc" transform="translate(0 0.78125)"/>
     <use xlink:href="#DejaVuSans-32" transform="translate(63.623047 -15.625) scale(0.7)"/>
     <use xlink:href="#DejaVuSans-3d" transform="translate(130.375977 0.78125)"/>
     <use xlink:href="#DejaVuSans-2212" transform="translate(253.129883 0.78125)"/>
     <use xlink:href="#DejaVuSans-30" transform="translate(356.401367 0.78125)"/>
     <use xlink:href="#DejaVuSans-2e" transform="translate(420.024414 0.78125)"/>
     <use xlink:href="#DejaVuSans-37" transform="translate(444.061523 0.78125)"/>
     <use xlink:href="#DejaVuSans-34" transform="translate(507.68457 0.78125)"/>
     <use xlink:href="#DejaVuSans-39" transform="translate(571.307617 0.78125)"/>
    </g>
    <!-- $\sigma_2 = 4.507$ -->
    <g transform="translate(414.951 85.208) scale(0.21 -0.21)">
     <defs>
      <path id="DejaVuSans-Oblique-3c3" d="M 2219 3044 
Q 1744 3044 1422 2700 
Q 1081 2341 969 1747 
Q 844 1119 1044 756 
Q 1241 397 1706 397 
Q 2166 397 2503 759 
Q 2844 1122 2966 1747 
Q 3075 2319 2881 2700 
Q 2700 3044 2219 3044 
z
M 2309 3503 
L 4219 3500 
L 4106 2925 
L 3463 2925 
Q 3706 2438 3575 1747 
Q 3406 888 2884 400 
Q 2359 -91 1609 -91 
Q 856 -91 525 400 
Q 194 888 363 1747 
Q 528 2609 1050 3097 
Q 1484 3503 2309 3503 
z
" transform="scale(0.015625)"/>
     </defs>
     <use xlink:href="#DejaVuSans-Oblique-3c3" transform="translate(0 0.78125)"/>
     <use xlink:href="#DejaVuSans-32" transform="translate(63.378906 -15.625) scale(0.7)"/>
     <use xlink:href="#DejaVuSans-3d" transform="translate(130.131836 0.78125)"/>
     <use xlink:href="#DejaVuSans-34" transform="translate(233.40332 0.78125)"/>
     <use xlink:href="#DejaVuSans-2e" transform="translate(297.026367 0.78125)"/>
     <use xlink:href="#DejaVuSans-35" transform="translate(328.813477 0.78125)"/>
     <use xlink:href="#DejaVuSans-30" transform="translate(392.436523 0.78125)"/>
     <use xlink:href="#DejaVuSans-37" transform="translate(456.05957 0.78125)"/>
    </g>
   </g>
  </g>
 </g>
 <defs>
  <clipPath id="pb078ddb0ce">
   <rect x="64.37" y="10.8" width="500.83" height="372.04"/>
  </clipPath>
 </defs>
</svg>
