<?xml version="1.0" encoding="utf-8" standalone="no"?>
<!DOCTYPE svg PUBLIC "-//W3C//DTD SVG 1.1//EN"
  "http://www.w3.org/Graphics/SVG/1.1/DTD/svg11.dtd">
<svg xmlns:xlink="http://www.w3.org/1999/xlink" width="720pt" height="360pt" viewBox="0 0 720 360" xmlns="http://www.w3.org/2000/svg" version="1.1">
 <metadata>
  <rdf:RDF xmlns:dc="http://purl.org/dc/elements/1.1/" xmlns:cc="http://creativecommons.org/ns#" xmlns:rdf="http://www.w3.org/1999/02/22-rdf-syntax-ns#">
   <cc:Work>
    <dc:type rdf:resource="http://purl.org/dc/dcmitype/StillImage"/>
    <dc:date>2023-10-26T20:04:21.413620</dc:date>
    <dc:format>image/svg+xml</dc:format>
    <dc:creator>
     <cc:Agent>
      <dc:title>Matplotlib v3.7.2, https://matplotlib.org/</dc:title>
     </cc:Agent>
    </dc:creator>
   </cc:Work>
  </rdf:RDF>
 </metadata>
 <defs>
  <style type="text/css">*{stroke-linejoin: round; stroke-linecap: butt}</style>
 </defs>
 <g id="figure_1">
  <g id="patch_1">
   <path d="M 0 360 
L 720 360 
L 720 0 
L 0 0 
z
" style="fill: #ffffff"/>
  </g>
  <g id="axes_1">
   <g id="patch_2">
    <path d="M 90 320.4 
L 648 320.4 
L 648 43.2 
L 90 43.2 
z
" style="fill: #ffffff"/>
   </g>
   <g id="patch_3">
    <path d="M 115.363636 320.4 
L 116.939018 320.4 
L 116.939018 320.331994 
L 115.363636 320.331994 
z
" clip-path="url(#pc06298a25d)" style="fill: #1f77b4"/>
   </g>
   <g id="patch_4">
    <path d="M 116.939018 320.4 
L 118.514399 320.4 
L 118.514399 320.4 
L 116.939018 320.4 
z
" clip-path="url(#pc06298a25d)" style="fill: #1f77b4"/>
   </g>
   <g id="patch_5">
    <path d="M 118.514399 320.4 
L 120.08978 320.4 
L 120.08978 320.4 
L 118.514399 320.4 
z
" clip-path="url(#pc06298a25d)" style="fill: #1f77b4"/>
   </g>
   <g id="patch_6">
    <path d="M 120.08978 320.4 
L 121.665161 320.4 
L 121.665161 320.4 
L 120.08978 320.4 
z
" clip-path="url(#pc06298a25d)" style="fill: #1f77b4"/>
   </g>
   <g id="patch_7">
    <path d="M 121.665161 320.4 
L 123.240542 320.4 
L 123.240542 320.4 
L 121.665161 320.4 
z
" clip-path="url(#pc06298a25d)" style="fill: #1f77b4"/>
   </g>
   <g id="patch_8">
    <path d="M 123.240542 320.4 
L 124.815923 320.4 
L 124.815923 320.4 
L 123.240542 320.4 
z
" clip-path="url(#pc06298a25d)" style="fill: #1f77b4"/>
   </g>
   <g id="patch_9">
    <path d="M 124.815923 320.4 
L 126.391304 320.4 
L 126.391304 320.4 
L 124.815923 320.4 
z
" clip-path="url(#pc06298a25d)" style="fill: #1f77b4"/>
   </g>
   <g id="patch_10">
    <path d="M 126.391304 320.4 
L 127.966685 320.4 
L 127.966685 320.4 
L 126.391304 320.4 
z
" clip-path="url(#pc06298a25d)" style="fill: #1f77b4"/>
   </g>
   <g id="patch_11">
    <path d="M 127.966685 320.4 
L 129.542067 320.4 
L 129.542067 320.4 
L 127.966685 320.4 
z
" clip-path="url(#pc06298a25d)" style="fill: #1f77b4"/>
   </g>
   <g id="patch_12">
    <path d="M 129.542067 320.4 
L 131.117448 320.4 
L 131.117448 320.4 
L 129.542067 320.4 
z
" clip-path="url(#pc06298a25d)" style="fill: #1f77b4"/>
   </g>
   <g id="patch_13">
    <path d="M 131.117448 320.4 
L 132.692829 320.4 
L 132.692829 320.4 
L 131.117448 320.4 
z
" clip-path="url(#pc06298a25d)" style="fill: #1f77b4"/>
   </g>
   <g id="patch_14">
    <path d="M 132.692829 320.4 
L 134.26821 320.4 
L 134.26821 320.4 
L 132.692829 320.4 
z
" clip-path="url(#pc06298a25d)" style="fill: #1f77b4"/>
   </g>
   <g id="patch_15">
    <path d="M 134.26821 320.4 
L 135.843591 320.4 
L 135.843591 320.4 
L 134.26821 320.4 
z
" clip-path="url(#pc06298a25d)" style="fill: #1f77b4"/>
   </g>
   <g id="patch_16">
    <path d="M 135.843591 320.4 
L 137.418972 320.4 
L 137.418972 320.4 
L 135.843591 320.4 
z
" clip-path="url(#pc06298a25d)" style="fill: #1f77b4"/>
   </g>
   <g id="patch_17">
    <path d="M 137.418972 320.4 
L 138.994353 320.4 
L 138.994353 320.4 
L 137.418972 320.4 
z
" clip-path="url(#pc06298a25d)" style="fill: #1f77b4"/>
   </g>
   <g id="patch_18">
    <path d="M 138.994353 320.4 
L 140.569735 320.4 
L 140.569735 320.4 
L 138.994353 320.4 
z
" clip-path="url(#pc06298a25d)" style="fill: #1f77b4"/>
   </g>
   <g id="patch_19">
    <path d="M 140.569735 320.4 
L 142.145116 320.4 
L 142.145116 320.4 
L 140.569735 320.4 
z
" clip-path="url(#pc06298a25d)" style="fill: #1f77b4"/>
   </g>
   <g id="patch_20">
    <path d="M 142.145116 320.4 
L 143.720497 320.4 
L 143.720497 320.4 
L 142.145116 320.4 
z
" clip-path="url(#pc06298a25d)" style="fill: #1f77b4"/>
   </g>
   <g id="patch_21">
    <path d="M 143.720497 320.4 
L 145.295878 320.4 
L 145.295878 320.4 
L 143.720497 320.4 
z
" clip-path="url(#pc06298a25d)" style="fill: #1f77b4"/>
   </g>
   <g id="patch_22">
    <path d="M 145.295878 320.4 
L 146.871259 320.4 
L 146.871259 320.4 
L 145.295878 320.4 
z
" clip-path="url(#pc06298a25d)" style="fill: #1f77b4"/>
   </g>
   <g id="patch_23">
    <path d="M 146.871259 320.4 
L 148.44664 320.4 
L 148.44664 320.4 
L 146.871259 320.4 
z
" clip-path="url(#pc06298a25d)" style="fill: #1f77b4"/>
   </g>
   <g id="patch_24">
    <path d="M 148.44664 320.4 
L 150.022021 320.4 
L 150.022021 320.4 
L 148.44664 320.4 
z
" clip-path="url(#pc06298a25d)" style="fill: #1f77b4"/>
   </g>
   <g id="patch_25">
    <path d="M 150.022021 320.4 
L 151.597403 320.4 
L 151.597403 320.4 
L 150.022021 320.4 
z
" clip-path="url(#pc06298a25d)" style="fill: #1f77b4"/>
   </g>
   <g id="patch_26">
    <path d="M 151.597403 320.4 
L 153.172784 320.4 
L 153.172784 320.4 
L 151.597403 320.4 
z
" clip-path="url(#pc06298a25d)" style="fill: #1f77b4"/>
   </g>
   <g id="patch_27">
    <path d="M 153.172784 320.4 
L 154.748165 320.4 
L 154.748165 320.4 
L 153.172784 320.4 
z
" clip-path="url(#pc06298a25d)" style="fill: #1f77b4"/>
   </g>
   <g id="patch_28">
    <path d="M 154.748165 320.4 
L 156.323546 320.4 
L 156.323546 320.4 
L 154.748165 320.4 
z
" clip-path="url(#pc06298a25d)" style="fill: #1f77b4"/>
   </g>
   <g id="patch_29">
    <path d="M 156.323546 320.4 
L 157.898927 320.4 
L 157.898927 320.4 
L 156.323546 320.4 
z
" clip-path="url(#pc06298a25d)" style="fill: #1f77b4"/>
   </g>
   <g id="patch_30">
    <path d="M 157.898927 320.4 
L 159.474308 320.4 
L 159.474308 320.4 
L 157.898927 320.4 
z
" clip-path="url(#pc06298a25d)" style="fill: #1f77b4"/>
   </g>
   <g id="patch_31">
    <path d="M 159.474308 320.4 
L 161.049689 320.4 
L 161.049689 320.4 
L 159.474308 320.4 
z
" clip-path="url(#pc06298a25d)" style="fill: #1f77b4"/>
   </g>
   <g id="patch_32">
    <path d="M 161.049689 320.4 
L 162.625071 320.4 
L 162.625071 320.4 
L 161.049689 320.4 
z
" clip-path="url(#pc06298a25d)" style="fill: #1f77b4"/>
   </g>
   <g id="patch_33">
    <path d="M 162.625071 320.4 
L 164.200452 320.4 
L 164.200452 320.4 
L 162.625071 320.4 
z
" clip-path="url(#pc06298a25d)" style="fill: #1f77b4"/>
   </g>
   <g id="patch_34">
    <path d="M 164.200452 320.4 
L 165.775833 320.4 
L 165.775833 320.4 
L 164.200452 320.4 
z
" clip-path="url(#pc06298a25d)" style="fill: #1f77b4"/>
   </g>
   <g id="patch_35">
    <path d="M 165.775833 320.4 
L 167.351214 320.4 
L 167.351214 320.4 
L 165.775833 320.4 
z
" clip-path="url(#pc06298a25d)" style="fill: #1f77b4"/>
   </g>
   <g id="patch_36">
    <path d="M 167.351214 320.4 
L 168.926595 320.4 
L 168.926595 320.4 
L 167.351214 320.4 
z
" clip-path="url(#pc06298a25d)" style="fill: #1f77b4"/>
   </g>
   <g id="patch_37">
    <path d="M 168.926595 320.4 
L 170.501976 320.4 
L 170.501976 320.4 
L 168.926595 320.4 
z
" clip-path="url(#pc06298a25d)" style="fill: #1f77b4"/>
   </g>
   <g id="patch_38">
    <path d="M 170.501976 320.4 
L 172.077357 320.4 
L 172.077357 320.4 
L 170.501976 320.4 
z
" clip-path="url(#pc06298a25d)" style="fill: #1f77b4"/>
   </g>
   <g id="patch_39">
    <path d="M 172.077357 320.4 
L 173.652739 320.4 
L 173.652739 320.4 
L 172.077357 320.4 
z
" clip-path="url(#pc06298a25d)" style="fill: #1f77b4"/>
   </g>
   <g id="patch_40">
    <path d="M 173.652739 320.4 
L 175.22812 320.4 
L 175.22812 320.4 
L 173.652739 320.4 
z
" clip-path="url(#pc06298a25d)" style="fill: #1f77b4"/>
   </g>
   <g id="patch_41">
    <path d="M 175.22812 320.4 
L 176.803501 320.4 
L 176.803501 320.4 
L 175.22812 320.4 
z
" clip-path="url(#pc06298a25d)" style="fill: #1f77b4"/>
   </g>
   <g id="patch_42">
    <path d="M 176.803501 320.4 
L 178.378882 320.4 
L 178.378882 320.4 
L 176.803501 320.4 
z
" clip-path="url(#pc06298a25d)" style="fill: #1f77b4"/>
   </g>
   <g id="patch_43">
    <path d="M 178.378882 320.4 
L 179.954263 320.4 
L 179.954263 320.331994 
L 178.378882 320.331994 
z
" clip-path="url(#pc06298a25d)" style="fill: #1f77b4"/>
   </g>
   <g id="patch_44">
    <path d="M 179.954263 320.4 
L 181.529644 320.4 
L 181.529644 320.4 
L 179.954263 320.4 
z
" clip-path="url(#pc06298a25d)" style="fill: #1f77b4"/>
   </g>
   <g id="patch_45">
    <path d="M 181.529644 320.4 
L 183.105025 320.4 
L 183.105025 320.4 
L 181.529644 320.4 
z
" clip-path="url(#pc06298a25d)" style="fill: #1f77b4"/>
   </g>
   <g id="patch_46">
    <path d="M 183.105025 320.4 
L 184.680407 320.4 
L 184.680407 320.4 
L 183.105025 320.4 
z
" clip-path="url(#pc06298a25d)" style="fill: #1f77b4"/>
   </g>
   <g id="patch_47">
    <path d="M 184.680407 320.4 
L 186.255788 320.4 
L 186.255788 320.4 
L 184.680407 320.4 
z
" clip-path="url(#pc06298a25d)" style="fill: #1f77b4"/>
   </g>
   <g id="patch_48">
    <path d="M 186.255788 320.4 
L 187.831169 320.4 
L 187.831169 320.4 
L 186.255788 320.4 
z
" clip-path="url(#pc06298a25d)" style="fill: #1f77b4"/>
   </g>
   <g id="patch_49">
    <path d="M 187.831169 320.4 
L 189.40655 320.4 
L 189.40655 320.4 
L 187.831169 320.4 
z
" clip-path="url(#pc06298a25d)" style="fill: #1f77b4"/>
   </g>
   <g id="patch_50">
    <path d="M 189.40655 320.4 
L 190.981931 320.4 
L 190.981931 320.331994 
L 189.40655 320.331994 
z
" clip-path="url(#pc06298a25d)" style="fill: #1f77b4"/>
   </g>
   <g id="patch_51">
    <path d="M 190.981931 320.4 
L 192.557312 320.4 
L 192.557312 320.4 
L 190.981931 320.4 
z
" clip-path="url(#pc06298a25d)" style="fill: #1f77b4"/>
   </g>
   <g id="patch_52">
    <path d="M 192.557312 320.4 
L 194.132693 320.4 
L 194.132693 320.4 
L 192.557312 320.4 
z
" clip-path="url(#pc06298a25d)" style="fill: #1f77b4"/>
   </g>
   <g id="patch_53">
    <path d="M 194.132693 320.4 
L 195.708075 320.4 
L 195.708075 320.4 
L 194.132693 320.4 
z
" clip-path="url(#pc06298a25d)" style="fill: #1f77b4"/>
   </g>
   <g id="patch_54">
    <path d="M 195.708075 320.4 
L 197.283456 320.4 
L 197.283456 320.4 
L 195.708075 320.4 
z
" clip-path="url(#pc06298a25d)" style="fill: #1f77b4"/>
   </g>
   <g id="patch_55">
    <path d="M 197.283456 320.4 
L 198.858837 320.4 
L 198.858837 320.331994 
L 197.283456 320.331994 
z
" clip-path="url(#pc06298a25d)" style="fill: #1f77b4"/>
   </g>
   <g id="patch_56">
    <path d="M 198.858837 320.4 
L 200.434218 320.4 
L 200.434218 320.4 
L 198.858837 320.4 
z
" clip-path="url(#pc06298a25d)" style="fill: #1f77b4"/>
   </g>
   <g id="patch_57">
    <path d="M 200.434218 320.4 
L 202.009599 320.4 
L 202.009599 320.263988 
L 200.434218 320.263988 
z
" clip-path="url(#pc06298a25d)" style="fill: #1f77b4"/>
   </g>
   <g id="patch_58">
    <path d="M 202.009599 320.4 
L 203.58498 320.4 
L 203.58498 320.4 
L 202.009599 320.4 
z
" clip-path="url(#pc06298a25d)" style="fill: #1f77b4"/>
   </g>
   <g id="patch_59">
    <path d="M 203.58498 320.4 
L 205.160361 320.4 
L 205.160361 320.4 
L 203.58498 320.4 
z
" clip-path="url(#pc06298a25d)" style="fill: #1f77b4"/>
   </g>
   <g id="patch_60">
    <path d="M 205.160361 320.4 
L 206.735743 320.4 
L 206.735743 320.263988 
L 205.160361 320.263988 
z
" clip-path="url(#pc06298a25d)" style="fill: #1f77b4"/>
   </g>
   <g id="patch_61">
    <path d="M 206.735743 320.4 
L 208.311124 320.4 
L 208.311124 320.331994 
L 206.735743 320.331994 
z
" clip-path="url(#pc06298a25d)" style="fill: #1f77b4"/>
   </g>
   <g id="patch_62">
    <path d="M 208.311124 320.4 
L 209.886505 320.4 
L 209.886505 320.331994 
L 208.311124 320.331994 
z
" clip-path="url(#pc06298a25d)" style="fill: #1f77b4"/>
   </g>
   <g id="patch_63">
    <path d="M 209.886505 320.4 
L 211.461886 320.4 
L 211.461886 320.4 
L 209.886505 320.4 
z
" clip-path="url(#pc06298a25d)" style="fill: #1f77b4"/>
   </g>
   <g id="patch_64">
    <path d="M 211.461886 320.4 
L 213.037267 320.4 
L 213.037267 320.331994 
L 211.461886 320.331994 
z
" clip-path="url(#pc06298a25d)" style="fill: #1f77b4"/>
   </g>
   <g id="patch_65">
    <path d="M 213.037267 320.4 
L 214.612648 320.4 
L 214.612648 320.331994 
L 213.037267 320.331994 
z
" clip-path="url(#pc06298a25d)" style="fill: #1f77b4"/>
   </g>
   <g id="patch_66">
    <path d="M 214.612648 320.4 
L 216.188029 320.4 
L 216.188029 320.331994 
L 214.612648 320.331994 
z
" clip-path="url(#pc06298a25d)" style="fill: #1f77b4"/>
   </g>
   <g id="patch_67">
    <path d="M 216.188029 320.4 
L 217.763411 320.4 
L 217.763411 320.4 
L 216.188029 320.4 
z
" clip-path="url(#pc06298a25d)" style="fill: #1f77b4"/>
   </g>
   <g id="patch_68">
    <path d="M 217.763411 320.4 
L 219.338792 320.4 
L 219.338792 320.263988 
L 217.763411 320.263988 
z
" clip-path="url(#pc06298a25d)" style="fill: #1f77b4"/>
   </g>
   <g id="patch_69">
    <path d="M 219.338792 320.4 
L 220.914173 320.4 
L 220.914173 320.331994 
L 219.338792 320.331994 
z
" clip-path="url(#pc06298a25d)" style="fill: #1f77b4"/>
   </g>
   <g id="patch_70">
    <path d="M 220.914173 320.4 
L 222.489554 320.4 
L 222.489554 320.4 
L 220.914173 320.4 
z
" clip-path="url(#pc06298a25d)" style="fill: #1f77b4"/>
   </g>
   <g id="patch_71">
    <path d="M 222.489554 320.4 
L 224.064935 320.4 
L 224.064935 320.195981 
L 222.489554 320.195981 
z
" clip-path="url(#pc06298a25d)" style="fill: #1f77b4"/>
   </g>
   <g id="patch_72">
    <path d="M 224.064935 320.4 
L 225.640316 320.4 
L 225.640316 320.4 
L 224.064935 320.4 
z
" clip-path="url(#pc06298a25d)" style="fill: #1f77b4"/>
   </g>
   <g id="patch_73">
    <path d="M 225.640316 320.4 
L 227.215697 320.4 
L 227.215697 320.331994 
L 225.640316 320.331994 
z
" clip-path="url(#pc06298a25d)" style="fill: #1f77b4"/>
   </g>
   <g id="patch_74">
    <path d="M 227.215697 320.4 
L 228.791078 320.4 
L 228.791078 320.127975 
L 227.215697 320.127975 
z
" clip-path="url(#pc06298a25d)" style="fill: #1f77b4"/>
   </g>
   <g id="patch_75">
    <path d="M 228.791078 320.4 
L 230.36646 320.4 
L 230.36646 320.263988 
L 228.791078 320.263988 
z
" clip-path="url(#pc06298a25d)" style="fill: #1f77b4"/>
   </g>
   <g id="patch_76">
    <path d="M 230.36646 320.4 
L 231.941841 320.4 
L 231.941841 320.263988 
L 230.36646 320.263988 
z
" clip-path="url(#pc06298a25d)" style="fill: #1f77b4"/>
   </g>
   <g id="patch_77">
    <path d="M 231.941841 320.4 
L 233.517222 320.4 
L 233.517222 320.263988 
L 231.941841 320.263988 
z
" clip-path="url(#pc06298a25d)" style="fill: #1f77b4"/>
   </g>
   <g id="patch_78">
    <path d="M 233.517222 320.4 
L 235.092603 320.4 
L 235.092603 320.127975 
L 233.517222 320.127975 
z
" clip-path="url(#pc06298a25d)" style="fill: #1f77b4"/>
   </g>
   <g id="patch_79">
    <path d="M 235.092603 320.4 
L 236.667984 320.4 
L 236.667984 320.127975 
L 235.092603 320.127975 
z
" clip-path="url(#pc06298a25d)" style="fill: #1f77b4"/>
   </g>
   <g id="patch_80">
    <path d="M 236.667984 320.4 
L 238.243365 320.4 
L 238.243365 320.195981 
L 236.667984 320.195981 
z
" clip-path="url(#pc06298a25d)" style="fill: #1f77b4"/>
   </g>
   <g id="patch_81">
    <path d="M 238.243365 320.4 
L 239.818746 320.4 
L 239.818746 320.263988 
L 238.243365 320.263988 
z
" clip-path="url(#pc06298a25d)" style="fill: #1f77b4"/>
   </g>
   <g id="patch_82">
    <path d="M 239.818746 320.4 
L 241.394128 320.4 
L 241.394128 320.195981 
L 239.818746 320.195981 
z
" clip-path="url(#pc06298a25d)" style="fill: #1f77b4"/>
   </g>
   <g id="patch_83">
    <path d="M 241.394128 320.4 
L 242.969509 320.4 
L 242.969509 320.195981 
L 241.394128 320.195981 
z
" clip-path="url(#pc06298a25d)" style="fill: #1f77b4"/>
   </g>
   <g id="patch_84">
    <path d="M 242.969509 320.4 
L 244.54489 320.4 
L 244.54489 319.923957 
L 242.969509 319.923957 
z
" clip-path="url(#pc06298a25d)" style="fill: #1f77b4"/>
   </g>
   <g id="patch_85">
    <path d="M 244.54489 320.4 
L 246.120271 320.4 
L 246.120271 320.195981 
L 244.54489 320.195981 
z
" clip-path="url(#pc06298a25d)" style="fill: #1f77b4"/>
   </g>
   <g id="patch_86">
    <path d="M 246.120271 320.4 
L 247.695652 320.4 
L 247.695652 320.127975 
L 246.120271 320.127975 
z
" clip-path="url(#pc06298a25d)" style="fill: #1f77b4"/>
   </g>
   <g id="patch_87">
    <path d="M 247.695652 320.4 
L 249.271033 320.4 
L 249.271033 320.127975 
L 247.695652 320.127975 
z
" clip-path="url(#pc06298a25d)" style="fill: #1f77b4"/>
   </g>
   <g id="patch_88">
    <path d="M 249.271033 320.4 
L 250.846414 320.4 
L 250.846414 319.855951 
L 249.271033 319.855951 
z
" clip-path="url(#pc06298a25d)" style="fill: #1f77b4"/>
   </g>
   <g id="patch_89">
    <path d="M 250.846414 320.4 
L 252.421796 320.4 
L 252.421796 319.991963 
L 250.846414 319.991963 
z
" clip-path="url(#pc06298a25d)" style="fill: #1f77b4"/>
   </g>
   <g id="patch_90">
    <path d="M 252.421796 320.4 
L 253.997177 320.4 
L 253.997177 319.787944 
L 252.421796 319.787944 
z
" clip-path="url(#pc06298a25d)" style="fill: #1f77b4"/>
   </g>
   <g id="patch_91">
    <path d="M 253.997177 320.4 
L 255.572558 320.4 
L 255.572558 320.059969 
L 253.997177 320.059969 
z
" clip-path="url(#pc06298a25d)" style="fill: #1f77b4"/>
   </g>
   <g id="patch_92">
    <path d="M 255.572558 320.4 
L 257.147939 320.4 
L 257.147939 319.651932 
L 255.572558 319.651932 
z
" clip-path="url(#pc06298a25d)" style="fill: #1f77b4"/>
   </g>
   <g id="patch_93">
    <path d="M 257.147939 320.4 
L 258.72332 320.4 
L 258.72332 319.51592 
L 257.147939 319.51592 
z
" clip-path="url(#pc06298a25d)" style="fill: #1f77b4"/>
   </g>
   <g id="patch_94">
    <path d="M 258.72332 320.4 
L 260.298701 320.4 
L 260.298701 319.447913 
L 258.72332 319.447913 
z
" clip-path="url(#pc06298a25d)" style="fill: #1f77b4"/>
   </g>
   <g id="patch_95">
    <path d="M 260.298701 320.4 
L 261.874082 320.4 
L 261.874082 319.583926 
L 260.298701 319.583926 
z
" clip-path="url(#pc06298a25d)" style="fill: #1f77b4"/>
   </g>
   <g id="patch_96">
    <path d="M 261.874082 320.4 
L 263.449464 320.4 
L 263.449464 319.719938 
L 261.874082 319.719938 
z
" clip-path="url(#pc06298a25d)" style="fill: #1f77b4"/>
   </g>
   <g id="patch_97">
    <path d="M 263.449464 320.4 
L 265.024845 320.4 
L 265.024845 319.651932 
L 263.449464 319.651932 
z
" clip-path="url(#pc06298a25d)" style="fill: #1f77b4"/>
   </g>
   <g id="patch_98">
    <path d="M 265.024845 320.4 
L 266.600226 320.4 
L 266.600226 319.651932 
L 265.024845 319.651932 
z
" clip-path="url(#pc06298a25d)" style="fill: #1f77b4"/>
   </g>
   <g id="patch_99">
    <path d="M 266.600226 320.4 
L 268.175607 320.4 
L 268.175607 319.379907 
L 266.600226 319.379907 
z
" clip-path="url(#pc06298a25d)" style="fill: #1f77b4"/>
   </g>
   <g id="patch_100">
    <path d="M 268.175607 320.4 
L 269.750988 320.4 
L 269.750988 319.107883 
L 268.175607 319.107883 
z
" clip-path="url(#pc06298a25d)" style="fill: #1f77b4"/>
   </g>
   <g id="patch_101">
    <path d="M 269.750988 320.4 
L 271.326369 320.4 
L 271.326369 319.107883 
L 269.750988 319.107883 
z
" clip-path="url(#pc06298a25d)" style="fill: #1f77b4"/>
   </g>
   <g id="patch_102">
    <path d="M 271.326369 320.4 
L 272.90175 320.4 
L 272.90175 318.835858 
L 271.326369 318.835858 
z
" clip-path="url(#pc06298a25d)" style="fill: #1f77b4"/>
   </g>
   <g id="patch_103">
    <path d="M 272.90175 320.4 
L 274.477132 320.4 
L 274.477132 319.107883 
L 272.90175 319.107883 
z
" clip-path="url(#pc06298a25d)" style="fill: #1f77b4"/>
   </g>
   <g id="patch_104">
    <path d="M 274.477132 320.4 
L 276.052513 320.4 
L 276.052513 318.495827 
L 274.477132 318.495827 
z
" clip-path="url(#pc06298a25d)" style="fill: #1f77b4"/>
   </g>
   <g id="patch_105">
    <path d="M 276.052513 320.4 
L 277.627894 320.4 
L 277.627894 317.679753 
L 276.052513 317.679753 
z
" clip-path="url(#pc06298a25d)" style="fill: #1f77b4"/>
   </g>
   <g id="patch_106">
    <path d="M 277.627894 320.4 
L 279.203275 320.4 
L 279.203275 318.563833 
L 277.627894 318.563833 
z
" clip-path="url(#pc06298a25d)" style="fill: #1f77b4"/>
   </g>
   <g id="patch_107">
    <path d="M 279.203275 320.4 
L 280.778656 320.4 
L 280.778656 317.339722 
L 279.203275 317.339722 
z
" clip-path="url(#pc06298a25d)" style="fill: #1f77b4"/>
   </g>
   <g id="patch_108">
    <path d="M 280.778656 320.4 
L 282.354037 320.4 
L 282.354037 317.067697 
L 280.778656 317.067697 
z
" clip-path="url(#pc06298a25d)" style="fill: #1f77b4"/>
   </g>
   <g id="patch_109">
    <path d="M 282.354037 320.4 
L 283.929418 320.4 
L 283.929418 316.523648 
L 282.354037 316.523648 
z
" clip-path="url(#pc06298a25d)" style="fill: #1f77b4"/>
   </g>
   <g id="patch_110">
    <path d="M 283.929418 320.4 
L 285.5048 320.4 
L 285.5048 316.999691 
L 283.929418 316.999691 
z
" clip-path="url(#pc06298a25d)" style="fill: #1f77b4"/>
   </g>
   <g id="patch_111">
    <path d="M 285.5048 320.4 
L 287.080181 320.4 
L 287.080181 315.979598 
L 285.5048 315.979598 
z
" clip-path="url(#pc06298a25d)" style="fill: #1f77b4"/>
   </g>
   <g id="patch_112">
    <path d="M 287.080181 320.4 
L 288.655562 320.4 
L 288.655562 315.095518 
L 287.080181 315.095518 
z
" clip-path="url(#pc06298a25d)" style="fill: #1f77b4"/>
   </g>
   <g id="patch_113">
    <path d="M 288.655562 320.4 
L 290.230943 320.4 
L 290.230943 315.23153 
L 288.655562 315.23153 
z
" clip-path="url(#pc06298a25d)" style="fill: #1f77b4"/>
   </g>
   <g id="patch_114">
    <path d="M 290.230943 320.4 
L 291.806324 320.4 
L 291.806324 315.027512 
L 290.230943 315.027512 
z
" clip-path="url(#pc06298a25d)" style="fill: #1f77b4"/>
   </g>
   <g id="patch_115">
    <path d="M 291.806324 320.4 
L 293.381705 320.4 
L 293.381705 313.735394 
L 291.806324 313.735394 
z
" clip-path="url(#pc06298a25d)" style="fill: #1f77b4"/>
   </g>
   <g id="patch_116">
    <path d="M 293.381705 320.4 
L 294.957086 320.4 
L 294.957086 312.171252 
L 293.381705 312.171252 
z
" clip-path="url(#pc06298a25d)" style="fill: #1f77b4"/>
   </g>
   <g id="patch_117">
    <path d="M 294.957086 320.4 
L 296.532468 320.4 
L 296.532468 310.60711 
L 294.957086 310.60711 
z
" clip-path="url(#pc06298a25d)" style="fill: #1f77b4"/>
   </g>
   <g id="patch_118">
    <path d="M 296.532468 320.4 
L 298.107849 320.4 
L 298.107849 309.382998 
L 296.532468 309.382998 
z
" clip-path="url(#pc06298a25d)" style="fill: #1f77b4"/>
   </g>
   <g id="patch_119">
    <path d="M 298.107849 320.4 
L 299.68323 320.4 
L 299.68323 308.430912 
L 298.107849 308.430912 
z
" clip-path="url(#pc06298a25d)" style="fill: #1f77b4"/>
   </g>
   <g id="patch_120">
    <path d="M 299.68323 320.4 
L 301.258611 320.4 
L 301.258611 304.690572 
L 299.68323 304.690572 
z
" clip-path="url(#pc06298a25d)" style="fill: #1f77b4"/>
   </g>
   <g id="patch_121">
    <path d="M 301.258611 320.4 
L 302.833992 320.4 
L 302.833992 302.854405 
L 301.258611 302.854405 
z
" clip-path="url(#pc06298a25d)" style="fill: #1f77b4"/>
   </g>
   <g id="patch_122">
    <path d="M 302.833992 320.4 
L 304.409373 320.4 
L 304.409373 300.338176 
L 302.833992 300.338176 
z
" clip-path="url(#pc06298a25d)" style="fill: #1f77b4"/>
   </g>
   <g id="patch_123">
    <path d="M 304.409373 320.4 
L 305.984754 320.4 
L 305.984754 300.066151 
L 304.409373 300.066151 
z
" clip-path="url(#pc06298a25d)" style="fill: #1f77b4"/>
   </g>
   <g id="patch_124">
    <path d="M 305.984754 320.4 
L 307.560136 320.4 
L 307.560136 298.638022 
L 305.984754 298.638022 
z
" clip-path="url(#pc06298a25d)" style="fill: #1f77b4"/>
   </g>
   <g id="patch_125">
    <path d="M 307.560136 320.4 
L 309.135517 320.4 
L 309.135517 297.95796 
L 307.560136 297.95796 
z
" clip-path="url(#pc06298a25d)" style="fill: #1f77b4"/>
   </g>
   <g id="patch_126">
    <path d="M 309.135517 320.4 
L 310.710898 320.4 
L 310.710898 295.441731 
L 309.135517 295.441731 
z
" clip-path="url(#pc06298a25d)" style="fill: #1f77b4"/>
   </g>
   <g id="patch_127">
    <path d="M 310.710898 320.4 
L 312.286279 320.4 
L 312.286279 294.149614 
L 310.710898 294.149614 
z
" clip-path="url(#pc06298a25d)" style="fill: #1f77b4"/>
   </g>
   <g id="patch_128">
    <path d="M 312.286279 320.4 
L 313.86166 320.4 
L 313.86166 294.285626 
L 312.286279 294.285626 
z
" clip-path="url(#pc06298a25d)" style="fill: #1f77b4"/>
   </g>
   <g id="patch_129">
    <path d="M 313.86166 320.4 
L 315.437041 320.4 
L 315.437041 293.061515 
L 313.86166 293.061515 
z
" clip-path="url(#pc06298a25d)" style="fill: #1f77b4"/>
   </g>
   <g id="patch_130">
    <path d="M 315.437041 320.4 
L 317.012422 320.4 
L 317.012422 292.24544 
L 315.437041 292.24544 
z
" clip-path="url(#pc06298a25d)" style="fill: #1f77b4"/>
   </g>
   <g id="patch_131">
    <path d="M 317.012422 320.4 
L 318.587804 320.4 
L 318.587804 290.47728 
L 317.012422 290.47728 
z
" clip-path="url(#pc06298a25d)" style="fill: #1f77b4"/>
   </g>
   <g id="patch_132">
    <path d="M 318.587804 320.4 
L 320.163185 320.4 
L 320.163185 291.701391 
L 318.587804 291.701391 
z
" clip-path="url(#pc06298a25d)" style="fill: #1f77b4"/>
   </g>
   <g id="patch_133">
    <path d="M 320.163185 320.4 
L 321.738566 320.4 
L 321.738566 291.225348 
L 320.163185 291.225348 
z
" clip-path="url(#pc06298a25d)" style="fill: #1f77b4"/>
   </g>
   <g id="patch_134">
    <path d="M 321.738566 320.4 
L 323.313947 320.4 
L 323.313947 294.285626 
L 321.738566 294.285626 
z
" clip-path="url(#pc06298a25d)" style="fill: #1f77b4"/>
   </g>
   <g id="patch_135">
    <path d="M 323.313947 320.4 
L 324.889328 320.4 
L 324.889328 292.517465 
L 323.313947 292.517465 
z
" clip-path="url(#pc06298a25d)" style="fill: #1f77b4"/>
   </g>
   <g id="patch_136">
    <path d="M 324.889328 320.4 
L 326.464709 320.4 
L 326.464709 293.67357 
L 324.889328 293.67357 
z
" clip-path="url(#pc06298a25d)" style="fill: #1f77b4"/>
   </g>
   <g id="patch_137">
    <path d="M 326.464709 320.4 
L 328.04009 320.4 
L 328.04009 296.393818 
L 326.464709 296.393818 
z
" clip-path="url(#pc06298a25d)" style="fill: #1f77b4"/>
   </g>
   <g id="patch_138">
    <path d="M 328.04009 320.4 
L 329.615471 320.4 
L 329.615471 297.549923 
L 328.04009 297.549923 
z
" clip-path="url(#pc06298a25d)" style="fill: #1f77b4"/>
   </g>
   <g id="patch_139">
    <path d="M 329.615471 320.4 
L 331.190853 320.4 
L 331.190853 299.862133 
L 329.615471 299.862133 
z
" clip-path="url(#pc06298a25d)" style="fill: #1f77b4"/>
   </g>
   <g id="patch_140">
    <path d="M 331.190853 320.4 
L 332.766234 320.4 
L 332.766234 298.434003 
L 331.190853 298.434003 
z
" clip-path="url(#pc06298a25d)" style="fill: #1f77b4"/>
   </g>
   <g id="patch_141">
    <path d="M 332.766234 320.4 
L 334.341615 320.4 
L 334.341615 299.046059 
L 332.766234 299.046059 
z
" clip-path="url(#pc06298a25d)" style="fill: #1f77b4"/>
   </g>
   <g id="patch_142">
    <path d="M 334.341615 320.4 
L 335.916996 320.4 
L 335.916996 299.794127 
L 334.341615 299.794127 
z
" clip-path="url(#pc06298a25d)" style="fill: #1f77b4"/>
   </g>
   <g id="patch_143">
    <path d="M 335.916996 320.4 
L 337.492377 320.4 
L 337.492377 299.318083 
L 335.916996 299.318083 
z
" clip-path="url(#pc06298a25d)" style="fill: #1f77b4"/>
   </g>
   <g id="patch_144">
    <path d="M 337.492377 320.4 
L 339.067758 320.4 
L 339.067758 295.713756 
L 337.492377 295.713756 
z
" clip-path="url(#pc06298a25d)" style="fill: #1f77b4"/>
   </g>
   <g id="patch_145">
    <path d="M 339.067758 320.4 
L 340.643139 320.4 
L 340.643139 294.693663 
L 339.067758 294.693663 
z
" clip-path="url(#pc06298a25d)" style="fill: #1f77b4"/>
   </g>
   <g id="patch_146">
    <path d="M 340.643139 320.4 
L 342.218521 320.4 
L 342.218521 293.401546 
L 340.643139 293.401546 
z
" clip-path="url(#pc06298a25d)" style="fill: #1f77b4"/>
   </g>
   <g id="patch_147">
    <path d="M 342.218521 320.4 
L 343.793902 320.4 
L 343.793902 294.285626 
L 342.218521 294.285626 
z
" clip-path="url(#pc06298a25d)" style="fill: #1f77b4"/>
   </g>
   <g id="patch_148">
    <path d="M 343.793902 320.4 
L 345.369283 320.4 
L 345.369283 287.485008 
L 343.793902 287.485008 
z
" clip-path="url(#pc06298a25d)" style="fill: #1f77b4"/>
   </g>
   <g id="patch_149">
    <path d="M 345.369283 320.4 
L 346.944664 320.4 
L 346.944664 285.648841 
L 345.369283 285.648841 
z
" clip-path="url(#pc06298a25d)" style="fill: #1f77b4"/>
   </g>
   <g id="patch_150">
    <path d="M 346.944664 320.4 
L 348.520045 320.4 
L 348.520045 276.4 
L 346.944664 276.4 
z
" clip-path="url(#pc06298a25d)" style="fill: #1f77b4"/>
   </g>
   <g id="patch_151">
    <path d="M 348.520045 320.4 
L 350.095426 320.4 
L 350.095426 268.783308 
L 348.520045 268.783308 
z
" clip-path="url(#pc06298a25d)" style="fill: #1f77b4"/>
   </g>
   <g id="patch_152">
    <path d="M 350.095426 320.4 
L 351.670807 320.4 
L 351.670807 264.2949 
L 350.095426 264.2949 
z
" clip-path="url(#pc06298a25d)" style="fill: #1f77b4"/>
   </g>
   <g id="patch_153">
    <path d="M 351.670807 320.4 
L 353.246189 320.4 
L 353.246189 261.370634 
L 351.670807 261.370634 
z
" clip-path="url(#pc06298a25d)" style="fill: #1f77b4"/>
   </g>
   <g id="patch_154">
    <path d="M 353.246189 320.4 
L 354.82157 320.4 
L 354.82157 265.110974 
L 353.246189 265.110974 
z
" clip-path="url(#pc06298a25d)" style="fill: #1f77b4"/>
   </g>
   <g id="patch_155">
    <path d="M 354.82157 320.4 
L 356.396951 320.4 
L 356.396951 261.43864 
L 354.82157 261.43864 
z
" clip-path="url(#pc06298a25d)" style="fill: #1f77b4"/>
   </g>
   <g id="patch_156">
    <path d="M 356.396951 320.4 
L 357.972332 320.4 
L 357.972332 254.297991 
L 356.396951 254.297991 
z
" clip-path="url(#pc06298a25d)" style="fill: #1f77b4"/>
   </g>
   <g id="patch_157">
    <path d="M 357.972332 320.4 
L 359.547713 320.4 
L 359.547713 243.485008 
L 357.972332 243.485008 
z
" clip-path="url(#pc06298a25d)" style="fill: #1f77b4"/>
   </g>
   <g id="patch_158">
    <path d="M 359.547713 320.4 
L 361.123094 320.4 
L 361.123094 240.900773 
L 359.547713 240.900773 
z
" clip-path="url(#pc06298a25d)" style="fill: #1f77b4"/>
   </g>
   <g id="patch_159">
    <path d="M 361.123094 320.4 
L 362.698475 320.4 
L 362.698475 242.396909 
L 361.123094 242.396909 
z
" clip-path="url(#pc06298a25d)" style="fill: #1f77b4"/>
   </g>
   <g id="patch_160">
    <path d="M 362.698475 320.4 
L 364.273857 320.4 
L 364.273857 247.36136 
L 362.698475 247.36136 
z
" clip-path="url(#pc06298a25d)" style="fill: #1f77b4"/>
   </g>
   <g id="patch_161">
    <path d="M 364.273857 320.4 
L 365.849238 320.4 
L 365.849238 249.129521 
L 364.273857 249.129521 
z
" clip-path="url(#pc06298a25d)" style="fill: #1f77b4"/>
   </g>
   <g id="patch_162">
    <path d="M 365.849238 320.4 
L 367.424619 320.4 
L 367.424619 242.260896 
L 365.849238 242.260896 
z
" clip-path="url(#pc06298a25d)" style="fill: #1f77b4"/>
   </g>
   <g id="patch_163">
    <path d="M 367.424619 320.4 
L 369 320.4 
L 369 231.311901 
L 367.424619 231.311901 
z
" clip-path="url(#pc06298a25d)" style="fill: #1f77b4"/>
   </g>
   <g id="patch_164">
    <path d="M 369 320.4 
L 370.575381 320.4 
L 370.575381 209.41391 
L 369 209.41391 
z
" clip-path="url(#pc06298a25d)" style="fill: #1f77b4"/>
   </g>
   <g id="patch_165">
    <path d="M 370.575381 320.4 
L 372.150762 320.4 
L 372.150762 180.307264 
L 370.575381 180.307264 
z
" clip-path="url(#pc06298a25d)" style="fill: #1f77b4"/>
   </g>
   <g id="patch_166">
    <path d="M 372.150762 320.4 
L 373.726143 320.4 
L 373.726143 106.792581 
L 372.150762 106.792581 
z
" clip-path="url(#pc06298a25d)" style="fill: #1f77b4"/>
   </g>
   <g id="patch_167">
    <path d="M 373.726143 320.4 
L 375.301525 320.4 
L 375.301525 56.4 
L 373.726143 56.4 
z
" clip-path="url(#pc06298a25d)" style="fill: #1f77b4"/>
   </g>
   <g id="patch_168">
    <path d="M 375.301525 320.4 
L 376.876906 320.4 
L 376.876906 140.523648 
L 375.301525 140.523648 
z
" clip-path="url(#pc06298a25d)" style="fill: #1f77b4"/>
   </g>
   <g id="patch_169">
    <path d="M 376.876906 320.4 
L 378.452287 320.4 
L 378.452287 182.075425 
L 376.876906 182.075425 
z
" clip-path="url(#pc06298a25d)" style="fill: #1f77b4"/>
   </g>
   <g id="patch_170">
    <path d="M 378.452287 320.4 
L 380.027668 320.4 
L 380.027668 214.106337 
L 378.452287 214.106337 
z
" clip-path="url(#pc06298a25d)" style="fill: #1f77b4"/>
   </g>
   <g id="patch_171">
    <path d="M 380.027668 320.4 
L 381.603049 320.4 
L 381.603049 241.240804 
L 380.027668 241.240804 
z
" clip-path="url(#pc06298a25d)" style="fill: #1f77b4"/>
   </g>
   <g id="patch_172">
    <path d="M 381.603049 320.4 
L 383.17843 320.4 
L 383.17843 254.84204 
L 381.603049 254.84204 
z
" clip-path="url(#pc06298a25d)" style="fill: #1f77b4"/>
   </g>
   <g id="patch_173">
    <path d="M 383.17843 320.4 
L 384.753811 320.4 
L 384.753811 250.557651 
L 383.17843 250.557651 
z
" clip-path="url(#pc06298a25d)" style="fill: #1f77b4"/>
   </g>
   <g id="patch_174">
    <path d="M 384.753811 320.4 
L 386.329193 320.4 
L 386.329193 239.948686 
L 384.753811 239.948686 
z
" clip-path="url(#pc06298a25d)" style="fill: #1f77b4"/>
   </g>
   <g id="patch_175">
    <path d="M 386.329193 320.4 
L 387.904574 320.4 
L 387.904574 239.88068 
L 386.329193 239.88068 
z
" clip-path="url(#pc06298a25d)" style="fill: #1f77b4"/>
   </g>
   <g id="patch_176">
    <path d="M 387.904574 320.4 
L 389.479955 320.4 
L 389.479955 263.002782 
L 387.904574 263.002782 
z
" clip-path="url(#pc06298a25d)" style="fill: #1f77b4"/>
   </g>
   <g id="patch_177">
    <path d="M 389.479955 320.4 
L 391.055336 320.4 
L 391.055336 278.508192 
L 389.479955 278.508192 
z
" clip-path="url(#pc06298a25d)" style="fill: #1f77b4"/>
   </g>
   <g id="patch_178">
    <path d="M 391.055336 320.4 
L 392.630717 320.4 
L 392.630717 285.240804 
L 391.055336 285.240804 
z
" clip-path="url(#pc06298a25d)" style="fill: #1f77b4"/>
   </g>
   <g id="patch_179">
    <path d="M 392.630717 320.4 
L 394.206098 320.4 
L 394.206098 289.321175 
L 392.630717 289.321175 
z
" clip-path="url(#pc06298a25d)" style="fill: #1f77b4"/>
   </g>
   <g id="patch_180">
    <path d="M 394.206098 320.4 
L 395.781479 320.4 
L 395.781479 289.117156 
L 394.206098 289.117156 
z
" clip-path="url(#pc06298a25d)" style="fill: #1f77b4"/>
   </g>
   <g id="patch_181">
    <path d="M 395.781479 320.4 
L 397.356861 320.4 
L 397.356861 289.04915 
L 395.781479 289.04915 
z
" clip-path="url(#pc06298a25d)" style="fill: #1f77b4"/>
   </g>
   <g id="patch_182">
    <path d="M 397.356861 320.4 
L 398.932242 320.4 
L 398.932242 290.47728 
L 397.356861 290.47728 
z
" clip-path="url(#pc06298a25d)" style="fill: #1f77b4"/>
   </g>
   <g id="patch_183">
    <path d="M 398.932242 320.4 
L 400.507623 320.4 
L 400.507623 296.393818 
L 398.932242 296.393818 
z
" clip-path="url(#pc06298a25d)" style="fill: #1f77b4"/>
   </g>
   <g id="patch_184">
    <path d="M 400.507623 320.4 
L 402.083004 320.4 
L 402.083004 297.141886 
L 400.507623 297.141886 
z
" clip-path="url(#pc06298a25d)" style="fill: #1f77b4"/>
   </g>
   <g id="patch_185">
    <path d="M 402.083004 320.4 
L 403.658385 320.4 
L 403.658385 301.15425 
L 402.083004 301.15425 
z
" clip-path="url(#pc06298a25d)" style="fill: #1f77b4"/>
   </g>
   <g id="patch_186">
    <path d="M 403.658385 320.4 
L 405.233766 320.4 
L 405.233766 301.290263 
L 403.658385 301.290263 
z
" clip-path="url(#pc06298a25d)" style="fill: #1f77b4"/>
   </g>
   <g id="patch_187">
    <path d="M 405.233766 320.4 
L 406.809147 320.4 
L 406.809147 302.310355 
L 405.233766 302.310355 
z
" clip-path="url(#pc06298a25d)" style="fill: #1f77b4"/>
   </g>
   <g id="patch_188">
    <path d="M 406.809147 320.4 
L 408.384529 320.4 
L 408.384529 306.050696 
L 406.809147 306.050696 
z
" clip-path="url(#pc06298a25d)" style="fill: #1f77b4"/>
   </g>
   <g id="patch_189">
    <path d="M 408.384529 320.4 
L 409.95991 320.4 
L 409.95991 307.070788 
L 408.384529 307.070788 
z
" clip-path="url(#pc06298a25d)" style="fill: #1f77b4"/>
   </g>
   <g id="patch_190">
    <path d="M 409.95991 320.4 
L 411.535291 320.4 
L 411.535291 305.098609 
L 409.95991 305.098609 
z
" clip-path="url(#pc06298a25d)" style="fill: #1f77b4"/>
   </g>
   <g id="patch_191">
    <path d="M 411.535291 320.4 
L 413.110672 320.4 
L 413.110672 305.234621 
L 411.535291 305.234621 
z
" clip-path="url(#pc06298a25d)" style="fill: #1f77b4"/>
   </g>
   <g id="patch_192">
    <path d="M 413.110672 320.4 
L 414.686053 320.4 
L 414.686053 304.826584 
L 413.110672 304.826584 
z
" clip-path="url(#pc06298a25d)" style="fill: #1f77b4"/>
   </g>
   <g id="patch_193">
    <path d="M 414.686053 320.4 
L 416.261434 320.4 
L 416.261434 305.234621 
L 414.686053 305.234621 
z
" clip-path="url(#pc06298a25d)" style="fill: #1f77b4"/>
   </g>
   <g id="patch_194">
    <path d="M 416.261434 320.4 
L 417.836815 320.4 
L 417.836815 304.078516 
L 416.261434 304.078516 
z
" clip-path="url(#pc06298a25d)" style="fill: #1f77b4"/>
   </g>
   <g id="patch_195">
    <path d="M 417.836815 320.4 
L 419.412196 320.4 
L 419.412196 304.55456 
L 417.836815 304.55456 
z
" clip-path="url(#pc06298a25d)" style="fill: #1f77b4"/>
   </g>
   <g id="patch_196">
    <path d="M 419.412196 320.4 
L 420.987578 320.4 
L 420.987578 303.194436 
L 419.412196 303.194436 
z
" clip-path="url(#pc06298a25d)" style="fill: #1f77b4"/>
   </g>
   <g id="patch_197">
    <path d="M 420.987578 320.4 
L 422.562959 320.4 
L 422.562959 301.562287 
L 420.987578 301.562287 
z
" clip-path="url(#pc06298a25d)" style="fill: #1f77b4"/>
   </g>
   <g id="patch_198">
    <path d="M 422.562959 320.4 
L 424.13834 320.4 
L 424.13834 301.290263 
L 422.562959 301.290263 
z
" clip-path="url(#pc06298a25d)" style="fill: #1f77b4"/>
   </g>
   <g id="patch_199">
    <path d="M 424.13834 320.4 
L 425.713721 320.4 
L 425.713721 300.27017 
L 424.13834 300.27017 
z
" clip-path="url(#pc06298a25d)" style="fill: #1f77b4"/>
   </g>
   <g id="patch_200">
    <path d="M 425.713721 320.4 
L 427.289102 320.4 
L 427.289102 300.746213 
L 425.713721 300.746213 
z
" clip-path="url(#pc06298a25d)" style="fill: #1f77b4"/>
   </g>
   <g id="patch_201">
    <path d="M 427.289102 320.4 
L 428.864483 320.4 
L 428.864483 296.937867 
L 427.289102 296.937867 
z
" clip-path="url(#pc06298a25d)" style="fill: #1f77b4"/>
   </g>
   <g id="patch_202">
    <path d="M 428.864483 320.4 
L 430.439864 320.4 
L 430.439864 298.434003 
L 428.864483 298.434003 
z
" clip-path="url(#pc06298a25d)" style="fill: #1f77b4"/>
   </g>
   <g id="patch_203">
    <path d="M 430.439864 320.4 
L 432.015246 320.4 
L 432.015246 302.038331 
L 430.439864 302.038331 
z
" clip-path="url(#pc06298a25d)" style="fill: #1f77b4"/>
   </g>
   <g id="patch_204">
    <path d="M 432.015246 320.4 
L 433.590627 320.4 
L 433.590627 301.834312 
L 432.015246 301.834312 
z
" clip-path="url(#pc06298a25d)" style="fill: #1f77b4"/>
   </g>
   <g id="patch_205">
    <path d="M 433.590627 320.4 
L 435.166008 320.4 
L 435.166008 303.194436 
L 433.590627 303.194436 
z
" clip-path="url(#pc06298a25d)" style="fill: #1f77b4"/>
   </g>
   <g id="patch_206">
    <path d="M 435.166008 320.4 
L 436.741389 320.4 
L 436.741389 303.398454 
L 435.166008 303.398454 
z
" clip-path="url(#pc06298a25d)" style="fill: #1f77b4"/>
   </g>
   <g id="patch_207">
    <path d="M 436.741389 320.4 
L 438.31677 320.4 
L 438.31677 307.002782 
L 436.741389 307.002782 
z
" clip-path="url(#pc06298a25d)" style="fill: #1f77b4"/>
   </g>
   <g id="patch_208">
    <path d="M 438.31677 320.4 
L 439.892151 320.4 
L 439.892151 307.546832 
L 438.31677 307.546832 
z
" clip-path="url(#pc06298a25d)" style="fill: #1f77b4"/>
   </g>
   <g id="patch_209">
    <path d="M 439.892151 320.4 
L 441.467532 320.4 
L 441.467532 308.702937 
L 439.892151 308.702937 
z
" clip-path="url(#pc06298a25d)" style="fill: #1f77b4"/>
   </g>
   <g id="patch_210">
    <path d="M 441.467532 320.4 
L 443.042914 320.4 
L 443.042914 308.974961 
L 441.467532 308.974961 
z
" clip-path="url(#pc06298a25d)" style="fill: #1f77b4"/>
   </g>
   <g id="patch_211">
    <path d="M 443.042914 320.4 
L 444.618295 320.4 
L 444.618295 309.995054 
L 443.042914 309.995054 
z
" clip-path="url(#pc06298a25d)" style="fill: #1f77b4"/>
   </g>
   <g id="patch_212">
    <path d="M 444.618295 320.4 
L 446.193676 320.4 
L 446.193676 310.335085 
L 444.618295 310.335085 
z
" clip-path="url(#pc06298a25d)" style="fill: #1f77b4"/>
   </g>
   <g id="patch_213">
    <path d="M 446.193676 320.4 
L 447.769057 320.4 
L 447.769057 312.307264 
L 446.193676 312.307264 
z
" clip-path="url(#pc06298a25d)" style="fill: #1f77b4"/>
   </g>
   <g id="patch_214">
    <path d="M 447.769057 320.4 
L 449.344438 320.4 
L 449.344438 313.259351 
L 447.769057 313.259351 
z
" clip-path="url(#pc06298a25d)" style="fill: #1f77b4"/>
   </g>
   <g id="patch_215">
    <path d="M 449.344438 320.4 
L 450.919819 320.4 
L 450.919819 315.367543 
L 449.344438 315.367543 
z
" clip-path="url(#pc06298a25d)" style="fill: #1f77b4"/>
   </g>
   <g id="patch_216">
    <path d="M 450.919819 320.4 
L 452.4952 320.4 
L 452.4952 314.415456 
L 450.919819 314.415456 
z
" clip-path="url(#pc06298a25d)" style="fill: #1f77b4"/>
   </g>
   <g id="patch_217">
    <path d="M 452.4952 320.4 
L 454.070582 320.4 
L 454.070582 316.999691 
L 452.4952 316.999691 
z
" clip-path="url(#pc06298a25d)" style="fill: #1f77b4"/>
   </g>
   <g id="patch_218">
    <path d="M 454.070582 320.4 
L 455.645963 320.4 
L 455.645963 317.475734 
L 454.070582 317.475734 
z
" clip-path="url(#pc06298a25d)" style="fill: #1f77b4"/>
   </g>
   <g id="patch_219">
    <path d="M 455.645963 320.4 
L 457.221344 320.4 
L 457.221344 318.019784 
L 455.645963 318.019784 
z
" clip-path="url(#pc06298a25d)" style="fill: #1f77b4"/>
   </g>
   <g id="patch_220">
    <path d="M 457.221344 320.4 
L 458.796725 320.4 
L 458.796725 318.08779 
L 457.221344 318.08779 
z
" clip-path="url(#pc06298a25d)" style="fill: #1f77b4"/>
   </g>
   <g id="patch_221">
    <path d="M 458.796725 320.4 
L 460.372106 320.4 
L 460.372106 317.951777 
L 458.796725 317.951777 
z
" clip-path="url(#pc06298a25d)" style="fill: #1f77b4"/>
   </g>
   <g id="patch_222">
    <path d="M 460.372106 320.4 
L 461.947487 320.4 
L 461.947487 318.427821 
L 460.372106 318.427821 
z
" clip-path="url(#pc06298a25d)" style="fill: #1f77b4"/>
   </g>
   <g id="patch_223">
    <path d="M 461.947487 320.4 
L 463.522868 320.4 
L 463.522868 318.835858 
L 461.947487 318.835858 
z
" clip-path="url(#pc06298a25d)" style="fill: #1f77b4"/>
   </g>
   <g id="patch_224">
    <path d="M 463.522868 320.4 
L 465.09825 320.4 
L 465.09825 319.175889 
L 463.522868 319.175889 
z
" clip-path="url(#pc06298a25d)" style="fill: #1f77b4"/>
   </g>
   <g id="patch_225">
    <path d="M 465.09825 320.4 
L 466.673631 320.4 
L 466.673631 319.175889 
L 465.09825 319.175889 
z
" clip-path="url(#pc06298a25d)" style="fill: #1f77b4"/>
   </g>
   <g id="patch_226">
    <path d="M 466.673631 320.4 
L 468.249012 320.4 
L 468.249012 319.923957 
L 466.673631 319.923957 
z
" clip-path="url(#pc06298a25d)" style="fill: #1f77b4"/>
   </g>
   <g id="patch_227">
    <path d="M 468.249012 320.4 
L 469.824393 320.4 
L 469.824393 319.51592 
L 468.249012 319.51592 
z
" clip-path="url(#pc06298a25d)" style="fill: #1f77b4"/>
   </g>
   <g id="patch_228">
    <path d="M 469.824393 320.4 
L 471.399774 320.4 
L 471.399774 319.651932 
L 469.824393 319.651932 
z
" clip-path="url(#pc06298a25d)" style="fill: #1f77b4"/>
   </g>
   <g id="patch_229">
    <path d="M 471.399774 320.4 
L 472.975155 320.4 
L 472.975155 319.583926 
L 471.399774 319.583926 
z
" clip-path="url(#pc06298a25d)" style="fill: #1f77b4"/>
   </g>
   <g id="patch_230">
    <path d="M 472.975155 320.4 
L 474.550536 320.4 
L 474.550536 319.855951 
L 472.975155 319.855951 
z
" clip-path="url(#pc06298a25d)" style="fill: #1f77b4"/>
   </g>
   <g id="patch_231">
    <path d="M 474.550536 320.4 
L 476.125918 320.4 
L 476.125918 319.719938 
L 474.550536 319.719938 
z
" clip-path="url(#pc06298a25d)" style="fill: #1f77b4"/>
   </g>
   <g id="patch_232">
    <path d="M 476.125918 320.4 
L 477.701299 320.4 
L 477.701299 319.855951 
L 476.125918 319.855951 
z
" clip-path="url(#pc06298a25d)" style="fill: #1f77b4"/>
   </g>
   <g id="patch_233">
    <path d="M 477.701299 320.4 
L 479.27668 320.4 
L 479.27668 320.059969 
L 477.701299 320.059969 
z
" clip-path="url(#pc06298a25d)" style="fill: #1f77b4"/>
   </g>
   <g id="patch_234">
    <path d="M 479.27668 320.4 
L 480.852061 320.4 
L 480.852061 319.991963 
L 479.27668 319.991963 
z
" clip-path="url(#pc06298a25d)" style="fill: #1f77b4"/>
   </g>
   <g id="patch_235">
    <path d="M 480.852061 320.4 
L 482.427442 320.4 
L 482.427442 319.923957 
L 480.852061 319.923957 
z
" clip-path="url(#pc06298a25d)" style="fill: #1f77b4"/>
   </g>
   <g id="patch_236">
    <path d="M 482.427442 320.4 
L 484.002823 320.4 
L 484.002823 319.991963 
L 482.427442 319.991963 
z
" clip-path="url(#pc06298a25d)" style="fill: #1f77b4"/>
   </g>
   <g id="patch_237">
    <path d="M 484.002823 320.4 
L 485.578204 320.4 
L 485.578204 320.127975 
L 484.002823 320.127975 
z
" clip-path="url(#pc06298a25d)" style="fill: #1f77b4"/>
   </g>
   <g id="patch_238">
    <path d="M 485.578204 320.4 
L 487.153586 320.4 
L 487.153586 320.127975 
L 485.578204 320.127975 
z
" clip-path="url(#pc06298a25d)" style="fill: #1f77b4"/>
   </g>
   <g id="patch_239">
    <path d="M 487.153586 320.4 
L 488.728967 320.4 
L 488.728967 320.059969 
L 487.153586 320.059969 
z
" clip-path="url(#pc06298a25d)" style="fill: #1f77b4"/>
   </g>
   <g id="patch_240">
    <path d="M 488.728967 320.4 
L 490.304348 320.4 
L 490.304348 319.991963 
L 488.728967 319.991963 
z
" clip-path="url(#pc06298a25d)" style="fill: #1f77b4"/>
   </g>
   <g id="patch_241">
    <path d="M 490.304348 320.4 
L 491.879729 320.4 
L 491.879729 320.059969 
L 490.304348 320.059969 
z
" clip-path="url(#pc06298a25d)" style="fill: #1f77b4"/>
   </g>
   <g id="patch_242">
    <path d="M 491.879729 320.4 
L 493.45511 320.4 
L 493.45511 320.263988 
L 491.879729 320.263988 
z
" clip-path="url(#pc06298a25d)" style="fill: #1f77b4"/>
   </g>
   <g id="patch_243">
    <path d="M 493.45511 320.4 
L 495.030491 320.4 
L 495.030491 319.923957 
L 493.45511 319.923957 
z
" clip-path="url(#pc06298a25d)" style="fill: #1f77b4"/>
   </g>
   <g id="patch_244">
    <path d="M 495.030491 320.4 
L 496.605872 320.4 
L 496.605872 320.195981 
L 495.030491 320.195981 
z
" clip-path="url(#pc06298a25d)" style="fill: #1f77b4"/>
   </g>
   <g id="patch_245">
    <path d="M 496.605872 320.4 
L 498.181254 320.4 
L 498.181254 320.059969 
L 496.605872 320.059969 
z
" clip-path="url(#pc06298a25d)" style="fill: #1f77b4"/>
   </g>
   <g id="patch_246">
    <path d="M 498.181254 320.4 
L 499.756635 320.4 
L 499.756635 320.127975 
L 498.181254 320.127975 
z
" clip-path="url(#pc06298a25d)" style="fill: #1f77b4"/>
   </g>
   <g id="patch_247">
    <path d="M 499.756635 320.4 
L 501.332016 320.4 
L 501.332016 320.127975 
L 499.756635 320.127975 
z
" clip-path="url(#pc06298a25d)" style="fill: #1f77b4"/>
   </g>
   <g id="patch_248">
    <path d="M 501.332016 320.4 
L 502.907397 320.4 
L 502.907397 320.263988 
L 501.332016 320.263988 
z
" clip-path="url(#pc06298a25d)" style="fill: #1f77b4"/>
   </g>
   <g id="patch_249">
    <path d="M 502.907397 320.4 
L 504.482778 320.4 
L 504.482778 320.263988 
L 502.907397 320.263988 
z
" clip-path="url(#pc06298a25d)" style="fill: #1f77b4"/>
   </g>
   <g id="patch_250">
    <path d="M 504.482778 320.4 
L 506.058159 320.4 
L 506.058159 320.331994 
L 504.482778 320.331994 
z
" clip-path="url(#pc06298a25d)" style="fill: #1f77b4"/>
   </g>
   <g id="patch_251">
    <path d="M 506.058159 320.4 
L 507.63354 320.4 
L 507.63354 320.331994 
L 506.058159 320.331994 
z
" clip-path="url(#pc06298a25d)" style="fill: #1f77b4"/>
   </g>
   <g id="patch_252">
    <path d="M 507.63354 320.4 
L 509.208922 320.4 
L 509.208922 320.263988 
L 507.63354 320.263988 
z
" clip-path="url(#pc06298a25d)" style="fill: #1f77b4"/>
   </g>
   <g id="patch_253">
    <path d="M 509.208922 320.4 
L 510.784303 320.4 
L 510.784303 320.059969 
L 509.208922 320.059969 
z
" clip-path="url(#pc06298a25d)" style="fill: #1f77b4"/>
   </g>
   <g id="patch_254">
    <path d="M 510.784303 320.4 
L 512.359684 320.4 
L 512.359684 320.195981 
L 510.784303 320.195981 
z
" clip-path="url(#pc06298a25d)" style="fill: #1f77b4"/>
   </g>
   <g id="patch_255">
    <path d="M 512.359684 320.4 
L 513.935065 320.4 
L 513.935065 320.263988 
L 512.359684 320.263988 
z
" clip-path="url(#pc06298a25d)" style="fill: #1f77b4"/>
   </g>
   <g id="patch_256">
    <path d="M 513.935065 320.4 
L 515.510446 320.4 
L 515.510446 320.127975 
L 513.935065 320.127975 
z
" clip-path="url(#pc06298a25d)" style="fill: #1f77b4"/>
   </g>
   <g id="patch_257">
    <path d="M 515.510446 320.4 
L 517.085827 320.4 
L 517.085827 320.331994 
L 515.510446 320.331994 
z
" clip-path="url(#pc06298a25d)" style="fill: #1f77b4"/>
   </g>
   <g id="patch_258">
    <path d="M 517.085827 320.4 
L 518.661208 320.4 
L 518.661208 320.4 
L 517.085827 320.4 
z
" clip-path="url(#pc06298a25d)" style="fill: #1f77b4"/>
   </g>
   <g id="patch_259">
    <path d="M 518.661208 320.4 
L 520.236589 320.4 
L 520.236589 320.4 
L 518.661208 320.4 
z
" clip-path="url(#pc06298a25d)" style="fill: #1f77b4"/>
   </g>
   <g id="patch_260">
    <path d="M 520.236589 320.4 
L 521.811971 320.4 
L 521.811971 320.4 
L 520.236589 320.4 
z
" clip-path="url(#pc06298a25d)" style="fill: #1f77b4"/>
   </g>
   <g id="patch_261">
    <path d="M 521.811971 320.4 
L 523.387352 320.4 
L 523.387352 320.331994 
L 521.811971 320.331994 
z
" clip-path="url(#pc06298a25d)" style="fill: #1f77b4"/>
   </g>
   <g id="patch_262">
    <path d="M 523.387352 320.4 
L 524.962733 320.4 
L 524.962733 320.4 
L 523.387352 320.4 
z
" clip-path="url(#pc06298a25d)" style="fill: #1f77b4"/>
   </g>
   <g id="patch_263">
    <path d="M 524.962733 320.4 
L 526.538114 320.4 
L 526.538114 320.263988 
L 524.962733 320.263988 
z
" clip-path="url(#pc06298a25d)" style="fill: #1f77b4"/>
   </g>
   <g id="patch_264">
    <path d="M 526.538114 320.4 
L 528.113495 320.4 
L 528.113495 320.4 
L 526.538114 320.4 
z
" clip-path="url(#pc06298a25d)" style="fill: #1f77b4"/>
   </g>
   <g id="patch_265">
    <path d="M 528.113495 320.4 
L 529.688876 320.4 
L 529.688876 320.4 
L 528.113495 320.4 
z
" clip-path="url(#pc06298a25d)" style="fill: #1f77b4"/>
   </g>
   <g id="patch_266">
    <path d="M 529.688876 320.4 
L 531.264257 320.4 
L 531.264257 320.4 
L 529.688876 320.4 
z
" clip-path="url(#pc06298a25d)" style="fill: #1f77b4"/>
   </g>
   <g id="patch_267">
    <path d="M 531.264257 320.4 
L 532.839639 320.4 
L 532.839639 320.4 
L 531.264257 320.4 
z
" clip-path="url(#pc06298a25d)" style="fill: #1f77b4"/>
   </g>
   <g id="patch_268">
    <path d="M 532.839639 320.4 
L 534.41502 320.4 
L 534.41502 320.4 
L 532.839639 320.4 
z
" clip-path="url(#pc06298a25d)" style="fill: #1f77b4"/>
   </g>
   <g id="patch_269">
    <path d="M 534.41502 320.4 
L 535.990401 320.4 
L 535.990401 320.4 
L 534.41502 320.4 
z
" clip-path="url(#pc06298a25d)" style="fill: #1f77b4"/>
   </g>
   <g id="patch_270">
    <path d="M 535.990401 320.4 
L 537.565782 320.4 
L 537.565782 320.331994 
L 535.990401 320.331994 
z
" clip-path="url(#pc06298a25d)" style="fill: #1f77b4"/>
   </g>
   <g id="patch_271">
    <path d="M 537.565782 320.4 
L 539.141163 320.4 
L 539.141163 320.4 
L 537.565782 320.4 
z
" clip-path="url(#pc06298a25d)" style="fill: #1f77b4"/>
   </g>
   <g id="patch_272">
    <path d="M 539.141163 320.4 
L 540.716544 320.4 
L 540.716544 320.4 
L 539.141163 320.4 
z
" clip-path="url(#pc06298a25d)" style="fill: #1f77b4"/>
   </g>
   <g id="patch_273">
    <path d="M 540.716544 320.4 
L 542.291925 320.4 
L 542.291925 320.4 
L 540.716544 320.4 
z
" clip-path="url(#pc06298a25d)" style="fill: #1f77b4"/>
   </g>
   <g id="patch_274">
    <path d="M 542.291925 320.4 
L 543.867307 320.4 
L 543.867307 320.4 
L 542.291925 320.4 
z
" clip-path="url(#pc06298a25d)" style="fill: #1f77b4"/>
   </g>
   <g id="patch_275">
    <path d="M 543.867307 320.4 
L 545.442688 320.4 
L 545.442688 320.4 
L 543.867307 320.4 
z
" clip-path="url(#pc06298a25d)" style="fill: #1f77b4"/>
   </g>
   <g id="patch_276">
    <path d="M 545.442688 320.4 
L 547.018069 320.4 
L 547.018069 320.4 
L 545.442688 320.4 
z
" clip-path="url(#pc06298a25d)" style="fill: #1f77b4"/>
   </g>
   <g id="patch_277">
    <path d="M 547.018069 320.4 
L 548.59345 320.4 
L 548.59345 320.4 
L 547.018069 320.4 
z
" clip-path="url(#pc06298a25d)" style="fill: #1f77b4"/>
   </g>
   <g id="patch_278">
    <path d="M 548.59345 320.4 
L 550.168831 320.4 
L 550.168831 320.4 
L 548.59345 320.4 
z
" clip-path="url(#pc06298a25d)" style="fill: #1f77b4"/>
   </g>
   <g id="patch_279">
    <path d="M 550.168831 320.4 
L 551.744212 320.4 
L 551.744212 320.4 
L 550.168831 320.4 
z
" clip-path="url(#pc06298a25d)" style="fill: #1f77b4"/>
   </g>
   <g id="patch_280">
    <path d="M 551.744212 320.4 
L 553.319593 320.4 
L 553.319593 320.4 
L 551.744212 320.4 
z
" clip-path="url(#pc06298a25d)" style="fill: #1f77b4"/>
   </g>
   <g id="patch_281">
    <path d="M 553.319593 320.4 
L 554.894975 320.4 
L 554.894975 320.331994 
L 553.319593 320.331994 
z
" clip-path="url(#pc06298a25d)" style="fill: #1f77b4"/>
   </g>
   <g id="patch_282">
    <path d="M 554.894975 320.4 
L 556.470356 320.4 
L 556.470356 320.4 
L 554.894975 320.4 
z
" clip-path="url(#pc06298a25d)" style="fill: #1f77b4"/>
   </g>
   <g id="patch_283">
    <path d="M 556.470356 320.4 
L 558.045737 320.4 
L 558.045737 320.4 
L 556.470356 320.4 
z
" clip-path="url(#pc06298a25d)" style="fill: #1f77b4"/>
   </g>
   <g id="patch_284">
    <path d="M 558.045737 320.4 
L 559.621118 320.4 
L 559.621118 320.4 
L 558.045737 320.4 
z
" clip-path="url(#pc06298a25d)" style="fill: #1f77b4"/>
   </g>
   <g id="patch_285">
    <path d="M 559.621118 320.4 
L 561.196499 320.4 
L 561.196499 320.4 
L 559.621118 320.4 
z
" clip-path="url(#pc06298a25d)" style="fill: #1f77b4"/>
   </g>
   <g id="patch_286">
    <path d="M 561.196499 320.4 
L 562.77188 320.4 
L 562.77188 320.4 
L 561.196499 320.4 
z
" clip-path="url(#pc06298a25d)" style="fill: #1f77b4"/>
   </g>
   <g id="patch_287">
    <path d="M 562.77188 320.4 
L 564.347261 320.4 
L 564.347261 320.4 
L 562.77188 320.4 
z
" clip-path="url(#pc06298a25d)" style="fill: #1f77b4"/>
   </g>
   <g id="patch_288">
    <path d="M 564.347261 320.4 
L 565.922643 320.4 
L 565.922643 320.4 
L 564.347261 320.4 
z
" clip-path="url(#pc06298a25d)" style="fill: #1f77b4"/>
   </g>
   <g id="patch_289">
    <path d="M 565.922643 320.4 
L 567.498024 320.4 
L 567.498024 320.4 
L 565.922643 320.4 
z
" clip-path="url(#pc06298a25d)" style="fill: #1f77b4"/>
   </g>
   <g id="patch_290">
    <path d="M 567.498024 320.4 
L 569.073405 320.4 
L 569.073405 320.4 
L 567.498024 320.4 
z
" clip-path="url(#pc06298a25d)" style="fill: #1f77b4"/>
   </g>
   <g id="patch_291">
    <path d="M 569.073405 320.4 
L 570.648786 320.4 
L 570.648786 320.4 
L 569.073405 320.4 
z
" clip-path="url(#pc06298a25d)" style="fill: #1f77b4"/>
   </g>
   <g id="patch_292">
    <path d="M 570.648786 320.4 
L 572.224167 320.4 
L 572.224167 320.4 
L 570.648786 320.4 
z
" clip-path="url(#pc06298a25d)" style="fill: #1f77b4"/>
   </g>
   <g id="patch_293">
    <path d="M 572.224167 320.4 
L 573.799548 320.4 
L 573.799548 320.4 
L 572.224167 320.4 
z
" clip-path="url(#pc06298a25d)" style="fill: #1f77b4"/>
   </g>
   <g id="patch_294">
    <path d="M 573.799548 320.4 
L 575.374929 320.4 
L 575.374929 320.4 
L 573.799548 320.4 
z
" clip-path="url(#pc06298a25d)" style="fill: #1f77b4"/>
   </g>
   <g id="patch_295">
    <path d="M 575.374929 320.4 
L 576.950311 320.4 
L 576.950311 320.4 
L 575.374929 320.4 
z
" clip-path="url(#pc06298a25d)" style="fill: #1f77b4"/>
   </g>
   <g id="patch_296">
    <path d="M 576.950311 320.4 
L 578.525692 320.4 
L 578.525692 320.4 
L 576.950311 320.4 
z
" clip-path="url(#pc06298a25d)" style="fill: #1f77b4"/>
   </g>
   <g id="patch_297">
    <path d="M 578.525692 320.4 
L 580.101073 320.4 
L 580.101073 320.4 
L 578.525692 320.4 
z
" clip-path="url(#pc06298a25d)" style="fill: #1f77b4"/>
   </g>
   <g id="patch_298">
    <path d="M 580.101073 320.4 
L 581.676454 320.4 
L 581.676454 320.4 
L 580.101073 320.4 
z
" clip-path="url(#pc06298a25d)" style="fill: #1f77b4"/>
   </g>
   <g id="patch_299">
    <path d="M 581.676454 320.4 
L 583.251835 320.4 
L 583.251835 320.4 
L 581.676454 320.4 
z
" clip-path="url(#pc06298a25d)" style="fill: #1f77b4"/>
   </g>
   <g id="patch_300">
    <path d="M 583.251835 320.4 
L 584.827216 320.4 
L 584.827216 320.4 
L 583.251835 320.4 
z
" clip-path="url(#pc06298a25d)" style="fill: #1f77b4"/>
   </g>
   <g id="patch_301">
    <path d="M 584.827216 320.4 
L 586.402597 320.4 
L 586.402597 320.4 
L 584.827216 320.4 
z
" clip-path="url(#pc06298a25d)" style="fill: #1f77b4"/>
   </g>
   <g id="patch_302">
    <path d="M 586.402597 320.4 
L 587.977979 320.4 
L 587.977979 320.4 
L 586.402597 320.4 
z
" clip-path="url(#pc06298a25d)" style="fill: #1f77b4"/>
   </g>
   <g id="patch_303">
    <path d="M 587.977979 320.4 
L 589.55336 320.4 
L 589.55336 320.4 
L 587.977979 320.4 
z
" clip-path="url(#pc06298a25d)" style="fill: #1f77b4"/>
   </g>
   <g id="patch_304">
    <path d="M 589.55336 320.4 
L 591.128741 320.4 
L 591.128741 320.4 
L 589.55336 320.4 
z
" clip-path="url(#pc06298a25d)" style="fill: #1f77b4"/>
   </g>
   <g id="patch_305">
    <path d="M 591.128741 320.4 
L 592.704122 320.4 
L 592.704122 320.331994 
L 591.128741 320.331994 
z
" clip-path="url(#pc06298a25d)" style="fill: #1f77b4"/>
   </g>
   <g id="patch_306">
    <path d="M 592.704122 320.4 
L 594.279503 320.4 
L 594.279503 320.4 
L 592.704122 320.4 
z
" clip-path="url(#pc06298a25d)" style="fill: #1f77b4"/>
   </g>
   <g id="patch_307">
    <path d="M 594.279503 320.4 
L 595.854884 320.4 
L 595.854884 320.4 
L 594.279503 320.4 
z
" clip-path="url(#pc06298a25d)" style="fill: #1f77b4"/>
   </g>
   <g id="patch_308">
    <path d="M 595.854884 320.4 
L 597.430265 320.4 
L 597.430265 320.4 
L 595.854884 320.4 
z
" clip-path="url(#pc06298a25d)" style="fill: #1f77b4"/>
   </g>
   <g id="patch_309">
    <path d="M 597.430265 320.4 
L 599.005647 320.4 
L 599.005647 320.4 
L 597.430265 320.4 
z
" clip-path="url(#pc06298a25d)" style="fill: #1f77b4"/>
   </g>
   <g id="patch_310">
    <path d="M 599.005647 320.4 
L 600.581028 320.4 
L 600.581028 320.4 
L 599.005647 320.4 
z
" clip-path="url(#pc06298a25d)" style="fill: #1f77b4"/>
   </g>
   <g id="patch_311">
    <path d="M 600.581028 320.4 
L 602.156409 320.4 
L 602.156409 320.4 
L 600.581028 320.4 
z
" clip-path="url(#pc06298a25d)" style="fill: #1f77b4"/>
   </g>
   <g id="patch_312">
    <path d="M 602.156409 320.4 
L 603.73179 320.4 
L 603.73179 320.4 
L 602.156409 320.4 
z
" clip-path="url(#pc06298a25d)" style="fill: #1f77b4"/>
   </g>
   <g id="patch_313">
    <path d="M 603.73179 320.4 
L 605.307171 320.4 
L 605.307171 320.4 
L 603.73179 320.4 
z
" clip-path="url(#pc06298a25d)" style="fill: #1f77b4"/>
   </g>
   <g id="patch_314">
    <path d="M 605.307171 320.4 
L 606.882552 320.4 
L 606.882552 320.4 
L 605.307171 320.4 
z
" clip-path="url(#pc06298a25d)" style="fill: #1f77b4"/>
   </g>
   <g id="patch_315">
    <path d="M 606.882552 320.4 
L 608.457933 320.4 
L 608.457933 320.4 
L 606.882552 320.4 
z
" clip-path="url(#pc06298a25d)" style="fill: #1f77b4"/>
   </g>
   <g id="patch_316">
    <path d="M 608.457933 320.4 
L 610.033315 320.4 
L 610.033315 320.4 
L 608.457933 320.4 
z
" clip-path="url(#pc06298a25d)" style="fill: #1f77b4"/>
   </g>
   <g id="patch_317">
    <path d="M 610.033315 320.4 
L 611.608696 320.4 
L 611.608696 320.4 
L 610.033315 320.4 
z
" clip-path="url(#pc06298a25d)" style="fill: #1f77b4"/>
   </g>
   <g id="patch_318">
    <path d="M 611.608696 320.4 
L 613.184077 320.4 
L 613.184077 320.4 
L 611.608696 320.4 
z
" clip-path="url(#pc06298a25d)" style="fill: #1f77b4"/>
   </g>
   <g id="patch_319">
    <path d="M 613.184077 320.4 
L 614.759458 320.4 
L 614.759458 320.4 
L 613.184077 320.4 
z
" clip-path="url(#pc06298a25d)" style="fill: #1f77b4"/>
   </g>
   <g id="patch_320">
    <path d="M 614.759458 320.4 
L 616.334839 320.4 
L 616.334839 320.4 
L 614.759458 320.4 
z
" clip-path="url(#pc06298a25d)" style="fill: #1f77b4"/>
   </g>
   <g id="patch_321">
    <path d="M 616.334839 320.4 
L 617.91022 320.4 
L 617.91022 320.4 
L 616.334839 320.4 
z
" clip-path="url(#pc06298a25d)" style="fill: #1f77b4"/>
   </g>
   <g id="patch_322">
    <path d="M 617.91022 320.4 
L 619.485601 320.4 
L 619.485601 320.4 
L 617.91022 320.4 
z
" clip-path="url(#pc06298a25d)" style="fill: #1f77b4"/>
   </g>
   <g id="patch_323">
    <path d="M 619.485601 320.4 
L 621.060982 320.4 
L 621.060982 320.4 
L 619.485601 320.4 
z
" clip-path="url(#pc06298a25d)" style="fill: #1f77b4"/>
   </g>
   <g id="patch_324">
    <path d="M 621.060982 320.4 
L 622.636364 320.4 
L 622.636364 320.331994 
L 621.060982 320.331994 
z
" clip-path="url(#pc06298a25d)" style="fill: #1f77b4"/>
   </g>
   <g id="matplotlib.axis_1">
    <g id="xtick_1">
     <g id="line2d_1">
      <defs>
       <path id="m6460fd3863" d="M 0 0 
L 0 3.5 
" style="stroke: #000000; stroke-width: 0.8"/>
      </defs>
      <g>
       <use xlink:href="#m6460fd3863" x="148.38824" y="320.4" style="stroke: #000000; stroke-width: 0.8"/>
      </g>
     </g>
     <g id="text_1">
      <!-- −30 -->
      <g transform="translate(137.835896 334.998438) scale(0.1 -0.1)">
       <defs>
        <path id="DejaVuSans-2212" d="M 678 2272 
L 4684 2272 
L 4684 1741 
L 678 1741 
L 678 2272 
z
" transform="scale(0.015625)"/>
        <path id="DejaVuSans-33" d="M 2597 2516 
Q 3050 2419 3304 2112 
Q 3559 1806 3559 1356 
Q 3559 666 3084 287 
Q 2609 -91 1734 -91 
Q 1441 -91 1130 -33 
Q 819 25 488 141 
L 488 750 
Q 750 597 1062 519 
Q 1375 441 1716 441 
Q 2309 441 2620 675 
Q 2931 909 2931 1356 
Q 2931 1769 2642 2001 
Q 2353 2234 1838 2234 
L 1294 2234 
L 1294 2753 
L 1863 2753 
Q 2328 2753 2575 2939 
Q 2822 3125 2822 3475 
Q 2822 3834 2567 4026 
Q 2313 4219 1838 4219 
Q 1578 4219 1281 4162 
Q 984 4106 628 3988 
L 628 4550 
Q 988 4650 1302 4700 
Q 1616 4750 1894 4750 
Q 2613 4750 3031 4423 
Q 3450 4097 3450 3541 
Q 3450 3153 3228 2886 
Q 3006 2619 2597 2516 
z
" transform="scale(0.015625)"/>
        <path id="DejaVuSans-30" d="M 2034 4250 
Q 1547 4250 1301 3770 
Q 1056 3291 1056 2328 
Q 1056 1369 1301 889 
Q 1547 409 2034 409 
Q 2525 409 2770 889 
Q 3016 1369 3016 2328 
Q 3016 3291 2770 3770 
Q 2525 4250 2034 4250 
z
M 2034 4750 
Q 2819 4750 3233 4129 
Q 3647 3509 3647 2328 
Q 3647 1150 3233 529 
Q 2819 -91 2034 -91 
Q 1250 -91 836 529 
Q 422 1150 422 2328 
Q 422 3509 836 4129 
Q 1250 4750 2034 4750 
z
" transform="scale(0.015625)"/>
       </defs>
       <use xlink:href="#DejaVuSans-2212"/>
       <use xlink:href="#DejaVuSans-33" x="83.789062"/>
       <use xlink:href="#DejaVuSans-30" x="147.412109"/>
      </g>
     </g>
    </g>
    <g id="xtick_2">
     <g id="line2d_2">
      <g>
       <use xlink:href="#m6460fd3863" x="223.659155" y="320.4" style="stroke: #000000; stroke-width: 0.8"/>
      </g>
     </g>
     <g id="text_2">
      <!-- −20 -->
      <g transform="translate(213.106812 334.998438) scale(0.1 -0.1)">
       <defs>
        <path id="DejaVuSans-32" d="M 1228 531 
L 3431 531 
L 3431 0 
L 469 0 
L 469 531 
Q 828 903 1448 1529 
Q 2069 2156 2228 2338 
Q 2531 2678 2651 2914 
Q 2772 3150 2772 3378 
Q 2772 3750 2511 3984 
Q 2250 4219 1831 4219 
Q 1534 4219 1204 4116 
Q 875 4013 500 3803 
L 500 4441 
Q 881 4594 1212 4672 
Q 1544 4750 1819 4750 
Q 2544 4750 2975 4387 
Q 3406 4025 3406 3419 
Q 3406 3131 3298 2873 
Q 3191 2616 2906 2266 
Q 2828 2175 2409 1742 
Q 1991 1309 1228 531 
z
" transform="scale(0.015625)"/>
       </defs>
       <use xlink:href="#DejaVuSans-2212"/>
       <use xlink:href="#DejaVuSans-32" x="83.789062"/>
       <use xlink:href="#DejaVuSans-30" x="147.412109"/>
      </g>
     </g>
    </g>
    <g id="xtick_3">
     <g id="line2d_3">
      <g>
       <use xlink:href="#m6460fd3863" x="298.930071" y="320.4" style="stroke: #000000; stroke-width: 0.8"/>
      </g>
     </g>
     <g id="text_3">
      <!-- −10 -->
      <g transform="translate(288.377727 334.998438) scale(0.1 -0.1)">
       <defs>
        <path id="DejaVuSans-31" d="M 794 531 
L 1825 531 
L 1825 4091 
L 703 3866 
L 703 4441 
L 1819 4666 
L 2450 4666 
L 2450 531 
L 3481 531 
L 3481 0 
L 794 0 
L 794 531 
z
" transform="scale(0.015625)"/>
       </defs>
       <use xlink:href="#DejaVuSans-2212"/>
       <use xlink:href="#DejaVuSans-31" x="83.789062"/>
       <use xlink:href="#DejaVuSans-30" x="147.412109"/>
      </g>
     </g>
    </g>
    <g id="xtick_4">
     <g id="line2d_4">
      <g>
       <use xlink:href="#m6460fd3863" x="374.200986" y="320.4" style="stroke: #000000; stroke-width: 0.8"/>
      </g>
     </g>
     <g id="text_4">
      <!-- 0 -->
      <g transform="translate(371.019736 334.998438) scale(0.1 -0.1)">
       <use xlink:href="#DejaVuSans-30"/>
      </g>
     </g>
    </g>
    <g id="xtick_5">
     <g id="line2d_5">
      <g>
       <use xlink:href="#m6460fd3863" x="449.471901" y="320.4" style="stroke: #000000; stroke-width: 0.8"/>
      </g>
     </g>
     <g id="text_5">
      <!-- 10 -->
      <g transform="translate(443.109401 334.998438) scale(0.1 -0.1)">
       <use xlink:href="#DejaVuSans-31"/>
       <use xlink:href="#DejaVuSans-30" x="63.623047"/>
      </g>
     </g>
    </g>
    <g id="xtick_6">
     <g id="line2d_6">
      <g>
       <use xlink:href="#m6460fd3863" x="524.742816" y="320.4" style="stroke: #000000; stroke-width: 0.8"/>
      </g>
     </g>
     <g id="text_6">
      <!-- 20 -->
      <g transform="translate(518.380316 334.998438) scale(0.1 -0.1)">
       <use xlink:href="#DejaVuSans-32"/>
       <use xlink:href="#DejaVuSans-30" x="63.623047"/>
      </g>
     </g>
    </g>
    <g id="xtick_7">
     <g id="line2d_7">
      <g>
       <use xlink:href="#m6460fd3863" x="600.013732" y="320.4" style="stroke: #000000; stroke-width: 0.8"/>
      </g>
     </g>
     <g id="text_7">
      <!-- 30 -->
      <g transform="translate(593.651232 334.998438) scale(0.1 -0.1)">
       <use xlink:href="#DejaVuSans-33"/>
       <use xlink:href="#DejaVuSans-30" x="63.623047"/>
      </g>
     </g>
    </g>
    <g id="text_8">
     <!-- reaction_energy -->
     <g transform="translate(304.46625 353.235625) scale(0.16 -0.16)">
      <defs>
       <path id="DejaVuSans-72" d="M 2631 2963 
Q 2534 3019 2420 3045 
Q 2306 3072 2169 3072 
Q 1681 3072 1420 2755 
Q 1159 2438 1159 1844 
L 1159 0 
L 581 0 
L 581 3500 
L 1159 3500 
L 1159 2956 
Q 1341 3275 1631 3429 
Q 1922 3584 2338 3584 
Q 2397 3584 2469 3576 
Q 2541 3569 2628 3553 
L 2631 2963 
z
" transform="scale(0.015625)"/>
       <path id="DejaVuSans-65" d="M 3597 1894 
L 3597 1613 
L 953 1613 
Q 991 1019 1311 708 
Q 1631 397 2203 397 
Q 2534 397 2845 478 
Q 3156 559 3463 722 
L 3463 178 
Q 3153 47 2828 -22 
Q 2503 -91 2169 -91 
Q 1331 -91 842 396 
Q 353 884 353 1716 
Q 353 2575 817 3079 
Q 1281 3584 2069 3584 
Q 2775 3584 3186 3129 
Q 3597 2675 3597 1894 
z
M 3022 2063 
Q 3016 2534 2758 2815 
Q 2500 3097 2075 3097 
Q 1594 3097 1305 2825 
Q 1016 2553 972 2059 
L 3022 2063 
z
" transform="scale(0.015625)"/>
       <path id="DejaVuSans-61" d="M 2194 1759 
Q 1497 1759 1228 1600 
Q 959 1441 959 1056 
Q 959 750 1161 570 
Q 1363 391 1709 391 
Q 2188 391 2477 730 
Q 2766 1069 2766 1631 
L 2766 1759 
L 2194 1759 
z
M 3341 1997 
L 3341 0 
L 2766 0 
L 2766 531 
Q 2569 213 2275 61 
Q 1981 -91 1556 -91 
Q 1019 -91 701 211 
Q 384 513 384 1019 
Q 384 1609 779 1909 
Q 1175 2209 1959 2209 
L 2766 2209 
L 2766 2266 
Q 2766 2663 2505 2880 
Q 2244 3097 1772 3097 
Q 1472 3097 1187 3025 
Q 903 2953 641 2809 
L 641 3341 
Q 956 3463 1253 3523 
Q 1550 3584 1831 3584 
Q 2591 3584 2966 3190 
Q 3341 2797 3341 1997 
z
" transform="scale(0.015625)"/>
       <path id="DejaVuSans-63" d="M 3122 3366 
L 3122 2828 
Q 2878 2963 2633 3030 
Q 2388 3097 2138 3097 
Q 1578 3097 1268 2742 
Q 959 2388 959 1747 
Q 959 1106 1268 751 
Q 1578 397 2138 397 
Q 2388 397 2633 464 
Q 2878 531 3122 666 
L 3122 134 
Q 2881 22 2623 -34 
Q 2366 -91 2075 -91 
Q 1284 -91 818 406 
Q 353 903 353 1747 
Q 353 2603 823 3093 
Q 1294 3584 2113 3584 
Q 2378 3584 2631 3529 
Q 2884 3475 3122 3366 
z
" transform="scale(0.015625)"/>
       <path id="DejaVuSans-74" d="M 1172 4494 
L 1172 3500 
L 2356 3500 
L 2356 3053 
L 1172 3053 
L 1172 1153 
Q 1172 725 1289 603 
Q 1406 481 1766 481 
L 2356 481 
L 2356 0 
L 1766 0 
Q 1100 0 847 248 
Q 594 497 594 1153 
L 594 3053 
L 172 3053 
L 172 3500 
L 594 3500 
L 594 4494 
L 1172 4494 
z
" transform="scale(0.015625)"/>
       <path id="DejaVuSans-69" d="M 603 3500 
L 1178 3500 
L 1178 0 
L 603 0 
L 603 3500 
z
M 603 4863 
L 1178 4863 
L 1178 4134 
L 603 4134 
L 603 4863 
z
" transform="scale(0.015625)"/>
       <path id="DejaVuSans-6f" d="M 1959 3097 
Q 1497 3097 1228 2736 
Q 959 2375 959 1747 
Q 959 1119 1226 758 
Q 1494 397 1959 397 
Q 2419 397 2687 759 
Q 2956 1122 2956 1747 
Q 2956 2369 2687 2733 
Q 2419 3097 1959 3097 
z
M 1959 3584 
Q 2709 3584 3137 3096 
Q 3566 2609 3566 1747 
Q 3566 888 3137 398 
Q 2709 -91 1959 -91 
Q 1206 -91 779 398 
Q 353 888 353 1747 
Q 353 2609 779 3096 
Q 1206 3584 1959 3584 
z
" transform="scale(0.015625)"/>
       <path id="DejaVuSans-6e" d="M 3513 2113 
L 3513 0 
L 2938 0 
L 2938 2094 
Q 2938 2591 2744 2837 
Q 2550 3084 2163 3084 
Q 1697 3084 1428 2787 
Q 1159 2491 1159 1978 
L 1159 0 
L 581 0 
L 581 3500 
L 1159 3500 
L 1159 2956 
Q 1366 3272 1645 3428 
Q 1925 3584 2291 3584 
Q 2894 3584 3203 3211 
Q 3513 2838 3513 2113 
z
" transform="scale(0.015625)"/>
       <path id="DejaVuSans-5f" d="M 3263 -1063 
L 3263 -1509 
L -63 -1509 
L -63 -1063 
L 3263 -1063 
z
" transform="scale(0.015625)"/>
       <path id="DejaVuSans-67" d="M 2906 1791 
Q 2906 2416 2648 2759 
Q 2391 3103 1925 3103 
Q 1463 3103 1205 2759 
Q 947 2416 947 1791 
Q 947 1169 1205 825 
Q 1463 481 1925 481 
Q 2391 481 2648 825 
Q 2906 1169 2906 1791 
z
M 3481 434 
Q 3481 -459 3084 -895 
Q 2688 -1331 1869 -1331 
Q 1566 -1331 1297 -1286 
Q 1028 -1241 775 -1147 
L 775 -588 
Q 1028 -725 1275 -790 
Q 1522 -856 1778 -856 
Q 2344 -856 2625 -561 
Q 2906 -266 2906 331 
L 2906 616 
Q 2728 306 2450 153 
Q 2172 0 1784 0 
Q 1141 0 747 490 
Q 353 981 353 1791 
Q 353 2603 747 3093 
Q 1141 3584 1784 3584 
Q 2172 3584 2450 3431 
Q 2728 3278 2906 2969 
L 2906 3500 
L 3481 3500 
L 3481 434 
z
" transform="scale(0.015625)"/>
       <path id="DejaVuSans-79" d="M 2059 -325 
Q 1816 -950 1584 -1140 
Q 1353 -1331 966 -1331 
L 506 -1331 
L 506 -850 
L 844 -850 
Q 1081 -850 1212 -737 
Q 1344 -625 1503 -206 
L 1606 56 
L 191 3500 
L 800 3500 
L 1894 763 
L 2988 3500 
L 3597 3500 
L 2059 -325 
z
" transform="scale(0.015625)"/>
      </defs>
      <use xlink:href="#DejaVuSans-72"/>
      <use xlink:href="#DejaVuSans-65" x="38.863281"/>
      <use xlink:href="#DejaVuSans-61" x="100.386719"/>
      <use xlink:href="#DejaVuSans-63" x="161.666016"/>
      <use xlink:href="#DejaVuSans-74" x="216.646484"/>
      <use xlink:href="#DejaVuSans-69" x="255.855469"/>
      <use xlink:href="#DejaVuSans-6f" x="283.638672"/>
      <use xlink:href="#DejaVuSans-6e" x="344.820312"/>
      <use xlink:href="#DejaVuSans-5f" x="408.199219"/>
      <use xlink:href="#DejaVuSans-65" x="458.199219"/>
      <use xlink:href="#DejaVuSans-6e" x="519.722656"/>
      <use xlink:href="#DejaVuSans-65" x="583.101562"/>
      <use xlink:href="#DejaVuSans-72" x="644.625"/>
      <use xlink:href="#DejaVuSans-67" x="683.988281"/>
      <use xlink:href="#DejaVuSans-79" x="747.464844"/>
     </g>
    </g>
   </g>
   <g id="matplotlib.axis_2">
    <g id="ytick_1">
     <g id="line2d_8">
      <defs>
       <path id="m47331ed851" d="M 0 0 
L -3.5 0 
" style="stroke: #000000; stroke-width: 0.8"/>
      </defs>
      <g>
       <use xlink:href="#m47331ed851" x="90" y="320.4" style="stroke: #000000; stroke-width: 0.8"/>
      </g>
     </g>
     <g id="text_9">
      <!-- 0.00 -->
      <g transform="translate(60.734375 324.199219) scale(0.1 -0.1)">
       <defs>
        <path id="DejaVuSans-2e" d="M 684 794 
L 1344 794 
L 1344 0 
L 684 0 
L 684 794 
z
" transform="scale(0.015625)"/>
       </defs>
       <use xlink:href="#DejaVuSans-30"/>
       <use xlink:href="#DejaVuSans-2e" x="63.623047"/>
       <use xlink:href="#DejaVuSans-30" x="95.410156"/>
       <use xlink:href="#DejaVuSans-30" x="159.033203"/>
      </g>
     </g>
    </g>
    <g id="ytick_2">
     <g id="line2d_9">
      <g>
       <use xlink:href="#m47331ed851" x="90" y="277.110718" style="stroke: #000000; stroke-width: 0.8"/>
      </g>
     </g>
     <g id="text_10">
      <!-- 0.05 -->
      <g transform="translate(60.734375 280.909937) scale(0.1 -0.1)">
       <defs>
        <path id="DejaVuSans-35" d="M 691 4666 
L 3169 4666 
L 3169 4134 
L 1269 4134 
L 1269 2991 
Q 1406 3038 1543 3061 
Q 1681 3084 1819 3084 
Q 2600 3084 3056 2656 
Q 3513 2228 3513 1497 
Q 3513 744 3044 326 
Q 2575 -91 1722 -91 
Q 1428 -91 1123 -41 
Q 819 9 494 109 
L 494 744 
Q 775 591 1075 516 
Q 1375 441 1709 441 
Q 2250 441 2565 725 
Q 2881 1009 2881 1497 
Q 2881 1984 2565 2268 
Q 2250 2553 1709 2553 
Q 1456 2553 1204 2497 
Q 953 2441 691 2322 
L 691 4666 
z
" transform="scale(0.015625)"/>
       </defs>
       <use xlink:href="#DejaVuSans-30"/>
       <use xlink:href="#DejaVuSans-2e" x="63.623047"/>
       <use xlink:href="#DejaVuSans-30" x="95.410156"/>
       <use xlink:href="#DejaVuSans-35" x="159.033203"/>
      </g>
     </g>
    </g>
    <g id="ytick_3">
     <g id="line2d_10">
      <g>
       <use xlink:href="#m47331ed851" x="90" y="233.821436" style="stroke: #000000; stroke-width: 0.8"/>
      </g>
     </g>
     <g id="text_11">
      <!-- 0.10 -->
      <g transform="translate(60.734375 237.620655) scale(0.1 -0.1)">
       <use xlink:href="#DejaVuSans-30"/>
       <use xlink:href="#DejaVuSans-2e" x="63.623047"/>
       <use xlink:href="#DejaVuSans-31" x="95.410156"/>
       <use xlink:href="#DejaVuSans-30" x="159.033203"/>
      </g>
     </g>
    </g>
    <g id="ytick_4">
     <g id="line2d_11">
      <g>
       <use xlink:href="#m47331ed851" x="90" y="190.532154" style="stroke: #000000; stroke-width: 0.8"/>
      </g>
     </g>
     <g id="text_12">
      <!-- 0.15 -->
      <g transform="translate(60.734375 194.331373) scale(0.1 -0.1)">
       <use xlink:href="#DejaVuSans-30"/>
       <use xlink:href="#DejaVuSans-2e" x="63.623047"/>
       <use xlink:href="#DejaVuSans-31" x="95.410156"/>
       <use xlink:href="#DejaVuSans-35" x="159.033203"/>
      </g>
     </g>
    </g>
    <g id="ytick_5">
     <g id="line2d_12">
      <g>
       <use xlink:href="#m47331ed851" x="90" y="147.242872" style="stroke: #000000; stroke-width: 0.8"/>
      </g>
     </g>
     <g id="text_13">
      <!-- 0.20 -->
      <g transform="translate(60.734375 151.042091) scale(0.1 -0.1)">
       <use xlink:href="#DejaVuSans-30"/>
       <use xlink:href="#DejaVuSans-2e" x="63.623047"/>
       <use xlink:href="#DejaVuSans-32" x="95.410156"/>
       <use xlink:href="#DejaVuSans-30" x="159.033203"/>
      </g>
     </g>
    </g>
    <g id="ytick_6">
     <g id="line2d_13">
      <g>
       <use xlink:href="#m47331ed851" x="90" y="103.95359" style="stroke: #000000; stroke-width: 0.8"/>
      </g>
     </g>
     <g id="text_14">
      <!-- 0.25 -->
      <g transform="translate(60.734375 107.752809) scale(0.1 -0.1)">
       <use xlink:href="#DejaVuSans-30"/>
       <use xlink:href="#DejaVuSans-2e" x="63.623047"/>
       <use xlink:href="#DejaVuSans-32" x="95.410156"/>
       <use xlink:href="#DejaVuSans-35" x="159.033203"/>
      </g>
     </g>
    </g>
    <g id="ytick_7">
     <g id="line2d_14">
      <g>
       <use xlink:href="#m47331ed851" x="90" y="60.664308" style="stroke: #000000; stroke-width: 0.8"/>
      </g>
     </g>
     <g id="text_15">
      <!-- 0.30 -->
      <g transform="translate(60.734375 64.463527) scale(0.1 -0.1)">
       <use xlink:href="#DejaVuSans-30"/>
       <use xlink:href="#DejaVuSans-2e" x="63.623047"/>
       <use xlink:href="#DejaVuSans-33" x="95.410156"/>
       <use xlink:href="#DejaVuSans-30" x="159.033203"/>
      </g>
     </g>
    </g>
    <g id="text_16">
     <!-- Relative frequency -->
     <g transform="translate(53.406875 256.7275) rotate(-90) scale(0.16 -0.16)">
      <defs>
       <path id="DejaVuSans-52" d="M 2841 2188 
Q 3044 2119 3236 1894 
Q 3428 1669 3622 1275 
L 4263 0 
L 3584 0 
L 2988 1197 
Q 2756 1666 2539 1819 
Q 2322 1972 1947 1972 
L 1259 1972 
L 1259 0 
L 628 0 
L 628 4666 
L 2053 4666 
Q 2853 4666 3247 4331 
Q 3641 3997 3641 3322 
Q 3641 2881 3436 2590 
Q 3231 2300 2841 2188 
z
M 1259 4147 
L 1259 2491 
L 2053 2491 
Q 2509 2491 2742 2702 
Q 2975 2913 2975 3322 
Q 2975 3731 2742 3939 
Q 2509 4147 2053 4147 
L 1259 4147 
z
" transform="scale(0.015625)"/>
       <path id="DejaVuSans-6c" d="M 603 4863 
L 1178 4863 
L 1178 0 
L 603 0 
L 603 4863 
z
" transform="scale(0.015625)"/>
       <path id="DejaVuSans-76" d="M 191 3500 
L 800 3500 
L 1894 563 
L 2988 3500 
L 3597 3500 
L 2284 0 
L 1503 0 
L 191 3500 
z
" transform="scale(0.015625)"/>
       <path id="DejaVuSans-20" transform="scale(0.015625)"/>
       <path id="DejaVuSans-66" d="M 2375 4863 
L 2375 4384 
L 1825 4384 
Q 1516 4384 1395 4259 
Q 1275 4134 1275 3809 
L 1275 3500 
L 2222 3500 
L 2222 3053 
L 1275 3053 
L 1275 0 
L 697 0 
L 697 3053 
L 147 3053 
L 147 3500 
L 697 3500 
L 697 3744 
Q 697 4328 969 4595 
Q 1241 4863 1831 4863 
L 2375 4863 
z
" transform="scale(0.015625)"/>
       <path id="DejaVuSans-71" d="M 947 1747 
Q 947 1113 1208 752 
Q 1469 391 1925 391 
Q 2381 391 2643 752 
Q 2906 1113 2906 1747 
Q 2906 2381 2643 2742 
Q 2381 3103 1925 3103 
Q 1469 3103 1208 2742 
Q 947 2381 947 1747 
z
M 2906 525 
Q 2725 213 2448 61 
Q 2172 -91 1784 -91 
Q 1150 -91 751 415 
Q 353 922 353 1747 
Q 353 2572 751 3078 
Q 1150 3584 1784 3584 
Q 2172 3584 2448 3432 
Q 2725 3281 2906 2969 
L 2906 3500 
L 3481 3500 
L 3481 -1331 
L 2906 -1331 
L 2906 525 
z
" transform="scale(0.015625)"/>
       <path id="DejaVuSans-75" d="M 544 1381 
L 544 3500 
L 1119 3500 
L 1119 1403 
Q 1119 906 1312 657 
Q 1506 409 1894 409 
Q 2359 409 2629 706 
Q 2900 1003 2900 1516 
L 2900 3500 
L 3475 3500 
L 3475 0 
L 2900 0 
L 2900 538 
Q 2691 219 2414 64 
Q 2138 -91 1772 -91 
Q 1169 -91 856 284 
Q 544 659 544 1381 
z
M 1991 3584 
L 1991 3584 
z
" transform="scale(0.015625)"/>
      </defs>
      <use xlink:href="#DejaVuSans-52"/>
      <use xlink:href="#DejaVuSans-65" x="64.982422"/>
      <use xlink:href="#DejaVuSans-6c" x="126.505859"/>
      <use xlink:href="#DejaVuSans-61" x="154.289062"/>
      <use xlink:href="#DejaVuSans-74" x="215.568359"/>
      <use xlink:href="#DejaVuSans-69" x="254.777344"/>
      <use xlink:href="#DejaVuSans-76" x="282.560547"/>
      <use xlink:href="#DejaVuSans-65" x="341.740234"/>
      <use xlink:href="#DejaVuSans-20" x="403.263672"/>
      <use xlink:href="#DejaVuSans-66" x="435.050781"/>
      <use xlink:href="#DejaVuSans-72" x="470.255859"/>
      <use xlink:href="#DejaVuSans-65" x="509.119141"/>
      <use xlink:href="#DejaVuSans-71" x="570.642578"/>
      <use xlink:href="#DejaVuSans-75" x="634.119141"/>
      <use xlink:href="#DejaVuSans-65" x="697.498047"/>
      <use xlink:href="#DejaVuSans-6e" x="759.021484"/>
      <use xlink:href="#DejaVuSans-63" x="822.400391"/>
      <use xlink:href="#DejaVuSans-79" x="877.380859"/>
     </g>
    </g>
   </g>
   <g id="line2d_15">
    <path d="M 333.086059 320.4 
L 333.086059 56.4 
" clip-path="url(#pc06298a25d)" style="fill: none; stroke: #ff0000; stroke-width: 1.6; stroke-linecap: square"/>
   </g>
   <g id="patch_325">
    <path d="M 90 320.4 
L 90 43.2 
" style="fill: none; stroke: #000000; stroke-width: 0.8; stroke-linejoin: miter; stroke-linecap: square"/>
   </g>
   <g id="patch_326">
    <path d="M 648 320.4 
L 648 43.2 
" style="fill: none; stroke: #000000; stroke-width: 0.8; stroke-linejoin: miter; stroke-linecap: square"/>
   </g>
   <g id="patch_327">
    <path d="M 90 320.4 
L 648 320.4 
" style="fill: none; stroke: #000000; stroke-width: 0.8; stroke-linejoin: miter; stroke-linecap: square"/>
   </g>
   <g id="patch_328">
    <path d="M 90 43.2 
L 648 43.2 
" style="fill: none; stroke: #000000; stroke-width: 0.8; stroke-linejoin: miter; stroke-linecap: square"/>
   </g>
   <g id="text_17">
    <!-- $\mu_2 = -0.749$ -->
    <g transform="translate(480.6 77.325562) scale(0.19 -0.19)">
     <defs>
      <path id="DejaVuSans-Oblique-3bc" d="M -84 -1331 
L 856 3500 
L 1434 3500 
L 1009 1322 
Q 997 1256 987 1175 
Q 978 1094 978 1013 
Q 978 722 1161 565 
Q 1344 409 1684 409 
Q 2147 409 2431 671 
Q 2716 934 2816 1459 
L 3213 3500 
L 3788 3500 
L 3266 809 
Q 3253 750 3248 706 
Q 3244 663 3244 628 
Q 3244 531 3283 486 
Q 3322 441 3406 441 
Q 3438 441 3492 456 
Q 3547 472 3647 513 
L 3559 50 
Q 3422 -19 3297 -55 
Q 3172 -91 3053 -91 
Q 2847 -91 2730 40 
Q 2613 172 2613 403 
Q 2438 153 2195 31 
Q 1953 -91 1625 -91 
Q 1334 -91 1117 43 
Q 900 178 831 397 
L 494 -1331 
L -84 -1331 
z
" transform="scale(0.015625)"/>
      <path id="DejaVuSans-3d" d="M 678 2906 
L 4684 2906 
L 4684 2381 
L 678 2381 
L 678 2906 
z
M 678 1631 
L 4684 1631 
L 4684 1100 
L 678 1100 
L 678 1631 
z
" transform="scale(0.015625)"/>
      <path id="DejaVuSans-37" d="M 525 4666 
L 3525 4666 
L 3525 4397 
L 1831 0 
L 1172 0 
L 2766 4134 
L 525 4134 
L 525 4666 
z
" transform="scale(0.015625)"/>
      <path id="DejaVuSans-34" d="M 2419 4116 
L 825 1625 
L 2419 1625 
L 2419 4116 
z
M 2253 4666 
L 3047 4666 
L 3047 1625 
L 3713 1625 
L 3713 1100 
L 3047 1100 
L 3047 0 
L 2419 0 
L 2419 1100 
L 313 1100 
L 313 1709 
L 2253 4666 
z
" transform="scale(0.015625)"/>
      <path id="DejaVuSans-39" d="M 703 97 
L 703 672 
Q 941 559 1184 500 
Q 1428 441 1663 441 
Q 2288 441 2617 861 
Q 2947 1281 2994 2138 
Q 2813 1869 2534 1725 
Q 2256 1581 1919 1581 
Q 1219 1581 811 2004 
Q 403 2428 403 3163 
Q 403 3881 828 4315 
Q 1253 4750 1959 4750 
Q 2769 4750 3195 4129 
Q 3622 3509 3622 2328 
Q 3622 1225 3098 567 
Q 2575 -91 1691 -91 
Q 1453 -91 1209 -44 
Q 966 3 703 97 
z
M 1959 2075 
Q 2384 2075 2632 2365 
Q 2881 2656 2881 3163 
Q 2881 3666 2632 3958 
Q 2384 4250 1959 4250 
Q 1534 4250 1286 3958 
Q 1038 3666 1038 3163 
Q 1038 2656 1286 2365 
Q 1534 2075 1959 2075 
z
" transform="scale(0.015625)"/>
     </defs>
     <use xlink:href="#DejaVuSans-Oblique-3bc" transform="translate(0 0.78125)"/>
     <use xlink:href="#DejaVuSans-32" transform="translate(63.623047 -15.625) scale(0.7)"/>
     <use xlink:href="#DejaVuSans-3d" transform="translate(130.375977 0.78125)"/>
     <use xlink:href="#DejaVuSans-2212" transform="translate(253.129883 0.78125)"/>
     <use xlink:href="#DejaVuSans-30" transform="translate(356.401367 0.78125)"/>
     <use xlink:href="#DejaVuSans-2e" transform="translate(420.024414 0.78125)"/>
     <use xlink:href="#DejaVuSans-37" transform="translate(444.061523 0.78125)"/>
     <use xlink:href="#DejaVuSans-34" transform="translate(507.68457 0.78125)"/>
     <use xlink:href="#DejaVuSans-39" transform="translate(571.307617 0.78125)"/>
    </g>
    <!-- $\sigma_2 = 4.507$ -->
    <g transform="translate(480.6 98.64) scale(0.19 -0.19)">
     <defs>
      <path id="DejaVuSans-Oblique-3c3" d="M 2219 3044 
Q 1744 3044 1422 2700 
Q 1081 2341 969 1747 
Q 844 1119 1044 756 
Q 1241 397 1706 397 
Q 2166 397 2503 759 
Q 2844 1122 2966 1747 
Q 3075 2319 2881 2700 
Q 2700 3044 2219 3044 
z
M 2309 3503 
L 4219 3500 
L 4106 2925 
L 3463 2925 
Q 3706 2438 3575 1747 
Q 3406 888 2884 400 
Q 2359 -91 1609 -91 
Q 856 -91 525 400 
Q 194 888 363 1747 
Q 528 2609 1050 3097 
Q 1484 3503 2309 3503 
z
" transform="scale(0.015625)"/>
     </defs>
     <use xlink:href="#DejaVuSans-Oblique-3c3" transform="translate(0 0.78125)"/>
     <use xlink:href="#DejaVuSans-32" transform="translate(63.378906 -15.625) scale(0.7)"/>
     <use xlink:href="#DejaVuSans-3d" transform="translate(130.131836 0.78125)"/>
     <use xlink:href="#DejaVuSans-34" transform="translate(233.40332 0.78125)"/>
     <use xlink:href="#DejaVuSans-2e" transform="translate(297.026367 0.78125)"/>
     <use xlink:href="#DejaVuSans-35" transform="translate(328.813477 0.78125)"/>
     <use xlink:href="#DejaVuSans-30" transform="translate(392.436523 0.78125)"/>
     <use xlink:href="#DejaVuSans-37" transform="translate(456.05957 0.78125)"/>
    </g>
   </g>
   <g id="text_18">
    <!-- Distribution of reaction_energy -->
    <g transform="translate(229.5 37.2) scale(0.18 -0.18)">
     <defs>
      <path id="DejaVuSans-44" d="M 1259 4147 
L 1259 519 
L 2022 519 
Q 2988 519 3436 956 
Q 3884 1394 3884 2338 
Q 3884 3275 3436 3711 
Q 2988 4147 2022 4147 
L 1259 4147 
z
M 628 4666 
L 1925 4666 
Q 3281 4666 3915 4102 
Q 4550 3538 4550 2338 
Q 4550 1131 3912 565 
Q 3275 0 1925 0 
L 628 0 
L 628 4666 
z
" transform="scale(0.015625)"/>
      <path id="DejaVuSans-73" d="M 2834 3397 
L 2834 2853 
Q 2591 2978 2328 3040 
Q 2066 3103 1784 3103 
Q 1356 3103 1142 2972 
Q 928 2841 928 2578 
Q 928 2378 1081 2264 
Q 1234 2150 1697 2047 
L 1894 2003 
Q 2506 1872 2764 1633 
Q 3022 1394 3022 966 
Q 3022 478 2636 193 
Q 2250 -91 1575 -91 
Q 1294 -91 989 -36 
Q 684 19 347 128 
L 347 722 
Q 666 556 975 473 
Q 1284 391 1588 391 
Q 1994 391 2212 530 
Q 2431 669 2431 922 
Q 2431 1156 2273 1281 
Q 2116 1406 1581 1522 
L 1381 1569 
Q 847 1681 609 1914 
Q 372 2147 372 2553 
Q 372 3047 722 3315 
Q 1072 3584 1716 3584 
Q 2034 3584 2315 3537 
Q 2597 3491 2834 3397 
z
" transform="scale(0.015625)"/>
      <path id="DejaVuSans-62" d="M 3116 1747 
Q 3116 2381 2855 2742 
Q 2594 3103 2138 3103 
Q 1681 3103 1420 2742 
Q 1159 2381 1159 1747 
Q 1159 1113 1420 752 
Q 1681 391 2138 391 
Q 2594 391 2855 752 
Q 3116 1113 3116 1747 
z
M 1159 2969 
Q 1341 3281 1617 3432 
Q 1894 3584 2278 3584 
Q 2916 3584 3314 3078 
Q 3713 2572 3713 1747 
Q 3713 922 3314 415 
Q 2916 -91 2278 -91 
Q 1894 -91 1617 61 
Q 1341 213 1159 525 
L 1159 0 
L 581 0 
L 581 4863 
L 1159 4863 
L 1159 2969 
z
" transform="scale(0.015625)"/>
     </defs>
     <use xlink:href="#DejaVuSans-44"/>
     <use xlink:href="#DejaVuSans-69" x="77.001953"/>
     <use xlink:href="#DejaVuSans-73" x="104.785156"/>
     <use xlink:href="#DejaVuSans-74" x="156.884766"/>
     <use xlink:href="#DejaVuSans-72" x="196.09375"/>
     <use xlink:href="#DejaVuSans-69" x="237.207031"/>
     <use xlink:href="#DejaVuSans-62" x="264.990234"/>
     <use xlink:href="#DejaVuSans-75" x="328.466797"/>
     <use xlink:href="#DejaVuSans-74" x="391.845703"/>
     <use xlink:href="#DejaVuSans-69" x="431.054688"/>
     <use xlink:href="#DejaVuSans-6f" x="458.837891"/>
     <use xlink:href="#DejaVuSans-6e" x="520.019531"/>
     <use xlink:href="#DejaVuSans-20" x="583.398438"/>
     <use xlink:href="#DejaVuSans-6f" x="615.185547"/>
     <use xlink:href="#DejaVuSans-66" x="676.367188"/>
     <use xlink:href="#DejaVuSans-20" x="711.572266"/>
     <use xlink:href="#DejaVuSans-72" x="743.359375"/>
     <use xlink:href="#DejaVuSans-65" x="782.222656"/>
     <use xlink:href="#DejaVuSans-61" x="843.746094"/>
     <use xlink:href="#DejaVuSans-63" x="905.025391"/>
     <use xlink:href="#DejaVuSans-74" x="960.005859"/>
     <use xlink:href="#DejaVuSans-69" x="999.214844"/>
     <use xlink:href="#DejaVuSans-6f" x="1026.998047"/>
     <use xlink:href="#DejaVuSans-6e" x="1088.179688"/>
     <use xlink:href="#DejaVuSans-5f" x="1151.558594"/>
     <use xlink:href="#DejaVuSans-65" x="1201.558594"/>
     <use xlink:href="#DejaVuSans-6e" x="1263.082031"/>
     <use xlink:href="#DejaVuSans-65" x="1326.460938"/>
     <use xlink:href="#DejaVuSans-72" x="1387.984375"/>
     <use xlink:href="#DejaVuSans-67" x="1427.347656"/>
     <use xlink:href="#DejaVuSans-79" x="1490.824219"/>
    </g>
   </g>
  </g>
 </g>
 <defs>
  <clipPath id="pc06298a25d">
   <rect x="90" y="43.2" width="558" height="277.2"/>
  </clipPath>
 </defs>
</svg>
