<?xml version="1.0" encoding="utf-8" standalone="no"?>
<!DOCTYPE svg PUBLIC "-//W3C//DTD SVG 1.1//EN"
  "http://www.w3.org/Graphics/SVG/1.1/DTD/svg11.dtd">
<svg xmlns:xlink="http://www.w3.org/1999/xlink" width="648pt" height="432pt" viewBox="0 0 648 432" xmlns="http://www.w3.org/2000/svg" version="1.1">
 <metadata>
  <rdf:RDF xmlns:dc="http://purl.org/dc/elements/1.1/" xmlns:cc="http://creativecommons.org/ns#" xmlns:rdf="http://www.w3.org/1999/02/22-rdf-syntax-ns#">
   <cc:Work>
    <dc:type rdf:resource="http://purl.org/dc/dcmitype/StillImage"/>
    <dc:date>2024-02-07T23:15:40.341794</dc:date>
    <dc:format>image/svg+xml</dc:format>
    <dc:creator>
     <cc:Agent>
      <dc:title>Matplotlib v3.7.2, https://matplotlib.org/</dc:title>
     </cc:Agent>
    </dc:creator>
   </cc:Work>
  </rdf:RDF>
 </metadata>
 <defs>
  <style type="text/css">*{stroke-linejoin: round; stroke-linecap: butt}</style>
 </defs>
 <g id="figure_1">
  <g id="patch_1">
   <path d="M 0 432 
L 648 432 
L 648 0 
L 0 0 
z
" style="fill: #ffffff"/>
  </g>
  <g id="axes_1">
   <g id="patch_2">
    <path d="M 60.77 386.44 
L 637.2 386.44 
L 637.2 10.8 
L 60.77 10.8 
z
" style="fill: #ffffff"/>
   </g>
   <g id="patch_3">
    <path d="M 86.971364 386.44 
L 90.128154 386.44 
L 90.128154 386.378835 
L 86.971364 386.378835 
z
" clip-path="url(#p3d79e50de0)" style="fill: #1f77b4"/>
   </g>
   <g id="patch_4">
    <path d="M 90.128154 386.44 
L 93.284945 386.44 
L 93.284945 386.378835 
L 90.128154 386.378835 
z
" clip-path="url(#p3d79e50de0)" style="fill: #1f77b4"/>
   </g>
   <g id="patch_5">
    <path d="M 93.284945 386.44 
L 96.441736 386.44 
L 96.441736 386.44 
L 93.284945 386.44 
z
" clip-path="url(#p3d79e50de0)" style="fill: #1f77b4"/>
   </g>
   <g id="patch_6">
    <path d="M 96.441736 386.44 
L 99.598527 386.44 
L 99.598527 386.44 
L 96.441736 386.44 
z
" clip-path="url(#p3d79e50de0)" style="fill: #1f77b4"/>
   </g>
   <g id="patch_7">
    <path d="M 99.598527 386.44 
L 102.755318 386.44 
L 102.755318 386.44 
L 99.598527 386.44 
z
" clip-path="url(#p3d79e50de0)" style="fill: #1f77b4"/>
   </g>
   <g id="patch_8">
    <path d="M 102.755318 386.44 
L 105.912108 386.44 
L 105.912108 386.317671 
L 102.755318 386.317671 
z
" clip-path="url(#p3d79e50de0)" style="fill: #1f77b4"/>
   </g>
   <g id="patch_9">
    <path d="M 105.912108 386.44 
L 109.068899 386.44 
L 109.068899 386.44 
L 105.912108 386.44 
z
" clip-path="url(#p3d79e50de0)" style="fill: #1f77b4"/>
   </g>
   <g id="patch_10">
    <path d="M 109.068899 386.44 
L 112.22569 386.44 
L 112.22569 386.195341 
L 109.068899 386.195341 
z
" clip-path="url(#p3d79e50de0)" style="fill: #1f77b4"/>
   </g>
   <g id="patch_11">
    <path d="M 112.22569 386.44 
L 115.382481 386.44 
L 115.382481 386.44 
L 112.22569 386.44 
z
" clip-path="url(#p3d79e50de0)" style="fill: #1f77b4"/>
   </g>
   <g id="patch_12">
    <path d="M 115.382481 386.44 
L 118.539272 386.44 
L 118.539272 386.317671 
L 115.382481 386.317671 
z
" clip-path="url(#p3d79e50de0)" style="fill: #1f77b4"/>
   </g>
   <g id="patch_13">
    <path d="M 118.539272 386.44 
L 121.696062 386.44 
L 121.696062 386.44 
L 118.539272 386.44 
z
" clip-path="url(#p3d79e50de0)" style="fill: #1f77b4"/>
   </g>
   <g id="patch_14">
    <path d="M 121.696062 386.44 
L 124.852853 386.44 
L 124.852853 386.256506 
L 121.696062 386.256506 
z
" clip-path="url(#p3d79e50de0)" style="fill: #1f77b4"/>
   </g>
   <g id="patch_15">
    <path d="M 124.852853 386.44 
L 128.009644 386.44 
L 128.009644 386.44 
L 124.852853 386.44 
z
" clip-path="url(#p3d79e50de0)" style="fill: #1f77b4"/>
   </g>
   <g id="patch_16">
    <path d="M 128.009644 386.44 
L 131.166435 386.44 
L 131.166435 385.950682 
L 128.009644 385.950682 
z
" clip-path="url(#p3d79e50de0)" style="fill: #1f77b4"/>
   </g>
   <g id="patch_17">
    <path d="M 131.166435 386.44 
L 134.323226 386.44 
L 134.323226 386.44 
L 131.166435 386.44 
z
" clip-path="url(#p3d79e50de0)" style="fill: #1f77b4"/>
   </g>
   <g id="patch_18">
    <path d="M 134.323226 386.44 
L 137.480016 386.44 
L 137.480016 385.461365 
L 134.323226 385.461365 
z
" clip-path="url(#p3d79e50de0)" style="fill: #1f77b4"/>
   </g>
   <g id="patch_19">
    <path d="M 137.480016 386.44 
L 140.636807 386.44 
L 140.636807 386.44 
L 137.480016 386.44 
z
" clip-path="url(#p3d79e50de0)" style="fill: #1f77b4"/>
   </g>
   <g id="patch_20">
    <path d="M 140.636807 386.44 
L 143.793598 386.44 
L 143.793598 385.767188 
L 140.636807 385.767188 
z
" clip-path="url(#p3d79e50de0)" style="fill: #1f77b4"/>
   </g>
   <g id="patch_21">
    <path d="M 143.793598 386.44 
L 146.950389 386.44 
L 146.950389 386.44 
L 143.793598 386.44 
z
" clip-path="url(#p3d79e50de0)" style="fill: #1f77b4"/>
   </g>
   <g id="patch_22">
    <path d="M 146.950389 386.44 
L 150.10718 386.44 
L 150.10718 385.339035 
L 146.950389 385.339035 
z
" clip-path="url(#p3d79e50de0)" style="fill: #1f77b4"/>
   </g>
   <g id="patch_23">
    <path d="M 150.10718 386.44 
L 153.26397 386.44 
L 153.26397 384.605059 
L 150.10718 384.605059 
z
" clip-path="url(#p3d79e50de0)" style="fill: #1f77b4"/>
   </g>
   <g id="patch_24">
    <path d="M 153.26397 386.44 
L 156.420761 386.44 
L 156.420761 386.44 
L 153.26397 386.44 
z
" clip-path="url(#p3d79e50de0)" style="fill: #1f77b4"/>
   </g>
   <g id="patch_25">
    <path d="M 156.420761 386.44 
L 159.577552 386.44 
L 159.577552 384.054576 
L 156.420761 384.054576 
z
" clip-path="url(#p3d79e50de0)" style="fill: #1f77b4"/>
   </g>
   <g id="patch_26">
    <path d="M 159.577552 386.44 
L 162.734343 386.44 
L 162.734343 386.44 
L 159.577552 386.44 
z
" clip-path="url(#p3d79e50de0)" style="fill: #1f77b4"/>
   </g>
   <g id="patch_27">
    <path d="M 162.734343 386.44 
L 165.891134 386.44 
L 165.891134 382.831282 
L 162.734343 382.831282 
z
" clip-path="url(#p3d79e50de0)" style="fill: #1f77b4"/>
   </g>
   <g id="patch_28">
    <path d="M 165.891134 386.44 
L 169.047924 386.44 
L 169.047924 386.44 
L 165.891134 386.44 
z
" clip-path="url(#p3d79e50de0)" style="fill: #1f77b4"/>
   </g>
   <g id="patch_29">
    <path d="M 169.047924 386.44 
L 172.204715 386.44 
L 172.204715 380.812847 
L 169.047924 380.812847 
z
" clip-path="url(#p3d79e50de0)" style="fill: #1f77b4"/>
   </g>
   <g id="patch_30">
    <path d="M 172.204715 386.44 
L 175.361506 386.44 
L 175.361506 386.44 
L 172.204715 386.44 
z
" clip-path="url(#p3d79e50de0)" style="fill: #1f77b4"/>
   </g>
   <g id="patch_31">
    <path d="M 175.361506 386.44 
L 178.518297 386.44 
L 178.518297 381.057506 
L 175.361506 381.057506 
z
" clip-path="url(#p3d79e50de0)" style="fill: #1f77b4"/>
   </g>
   <g id="patch_32">
    <path d="M 178.518297 386.44 
L 181.675088 386.44 
L 181.675088 386.44 
L 178.518297 386.44 
z
" clip-path="url(#p3d79e50de0)" style="fill: #1f77b4"/>
   </g>
   <g id="patch_33">
    <path d="M 181.675088 386.44 
L 184.831878 386.44 
L 184.831878 376.408988 
L 181.675088 376.408988 
z
" clip-path="url(#p3d79e50de0)" style="fill: #1f77b4"/>
   </g>
   <g id="patch_34">
    <path d="M 184.831878 386.44 
L 187.988669 386.44 
L 187.988669 386.44 
L 184.831878 386.44 
z
" clip-path="url(#p3d79e50de0)" style="fill: #1f77b4"/>
   </g>
   <g id="patch_35">
    <path d="M 187.988669 386.44 
L 191.14546 386.44 
L 191.14546 375.613847 
L 187.988669 375.613847 
z
" clip-path="url(#p3d79e50de0)" style="fill: #1f77b4"/>
   </g>
   <g id="patch_36">
    <path d="M 191.14546 386.44 
L 194.302251 386.44 
L 194.302251 386.44 
L 191.14546 386.44 
z
" clip-path="url(#p3d79e50de0)" style="fill: #1f77b4"/>
   </g>
   <g id="patch_37">
    <path d="M 194.302251 386.44 
L 197.459042 386.44 
L 197.459042 370.537176 
L 194.302251 370.537176 
z
" clip-path="url(#p3d79e50de0)" style="fill: #1f77b4"/>
   </g>
   <g id="patch_38">
    <path d="M 197.459042 386.44 
L 200.615832 386.44 
L 200.615832 386.44 
L 197.459042 386.44 
z
" clip-path="url(#p3d79e50de0)" style="fill: #1f77b4"/>
   </g>
   <g id="patch_39">
    <path d="M 200.615832 386.44 
L 203.772623 386.44 
L 203.772623 365.093517 
L 200.615832 365.093517 
z
" clip-path="url(#p3d79e50de0)" style="fill: #1f77b4"/>
   </g>
   <g id="patch_40">
    <path d="M 203.772623 386.44 
L 206.929414 386.44 
L 206.929414 386.44 
L 203.772623 386.44 
z
" clip-path="url(#p3d79e50de0)" style="fill: #1f77b4"/>
   </g>
   <g id="patch_41">
    <path d="M 206.929414 386.44 
L 210.086205 386.44 
L 210.086205 362.585764 
L 206.929414 362.585764 
z
" clip-path="url(#p3d79e50de0)" style="fill: #1f77b4"/>
   </g>
   <g id="patch_42">
    <path d="M 210.086205 386.44 
L 213.242996 386.44 
L 213.242996 386.44 
L 210.086205 386.44 
z
" clip-path="url(#p3d79e50de0)" style="fill: #1f77b4"/>
   </g>
   <g id="patch_43">
    <path d="M 213.242996 386.44 
L 216.399786 386.44 
L 216.399786 354.083869 
L 213.242996 354.083869 
z
" clip-path="url(#p3d79e50de0)" style="fill: #1f77b4"/>
   </g>
   <g id="patch_44">
    <path d="M 216.399786 386.44 
L 219.556577 386.44 
L 219.556577 348.212057 
L 216.399786 348.212057 
z
" clip-path="url(#p3d79e50de0)" style="fill: #1f77b4"/>
   </g>
   <g id="patch_45">
    <path d="M 219.556577 386.44 
L 222.713368 386.44 
L 222.713368 386.44 
L 219.556577 386.44 
z
" clip-path="url(#p3d79e50de0)" style="fill: #1f77b4"/>
   </g>
   <g id="patch_46">
    <path d="M 222.713368 386.44 
L 225.870159 386.44 
L 225.870159 337.018915 
L 222.713368 337.018915 
z
" clip-path="url(#p3d79e50de0)" style="fill: #1f77b4"/>
   </g>
   <g id="patch_47">
    <path d="M 225.870159 386.44 
L 229.02695 386.44 
L 229.02695 386.44 
L 225.870159 386.44 
z
" clip-path="url(#p3d79e50de0)" style="fill: #1f77b4"/>
   </g>
   <g id="patch_48">
    <path d="M 229.02695 386.44 
L 232.18374 386.44 
L 232.18374 321.36075 
L 229.02695 321.36075 
z
" clip-path="url(#p3d79e50de0)" style="fill: #1f77b4"/>
   </g>
   <g id="patch_49">
    <path d="M 232.18374 386.44 
L 235.340531 386.44 
L 235.340531 386.44 
L 232.18374 386.44 
z
" clip-path="url(#p3d79e50de0)" style="fill: #1f77b4"/>
   </g>
   <g id="patch_50">
    <path d="M 235.340531 386.44 
L 238.497322 386.44 
L 238.497322 316.589903 
L 235.340531 316.589903 
z
" clip-path="url(#p3d79e50de0)" style="fill: #1f77b4"/>
   </g>
   <g id="patch_51">
    <path d="M 238.497322 386.44 
L 241.654113 386.44 
L 241.654113 386.44 
L 238.497322 386.44 
z
" clip-path="url(#p3d79e50de0)" style="fill: #1f77b4"/>
   </g>
   <g id="patch_52">
    <path d="M 241.654113 386.44 
L 244.810904 386.44 
L 244.810904 293.347313 
L 241.654113 293.347313 
z
" clip-path="url(#p3d79e50de0)" style="fill: #1f77b4"/>
   </g>
   <g id="patch_53">
    <path d="M 244.810904 386.44 
L 247.967694 386.44 
L 247.967694 386.44 
L 244.810904 386.44 
z
" clip-path="url(#p3d79e50de0)" style="fill: #1f77b4"/>
   </g>
   <g id="patch_54">
    <path d="M 247.967694 386.44 
L 251.124485 386.44 
L 251.124485 277.016336 
L 247.967694 277.016336 
z
" clip-path="url(#p3d79e50de0)" style="fill: #1f77b4"/>
   </g>
   <g id="patch_55">
    <path d="M 251.124485 386.44 
L 254.281276 386.44 
L 254.281276 386.44 
L 251.124485 386.44 
z
" clip-path="url(#p3d79e50de0)" style="fill: #1f77b4"/>
   </g>
   <g id="patch_56">
    <path d="M 254.281276 386.44 
L 257.438067 386.44 
L 257.438067 259.645559 
L 254.281276 259.645559 
z
" clip-path="url(#p3d79e50de0)" style="fill: #1f77b4"/>
   </g>
   <g id="patch_57">
    <path d="M 257.438067 386.44 
L 260.594858 386.44 
L 260.594858 386.44 
L 257.438067 386.44 
z
" clip-path="url(#p3d79e50de0)" style="fill: #1f77b4"/>
   </g>
   <g id="patch_58">
    <path d="M 260.594858 386.44 
L 263.751648 386.44 
L 263.751648 234.935017 
L 260.594858 234.935017 
z
" clip-path="url(#p3d79e50de0)" style="fill: #1f77b4"/>
   </g>
   <g id="patch_59">
    <path d="M 263.751648 386.44 
L 266.908439 386.44 
L 266.908439 386.44 
L 263.751648 386.44 
z
" clip-path="url(#p3d79e50de0)" style="fill: #1f77b4"/>
   </g>
   <g id="patch_60">
    <path d="M 266.908439 386.44 
L 270.06523 386.44 
L 270.06523 214.32251 
L 266.908439 214.32251 
z
" clip-path="url(#p3d79e50de0)" style="fill: #1f77b4"/>
   </g>
   <g id="patch_61">
    <path d="M 270.06523 386.44 
L 273.222021 386.44 
L 273.222021 386.44 
L 270.06523 386.44 
z
" clip-path="url(#p3d79e50de0)" style="fill: #1f77b4"/>
   </g>
   <g id="patch_62">
    <path d="M 273.222021 386.44 
L 276.378812 386.44 
L 276.378812 188.205179 
L 273.222021 188.205179 
z
" clip-path="url(#p3d79e50de0)" style="fill: #1f77b4"/>
   </g>
   <g id="patch_63">
    <path d="M 276.378812 386.44 
L 279.535602 386.44 
L 279.535602 386.44 
L 276.378812 386.44 
z
" clip-path="url(#p3d79e50de0)" style="fill: #1f77b4"/>
   </g>
   <g id="patch_64">
    <path d="M 279.535602 386.44 
L 282.692393 386.44 
L 282.692393 168.877131 
L 279.535602 168.877131 
z
" clip-path="url(#p3d79e50de0)" style="fill: #1f77b4"/>
   </g>
   <g id="patch_65">
    <path d="M 282.692393 386.44 
L 285.849184 386.44 
L 285.849184 142.88213 
L 282.692393 142.88213 
z
" clip-path="url(#p3d79e50de0)" style="fill: #1f77b4"/>
   </g>
   <g id="patch_66">
    <path d="M 285.849184 386.44 
L 289.005975 386.44 
L 289.005975 386.44 
L 285.849184 386.44 
z
" clip-path="url(#p3d79e50de0)" style="fill: #1f77b4"/>
   </g>
   <g id="patch_67">
    <path d="M 289.005975 386.44 
L 292.162766 386.44 
L 292.162766 113.706564 
L 289.005975 113.706564 
z
" clip-path="url(#p3d79e50de0)" style="fill: #1f77b4"/>
   </g>
   <g id="patch_68">
    <path d="M 292.162766 386.44 
L 295.319556 386.44 
L 295.319556 386.44 
L 292.162766 386.44 
z
" clip-path="url(#p3d79e50de0)" style="fill: #1f77b4"/>
   </g>
   <g id="patch_69">
    <path d="M 295.319556 386.44 
L 298.476347 386.44 
L 298.476347 87.833892 
L 295.319556 87.833892 
z
" clip-path="url(#p3d79e50de0)" style="fill: #1f77b4"/>
   </g>
   <g id="patch_70">
    <path d="M 298.476347 386.44 
L 301.633138 386.44 
L 301.633138 386.44 
L 298.476347 386.44 
z
" clip-path="url(#p3d79e50de0)" style="fill: #1f77b4"/>
   </g>
   <g id="patch_71">
    <path d="M 301.633138 386.44 
L 304.789929 386.44 
L 304.789929 65.631103 
L 301.633138 65.631103 
z
" clip-path="url(#p3d79e50de0)" style="fill: #1f77b4"/>
   </g>
   <g id="patch_72">
    <path d="M 304.789929 386.44 
L 307.94672 386.44 
L 307.94672 386.44 
L 304.789929 386.44 
z
" clip-path="url(#p3d79e50de0)" style="fill: #1f77b4"/>
   </g>
   <g id="patch_73">
    <path d="M 307.94672 386.44 
L 311.10351 386.44 
L 311.10351 50.706914 
L 307.94672 50.706914 
z
" clip-path="url(#p3d79e50de0)" style="fill: #1f77b4"/>
   </g>
   <g id="patch_74">
    <path d="M 311.10351 386.44 
L 314.260301 386.44 
L 314.260301 386.44 
L 311.10351 386.44 
z
" clip-path="url(#p3d79e50de0)" style="fill: #1f77b4"/>
   </g>
   <g id="patch_75">
    <path d="M 314.260301 386.44 
L 317.417092 386.44 
L 317.417092 40.798231 
L 314.260301 40.798231 
z
" clip-path="url(#p3d79e50de0)" style="fill: #1f77b4"/>
   </g>
   <g id="patch_76">
    <path d="M 317.417092 386.44 
L 320.573883 386.44 
L 320.573883 386.44 
L 317.417092 386.44 
z
" clip-path="url(#p3d79e50de0)" style="fill: #1f77b4"/>
   </g>
   <g id="patch_77">
    <path d="M 320.573883 386.44 
L 323.730674 386.44 
L 323.730674 30.52256 
L 320.573883 30.52256 
z
" clip-path="url(#p3d79e50de0)" style="fill: #1f77b4"/>
   </g>
   <g id="patch_78">
    <path d="M 323.730674 386.44 
L 326.887464 386.44 
L 326.887464 386.44 
L 323.730674 386.44 
z
" clip-path="url(#p3d79e50de0)" style="fill: #1f77b4"/>
   </g>
   <g id="patch_79">
    <path d="M 326.887464 386.44 
L 330.044255 386.44 
L 330.044255 28.687619 
L 326.887464 28.687619 
z
" clip-path="url(#p3d79e50de0)" style="fill: #1f77b4"/>
   </g>
   <g id="patch_80">
    <path d="M 330.044255 386.44 
L 333.201046 386.44 
L 333.201046 386.44 
L 330.044255 386.44 
z
" clip-path="url(#p3d79e50de0)" style="fill: #1f77b4"/>
   </g>
   <g id="patch_81">
    <path d="M 333.201046 386.44 
L 336.357837 386.44 
L 336.357837 33.886619 
L 333.201046 33.886619 
z
" clip-path="url(#p3d79e50de0)" style="fill: #1f77b4"/>
   </g>
   <g id="patch_82">
    <path d="M 336.357837 386.44 
L 339.514628 386.44 
L 339.514628 386.44 
L 336.357837 386.44 
z
" clip-path="url(#p3d79e50de0)" style="fill: #1f77b4"/>
   </g>
   <g id="patch_83">
    <path d="M 339.514628 386.44 
L 342.671418 386.44 
L 342.671418 35.415737 
L 339.514628 35.415737 
z
" clip-path="url(#p3d79e50de0)" style="fill: #1f77b4"/>
   </g>
   <g id="patch_84">
    <path d="M 342.671418 386.44 
L 345.828209 386.44 
L 345.828209 386.44 
L 342.671418 386.44 
z
" clip-path="url(#p3d79e50de0)" style="fill: #1f77b4"/>
   </g>
   <g id="patch_85">
    <path d="M 345.828209 386.44 
L 348.985 386.44 
L 348.985 40.553573 
L 345.828209 40.553573 
z
" clip-path="url(#p3d79e50de0)" style="fill: #1f77b4"/>
   </g>
   <g id="patch_86">
    <path d="M 348.985 386.44 
L 352.141791 386.44 
L 352.141791 49.605949 
L 348.985 49.605949 
z
" clip-path="url(#p3d79e50de0)" style="fill: #1f77b4"/>
   </g>
   <g id="patch_87">
    <path d="M 352.141791 386.44 
L 355.298582 386.44 
L 355.298582 386.44 
L 352.141791 386.44 
z
" clip-path="url(#p3d79e50de0)" style="fill: #1f77b4"/>
   </g>
   <g id="patch_88">
    <path d="M 355.298582 386.44 
L 358.455372 386.44 
L 358.455372 66.303915 
L 355.298582 66.303915 
z
" clip-path="url(#p3d79e50de0)" style="fill: #1f77b4"/>
   </g>
   <g id="patch_89">
    <path d="M 358.455372 386.44 
L 361.612163 386.44 
L 361.612163 386.44 
L 358.455372 386.44 
z
" clip-path="url(#p3d79e50de0)" style="fill: #1f77b4"/>
   </g>
   <g id="patch_90">
    <path d="M 361.612163 386.44 
L 364.768954 386.44 
L 364.768954 65.753432 
L 361.612163 65.753432 
z
" clip-path="url(#p3d79e50de0)" style="fill: #1f77b4"/>
   </g>
   <g id="patch_91">
    <path d="M 364.768954 386.44 
L 367.925745 386.44 
L 367.925745 386.44 
L 364.768954 386.44 
z
" clip-path="url(#p3d79e50de0)" style="fill: #1f77b4"/>
   </g>
   <g id="patch_92">
    <path d="M 367.925745 386.44 
L 371.082536 386.44 
L 371.082536 80.799951 
L 367.925745 80.799951 
z
" clip-path="url(#p3d79e50de0)" style="fill: #1f77b4"/>
   </g>
   <g id="patch_93">
    <path d="M 371.082536 386.44 
L 374.239326 386.44 
L 374.239326 386.44 
L 371.082536 386.44 
z
" clip-path="url(#p3d79e50de0)" style="fill: #1f77b4"/>
   </g>
   <g id="patch_94">
    <path d="M 374.239326 386.44 
L 377.396117 386.44 
L 377.396117 84.225175 
L 374.239326 84.225175 
z
" clip-path="url(#p3d79e50de0)" style="fill: #1f77b4"/>
   </g>
   <g id="patch_95">
    <path d="M 377.396117 386.44 
L 380.552908 386.44 
L 380.552908 386.44 
L 377.396117 386.44 
z
" clip-path="url(#p3d79e50de0)" style="fill: #1f77b4"/>
   </g>
   <g id="patch_96">
    <path d="M 380.552908 386.44 
L 383.709699 386.44 
L 383.709699 85.998951 
L 380.552908 85.998951 
z
" clip-path="url(#p3d79e50de0)" style="fill: #1f77b4"/>
   </g>
   <g id="patch_97">
    <path d="M 383.709699 386.44 
L 386.86649 386.44 
L 386.86649 386.44 
L 383.709699 386.44 
z
" clip-path="url(#p3d79e50de0)" style="fill: #1f77b4"/>
   </g>
   <g id="patch_98">
    <path d="M 386.86649 386.44 
L 390.02328 386.44 
L 390.02328 97.375587 
L 386.86649 97.375587 
z
" clip-path="url(#p3d79e50de0)" style="fill: #1f77b4"/>
   </g>
   <g id="patch_99">
    <path d="M 390.02328 386.44 
L 393.180071 386.44 
L 393.180071 386.44 
L 390.02328 386.44 
z
" clip-path="url(#p3d79e50de0)" style="fill: #1f77b4"/>
   </g>
   <g id="patch_100">
    <path d="M 393.180071 386.44 
L 396.336862 386.44 
L 396.336862 112.055117 
L 393.180071 112.055117 
z
" clip-path="url(#p3d79e50de0)" style="fill: #1f77b4"/>
   </g>
   <g id="patch_101">
    <path d="M 396.336862 386.44 
L 399.493653 386.44 
L 399.493653 386.44 
L 396.336862 386.44 
z
" clip-path="url(#p3d79e50de0)" style="fill: #1f77b4"/>
   </g>
   <g id="patch_102">
    <path d="M 399.493653 386.44 
L 402.650444 386.44 
L 402.650444 131.566659 
L 399.493653 131.566659 
z
" clip-path="url(#p3d79e50de0)" style="fill: #1f77b4"/>
   </g>
   <g id="patch_103">
    <path d="M 402.650444 386.44 
L 405.807234 386.44 
L 405.807234 386.44 
L 402.650444 386.44 
z
" clip-path="url(#p3d79e50de0)" style="fill: #1f77b4"/>
   </g>
   <g id="patch_104">
    <path d="M 405.807234 386.44 
L 408.964025 386.44 
L 408.964025 157.68399 
L 405.807234 157.68399 
z
" clip-path="url(#p3d79e50de0)" style="fill: #1f77b4"/>
   </g>
   <g id="patch_105">
    <path d="M 408.964025 386.44 
L 412.120816 386.44 
L 412.120816 386.44 
L 408.964025 386.44 
z
" clip-path="url(#p3d79e50de0)" style="fill: #1f77b4"/>
   </g>
   <g id="patch_106">
    <path d="M 412.120816 386.44 
L 415.277607 386.44 
L 415.277607 175.849908 
L 412.120816 175.849908 
z
" clip-path="url(#p3d79e50de0)" style="fill: #1f77b4"/>
   </g>
   <g id="patch_107">
    <path d="M 415.277607 386.44 
L 418.434398 386.44 
L 418.434398 199.765309 
L 415.277607 199.765309 
z
" clip-path="url(#p3d79e50de0)" style="fill: #1f77b4"/>
   </g>
   <g id="patch_108">
    <path d="M 418.434398 386.44 
L 421.591188 386.44 
L 421.591188 386.44 
L 418.434398 386.44 
z
" clip-path="url(#p3d79e50de0)" style="fill: #1f77b4"/>
   </g>
   <g id="patch_109">
    <path d="M 421.591188 386.44 
L 424.747979 386.44 
L 424.747979 216.035122 
L 421.591188 216.035122 
z
" clip-path="url(#p3d79e50de0)" style="fill: #1f77b4"/>
   </g>
   <g id="patch_110">
    <path d="M 424.747979 386.44 
L 427.90477 386.44 
L 427.90477 386.44 
L 424.747979 386.44 
z
" clip-path="url(#p3d79e50de0)" style="fill: #1f77b4"/>
   </g>
   <g id="patch_111">
    <path d="M 427.90477 386.44 
L 431.061561 386.44 
L 431.061561 244.170888 
L 427.90477 244.170888 
z
" clip-path="url(#p3d79e50de0)" style="fill: #1f77b4"/>
   </g>
   <g id="patch_112">
    <path d="M 431.061561 386.44 
L 434.218352 386.44 
L 434.218352 386.44 
L 431.061561 386.44 
z
" clip-path="url(#p3d79e50de0)" style="fill: #1f77b4"/>
   </g>
   <g id="patch_113">
    <path d="M 434.218352 386.44 
L 437.375142 386.44 
L 437.375142 255.119371 
L 434.218352 255.119371 
z
" clip-path="url(#p3d79e50de0)" style="fill: #1f77b4"/>
   </g>
   <g id="patch_114">
    <path d="M 437.375142 386.44 
L 440.531933 386.44 
L 440.531933 386.44 
L 437.375142 386.44 
z
" clip-path="url(#p3d79e50de0)" style="fill: #1f77b4"/>
   </g>
   <g id="patch_115">
    <path d="M 440.531933 386.44 
L 443.688724 386.44 
L 443.688724 276.16003 
L 440.531933 276.16003 
z
" clip-path="url(#p3d79e50de0)" style="fill: #1f77b4"/>
   </g>
   <g id="patch_116">
    <path d="M 443.688724 386.44 
L 446.845515 386.44 
L 446.845515 386.44 
L 443.688724 386.44 
z
" clip-path="url(#p3d79e50de0)" style="fill: #1f77b4"/>
   </g>
   <g id="patch_117">
    <path d="M 446.845515 386.44 
L 450.002306 386.44 
L 450.002306 294.020125 
L 446.845515 294.020125 
z
" clip-path="url(#p3d79e50de0)" style="fill: #1f77b4"/>
   </g>
   <g id="patch_118">
    <path d="M 450.002306 386.44 
L 453.159096 386.44 
L 453.159096 386.44 
L 450.002306 386.44 
z
" clip-path="url(#p3d79e50de0)" style="fill: #1f77b4"/>
   </g>
   <g id="patch_119">
    <path d="M 453.159096 386.44 
L 456.315887 386.44 
L 456.315887 313.592832 
L 453.159096 313.592832 
z
" clip-path="url(#p3d79e50de0)" style="fill: #1f77b4"/>
   </g>
   <g id="patch_120">
    <path d="M 456.315887 386.44 
L 459.472678 386.44 
L 459.472678 386.44 
L 456.315887 386.44 
z
" clip-path="url(#p3d79e50de0)" style="fill: #1f77b4"/>
   </g>
   <g id="patch_121">
    <path d="M 459.472678 386.44 
L 462.629469 386.44 
L 462.629469 326.376256 
L 459.472678 326.376256 
z
" clip-path="url(#p3d79e50de0)" style="fill: #1f77b4"/>
   </g>
   <g id="patch_122">
    <path d="M 462.629469 386.44 
L 465.78626 386.44 
L 465.78626 386.44 
L 462.629469 386.44 
z
" clip-path="url(#p3d79e50de0)" style="fill: #1f77b4"/>
   </g>
   <g id="patch_123">
    <path d="M 465.78626 386.44 
L 468.94305 386.44 
L 468.94305 338.058715 
L 465.78626 338.058715 
z
" clip-path="url(#p3d79e50de0)" style="fill: #1f77b4"/>
   </g>
   <g id="patch_124">
    <path d="M 468.94305 386.44 
L 472.099841 386.44 
L 472.099841 386.44 
L 468.94305 386.44 
z
" clip-path="url(#p3d79e50de0)" style="fill: #1f77b4"/>
   </g>
   <g id="patch_125">
    <path d="M 472.099841 386.44 
L 475.256632 386.44 
L 475.256632 349.68001 
L 472.099841 349.68001 
z
" clip-path="url(#p3d79e50de0)" style="fill: #1f77b4"/>
   </g>
   <g id="patch_126">
    <path d="M 475.256632 386.44 
L 478.413423 386.44 
L 478.413423 386.44 
L 475.256632 386.44 
z
" clip-path="url(#p3d79e50de0)" style="fill: #1f77b4"/>
   </g>
   <g id="patch_127">
    <path d="M 478.413423 386.44 
L 481.570214 386.44 
L 481.570214 357.509093 
L 478.413423 357.509093 
z
" clip-path="url(#p3d79e50de0)" style="fill: #1f77b4"/>
   </g>
   <g id="patch_128">
    <path d="M 481.570214 386.44 
L 484.727004 386.44 
L 484.727004 362.524599 
L 481.570214 362.524599 
z
" clip-path="url(#p3d79e50de0)" style="fill: #1f77b4"/>
   </g>
   <g id="patch_129">
    <path d="M 484.727004 386.44 
L 487.883795 386.44 
L 487.883795 386.44 
L 484.727004 386.44 
z
" clip-path="url(#p3d79e50de0)" style="fill: #1f77b4"/>
   </g>
   <g id="patch_130">
    <path d="M 487.883795 386.44 
L 491.040586 386.44 
L 491.040586 371.148823 
L 487.883795 371.148823 
z
" clip-path="url(#p3d79e50de0)" style="fill: #1f77b4"/>
   </g>
   <g id="patch_131">
    <path d="M 491.040586 386.44 
L 494.197377 386.44 
L 494.197377 386.44 
L 491.040586 386.44 
z
" clip-path="url(#p3d79e50de0)" style="fill: #1f77b4"/>
   </g>
   <g id="patch_132">
    <path d="M 494.197377 386.44 
L 497.354168 386.44 
L 497.354168 375.980835 
L 494.197377 375.980835 
z
" clip-path="url(#p3d79e50de0)" style="fill: #1f77b4"/>
   </g>
   <g id="patch_133">
    <path d="M 497.354168 386.44 
L 500.510958 386.44 
L 500.510958 386.44 
L 497.354168 386.44 
z
" clip-path="url(#p3d79e50de0)" style="fill: #1f77b4"/>
   </g>
   <g id="patch_134">
    <path d="M 500.510958 386.44 
L 503.667749 386.44 
L 503.667749 377.632282 
L 500.510958 377.632282 
z
" clip-path="url(#p3d79e50de0)" style="fill: #1f77b4"/>
   </g>
   <g id="patch_135">
    <path d="M 503.667749 386.44 
L 506.82454 386.44 
L 506.82454 386.44 
L 503.667749 386.44 
z
" clip-path="url(#p3d79e50de0)" style="fill: #1f77b4"/>
   </g>
   <g id="patch_136">
    <path d="M 506.82454 386.44 
L 509.981331 386.44 
L 509.981331 380.629353 
L 506.82454 380.629353 
z
" clip-path="url(#p3d79e50de0)" style="fill: #1f77b4"/>
   </g>
   <g id="patch_137">
    <path d="M 509.981331 386.44 
L 513.138122 386.44 
L 513.138122 386.44 
L 509.981331 386.44 
z
" clip-path="url(#p3d79e50de0)" style="fill: #1f77b4"/>
   </g>
   <g id="patch_138">
    <path d="M 513.138122 386.44 
L 516.294912 386.44 
L 516.294912 382.464294 
L 513.138122 382.464294 
z
" clip-path="url(#p3d79e50de0)" style="fill: #1f77b4"/>
   </g>
   <g id="patch_139">
    <path d="M 516.294912 386.44 
L 519.451703 386.44 
L 519.451703 386.44 
L 516.294912 386.44 
z
" clip-path="url(#p3d79e50de0)" style="fill: #1f77b4"/>
   </g>
   <g id="patch_140">
    <path d="M 519.451703 386.44 
L 522.608494 386.44 
L 522.608494 382.953612 
L 519.451703 382.953612 
z
" clip-path="url(#p3d79e50de0)" style="fill: #1f77b4"/>
   </g>
   <g id="patch_141">
    <path d="M 522.608494 386.44 
L 525.765285 386.44 
L 525.765285 386.44 
L 522.608494 386.44 
z
" clip-path="url(#p3d79e50de0)" style="fill: #1f77b4"/>
   </g>
   <g id="patch_142">
    <path d="M 525.765285 386.44 
L 528.922076 386.44 
L 528.922076 383.565259 
L 525.765285 383.565259 
z
" clip-path="url(#p3d79e50de0)" style="fill: #1f77b4"/>
   </g>
   <g id="patch_143">
    <path d="M 528.922076 386.44 
L 532.078866 386.44 
L 532.078866 386.44 
L 528.922076 386.44 
z
" clip-path="url(#p3d79e50de0)" style="fill: #1f77b4"/>
   </g>
   <g id="patch_144">
    <path d="M 532.078866 386.44 
L 535.235657 386.44 
L 535.235657 384.727388 
L 532.078866 384.727388 
z
" clip-path="url(#p3d79e50de0)" style="fill: #1f77b4"/>
   </g>
   <g id="patch_145">
    <path d="M 535.235657 386.44 
L 538.392448 386.44 
L 538.392448 386.44 
L 535.235657 386.44 
z
" clip-path="url(#p3d79e50de0)" style="fill: #1f77b4"/>
   </g>
   <g id="patch_146">
    <path d="M 538.392448 386.44 
L 541.549239 386.44 
L 541.549239 385.339035 
L 538.392448 385.339035 
z
" clip-path="url(#p3d79e50de0)" style="fill: #1f77b4"/>
   </g>
   <g id="patch_147">
    <path d="M 541.549239 386.44 
L 544.70603 386.44 
L 544.70603 386.44 
L 541.549239 386.44 
z
" clip-path="url(#p3d79e50de0)" style="fill: #1f77b4"/>
   </g>
   <g id="patch_148">
    <path d="M 544.70603 386.44 
L 547.86282 386.44 
L 547.86282 385.889518 
L 544.70603 385.889518 
z
" clip-path="url(#p3d79e50de0)" style="fill: #1f77b4"/>
   </g>
   <g id="patch_149">
    <path d="M 547.86282 386.44 
L 551.019611 386.44 
L 551.019611 385.706023 
L 547.86282 385.706023 
z
" clip-path="url(#p3d79e50de0)" style="fill: #1f77b4"/>
   </g>
   <g id="patch_150">
    <path d="M 551.019611 386.44 
L 554.176402 386.44 
L 554.176402 386.44 
L 551.019611 386.44 
z
" clip-path="url(#p3d79e50de0)" style="fill: #1f77b4"/>
   </g>
   <g id="patch_151">
    <path d="M 554.176402 386.44 
L 557.333193 386.44 
L 557.333193 385.889518 
L 554.176402 385.889518 
z
" clip-path="url(#p3d79e50de0)" style="fill: #1f77b4"/>
   </g>
   <g id="patch_152">
    <path d="M 557.333193 386.44 
L 560.489984 386.44 
L 560.489984 386.44 
L 557.333193 386.44 
z
" clip-path="url(#p3d79e50de0)" style="fill: #1f77b4"/>
   </g>
   <g id="patch_153">
    <path d="M 560.489984 386.44 
L 563.646774 386.44 
L 563.646774 386.195341 
L 560.489984 386.195341 
z
" clip-path="url(#p3d79e50de0)" style="fill: #1f77b4"/>
   </g>
   <g id="patch_154">
    <path d="M 563.646774 386.44 
L 566.803565 386.44 
L 566.803565 386.44 
L 563.646774 386.44 
z
" clip-path="url(#p3d79e50de0)" style="fill: #1f77b4"/>
   </g>
   <g id="patch_155">
    <path d="M 566.803565 386.44 
L 569.960356 386.44 
L 569.960356 386.073012 
L 566.803565 386.073012 
z
" clip-path="url(#p3d79e50de0)" style="fill: #1f77b4"/>
   </g>
   <g id="patch_156">
    <path d="M 569.960356 386.44 
L 573.117147 386.44 
L 573.117147 386.44 
L 569.960356 386.44 
z
" clip-path="url(#p3d79e50de0)" style="fill: #1f77b4"/>
   </g>
   <g id="patch_157">
    <path d="M 573.117147 386.44 
L 576.273938 386.44 
L 576.273938 385.828353 
L 573.117147 385.828353 
z
" clip-path="url(#p3d79e50de0)" style="fill: #1f77b4"/>
   </g>
   <g id="patch_158">
    <path d="M 576.273938 386.44 
L 579.430728 386.44 
L 579.430728 386.44 
L 576.273938 386.44 
z
" clip-path="url(#p3d79e50de0)" style="fill: #1f77b4"/>
   </g>
   <g id="patch_159">
    <path d="M 579.430728 386.44 
L 582.587519 386.44 
L 582.587519 385.094376 
L 579.430728 385.094376 
z
" clip-path="url(#p3d79e50de0)" style="fill: #1f77b4"/>
   </g>
   <g id="patch_160">
    <path d="M 582.587519 386.44 
L 585.74431 386.44 
L 585.74431 386.44 
L 582.587519 386.44 
z
" clip-path="url(#p3d79e50de0)" style="fill: #1f77b4"/>
   </g>
   <g id="patch_161">
    <path d="M 585.74431 386.44 
L 588.901101 386.44 
L 588.901101 386.378835 
L 585.74431 386.378835 
z
" clip-path="url(#p3d79e50de0)" style="fill: #1f77b4"/>
   </g>
   <g id="patch_162">
    <path d="M 588.901101 386.44 
L 592.057892 386.44 
L 592.057892 386.44 
L 588.901101 386.44 
z
" clip-path="url(#p3d79e50de0)" style="fill: #1f77b4"/>
   </g>
   <g id="patch_163">
    <path d="M 592.057892 386.44 
L 595.214682 386.44 
L 595.214682 386.44 
L 592.057892 386.44 
z
" clip-path="url(#p3d79e50de0)" style="fill: #1f77b4"/>
   </g>
   <g id="patch_164">
    <path d="M 595.214682 386.44 
L 598.371473 386.44 
L 598.371473 386.44 
L 595.214682 386.44 
z
" clip-path="url(#p3d79e50de0)" style="fill: #1f77b4"/>
   </g>
   <g id="patch_165">
    <path d="M 598.371473 386.44 
L 601.528264 386.44 
L 601.528264 386.44 
L 598.371473 386.44 
z
" clip-path="url(#p3d79e50de0)" style="fill: #1f77b4"/>
   </g>
   <g id="patch_166">
    <path d="M 601.528264 386.44 
L 604.685055 386.44 
L 604.685055 386.44 
L 601.528264 386.44 
z
" clip-path="url(#p3d79e50de0)" style="fill: #1f77b4"/>
   </g>
   <g id="patch_167">
    <path d="M 604.685055 386.44 
L 607.841846 386.44 
L 607.841846 386.317671 
L 604.685055 386.317671 
z
" clip-path="url(#p3d79e50de0)" style="fill: #1f77b4"/>
   </g>
   <g id="patch_168">
    <path d="M 607.841846 386.44 
L 610.998636 386.44 
L 610.998636 386.011847 
L 607.841846 386.011847 
z
" clip-path="url(#p3d79e50de0)" style="fill: #1f77b4"/>
   </g>
   <g id="matplotlib.axis_1">
    <g id="xtick_1">
     <g id="line2d_1">
      <defs>
       <path id="m9e2dca60b1" d="M 0 0 
L 0 3.5 
" style="stroke: #000000; stroke-width: 0.8"/>
      </defs>
      <g>
       <use xlink:href="#m9e2dca60b1" x="74.92476" y="386.44" style="stroke: #000000; stroke-width: 0.8"/>
      </g>
     </g>
     <g id="text_1">
      <!-- −10 -->
      <g transform="translate(64.372416 401.038437) scale(0.1 -0.1)">
       <defs>
        <path id="DejaVuSans-2212" d="M 678 2272 
L 4684 2272 
L 4684 1741 
L 678 1741 
L 678 2272 
z
" transform="scale(0.015625)"/>
        <path id="DejaVuSans-31" d="M 794 531 
L 1825 531 
L 1825 4091 
L 703 3866 
L 703 4441 
L 1819 4666 
L 2450 4666 
L 2450 531 
L 3481 531 
L 3481 0 
L 794 0 
L 794 531 
z
" transform="scale(0.015625)"/>
        <path id="DejaVuSans-30" d="M 2034 4250 
Q 1547 4250 1301 3770 
Q 1056 3291 1056 2328 
Q 1056 1369 1301 889 
Q 1547 409 2034 409 
Q 2525 409 2770 889 
Q 3016 1369 3016 2328 
Q 3016 3291 2770 3770 
Q 2525 4250 2034 4250 
z
M 2034 4750 
Q 2819 4750 3233 4129 
Q 3647 3509 3647 2328 
Q 3647 1150 3233 529 
Q 2819 -91 2034 -91 
Q 1250 -91 836 529 
Q 422 1150 422 2328 
Q 422 3509 836 4129 
Q 1250 4750 2034 4750 
z
" transform="scale(0.015625)"/>
       </defs>
       <use xlink:href="#DejaVuSans-2212"/>
       <use xlink:href="#DejaVuSans-31" x="83.789062"/>
       <use xlink:href="#DejaVuSans-30" x="147.412109"/>
      </g>
     </g>
    </g>
    <g id="xtick_2">
     <g id="line2d_2">
      <g>
       <use xlink:href="#m9e2dca60b1" x="195.390799" y="386.44" style="stroke: #000000; stroke-width: 0.8"/>
      </g>
     </g>
     <g id="text_2">
      <!-- −8 -->
      <g transform="translate(188.019706 401.038437) scale(0.1 -0.1)">
       <defs>
        <path id="DejaVuSans-38" d="M 2034 2216 
Q 1584 2216 1326 1975 
Q 1069 1734 1069 1313 
Q 1069 891 1326 650 
Q 1584 409 2034 409 
Q 2484 409 2743 651 
Q 3003 894 3003 1313 
Q 3003 1734 2745 1975 
Q 2488 2216 2034 2216 
z
M 1403 2484 
Q 997 2584 770 2862 
Q 544 3141 544 3541 
Q 544 4100 942 4425 
Q 1341 4750 2034 4750 
Q 2731 4750 3128 4425 
Q 3525 4100 3525 3541 
Q 3525 3141 3298 2862 
Q 3072 2584 2669 2484 
Q 3125 2378 3379 2068 
Q 3634 1759 3634 1313 
Q 3634 634 3220 271 
Q 2806 -91 2034 -91 
Q 1263 -91 848 271 
Q 434 634 434 1313 
Q 434 1759 690 2068 
Q 947 2378 1403 2484 
z
M 1172 3481 
Q 1172 3119 1398 2916 
Q 1625 2713 2034 2713 
Q 2441 2713 2670 2916 
Q 2900 3119 2900 3481 
Q 2900 3844 2670 4047 
Q 2441 4250 2034 4250 
Q 1625 4250 1398 4047 
Q 1172 3844 1172 3481 
z
" transform="scale(0.015625)"/>
       </defs>
       <use xlink:href="#DejaVuSans-2212"/>
       <use xlink:href="#DejaVuSans-38" x="83.789062"/>
      </g>
     </g>
    </g>
    <g id="xtick_3">
     <g id="line2d_3">
      <g>
       <use xlink:href="#m9e2dca60b1" x="315.856839" y="386.44" style="stroke: #000000; stroke-width: 0.8"/>
      </g>
     </g>
     <g id="text_3">
      <!-- −6 -->
      <g transform="translate(308.485745 401.038437) scale(0.1 -0.1)">
       <defs>
        <path id="DejaVuSans-36" d="M 2113 2584 
Q 1688 2584 1439 2293 
Q 1191 2003 1191 1497 
Q 1191 994 1439 701 
Q 1688 409 2113 409 
Q 2538 409 2786 701 
Q 3034 994 3034 1497 
Q 3034 2003 2786 2293 
Q 2538 2584 2113 2584 
z
M 3366 4563 
L 3366 3988 
Q 3128 4100 2886 4159 
Q 2644 4219 2406 4219 
Q 1781 4219 1451 3797 
Q 1122 3375 1075 2522 
Q 1259 2794 1537 2939 
Q 1816 3084 2150 3084 
Q 2853 3084 3261 2657 
Q 3669 2231 3669 1497 
Q 3669 778 3244 343 
Q 2819 -91 2113 -91 
Q 1303 -91 875 529 
Q 447 1150 447 2328 
Q 447 3434 972 4092 
Q 1497 4750 2381 4750 
Q 2619 4750 2861 4703 
Q 3103 4656 3366 4563 
z
" transform="scale(0.015625)"/>
       </defs>
       <use xlink:href="#DejaVuSans-2212"/>
       <use xlink:href="#DejaVuSans-36" x="83.789062"/>
      </g>
     </g>
    </g>
    <g id="xtick_4">
     <g id="line2d_4">
      <g>
       <use xlink:href="#m9e2dca60b1" x="436.322879" y="386.44" style="stroke: #000000; stroke-width: 0.8"/>
      </g>
     </g>
     <g id="text_4">
      <!-- −4 -->
      <g transform="translate(428.951785 401.038437) scale(0.1 -0.1)">
       <defs>
        <path id="DejaVuSans-34" d="M 2419 4116 
L 825 1625 
L 2419 1625 
L 2419 4116 
z
M 2253 4666 
L 3047 4666 
L 3047 1625 
L 3713 1625 
L 3713 1100 
L 3047 1100 
L 3047 0 
L 2419 0 
L 2419 1100 
L 313 1100 
L 313 1709 
L 2253 4666 
z
" transform="scale(0.015625)"/>
       </defs>
       <use xlink:href="#DejaVuSans-2212"/>
       <use xlink:href="#DejaVuSans-34" x="83.789062"/>
      </g>
     </g>
    </g>
    <g id="xtick_5">
     <g id="line2d_5">
      <g>
       <use xlink:href="#m9e2dca60b1" x="556.788918" y="386.44" style="stroke: #000000; stroke-width: 0.8"/>
      </g>
     </g>
     <g id="text_5">
      <!-- −2 -->
      <g transform="translate(549.417825 401.038437) scale(0.1 -0.1)">
       <defs>
        <path id="DejaVuSans-32" d="M 1228 531 
L 3431 531 
L 3431 0 
L 469 0 
L 469 531 
Q 828 903 1448 1529 
Q 2069 2156 2228 2338 
Q 2531 2678 2651 2914 
Q 2772 3150 2772 3378 
Q 2772 3750 2511 3984 
Q 2250 4219 1831 4219 
Q 1534 4219 1204 4116 
Q 875 4013 500 3803 
L 500 4441 
Q 881 4594 1212 4672 
Q 1544 4750 1819 4750 
Q 2544 4750 2975 4387 
Q 3406 4025 3406 3419 
Q 3406 3131 3298 2873 
Q 3191 2616 2906 2266 
Q 2828 2175 2409 1742 
Q 1991 1309 1228 531 
z
" transform="scale(0.015625)"/>
       </defs>
       <use xlink:href="#DejaVuSans-2212"/>
       <use xlink:href="#DejaVuSans-32" x="83.789062"/>
      </g>
     </g>
    </g>
    <g id="text_6">
     <!-- 6y2f score -->
     <g transform="translate(312.439531 417.755938) scale(0.14 -0.14)">
      <defs>
       <path id="DejaVuSans-79" d="M 2059 -325 
Q 1816 -950 1584 -1140 
Q 1353 -1331 966 -1331 
L 506 -1331 
L 506 -850 
L 844 -850 
Q 1081 -850 1212 -737 
Q 1344 -625 1503 -206 
L 1606 56 
L 191 3500 
L 800 3500 
L 1894 763 
L 2988 3500 
L 3597 3500 
L 2059 -325 
z
" transform="scale(0.015625)"/>
       <path id="DejaVuSans-66" d="M 2375 4863 
L 2375 4384 
L 1825 4384 
Q 1516 4384 1395 4259 
Q 1275 4134 1275 3809 
L 1275 3500 
L 2222 3500 
L 2222 3053 
L 1275 3053 
L 1275 0 
L 697 0 
L 697 3053 
L 147 3053 
L 147 3500 
L 697 3500 
L 697 3744 
Q 697 4328 969 4595 
Q 1241 4863 1831 4863 
L 2375 4863 
z
" transform="scale(0.015625)"/>
       <path id="DejaVuSans-20" transform="scale(0.015625)"/>
       <path id="DejaVuSans-73" d="M 2834 3397 
L 2834 2853 
Q 2591 2978 2328 3040 
Q 2066 3103 1784 3103 
Q 1356 3103 1142 2972 
Q 928 2841 928 2578 
Q 928 2378 1081 2264 
Q 1234 2150 1697 2047 
L 1894 2003 
Q 2506 1872 2764 1633 
Q 3022 1394 3022 966 
Q 3022 478 2636 193 
Q 2250 -91 1575 -91 
Q 1294 -91 989 -36 
Q 684 19 347 128 
L 347 722 
Q 666 556 975 473 
Q 1284 391 1588 391 
Q 1994 391 2212 530 
Q 2431 669 2431 922 
Q 2431 1156 2273 1281 
Q 2116 1406 1581 1522 
L 1381 1569 
Q 847 1681 609 1914 
Q 372 2147 372 2553 
Q 372 3047 722 3315 
Q 1072 3584 1716 3584 
Q 2034 3584 2315 3537 
Q 2597 3491 2834 3397 
z
" transform="scale(0.015625)"/>
       <path id="DejaVuSans-63" d="M 3122 3366 
L 3122 2828 
Q 2878 2963 2633 3030 
Q 2388 3097 2138 3097 
Q 1578 3097 1268 2742 
Q 959 2388 959 1747 
Q 959 1106 1268 751 
Q 1578 397 2138 397 
Q 2388 397 2633 464 
Q 2878 531 3122 666 
L 3122 134 
Q 2881 22 2623 -34 
Q 2366 -91 2075 -91 
Q 1284 -91 818 406 
Q 353 903 353 1747 
Q 353 2603 823 3093 
Q 1294 3584 2113 3584 
Q 2378 3584 2631 3529 
Q 2884 3475 3122 3366 
z
" transform="scale(0.015625)"/>
       <path id="DejaVuSans-6f" d="M 1959 3097 
Q 1497 3097 1228 2736 
Q 959 2375 959 1747 
Q 959 1119 1226 758 
Q 1494 397 1959 397 
Q 2419 397 2687 759 
Q 2956 1122 2956 1747 
Q 2956 2369 2687 2733 
Q 2419 3097 1959 3097 
z
M 1959 3584 
Q 2709 3584 3137 3096 
Q 3566 2609 3566 1747 
Q 3566 888 3137 398 
Q 2709 -91 1959 -91 
Q 1206 -91 779 398 
Q 353 888 353 1747 
Q 353 2609 779 3096 
Q 1206 3584 1959 3584 
z
" transform="scale(0.015625)"/>
       <path id="DejaVuSans-72" d="M 2631 2963 
Q 2534 3019 2420 3045 
Q 2306 3072 2169 3072 
Q 1681 3072 1420 2755 
Q 1159 2438 1159 1844 
L 1159 0 
L 581 0 
L 581 3500 
L 1159 3500 
L 1159 2956 
Q 1341 3275 1631 3429 
Q 1922 3584 2338 3584 
Q 2397 3584 2469 3576 
Q 2541 3569 2628 3553 
L 2631 2963 
z
" transform="scale(0.015625)"/>
       <path id="DejaVuSans-65" d="M 3597 1894 
L 3597 1613 
L 953 1613 
Q 991 1019 1311 708 
Q 1631 397 2203 397 
Q 2534 397 2845 478 
Q 3156 559 3463 722 
L 3463 178 
Q 3153 47 2828 -22 
Q 2503 -91 2169 -91 
Q 1331 -91 842 396 
Q 353 884 353 1716 
Q 353 2575 817 3079 
Q 1281 3584 2069 3584 
Q 2775 3584 3186 3129 
Q 3597 2675 3597 1894 
z
M 3022 2063 
Q 3016 2534 2758 2815 
Q 2500 3097 2075 3097 
Q 1594 3097 1305 2825 
Q 1016 2553 972 2059 
L 3022 2063 
z
" transform="scale(0.015625)"/>
      </defs>
      <use xlink:href="#DejaVuSans-36"/>
      <use xlink:href="#DejaVuSans-79" x="63.623047"/>
      <use xlink:href="#DejaVuSans-32" x="122.802734"/>
      <use xlink:href="#DejaVuSans-66" x="186.425781"/>
      <use xlink:href="#DejaVuSans-20" x="221.630859"/>
      <use xlink:href="#DejaVuSans-73" x="253.417969"/>
      <use xlink:href="#DejaVuSans-63" x="305.517578"/>
      <use xlink:href="#DejaVuSans-6f" x="360.498047"/>
      <use xlink:href="#DejaVuSans-72" x="421.679688"/>
      <use xlink:href="#DejaVuSans-65" x="460.542969"/>
     </g>
    </g>
   </g>
   <g id="matplotlib.axis_2">
    <g id="ytick_1">
     <g id="line2d_6">
      <defs>
       <path id="m538e7503d9" d="M 0 0 
L -3.5 0 
" style="stroke: #000000; stroke-width: 0.8"/>
      </defs>
      <g>
       <use xlink:href="#m538e7503d9" x="60.77" y="386.44" style="stroke: #000000; stroke-width: 0.8"/>
      </g>
     </g>
     <g id="text_7">
      <!-- 0 -->
      <g transform="translate(47.4075 390.239219) scale(0.1 -0.1)">
       <use xlink:href="#DejaVuSans-30"/>
      </g>
     </g>
    </g>
    <g id="ytick_2">
     <g id="line2d_7">
      <g>
       <use xlink:href="#m538e7503d9" x="60.77" y="325.275291" style="stroke: #000000; stroke-width: 0.8"/>
      </g>
     </g>
     <g id="text_8">
      <!-- 1000 -->
      <g transform="translate(28.32 329.07451) scale(0.1 -0.1)">
       <use xlink:href="#DejaVuSans-31"/>
       <use xlink:href="#DejaVuSans-30" x="63.623047"/>
       <use xlink:href="#DejaVuSans-30" x="127.246094"/>
       <use xlink:href="#DejaVuSans-30" x="190.869141"/>
      </g>
     </g>
    </g>
    <g id="ytick_3">
     <g id="line2d_8">
      <g>
       <use xlink:href="#m538e7503d9" x="60.77" y="264.110583" style="stroke: #000000; stroke-width: 0.8"/>
      </g>
     </g>
     <g id="text_9">
      <!-- 2000 -->
      <g transform="translate(28.32 267.909801) scale(0.1 -0.1)">
       <use xlink:href="#DejaVuSans-32"/>
       <use xlink:href="#DejaVuSans-30" x="63.623047"/>
       <use xlink:href="#DejaVuSans-30" x="127.246094"/>
       <use xlink:href="#DejaVuSans-30" x="190.869141"/>
      </g>
     </g>
    </g>
    <g id="ytick_4">
     <g id="line2d_9">
      <g>
       <use xlink:href="#m538e7503d9" x="60.77" y="202.945874" style="stroke: #000000; stroke-width: 0.8"/>
      </g>
     </g>
     <g id="text_10">
      <!-- 3000 -->
      <g transform="translate(28.32 206.745093) scale(0.1 -0.1)">
       <defs>
        <path id="DejaVuSans-33" d="M 2597 2516 
Q 3050 2419 3304 2112 
Q 3559 1806 3559 1356 
Q 3559 666 3084 287 
Q 2609 -91 1734 -91 
Q 1441 -91 1130 -33 
Q 819 25 488 141 
L 488 750 
Q 750 597 1062 519 
Q 1375 441 1716 441 
Q 2309 441 2620 675 
Q 2931 909 2931 1356 
Q 2931 1769 2642 2001 
Q 2353 2234 1838 2234 
L 1294 2234 
L 1294 2753 
L 1863 2753 
Q 2328 2753 2575 2939 
Q 2822 3125 2822 3475 
Q 2822 3834 2567 4026 
Q 2313 4219 1838 4219 
Q 1578 4219 1281 4162 
Q 984 4106 628 3988 
L 628 4550 
Q 988 4650 1302 4700 
Q 1616 4750 1894 4750 
Q 2613 4750 3031 4423 
Q 3450 4097 3450 3541 
Q 3450 3153 3228 2886 
Q 3006 2619 2597 2516 
z
" transform="scale(0.015625)"/>
       </defs>
       <use xlink:href="#DejaVuSans-33"/>
       <use xlink:href="#DejaVuSans-30" x="63.623047"/>
       <use xlink:href="#DejaVuSans-30" x="127.246094"/>
       <use xlink:href="#DejaVuSans-30" x="190.869141"/>
      </g>
     </g>
    </g>
    <g id="ytick_5">
     <g id="line2d_10">
      <g>
       <use xlink:href="#m538e7503d9" x="60.77" y="141.781165" style="stroke: #000000; stroke-width: 0.8"/>
      </g>
     </g>
     <g id="text_11">
      <!-- 4000 -->
      <g transform="translate(28.32 145.580384) scale(0.1 -0.1)">
       <use xlink:href="#DejaVuSans-34"/>
       <use xlink:href="#DejaVuSans-30" x="63.623047"/>
       <use xlink:href="#DejaVuSans-30" x="127.246094"/>
       <use xlink:href="#DejaVuSans-30" x="190.869141"/>
      </g>
     </g>
    </g>
    <g id="ytick_6">
     <g id="line2d_11">
      <g>
       <use xlink:href="#m538e7503d9" x="60.77" y="80.616457" style="stroke: #000000; stroke-width: 0.8"/>
      </g>
     </g>
     <g id="text_12">
      <!-- 5000 -->
      <g transform="translate(28.32 84.415675) scale(0.1 -0.1)">
       <defs>
        <path id="DejaVuSans-35" d="M 691 4666 
L 3169 4666 
L 3169 4134 
L 1269 4134 
L 1269 2991 
Q 1406 3038 1543 3061 
Q 1681 3084 1819 3084 
Q 2600 3084 3056 2656 
Q 3513 2228 3513 1497 
Q 3513 744 3044 326 
Q 2575 -91 1722 -91 
Q 1428 -91 1123 -41 
Q 819 9 494 109 
L 494 744 
Q 775 591 1075 516 
Q 1375 441 1709 441 
Q 2250 441 2565 725 
Q 2881 1009 2881 1497 
Q 2881 1984 2565 2268 
Q 2250 2553 1709 2553 
Q 1456 2553 1204 2497 
Q 953 2441 691 2322 
L 691 4666 
z
" transform="scale(0.015625)"/>
       </defs>
       <use xlink:href="#DejaVuSans-35"/>
       <use xlink:href="#DejaVuSans-30" x="63.623047"/>
       <use xlink:href="#DejaVuSans-30" x="127.246094"/>
       <use xlink:href="#DejaVuSans-30" x="190.869141"/>
      </g>
     </g>
    </g>
    <g id="ytick_7">
     <g id="line2d_12">
      <g>
       <use xlink:href="#m538e7503d9" x="60.77" y="19.451748" style="stroke: #000000; stroke-width: 0.8"/>
      </g>
     </g>
     <g id="text_13">
      <!-- 6000 -->
      <g transform="translate(28.32 23.250967) scale(0.1 -0.1)">
       <use xlink:href="#DejaVuSans-36"/>
       <use xlink:href="#DejaVuSans-30" x="63.623047"/>
       <use xlink:href="#DejaVuSans-30" x="127.246094"/>
       <use xlink:href="#DejaVuSans-30" x="190.869141"/>
      </g>
     </g>
    </g>
    <g id="text_14">
     <!-- Count -->
     <g transform="translate(21.408437 219.407813) rotate(-90) scale(0.14 -0.14)">
      <defs>
       <path id="DejaVuSans-43" d="M 4122 4306 
L 4122 3641 
Q 3803 3938 3442 4084 
Q 3081 4231 2675 4231 
Q 1875 4231 1450 3742 
Q 1025 3253 1025 2328 
Q 1025 1406 1450 917 
Q 1875 428 2675 428 
Q 3081 428 3442 575 
Q 3803 722 4122 1019 
L 4122 359 
Q 3791 134 3420 21 
Q 3050 -91 2638 -91 
Q 1578 -91 968 557 
Q 359 1206 359 2328 
Q 359 3453 968 4101 
Q 1578 4750 2638 4750 
Q 3056 4750 3426 4639 
Q 3797 4528 4122 4306 
z
" transform="scale(0.015625)"/>
       <path id="DejaVuSans-75" d="M 544 1381 
L 544 3500 
L 1119 3500 
L 1119 1403 
Q 1119 906 1312 657 
Q 1506 409 1894 409 
Q 2359 409 2629 706 
Q 2900 1003 2900 1516 
L 2900 3500 
L 3475 3500 
L 3475 0 
L 2900 0 
L 2900 538 
Q 2691 219 2414 64 
Q 2138 -91 1772 -91 
Q 1169 -91 856 284 
Q 544 659 544 1381 
z
M 1991 3584 
L 1991 3584 
z
" transform="scale(0.015625)"/>
       <path id="DejaVuSans-6e" d="M 3513 2113 
L 3513 0 
L 2938 0 
L 2938 2094 
Q 2938 2591 2744 2837 
Q 2550 3084 2163 3084 
Q 1697 3084 1428 2787 
Q 1159 2491 1159 1978 
L 1159 0 
L 581 0 
L 581 3500 
L 1159 3500 
L 1159 2956 
Q 1366 3272 1645 3428 
Q 1925 3584 2291 3584 
Q 2894 3584 3203 3211 
Q 3513 2838 3513 2113 
z
" transform="scale(0.015625)"/>
       <path id="DejaVuSans-74" d="M 1172 4494 
L 1172 3500 
L 2356 3500 
L 2356 3053 
L 1172 3053 
L 1172 1153 
Q 1172 725 1289 603 
Q 1406 481 1766 481 
L 2356 481 
L 2356 0 
L 1766 0 
Q 1100 0 847 248 
Q 594 497 594 1153 
L 594 3053 
L 172 3053 
L 172 3500 
L 594 3500 
L 594 4494 
L 1172 4494 
z
" transform="scale(0.015625)"/>
      </defs>
      <use xlink:href="#DejaVuSans-43"/>
      <use xlink:href="#DejaVuSans-6f" x="69.824219"/>
      <use xlink:href="#DejaVuSans-75" x="131.005859"/>
      <use xlink:href="#DejaVuSans-6e" x="194.384766"/>
      <use xlink:href="#DejaVuSans-74" x="257.763672"/>
     </g>
    </g>
   </g>
   <g id="patch_169">
    <path d="M 60.77 386.44 
L 60.77 10.8 
" style="fill: none; stroke: #000000; stroke-width: 0.8; stroke-linejoin: miter; stroke-linecap: square"/>
   </g>
   <g id="patch_170">
    <path d="M 637.2 386.44 
L 637.2 10.8 
" style="fill: none; stroke: #000000; stroke-width: 0.8; stroke-linejoin: miter; stroke-linecap: square"/>
   </g>
   <g id="patch_171">
    <path d="M 60.77 386.44 
L 637.2 386.44 
" style="fill: none; stroke: #000000; stroke-width: 0.8; stroke-linejoin: miter; stroke-linecap: square"/>
   </g>
   <g id="patch_172">
    <path d="M 60.77 10.8 
L 637.2 10.8 
" style="fill: none; stroke: #000000; stroke-width: 0.8; stroke-linejoin: miter; stroke-linecap: square"/>
   </g>
   <g id="text_15">
    <!-- $\mu_3 = -5.528$ -->
    <g transform="translate(464.271 66.857188) scale(0.17 -0.17)">
     <defs>
      <path id="DejaVuSans-Oblique-3bc" d="M -84 -1331 
L 856 3500 
L 1434 3500 
L 1009 1322 
Q 997 1256 987 1175 
Q 978 1094 978 1013 
Q 978 722 1161 565 
Q 1344 409 1684 409 
Q 2147 409 2431 671 
Q 2716 934 2816 1459 
L 3213 3500 
L 3788 3500 
L 3266 809 
Q 3253 750 3248 706 
Q 3244 663 3244 628 
Q 3244 531 3283 486 
Q 3322 441 3406 441 
Q 3438 441 3492 456 
Q 3547 472 3647 513 
L 3559 50 
Q 3422 -19 3297 -55 
Q 3172 -91 3053 -91 
Q 2847 -91 2730 40 
Q 2613 172 2613 403 
Q 2438 153 2195 31 
Q 1953 -91 1625 -91 
Q 1334 -91 1117 43 
Q 900 178 831 397 
L 494 -1331 
L -84 -1331 
z
" transform="scale(0.015625)"/>
      <path id="DejaVuSans-3d" d="M 678 2906 
L 4684 2906 
L 4684 2381 
L 678 2381 
L 678 2906 
z
M 678 1631 
L 4684 1631 
L 4684 1100 
L 678 1100 
L 678 1631 
z
" transform="scale(0.015625)"/>
      <path id="DejaVuSans-2e" d="M 684 794 
L 1344 794 
L 1344 0 
L 684 0 
L 684 794 
z
" transform="scale(0.015625)"/>
     </defs>
     <use xlink:href="#DejaVuSans-Oblique-3bc" transform="translate(0 0.78125)"/>
     <use xlink:href="#DejaVuSans-33" transform="translate(63.623047 -15.625) scale(0.7)"/>
     <use xlink:href="#DejaVuSans-3d" transform="translate(130.375977 0.78125)"/>
     <use xlink:href="#DejaVuSans-2212" transform="translate(253.129883 0.78125)"/>
     <use xlink:href="#DejaVuSans-35" transform="translate(356.401367 0.78125)"/>
     <use xlink:href="#DejaVuSans-2e" transform="translate(420.024414 0.78125)"/>
     <use xlink:href="#DejaVuSans-35" transform="translate(451.811523 0.78125)"/>
     <use xlink:href="#DejaVuSans-32" transform="translate(515.43457 0.78125)"/>
     <use xlink:href="#DejaVuSans-38" transform="translate(579.057617 0.78125)"/>
    </g>
    <!-- $\sigma_3 = 0.997$ -->
    <g transform="translate(464.271 85.928) scale(0.17 -0.17)">
     <defs>
      <path id="DejaVuSans-Oblique-3c3" d="M 2219 3044 
Q 1744 3044 1422 2700 
Q 1081 2341 969 1747 
Q 844 1119 1044 756 
Q 1241 397 1706 397 
Q 2166 397 2503 759 
Q 2844 1122 2966 1747 
Q 3075 2319 2881 2700 
Q 2700 3044 2219 3044 
z
M 2309 3503 
L 4219 3500 
L 4106 2925 
L 3463 2925 
Q 3706 2438 3575 1747 
Q 3406 888 2884 400 
Q 2359 -91 1609 -91 
Q 856 -91 525 400 
Q 194 888 363 1747 
Q 528 2609 1050 3097 
Q 1484 3503 2309 3503 
z
" transform="scale(0.015625)"/>
      <path id="DejaVuSans-39" d="M 703 97 
L 703 672 
Q 941 559 1184 500 
Q 1428 441 1663 441 
Q 2288 441 2617 861 
Q 2947 1281 2994 2138 
Q 2813 1869 2534 1725 
Q 2256 1581 1919 1581 
Q 1219 1581 811 2004 
Q 403 2428 403 3163 
Q 403 3881 828 4315 
Q 1253 4750 1959 4750 
Q 2769 4750 3195 4129 
Q 3622 3509 3622 2328 
Q 3622 1225 3098 567 
Q 2575 -91 1691 -91 
Q 1453 -91 1209 -44 
Q 966 3 703 97 
z
M 1959 2075 
Q 2384 2075 2632 2365 
Q 2881 2656 2881 3163 
Q 2881 3666 2632 3958 
Q 2384 4250 1959 4250 
Q 1534 4250 1286 3958 
Q 1038 3666 1038 3163 
Q 1038 2656 1286 2365 
Q 1534 2075 1959 2075 
z
" transform="scale(0.015625)"/>
      <path id="DejaVuSans-37" d="M 525 4666 
L 3525 4666 
L 3525 4397 
L 1831 0 
L 1172 0 
L 2766 4134 
L 525 4134 
L 525 4666 
z
" transform="scale(0.015625)"/>
     </defs>
     <use xlink:href="#DejaVuSans-Oblique-3c3" transform="translate(0 0.78125)"/>
     <use xlink:href="#DejaVuSans-33" transform="translate(63.378906 -15.625) scale(0.7)"/>
     <use xlink:href="#DejaVuSans-3d" transform="translate(130.131836 0.78125)"/>
     <use xlink:href="#DejaVuSans-30" transform="translate(233.40332 0.78125)"/>
     <use xlink:href="#DejaVuSans-2e" transform="translate(297.026367 0.78125)"/>
     <use xlink:href="#DejaVuSans-39" transform="translate(328.813477 0.78125)"/>
     <use xlink:href="#DejaVuSans-39" transform="translate(392.436523 0.78125)"/>
     <use xlink:href="#DejaVuSans-37" transform="translate(456.05957 0.78125)"/>
    </g>
   </g>
  </g>
 </g>
 <defs>
  <clipPath id="p3d79e50de0">
   <rect x="60.77" y="10.8" width="576.43" height="375.64"/>
  </clipPath>
 </defs>
</svg>
