<?xml version="1.0" encoding="utf-8" standalone="no"?>
<!DOCTYPE svg PUBLIC "-//W3C//DTD SVG 1.1//EN"
  "http://www.w3.org/Graphics/SVG/1.1/DTD/svg11.dtd">
<svg xmlns:xlink="http://www.w3.org/1999/xlink" width="576pt" height="432pt" viewBox="0 0 576 432" xmlns="http://www.w3.org/2000/svg" version="1.1">
 <metadata>
  <rdf:RDF xmlns:dc="http://purl.org/dc/elements/1.1/" xmlns:cc="http://creativecommons.org/ns#" xmlns:rdf="http://www.w3.org/1999/02/22-rdf-syntax-ns#">
   <cc:Work>
    <dc:type rdf:resource="http://purl.org/dc/dcmitype/StillImage"/>
    <dc:date>2024-09-05T19:41:27.990482</dc:date>
    <dc:format>image/svg+xml</dc:format>
    <dc:creator>
     <cc:Agent>
      <dc:title>Matplotlib v3.7.2, https://matplotlib.org/</dc:title>
     </cc:Agent>
    </dc:creator>
   </cc:Work>
  </rdf:RDF>
 </metadata>
 <defs>
  <style type="text/css">*{stroke-linejoin: round; stroke-linecap: butt}</style>
 </defs>
 <g id="figure_1">
  <g id="patch_1">
   <path d="M 0 432 
L 576 432 
L 576 0 
L 0 0 
z
" style="fill: #ffffff"/>
  </g>
  <g id="axes_1">
   <g id="patch_2">
    <path d="M 70.67 382.84 
L 550.656013 382.84 
L 550.656013 10.8 
L 70.67 10.8 
z
" style="fill: #ffffff"/>
   </g>
   <g id="patch_3">
    <path d="M 92.487546 382.84 
L 94.435541 382.84 
L 94.435541 382.774451 
L 92.487546 382.774451 
z
" clip-path="url(#p607fe99890)" style="fill: #1f77b4"/>
   </g>
   <g id="patch_4">
    <path d="M 94.435541 382.84 
L 96.383536 382.84 
L 96.383536 382.84 
L 94.435541 382.84 
z
" clip-path="url(#p607fe99890)" style="fill: #1f77b4"/>
   </g>
   <g id="patch_5">
    <path d="M 96.383536 382.84 
L 98.331532 382.84 
L 98.331532 382.84 
L 96.383536 382.84 
z
" clip-path="url(#p607fe99890)" style="fill: #1f77b4"/>
   </g>
   <g id="patch_6">
    <path d="M 98.331532 382.84 
L 100.279527 382.84 
L 100.279527 382.84 
L 98.331532 382.84 
z
" clip-path="url(#p607fe99890)" style="fill: #1f77b4"/>
   </g>
   <g id="patch_7">
    <path d="M 100.279527 382.84 
L 102.227522 382.84 
L 102.227522 382.774451 
L 100.279527 382.774451 
z
" clip-path="url(#p607fe99890)" style="fill: #1f77b4"/>
   </g>
   <g id="patch_8">
    <path d="M 102.227522 382.84 
L 104.175517 382.84 
L 104.175517 382.84 
L 102.227522 382.84 
z
" clip-path="url(#p607fe99890)" style="fill: #1f77b4"/>
   </g>
   <g id="patch_9">
    <path d="M 104.175517 382.84 
L 106.123512 382.84 
L 106.123512 382.84 
L 104.175517 382.84 
z
" clip-path="url(#p607fe99890)" style="fill: #1f77b4"/>
   </g>
   <g id="patch_10">
    <path d="M 106.123512 382.84 
L 108.071508 382.84 
L 108.071508 382.807226 
L 106.123512 382.807226 
z
" clip-path="url(#p607fe99890)" style="fill: #1f77b4"/>
   </g>
   <g id="patch_11">
    <path d="M 108.071508 382.84 
L 110.019503 382.84 
L 110.019503 382.84 
L 108.071508 382.84 
z
" clip-path="url(#p607fe99890)" style="fill: #1f77b4"/>
   </g>
   <g id="patch_12">
    <path d="M 110.019503 382.84 
L 111.967498 382.84 
L 111.967498 382.774451 
L 110.019503 382.774451 
z
" clip-path="url(#p607fe99890)" style="fill: #1f77b4"/>
   </g>
   <g id="patch_13">
    <path d="M 111.967498 382.84 
L 113.915493 382.84 
L 113.915493 382.84 
L 111.967498 382.84 
z
" clip-path="url(#p607fe99890)" style="fill: #1f77b4"/>
   </g>
   <g id="patch_14">
    <path d="M 113.915493 382.84 
L 115.863488 382.84 
L 115.863488 382.84 
L 113.915493 382.84 
z
" clip-path="url(#p607fe99890)" style="fill: #1f77b4"/>
   </g>
   <g id="patch_15">
    <path d="M 115.863488 382.84 
L 117.811483 382.84 
L 117.811483 382.708902 
L 115.863488 382.708902 
z
" clip-path="url(#p607fe99890)" style="fill: #1f77b4"/>
   </g>
   <g id="patch_16">
    <path d="M 117.811483 382.84 
L 119.759479 382.84 
L 119.759479 382.84 
L 117.811483 382.84 
z
" clip-path="url(#p607fe99890)" style="fill: #1f77b4"/>
   </g>
   <g id="patch_17">
    <path d="M 119.759479 382.84 
L 121.707474 382.84 
L 121.707474 382.807226 
L 119.759479 382.807226 
z
" clip-path="url(#p607fe99890)" style="fill: #1f77b4"/>
   </g>
   <g id="patch_18">
    <path d="M 121.707474 382.84 
L 123.655469 382.84 
L 123.655469 382.84 
L 121.707474 382.84 
z
" clip-path="url(#p607fe99890)" style="fill: #1f77b4"/>
   </g>
   <g id="patch_19">
    <path d="M 123.655469 382.84 
L 125.603464 382.84 
L 125.603464 382.84 
L 123.655469 382.84 
z
" clip-path="url(#p607fe99890)" style="fill: #1f77b4"/>
   </g>
   <g id="patch_20">
    <path d="M 125.603464 382.84 
L 127.551459 382.84 
L 127.551459 382.774451 
L 125.603464 382.774451 
z
" clip-path="url(#p607fe99890)" style="fill: #1f77b4"/>
   </g>
   <g id="patch_21">
    <path d="M 127.551459 382.84 
L 129.499455 382.84 
L 129.499455 382.84 
L 127.551459 382.84 
z
" clip-path="url(#p607fe99890)" style="fill: #1f77b4"/>
   </g>
   <g id="patch_22">
    <path d="M 129.499455 382.84 
L 131.44745 382.84 
L 131.44745 382.610579 
L 129.499455 382.610579 
z
" clip-path="url(#p607fe99890)" style="fill: #1f77b4"/>
   </g>
   <g id="patch_23">
    <path d="M 131.44745 382.84 
L 133.395445 382.84 
L 133.395445 382.84 
L 131.44745 382.84 
z
" clip-path="url(#p607fe99890)" style="fill: #1f77b4"/>
   </g>
   <g id="patch_24">
    <path d="M 133.395445 382.84 
L 135.34344 382.84 
L 135.34344 382.84 
L 133.395445 382.84 
z
" clip-path="url(#p607fe99890)" style="fill: #1f77b4"/>
   </g>
   <g id="patch_25">
    <path d="M 135.34344 382.84 
L 137.291435 382.84 
L 137.291435 382.413933 
L 135.34344 382.413933 
z
" clip-path="url(#p607fe99890)" style="fill: #1f77b4"/>
   </g>
   <g id="patch_26">
    <path d="M 137.291435 382.84 
L 139.23943 382.84 
L 139.23943 382.84 
L 137.291435 382.84 
z
" clip-path="url(#p607fe99890)" style="fill: #1f77b4"/>
   </g>
   <g id="patch_27">
    <path d="M 139.23943 382.84 
L 141.187426 382.84 
L 141.187426 382.676128 
L 139.23943 382.676128 
z
" clip-path="url(#p607fe99890)" style="fill: #1f77b4"/>
   </g>
   <g id="patch_28">
    <path d="M 141.187426 382.84 
L 143.135421 382.84 
L 143.135421 382.84 
L 141.187426 382.84 
z
" clip-path="url(#p607fe99890)" style="fill: #1f77b4"/>
   </g>
   <g id="patch_29">
    <path d="M 143.135421 382.84 
L 145.083416 382.84 
L 145.083416 382.84 
L 143.135421 382.84 
z
" clip-path="url(#p607fe99890)" style="fill: #1f77b4"/>
   </g>
   <g id="patch_30">
    <path d="M 145.083416 382.84 
L 147.031411 382.84 
L 147.031411 382.053415 
L 145.083416 382.053415 
z
" clip-path="url(#p607fe99890)" style="fill: #1f77b4"/>
   </g>
   <g id="patch_31">
    <path d="M 147.031411 382.84 
L 148.979406 382.84 
L 148.979406 382.84 
L 147.031411 382.84 
z
" clip-path="url(#p607fe99890)" style="fill: #1f77b4"/>
   </g>
   <g id="patch_32">
    <path d="M 148.979406 382.84 
L 150.927402 382.84 
L 150.927402 382.118964 
L 148.979406 382.118964 
z
" clip-path="url(#p607fe99890)" style="fill: #1f77b4"/>
   </g>
   <g id="patch_33">
    <path d="M 150.927402 382.84 
L 152.875397 382.84 
L 152.875397 382.84 
L 150.927402 382.84 
z
" clip-path="url(#p607fe99890)" style="fill: #1f77b4"/>
   </g>
   <g id="patch_34">
    <path d="M 152.875397 382.84 
L 154.823392 382.84 
L 154.823392 382.84 
L 152.875397 382.84 
z
" clip-path="url(#p607fe99890)" style="fill: #1f77b4"/>
   </g>
   <g id="patch_35">
    <path d="M 154.823392 382.84 
L 156.771387 382.84 
L 156.771387 381.79122 
L 154.823392 381.79122 
z
" clip-path="url(#p607fe99890)" style="fill: #1f77b4"/>
   </g>
   <g id="patch_36">
    <path d="M 156.771387 382.84 
L 158.719382 382.84 
L 158.719382 382.84 
L 156.771387 382.84 
z
" clip-path="url(#p607fe99890)" style="fill: #1f77b4"/>
   </g>
   <g id="patch_37">
    <path d="M 158.719382 382.84 
L 160.667377 382.84 
L 160.667377 380.545793 
L 158.719382 380.545793 
z
" clip-path="url(#p607fe99890)" style="fill: #1f77b4"/>
   </g>
   <g id="patch_38">
    <path d="M 160.667377 382.84 
L 162.615373 382.84 
L 162.615373 382.84 
L 160.667377 382.84 
z
" clip-path="url(#p607fe99890)" style="fill: #1f77b4"/>
   </g>
   <g id="patch_39">
    <path d="M 162.615373 382.84 
L 164.563368 382.84 
L 164.563368 381.102958 
L 162.615373 381.102958 
z
" clip-path="url(#p607fe99890)" style="fill: #1f77b4"/>
   </g>
   <g id="patch_40">
    <path d="M 164.563368 382.84 
L 166.511363 382.84 
L 166.511363 382.84 
L 164.563368 382.84 
z
" clip-path="url(#p607fe99890)" style="fill: #1f77b4"/>
   </g>
   <g id="patch_41">
    <path d="M 166.511363 382.84 
L 168.459358 382.84 
L 168.459358 382.84 
L 166.511363 382.84 
z
" clip-path="url(#p607fe99890)" style="fill: #1f77b4"/>
   </g>
   <g id="patch_42">
    <path d="M 168.459358 382.84 
L 170.407353 382.84 
L 170.407353 380.44747 
L 168.459358 380.44747 
z
" clip-path="url(#p607fe99890)" style="fill: #1f77b4"/>
   </g>
   <g id="patch_43">
    <path d="M 170.407353 382.84 
L 172.355349 382.84 
L 172.355349 382.84 
L 170.407353 382.84 
z
" clip-path="url(#p607fe99890)" style="fill: #1f77b4"/>
   </g>
   <g id="patch_44">
    <path d="M 172.355349 382.84 
L 174.303344 382.84 
L 174.303344 379.562562 
L 172.355349 379.562562 
z
" clip-path="url(#p607fe99890)" style="fill: #1f77b4"/>
   </g>
   <g id="patch_45">
    <path d="M 174.303344 382.84 
L 176.251339 382.84 
L 176.251339 382.84 
L 174.303344 382.84 
z
" clip-path="url(#p607fe99890)" style="fill: #1f77b4"/>
   </g>
   <g id="patch_46">
    <path d="M 176.251339 382.84 
L 178.199334 382.84 
L 178.199334 382.84 
L 176.251339 382.84 
z
" clip-path="url(#p607fe99890)" style="fill: #1f77b4"/>
   </g>
   <g id="patch_47">
    <path d="M 178.199334 382.84 
L 180.147329 382.84 
L 180.147329 378.34991 
L 178.199334 378.34991 
z
" clip-path="url(#p607fe99890)" style="fill: #1f77b4"/>
   </g>
   <g id="patch_48">
    <path d="M 180.147329 382.84 
L 182.095324 382.84 
L 182.095324 382.84 
L 180.147329 382.84 
z
" clip-path="url(#p607fe99890)" style="fill: #1f77b4"/>
   </g>
   <g id="patch_49">
    <path d="M 182.095324 382.84 
L 184.04332 382.84 
L 184.04332 376.350673 
L 182.095324 376.350673 
z
" clip-path="url(#p607fe99890)" style="fill: #1f77b4"/>
   </g>
   <g id="patch_50">
    <path d="M 184.04332 382.84 
L 185.991315 382.84 
L 185.991315 382.84 
L 184.04332 382.84 
z
" clip-path="url(#p607fe99890)" style="fill: #1f77b4"/>
   </g>
   <g id="patch_51">
    <path d="M 185.991315 382.84 
L 187.93931 382.84 
L 187.93931 382.84 
L 185.991315 382.84 
z
" clip-path="url(#p607fe99890)" style="fill: #1f77b4"/>
   </g>
   <g id="patch_52">
    <path d="M 187.93931 382.84 
L 189.887305 382.84 
L 189.887305 375.72796 
L 187.93931 375.72796 
z
" clip-path="url(#p607fe99890)" style="fill: #1f77b4"/>
   </g>
   <g id="patch_53">
    <path d="M 189.887305 382.84 
L 191.8353 382.84 
L 191.8353 382.84 
L 189.887305 382.84 
z
" clip-path="url(#p607fe99890)" style="fill: #1f77b4"/>
   </g>
   <g id="patch_54">
    <path d="M 191.8353 382.84 
L 193.783296 382.84 
L 193.783296 372.81104 
L 191.8353 372.81104 
z
" clip-path="url(#p607fe99890)" style="fill: #1f77b4"/>
   </g>
   <g id="patch_55">
    <path d="M 193.783296 382.84 
L 195.731291 382.84 
L 195.731291 382.84 
L 193.783296 382.84 
z
" clip-path="url(#p607fe99890)" style="fill: #1f77b4"/>
   </g>
   <g id="patch_56">
    <path d="M 195.731291 382.84 
L 197.679286 382.84 
L 197.679286 382.84 
L 195.731291 382.84 
z
" clip-path="url(#p607fe99890)" style="fill: #1f77b4"/>
   </g>
   <g id="patch_57">
    <path d="M 197.679286 382.84 
L 199.627281 382.84 
L 199.627281 370.352962 
L 197.679286 370.352962 
z
" clip-path="url(#p607fe99890)" style="fill: #1f77b4"/>
   </g>
   <g id="patch_58">
    <path d="M 199.627281 382.84 
L 201.575276 382.84 
L 201.575276 382.84 
L 199.627281 382.84 
z
" clip-path="url(#p607fe99890)" style="fill: #1f77b4"/>
   </g>
   <g id="patch_59">
    <path d="M 201.575276 382.84 
L 203.523272 382.84 
L 203.523272 367.173847 
L 201.575276 367.173847 
z
" clip-path="url(#p607fe99890)" style="fill: #1f77b4"/>
   </g>
   <g id="patch_60">
    <path d="M 203.523272 382.84 
L 205.471267 382.84 
L 205.471267 382.84 
L 203.523272 382.84 
z
" clip-path="url(#p607fe99890)" style="fill: #1f77b4"/>
   </g>
   <g id="patch_61">
    <path d="M 205.471267 382.84 
L 207.419262 382.84 
L 207.419262 382.84 
L 205.471267 382.84 
z
" clip-path="url(#p607fe99890)" style="fill: #1f77b4"/>
   </g>
   <g id="patch_62">
    <path d="M 207.419262 382.84 
L 209.367257 382.84 
L 209.367257 363.07705 
L 207.419262 363.07705 
z
" clip-path="url(#p607fe99890)" style="fill: #1f77b4"/>
   </g>
   <g id="patch_63">
    <path d="M 209.367257 382.84 
L 211.315252 382.84 
L 211.315252 382.84 
L 209.367257 382.84 
z
" clip-path="url(#p607fe99890)" style="fill: #1f77b4"/>
   </g>
   <g id="patch_64">
    <path d="M 211.315252 382.84 
L 213.263247 382.84 
L 213.263247 357.570954 
L 211.315252 357.570954 
z
" clip-path="url(#p607fe99890)" style="fill: #1f77b4"/>
   </g>
   <g id="patch_65">
    <path d="M 213.263247 382.84 
L 215.211243 382.84 
L 215.211243 382.84 
L 213.263247 382.84 
z
" clip-path="url(#p607fe99890)" style="fill: #1f77b4"/>
   </g>
   <g id="patch_66">
    <path d="M 215.211243 382.84 
L 217.159238 382.84 
L 217.159238 382.84 
L 215.211243 382.84 
z
" clip-path="url(#p607fe99890)" style="fill: #1f77b4"/>
   </g>
   <g id="patch_67">
    <path d="M 217.159238 382.84 
L 219.107233 382.84 
L 219.107233 349.672329 
L 217.159238 349.672329 
z
" clip-path="url(#p607fe99890)" style="fill: #1f77b4"/>
   </g>
   <g id="patch_68">
    <path d="M 219.107233 382.84 
L 221.055228 382.84 
L 221.055228 382.84 
L 219.107233 382.84 
z
" clip-path="url(#p607fe99890)" style="fill: #1f77b4"/>
   </g>
   <g id="patch_69">
    <path d="M 221.055228 382.84 
L 223.003223 382.84 
L 223.003223 341.740929 
L 221.055228 341.740929 
z
" clip-path="url(#p607fe99890)" style="fill: #1f77b4"/>
   </g>
   <g id="patch_70">
    <path d="M 223.003223 382.84 
L 224.951219 382.84 
L 224.951219 382.84 
L 223.003223 382.84 
z
" clip-path="url(#p607fe99890)" style="fill: #1f77b4"/>
   </g>
   <g id="patch_71">
    <path d="M 224.951219 382.84 
L 226.899214 382.84 
L 226.899214 331.810292 
L 224.951219 331.810292 
z
" clip-path="url(#p607fe99890)" style="fill: #1f77b4"/>
   </g>
   <g id="patch_72">
    <path d="M 226.899214 382.84 
L 228.847209 382.84 
L 228.847209 382.84 
L 226.899214 382.84 
z
" clip-path="url(#p607fe99890)" style="fill: #1f77b4"/>
   </g>
   <g id="patch_73">
    <path d="M 228.847209 382.84 
L 230.795204 382.84 
L 230.795204 382.84 
L 228.847209 382.84 
z
" clip-path="url(#p607fe99890)" style="fill: #1f77b4"/>
   </g>
   <g id="patch_74">
    <path d="M 230.795204 382.84 
L 232.743199 382.84 
L 232.743199 316.89795 
L 230.795204 316.89795 
z
" clip-path="url(#p607fe99890)" style="fill: #1f77b4"/>
   </g>
   <g id="patch_75">
    <path d="M 232.743199 382.84 
L 234.691194 382.84 
L 234.691194 382.84 
L 232.743199 382.84 
z
" clip-path="url(#p607fe99890)" style="fill: #1f77b4"/>
   </g>
   <g id="patch_76">
    <path d="M 234.691194 382.84 
L 236.63919 382.84 
L 236.63919 302.608321 
L 234.691194 302.608321 
z
" clip-path="url(#p607fe99890)" style="fill: #1f77b4"/>
   </g>
   <g id="patch_77">
    <path d="M 236.63919 382.84 
L 238.587185 382.84 
L 238.587185 382.84 
L 236.63919 382.84 
z
" clip-path="url(#p607fe99890)" style="fill: #1f77b4"/>
   </g>
   <g id="patch_78">
    <path d="M 238.587185 382.84 
L 240.53518 382.84 
L 240.53518 382.84 
L 238.587185 382.84 
z
" clip-path="url(#p607fe99890)" style="fill: #1f77b4"/>
   </g>
   <g id="patch_79">
    <path d="M 240.53518 382.84 
L 242.483175 382.84 
L 242.483175 289.170825 
L 240.53518 289.170825 
z
" clip-path="url(#p607fe99890)" style="fill: #1f77b4"/>
   </g>
   <g id="patch_80">
    <path d="M 242.483175 382.84 
L 244.43117 382.84 
L 244.43117 382.84 
L 242.483175 382.84 
z
" clip-path="url(#p607fe99890)" style="fill: #1f77b4"/>
   </g>
   <g id="patch_81">
    <path d="M 244.43117 382.84 
L 246.379166 382.84 
L 246.379166 268.785162 
L 244.43117 268.785162 
z
" clip-path="url(#p607fe99890)" style="fill: #1f77b4"/>
   </g>
   <g id="patch_82">
    <path d="M 246.379166 382.84 
L 248.327161 382.84 
L 248.327161 382.84 
L 246.379166 382.84 
z
" clip-path="url(#p607fe99890)" style="fill: #1f77b4"/>
   </g>
   <g id="patch_83">
    <path d="M 248.327161 382.84 
L 250.275156 382.84 
L 250.275156 382.84 
L 248.327161 382.84 
z
" clip-path="url(#p607fe99890)" style="fill: #1f77b4"/>
   </g>
   <g id="patch_84">
    <path d="M 250.275156 382.84 
L 252.223151 382.84 
L 252.223151 254.692179 
L 250.275156 254.692179 
z
" clip-path="url(#p607fe99890)" style="fill: #1f77b4"/>
   </g>
   <g id="patch_85">
    <path d="M 252.223151 382.84 
L 254.171146 382.84 
L 254.171146 382.84 
L 252.223151 382.84 
z
" clip-path="url(#p607fe99890)" style="fill: #1f77b4"/>
   </g>
   <g id="patch_86">
    <path d="M 254.171146 382.84 
L 256.119141 382.84 
L 256.119141 230.242492 
L 254.171146 230.242492 
z
" clip-path="url(#p607fe99890)" style="fill: #1f77b4"/>
   </g>
   <g id="patch_87">
    <path d="M 256.119141 382.84 
L 258.067137 382.84 
L 258.067137 382.84 
L 256.119141 382.84 
z
" clip-path="url(#p607fe99890)" style="fill: #1f77b4"/>
   </g>
   <g id="patch_88">
    <path d="M 258.067137 382.84 
L 260.015132 382.84 
L 260.015132 382.84 
L 258.067137 382.84 
z
" clip-path="url(#p607fe99890)" style="fill: #1f77b4"/>
   </g>
   <g id="patch_89">
    <path d="M 260.015132 382.84 
L 261.963127 382.84 
L 261.963127 203.400276 
L 260.015132 203.400276 
z
" clip-path="url(#p607fe99890)" style="fill: #1f77b4"/>
   </g>
   <g id="patch_90">
    <path d="M 261.963127 382.84 
L 263.911122 382.84 
L 263.911122 382.84 
L 261.963127 382.84 
z
" clip-path="url(#p607fe99890)" style="fill: #1f77b4"/>
   </g>
   <g id="patch_91">
    <path d="M 263.911122 382.84 
L 265.859117 382.84 
L 265.859117 185.24327 
L 263.911122 185.24327 
z
" clip-path="url(#p607fe99890)" style="fill: #1f77b4"/>
   </g>
   <g id="patch_92">
    <path d="M 265.859117 382.84 
L 267.807113 382.84 
L 267.807113 382.84 
L 265.859117 382.84 
z
" clip-path="url(#p607fe99890)" style="fill: #1f77b4"/>
   </g>
   <g id="patch_93">
    <path d="M 267.807113 382.84 
L 269.755108 382.84 
L 269.755108 382.84 
L 267.807113 382.84 
z
" clip-path="url(#p607fe99890)" style="fill: #1f77b4"/>
   </g>
   <g id="patch_94">
    <path d="M 269.755108 382.84 
L 271.703103 382.84 
L 271.703103 164.005473 
L 269.755108 164.005473 
z
" clip-path="url(#p607fe99890)" style="fill: #1f77b4"/>
   </g>
   <g id="patch_95">
    <path d="M 271.703103 382.84 
L 273.651098 382.84 
L 273.651098 382.84 
L 271.703103 382.84 
z
" clip-path="url(#p607fe99890)" style="fill: #1f77b4"/>
   </g>
   <g id="patch_96">
    <path d="M 273.651098 382.84 
L 275.599093 382.84 
L 275.599093 136.671641 
L 273.651098 136.671641 
z
" clip-path="url(#p607fe99890)" style="fill: #1f77b4"/>
   </g>
   <g id="patch_97">
    <path d="M 275.599093 382.84 
L 277.547088 382.84 
L 277.547088 382.84 
L 275.599093 382.84 
z
" clip-path="url(#p607fe99890)" style="fill: #1f77b4"/>
   </g>
   <g id="patch_98">
    <path d="M 277.547088 382.84 
L 279.495084 382.84 
L 279.495084 382.84 
L 277.547088 382.84 
z
" clip-path="url(#p607fe99890)" style="fill: #1f77b4"/>
   </g>
   <g id="patch_99">
    <path d="M 279.495084 382.84 
L 281.443079 382.84 
L 281.443079 118.121342 
L 279.495084 118.121342 
z
" clip-path="url(#p607fe99890)" style="fill: #1f77b4"/>
   </g>
   <g id="patch_100">
    <path d="M 281.443079 382.84 
L 283.391074 382.84 
L 283.391074 382.84 
L 281.443079 382.84 
z
" clip-path="url(#p607fe99890)" style="fill: #1f77b4"/>
   </g>
   <g id="patch_101">
    <path d="M 283.391074 382.84 
L 285.339069 382.84 
L 285.339069 95.57257 
L 283.391074 95.57257 
z
" clip-path="url(#p607fe99890)" style="fill: #1f77b4"/>
   </g>
   <g id="patch_102">
    <path d="M 285.339069 382.84 
L 287.287064 382.84 
L 287.287064 382.84 
L 285.339069 382.84 
z
" clip-path="url(#p607fe99890)" style="fill: #1f77b4"/>
   </g>
   <g id="patch_103">
    <path d="M 287.287064 382.84 
L 289.23506 382.84 
L 289.23506 77.218917 
L 287.287064 77.218917 
z
" clip-path="url(#p607fe99890)" style="fill: #1f77b4"/>
   </g>
   <g id="patch_104">
    <path d="M 289.23506 382.84 
L 291.183055 382.84 
L 291.183055 382.84 
L 289.23506 382.84 
z
" clip-path="url(#p607fe99890)" style="fill: #1f77b4"/>
   </g>
   <g id="patch_105">
    <path d="M 291.183055 382.84 
L 293.13105 382.84 
L 293.13105 382.84 
L 291.183055 382.84 
z
" clip-path="url(#p607fe99890)" style="fill: #1f77b4"/>
   </g>
   <g id="patch_106">
    <path d="M 293.13105 382.84 
L 295.079045 382.84 
L 295.079045 62.798191 
L 293.13105 62.798191 
z
" clip-path="url(#p607fe99890)" style="fill: #1f77b4"/>
   </g>
   <g id="patch_107">
    <path d="M 295.079045 382.84 
L 297.02704 382.84 
L 297.02704 382.84 
L 295.079045 382.84 
z
" clip-path="url(#p607fe99890)" style="fill: #1f77b4"/>
   </g>
   <g id="patch_108">
    <path d="M 297.02704 382.84 
L 298.975035 382.84 
L 298.975035 36.939206 
L 297.02704 36.939206 
z
" clip-path="url(#p607fe99890)" style="fill: #1f77b4"/>
   </g>
   <g id="patch_109">
    <path d="M 298.975035 382.84 
L 300.923031 382.84 
L 300.923031 382.84 
L 298.975035 382.84 
z
" clip-path="url(#p607fe99890)" style="fill: #1f77b4"/>
   </g>
   <g id="patch_110">
    <path d="M 300.923031 382.84 
L 302.871026 382.84 
L 302.871026 382.84 
L 300.923031 382.84 
z
" clip-path="url(#p607fe99890)" style="fill: #1f77b4"/>
   </g>
   <g id="patch_111">
    <path d="M 302.871026 382.84 
L 304.819021 382.84 
L 304.819021 36.775334 
L 302.871026 36.775334 
z
" clip-path="url(#p607fe99890)" style="fill: #1f77b4"/>
   </g>
   <g id="patch_112">
    <path d="M 304.819021 382.84 
L 306.767016 382.84 
L 306.767016 382.84 
L 304.819021 382.84 
z
" clip-path="url(#p607fe99890)" style="fill: #1f77b4"/>
   </g>
   <g id="patch_113">
    <path d="M 306.767016 382.84 
L 308.715011 382.84 
L 308.715011 30.417104 
L 306.767016 30.417104 
z
" clip-path="url(#p607fe99890)" style="fill: #1f77b4"/>
   </g>
   <g id="patch_114">
    <path d="M 308.715011 382.84 
L 310.663007 382.84 
L 310.663007 382.84 
L 308.715011 382.84 
z
" clip-path="url(#p607fe99890)" style="fill: #1f77b4"/>
   </g>
   <g id="patch_115">
    <path d="M 310.663007 382.84 
L 312.611002 382.84 
L 312.611002 382.84 
L 310.663007 382.84 
z
" clip-path="url(#p607fe99890)" style="fill: #1f77b4"/>
   </g>
   <g id="patch_116">
    <path d="M 312.611002 382.84 
L 314.558997 382.84 
L 314.558997 28.51619 
L 312.611002 28.51619 
z
" clip-path="url(#p607fe99890)" style="fill: #1f77b4"/>
   </g>
   <g id="patch_117">
    <path d="M 314.558997 382.84 
L 316.506992 382.84 
L 316.506992 382.84 
L 314.558997 382.84 
z
" clip-path="url(#p607fe99890)" style="fill: #1f77b4"/>
   </g>
   <g id="patch_118">
    <path d="M 316.506992 382.84 
L 318.454987 382.84 
L 318.454987 34.710548 
L 316.506992 34.710548 
z
" clip-path="url(#p607fe99890)" style="fill: #1f77b4"/>
   </g>
   <g id="patch_119">
    <path d="M 318.454987 382.84 
L 320.402983 382.84 
L 320.402983 382.84 
L 318.454987 382.84 
z
" clip-path="url(#p607fe99890)" style="fill: #1f77b4"/>
   </g>
   <g id="patch_120">
    <path d="M 320.402983 382.84 
L 322.350978 382.84 
L 322.350978 382.84 
L 320.402983 382.84 
z
" clip-path="url(#p607fe99890)" style="fill: #1f77b4"/>
   </g>
   <g id="patch_121">
    <path d="M 322.350978 382.84 
L 324.298973 382.84 
L 324.298973 46.935391 
L 322.350978 46.935391 
z
" clip-path="url(#p607fe99890)" style="fill: #1f77b4"/>
   </g>
   <g id="patch_122">
    <path d="M 324.298973 382.84 
L 326.246968 382.84 
L 326.246968 382.84 
L 324.298973 382.84 
z
" clip-path="url(#p607fe99890)" style="fill: #1f77b4"/>
   </g>
   <g id="patch_123">
    <path d="M 326.246968 382.84 
L 328.194963 382.84 
L 328.194963 48.705208 
L 326.246968 48.705208 
z
" clip-path="url(#p607fe99890)" style="fill: #1f77b4"/>
   </g>
   <g id="patch_124">
    <path d="M 328.194963 382.84 
L 330.142958 382.84 
L 330.142958 382.84 
L 328.194963 382.84 
z
" clip-path="url(#p607fe99890)" style="fill: #1f77b4"/>
   </g>
   <g id="patch_125">
    <path d="M 330.142958 382.84 
L 332.090954 382.84 
L 332.090954 382.84 
L 330.142958 382.84 
z
" clip-path="url(#p607fe99890)" style="fill: #1f77b4"/>
   </g>
   <g id="patch_126">
    <path d="M 332.090954 382.84 
L 334.038949 382.84 
L 334.038949 66.53447 
L 332.090954 66.53447 
z
" clip-path="url(#p607fe99890)" style="fill: #1f77b4"/>
   </g>
   <g id="patch_127">
    <path d="M 334.038949 382.84 
L 335.986944 382.84 
L 335.986944 382.84 
L 334.038949 382.84 
z
" clip-path="url(#p607fe99890)" style="fill: #1f77b4"/>
   </g>
   <g id="patch_128">
    <path d="M 335.986944 382.84 
L 337.934939 382.84 
L 337.934939 87.280652 
L 335.986944 87.280652 
z
" clip-path="url(#p607fe99890)" style="fill: #1f77b4"/>
   </g>
   <g id="patch_129">
    <path d="M 337.934939 382.84 
L 339.882934 382.84 
L 339.882934 382.84 
L 337.934939 382.84 
z
" clip-path="url(#p607fe99890)" style="fill: #1f77b4"/>
   </g>
   <g id="patch_130">
    <path d="M 339.882934 382.84 
L 341.83093 382.84 
L 341.83093 382.84 
L 339.882934 382.84 
z
" clip-path="url(#p607fe99890)" style="fill: #1f77b4"/>
   </g>
   <g id="patch_131">
    <path d="M 341.83093 382.84 
L 343.778925 382.84 
L 343.778925 103.43842 
L 341.83093 103.43842 
z
" clip-path="url(#p607fe99890)" style="fill: #1f77b4"/>
   </g>
   <g id="patch_132">
    <path d="M 343.778925 382.84 
L 345.72692 382.84 
L 345.72692 382.84 
L 343.778925 382.84 
z
" clip-path="url(#p607fe99890)" style="fill: #1f77b4"/>
   </g>
   <g id="patch_133">
    <path d="M 345.72692 382.84 
L 347.674915 382.84 
L 347.674915 120.35 
L 345.72692 120.35 
z
" clip-path="url(#p607fe99890)" style="fill: #1f77b4"/>
   </g>
   <g id="patch_134">
    <path d="M 347.674915 382.84 
L 349.62291 382.84 
L 349.62291 382.84 
L 347.674915 382.84 
z
" clip-path="url(#p607fe99890)" style="fill: #1f77b4"/>
   </g>
   <g id="patch_135">
    <path d="M 349.62291 382.84 
L 351.570905 382.84 
L 351.570905 140.506243 
L 349.62291 140.506243 
z
" clip-path="url(#p607fe99890)" style="fill: #1f77b4"/>
   </g>
   <g id="patch_136">
    <path d="M 351.570905 382.84 
L 353.518901 382.84 
L 353.518901 382.84 
L 351.570905 382.84 
z
" clip-path="url(#p607fe99890)" style="fill: #1f77b4"/>
   </g>
   <g id="patch_137">
    <path d="M 353.518901 382.84 
L 355.466896 382.84 
L 355.466896 382.84 
L 353.518901 382.84 
z
" clip-path="url(#p607fe99890)" style="fill: #1f77b4"/>
   </g>
   <g id="patch_138">
    <path d="M 355.466896 382.84 
L 357.414891 382.84 
L 357.414891 160.793583 
L 355.466896 160.793583 
z
" clip-path="url(#p607fe99890)" style="fill: #1f77b4"/>
   </g>
   <g id="patch_139">
    <path d="M 357.414891 382.84 
L 359.362886 382.84 
L 359.362886 382.84 
L 357.414891 382.84 
z
" clip-path="url(#p607fe99890)" style="fill: #1f77b4"/>
   </g>
   <g id="patch_140">
    <path d="M 359.362886 382.84 
L 361.310881 382.84 
L 361.310881 181.80196 
L 359.362886 181.80196 
z
" clip-path="url(#p607fe99890)" style="fill: #1f77b4"/>
   </g>
   <g id="patch_141">
    <path d="M 361.310881 382.84 
L 363.258877 382.84 
L 363.258877 382.84 
L 361.310881 382.84 
z
" clip-path="url(#p607fe99890)" style="fill: #1f77b4"/>
   </g>
   <g id="patch_142">
    <path d="M 363.258877 382.84 
L 365.206872 382.84 
L 365.206872 382.84 
L 363.258877 382.84 
z
" clip-path="url(#p607fe99890)" style="fill: #1f77b4"/>
   </g>
   <g id="patch_143">
    <path d="M 365.206872 382.84 
L 367.154867 382.84 
L 367.154867 195.567199 
L 365.206872 195.567199 
z
" clip-path="url(#p607fe99890)" style="fill: #1f77b4"/>
   </g>
   <g id="patch_144">
    <path d="M 367.154867 382.84 
L 369.102862 382.84 
L 369.102862 382.84 
L 367.154867 382.84 
z
" clip-path="url(#p607fe99890)" style="fill: #1f77b4"/>
   </g>
   <g id="patch_145">
    <path d="M 369.102862 382.84 
L 371.050857 382.84 
L 371.050857 212.93762 
L 369.102862 212.93762 
z
" clip-path="url(#p607fe99890)" style="fill: #1f77b4"/>
   </g>
   <g id="patch_146">
    <path d="M 371.050857 382.84 
L 372.998852 382.84 
L 372.998852 382.84 
L 371.050857 382.84 
z
" clip-path="url(#p607fe99890)" style="fill: #1f77b4"/>
   </g>
   <g id="patch_147">
    <path d="M 372.998852 382.84 
L 374.946848 382.84 
L 374.946848 382.84 
L 372.998852 382.84 
z
" clip-path="url(#p607fe99890)" style="fill: #1f77b4"/>
   </g>
   <g id="patch_148">
    <path d="M 374.946848 382.84 
L 376.894843 382.84 
L 376.894843 230.07862 
L 374.946848 230.07862 
z
" clip-path="url(#p607fe99890)" style="fill: #1f77b4"/>
   </g>
   <g id="patch_149">
    <path d="M 376.894843 382.84 
L 378.842838 382.84 
L 378.842838 382.84 
L 376.894843 382.84 
z
" clip-path="url(#p607fe99890)" style="fill: #1f77b4"/>
   </g>
   <g id="patch_150">
    <path d="M 378.842838 382.84 
L 380.790833 382.84 
L 380.790833 248.727242 
L 378.842838 248.727242 
z
" clip-path="url(#p607fe99890)" style="fill: #1f77b4"/>
   </g>
   <g id="patch_151">
    <path d="M 380.790833 382.84 
L 382.738828 382.84 
L 382.738828 382.84 
L 380.790833 382.84 
z
" clip-path="url(#p607fe99890)" style="fill: #1f77b4"/>
   </g>
   <g id="patch_152">
    <path d="M 382.738828 382.84 
L 384.686824 382.84 
L 384.686824 382.84 
L 382.738828 382.84 
z
" clip-path="url(#p607fe99890)" style="fill: #1f77b4"/>
   </g>
   <g id="patch_153">
    <path d="M 384.686824 382.84 
L 386.634819 382.84 
L 386.634819 263.901779 
L 384.686824 263.901779 
z
" clip-path="url(#p607fe99890)" style="fill: #1f77b4"/>
   </g>
   <g id="patch_154">
    <path d="M 386.634819 382.84 
L 388.582814 382.84 
L 388.582814 382.84 
L 386.634819 382.84 
z
" clip-path="url(#p607fe99890)" style="fill: #1f77b4"/>
   </g>
   <g id="patch_155">
    <path d="M 388.582814 382.84 
L 390.530809 382.84 
L 390.530809 281.173877 
L 388.582814 281.173877 
z
" clip-path="url(#p607fe99890)" style="fill: #1f77b4"/>
   </g>
   <g id="patch_156">
    <path d="M 390.530809 382.84 
L 392.478804 382.84 
L 392.478804 382.84 
L 390.530809 382.84 
z
" clip-path="url(#p607fe99890)" style="fill: #1f77b4"/>
   </g>
   <g id="patch_157">
    <path d="M 392.478804 382.84 
L 394.426799 382.84 
L 394.426799 382.84 
L 392.478804 382.84 
z
" clip-path="url(#p607fe99890)" style="fill: #1f77b4"/>
   </g>
   <g id="patch_158">
    <path d="M 394.426799 382.84 
L 396.374795 382.84 
L 396.374795 290.514575 
L 394.426799 290.514575 
z
" clip-path="url(#p607fe99890)" style="fill: #1f77b4"/>
   </g>
   <g id="patch_159">
    <path d="M 396.374795 382.84 
L 398.32279 382.84 
L 398.32279 382.84 
L 396.374795 382.84 
z
" clip-path="url(#p607fe99890)" style="fill: #1f77b4"/>
   </g>
   <g id="patch_160">
    <path d="M 398.32279 382.84 
L 400.270785 382.84 
L 400.270785 305.394143 
L 398.32279 305.394143 
z
" clip-path="url(#p607fe99890)" style="fill: #1f77b4"/>
   </g>
   <g id="patch_161">
    <path d="M 400.270785 382.84 
L 402.21878 382.84 
L 402.21878 382.84 
L 400.270785 382.84 
z
" clip-path="url(#p607fe99890)" style="fill: #1f77b4"/>
   </g>
   <g id="patch_162">
    <path d="M 402.21878 382.84 
L 404.166775 382.84 
L 404.166775 314.177676 
L 402.21878 314.177676 
z
" clip-path="url(#p607fe99890)" style="fill: #1f77b4"/>
   </g>
   <g id="patch_163">
    <path d="M 404.166775 382.84 
L 406.114771 382.84 
L 406.114771 382.84 
L 404.166775 382.84 
z
" clip-path="url(#p607fe99890)" style="fill: #1f77b4"/>
   </g>
   <g id="patch_164">
    <path d="M 406.114771 382.84 
L 408.062766 382.84 
L 408.062766 382.84 
L 406.114771 382.84 
z
" clip-path="url(#p607fe99890)" style="fill: #1f77b4"/>
   </g>
   <g id="patch_165">
    <path d="M 408.062766 382.84 
L 410.010761 382.84 
L 410.010761 324.239411 
L 408.062766 324.239411 
z
" clip-path="url(#p607fe99890)" style="fill: #1f77b4"/>
   </g>
   <g id="patch_166">
    <path d="M 410.010761 382.84 
L 411.958756 382.84 
L 411.958756 382.84 
L 410.010761 382.84 
z
" clip-path="url(#p607fe99890)" style="fill: #1f77b4"/>
   </g>
   <g id="patch_167">
    <path d="M 411.958756 382.84 
L 413.906751 382.84 
L 413.906751 336.070961 
L 411.958756 336.070961 
z
" clip-path="url(#p607fe99890)" style="fill: #1f77b4"/>
   </g>
   <g id="patch_168">
    <path d="M 413.906751 382.84 
L 415.854746 382.84 
L 415.854746 382.84 
L 413.906751 382.84 
z
" clip-path="url(#p607fe99890)" style="fill: #1f77b4"/>
   </g>
   <g id="patch_169">
    <path d="M 415.854746 382.84 
L 417.802742 382.84 
L 417.802742 382.84 
L 415.854746 382.84 
z
" clip-path="url(#p607fe99890)" style="fill: #1f77b4"/>
   </g>
   <g id="patch_170">
    <path d="M 417.802742 382.84 
L 419.750737 382.84 
L 419.750737 343.24855 
L 417.802742 343.24855 
z
" clip-path="url(#p607fe99890)" style="fill: #1f77b4"/>
   </g>
   <g id="patch_171">
    <path d="M 419.750737 382.84 
L 421.698732 382.84 
L 421.698732 382.84 
L 419.750737 382.84 
z
" clip-path="url(#p607fe99890)" style="fill: #1f77b4"/>
   </g>
   <g id="patch_172">
    <path d="M 421.698732 382.84 
L 423.646727 382.84 
L 423.646727 352.75312 
L 421.698732 352.75312 
z
" clip-path="url(#p607fe99890)" style="fill: #1f77b4"/>
   </g>
   <g id="patch_173">
    <path d="M 423.646727 382.84 
L 425.594722 382.84 
L 425.594722 382.84 
L 423.646727 382.84 
z
" clip-path="url(#p607fe99890)" style="fill: #1f77b4"/>
   </g>
   <g id="patch_174">
    <path d="M 425.594722 382.84 
L 427.542718 382.84 
L 427.542718 382.84 
L 425.594722 382.84 
z
" clip-path="url(#p607fe99890)" style="fill: #1f77b4"/>
   </g>
   <g id="patch_175">
    <path d="M 427.542718 382.84 
L 429.490713 382.84 
L 429.490713 355.965009 
L 427.542718 355.965009 
z
" clip-path="url(#p607fe99890)" style="fill: #1f77b4"/>
   </g>
   <g id="patch_176">
    <path d="M 429.490713 382.84 
L 431.438708 382.84 
L 431.438708 382.84 
L 429.490713 382.84 
z
" clip-path="url(#p607fe99890)" style="fill: #1f77b4"/>
   </g>
   <g id="patch_177">
    <path d="M 431.438708 382.84 
L 433.386703 382.84 
L 433.386703 362.78208 
L 431.438708 362.78208 
z
" clip-path="url(#p607fe99890)" style="fill: #1f77b4"/>
   </g>
   <g id="patch_178">
    <path d="M 433.386703 382.84 
L 435.334698 382.84 
L 435.334698 382.84 
L 433.386703 382.84 
z
" clip-path="url(#p607fe99890)" style="fill: #1f77b4"/>
   </g>
   <g id="patch_179">
    <path d="M 435.334698 382.84 
L 437.282694 382.84 
L 437.282694 382.84 
L 435.334698 382.84 
z
" clip-path="url(#p607fe99890)" style="fill: #1f77b4"/>
   </g>
   <g id="patch_180">
    <path d="M 437.282694 382.84 
L 439.230689 382.84 
L 439.230689 365.338482 
L 437.282694 365.338482 
z
" clip-path="url(#p607fe99890)" style="fill: #1f77b4"/>
   </g>
   <g id="patch_181">
    <path d="M 439.230689 382.84 
L 441.178684 382.84 
L 441.178684 382.84 
L 439.230689 382.84 
z
" clip-path="url(#p607fe99890)" style="fill: #1f77b4"/>
   </g>
   <g id="patch_182">
    <path d="M 441.178684 382.84 
L 443.126679 382.84 
L 443.126679 369.959669 
L 441.178684 369.959669 
z
" clip-path="url(#p607fe99890)" style="fill: #1f77b4"/>
   </g>
   <g id="patch_183">
    <path d="M 443.126679 382.84 
L 445.074674 382.84 
L 445.074674 382.84 
L 443.126679 382.84 
z
" clip-path="url(#p607fe99890)" style="fill: #1f77b4"/>
   </g>
   <g id="patch_184">
    <path d="M 445.074674 382.84 
L 447.022669 382.84 
L 447.022669 382.84 
L 445.074674 382.84 
z
" clip-path="url(#p607fe99890)" style="fill: #1f77b4"/>
   </g>
   <g id="patch_185">
    <path d="M 447.022669 382.84 
L 448.970665 382.84 
L 448.970665 372.81104 
L 447.022669 372.81104 
z
" clip-path="url(#p607fe99890)" style="fill: #1f77b4"/>
   </g>
   <g id="patch_186">
    <path d="M 448.970665 382.84 
L 450.91866 382.84 
L 450.91866 382.84 
L 448.970665 382.84 
z
" clip-path="url(#p607fe99890)" style="fill: #1f77b4"/>
   </g>
   <g id="patch_187">
    <path d="M 450.91866 382.84 
L 452.866655 382.84 
L 452.866655 374.416985 
L 450.91866 374.416985 
z
" clip-path="url(#p607fe99890)" style="fill: #1f77b4"/>
   </g>
   <g id="patch_188">
    <path d="M 452.866655 382.84 
L 454.81465 382.84 
L 454.81465 382.84 
L 452.866655 382.84 
z
" clip-path="url(#p607fe99890)" style="fill: #1f77b4"/>
   </g>
   <g id="patch_189">
    <path d="M 454.81465 382.84 
L 456.762645 382.84 
L 456.762645 382.84 
L 454.81465 382.84 
z
" clip-path="url(#p607fe99890)" style="fill: #1f77b4"/>
   </g>
   <g id="patch_190">
    <path d="M 456.762645 382.84 
L 458.710641 382.84 
L 458.710641 376.907837 
L 456.762645 376.907837 
z
" clip-path="url(#p607fe99890)" style="fill: #1f77b4"/>
   </g>
   <g id="patch_191">
    <path d="M 458.710641 382.84 
L 460.658636 382.84 
L 460.658636 382.84 
L 458.710641 382.84 
z
" clip-path="url(#p607fe99890)" style="fill: #1f77b4"/>
   </g>
   <g id="patch_192">
    <path d="M 460.658636 382.84 
L 462.606631 382.84 
L 462.606631 377.465002 
L 460.658636 377.465002 
z
" clip-path="url(#p607fe99890)" style="fill: #1f77b4"/>
   </g>
   <g id="patch_193">
    <path d="M 462.606631 382.84 
L 464.554626 382.84 
L 464.554626 382.84 
L 462.606631 382.84 
z
" clip-path="url(#p607fe99890)" style="fill: #1f77b4"/>
   </g>
   <g id="patch_194">
    <path d="M 464.554626 382.84 
L 466.502621 382.84 
L 466.502621 379.628111 
L 464.554626 379.628111 
z
" clip-path="url(#p607fe99890)" style="fill: #1f77b4"/>
   </g>
   <g id="patch_195">
    <path d="M 466.502621 382.84 
L 468.450616 382.84 
L 468.450616 382.84 
L 466.502621 382.84 
z
" clip-path="url(#p607fe99890)" style="fill: #1f77b4"/>
   </g>
   <g id="patch_196">
    <path d="M 468.450616 382.84 
L 470.398612 382.84 
L 470.398612 382.84 
L 468.450616 382.84 
z
" clip-path="url(#p607fe99890)" style="fill: #1f77b4"/>
   </g>
   <g id="patch_197">
    <path d="M 470.398612 382.84 
L 472.346607 382.84 
L 472.346607 380.676891 
L 470.398612 380.676891 
z
" clip-path="url(#p607fe99890)" style="fill: #1f77b4"/>
   </g>
   <g id="patch_198">
    <path d="M 472.346607 382.84 
L 474.294602 382.84 
L 474.294602 382.84 
L 472.346607 382.84 
z
" clip-path="url(#p607fe99890)" style="fill: #1f77b4"/>
   </g>
   <g id="patch_199">
    <path d="M 474.294602 382.84 
L 476.242597 382.84 
L 476.242597 381.26683 
L 474.294602 381.26683 
z
" clip-path="url(#p607fe99890)" style="fill: #1f77b4"/>
   </g>
   <g id="patch_200">
    <path d="M 476.242597 382.84 
L 478.190592 382.84 
L 478.190592 382.84 
L 476.242597 382.84 
z
" clip-path="url(#p607fe99890)" style="fill: #1f77b4"/>
   </g>
   <g id="patch_201">
    <path d="M 478.190592 382.84 
L 480.138588 382.84 
L 480.138588 382.84 
L 478.190592 382.84 
z
" clip-path="url(#p607fe99890)" style="fill: #1f77b4"/>
   </g>
   <g id="patch_202">
    <path d="M 480.138588 382.84 
L 482.086583 382.84 
L 482.086583 381.660122 
L 480.138588 381.660122 
z
" clip-path="url(#p607fe99890)" style="fill: #1f77b4"/>
   </g>
   <g id="patch_203">
    <path d="M 482.086583 382.84 
L 484.034578 382.84 
L 484.034578 382.84 
L 482.086583 382.84 
z
" clip-path="url(#p607fe99890)" style="fill: #1f77b4"/>
   </g>
   <g id="patch_204">
    <path d="M 484.034578 382.84 
L 485.982573 382.84 
L 485.982573 382.086189 
L 484.034578 382.086189 
z
" clip-path="url(#p607fe99890)" style="fill: #1f77b4"/>
   </g>
   <g id="patch_205">
    <path d="M 485.982573 382.84 
L 487.930568 382.84 
L 487.930568 382.84 
L 485.982573 382.84 
z
" clip-path="url(#p607fe99890)" style="fill: #1f77b4"/>
   </g>
   <g id="patch_206">
    <path d="M 487.930568 382.84 
L 489.878563 382.84 
L 489.878563 382.84 
L 487.930568 382.84 
z
" clip-path="url(#p607fe99890)" style="fill: #1f77b4"/>
   </g>
   <g id="patch_207">
    <path d="M 489.878563 382.84 
L 491.826559 382.84 
L 491.826559 382.151738 
L 489.878563 382.151738 
z
" clip-path="url(#p607fe99890)" style="fill: #1f77b4"/>
   </g>
   <g id="patch_208">
    <path d="M 491.826559 382.84 
L 493.774554 382.84 
L 493.774554 382.84 
L 491.826559 382.84 
z
" clip-path="url(#p607fe99890)" style="fill: #1f77b4"/>
   </g>
   <g id="patch_209">
    <path d="M 493.774554 382.84 
L 495.722549 382.84 
L 495.722549 382.610579 
L 493.774554 382.610579 
z
" clip-path="url(#p607fe99890)" style="fill: #1f77b4"/>
   </g>
   <g id="patch_210">
    <path d="M 495.722549 382.84 
L 497.670544 382.84 
L 497.670544 382.84 
L 495.722549 382.84 
z
" clip-path="url(#p607fe99890)" style="fill: #1f77b4"/>
   </g>
   <g id="patch_211">
    <path d="M 497.670544 382.84 
L 499.618539 382.84 
L 499.618539 382.84 
L 497.670544 382.84 
z
" clip-path="url(#p607fe99890)" style="fill: #1f77b4"/>
   </g>
   <g id="patch_212">
    <path d="M 499.618539 382.84 
L 501.566535 382.84 
L 501.566535 382.545031 
L 499.618539 382.545031 
z
" clip-path="url(#p607fe99890)" style="fill: #1f77b4"/>
   </g>
   <g id="patch_213">
    <path d="M 501.566535 382.84 
L 503.51453 382.84 
L 503.51453 382.84 
L 501.566535 382.84 
z
" clip-path="url(#p607fe99890)" style="fill: #1f77b4"/>
   </g>
   <g id="patch_214">
    <path d="M 503.51453 382.84 
L 505.462525 382.84 
L 505.462525 382.676128 
L 503.51453 382.676128 
z
" clip-path="url(#p607fe99890)" style="fill: #1f77b4"/>
   </g>
   <g id="patch_215">
    <path d="M 505.462525 382.84 
L 507.41052 382.84 
L 507.41052 382.84 
L 505.462525 382.84 
z
" clip-path="url(#p607fe99890)" style="fill: #1f77b4"/>
   </g>
   <g id="patch_216">
    <path d="M 507.41052 382.84 
L 509.358515 382.84 
L 509.358515 382.84 
L 507.41052 382.84 
z
" clip-path="url(#p607fe99890)" style="fill: #1f77b4"/>
   </g>
   <g id="patch_217">
    <path d="M 509.358515 382.84 
L 511.30651 382.84 
L 511.30651 382.741677 
L 509.358515 382.741677 
z
" clip-path="url(#p607fe99890)" style="fill: #1f77b4"/>
   </g>
   <g id="patch_218">
    <path d="M 511.30651 382.84 
L 513.254506 382.84 
L 513.254506 382.84 
L 511.30651 382.84 
z
" clip-path="url(#p607fe99890)" style="fill: #1f77b4"/>
   </g>
   <g id="patch_219">
    <path d="M 513.254506 382.84 
L 515.202501 382.84 
L 515.202501 382.708902 
L 513.254506 382.708902 
z
" clip-path="url(#p607fe99890)" style="fill: #1f77b4"/>
   </g>
   <g id="patch_220">
    <path d="M 515.202501 382.84 
L 517.150496 382.84 
L 517.150496 382.84 
L 515.202501 382.84 
z
" clip-path="url(#p607fe99890)" style="fill: #1f77b4"/>
   </g>
   <g id="patch_221">
    <path d="M 517.150496 382.84 
L 519.098491 382.84 
L 519.098491 382.84 
L 517.150496 382.84 
z
" clip-path="url(#p607fe99890)" style="fill: #1f77b4"/>
   </g>
   <g id="patch_222">
    <path d="M 519.098491 382.84 
L 521.046486 382.84 
L 521.046486 382.84 
L 519.098491 382.84 
z
" clip-path="url(#p607fe99890)" style="fill: #1f77b4"/>
   </g>
   <g id="patch_223">
    <path d="M 521.046486 382.84 
L 522.994482 382.84 
L 522.994482 382.84 
L 521.046486 382.84 
z
" clip-path="url(#p607fe99890)" style="fill: #1f77b4"/>
   </g>
   <g id="patch_224">
    <path d="M 522.994482 382.84 
L 524.942477 382.84 
L 524.942477 382.774451 
L 522.994482 382.774451 
z
" clip-path="url(#p607fe99890)" style="fill: #1f77b4"/>
   </g>
   <g id="patch_225">
    <path d="M 524.942477 382.84 
L 526.890472 382.84 
L 526.890472 382.84 
L 524.942477 382.84 
z
" clip-path="url(#p607fe99890)" style="fill: #1f77b4"/>
   </g>
   <g id="patch_226">
    <path d="M 526.890472 382.84 
L 528.838467 382.84 
L 528.838467 382.807226 
L 526.890472 382.807226 
z
" clip-path="url(#p607fe99890)" style="fill: #1f77b4"/>
   </g>
   <g id="matplotlib.axis_1">
    <g id="xtick_1">
     <g id="line2d_1">
      <defs>
       <path id="mafb559f8a4" d="M 0 0 
L 0 3.5 
" style="stroke: #000000; stroke-width: 0.8"/>
      </defs>
      <g>
       <use xlink:href="#mafb559f8a4" x="154.823392" y="382.84" style="stroke: #000000; stroke-width: 0.8"/>
      </g>
     </g>
     <g id="text_1">
      <!-- −12 -->
      <g transform="translate(144.271048 397.438438) scale(0.1 -0.1)">
       <defs>
        <path id="DejaVuSans-2212" d="M 678 2272 
L 4684 2272 
L 4684 1741 
L 678 1741 
L 678 2272 
z
" transform="scale(0.015625)"/>
        <path id="DejaVuSans-31" d="M 794 531 
L 1825 531 
L 1825 4091 
L 703 3866 
L 703 4441 
L 1819 4666 
L 2450 4666 
L 2450 531 
L 3481 531 
L 3481 0 
L 794 0 
L 794 531 
z
" transform="scale(0.015625)"/>
        <path id="DejaVuSans-32" d="M 1228 531 
L 3431 531 
L 3431 0 
L 469 0 
L 469 531 
Q 828 903 1448 1529 
Q 2069 2156 2228 2338 
Q 2531 2678 2651 2914 
Q 2772 3150 2772 3378 
Q 2772 3750 2511 3984 
Q 2250 4219 1831 4219 
Q 1534 4219 1204 4116 
Q 875 4013 500 3803 
L 500 4441 
Q 881 4594 1212 4672 
Q 1544 4750 1819 4750 
Q 2544 4750 2975 4387 
Q 3406 4025 3406 3419 
Q 3406 3131 3298 2873 
Q 3191 2616 2906 2266 
Q 2828 2175 2409 1742 
Q 1991 1309 1228 531 
z
" transform="scale(0.015625)"/>
       </defs>
       <use xlink:href="#DejaVuSans-2212"/>
       <use xlink:href="#DejaVuSans-31" x="83.789062"/>
       <use xlink:href="#DejaVuSans-32" x="147.412109"/>
      </g>
     </g>
    </g>
    <g id="xtick_2">
     <g id="line2d_2">
      <g>
       <use xlink:href="#mafb559f8a4" x="250.724693" y="382.84" style="stroke: #000000; stroke-width: 0.8"/>
      </g>
     </g>
     <g id="text_2">
      <!-- −10 -->
      <g transform="translate(240.17235 397.438438) scale(0.1 -0.1)">
       <defs>
        <path id="DejaVuSans-30" d="M 2034 4250 
Q 1547 4250 1301 3770 
Q 1056 3291 1056 2328 
Q 1056 1369 1301 889 
Q 1547 409 2034 409 
Q 2525 409 2770 889 
Q 3016 1369 3016 2328 
Q 3016 3291 2770 3770 
Q 2525 4250 2034 4250 
z
M 2034 4750 
Q 2819 4750 3233 4129 
Q 3647 3509 3647 2328 
Q 3647 1150 3233 529 
Q 2819 -91 2034 -91 
Q 1250 -91 836 529 
Q 422 1150 422 2328 
Q 422 3509 836 4129 
Q 1250 4750 2034 4750 
z
" transform="scale(0.015625)"/>
       </defs>
       <use xlink:href="#DejaVuSans-2212"/>
       <use xlink:href="#DejaVuSans-31" x="83.789062"/>
       <use xlink:href="#DejaVuSans-30" x="147.412109"/>
      </g>
     </g>
    </g>
    <g id="xtick_3">
     <g id="line2d_3">
      <g>
       <use xlink:href="#mafb559f8a4" x="346.625995" y="382.84" style="stroke: #000000; stroke-width: 0.8"/>
      </g>
     </g>
     <g id="text_3">
      <!-- −8 -->
      <g transform="translate(339.254901 397.438438) scale(0.1 -0.1)">
       <defs>
        <path id="DejaVuSans-38" d="M 2034 2216 
Q 1584 2216 1326 1975 
Q 1069 1734 1069 1313 
Q 1069 891 1326 650 
Q 1584 409 2034 409 
Q 2484 409 2743 651 
Q 3003 894 3003 1313 
Q 3003 1734 2745 1975 
Q 2488 2216 2034 2216 
z
M 1403 2484 
Q 997 2584 770 2862 
Q 544 3141 544 3541 
Q 544 4100 942 4425 
Q 1341 4750 2034 4750 
Q 2731 4750 3128 4425 
Q 3525 4100 3525 3541 
Q 3525 3141 3298 2862 
Q 3072 2584 2669 2484 
Q 3125 2378 3379 2068 
Q 3634 1759 3634 1313 
Q 3634 634 3220 271 
Q 2806 -91 2034 -91 
Q 1263 -91 848 271 
Q 434 634 434 1313 
Q 434 1759 690 2068 
Q 947 2378 1403 2484 
z
M 1172 3481 
Q 1172 3119 1398 2916 
Q 1625 2713 2034 2713 
Q 2441 2713 2670 2916 
Q 2900 3119 2900 3481 
Q 2900 3844 2670 4047 
Q 2441 4250 2034 4250 
Q 1625 4250 1398 4047 
Q 1172 3844 1172 3481 
z
" transform="scale(0.015625)"/>
       </defs>
       <use xlink:href="#DejaVuSans-2212"/>
       <use xlink:href="#DejaVuSans-38" x="83.789062"/>
      </g>
     </g>
    </g>
    <g id="xtick_4">
     <g id="line2d_4">
      <g>
       <use xlink:href="#mafb559f8a4" x="442.527296" y="382.84" style="stroke: #000000; stroke-width: 0.8"/>
      </g>
     </g>
     <g id="text_4">
      <!-- −6 -->
      <g transform="translate(435.156202 397.438438) scale(0.1 -0.1)">
       <defs>
        <path id="DejaVuSans-36" d="M 2113 2584 
Q 1688 2584 1439 2293 
Q 1191 2003 1191 1497 
Q 1191 994 1439 701 
Q 1688 409 2113 409 
Q 2538 409 2786 701 
Q 3034 994 3034 1497 
Q 3034 2003 2786 2293 
Q 2538 2584 2113 2584 
z
M 3366 4563 
L 3366 3988 
Q 3128 4100 2886 4159 
Q 2644 4219 2406 4219 
Q 1781 4219 1451 3797 
Q 1122 3375 1075 2522 
Q 1259 2794 1537 2939 
Q 1816 3084 2150 3084 
Q 2853 3084 3261 2657 
Q 3669 2231 3669 1497 
Q 3669 778 3244 343 
Q 2819 -91 2113 -91 
Q 1303 -91 875 529 
Q 447 1150 447 2328 
Q 447 3434 972 4092 
Q 1497 4750 2381 4750 
Q 2619 4750 2861 4703 
Q 3103 4656 3366 4563 
z
" transform="scale(0.015625)"/>
       </defs>
       <use xlink:href="#DejaVuSans-2212"/>
       <use xlink:href="#DejaVuSans-36" x="83.789062"/>
      </g>
     </g>
    </g>
    <g id="xtick_5">
     <g id="line2d_5">
      <g>
       <use xlink:href="#mafb559f8a4" x="538.428597" y="382.84" style="stroke: #000000; stroke-width: 0.8"/>
      </g>
     </g>
     <g id="text_5">
      <!-- −4 -->
      <g transform="translate(531.057504 397.438438) scale(0.1 -0.1)">
       <defs>
        <path id="DejaVuSans-34" d="M 2419 4116 
L 825 1625 
L 2419 1625 
L 2419 4116 
z
M 2253 4666 
L 3047 4666 
L 3047 1625 
L 3713 1625 
L 3713 1100 
L 3047 1100 
L 3047 0 
L 2419 0 
L 2419 1100 
L 313 1100 
L 313 1709 
L 2253 4666 
z
" transform="scale(0.015625)"/>
       </defs>
       <use xlink:href="#DejaVuSans-2212"/>
       <use xlink:href="#DejaVuSans-34" x="83.789062"/>
      </g>
     </g>
    </g>
    <g id="text_6">
     <!-- ADAM17 -->
     <g transform="translate(272.359569 417.195312) scale(0.18 -0.18)">
      <defs>
       <path id="DejaVuSans-41" d="M 2188 4044 
L 1331 1722 
L 3047 1722 
L 2188 4044 
z
M 1831 4666 
L 2547 4666 
L 4325 0 
L 3669 0 
L 3244 1197 
L 1141 1197 
L 716 0 
L 50 0 
L 1831 4666 
z
" transform="scale(0.015625)"/>
       <path id="DejaVuSans-44" d="M 1259 4147 
L 1259 519 
L 2022 519 
Q 2988 519 3436 956 
Q 3884 1394 3884 2338 
Q 3884 3275 3436 3711 
Q 2988 4147 2022 4147 
L 1259 4147 
z
M 628 4666 
L 1925 4666 
Q 3281 4666 3915 4102 
Q 4550 3538 4550 2338 
Q 4550 1131 3912 565 
Q 3275 0 1925 0 
L 628 0 
L 628 4666 
z
" transform="scale(0.015625)"/>
       <path id="DejaVuSans-4d" d="M 628 4666 
L 1569 4666 
L 2759 1491 
L 3956 4666 
L 4897 4666 
L 4897 0 
L 4281 0 
L 4281 4097 
L 3078 897 
L 2444 897 
L 1241 4097 
L 1241 0 
L 628 0 
L 628 4666 
z
" transform="scale(0.015625)"/>
       <path id="DejaVuSans-37" d="M 525 4666 
L 3525 4666 
L 3525 4397 
L 1831 0 
L 1172 0 
L 2766 4134 
L 525 4134 
L 525 4666 
z
" transform="scale(0.015625)"/>
      </defs>
      <use xlink:href="#DejaVuSans-41"/>
      <use xlink:href="#DejaVuSans-44" x="68.408203"/>
      <use xlink:href="#DejaVuSans-41" x="143.660156"/>
      <use xlink:href="#DejaVuSans-4d" x="212.068359"/>
      <use xlink:href="#DejaVuSans-31" x="298.347656"/>
      <use xlink:href="#DejaVuSans-37" x="361.970703"/>
     </g>
    </g>
   </g>
   <g id="matplotlib.axis_2">
    <g id="ytick_1">
     <g id="line2d_6">
      <defs>
       <path id="m866e1fca47" d="M 0 0 
L -3.5 0 
" style="stroke: #000000; stroke-width: 0.8"/>
      </defs>
      <g>
       <use xlink:href="#m866e1fca47" x="70.67" y="382.84" style="stroke: #000000; stroke-width: 0.8"/>
      </g>
     </g>
     <g id="text_7">
      <!-- 0 -->
      <g transform="translate(57.3075 386.639219) scale(0.1 -0.1)">
       <use xlink:href="#DejaVuSans-30"/>
      </g>
     </g>
    </g>
    <g id="ytick_2">
     <g id="line2d_7">
      <g>
       <use xlink:href="#m866e1fca47" x="70.67" y="317.291242" style="stroke: #000000; stroke-width: 0.8"/>
      </g>
     </g>
     <g id="text_8">
      <!-- 2000 -->
      <g transform="translate(38.22 321.090461) scale(0.1 -0.1)">
       <use xlink:href="#DejaVuSans-32"/>
       <use xlink:href="#DejaVuSans-30" x="63.623047"/>
       <use xlink:href="#DejaVuSans-30" x="127.246094"/>
       <use xlink:href="#DejaVuSans-30" x="190.869141"/>
      </g>
     </g>
    </g>
    <g id="ytick_3">
     <g id="line2d_8">
      <g>
       <use xlink:href="#m866e1fca47" x="70.67" y="251.742485" style="stroke: #000000; stroke-width: 0.8"/>
      </g>
     </g>
     <g id="text_9">
      <!-- 4000 -->
      <g transform="translate(38.22 255.541703) scale(0.1 -0.1)">
       <use xlink:href="#DejaVuSans-34"/>
       <use xlink:href="#DejaVuSans-30" x="63.623047"/>
       <use xlink:href="#DejaVuSans-30" x="127.246094"/>
       <use xlink:href="#DejaVuSans-30" x="190.869141"/>
      </g>
     </g>
    </g>
    <g id="ytick_4">
     <g id="line2d_9">
      <g>
       <use xlink:href="#m866e1fca47" x="70.67" y="186.193727" style="stroke: #000000; stroke-width: 0.8"/>
      </g>
     </g>
     <g id="text_10">
      <!-- 6000 -->
      <g transform="translate(38.22 189.992946) scale(0.1 -0.1)">
       <use xlink:href="#DejaVuSans-36"/>
       <use xlink:href="#DejaVuSans-30" x="63.623047"/>
       <use xlink:href="#DejaVuSans-30" x="127.246094"/>
       <use xlink:href="#DejaVuSans-30" x="190.869141"/>
      </g>
     </g>
    </g>
    <g id="ytick_5">
     <g id="line2d_10">
      <g>
       <use xlink:href="#m866e1fca47" x="70.67" y="120.644969" style="stroke: #000000; stroke-width: 0.8"/>
      </g>
     </g>
     <g id="text_11">
      <!-- 8000 -->
      <g transform="translate(38.22 124.444188) scale(0.1 -0.1)">
       <use xlink:href="#DejaVuSans-38"/>
       <use xlink:href="#DejaVuSans-30" x="63.623047"/>
       <use xlink:href="#DejaVuSans-30" x="127.246094"/>
       <use xlink:href="#DejaVuSans-30" x="190.869141"/>
      </g>
     </g>
    </g>
    <g id="ytick_6">
     <g id="line2d_11">
      <g>
       <use xlink:href="#m866e1fca47" x="70.67" y="55.096212" style="stroke: #000000; stroke-width: 0.8"/>
      </g>
     </g>
     <g id="text_12">
      <!-- 10000 -->
      <g transform="translate(31.8575 58.89543) scale(0.1 -0.1)">
       <use xlink:href="#DejaVuSans-31"/>
       <use xlink:href="#DejaVuSans-30" x="63.623047"/>
       <use xlink:href="#DejaVuSans-30" x="127.246094"/>
       <use xlink:href="#DejaVuSans-30" x="190.869141"/>
       <use xlink:href="#DejaVuSans-30" x="254.492188"/>
      </g>
     </g>
    </g>
    <g id="text_13">
     <!-- Count -->
     <g transform="translate(24.114063 223.547188) rotate(-90) scale(0.18 -0.18)">
      <defs>
       <path id="DejaVuSans-43" d="M 4122 4306 
L 4122 3641 
Q 3803 3938 3442 4084 
Q 3081 4231 2675 4231 
Q 1875 4231 1450 3742 
Q 1025 3253 1025 2328 
Q 1025 1406 1450 917 
Q 1875 428 2675 428 
Q 3081 428 3442 575 
Q 3803 722 4122 1019 
L 4122 359 
Q 3791 134 3420 21 
Q 3050 -91 2638 -91 
Q 1578 -91 968 557 
Q 359 1206 359 2328 
Q 359 3453 968 4101 
Q 1578 4750 2638 4750 
Q 3056 4750 3426 4639 
Q 3797 4528 4122 4306 
z
" transform="scale(0.015625)"/>
       <path id="DejaVuSans-6f" d="M 1959 3097 
Q 1497 3097 1228 2736 
Q 959 2375 959 1747 
Q 959 1119 1226 758 
Q 1494 397 1959 397 
Q 2419 397 2687 759 
Q 2956 1122 2956 1747 
Q 2956 2369 2687 2733 
Q 2419 3097 1959 3097 
z
M 1959 3584 
Q 2709 3584 3137 3096 
Q 3566 2609 3566 1747 
Q 3566 888 3137 398 
Q 2709 -91 1959 -91 
Q 1206 -91 779 398 
Q 353 888 353 1747 
Q 353 2609 779 3096 
Q 1206 3584 1959 3584 
z
" transform="scale(0.015625)"/>
       <path id="DejaVuSans-75" d="M 544 1381 
L 544 3500 
L 1119 3500 
L 1119 1403 
Q 1119 906 1312 657 
Q 1506 409 1894 409 
Q 2359 409 2629 706 
Q 2900 1003 2900 1516 
L 2900 3500 
L 3475 3500 
L 3475 0 
L 2900 0 
L 2900 538 
Q 2691 219 2414 64 
Q 2138 -91 1772 -91 
Q 1169 -91 856 284 
Q 544 659 544 1381 
z
M 1991 3584 
L 1991 3584 
z
" transform="scale(0.015625)"/>
       <path id="DejaVuSans-6e" d="M 3513 2113 
L 3513 0 
L 2938 0 
L 2938 2094 
Q 2938 2591 2744 2837 
Q 2550 3084 2163 3084 
Q 1697 3084 1428 2787 
Q 1159 2491 1159 1978 
L 1159 0 
L 581 0 
L 581 3500 
L 1159 3500 
L 1159 2956 
Q 1366 3272 1645 3428 
Q 1925 3584 2291 3584 
Q 2894 3584 3203 3211 
Q 3513 2838 3513 2113 
z
" transform="scale(0.015625)"/>
       <path id="DejaVuSans-74" d="M 1172 4494 
L 1172 3500 
L 2356 3500 
L 2356 3053 
L 1172 3053 
L 1172 1153 
Q 1172 725 1289 603 
Q 1406 481 1766 481 
L 2356 481 
L 2356 0 
L 1766 0 
Q 1100 0 847 248 
Q 594 497 594 1153 
L 594 3053 
L 172 3053 
L 172 3500 
L 594 3500 
L 594 4494 
L 1172 4494 
z
" transform="scale(0.015625)"/>
      </defs>
      <use xlink:href="#DejaVuSans-43"/>
      <use xlink:href="#DejaVuSans-6f" x="69.824219"/>
      <use xlink:href="#DejaVuSans-75" x="131.005859"/>
      <use xlink:href="#DejaVuSans-6e" x="194.384766"/>
      <use xlink:href="#DejaVuSans-74" x="257.763672"/>
     </g>
    </g>
   </g>
   <g id="line2d_12">
    <path d="M 269.904954 382.84 
L 269.904954 28.51619 
" clip-path="url(#p607fe99890)" style="fill: none; stroke: #ff0000; stroke-width: 1.6; stroke-linecap: square"/>
   </g>
   <g id="patch_227">
    <path d="M 70.67 382.84 
L 70.67 10.8 
" style="fill: none; stroke: #000000; stroke-width: 0.8; stroke-linejoin: miter; stroke-linecap: square"/>
   </g>
   <g id="patch_228">
    <path d="M 550.656013 382.84 
L 550.656013 10.8 
" style="fill: none; stroke: #000000; stroke-width: 0.8; stroke-linejoin: miter; stroke-linecap: square"/>
   </g>
   <g id="patch_229">
    <path d="M 70.67 382.84 
L 550.656013 382.84 
" style="fill: none; stroke: #000000; stroke-width: 0.8; stroke-linejoin: miter; stroke-linecap: square"/>
   </g>
   <g id="patch_230">
    <path d="M 70.67 10.8 
L 550.656013 10.8 
" style="fill: none; stroke: #000000; stroke-width: 0.8; stroke-linejoin: miter; stroke-linecap: square"/>
   </g>
   <g id="text_14">
    <!-- $\mu_22 = -8.626$ -->
    <g transform="translate(406.660209 61.649937) scale(0.21 -0.21)">
     <defs>
      <path id="DejaVuSans-Oblique-3bc" d="M -84 -1331 
L 856 3500 
L 1434 3500 
L 1009 1322 
Q 997 1256 987 1175 
Q 978 1094 978 1013 
Q 978 722 1161 565 
Q 1344 409 1684 409 
Q 2147 409 2431 671 
Q 2716 934 2816 1459 
L 3213 3500 
L 3788 3500 
L 3266 809 
Q 3253 750 3248 706 
Q 3244 663 3244 628 
Q 3244 531 3283 486 
Q 3322 441 3406 441 
Q 3438 441 3492 456 
Q 3547 472 3647 513 
L 3559 50 
Q 3422 -19 3297 -55 
Q 3172 -91 3053 -91 
Q 2847 -91 2730 40 
Q 2613 172 2613 403 
Q 2438 153 2195 31 
Q 1953 -91 1625 -91 
Q 1334 -91 1117 43 
Q 900 178 831 397 
L 494 -1331 
L -84 -1331 
z
" transform="scale(0.015625)"/>
      <path id="DejaVuSans-3d" d="M 678 2906 
L 4684 2906 
L 4684 2381 
L 678 2381 
L 678 2906 
z
M 678 1631 
L 4684 1631 
L 4684 1100 
L 678 1100 
L 678 1631 
z
" transform="scale(0.015625)"/>
      <path id="DejaVuSans-2e" d="M 684 794 
L 1344 794 
L 1344 0 
L 684 0 
L 684 794 
z
" transform="scale(0.015625)"/>
     </defs>
     <use xlink:href="#DejaVuSans-Oblique-3bc" transform="translate(0 0.78125)"/>
     <use xlink:href="#DejaVuSans-32" transform="translate(63.623047 -15.625) scale(0.7)"/>
     <use xlink:href="#DejaVuSans-32" transform="translate(110.893555 0.78125)"/>
     <use xlink:href="#DejaVuSans-3d" transform="translate(193.999023 0.78125)"/>
     <use xlink:href="#DejaVuSans-2212" transform="translate(316.75293 0.78125)"/>
     <use xlink:href="#DejaVuSans-38" transform="translate(420.024414 0.78125)"/>
     <use xlink:href="#DejaVuSans-2e" transform="translate(483.647461 0.78125)"/>
     <use xlink:href="#DejaVuSans-36" transform="translate(515.43457 0.78125)"/>
     <use xlink:href="#DejaVuSans-32" transform="translate(579.057617 0.78125)"/>
     <use xlink:href="#DejaVuSans-36" transform="translate(642.680664 0.78125)"/>
    </g>
    <!-- $\sigma_22 = 0.993$ -->
    <g transform="translate(406.660209 85.208) scale(0.21 -0.21)">
     <defs>
      <path id="DejaVuSans-Oblique-3c3" d="M 2219 3044 
Q 1744 3044 1422 2700 
Q 1081 2341 969 1747 
Q 844 1119 1044 756 
Q 1241 397 1706 397 
Q 2166 397 2503 759 
Q 2844 1122 2966 1747 
Q 3075 2319 2881 2700 
Q 2700 3044 2219 3044 
z
M 2309 3503 
L 4219 3500 
L 4106 2925 
L 3463 2925 
Q 3706 2438 3575 1747 
Q 3406 888 2884 400 
Q 2359 -91 1609 -91 
Q 856 -91 525 400 
Q 194 888 363 1747 
Q 528 2609 1050 3097 
Q 1484 3503 2309 3503 
z
" transform="scale(0.015625)"/>
      <path id="DejaVuSans-39" d="M 703 97 
L 703 672 
Q 941 559 1184 500 
Q 1428 441 1663 441 
Q 2288 441 2617 861 
Q 2947 1281 2994 2138 
Q 2813 1869 2534 1725 
Q 2256 1581 1919 1581 
Q 1219 1581 811 2004 
Q 403 2428 403 3163 
Q 403 3881 828 4315 
Q 1253 4750 1959 4750 
Q 2769 4750 3195 4129 
Q 3622 3509 3622 2328 
Q 3622 1225 3098 567 
Q 2575 -91 1691 -91 
Q 1453 -91 1209 -44 
Q 966 3 703 97 
z
M 1959 2075 
Q 2384 2075 2632 2365 
Q 2881 2656 2881 3163 
Q 2881 3666 2632 3958 
Q 2384 4250 1959 4250 
Q 1534 4250 1286 3958 
Q 1038 3666 1038 3163 
Q 1038 2656 1286 2365 
Q 1534 2075 1959 2075 
z
" transform="scale(0.015625)"/>
      <path id="DejaVuSans-33" d="M 2597 2516 
Q 3050 2419 3304 2112 
Q 3559 1806 3559 1356 
Q 3559 666 3084 287 
Q 2609 -91 1734 -91 
Q 1441 -91 1130 -33 
Q 819 25 488 141 
L 488 750 
Q 750 597 1062 519 
Q 1375 441 1716 441 
Q 2309 441 2620 675 
Q 2931 909 2931 1356 
Q 2931 1769 2642 2001 
Q 2353 2234 1838 2234 
L 1294 2234 
L 1294 2753 
L 1863 2753 
Q 2328 2753 2575 2939 
Q 2822 3125 2822 3475 
Q 2822 3834 2567 4026 
Q 2313 4219 1838 4219 
Q 1578 4219 1281 4162 
Q 984 4106 628 3988 
L 628 4550 
Q 988 4650 1302 4700 
Q 1616 4750 1894 4750 
Q 2613 4750 3031 4423 
Q 3450 4097 3450 3541 
Q 3450 3153 3228 2886 
Q 3006 2619 2597 2516 
z
" transform="scale(0.015625)"/>
     </defs>
     <use xlink:href="#DejaVuSans-Oblique-3c3" transform="translate(0 0.78125)"/>
     <use xlink:href="#DejaVuSans-32" transform="translate(63.378906 -15.625) scale(0.7)"/>
     <use xlink:href="#DejaVuSans-32" transform="translate(110.649414 0.78125)"/>
     <use xlink:href="#DejaVuSans-3d" transform="translate(193.754883 0.78125)"/>
     <use xlink:href="#DejaVuSans-30" transform="translate(297.026367 0.78125)"/>
     <use xlink:href="#DejaVuSans-2e" transform="translate(360.649414 0.78125)"/>
     <use xlink:href="#DejaVuSans-39" transform="translate(392.436523 0.78125)"/>
     <use xlink:href="#DejaVuSans-39" transform="translate(456.05957 0.78125)"/>
     <use xlink:href="#DejaVuSans-33" transform="translate(519.682617 0.78125)"/>
    </g>
   </g>
  </g>
 </g>
 <defs>
  <clipPath id="p607fe99890">
   <rect x="70.67" y="10.8" width="479.986013" height="372.04"/>
  </clipPath>
 </defs>
</svg>
