<?xml version="1.0" encoding="utf-8" standalone="no"?>
<!DOCTYPE svg PUBLIC "-//W3C//DTD SVG 1.1//EN"
  "http://www.w3.org/Graphics/SVG/1.1/DTD/svg11.dtd">
<svg xmlns:xlink="http://www.w3.org/1999/xlink" width="576pt" height="432pt" viewBox="0 0 576 432" xmlns="http://www.w3.org/2000/svg" version="1.1">
 <metadata>
  <rdf:RDF xmlns:dc="http://purl.org/dc/elements/1.1/" xmlns:cc="http://creativecommons.org/ns#" xmlns:rdf="http://www.w3.org/1999/02/22-rdf-syntax-ns#">
   <cc:Work>
    <dc:type rdf:resource="http://purl.org/dc/dcmitype/StillImage"/>
    <dc:date>2024-09-05T19:41:28.538285</dc:date>
    <dc:format>image/svg+xml</dc:format>
    <dc:creator>
     <cc:Agent>
      <dc:title>Matplotlib v3.7.2, https://matplotlib.org/</dc:title>
     </cc:Agent>
    </dc:creator>
   </cc:Work>
  </rdf:RDF>
 </metadata>
 <defs>
  <style type="text/css">*{stroke-linejoin: round; stroke-linecap: butt}</style>
 </defs>
 <g id="figure_1">
  <g id="patch_1">
   <path d="M 0 432 
L 576 432 
L 576 0 
L 0 0 
z
" style="fill: #ffffff"/>
  </g>
  <g id="axes_1">
   <g id="patch_2">
    <path d="M 70.67 382.84 
L 551.106013 382.84 
L 551.106013 10.8 
L 70.67 10.8 
z
" style="fill: #ffffff"/>
   </g>
   <g id="patch_3">
    <path d="M 92.508001 382.84 
L 94.659528 382.84 
L 94.659528 382.731754 
L 92.508001 382.731754 
z
" clip-path="url(#pa0a7604d84)" style="fill: #1f77b4"/>
   </g>
   <g id="patch_4">
    <path d="M 94.659528 382.84 
L 96.811055 382.84 
L 96.811055 382.84 
L 94.659528 382.84 
z
" clip-path="url(#pa0a7604d84)" style="fill: #1f77b4"/>
   </g>
   <g id="patch_5">
    <path d="M 96.811055 382.84 
L 98.962582 382.84 
L 98.962582 382.659591 
L 96.811055 382.659591 
z
" clip-path="url(#pa0a7604d84)" style="fill: #1f77b4"/>
   </g>
   <g id="patch_6">
    <path d="M 98.962582 382.84 
L 101.114109 382.84 
L 101.114109 382.84 
L 98.962582 382.84 
z
" clip-path="url(#pa0a7604d84)" style="fill: #1f77b4"/>
   </g>
   <g id="patch_7">
    <path d="M 101.114109 382.84 
L 103.265636 382.84 
L 103.265636 382.623509 
L 101.114109 382.623509 
z
" clip-path="url(#pa0a7604d84)" style="fill: #1f77b4"/>
   </g>
   <g id="patch_8">
    <path d="M 103.265636 382.84 
L 105.417164 382.84 
L 105.417164 382.84 
L 103.265636 382.84 
z
" clip-path="url(#pa0a7604d84)" style="fill: #1f77b4"/>
   </g>
   <g id="patch_9">
    <path d="M 105.417164 382.84 
L 107.568691 382.84 
L 107.568691 382.695673 
L 105.417164 382.695673 
z
" clip-path="url(#pa0a7604d84)" style="fill: #1f77b4"/>
   </g>
   <g id="patch_10">
    <path d="M 107.568691 382.84 
L 109.720218 382.84 
L 109.720218 382.84 
L 107.568691 382.84 
z
" clip-path="url(#pa0a7604d84)" style="fill: #1f77b4"/>
   </g>
   <g id="patch_11">
    <path d="M 109.720218 382.84 
L 111.871745 382.84 
L 111.871745 382.84 
L 109.720218 382.84 
z
" clip-path="url(#pa0a7604d84)" style="fill: #1f77b4"/>
   </g>
   <g id="patch_12">
    <path d="M 111.871745 382.84 
L 114.023272 382.84 
L 114.023272 382.587427 
L 111.871745 382.587427 
z
" clip-path="url(#pa0a7604d84)" style="fill: #1f77b4"/>
   </g>
   <g id="patch_13">
    <path d="M 114.023272 382.84 
L 116.174799 382.84 
L 116.174799 382.84 
L 114.023272 382.84 
z
" clip-path="url(#pa0a7604d84)" style="fill: #1f77b4"/>
   </g>
   <g id="patch_14">
    <path d="M 116.174799 382.84 
L 118.326326 382.84 
L 118.326326 382.334854 
L 116.174799 382.334854 
z
" clip-path="url(#pa0a7604d84)" style="fill: #1f77b4"/>
   </g>
   <g id="patch_15">
    <path d="M 118.326326 382.84 
L 120.477854 382.84 
L 120.477854 382.84 
L 118.326326 382.84 
z
" clip-path="url(#pa0a7604d84)" style="fill: #1f77b4"/>
   </g>
   <g id="patch_16">
    <path d="M 120.477854 382.84 
L 122.629381 382.84 
L 122.629381 382.082281 
L 120.477854 382.082281 
z
" clip-path="url(#pa0a7604d84)" style="fill: #1f77b4"/>
   </g>
   <g id="patch_17">
    <path d="M 122.629381 382.84 
L 124.780908 382.84 
L 124.780908 382.84 
L 122.629381 382.84 
z
" clip-path="url(#pa0a7604d84)" style="fill: #1f77b4"/>
   </g>
   <g id="patch_18">
    <path d="M 124.780908 382.84 
L 126.932435 382.84 
L 126.932435 381.974035 
L 124.780908 381.974035 
z
" clip-path="url(#pa0a7604d84)" style="fill: #1f77b4"/>
   </g>
   <g id="patch_19">
    <path d="M 126.932435 382.84 
L 129.083962 382.84 
L 129.083962 382.84 
L 126.932435 382.84 
z
" clip-path="url(#pa0a7604d84)" style="fill: #1f77b4"/>
   </g>
   <g id="patch_20">
    <path d="M 129.083962 382.84 
L 131.235489 382.84 
L 131.235489 382.84 
L 129.083962 382.84 
z
" clip-path="url(#pa0a7604d84)" style="fill: #1f77b4"/>
   </g>
   <g id="patch_21">
    <path d="M 131.235489 382.84 
L 133.387016 382.84 
L 133.387016 381.577135 
L 131.235489 381.577135 
z
" clip-path="url(#pa0a7604d84)" style="fill: #1f77b4"/>
   </g>
   <g id="patch_22">
    <path d="M 133.387016 382.84 
L 135.538544 382.84 
L 135.538544 382.84 
L 133.387016 382.84 
z
" clip-path="url(#pa0a7604d84)" style="fill: #1f77b4"/>
   </g>
   <g id="patch_23">
    <path d="M 135.538544 382.84 
L 137.690071 382.84 
L 137.690071 381.28848 
L 135.538544 381.28848 
z
" clip-path="url(#pa0a7604d84)" style="fill: #1f77b4"/>
   </g>
   <g id="patch_24">
    <path d="M 137.690071 382.84 
L 139.841598 382.84 
L 139.841598 382.84 
L 137.690071 382.84 
z
" clip-path="url(#pa0a7604d84)" style="fill: #1f77b4"/>
   </g>
   <g id="patch_25">
    <path d="M 139.841598 382.84 
L 141.993125 382.84 
L 141.993125 381.144153 
L 139.841598 381.144153 
z
" clip-path="url(#pa0a7604d84)" style="fill: #1f77b4"/>
   </g>
   <g id="patch_26">
    <path d="M 141.993125 382.84 
L 144.144652 382.84 
L 144.144652 382.84 
L 141.993125 382.84 
z
" clip-path="url(#pa0a7604d84)" style="fill: #1f77b4"/>
   </g>
   <g id="patch_27">
    <path d="M 144.144652 382.84 
L 146.296179 382.84 
L 146.296179 382.84 
L 144.144652 382.84 
z
" clip-path="url(#pa0a7604d84)" style="fill: #1f77b4"/>
   </g>
   <g id="patch_28">
    <path d="M 146.296179 382.84 
L 148.447707 382.84 
L 148.447707 380.458598 
L 146.296179 380.458598 
z
" clip-path="url(#pa0a7604d84)" style="fill: #1f77b4"/>
   </g>
   <g id="patch_29">
    <path d="M 148.447707 382.84 
L 150.599234 382.84 
L 150.599234 382.84 
L 148.447707 382.84 
z
" clip-path="url(#pa0a7604d84)" style="fill: #1f77b4"/>
   </g>
   <g id="patch_30">
    <path d="M 150.599234 382.84 
L 152.750761 382.84 
L 152.750761 380.133861 
L 150.599234 380.133861 
z
" clip-path="url(#pa0a7604d84)" style="fill: #1f77b4"/>
   </g>
   <g id="patch_31">
    <path d="M 152.750761 382.84 
L 154.902288 382.84 
L 154.902288 382.84 
L 152.750761 382.84 
z
" clip-path="url(#pa0a7604d84)" style="fill: #1f77b4"/>
   </g>
   <g id="patch_32">
    <path d="M 154.902288 382.84 
L 157.053815 382.84 
L 157.053815 379.267896 
L 154.902288 379.267896 
z
" clip-path="url(#pa0a7604d84)" style="fill: #1f77b4"/>
   </g>
   <g id="patch_33">
    <path d="M 157.053815 382.84 
L 159.205342 382.84 
L 159.205342 382.84 
L 157.053815 382.84 
z
" clip-path="url(#pa0a7604d84)" style="fill: #1f77b4"/>
   </g>
   <g id="patch_34">
    <path d="M 159.205342 382.84 
L 161.356869 382.84 
L 161.356869 378.329768 
L 159.205342 378.329768 
z
" clip-path="url(#pa0a7604d84)" style="fill: #1f77b4"/>
   </g>
   <g id="patch_35">
    <path d="M 161.356869 382.84 
L 163.508397 382.84 
L 163.508397 382.84 
L 161.356869 382.84 
z
" clip-path="url(#pa0a7604d84)" style="fill: #1f77b4"/>
   </g>
   <g id="patch_36">
    <path d="M 163.508397 382.84 
L 165.659924 382.84 
L 165.659924 382.84 
L 163.508397 382.84 
z
" clip-path="url(#pa0a7604d84)" style="fill: #1f77b4"/>
   </g>
   <g id="patch_37">
    <path d="M 165.659924 382.84 
L 167.811451 382.84 
L 167.811451 377.499886 
L 165.659924 377.499886 
z
" clip-path="url(#pa0a7604d84)" style="fill: #1f77b4"/>
   </g>
   <g id="patch_38">
    <path d="M 167.811451 382.84 
L 169.962978 382.84 
L 169.962978 382.84 
L 167.811451 382.84 
z
" clip-path="url(#pa0a7604d84)" style="fill: #1f77b4"/>
   </g>
   <g id="patch_39">
    <path d="M 169.962978 382.84 
L 172.114505 382.84 
L 172.114505 375.623629 
L 169.962978 375.623629 
z
" clip-path="url(#pa0a7604d84)" style="fill: #1f77b4"/>
   </g>
   <g id="patch_40">
    <path d="M 172.114505 382.84 
L 174.266032 382.84 
L 174.266032 382.84 
L 172.114505 382.84 
z
" clip-path="url(#pa0a7604d84)" style="fill: #1f77b4"/>
   </g>
   <g id="patch_41">
    <path d="M 174.266032 382.84 
L 176.41756 382.84 
L 176.41756 375.190647 
L 174.266032 375.190647 
z
" clip-path="url(#pa0a7604d84)" style="fill: #1f77b4"/>
   </g>
   <g id="patch_42">
    <path d="M 176.41756 382.84 
L 178.569087 382.84 
L 178.569087 382.84 
L 176.41756 382.84 
z
" clip-path="url(#pa0a7604d84)" style="fill: #1f77b4"/>
   </g>
   <g id="patch_43">
    <path d="M 178.569087 382.84 
L 180.720614 382.84 
L 180.720614 382.84 
L 178.569087 382.84 
z
" clip-path="url(#pa0a7604d84)" style="fill: #1f77b4"/>
   </g>
   <g id="patch_44">
    <path d="M 180.720614 382.84 
L 182.872141 382.84 
L 182.872141 372.592753 
L 180.720614 372.592753 
z
" clip-path="url(#pa0a7604d84)" style="fill: #1f77b4"/>
   </g>
   <g id="patch_45">
    <path d="M 182.872141 382.84 
L 185.023668 382.84 
L 185.023668 382.84 
L 182.872141 382.84 
z
" clip-path="url(#pa0a7604d84)" style="fill: #1f77b4"/>
   </g>
   <g id="patch_46">
    <path d="M 185.023668 382.84 
L 187.175195 382.84 
L 187.175195 369.273223 
L 185.023668 369.273223 
z
" clip-path="url(#pa0a7604d84)" style="fill: #1f77b4"/>
   </g>
   <g id="patch_47">
    <path d="M 187.175195 382.84 
L 189.326722 382.84 
L 189.326722 382.84 
L 187.175195 382.84 
z
" clip-path="url(#pa0a7604d84)" style="fill: #1f77b4"/>
   </g>
   <g id="patch_48">
    <path d="M 189.326722 382.84 
L 191.47825 382.84 
L 191.47825 365.195973 
L 189.326722 365.195973 
z
" clip-path="url(#pa0a7604d84)" style="fill: #1f77b4"/>
   </g>
   <g id="patch_49">
    <path d="M 191.47825 382.84 
L 193.629777 382.84 
L 193.629777 382.84 
L 191.47825 382.84 
z
" clip-path="url(#pa0a7604d84)" style="fill: #1f77b4"/>
   </g>
   <g id="patch_50">
    <path d="M 193.629777 382.84 
L 195.781304 382.84 
L 195.781304 362.056852 
L 193.629777 362.056852 
z
" clip-path="url(#pa0a7604d84)" style="fill: #1f77b4"/>
   </g>
   <g id="patch_51">
    <path d="M 195.781304 382.84 
L 197.932831 382.84 
L 197.932831 382.84 
L 195.781304 382.84 
z
" clip-path="url(#pa0a7604d84)" style="fill: #1f77b4"/>
   </g>
   <g id="patch_52">
    <path d="M 197.932831 382.84 
L 200.084358 382.84 
L 200.084358 382.84 
L 197.932831 382.84 
z
" clip-path="url(#pa0a7604d84)" style="fill: #1f77b4"/>
   </g>
   <g id="patch_53">
    <path d="M 200.084358 382.84 
L 202.235885 382.84 
L 202.235885 355.309545 
L 200.084358 355.309545 
z
" clip-path="url(#pa0a7604d84)" style="fill: #1f77b4"/>
   </g>
   <g id="patch_54">
    <path d="M 202.235885 382.84 
L 204.387413 382.84 
L 204.387413 382.84 
L 202.235885 382.84 
z
" clip-path="url(#pa0a7604d84)" style="fill: #1f77b4"/>
   </g>
   <g id="patch_55">
    <path d="M 204.387413 382.84 
L 206.53894 382.84 
L 206.53894 349.103466 
L 204.387413 349.103466 
z
" clip-path="url(#pa0a7604d84)" style="fill: #1f77b4"/>
   </g>
   <g id="patch_56">
    <path d="M 206.53894 382.84 
L 208.690467 382.84 
L 208.690467 382.84 
L 206.53894 382.84 
z
" clip-path="url(#pa0a7604d84)" style="fill: #1f77b4"/>
   </g>
   <g id="patch_57">
    <path d="M 208.690467 382.84 
L 210.841994 382.84 
L 210.841994 341.237622 
L 208.690467 341.237622 
z
" clip-path="url(#pa0a7604d84)" style="fill: #1f77b4"/>
   </g>
   <g id="patch_58">
    <path d="M 210.841994 382.84 
L 212.993521 382.84 
L 212.993521 382.84 
L 210.841994 382.84 
z
" clip-path="url(#pa0a7604d84)" style="fill: #1f77b4"/>
   </g>
   <g id="patch_59">
    <path d="M 212.993521 382.84 
L 215.145048 382.84 
L 215.145048 382.84 
L 212.993521 382.84 
z
" clip-path="url(#pa0a7604d84)" style="fill: #1f77b4"/>
   </g>
   <g id="patch_60">
    <path d="M 215.145048 382.84 
L 217.296575 382.84 
L 217.296575 334.20166 
L 215.145048 334.20166 
z
" clip-path="url(#pa0a7604d84)" style="fill: #1f77b4"/>
   </g>
   <g id="patch_61">
    <path d="M 217.296575 382.84 
L 219.448103 382.84 
L 219.448103 382.84 
L 217.296575 382.84 
z
" clip-path="url(#pa0a7604d84)" style="fill: #1f77b4"/>
   </g>
   <g id="patch_62">
    <path d="M 219.448103 382.84 
L 221.59963 382.84 
L 221.59963 325.758506 
L 219.448103 325.758506 
z
" clip-path="url(#pa0a7604d84)" style="fill: #1f77b4"/>
   </g>
   <g id="patch_63">
    <path d="M 221.59963 382.84 
L 223.751157 382.84 
L 223.751157 382.84 
L 221.59963 382.84 
z
" clip-path="url(#pa0a7604d84)" style="fill: #1f77b4"/>
   </g>
   <g id="patch_64">
    <path d="M 223.751157 382.84 
L 225.902684 382.84 
L 225.902684 311.073192 
L 223.751157 311.073192 
z
" clip-path="url(#pa0a7604d84)" style="fill: #1f77b4"/>
   </g>
   <g id="patch_65">
    <path d="M 225.902684 382.84 
L 228.054211 382.84 
L 228.054211 382.84 
L 225.902684 382.84 
z
" clip-path="url(#pa0a7604d84)" style="fill: #1f77b4"/>
   </g>
   <g id="patch_66">
    <path d="M 228.054211 382.84 
L 230.205738 382.84 
L 230.205738 296.460041 
L 228.054211 296.460041 
z
" clip-path="url(#pa0a7604d84)" style="fill: #1f77b4"/>
   </g>
   <g id="patch_67">
    <path d="M 230.205738 382.84 
L 232.357266 382.84 
L 232.357266 382.84 
L 230.205738 382.84 
z
" clip-path="url(#pa0a7604d84)" style="fill: #1f77b4"/>
   </g>
   <g id="patch_68">
    <path d="M 232.357266 382.84 
L 234.508793 382.84 
L 234.508793 382.84 
L 232.357266 382.84 
z
" clip-path="url(#pa0a7604d84)" style="fill: #1f77b4"/>
   </g>
   <g id="patch_69">
    <path d="M 234.508793 382.84 
L 236.66032 382.84 
L 236.66032 286.970513 
L 234.508793 286.970513 
z
" clip-path="url(#pa0a7604d84)" style="fill: #1f77b4"/>
   </g>
   <g id="patch_70">
    <path d="M 236.66032 382.84 
L 238.811847 382.84 
L 238.811847 382.84 
L 236.66032 382.84 
z
" clip-path="url(#pa0a7604d84)" style="fill: #1f77b4"/>
   </g>
   <g id="patch_71">
    <path d="M 238.811847 382.84 
L 240.963374 382.84 
L 240.963374 268.640931 
L 238.811847 268.640931 
z
" clip-path="url(#pa0a7604d84)" style="fill: #1f77b4"/>
   </g>
   <g id="patch_72">
    <path d="M 240.963374 382.84 
L 243.114901 382.84 
L 243.114901 382.84 
L 240.963374 382.84 
z
" clip-path="url(#pa0a7604d84)" style="fill: #1f77b4"/>
   </g>
   <g id="patch_73">
    <path d="M 243.114901 382.84 
L 245.266428 382.84 
L 245.266428 250.780413 
L 243.114901 250.780413 
z
" clip-path="url(#pa0a7604d84)" style="fill: #1f77b4"/>
   </g>
   <g id="patch_74">
    <path d="M 245.266428 382.84 
L 247.417956 382.84 
L 247.417956 382.84 
L 245.266428 382.84 
z
" clip-path="url(#pa0a7604d84)" style="fill: #1f77b4"/>
   </g>
   <g id="patch_75">
    <path d="M 247.417956 382.84 
L 249.569483 382.84 
L 249.569483 235.084807 
L 247.417956 235.084807 
z
" clip-path="url(#pa0a7604d84)" style="fill: #1f77b4"/>
   </g>
   <g id="patch_76">
    <path d="M 249.569483 382.84 
L 251.72101 382.84 
L 251.72101 382.84 
L 249.569483 382.84 
z
" clip-path="url(#pa0a7604d84)" style="fill: #1f77b4"/>
   </g>
   <g id="patch_77">
    <path d="M 251.72101 382.84 
L 253.872537 382.84 
L 253.872537 382.84 
L 251.72101 382.84 
z
" clip-path="url(#pa0a7604d84)" style="fill: #1f77b4"/>
   </g>
   <g id="patch_78">
    <path d="M 253.872537 382.84 
L 256.024064 382.84 
L 256.024064 216.574815 
L 253.872537 216.574815 
z
" clip-path="url(#pa0a7604d84)" style="fill: #1f77b4"/>
   </g>
   <g id="patch_79">
    <path d="M 256.024064 382.84 
L 258.175591 382.84 
L 258.175591 382.84 
L 256.024064 382.84 
z
" clip-path="url(#pa0a7604d84)" style="fill: #1f77b4"/>
   </g>
   <g id="patch_80">
    <path d="M 258.175591 382.84 
L 260.327119 382.84 
L 260.327119 191.425763 
L 258.175591 191.425763 
z
" clip-path="url(#pa0a7604d84)" style="fill: #1f77b4"/>
   </g>
   <g id="patch_81">
    <path d="M 260.327119 382.84 
L 262.478646 382.84 
L 262.478646 382.84 
L 260.327119 382.84 
z
" clip-path="url(#pa0a7604d84)" style="fill: #1f77b4"/>
   </g>
   <g id="patch_82">
    <path d="M 262.478646 382.84 
L 264.630173 382.84 
L 264.630173 178.761032 
L 262.478646 178.761032 
z
" clip-path="url(#pa0a7604d84)" style="fill: #1f77b4"/>
   </g>
   <g id="patch_83">
    <path d="M 264.630173 382.84 
L 266.7817 382.84 
L 266.7817 382.84 
L 264.630173 382.84 
z
" clip-path="url(#pa0a7604d84)" style="fill: #1f77b4"/>
   </g>
   <g id="patch_84">
    <path d="M 266.7817 382.84 
L 268.933227 382.84 
L 268.933227 382.84 
L 266.7817 382.84 
z
" clip-path="url(#pa0a7604d84)" style="fill: #1f77b4"/>
   </g>
   <g id="patch_85">
    <path d="M 268.933227 382.84 
L 271.084754 382.84 
L 271.084754 156.209873 
L 268.933227 156.209873 
z
" clip-path="url(#pa0a7604d84)" style="fill: #1f77b4"/>
   </g>
   <g id="patch_86">
    <path d="M 271.084754 382.84 
L 273.236281 382.84 
L 273.236281 382.84 
L 271.084754 382.84 
z
" clip-path="url(#pa0a7604d84)" style="fill: #1f77b4"/>
   </g>
   <g id="patch_87">
    <path d="M 273.236281 382.84 
L 275.387809 382.84 
L 275.387809 134.596842 
L 273.236281 134.596842 
z
" clip-path="url(#pa0a7604d84)" style="fill: #1f77b4"/>
   </g>
   <g id="patch_88">
    <path d="M 275.387809 382.84 
L 277.539336 382.84 
L 277.539336 382.84 
L 275.387809 382.84 
z
" clip-path="url(#pa0a7604d84)" style="fill: #1f77b4"/>
   </g>
   <g id="patch_89">
    <path d="M 277.539336 382.84 
L 279.690863 382.84 
L 279.690863 115.256968 
L 277.539336 115.256968 
z
" clip-path="url(#pa0a7604d84)" style="fill: #1f77b4"/>
   </g>
   <g id="patch_90">
    <path d="M 279.690863 382.84 
L 281.84239 382.84 
L 281.84239 382.84 
L 279.690863 382.84 
z
" clip-path="url(#pa0a7604d84)" style="fill: #1f77b4"/>
   </g>
   <g id="patch_91">
    <path d="M 281.84239 382.84 
L 283.993917 382.84 
L 283.993917 100.571654 
L 281.84239 100.571654 
z
" clip-path="url(#pa0a7604d84)" style="fill: #1f77b4"/>
   </g>
   <g id="patch_92">
    <path d="M 283.993917 382.84 
L 286.145444 382.84 
L 286.145444 382.84 
L 283.993917 382.84 
z
" clip-path="url(#pa0a7604d84)" style="fill: #1f77b4"/>
   </g>
   <g id="patch_93">
    <path d="M 286.145444 382.84 
L 288.296971 382.84 
L 288.296971 382.84 
L 286.145444 382.84 
z
" clip-path="url(#pa0a7604d84)" style="fill: #1f77b4"/>
   </g>
   <g id="patch_94">
    <path d="M 288.296971 382.84 
L 290.448499 382.84 
L 290.448499 74.917455 
L 288.296971 74.917455 
z
" clip-path="url(#pa0a7604d84)" style="fill: #1f77b4"/>
   </g>
   <g id="patch_95">
    <path d="M 290.448499 382.84 
L 292.600026 382.84 
L 292.600026 382.84 
L 290.448499 382.84 
z
" clip-path="url(#pa0a7604d84)" style="fill: #1f77b4"/>
   </g>
   <g id="patch_96">
    <path d="M 292.600026 382.84 
L 294.751553 382.84 
L 294.751553 71.092779 
L 292.600026 71.092779 
z
" clip-path="url(#pa0a7604d84)" style="fill: #1f77b4"/>
   </g>
   <g id="patch_97">
    <path d="M 294.751553 382.84 
L 296.90308 382.84 
L 296.90308 382.84 
L 294.751553 382.84 
z
" clip-path="url(#pa0a7604d84)" style="fill: #1f77b4"/>
   </g>
   <g id="patch_98">
    <path d="M 296.90308 382.84 
L 299.054607 382.84 
L 299.054607 49.732321 
L 296.90308 49.732321 
z
" clip-path="url(#pa0a7604d84)" style="fill: #1f77b4"/>
   </g>
   <g id="patch_99">
    <path d="M 299.054607 382.84 
L 301.206134 382.84 
L 301.206134 382.84 
L 299.054607 382.84 
z
" clip-path="url(#pa0a7604d84)" style="fill: #1f77b4"/>
   </g>
   <g id="patch_100">
    <path d="M 301.206134 382.84 
L 303.357662 382.84 
L 303.357662 382.84 
L 301.206134 382.84 
z
" clip-path="url(#pa0a7604d84)" style="fill: #1f77b4"/>
   </g>
   <g id="patch_101">
    <path d="M 303.357662 382.84 
L 305.509189 382.84 
L 305.509189 49.660157 
L 303.357662 49.660157 
z
" clip-path="url(#pa0a7604d84)" style="fill: #1f77b4"/>
   </g>
   <g id="patch_102">
    <path d="M 305.509189 382.84 
L 307.660716 382.84 
L 307.660716 382.84 
L 305.509189 382.84 
z
" clip-path="url(#pa0a7604d84)" style="fill: #1f77b4"/>
   </g>
   <g id="patch_103">
    <path d="M 307.660716 382.84 
L 309.812243 382.84 
L 309.812243 36.237707 
L 307.660716 36.237707 
z
" clip-path="url(#pa0a7604d84)" style="fill: #1f77b4"/>
   </g>
   <g id="patch_104">
    <path d="M 309.812243 382.84 
L 311.96377 382.84 
L 311.96377 382.84 
L 309.812243 382.84 
z
" clip-path="url(#pa0a7604d84)" style="fill: #1f77b4"/>
   </g>
   <g id="patch_105">
    <path d="M 311.96377 382.84 
L 314.115297 382.84 
L 314.115297 31.510984 
L 311.96377 31.510984 
z
" clip-path="url(#pa0a7604d84)" style="fill: #1f77b4"/>
   </g>
   <g id="patch_106">
    <path d="M 314.115297 382.84 
L 316.266824 382.84 
L 316.266824 382.84 
L 314.115297 382.84 
z
" clip-path="url(#pa0a7604d84)" style="fill: #1f77b4"/>
   </g>
   <g id="patch_107">
    <path d="M 316.266824 382.84 
L 318.418352 382.84 
L 318.418352 28.6966 
L 316.266824 28.6966 
z
" clip-path="url(#pa0a7604d84)" style="fill: #1f77b4"/>
   </g>
   <g id="patch_108">
    <path d="M 318.418352 382.84 
L 320.569879 382.84 
L 320.569879 382.84 
L 318.418352 382.84 
z
" clip-path="url(#pa0a7604d84)" style="fill: #1f77b4"/>
   </g>
   <g id="patch_109">
    <path d="M 320.569879 382.84 
L 322.721406 382.84 
L 322.721406 382.84 
L 320.569879 382.84 
z
" clip-path="url(#pa0a7604d84)" style="fill: #1f77b4"/>
   </g>
   <g id="patch_110">
    <path d="M 322.721406 382.84 
L 324.872933 382.84 
L 324.872933 28.51619 
L 322.721406 28.51619 
z
" clip-path="url(#pa0a7604d84)" style="fill: #1f77b4"/>
   </g>
   <g id="patch_111">
    <path d="M 324.872933 382.84 
L 327.02446 382.84 
L 327.02446 382.84 
L 324.872933 382.84 
z
" clip-path="url(#pa0a7604d84)" style="fill: #1f77b4"/>
   </g>
   <g id="patch_112">
    <path d="M 327.02446 382.84 
L 329.175987 382.84 
L 329.175987 36.345953 
L 327.02446 36.345953 
z
" clip-path="url(#pa0a7604d84)" style="fill: #1f77b4"/>
   </g>
   <g id="patch_113">
    <path d="M 329.175987 382.84 
L 331.327515 382.84 
L 331.327515 382.84 
L 329.175987 382.84 
z
" clip-path="url(#pa0a7604d84)" style="fill: #1f77b4"/>
   </g>
   <g id="patch_114">
    <path d="M 331.327515 382.84 
L 333.479042 382.84 
L 333.479042 45.077762 
L 331.327515 45.077762 
z
" clip-path="url(#pa0a7604d84)" style="fill: #1f77b4"/>
   </g>
   <g id="patch_115">
    <path d="M 333.479042 382.84 
L 335.630569 382.84 
L 335.630569 382.84 
L 333.479042 382.84 
z
" clip-path="url(#pa0a7604d84)" style="fill: #1f77b4"/>
   </g>
   <g id="patch_116">
    <path d="M 335.630569 382.84 
L 337.782096 382.84 
L 337.782096 382.84 
L 335.630569 382.84 
z
" clip-path="url(#pa0a7604d84)" style="fill: #1f77b4"/>
   </g>
   <g id="patch_117">
    <path d="M 337.782096 382.84 
L 339.933623 382.84 
L 339.933623 54.928108 
L 337.782096 54.928108 
z
" clip-path="url(#pa0a7604d84)" style="fill: #1f77b4"/>
   </g>
   <g id="patch_118">
    <path d="M 339.933623 382.84 
L 342.08515 382.84 
L 342.08515 382.84 
L 339.933623 382.84 
z
" clip-path="url(#pa0a7604d84)" style="fill: #1f77b4"/>
   </g>
   <g id="patch_119">
    <path d="M 342.08515 382.84 
L 344.236677 382.84 
L 344.236677 71.814416 
L 342.08515 71.814416 
z
" clip-path="url(#pa0a7604d84)" style="fill: #1f77b4"/>
   </g>
   <g id="patch_120">
    <path d="M 344.236677 382.84 
L 346.388205 382.84 
L 346.388205 382.84 
L 344.236677 382.84 
z
" clip-path="url(#pa0a7604d84)" style="fill: #1f77b4"/>
   </g>
   <g id="patch_121">
    <path d="M 346.388205 382.84 
L 348.539732 382.84 
L 348.539732 87.979086 
L 346.388205 87.979086 
z
" clip-path="url(#pa0a7604d84)" style="fill: #1f77b4"/>
   </g>
   <g id="patch_122">
    <path d="M 348.539732 382.84 
L 350.691259 382.84 
L 350.691259 382.84 
L 348.539732 382.84 
z
" clip-path="url(#pa0a7604d84)" style="fill: #1f77b4"/>
   </g>
   <g id="patch_123">
    <path d="M 350.691259 382.84 
L 352.842786 382.84 
L 352.842786 99.380952 
L 350.691259 99.380952 
z
" clip-path="url(#pa0a7604d84)" style="fill: #1f77b4"/>
   </g>
   <g id="patch_124">
    <path d="M 352.842786 382.84 
L 354.994313 382.84 
L 354.994313 382.84 
L 352.842786 382.84 
z
" clip-path="url(#pa0a7604d84)" style="fill: #1f77b4"/>
   </g>
   <g id="patch_125">
    <path d="M 354.994313 382.84 
L 357.14584 382.84 
L 357.14584 382.84 
L 354.994313 382.84 
z
" clip-path="url(#pa0a7604d84)" style="fill: #1f77b4"/>
   </g>
   <g id="patch_126">
    <path d="M 357.14584 382.84 
L 359.297368 382.84 
L 359.297368 115.978605 
L 357.14584 115.978605 
z
" clip-path="url(#pa0a7604d84)" style="fill: #1f77b4"/>
   </g>
   <g id="patch_127">
    <path d="M 359.297368 382.84 
L 361.448895 382.84 
L 361.448895 382.84 
L 359.297368 382.84 
z
" clip-path="url(#pa0a7604d84)" style="fill: #1f77b4"/>
   </g>
   <g id="patch_128">
    <path d="M 361.448895 382.84 
L 363.600422 382.84 
L 363.600422 134.416433 
L 361.448895 134.416433 
z
" clip-path="url(#pa0a7604d84)" style="fill: #1f77b4"/>
   </g>
   <g id="patch_129">
    <path d="M 363.600422 382.84 
L 365.751949 382.84 
L 365.751949 382.84 
L 363.600422 382.84 
z
" clip-path="url(#pa0a7604d84)" style="fill: #1f77b4"/>
   </g>
   <g id="patch_130">
    <path d="M 365.751949 382.84 
L 367.903476 382.84 
L 367.903476 156.101627 
L 365.751949 156.101627 
z
" clip-path="url(#pa0a7604d84)" style="fill: #1f77b4"/>
   </g>
   <g id="patch_131">
    <path d="M 367.903476 382.84 
L 370.055003 382.84 
L 370.055003 382.84 
L 367.903476 382.84 
z
" clip-path="url(#pa0a7604d84)" style="fill: #1f77b4"/>
   </g>
   <g id="patch_132">
    <path d="M 370.055003 382.84 
L 372.20653 382.84 
L 372.20653 382.84 
L 370.055003 382.84 
z
" clip-path="url(#pa0a7604d84)" style="fill: #1f77b4"/>
   </g>
   <g id="patch_133">
    <path d="M 372.20653 382.84 
L 374.358058 382.84 
L 374.358058 177.895067 
L 372.20653 177.895067 
z
" clip-path="url(#pa0a7604d84)" style="fill: #1f77b4"/>
   </g>
   <g id="patch_134">
    <path d="M 374.358058 382.84 
L 376.509585 382.84 
L 376.509585 382.84 
L 374.358058 382.84 
z
" clip-path="url(#pa0a7604d84)" style="fill: #1f77b4"/>
   </g>
   <g id="patch_135">
    <path d="M 376.509585 382.84 
L 378.661112 382.84 
L 378.661112 196.188568 
L 376.509585 196.188568 
z
" clip-path="url(#pa0a7604d84)" style="fill: #1f77b4"/>
   </g>
   <g id="patch_136">
    <path d="M 378.661112 382.84 
L 380.812639 382.84 
L 380.812639 382.84 
L 378.661112 382.84 
z
" clip-path="url(#pa0a7604d84)" style="fill: #1f77b4"/>
   </g>
   <g id="patch_137">
    <path d="M 380.812639 382.84 
L 382.964166 382.84 
L 382.964166 219.208791 
L 380.812639 219.208791 
z
" clip-path="url(#pa0a7604d84)" style="fill: #1f77b4"/>
   </g>
   <g id="patch_138">
    <path d="M 382.964166 382.84 
L 385.115693 382.84 
L 385.115693 382.84 
L 382.964166 382.84 
z
" clip-path="url(#pa0a7604d84)" style="fill: #1f77b4"/>
   </g>
   <g id="patch_139">
    <path d="M 385.115693 382.84 
L 387.267221 382.84 
L 387.267221 230.430247 
L 385.115693 230.430247 
z
" clip-path="url(#pa0a7604d84)" style="fill: #1f77b4"/>
   </g>
   <g id="patch_140">
    <path d="M 387.267221 382.84 
L 389.418748 382.84 
L 389.418748 382.84 
L 387.267221 382.84 
z
" clip-path="url(#pa0a7604d84)" style="fill: #1f77b4"/>
   </g>
   <g id="patch_141">
    <path d="M 389.418748 382.84 
L 391.570275 382.84 
L 391.570275 382.84 
L 389.418748 382.84 
z
" clip-path="url(#pa0a7604d84)" style="fill: #1f77b4"/>
   </g>
   <g id="patch_142">
    <path d="M 391.570275 382.84 
L 393.721802 382.84 
L 393.721802 251.935032 
L 391.570275 251.935032 
z
" clip-path="url(#pa0a7604d84)" style="fill: #1f77b4"/>
   </g>
   <g id="patch_143">
    <path d="M 393.721802 382.84 
L 395.873329 382.84 
L 395.873329 382.84 
L 393.721802 382.84 
z
" clip-path="url(#pa0a7604d84)" style="fill: #1f77b4"/>
   </g>
   <g id="patch_144">
    <path d="M 395.873329 382.84 
L 398.024856 382.84 
L 398.024856 270.156369 
L 395.873329 270.156369 
z
" clip-path="url(#pa0a7604d84)" style="fill: #1f77b4"/>
   </g>
   <g id="patch_145">
    <path d="M 398.024856 382.84 
L 400.176383 382.84 
L 400.176383 382.84 
L 398.024856 382.84 
z
" clip-path="url(#pa0a7604d84)" style="fill: #1f77b4"/>
   </g>
   <g id="patch_146">
    <path d="M 400.176383 382.84 
L 402.327911 382.84 
L 402.327911 284.264374 
L 400.176383 284.264374 
z
" clip-path="url(#pa0a7604d84)" style="fill: #1f77b4"/>
   </g>
   <g id="patch_147">
    <path d="M 402.327911 382.84 
L 404.479438 382.84 
L 404.479438 382.84 
L 402.327911 382.84 
z
" clip-path="url(#pa0a7604d84)" style="fill: #1f77b4"/>
   </g>
   <g id="patch_148">
    <path d="M 404.479438 382.84 
L 406.630965 382.84 
L 406.630965 298.552788 
L 404.479438 298.552788 
z
" clip-path="url(#pa0a7604d84)" style="fill: #1f77b4"/>
   </g>
   <g id="patch_149">
    <path d="M 406.630965 382.84 
L 408.782492 382.84 
L 408.782492 382.84 
L 406.630965 382.84 
z
" clip-path="url(#pa0a7604d84)" style="fill: #1f77b4"/>
   </g>
   <g id="patch_150">
    <path d="M 408.782492 382.84 
L 410.934019 382.84 
L 410.934019 382.84 
L 408.782492 382.84 
z
" clip-path="url(#pa0a7604d84)" style="fill: #1f77b4"/>
   </g>
   <g id="patch_151">
    <path d="M 410.934019 382.84 
L 413.085546 382.84 
L 413.085546 309.593836 
L 410.934019 309.593836 
z
" clip-path="url(#pa0a7604d84)" style="fill: #1f77b4"/>
   </g>
   <g id="patch_152">
    <path d="M 413.085546 382.84 
L 415.237073 382.84 
L 415.237073 382.84 
L 413.085546 382.84 
z
" clip-path="url(#pa0a7604d84)" style="fill: #1f77b4"/>
   </g>
   <g id="patch_153">
    <path d="M 415.237073 382.84 
L 417.388601 382.84 
L 417.388601 321.93383 
L 415.237073 321.93383 
z
" clip-path="url(#pa0a7604d84)" style="fill: #1f77b4"/>
   </g>
   <g id="patch_154">
    <path d="M 417.388601 382.84 
L 419.540128 382.84 
L 419.540128 382.84 
L 417.388601 382.84 
z
" clip-path="url(#pa0a7604d84)" style="fill: #1f77b4"/>
   </g>
   <g id="patch_155">
    <path d="M 419.540128 382.84 
L 421.691655 382.84 
L 421.691655 330.846048 
L 419.540128 330.846048 
z
" clip-path="url(#pa0a7604d84)" style="fill: #1f77b4"/>
   </g>
   <g id="patch_156">
    <path d="M 421.691655 382.84 
L 423.843182 382.84 
L 423.843182 382.84 
L 421.691655 382.84 
z
" clip-path="url(#pa0a7604d84)" style="fill: #1f77b4"/>
   </g>
   <g id="patch_157">
    <path d="M 423.843182 382.84 
L 425.994709 382.84 
L 425.994709 382.84 
L 423.843182 382.84 
z
" clip-path="url(#pa0a7604d84)" style="fill: #1f77b4"/>
   </g>
   <g id="patch_158">
    <path d="M 425.994709 382.84 
L 428.146236 382.84 
L 428.146236 341.670604 
L 425.994709 341.670604 
z
" clip-path="url(#pa0a7604d84)" style="fill: #1f77b4"/>
   </g>
   <g id="patch_159">
    <path d="M 428.146236 382.84 
L 430.297764 382.84 
L 430.297764 382.84 
L 428.146236 382.84 
z
" clip-path="url(#pa0a7604d84)" style="fill: #1f77b4"/>
   </g>
   <g id="patch_160">
    <path d="M 430.297764 382.84 
L 432.449291 382.84 
L 432.449291 348.923057 
L 430.297764 348.923057 
z
" clip-path="url(#pa0a7604d84)" style="fill: #1f77b4"/>
   </g>
   <g id="patch_161">
    <path d="M 432.449291 382.84 
L 434.600818 382.84 
L 434.600818 382.84 
L 432.449291 382.84 
z
" clip-path="url(#pa0a7604d84)" style="fill: #1f77b4"/>
   </g>
   <g id="patch_162">
    <path d="M 434.600818 382.84 
L 436.752345 382.84 
L 436.752345 356.247673 
L 434.600818 356.247673 
z
" clip-path="url(#pa0a7604d84)" style="fill: #1f77b4"/>
   </g>
   <g id="patch_163">
    <path d="M 436.752345 382.84 
L 438.903872 382.84 
L 438.903872 382.84 
L 436.752345 382.84 
z
" clip-path="url(#pa0a7604d84)" style="fill: #1f77b4"/>
   </g>
   <g id="patch_164">
    <path d="M 438.903872 382.84 
L 441.055399 382.84 
L 441.055399 363.139308 
L 438.903872 363.139308 
z
" clip-path="url(#pa0a7604d84)" style="fill: #1f77b4"/>
   </g>
   <g id="patch_165">
    <path d="M 441.055399 382.84 
L 443.206926 382.84 
L 443.206926 382.84 
L 441.055399 382.84 
z
" clip-path="url(#pa0a7604d84)" style="fill: #1f77b4"/>
   </g>
   <g id="patch_166">
    <path d="M 443.206926 382.84 
L 445.358454 382.84 
L 445.358454 382.84 
L 443.206926 382.84 
z
" clip-path="url(#pa0a7604d84)" style="fill: #1f77b4"/>
   </g>
   <g id="patch_167">
    <path d="M 445.358454 382.84 
L 447.509981 382.84 
L 447.509981 367.288721 
L 445.358454 367.288721 
z
" clip-path="url(#pa0a7604d84)" style="fill: #1f77b4"/>
   </g>
   <g id="patch_168">
    <path d="M 447.509981 382.84 
L 449.661508 382.84 
L 449.661508 382.84 
L 447.509981 382.84 
z
" clip-path="url(#pa0a7604d84)" style="fill: #1f77b4"/>
   </g>
   <g id="patch_169">
    <path d="M 449.661508 382.84 
L 451.813035 382.84 
L 451.813035 370.427842 
L 449.661508 370.427842 
z
" clip-path="url(#pa0a7604d84)" style="fill: #1f77b4"/>
   </g>
   <g id="patch_170">
    <path d="M 451.813035 382.84 
L 453.964562 382.84 
L 453.964562 382.84 
L 451.813035 382.84 
z
" clip-path="url(#pa0a7604d84)" style="fill: #1f77b4"/>
   </g>
   <g id="patch_171">
    <path d="M 453.964562 382.84 
L 456.116089 382.84 
L 456.116089 373.278309 
L 453.964562 373.278309 
z
" clip-path="url(#pa0a7604d84)" style="fill: #1f77b4"/>
   </g>
   <g id="patch_172">
    <path d="M 456.116089 382.84 
L 458.267617 382.84 
L 458.267617 382.84 
L 456.116089 382.84 
z
" clip-path="url(#pa0a7604d84)" style="fill: #1f77b4"/>
   </g>
   <g id="patch_173">
    <path d="M 458.267617 382.84 
L 460.419144 382.84 
L 460.419144 382.84 
L 458.267617 382.84 
z
" clip-path="url(#pa0a7604d84)" style="fill: #1f77b4"/>
   </g>
   <g id="patch_174">
    <path d="M 460.419144 382.84 
L 462.570671 382.84 
L 462.570671 375.587547 
L 460.419144 375.587547 
z
" clip-path="url(#pa0a7604d84)" style="fill: #1f77b4"/>
   </g>
   <g id="patch_175">
    <path d="M 462.570671 382.84 
L 464.722198 382.84 
L 464.722198 382.84 
L 462.570671 382.84 
z
" clip-path="url(#pa0a7604d84)" style="fill: #1f77b4"/>
   </g>
   <g id="patch_176">
    <path d="M 464.722198 382.84 
L 466.873725 382.84 
L 466.873725 377.463804 
L 464.722198 377.463804 
z
" clip-path="url(#pa0a7604d84)" style="fill: #1f77b4"/>
   </g>
   <g id="patch_177">
    <path d="M 466.873725 382.84 
L 469.025252 382.84 
L 469.025252 382.84 
L 466.873725 382.84 
z
" clip-path="url(#pa0a7604d84)" style="fill: #1f77b4"/>
   </g>
   <g id="patch_178">
    <path d="M 469.025252 382.84 
L 471.176779 382.84 
L 471.176779 378.726669 
L 469.025252 378.726669 
z
" clip-path="url(#pa0a7604d84)" style="fill: #1f77b4"/>
   </g>
   <g id="patch_179">
    <path d="M 471.176779 382.84 
L 473.328307 382.84 
L 473.328307 382.84 
L 471.176779 382.84 
z
" clip-path="url(#pa0a7604d84)" style="fill: #1f77b4"/>
   </g>
   <g id="patch_180">
    <path d="M 473.328307 382.84 
L 475.479834 382.84 
L 475.479834 380.097779 
L 473.328307 380.097779 
z
" clip-path="url(#pa0a7604d84)" style="fill: #1f77b4"/>
   </g>
   <g id="patch_181">
    <path d="M 475.479834 382.84 
L 477.631361 382.84 
L 477.631361 382.84 
L 475.479834 382.84 
z
" clip-path="url(#pa0a7604d84)" style="fill: #1f77b4"/>
   </g>
   <g id="patch_182">
    <path d="M 477.631361 382.84 
L 479.782888 382.84 
L 479.782888 382.84 
L 477.631361 382.84 
z
" clip-path="url(#pa0a7604d84)" style="fill: #1f77b4"/>
   </g>
   <g id="patch_183">
    <path d="M 479.782888 382.84 
L 481.934415 382.84 
L 481.934415 380.675089 
L 479.782888 380.675089 
z
" clip-path="url(#pa0a7604d84)" style="fill: #1f77b4"/>
   </g>
   <g id="patch_184">
    <path d="M 481.934415 382.84 
L 484.085942 382.84 
L 484.085942 382.84 
L 481.934415 382.84 
z
" clip-path="url(#pa0a7604d84)" style="fill: #1f77b4"/>
   </g>
   <g id="patch_185">
    <path d="M 484.085942 382.84 
L 486.23747 382.84 
L 486.23747 381.649299 
L 484.085942 381.649299 
z
" clip-path="url(#pa0a7604d84)" style="fill: #1f77b4"/>
   </g>
   <g id="patch_186">
    <path d="M 486.23747 382.84 
L 488.388997 382.84 
L 488.388997 382.84 
L 486.23747 382.84 
z
" clip-path="url(#pa0a7604d84)" style="fill: #1f77b4"/>
   </g>
   <g id="patch_187">
    <path d="M 488.388997 382.84 
L 490.540524 382.84 
L 490.540524 381.937954 
L 488.388997 381.937954 
z
" clip-path="url(#pa0a7604d84)" style="fill: #1f77b4"/>
   </g>
   <g id="patch_188">
    <path d="M 490.540524 382.84 
L 492.692051 382.84 
L 492.692051 382.84 
L 490.540524 382.84 
z
" clip-path="url(#pa0a7604d84)" style="fill: #1f77b4"/>
   </g>
   <g id="patch_189">
    <path d="M 492.692051 382.84 
L 494.843578 382.84 
L 494.843578 382.84 
L 492.692051 382.84 
z
" clip-path="url(#pa0a7604d84)" style="fill: #1f77b4"/>
   </g>
   <g id="patch_190">
    <path d="M 494.843578 382.84 
L 496.995105 382.84 
L 496.995105 382.407018 
L 494.843578 382.407018 
z
" clip-path="url(#pa0a7604d84)" style="fill: #1f77b4"/>
   </g>
   <g id="patch_191">
    <path d="M 496.995105 382.84 
L 499.146632 382.84 
L 499.146632 382.84 
L 496.995105 382.84 
z
" clip-path="url(#pa0a7604d84)" style="fill: #1f77b4"/>
   </g>
   <g id="patch_192">
    <path d="M 499.146632 382.84 
L 501.29816 382.84 
L 501.29816 382.26269 
L 499.146632 382.26269 
z
" clip-path="url(#pa0a7604d84)" style="fill: #1f77b4"/>
   </g>
   <g id="patch_193">
    <path d="M 501.29816 382.84 
L 503.449687 382.84 
L 503.449687 382.84 
L 501.29816 382.84 
z
" clip-path="url(#pa0a7604d84)" style="fill: #1f77b4"/>
   </g>
   <g id="patch_194">
    <path d="M 503.449687 382.84 
L 505.601214 382.84 
L 505.601214 382.659591 
L 503.449687 382.659591 
z
" clip-path="url(#pa0a7604d84)" style="fill: #1f77b4"/>
   </g>
   <g id="patch_195">
    <path d="M 505.601214 382.84 
L 507.752741 382.84 
L 507.752741 382.84 
L 505.601214 382.84 
z
" clip-path="url(#pa0a7604d84)" style="fill: #1f77b4"/>
   </g>
   <g id="patch_196">
    <path d="M 507.752741 382.84 
L 509.904268 382.84 
L 509.904268 382.659591 
L 507.752741 382.659591 
z
" clip-path="url(#pa0a7604d84)" style="fill: #1f77b4"/>
   </g>
   <g id="patch_197">
    <path d="M 509.904268 382.84 
L 512.055795 382.84 
L 512.055795 382.84 
L 509.904268 382.84 
z
" clip-path="url(#pa0a7604d84)" style="fill: #1f77b4"/>
   </g>
   <g id="patch_198">
    <path d="M 512.055795 382.84 
L 514.207323 382.84 
L 514.207323 382.84 
L 512.055795 382.84 
z
" clip-path="url(#pa0a7604d84)" style="fill: #1f77b4"/>
   </g>
   <g id="patch_199">
    <path d="M 514.207323 382.84 
L 516.35885 382.84 
L 516.35885 382.695673 
L 514.207323 382.695673 
z
" clip-path="url(#pa0a7604d84)" style="fill: #1f77b4"/>
   </g>
   <g id="patch_200">
    <path d="M 516.35885 382.84 
L 518.510377 382.84 
L 518.510377 382.84 
L 516.35885 382.84 
z
" clip-path="url(#pa0a7604d84)" style="fill: #1f77b4"/>
   </g>
   <g id="patch_201">
    <path d="M 518.510377 382.84 
L 520.661904 382.84 
L 520.661904 382.731754 
L 518.510377 382.731754 
z
" clip-path="url(#pa0a7604d84)" style="fill: #1f77b4"/>
   </g>
   <g id="patch_202">
    <path d="M 520.661904 382.84 
L 522.813431 382.84 
L 522.813431 382.84 
L 520.661904 382.84 
z
" clip-path="url(#pa0a7604d84)" style="fill: #1f77b4"/>
   </g>
   <g id="patch_203">
    <path d="M 522.813431 382.84 
L 524.964958 382.84 
L 524.964958 382.84 
L 522.813431 382.84 
z
" clip-path="url(#pa0a7604d84)" style="fill: #1f77b4"/>
   </g>
   <g id="patch_204">
    <path d="M 524.964958 382.84 
L 527.116485 382.84 
L 527.116485 382.84 
L 524.964958 382.84 
z
" clip-path="url(#pa0a7604d84)" style="fill: #1f77b4"/>
   </g>
   <g id="patch_205">
    <path d="M 527.116485 382.84 
L 529.268013 382.84 
L 529.268013 382.803918 
L 527.116485 382.803918 
z
" clip-path="url(#pa0a7604d84)" style="fill: #1f77b4"/>
   </g>
   <g id="matplotlib.axis_1">
    <g id="xtick_1">
     <g id="line2d_1">
      <defs>
       <path id="m6d8153d86b" d="M 0 0 
L 0 3.5 
" style="stroke: #000000; stroke-width: 0.8"/>
      </defs>
      <g>
       <use xlink:href="#m6d8153d86b" x="136.674743" y="382.84" style="stroke: #000000; stroke-width: 0.8"/>
      </g>
     </g>
     <g id="text_1">
      <!-- −12 -->
      <g transform="translate(126.1224 397.438438) scale(0.1 -0.1)">
       <defs>
        <path id="DejaVuSans-2212" d="M 678 2272 
L 4684 2272 
L 4684 1741 
L 678 1741 
L 678 2272 
z
" transform="scale(0.015625)"/>
        <path id="DejaVuSans-31" d="M 794 531 
L 1825 531 
L 1825 4091 
L 703 3866 
L 703 4441 
L 1819 4666 
L 2450 4666 
L 2450 531 
L 3481 531 
L 3481 0 
L 794 0 
L 794 531 
z
" transform="scale(0.015625)"/>
        <path id="DejaVuSans-32" d="M 1228 531 
L 3431 531 
L 3431 0 
L 469 0 
L 469 531 
Q 828 903 1448 1529 
Q 2069 2156 2228 2338 
Q 2531 2678 2651 2914 
Q 2772 3150 2772 3378 
Q 2772 3750 2511 3984 
Q 2250 4219 1831 4219 
Q 1534 4219 1204 4116 
Q 875 4013 500 3803 
L 500 4441 
Q 881 4594 1212 4672 
Q 1544 4750 1819 4750 
Q 2544 4750 2975 4387 
Q 3406 4025 3406 3419 
Q 3406 3131 3298 2873 
Q 3191 2616 2906 2266 
Q 2828 2175 2409 1742 
Q 1991 1309 1228 531 
z
" transform="scale(0.015625)"/>
       </defs>
       <use xlink:href="#DejaVuSans-2212"/>
       <use xlink:href="#DejaVuSans-31" x="83.789062"/>
       <use xlink:href="#DejaVuSans-32" x="147.412109"/>
      </g>
     </g>
    </g>
    <g id="xtick_2">
     <g id="line2d_2">
      <g>
       <use xlink:href="#m6d8153d86b" x="234.823061" y="382.84" style="stroke: #000000; stroke-width: 0.8"/>
      </g>
     </g>
     <g id="text_2">
      <!-- −10 -->
      <g transform="translate(224.270717 397.438438) scale(0.1 -0.1)">
       <defs>
        <path id="DejaVuSans-30" d="M 2034 4250 
Q 1547 4250 1301 3770 
Q 1056 3291 1056 2328 
Q 1056 1369 1301 889 
Q 1547 409 2034 409 
Q 2525 409 2770 889 
Q 3016 1369 3016 2328 
Q 3016 3291 2770 3770 
Q 2525 4250 2034 4250 
z
M 2034 4750 
Q 2819 4750 3233 4129 
Q 3647 3509 3647 2328 
Q 3647 1150 3233 529 
Q 2819 -91 2034 -91 
Q 1250 -91 836 529 
Q 422 1150 422 2328 
Q 422 3509 836 4129 
Q 1250 4750 2034 4750 
z
" transform="scale(0.015625)"/>
       </defs>
       <use xlink:href="#DejaVuSans-2212"/>
       <use xlink:href="#DejaVuSans-31" x="83.789062"/>
       <use xlink:href="#DejaVuSans-30" x="147.412109"/>
      </g>
     </g>
    </g>
    <g id="xtick_3">
     <g id="line2d_3">
      <g>
       <use xlink:href="#m6d8153d86b" x="332.971378" y="382.84" style="stroke: #000000; stroke-width: 0.8"/>
      </g>
     </g>
     <g id="text_3">
      <!-- −8 -->
      <g transform="translate(325.600284 397.438438) scale(0.1 -0.1)">
       <defs>
        <path id="DejaVuSans-38" d="M 2034 2216 
Q 1584 2216 1326 1975 
Q 1069 1734 1069 1313 
Q 1069 891 1326 650 
Q 1584 409 2034 409 
Q 2484 409 2743 651 
Q 3003 894 3003 1313 
Q 3003 1734 2745 1975 
Q 2488 2216 2034 2216 
z
M 1403 2484 
Q 997 2584 770 2862 
Q 544 3141 544 3541 
Q 544 4100 942 4425 
Q 1341 4750 2034 4750 
Q 2731 4750 3128 4425 
Q 3525 4100 3525 3541 
Q 3525 3141 3298 2862 
Q 3072 2584 2669 2484 
Q 3125 2378 3379 2068 
Q 3634 1759 3634 1313 
Q 3634 634 3220 271 
Q 2806 -91 2034 -91 
Q 1263 -91 848 271 
Q 434 634 434 1313 
Q 434 1759 690 2068 
Q 947 2378 1403 2484 
z
M 1172 3481 
Q 1172 3119 1398 2916 
Q 1625 2713 2034 2713 
Q 2441 2713 2670 2916 
Q 2900 3119 2900 3481 
Q 2900 3844 2670 4047 
Q 2441 4250 2034 4250 
Q 1625 4250 1398 4047 
Q 1172 3844 1172 3481 
z
" transform="scale(0.015625)"/>
       </defs>
       <use xlink:href="#DejaVuSans-2212"/>
       <use xlink:href="#DejaVuSans-38" x="83.789062"/>
      </g>
     </g>
    </g>
    <g id="xtick_4">
     <g id="line2d_4">
      <g>
       <use xlink:href="#m6d8153d86b" x="431.119695" y="382.84" style="stroke: #000000; stroke-width: 0.8"/>
      </g>
     </g>
     <g id="text_4">
      <!-- −6 -->
      <g transform="translate(423.748602 397.438438) scale(0.1 -0.1)">
       <defs>
        <path id="DejaVuSans-36" d="M 2113 2584 
Q 1688 2584 1439 2293 
Q 1191 2003 1191 1497 
Q 1191 994 1439 701 
Q 1688 409 2113 409 
Q 2538 409 2786 701 
Q 3034 994 3034 1497 
Q 3034 2003 2786 2293 
Q 2538 2584 2113 2584 
z
M 3366 4563 
L 3366 3988 
Q 3128 4100 2886 4159 
Q 2644 4219 2406 4219 
Q 1781 4219 1451 3797 
Q 1122 3375 1075 2522 
Q 1259 2794 1537 2939 
Q 1816 3084 2150 3084 
Q 2853 3084 3261 2657 
Q 3669 2231 3669 1497 
Q 3669 778 3244 343 
Q 2819 -91 2113 -91 
Q 1303 -91 875 529 
Q 447 1150 447 2328 
Q 447 3434 972 4092 
Q 1497 4750 2381 4750 
Q 2619 4750 2861 4703 
Q 3103 4656 3366 4563 
z
" transform="scale(0.015625)"/>
       </defs>
       <use xlink:href="#DejaVuSans-2212"/>
       <use xlink:href="#DejaVuSans-36" x="83.789062"/>
      </g>
     </g>
    </g>
    <g id="xtick_5">
     <g id="line2d_5">
      <g>
       <use xlink:href="#m6d8153d86b" x="529.268013" y="382.84" style="stroke: #000000; stroke-width: 0.8"/>
      </g>
     </g>
     <g id="text_5">
      <!-- −4 -->
      <g transform="translate(521.896919 397.438438) scale(0.1 -0.1)">
       <defs>
        <path id="DejaVuSans-34" d="M 2419 4116 
L 825 1625 
L 2419 1625 
L 2419 4116 
z
M 2253 4666 
L 3047 4666 
L 3047 1625 
L 3713 1625 
L 3713 1100 
L 3047 1100 
L 3047 0 
L 2419 0 
L 2419 1100 
L 313 1100 
L 313 1709 
L 2253 4666 
z
" transform="scale(0.015625)"/>
       </defs>
       <use xlink:href="#DejaVuSans-2212"/>
       <use xlink:href="#DejaVuSans-34" x="83.789062"/>
      </g>
     </g>
    </g>
    <g id="text_6">
     <!-- F10 -->
     <g transform="translate(294.2591 417.195312) scale(0.18 -0.18)">
      <defs>
       <path id="DejaVuSans-46" d="M 628 4666 
L 3309 4666 
L 3309 4134 
L 1259 4134 
L 1259 2759 
L 3109 2759 
L 3109 2228 
L 1259 2228 
L 1259 0 
L 628 0 
L 628 4666 
z
" transform="scale(0.015625)"/>
      </defs>
      <use xlink:href="#DejaVuSans-46"/>
      <use xlink:href="#DejaVuSans-31" x="57.519531"/>
      <use xlink:href="#DejaVuSans-30" x="121.142578"/>
     </g>
    </g>
   </g>
   <g id="matplotlib.axis_2">
    <g id="ytick_1">
     <g id="line2d_6">
      <defs>
       <path id="m26c9c01819" d="M 0 0 
L -3.5 0 
" style="stroke: #000000; stroke-width: 0.8"/>
      </defs>
      <g>
       <use xlink:href="#m26c9c01819" x="70.67" y="382.84" style="stroke: #000000; stroke-width: 0.8"/>
      </g>
     </g>
     <g id="text_7">
      <!-- 0 -->
      <g transform="translate(57.3075 386.639219) scale(0.1 -0.1)">
       <use xlink:href="#DejaVuSans-30"/>
      </g>
     </g>
    </g>
    <g id="ytick_2">
     <g id="line2d_7">
      <g>
       <use xlink:href="#m26c9c01819" x="70.67" y="310.676291" style="stroke: #000000; stroke-width: 0.8"/>
      </g>
     </g>
     <g id="text_8">
      <!-- 2000 -->
      <g transform="translate(38.22 314.47551) scale(0.1 -0.1)">
       <use xlink:href="#DejaVuSans-32"/>
       <use xlink:href="#DejaVuSans-30" x="63.623047"/>
       <use xlink:href="#DejaVuSans-30" x="127.246094"/>
       <use xlink:href="#DejaVuSans-30" x="190.869141"/>
      </g>
     </g>
    </g>
    <g id="ytick_3">
     <g id="line2d_8">
      <g>
       <use xlink:href="#m26c9c01819" x="70.67" y="238.512583" style="stroke: #000000; stroke-width: 0.8"/>
      </g>
     </g>
     <g id="text_9">
      <!-- 4000 -->
      <g transform="translate(38.22 242.311801) scale(0.1 -0.1)">
       <use xlink:href="#DejaVuSans-34"/>
       <use xlink:href="#DejaVuSans-30" x="63.623047"/>
       <use xlink:href="#DejaVuSans-30" x="127.246094"/>
       <use xlink:href="#DejaVuSans-30" x="190.869141"/>
      </g>
     </g>
    </g>
    <g id="ytick_4">
     <g id="line2d_9">
      <g>
       <use xlink:href="#m26c9c01819" x="70.67" y="166.348874" style="stroke: #000000; stroke-width: 0.8"/>
      </g>
     </g>
     <g id="text_10">
      <!-- 6000 -->
      <g transform="translate(38.22 170.148093) scale(0.1 -0.1)">
       <use xlink:href="#DejaVuSans-36"/>
       <use xlink:href="#DejaVuSans-30" x="63.623047"/>
       <use xlink:href="#DejaVuSans-30" x="127.246094"/>
       <use xlink:href="#DejaVuSans-30" x="190.869141"/>
      </g>
     </g>
    </g>
    <g id="ytick_5">
     <g id="line2d_10">
      <g>
       <use xlink:href="#m26c9c01819" x="70.67" y="94.185165" style="stroke: #000000; stroke-width: 0.8"/>
      </g>
     </g>
     <g id="text_11">
      <!-- 8000 -->
      <g transform="translate(38.22 97.984384) scale(0.1 -0.1)">
       <use xlink:href="#DejaVuSans-38"/>
       <use xlink:href="#DejaVuSans-30" x="63.623047"/>
       <use xlink:href="#DejaVuSans-30" x="127.246094"/>
       <use xlink:href="#DejaVuSans-30" x="190.869141"/>
      </g>
     </g>
    </g>
    <g id="ytick_6">
     <g id="line2d_11">
      <g>
       <use xlink:href="#m26c9c01819" x="70.67" y="22.021457" style="stroke: #000000; stroke-width: 0.8"/>
      </g>
     </g>
     <g id="text_12">
      <!-- 10000 -->
      <g transform="translate(31.8575 25.820675) scale(0.1 -0.1)">
       <use xlink:href="#DejaVuSans-31"/>
       <use xlink:href="#DejaVuSans-30" x="63.623047"/>
       <use xlink:href="#DejaVuSans-30" x="127.246094"/>
       <use xlink:href="#DejaVuSans-30" x="190.869141"/>
       <use xlink:href="#DejaVuSans-30" x="254.492188"/>
      </g>
     </g>
    </g>
    <g id="text_13">
     <!-- Count -->
     <g transform="translate(24.114063 223.547188) rotate(-90) scale(0.18 -0.18)">
      <defs>
       <path id="DejaVuSans-43" d="M 4122 4306 
L 4122 3641 
Q 3803 3938 3442 4084 
Q 3081 4231 2675 4231 
Q 1875 4231 1450 3742 
Q 1025 3253 1025 2328 
Q 1025 1406 1450 917 
Q 1875 428 2675 428 
Q 3081 428 3442 575 
Q 3803 722 4122 1019 
L 4122 359 
Q 3791 134 3420 21 
Q 3050 -91 2638 -91 
Q 1578 -91 968 557 
Q 359 1206 359 2328 
Q 359 3453 968 4101 
Q 1578 4750 2638 4750 
Q 3056 4750 3426 4639 
Q 3797 4528 4122 4306 
z
" transform="scale(0.015625)"/>
       <path id="DejaVuSans-6f" d="M 1959 3097 
Q 1497 3097 1228 2736 
Q 959 2375 959 1747 
Q 959 1119 1226 758 
Q 1494 397 1959 397 
Q 2419 397 2687 759 
Q 2956 1122 2956 1747 
Q 2956 2369 2687 2733 
Q 2419 3097 1959 3097 
z
M 1959 3584 
Q 2709 3584 3137 3096 
Q 3566 2609 3566 1747 
Q 3566 888 3137 398 
Q 2709 -91 1959 -91 
Q 1206 -91 779 398 
Q 353 888 353 1747 
Q 353 2609 779 3096 
Q 1206 3584 1959 3584 
z
" transform="scale(0.015625)"/>
       <path id="DejaVuSans-75" d="M 544 1381 
L 544 3500 
L 1119 3500 
L 1119 1403 
Q 1119 906 1312 657 
Q 1506 409 1894 409 
Q 2359 409 2629 706 
Q 2900 1003 2900 1516 
L 2900 3500 
L 3475 3500 
L 3475 0 
L 2900 0 
L 2900 538 
Q 2691 219 2414 64 
Q 2138 -91 1772 -91 
Q 1169 -91 856 284 
Q 544 659 544 1381 
z
M 1991 3584 
L 1991 3584 
z
" transform="scale(0.015625)"/>
       <path id="DejaVuSans-6e" d="M 3513 2113 
L 3513 0 
L 2938 0 
L 2938 2094 
Q 2938 2591 2744 2837 
Q 2550 3084 2163 3084 
Q 1697 3084 1428 2787 
Q 1159 2491 1159 1978 
L 1159 0 
L 581 0 
L 581 3500 
L 1159 3500 
L 1159 2956 
Q 1366 3272 1645 3428 
Q 1925 3584 2291 3584 
Q 2894 3584 3203 3211 
Q 3513 2838 3513 2113 
z
" transform="scale(0.015625)"/>
       <path id="DejaVuSans-74" d="M 1172 4494 
L 1172 3500 
L 2356 3500 
L 2356 3053 
L 1172 3053 
L 1172 1153 
Q 1172 725 1289 603 
Q 1406 481 1766 481 
L 2356 481 
L 2356 0 
L 1766 0 
Q 1100 0 847 248 
Q 594 497 594 1153 
L 594 3053 
L 172 3053 
L 172 3500 
L 594 3500 
L 594 4494 
L 1172 4494 
z
" transform="scale(0.015625)"/>
      </defs>
      <use xlink:href="#DejaVuSans-43"/>
      <use xlink:href="#DejaVuSans-6f" x="69.824219"/>
      <use xlink:href="#DejaVuSans-75" x="131.005859"/>
      <use xlink:href="#DejaVuSans-6e" x="194.384766"/>
      <use xlink:href="#DejaVuSans-74" x="257.763672"/>
     </g>
    </g>
   </g>
   <g id="line2d_12">
    <path d="M 264.267556 382.84 
L 264.267556 28.51619 
" clip-path="url(#pa0a7604d84)" style="fill: none; stroke: #ff0000; stroke-width: 1.6; stroke-linecap: square"/>
   </g>
   <g id="patch_206">
    <path d="M 70.67 382.84 
L 70.67 10.8 
" style="fill: none; stroke: #000000; stroke-width: 0.8; stroke-linejoin: miter; stroke-linecap: square"/>
   </g>
   <g id="patch_207">
    <path d="M 551.106013 382.84 
L 551.106013 10.8 
" style="fill: none; stroke: #000000; stroke-width: 0.8; stroke-linejoin: miter; stroke-linecap: square"/>
   </g>
   <g id="patch_208">
    <path d="M 70.67 382.84 
L 551.106013 382.84 
" style="fill: none; stroke: #000000; stroke-width: 0.8; stroke-linejoin: miter; stroke-linecap: square"/>
   </g>
   <g id="patch_209">
    <path d="M 70.67 10.8 
L 551.106013 10.8 
" style="fill: none; stroke: #000000; stroke-width: 0.8; stroke-linejoin: miter; stroke-linecap: square"/>
   </g>
   <g id="text_14">
    <!-- $\mu_23 = -8.307$ -->
    <g transform="translate(406.975209 61.649937) scale(0.21 -0.21)">
     <defs>
      <path id="DejaVuSans-Oblique-3bc" d="M -84 -1331 
L 856 3500 
L 1434 3500 
L 1009 1322 
Q 997 1256 987 1175 
Q 978 1094 978 1013 
Q 978 722 1161 565 
Q 1344 409 1684 409 
Q 2147 409 2431 671 
Q 2716 934 2816 1459 
L 3213 3500 
L 3788 3500 
L 3266 809 
Q 3253 750 3248 706 
Q 3244 663 3244 628 
Q 3244 531 3283 486 
Q 3322 441 3406 441 
Q 3438 441 3492 456 
Q 3547 472 3647 513 
L 3559 50 
Q 3422 -19 3297 -55 
Q 3172 -91 3053 -91 
Q 2847 -91 2730 40 
Q 2613 172 2613 403 
Q 2438 153 2195 31 
Q 1953 -91 1625 -91 
Q 1334 -91 1117 43 
Q 900 178 831 397 
L 494 -1331 
L -84 -1331 
z
" transform="scale(0.015625)"/>
      <path id="DejaVuSans-33" d="M 2597 2516 
Q 3050 2419 3304 2112 
Q 3559 1806 3559 1356 
Q 3559 666 3084 287 
Q 2609 -91 1734 -91 
Q 1441 -91 1130 -33 
Q 819 25 488 141 
L 488 750 
Q 750 597 1062 519 
Q 1375 441 1716 441 
Q 2309 441 2620 675 
Q 2931 909 2931 1356 
Q 2931 1769 2642 2001 
Q 2353 2234 1838 2234 
L 1294 2234 
L 1294 2753 
L 1863 2753 
Q 2328 2753 2575 2939 
Q 2822 3125 2822 3475 
Q 2822 3834 2567 4026 
Q 2313 4219 1838 4219 
Q 1578 4219 1281 4162 
Q 984 4106 628 3988 
L 628 4550 
Q 988 4650 1302 4700 
Q 1616 4750 1894 4750 
Q 2613 4750 3031 4423 
Q 3450 4097 3450 3541 
Q 3450 3153 3228 2886 
Q 3006 2619 2597 2516 
z
" transform="scale(0.015625)"/>
      <path id="DejaVuSans-3d" d="M 678 2906 
L 4684 2906 
L 4684 2381 
L 678 2381 
L 678 2906 
z
M 678 1631 
L 4684 1631 
L 4684 1100 
L 678 1100 
L 678 1631 
z
" transform="scale(0.015625)"/>
      <path id="DejaVuSans-2e" d="M 684 794 
L 1344 794 
L 1344 0 
L 684 0 
L 684 794 
z
" transform="scale(0.015625)"/>
      <path id="DejaVuSans-37" d="M 525 4666 
L 3525 4666 
L 3525 4397 
L 1831 0 
L 1172 0 
L 2766 4134 
L 525 4134 
L 525 4666 
z
" transform="scale(0.015625)"/>
     </defs>
     <use xlink:href="#DejaVuSans-Oblique-3bc" transform="translate(0 0.78125)"/>
     <use xlink:href="#DejaVuSans-32" transform="translate(63.623047 -15.625) scale(0.7)"/>
     <use xlink:href="#DejaVuSans-33" transform="translate(110.893555 0.78125)"/>
     <use xlink:href="#DejaVuSans-3d" transform="translate(193.999023 0.78125)"/>
     <use xlink:href="#DejaVuSans-2212" transform="translate(316.75293 0.78125)"/>
     <use xlink:href="#DejaVuSans-38" transform="translate(420.024414 0.78125)"/>
     <use xlink:href="#DejaVuSans-2e" transform="translate(483.647461 0.78125)"/>
     <use xlink:href="#DejaVuSans-33" transform="translate(515.43457 0.78125)"/>
     <use xlink:href="#DejaVuSans-30" transform="translate(579.057617 0.78125)"/>
     <use xlink:href="#DejaVuSans-37" transform="translate(642.680664 0.78125)"/>
    </g>
    <!-- $\sigma_23 = 1.06$ -->
    <g transform="translate(406.975209 85.208) scale(0.21 -0.21)">
     <defs>
      <path id="DejaVuSans-Oblique-3c3" d="M 2219 3044 
Q 1744 3044 1422 2700 
Q 1081 2341 969 1747 
Q 844 1119 1044 756 
Q 1241 397 1706 397 
Q 2166 397 2503 759 
Q 2844 1122 2966 1747 
Q 3075 2319 2881 2700 
Q 2700 3044 2219 3044 
z
M 2309 3503 
L 4219 3500 
L 4106 2925 
L 3463 2925 
Q 3706 2438 3575 1747 
Q 3406 888 2884 400 
Q 2359 -91 1609 -91 
Q 856 -91 525 400 
Q 194 888 363 1747 
Q 528 2609 1050 3097 
Q 1484 3503 2309 3503 
z
" transform="scale(0.015625)"/>
     </defs>
     <use xlink:href="#DejaVuSans-Oblique-3c3" transform="translate(0 0.78125)"/>
     <use xlink:href="#DejaVuSans-32" transform="translate(63.378906 -15.625) scale(0.7)"/>
     <use xlink:href="#DejaVuSans-33" transform="translate(110.649414 0.78125)"/>
     <use xlink:href="#DejaVuSans-3d" transform="translate(193.754883 0.78125)"/>
     <use xlink:href="#DejaVuSans-31" transform="translate(297.026367 0.78125)"/>
     <use xlink:href="#DejaVuSans-2e" transform="translate(360.649414 0.78125)"/>
     <use xlink:href="#DejaVuSans-30" transform="translate(392.436523 0.78125)"/>
     <use xlink:href="#DejaVuSans-36" transform="translate(456.05957 0.78125)"/>
    </g>
   </g>
  </g>
 </g>
 <defs>
  <clipPath id="pa0a7604d84">
   <rect x="70.67" y="10.8" width="480.436013" height="372.04"/>
  </clipPath>
 </defs>
</svg>
