<?xml version="1.0" encoding="utf-8" standalone="no"?>
<!DOCTYPE svg PUBLIC "-//W3C//DTD SVG 1.1//EN"
  "http://www.w3.org/Graphics/SVG/1.1/DTD/svg11.dtd">
<svg xmlns:xlink="http://www.w3.org/1999/xlink" width="576pt" height="432pt" viewBox="0 0 576 432" xmlns="http://www.w3.org/2000/svg" version="1.1">
 <metadata>
  <rdf:RDF xmlns:dc="http://purl.org/dc/elements/1.1/" xmlns:cc="http://creativecommons.org/ns#" xmlns:rdf="http://www.w3.org/1999/02/22-rdf-syntax-ns#">
   <cc:Work>
    <dc:type rdf:resource="http://purl.org/dc/dcmitype/StillImage"/>
    <dc:date>2024-09-05T19:41:29.087656</dc:date>
    <dc:format>image/svg+xml</dc:format>
    <dc:creator>
     <cc:Agent>
      <dc:title>Matplotlib v3.7.2, https://matplotlib.org/</dc:title>
     </cc:Agent>
    </dc:creator>
   </cc:Work>
  </rdf:RDF>
 </metadata>
 <defs>
  <style type="text/css">*{stroke-linejoin: round; stroke-linecap: butt}</style>
 </defs>
 <g id="figure_1">
  <g id="patch_1">
   <path d="M 0 432 
L 576 432 
L 576 0 
L 0 0 
z
" style="fill: #ffffff"/>
  </g>
  <g id="axes_1">
   <g id="patch_2">
    <path d="M 70.67 382.84 
L 550.656013 382.84 
L 550.656013 10.8 
L 70.67 10.8 
z
" style="fill: #ffffff"/>
   </g>
   <g id="patch_3">
    <path d="M 92.487546 382.84 
L 94.536142 382.84 
L 94.536142 382.777043 
L 92.487546 382.777043 
z
" clip-path="url(#pae738215a4)" style="fill: #1f77b4"/>
   </g>
   <g id="patch_4">
    <path d="M 94.536142 382.84 
L 96.584738 382.84 
L 96.584738 382.84 
L 94.536142 382.84 
z
" clip-path="url(#pae738215a4)" style="fill: #1f77b4"/>
   </g>
   <g id="patch_5">
    <path d="M 96.584738 382.84 
L 98.633334 382.84 
L 98.633334 382.682607 
L 96.584738 382.682607 
z
" clip-path="url(#pae738215a4)" style="fill: #1f77b4"/>
   </g>
   <g id="patch_6">
    <path d="M 98.633334 382.84 
L 100.68193 382.84 
L 100.68193 382.84 
L 98.633334 382.84 
z
" clip-path="url(#pae738215a4)" style="fill: #1f77b4"/>
   </g>
   <g id="patch_7">
    <path d="M 100.68193 382.84 
L 102.730525 382.84 
L 102.730525 382.84 
L 100.68193 382.84 
z
" clip-path="url(#pae738215a4)" style="fill: #1f77b4"/>
   </g>
   <g id="patch_8">
    <path d="M 102.730525 382.84 
L 104.779121 382.84 
L 104.779121 382.714085 
L 102.730525 382.714085 
z
" clip-path="url(#pae738215a4)" style="fill: #1f77b4"/>
   </g>
   <g id="patch_9">
    <path d="M 104.779121 382.84 
L 106.827717 382.84 
L 106.827717 382.84 
L 104.779121 382.84 
z
" clip-path="url(#pae738215a4)" style="fill: #1f77b4"/>
   </g>
   <g id="patch_10">
    <path d="M 106.827717 382.84 
L 108.876313 382.84 
L 108.876313 382.714085 
L 106.827717 382.714085 
z
" clip-path="url(#pae738215a4)" style="fill: #1f77b4"/>
   </g>
   <g id="patch_11">
    <path d="M 108.876313 382.84 
L 110.924909 382.84 
L 110.924909 382.84 
L 108.876313 382.84 
z
" clip-path="url(#pae738215a4)" style="fill: #1f77b4"/>
   </g>
   <g id="patch_12">
    <path d="M 110.924909 382.84 
L 112.973505 382.84 
L 112.973505 382.84 
L 110.924909 382.84 
z
" clip-path="url(#pae738215a4)" style="fill: #1f77b4"/>
   </g>
   <g id="patch_13">
    <path d="M 112.973505 382.84 
L 115.022101 382.84 
L 115.022101 382.430777 
L 112.973505 382.430777 
z
" clip-path="url(#pae738215a4)" style="fill: #1f77b4"/>
   </g>
   <g id="patch_14">
    <path d="M 115.022101 382.84 
L 117.070697 382.84 
L 117.070697 382.84 
L 115.022101 382.84 
z
" clip-path="url(#pae738215a4)" style="fill: #1f77b4"/>
   </g>
   <g id="patch_15">
    <path d="M 117.070697 382.84 
L 119.119292 382.84 
L 119.119292 382.84 
L 117.070697 382.84 
z
" clip-path="url(#pae738215a4)" style="fill: #1f77b4"/>
   </g>
   <g id="patch_16">
    <path d="M 119.119292 382.84 
L 121.167888 382.84 
L 121.167888 382.493735 
L 119.119292 382.493735 
z
" clip-path="url(#pae738215a4)" style="fill: #1f77b4"/>
   </g>
   <g id="patch_17">
    <path d="M 121.167888 382.84 
L 123.216484 382.84 
L 123.216484 382.84 
L 121.167888 382.84 
z
" clip-path="url(#pae738215a4)" style="fill: #1f77b4"/>
   </g>
   <g id="patch_18">
    <path d="M 123.216484 382.84 
L 125.26508 382.84 
L 125.26508 382.273384 
L 123.216484 382.273384 
z
" clip-path="url(#pae738215a4)" style="fill: #1f77b4"/>
   </g>
   <g id="patch_19">
    <path d="M 125.26508 382.84 
L 127.313676 382.84 
L 127.313676 382.84 
L 125.26508 382.84 
z
" clip-path="url(#pae738215a4)" style="fill: #1f77b4"/>
   </g>
   <g id="patch_20">
    <path d="M 127.313676 382.84 
L 129.362272 382.84 
L 129.362272 382.84 
L 127.313676 382.84 
z
" clip-path="url(#pae738215a4)" style="fill: #1f77b4"/>
   </g>
   <g id="patch_21">
    <path d="M 129.362272 382.84 
L 131.410868 382.84 
L 131.410868 382.053033 
L 129.362272 382.053033 
z
" clip-path="url(#pae738215a4)" style="fill: #1f77b4"/>
   </g>
   <g id="patch_22">
    <path d="M 131.410868 382.84 
L 133.459464 382.84 
L 133.459464 382.84 
L 131.410868 382.84 
z
" clip-path="url(#pae738215a4)" style="fill: #1f77b4"/>
   </g>
   <g id="patch_23">
    <path d="M 133.459464 382.84 
L 135.508059 382.84 
L 135.508059 382.84 
L 133.459464 382.84 
z
" clip-path="url(#pae738215a4)" style="fill: #1f77b4"/>
   </g>
   <g id="patch_24">
    <path d="M 135.508059 382.84 
L 137.556655 382.84 
L 137.556655 381.864162 
L 135.508059 381.864162 
z
" clip-path="url(#pae738215a4)" style="fill: #1f77b4"/>
   </g>
   <g id="patch_25">
    <path d="M 137.556655 382.84 
L 139.605251 382.84 
L 139.605251 382.84 
L 137.556655 382.84 
z
" clip-path="url(#pae738215a4)" style="fill: #1f77b4"/>
   </g>
   <g id="patch_26">
    <path d="M 139.605251 382.84 
L 141.653847 382.84 
L 141.653847 381.20311 
L 139.605251 381.20311 
z
" clip-path="url(#pae738215a4)" style="fill: #1f77b4"/>
   </g>
   <g id="patch_27">
    <path d="M 141.653847 382.84 
L 143.702443 382.84 
L 143.702443 382.84 
L 141.653847 382.84 
z
" clip-path="url(#pae738215a4)" style="fill: #1f77b4"/>
   </g>
   <g id="patch_28">
    <path d="M 143.702443 382.84 
L 145.751039 382.84 
L 145.751039 382.84 
L 143.702443 382.84 
z
" clip-path="url(#pae738215a4)" style="fill: #1f77b4"/>
   </g>
   <g id="patch_29">
    <path d="M 145.751039 382.84 
L 147.799635 382.84 
L 147.799635 380.290228 
L 145.751039 380.290228 
z
" clip-path="url(#pae738215a4)" style="fill: #1f77b4"/>
   </g>
   <g id="patch_30">
    <path d="M 147.799635 382.84 
L 149.848231 382.84 
L 149.848231 382.84 
L 147.799635 382.84 
z
" clip-path="url(#pae738215a4)" style="fill: #1f77b4"/>
   </g>
   <g id="patch_31">
    <path d="M 149.848231 382.84 
L 151.896826 382.84 
L 151.896826 382.84 
L 149.848231 382.84 
z
" clip-path="url(#pae738215a4)" style="fill: #1f77b4"/>
   </g>
   <g id="patch_32">
    <path d="M 151.896826 382.84 
L 153.945422 382.84 
L 153.945422 379.597698 
L 151.896826 379.597698 
z
" clip-path="url(#pae738215a4)" style="fill: #1f77b4"/>
   </g>
   <g id="patch_33">
    <path d="M 153.945422 382.84 
L 155.994018 382.84 
L 155.994018 382.84 
L 153.945422 382.84 
z
" clip-path="url(#pae738215a4)" style="fill: #1f77b4"/>
   </g>
   <g id="patch_34">
    <path d="M 155.994018 382.84 
L 158.042614 382.84 
L 158.042614 379.188475 
L 155.994018 379.188475 
z
" clip-path="url(#pae738215a4)" style="fill: #1f77b4"/>
   </g>
   <g id="patch_35">
    <path d="M 158.042614 382.84 
L 160.09121 382.84 
L 160.09121 382.84 
L 158.042614 382.84 
z
" clip-path="url(#pae738215a4)" style="fill: #1f77b4"/>
   </g>
   <g id="patch_36">
    <path d="M 160.09121 382.84 
L 162.139806 382.84 
L 162.139806 382.84 
L 160.09121 382.84 
z
" clip-path="url(#pae738215a4)" style="fill: #1f77b4"/>
   </g>
   <g id="patch_37">
    <path d="M 162.139806 382.84 
L 164.188402 382.84 
L 164.188402 377.362713 
L 162.139806 377.362713 
z
" clip-path="url(#pae738215a4)" style="fill: #1f77b4"/>
   </g>
   <g id="patch_38">
    <path d="M 164.188402 382.84 
L 166.236998 382.84 
L 166.236998 382.84 
L 164.188402 382.84 
z
" clip-path="url(#pae738215a4)" style="fill: #1f77b4"/>
   </g>
   <g id="patch_39">
    <path d="M 166.236998 382.84 
L 168.285593 382.84 
L 168.285593 382.84 
L 166.236998 382.84 
z
" clip-path="url(#pae738215a4)" style="fill: #1f77b4"/>
   </g>
   <g id="patch_40">
    <path d="M 168.285593 382.84 
L 170.334189 382.84 
L 170.334189 375.568429 
L 168.285593 375.568429 
z
" clip-path="url(#pae738215a4)" style="fill: #1f77b4"/>
   </g>
   <g id="patch_41">
    <path d="M 170.334189 382.84 
L 172.382785 382.84 
L 172.382785 382.84 
L 170.334189 382.84 
z
" clip-path="url(#pae738215a4)" style="fill: #1f77b4"/>
   </g>
   <g id="patch_42">
    <path d="M 172.382785 382.84 
L 174.431381 382.84 
L 174.431381 372.892743 
L 172.382785 372.892743 
z
" clip-path="url(#pae738215a4)" style="fill: #1f77b4"/>
   </g>
   <g id="patch_43">
    <path d="M 174.431381 382.84 
L 176.479977 382.84 
L 176.479977 382.84 
L 174.431381 382.84 
z
" clip-path="url(#pae738215a4)" style="fill: #1f77b4"/>
   </g>
   <g id="patch_44">
    <path d="M 176.479977 382.84 
L 178.528573 382.84 
L 178.528573 382.84 
L 176.479977 382.84 
z
" clip-path="url(#pae738215a4)" style="fill: #1f77b4"/>
   </g>
   <g id="patch_45">
    <path d="M 178.528573 382.84 
L 180.577169 382.84 
L 180.577169 369.272697 
L 178.528573 369.272697 
z
" clip-path="url(#pae738215a4)" style="fill: #1f77b4"/>
   </g>
   <g id="patch_46">
    <path d="M 180.577169 382.84 
L 182.625764 382.84 
L 182.625764 382.84 
L 180.577169 382.84 
z
" clip-path="url(#pae738215a4)" style="fill: #1f77b4"/>
   </g>
   <g id="patch_47">
    <path d="M 182.625764 382.84 
L 184.67436 382.84 
L 184.67436 382.84 
L 182.625764 382.84 
z
" clip-path="url(#pae738215a4)" style="fill: #1f77b4"/>
   </g>
   <g id="patch_48">
    <path d="M 184.67436 382.84 
L 186.722956 382.84 
L 186.722956 365.589694 
L 184.67436 365.589694 
z
" clip-path="url(#pae738215a4)" style="fill: #1f77b4"/>
   </g>
   <g id="patch_49">
    <path d="M 186.722956 382.84 
L 188.771552 382.84 
L 188.771552 382.84 
L 186.722956 382.84 
z
" clip-path="url(#pae738215a4)" style="fill: #1f77b4"/>
   </g>
   <g id="patch_50">
    <path d="M 188.771552 382.84 
L 190.820148 382.84 
L 190.820148 361.528946 
L 188.771552 361.528946 
z
" clip-path="url(#pae738215a4)" style="fill: #1f77b4"/>
   </g>
   <g id="patch_51">
    <path d="M 190.820148 382.84 
L 192.868744 382.84 
L 192.868744 382.84 
L 190.820148 382.84 
z
" clip-path="url(#pae738215a4)" style="fill: #1f77b4"/>
   </g>
   <g id="patch_52">
    <path d="M 192.868744 382.84 
L 194.91734 382.84 
L 194.91734 382.84 
L 192.868744 382.84 
z
" clip-path="url(#pae738215a4)" style="fill: #1f77b4"/>
   </g>
   <g id="patch_53">
    <path d="M 194.91734 382.84 
L 196.965936 382.84 
L 196.965936 357.373763 
L 194.91734 357.373763 
z
" clip-path="url(#pae738215a4)" style="fill: #1f77b4"/>
   </g>
   <g id="patch_54">
    <path d="M 196.965936 382.84 
L 199.014531 382.84 
L 199.014531 382.84 
L 196.965936 382.84 
z
" clip-path="url(#pae738215a4)" style="fill: #1f77b4"/>
   </g>
   <g id="patch_55">
    <path d="M 199.014531 382.84 
L 201.063127 382.84 
L 201.063127 382.84 
L 199.014531 382.84 
z
" clip-path="url(#pae738215a4)" style="fill: #1f77b4"/>
   </g>
   <g id="patch_56">
    <path d="M 201.063127 382.84 
L 203.111723 382.84 
L 203.111723 347.709814 
L 201.063127 347.709814 
z
" clip-path="url(#pae738215a4)" style="fill: #1f77b4"/>
   </g>
   <g id="patch_57">
    <path d="M 203.111723 382.84 
L 205.160319 382.84 
L 205.160319 382.84 
L 203.111723 382.84 
z
" clip-path="url(#pae738215a4)" style="fill: #1f77b4"/>
   </g>
   <g id="patch_58">
    <path d="M 205.160319 382.84 
L 207.208915 382.84 
L 207.208915 342.64175 
L 205.160319 342.64175 
z
" clip-path="url(#pae738215a4)" style="fill: #1f77b4"/>
   </g>
   <g id="patch_59">
    <path d="M 207.208915 382.84 
L 209.257511 382.84 
L 209.257511 382.84 
L 207.208915 382.84 
z
" clip-path="url(#pae738215a4)" style="fill: #1f77b4"/>
   </g>
   <g id="patch_60">
    <path d="M 209.257511 382.84 
L 211.306107 382.84 
L 211.306107 382.84 
L 209.257511 382.84 
z
" clip-path="url(#pae738215a4)" style="fill: #1f77b4"/>
   </g>
   <g id="patch_61">
    <path d="M 211.306107 382.84 
L 213.354703 382.84 
L 213.354703 332.222313 
L 211.306107 332.222313 
z
" clip-path="url(#pae738215a4)" style="fill: #1f77b4"/>
   </g>
   <g id="patch_62">
    <path d="M 213.354703 382.84 
L 215.403298 382.84 
L 215.403298 382.84 
L 213.354703 382.84 
z
" clip-path="url(#pae738215a4)" style="fill: #1f77b4"/>
   </g>
   <g id="patch_63">
    <path d="M 215.403298 382.84 
L 217.451894 382.84 
L 217.451894 382.84 
L 215.403298 382.84 
z
" clip-path="url(#pae738215a4)" style="fill: #1f77b4"/>
   </g>
   <g id="patch_64">
    <path d="M 217.451894 382.84 
L 219.50049 382.84 
L 219.50049 319.59937 
L 217.451894 319.59937 
z
" clip-path="url(#pae738215a4)" style="fill: #1f77b4"/>
   </g>
   <g id="patch_65">
    <path d="M 219.50049 382.84 
L 221.549086 382.84 
L 221.549086 382.84 
L 219.50049 382.84 
z
" clip-path="url(#pae738215a4)" style="fill: #1f77b4"/>
   </g>
   <g id="patch_66">
    <path d="M 221.549086 382.84 
L 223.597682 382.84 
L 223.597682 306.598683 
L 221.549086 306.598683 
z
" clip-path="url(#pae738215a4)" style="fill: #1f77b4"/>
   </g>
   <g id="patch_67">
    <path d="M 223.597682 382.84 
L 225.646278 382.84 
L 225.646278 382.84 
L 223.597682 382.84 
z
" clip-path="url(#pae738215a4)" style="fill: #1f77b4"/>
   </g>
   <g id="patch_68">
    <path d="M 225.646278 382.84 
L 227.694874 382.84 
L 227.694874 382.84 
L 225.646278 382.84 
z
" clip-path="url(#pae738215a4)" style="fill: #1f77b4"/>
   </g>
   <g id="patch_69">
    <path d="M 227.694874 382.84 
L 229.74347 382.84 
L 229.74347 291.363011 
L 227.694874 291.363011 
z
" clip-path="url(#pae738215a4)" style="fill: #1f77b4"/>
   </g>
   <g id="patch_70">
    <path d="M 229.74347 382.84 
L 231.792065 382.84 
L 231.792065 382.84 
L 229.74347 382.84 
z
" clip-path="url(#pae738215a4)" style="fill: #1f77b4"/>
   </g>
   <g id="patch_71">
    <path d="M 231.792065 382.84 
L 233.840661 382.84 
L 233.840661 382.84 
L 231.792065 382.84 
z
" clip-path="url(#pae738215a4)" style="fill: #1f77b4"/>
   </g>
   <g id="patch_72">
    <path d="M 233.840661 382.84 
L 235.889257 382.84 
L 235.889257 273.98679 
L 233.840661 273.98679 
z
" clip-path="url(#pae738215a4)" style="fill: #1f77b4"/>
   </g>
   <g id="patch_73">
    <path d="M 235.889257 382.84 
L 237.937853 382.84 
L 237.937853 382.84 
L 235.889257 382.84 
z
" clip-path="url(#pae738215a4)" style="fill: #1f77b4"/>
   </g>
   <g id="patch_74">
    <path d="M 237.937853 382.84 
L 239.986449 382.84 
L 239.986449 251.353633 
L 237.937853 251.353633 
z
" clip-path="url(#pae738215a4)" style="fill: #1f77b4"/>
   </g>
   <g id="patch_75">
    <path d="M 239.986449 382.84 
L 242.035045 382.84 
L 242.035045 382.84 
L 239.986449 382.84 
z
" clip-path="url(#pae738215a4)" style="fill: #1f77b4"/>
   </g>
   <g id="patch_76">
    <path d="M 242.035045 382.84 
L 244.083641 382.84 
L 244.083641 382.84 
L 242.035045 382.84 
z
" clip-path="url(#pae738215a4)" style="fill: #1f77b4"/>
   </g>
   <g id="patch_77">
    <path d="M 244.083641 382.84 
L 246.132237 382.84 
L 246.132237 236.432747 
L 244.083641 236.432747 
z
" clip-path="url(#pae738215a4)" style="fill: #1f77b4"/>
   </g>
   <g id="patch_78">
    <path d="M 246.132237 382.84 
L 248.180832 382.84 
L 248.180832 382.84 
L 246.132237 382.84 
z
" clip-path="url(#pae738215a4)" style="fill: #1f77b4"/>
   </g>
   <g id="patch_79">
    <path d="M 248.180832 382.84 
L 250.229428 382.84 
L 250.229428 382.84 
L 248.180832 382.84 
z
" clip-path="url(#pae738215a4)" style="fill: #1f77b4"/>
   </g>
   <g id="patch_80">
    <path d="M 250.229428 382.84 
L 252.278024 382.84 
L 252.278024 208.227867 
L 250.229428 208.227867 
z
" clip-path="url(#pae738215a4)" style="fill: #1f77b4"/>
   </g>
   <g id="patch_81">
    <path d="M 252.278024 382.84 
L 254.32662 382.84 
L 254.32662 382.84 
L 252.278024 382.84 
z
" clip-path="url(#pae738215a4)" style="fill: #1f77b4"/>
   </g>
   <g id="patch_82">
    <path d="M 254.32662 382.84 
L 256.375216 382.84 
L 256.375216 188.238917 
L 254.32662 188.238917 
z
" clip-path="url(#pae738215a4)" style="fill: #1f77b4"/>
   </g>
   <g id="patch_83">
    <path d="M 256.375216 382.84 
L 258.423812 382.84 
L 258.423812 382.84 
L 256.375216 382.84 
z
" clip-path="url(#pae738215a4)" style="fill: #1f77b4"/>
   </g>
   <g id="patch_84">
    <path d="M 258.423812 382.84 
L 260.472408 382.84 
L 260.472408 382.84 
L 258.423812 382.84 
z
" clip-path="url(#pae738215a4)" style="fill: #1f77b4"/>
   </g>
   <g id="patch_85">
    <path d="M 260.472408 382.84 
L 262.521004 382.84 
L 262.521004 163.842955 
L 260.472408 163.842955 
z
" clip-path="url(#pae738215a4)" style="fill: #1f77b4"/>
   </g>
   <g id="patch_86">
    <path d="M 262.521004 382.84 
L 264.569599 382.84 
L 264.569599 382.84 
L 262.521004 382.84 
z
" clip-path="url(#pae738215a4)" style="fill: #1f77b4"/>
   </g>
   <g id="patch_87">
    <path d="M 264.569599 382.84 
L 266.618195 382.84 
L 266.618195 382.84 
L 264.569599 382.84 
z
" clip-path="url(#pae738215a4)" style="fill: #1f77b4"/>
   </g>
   <g id="patch_88">
    <path d="M 266.618195 382.84 
L 268.666791 382.84 
L 268.666791 139.982129 
L 266.618195 139.982129 
z
" clip-path="url(#pae738215a4)" style="fill: #1f77b4"/>
   </g>
   <g id="patch_89">
    <path d="M 268.666791 382.84 
L 270.715387 382.84 
L 270.715387 382.84 
L 268.666791 382.84 
z
" clip-path="url(#pae738215a4)" style="fill: #1f77b4"/>
   </g>
   <g id="patch_90">
    <path d="M 270.715387 382.84 
L 272.763983 382.84 
L 272.763983 111.588377 
L 270.715387 111.588377 
z
" clip-path="url(#pae738215a4)" style="fill: #1f77b4"/>
   </g>
   <g id="patch_91">
    <path d="M 272.763983 382.84 
L 274.812579 382.84 
L 274.812579 382.84 
L 272.763983 382.84 
z
" clip-path="url(#pae738215a4)" style="fill: #1f77b4"/>
   </g>
   <g id="patch_92">
    <path d="M 274.812579 382.84 
L 276.861175 382.84 
L 276.861175 382.84 
L 274.812579 382.84 
z
" clip-path="url(#pae738215a4)" style="fill: #1f77b4"/>
   </g>
   <g id="patch_93">
    <path d="M 276.861175 382.84 
L 278.909771 382.84 
L 278.909771 93.110403 
L 276.861175 93.110403 
z
" clip-path="url(#pae738215a4)" style="fill: #1f77b4"/>
   </g>
   <g id="patch_94">
    <path d="M 278.909771 382.84 
L 280.958366 382.84 
L 280.958366 382.84 
L 278.909771 382.84 
z
" clip-path="url(#pae738215a4)" style="fill: #1f77b4"/>
   </g>
   <g id="patch_95">
    <path d="M 280.958366 382.84 
L 283.006962 382.84 
L 283.006962 382.84 
L 280.958366 382.84 
z
" clip-path="url(#pae738215a4)" style="fill: #1f77b4"/>
   </g>
   <g id="patch_96">
    <path d="M 283.006962 382.84 
L 285.055558 382.84 
L 285.055558 68.557047 
L 283.006962 68.557047 
z
" clip-path="url(#pae738215a4)" style="fill: #1f77b4"/>
   </g>
   <g id="patch_97">
    <path d="M 285.055558 382.84 
L 287.104154 382.84 
L 287.104154 382.84 
L 285.055558 382.84 
z
" clip-path="url(#pae738215a4)" style="fill: #1f77b4"/>
   </g>
   <g id="patch_98">
    <path d="M 287.104154 382.84 
L 289.15275 382.84 
L 289.15275 60.939211 
L 287.104154 60.939211 
z
" clip-path="url(#pae738215a4)" style="fill: #1f77b4"/>
   </g>
   <g id="patch_99">
    <path d="M 289.15275 382.84 
L 291.201346 382.84 
L 291.201346 382.84 
L 289.15275 382.84 
z
" clip-path="url(#pae738215a4)" style="fill: #1f77b4"/>
   </g>
   <g id="patch_100">
    <path d="M 291.201346 382.84 
L 293.249942 382.84 
L 293.249942 382.84 
L 291.201346 382.84 
z
" clip-path="url(#pae738215a4)" style="fill: #1f77b4"/>
   </g>
   <g id="patch_101">
    <path d="M 293.249942 382.84 
L 295.298538 382.84 
L 295.298538 37.078386 
L 293.249942 37.078386 
z
" clip-path="url(#pae738215a4)" style="fill: #1f77b4"/>
   </g>
   <g id="patch_102">
    <path d="M 295.298538 382.84 
L 297.347133 382.84 
L 297.347133 382.84 
L 295.298538 382.84 
z
" clip-path="url(#pae738215a4)" style="fill: #1f77b4"/>
   </g>
   <g id="patch_103">
    <path d="M 297.347133 382.84 
L 299.395729 382.84 
L 299.395729 382.84 
L 297.347133 382.84 
z
" clip-path="url(#pae738215a4)" style="fill: #1f77b4"/>
   </g>
   <g id="patch_104">
    <path d="M 299.395729 382.84 
L 301.444325 382.84 
L 301.444325 33.395383 
L 299.395729 33.395383 
z
" clip-path="url(#pae738215a4)" style="fill: #1f77b4"/>
   </g>
   <g id="patch_105">
    <path d="M 301.444325 382.84 
L 303.492921 382.84 
L 303.492921 382.84 
L 301.444325 382.84 
z
" clip-path="url(#pae738215a4)" style="fill: #1f77b4"/>
   </g>
   <g id="patch_106">
    <path d="M 303.492921 382.84 
L 305.541517 382.84 
L 305.541517 28.51619 
L 303.492921 28.51619 
z
" clip-path="url(#pae738215a4)" style="fill: #1f77b4"/>
   </g>
   <g id="patch_107">
    <path d="M 305.541517 382.84 
L 307.590113 382.84 
L 307.590113 382.84 
L 305.541517 382.84 
z
" clip-path="url(#pae738215a4)" style="fill: #1f77b4"/>
   </g>
   <g id="patch_108">
    <path d="M 307.590113 382.84 
L 309.638709 382.84 
L 309.638709 382.84 
L 307.590113 382.84 
z
" clip-path="url(#pae738215a4)" style="fill: #1f77b4"/>
   </g>
   <g id="patch_109">
    <path d="M 309.638709 382.84 
L 311.687305 382.84 
L 311.687305 32.356587 
L 309.638709 32.356587 
z
" clip-path="url(#pae738215a4)" style="fill: #1f77b4"/>
   </g>
   <g id="patch_110">
    <path d="M 311.687305 382.84 
L 313.7359 382.84 
L 313.7359 382.84 
L 311.687305 382.84 
z
" clip-path="url(#pae738215a4)" style="fill: #1f77b4"/>
   </g>
   <g id="patch_111">
    <path d="M 313.7359 382.84 
L 315.784496 382.84 
L 315.784496 382.84 
L 313.7359 382.84 
z
" clip-path="url(#pae738215a4)" style="fill: #1f77b4"/>
   </g>
   <g id="patch_112">
    <path d="M 315.784496 382.84 
L 317.833092 382.84 
L 317.833092 38.494926 
L 315.784496 38.494926 
z
" clip-path="url(#pae738215a4)" style="fill: #1f77b4"/>
   </g>
   <g id="patch_113">
    <path d="M 317.833092 382.84 
L 319.881688 382.84 
L 319.881688 382.84 
L 317.833092 382.84 
z
" clip-path="url(#pae738215a4)" style="fill: #1f77b4"/>
   </g>
   <g id="patch_114">
    <path d="M 319.881688 382.84 
L 321.930284 382.84 
L 321.930284 45.577625 
L 319.881688 45.577625 
z
" clip-path="url(#pae738215a4)" style="fill: #1f77b4"/>
   </g>
   <g id="patch_115">
    <path d="M 321.930284 382.84 
L 323.97888 382.84 
L 323.97888 382.84 
L 321.930284 382.84 
z
" clip-path="url(#pae738215a4)" style="fill: #1f77b4"/>
   </g>
   <g id="patch_116">
    <path d="M 323.97888 382.84 
L 326.027476 382.84 
L 326.027476 382.84 
L 323.97888 382.84 
z
" clip-path="url(#pae738215a4)" style="fill: #1f77b4"/>
   </g>
   <g id="patch_117">
    <path d="M 326.027476 382.84 
L 328.076072 382.84 
L 328.076072 54.013906 
L 326.027476 54.013906 
z
" clip-path="url(#pae738215a4)" style="fill: #1f77b4"/>
   </g>
   <g id="patch_118">
    <path d="M 328.076072 382.84 
L 330.124667 382.84 
L 330.124667 382.84 
L 328.076072 382.84 
z
" clip-path="url(#pae738215a4)" style="fill: #1f77b4"/>
   </g>
   <g id="patch_119">
    <path d="M 330.124667 382.84 
L 332.173263 382.84 
L 332.173263 382.84 
L 330.124667 382.84 
z
" clip-path="url(#pae738215a4)" style="fill: #1f77b4"/>
   </g>
   <g id="patch_120">
    <path d="M 332.173263 382.84 
L 334.221859 382.84 
L 334.221859 64.4963 
L 332.173263 64.4963 
z
" clip-path="url(#pae738215a4)" style="fill: #1f77b4"/>
   </g>
   <g id="patch_121">
    <path d="M 334.221859 382.84 
L 336.270455 382.84 
L 336.270455 382.84 
L 334.221859 382.84 
z
" clip-path="url(#pae738215a4)" style="fill: #1f77b4"/>
   </g>
   <g id="patch_122">
    <path d="M 336.270455 382.84 
L 338.319051 382.84 
L 338.319051 90.214366 
L 336.270455 90.214366 
z
" clip-path="url(#pae738215a4)" style="fill: #1f77b4"/>
   </g>
   <g id="patch_123">
    <path d="M 338.319051 382.84 
L 340.367647 382.84 
L 340.367647 382.84 
L 338.319051 382.84 
z
" clip-path="url(#pae738215a4)" style="fill: #1f77b4"/>
   </g>
   <g id="patch_124">
    <path d="M 340.367647 382.84 
L 342.416243 382.84 
L 342.416243 382.84 
L 340.367647 382.84 
z
" clip-path="url(#pae738215a4)" style="fill: #1f77b4"/>
   </g>
   <g id="patch_125">
    <path d="M 342.416243 382.84 
L 344.464839 382.84 
L 344.464839 114.012234 
L 342.416243 114.012234 
z
" clip-path="url(#pae738215a4)" style="fill: #1f77b4"/>
   </g>
   <g id="patch_126">
    <path d="M 344.464839 382.84 
L 346.513434 382.84 
L 346.513434 382.84 
L 344.464839 382.84 
z
" clip-path="url(#pae738215a4)" style="fill: #1f77b4"/>
   </g>
   <g id="patch_127">
    <path d="M 346.513434 382.84 
L 348.56203 382.84 
L 348.56203 382.84 
L 346.513434 382.84 
z
" clip-path="url(#pae738215a4)" style="fill: #1f77b4"/>
   </g>
   <g id="patch_128">
    <path d="M 348.56203 382.84 
L 350.610626 382.84 
L 350.610626 130.381138 
L 348.56203 130.381138 
z
" clip-path="url(#pae738215a4)" style="fill: #1f77b4"/>
   </g>
   <g id="patch_129">
    <path d="M 350.610626 382.84 
L 352.659222 382.84 
L 352.659222 382.84 
L 350.610626 382.84 
z
" clip-path="url(#pae738215a4)" style="fill: #1f77b4"/>
   </g>
   <g id="patch_130">
    <path d="M 352.659222 382.84 
L 354.707818 382.84 
L 354.707818 156.130683 
L 352.659222 156.130683 
z
" clip-path="url(#pae738215a4)" style="fill: #1f77b4"/>
   </g>
   <g id="patch_131">
    <path d="M 354.707818 382.84 
L 356.756414 382.84 
L 356.756414 382.84 
L 354.707818 382.84 
z
" clip-path="url(#pae738215a4)" style="fill: #1f77b4"/>
   </g>
   <g id="patch_132">
    <path d="M 356.756414 382.84 
L 358.80501 382.84 
L 358.80501 382.84 
L 356.756414 382.84 
z
" clip-path="url(#pae738215a4)" style="fill: #1f77b4"/>
   </g>
   <g id="patch_133">
    <path d="M 358.80501 382.84 
L 360.853605 382.84 
L 360.853605 172.121842 
L 358.80501 172.121842 
z
" clip-path="url(#pae738215a4)" style="fill: #1f77b4"/>
   </g>
   <g id="patch_134">
    <path d="M 360.853605 382.84 
L 362.902201 382.84 
L 362.902201 382.84 
L 360.853605 382.84 
z
" clip-path="url(#pae738215a4)" style="fill: #1f77b4"/>
   </g>
   <g id="patch_135">
    <path d="M 362.902201 382.84 
L 364.950797 382.84 
L 364.950797 382.84 
L 362.902201 382.84 
z
" clip-path="url(#pae738215a4)" style="fill: #1f77b4"/>
   </g>
   <g id="patch_136">
    <path d="M 364.950797 382.84 
L 366.999393 382.84 
L 366.999393 201.648827 
L 364.950797 201.648827 
z
" clip-path="url(#pae738215a4)" style="fill: #1f77b4"/>
   </g>
   <g id="patch_137">
    <path d="M 366.999393 382.84 
L 369.047989 382.84 
L 369.047989 382.84 
L 366.999393 382.84 
z
" clip-path="url(#pae738215a4)" style="fill: #1f77b4"/>
   </g>
   <g id="patch_138">
    <path d="M 369.047989 382.84 
L 371.096585 382.84 
L 371.096585 220.37863 
L 369.047989 220.37863 
z
" clip-path="url(#pae738215a4)" style="fill: #1f77b4"/>
   </g>
   <g id="patch_139">
    <path d="M 371.096585 382.84 
L 373.145181 382.84 
L 373.145181 382.84 
L 371.096585 382.84 
z
" clip-path="url(#pae738215a4)" style="fill: #1f77b4"/>
   </g>
   <g id="patch_140">
    <path d="M 373.145181 382.84 
L 375.193777 382.84 
L 375.193777 382.84 
L 373.145181 382.84 
z
" clip-path="url(#pae738215a4)" style="fill: #1f77b4"/>
   </g>
   <g id="patch_141">
    <path d="M 375.193777 382.84 
L 377.242372 382.84 
L 377.242372 240.871238 
L 375.193777 240.871238 
z
" clip-path="url(#pae738215a4)" style="fill: #1f77b4"/>
   </g>
   <g id="patch_142">
    <path d="M 377.242372 382.84 
L 379.290968 382.84 
L 379.290968 382.84 
L 377.242372 382.84 
z
" clip-path="url(#pae738215a4)" style="fill: #1f77b4"/>
   </g>
   <g id="patch_143">
    <path d="M 379.290968 382.84 
L 381.339564 382.84 
L 381.339564 382.84 
L 379.290968 382.84 
z
" clip-path="url(#pae738215a4)" style="fill: #1f77b4"/>
   </g>
   <g id="patch_144">
    <path d="M 381.339564 382.84 
L 383.38816 382.84 
L 383.38816 258.751118 
L 381.339564 258.751118 
z
" clip-path="url(#pae738215a4)" style="fill: #1f77b4"/>
   </g>
   <g id="patch_145">
    <path d="M 383.38816 382.84 
L 385.436756 382.84 
L 385.436756 382.84 
L 383.38816 382.84 
z
" clip-path="url(#pae738215a4)" style="fill: #1f77b4"/>
   </g>
   <g id="patch_146">
    <path d="M 385.436756 382.84 
L 387.485352 382.84 
L 387.485352 270.335265 
L 385.436756 270.335265 
z
" clip-path="url(#pae738215a4)" style="fill: #1f77b4"/>
   </g>
   <g id="patch_147">
    <path d="M 387.485352 382.84 
L 389.533948 382.84 
L 389.533948 382.84 
L 387.485352 382.84 
z
" clip-path="url(#pae738215a4)" style="fill: #1f77b4"/>
   </g>
   <g id="patch_148">
    <path d="M 389.533948 382.84 
L 391.582544 382.84 
L 391.582544 382.84 
L 389.533948 382.84 
z
" clip-path="url(#pae738215a4)" style="fill: #1f77b4"/>
   </g>
   <g id="patch_149">
    <path d="M 391.582544 382.84 
L 393.631139 382.84 
L 393.631139 284.185876 
L 391.582544 284.185876 
z
" clip-path="url(#pae738215a4)" style="fill: #1f77b4"/>
   </g>
   <g id="patch_150">
    <path d="M 393.631139 382.84 
L 395.679735 382.84 
L 395.679735 382.84 
L 393.631139 382.84 
z
" clip-path="url(#pae738215a4)" style="fill: #1f77b4"/>
   </g>
   <g id="patch_151">
    <path d="M 395.679735 382.84 
L 397.728331 382.84 
L 397.728331 382.84 
L 395.679735 382.84 
z
" clip-path="url(#pae738215a4)" style="fill: #1f77b4"/>
   </g>
   <g id="patch_152">
    <path d="M 397.728331 382.84 
L 399.776927 382.84 
L 399.776927 303.482295 
L 397.728331 303.482295 
z
" clip-path="url(#pae738215a4)" style="fill: #1f77b4"/>
   </g>
   <g id="patch_153">
    <path d="M 399.776927 382.84 
L 401.825523 382.84 
L 401.825523 382.84 
L 399.776927 382.84 
z
" clip-path="url(#pae738215a4)" style="fill: #1f77b4"/>
   </g>
   <g id="patch_154">
    <path d="M 401.825523 382.84 
L 403.874119 382.84 
L 403.874119 312.138927 
L 401.825523 312.138927 
z
" clip-path="url(#pae738215a4)" style="fill: #1f77b4"/>
   </g>
   <g id="patch_155">
    <path d="M 403.874119 382.84 
L 405.922715 382.84 
L 405.922715 382.84 
L 403.874119 382.84 
z
" clip-path="url(#pae738215a4)" style="fill: #1f77b4"/>
   </g>
   <g id="patch_156">
    <path d="M 405.922715 382.84 
L 407.971311 382.84 
L 407.971311 382.84 
L 405.922715 382.84 
z
" clip-path="url(#pae738215a4)" style="fill: #1f77b4"/>
   </g>
   <g id="patch_157">
    <path d="M 407.971311 382.84 
L 410.019906 382.84 
L 410.019906 321.70844 
L 407.971311 321.70844 
z
" clip-path="url(#pae738215a4)" style="fill: #1f77b4"/>
   </g>
   <g id="patch_158">
    <path d="M 410.019906 382.84 
L 412.068502 382.84 
L 412.068502 382.84 
L 410.019906 382.84 
z
" clip-path="url(#pae738215a4)" style="fill: #1f77b4"/>
   </g>
   <g id="patch_159">
    <path d="M 412.068502 382.84 
L 414.117098 382.84 
L 414.117098 382.84 
L 412.068502 382.84 
z
" clip-path="url(#pae738215a4)" style="fill: #1f77b4"/>
   </g>
   <g id="patch_160">
    <path d="M 414.117098 382.84 
L 416.165694 382.84 
L 416.165694 330.207679 
L 414.117098 330.207679 
z
" clip-path="url(#pae738215a4)" style="fill: #1f77b4"/>
   </g>
   <g id="patch_161">
    <path d="M 416.165694 382.84 
L 418.21429 382.84 
L 418.21429 382.84 
L 416.165694 382.84 
z
" clip-path="url(#pae738215a4)" style="fill: #1f77b4"/>
   </g>
   <g id="patch_162">
    <path d="M 418.21429 382.84 
L 420.262886 382.84 
L 420.262886 337.070027 
L 418.21429 337.070027 
z
" clip-path="url(#pae738215a4)" style="fill: #1f77b4"/>
   </g>
   <g id="patch_163">
    <path d="M 420.262886 382.84 
L 422.311482 382.84 
L 422.311482 382.84 
L 420.262886 382.84 
z
" clip-path="url(#pae738215a4)" style="fill: #1f77b4"/>
   </g>
   <g id="patch_164">
    <path d="M 422.311482 382.84 
L 424.360078 382.84 
L 424.360078 382.84 
L 422.311482 382.84 
z
" clip-path="url(#pae738215a4)" style="fill: #1f77b4"/>
   </g>
   <g id="patch_165">
    <path d="M 424.360078 382.84 
L 426.408673 382.84 
L 426.408673 343.80646 
L 424.360078 343.80646 
z
" clip-path="url(#pae738215a4)" style="fill: #1f77b4"/>
   </g>
   <g id="patch_166">
    <path d="M 426.408673 382.84 
L 428.457269 382.84 
L 428.457269 382.84 
L 426.408673 382.84 
z
" clip-path="url(#pae738215a4)" style="fill: #1f77b4"/>
   </g>
   <g id="patch_167">
    <path d="M 428.457269 382.84 
L 430.505865 382.84 
L 430.505865 382.84 
L 428.457269 382.84 
z
" clip-path="url(#pae738215a4)" style="fill: #1f77b4"/>
   </g>
   <g id="patch_168">
    <path d="M 430.505865 382.84 
L 432.554461 382.84 
L 432.554461 348.496781 
L 430.505865 348.496781 
z
" clip-path="url(#pae738215a4)" style="fill: #1f77b4"/>
   </g>
   <g id="patch_169">
    <path d="M 432.554461 382.84 
L 434.603057 382.84 
L 434.603057 382.84 
L 432.554461 382.84 
z
" clip-path="url(#pae738215a4)" style="fill: #1f77b4"/>
   </g>
   <g id="patch_170">
    <path d="M 434.603057 382.84 
L 436.651653 382.84 
L 436.651653 356.397925 
L 434.603057 356.397925 
z
" clip-path="url(#pae738215a4)" style="fill: #1f77b4"/>
   </g>
   <g id="patch_171">
    <path d="M 436.651653 382.84 
L 438.700249 382.84 
L 438.700249 382.84 
L 436.651653 382.84 
z
" clip-path="url(#pae738215a4)" style="fill: #1f77b4"/>
   </g>
   <g id="patch_172">
    <path d="M 438.700249 382.84 
L 440.748845 382.84 
L 440.748845 382.84 
L 438.700249 382.84 
z
" clip-path="url(#pae738215a4)" style="fill: #1f77b4"/>
   </g>
   <g id="patch_173">
    <path d="M 440.748845 382.84 
L 442.79744 382.84 
L 442.79744 359.640227 
L 440.748845 359.640227 
z
" clip-path="url(#pae738215a4)" style="fill: #1f77b4"/>
   </g>
   <g id="patch_174">
    <path d="M 442.79744 382.84 
L 444.846036 382.84 
L 444.846036 382.84 
L 442.79744 382.84 
z
" clip-path="url(#pae738215a4)" style="fill: #1f77b4"/>
   </g>
   <g id="patch_175">
    <path d="M 444.846036 382.84 
L 446.894632 382.84 
L 446.894632 382.84 
L 444.846036 382.84 
z
" clip-path="url(#pae738215a4)" style="fill: #1f77b4"/>
   </g>
   <g id="patch_176">
    <path d="M 446.894632 382.84 
L 448.943228 382.84 
L 448.943228 364.802727 
L 446.894632 364.802727 
z
" clip-path="url(#pae738215a4)" style="fill: #1f77b4"/>
   </g>
   <g id="patch_177">
    <path d="M 448.943228 382.84 
L 450.991824 382.84 
L 450.991824 382.84 
L 448.943228 382.84 
z
" clip-path="url(#pae738215a4)" style="fill: #1f77b4"/>
   </g>
   <g id="patch_178">
    <path d="M 450.991824 382.84 
L 453.04042 382.84 
L 453.04042 369.461569 
L 450.991824 369.461569 
z
" clip-path="url(#pae738215a4)" style="fill: #1f77b4"/>
   </g>
   <g id="patch_179">
    <path d="M 453.04042 382.84 
L 455.089016 382.84 
L 455.089016 382.84 
L 453.04042 382.84 
z
" clip-path="url(#pae738215a4)" style="fill: #1f77b4"/>
   </g>
   <g id="patch_180">
    <path d="M 455.089016 382.84 
L 457.137612 382.84 
L 457.137612 382.84 
L 455.089016 382.84 
z
" clip-path="url(#pae738215a4)" style="fill: #1f77b4"/>
   </g>
   <g id="patch_181">
    <path d="M 457.137612 382.84 
L 459.186207 382.84 
L 459.186207 371.633597 
L 457.137612 371.633597 
z
" clip-path="url(#pae738215a4)" style="fill: #1f77b4"/>
   </g>
   <g id="patch_182">
    <path d="M 459.186207 382.84 
L 461.234803 382.84 
L 461.234803 382.84 
L 459.186207 382.84 
z
" clip-path="url(#pae738215a4)" style="fill: #1f77b4"/>
   </g>
   <g id="patch_183">
    <path d="M 461.234803 382.84 
L 463.283399 382.84 
L 463.283399 382.84 
L 461.234803 382.84 
z
" clip-path="url(#pae738215a4)" style="fill: #1f77b4"/>
   </g>
   <g id="patch_184">
    <path d="M 463.283399 382.84 
L 465.331995 382.84 
L 465.331995 375.883216 
L 463.283399 375.883216 
z
" clip-path="url(#pae738215a4)" style="fill: #1f77b4"/>
   </g>
   <g id="patch_185">
    <path d="M 465.331995 382.84 
L 467.380591 382.84 
L 467.380591 382.84 
L 465.331995 382.84 
z
" clip-path="url(#pae738215a4)" style="fill: #1f77b4"/>
   </g>
   <g id="patch_186">
    <path d="M 467.380591 382.84 
L 469.429187 382.84 
L 469.429187 376.135045 
L 467.380591 376.135045 
z
" clip-path="url(#pae738215a4)" style="fill: #1f77b4"/>
   </g>
   <g id="patch_187">
    <path d="M 469.429187 382.84 
L 471.477783 382.84 
L 471.477783 382.84 
L 469.429187 382.84 
z
" clip-path="url(#pae738215a4)" style="fill: #1f77b4"/>
   </g>
   <g id="patch_188">
    <path d="M 471.477783 382.84 
L 473.526379 382.84 
L 473.526379 382.84 
L 471.477783 382.84 
z
" clip-path="url(#pae738215a4)" style="fill: #1f77b4"/>
   </g>
   <g id="patch_189">
    <path d="M 473.526379 382.84 
L 475.574974 382.84 
L 475.574974 378.999603 
L 473.526379 378.999603 
z
" clip-path="url(#pae738215a4)" style="fill: #1f77b4"/>
   </g>
   <g id="patch_190">
    <path d="M 475.574974 382.84 
L 477.62357 382.84 
L 477.62357 382.84 
L 475.574974 382.84 
z
" clip-path="url(#pae738215a4)" style="fill: #1f77b4"/>
   </g>
   <g id="patch_191">
    <path d="M 477.62357 382.84 
L 479.672166 382.84 
L 479.672166 382.84 
L 477.62357 382.84 
z
" clip-path="url(#pae738215a4)" style="fill: #1f77b4"/>
   </g>
   <g id="patch_192">
    <path d="M 479.672166 382.84 
L 481.720762 382.84 
L 481.720762 380.416143 
L 479.672166 380.416143 
z
" clip-path="url(#pae738215a4)" style="fill: #1f77b4"/>
   </g>
   <g id="patch_193">
    <path d="M 481.720762 382.84 
L 483.769358 382.84 
L 483.769358 382.84 
L 481.720762 382.84 
z
" clip-path="url(#pae738215a4)" style="fill: #1f77b4"/>
   </g>
   <g id="patch_194">
    <path d="M 483.769358 382.84 
L 485.817954 382.84 
L 485.817954 380.699451 
L 483.769358 380.699451 
z
" clip-path="url(#pae738215a4)" style="fill: #1f77b4"/>
   </g>
   <g id="patch_195">
    <path d="M 485.817954 382.84 
L 487.86655 382.84 
L 487.86655 382.84 
L 485.817954 382.84 
z
" clip-path="url(#pae738215a4)" style="fill: #1f77b4"/>
   </g>
   <g id="patch_196">
    <path d="M 487.86655 382.84 
L 489.915146 382.84 
L 489.915146 382.84 
L 487.86655 382.84 
z
" clip-path="url(#pae738215a4)" style="fill: #1f77b4"/>
   </g>
   <g id="patch_197">
    <path d="M 489.915146 382.84 
L 491.963741 382.84 
L 491.963741 381.171631 
L 489.915146 381.171631 
z
" clip-path="url(#pae738215a4)" style="fill: #1f77b4"/>
   </g>
   <g id="patch_198">
    <path d="M 491.963741 382.84 
L 494.012337 382.84 
L 494.012337 382.84 
L 491.963741 382.84 
z
" clip-path="url(#pae738215a4)" style="fill: #1f77b4"/>
   </g>
   <g id="patch_199">
    <path d="M 494.012337 382.84 
L 496.060933 382.84 
L 496.060933 382.84 
L 494.012337 382.84 
z
" clip-path="url(#pae738215a4)" style="fill: #1f77b4"/>
   </g>
   <g id="patch_200">
    <path d="M 496.060933 382.84 
L 498.109529 382.84 
L 498.109529 382.178948 
L 496.060933 382.178948 
z
" clip-path="url(#pae738215a4)" style="fill: #1f77b4"/>
   </g>
   <g id="patch_201">
    <path d="M 498.109529 382.84 
L 500.158125 382.84 
L 500.158125 382.84 
L 498.109529 382.84 
z
" clip-path="url(#pae738215a4)" style="fill: #1f77b4"/>
   </g>
   <g id="patch_202">
    <path d="M 500.158125 382.84 
L 502.206721 382.84 
L 502.206721 382.178948 
L 500.158125 382.178948 
z
" clip-path="url(#pae738215a4)" style="fill: #1f77b4"/>
   </g>
   <g id="patch_203">
    <path d="M 502.206721 382.84 
L 504.255317 382.84 
L 504.255317 382.84 
L 502.206721 382.84 
z
" clip-path="url(#pae738215a4)" style="fill: #1f77b4"/>
   </g>
   <g id="patch_204">
    <path d="M 504.255317 382.84 
L 506.303913 382.84 
L 506.303913 382.84 
L 504.255317 382.84 
z
" clip-path="url(#pae738215a4)" style="fill: #1f77b4"/>
   </g>
   <g id="patch_205">
    <path d="M 506.303913 382.84 
L 508.352508 382.84 
L 508.352508 382.430777 
L 506.303913 382.430777 
z
" clip-path="url(#pae738215a4)" style="fill: #1f77b4"/>
   </g>
   <g id="patch_206">
    <path d="M 508.352508 382.84 
L 510.401104 382.84 
L 510.401104 382.84 
L 508.352508 382.84 
z
" clip-path="url(#pae738215a4)" style="fill: #1f77b4"/>
   </g>
   <g id="patch_207">
    <path d="M 510.401104 382.84 
L 512.4497 382.84 
L 512.4497 382.84 
L 510.401104 382.84 
z
" clip-path="url(#pae738215a4)" style="fill: #1f77b4"/>
   </g>
   <g id="patch_208">
    <path d="M 512.4497 382.84 
L 514.498296 382.84 
L 514.498296 382.525213 
L 512.4497 382.525213 
z
" clip-path="url(#pae738215a4)" style="fill: #1f77b4"/>
   </g>
   <g id="patch_209">
    <path d="M 514.498296 382.84 
L 516.546892 382.84 
L 516.546892 382.84 
L 514.498296 382.84 
z
" clip-path="url(#pae738215a4)" style="fill: #1f77b4"/>
   </g>
   <g id="patch_210">
    <path d="M 516.546892 382.84 
L 518.595488 382.84 
L 518.595488 382.714085 
L 516.546892 382.714085 
z
" clip-path="url(#pae738215a4)" style="fill: #1f77b4"/>
   </g>
   <g id="patch_211">
    <path d="M 518.595488 382.84 
L 520.644084 382.84 
L 520.644084 382.84 
L 518.595488 382.84 
z
" clip-path="url(#pae738215a4)" style="fill: #1f77b4"/>
   </g>
   <g id="patch_212">
    <path d="M 520.644084 382.84 
L 522.69268 382.84 
L 522.69268 382.84 
L 520.644084 382.84 
z
" clip-path="url(#pae738215a4)" style="fill: #1f77b4"/>
   </g>
   <g id="patch_213">
    <path d="M 522.69268 382.84 
L 524.741275 382.84 
L 524.741275 382.682607 
L 522.69268 382.682607 
z
" clip-path="url(#pae738215a4)" style="fill: #1f77b4"/>
   </g>
   <g id="patch_214">
    <path d="M 524.741275 382.84 
L 526.789871 382.84 
L 526.789871 382.84 
L 524.741275 382.84 
z
" clip-path="url(#pae738215a4)" style="fill: #1f77b4"/>
   </g>
   <g id="patch_215">
    <path d="M 526.789871 382.84 
L 528.838467 382.84 
L 528.838467 382.777043 
L 526.789871 382.777043 
z
" clip-path="url(#pae738215a4)" style="fill: #1f77b4"/>
   </g>
   <g id="matplotlib.axis_1">
    <g id="xtick_1">
     <g id="line2d_1">
      <defs>
       <path id="ma2f692943f" d="M 0 0 
L 0 3.5 
" style="stroke: #000000; stroke-width: 0.8"/>
      </defs>
      <g>
       <use xlink:href="#ma2f692943f" x="103.396319" y="382.84" style="stroke: #000000; stroke-width: 0.8"/>
      </g>
     </g>
     <g id="text_1">
      <!-- −12 -->
      <g transform="translate(92.843975 397.438438) scale(0.1 -0.1)">
       <defs>
        <path id="DejaVuSans-2212" d="M 678 2272 
L 4684 2272 
L 4684 1741 
L 678 1741 
L 678 2272 
z
" transform="scale(0.015625)"/>
        <path id="DejaVuSans-31" d="M 794 531 
L 1825 531 
L 1825 4091 
L 703 3866 
L 703 4441 
L 1819 4666 
L 2450 4666 
L 2450 531 
L 3481 531 
L 3481 0 
L 794 0 
L 794 531 
z
" transform="scale(0.015625)"/>
        <path id="DejaVuSans-32" d="M 1228 531 
L 3431 531 
L 3431 0 
L 469 0 
L 469 531 
Q 828 903 1448 1529 
Q 2069 2156 2228 2338 
Q 2531 2678 2651 2914 
Q 2772 3150 2772 3378 
Q 2772 3750 2511 3984 
Q 2250 4219 1831 4219 
Q 1534 4219 1204 4116 
Q 875 4013 500 3803 
L 500 4441 
Q 881 4594 1212 4672 
Q 1544 4750 1819 4750 
Q 2544 4750 2975 4387 
Q 3406 4025 3406 3419 
Q 3406 3131 3298 2873 
Q 3191 2616 2906 2266 
Q 2828 2175 2409 1742 
Q 1991 1309 1228 531 
z
" transform="scale(0.015625)"/>
       </defs>
       <use xlink:href="#DejaVuSans-2212"/>
       <use xlink:href="#DejaVuSans-31" x="83.789062"/>
       <use xlink:href="#DejaVuSans-32" x="147.412109"/>
      </g>
     </g>
    </g>
    <g id="xtick_2">
     <g id="line2d_2">
      <g>
       <use xlink:href="#ma2f692943f" x="157.940184" y="382.84" style="stroke: #000000; stroke-width: 0.8"/>
      </g>
     </g>
     <g id="text_2">
      <!-- −11 -->
      <g transform="translate(147.38784 397.438438) scale(0.1 -0.1)">
       <use xlink:href="#DejaVuSans-2212"/>
       <use xlink:href="#DejaVuSans-31" x="83.789062"/>
       <use xlink:href="#DejaVuSans-31" x="147.412109"/>
      </g>
     </g>
    </g>
    <g id="xtick_3">
     <g id="line2d_3">
      <g>
       <use xlink:href="#ma2f692943f" x="212.484049" y="382.84" style="stroke: #000000; stroke-width: 0.8"/>
      </g>
     </g>
     <g id="text_3">
      <!-- −10 -->
      <g transform="translate(201.931706 397.438438) scale(0.1 -0.1)">
       <defs>
        <path id="DejaVuSans-30" d="M 2034 4250 
Q 1547 4250 1301 3770 
Q 1056 3291 1056 2328 
Q 1056 1369 1301 889 
Q 1547 409 2034 409 
Q 2525 409 2770 889 
Q 3016 1369 3016 2328 
Q 3016 3291 2770 3770 
Q 2525 4250 2034 4250 
z
M 2034 4750 
Q 2819 4750 3233 4129 
Q 3647 3509 3647 2328 
Q 3647 1150 3233 529 
Q 2819 -91 2034 -91 
Q 1250 -91 836 529 
Q 422 1150 422 2328 
Q 422 3509 836 4129 
Q 1250 4750 2034 4750 
z
" transform="scale(0.015625)"/>
       </defs>
       <use xlink:href="#DejaVuSans-2212"/>
       <use xlink:href="#DejaVuSans-31" x="83.789062"/>
       <use xlink:href="#DejaVuSans-30" x="147.412109"/>
      </g>
     </g>
    </g>
    <g id="xtick_4">
     <g id="line2d_4">
      <g>
       <use xlink:href="#ma2f692943f" x="267.027914" y="382.84" style="stroke: #000000; stroke-width: 0.8"/>
      </g>
     </g>
     <g id="text_4">
      <!-- −9 -->
      <g transform="translate(259.656821 397.438438) scale(0.1 -0.1)">
       <defs>
        <path id="DejaVuSans-39" d="M 703 97 
L 703 672 
Q 941 559 1184 500 
Q 1428 441 1663 441 
Q 2288 441 2617 861 
Q 2947 1281 2994 2138 
Q 2813 1869 2534 1725 
Q 2256 1581 1919 1581 
Q 1219 1581 811 2004 
Q 403 2428 403 3163 
Q 403 3881 828 4315 
Q 1253 4750 1959 4750 
Q 2769 4750 3195 4129 
Q 3622 3509 3622 2328 
Q 3622 1225 3098 567 
Q 2575 -91 1691 -91 
Q 1453 -91 1209 -44 
Q 966 3 703 97 
z
M 1959 2075 
Q 2384 2075 2632 2365 
Q 2881 2656 2881 3163 
Q 2881 3666 2632 3958 
Q 2384 4250 1959 4250 
Q 1534 4250 1286 3958 
Q 1038 3666 1038 3163 
Q 1038 2656 1286 2365 
Q 1534 2075 1959 2075 
z
" transform="scale(0.015625)"/>
       </defs>
       <use xlink:href="#DejaVuSans-2212"/>
       <use xlink:href="#DejaVuSans-39" x="83.789062"/>
      </g>
     </g>
    </g>
    <g id="xtick_5">
     <g id="line2d_5">
      <g>
       <use xlink:href="#ma2f692943f" x="321.57178" y="382.84" style="stroke: #000000; stroke-width: 0.8"/>
      </g>
     </g>
     <g id="text_5">
      <!-- −8 -->
      <g transform="translate(314.200686 397.438438) scale(0.1 -0.1)">
       <defs>
        <path id="DejaVuSans-38" d="M 2034 2216 
Q 1584 2216 1326 1975 
Q 1069 1734 1069 1313 
Q 1069 891 1326 650 
Q 1584 409 2034 409 
Q 2484 409 2743 651 
Q 3003 894 3003 1313 
Q 3003 1734 2745 1975 
Q 2488 2216 2034 2216 
z
M 1403 2484 
Q 997 2584 770 2862 
Q 544 3141 544 3541 
Q 544 4100 942 4425 
Q 1341 4750 2034 4750 
Q 2731 4750 3128 4425 
Q 3525 4100 3525 3541 
Q 3525 3141 3298 2862 
Q 3072 2584 2669 2484 
Q 3125 2378 3379 2068 
Q 3634 1759 3634 1313 
Q 3634 634 3220 271 
Q 2806 -91 2034 -91 
Q 1263 -91 848 271 
Q 434 634 434 1313 
Q 434 1759 690 2068 
Q 947 2378 1403 2484 
z
M 1172 3481 
Q 1172 3119 1398 2916 
Q 1625 2713 2034 2713 
Q 2441 2713 2670 2916 
Q 2900 3119 2900 3481 
Q 2900 3844 2670 4047 
Q 2441 4250 2034 4250 
Q 1625 4250 1398 4047 
Q 1172 3844 1172 3481 
z
" transform="scale(0.015625)"/>
       </defs>
       <use xlink:href="#DejaVuSans-2212"/>
       <use xlink:href="#DejaVuSans-38" x="83.789062"/>
      </g>
     </g>
    </g>
    <g id="xtick_6">
     <g id="line2d_6">
      <g>
       <use xlink:href="#ma2f692943f" x="376.115645" y="382.84" style="stroke: #000000; stroke-width: 0.8"/>
      </g>
     </g>
     <g id="text_6">
      <!-- −7 -->
      <g transform="translate(368.744551 397.438438) scale(0.1 -0.1)">
       <defs>
        <path id="DejaVuSans-37" d="M 525 4666 
L 3525 4666 
L 3525 4397 
L 1831 0 
L 1172 0 
L 2766 4134 
L 525 4134 
L 525 4666 
z
" transform="scale(0.015625)"/>
       </defs>
       <use xlink:href="#DejaVuSans-2212"/>
       <use xlink:href="#DejaVuSans-37" x="83.789062"/>
      </g>
     </g>
    </g>
    <g id="xtick_7">
     <g id="line2d_7">
      <g>
       <use xlink:href="#ma2f692943f" x="430.65951" y="382.84" style="stroke: #000000; stroke-width: 0.8"/>
      </g>
     </g>
     <g id="text_7">
      <!-- −6 -->
      <g transform="translate(423.288416 397.438438) scale(0.1 -0.1)">
       <defs>
        <path id="DejaVuSans-36" d="M 2113 2584 
Q 1688 2584 1439 2293 
Q 1191 2003 1191 1497 
Q 1191 994 1439 701 
Q 1688 409 2113 409 
Q 2538 409 2786 701 
Q 3034 994 3034 1497 
Q 3034 2003 2786 2293 
Q 2538 2584 2113 2584 
z
M 3366 4563 
L 3366 3988 
Q 3128 4100 2886 4159 
Q 2644 4219 2406 4219 
Q 1781 4219 1451 3797 
Q 1122 3375 1075 2522 
Q 1259 2794 1537 2939 
Q 1816 3084 2150 3084 
Q 2853 3084 3261 2657 
Q 3669 2231 3669 1497 
Q 3669 778 3244 343 
Q 2819 -91 2113 -91 
Q 1303 -91 875 529 
Q 447 1150 447 2328 
Q 447 3434 972 4092 
Q 1497 4750 2381 4750 
Q 2619 4750 2861 4703 
Q 3103 4656 3366 4563 
z
" transform="scale(0.015625)"/>
       </defs>
       <use xlink:href="#DejaVuSans-2212"/>
       <use xlink:href="#DejaVuSans-36" x="83.789062"/>
      </g>
     </g>
    </g>
    <g id="xtick_8">
     <g id="line2d_8">
      <g>
       <use xlink:href="#ma2f692943f" x="485.203375" y="382.84" style="stroke: #000000; stroke-width: 0.8"/>
      </g>
     </g>
     <g id="text_8">
      <!-- −5 -->
      <g transform="translate(477.832281 397.438438) scale(0.1 -0.1)">
       <defs>
        <path id="DejaVuSans-35" d="M 691 4666 
L 3169 4666 
L 3169 4134 
L 1269 4134 
L 1269 2991 
Q 1406 3038 1543 3061 
Q 1681 3084 1819 3084 
Q 2600 3084 3056 2656 
Q 3513 2228 3513 1497 
Q 3513 744 3044 326 
Q 2575 -91 1722 -91 
Q 1428 -91 1123 -41 
Q 819 9 494 109 
L 494 744 
Q 775 591 1075 516 
Q 1375 441 1709 441 
Q 2250 441 2565 725 
Q 2881 1009 2881 1497 
Q 2881 1984 2565 2268 
Q 2250 2553 1709 2553 
Q 1456 2553 1204 2497 
Q 953 2441 691 2322 
L 691 4666 
z
" transform="scale(0.015625)"/>
       </defs>
       <use xlink:href="#DejaVuSans-2212"/>
       <use xlink:href="#DejaVuSans-35" x="83.789062"/>
      </g>
     </g>
    </g>
    <g id="xtick_9">
     <g id="line2d_9">
      <g>
       <use xlink:href="#ma2f692943f" x="539.74724" y="382.84" style="stroke: #000000; stroke-width: 0.8"/>
      </g>
     </g>
     <g id="text_9">
      <!-- −4 -->
      <g transform="translate(532.376146 397.438438) scale(0.1 -0.1)">
       <defs>
        <path id="DejaVuSans-34" d="M 2419 4116 
L 825 1625 
L 2419 1625 
L 2419 4116 
z
M 2253 4666 
L 3047 4666 
L 3047 1625 
L 3713 1625 
L 3713 1100 
L 3047 1100 
L 3047 0 
L 2419 0 
L 2419 1100 
L 313 1100 
L 313 1709 
L 2253 4666 
z
" transform="scale(0.015625)"/>
       </defs>
       <use xlink:href="#DejaVuSans-2212"/>
       <use xlink:href="#DejaVuSans-34" x="83.789062"/>
      </g>
     </g>
    </g>
    <g id="text_10">
     <!-- F2 -->
     <g transform="translate(299.76035 417.195312) scale(0.18 -0.18)">
      <defs>
       <path id="DejaVuSans-46" d="M 628 4666 
L 3309 4666 
L 3309 4134 
L 1259 4134 
L 1259 2759 
L 3109 2759 
L 3109 2228 
L 1259 2228 
L 1259 0 
L 628 0 
L 628 4666 
z
" transform="scale(0.015625)"/>
      </defs>
      <use xlink:href="#DejaVuSans-46"/>
      <use xlink:href="#DejaVuSans-32" x="57.519531"/>
     </g>
    </g>
   </g>
   <g id="matplotlib.axis_2">
    <g id="ytick_1">
     <g id="line2d_10">
      <defs>
       <path id="mf5a57897ed" d="M 0 0 
L -3.5 0 
" style="stroke: #000000; stroke-width: 0.8"/>
      </defs>
      <g>
       <use xlink:href="#mf5a57897ed" x="70.67" y="382.84" style="stroke: #000000; stroke-width: 0.8"/>
      </g>
     </g>
     <g id="text_11">
      <!-- 0 -->
      <g transform="translate(57.3075 386.639219) scale(0.1 -0.1)">
       <use xlink:href="#DejaVuSans-30"/>
      </g>
     </g>
    </g>
    <g id="ytick_2">
     <g id="line2d_11">
      <g>
       <use xlink:href="#mf5a57897ed" x="70.67" y="319.882678" style="stroke: #000000; stroke-width: 0.8"/>
      </g>
     </g>
     <g id="text_12">
      <!-- 2000 -->
      <g transform="translate(38.22 323.681897) scale(0.1 -0.1)">
       <use xlink:href="#DejaVuSans-32"/>
       <use xlink:href="#DejaVuSans-30" x="63.623047"/>
       <use xlink:href="#DejaVuSans-30" x="127.246094"/>
       <use xlink:href="#DejaVuSans-30" x="190.869141"/>
      </g>
     </g>
    </g>
    <g id="ytick_3">
     <g id="line2d_12">
      <g>
       <use xlink:href="#mf5a57897ed" x="70.67" y="256.925356" style="stroke: #000000; stroke-width: 0.8"/>
      </g>
     </g>
     <g id="text_13">
      <!-- 4000 -->
      <g transform="translate(38.22 260.724574) scale(0.1 -0.1)">
       <use xlink:href="#DejaVuSans-34"/>
       <use xlink:href="#DejaVuSans-30" x="63.623047"/>
       <use xlink:href="#DejaVuSans-30" x="127.246094"/>
       <use xlink:href="#DejaVuSans-30" x="190.869141"/>
      </g>
     </g>
    </g>
    <g id="ytick_4">
     <g id="line2d_13">
      <g>
       <use xlink:href="#mf5a57897ed" x="70.67" y="193.968033" style="stroke: #000000; stroke-width: 0.8"/>
      </g>
     </g>
     <g id="text_14">
      <!-- 6000 -->
      <g transform="translate(38.22 197.767252) scale(0.1 -0.1)">
       <use xlink:href="#DejaVuSans-36"/>
       <use xlink:href="#DejaVuSans-30" x="63.623047"/>
       <use xlink:href="#DejaVuSans-30" x="127.246094"/>
       <use xlink:href="#DejaVuSans-30" x="190.869141"/>
      </g>
     </g>
    </g>
    <g id="ytick_5">
     <g id="line2d_14">
      <g>
       <use xlink:href="#mf5a57897ed" x="70.67" y="131.010711" style="stroke: #000000; stroke-width: 0.8"/>
      </g>
     </g>
     <g id="text_15">
      <!-- 8000 -->
      <g transform="translate(38.22 134.80993) scale(0.1 -0.1)">
       <use xlink:href="#DejaVuSans-38"/>
       <use xlink:href="#DejaVuSans-30" x="63.623047"/>
       <use xlink:href="#DejaVuSans-30" x="127.246094"/>
       <use xlink:href="#DejaVuSans-30" x="190.869141"/>
      </g>
     </g>
    </g>
    <g id="ytick_6">
     <g id="line2d_15">
      <g>
       <use xlink:href="#mf5a57897ed" x="70.67" y="68.053389" style="stroke: #000000; stroke-width: 0.8"/>
      </g>
     </g>
     <g id="text_16">
      <!-- 10000 -->
      <g transform="translate(31.8575 71.852608) scale(0.1 -0.1)">
       <use xlink:href="#DejaVuSans-31"/>
       <use xlink:href="#DejaVuSans-30" x="63.623047"/>
       <use xlink:href="#DejaVuSans-30" x="127.246094"/>
       <use xlink:href="#DejaVuSans-30" x="190.869141"/>
       <use xlink:href="#DejaVuSans-30" x="254.492188"/>
      </g>
     </g>
    </g>
    <g id="text_17">
     <!-- Count -->
     <g transform="translate(24.114063 223.547188) rotate(-90) scale(0.18 -0.18)">
      <defs>
       <path id="DejaVuSans-43" d="M 4122 4306 
L 4122 3641 
Q 3803 3938 3442 4084 
Q 3081 4231 2675 4231 
Q 1875 4231 1450 3742 
Q 1025 3253 1025 2328 
Q 1025 1406 1450 917 
Q 1875 428 2675 428 
Q 3081 428 3442 575 
Q 3803 722 4122 1019 
L 4122 359 
Q 3791 134 3420 21 
Q 3050 -91 2638 -91 
Q 1578 -91 968 557 
Q 359 1206 359 2328 
Q 359 3453 968 4101 
Q 1578 4750 2638 4750 
Q 3056 4750 3426 4639 
Q 3797 4528 4122 4306 
z
" transform="scale(0.015625)"/>
       <path id="DejaVuSans-6f" d="M 1959 3097 
Q 1497 3097 1228 2736 
Q 959 2375 959 1747 
Q 959 1119 1226 758 
Q 1494 397 1959 397 
Q 2419 397 2687 759 
Q 2956 1122 2956 1747 
Q 2956 2369 2687 2733 
Q 2419 3097 1959 3097 
z
M 1959 3584 
Q 2709 3584 3137 3096 
Q 3566 2609 3566 1747 
Q 3566 888 3137 398 
Q 2709 -91 1959 -91 
Q 1206 -91 779 398 
Q 353 888 353 1747 
Q 353 2609 779 3096 
Q 1206 3584 1959 3584 
z
" transform="scale(0.015625)"/>
       <path id="DejaVuSans-75" d="M 544 1381 
L 544 3500 
L 1119 3500 
L 1119 1403 
Q 1119 906 1312 657 
Q 1506 409 1894 409 
Q 2359 409 2629 706 
Q 2900 1003 2900 1516 
L 2900 3500 
L 3475 3500 
L 3475 0 
L 2900 0 
L 2900 538 
Q 2691 219 2414 64 
Q 2138 -91 1772 -91 
Q 1169 -91 856 284 
Q 544 659 544 1381 
z
M 1991 3584 
L 1991 3584 
z
" transform="scale(0.015625)"/>
       <path id="DejaVuSans-6e" d="M 3513 2113 
L 3513 0 
L 2938 0 
L 2938 2094 
Q 2938 2591 2744 2837 
Q 2550 3084 2163 3084 
Q 1697 3084 1428 2787 
Q 1159 2491 1159 1978 
L 1159 0 
L 581 0 
L 581 3500 
L 1159 3500 
L 1159 2956 
Q 1366 3272 1645 3428 
Q 1925 3584 2291 3584 
Q 2894 3584 3203 3211 
Q 3513 2838 3513 2113 
z
" transform="scale(0.015625)"/>
       <path id="DejaVuSans-74" d="M 1172 4494 
L 1172 3500 
L 2356 3500 
L 2356 3053 
L 1172 3053 
L 1172 1153 
Q 1172 725 1289 603 
Q 1406 481 1766 481 
L 2356 481 
L 2356 0 
L 1766 0 
Q 1100 0 847 248 
Q 594 497 594 1153 
L 594 3053 
L 172 3053 
L 172 3500 
L 594 3500 
L 594 4494 
L 1172 4494 
z
" transform="scale(0.015625)"/>
      </defs>
      <use xlink:href="#DejaVuSans-43"/>
      <use xlink:href="#DejaVuSans-6f" x="69.824219"/>
      <use xlink:href="#DejaVuSans-75" x="131.005859"/>
      <use xlink:href="#DejaVuSans-6e" x="194.384766"/>
      <use xlink:href="#DejaVuSans-74" x="257.763672"/>
     </g>
    </g>
   </g>
   <g id="line2d_16">
    <path d="M 261.573528 382.84 
L 261.573528 28.51619 
" clip-path="url(#pae738215a4)" style="fill: none; stroke: #ff0000; stroke-width: 1.6; stroke-linecap: square"/>
   </g>
   <g id="patch_216">
    <path d="M 70.67 382.84 
L 70.67 10.8 
" style="fill: none; stroke: #000000; stroke-width: 0.8; stroke-linejoin: miter; stroke-linecap: square"/>
   </g>
   <g id="patch_217">
    <path d="M 550.656013 382.84 
L 550.656013 10.8 
" style="fill: none; stroke: #000000; stroke-width: 0.8; stroke-linejoin: miter; stroke-linecap: square"/>
   </g>
   <g id="patch_218">
    <path d="M 70.67 382.84 
L 550.656013 382.84 
" style="fill: none; stroke: #000000; stroke-width: 0.8; stroke-linejoin: miter; stroke-linecap: square"/>
   </g>
   <g id="patch_219">
    <path d="M 70.67 10.8 
L 550.656013 10.8 
" style="fill: none; stroke: #000000; stroke-width: 0.8; stroke-linejoin: miter; stroke-linecap: square"/>
   </g>
   <g id="text_18">
    <!-- $\mu_24 = -8.178$ -->
    <g transform="translate(406.660209 61.649937) scale(0.21 -0.21)">
     <defs>
      <path id="DejaVuSans-Oblique-3bc" d="M -84 -1331 
L 856 3500 
L 1434 3500 
L 1009 1322 
Q 997 1256 987 1175 
Q 978 1094 978 1013 
Q 978 722 1161 565 
Q 1344 409 1684 409 
Q 2147 409 2431 671 
Q 2716 934 2816 1459 
L 3213 3500 
L 3788 3500 
L 3266 809 
Q 3253 750 3248 706 
Q 3244 663 3244 628 
Q 3244 531 3283 486 
Q 3322 441 3406 441 
Q 3438 441 3492 456 
Q 3547 472 3647 513 
L 3559 50 
Q 3422 -19 3297 -55 
Q 3172 -91 3053 -91 
Q 2847 -91 2730 40 
Q 2613 172 2613 403 
Q 2438 153 2195 31 
Q 1953 -91 1625 -91 
Q 1334 -91 1117 43 
Q 900 178 831 397 
L 494 -1331 
L -84 -1331 
z
" transform="scale(0.015625)"/>
      <path id="DejaVuSans-3d" d="M 678 2906 
L 4684 2906 
L 4684 2381 
L 678 2381 
L 678 2906 
z
M 678 1631 
L 4684 1631 
L 4684 1100 
L 678 1100 
L 678 1631 
z
" transform="scale(0.015625)"/>
      <path id="DejaVuSans-2e" d="M 684 794 
L 1344 794 
L 1344 0 
L 684 0 
L 684 794 
z
" transform="scale(0.015625)"/>
     </defs>
     <use xlink:href="#DejaVuSans-Oblique-3bc" transform="translate(0 0.78125)"/>
     <use xlink:href="#DejaVuSans-32" transform="translate(63.623047 -15.625) scale(0.7)"/>
     <use xlink:href="#DejaVuSans-34" transform="translate(110.893555 0.78125)"/>
     <use xlink:href="#DejaVuSans-3d" transform="translate(193.999023 0.78125)"/>
     <use xlink:href="#DejaVuSans-2212" transform="translate(316.75293 0.78125)"/>
     <use xlink:href="#DejaVuSans-38" transform="translate(420.024414 0.78125)"/>
     <use xlink:href="#DejaVuSans-2e" transform="translate(483.647461 0.78125)"/>
     <use xlink:href="#DejaVuSans-31" transform="translate(515.43457 0.78125)"/>
     <use xlink:href="#DejaVuSans-37" transform="translate(579.057617 0.78125)"/>
     <use xlink:href="#DejaVuSans-38" transform="translate(642.680664 0.78125)"/>
    </g>
    <!-- $\sigma_24 = 0.961$ -->
    <g transform="translate(406.660209 85.208) scale(0.21 -0.21)">
     <defs>
      <path id="DejaVuSans-Oblique-3c3" d="M 2219 3044 
Q 1744 3044 1422 2700 
Q 1081 2341 969 1747 
Q 844 1119 1044 756 
Q 1241 397 1706 397 
Q 2166 397 2503 759 
Q 2844 1122 2966 1747 
Q 3075 2319 2881 2700 
Q 2700 3044 2219 3044 
z
M 2309 3503 
L 4219 3500 
L 4106 2925 
L 3463 2925 
Q 3706 2438 3575 1747 
Q 3406 888 2884 400 
Q 2359 -91 1609 -91 
Q 856 -91 525 400 
Q 194 888 363 1747 
Q 528 2609 1050 3097 
Q 1484 3503 2309 3503 
z
" transform="scale(0.015625)"/>
     </defs>
     <use xlink:href="#DejaVuSans-Oblique-3c3" transform="translate(0 0.78125)"/>
     <use xlink:href="#DejaVuSans-32" transform="translate(63.378906 -15.625) scale(0.7)"/>
     <use xlink:href="#DejaVuSans-34" transform="translate(110.649414 0.78125)"/>
     <use xlink:href="#DejaVuSans-3d" transform="translate(193.754883 0.78125)"/>
     <use xlink:href="#DejaVuSans-30" transform="translate(297.026367 0.78125)"/>
     <use xlink:href="#DejaVuSans-2e" transform="translate(360.649414 0.78125)"/>
     <use xlink:href="#DejaVuSans-39" transform="translate(392.436523 0.78125)"/>
     <use xlink:href="#DejaVuSans-36" transform="translate(456.05957 0.78125)"/>
     <use xlink:href="#DejaVuSans-31" transform="translate(519.682617 0.78125)"/>
    </g>
   </g>
  </g>
 </g>
 <defs>
  <clipPath id="pae738215a4">
   <rect x="70.67" y="10.8" width="479.986013" height="372.04"/>
  </clipPath>
 </defs>
</svg>
