<?xml version="1.0" encoding="utf-8" standalone="no"?>
<!DOCTYPE svg PUBLIC "-//W3C//DTD SVG 1.1//EN"
  "http://www.w3.org/Graphics/SVG/1.1/DTD/svg11.dtd">
<svg xmlns:xlink="http://www.w3.org/1999/xlink" width="576pt" height="432pt" viewBox="0 0 576 432" xmlns="http://www.w3.org/2000/svg" version="1.1">
 <metadata>
  <rdf:RDF xmlns:dc="http://purl.org/dc/elements/1.1/" xmlns:cc="http://creativecommons.org/ns#" xmlns:rdf="http://www.w3.org/1999/02/22-rdf-syntax-ns#">
   <cc:Work>
    <dc:type rdf:resource="http://purl.org/dc/dcmitype/StillImage"/>
    <dc:date>2024-09-05T19:41:18.603938</dc:date>
    <dc:format>image/svg+xml</dc:format>
    <dc:creator>
     <cc:Agent>
      <dc:title>Matplotlib v3.7.2, https://matplotlib.org/</dc:title>
     </cc:Agent>
    </dc:creator>
   </cc:Work>
  </rdf:RDF>
 </metadata>
 <defs>
  <style type="text/css">*{stroke-linejoin: round; stroke-linecap: butt}</style>
 </defs>
 <g id="figure_1">
  <g id="patch_1">
   <path d="M 0 432 
L 576 432 
L 576 0 
L 0 0 
z
" style="fill: #ffffff"/>
  </g>
  <g id="axes_1">
   <g id="patch_2">
    <path d="M 70.67 382.84 
L 552.726013 382.84 
L 552.726013 10.8 
L 70.67 10.8 
z
" style="fill: #ffffff"/>
   </g>
   <g id="patch_3">
    <path d="M 92.581637 382.84 
L 94.688525 382.84 
L 94.688525 382.806051 
L 92.581637 382.806051 
z
" clip-path="url(#p7342774298)" style="fill: #1f77b4"/>
   </g>
   <g id="patch_4">
    <path d="M 94.688525 382.84 
L 96.795413 382.84 
L 96.795413 382.84 
L 94.688525 382.84 
z
" clip-path="url(#p7342774298)" style="fill: #1f77b4"/>
   </g>
   <g id="patch_5">
    <path d="M 96.795413 382.84 
L 98.902301 382.84 
L 98.902301 382.84 
L 96.795413 382.84 
z
" clip-path="url(#p7342774298)" style="fill: #1f77b4"/>
   </g>
   <g id="patch_6">
    <path d="M 98.902301 382.84 
L 101.00919 382.84 
L 101.00919 382.84 
L 98.902301 382.84 
z
" clip-path="url(#p7342774298)" style="fill: #1f77b4"/>
   </g>
   <g id="patch_7">
    <path d="M 101.00919 382.84 
L 103.116078 382.84 
L 103.116078 382.84 
L 101.00919 382.84 
z
" clip-path="url(#p7342774298)" style="fill: #1f77b4"/>
   </g>
   <g id="patch_8">
    <path d="M 103.116078 382.84 
L 105.222966 382.84 
L 105.222966 382.84 
L 103.116078 382.84 
z
" clip-path="url(#p7342774298)" style="fill: #1f77b4"/>
   </g>
   <g id="patch_9">
    <path d="M 105.222966 382.84 
L 107.329854 382.84 
L 107.329854 382.806051 
L 105.222966 382.806051 
z
" clip-path="url(#p7342774298)" style="fill: #1f77b4"/>
   </g>
   <g id="patch_10">
    <path d="M 107.329854 382.84 
L 109.436742 382.84 
L 109.436742 382.84 
L 107.329854 382.84 
z
" clip-path="url(#p7342774298)" style="fill: #1f77b4"/>
   </g>
   <g id="patch_11">
    <path d="M 109.436742 382.84 
L 111.54363 382.84 
L 111.54363 382.84 
L 109.436742 382.84 
z
" clip-path="url(#p7342774298)" style="fill: #1f77b4"/>
   </g>
   <g id="patch_12">
    <path d="M 111.54363 382.84 
L 113.650519 382.84 
L 113.650519 382.806051 
L 111.54363 382.806051 
z
" clip-path="url(#p7342774298)" style="fill: #1f77b4"/>
   </g>
   <g id="patch_13">
    <path d="M 113.650519 382.84 
L 115.757407 382.84 
L 115.757407 382.84 
L 113.650519 382.84 
z
" clip-path="url(#p7342774298)" style="fill: #1f77b4"/>
   </g>
   <g id="patch_14">
    <path d="M 115.757407 382.84 
L 117.864295 382.84 
L 117.864295 382.636307 
L 115.757407 382.636307 
z
" clip-path="url(#p7342774298)" style="fill: #1f77b4"/>
   </g>
   <g id="patch_15">
    <path d="M 117.864295 382.84 
L 119.971183 382.84 
L 119.971183 382.84 
L 117.864295 382.84 
z
" clip-path="url(#p7342774298)" style="fill: #1f77b4"/>
   </g>
   <g id="patch_16">
    <path d="M 119.971183 382.84 
L 122.078071 382.84 
L 122.078071 382.670256 
L 119.971183 382.670256 
z
" clip-path="url(#p7342774298)" style="fill: #1f77b4"/>
   </g>
   <g id="patch_17">
    <path d="M 122.078071 382.84 
L 124.18496 382.84 
L 124.18496 382.84 
L 122.078071 382.84 
z
" clip-path="url(#p7342774298)" style="fill: #1f77b4"/>
   </g>
   <g id="patch_18">
    <path d="M 124.18496 382.84 
L 126.291848 382.84 
L 126.291848 382.84 
L 124.18496 382.84 
z
" clip-path="url(#p7342774298)" style="fill: #1f77b4"/>
   </g>
   <g id="patch_19">
    <path d="M 126.291848 382.84 
L 128.398736 382.84 
L 128.398736 382.772102 
L 126.291848 382.772102 
z
" clip-path="url(#p7342774298)" style="fill: #1f77b4"/>
   </g>
   <g id="patch_20">
    <path d="M 128.398736 382.84 
L 130.505624 382.84 
L 130.505624 382.84 
L 128.398736 382.84 
z
" clip-path="url(#p7342774298)" style="fill: #1f77b4"/>
   </g>
   <g id="patch_21">
    <path d="M 130.505624 382.84 
L 132.612512 382.84 
L 132.612512 382.296819 
L 130.505624 382.296819 
z
" clip-path="url(#p7342774298)" style="fill: #1f77b4"/>
   </g>
   <g id="patch_22">
    <path d="M 132.612512 382.84 
L 134.7194 382.84 
L 134.7194 382.84 
L 132.612512 382.84 
z
" clip-path="url(#p7342774298)" style="fill: #1f77b4"/>
   </g>
   <g id="patch_23">
    <path d="M 134.7194 382.84 
L 136.826289 382.84 
L 136.826289 382.26287 
L 134.7194 382.26287 
z
" clip-path="url(#p7342774298)" style="fill: #1f77b4"/>
   </g>
   <g id="patch_24">
    <path d="M 136.826289 382.84 
L 138.933177 382.84 
L 138.933177 382.84 
L 136.826289 382.84 
z
" clip-path="url(#p7342774298)" style="fill: #1f77b4"/>
   </g>
   <g id="patch_25">
    <path d="M 138.933177 382.84 
L 141.040065 382.84 
L 141.040065 382.466563 
L 138.933177 382.466563 
z
" clip-path="url(#p7342774298)" style="fill: #1f77b4"/>
   </g>
   <g id="patch_26">
    <path d="M 141.040065 382.84 
L 143.146953 382.84 
L 143.146953 382.84 
L 141.040065 382.84 
z
" clip-path="url(#p7342774298)" style="fill: #1f77b4"/>
   </g>
   <g id="patch_27">
    <path d="M 143.146953 382.84 
L 145.253841 382.84 
L 145.253841 382.84 
L 143.146953 382.84 
z
" clip-path="url(#p7342774298)" style="fill: #1f77b4"/>
   </g>
   <g id="patch_28">
    <path d="M 145.253841 382.84 
L 147.360729 382.84 
L 147.360729 382.059177 
L 145.253841 382.059177 
z
" clip-path="url(#p7342774298)" style="fill: #1f77b4"/>
   </g>
   <g id="patch_29">
    <path d="M 147.360729 382.84 
L 149.467618 382.84 
L 149.467618 382.84 
L 147.360729 382.84 
z
" clip-path="url(#p7342774298)" style="fill: #1f77b4"/>
   </g>
   <g id="patch_30">
    <path d="M 149.467618 382.84 
L 151.574506 382.84 
L 151.574506 381.482047 
L 149.467618 381.482047 
z
" clip-path="url(#p7342774298)" style="fill: #1f77b4"/>
   </g>
   <g id="patch_31">
    <path d="M 151.574506 382.84 
L 153.681394 382.84 
L 153.681394 382.84 
L 151.574506 382.84 
z
" clip-path="url(#p7342774298)" style="fill: #1f77b4"/>
   </g>
   <g id="patch_32">
    <path d="M 153.681394 382.84 
L 155.788282 382.84 
L 155.788282 380.870969 
L 153.681394 380.870969 
z
" clip-path="url(#p7342774298)" style="fill: #1f77b4"/>
   </g>
   <g id="patch_33">
    <path d="M 155.788282 382.84 
L 157.89517 382.84 
L 157.89517 382.84 
L 155.788282 382.84 
z
" clip-path="url(#p7342774298)" style="fill: #1f77b4"/>
   </g>
   <g id="patch_34">
    <path d="M 157.89517 382.84 
L 160.002058 382.84 
L 160.002058 380.225941 
L 157.89517 380.225941 
z
" clip-path="url(#p7342774298)" style="fill: #1f77b4"/>
   </g>
   <g id="patch_35">
    <path d="M 160.002058 382.84 
L 162.108947 382.84 
L 162.108947 382.84 
L 160.002058 382.84 
z
" clip-path="url(#p7342774298)" style="fill: #1f77b4"/>
   </g>
   <g id="patch_36">
    <path d="M 162.108947 382.84 
L 164.215835 382.84 
L 164.215835 382.84 
L 162.108947 382.84 
z
" clip-path="url(#p7342774298)" style="fill: #1f77b4"/>
   </g>
   <g id="patch_37">
    <path d="M 164.215835 382.84 
L 166.322723 382.84 
L 166.322723 379.546965 
L 164.215835 379.546965 
z
" clip-path="url(#p7342774298)" style="fill: #1f77b4"/>
   </g>
   <g id="patch_38">
    <path d="M 166.322723 382.84 
L 168.429611 382.84 
L 168.429611 382.84 
L 166.322723 382.84 
z
" clip-path="url(#p7342774298)" style="fill: #1f77b4"/>
   </g>
   <g id="patch_39">
    <path d="M 168.429611 382.84 
L 170.536499 382.84 
L 170.536499 378.053217 
L 168.429611 378.053217 
z
" clip-path="url(#p7342774298)" style="fill: #1f77b4"/>
   </g>
   <g id="patch_40">
    <path d="M 170.536499 382.84 
L 172.643387 382.84 
L 172.643387 382.84 
L 170.536499 382.84 
z
" clip-path="url(#p7342774298)" style="fill: #1f77b4"/>
   </g>
   <g id="patch_41">
    <path d="M 172.643387 382.84 
L 174.750276 382.84 
L 174.750276 375.982339 
L 172.643387 375.982339 
z
" clip-path="url(#p7342774298)" style="fill: #1f77b4"/>
   </g>
   <g id="patch_42">
    <path d="M 174.750276 382.84 
L 176.857164 382.84 
L 176.857164 382.84 
L 174.750276 382.84 
z
" clip-path="url(#p7342774298)" style="fill: #1f77b4"/>
   </g>
   <g id="patch_43">
    <path d="M 176.857164 382.84 
L 178.964052 382.84 
L 178.964052 382.84 
L 176.857164 382.84 
z
" clip-path="url(#p7342774298)" style="fill: #1f77b4"/>
   </g>
   <g id="patch_44">
    <path d="M 178.964052 382.84 
L 181.07094 382.84 
L 181.07094 372.451662 
L 178.964052 372.451662 
z
" clip-path="url(#p7342774298)" style="fill: #1f77b4"/>
   </g>
   <g id="patch_45">
    <path d="M 181.07094 382.84 
L 183.177828 382.84 
L 183.177828 382.84 
L 181.07094 382.84 
z
" clip-path="url(#p7342774298)" style="fill: #1f77b4"/>
   </g>
   <g id="patch_46">
    <path d="M 183.177828 382.84 
L 185.284716 382.84 
L 185.284716 370.278937 
L 183.177828 370.278937 
z
" clip-path="url(#p7342774298)" style="fill: #1f77b4"/>
   </g>
   <g id="patch_47">
    <path d="M 185.284716 382.84 
L 187.391605 382.84 
L 187.391605 382.84 
L 185.284716 382.84 
z
" clip-path="url(#p7342774298)" style="fill: #1f77b4"/>
   </g>
   <g id="patch_48">
    <path d="M 187.391605 382.84 
L 189.498493 382.84 
L 189.498493 366.137182 
L 187.391605 366.137182 
z
" clip-path="url(#p7342774298)" style="fill: #1f77b4"/>
   </g>
   <g id="patch_49">
    <path d="M 189.498493 382.84 
L 191.605381 382.84 
L 191.605381 382.84 
L 189.498493 382.84 
z
" clip-path="url(#p7342774298)" style="fill: #1f77b4"/>
   </g>
   <g id="patch_50">
    <path d="M 191.605381 382.84 
L 193.712269 382.84 
L 193.712269 382.84 
L 191.605381 382.84 
z
" clip-path="url(#p7342774298)" style="fill: #1f77b4"/>
   </g>
   <g id="patch_51">
    <path d="M 193.712269 382.84 
L 195.819157 382.84 
L 195.819157 362.572556 
L 193.712269 362.572556 
z
" clip-path="url(#p7342774298)" style="fill: #1f77b4"/>
   </g>
   <g id="patch_52">
    <path d="M 195.819157 382.84 
L 197.926045 382.84 
L 197.926045 382.84 
L 195.819157 382.84 
z
" clip-path="url(#p7342774298)" style="fill: #1f77b4"/>
   </g>
   <g id="patch_53">
    <path d="M 197.926045 382.84 
L 200.032934 382.84 
L 200.032934 355.307509 
L 197.926045 355.307509 
z
" clip-path="url(#p7342774298)" style="fill: #1f77b4"/>
   </g>
   <g id="patch_54">
    <path d="M 200.032934 382.84 
L 202.139822 382.84 
L 202.139822 382.84 
L 200.032934 382.84 
z
" clip-path="url(#p7342774298)" style="fill: #1f77b4"/>
   </g>
   <g id="patch_55">
    <path d="M 202.139822 382.84 
L 204.24671 382.84 
L 204.24671 347.770871 
L 202.139822 347.770871 
z
" clip-path="url(#p7342774298)" style="fill: #1f77b4"/>
   </g>
   <g id="patch_56">
    <path d="M 204.24671 382.84 
L 206.353598 382.84 
L 206.353598 382.84 
L 204.24671 382.84 
z
" clip-path="url(#p7342774298)" style="fill: #1f77b4"/>
   </g>
   <g id="patch_57">
    <path d="M 206.353598 382.84 
L 208.460486 382.84 
L 208.460486 336.160376 
L 206.353598 336.160376 
z
" clip-path="url(#p7342774298)" style="fill: #1f77b4"/>
   </g>
   <g id="patch_58">
    <path d="M 208.460486 382.84 
L 210.567374 382.84 
L 210.567374 382.84 
L 208.460486 382.84 
z
" clip-path="url(#p7342774298)" style="fill: #1f77b4"/>
   </g>
   <g id="patch_59">
    <path d="M 210.567374 382.84 
L 212.674263 382.84 
L 212.674263 382.84 
L 210.567374 382.84 
z
" clip-path="url(#p7342774298)" style="fill: #1f77b4"/>
   </g>
   <g id="patch_60">
    <path d="M 212.674263 382.84 
L 214.781151 382.84 
L 214.781151 327.43553 
L 212.674263 327.43553 
z
" clip-path="url(#p7342774298)" style="fill: #1f77b4"/>
   </g>
   <g id="patch_61">
    <path d="M 214.781151 382.84 
L 216.888039 382.84 
L 216.888039 382.84 
L 214.781151 382.84 
z
" clip-path="url(#p7342774298)" style="fill: #1f77b4"/>
   </g>
   <g id="patch_62">
    <path d="M 216.888039 382.84 
L 218.994927 382.84 
L 218.994927 315.146058 
L 216.888039 315.146058 
z
" clip-path="url(#p7342774298)" style="fill: #1f77b4"/>
   </g>
   <g id="patch_63">
    <path d="M 218.994927 382.84 
L 221.101815 382.84 
L 221.101815 382.84 
L 218.994927 382.84 
z
" clip-path="url(#p7342774298)" style="fill: #1f77b4"/>
   </g>
   <g id="patch_64">
    <path d="M 221.101815 382.84 
L 223.208703 382.84 
L 223.208703 299.801192 
L 221.101815 299.801192 
z
" clip-path="url(#p7342774298)" style="fill: #1f77b4"/>
   </g>
   <g id="patch_65">
    <path d="M 223.208703 382.84 
L 225.315592 382.84 
L 225.315592 382.84 
L 223.208703 382.84 
z
" clip-path="url(#p7342774298)" style="fill: #1f77b4"/>
   </g>
   <g id="patch_66">
    <path d="M 225.315592 382.84 
L 227.42248 382.84 
L 227.42248 285.135303 
L 225.315592 285.135303 
z
" clip-path="url(#p7342774298)" style="fill: #1f77b4"/>
   </g>
   <g id="patch_67">
    <path d="M 227.42248 382.84 
L 229.529368 382.84 
L 229.529368 382.84 
L 227.42248 382.84 
z
" clip-path="url(#p7342774298)" style="fill: #1f77b4"/>
   </g>
   <g id="patch_68">
    <path d="M 229.529368 382.84 
L 231.636256 382.84 
L 231.636256 382.84 
L 229.529368 382.84 
z
" clip-path="url(#p7342774298)" style="fill: #1f77b4"/>
   </g>
   <g id="patch_69">
    <path d="M 231.636256 382.84 
L 233.743144 382.84 
L 233.743144 262.898827 
L 231.636256 262.898827 
z
" clip-path="url(#p7342774298)" style="fill: #1f77b4"/>
   </g>
   <g id="patch_70">
    <path d="M 233.743144 382.84 
L 235.850032 382.84 
L 235.850032 382.84 
L 233.743144 382.84 
z
" clip-path="url(#p7342774298)" style="fill: #1f77b4"/>
   </g>
   <g id="patch_71">
    <path d="M 235.850032 382.84 
L 237.956921 382.84 
L 237.956921 242.257946 
L 235.850032 242.257946 
z
" clip-path="url(#p7342774298)" style="fill: #1f77b4"/>
   </g>
   <g id="patch_72">
    <path d="M 237.956921 382.84 
L 240.063809 382.84 
L 240.063809 382.84 
L 237.956921 382.84 
z
" clip-path="url(#p7342774298)" style="fill: #1f77b4"/>
   </g>
   <g id="patch_73">
    <path d="M 240.063809 382.84 
L 242.170697 382.84 
L 242.170697 219.070904 
L 240.063809 219.070904 
z
" clip-path="url(#p7342774298)" style="fill: #1f77b4"/>
   </g>
   <g id="patch_74">
    <path d="M 242.170697 382.84 
L 244.277585 382.84 
L 244.277585 382.84 
L 242.170697 382.84 
z
" clip-path="url(#p7342774298)" style="fill: #1f77b4"/>
   </g>
   <g id="patch_75">
    <path d="M 244.277585 382.84 
L 246.384473 382.84 
L 246.384473 382.84 
L 244.277585 382.84 
z
" clip-path="url(#p7342774298)" style="fill: #1f77b4"/>
   </g>
   <g id="patch_76">
    <path d="M 246.384473 382.84 
L 248.491362 382.84 
L 248.491362 199.346641 
L 246.384473 199.346641 
z
" clip-path="url(#p7342774298)" style="fill: #1f77b4"/>
   </g>
   <g id="patch_77">
    <path d="M 248.491362 382.84 
L 250.59825 382.84 
L 250.59825 382.84 
L 248.491362 382.84 
z
" clip-path="url(#p7342774298)" style="fill: #1f77b4"/>
   </g>
   <g id="patch_78">
    <path d="M 250.59825 382.84 
L 252.705138 382.84 
L 252.705138 172.696819 
L 250.59825 172.696819 
z
" clip-path="url(#p7342774298)" style="fill: #1f77b4"/>
   </g>
   <g id="patch_79">
    <path d="M 252.705138 382.84 
L 254.812026 382.84 
L 254.812026 382.84 
L 252.705138 382.84 
z
" clip-path="url(#p7342774298)" style="fill: #1f77b4"/>
   </g>
   <g id="patch_80">
    <path d="M 254.812026 382.84 
L 256.918914 382.84 
L 256.918914 145.571714 
L 254.812026 145.571714 
z
" clip-path="url(#p7342774298)" style="fill: #1f77b4"/>
   </g>
   <g id="patch_81">
    <path d="M 256.918914 382.84 
L 259.025802 382.84 
L 259.025802 382.84 
L 256.918914 382.84 
z
" clip-path="url(#p7342774298)" style="fill: #1f77b4"/>
   </g>
   <g id="patch_82">
    <path d="M 259.025802 382.84 
L 261.132691 382.84 
L 261.132691 382.84 
L 259.025802 382.84 
z
" clip-path="url(#p7342774298)" style="fill: #1f77b4"/>
   </g>
   <g id="patch_83">
    <path d="M 261.132691 382.84 
L 263.239579 382.84 
L 263.239579 122.724159 
L 261.132691 122.724159 
z
" clip-path="url(#p7342774298)" style="fill: #1f77b4"/>
   </g>
   <g id="patch_84">
    <path d="M 263.239579 382.84 
L 265.346467 382.84 
L 265.346467 382.84 
L 263.239579 382.84 
z
" clip-path="url(#p7342774298)" style="fill: #1f77b4"/>
   </g>
   <g id="patch_85">
    <path d="M 265.346467 382.84 
L 267.453355 382.84 
L 267.453355 98.993936 
L 265.346467 98.993936 
z
" clip-path="url(#p7342774298)" style="fill: #1f77b4"/>
   </g>
   <g id="patch_86">
    <path d="M 267.453355 382.84 
L 269.560243 382.84 
L 269.560243 382.84 
L 267.453355 382.84 
z
" clip-path="url(#p7342774298)" style="fill: #1f77b4"/>
   </g>
   <g id="patch_87">
    <path d="M 269.560243 382.84 
L 271.667131 382.84 
L 271.667131 77.945669 
L 269.560243 77.945669 
z
" clip-path="url(#p7342774298)" style="fill: #1f77b4"/>
   </g>
   <g id="patch_88">
    <path d="M 271.667131 382.84 
L 273.77402 382.84 
L 273.77402 382.84 
L 271.667131 382.84 
z
" clip-path="url(#p7342774298)" style="fill: #1f77b4"/>
   </g>
   <g id="patch_89">
    <path d="M 273.77402 382.84 
L 275.880908 382.84 
L 275.880908 64.875374 
L 273.77402 64.875374 
z
" clip-path="url(#p7342774298)" style="fill: #1f77b4"/>
   </g>
   <g id="patch_90">
    <path d="M 275.880908 382.84 
L 277.987796 382.84 
L 277.987796 382.84 
L 275.880908 382.84 
z
" clip-path="url(#p7342774298)" style="fill: #1f77b4"/>
   </g>
   <g id="patch_91">
    <path d="M 277.987796 382.84 
L 280.094684 382.84 
L 280.094684 382.84 
L 277.987796 382.84 
z
" clip-path="url(#p7342774298)" style="fill: #1f77b4"/>
   </g>
   <g id="patch_92">
    <path d="M 280.094684 382.84 
L 282.201572 382.84 
L 282.201572 47.595426 
L 280.094684 47.595426 
z
" clip-path="url(#p7342774298)" style="fill: #1f77b4"/>
   </g>
   <g id="patch_93">
    <path d="M 282.201572 382.84 
L 284.30846 382.84 
L 284.30846 382.84 
L 282.201572 382.84 
z
" clip-path="url(#p7342774298)" style="fill: #1f77b4"/>
   </g>
   <g id="patch_94">
    <path d="M 284.30846 382.84 
L 286.415349 382.84 
L 286.415349 37.818167 
L 284.30846 37.818167 
z
" clip-path="url(#p7342774298)" style="fill: #1f77b4"/>
   </g>
   <g id="patch_95">
    <path d="M 286.415349 382.84 
L 288.522237 382.84 
L 288.522237 382.84 
L 286.415349 382.84 
z
" clip-path="url(#p7342774298)" style="fill: #1f77b4"/>
   </g>
   <g id="patch_96">
    <path d="M 288.522237 382.84 
L 290.629125 382.84 
L 290.629125 29.297013 
L 288.522237 29.297013 
z
" clip-path="url(#p7342774298)" style="fill: #1f77b4"/>
   </g>
   <g id="patch_97">
    <path d="M 290.629125 382.84 
L 292.736013 382.84 
L 292.736013 382.84 
L 290.629125 382.84 
z
" clip-path="url(#p7342774298)" style="fill: #1f77b4"/>
   </g>
   <g id="patch_98">
    <path d="M 292.736013 382.84 
L 294.842901 382.84 
L 294.842901 382.84 
L 292.736013 382.84 
z
" clip-path="url(#p7342774298)" style="fill: #1f77b4"/>
   </g>
   <g id="patch_99">
    <path d="M 294.842901 382.84 
L 296.949789 382.84 
L 296.949789 28.51619 
L 294.842901 28.51619 
z
" clip-path="url(#p7342774298)" style="fill: #1f77b4"/>
   </g>
   <g id="patch_100">
    <path d="M 296.949789 382.84 
L 299.056678 382.84 
L 299.056678 382.84 
L 296.949789 382.84 
z
" clip-path="url(#p7342774298)" style="fill: #1f77b4"/>
   </g>
   <g id="patch_101">
    <path d="M 299.056678 382.84 
L 301.163566 382.84 
L 301.163566 33.438769 
L 299.056678 33.438769 
z
" clip-path="url(#p7342774298)" style="fill: #1f77b4"/>
   </g>
   <g id="patch_102">
    <path d="M 301.163566 382.84 
L 303.270454 382.84 
L 303.270454 382.84 
L 301.163566 382.84 
z
" clip-path="url(#p7342774298)" style="fill: #1f77b4"/>
   </g>
   <g id="patch_103">
    <path d="M 303.270454 382.84 
L 305.377342 382.84 
L 305.377342 40.432225 
L 303.270454 40.432225 
z
" clip-path="url(#p7342774298)" style="fill: #1f77b4"/>
   </g>
   <g id="patch_104">
    <path d="M 305.377342 382.84 
L 307.48423 382.84 
L 307.48423 382.84 
L 305.377342 382.84 
z
" clip-path="url(#p7342774298)" style="fill: #1f77b4"/>
   </g>
   <g id="patch_105">
    <path d="M 307.48423 382.84 
L 309.591118 382.84 
L 309.591118 55.539449 
L 307.48423 55.539449 
z
" clip-path="url(#p7342774298)" style="fill: #1f77b4"/>
   </g>
   <g id="patch_106">
    <path d="M 309.591118 382.84 
L 311.698007 382.84 
L 311.698007 382.84 
L 309.591118 382.84 
z
" clip-path="url(#p7342774298)" style="fill: #1f77b4"/>
   </g>
   <g id="patch_107">
    <path d="M 311.698007 382.84 
L 313.804895 382.84 
L 313.804895 382.84 
L 311.698007 382.84 
z
" clip-path="url(#p7342774298)" style="fill: #1f77b4"/>
   </g>
   <g id="patch_108">
    <path d="M 313.804895 382.84 
L 315.911783 382.84 
L 315.911783 74.143401 
L 313.804895 74.143401 
z
" clip-path="url(#p7342774298)" style="fill: #1f77b4"/>
   </g>
   <g id="patch_109">
    <path d="M 315.911783 382.84 
L 318.018671 382.84 
L 318.018671 382.84 
L 315.911783 382.84 
z
" clip-path="url(#p7342774298)" style="fill: #1f77b4"/>
   </g>
   <g id="patch_110">
    <path d="M 318.018671 382.84 
L 320.125559 382.84 
L 320.125559 77.368539 
L 318.018671 77.368539 
z
" clip-path="url(#p7342774298)" style="fill: #1f77b4"/>
   </g>
   <g id="patch_111">
    <path d="M 320.125559 382.84 
L 322.232447 382.84 
L 322.232447 382.84 
L 320.125559 382.84 
z
" clip-path="url(#p7342774298)" style="fill: #1f77b4"/>
   </g>
   <g id="patch_112">
    <path d="M 322.232447 382.84 
L 324.339336 382.84 
L 324.339336 99.061833 
L 322.232447 99.061833 
z
" clip-path="url(#p7342774298)" style="fill: #1f77b4"/>
   </g>
   <g id="patch_113">
    <path d="M 324.339336 382.84 
L 326.446224 382.84 
L 326.446224 382.84 
L 324.339336 382.84 
z
" clip-path="url(#p7342774298)" style="fill: #1f77b4"/>
   </g>
   <g id="patch_114">
    <path d="M 326.446224 382.84 
L 328.553112 382.84 
L 328.553112 382.84 
L 326.446224 382.84 
z
" clip-path="url(#p7342774298)" style="fill: #1f77b4"/>
   </g>
   <g id="patch_115">
    <path d="M 328.553112 382.84 
L 330.66 382.84 
L 330.66 120.517486 
L 328.553112 120.517486 
z
" clip-path="url(#p7342774298)" style="fill: #1f77b4"/>
   </g>
   <g id="patch_116">
    <path d="M 330.66 382.84 
L 332.766888 382.84 
L 332.766888 382.84 
L 330.66 382.84 
z
" clip-path="url(#p7342774298)" style="fill: #1f77b4"/>
   </g>
   <g id="patch_117">
    <path d="M 332.766888 382.84 
L 334.873776 382.84 
L 334.873776 135.488915 
L 332.766888 135.488915 
z
" clip-path="url(#p7342774298)" style="fill: #1f77b4"/>
   </g>
   <g id="patch_118">
    <path d="M 334.873776 382.84 
L 336.980665 382.84 
L 336.980665 382.84 
L 334.873776 382.84 
z
" clip-path="url(#p7342774298)" style="fill: #1f77b4"/>
   </g>
   <g id="patch_119">
    <path d="M 336.980665 382.84 
L 339.087553 382.84 
L 339.087553 153.685481 
L 336.980665 153.685481 
z
" clip-path="url(#p7342774298)" style="fill: #1f77b4"/>
   </g>
   <g id="patch_120">
    <path d="M 339.087553 382.84 
L 341.194441 382.84 
L 341.194441 382.84 
L 339.087553 382.84 
z
" clip-path="url(#p7342774298)" style="fill: #1f77b4"/>
   </g>
   <g id="patch_121">
    <path d="M 341.194441 382.84 
L 343.301329 382.84 
L 343.301329 168.996398 
L 341.194441 168.996398 
z
" clip-path="url(#p7342774298)" style="fill: #1f77b4"/>
   </g>
   <g id="patch_122">
    <path d="M 343.301329 382.84 
L 345.408217 382.84 
L 345.408217 382.84 
L 343.301329 382.84 
z
" clip-path="url(#p7342774298)" style="fill: #1f77b4"/>
   </g>
   <g id="patch_123">
    <path d="M 345.408217 382.84 
L 347.515105 382.84 
L 347.515105 382.84 
L 345.408217 382.84 
z
" clip-path="url(#p7342774298)" style="fill: #1f77b4"/>
   </g>
   <g id="patch_124">
    <path d="M 347.515105 382.84 
L 349.621994 382.84 
L 349.621994 185.054189 
L 347.515105 185.054189 
z
" clip-path="url(#p7342774298)" style="fill: #1f77b4"/>
   </g>
   <g id="patch_125">
    <path d="M 349.621994 382.84 
L 351.728882 382.84 
L 351.728882 382.84 
L 349.621994 382.84 
z
" clip-path="url(#p7342774298)" style="fill: #1f77b4"/>
   </g>
   <g id="patch_126">
    <path d="M 351.728882 382.84 
L 353.83577 382.84 
L 353.83577 200.704593 
L 351.728882 200.704593 
z
" clip-path="url(#p7342774298)" style="fill: #1f77b4"/>
   </g>
   <g id="patch_127">
    <path d="M 353.83577 382.84 
L 355.942658 382.84 
L 355.942658 382.84 
L 353.83577 382.84 
z
" clip-path="url(#p7342774298)" style="fill: #1f77b4"/>
   </g>
   <g id="patch_128">
    <path d="M 355.942658 382.84 
L 358.049546 382.84 
L 358.049546 216.422896 
L 355.942658 216.422896 
z
" clip-path="url(#p7342774298)" style="fill: #1f77b4"/>
   </g>
   <g id="patch_129">
    <path d="M 358.049546 382.84 
L 360.156434 382.84 
L 360.156434 382.84 
L 358.049546 382.84 
z
" clip-path="url(#p7342774298)" style="fill: #1f77b4"/>
   </g>
   <g id="patch_130">
    <path d="M 360.156434 382.84 
L 362.263323 382.84 
L 362.263323 382.84 
L 360.156434 382.84 
z
" clip-path="url(#p7342774298)" style="fill: #1f77b4"/>
   </g>
   <g id="patch_131">
    <path d="M 362.263323 382.84 
L 364.370211 382.84 
L 364.370211 233.091765 
L 362.263323 233.091765 
z
" clip-path="url(#p7342774298)" style="fill: #1f77b4"/>
   </g>
   <g id="patch_132">
    <path d="M 364.370211 382.84 
L 366.477099 382.84 
L 366.477099 382.84 
L 364.370211 382.84 
z
" clip-path="url(#p7342774298)" style="fill: #1f77b4"/>
   </g>
   <g id="patch_133">
    <path d="M 366.477099 382.84 
L 368.583987 382.84 
L 368.583987 247.995296 
L 366.477099 247.995296 
z
" clip-path="url(#p7342774298)" style="fill: #1f77b4"/>
   </g>
   <g id="patch_134">
    <path d="M 368.583987 382.84 
L 370.690875 382.84 
L 370.690875 382.84 
L 368.583987 382.84 
z
" clip-path="url(#p7342774298)" style="fill: #1f77b4"/>
   </g>
   <g id="patch_135">
    <path d="M 370.690875 382.84 
L 372.797764 382.84 
L 372.797764 252.748131 
L 370.690875 252.748131 
z
" clip-path="url(#p7342774298)" style="fill: #1f77b4"/>
   </g>
   <g id="patch_136">
    <path d="M 372.797764 382.84 
L 374.904652 382.84 
L 374.904652 382.84 
L 372.797764 382.84 
z
" clip-path="url(#p7342774298)" style="fill: #1f77b4"/>
   </g>
   <g id="patch_137">
    <path d="M 374.904652 382.84 
L 377.01154 382.84 
L 377.01154 270.57126 
L 374.904652 270.57126 
z
" clip-path="url(#p7342774298)" style="fill: #1f77b4"/>
   </g>
   <g id="patch_138">
    <path d="M 377.01154 382.84 
L 379.118428 382.84 
L 379.118428 382.84 
L 377.01154 382.84 
z
" clip-path="url(#p7342774298)" style="fill: #1f77b4"/>
   </g>
   <g id="patch_139">
    <path d="M 379.118428 382.84 
L 381.225316 382.84 
L 381.225316 382.84 
L 379.118428 382.84 
z
" clip-path="url(#p7342774298)" style="fill: #1f77b4"/>
   </g>
   <g id="patch_140">
    <path d="M 381.225316 382.84 
L 383.332204 382.84 
L 383.332204 281.366984 
L 381.225316 281.366984 
z
" clip-path="url(#p7342774298)" style="fill: #1f77b4"/>
   </g>
   <g id="patch_141">
    <path d="M 383.332204 382.84 
L 385.439093 382.84 
L 385.439093 382.84 
L 383.332204 382.84 
z
" clip-path="url(#p7342774298)" style="fill: #1f77b4"/>
   </g>
   <g id="patch_142">
    <path d="M 385.439093 382.84 
L 387.545981 382.84 
L 387.545981 288.054901 
L 385.439093 288.054901 
z
" clip-path="url(#p7342774298)" style="fill: #1f77b4"/>
   </g>
   <g id="patch_143">
    <path d="M 387.545981 382.84 
L 389.652869 382.84 
L 389.652869 382.84 
L 387.545981 382.84 
z
" clip-path="url(#p7342774298)" style="fill: #1f77b4"/>
   </g>
   <g id="patch_144">
    <path d="M 389.652869 382.84 
L 391.759757 382.84 
L 391.759757 299.156165 
L 389.652869 299.156165 
z
" clip-path="url(#p7342774298)" style="fill: #1f77b4"/>
   </g>
   <g id="patch_145">
    <path d="M 391.759757 382.84 
L 393.866645 382.84 
L 393.866645 382.84 
L 391.759757 382.84 
z
" clip-path="url(#p7342774298)" style="fill: #1f77b4"/>
   </g>
   <g id="patch_146">
    <path d="M 393.866645 382.84 
L 395.973533 382.84 
L 395.973533 307.269932 
L 393.866645 307.269932 
z
" clip-path="url(#p7342774298)" style="fill: #1f77b4"/>
   </g>
   <g id="patch_147">
    <path d="M 395.973533 382.84 
L 398.080422 382.84 
L 398.080422 382.84 
L 395.973533 382.84 
z
" clip-path="url(#p7342774298)" style="fill: #1f77b4"/>
   </g>
   <g id="patch_148">
    <path d="M 398.080422 382.84 
L 400.18731 382.84 
L 400.18731 382.84 
L 398.080422 382.84 
z
" clip-path="url(#p7342774298)" style="fill: #1f77b4"/>
   </g>
   <g id="patch_149">
    <path d="M 400.18731 382.84 
L 402.294198 382.84 
L 402.294198 313.041231 
L 400.18731 313.041231 
z
" clip-path="url(#p7342774298)" style="fill: #1f77b4"/>
   </g>
   <g id="patch_150">
    <path d="M 402.294198 382.84 
L 404.401086 382.84 
L 404.401086 382.84 
L 402.294198 382.84 
z
" clip-path="url(#p7342774298)" style="fill: #1f77b4"/>
   </g>
   <g id="patch_151">
    <path d="M 404.401086 382.84 
L 406.507974 382.84 
L 406.507974 321.596333 
L 404.401086 321.596333 
z
" clip-path="url(#p7342774298)" style="fill: #1f77b4"/>
   </g>
   <g id="patch_152">
    <path d="M 406.507974 382.84 
L 408.614862 382.84 
L 408.614862 382.84 
L 406.507974 382.84 
z
" clip-path="url(#p7342774298)" style="fill: #1f77b4"/>
   </g>
   <g id="patch_153">
    <path d="M 408.614862 382.84 
L 410.721751 382.84 
L 410.721751 330.490923 
L 408.614862 330.490923 
z
" clip-path="url(#p7342774298)" style="fill: #1f77b4"/>
   </g>
   <g id="patch_154">
    <path d="M 410.721751 382.84 
L 412.828639 382.84 
L 412.828639 382.84 
L 410.721751 382.84 
z
" clip-path="url(#p7342774298)" style="fill: #1f77b4"/>
   </g>
   <g id="patch_155">
    <path d="M 412.828639 382.84 
L 414.935527 382.84 
L 414.935527 382.84 
L 412.828639 382.84 
z
" clip-path="url(#p7342774298)" style="fill: #1f77b4"/>
   </g>
   <g id="patch_156">
    <path d="M 414.935527 382.84 
L 417.042415 382.84 
L 417.042415 337.993612 
L 414.935527 337.993612 
z
" clip-path="url(#p7342774298)" style="fill: #1f77b4"/>
   </g>
   <g id="patch_157">
    <path d="M 417.042415 382.84 
L 419.149303 382.84 
L 419.149303 382.84 
L 417.042415 382.84 
z
" clip-path="url(#p7342774298)" style="fill: #1f77b4"/>
   </g>
   <g id="patch_158">
    <path d="M 419.149303 382.84 
L 421.256191 382.84 
L 421.256191 343.968604 
L 419.149303 343.968604 
z
" clip-path="url(#p7342774298)" style="fill: #1f77b4"/>
   </g>
   <g id="patch_159">
    <path d="M 421.256191 382.84 
L 423.36308 382.84 
L 423.36308 382.84 
L 421.256191 382.84 
z
" clip-path="url(#p7342774298)" style="fill: #1f77b4"/>
   </g>
   <g id="patch_160">
    <path d="M 423.36308 382.84 
L 425.469968 382.84 
L 425.469968 350.486777 
L 423.36308 350.486777 
z
" clip-path="url(#p7342774298)" style="fill: #1f77b4"/>
   </g>
   <g id="patch_161">
    <path d="M 425.469968 382.84 
L 427.576856 382.84 
L 427.576856 382.84 
L 425.469968 382.84 
z
" clip-path="url(#p7342774298)" style="fill: #1f77b4"/>
   </g>
   <g id="patch_162">
    <path d="M 427.576856 382.84 
L 429.683744 382.84 
L 429.683744 356.156229 
L 427.576856 356.156229 
z
" clip-path="url(#p7342774298)" style="fill: #1f77b4"/>
   </g>
   <g id="patch_163">
    <path d="M 429.683744 382.84 
L 431.790632 382.84 
L 431.790632 382.84 
L 429.683744 382.84 
z
" clip-path="url(#p7342774298)" style="fill: #1f77b4"/>
   </g>
   <g id="patch_164">
    <path d="M 431.790632 382.84 
L 433.89752 382.84 
L 433.89752 382.84 
L 431.790632 382.84 
z
" clip-path="url(#p7342774298)" style="fill: #1f77b4"/>
   </g>
   <g id="patch_165">
    <path d="M 433.89752 382.84 
L 436.004409 382.84 
L 436.004409 360.73932 
L 433.89752 360.73932 
z
" clip-path="url(#p7342774298)" style="fill: #1f77b4"/>
   </g>
   <g id="patch_166">
    <path d="M 436.004409 382.84 
L 438.111297 382.84 
L 438.111297 382.84 
L 436.004409 382.84 
z
" clip-path="url(#p7342774298)" style="fill: #1f77b4"/>
   </g>
   <g id="patch_167">
    <path d="M 438.111297 382.84 
L 440.218185 382.84 
L 440.218185 365.594001 
L 438.111297 365.594001 
z
" clip-path="url(#p7342774298)" style="fill: #1f77b4"/>
   </g>
   <g id="patch_168">
    <path d="M 440.218185 382.84 
L 442.325073 382.84 
L 442.325073 382.84 
L 440.218185 382.84 
z
" clip-path="url(#p7342774298)" style="fill: #1f77b4"/>
   </g>
   <g id="patch_169">
    <path d="M 442.325073 382.84 
L 444.431961 382.84 
L 444.431961 368.106213 
L 442.325073 368.106213 
z
" clip-path="url(#p7342774298)" style="fill: #1f77b4"/>
   </g>
   <g id="patch_170">
    <path d="M 444.431961 382.84 
L 446.538849 382.84 
L 446.538849 382.84 
L 444.431961 382.84 
z
" clip-path="url(#p7342774298)" style="fill: #1f77b4"/>
   </g>
   <g id="patch_171">
    <path d="M 446.538849 382.84 
L 448.645738 382.84 
L 448.645738 382.84 
L 446.538849 382.84 
z
" clip-path="url(#p7342774298)" style="fill: #1f77b4"/>
   </g>
   <g id="patch_172">
    <path d="M 448.645738 382.84 
L 450.752626 382.84 
L 450.752626 372.553508 
L 448.645738 372.553508 
z
" clip-path="url(#p7342774298)" style="fill: #1f77b4"/>
   </g>
   <g id="patch_173">
    <path d="M 450.752626 382.84 
L 452.859514 382.84 
L 452.859514 382.84 
L 450.752626 382.84 
z
" clip-path="url(#p7342774298)" style="fill: #1f77b4"/>
   </g>
   <g id="patch_174">
    <path d="M 452.859514 382.84 
L 454.966402 382.84 
L 454.966402 374.386744 
L 452.859514 374.386744 
z
" clip-path="url(#p7342774298)" style="fill: #1f77b4"/>
   </g>
   <g id="patch_175">
    <path d="M 454.966402 382.84 
L 457.07329 382.84 
L 457.07329 382.84 
L 454.966402 382.84 
z
" clip-path="url(#p7342774298)" style="fill: #1f77b4"/>
   </g>
   <g id="patch_176">
    <path d="M 457.07329 382.84 
L 459.180178 382.84 
L 459.180178 376.729213 
L 457.07329 376.729213 
z
" clip-path="url(#p7342774298)" style="fill: #1f77b4"/>
   </g>
   <g id="patch_177">
    <path d="M 459.180178 382.84 
L 461.287067 382.84 
L 461.287067 382.84 
L 459.180178 382.84 
z
" clip-path="url(#p7342774298)" style="fill: #1f77b4"/>
   </g>
   <g id="patch_178">
    <path d="M 461.287067 382.84 
L 463.393955 382.84 
L 463.393955 382.84 
L 461.287067 382.84 
z
" clip-path="url(#p7342774298)" style="fill: #1f77b4"/>
   </g>
   <g id="patch_179">
    <path d="M 463.393955 382.84 
L 465.500843 382.84 
L 465.500843 377.577933 
L 463.393955 377.577933 
z
" clip-path="url(#p7342774298)" style="fill: #1f77b4"/>
   </g>
   <g id="patch_180">
    <path d="M 465.500843 382.84 
L 467.607731 382.84 
L 467.607731 382.84 
L 465.500843 382.84 
z
" clip-path="url(#p7342774298)" style="fill: #1f77b4"/>
   </g>
   <g id="patch_181">
    <path d="M 467.607731 382.84 
L 469.714619 382.84 
L 469.714619 378.867988 
L 467.607731 378.867988 
z
" clip-path="url(#p7342774298)" style="fill: #1f77b4"/>
   </g>
   <g id="patch_182">
    <path d="M 469.714619 382.84 
L 471.821507 382.84 
L 471.821507 382.84 
L 469.714619 382.84 
z
" clip-path="url(#p7342774298)" style="fill: #1f77b4"/>
   </g>
   <g id="patch_183">
    <path d="M 471.821507 382.84 
L 473.928396 382.84 
L 473.928396 380.090146 
L 471.821507 380.090146 
z
" clip-path="url(#p7342774298)" style="fill: #1f77b4"/>
   </g>
   <g id="patch_184">
    <path d="M 473.928396 382.84 
L 476.035284 382.84 
L 476.035284 382.84 
L 473.928396 382.84 
z
" clip-path="url(#p7342774298)" style="fill: #1f77b4"/>
   </g>
   <g id="patch_185">
    <path d="M 476.035284 382.84 
L 478.142172 382.84 
L 478.142172 380.225941 
L 476.035284 380.225941 
z
" clip-path="url(#p7342774298)" style="fill: #1f77b4"/>
   </g>
   <g id="patch_186">
    <path d="M 478.142172 382.84 
L 480.24906 382.84 
L 480.24906 382.84 
L 478.142172 382.84 
z
" clip-path="url(#p7342774298)" style="fill: #1f77b4"/>
   </g>
   <g id="patch_187">
    <path d="M 480.24906 382.84 
L 482.355948 382.84 
L 482.355948 382.84 
L 480.24906 382.84 
z
" clip-path="url(#p7342774298)" style="fill: #1f77b4"/>
   </g>
   <g id="patch_188">
    <path d="M 482.355948 382.84 
L 484.462836 382.84 
L 484.462836 380.83702 
L 482.355948 380.83702 
z
" clip-path="url(#p7342774298)" style="fill: #1f77b4"/>
   </g>
   <g id="patch_189">
    <path d="M 484.462836 382.84 
L 486.569725 382.84 
L 486.569725 382.84 
L 484.462836 382.84 
z
" clip-path="url(#p7342774298)" style="fill: #1f77b4"/>
   </g>
   <g id="patch_190">
    <path d="M 486.569725 382.84 
L 488.676613 382.84 
L 488.676613 381.244406 
L 486.569725 381.244406 
z
" clip-path="url(#p7342774298)" style="fill: #1f77b4"/>
   </g>
   <g id="patch_191">
    <path d="M 488.676613 382.84 
L 490.783501 382.84 
L 490.783501 382.84 
L 488.676613 382.84 
z
" clip-path="url(#p7342774298)" style="fill: #1f77b4"/>
   </g>
   <g id="patch_192">
    <path d="M 490.783501 382.84 
L 492.890389 382.84 
L 492.890389 381.99128 
L 490.783501 381.99128 
z
" clip-path="url(#p7342774298)" style="fill: #1f77b4"/>
   </g>
   <g id="patch_193">
    <path d="M 492.890389 382.84 
L 494.997277 382.84 
L 494.997277 382.84 
L 492.890389 382.84 
z
" clip-path="url(#p7342774298)" style="fill: #1f77b4"/>
   </g>
   <g id="patch_194">
    <path d="M 494.997277 382.84 
L 497.104166 382.84 
L 497.104166 382.84 
L 494.997277 382.84 
z
" clip-path="url(#p7342774298)" style="fill: #1f77b4"/>
   </g>
   <g id="patch_195">
    <path d="M 497.104166 382.84 
L 499.211054 382.84 
L 499.211054 382.194972 
L 497.104166 382.194972 
z
" clip-path="url(#p7342774298)" style="fill: #1f77b4"/>
   </g>
   <g id="patch_196">
    <path d="M 499.211054 382.84 
L 501.317942 382.84 
L 501.317942 382.84 
L 499.211054 382.84 
z
" clip-path="url(#p7342774298)" style="fill: #1f77b4"/>
   </g>
   <g id="patch_197">
    <path d="M 501.317942 382.84 
L 503.42483 382.84 
L 503.42483 382.161024 
L 501.317942 382.161024 
z
" clip-path="url(#p7342774298)" style="fill: #1f77b4"/>
   </g>
   <g id="patch_198">
    <path d="M 503.42483 382.84 
L 505.531718 382.84 
L 505.531718 382.84 
L 503.42483 382.84 
z
" clip-path="url(#p7342774298)" style="fill: #1f77b4"/>
   </g>
   <g id="patch_199">
    <path d="M 505.531718 382.84 
L 507.638606 382.84 
L 507.638606 382.26287 
L 505.531718 382.26287 
z
" clip-path="url(#p7342774298)" style="fill: #1f77b4"/>
   </g>
   <g id="patch_200">
    <path d="M 507.638606 382.84 
L 509.745495 382.84 
L 509.745495 382.84 
L 507.638606 382.84 
z
" clip-path="url(#p7342774298)" style="fill: #1f77b4"/>
   </g>
   <g id="patch_201">
    <path d="M 509.745495 382.84 
L 511.852383 382.84 
L 511.852383 382.670256 
L 509.745495 382.670256 
z
" clip-path="url(#p7342774298)" style="fill: #1f77b4"/>
   </g>
   <g id="patch_202">
    <path d="M 511.852383 382.84 
L 513.959271 382.84 
L 513.959271 382.84 
L 511.852383 382.84 
z
" clip-path="url(#p7342774298)" style="fill: #1f77b4"/>
   </g>
   <g id="patch_203">
    <path d="M 513.959271 382.84 
L 516.066159 382.84 
L 516.066159 382.84 
L 513.959271 382.84 
z
" clip-path="url(#p7342774298)" style="fill: #1f77b4"/>
   </g>
   <g id="patch_204">
    <path d="M 516.066159 382.84 
L 518.173047 382.84 
L 518.173047 382.738154 
L 516.066159 382.738154 
z
" clip-path="url(#p7342774298)" style="fill: #1f77b4"/>
   </g>
   <g id="patch_205">
    <path d="M 518.173047 382.84 
L 520.279935 382.84 
L 520.279935 382.84 
L 518.173047 382.84 
z
" clip-path="url(#p7342774298)" style="fill: #1f77b4"/>
   </g>
   <g id="patch_206">
    <path d="M 520.279935 382.84 
L 522.386824 382.84 
L 522.386824 382.772102 
L 520.279935 382.772102 
z
" clip-path="url(#p7342774298)" style="fill: #1f77b4"/>
   </g>
   <g id="patch_207">
    <path d="M 522.386824 382.84 
L 524.493712 382.84 
L 524.493712 382.84 
L 522.386824 382.84 
z
" clip-path="url(#p7342774298)" style="fill: #1f77b4"/>
   </g>
   <g id="patch_208">
    <path d="M 524.493712 382.84 
L 526.6006 382.84 
L 526.6006 382.84 
L 524.493712 382.84 
z
" clip-path="url(#p7342774298)" style="fill: #1f77b4"/>
   </g>
   <g id="patch_209">
    <path d="M 526.6006 382.84 
L 528.707488 382.84 
L 528.707488 382.84 
L 526.6006 382.84 
z
" clip-path="url(#p7342774298)" style="fill: #1f77b4"/>
   </g>
   <g id="patch_210">
    <path d="M 528.707488 382.84 
L 530.814376 382.84 
L 530.814376 382.806051 
L 528.707488 382.806051 
z
" clip-path="url(#p7342774298)" style="fill: #1f77b4"/>
   </g>
   <g id="matplotlib.axis_1">
    <g id="xtick_1">
     <g id="line2d_1">
      <defs>
       <path id="m5405995414" d="M 0 0 
L 0 3.5 
" style="stroke: #000000; stroke-width: 0.8"/>
      </defs>
      <g>
       <use xlink:href="#m5405995414" x="150.37057" y="382.84" style="stroke: #000000; stroke-width: 0.8"/>
      </g>
     </g>
     <g id="text_1">
      <!-- −12 -->
      <g transform="translate(139.818226 397.438438) scale(0.1 -0.1)">
       <defs>
        <path id="DejaVuSans-2212" d="M 678 2272 
L 4684 2272 
L 4684 1741 
L 678 1741 
L 678 2272 
z
" transform="scale(0.015625)"/>
        <path id="DejaVuSans-31" d="M 794 531 
L 1825 531 
L 1825 4091 
L 703 3866 
L 703 4441 
L 1819 4666 
L 2450 4666 
L 2450 531 
L 3481 531 
L 3481 0 
L 794 0 
L 794 531 
z
" transform="scale(0.015625)"/>
        <path id="DejaVuSans-32" d="M 1228 531 
L 3431 531 
L 3431 0 
L 469 0 
L 469 531 
Q 828 903 1448 1529 
Q 2069 2156 2228 2338 
Q 2531 2678 2651 2914 
Q 2772 3150 2772 3378 
Q 2772 3750 2511 3984 
Q 2250 4219 1831 4219 
Q 1534 4219 1204 4116 
Q 875 4013 500 3803 
L 500 4441 
Q 881 4594 1212 4672 
Q 1544 4750 1819 4750 
Q 2544 4750 2975 4387 
Q 3406 4025 3406 3419 
Q 3406 3131 3298 2873 
Q 3191 2616 2906 2266 
Q 2828 2175 2409 1742 
Q 1991 1309 1228 531 
z
" transform="scale(0.015625)"/>
       </defs>
       <use xlink:href="#DejaVuSans-2212"/>
       <use xlink:href="#DejaVuSans-31" x="83.789062"/>
       <use xlink:href="#DejaVuSans-32" x="147.412109"/>
      </g>
     </g>
    </g>
    <g id="xtick_2">
     <g id="line2d_2">
      <g>
       <use xlink:href="#m5405995414" x="246.685457" y="382.84" style="stroke: #000000; stroke-width: 0.8"/>
      </g>
     </g>
     <g id="text_2">
      <!-- −10 -->
      <g transform="translate(236.133114 397.438438) scale(0.1 -0.1)">
       <defs>
        <path id="DejaVuSans-30" d="M 2034 4250 
Q 1547 4250 1301 3770 
Q 1056 3291 1056 2328 
Q 1056 1369 1301 889 
Q 1547 409 2034 409 
Q 2525 409 2770 889 
Q 3016 1369 3016 2328 
Q 3016 3291 2770 3770 
Q 2525 4250 2034 4250 
z
M 2034 4750 
Q 2819 4750 3233 4129 
Q 3647 3509 3647 2328 
Q 3647 1150 3233 529 
Q 2819 -91 2034 -91 
Q 1250 -91 836 529 
Q 422 1150 422 2328 
Q 422 3509 836 4129 
Q 1250 4750 2034 4750 
z
" transform="scale(0.015625)"/>
       </defs>
       <use xlink:href="#DejaVuSans-2212"/>
       <use xlink:href="#DejaVuSans-31" x="83.789062"/>
       <use xlink:href="#DejaVuSans-30" x="147.412109"/>
      </g>
     </g>
    </g>
    <g id="xtick_3">
     <g id="line2d_3">
      <g>
       <use xlink:href="#m5405995414" x="343.000345" y="382.84" style="stroke: #000000; stroke-width: 0.8"/>
      </g>
     </g>
     <g id="text_3">
      <!-- −8 -->
      <g transform="translate(335.629251 397.438438) scale(0.1 -0.1)">
       <defs>
        <path id="DejaVuSans-38" d="M 2034 2216 
Q 1584 2216 1326 1975 
Q 1069 1734 1069 1313 
Q 1069 891 1326 650 
Q 1584 409 2034 409 
Q 2484 409 2743 651 
Q 3003 894 3003 1313 
Q 3003 1734 2745 1975 
Q 2488 2216 2034 2216 
z
M 1403 2484 
Q 997 2584 770 2862 
Q 544 3141 544 3541 
Q 544 4100 942 4425 
Q 1341 4750 2034 4750 
Q 2731 4750 3128 4425 
Q 3525 4100 3525 3541 
Q 3525 3141 3298 2862 
Q 3072 2584 2669 2484 
Q 3125 2378 3379 2068 
Q 3634 1759 3634 1313 
Q 3634 634 3220 271 
Q 2806 -91 2034 -91 
Q 1263 -91 848 271 
Q 434 634 434 1313 
Q 434 1759 690 2068 
Q 947 2378 1403 2484 
z
M 1172 3481 
Q 1172 3119 1398 2916 
Q 1625 2713 2034 2713 
Q 2441 2713 2670 2916 
Q 2900 3119 2900 3481 
Q 2900 3844 2670 4047 
Q 2441 4250 2034 4250 
Q 1625 4250 1398 4047 
Q 1172 3844 1172 3481 
z
" transform="scale(0.015625)"/>
       </defs>
       <use xlink:href="#DejaVuSans-2212"/>
       <use xlink:href="#DejaVuSans-38" x="83.789062"/>
      </g>
     </g>
    </g>
    <g id="xtick_4">
     <g id="line2d_4">
      <g>
       <use xlink:href="#m5405995414" x="439.315233" y="382.84" style="stroke: #000000; stroke-width: 0.8"/>
      </g>
     </g>
     <g id="text_4">
      <!-- −6 -->
      <g transform="translate(431.944139 397.438438) scale(0.1 -0.1)">
       <defs>
        <path id="DejaVuSans-36" d="M 2113 2584 
Q 1688 2584 1439 2293 
Q 1191 2003 1191 1497 
Q 1191 994 1439 701 
Q 1688 409 2113 409 
Q 2538 409 2786 701 
Q 3034 994 3034 1497 
Q 3034 2003 2786 2293 
Q 2538 2584 2113 2584 
z
M 3366 4563 
L 3366 3988 
Q 3128 4100 2886 4159 
Q 2644 4219 2406 4219 
Q 1781 4219 1451 3797 
Q 1122 3375 1075 2522 
Q 1259 2794 1537 2939 
Q 1816 3084 2150 3084 
Q 2853 3084 3261 2657 
Q 3669 2231 3669 1497 
Q 3669 778 3244 343 
Q 2819 -91 2113 -91 
Q 1303 -91 875 529 
Q 447 1150 447 2328 
Q 447 3434 972 4092 
Q 1497 4750 2381 4750 
Q 2619 4750 2861 4703 
Q 3103 4656 3366 4563 
z
" transform="scale(0.015625)"/>
       </defs>
       <use xlink:href="#DejaVuSans-2212"/>
       <use xlink:href="#DejaVuSans-36" x="83.789062"/>
      </g>
     </g>
    </g>
    <g id="xtick_5">
     <g id="line2d_5">
      <g>
       <use xlink:href="#m5405995414" x="535.630121" y="382.84" style="stroke: #000000; stroke-width: 0.8"/>
      </g>
     </g>
     <g id="text_5">
      <!-- −4 -->
      <g transform="translate(528.259027 397.438438) scale(0.1 -0.1)">
       <defs>
        <path id="DejaVuSans-34" d="M 2419 4116 
L 825 1625 
L 2419 1625 
L 2419 4116 
z
M 2253 4666 
L 3047 4666 
L 3047 1625 
L 3713 1625 
L 3713 1100 
L 3047 1100 
L 3047 0 
L 2419 0 
L 2419 1100 
L 313 1100 
L 313 1709 
L 2253 4666 
z
" transform="scale(0.015625)"/>
       </defs>
       <use xlink:href="#DejaVuSans-2212"/>
       <use xlink:href="#DejaVuSans-34" x="83.789062"/>
      </g>
     </g>
    </g>
    <g id="text_6">
     <!-- HSD11B1 -->
     <g transform="translate(268.932538 417.195312) scale(0.18 -0.18)">
      <defs>
       <path id="DejaVuSans-48" d="M 628 4666 
L 1259 4666 
L 1259 2753 
L 3553 2753 
L 3553 4666 
L 4184 4666 
L 4184 0 
L 3553 0 
L 3553 2222 
L 1259 2222 
L 1259 0 
L 628 0 
L 628 4666 
z
" transform="scale(0.015625)"/>
       <path id="DejaVuSans-53" d="M 3425 4513 
L 3425 3897 
Q 3066 4069 2747 4153 
Q 2428 4238 2131 4238 
Q 1616 4238 1336 4038 
Q 1056 3838 1056 3469 
Q 1056 3159 1242 3001 
Q 1428 2844 1947 2747 
L 2328 2669 
Q 3034 2534 3370 2195 
Q 3706 1856 3706 1288 
Q 3706 609 3251 259 
Q 2797 -91 1919 -91 
Q 1588 -91 1214 -16 
Q 841 59 441 206 
L 441 856 
Q 825 641 1194 531 
Q 1563 422 1919 422 
Q 2459 422 2753 634 
Q 3047 847 3047 1241 
Q 3047 1584 2836 1778 
Q 2625 1972 2144 2069 
L 1759 2144 
Q 1053 2284 737 2584 
Q 422 2884 422 3419 
Q 422 4038 858 4394 
Q 1294 4750 2059 4750 
Q 2388 4750 2728 4690 
Q 3069 4631 3425 4513 
z
" transform="scale(0.015625)"/>
       <path id="DejaVuSans-44" d="M 1259 4147 
L 1259 519 
L 2022 519 
Q 2988 519 3436 956 
Q 3884 1394 3884 2338 
Q 3884 3275 3436 3711 
Q 2988 4147 2022 4147 
L 1259 4147 
z
M 628 4666 
L 1925 4666 
Q 3281 4666 3915 4102 
Q 4550 3538 4550 2338 
Q 4550 1131 3912 565 
Q 3275 0 1925 0 
L 628 0 
L 628 4666 
z
" transform="scale(0.015625)"/>
       <path id="DejaVuSans-42" d="M 1259 2228 
L 1259 519 
L 2272 519 
Q 2781 519 3026 730 
Q 3272 941 3272 1375 
Q 3272 1813 3026 2020 
Q 2781 2228 2272 2228 
L 1259 2228 
z
M 1259 4147 
L 1259 2741 
L 2194 2741 
Q 2656 2741 2882 2914 
Q 3109 3088 3109 3444 
Q 3109 3797 2882 3972 
Q 2656 4147 2194 4147 
L 1259 4147 
z
M 628 4666 
L 2241 4666 
Q 2963 4666 3353 4366 
Q 3744 4066 3744 3513 
Q 3744 3084 3544 2831 
Q 3344 2578 2956 2516 
Q 3422 2416 3680 2098 
Q 3938 1781 3938 1306 
Q 3938 681 3513 340 
Q 3088 0 2303 0 
L 628 0 
L 628 4666 
z
" transform="scale(0.015625)"/>
      </defs>
      <use xlink:href="#DejaVuSans-48"/>
      <use xlink:href="#DejaVuSans-53" x="75.195312"/>
      <use xlink:href="#DejaVuSans-44" x="138.671875"/>
      <use xlink:href="#DejaVuSans-31" x="215.673828"/>
      <use xlink:href="#DejaVuSans-31" x="279.296875"/>
      <use xlink:href="#DejaVuSans-42" x="342.919922"/>
      <use xlink:href="#DejaVuSans-31" x="411.523438"/>
     </g>
    </g>
   </g>
   <g id="matplotlib.axis_2">
    <g id="ytick_1">
     <g id="line2d_6">
      <defs>
       <path id="m868e1d964c" d="M 0 0 
L -3.5 0 
" style="stroke: #000000; stroke-width: 0.8"/>
      </defs>
      <g>
       <use xlink:href="#m868e1d964c" x="70.67" y="382.84" style="stroke: #000000; stroke-width: 0.8"/>
      </g>
     </g>
     <g id="text_7">
      <!-- 0 -->
      <g transform="translate(57.3075 386.639219) scale(0.1 -0.1)">
       <use xlink:href="#DejaVuSans-30"/>
      </g>
     </g>
    </g>
    <g id="ytick_2">
     <g id="line2d_7">
      <g>
       <use xlink:href="#m868e1d964c" x="70.67" y="314.942365" style="stroke: #000000; stroke-width: 0.8"/>
      </g>
     </g>
     <g id="text_8">
      <!-- 2000 -->
      <g transform="translate(38.22 318.741584) scale(0.1 -0.1)">
       <use xlink:href="#DejaVuSans-32"/>
       <use xlink:href="#DejaVuSans-30" x="63.623047"/>
       <use xlink:href="#DejaVuSans-30" x="127.246094"/>
       <use xlink:href="#DejaVuSans-30" x="190.869141"/>
      </g>
     </g>
    </g>
    <g id="ytick_3">
     <g id="line2d_8">
      <g>
       <use xlink:href="#m868e1d964c" x="70.67" y="247.04473" style="stroke: #000000; stroke-width: 0.8"/>
      </g>
     </g>
     <g id="text_9">
      <!-- 4000 -->
      <g transform="translate(38.22 250.843948) scale(0.1 -0.1)">
       <use xlink:href="#DejaVuSans-34"/>
       <use xlink:href="#DejaVuSans-30" x="63.623047"/>
       <use xlink:href="#DejaVuSans-30" x="127.246094"/>
       <use xlink:href="#DejaVuSans-30" x="190.869141"/>
      </g>
     </g>
    </g>
    <g id="ytick_4">
     <g id="line2d_9">
      <g>
       <use xlink:href="#m868e1d964c" x="70.67" y="179.147094" style="stroke: #000000; stroke-width: 0.8"/>
      </g>
     </g>
     <g id="text_10">
      <!-- 6000 -->
      <g transform="translate(38.22 182.946313) scale(0.1 -0.1)">
       <use xlink:href="#DejaVuSans-36"/>
       <use xlink:href="#DejaVuSans-30" x="63.623047"/>
       <use xlink:href="#DejaVuSans-30" x="127.246094"/>
       <use xlink:href="#DejaVuSans-30" x="190.869141"/>
      </g>
     </g>
    </g>
    <g id="ytick_5">
     <g id="line2d_10">
      <g>
       <use xlink:href="#m868e1d964c" x="70.67" y="111.249459" style="stroke: #000000; stroke-width: 0.8"/>
      </g>
     </g>
     <g id="text_11">
      <!-- 8000 -->
      <g transform="translate(38.22 115.048678) scale(0.1 -0.1)">
       <use xlink:href="#DejaVuSans-38"/>
       <use xlink:href="#DejaVuSans-30" x="63.623047"/>
       <use xlink:href="#DejaVuSans-30" x="127.246094"/>
       <use xlink:href="#DejaVuSans-30" x="190.869141"/>
      </g>
     </g>
    </g>
    <g id="ytick_6">
     <g id="line2d_11">
      <g>
       <use xlink:href="#m868e1d964c" x="70.67" y="43.351824" style="stroke: #000000; stroke-width: 0.8"/>
      </g>
     </g>
     <g id="text_12">
      <!-- 10000 -->
      <g transform="translate(31.8575 47.151043) scale(0.1 -0.1)">
       <use xlink:href="#DejaVuSans-31"/>
       <use xlink:href="#DejaVuSans-30" x="63.623047"/>
       <use xlink:href="#DejaVuSans-30" x="127.246094"/>
       <use xlink:href="#DejaVuSans-30" x="190.869141"/>
       <use xlink:href="#DejaVuSans-30" x="254.492188"/>
      </g>
     </g>
    </g>
    <g id="text_13">
     <!-- Count -->
     <g transform="translate(24.114063 223.547188) rotate(-90) scale(0.18 -0.18)">
      <defs>
       <path id="DejaVuSans-43" d="M 4122 4306 
L 4122 3641 
Q 3803 3938 3442 4084 
Q 3081 4231 2675 4231 
Q 1875 4231 1450 3742 
Q 1025 3253 1025 2328 
Q 1025 1406 1450 917 
Q 1875 428 2675 428 
Q 3081 428 3442 575 
Q 3803 722 4122 1019 
L 4122 359 
Q 3791 134 3420 21 
Q 3050 -91 2638 -91 
Q 1578 -91 968 557 
Q 359 1206 359 2328 
Q 359 3453 968 4101 
Q 1578 4750 2638 4750 
Q 3056 4750 3426 4639 
Q 3797 4528 4122 4306 
z
" transform="scale(0.015625)"/>
       <path id="DejaVuSans-6f" d="M 1959 3097 
Q 1497 3097 1228 2736 
Q 959 2375 959 1747 
Q 959 1119 1226 758 
Q 1494 397 1959 397 
Q 2419 397 2687 759 
Q 2956 1122 2956 1747 
Q 2956 2369 2687 2733 
Q 2419 3097 1959 3097 
z
M 1959 3584 
Q 2709 3584 3137 3096 
Q 3566 2609 3566 1747 
Q 3566 888 3137 398 
Q 2709 -91 1959 -91 
Q 1206 -91 779 398 
Q 353 888 353 1747 
Q 353 2609 779 3096 
Q 1206 3584 1959 3584 
z
" transform="scale(0.015625)"/>
       <path id="DejaVuSans-75" d="M 544 1381 
L 544 3500 
L 1119 3500 
L 1119 1403 
Q 1119 906 1312 657 
Q 1506 409 1894 409 
Q 2359 409 2629 706 
Q 2900 1003 2900 1516 
L 2900 3500 
L 3475 3500 
L 3475 0 
L 2900 0 
L 2900 538 
Q 2691 219 2414 64 
Q 2138 -91 1772 -91 
Q 1169 -91 856 284 
Q 544 659 544 1381 
z
M 1991 3584 
L 1991 3584 
z
" transform="scale(0.015625)"/>
       <path id="DejaVuSans-6e" d="M 3513 2113 
L 3513 0 
L 2938 0 
L 2938 2094 
Q 2938 2591 2744 2837 
Q 2550 3084 2163 3084 
Q 1697 3084 1428 2787 
Q 1159 2491 1159 1978 
L 1159 0 
L 581 0 
L 581 3500 
L 1159 3500 
L 1159 2956 
Q 1366 3272 1645 3428 
Q 1925 3584 2291 3584 
Q 2894 3584 3203 3211 
Q 3513 2838 3513 2113 
z
" transform="scale(0.015625)"/>
       <path id="DejaVuSans-74" d="M 1172 4494 
L 1172 3500 
L 2356 3500 
L 2356 3053 
L 1172 3053 
L 1172 1153 
Q 1172 725 1289 603 
Q 1406 481 1766 481 
L 2356 481 
L 2356 0 
L 1766 0 
Q 1100 0 847 248 
Q 594 497 594 1153 
L 594 3053 
L 172 3053 
L 172 3500 
L 594 3500 
L 594 4494 
L 1172 4494 
z
" transform="scale(0.015625)"/>
      </defs>
      <use xlink:href="#DejaVuSans-43"/>
      <use xlink:href="#DejaVuSans-6f" x="69.824219"/>
      <use xlink:href="#DejaVuSans-75" x="131.005859"/>
      <use xlink:href="#DejaVuSans-6e" x="194.384766"/>
      <use xlink:href="#DejaVuSans-74" x="257.763672"/>
     </g>
    </g>
   </g>
   <g id="line2d_12">
    <path d="M 256.316946 382.84 
L 256.316946 28.51619 
" clip-path="url(#p7342774298)" style="fill: none; stroke: #ff0000; stroke-width: 1.6; stroke-linecap: square"/>
   </g>
   <g id="patch_211">
    <path d="M 70.67 382.84 
L 70.67 10.8 
" style="fill: none; stroke: #000000; stroke-width: 0.8; stroke-linejoin: miter; stroke-linecap: square"/>
   </g>
   <g id="patch_212">
    <path d="M 552.726013 382.84 
L 552.726013 10.8 
" style="fill: none; stroke: #000000; stroke-width: 0.8; stroke-linejoin: miter; stroke-linecap: square"/>
   </g>
   <g id="patch_213">
    <path d="M 70.67 382.84 
L 552.726013 382.84 
" style="fill: none; stroke: #000000; stroke-width: 0.8; stroke-linejoin: miter; stroke-linecap: square"/>
   </g>
   <g id="patch_214">
    <path d="M 70.67 10.8 
L 552.726013 10.8 
" style="fill: none; stroke: #000000; stroke-width: 0.8; stroke-linejoin: miter; stroke-linecap: square"/>
   </g>
   <g id="text_14">
    <!-- $\mu_11 = -8.779$ -->
    <g transform="translate(408.109209 61.649937) scale(0.21 -0.21)">
     <defs>
      <path id="DejaVuSans-Oblique-3bc" d="M -84 -1331 
L 856 3500 
L 1434 3500 
L 1009 1322 
Q 997 1256 987 1175 
Q 978 1094 978 1013 
Q 978 722 1161 565 
Q 1344 409 1684 409 
Q 2147 409 2431 671 
Q 2716 934 2816 1459 
L 3213 3500 
L 3788 3500 
L 3266 809 
Q 3253 750 3248 706 
Q 3244 663 3244 628 
Q 3244 531 3283 486 
Q 3322 441 3406 441 
Q 3438 441 3492 456 
Q 3547 472 3647 513 
L 3559 50 
Q 3422 -19 3297 -55 
Q 3172 -91 3053 -91 
Q 2847 -91 2730 40 
Q 2613 172 2613 403 
Q 2438 153 2195 31 
Q 1953 -91 1625 -91 
Q 1334 -91 1117 43 
Q 900 178 831 397 
L 494 -1331 
L -84 -1331 
z
" transform="scale(0.015625)"/>
      <path id="DejaVuSans-3d" d="M 678 2906 
L 4684 2906 
L 4684 2381 
L 678 2381 
L 678 2906 
z
M 678 1631 
L 4684 1631 
L 4684 1100 
L 678 1100 
L 678 1631 
z
" transform="scale(0.015625)"/>
      <path id="DejaVuSans-2e" d="M 684 794 
L 1344 794 
L 1344 0 
L 684 0 
L 684 794 
z
" transform="scale(0.015625)"/>
      <path id="DejaVuSans-37" d="M 525 4666 
L 3525 4666 
L 3525 4397 
L 1831 0 
L 1172 0 
L 2766 4134 
L 525 4134 
L 525 4666 
z
" transform="scale(0.015625)"/>
      <path id="DejaVuSans-39" d="M 703 97 
L 703 672 
Q 941 559 1184 500 
Q 1428 441 1663 441 
Q 2288 441 2617 861 
Q 2947 1281 2994 2138 
Q 2813 1869 2534 1725 
Q 2256 1581 1919 1581 
Q 1219 1581 811 2004 
Q 403 2428 403 3163 
Q 403 3881 828 4315 
Q 1253 4750 1959 4750 
Q 2769 4750 3195 4129 
Q 3622 3509 3622 2328 
Q 3622 1225 3098 567 
Q 2575 -91 1691 -91 
Q 1453 -91 1209 -44 
Q 966 3 703 97 
z
M 1959 2075 
Q 2384 2075 2632 2365 
Q 2881 2656 2881 3163 
Q 2881 3666 2632 3958 
Q 2384 4250 1959 4250 
Q 1534 4250 1286 3958 
Q 1038 3666 1038 3163 
Q 1038 2656 1286 2365 
Q 1534 2075 1959 2075 
z
" transform="scale(0.015625)"/>
     </defs>
     <use xlink:href="#DejaVuSans-Oblique-3bc" transform="translate(0 0.78125)"/>
     <use xlink:href="#DejaVuSans-31" transform="translate(63.623047 -15.625) scale(0.7)"/>
     <use xlink:href="#DejaVuSans-31" transform="translate(110.893555 0.78125)"/>
     <use xlink:href="#DejaVuSans-3d" transform="translate(193.999023 0.78125)"/>
     <use xlink:href="#DejaVuSans-2212" transform="translate(316.75293 0.78125)"/>
     <use xlink:href="#DejaVuSans-38" transform="translate(420.024414 0.78125)"/>
     <use xlink:href="#DejaVuSans-2e" transform="translate(483.647461 0.78125)"/>
     <use xlink:href="#DejaVuSans-37" transform="translate(507.68457 0.78125)"/>
     <use xlink:href="#DejaVuSans-37" transform="translate(569.557617 0.78125)"/>
     <use xlink:href="#DejaVuSans-39" transform="translate(633.180664 0.78125)"/>
    </g>
    <!-- $\sigma_11 = 1.064$ -->
    <g transform="translate(408.109209 85.208) scale(0.21 -0.21)">
     <defs>
      <path id="DejaVuSans-Oblique-3c3" d="M 2219 3044 
Q 1744 3044 1422 2700 
Q 1081 2341 969 1747 
Q 844 1119 1044 756 
Q 1241 397 1706 397 
Q 2166 397 2503 759 
Q 2844 1122 2966 1747 
Q 3075 2319 2881 2700 
Q 2700 3044 2219 3044 
z
M 2309 3503 
L 4219 3500 
L 4106 2925 
L 3463 2925 
Q 3706 2438 3575 1747 
Q 3406 888 2884 400 
Q 2359 -91 1609 -91 
Q 856 -91 525 400 
Q 194 888 363 1747 
Q 528 2609 1050 3097 
Q 1484 3503 2309 3503 
z
" transform="scale(0.015625)"/>
     </defs>
     <use xlink:href="#DejaVuSans-Oblique-3c3" transform="translate(0 0.78125)"/>
     <use xlink:href="#DejaVuSans-31" transform="translate(63.378906 -15.625) scale(0.7)"/>
     <use xlink:href="#DejaVuSans-31" transform="translate(110.649414 0.78125)"/>
     <use xlink:href="#DejaVuSans-3d" transform="translate(193.754883 0.78125)"/>
     <use xlink:href="#DejaVuSans-31" transform="translate(297.026367 0.78125)"/>
     <use xlink:href="#DejaVuSans-2e" transform="translate(360.649414 0.78125)"/>
     <use xlink:href="#DejaVuSans-30" transform="translate(392.436523 0.78125)"/>
     <use xlink:href="#DejaVuSans-36" transform="translate(456.05957 0.78125)"/>
     <use xlink:href="#DejaVuSans-34" transform="translate(519.682617 0.78125)"/>
    </g>
   </g>
  </g>
 </g>
 <defs>
  <clipPath id="p7342774298">
   <rect x="70.67" y="10.8" width="482.056013" height="372.04"/>
  </clipPath>
 </defs>
</svg>
