<?xml version="1.0" encoding="utf-8" standalone="no"?>
<!DOCTYPE svg PUBLIC "-//W3C//DTD SVG 1.1//EN"
  "http://www.w3.org/Graphics/SVG/1.1/DTD/svg11.dtd">
<svg xmlns:xlink="http://www.w3.org/1999/xlink" width="576pt" height="432pt" viewBox="0 0 576 432" xmlns="http://www.w3.org/2000/svg" version="1.1">
 <metadata>
  <rdf:RDF xmlns:dc="http://purl.org/dc/elements/1.1/" xmlns:cc="http://creativecommons.org/ns#" xmlns:rdf="http://www.w3.org/1999/02/22-rdf-syntax-ns#">
   <cc:Work>
    <dc:type rdf:resource="http://purl.org/dc/dcmitype/StillImage"/>
    <dc:date>2024-09-05T19:41:12.392730</dc:date>
    <dc:format>image/svg+xml</dc:format>
    <dc:creator>
     <cc:Agent>
      <dc:title>Matplotlib v3.7.2, https://matplotlib.org/</dc:title>
     </cc:Agent>
    </dc:creator>
   </cc:Work>
  </rdf:RDF>
 </metadata>
 <defs>
  <style type="text/css">*{stroke-linejoin: round; stroke-linecap: butt}</style>
 </defs>
 <g id="figure_1">
  <g id="patch_1">
   <path d="M 0 432 
L 576 432 
L 576 0 
L 0 0 
z
" style="fill: #ffffff"/>
  </g>
  <g id="axes_1">
   <g id="patch_2">
    <path d="M 70.67 382.84 
L 564.087766 382.84 
L 564.087766 10.8 
L 70.67 10.8 
z
" style="fill: #ffffff"/>
   </g>
   <g id="patch_3">
    <path d="M 93.09808 382.84 
L 95.174754 382.84 
L 95.174754 382.810305 
L 93.09808 382.810305 
z
" clip-path="url(#paf825cfe46)" style="fill: #1f77b4"/>
   </g>
   <g id="patch_4">
    <path d="M 95.174754 382.84 
L 97.251428 382.84 
L 97.251428 382.84 
L 95.174754 382.84 
z
" clip-path="url(#paf825cfe46)" style="fill: #1f77b4"/>
   </g>
   <g id="patch_5">
    <path d="M 97.251428 382.84 
L 99.328103 382.84 
L 99.328103 382.810305 
L 97.251428 382.810305 
z
" clip-path="url(#paf825cfe46)" style="fill: #1f77b4"/>
   </g>
   <g id="patch_6">
    <path d="M 99.328103 382.84 
L 101.404777 382.84 
L 101.404777 382.84 
L 99.328103 382.84 
z
" clip-path="url(#paf825cfe46)" style="fill: #1f77b4"/>
   </g>
   <g id="patch_7">
    <path d="M 101.404777 382.84 
L 103.481451 382.84 
L 103.481451 382.84 
L 101.404777 382.84 
z
" clip-path="url(#paf825cfe46)" style="fill: #1f77b4"/>
   </g>
   <g id="patch_8">
    <path d="M 103.481451 382.84 
L 105.558125 382.84 
L 105.558125 382.780609 
L 103.481451 382.780609 
z
" clip-path="url(#paf825cfe46)" style="fill: #1f77b4"/>
   </g>
   <g id="patch_9">
    <path d="M 105.558125 382.84 
L 107.634799 382.84 
L 107.634799 382.84 
L 105.558125 382.84 
z
" clip-path="url(#paf825cfe46)" style="fill: #1f77b4"/>
   </g>
   <g id="patch_10">
    <path d="M 107.634799 382.84 
L 109.711473 382.84 
L 109.711473 382.810305 
L 107.634799 382.810305 
z
" clip-path="url(#paf825cfe46)" style="fill: #1f77b4"/>
   </g>
   <g id="patch_11">
    <path d="M 109.711473 382.84 
L 111.788147 382.84 
L 111.788147 382.84 
L 109.711473 382.84 
z
" clip-path="url(#paf825cfe46)" style="fill: #1f77b4"/>
   </g>
   <g id="patch_12">
    <path d="M 111.788147 382.84 
L 113.864821 382.84 
L 113.864821 382.84 
L 111.788147 382.84 
z
" clip-path="url(#paf825cfe46)" style="fill: #1f77b4"/>
   </g>
   <g id="patch_13">
    <path d="M 113.864821 382.84 
L 115.941495 382.84 
L 115.941495 382.810305 
L 113.864821 382.810305 
z
" clip-path="url(#paf825cfe46)" style="fill: #1f77b4"/>
   </g>
   <g id="patch_14">
    <path d="M 115.941495 382.84 
L 118.018169 382.84 
L 118.018169 382.84 
L 115.941495 382.84 
z
" clip-path="url(#paf825cfe46)" style="fill: #1f77b4"/>
   </g>
   <g id="patch_15">
    <path d="M 118.018169 382.84 
L 120.094844 382.84 
L 120.094844 382.84 
L 118.018169 382.84 
z
" clip-path="url(#paf825cfe46)" style="fill: #1f77b4"/>
   </g>
   <g id="patch_16">
    <path d="M 120.094844 382.84 
L 122.171518 382.84 
L 122.171518 382.780609 
L 120.094844 382.780609 
z
" clip-path="url(#paf825cfe46)" style="fill: #1f77b4"/>
   </g>
   <g id="patch_17">
    <path d="M 122.171518 382.84 
L 124.248192 382.84 
L 124.248192 382.84 
L 122.171518 382.84 
z
" clip-path="url(#paf825cfe46)" style="fill: #1f77b4"/>
   </g>
   <g id="patch_18">
    <path d="M 124.248192 382.84 
L 126.324866 382.84 
L 126.324866 382.84 
L 124.248192 382.84 
z
" clip-path="url(#paf825cfe46)" style="fill: #1f77b4"/>
   </g>
   <g id="patch_19">
    <path d="M 126.324866 382.84 
L 128.40154 382.84 
L 128.40154 382.513352 
L 126.324866 382.513352 
z
" clip-path="url(#paf825cfe46)" style="fill: #1f77b4"/>
   </g>
   <g id="patch_20">
    <path d="M 128.40154 382.84 
L 130.478214 382.84 
L 130.478214 382.84 
L 128.40154 382.84 
z
" clip-path="url(#paf825cfe46)" style="fill: #1f77b4"/>
   </g>
   <g id="patch_21">
    <path d="M 130.478214 382.84 
L 132.554888 382.84 
L 132.554888 382.572743 
L 130.478214 382.572743 
z
" clip-path="url(#paf825cfe46)" style="fill: #1f77b4"/>
   </g>
   <g id="patch_22">
    <path d="M 132.554888 382.84 
L 134.631562 382.84 
L 134.631562 382.84 
L 132.554888 382.84 
z
" clip-path="url(#paf825cfe46)" style="fill: #1f77b4"/>
   </g>
   <g id="patch_23">
    <path d="M 134.631562 382.84 
L 136.708236 382.84 
L 136.708236 382.84 
L 134.631562 382.84 
z
" clip-path="url(#paf825cfe46)" style="fill: #1f77b4"/>
   </g>
   <g id="patch_24">
    <path d="M 136.708236 382.84 
L 138.78491 382.84 
L 138.78491 382.572743 
L 136.708236 382.572743 
z
" clip-path="url(#paf825cfe46)" style="fill: #1f77b4"/>
   </g>
   <g id="patch_25">
    <path d="M 138.78491 382.84 
L 140.861585 382.84 
L 140.861585 382.84 
L 138.78491 382.84 
z
" clip-path="url(#paf825cfe46)" style="fill: #1f77b4"/>
   </g>
   <g id="patch_26">
    <path d="M 140.861585 382.84 
L 142.938259 382.84 
L 142.938259 381.889752 
L 140.861585 381.889752 
z
" clip-path="url(#paf825cfe46)" style="fill: #1f77b4"/>
   </g>
   <g id="patch_27">
    <path d="M 142.938259 382.84 
L 145.014933 382.84 
L 145.014933 382.84 
L 142.938259 382.84 
z
" clip-path="url(#paf825cfe46)" style="fill: #1f77b4"/>
   </g>
   <g id="patch_28">
    <path d="M 145.014933 382.84 
L 147.091607 382.84 
L 147.091607 382.84 
L 145.014933 382.84 
z
" clip-path="url(#paf825cfe46)" style="fill: #1f77b4"/>
   </g>
   <g id="patch_29">
    <path d="M 147.091607 382.84 
L 149.168281 382.84 
L 149.168281 381.889752 
L 147.091607 381.889752 
z
" clip-path="url(#paf825cfe46)" style="fill: #1f77b4"/>
   </g>
   <g id="patch_30">
    <path d="M 149.168281 382.84 
L 151.244955 382.84 
L 151.244955 382.84 
L 149.168281 382.84 
z
" clip-path="url(#paf825cfe46)" style="fill: #1f77b4"/>
   </g>
   <g id="patch_31">
    <path d="M 151.244955 382.84 
L 153.321629 382.84 
L 153.321629 382.84 
L 151.244955 382.84 
z
" clip-path="url(#paf825cfe46)" style="fill: #1f77b4"/>
   </g>
   <g id="patch_32">
    <path d="M 153.321629 382.84 
L 155.398303 382.84 
L 155.398303 381.622494 
L 153.321629 381.622494 
z
" clip-path="url(#paf825cfe46)" style="fill: #1f77b4"/>
   </g>
   <g id="patch_33">
    <path d="M 155.398303 382.84 
L 157.474977 382.84 
L 157.474977 382.84 
L 155.398303 382.84 
z
" clip-path="url(#paf825cfe46)" style="fill: #1f77b4"/>
   </g>
   <g id="patch_34">
    <path d="M 157.474977 382.84 
L 159.551651 382.84 
L 159.551651 382.84 
L 157.474977 382.84 
z
" clip-path="url(#paf825cfe46)" style="fill: #1f77b4"/>
   </g>
   <g id="patch_35">
    <path d="M 159.551651 382.84 
L 161.628326 382.84 
L 161.628326 381.117675 
L 159.551651 381.117675 
z
" clip-path="url(#paf825cfe46)" style="fill: #1f77b4"/>
   </g>
   <g id="patch_36">
    <path d="M 161.628326 382.84 
L 163.705 382.84 
L 163.705 382.84 
L 161.628326 382.84 
z
" clip-path="url(#paf825cfe46)" style="fill: #1f77b4"/>
   </g>
   <g id="patch_37">
    <path d="M 163.705 382.84 
L 165.781674 382.84 
L 165.781674 379.929865 
L 163.705 379.929865 
z
" clip-path="url(#paf825cfe46)" style="fill: #1f77b4"/>
   </g>
   <g id="patch_38">
    <path d="M 165.781674 382.84 
L 167.858348 382.84 
L 167.858348 382.84 
L 165.781674 382.84 
z
" clip-path="url(#paf825cfe46)" style="fill: #1f77b4"/>
   </g>
   <g id="patch_39">
    <path d="M 167.858348 382.84 
L 169.935022 382.84 
L 169.935022 382.84 
L 167.858348 382.84 
z
" clip-path="url(#paf825cfe46)" style="fill: #1f77b4"/>
   </g>
   <g id="patch_40">
    <path d="M 169.935022 382.84 
L 172.011696 382.84 
L 172.011696 379.039007 
L 169.935022 379.039007 
z
" clip-path="url(#paf825cfe46)" style="fill: #1f77b4"/>
   </g>
   <g id="patch_41">
    <path d="M 172.011696 382.84 
L 174.08837 382.84 
L 174.08837 382.84 
L 172.011696 382.84 
z
" clip-path="url(#paf825cfe46)" style="fill: #1f77b4"/>
   </g>
   <g id="patch_42">
    <path d="M 174.08837 382.84 
L 176.165044 382.84 
L 176.165044 382.84 
L 174.08837 382.84 
z
" clip-path="url(#paf825cfe46)" style="fill: #1f77b4"/>
   </g>
   <g id="patch_43">
    <path d="M 176.165044 382.84 
L 178.241718 382.84 
L 178.241718 378.088759 
L 176.165044 378.088759 
z
" clip-path="url(#paf825cfe46)" style="fill: #1f77b4"/>
   </g>
   <g id="patch_44">
    <path d="M 178.241718 382.84 
L 180.318392 382.84 
L 180.318392 382.84 
L 178.241718 382.84 
z
" clip-path="url(#paf825cfe46)" style="fill: #1f77b4"/>
   </g>
   <g id="patch_45">
    <path d="M 180.318392 382.84 
L 182.395067 382.84 
L 182.395067 376.425824 
L 180.318392 376.425824 
z
" clip-path="url(#paf825cfe46)" style="fill: #1f77b4"/>
   </g>
   <g id="patch_46">
    <path d="M 182.395067 382.84 
L 184.471741 382.84 
L 184.471741 382.84 
L 182.395067 382.84 
z
" clip-path="url(#paf825cfe46)" style="fill: #1f77b4"/>
   </g>
   <g id="patch_47">
    <path d="M 184.471741 382.84 
L 186.548415 382.84 
L 186.548415 382.84 
L 184.471741 382.84 
z
" clip-path="url(#paf825cfe46)" style="fill: #1f77b4"/>
   </g>
   <g id="patch_48">
    <path d="M 186.548415 382.84 
L 188.625089 382.84 
L 188.625089 373.218737 
L 186.548415 373.218737 
z
" clip-path="url(#paf825cfe46)" style="fill: #1f77b4"/>
   </g>
   <g id="patch_49">
    <path d="M 188.625089 382.84 
L 190.701763 382.84 
L 190.701763 382.84 
L 188.625089 382.84 
z
" clip-path="url(#paf825cfe46)" style="fill: #1f77b4"/>
   </g>
   <g id="patch_50">
    <path d="M 190.701763 382.84 
L 192.778437 382.84 
L 192.778437 371.169764 
L 190.701763 371.169764 
z
" clip-path="url(#paf825cfe46)" style="fill: #1f77b4"/>
   </g>
   <g id="patch_51">
    <path d="M 192.778437 382.84 
L 194.855111 382.84 
L 194.855111 382.84 
L 192.778437 382.84 
z
" clip-path="url(#paf825cfe46)" style="fill: #1f77b4"/>
   </g>
   <g id="patch_52">
    <path d="M 194.855111 382.84 
L 196.931785 382.84 
L 196.931785 382.84 
L 194.855111 382.84 
z
" clip-path="url(#paf825cfe46)" style="fill: #1f77b4"/>
   </g>
   <g id="patch_53">
    <path d="M 196.931785 382.84 
L 199.008459 382.84 
L 199.008459 368.289324 
L 196.931785 368.289324 
z
" clip-path="url(#paf825cfe46)" style="fill: #1f77b4"/>
   </g>
   <g id="patch_54">
    <path d="M 199.008459 382.84 
L 201.085133 382.84 
L 201.085133 382.84 
L 199.008459 382.84 
z
" clip-path="url(#paf825cfe46)" style="fill: #1f77b4"/>
   </g>
   <g id="patch_55">
    <path d="M 201.085133 382.84 
L 203.161808 382.84 
L 203.161808 382.84 
L 201.085133 382.84 
z
" clip-path="url(#paf825cfe46)" style="fill: #1f77b4"/>
   </g>
   <g id="patch_56">
    <path d="M 203.161808 382.84 
L 205.238482 382.84 
L 205.238482 362.825397 
L 203.161808 362.825397 
z
" clip-path="url(#paf825cfe46)" style="fill: #1f77b4"/>
   </g>
   <g id="patch_57">
    <path d="M 205.238482 382.84 
L 207.315156 382.84 
L 207.315156 382.84 
L 205.238482 382.84 
z
" clip-path="url(#paf825cfe46)" style="fill: #1f77b4"/>
   </g>
   <g id="patch_58">
    <path d="M 207.315156 382.84 
L 209.39183 382.84 
L 209.39183 382.84 
L 207.315156 382.84 
z
" clip-path="url(#paf825cfe46)" style="fill: #1f77b4"/>
   </g>
   <g id="patch_59">
    <path d="M 209.39183 382.84 
L 211.468504 382.84 
L 211.468504 357.806898 
L 209.39183 357.806898 
z
" clip-path="url(#paf825cfe46)" style="fill: #1f77b4"/>
   </g>
   <g id="patch_60">
    <path d="M 211.468504 382.84 
L 213.545178 382.84 
L 213.545178 382.84 
L 211.468504 382.84 
z
" clip-path="url(#paf825cfe46)" style="fill: #1f77b4"/>
   </g>
   <g id="patch_61">
    <path d="M 213.545178 382.84 
L 215.621852 382.84 
L 215.621852 351.333332 
L 213.545178 351.333332 
z
" clip-path="url(#paf825cfe46)" style="fill: #1f77b4"/>
   </g>
   <g id="patch_62">
    <path d="M 215.621852 382.84 
L 217.698526 382.84 
L 217.698526 382.84 
L 215.621852 382.84 
z
" clip-path="url(#paf825cfe46)" style="fill: #1f77b4"/>
   </g>
   <g id="patch_63">
    <path d="M 217.698526 382.84 
L 219.7752 382.84 
L 219.7752 382.84 
L 217.698526 382.84 
z
" clip-path="url(#paf825cfe46)" style="fill: #1f77b4"/>
   </g>
   <g id="patch_64">
    <path d="M 219.7752 382.84 
L 221.851874 382.84 
L 221.851874 345.631843 
L 219.7752 345.631843 
z
" clip-path="url(#paf825cfe46)" style="fill: #1f77b4"/>
   </g>
   <g id="patch_65">
    <path d="M 221.851874 382.84 
L 223.928549 382.84 
L 223.928549 382.84 
L 221.851874 382.84 
z
" clip-path="url(#paf825cfe46)" style="fill: #1f77b4"/>
   </g>
   <g id="patch_66">
    <path d="M 223.928549 382.84 
L 226.005223 382.84 
L 226.005223 336.366922 
L 223.928549 336.366922 
z
" clip-path="url(#paf825cfe46)" style="fill: #1f77b4"/>
   </g>
   <g id="patch_67">
    <path d="M 226.005223 382.84 
L 228.081897 382.84 
L 228.081897 382.84 
L 226.005223 382.84 
z
" clip-path="url(#paf825cfe46)" style="fill: #1f77b4"/>
   </g>
   <g id="patch_68">
    <path d="M 228.081897 382.84 
L 230.158571 382.84 
L 230.158571 382.84 
L 228.081897 382.84 
z
" clip-path="url(#paf825cfe46)" style="fill: #1f77b4"/>
   </g>
   <g id="patch_69">
    <path d="M 230.158571 382.84 
L 232.235245 382.84 
L 232.235245 326.211144 
L 230.158571 326.211144 
z
" clip-path="url(#paf825cfe46)" style="fill: #1f77b4"/>
   </g>
   <g id="patch_70">
    <path d="M 232.235245 382.84 
L 234.311919 382.84 
L 234.311919 382.84 
L 232.235245 382.84 
z
" clip-path="url(#paf825cfe46)" style="fill: #1f77b4"/>
   </g>
   <g id="patch_71">
    <path d="M 234.311919 382.84 
L 236.388593 382.84 
L 236.388593 382.84 
L 234.311919 382.84 
z
" clip-path="url(#paf825cfe46)" style="fill: #1f77b4"/>
   </g>
   <g id="patch_72">
    <path d="M 236.388593 382.84 
L 238.465267 382.84 
L 238.465267 314.837861 
L 236.388593 314.837861 
z
" clip-path="url(#paf825cfe46)" style="fill: #1f77b4"/>
   </g>
   <g id="patch_73">
    <path d="M 238.465267 382.84 
L 240.541941 382.84 
L 240.541941 382.84 
L 238.465267 382.84 
z
" clip-path="url(#paf825cfe46)" style="fill: #1f77b4"/>
   </g>
   <g id="patch_74">
    <path d="M 240.541941 382.84 
L 242.618615 382.84 
L 242.618615 382.84 
L 240.541941 382.84 
z
" clip-path="url(#paf825cfe46)" style="fill: #1f77b4"/>
   </g>
   <g id="patch_75">
    <path d="M 242.618615 382.84 
L 244.69529 382.84 
L 244.69529 302.365853 
L 242.618615 302.365853 
z
" clip-path="url(#paf825cfe46)" style="fill: #1f77b4"/>
   </g>
   <g id="patch_76">
    <path d="M 244.69529 382.84 
L 246.771964 382.84 
L 246.771964 382.84 
L 244.69529 382.84 
z
" clip-path="url(#paf825cfe46)" style="fill: #1f77b4"/>
   </g>
   <g id="patch_77">
    <path d="M 246.771964 382.84 
L 248.848638 382.84 
L 248.848638 283.509364 
L 246.771964 283.509364 
z
" clip-path="url(#paf825cfe46)" style="fill: #1f77b4"/>
   </g>
   <g id="patch_78">
    <path d="M 248.848638 382.84 
L 250.925312 382.84 
L 250.925312 382.84 
L 248.848638 382.84 
z
" clip-path="url(#paf825cfe46)" style="fill: #1f77b4"/>
   </g>
   <g id="patch_79">
    <path d="M 250.925312 382.84 
L 253.001986 382.84 
L 253.001986 382.84 
L 250.925312 382.84 
z
" clip-path="url(#paf825cfe46)" style="fill: #1f77b4"/>
   </g>
   <g id="patch_80">
    <path d="M 253.001986 382.84 
L 255.07866 382.84 
L 255.07866 268.127221 
L 253.001986 268.127221 
z
" clip-path="url(#paf825cfe46)" style="fill: #1f77b4"/>
   </g>
   <g id="patch_81">
    <path d="M 255.07866 382.84 
L 257.155334 382.84 
L 257.155334 382.84 
L 255.07866 382.84 
z
" clip-path="url(#paf825cfe46)" style="fill: #1f77b4"/>
   </g>
   <g id="patch_82">
    <path d="M 257.155334 382.84 
L 259.232008 382.84 
L 259.232008 382.84 
L 257.155334 382.84 
z
" clip-path="url(#paf825cfe46)" style="fill: #1f77b4"/>
   </g>
   <g id="patch_83">
    <path d="M 259.232008 382.84 
L 261.308682 382.84 
L 261.308682 248.825304 
L 259.232008 248.825304 
z
" clip-path="url(#paf825cfe46)" style="fill: #1f77b4"/>
   </g>
   <g id="patch_84">
    <path d="M 261.308682 382.84 
L 263.385356 382.84 
L 263.385356 382.84 
L 261.308682 382.84 
z
" clip-path="url(#paf825cfe46)" style="fill: #1f77b4"/>
   </g>
   <g id="patch_85">
    <path d="M 263.385356 382.84 
L 265.462031 382.84 
L 265.462031 227.860452 
L 263.385356 227.860452 
z
" clip-path="url(#paf825cfe46)" style="fill: #1f77b4"/>
   </g>
   <g id="patch_86">
    <path d="M 265.462031 382.84 
L 267.538705 382.84 
L 267.538705 382.84 
L 265.462031 382.84 
z
" clip-path="url(#paf825cfe46)" style="fill: #1f77b4"/>
   </g>
   <g id="patch_87">
    <path d="M 267.538705 382.84 
L 269.615379 382.84 
L 269.615379 382.84 
L 267.538705 382.84 
z
" clip-path="url(#paf825cfe46)" style="fill: #1f77b4"/>
   </g>
   <g id="patch_88">
    <path d="M 269.615379 382.84 
L 271.692053 382.84 
L 271.692053 201.817712 
L 269.615379 201.817712 
z
" clip-path="url(#paf825cfe46)" style="fill: #1f77b4"/>
   </g>
   <g id="patch_89">
    <path d="M 271.692053 382.84 
L 273.768727 382.84 
L 273.768727 382.84 
L 271.692053 382.84 
z
" clip-path="url(#paf825cfe46)" style="fill: #1f77b4"/>
   </g>
   <g id="patch_90">
    <path d="M 273.768727 382.84 
L 275.845401 382.84 
L 275.845401 179.457183 
L 273.768727 179.457183 
z
" clip-path="url(#paf825cfe46)" style="fill: #1f77b4"/>
   </g>
   <g id="patch_91">
    <path d="M 275.845401 382.84 
L 277.922075 382.84 
L 277.922075 382.84 
L 275.845401 382.84 
z
" clip-path="url(#paf825cfe46)" style="fill: #1f77b4"/>
   </g>
   <g id="patch_92">
    <path d="M 277.922075 382.84 
L 279.998749 382.84 
L 279.998749 382.84 
L 277.922075 382.84 
z
" clip-path="url(#paf825cfe46)" style="fill: #1f77b4"/>
   </g>
   <g id="patch_93">
    <path d="M 279.998749 382.84 
L 282.075423 382.84 
L 282.075423 154.24591 
L 279.998749 154.24591 
z
" clip-path="url(#paf825cfe46)" style="fill: #1f77b4"/>
   </g>
   <g id="patch_94">
    <path d="M 282.075423 382.84 
L 284.152097 382.84 
L 284.152097 382.84 
L 282.075423 382.84 
z
" clip-path="url(#paf825cfe46)" style="fill: #1f77b4"/>
   </g>
   <g id="patch_95">
    <path d="M 284.152097 382.84 
L 286.228772 382.84 
L 286.228772 382.84 
L 284.152097 382.84 
z
" clip-path="url(#paf825cfe46)" style="fill: #1f77b4"/>
   </g>
   <g id="patch_96">
    <path d="M 286.228772 382.84 
L 288.305446 382.84 
L 288.305446 132.182334 
L 286.228772 132.182334 
z
" clip-path="url(#paf825cfe46)" style="fill: #1f77b4"/>
   </g>
   <g id="patch_97">
    <path d="M 288.305446 382.84 
L 290.38212 382.84 
L 290.38212 382.84 
L 288.305446 382.84 
z
" clip-path="url(#paf825cfe46)" style="fill: #1f77b4"/>
   </g>
   <g id="patch_98">
    <path d="M 290.38212 382.84 
L 292.458794 382.84 
L 292.458794 382.84 
L 290.38212 382.84 
z
" clip-path="url(#paf825cfe46)" style="fill: #1f77b4"/>
   </g>
   <g id="patch_99">
    <path d="M 292.458794 382.84 
L 294.535468 382.84 
L 294.535468 109.2279 
L 292.458794 109.2279 
z
" clip-path="url(#paf825cfe46)" style="fill: #1f77b4"/>
   </g>
   <g id="patch_100">
    <path d="M 294.535468 382.84 
L 296.612142 382.84 
L 296.612142 382.84 
L 294.535468 382.84 
z
" clip-path="url(#paf825cfe46)" style="fill: #1f77b4"/>
   </g>
   <g id="patch_101">
    <path d="M 296.612142 382.84 
L 298.688816 382.84 
L 298.688816 82.620949 
L 296.612142 82.620949 
z
" clip-path="url(#paf825cfe46)" style="fill: #1f77b4"/>
   </g>
   <g id="patch_102">
    <path d="M 298.688816 382.84 
L 300.76549 382.84 
L 300.76549 382.84 
L 298.688816 382.84 
z
" clip-path="url(#paf825cfe46)" style="fill: #1f77b4"/>
   </g>
   <g id="patch_103">
    <path d="M 300.76549 382.84 
L 302.842164 382.84 
L 302.842164 382.84 
L 300.76549 382.84 
z
" clip-path="url(#paf825cfe46)" style="fill: #1f77b4"/>
   </g>
   <g id="patch_104">
    <path d="M 302.842164 382.84 
L 304.918838 382.84 
L 304.918838 66.229167 
L 302.842164 66.229167 
z
" clip-path="url(#paf825cfe46)" style="fill: #1f77b4"/>
   </g>
   <g id="patch_105">
    <path d="M 304.918838 382.84 
L 306.995513 382.84 
L 306.995513 382.84 
L 304.918838 382.84 
z
" clip-path="url(#paf825cfe46)" style="fill: #1f77b4"/>
   </g>
   <g id="patch_106">
    <path d="M 306.995513 382.84 
L 309.072187 382.84 
L 309.072187 49.926471 
L 306.995513 49.926471 
z
" clip-path="url(#paf825cfe46)" style="fill: #1f77b4"/>
   </g>
   <g id="patch_107">
    <path d="M 309.072187 382.84 
L 311.148861 382.84 
L 311.148861 382.84 
L 309.072187 382.84 
z
" clip-path="url(#paf825cfe46)" style="fill: #1f77b4"/>
   </g>
   <g id="patch_108">
    <path d="M 311.148861 382.84 
L 313.225535 382.84 
L 313.225535 382.84 
L 311.148861 382.84 
z
" clip-path="url(#paf825cfe46)" style="fill: #1f77b4"/>
   </g>
   <g id="patch_109">
    <path d="M 313.225535 382.84 
L 315.302209 382.84 
L 315.302209 32.762612 
L 313.225535 32.762612 
z
" clip-path="url(#paf825cfe46)" style="fill: #1f77b4"/>
   </g>
   <g id="patch_110">
    <path d="M 315.302209 382.84 
L 317.378883 382.84 
L 317.378883 382.84 
L 315.302209 382.84 
z
" clip-path="url(#paf825cfe46)" style="fill: #1f77b4"/>
   </g>
   <g id="patch_111">
    <path d="M 317.378883 382.84 
L 319.455557 382.84 
L 319.455557 382.84 
L 317.378883 382.84 
z
" clip-path="url(#paf825cfe46)" style="fill: #1f77b4"/>
   </g>
   <g id="patch_112">
    <path d="M 319.455557 382.84 
L 321.532231 382.84 
L 321.532231 31.248154 
L 319.455557 31.248154 
z
" clip-path="url(#paf825cfe46)" style="fill: #1f77b4"/>
   </g>
   <g id="patch_113">
    <path d="M 321.532231 382.84 
L 323.608905 382.84 
L 323.608905 382.84 
L 321.532231 382.84 
z
" clip-path="url(#paf825cfe46)" style="fill: #1f77b4"/>
   </g>
   <g id="patch_114">
    <path d="M 323.608905 382.84 
L 325.685579 382.84 
L 325.685579 28.545886 
L 323.608905 28.545886 
z
" clip-path="url(#paf825cfe46)" style="fill: #1f77b4"/>
   </g>
   <g id="patch_115">
    <path d="M 325.685579 382.84 
L 327.762254 382.84 
L 327.762254 382.84 
L 325.685579 382.84 
z
" clip-path="url(#paf825cfe46)" style="fill: #1f77b4"/>
   </g>
   <g id="patch_116">
    <path d="M 327.762254 382.84 
L 329.838928 382.84 
L 329.838928 382.84 
L 327.762254 382.84 
z
" clip-path="url(#paf825cfe46)" style="fill: #1f77b4"/>
   </g>
   <g id="patch_117">
    <path d="M 329.838928 382.84 
L 331.915602 382.84 
L 331.915602 28.51619 
L 329.838928 28.51619 
z
" clip-path="url(#paf825cfe46)" style="fill: #1f77b4"/>
   </g>
   <g id="patch_118">
    <path d="M 331.915602 382.84 
L 333.992276 382.84 
L 333.992276 382.84 
L 331.915602 382.84 
z
" clip-path="url(#paf825cfe46)" style="fill: #1f77b4"/>
   </g>
   <g id="patch_119">
    <path d="M 333.992276 382.84 
L 336.06895 382.84 
L 336.06895 382.84 
L 333.992276 382.84 
z
" clip-path="url(#paf825cfe46)" style="fill: #1f77b4"/>
   </g>
   <g id="patch_120">
    <path d="M 336.06895 382.84 
L 338.145624 382.84 
L 338.145624 41.344542 
L 336.06895 41.344542 
z
" clip-path="url(#paf825cfe46)" style="fill: #1f77b4"/>
   </g>
   <g id="patch_121">
    <path d="M 338.145624 382.84 
L 340.222298 382.84 
L 340.222298 382.84 
L 338.145624 382.84 
z
" clip-path="url(#paf825cfe46)" style="fill: #1f77b4"/>
   </g>
   <g id="patch_122">
    <path d="M 340.222298 382.84 
L 342.298972 382.84 
L 342.298972 45.531573 
L 340.222298 45.531573 
z
" clip-path="url(#paf825cfe46)" style="fill: #1f77b4"/>
   </g>
   <g id="patch_123">
    <path d="M 342.298972 382.84 
L 344.375646 382.84 
L 344.375646 382.84 
L 342.298972 382.84 
z
" clip-path="url(#paf825cfe46)" style="fill: #1f77b4"/>
   </g>
   <g id="patch_124">
    <path d="M 344.375646 382.84 
L 346.45232 382.84 
L 346.45232 382.84 
L 344.375646 382.84 
z
" clip-path="url(#paf825cfe46)" style="fill: #1f77b4"/>
   </g>
   <g id="patch_125">
    <path d="M 346.45232 382.84 
L 348.528995 382.84 
L 348.528995 62.576651 
L 346.45232 62.576651 
z
" clip-path="url(#paf825cfe46)" style="fill: #1f77b4"/>
   </g>
   <g id="patch_126">
    <path d="M 348.528995 382.84 
L 350.605669 382.84 
L 350.605669 382.84 
L 348.528995 382.84 
z
" clip-path="url(#paf825cfe46)" style="fill: #1f77b4"/>
   </g>
   <g id="patch_127">
    <path d="M 350.605669 382.84 
L 352.682343 382.84 
L 352.682343 382.84 
L 350.605669 382.84 
z
" clip-path="url(#paf825cfe46)" style="fill: #1f77b4"/>
   </g>
   <g id="patch_128">
    <path d="M 352.682343 382.84 
L 354.759017 382.84 
L 354.759017 87.045543 
L 352.682343 87.045543 
z
" clip-path="url(#paf825cfe46)" style="fill: #1f77b4"/>
   </g>
   <g id="patch_129">
    <path d="M 354.759017 382.84 
L 356.835691 382.84 
L 356.835691 382.84 
L 354.759017 382.84 
z
" clip-path="url(#paf825cfe46)" style="fill: #1f77b4"/>
   </g>
   <g id="patch_130">
    <path d="M 356.835691 382.84 
L 358.912365 382.84 
L 358.912365 111.930168 
L 356.835691 111.930168 
z
" clip-path="url(#paf825cfe46)" style="fill: #1f77b4"/>
   </g>
   <g id="patch_131">
    <path d="M 358.912365 382.84 
L 360.989039 382.84 
L 360.989039 382.84 
L 358.912365 382.84 
z
" clip-path="url(#paf825cfe46)" style="fill: #1f77b4"/>
   </g>
   <g id="patch_132">
    <path d="M 360.989039 382.84 
L 363.065713 382.84 
L 363.065713 382.84 
L 360.989039 382.84 
z
" clip-path="url(#paf825cfe46)" style="fill: #1f77b4"/>
   </g>
   <g id="patch_133">
    <path d="M 363.065713 382.84 
L 365.142387 382.84 
L 365.142387 135.478507 
L 363.065713 135.478507 
z
" clip-path="url(#paf825cfe46)" style="fill: #1f77b4"/>
   </g>
   <g id="patch_134">
    <path d="M 365.142387 382.84 
L 367.219061 382.84 
L 367.219061 382.84 
L 365.142387 382.84 
z
" clip-path="url(#paf825cfe46)" style="fill: #1f77b4"/>
   </g>
   <g id="patch_135">
    <path d="M 367.219061 382.84 
L 369.295736 382.84 
L 369.295736 382.84 
L 367.219061 382.84 
z
" clip-path="url(#paf825cfe46)" style="fill: #1f77b4"/>
   </g>
   <g id="patch_136">
    <path d="M 369.295736 382.84 
L 371.37241 382.84 
L 371.37241 162.857534 
L 369.295736 162.857534 
z
" clip-path="url(#paf825cfe46)" style="fill: #1f77b4"/>
   </g>
   <g id="patch_137">
    <path d="M 371.37241 382.84 
L 373.449084 382.84 
L 373.449084 382.84 
L 371.37241 382.84 
z
" clip-path="url(#paf825cfe46)" style="fill: #1f77b4"/>
   </g>
   <g id="patch_138">
    <path d="M 373.449084 382.84 
L 375.525758 382.84 
L 375.525758 382.84 
L 373.449084 382.84 
z
" clip-path="url(#paf825cfe46)" style="fill: #1f77b4"/>
   </g>
   <g id="patch_139">
    <path d="M 375.525758 382.84 
L 377.602432 382.84 
L 377.602432 185.188368 
L 375.525758 185.188368 
z
" clip-path="url(#paf825cfe46)" style="fill: #1f77b4"/>
   </g>
   <g id="patch_140">
    <path d="M 377.602432 382.84 
L 379.679106 382.84 
L 379.679106 382.84 
L 377.602432 382.84 
z
" clip-path="url(#paf825cfe46)" style="fill: #1f77b4"/>
   </g>
   <g id="patch_141">
    <path d="M 379.679106 382.84 
L 381.75578 382.84 
L 381.75578 205.915657 
L 379.679106 205.915657 
z
" clip-path="url(#paf825cfe46)" style="fill: #1f77b4"/>
   </g>
   <g id="patch_142">
    <path d="M 381.75578 382.84 
L 383.832454 382.84 
L 383.832454 382.84 
L 381.75578 382.84 
z
" clip-path="url(#paf825cfe46)" style="fill: #1f77b4"/>
   </g>
   <g id="patch_143">
    <path d="M 383.832454 382.84 
L 385.909128 382.84 
L 385.909128 382.84 
L 383.832454 382.84 
z
" clip-path="url(#paf825cfe46)" style="fill: #1f77b4"/>
   </g>
   <g id="patch_144">
    <path d="M 385.909128 382.84 
L 387.985802 382.84 
L 387.985802 233.799504 
L 385.909128 233.799504 
z
" clip-path="url(#paf825cfe46)" style="fill: #1f77b4"/>
   </g>
   <g id="patch_145">
    <path d="M 387.985802 382.84 
L 390.062477 382.84 
L 390.062477 382.84 
L 387.985802 382.84 
z
" clip-path="url(#paf825cfe46)" style="fill: #1f77b4"/>
   </g>
   <g id="patch_146">
    <path d="M 390.062477 382.84 
L 392.139151 382.84 
L 392.139151 382.84 
L 390.062477 382.84 
z
" clip-path="url(#paf825cfe46)" style="fill: #1f77b4"/>
   </g>
   <g id="patch_147">
    <path d="M 392.139151 382.84 
L 394.215825 382.84 
L 394.215825 254.586184 
L 392.139151 254.586184 
z
" clip-path="url(#paf825cfe46)" style="fill: #1f77b4"/>
   </g>
   <g id="patch_148">
    <path d="M 394.215825 382.84 
L 396.292499 382.84 
L 396.292499 382.84 
L 394.215825 382.84 
z
" clip-path="url(#paf825cfe46)" style="fill: #1f77b4"/>
   </g>
   <g id="patch_149">
    <path d="M 396.292499 382.84 
L 398.369173 382.84 
L 398.369173 273.353587 
L 396.292499 273.353587 
z
" clip-path="url(#paf825cfe46)" style="fill: #1f77b4"/>
   </g>
   <g id="patch_150">
    <path d="M 398.369173 382.84 
L 400.445847 382.84 
L 400.445847 382.84 
L 398.369173 382.84 
z
" clip-path="url(#paf825cfe46)" style="fill: #1f77b4"/>
   </g>
   <g id="patch_151">
    <path d="M 400.445847 382.84 
L 402.522521 382.84 
L 402.522521 382.84 
L 400.445847 382.84 
z
" clip-path="url(#paf825cfe46)" style="fill: #1f77b4"/>
   </g>
   <g id="patch_152">
    <path d="M 402.522521 382.84 
L 404.599195 382.84 
L 404.599195 289.389025 
L 402.522521 289.389025 
z
" clip-path="url(#paf825cfe46)" style="fill: #1f77b4"/>
   </g>
   <g id="patch_153">
    <path d="M 404.599195 382.84 
L 406.675869 382.84 
L 406.675869 382.84 
L 404.599195 382.84 
z
" clip-path="url(#paf825cfe46)" style="fill: #1f77b4"/>
   </g>
   <g id="patch_154">
    <path d="M 406.675869 382.84 
L 408.752543 382.84 
L 408.752543 304.266349 
L 406.675869 304.266349 
z
" clip-path="url(#paf825cfe46)" style="fill: #1f77b4"/>
   </g>
   <g id="patch_155">
    <path d="M 408.752543 382.84 
L 410.829218 382.84 
L 410.829218 382.84 
L 408.752543 382.84 
z
" clip-path="url(#paf825cfe46)" style="fill: #1f77b4"/>
   </g>
   <g id="patch_156">
    <path d="M 410.829218 382.84 
L 412.905892 382.84 
L 412.905892 382.84 
L 410.829218 382.84 
z
" clip-path="url(#paf825cfe46)" style="fill: #1f77b4"/>
   </g>
   <g id="patch_157">
    <path d="M 412.905892 382.84 
L 414.982566 382.84 
L 414.982566 316.738357 
L 412.905892 316.738357 
z
" clip-path="url(#paf825cfe46)" style="fill: #1f77b4"/>
   </g>
   <g id="patch_158">
    <path d="M 414.982566 382.84 
L 417.05924 382.84 
L 417.05924 382.84 
L 414.982566 382.84 
z
" clip-path="url(#paf825cfe46)" style="fill: #1f77b4"/>
   </g>
   <g id="patch_159">
    <path d="M 417.05924 382.84 
L 419.135914 382.84 
L 419.135914 382.84 
L 417.05924 382.84 
z
" clip-path="url(#paf825cfe46)" style="fill: #1f77b4"/>
   </g>
   <g id="patch_160">
    <path d="M 419.135914 382.84 
L 421.212588 382.84 
L 421.212588 327.42865 
L 419.135914 327.42865 
z
" clip-path="url(#paf825cfe46)" style="fill: #1f77b4"/>
   </g>
   <g id="patch_161">
    <path d="M 421.212588 382.84 
L 423.289262 382.84 
L 423.289262 382.84 
L 421.212588 382.84 
z
" clip-path="url(#paf825cfe46)" style="fill: #1f77b4"/>
   </g>
   <g id="patch_162">
    <path d="M 423.289262 382.84 
L 425.365936 382.84 
L 425.365936 340.850906 
L 423.289262 340.850906 
z
" clip-path="url(#paf825cfe46)" style="fill: #1f77b4"/>
   </g>
   <g id="patch_163">
    <path d="M 425.365936 382.84 
L 427.44261 382.84 
L 427.44261 382.84 
L 425.365936 382.84 
z
" clip-path="url(#paf825cfe46)" style="fill: #1f77b4"/>
   </g>
   <g id="patch_164">
    <path d="M 427.44261 382.84 
L 429.519284 382.84 
L 429.519284 382.84 
L 427.44261 382.84 
z
" clip-path="url(#paf825cfe46)" style="fill: #1f77b4"/>
   </g>
   <g id="patch_165">
    <path d="M 429.519284 382.84 
L 431.595959 382.84 
L 431.595959 347.65112 
L 429.519284 347.65112 
z
" clip-path="url(#paf825cfe46)" style="fill: #1f77b4"/>
   </g>
   <g id="patch_166">
    <path d="M 431.595959 382.84 
L 433.672633 382.84 
L 433.672633 382.84 
L 431.595959 382.84 
z
" clip-path="url(#paf825cfe46)" style="fill: #1f77b4"/>
   </g>
   <g id="patch_167">
    <path d="M 433.672633 382.84 
L 435.749307 382.84 
L 435.749307 382.84 
L 433.672633 382.84 
z
" clip-path="url(#paf825cfe46)" style="fill: #1f77b4"/>
   </g>
   <g id="patch_168">
    <path d="M 435.749307 382.84 
L 437.825981 382.84 
L 437.825981 353.233829 
L 435.749307 353.233829 
z
" clip-path="url(#paf825cfe46)" style="fill: #1f77b4"/>
   </g>
   <g id="patch_169">
    <path d="M 437.825981 382.84 
L 439.902655 382.84 
L 439.902655 382.84 
L 437.825981 382.84 
z
" clip-path="url(#paf825cfe46)" style="fill: #1f77b4"/>
   </g>
   <g id="patch_170">
    <path d="M 439.902655 382.84 
L 441.979329 382.84 
L 441.979329 358.727451 
L 439.902655 358.727451 
z
" clip-path="url(#paf825cfe46)" style="fill: #1f77b4"/>
   </g>
   <g id="patch_171">
    <path d="M 441.979329 382.84 
L 444.056003 382.84 
L 444.056003 382.84 
L 441.979329 382.84 
z
" clip-path="url(#paf825cfe46)" style="fill: #1f77b4"/>
   </g>
   <g id="patch_172">
    <path d="M 444.056003 382.84 
L 446.132677 382.84 
L 446.132677 382.84 
L 444.056003 382.84 
z
" clip-path="url(#paf825cfe46)" style="fill: #1f77b4"/>
   </g>
   <g id="patch_173">
    <path d="M 446.132677 382.84 
L 448.209351 382.84 
L 448.209351 364.161683 
L 446.132677 364.161683 
z
" clip-path="url(#paf825cfe46)" style="fill: #1f77b4"/>
   </g>
   <g id="patch_174">
    <path d="M 448.209351 382.84 
L 450.286025 382.84 
L 450.286025 382.84 
L 448.209351 382.84 
z
" clip-path="url(#paf825cfe46)" style="fill: #1f77b4"/>
   </g>
   <g id="patch_175">
    <path d="M 450.286025 382.84 
L 452.3627 382.84 
L 452.3627 382.84 
L 450.286025 382.84 
z
" clip-path="url(#paf825cfe46)" style="fill: #1f77b4"/>
   </g>
   <g id="patch_176">
    <path d="M 452.3627 382.84 
L 454.439374 382.84 
L 454.439374 366.388827 
L 452.3627 366.388827 
z
" clip-path="url(#paf825cfe46)" style="fill: #1f77b4"/>
   </g>
   <g id="patch_177">
    <path d="M 454.439374 382.84 
L 456.516048 382.84 
L 456.516048 382.84 
L 454.439374 382.84 
z
" clip-path="url(#paf825cfe46)" style="fill: #1f77b4"/>
   </g>
   <g id="patch_178">
    <path d="M 456.516048 382.84 
L 458.592722 382.84 
L 458.592722 382.84 
L 456.516048 382.84 
z
" clip-path="url(#paf825cfe46)" style="fill: #1f77b4"/>
   </g>
   <g id="patch_179">
    <path d="M 458.592722 382.84 
L 460.669396 382.84 
L 460.669396 371.674583 
L 458.592722 371.674583 
z
" clip-path="url(#paf825cfe46)" style="fill: #1f77b4"/>
   </g>
   <g id="patch_180">
    <path d="M 460.669396 382.84 
L 462.74607 382.84 
L 462.74607 382.84 
L 460.669396 382.84 
z
" clip-path="url(#paf825cfe46)" style="fill: #1f77b4"/>
   </g>
   <g id="patch_181">
    <path d="M 462.74607 382.84 
L 464.822744 382.84 
L 464.822744 372.535746 
L 462.74607 372.535746 
z
" clip-path="url(#paf825cfe46)" style="fill: #1f77b4"/>
   </g>
   <g id="patch_182">
    <path d="M 464.822744 382.84 
L 466.899418 382.84 
L 466.899418 382.84 
L 464.822744 382.84 
z
" clip-path="url(#paf825cfe46)" style="fill: #1f77b4"/>
   </g>
   <g id="patch_183">
    <path d="M 466.899418 382.84 
L 468.976092 382.84 
L 468.976092 382.84 
L 466.899418 382.84 
z
" clip-path="url(#paf825cfe46)" style="fill: #1f77b4"/>
   </g>
   <g id="patch_184">
    <path d="M 468.976092 382.84 
L 471.052766 382.84 
L 471.052766 376.158567 
L 468.976092 376.158567 
z
" clip-path="url(#paf825cfe46)" style="fill: #1f77b4"/>
   </g>
   <g id="patch_185">
    <path d="M 471.052766 382.84 
L 473.129441 382.84 
L 473.129441 382.84 
L 471.052766 382.84 
z
" clip-path="url(#paf825cfe46)" style="fill: #1f77b4"/>
   </g>
   <g id="patch_186">
    <path d="M 473.129441 382.84 
L 475.206115 382.84 
L 475.206115 382.84 
L 473.129441 382.84 
z
" clip-path="url(#paf825cfe46)" style="fill: #1f77b4"/>
   </g>
   <g id="patch_187">
    <path d="M 475.206115 382.84 
L 477.282789 382.84 
L 477.282789 377.613635 
L 475.206115 377.613635 
z
" clip-path="url(#paf825cfe46)" style="fill: #1f77b4"/>
   </g>
   <g id="patch_188">
    <path d="M 477.282789 382.84 
L 479.359463 382.84 
L 479.359463 382.84 
L 477.282789 382.84 
z
" clip-path="url(#paf825cfe46)" style="fill: #1f77b4"/>
   </g>
   <g id="patch_189">
    <path d="M 479.359463 382.84 
L 481.436137 382.84 
L 481.436137 378.474797 
L 479.359463 378.474797 
z
" clip-path="url(#paf825cfe46)" style="fill: #1f77b4"/>
   </g>
   <g id="patch_190">
    <path d="M 481.436137 382.84 
L 483.512811 382.84 
L 483.512811 382.84 
L 481.436137 382.84 
z
" clip-path="url(#paf825cfe46)" style="fill: #1f77b4"/>
   </g>
   <g id="patch_191">
    <path d="M 483.512811 382.84 
L 485.589485 382.84 
L 485.589485 382.84 
L 483.512811 382.84 
z
" clip-path="url(#paf825cfe46)" style="fill: #1f77b4"/>
   </g>
   <g id="patch_192">
    <path d="M 485.589485 382.84 
L 487.666159 382.84 
L 487.666159 380.375294 
L 485.589485 380.375294 
z
" clip-path="url(#paf825cfe46)" style="fill: #1f77b4"/>
   </g>
   <g id="patch_193">
    <path d="M 487.666159 382.84 
L 489.742833 382.84 
L 489.742833 382.84 
L 487.666159 382.84 
z
" clip-path="url(#paf825cfe46)" style="fill: #1f77b4"/>
   </g>
   <g id="patch_194">
    <path d="M 489.742833 382.84 
L 491.819507 382.84 
L 491.819507 382.84 
L 489.742833 382.84 
z
" clip-path="url(#paf825cfe46)" style="fill: #1f77b4"/>
   </g>
   <g id="patch_195">
    <path d="M 491.819507 382.84 
L 493.896182 382.84 
L 493.896182 381.474018 
L 491.819507 381.474018 
z
" clip-path="url(#paf825cfe46)" style="fill: #1f77b4"/>
   </g>
   <g id="patch_196">
    <path d="M 493.896182 382.84 
L 495.972856 382.84 
L 495.972856 382.84 
L 493.896182 382.84 
z
" clip-path="url(#paf825cfe46)" style="fill: #1f77b4"/>
   </g>
   <g id="patch_197">
    <path d="M 495.972856 382.84 
L 498.04953 382.84 
L 498.04953 381.384932 
L 495.972856 381.384932 
z
" clip-path="url(#paf825cfe46)" style="fill: #1f77b4"/>
   </g>
   <g id="patch_198">
    <path d="M 498.04953 382.84 
L 500.126204 382.84 
L 500.126204 382.84 
L 498.04953 382.84 
z
" clip-path="url(#paf825cfe46)" style="fill: #1f77b4"/>
   </g>
   <g id="patch_199">
    <path d="M 500.126204 382.84 
L 502.202878 382.84 
L 502.202878 382.84 
L 500.126204 382.84 
z
" clip-path="url(#paf825cfe46)" style="fill: #1f77b4"/>
   </g>
   <g id="patch_200">
    <path d="M 502.202878 382.84 
L 504.279552 382.84 
L 504.279552 381.889752 
L 502.202878 381.889752 
z
" clip-path="url(#paf825cfe46)" style="fill: #1f77b4"/>
   </g>
   <g id="patch_201">
    <path d="M 504.279552 382.84 
L 506.356226 382.84 
L 506.356226 382.84 
L 504.279552 382.84 
z
" clip-path="url(#paf825cfe46)" style="fill: #1f77b4"/>
   </g>
   <g id="patch_202">
    <path d="M 506.356226 382.84 
L 508.4329 382.84 
L 508.4329 382.038228 
L 506.356226 382.038228 
z
" clip-path="url(#paf825cfe46)" style="fill: #1f77b4"/>
   </g>
   <g id="patch_203">
    <path d="M 508.4329 382.84 
L 510.509574 382.84 
L 510.509574 382.84 
L 508.4329 382.84 
z
" clip-path="url(#paf825cfe46)" style="fill: #1f77b4"/>
   </g>
   <g id="patch_204">
    <path d="M 510.509574 382.84 
L 512.586248 382.84 
L 512.586248 382.84 
L 510.509574 382.84 
z
" clip-path="url(#paf825cfe46)" style="fill: #1f77b4"/>
   </g>
   <g id="patch_205">
    <path d="M 512.586248 382.84 
L 514.662923 382.84 
L 514.662923 382.335181 
L 512.586248 382.335181 
z
" clip-path="url(#paf825cfe46)" style="fill: #1f77b4"/>
   </g>
   <g id="patch_206">
    <path d="M 514.662923 382.84 
L 516.739597 382.84 
L 516.739597 382.84 
L 514.662923 382.84 
z
" clip-path="url(#paf825cfe46)" style="fill: #1f77b4"/>
   </g>
   <g id="patch_207">
    <path d="M 516.739597 382.84 
L 518.816271 382.84 
L 518.816271 382.84 
L 516.739597 382.84 
z
" clip-path="url(#paf825cfe46)" style="fill: #1f77b4"/>
   </g>
   <g id="patch_208">
    <path d="M 518.816271 382.84 
L 520.892945 382.84 
L 520.892945 382.661828 
L 518.816271 382.661828 
z
" clip-path="url(#paf825cfe46)" style="fill: #1f77b4"/>
   </g>
   <g id="patch_209">
    <path d="M 520.892945 382.84 
L 522.969619 382.84 
L 522.969619 382.84 
L 520.892945 382.84 
z
" clip-path="url(#paf825cfe46)" style="fill: #1f77b4"/>
   </g>
   <g id="patch_210">
    <path d="M 522.969619 382.84 
L 525.046293 382.84 
L 525.046293 382.602438 
L 522.969619 382.602438 
z
" clip-path="url(#paf825cfe46)" style="fill: #1f77b4"/>
   </g>
   <g id="patch_211">
    <path d="M 525.046293 382.84 
L 527.122967 382.84 
L 527.122967 382.84 
L 525.046293 382.84 
z
" clip-path="url(#paf825cfe46)" style="fill: #1f77b4"/>
   </g>
   <g id="patch_212">
    <path d="M 527.122967 382.84 
L 529.199641 382.84 
L 529.199641 382.84 
L 527.122967 382.84 
z
" clip-path="url(#paf825cfe46)" style="fill: #1f77b4"/>
   </g>
   <g id="patch_213">
    <path d="M 529.199641 382.84 
L 531.276315 382.84 
L 531.276315 382.721219 
L 529.199641 382.721219 
z
" clip-path="url(#paf825cfe46)" style="fill: #1f77b4"/>
   </g>
   <g id="patch_214">
    <path d="M 531.276315 382.84 
L 533.352989 382.84 
L 533.352989 382.84 
L 531.276315 382.84 
z
" clip-path="url(#paf825cfe46)" style="fill: #1f77b4"/>
   </g>
   <g id="patch_215">
    <path d="M 533.352989 382.84 
L 535.429664 382.84 
L 535.429664 382.84 
L 533.352989 382.84 
z
" clip-path="url(#paf825cfe46)" style="fill: #1f77b4"/>
   </g>
   <g id="patch_216">
    <path d="M 535.429664 382.84 
L 537.506338 382.84 
L 537.506338 382.810305 
L 535.429664 382.810305 
z
" clip-path="url(#paf825cfe46)" style="fill: #1f77b4"/>
   </g>
   <g id="patch_217">
    <path d="M 537.506338 382.84 
L 539.583012 382.84 
L 539.583012 382.84 
L 537.506338 382.84 
z
" clip-path="url(#paf825cfe46)" style="fill: #1f77b4"/>
   </g>
   <g id="patch_218">
    <path d="M 539.583012 382.84 
L 541.659686 382.84 
L 541.659686 382.810305 
L 539.583012 382.810305 
z
" clip-path="url(#paf825cfe46)" style="fill: #1f77b4"/>
   </g>
   <g id="matplotlib.axis_1">
    <g id="xtick_1">
     <g id="line2d_1">
      <defs>
       <path id="m19ad760d40" d="M 0 0 
L 0 3.5 
" style="stroke: #000000; stroke-width: 0.8"/>
      </defs>
      <g>
       <use xlink:href="#m19ad760d40" x="104.173675" y="382.84" style="stroke: #000000; stroke-width: 0.8"/>
      </g>
     </g>
     <g id="text_1">
      <!-- −12 -->
      <g transform="translate(93.621332 397.438438) scale(0.1 -0.1)">
       <defs>
        <path id="DejaVuSans-2212" d="M 678 2272 
L 4684 2272 
L 4684 1741 
L 678 1741 
L 678 2272 
z
" transform="scale(0.015625)"/>
        <path id="DejaVuSans-31" d="M 794 531 
L 1825 531 
L 1825 4091 
L 703 3866 
L 703 4441 
L 1819 4666 
L 2450 4666 
L 2450 531 
L 3481 531 
L 3481 0 
L 794 0 
L 794 531 
z
" transform="scale(0.015625)"/>
        <path id="DejaVuSans-32" d="M 1228 531 
L 3431 531 
L 3431 0 
L 469 0 
L 469 531 
Q 828 903 1448 1529 
Q 2069 2156 2228 2338 
Q 2531 2678 2651 2914 
Q 2772 3150 2772 3378 
Q 2772 3750 2511 3984 
Q 2250 4219 1831 4219 
Q 1534 4219 1204 4116 
Q 875 4013 500 3803 
L 500 4441 
Q 881 4594 1212 4672 
Q 1544 4750 1819 4750 
Q 2544 4750 2975 4387 
Q 3406 4025 3406 3419 
Q 3406 3131 3298 2873 
Q 3191 2616 2906 2266 
Q 2828 2175 2409 1742 
Q 1991 1309 1228 531 
z
" transform="scale(0.015625)"/>
       </defs>
       <use xlink:href="#DejaVuSans-2212"/>
       <use xlink:href="#DejaVuSans-31" x="83.789062"/>
       <use xlink:href="#DejaVuSans-32" x="147.412109"/>
      </g>
     </g>
    </g>
    <g id="xtick_2">
     <g id="line2d_2">
      <g>
       <use xlink:href="#m19ad760d40" x="159.551651" y="382.84" style="stroke: #000000; stroke-width: 0.8"/>
      </g>
     </g>
     <g id="text_2">
      <!-- −11 -->
      <g transform="translate(148.999308 397.438438) scale(0.1 -0.1)">
       <use xlink:href="#DejaVuSans-2212"/>
       <use xlink:href="#DejaVuSans-31" x="83.789062"/>
       <use xlink:href="#DejaVuSans-31" x="147.412109"/>
      </g>
     </g>
    </g>
    <g id="xtick_3">
     <g id="line2d_3">
      <g>
       <use xlink:href="#m19ad760d40" x="214.929627" y="382.84" style="stroke: #000000; stroke-width: 0.8"/>
      </g>
     </g>
     <g id="text_3">
      <!-- −10 -->
      <g transform="translate(204.377284 397.438438) scale(0.1 -0.1)">
       <defs>
        <path id="DejaVuSans-30" d="M 2034 4250 
Q 1547 4250 1301 3770 
Q 1056 3291 1056 2328 
Q 1056 1369 1301 889 
Q 1547 409 2034 409 
Q 2525 409 2770 889 
Q 3016 1369 3016 2328 
Q 3016 3291 2770 3770 
Q 2525 4250 2034 4250 
z
M 2034 4750 
Q 2819 4750 3233 4129 
Q 3647 3509 3647 2328 
Q 3647 1150 3233 529 
Q 2819 -91 2034 -91 
Q 1250 -91 836 529 
Q 422 1150 422 2328 
Q 422 3509 836 4129 
Q 1250 4750 2034 4750 
z
" transform="scale(0.015625)"/>
       </defs>
       <use xlink:href="#DejaVuSans-2212"/>
       <use xlink:href="#DejaVuSans-31" x="83.789062"/>
       <use xlink:href="#DejaVuSans-30" x="147.412109"/>
      </g>
     </g>
    </g>
    <g id="xtick_4">
     <g id="line2d_4">
      <g>
       <use xlink:href="#m19ad760d40" x="270.307603" y="382.84" style="stroke: #000000; stroke-width: 0.8"/>
      </g>
     </g>
     <g id="text_4">
      <!-- −9 -->
      <g transform="translate(262.93651 397.438438) scale(0.1 -0.1)">
       <defs>
        <path id="DejaVuSans-39" d="M 703 97 
L 703 672 
Q 941 559 1184 500 
Q 1428 441 1663 441 
Q 2288 441 2617 861 
Q 2947 1281 2994 2138 
Q 2813 1869 2534 1725 
Q 2256 1581 1919 1581 
Q 1219 1581 811 2004 
Q 403 2428 403 3163 
Q 403 3881 828 4315 
Q 1253 4750 1959 4750 
Q 2769 4750 3195 4129 
Q 3622 3509 3622 2328 
Q 3622 1225 3098 567 
Q 2575 -91 1691 -91 
Q 1453 -91 1209 -44 
Q 966 3 703 97 
z
M 1959 2075 
Q 2384 2075 2632 2365 
Q 2881 2656 2881 3163 
Q 2881 3666 2632 3958 
Q 2384 4250 1959 4250 
Q 1534 4250 1286 3958 
Q 1038 3666 1038 3163 
Q 1038 2656 1286 2365 
Q 1534 2075 1959 2075 
z
" transform="scale(0.015625)"/>
       </defs>
       <use xlink:href="#DejaVuSans-2212"/>
       <use xlink:href="#DejaVuSans-39" x="83.789062"/>
      </g>
     </g>
    </g>
    <g id="xtick_5">
     <g id="line2d_5">
      <g>
       <use xlink:href="#m19ad760d40" x="325.685579" y="382.84" style="stroke: #000000; stroke-width: 0.8"/>
      </g>
     </g>
     <g id="text_5">
      <!-- −8 -->
      <g transform="translate(318.314486 397.438438) scale(0.1 -0.1)">
       <defs>
        <path id="DejaVuSans-38" d="M 2034 2216 
Q 1584 2216 1326 1975 
Q 1069 1734 1069 1313 
Q 1069 891 1326 650 
Q 1584 409 2034 409 
Q 2484 409 2743 651 
Q 3003 894 3003 1313 
Q 3003 1734 2745 1975 
Q 2488 2216 2034 2216 
z
M 1403 2484 
Q 997 2584 770 2862 
Q 544 3141 544 3541 
Q 544 4100 942 4425 
Q 1341 4750 2034 4750 
Q 2731 4750 3128 4425 
Q 3525 4100 3525 3541 
Q 3525 3141 3298 2862 
Q 3072 2584 2669 2484 
Q 3125 2378 3379 2068 
Q 3634 1759 3634 1313 
Q 3634 634 3220 271 
Q 2806 -91 2034 -91 
Q 1263 -91 848 271 
Q 434 634 434 1313 
Q 434 1759 690 2068 
Q 947 2378 1403 2484 
z
M 1172 3481 
Q 1172 3119 1398 2916 
Q 1625 2713 2034 2713 
Q 2441 2713 2670 2916 
Q 2900 3119 2900 3481 
Q 2900 3844 2670 4047 
Q 2441 4250 2034 4250 
Q 1625 4250 1398 4047 
Q 1172 3844 1172 3481 
z
" transform="scale(0.015625)"/>
       </defs>
       <use xlink:href="#DejaVuSans-2212"/>
       <use xlink:href="#DejaVuSans-38" x="83.789062"/>
      </g>
     </g>
    </g>
    <g id="xtick_6">
     <g id="line2d_6">
      <g>
       <use xlink:href="#m19ad760d40" x="381.063555" y="382.84" style="stroke: #000000; stroke-width: 0.8"/>
      </g>
     </g>
     <g id="text_6">
      <!-- −7 -->
      <g transform="translate(373.692462 397.438438) scale(0.1 -0.1)">
       <defs>
        <path id="DejaVuSans-37" d="M 525 4666 
L 3525 4666 
L 3525 4397 
L 1831 0 
L 1172 0 
L 2766 4134 
L 525 4134 
L 525 4666 
z
" transform="scale(0.015625)"/>
       </defs>
       <use xlink:href="#DejaVuSans-2212"/>
       <use xlink:href="#DejaVuSans-37" x="83.789062"/>
      </g>
     </g>
    </g>
    <g id="xtick_7">
     <g id="line2d_7">
      <g>
       <use xlink:href="#m19ad760d40" x="436.441531" y="382.84" style="stroke: #000000; stroke-width: 0.8"/>
      </g>
     </g>
     <g id="text_7">
      <!-- −6 -->
      <g transform="translate(429.070438 397.438438) scale(0.1 -0.1)">
       <defs>
        <path id="DejaVuSans-36" d="M 2113 2584 
Q 1688 2584 1439 2293 
Q 1191 2003 1191 1497 
Q 1191 994 1439 701 
Q 1688 409 2113 409 
Q 2538 409 2786 701 
Q 3034 994 3034 1497 
Q 3034 2003 2786 2293 
Q 2538 2584 2113 2584 
z
M 3366 4563 
L 3366 3988 
Q 3128 4100 2886 4159 
Q 2644 4219 2406 4219 
Q 1781 4219 1451 3797 
Q 1122 3375 1075 2522 
Q 1259 2794 1537 2939 
Q 1816 3084 2150 3084 
Q 2853 3084 3261 2657 
Q 3669 2231 3669 1497 
Q 3669 778 3244 343 
Q 2819 -91 2113 -91 
Q 1303 -91 875 529 
Q 447 1150 447 2328 
Q 447 3434 972 4092 
Q 1497 4750 2381 4750 
Q 2619 4750 2861 4703 
Q 3103 4656 3366 4563 
z
" transform="scale(0.015625)"/>
       </defs>
       <use xlink:href="#DejaVuSans-2212"/>
       <use xlink:href="#DejaVuSans-36" x="83.789062"/>
      </g>
     </g>
    </g>
    <g id="xtick_8">
     <g id="line2d_8">
      <g>
       <use xlink:href="#m19ad760d40" x="491.819507" y="382.84" style="stroke: #000000; stroke-width: 0.8"/>
      </g>
     </g>
     <g id="text_8">
      <!-- −5 -->
      <g transform="translate(484.448414 397.438438) scale(0.1 -0.1)">
       <defs>
        <path id="DejaVuSans-35" d="M 691 4666 
L 3169 4666 
L 3169 4134 
L 1269 4134 
L 1269 2991 
Q 1406 3038 1543 3061 
Q 1681 3084 1819 3084 
Q 2600 3084 3056 2656 
Q 3513 2228 3513 1497 
Q 3513 744 3044 326 
Q 2575 -91 1722 -91 
Q 1428 -91 1123 -41 
Q 819 9 494 109 
L 494 744 
Q 775 591 1075 516 
Q 1375 441 1709 441 
Q 2250 441 2565 725 
Q 2881 1009 2881 1497 
Q 2881 1984 2565 2268 
Q 2250 2553 1709 2553 
Q 1456 2553 1204 2497 
Q 953 2441 691 2322 
L 691 4666 
z
" transform="scale(0.015625)"/>
       </defs>
       <use xlink:href="#DejaVuSans-2212"/>
       <use xlink:href="#DejaVuSans-35" x="83.789062"/>
      </g>
     </g>
    </g>
    <g id="xtick_9">
     <g id="line2d_9">
      <g>
       <use xlink:href="#m19ad760d40" x="547.197483" y="382.84" style="stroke: #000000; stroke-width: 0.8"/>
      </g>
     </g>
     <g id="text_9">
      <!-- −4 -->
      <g transform="translate(539.82639 397.438438) scale(0.1 -0.1)">
       <defs>
        <path id="DejaVuSans-34" d="M 2419 4116 
L 825 1625 
L 2419 1625 
L 2419 4116 
z
M 2253 4666 
L 3047 4666 
L 3047 1625 
L 3713 1625 
L 3713 1100 
L 3047 1100 
L 3047 0 
L 2419 0 
L 2419 1100 
L 313 1100 
L 313 1709 
L 2253 4666 
z
" transform="scale(0.015625)"/>
       </defs>
       <use xlink:href="#DejaVuSans-2212"/>
       <use xlink:href="#DejaVuSans-34" x="83.789062"/>
      </g>
     </g>
    </g>
    <g id="text_10">
     <!-- IGF1R -->
     <g transform="translate(290.594039 417.195312) scale(0.18 -0.18)">
      <defs>
       <path id="DejaVuSans-49" d="M 628 4666 
L 1259 4666 
L 1259 0 
L 628 0 
L 628 4666 
z
" transform="scale(0.015625)"/>
       <path id="DejaVuSans-47" d="M 3809 666 
L 3809 1919 
L 2778 1919 
L 2778 2438 
L 4434 2438 
L 4434 434 
Q 4069 175 3628 42 
Q 3188 -91 2688 -91 
Q 1594 -91 976 548 
Q 359 1188 359 2328 
Q 359 3472 976 4111 
Q 1594 4750 2688 4750 
Q 3144 4750 3555 4637 
Q 3966 4525 4313 4306 
L 4313 3634 
Q 3963 3931 3569 4081 
Q 3175 4231 2741 4231 
Q 1884 4231 1454 3753 
Q 1025 3275 1025 2328 
Q 1025 1384 1454 906 
Q 1884 428 2741 428 
Q 3075 428 3337 486 
Q 3600 544 3809 666 
z
" transform="scale(0.015625)"/>
       <path id="DejaVuSans-46" d="M 628 4666 
L 3309 4666 
L 3309 4134 
L 1259 4134 
L 1259 2759 
L 3109 2759 
L 3109 2228 
L 1259 2228 
L 1259 0 
L 628 0 
L 628 4666 
z
" transform="scale(0.015625)"/>
       <path id="DejaVuSans-52" d="M 2841 2188 
Q 3044 2119 3236 1894 
Q 3428 1669 3622 1275 
L 4263 0 
L 3584 0 
L 2988 1197 
Q 2756 1666 2539 1819 
Q 2322 1972 1947 1972 
L 1259 1972 
L 1259 0 
L 628 0 
L 628 4666 
L 2053 4666 
Q 2853 4666 3247 4331 
Q 3641 3997 3641 3322 
Q 3641 2881 3436 2590 
Q 3231 2300 2841 2188 
z
M 1259 4147 
L 1259 2491 
L 2053 2491 
Q 2509 2491 2742 2702 
Q 2975 2913 2975 3322 
Q 2975 3731 2742 3939 
Q 2509 4147 2053 4147 
L 1259 4147 
z
" transform="scale(0.015625)"/>
      </defs>
      <use xlink:href="#DejaVuSans-49"/>
      <use xlink:href="#DejaVuSans-47" x="29.492188"/>
      <use xlink:href="#DejaVuSans-46" x="106.982422"/>
      <use xlink:href="#DejaVuSans-31" x="164.501953"/>
      <use xlink:href="#DejaVuSans-52" x="228.125"/>
     </g>
    </g>
   </g>
   <g id="matplotlib.axis_2">
    <g id="ytick_1">
     <g id="line2d_10">
      <defs>
       <path id="me954d7ea30" d="M 0 0 
L -3.5 0 
" style="stroke: #000000; stroke-width: 0.8"/>
      </defs>
      <g>
       <use xlink:href="#me954d7ea30" x="70.67" y="382.84" style="stroke: #000000; stroke-width: 0.8"/>
      </g>
     </g>
     <g id="text_11">
      <!-- 0 -->
      <g transform="translate(57.3075 386.639219) scale(0.1 -0.1)">
       <use xlink:href="#DejaVuSans-30"/>
      </g>
     </g>
    </g>
    <g id="ytick_2">
     <g id="line2d_11">
      <g>
       <use xlink:href="#me954d7ea30" x="70.67" y="323.449485" style="stroke: #000000; stroke-width: 0.8"/>
      </g>
     </g>
     <g id="text_12">
      <!-- 2000 -->
      <g transform="translate(38.22 327.248704) scale(0.1 -0.1)">
       <use xlink:href="#DejaVuSans-32"/>
       <use xlink:href="#DejaVuSans-30" x="63.623047"/>
       <use xlink:href="#DejaVuSans-30" x="127.246094"/>
       <use xlink:href="#DejaVuSans-30" x="190.869141"/>
      </g>
     </g>
    </g>
    <g id="ytick_3">
     <g id="line2d_12">
      <g>
       <use xlink:href="#me954d7ea30" x="70.67" y="264.058971" style="stroke: #000000; stroke-width: 0.8"/>
      </g>
     </g>
     <g id="text_13">
      <!-- 4000 -->
      <g transform="translate(38.22 267.85819) scale(0.1 -0.1)">
       <use xlink:href="#DejaVuSans-34"/>
       <use xlink:href="#DejaVuSans-30" x="63.623047"/>
       <use xlink:href="#DejaVuSans-30" x="127.246094"/>
       <use xlink:href="#DejaVuSans-30" x="190.869141"/>
      </g>
     </g>
    </g>
    <g id="ytick_4">
     <g id="line2d_13">
      <g>
       <use xlink:href="#me954d7ea30" x="70.67" y="204.668456" style="stroke: #000000; stroke-width: 0.8"/>
      </g>
     </g>
     <g id="text_14">
      <!-- 6000 -->
      <g transform="translate(38.22 208.467675) scale(0.1 -0.1)">
       <use xlink:href="#DejaVuSans-36"/>
       <use xlink:href="#DejaVuSans-30" x="63.623047"/>
       <use xlink:href="#DejaVuSans-30" x="127.246094"/>
       <use xlink:href="#DejaVuSans-30" x="190.869141"/>
      </g>
     </g>
    </g>
    <g id="ytick_5">
     <g id="line2d_14">
      <g>
       <use xlink:href="#me954d7ea30" x="70.67" y="145.277942" style="stroke: #000000; stroke-width: 0.8"/>
      </g>
     </g>
     <g id="text_15">
      <!-- 8000 -->
      <g transform="translate(38.22 149.077161) scale(0.1 -0.1)">
       <use xlink:href="#DejaVuSans-38"/>
       <use xlink:href="#DejaVuSans-30" x="63.623047"/>
       <use xlink:href="#DejaVuSans-30" x="127.246094"/>
       <use xlink:href="#DejaVuSans-30" x="190.869141"/>
      </g>
     </g>
    </g>
    <g id="ytick_6">
     <g id="line2d_15">
      <g>
       <use xlink:href="#me954d7ea30" x="70.67" y="85.887427" style="stroke: #000000; stroke-width: 0.8"/>
      </g>
     </g>
     <g id="text_16">
      <!-- 10000 -->
      <g transform="translate(31.8575 89.686646) scale(0.1 -0.1)">
       <use xlink:href="#DejaVuSans-31"/>
       <use xlink:href="#DejaVuSans-30" x="63.623047"/>
       <use xlink:href="#DejaVuSans-30" x="127.246094"/>
       <use xlink:href="#DejaVuSans-30" x="190.869141"/>
       <use xlink:href="#DejaVuSans-30" x="254.492188"/>
      </g>
     </g>
    </g>
    <g id="ytick_7">
     <g id="line2d_16">
      <g>
       <use xlink:href="#me954d7ea30" x="70.67" y="26.496913" style="stroke: #000000; stroke-width: 0.8"/>
      </g>
     </g>
     <g id="text_17">
      <!-- 12000 -->
      <g transform="translate(31.8575 30.296132) scale(0.1 -0.1)">
       <use xlink:href="#DejaVuSans-31"/>
       <use xlink:href="#DejaVuSans-32" x="63.623047"/>
       <use xlink:href="#DejaVuSans-30" x="127.246094"/>
       <use xlink:href="#DejaVuSans-30" x="190.869141"/>
       <use xlink:href="#DejaVuSans-30" x="254.492188"/>
      </g>
     </g>
    </g>
    <g id="text_18">
     <!-- Count -->
     <g transform="translate(24.114063 223.547188) rotate(-90) scale(0.18 -0.18)">
      <defs>
       <path id="DejaVuSans-43" d="M 4122 4306 
L 4122 3641 
Q 3803 3938 3442 4084 
Q 3081 4231 2675 4231 
Q 1875 4231 1450 3742 
Q 1025 3253 1025 2328 
Q 1025 1406 1450 917 
Q 1875 428 2675 428 
Q 3081 428 3442 575 
Q 3803 722 4122 1019 
L 4122 359 
Q 3791 134 3420 21 
Q 3050 -91 2638 -91 
Q 1578 -91 968 557 
Q 359 1206 359 2328 
Q 359 3453 968 4101 
Q 1578 4750 2638 4750 
Q 3056 4750 3426 4639 
Q 3797 4528 4122 4306 
z
" transform="scale(0.015625)"/>
       <path id="DejaVuSans-6f" d="M 1959 3097 
Q 1497 3097 1228 2736 
Q 959 2375 959 1747 
Q 959 1119 1226 758 
Q 1494 397 1959 397 
Q 2419 397 2687 759 
Q 2956 1122 2956 1747 
Q 2956 2369 2687 2733 
Q 2419 3097 1959 3097 
z
M 1959 3584 
Q 2709 3584 3137 3096 
Q 3566 2609 3566 1747 
Q 3566 888 3137 398 
Q 2709 -91 1959 -91 
Q 1206 -91 779 398 
Q 353 888 353 1747 
Q 353 2609 779 3096 
Q 1206 3584 1959 3584 
z
" transform="scale(0.015625)"/>
       <path id="DejaVuSans-75" d="M 544 1381 
L 544 3500 
L 1119 3500 
L 1119 1403 
Q 1119 906 1312 657 
Q 1506 409 1894 409 
Q 2359 409 2629 706 
Q 2900 1003 2900 1516 
L 2900 3500 
L 3475 3500 
L 3475 0 
L 2900 0 
L 2900 538 
Q 2691 219 2414 64 
Q 2138 -91 1772 -91 
Q 1169 -91 856 284 
Q 544 659 544 1381 
z
M 1991 3584 
L 1991 3584 
z
" transform="scale(0.015625)"/>
       <path id="DejaVuSans-6e" d="M 3513 2113 
L 3513 0 
L 2938 0 
L 2938 2094 
Q 2938 2591 2744 2837 
Q 2550 3084 2163 3084 
Q 1697 3084 1428 2787 
Q 1159 2491 1159 1978 
L 1159 0 
L 581 0 
L 581 3500 
L 1159 3500 
L 1159 2956 
Q 1366 3272 1645 3428 
Q 1925 3584 2291 3584 
Q 2894 3584 3203 3211 
Q 3513 2838 3513 2113 
z
" transform="scale(0.015625)"/>
       <path id="DejaVuSans-74" d="M 1172 4494 
L 1172 3500 
L 2356 3500 
L 2356 3053 
L 1172 3053 
L 1172 1153 
Q 1172 725 1289 603 
Q 1406 481 1766 481 
L 2356 481 
L 2356 0 
L 1766 0 
Q 1100 0 847 248 
Q 594 497 594 1153 
L 594 3053 
L 172 3053 
L 172 3500 
L 594 3500 
L 594 4494 
L 1172 4494 
z
" transform="scale(0.015625)"/>
      </defs>
      <use xlink:href="#DejaVuSans-43"/>
      <use xlink:href="#DejaVuSans-6f" x="69.824219"/>
      <use xlink:href="#DejaVuSans-75" x="131.005859"/>
      <use xlink:href="#DejaVuSans-6e" x="194.384766"/>
      <use xlink:href="#DejaVuSans-74" x="257.763672"/>
     </g>
    </g>
   </g>
   <g id="line2d_17">
    <path d="M 275.845401 382.84 
L 275.845401 28.51619 
" clip-path="url(#paf825cfe46)" style="fill: none; stroke: #ff0000; stroke-width: 1.6; stroke-linecap: square"/>
   </g>
   <g id="patch_219">
    <path d="M 70.67 382.84 
L 70.67 10.8 
" style="fill: none; stroke: #000000; stroke-width: 0.8; stroke-linejoin: miter; stroke-linecap: square"/>
   </g>
   <g id="patch_220">
    <path d="M 564.087766 382.84 
L 564.087766 10.8 
" style="fill: none; stroke: #000000; stroke-width: 0.8; stroke-linejoin: miter; stroke-linecap: square"/>
   </g>
   <g id="patch_221">
    <path d="M 70.67 382.84 
L 564.087766 382.84 
" style="fill: none; stroke: #000000; stroke-width: 0.8; stroke-linejoin: miter; stroke-linecap: square"/>
   </g>
   <g id="patch_222">
    <path d="M 70.67 10.8 
L 564.087766 10.8 
" style="fill: none; stroke: #000000; stroke-width: 0.8; stroke-linejoin: miter; stroke-linecap: square"/>
   </g>
   <g id="text_19">
    <!-- $\mu_1 = -8.009$ -->
    <g transform="translate(416.062436 61.649937) scale(0.21 -0.21)">
     <defs>
      <path id="DejaVuSans-Oblique-3bc" d="M -84 -1331 
L 856 3500 
L 1434 3500 
L 1009 1322 
Q 997 1256 987 1175 
Q 978 1094 978 1013 
Q 978 722 1161 565 
Q 1344 409 1684 409 
Q 2147 409 2431 671 
Q 2716 934 2816 1459 
L 3213 3500 
L 3788 3500 
L 3266 809 
Q 3253 750 3248 706 
Q 3244 663 3244 628 
Q 3244 531 3283 486 
Q 3322 441 3406 441 
Q 3438 441 3492 456 
Q 3547 472 3647 513 
L 3559 50 
Q 3422 -19 3297 -55 
Q 3172 -91 3053 -91 
Q 2847 -91 2730 40 
Q 2613 172 2613 403 
Q 2438 153 2195 31 
Q 1953 -91 1625 -91 
Q 1334 -91 1117 43 
Q 900 178 831 397 
L 494 -1331 
L -84 -1331 
z
" transform="scale(0.015625)"/>
      <path id="DejaVuSans-3d" d="M 678 2906 
L 4684 2906 
L 4684 2381 
L 678 2381 
L 678 2906 
z
M 678 1631 
L 4684 1631 
L 4684 1100 
L 678 1100 
L 678 1631 
z
" transform="scale(0.015625)"/>
      <path id="DejaVuSans-2e" d="M 684 794 
L 1344 794 
L 1344 0 
L 684 0 
L 684 794 
z
" transform="scale(0.015625)"/>
     </defs>
     <use xlink:href="#DejaVuSans-Oblique-3bc" transform="translate(0 0.78125)"/>
     <use xlink:href="#DejaVuSans-31" transform="translate(63.623047 -15.625) scale(0.7)"/>
     <use xlink:href="#DejaVuSans-3d" transform="translate(130.375977 0.78125)"/>
     <use xlink:href="#DejaVuSans-2212" transform="translate(253.129883 0.78125)"/>
     <use xlink:href="#DejaVuSans-38" transform="translate(356.401367 0.78125)"/>
     <use xlink:href="#DejaVuSans-2e" transform="translate(420.024414 0.78125)"/>
     <use xlink:href="#DejaVuSans-30" transform="translate(451.811523 0.78125)"/>
     <use xlink:href="#DejaVuSans-30" transform="translate(515.43457 0.78125)"/>
     <use xlink:href="#DejaVuSans-39" transform="translate(579.057617 0.78125)"/>
    </g>
    <!-- $\sigma_1 = 0.902$ -->
    <g transform="translate(416.062436 85.208) scale(0.21 -0.21)">
     <defs>
      <path id="DejaVuSans-Oblique-3c3" d="M 2219 3044 
Q 1744 3044 1422 2700 
Q 1081 2341 969 1747 
Q 844 1119 1044 756 
Q 1241 397 1706 397 
Q 2166 397 2503 759 
Q 2844 1122 2966 1747 
Q 3075 2319 2881 2700 
Q 2700 3044 2219 3044 
z
M 2309 3503 
L 4219 3500 
L 4106 2925 
L 3463 2925 
Q 3706 2438 3575 1747 
Q 3406 888 2884 400 
Q 2359 -91 1609 -91 
Q 856 -91 525 400 
Q 194 888 363 1747 
Q 528 2609 1050 3097 
Q 1484 3503 2309 3503 
z
" transform="scale(0.015625)"/>
     </defs>
     <use xlink:href="#DejaVuSans-Oblique-3c3" transform="translate(0 0.78125)"/>
     <use xlink:href="#DejaVuSans-31" transform="translate(63.378906 -15.625) scale(0.7)"/>
     <use xlink:href="#DejaVuSans-3d" transform="translate(130.131836 0.78125)"/>
     <use xlink:href="#DejaVuSans-30" transform="translate(233.40332 0.78125)"/>
     <use xlink:href="#DejaVuSans-2e" transform="translate(297.026367 0.78125)"/>
     <use xlink:href="#DejaVuSans-39" transform="translate(328.813477 0.78125)"/>
     <use xlink:href="#DejaVuSans-30" transform="translate(392.436523 0.78125)"/>
     <use xlink:href="#DejaVuSans-32" transform="translate(456.05957 0.78125)"/>
    </g>
   </g>
  </g>
 </g>
 <defs>
  <clipPath id="paf825cfe46">
   <rect x="70.67" y="10.8" width="493.417766" height="372.04"/>
  </clipPath>
 </defs>
</svg>
