<?xml version="1.0" encoding="utf-8" standalone="no"?>
<!DOCTYPE svg PUBLIC "-//W3C//DTD SVG 1.1//EN"
  "http://www.w3.org/Graphics/SVG/1.1/DTD/svg11.dtd">
<svg xmlns:xlink="http://www.w3.org/1999/xlink" width="576pt" height="432pt" viewBox="0 0 576 432" xmlns="http://www.w3.org/2000/svg" version="1.1">
 <metadata>
  <rdf:RDF xmlns:dc="http://purl.org/dc/elements/1.1/" xmlns:cc="http://creativecommons.org/ns#" xmlns:rdf="http://www.w3.org/1999/02/22-rdf-syntax-ns#">
   <cc:Work>
    <dc:type rdf:resource="http://purl.org/dc/dcmitype/StillImage"/>
    <dc:date>2024-09-05T19:41:13.103492</dc:date>
    <dc:format>image/svg+xml</dc:format>
    <dc:creator>
     <cc:Agent>
      <dc:title>Matplotlib v3.7.2, https://matplotlib.org/</dc:title>
     </cc:Agent>
    </dc:creator>
   </cc:Work>
  </rdf:RDF>
 </metadata>
 <defs>
  <style type="text/css">*{stroke-linejoin: round; stroke-linecap: butt}</style>
 </defs>
 <g id="figure_1">
  <g id="patch_1">
   <path d="M 0 432 
L 576 432 
L 576 0 
L 0 0 
z
" style="fill: #ffffff"/>
  </g>
  <g id="axes_1">
   <g id="patch_2">
    <path d="M 70.67 382.84 
L 565.2 382.84 
L 565.2 11.633738 
L 70.67 11.633738 
z
" style="fill: #ffffff"/>
   </g>
   <g id="patch_3">
    <path d="M 93.148636 382.84 
L 94.884438 382.84 
L 94.884438 382.809357 
L 93.148636 382.809357 
z
" clip-path="url(#p6a18a66422)" style="fill: #1f77b4"/>
   </g>
   <g id="patch_4">
    <path d="M 94.884438 382.84 
L 96.62024 382.84 
L 96.62024 382.84 
L 94.884438 382.84 
z
" clip-path="url(#p6a18a66422)" style="fill: #1f77b4"/>
   </g>
   <g id="patch_5">
    <path d="M 96.62024 382.84 
L 98.356042 382.84 
L 98.356042 382.84 
L 96.62024 382.84 
z
" clip-path="url(#p6a18a66422)" style="fill: #1f77b4"/>
   </g>
   <g id="patch_6">
    <path d="M 98.356042 382.84 
L 100.091845 382.84 
L 100.091845 382.84 
L 98.356042 382.84 
z
" clip-path="url(#p6a18a66422)" style="fill: #1f77b4"/>
   </g>
   <g id="patch_7">
    <path d="M 100.091845 382.84 
L 101.827647 382.84 
L 101.827647 382.84 
L 100.091845 382.84 
z
" clip-path="url(#p6a18a66422)" style="fill: #1f77b4"/>
   </g>
   <g id="patch_8">
    <path d="M 101.827647 382.84 
L 103.563449 382.84 
L 103.563449 382.84 
L 101.827647 382.84 
z
" clip-path="url(#p6a18a66422)" style="fill: #1f77b4"/>
   </g>
   <g id="patch_9">
    <path d="M 103.563449 382.84 
L 105.299251 382.84 
L 105.299251 382.84 
L 103.563449 382.84 
z
" clip-path="url(#p6a18a66422)" style="fill: #1f77b4"/>
   </g>
   <g id="patch_10">
    <path d="M 105.299251 382.84 
L 107.035053 382.84 
L 107.035053 382.84 
L 105.299251 382.84 
z
" clip-path="url(#p6a18a66422)" style="fill: #1f77b4"/>
   </g>
   <g id="patch_11">
    <path d="M 107.035053 382.84 
L 108.770855 382.84 
L 108.770855 382.84 
L 107.035053 382.84 
z
" clip-path="url(#p6a18a66422)" style="fill: #1f77b4"/>
   </g>
   <g id="patch_12">
    <path d="M 108.770855 382.84 
L 110.506657 382.84 
L 110.506657 382.84 
L 108.770855 382.84 
z
" clip-path="url(#p6a18a66422)" style="fill: #1f77b4"/>
   </g>
   <g id="patch_13">
    <path d="M 110.506657 382.84 
L 112.242459 382.84 
L 112.242459 382.84 
L 110.506657 382.84 
z
" clip-path="url(#p6a18a66422)" style="fill: #1f77b4"/>
   </g>
   <g id="patch_14">
    <path d="M 112.242459 382.84 
L 113.978261 382.84 
L 113.978261 382.84 
L 112.242459 382.84 
z
" clip-path="url(#p6a18a66422)" style="fill: #1f77b4"/>
   </g>
   <g id="patch_15">
    <path d="M 113.978261 382.84 
L 115.714063 382.84 
L 115.714063 382.84 
L 113.978261 382.84 
z
" clip-path="url(#p6a18a66422)" style="fill: #1f77b4"/>
   </g>
   <g id="patch_16">
    <path d="M 115.714063 382.84 
L 117.449865 382.84 
L 117.449865 382.84 
L 115.714063 382.84 
z
" clip-path="url(#p6a18a66422)" style="fill: #1f77b4"/>
   </g>
   <g id="patch_17">
    <path d="M 117.449865 382.84 
L 119.185667 382.84 
L 119.185667 382.84 
L 117.449865 382.84 
z
" clip-path="url(#p6a18a66422)" style="fill: #1f77b4"/>
   </g>
   <g id="patch_18">
    <path d="M 119.185667 382.84 
L 120.921469 382.84 
L 120.921469 382.84 
L 119.185667 382.84 
z
" clip-path="url(#p6a18a66422)" style="fill: #1f77b4"/>
   </g>
   <g id="patch_19">
    <path d="M 120.921469 382.84 
L 122.657271 382.84 
L 122.657271 382.84 
L 120.921469 382.84 
z
" clip-path="url(#p6a18a66422)" style="fill: #1f77b4"/>
   </g>
   <g id="patch_20">
    <path d="M 122.657271 382.84 
L 124.393073 382.84 
L 124.393073 382.84 
L 122.657271 382.84 
z
" clip-path="url(#p6a18a66422)" style="fill: #1f77b4"/>
   </g>
   <g id="patch_21">
    <path d="M 124.393073 382.84 
L 126.128875 382.84 
L 126.128875 382.809357 
L 124.393073 382.809357 
z
" clip-path="url(#p6a18a66422)" style="fill: #1f77b4"/>
   </g>
   <g id="patch_22">
    <path d="M 126.128875 382.84 
L 127.864677 382.84 
L 127.864677 382.84 
L 126.128875 382.84 
z
" clip-path="url(#p6a18a66422)" style="fill: #1f77b4"/>
   </g>
   <g id="patch_23">
    <path d="M 127.864677 382.84 
L 129.600479 382.84 
L 129.600479 382.84 
L 127.864677 382.84 
z
" clip-path="url(#p6a18a66422)" style="fill: #1f77b4"/>
   </g>
   <g id="patch_24">
    <path d="M 129.600479 382.84 
L 131.336281 382.84 
L 131.336281 382.809357 
L 129.600479 382.809357 
z
" clip-path="url(#p6a18a66422)" style="fill: #1f77b4"/>
   </g>
   <g id="patch_25">
    <path d="M 131.336281 382.84 
L 133.072083 382.84 
L 133.072083 382.84 
L 131.336281 382.84 
z
" clip-path="url(#p6a18a66422)" style="fill: #1f77b4"/>
   </g>
   <g id="patch_26">
    <path d="M 133.072083 382.84 
L 134.807885 382.84 
L 134.807885 382.84 
L 133.072083 382.84 
z
" clip-path="url(#p6a18a66422)" style="fill: #1f77b4"/>
   </g>
   <g id="patch_27">
    <path d="M 134.807885 382.84 
L 136.543687 382.84 
L 136.543687 382.809357 
L 134.807885 382.809357 
z
" clip-path="url(#p6a18a66422)" style="fill: #1f77b4"/>
   </g>
   <g id="patch_28">
    <path d="M 136.543687 382.84 
L 138.279489 382.84 
L 138.279489 382.84 
L 136.543687 382.84 
z
" clip-path="url(#p6a18a66422)" style="fill: #1f77b4"/>
   </g>
   <g id="patch_29">
    <path d="M 138.279489 382.84 
L 140.015291 382.84 
L 140.015291 382.778714 
L 138.279489 382.778714 
z
" clip-path="url(#p6a18a66422)" style="fill: #1f77b4"/>
   </g>
   <g id="patch_30">
    <path d="M 140.015291 382.84 
L 141.751093 382.84 
L 141.751093 382.84 
L 140.015291 382.84 
z
" clip-path="url(#p6a18a66422)" style="fill: #1f77b4"/>
   </g>
   <g id="patch_31">
    <path d="M 141.751093 382.84 
L 143.486895 382.84 
L 143.486895 382.84 
L 141.751093 382.84 
z
" clip-path="url(#p6a18a66422)" style="fill: #1f77b4"/>
   </g>
   <g id="patch_32">
    <path d="M 143.486895 382.84 
L 145.222697 382.84 
L 145.222697 382.778714 
L 143.486895 382.778714 
z
" clip-path="url(#p6a18a66422)" style="fill: #1f77b4"/>
   </g>
   <g id="patch_33">
    <path d="M 145.222697 382.84 
L 146.958499 382.84 
L 146.958499 382.84 
L 145.222697 382.84 
z
" clip-path="url(#p6a18a66422)" style="fill: #1f77b4"/>
   </g>
   <g id="patch_34">
    <path d="M 146.958499 382.84 
L 148.694302 382.84 
L 148.694302 382.84 
L 146.958499 382.84 
z
" clip-path="url(#p6a18a66422)" style="fill: #1f77b4"/>
   </g>
   <g id="patch_35">
    <path d="M 148.694302 382.84 
L 150.430104 382.84 
L 150.430104 382.533569 
L 148.694302 382.533569 
z
" clip-path="url(#p6a18a66422)" style="fill: #1f77b4"/>
   </g>
   <g id="patch_36">
    <path d="M 150.430104 382.84 
L 152.165906 382.84 
L 152.165906 382.84 
L 150.430104 382.84 
z
" clip-path="url(#p6a18a66422)" style="fill: #1f77b4"/>
   </g>
   <g id="patch_37">
    <path d="M 152.165906 382.84 
L 153.901708 382.84 
L 153.901708 382.748071 
L 152.165906 382.748071 
z
" clip-path="url(#p6a18a66422)" style="fill: #1f77b4"/>
   </g>
   <g id="patch_38">
    <path d="M 153.901708 382.84 
L 155.63751 382.84 
L 155.63751 382.84 
L 153.901708 382.84 
z
" clip-path="url(#p6a18a66422)" style="fill: #1f77b4"/>
   </g>
   <g id="patch_39">
    <path d="M 155.63751 382.84 
L 157.373312 382.84 
L 157.373312 382.84 
L 155.63751 382.84 
z
" clip-path="url(#p6a18a66422)" style="fill: #1f77b4"/>
   </g>
   <g id="patch_40">
    <path d="M 157.373312 382.84 
L 159.109114 382.84 
L 159.109114 382.594855 
L 157.373312 382.594855 
z
" clip-path="url(#p6a18a66422)" style="fill: #1f77b4"/>
   </g>
   <g id="patch_41">
    <path d="M 159.109114 382.84 
L 160.844916 382.84 
L 160.844916 382.84 
L 159.109114 382.84 
z
" clip-path="url(#p6a18a66422)" style="fill: #1f77b4"/>
   </g>
   <g id="patch_42">
    <path d="M 160.844916 382.84 
L 162.580718 382.84 
L 162.580718 382.84 
L 160.844916 382.84 
z
" clip-path="url(#p6a18a66422)" style="fill: #1f77b4"/>
   </g>
   <g id="patch_43">
    <path d="M 162.580718 382.84 
L 164.31652 382.84 
L 164.31652 382.34971 
L 162.580718 382.34971 
z
" clip-path="url(#p6a18a66422)" style="fill: #1f77b4"/>
   </g>
   <g id="patch_44">
    <path d="M 164.31652 382.84 
L 166.052322 382.84 
L 166.052322 382.84 
L 164.31652 382.84 
z
" clip-path="url(#p6a18a66422)" style="fill: #1f77b4"/>
   </g>
   <g id="patch_45">
    <path d="M 166.052322 382.84 
L 167.788124 382.84 
L 167.788124 382.165851 
L 166.052322 382.165851 
z
" clip-path="url(#p6a18a66422)" style="fill: #1f77b4"/>
   </g>
   <g id="patch_46">
    <path d="M 167.788124 382.84 
L 169.523926 382.84 
L 169.523926 382.84 
L 167.788124 382.84 
z
" clip-path="url(#p6a18a66422)" style="fill: #1f77b4"/>
   </g>
   <g id="patch_47">
    <path d="M 169.523926 382.84 
L 171.259728 382.84 
L 171.259728 382.84 
L 169.523926 382.84 
z
" clip-path="url(#p6a18a66422)" style="fill: #1f77b4"/>
   </g>
   <g id="patch_48">
    <path d="M 171.259728 382.84 
L 172.99553 382.84 
L 172.99553 382.135208 
L 171.259728 382.135208 
z
" clip-path="url(#p6a18a66422)" style="fill: #1f77b4"/>
   </g>
   <g id="patch_49">
    <path d="M 172.99553 382.84 
L 174.731332 382.84 
L 174.731332 382.84 
L 172.99553 382.84 
z
" clip-path="url(#p6a18a66422)" style="fill: #1f77b4"/>
   </g>
   <g id="patch_50">
    <path d="M 174.731332 382.84 
L 176.467134 382.84 
L 176.467134 382.84 
L 174.731332 382.84 
z
" clip-path="url(#p6a18a66422)" style="fill: #1f77b4"/>
   </g>
   <g id="patch_51">
    <path d="M 176.467134 382.84 
L 178.202936 382.84 
L 178.202936 381.85942 
L 176.467134 381.85942 
z
" clip-path="url(#p6a18a66422)" style="fill: #1f77b4"/>
   </g>
   <g id="patch_52">
    <path d="M 178.202936 382.84 
L 179.938738 382.84 
L 179.938738 382.84 
L 178.202936 382.84 
z
" clip-path="url(#p6a18a66422)" style="fill: #1f77b4"/>
   </g>
   <g id="patch_53">
    <path d="M 179.938738 382.84 
L 181.67454 382.84 
L 181.67454 381.85942 
L 179.938738 381.85942 
z
" clip-path="url(#p6a18a66422)" style="fill: #1f77b4"/>
   </g>
   <g id="patch_54">
    <path d="M 181.67454 382.84 
L 183.410342 382.84 
L 183.410342 382.84 
L 181.67454 382.84 
z
" clip-path="url(#p6a18a66422)" style="fill: #1f77b4"/>
   </g>
   <g id="patch_55">
    <path d="M 183.410342 382.84 
L 185.146144 382.84 
L 185.146144 382.84 
L 183.410342 382.84 
z
" clip-path="url(#p6a18a66422)" style="fill: #1f77b4"/>
   </g>
   <g id="patch_56">
    <path d="M 185.146144 382.84 
L 186.881946 382.84 
L 186.881946 380.541765 
L 185.146144 380.541765 
z
" clip-path="url(#p6a18a66422)" style="fill: #1f77b4"/>
   </g>
   <g id="patch_57">
    <path d="M 186.881946 382.84 
L 188.617748 382.84 
L 188.617748 382.84 
L 186.881946 382.84 
z
" clip-path="url(#p6a18a66422)" style="fill: #1f77b4"/>
   </g>
   <g id="patch_58">
    <path d="M 188.617748 382.84 
L 190.35355 382.84 
L 190.35355 382.84 
L 188.617748 382.84 
z
" clip-path="url(#p6a18a66422)" style="fill: #1f77b4"/>
   </g>
   <g id="patch_59">
    <path d="M 190.35355 382.84 
L 192.089352 382.84 
L 192.089352 379.836973 
L 190.35355 379.836973 
z
" clip-path="url(#p6a18a66422)" style="fill: #1f77b4"/>
   </g>
   <g id="patch_60">
    <path d="M 192.089352 382.84 
L 193.825154 382.84 
L 193.825154 382.84 
L 192.089352 382.84 
z
" clip-path="url(#p6a18a66422)" style="fill: #1f77b4"/>
   </g>
   <g id="patch_61">
    <path d="M 193.825154 382.84 
L 195.560956 382.84 
L 195.560956 379.653115 
L 193.825154 379.653115 
z
" clip-path="url(#p6a18a66422)" style="fill: #1f77b4"/>
   </g>
   <g id="patch_62">
    <path d="M 195.560956 382.84 
L 197.296759 382.84 
L 197.296759 382.84 
L 195.560956 382.84 
z
" clip-path="url(#p6a18a66422)" style="fill: #1f77b4"/>
   </g>
   <g id="patch_63">
    <path d="M 197.296759 382.84 
L 199.032561 382.84 
L 199.032561 382.84 
L 197.296759 382.84 
z
" clip-path="url(#p6a18a66422)" style="fill: #1f77b4"/>
   </g>
   <g id="patch_64">
    <path d="M 199.032561 382.84 
L 200.768363 382.84 
L 200.768363 379.346683 
L 199.032561 379.346683 
z
" clip-path="url(#p6a18a66422)" style="fill: #1f77b4"/>
   </g>
   <g id="patch_65">
    <path d="M 200.768363 382.84 
L 202.504165 382.84 
L 202.504165 382.84 
L 200.768363 382.84 
z
" clip-path="url(#p6a18a66422)" style="fill: #1f77b4"/>
   </g>
   <g id="patch_66">
    <path d="M 202.504165 382.84 
L 204.239967 382.84 
L 204.239967 382.84 
L 202.504165 382.84 
z
" clip-path="url(#p6a18a66422)" style="fill: #1f77b4"/>
   </g>
   <g id="patch_67">
    <path d="M 204.239967 382.84 
L 205.975769 382.84 
L 205.975769 377.967743 
L 204.239967 377.967743 
z
" clip-path="url(#p6a18a66422)" style="fill: #1f77b4"/>
   </g>
   <g id="patch_68">
    <path d="M 205.975769 382.84 
L 207.711571 382.84 
L 207.711571 382.84 
L 205.975769 382.84 
z
" clip-path="url(#p6a18a66422)" style="fill: #1f77b4"/>
   </g>
   <g id="patch_69">
    <path d="M 207.711571 382.84 
L 209.447373 382.84 
L 209.447373 377.140378 
L 207.711571 377.140378 
z
" clip-path="url(#p6a18a66422)" style="fill: #1f77b4"/>
   </g>
   <g id="patch_70">
    <path d="M 209.447373 382.84 
L 211.183175 382.84 
L 211.183175 382.84 
L 209.447373 382.84 
z
" clip-path="url(#p6a18a66422)" style="fill: #1f77b4"/>
   </g>
   <g id="patch_71">
    <path d="M 211.183175 382.84 
L 212.918977 382.84 
L 212.918977 382.84 
L 211.183175 382.84 
z
" clip-path="url(#p6a18a66422)" style="fill: #1f77b4"/>
   </g>
   <g id="patch_72">
    <path d="M 212.918977 382.84 
L 214.654779 382.84 
L 214.654779 374.259924 
L 212.918977 374.259924 
z
" clip-path="url(#p6a18a66422)" style="fill: #1f77b4"/>
   </g>
   <g id="patch_73">
    <path d="M 214.654779 382.84 
L 216.390581 382.84 
L 216.390581 382.84 
L 214.654779 382.84 
z
" clip-path="url(#p6a18a66422)" style="fill: #1f77b4"/>
   </g>
   <g id="patch_74">
    <path d="M 216.390581 382.84 
L 218.126383 382.84 
L 218.126383 382.84 
L 216.390581 382.84 
z
" clip-path="url(#p6a18a66422)" style="fill: #1f77b4"/>
   </g>
   <g id="patch_75">
    <path d="M 218.126383 382.84 
L 219.862185 382.84 
L 219.862185 373.647061 
L 218.126383 373.647061 
z
" clip-path="url(#p6a18a66422)" style="fill: #1f77b4"/>
   </g>
   <g id="patch_76">
    <path d="M 219.862185 382.84 
L 221.597987 382.84 
L 221.597987 382.84 
L 219.862185 382.84 
z
" clip-path="url(#p6a18a66422)" style="fill: #1f77b4"/>
   </g>
   <g id="patch_77">
    <path d="M 221.597987 382.84 
L 223.333789 382.84 
L 223.333789 370.827894 
L 221.597987 370.827894 
z
" clip-path="url(#p6a18a66422)" style="fill: #1f77b4"/>
   </g>
   <g id="patch_78">
    <path d="M 223.333789 382.84 
L 225.069591 382.84 
L 225.069591 382.84 
L 223.333789 382.84 
z
" clip-path="url(#p6a18a66422)" style="fill: #1f77b4"/>
   </g>
   <g id="patch_79">
    <path d="M 225.069591 382.84 
L 226.805393 382.84 
L 226.805393 382.84 
L 225.069591 382.84 
z
" clip-path="url(#p6a18a66422)" style="fill: #1f77b4"/>
   </g>
   <g id="patch_80">
    <path d="M 226.805393 382.84 
L 228.541195 382.84 
L 228.541195 367.94744 
L 226.805393 367.94744 
z
" clip-path="url(#p6a18a66422)" style="fill: #1f77b4"/>
   </g>
   <g id="patch_81">
    <path d="M 228.541195 382.84 
L 230.276997 382.84 
L 230.276997 382.84 
L 228.541195 382.84 
z
" clip-path="url(#p6a18a66422)" style="fill: #1f77b4"/>
   </g>
   <g id="patch_82">
    <path d="M 230.276997 382.84 
L 232.012799 382.84 
L 232.012799 382.84 
L 230.276997 382.84 
z
" clip-path="url(#p6a18a66422)" style="fill: #1f77b4"/>
   </g>
   <g id="patch_83">
    <path d="M 232.012799 382.84 
L 233.748601 382.84 
L 233.748601 363.412257 
L 232.012799 363.412257 
z
" clip-path="url(#p6a18a66422)" style="fill: #1f77b4"/>
   </g>
   <g id="patch_84">
    <path d="M 233.748601 382.84 
L 235.484403 382.84 
L 235.484403 382.84 
L 233.748601 382.84 
z
" clip-path="url(#p6a18a66422)" style="fill: #1f77b4"/>
   </g>
   <g id="patch_85">
    <path d="M 235.484403 382.84 
L 237.220205 382.84 
L 237.220205 358.631929 
L 235.484403 358.631929 
z
" clip-path="url(#p6a18a66422)" style="fill: #1f77b4"/>
   </g>
   <g id="patch_86">
    <path d="M 237.220205 382.84 
L 238.956007 382.84 
L 238.956007 382.84 
L 237.220205 382.84 
z
" clip-path="url(#p6a18a66422)" style="fill: #1f77b4"/>
   </g>
   <g id="patch_87">
    <path d="M 238.956007 382.84 
L 240.691809 382.84 
L 240.691809 382.84 
L 238.956007 382.84 
z
" clip-path="url(#p6a18a66422)" style="fill: #1f77b4"/>
   </g>
   <g id="patch_88">
    <path d="M 240.691809 382.84 
L 242.427611 382.84 
L 242.427611 351.369507 
L 240.691809 351.369507 
z
" clip-path="url(#p6a18a66422)" style="fill: #1f77b4"/>
   </g>
   <g id="patch_89">
    <path d="M 242.427611 382.84 
L 244.163413 382.84 
L 244.163413 382.84 
L 242.427611 382.84 
z
" clip-path="url(#p6a18a66422)" style="fill: #1f77b4"/>
   </g>
   <g id="patch_90">
    <path d="M 244.163413 382.84 
L 245.899216 382.84 
L 245.899216 382.84 
L 244.163413 382.84 
z
" clip-path="url(#p6a18a66422)" style="fill: #1f77b4"/>
   </g>
   <g id="patch_91">
    <path d="M 245.899216 382.84 
L 247.635018 382.84 
L 247.635018 345.363454 
L 245.899216 345.363454 
z
" clip-path="url(#p6a18a66422)" style="fill: #1f77b4"/>
   </g>
   <g id="patch_92">
    <path d="M 247.635018 382.84 
L 249.37082 382.84 
L 249.37082 382.84 
L 247.635018 382.84 
z
" clip-path="url(#p6a18a66422)" style="fill: #1f77b4"/>
   </g>
   <g id="patch_93">
    <path d="M 249.37082 382.84 
L 251.106622 382.84 
L 251.106622 336.875307 
L 249.37082 336.875307 
z
" clip-path="url(#p6a18a66422)" style="fill: #1f77b4"/>
   </g>
   <g id="patch_94">
    <path d="M 251.106622 382.84 
L 252.842424 382.84 
L 252.842424 382.84 
L 251.106622 382.84 
z
" clip-path="url(#p6a18a66422)" style="fill: #1f77b4"/>
   </g>
   <g id="patch_95">
    <path d="M 252.842424 382.84 
L 254.578226 382.84 
L 254.578226 382.84 
L 252.842424 382.84 
z
" clip-path="url(#p6a18a66422)" style="fill: #1f77b4"/>
   </g>
   <g id="patch_96">
    <path d="M 254.578226 382.84 
L 256.314028 382.84 
L 256.314028 330.470893 
L 254.578226 330.470893 
z
" clip-path="url(#p6a18a66422)" style="fill: #1f77b4"/>
   </g>
   <g id="patch_97">
    <path d="M 256.314028 382.84 
L 258.04983 382.84 
L 258.04983 382.84 
L 256.314028 382.84 
z
" clip-path="url(#p6a18a66422)" style="fill: #1f77b4"/>
   </g>
   <g id="patch_98">
    <path d="M 258.04983 382.84 
L 259.785632 382.84 
L 259.785632 382.84 
L 258.04983 382.84 
z
" clip-path="url(#p6a18a66422)" style="fill: #1f77b4"/>
   </g>
   <g id="patch_99">
    <path d="M 259.785632 382.84 
L 261.521434 382.84 
L 261.521434 319.010363 
L 259.785632 319.010363 
z
" clip-path="url(#p6a18a66422)" style="fill: #1f77b4"/>
   </g>
   <g id="patch_100">
    <path d="M 261.521434 382.84 
L 263.257236 382.84 
L 263.257236 382.84 
L 261.521434 382.84 
z
" clip-path="url(#p6a18a66422)" style="fill: #1f77b4"/>
   </g>
   <g id="patch_101">
    <path d="M 263.257236 382.84 
L 264.993038 382.84 
L 264.993038 303.535584 
L 263.257236 303.535584 
z
" clip-path="url(#p6a18a66422)" style="fill: #1f77b4"/>
   </g>
   <g id="patch_102">
    <path d="M 264.993038 382.84 
L 266.72884 382.84 
L 266.72884 382.84 
L 264.993038 382.84 
z
" clip-path="url(#p6a18a66422)" style="fill: #1f77b4"/>
   </g>
   <g id="patch_103">
    <path d="M 266.72884 382.84 
L 268.464642 382.84 
L 268.464642 382.84 
L 266.72884 382.84 
z
" clip-path="url(#p6a18a66422)" style="fill: #1f77b4"/>
   </g>
   <g id="patch_104">
    <path d="M 268.464642 382.84 
L 270.200444 382.84 
L 270.200444 290.236466 
L 268.464642 290.236466 
z
" clip-path="url(#p6a18a66422)" style="fill: #1f77b4"/>
   </g>
   <g id="patch_105">
    <path d="M 270.200444 382.84 
L 271.936246 382.84 
L 271.936246 382.84 
L 270.200444 382.84 
z
" clip-path="url(#p6a18a66422)" style="fill: #1f77b4"/>
   </g>
   <g id="patch_106">
    <path d="M 271.936246 382.84 
L 273.672048 382.84 
L 273.672048 382.84 
L 271.936246 382.84 
z
" clip-path="url(#p6a18a66422)" style="fill: #1f77b4"/>
   </g>
   <g id="patch_107">
    <path d="M 273.672048 382.84 
L 275.40785 382.84 
L 275.40785 277.948571 
L 273.672048 277.948571 
z
" clip-path="url(#p6a18a66422)" style="fill: #1f77b4"/>
   </g>
   <g id="patch_108">
    <path d="M 275.40785 382.84 
L 277.143652 382.84 
L 277.143652 382.84 
L 275.40785 382.84 
z
" clip-path="url(#p6a18a66422)" style="fill: #1f77b4"/>
   </g>
   <g id="patch_109">
    <path d="M 277.143652 382.84 
L 278.879454 382.84 
L 278.879454 254.414649 
L 277.143652 254.414649 
z
" clip-path="url(#p6a18a66422)" style="fill: #1f77b4"/>
   </g>
   <g id="patch_110">
    <path d="M 278.879454 382.84 
L 280.615256 382.84 
L 280.615256 382.84 
L 278.879454 382.84 
z
" clip-path="url(#p6a18a66422)" style="fill: #1f77b4"/>
   </g>
   <g id="patch_111">
    <path d="M 280.615256 382.84 
L 282.351058 382.84 
L 282.351058 382.84 
L 280.615256 382.84 
z
" clip-path="url(#p6a18a66422)" style="fill: #1f77b4"/>
   </g>
   <g id="patch_112">
    <path d="M 282.351058 382.84 
L 284.08686 382.84 
L 284.08686 238.480222 
L 282.351058 238.480222 
z
" clip-path="url(#p6a18a66422)" style="fill: #1f77b4"/>
   </g>
   <g id="patch_113">
    <path d="M 284.08686 382.84 
L 285.822662 382.84 
L 285.822662 382.84 
L 284.08686 382.84 
z
" clip-path="url(#p6a18a66422)" style="fill: #1f77b4"/>
   </g>
   <g id="patch_114">
    <path d="M 285.822662 382.84 
L 287.558464 382.84 
L 287.558464 382.84 
L 285.822662 382.84 
z
" clip-path="url(#p6a18a66422)" style="fill: #1f77b4"/>
   </g>
   <g id="patch_115">
    <path d="M 287.558464 382.84 
L 289.294266 382.84 
L 289.294266 216.32524 
L 287.558464 216.32524 
z
" clip-path="url(#p6a18a66422)" style="fill: #1f77b4"/>
   </g>
   <g id="patch_116">
    <path d="M 289.294266 382.84 
L 291.030068 382.84 
L 291.030068 382.84 
L 289.294266 382.84 
z
" clip-path="url(#p6a18a66422)" style="fill: #1f77b4"/>
   </g>
   <g id="patch_117">
    <path d="M 291.030068 382.84 
L 292.76587 382.84 
L 292.76587 190.891443 
L 291.030068 190.891443 
z
" clip-path="url(#p6a18a66422)" style="fill: #1f77b4"/>
   </g>
   <g id="patch_118">
    <path d="M 292.76587 382.84 
L 294.501673 382.84 
L 294.501673 382.84 
L 292.76587 382.84 
z
" clip-path="url(#p6a18a66422)" style="fill: #1f77b4"/>
   </g>
   <g id="patch_119">
    <path d="M 294.501673 382.84 
L 296.237475 382.84 
L 296.237475 382.84 
L 294.501673 382.84 
z
" clip-path="url(#p6a18a66422)" style="fill: #1f77b4"/>
   </g>
   <g id="patch_120">
    <path d="M 296.237475 382.84 
L 297.973277 382.84 
L 297.973277 171.4637 
L 296.237475 171.4637 
z
" clip-path="url(#p6a18a66422)" style="fill: #1f77b4"/>
   </g>
   <g id="patch_121">
    <path d="M 297.973277 382.84 
L 299.709079 382.84 
L 299.709079 382.84 
L 297.973277 382.84 
z
" clip-path="url(#p6a18a66422)" style="fill: #1f77b4"/>
   </g>
   <g id="patch_122">
    <path d="M 299.709079 382.84 
L 301.444881 382.84 
L 301.444881 382.84 
L 299.709079 382.84 
z
" clip-path="url(#p6a18a66422)" style="fill: #1f77b4"/>
   </g>
   <g id="patch_123">
    <path d="M 301.444881 382.84 
L 303.180683 382.84 
L 303.180683 149.124859 
L 301.444881 149.124859 
z
" clip-path="url(#p6a18a66422)" style="fill: #1f77b4"/>
   </g>
   <g id="patch_124">
    <path d="M 303.180683 382.84 
L 304.916485 382.84 
L 304.916485 382.84 
L 303.180683 382.84 
z
" clip-path="url(#p6a18a66422)" style="fill: #1f77b4"/>
   </g>
   <g id="patch_125">
    <path d="M 304.916485 382.84 
L 306.652287 382.84 
L 306.652287 123.966851 
L 304.916485 123.966851 
z
" clip-path="url(#p6a18a66422)" style="fill: #1f77b4"/>
   </g>
   <g id="patch_126">
    <path d="M 306.652287 382.84 
L 308.388089 382.84 
L 308.388089 382.84 
L 306.652287 382.84 
z
" clip-path="url(#p6a18a66422)" style="fill: #1f77b4"/>
   </g>
   <g id="patch_127">
    <path d="M 308.388089 382.84 
L 310.123891 382.84 
L 310.123891 382.84 
L 308.388089 382.84 
z
" clip-path="url(#p6a18a66422)" style="fill: #1f77b4"/>
   </g>
   <g id="patch_128">
    <path d="M 310.123891 382.84 
L 311.859693 382.84 
L 311.859693 93.262436 
L 310.123891 93.262436 
z
" clip-path="url(#p6a18a66422)" style="fill: #1f77b4"/>
   </g>
   <g id="patch_129">
    <path d="M 311.859693 382.84 
L 313.595495 382.84 
L 313.595495 382.84 
L 311.859693 382.84 
z
" clip-path="url(#p6a18a66422)" style="fill: #1f77b4"/>
   </g>
   <g id="patch_130">
    <path d="M 313.595495 382.84 
L 315.331297 382.84 
L 315.331297 382.84 
L 313.595495 382.84 
z
" clip-path="url(#p6a18a66422)" style="fill: #1f77b4"/>
   </g>
   <g id="patch_131">
    <path d="M 315.331297 382.84 
L 317.067099 382.84 
L 317.067099 83.272776 
L 315.331297 83.272776 
z
" clip-path="url(#p6a18a66422)" style="fill: #1f77b4"/>
   </g>
   <g id="patch_132">
    <path d="M 317.067099 382.84 
L 318.802901 382.84 
L 318.802901 382.84 
L 317.067099 382.84 
z
" clip-path="url(#p6a18a66422)" style="fill: #1f77b4"/>
   </g>
   <g id="patch_133">
    <path d="M 318.802901 382.84 
L 320.538703 382.84 
L 320.538703 60.596861 
L 318.802901 60.596861 
z
" clip-path="url(#p6a18a66422)" style="fill: #1f77b4"/>
   </g>
   <g id="patch_134">
    <path d="M 320.538703 382.84 
L 322.274505 382.84 
L 322.274505 382.84 
L 320.538703 382.84 
z
" clip-path="url(#p6a18a66422)" style="fill: #1f77b4"/>
   </g>
   <g id="patch_135">
    <path d="M 322.274505 382.84 
L 324.010307 382.84 
L 324.010307 382.84 
L 322.274505 382.84 
z
" clip-path="url(#p6a18a66422)" style="fill: #1f77b4"/>
   </g>
   <g id="patch_136">
    <path d="M 324.010307 382.84 
L 325.746109 382.84 
L 325.746109 56.27618 
L 324.010307 56.27618 
z
" clip-path="url(#p6a18a66422)" style="fill: #1f77b4"/>
   </g>
   <g id="patch_137">
    <path d="M 325.746109 382.84 
L 327.481911 382.84 
L 327.481911 382.84 
L 325.746109 382.84 
z
" clip-path="url(#p6a18a66422)" style="fill: #1f77b4"/>
   </g>
   <g id="patch_138">
    <path d="M 327.481911 382.84 
L 329.217713 382.84 
L 329.217713 382.84 
L 327.481911 382.84 
z
" clip-path="url(#p6a18a66422)" style="fill: #1f77b4"/>
   </g>
   <g id="patch_139">
    <path d="M 329.217713 382.84 
L 330.953515 382.84 
L 330.953515 41.199761 
L 329.217713 41.199761 
z
" clip-path="url(#p6a18a66422)" style="fill: #1f77b4"/>
   </g>
   <g id="patch_140">
    <path d="M 330.953515 382.84 
L 332.689317 382.84 
L 332.689317 382.84 
L 330.953515 382.84 
z
" clip-path="url(#p6a18a66422)" style="fill: #1f77b4"/>
   </g>
   <g id="patch_141">
    <path d="M 332.689317 382.84 
L 334.425119 382.84 
L 334.425119 29.310227 
L 332.689317 29.310227 
z
" clip-path="url(#p6a18a66422)" style="fill: #1f77b4"/>
   </g>
   <g id="patch_142">
    <path d="M 334.425119 382.84 
L 336.160921 382.84 
L 336.160921 382.84 
L 334.425119 382.84 
z
" clip-path="url(#p6a18a66422)" style="fill: #1f77b4"/>
   </g>
   <g id="patch_143">
    <path d="M 336.160921 382.84 
L 337.896723 382.84 
L 337.896723 382.84 
L 336.160921 382.84 
z
" clip-path="url(#p6a18a66422)" style="fill: #1f77b4"/>
   </g>
   <g id="patch_144">
    <path d="M 337.896723 382.84 
L 339.632525 382.84 
L 339.632525 31.271387 
L 337.896723 31.271387 
z
" clip-path="url(#p6a18a66422)" style="fill: #1f77b4"/>
   </g>
   <g id="patch_145">
    <path d="M 339.632525 382.84 
L 341.368327 382.84 
L 341.368327 382.84 
L 339.632525 382.84 
z
" clip-path="url(#p6a18a66422)" style="fill: #1f77b4"/>
   </g>
   <g id="patch_146">
    <path d="M 341.368327 382.84 
L 343.10413 382.84 
L 343.10413 382.84 
L 341.368327 382.84 
z
" clip-path="url(#p6a18a66422)" style="fill: #1f77b4"/>
   </g>
   <g id="patch_147">
    <path d="M 343.10413 382.84 
L 344.839932 382.84 
L 344.839932 40.004679 
L 343.10413 40.004679 
z
" clip-path="url(#p6a18a66422)" style="fill: #1f77b4"/>
   </g>
   <g id="patch_148">
    <path d="M 344.839932 382.84 
L 346.575734 382.84 
L 346.575734 382.84 
L 344.839932 382.84 
z
" clip-path="url(#p6a18a66422)" style="fill: #1f77b4"/>
   </g>
   <g id="patch_149">
    <path d="M 346.575734 382.84 
L 348.311536 382.84 
L 348.311536 47.113885 
L 346.575734 47.113885 
z
" clip-path="url(#p6a18a66422)" style="fill: #1f77b4"/>
   </g>
   <g id="patch_150">
    <path d="M 348.311536 382.84 
L 350.047338 382.84 
L 350.047338 382.84 
L 348.311536 382.84 
z
" clip-path="url(#p6a18a66422)" style="fill: #1f77b4"/>
   </g>
   <g id="patch_151">
    <path d="M 350.047338 382.84 
L 351.78314 382.84 
L 351.78314 382.84 
L 350.047338 382.84 
z
" clip-path="url(#p6a18a66422)" style="fill: #1f77b4"/>
   </g>
   <g id="patch_152">
    <path d="M 351.78314 382.84 
L 353.518942 382.84 
L 353.518942 53.24251 
L 351.78314 53.24251 
z
" clip-path="url(#p6a18a66422)" style="fill: #1f77b4"/>
   </g>
   <g id="patch_153">
    <path d="M 353.518942 382.84 
L 355.254744 382.84 
L 355.254744 382.84 
L 353.518942 382.84 
z
" clip-path="url(#p6a18a66422)" style="fill: #1f77b4"/>
   </g>
   <g id="patch_154">
    <path d="M 355.254744 382.84 
L 356.990546 382.84 
L 356.990546 382.84 
L 355.254744 382.84 
z
" clip-path="url(#p6a18a66422)" style="fill: #1f77b4"/>
   </g>
   <g id="patch_155">
    <path d="M 356.990546 382.84 
L 358.726348 382.84 
L 358.726348 76.74579 
L 356.990546 76.74579 
z
" clip-path="url(#p6a18a66422)" style="fill: #1f77b4"/>
   </g>
   <g id="patch_156">
    <path d="M 358.726348 382.84 
L 360.46215 382.84 
L 360.46215 382.84 
L 358.726348 382.84 
z
" clip-path="url(#p6a18a66422)" style="fill: #1f77b4"/>
   </g>
   <g id="patch_157">
    <path d="M 360.46215 382.84 
L 362.197952 382.84 
L 362.197952 97.766976 
L 360.46215 97.766976 
z
" clip-path="url(#p6a18a66422)" style="fill: #1f77b4"/>
   </g>
   <g id="patch_158">
    <path d="M 362.197952 382.84 
L 363.933754 382.84 
L 363.933754 382.84 
L 362.197952 382.84 
z
" clip-path="url(#p6a18a66422)" style="fill: #1f77b4"/>
   </g>
   <g id="patch_159">
    <path d="M 363.933754 382.84 
L 365.669556 382.84 
L 365.669556 382.84 
L 363.933754 382.84 
z
" clip-path="url(#p6a18a66422)" style="fill: #1f77b4"/>
   </g>
   <g id="patch_160">
    <path d="M 365.669556 382.84 
L 367.405358 382.84 
L 367.405358 121.913761 
L 365.669556 121.913761 
z
" clip-path="url(#p6a18a66422)" style="fill: #1f77b4"/>
   </g>
   <g id="patch_161">
    <path d="M 367.405358 382.84 
L 369.14116 382.84 
L 369.14116 382.84 
L 367.405358 382.84 
z
" clip-path="url(#p6a18a66422)" style="fill: #1f77b4"/>
   </g>
   <g id="patch_162">
    <path d="M 369.14116 382.84 
L 370.876962 382.84 
L 370.876962 382.84 
L 369.14116 382.84 
z
" clip-path="url(#p6a18a66422)" style="fill: #1f77b4"/>
   </g>
   <g id="patch_163">
    <path d="M 370.876962 382.84 
L 372.612764 382.84 
L 372.612764 139.931921 
L 370.876962 139.931921 
z
" clip-path="url(#p6a18a66422)" style="fill: #1f77b4"/>
   </g>
   <g id="patch_164">
    <path d="M 372.612764 382.84 
L 374.348566 382.84 
L 374.348566 382.84 
L 372.612764 382.84 
z
" clip-path="url(#p6a18a66422)" style="fill: #1f77b4"/>
   </g>
   <g id="patch_165">
    <path d="M 374.348566 382.84 
L 376.084368 382.84 
L 376.084368 167.817168 
L 374.348566 167.817168 
z
" clip-path="url(#p6a18a66422)" style="fill: #1f77b4"/>
   </g>
   <g id="patch_166">
    <path d="M 376.084368 382.84 
L 377.82017 382.84 
L 377.82017 382.84 
L 376.084368 382.84 
z
" clip-path="url(#p6a18a66422)" style="fill: #1f77b4"/>
   </g>
   <g id="patch_167">
    <path d="M 377.82017 382.84 
L 379.555972 382.84 
L 379.555972 382.84 
L 377.82017 382.84 
z
" clip-path="url(#p6a18a66422)" style="fill: #1f77b4"/>
   </g>
   <g id="patch_168">
    <path d="M 379.555972 382.84 
L 381.291774 382.84 
L 381.291774 185.37568 
L 379.555972 185.37568 
z
" clip-path="url(#p6a18a66422)" style="fill: #1f77b4"/>
   </g>
   <g id="patch_169">
    <path d="M 381.291774 382.84 
L 383.027576 382.84 
L 383.027576 382.84 
L 381.291774 382.84 
z
" clip-path="url(#p6a18a66422)" style="fill: #1f77b4"/>
   </g>
   <g id="patch_170">
    <path d="M 383.027576 382.84 
L 384.763378 382.84 
L 384.763378 382.84 
L 383.027576 382.84 
z
" clip-path="url(#p6a18a66422)" style="fill: #1f77b4"/>
   </g>
   <g id="patch_171">
    <path d="M 384.763378 382.84 
L 386.49918 382.84 
L 386.49918 205.875933 
L 384.763378 205.875933 
z
" clip-path="url(#p6a18a66422)" style="fill: #1f77b4"/>
   </g>
   <g id="patch_172">
    <path d="M 386.49918 382.84 
L 388.234982 382.84 
L 388.234982 382.84 
L 386.49918 382.84 
z
" clip-path="url(#p6a18a66422)" style="fill: #1f77b4"/>
   </g>
   <g id="patch_173">
    <path d="M 388.234982 382.84 
L 389.970784 382.84 
L 389.970784 226.866476 
L 388.234982 226.866476 
z
" clip-path="url(#p6a18a66422)" style="fill: #1f77b4"/>
   </g>
   <g id="patch_174">
    <path d="M 389.970784 382.84 
L 391.706587 382.84 
L 391.706587 382.84 
L 389.970784 382.84 
z
" clip-path="url(#p6a18a66422)" style="fill: #1f77b4"/>
   </g>
   <g id="patch_175">
    <path d="M 391.706587 382.84 
L 393.442389 382.84 
L 393.442389 382.84 
L 391.706587 382.84 
z
" clip-path="url(#p6a18a66422)" style="fill: #1f77b4"/>
   </g>
   <g id="patch_176">
    <path d="M 393.442389 382.84 
L 395.178191 382.84 
L 395.178191 249.327889 
L 393.442389 249.327889 
z
" clip-path="url(#p6a18a66422)" style="fill: #1f77b4"/>
   </g>
   <g id="patch_177">
    <path d="M 395.178191 382.84 
L 396.913993 382.84 
L 396.913993 382.84 
L 395.178191 382.84 
z
" clip-path="url(#p6a18a66422)" style="fill: #1f77b4"/>
   </g>
   <g id="patch_178">
    <path d="M 396.913993 382.84 
L 398.649795 382.84 
L 398.649795 382.84 
L 396.913993 382.84 
z
" clip-path="url(#p6a18a66422)" style="fill: #1f77b4"/>
   </g>
   <g id="patch_179">
    <path d="M 398.649795 382.84 
L 400.385597 382.84 
L 400.385597 268.970135 
L 398.649795 268.970135 
z
" clip-path="url(#p6a18a66422)" style="fill: #1f77b4"/>
   </g>
   <g id="patch_180">
    <path d="M 400.385597 382.84 
L 402.121399 382.84 
L 402.121399 382.84 
L 400.385597 382.84 
z
" clip-path="url(#p6a18a66422)" style="fill: #1f77b4"/>
   </g>
   <g id="patch_181">
    <path d="M 402.121399 382.84 
L 403.857201 382.84 
L 403.857201 284.322342 
L 402.121399 284.322342 
z
" clip-path="url(#p6a18a66422)" style="fill: #1f77b4"/>
   </g>
   <g id="patch_182">
    <path d="M 403.857201 382.84 
L 405.593003 382.84 
L 405.593003 382.84 
L 403.857201 382.84 
z
" clip-path="url(#p6a18a66422)" style="fill: #1f77b4"/>
   </g>
   <g id="patch_183">
    <path d="M 405.593003 382.84 
L 407.328805 382.84 
L 407.328805 382.84 
L 405.593003 382.84 
z
" clip-path="url(#p6a18a66422)" style="fill: #1f77b4"/>
   </g>
   <g id="patch_184">
    <path d="M 407.328805 382.84 
L 409.064607 382.84 
L 409.064607 299.429404 
L 407.328805 299.429404 
z
" clip-path="url(#p6a18a66422)" style="fill: #1f77b4"/>
   </g>
   <g id="patch_185">
    <path d="M 409.064607 382.84 
L 410.800409 382.84 
L 410.800409 382.84 
L 409.064607 382.84 
z
" clip-path="url(#p6a18a66422)" style="fill: #1f77b4"/>
   </g>
   <g id="patch_186">
    <path d="M 410.800409 382.84 
L 412.536211 382.84 
L 412.536211 382.84 
L 410.800409 382.84 
z
" clip-path="url(#p6a18a66422)" style="fill: #1f77b4"/>
   </g>
   <g id="patch_187">
    <path d="M 412.536211 382.84 
L 414.272013 382.84 
L 414.272013 309.449707 
L 412.536211 309.449707 
z
" clip-path="url(#p6a18a66422)" style="fill: #1f77b4"/>
   </g>
   <g id="patch_188">
    <path d="M 414.272013 382.84 
L 416.007815 382.84 
L 416.007815 382.84 
L 414.272013 382.84 
z
" clip-path="url(#p6a18a66422)" style="fill: #1f77b4"/>
   </g>
   <g id="patch_189">
    <path d="M 416.007815 382.84 
L 417.743617 382.84 
L 417.743617 320.757022 
L 416.007815 320.757022 
z
" clip-path="url(#p6a18a66422)" style="fill: #1f77b4"/>
   </g>
   <g id="patch_190">
    <path d="M 417.743617 382.84 
L 419.479419 382.84 
L 419.479419 382.84 
L 417.743617 382.84 
z
" clip-path="url(#p6a18a66422)" style="fill: #1f77b4"/>
   </g>
   <g id="patch_191">
    <path d="M 419.479419 382.84 
L 421.215221 382.84 
L 421.215221 382.84 
L 419.479419 382.84 
z
" clip-path="url(#p6a18a66422)" style="fill: #1f77b4"/>
   </g>
   <g id="patch_192">
    <path d="M 421.215221 382.84 
L 422.951023 382.84 
L 422.951023 329.520956 
L 421.215221 329.520956 
z
" clip-path="url(#p6a18a66422)" style="fill: #1f77b4"/>
   </g>
   <g id="patch_193">
    <path d="M 422.951023 382.84 
L 424.686825 382.84 
L 424.686825 382.84 
L 422.951023 382.84 
z
" clip-path="url(#p6a18a66422)" style="fill: #1f77b4"/>
   </g>
   <g id="patch_194">
    <path d="M 424.686825 382.84 
L 426.422627 382.84 
L 426.422627 382.84 
L 424.686825 382.84 
z
" clip-path="url(#p6a18a66422)" style="fill: #1f77b4"/>
   </g>
   <g id="patch_195">
    <path d="M 426.422627 382.84 
L 428.158429 382.84 
L 428.158429 338.591323 
L 426.422627 338.591323 
z
" clip-path="url(#p6a18a66422)" style="fill: #1f77b4"/>
   </g>
   <g id="patch_196">
    <path d="M 428.158429 382.84 
L 429.894231 382.84 
L 429.894231 382.84 
L 428.158429 382.84 
z
" clip-path="url(#p6a18a66422)" style="fill: #1f77b4"/>
   </g>
   <g id="patch_197">
    <path d="M 429.894231 382.84 
L 431.630033 382.84 
L 431.630033 345.302168 
L 429.894231 345.302168 
z
" clip-path="url(#p6a18a66422)" style="fill: #1f77b4"/>
   </g>
   <g id="patch_198">
    <path d="M 431.630033 382.84 
L 433.365835 382.84 
L 433.365835 382.84 
L 431.630033 382.84 
z
" clip-path="url(#p6a18a66422)" style="fill: #1f77b4"/>
   </g>
   <g id="patch_199">
    <path d="M 433.365835 382.84 
L 435.101637 382.84 
L 435.101637 382.84 
L 433.365835 382.84 
z
" clip-path="url(#p6a18a66422)" style="fill: #1f77b4"/>
   </g>
   <g id="patch_200">
    <path d="M 435.101637 382.84 
L 436.837439 382.84 
L 436.837439 349.347061 
L 435.101637 349.347061 
z
" clip-path="url(#p6a18a66422)" style="fill: #1f77b4"/>
   </g>
   <g id="patch_201">
    <path d="M 436.837439 382.84 
L 438.573241 382.84 
L 438.573241 382.84 
L 436.837439 382.84 
z
" clip-path="url(#p6a18a66422)" style="fill: #1f77b4"/>
   </g>
   <g id="patch_202">
    <path d="M 438.573241 382.84 
L 440.309044 382.84 
L 440.309044 382.84 
L 438.573241 382.84 
z
" clip-path="url(#p6a18a66422)" style="fill: #1f77b4"/>
   </g>
   <g id="patch_203">
    <path d="M 440.309044 382.84 
L 442.044846 382.84 
L 442.044846 353.637099 
L 440.309044 353.637099 
z
" clip-path="url(#p6a18a66422)" style="fill: #1f77b4"/>
   </g>
   <g id="patch_204">
    <path d="M 442.044846 382.84 
L 443.780648 382.84 
L 443.780648 382.84 
L 442.044846 382.84 
z
" clip-path="url(#p6a18a66422)" style="fill: #1f77b4"/>
   </g>
   <g id="patch_205">
    <path d="M 443.780648 382.84 
L 445.51645 382.84 
L 445.51645 359.949583 
L 443.780648 359.949583 
z
" clip-path="url(#p6a18a66422)" style="fill: #1f77b4"/>
   </g>
   <g id="patch_206">
    <path d="M 445.51645 382.84 
L 447.252252 382.84 
L 447.252252 382.84 
L 445.51645 382.84 
z
" clip-path="url(#p6a18a66422)" style="fill: #1f77b4"/>
   </g>
   <g id="patch_207">
    <path d="M 447.252252 382.84 
L 448.988054 382.84 
L 448.988054 382.84 
L 447.252252 382.84 
z
" clip-path="url(#p6a18a66422)" style="fill: #1f77b4"/>
   </g>
   <g id="patch_208">
    <path d="M 448.988054 382.84 
L 450.723856 382.84 
L 450.723856 363.779974 
L 448.988054 363.779974 
z
" clip-path="url(#p6a18a66422)" style="fill: #1f77b4"/>
   </g>
   <g id="patch_209">
    <path d="M 450.723856 382.84 
L 452.459658 382.84 
L 452.459658 382.84 
L 450.723856 382.84 
z
" clip-path="url(#p6a18a66422)" style="fill: #1f77b4"/>
   </g>
   <g id="patch_210">
    <path d="M 452.459658 382.84 
L 454.19546 382.84 
L 454.19546 382.84 
L 452.459658 382.84 
z
" clip-path="url(#p6a18a66422)" style="fill: #1f77b4"/>
   </g>
   <g id="patch_211">
    <path d="M 454.19546 382.84 
L 455.931262 382.84 
L 455.931262 365.833064 
L 454.19546 365.833064 
z
" clip-path="url(#p6a18a66422)" style="fill: #1f77b4"/>
   </g>
   <g id="patch_212">
    <path d="M 455.931262 382.84 
L 457.667064 382.84 
L 457.667064 382.84 
L 455.931262 382.84 
z
" clip-path="url(#p6a18a66422)" style="fill: #1f77b4"/>
   </g>
   <g id="patch_213">
    <path d="M 457.667064 382.84 
L 459.402866 382.84 
L 459.402866 369.663455 
L 457.667064 369.663455 
z
" clip-path="url(#p6a18a66422)" style="fill: #1f77b4"/>
   </g>
   <g id="patch_214">
    <path d="M 459.402866 382.84 
L 461.138668 382.84 
L 461.138668 382.84 
L 459.402866 382.84 
z
" clip-path="url(#p6a18a66422)" style="fill: #1f77b4"/>
   </g>
   <g id="patch_215">
    <path d="M 461.138668 382.84 
L 462.87447 382.84 
L 462.87447 382.84 
L 461.138668 382.84 
z
" clip-path="url(#p6a18a66422)" style="fill: #1f77b4"/>
   </g>
   <g id="patch_216">
    <path d="M 462.87447 382.84 
L 464.610272 382.84 
L 464.610272 372.451979 
L 462.87447 372.451979 
z
" clip-path="url(#p6a18a66422)" style="fill: #1f77b4"/>
   </g>
   <g id="patch_217">
    <path d="M 464.610272 382.84 
L 466.346074 382.84 
L 466.346074 382.84 
L 464.610272 382.84 
z
" clip-path="url(#p6a18a66422)" style="fill: #1f77b4"/>
   </g>
   <g id="patch_218">
    <path d="M 466.346074 382.84 
L 468.081876 382.84 
L 468.081876 382.84 
L 466.346074 382.84 
z
" clip-path="url(#p6a18a66422)" style="fill: #1f77b4"/>
   </g>
   <g id="patch_219">
    <path d="M 468.081876 382.84 
L 469.817678 382.84 
L 469.817678 374.658285 
L 468.081876 374.658285 
z
" clip-path="url(#p6a18a66422)" style="fill: #1f77b4"/>
   </g>
   <g id="patch_220">
    <path d="M 469.817678 382.84 
L 471.55348 382.84 
L 471.55348 382.84 
L 469.817678 382.84 
z
" clip-path="url(#p6a18a66422)" style="fill: #1f77b4"/>
   </g>
   <g id="patch_221">
    <path d="M 471.55348 382.84 
L 473.289282 382.84 
L 473.289282 375.88401 
L 471.55348 375.88401 
z
" clip-path="url(#p6a18a66422)" style="fill: #1f77b4"/>
   </g>
   <g id="patch_222">
    <path d="M 473.289282 382.84 
L 475.025084 382.84 
L 475.025084 382.84 
L 473.289282 382.84 
z
" clip-path="url(#p6a18a66422)" style="fill: #1f77b4"/>
   </g>
   <g id="patch_223">
    <path d="M 475.025084 382.84 
L 476.760886 382.84 
L 476.760886 382.84 
L 475.025084 382.84 
z
" clip-path="url(#p6a18a66422)" style="fill: #1f77b4"/>
   </g>
   <g id="patch_224">
    <path d="M 476.760886 382.84 
L 478.496688 382.84 
L 478.496688 377.630668 
L 476.760886 377.630668 
z
" clip-path="url(#p6a18a66422)" style="fill: #1f77b4"/>
   </g>
   <g id="patch_225">
    <path d="M 478.496688 382.84 
L 480.23249 382.84 
L 480.23249 382.84 
L 478.496688 382.84 
z
" clip-path="url(#p6a18a66422)" style="fill: #1f77b4"/>
   </g>
   <g id="patch_226">
    <path d="M 480.23249 382.84 
L 481.968292 382.84 
L 481.968292 382.84 
L 480.23249 382.84 
z
" clip-path="url(#p6a18a66422)" style="fill: #1f77b4"/>
   </g>
   <g id="patch_227">
    <path d="M 481.968292 382.84 
L 483.704094 382.84 
L 483.704094 379.224111 
L 481.968292 379.224111 
z
" clip-path="url(#p6a18a66422)" style="fill: #1f77b4"/>
   </g>
   <g id="patch_228">
    <path d="M 483.704094 382.84 
L 485.439896 382.84 
L 485.439896 382.84 
L 483.704094 382.84 
z
" clip-path="url(#p6a18a66422)" style="fill: #1f77b4"/>
   </g>
   <g id="patch_229">
    <path d="M 485.439896 382.84 
L 487.175698 382.84 
L 487.175698 379.591828 
L 485.439896 379.591828 
z
" clip-path="url(#p6a18a66422)" style="fill: #1f77b4"/>
   </g>
   <g id="patch_230">
    <path d="M 487.175698 382.84 
L 488.911501 382.84 
L 488.911501 382.84 
L 487.175698 382.84 
z
" clip-path="url(#p6a18a66422)" style="fill: #1f77b4"/>
   </g>
   <g id="patch_231">
    <path d="M 488.911501 382.84 
L 490.647303 382.84 
L 490.647303 382.84 
L 488.911501 382.84 
z
" clip-path="url(#p6a18a66422)" style="fill: #1f77b4"/>
   </g>
   <g id="patch_232">
    <path d="M 490.647303 382.84 
L 492.383105 382.84 
L 492.383105 380.756267 
L 490.647303 380.756267 
z
" clip-path="url(#p6a18a66422)" style="fill: #1f77b4"/>
   </g>
   <g id="patch_233">
    <path d="M 492.383105 382.84 
L 494.118907 382.84 
L 494.118907 382.84 
L 492.383105 382.84 
z
" clip-path="url(#p6a18a66422)" style="fill: #1f77b4"/>
   </g>
   <g id="patch_234">
    <path d="M 494.118907 382.84 
L 495.854709 382.84 
L 495.854709 382.84 
L 494.118907 382.84 
z
" clip-path="url(#p6a18a66422)" style="fill: #1f77b4"/>
   </g>
   <g id="patch_235">
    <path d="M 495.854709 382.84 
L 497.590511 382.84 
L 497.590511 381.399773 
L 495.854709 381.399773 
z
" clip-path="url(#p6a18a66422)" style="fill: #1f77b4"/>
   </g>
   <g id="patch_236">
    <path d="M 497.590511 382.84 
L 499.326313 382.84 
L 499.326313 382.84 
L 497.590511 382.84 
z
" clip-path="url(#p6a18a66422)" style="fill: #1f77b4"/>
   </g>
   <g id="patch_237">
    <path d="M 499.326313 382.84 
L 501.062115 382.84 
L 501.062115 381.246557 
L 499.326313 381.246557 
z
" clip-path="url(#p6a18a66422)" style="fill: #1f77b4"/>
   </g>
   <g id="patch_238">
    <path d="M 501.062115 382.84 
L 502.797917 382.84 
L 502.797917 382.84 
L 501.062115 382.84 
z
" clip-path="url(#p6a18a66422)" style="fill: #1f77b4"/>
   </g>
   <g id="patch_239">
    <path d="M 502.797917 382.84 
L 504.533719 382.84 
L 504.533719 382.84 
L 502.797917 382.84 
z
" clip-path="url(#p6a18a66422)" style="fill: #1f77b4"/>
   </g>
   <g id="patch_240">
    <path d="M 504.533719 382.84 
L 506.269521 382.84 
L 506.269521 381.981992 
L 504.533719 381.981992 
z
" clip-path="url(#p6a18a66422)" style="fill: #1f77b4"/>
   </g>
   <g id="patch_241">
    <path d="M 506.269521 382.84 
L 508.005323 382.84 
L 508.005323 382.84 
L 506.269521 382.84 
z
" clip-path="url(#p6a18a66422)" style="fill: #1f77b4"/>
   </g>
   <g id="patch_242">
    <path d="M 508.005323 382.84 
L 509.741125 382.84 
L 509.741125 382.84 
L 508.005323 382.84 
z
" clip-path="url(#p6a18a66422)" style="fill: #1f77b4"/>
   </g>
   <g id="patch_243">
    <path d="M 509.741125 382.84 
L 511.476927 382.84 
L 511.476927 382.472282 
L 509.741125 382.472282 
z
" clip-path="url(#p6a18a66422)" style="fill: #1f77b4"/>
   </g>
   <g id="patch_244">
    <path d="M 511.476927 382.84 
L 513.212729 382.84 
L 513.212729 382.84 
L 511.476927 382.84 
z
" clip-path="url(#p6a18a66422)" style="fill: #1f77b4"/>
   </g>
   <g id="patch_245">
    <path d="M 513.212729 382.84 
L 514.948531 382.84 
L 514.948531 382.533569 
L 513.212729 382.533569 
z
" clip-path="url(#p6a18a66422)" style="fill: #1f77b4"/>
   </g>
   <g id="patch_246">
    <path d="M 514.948531 382.84 
L 516.684333 382.84 
L 516.684333 382.84 
L 514.948531 382.84 
z
" clip-path="url(#p6a18a66422)" style="fill: #1f77b4"/>
   </g>
   <g id="patch_247">
    <path d="M 516.684333 382.84 
L 518.420135 382.84 
L 518.420135 382.84 
L 516.684333 382.84 
z
" clip-path="url(#p6a18a66422)" style="fill: #1f77b4"/>
   </g>
   <g id="patch_248">
    <path d="M 518.420135 382.84 
L 520.155937 382.84 
L 520.155937 382.594855 
L 518.420135 382.594855 
z
" clip-path="url(#p6a18a66422)" style="fill: #1f77b4"/>
   </g>
   <g id="patch_249">
    <path d="M 520.155937 382.84 
L 521.891739 382.84 
L 521.891739 382.84 
L 520.155937 382.84 
z
" clip-path="url(#p6a18a66422)" style="fill: #1f77b4"/>
   </g>
   <g id="patch_250">
    <path d="M 521.891739 382.84 
L 523.627541 382.84 
L 523.627541 382.84 
L 521.891739 382.84 
z
" clip-path="url(#p6a18a66422)" style="fill: #1f77b4"/>
   </g>
   <g id="patch_251">
    <path d="M 523.627541 382.84 
L 525.363343 382.84 
L 525.363343 382.502926 
L 523.627541 382.502926 
z
" clip-path="url(#p6a18a66422)" style="fill: #1f77b4"/>
   </g>
   <g id="patch_252">
    <path d="M 525.363343 382.84 
L 527.099145 382.84 
L 527.099145 382.84 
L 525.363343 382.84 
z
" clip-path="url(#p6a18a66422)" style="fill: #1f77b4"/>
   </g>
   <g id="patch_253">
    <path d="M 527.099145 382.84 
L 528.834947 382.84 
L 528.834947 382.656141 
L 527.099145 382.656141 
z
" clip-path="url(#p6a18a66422)" style="fill: #1f77b4"/>
   </g>
   <g id="patch_254">
    <path d="M 528.834947 382.84 
L 530.570749 382.84 
L 530.570749 382.84 
L 528.834947 382.84 
z
" clip-path="url(#p6a18a66422)" style="fill: #1f77b4"/>
   </g>
   <g id="patch_255">
    <path d="M 530.570749 382.84 
L 532.306551 382.84 
L 532.306551 382.84 
L 530.570749 382.84 
z
" clip-path="url(#p6a18a66422)" style="fill: #1f77b4"/>
   </g>
   <g id="patch_256">
    <path d="M 532.306551 382.84 
L 534.042353 382.84 
L 534.042353 382.717427 
L 532.306551 382.717427 
z
" clip-path="url(#p6a18a66422)" style="fill: #1f77b4"/>
   </g>
   <g id="patch_257">
    <path d="M 534.042353 382.84 
L 535.778155 382.84 
L 535.778155 382.84 
L 534.042353 382.84 
z
" clip-path="url(#p6a18a66422)" style="fill: #1f77b4"/>
   </g>
   <g id="patch_258">
    <path d="M 535.778155 382.84 
L 537.513958 382.84 
L 537.513958 382.84 
L 535.778155 382.84 
z
" clip-path="url(#p6a18a66422)" style="fill: #1f77b4"/>
   </g>
   <g id="patch_259">
    <path d="M 537.513958 382.84 
L 539.24976 382.84 
L 539.24976 382.809357 
L 537.513958 382.809357 
z
" clip-path="url(#p6a18a66422)" style="fill: #1f77b4"/>
   </g>
   <g id="patch_260">
    <path d="M 539.24976 382.84 
L 540.985562 382.84 
L 540.985562 382.84 
L 539.24976 382.84 
z
" clip-path="url(#p6a18a66422)" style="fill: #1f77b4"/>
   </g>
   <g id="patch_261">
    <path d="M 540.985562 382.84 
L 542.721364 382.84 
L 542.721364 382.809357 
L 540.985562 382.809357 
z
" clip-path="url(#p6a18a66422)" style="fill: #1f77b4"/>
   </g>
   <g id="matplotlib.axis_1">
    <g id="xtick_1">
     <g id="line2d_1">
      <defs>
       <path id="mea7c866b2e" d="M 0 0 
L 0 3.5 
" style="stroke: #000000; stroke-width: 0.8"/>
      </defs>
      <g>
       <use xlink:href="#mea7c866b2e" x="79.244325" y="382.84" style="stroke: #000000; stroke-width: 0.8"/>
      </g>
     </g>
     <g id="text_1">
      <!-- −14 -->
      <g transform="translate(68.691981 397.438438) scale(0.1 -0.1)">
       <defs>
        <path id="DejaVuSans-2212" d="M 678 2272 
L 4684 2272 
L 4684 1741 
L 678 1741 
L 678 2272 
z
" transform="scale(0.015625)"/>
        <path id="DejaVuSans-31" d="M 794 531 
L 1825 531 
L 1825 4091 
L 703 3866 
L 703 4441 
L 1819 4666 
L 2450 4666 
L 2450 531 
L 3481 531 
L 3481 0 
L 794 0 
L 794 531 
z
" transform="scale(0.015625)"/>
        <path id="DejaVuSans-34" d="M 2419 4116 
L 825 1625 
L 2419 1625 
L 2419 4116 
z
M 2253 4666 
L 3047 4666 
L 3047 1625 
L 3713 1625 
L 3713 1100 
L 3047 1100 
L 3047 0 
L 2419 0 
L 2419 1100 
L 313 1100 
L 313 1709 
L 2253 4666 
z
" transform="scale(0.015625)"/>
       </defs>
       <use xlink:href="#DejaVuSans-2212"/>
       <use xlink:href="#DejaVuSans-31" x="83.789062"/>
       <use xlink:href="#DejaVuSans-34" x="147.412109"/>
      </g>
     </g>
    </g>
    <g id="xtick_2">
     <g id="line2d_2">
      <g>
       <use xlink:href="#mea7c866b2e" x="171.939733" y="382.84" style="stroke: #000000; stroke-width: 0.8"/>
      </g>
     </g>
     <g id="text_2">
      <!-- −12 -->
      <g transform="translate(161.387389 397.438438) scale(0.1 -0.1)">
       <defs>
        <path id="DejaVuSans-32" d="M 1228 531 
L 3431 531 
L 3431 0 
L 469 0 
L 469 531 
Q 828 903 1448 1529 
Q 2069 2156 2228 2338 
Q 2531 2678 2651 2914 
Q 2772 3150 2772 3378 
Q 2772 3750 2511 3984 
Q 2250 4219 1831 4219 
Q 1534 4219 1204 4116 
Q 875 4013 500 3803 
L 500 4441 
Q 881 4594 1212 4672 
Q 1544 4750 1819 4750 
Q 2544 4750 2975 4387 
Q 3406 4025 3406 3419 
Q 3406 3131 3298 2873 
Q 3191 2616 2906 2266 
Q 2828 2175 2409 1742 
Q 1991 1309 1228 531 
z
" transform="scale(0.015625)"/>
       </defs>
       <use xlink:href="#DejaVuSans-2212"/>
       <use xlink:href="#DejaVuSans-31" x="83.789062"/>
       <use xlink:href="#DejaVuSans-32" x="147.412109"/>
      </g>
     </g>
    </g>
    <g id="xtick_3">
     <g id="line2d_3">
      <g>
       <use xlink:href="#mea7c866b2e" x="264.635141" y="382.84" style="stroke: #000000; stroke-width: 0.8"/>
      </g>
     </g>
     <g id="text_3">
      <!-- −10 -->
      <g transform="translate(254.082797 397.438438) scale(0.1 -0.1)">
       <defs>
        <path id="DejaVuSans-30" d="M 2034 4250 
Q 1547 4250 1301 3770 
Q 1056 3291 1056 2328 
Q 1056 1369 1301 889 
Q 1547 409 2034 409 
Q 2525 409 2770 889 
Q 3016 1369 3016 2328 
Q 3016 3291 2770 3770 
Q 2525 4250 2034 4250 
z
M 2034 4750 
Q 2819 4750 3233 4129 
Q 3647 3509 3647 2328 
Q 3647 1150 3233 529 
Q 2819 -91 2034 -91 
Q 1250 -91 836 529 
Q 422 1150 422 2328 
Q 422 3509 836 4129 
Q 1250 4750 2034 4750 
z
" transform="scale(0.015625)"/>
       </defs>
       <use xlink:href="#DejaVuSans-2212"/>
       <use xlink:href="#DejaVuSans-31" x="83.789062"/>
       <use xlink:href="#DejaVuSans-30" x="147.412109"/>
      </g>
     </g>
    </g>
    <g id="xtick_4">
     <g id="line2d_4">
      <g>
       <use xlink:href="#mea7c866b2e" x="357.330548" y="382.84" style="stroke: #000000; stroke-width: 0.8"/>
      </g>
     </g>
     <g id="text_4">
      <!-- −8 -->
      <g transform="translate(349.959455 397.438438) scale(0.1 -0.1)">
       <defs>
        <path id="DejaVuSans-38" d="M 2034 2216 
Q 1584 2216 1326 1975 
Q 1069 1734 1069 1313 
Q 1069 891 1326 650 
Q 1584 409 2034 409 
Q 2484 409 2743 651 
Q 3003 894 3003 1313 
Q 3003 1734 2745 1975 
Q 2488 2216 2034 2216 
z
M 1403 2484 
Q 997 2584 770 2862 
Q 544 3141 544 3541 
Q 544 4100 942 4425 
Q 1341 4750 2034 4750 
Q 2731 4750 3128 4425 
Q 3525 4100 3525 3541 
Q 3525 3141 3298 2862 
Q 3072 2584 2669 2484 
Q 3125 2378 3379 2068 
Q 3634 1759 3634 1313 
Q 3634 634 3220 271 
Q 2806 -91 2034 -91 
Q 1263 -91 848 271 
Q 434 634 434 1313 
Q 434 1759 690 2068 
Q 947 2378 1403 2484 
z
M 1172 3481 
Q 1172 3119 1398 2916 
Q 1625 2713 2034 2713 
Q 2441 2713 2670 2916 
Q 2900 3119 2900 3481 
Q 2900 3844 2670 4047 
Q 2441 4250 2034 4250 
Q 1625 4250 1398 4047 
Q 1172 3844 1172 3481 
z
" transform="scale(0.015625)"/>
       </defs>
       <use xlink:href="#DejaVuSans-2212"/>
       <use xlink:href="#DejaVuSans-38" x="83.789062"/>
      </g>
     </g>
    </g>
    <g id="xtick_5">
     <g id="line2d_5">
      <g>
       <use xlink:href="#mea7c866b2e" x="450.025956" y="382.84" style="stroke: #000000; stroke-width: 0.8"/>
      </g>
     </g>
     <g id="text_5">
      <!-- −6 -->
      <g transform="translate(442.654862 397.438438) scale(0.1 -0.1)">
       <defs>
        <path id="DejaVuSans-36" d="M 2113 2584 
Q 1688 2584 1439 2293 
Q 1191 2003 1191 1497 
Q 1191 994 1439 701 
Q 1688 409 2113 409 
Q 2538 409 2786 701 
Q 3034 994 3034 1497 
Q 3034 2003 2786 2293 
Q 2538 2584 2113 2584 
z
M 3366 4563 
L 3366 3988 
Q 3128 4100 2886 4159 
Q 2644 4219 2406 4219 
Q 1781 4219 1451 3797 
Q 1122 3375 1075 2522 
Q 1259 2794 1537 2939 
Q 1816 3084 2150 3084 
Q 2853 3084 3261 2657 
Q 3669 2231 3669 1497 
Q 3669 778 3244 343 
Q 2819 -91 2113 -91 
Q 1303 -91 875 529 
Q 447 1150 447 2328 
Q 447 3434 972 4092 
Q 1497 4750 2381 4750 
Q 2619 4750 2861 4703 
Q 3103 4656 3366 4563 
z
" transform="scale(0.015625)"/>
       </defs>
       <use xlink:href="#DejaVuSans-2212"/>
       <use xlink:href="#DejaVuSans-36" x="83.789062"/>
      </g>
     </g>
    </g>
    <g id="xtick_6">
     <g id="line2d_6">
      <g>
       <use xlink:href="#mea7c866b2e" x="542.721364" y="382.84" style="stroke: #000000; stroke-width: 0.8"/>
      </g>
     </g>
     <g id="text_6">
      <!-- −4 -->
      <g transform="translate(535.35027 397.438438) scale(0.1 -0.1)">
       <use xlink:href="#DejaVuSans-2212"/>
       <use xlink:href="#DejaVuSans-34" x="83.789062"/>
      </g>
     </g>
    </g>
    <g id="text_7">
     <!-- JAK2 -->
     <g transform="translate(297.652656 417.195312) scale(0.18 -0.18)">
      <defs>
       <path id="DejaVuSans-4a" d="M 628 4666 
L 1259 4666 
L 1259 325 
Q 1259 -519 939 -900 
Q 619 -1281 -91 -1281 
L -331 -1281 
L -331 -750 
L -134 -750 
Q 284 -750 456 -515 
Q 628 -281 628 325 
L 628 4666 
z
" transform="scale(0.015625)"/>
       <path id="DejaVuSans-41" d="M 2188 4044 
L 1331 1722 
L 3047 1722 
L 2188 4044 
z
M 1831 4666 
L 2547 4666 
L 4325 0 
L 3669 0 
L 3244 1197 
L 1141 1197 
L 716 0 
L 50 0 
L 1831 4666 
z
" transform="scale(0.015625)"/>
       <path id="DejaVuSans-4b" d="M 628 4666 
L 1259 4666 
L 1259 2694 
L 3353 4666 
L 4166 4666 
L 1850 2491 
L 4331 0 
L 3500 0 
L 1259 2247 
L 1259 0 
L 628 0 
L 628 4666 
z
" transform="scale(0.015625)"/>
      </defs>
      <use xlink:href="#DejaVuSans-4a"/>
      <use xlink:href="#DejaVuSans-41" x="27.742188"/>
      <use xlink:href="#DejaVuSans-4b" x="96.150391"/>
      <use xlink:href="#DejaVuSans-32" x="161.726562"/>
     </g>
    </g>
   </g>
   <g id="matplotlib.axis_2">
    <g id="ytick_1">
     <g id="line2d_7">
      <defs>
       <path id="m75594b475c" d="M 0 0 
L -3.5 0 
" style="stroke: #000000; stroke-width: 0.8"/>
      </defs>
      <g>
       <use xlink:href="#m75594b475c" x="70.67" y="382.84" style="stroke: #000000; stroke-width: 0.8"/>
      </g>
     </g>
     <g id="text_8">
      <!-- 0 -->
      <g transform="translate(57.3075 386.639219) scale(0.1 -0.1)">
       <use xlink:href="#DejaVuSans-30"/>
      </g>
     </g>
    </g>
    <g id="ytick_2">
     <g id="line2d_8">
      <g>
       <use xlink:href="#m75594b475c" x="70.67" y="321.553743" style="stroke: #000000; stroke-width: 0.8"/>
      </g>
     </g>
     <g id="text_9">
      <!-- 2000 -->
      <g transform="translate(38.22 325.352962) scale(0.1 -0.1)">
       <use xlink:href="#DejaVuSans-32"/>
       <use xlink:href="#DejaVuSans-30" x="63.623047"/>
       <use xlink:href="#DejaVuSans-30" x="127.246094"/>
       <use xlink:href="#DejaVuSans-30" x="190.869141"/>
      </g>
     </g>
    </g>
    <g id="ytick_3">
     <g id="line2d_9">
      <g>
       <use xlink:href="#m75594b475c" x="70.67" y="260.267486" style="stroke: #000000; stroke-width: 0.8"/>
      </g>
     </g>
     <g id="text_10">
      <!-- 4000 -->
      <g transform="translate(38.22 264.066705) scale(0.1 -0.1)">
       <use xlink:href="#DejaVuSans-34"/>
       <use xlink:href="#DejaVuSans-30" x="63.623047"/>
       <use xlink:href="#DejaVuSans-30" x="127.246094"/>
       <use xlink:href="#DejaVuSans-30" x="190.869141"/>
      </g>
     </g>
    </g>
    <g id="ytick_4">
     <g id="line2d_10">
      <g>
       <use xlink:href="#m75594b475c" x="70.67" y="198.981229" style="stroke: #000000; stroke-width: 0.8"/>
      </g>
     </g>
     <g id="text_11">
      <!-- 6000 -->
      <g transform="translate(38.22 202.780448) scale(0.1 -0.1)">
       <use xlink:href="#DejaVuSans-36"/>
       <use xlink:href="#DejaVuSans-30" x="63.623047"/>
       <use xlink:href="#DejaVuSans-30" x="127.246094"/>
       <use xlink:href="#DejaVuSans-30" x="190.869141"/>
      </g>
     </g>
    </g>
    <g id="ytick_5">
     <g id="line2d_11">
      <g>
       <use xlink:href="#m75594b475c" x="70.67" y="137.694972" style="stroke: #000000; stroke-width: 0.8"/>
      </g>
     </g>
     <g id="text_12">
      <!-- 8000 -->
      <g transform="translate(38.22 141.494191) scale(0.1 -0.1)">
       <use xlink:href="#DejaVuSans-38"/>
       <use xlink:href="#DejaVuSans-30" x="63.623047"/>
       <use xlink:href="#DejaVuSans-30" x="127.246094"/>
       <use xlink:href="#DejaVuSans-30" x="190.869141"/>
      </g>
     </g>
    </g>
    <g id="ytick_6">
     <g id="line2d_12">
      <g>
       <use xlink:href="#m75594b475c" x="70.67" y="76.408715" style="stroke: #000000; stroke-width: 0.8"/>
      </g>
     </g>
     <g id="text_13">
      <!-- 10000 -->
      <g transform="translate(31.8575 80.207934) scale(0.1 -0.1)">
       <use xlink:href="#DejaVuSans-31"/>
       <use xlink:href="#DejaVuSans-30" x="63.623047"/>
       <use xlink:href="#DejaVuSans-30" x="127.246094"/>
       <use xlink:href="#DejaVuSans-30" x="190.869141"/>
       <use xlink:href="#DejaVuSans-30" x="254.492188"/>
      </g>
     </g>
    </g>
    <g id="ytick_7">
     <g id="line2d_13">
      <g>
       <use xlink:href="#m75594b475c" x="70.67" y="15.122459" style="stroke: #000000; stroke-width: 0.8"/>
      </g>
     </g>
     <g id="text_14">
      <!-- 12000 -->
      <g transform="translate(31.8575 18.921677) scale(0.1 -0.1)">
       <use xlink:href="#DejaVuSans-31"/>
       <use xlink:href="#DejaVuSans-32" x="63.623047"/>
       <use xlink:href="#DejaVuSans-30" x="127.246094"/>
       <use xlink:href="#DejaVuSans-30" x="190.869141"/>
       <use xlink:href="#DejaVuSans-30" x="254.492188"/>
      </g>
     </g>
    </g>
    <g id="text_15">
     <!-- Count -->
     <g transform="translate(24.114063 223.964057) rotate(-90) scale(0.18 -0.18)">
      <defs>
       <path id="DejaVuSans-43" d="M 4122 4306 
L 4122 3641 
Q 3803 3938 3442 4084 
Q 3081 4231 2675 4231 
Q 1875 4231 1450 3742 
Q 1025 3253 1025 2328 
Q 1025 1406 1450 917 
Q 1875 428 2675 428 
Q 3081 428 3442 575 
Q 3803 722 4122 1019 
L 4122 359 
Q 3791 134 3420 21 
Q 3050 -91 2638 -91 
Q 1578 -91 968 557 
Q 359 1206 359 2328 
Q 359 3453 968 4101 
Q 1578 4750 2638 4750 
Q 3056 4750 3426 4639 
Q 3797 4528 4122 4306 
z
" transform="scale(0.015625)"/>
       <path id="DejaVuSans-6f" d="M 1959 3097 
Q 1497 3097 1228 2736 
Q 959 2375 959 1747 
Q 959 1119 1226 758 
Q 1494 397 1959 397 
Q 2419 397 2687 759 
Q 2956 1122 2956 1747 
Q 2956 2369 2687 2733 
Q 2419 3097 1959 3097 
z
M 1959 3584 
Q 2709 3584 3137 3096 
Q 3566 2609 3566 1747 
Q 3566 888 3137 398 
Q 2709 -91 1959 -91 
Q 1206 -91 779 398 
Q 353 888 353 1747 
Q 353 2609 779 3096 
Q 1206 3584 1959 3584 
z
" transform="scale(0.015625)"/>
       <path id="DejaVuSans-75" d="M 544 1381 
L 544 3500 
L 1119 3500 
L 1119 1403 
Q 1119 906 1312 657 
Q 1506 409 1894 409 
Q 2359 409 2629 706 
Q 2900 1003 2900 1516 
L 2900 3500 
L 3475 3500 
L 3475 0 
L 2900 0 
L 2900 538 
Q 2691 219 2414 64 
Q 2138 -91 1772 -91 
Q 1169 -91 856 284 
Q 544 659 544 1381 
z
M 1991 3584 
L 1991 3584 
z
" transform="scale(0.015625)"/>
       <path id="DejaVuSans-6e" d="M 3513 2113 
L 3513 0 
L 2938 0 
L 2938 2094 
Q 2938 2591 2744 2837 
Q 2550 3084 2163 3084 
Q 1697 3084 1428 2787 
Q 1159 2491 1159 1978 
L 1159 0 
L 581 0 
L 581 3500 
L 1159 3500 
L 1159 2956 
Q 1366 3272 1645 3428 
Q 1925 3584 2291 3584 
Q 2894 3584 3203 3211 
Q 3513 2838 3513 2113 
z
" transform="scale(0.015625)"/>
       <path id="DejaVuSans-74" d="M 1172 4494 
L 1172 3500 
L 2356 3500 
L 2356 3053 
L 1172 3053 
L 1172 1153 
Q 1172 725 1289 603 
Q 1406 481 1766 481 
L 2356 481 
L 2356 0 
L 1766 0 
Q 1100 0 847 248 
Q 594 497 594 1153 
L 594 3053 
L 172 3053 
L 172 3500 
L 594 3500 
L 594 4494 
L 1172 4494 
z
" transform="scale(0.015625)"/>
      </defs>
      <use xlink:href="#DejaVuSans-43"/>
      <use xlink:href="#DejaVuSans-6f" x="69.824219"/>
      <use xlink:href="#DejaVuSans-75" x="131.005859"/>
      <use xlink:href="#DejaVuSans-6e" x="194.384766"/>
      <use xlink:href="#DejaVuSans-74" x="257.763672"/>
     </g>
    </g>
   </g>
   <g id="line2d_14">
    <path d="M 292.443763 382.84 
L 292.443763 29.310227 
" clip-path="url(#p6a18a66422)" style="fill: none; stroke: #ff0000; stroke-width: 1.6; stroke-linecap: square"/>
   </g>
   <g id="patch_262">
    <path d="M 70.67 382.84 
L 70.67 11.633738 
" style="fill: none; stroke: #000000; stroke-width: 0.8; stroke-linejoin: miter; stroke-linecap: square"/>
   </g>
   <g id="patch_263">
    <path d="M 565.2 382.84 
L 565.2 11.633738 
" style="fill: none; stroke: #000000; stroke-width: 0.8; stroke-linejoin: miter; stroke-linecap: square"/>
   </g>
   <g id="patch_264">
    <path d="M 70.67 382.84 
L 565.2 382.84 
" style="fill: none; stroke: #000000; stroke-width: 0.8; stroke-linejoin: miter; stroke-linecap: square"/>
   </g>
   <g id="patch_265">
    <path d="M 70.67 11.633738 
L 565.2 11.633738 
" style="fill: none; stroke: #000000; stroke-width: 0.8; stroke-linejoin: miter; stroke-linecap: square"/>
   </g>
   <g id="text_16">
    <!-- $\mu_2 = -8.41$ -->
    <g transform="translate(416.841 62.316928) scale(0.21 -0.21)">
     <defs>
      <path id="DejaVuSans-Oblique-3bc" d="M -84 -1331 
L 856 3500 
L 1434 3500 
L 1009 1322 
Q 997 1256 987 1175 
Q 978 1094 978 1013 
Q 978 722 1161 565 
Q 1344 409 1684 409 
Q 2147 409 2431 671 
Q 2716 934 2816 1459 
L 3213 3500 
L 3788 3500 
L 3266 809 
Q 3253 750 3248 706 
Q 3244 663 3244 628 
Q 3244 531 3283 486 
Q 3322 441 3406 441 
Q 3438 441 3492 456 
Q 3547 472 3647 513 
L 3559 50 
Q 3422 -19 3297 -55 
Q 3172 -91 3053 -91 
Q 2847 -91 2730 40 
Q 2613 172 2613 403 
Q 2438 153 2195 31 
Q 1953 -91 1625 -91 
Q 1334 -91 1117 43 
Q 900 178 831 397 
L 494 -1331 
L -84 -1331 
z
" transform="scale(0.015625)"/>
      <path id="DejaVuSans-3d" d="M 678 2906 
L 4684 2906 
L 4684 2381 
L 678 2381 
L 678 2906 
z
M 678 1631 
L 4684 1631 
L 4684 1100 
L 678 1100 
L 678 1631 
z
" transform="scale(0.015625)"/>
      <path id="DejaVuSans-2e" d="M 684 794 
L 1344 794 
L 1344 0 
L 684 0 
L 684 794 
z
" transform="scale(0.015625)"/>
     </defs>
     <use xlink:href="#DejaVuSans-Oblique-3bc" transform="translate(0 0.78125)"/>
     <use xlink:href="#DejaVuSans-32" transform="translate(63.623047 -15.625) scale(0.7)"/>
     <use xlink:href="#DejaVuSans-3d" transform="translate(130.375977 0.78125)"/>
     <use xlink:href="#DejaVuSans-2212" transform="translate(253.129883 0.78125)"/>
     <use xlink:href="#DejaVuSans-38" transform="translate(356.401367 0.78125)"/>
     <use xlink:href="#DejaVuSans-2e" transform="translate(420.024414 0.78125)"/>
     <use xlink:href="#DejaVuSans-34" transform="translate(451.811523 0.78125)"/>
     <use xlink:href="#DejaVuSans-31" transform="translate(515.43457 0.78125)"/>
    </g>
    <!-- $\sigma_2 = 0.971$ -->
    <g transform="translate(416.841 85.874991) scale(0.21 -0.21)">
     <defs>
      <path id="DejaVuSans-Oblique-3c3" d="M 2219 3044 
Q 1744 3044 1422 2700 
Q 1081 2341 969 1747 
Q 844 1119 1044 756 
Q 1241 397 1706 397 
Q 2166 397 2503 759 
Q 2844 1122 2966 1747 
Q 3075 2319 2881 2700 
Q 2700 3044 2219 3044 
z
M 2309 3503 
L 4219 3500 
L 4106 2925 
L 3463 2925 
Q 3706 2438 3575 1747 
Q 3406 888 2884 400 
Q 2359 -91 1609 -91 
Q 856 -91 525 400 
Q 194 888 363 1747 
Q 528 2609 1050 3097 
Q 1484 3503 2309 3503 
z
" transform="scale(0.015625)"/>
      <path id="DejaVuSans-39" d="M 703 97 
L 703 672 
Q 941 559 1184 500 
Q 1428 441 1663 441 
Q 2288 441 2617 861 
Q 2947 1281 2994 2138 
Q 2813 1869 2534 1725 
Q 2256 1581 1919 1581 
Q 1219 1581 811 2004 
Q 403 2428 403 3163 
Q 403 3881 828 4315 
Q 1253 4750 1959 4750 
Q 2769 4750 3195 4129 
Q 3622 3509 3622 2328 
Q 3622 1225 3098 567 
Q 2575 -91 1691 -91 
Q 1453 -91 1209 -44 
Q 966 3 703 97 
z
M 1959 2075 
Q 2384 2075 2632 2365 
Q 2881 2656 2881 3163 
Q 2881 3666 2632 3958 
Q 2384 4250 1959 4250 
Q 1534 4250 1286 3958 
Q 1038 3666 1038 3163 
Q 1038 2656 1286 2365 
Q 1534 2075 1959 2075 
z
" transform="scale(0.015625)"/>
      <path id="DejaVuSans-37" d="M 525 4666 
L 3525 4666 
L 3525 4397 
L 1831 0 
L 1172 0 
L 2766 4134 
L 525 4134 
L 525 4666 
z
" transform="scale(0.015625)"/>
     </defs>
     <use xlink:href="#DejaVuSans-Oblique-3c3" transform="translate(0 0.78125)"/>
     <use xlink:href="#DejaVuSans-32" transform="translate(63.378906 -15.625) scale(0.7)"/>
     <use xlink:href="#DejaVuSans-3d" transform="translate(130.131836 0.78125)"/>
     <use xlink:href="#DejaVuSans-30" transform="translate(233.40332 0.78125)"/>
     <use xlink:href="#DejaVuSans-2e" transform="translate(297.026367 0.78125)"/>
     <use xlink:href="#DejaVuSans-39" transform="translate(328.813477 0.78125)"/>
     <use xlink:href="#DejaVuSans-37" transform="translate(392.436523 0.78125)"/>
     <use xlink:href="#DejaVuSans-31" transform="translate(456.05957 0.78125)"/>
    </g>
   </g>
  </g>
 </g>
 <defs>
  <clipPath id="p6a18a66422">
   <rect x="70.67" y="11.633738" width="494.53" height="371.206262"/>
  </clipPath>
 </defs>
</svg>
