<?xml version="1.0" encoding="utf-8" standalone="no"?>
<!DOCTYPE svg PUBLIC "-//W3C//DTD SVG 1.1//EN"
  "http://www.w3.org/Graphics/SVG/1.1/DTD/svg11.dtd">
<svg xmlns:xlink="http://www.w3.org/1999/xlink" width="576pt" height="432pt" viewBox="0 0 576 432" xmlns="http://www.w3.org/2000/svg" version="1.1">
 <metadata>
  <rdf:RDF xmlns:dc="http://purl.org/dc/elements/1.1/" xmlns:cc="http://creativecommons.org/ns#" xmlns:rdf="http://www.w3.org/1999/02/22-rdf-syntax-ns#">
   <cc:Work>
    <dc:type rdf:resource="http://purl.org/dc/dcmitype/StillImage"/>
    <dc:date>2024-09-05T19:41:13.671348</dc:date>
    <dc:format>image/svg+xml</dc:format>
    <dc:creator>
     <cc:Agent>
      <dc:title>Matplotlib v3.7.2, https://matplotlib.org/</dc:title>
     </cc:Agent>
    </dc:creator>
   </cc:Work>
  </rdf:RDF>
 </metadata>
 <defs>
  <style type="text/css">*{stroke-linejoin: round; stroke-linecap: butt}</style>
 </defs>
 <g id="figure_1">
  <g id="patch_1">
   <path d="M 0 432 
L 576 432 
L 576 0 
L 0 0 
z
" style="fill: #ffffff"/>
  </g>
  <g id="axes_1">
   <g id="patch_2">
    <path d="M 70.67 382.84 
L 563.997766 382.84 
L 563.997766 10.8 
L 70.67 10.8 
z
" style="fill: #ffffff"/>
   </g>
   <g id="patch_3">
    <path d="M 93.093989 382.84 
L 95.325232 382.84 
L 95.325232 382.769418 
L 93.093989 382.769418 
z
" clip-path="url(#p2257ceee62)" style="fill: #1f77b4"/>
   </g>
   <g id="patch_4">
    <path d="M 95.325232 382.84 
L 97.556475 382.84 
L 97.556475 382.84 
L 95.325232 382.84 
z
" clip-path="url(#p2257ceee62)" style="fill: #1f77b4"/>
   </g>
   <g id="patch_5">
    <path d="M 97.556475 382.84 
L 99.787718 382.84 
L 99.787718 382.84 
L 97.556475 382.84 
z
" clip-path="url(#p2257ceee62)" style="fill: #1f77b4"/>
   </g>
   <g id="patch_6">
    <path d="M 99.787718 382.84 
L 102.01896 382.84 
L 102.01896 382.84 
L 99.787718 382.84 
z
" clip-path="url(#p2257ceee62)" style="fill: #1f77b4"/>
   </g>
   <g id="patch_7">
    <path d="M 102.01896 382.84 
L 104.250203 382.84 
L 104.250203 382.769418 
L 102.01896 382.769418 
z
" clip-path="url(#p2257ceee62)" style="fill: #1f77b4"/>
   </g>
   <g id="patch_8">
    <path d="M 104.250203 382.84 
L 106.481446 382.84 
L 106.481446 382.84 
L 104.250203 382.84 
z
" clip-path="url(#p2257ceee62)" style="fill: #1f77b4"/>
   </g>
   <g id="patch_9">
    <path d="M 106.481446 382.84 
L 108.712688 382.84 
L 108.712688 382.734126 
L 106.481446 382.734126 
z
" clip-path="url(#p2257ceee62)" style="fill: #1f77b4"/>
   </g>
   <g id="patch_10">
    <path d="M 108.712688 382.84 
L 110.943931 382.84 
L 110.943931 382.84 
L 108.712688 382.84 
z
" clip-path="url(#p2257ceee62)" style="fill: #1f77b4"/>
   </g>
   <g id="patch_11">
    <path d="M 110.943931 382.84 
L 113.175174 382.84 
L 113.175174 382.769418 
L 110.943931 382.769418 
z
" clip-path="url(#p2257ceee62)" style="fill: #1f77b4"/>
   </g>
   <g id="patch_12">
    <path d="M 113.175174 382.84 
L 115.406417 382.84 
L 115.406417 382.84 
L 113.175174 382.84 
z
" clip-path="url(#p2257ceee62)" style="fill: #1f77b4"/>
   </g>
   <g id="patch_13">
    <path d="M 115.406417 382.84 
L 117.637659 382.84 
L 117.637659 382.734126 
L 115.406417 382.734126 
z
" clip-path="url(#p2257ceee62)" style="fill: #1f77b4"/>
   </g>
   <g id="patch_14">
    <path d="M 117.637659 382.84 
L 119.868902 382.84 
L 119.868902 382.84 
L 117.637659 382.84 
z
" clip-path="url(#p2257ceee62)" style="fill: #1f77b4"/>
   </g>
   <g id="patch_15">
    <path d="M 119.868902 382.84 
L 122.100145 382.84 
L 122.100145 382.55767 
L 119.868902 382.55767 
z
" clip-path="url(#p2257ceee62)" style="fill: #1f77b4"/>
   </g>
   <g id="patch_16">
    <path d="M 122.100145 382.84 
L 124.331387 382.84 
L 124.331387 382.84 
L 122.100145 382.84 
z
" clip-path="url(#p2257ceee62)" style="fill: #1f77b4"/>
   </g>
   <g id="patch_17">
    <path d="M 124.331387 382.84 
L 126.56263 382.84 
L 126.56263 382.628253 
L 124.331387 382.628253 
z
" clip-path="url(#p2257ceee62)" style="fill: #1f77b4"/>
   </g>
   <g id="patch_18">
    <path d="M 126.56263 382.84 
L 128.793873 382.84 
L 128.793873 382.84 
L 126.56263 382.84 
z
" clip-path="url(#p2257ceee62)" style="fill: #1f77b4"/>
   </g>
   <g id="patch_19">
    <path d="M 128.793873 382.84 
L 131.025116 382.84 
L 131.025116 382.84 
L 128.793873 382.84 
z
" clip-path="url(#p2257ceee62)" style="fill: #1f77b4"/>
   </g>
   <g id="patch_20">
    <path d="M 131.025116 382.84 
L 133.256358 382.84 
L 133.256358 382.592961 
L 131.025116 382.592961 
z
" clip-path="url(#p2257ceee62)" style="fill: #1f77b4"/>
   </g>
   <g id="patch_21">
    <path d="M 133.256358 382.84 
L 135.487601 382.84 
L 135.487601 382.84 
L 133.256358 382.84 
z
" clip-path="url(#p2257ceee62)" style="fill: #1f77b4"/>
   </g>
   <g id="patch_22">
    <path d="M 135.487601 382.84 
L 137.718844 382.84 
L 137.718844 382.487088 
L 135.487601 382.487088 
z
" clip-path="url(#p2257ceee62)" style="fill: #1f77b4"/>
   </g>
   <g id="patch_23">
    <path d="M 137.718844 382.84 
L 139.950087 382.84 
L 139.950087 382.84 
L 137.718844 382.84 
z
" clip-path="url(#p2257ceee62)" style="fill: #1f77b4"/>
   </g>
   <g id="patch_24">
    <path d="M 139.950087 382.84 
L 142.181329 382.84 
L 142.181329 382.381214 
L 139.950087 382.381214 
z
" clip-path="url(#p2257ceee62)" style="fill: #1f77b4"/>
   </g>
   <g id="patch_25">
    <path d="M 142.181329 382.84 
L 144.412572 382.84 
L 144.412572 382.84 
L 142.181329 382.84 
z
" clip-path="url(#p2257ceee62)" style="fill: #1f77b4"/>
   </g>
   <g id="patch_26">
    <path d="M 144.412572 382.84 
L 146.643815 382.84 
L 146.643815 382.451797 
L 144.412572 382.451797 
z
" clip-path="url(#p2257ceee62)" style="fill: #1f77b4"/>
   </g>
   <g id="patch_27">
    <path d="M 146.643815 382.84 
L 148.875057 382.84 
L 148.875057 382.84 
L 146.643815 382.84 
z
" clip-path="url(#p2257ceee62)" style="fill: #1f77b4"/>
   </g>
   <g id="patch_28">
    <path d="M 148.875057 382.84 
L 151.1063 382.84 
L 151.1063 381.851846 
L 148.875057 381.851846 
z
" clip-path="url(#p2257ceee62)" style="fill: #1f77b4"/>
   </g>
   <g id="patch_29">
    <path d="M 151.1063 382.84 
L 153.337543 382.84 
L 153.337543 382.84 
L 151.1063 382.84 
z
" clip-path="url(#p2257ceee62)" style="fill: #1f77b4"/>
   </g>
   <g id="patch_30">
    <path d="M 153.337543 382.84 
L 155.568786 382.84 
L 155.568786 381.67539 
L 153.337543 381.67539 
z
" clip-path="url(#p2257ceee62)" style="fill: #1f77b4"/>
   </g>
   <g id="patch_31">
    <path d="M 155.568786 382.84 
L 157.800028 382.84 
L 157.800028 382.84 
L 155.568786 382.84 
z
" clip-path="url(#p2257ceee62)" style="fill: #1f77b4"/>
   </g>
   <g id="patch_32">
    <path d="M 157.800028 382.84 
L 160.031271 382.84 
L 160.031271 381.357769 
L 157.800028 381.357769 
z
" clip-path="url(#p2257ceee62)" style="fill: #1f77b4"/>
   </g>
   <g id="patch_33">
    <path d="M 160.031271 382.84 
L 162.262514 382.84 
L 162.262514 382.84 
L 160.031271 382.84 
z
" clip-path="url(#p2257ceee62)" style="fill: #1f77b4"/>
   </g>
   <g id="patch_34">
    <path d="M 162.262514 382.84 
L 164.493757 382.84 
L 164.493757 382.84 
L 162.262514 382.84 
z
" clip-path="url(#p2257ceee62)" style="fill: #1f77b4"/>
   </g>
   <g id="patch_35">
    <path d="M 164.493757 382.84 
L 166.724999 382.84 
L 166.724999 380.722527 
L 164.493757 380.722527 
z
" clip-path="url(#p2257ceee62)" style="fill: #1f77b4"/>
   </g>
   <g id="patch_36">
    <path d="M 166.724999 382.84 
L 168.956242 382.84 
L 168.956242 382.84 
L 166.724999 382.84 
z
" clip-path="url(#p2257ceee62)" style="fill: #1f77b4"/>
   </g>
   <g id="patch_37">
    <path d="M 168.956242 382.84 
L 171.187485 382.84 
L 171.187485 380.051994 
L 168.956242 380.051994 
z
" clip-path="url(#p2257ceee62)" style="fill: #1f77b4"/>
   </g>
   <g id="patch_38">
    <path d="M 171.187485 382.84 
L 173.418727 382.84 
L 173.418727 382.84 
L 171.187485 382.84 
z
" clip-path="url(#p2257ceee62)" style="fill: #1f77b4"/>
   </g>
   <g id="patch_39">
    <path d="M 173.418727 382.84 
L 175.64997 382.84 
L 175.64997 379.34617 
L 173.418727 379.34617 
z
" clip-path="url(#p2257ceee62)" style="fill: #1f77b4"/>
   </g>
   <g id="patch_40">
    <path d="M 175.64997 382.84 
L 177.881213 382.84 
L 177.881213 382.84 
L 175.64997 382.84 
z
" clip-path="url(#p2257ceee62)" style="fill: #1f77b4"/>
   </g>
   <g id="patch_41">
    <path d="M 177.881213 382.84 
L 180.112456 382.84 
L 180.112456 377.828647 
L 177.881213 377.828647 
z
" clip-path="url(#p2257ceee62)" style="fill: #1f77b4"/>
   </g>
   <g id="patch_42">
    <path d="M 180.112456 382.84 
L 182.343698 382.84 
L 182.343698 382.84 
L 180.112456 382.84 
z
" clip-path="url(#p2257ceee62)" style="fill: #1f77b4"/>
   </g>
   <g id="patch_43">
    <path d="M 182.343698 382.84 
L 184.574941 382.84 
L 184.574941 376.16996 
L 182.343698 376.16996 
z
" clip-path="url(#p2257ceee62)" style="fill: #1f77b4"/>
   </g>
   <g id="patch_44">
    <path d="M 184.574941 382.84 
L 186.806184 382.84 
L 186.806184 382.84 
L 184.574941 382.84 
z
" clip-path="url(#p2257ceee62)" style="fill: #1f77b4"/>
   </g>
   <g id="patch_45">
    <path d="M 186.806184 382.84 
L 189.037426 382.84 
L 189.037426 374.405399 
L 186.806184 374.405399 
z
" clip-path="url(#p2257ceee62)" style="fill: #1f77b4"/>
   </g>
   <g id="patch_46">
    <path d="M 189.037426 382.84 
L 191.268669 382.84 
L 191.268669 382.84 
L 189.037426 382.84 
z
" clip-path="url(#p2257ceee62)" style="fill: #1f77b4"/>
   </g>
   <g id="patch_47">
    <path d="M 191.268669 382.84 
L 193.499912 382.84 
L 193.499912 371.829141 
L 191.268669 371.829141 
z
" clip-path="url(#p2257ceee62)" style="fill: #1f77b4"/>
   </g>
   <g id="patch_48">
    <path d="M 193.499912 382.84 
L 195.731155 382.84 
L 195.731155 382.84 
L 193.499912 382.84 
z
" clip-path="url(#p2257ceee62)" style="fill: #1f77b4"/>
   </g>
   <g id="patch_49">
    <path d="M 195.731155 382.84 
L 197.962397 382.84 
L 197.962397 382.84 
L 195.731155 382.84 
z
" clip-path="url(#p2257ceee62)" style="fill: #1f77b4"/>
   </g>
   <g id="patch_50">
    <path d="M 197.962397 382.84 
L 200.19364 382.84 
L 200.19364 368.829387 
L 197.962397 368.829387 
z
" clip-path="url(#p2257ceee62)" style="fill: #1f77b4"/>
   </g>
   <g id="patch_51">
    <path d="M 200.19364 382.84 
L 202.424883 382.84 
L 202.424883 382.84 
L 200.19364 382.84 
z
" clip-path="url(#p2257ceee62)" style="fill: #1f77b4"/>
   </g>
   <g id="patch_52">
    <path d="M 202.424883 382.84 
L 204.656126 382.84 
L 204.656126 364.700315 
L 202.424883 364.700315 
z
" clip-path="url(#p2257ceee62)" style="fill: #1f77b4"/>
   </g>
   <g id="patch_53">
    <path d="M 204.656126 382.84 
L 206.887368 382.84 
L 206.887368 382.84 
L 204.656126 382.84 
z
" clip-path="url(#p2257ceee62)" style="fill: #1f77b4"/>
   </g>
   <g id="patch_54">
    <path d="M 206.887368 382.84 
L 209.118611 382.84 
L 209.118611 361.347649 
L 206.887368 361.347649 
z
" clip-path="url(#p2257ceee62)" style="fill: #1f77b4"/>
   </g>
   <g id="patch_55">
    <path d="M 209.118611 382.84 
L 211.349854 382.84 
L 211.349854 382.84 
L 209.118611 382.84 
z
" clip-path="url(#p2257ceee62)" style="fill: #1f77b4"/>
   </g>
   <g id="patch_56">
    <path d="M 211.349854 382.84 
L 213.581096 382.84 
L 213.581096 357.783237 
L 211.349854 357.783237 
z
" clip-path="url(#p2257ceee62)" style="fill: #1f77b4"/>
   </g>
   <g id="patch_57">
    <path d="M 213.581096 382.84 
L 215.812339 382.84 
L 215.812339 382.84 
L 213.581096 382.84 
z
" clip-path="url(#p2257ceee62)" style="fill: #1f77b4"/>
   </g>
   <g id="patch_58">
    <path d="M 215.812339 382.84 
L 218.043582 382.84 
L 218.043582 348.501647 
L 215.812339 348.501647 
z
" clip-path="url(#p2257ceee62)" style="fill: #1f77b4"/>
   </g>
   <g id="patch_59">
    <path d="M 218.043582 382.84 
L 220.274825 382.84 
L 220.274825 382.84 
L 218.043582 382.84 
z
" clip-path="url(#p2257ceee62)" style="fill: #1f77b4"/>
   </g>
   <g id="patch_60">
    <path d="M 220.274825 382.84 
L 222.506067 382.84 
L 222.506067 343.207964 
L 220.274825 343.207964 
z
" clip-path="url(#p2257ceee62)" style="fill: #1f77b4"/>
   </g>
   <g id="patch_61">
    <path d="M 222.506067 382.84 
L 224.73731 382.84 
L 224.73731 382.84 
L 222.506067 382.84 
z
" clip-path="url(#p2257ceee62)" style="fill: #1f77b4"/>
   </g>
   <g id="patch_62">
    <path d="M 224.73731 382.84 
L 226.968553 382.84 
L 226.968553 333.820501 
L 224.73731 333.820501 
z
" clip-path="url(#p2257ceee62)" style="fill: #1f77b4"/>
   </g>
   <g id="patch_63">
    <path d="M 226.968553 382.84 
L 229.199795 382.84 
L 229.199795 382.84 
L 226.968553 382.84 
z
" clip-path="url(#p2257ceee62)" style="fill: #1f77b4"/>
   </g>
   <g id="patch_64">
    <path d="M 229.199795 382.84 
L 231.431038 382.84 
L 231.431038 382.84 
L 229.199795 382.84 
z
" clip-path="url(#p2257ceee62)" style="fill: #1f77b4"/>
   </g>
   <g id="patch_65">
    <path d="M 231.431038 382.84 
L 233.662281 382.84 
L 233.662281 324.009543 
L 231.431038 324.009543 
z
" clip-path="url(#p2257ceee62)" style="fill: #1f77b4"/>
   </g>
   <g id="patch_66">
    <path d="M 233.662281 382.84 
L 235.893524 382.84 
L 235.893524 382.84 
L 233.662281 382.84 
z
" clip-path="url(#p2257ceee62)" style="fill: #1f77b4"/>
   </g>
   <g id="patch_67">
    <path d="M 235.893524 382.84 
L 238.124766 382.84 
L 238.124766 310.245969 
L 235.893524 310.245969 
z
" clip-path="url(#p2257ceee62)" style="fill: #1f77b4"/>
   </g>
   <g id="patch_68">
    <path d="M 238.124766 382.84 
L 240.356009 382.84 
L 240.356009 382.84 
L 238.124766 382.84 
z
" clip-path="url(#p2257ceee62)" style="fill: #1f77b4"/>
   </g>
   <g id="patch_69">
    <path d="M 240.356009 382.84 
L 242.587252 382.84 
L 242.587252 300.682049 
L 240.356009 300.682049 
z
" clip-path="url(#p2257ceee62)" style="fill: #1f77b4"/>
   </g>
   <g id="patch_70">
    <path d="M 242.587252 382.84 
L 244.818495 382.84 
L 244.818495 382.84 
L 242.587252 382.84 
z
" clip-path="url(#p2257ceee62)" style="fill: #1f77b4"/>
   </g>
   <g id="patch_71">
    <path d="M 244.818495 382.84 
L 247.049737 382.84 
L 247.049737 283.495227 
L 244.818495 283.495227 
z
" clip-path="url(#p2257ceee62)" style="fill: #1f77b4"/>
   </g>
   <g id="patch_72">
    <path d="M 247.049737 382.84 
L 249.28098 382.84 
L 249.28098 382.84 
L 247.049737 382.84 
z
" clip-path="url(#p2257ceee62)" style="fill: #1f77b4"/>
   </g>
   <g id="patch_73">
    <path d="M 249.28098 382.84 
L 251.512223 382.84 
L 251.512223 267.190685 
L 249.28098 267.190685 
z
" clip-path="url(#p2257ceee62)" style="fill: #1f77b4"/>
   </g>
   <g id="patch_74">
    <path d="M 251.512223 382.84 
L 253.743465 382.84 
L 253.743465 382.84 
L 251.512223 382.84 
z
" clip-path="url(#p2257ceee62)" style="fill: #1f77b4"/>
   </g>
   <g id="patch_75">
    <path d="M 253.743465 382.84 
L 255.974708 382.84 
L 255.974708 251.344929 
L 253.743465 251.344929 
z
" clip-path="url(#p2257ceee62)" style="fill: #1f77b4"/>
   </g>
   <g id="patch_76">
    <path d="M 255.974708 382.84 
L 258.205951 382.84 
L 258.205951 382.84 
L 255.974708 382.84 
z
" clip-path="url(#p2257ceee62)" style="fill: #1f77b4"/>
   </g>
   <g id="patch_77">
    <path d="M 258.205951 382.84 
L 260.437194 382.84 
L 260.437194 231.793595 
L 258.205951 231.793595 
z
" clip-path="url(#p2257ceee62)" style="fill: #1f77b4"/>
   </g>
   <g id="patch_78">
    <path d="M 260.437194 382.84 
L 262.668436 382.84 
L 262.668436 382.84 
L 260.437194 382.84 
z
" clip-path="url(#p2257ceee62)" style="fill: #1f77b4"/>
   </g>
   <g id="patch_79">
    <path d="M 262.668436 382.84 
L 264.899679 382.84 
L 264.899679 210.371827 
L 262.668436 210.371827 
z
" clip-path="url(#p2257ceee62)" style="fill: #1f77b4"/>
   </g>
   <g id="patch_80">
    <path d="M 264.899679 382.84 
L 267.130922 382.84 
L 267.130922 382.84 
L 264.899679 382.84 
z
" clip-path="url(#p2257ceee62)" style="fill: #1f77b4"/>
   </g>
   <g id="patch_81">
    <path d="M 267.130922 382.84 
L 269.362165 382.84 
L 269.362165 382.84 
L 267.130922 382.84 
z
" clip-path="url(#p2257ceee62)" style="fill: #1f77b4"/>
   </g>
   <g id="patch_82">
    <path d="M 269.362165 382.84 
L 271.593407 382.84 
L 271.593407 186.938459 
L 269.362165 186.938459 
z
" clip-path="url(#p2257ceee62)" style="fill: #1f77b4"/>
   </g>
   <g id="patch_83">
    <path d="M 271.593407 382.84 
L 273.82465 382.84 
L 273.82465 382.84 
L 271.593407 382.84 
z
" clip-path="url(#p2257ceee62)" style="fill: #1f77b4"/>
   </g>
   <g id="patch_84">
    <path d="M 273.82465 382.84 
L 276.055893 382.84 
L 276.055893 165.022614 
L 273.82465 165.022614 
z
" clip-path="url(#p2257ceee62)" style="fill: #1f77b4"/>
   </g>
   <g id="patch_85">
    <path d="M 276.055893 382.84 
L 278.287135 382.84 
L 278.287135 382.84 
L 276.055893 382.84 
z
" clip-path="url(#p2257ceee62)" style="fill: #1f77b4"/>
   </g>
   <g id="patch_86">
    <path d="M 278.287135 382.84 
L 280.518378 382.84 
L 280.518378 140.848131 
L 278.287135 140.848131 
z
" clip-path="url(#p2257ceee62)" style="fill: #1f77b4"/>
   </g>
   <g id="patch_87">
    <path d="M 280.518378 382.84 
L 282.749621 382.84 
L 282.749621 382.84 
L 280.518378 382.84 
z
" clip-path="url(#p2257ceee62)" style="fill: #1f77b4"/>
   </g>
   <g id="patch_88">
    <path d="M 282.749621 382.84 
L 284.980864 382.84 
L 284.980864 121.120341 
L 282.749621 121.120341 
z
" clip-path="url(#p2257ceee62)" style="fill: #1f77b4"/>
   </g>
   <g id="patch_89">
    <path d="M 284.980864 382.84 
L 287.212106 382.84 
L 287.212106 382.84 
L 284.980864 382.84 
z
" clip-path="url(#p2257ceee62)" style="fill: #1f77b4"/>
   </g>
   <g id="patch_90">
    <path d="M 287.212106 382.84 
L 289.443349 382.84 
L 289.443349 106.015701 
L 287.212106 106.015701 
z
" clip-path="url(#p2257ceee62)" style="fill: #1f77b4"/>
   </g>
   <g id="patch_91">
    <path d="M 289.443349 382.84 
L 291.674592 382.84 
L 291.674592 382.84 
L 289.443349 382.84 
z
" clip-path="url(#p2257ceee62)" style="fill: #1f77b4"/>
   </g>
   <g id="patch_92">
    <path d="M 291.674592 382.84 
L 293.905834 382.84 
L 293.905834 83.252867 
L 291.674592 83.252867 
z
" clip-path="url(#p2257ceee62)" style="fill: #1f77b4"/>
   </g>
   <g id="patch_93">
    <path d="M 293.905834 382.84 
L 296.137077 382.84 
L 296.137077 382.84 
L 293.905834 382.84 
z
" clip-path="url(#p2257ceee62)" style="fill: #1f77b4"/>
   </g>
   <g id="patch_94">
    <path d="M 296.137077 382.84 
L 298.36832 382.84 
L 298.36832 69.877496 
L 296.137077 69.877496 
z
" clip-path="url(#p2257ceee62)" style="fill: #1f77b4"/>
   </g>
   <g id="patch_95">
    <path d="M 298.36832 382.84 
L 300.599563 382.84 
L 300.599563 382.84 
L 298.36832 382.84 
z
" clip-path="url(#p2257ceee62)" style="fill: #1f77b4"/>
   </g>
   <g id="patch_96">
    <path d="M 300.599563 382.84 
L 302.830805 382.84 
L 302.830805 382.84 
L 300.599563 382.84 
z
" clip-path="url(#p2257ceee62)" style="fill: #1f77b4"/>
   </g>
   <g id="patch_97">
    <path d="M 302.830805 382.84 
L 305.062048 382.84 
L 305.062048 50.573201 
L 302.830805 50.573201 
z
" clip-path="url(#p2257ceee62)" style="fill: #1f77b4"/>
   </g>
   <g id="patch_98">
    <path d="M 305.062048 382.84 
L 307.293291 382.84 
L 307.293291 382.84 
L 305.062048 382.84 
z
" clip-path="url(#p2257ceee62)" style="fill: #1f77b4"/>
   </g>
   <g id="patch_99">
    <path d="M 307.293291 382.84 
L 309.524534 382.84 
L 309.524534 41.538649 
L 307.293291 41.538649 
z
" clip-path="url(#p2257ceee62)" style="fill: #1f77b4"/>
   </g>
   <g id="patch_100">
    <path d="M 309.524534 382.84 
L 311.755776 382.84 
L 311.755776 382.84 
L 309.524534 382.84 
z
" clip-path="url(#p2257ceee62)" style="fill: #1f77b4"/>
   </g>
   <g id="patch_101">
    <path d="M 311.755776 382.84 
L 313.987019 382.84 
L 313.987019 35.821472 
L 311.755776 35.821472 
z
" clip-path="url(#p2257ceee62)" style="fill: #1f77b4"/>
   </g>
   <g id="patch_102">
    <path d="M 313.987019 382.84 
L 316.218262 382.84 
L 316.218262 382.84 
L 313.987019 382.84 
z
" clip-path="url(#p2257ceee62)" style="fill: #1f77b4"/>
   </g>
   <g id="patch_103">
    <path d="M 316.218262 382.84 
L 318.449504 382.84 
L 318.449504 28.51619 
L 316.218262 28.51619 
z
" clip-path="url(#p2257ceee62)" style="fill: #1f77b4"/>
   </g>
   <g id="patch_104">
    <path d="M 318.449504 382.84 
L 320.680747 382.84 
L 320.680747 382.84 
L 318.449504 382.84 
z
" clip-path="url(#p2257ceee62)" style="fill: #1f77b4"/>
   </g>
   <g id="patch_105">
    <path d="M 320.680747 382.84 
L 322.91199 382.84 
L 322.91199 30.668955 
L 320.680747 30.668955 
z
" clip-path="url(#p2257ceee62)" style="fill: #1f77b4"/>
   </g>
   <g id="patch_106">
    <path d="M 322.91199 382.84 
L 325.143233 382.84 
L 325.143233 382.84 
L 322.91199 382.84 
z
" clip-path="url(#p2257ceee62)" style="fill: #1f77b4"/>
   </g>
   <g id="patch_107">
    <path d="M 325.143233 382.84 
L 327.374475 382.84 
L 327.374475 40.621078 
L 325.143233 40.621078 
z
" clip-path="url(#p2257ceee62)" style="fill: #1f77b4"/>
   </g>
   <g id="patch_108">
    <path d="M 327.374475 382.84 
L 329.605718 382.84 
L 329.605718 382.84 
L 327.374475 382.84 
z
" clip-path="url(#p2257ceee62)" style="fill: #1f77b4"/>
   </g>
   <g id="patch_109">
    <path d="M 329.605718 382.84 
L 331.836961 382.84 
L 331.836961 46.514711 
L 329.605718 46.514711 
z
" clip-path="url(#p2257ceee62)" style="fill: #1f77b4"/>
   </g>
   <g id="patch_110">
    <path d="M 331.836961 382.84 
L 334.068203 382.84 
L 334.068203 382.84 
L 331.836961 382.84 
z
" clip-path="url(#p2257ceee62)" style="fill: #1f77b4"/>
   </g>
   <g id="patch_111">
    <path d="M 334.068203 382.84 
L 336.299446 382.84 
L 336.299446 382.84 
L 334.068203 382.84 
z
" clip-path="url(#p2257ceee62)" style="fill: #1f77b4"/>
   </g>
   <g id="patch_112">
    <path d="M 336.299446 382.84 
L 338.530689 382.84 
L 338.530689 53.608245 
L 336.299446 53.608245 
z
" clip-path="url(#p2257ceee62)" style="fill: #1f77b4"/>
   </g>
   <g id="patch_113">
    <path d="M 338.530689 382.84 
L 340.761932 382.84 
L 340.761932 382.84 
L 338.530689 382.84 
z
" clip-path="url(#p2257ceee62)" style="fill: #1f77b4"/>
   </g>
   <g id="patch_114">
    <path d="M 340.761932 382.84 
L 342.993174 382.84 
L 342.993174 56.396251 
L 340.761932 56.396251 
z
" clip-path="url(#p2257ceee62)" style="fill: #1f77b4"/>
   </g>
   <g id="patch_115">
    <path d="M 342.993174 382.84 
L 345.224417 382.84 
L 345.224417 382.84 
L 342.993174 382.84 
z
" clip-path="url(#p2257ceee62)" style="fill: #1f77b4"/>
   </g>
   <g id="patch_116">
    <path d="M 345.224417 382.84 
L 347.45566 382.84 
L 347.45566 76.300497 
L 345.224417 76.300497 
z
" clip-path="url(#p2257ceee62)" style="fill: #1f77b4"/>
   </g>
   <g id="patch_117">
    <path d="M 347.45566 382.84 
L 349.686903 382.84 
L 349.686903 382.84 
L 347.45566 382.84 
z
" clip-path="url(#p2257ceee62)" style="fill: #1f77b4"/>
   </g>
   <g id="patch_118">
    <path d="M 349.686903 382.84 
L 351.918145 382.84 
L 351.918145 93.80494 
L 349.686903 93.80494 
z
" clip-path="url(#p2257ceee62)" style="fill: #1f77b4"/>
   </g>
   <g id="patch_119">
    <path d="M 351.918145 382.84 
L 354.149388 382.84 
L 354.149388 382.84 
L 351.918145 382.84 
z
" clip-path="url(#p2257ceee62)" style="fill: #1f77b4"/>
   </g>
   <g id="patch_120">
    <path d="M 354.149388 382.84 
L 356.380631 382.84 
L 356.380631 107.462641 
L 354.149388 107.462641 
z
" clip-path="url(#p2257ceee62)" style="fill: #1f77b4"/>
   </g>
   <g id="patch_121">
    <path d="M 356.380631 382.84 
L 358.611873 382.84 
L 358.611873 382.84 
L 356.380631 382.84 
z
" clip-path="url(#p2257ceee62)" style="fill: #1f77b4"/>
   </g>
   <g id="patch_122">
    <path d="M 358.611873 382.84 
L 360.843116 382.84 
L 360.843116 126.237568 
L 358.611873 126.237568 
z
" clip-path="url(#p2257ceee62)" style="fill: #1f77b4"/>
   </g>
   <g id="patch_123">
    <path d="M 360.843116 382.84 
L 363.074359 382.84 
L 363.074359 382.84 
L 360.843116 382.84 
z
" clip-path="url(#p2257ceee62)" style="fill: #1f77b4"/>
   </g>
   <g id="patch_124">
    <path d="M 363.074359 382.84 
L 365.305602 382.84 
L 365.305602 140.918714 
L 363.074359 140.918714 
z
" clip-path="url(#p2257ceee62)" style="fill: #1f77b4"/>
   </g>
   <g id="patch_125">
    <path d="M 365.305602 382.84 
L 367.536844 382.84 
L 367.536844 382.84 
L 365.305602 382.84 
z
" clip-path="url(#p2257ceee62)" style="fill: #1f77b4"/>
   </g>
   <g id="patch_126">
    <path d="M 367.536844 382.84 
L 369.768087 382.84 
L 369.768087 382.84 
L 367.536844 382.84 
z
" clip-path="url(#p2257ceee62)" style="fill: #1f77b4"/>
   </g>
   <g id="patch_127">
    <path d="M 369.768087 382.84 
L 371.99933 382.84 
L 371.99933 162.693394 
L 369.768087 162.693394 
z
" clip-path="url(#p2257ceee62)" style="fill: #1f77b4"/>
   </g>
   <g id="patch_128">
    <path d="M 371.99933 382.84 
L 374.230572 382.84 
L 374.230572 382.84 
L 371.99933 382.84 
z
" clip-path="url(#p2257ceee62)" style="fill: #1f77b4"/>
   </g>
   <g id="patch_129">
    <path d="M 374.230572 382.84 
L 376.461815 382.84 
L 376.461815 181.680068 
L 374.230572 181.680068 
z
" clip-path="url(#p2257ceee62)" style="fill: #1f77b4"/>
   </g>
   <g id="patch_130">
    <path d="M 376.461815 382.84 
L 378.693058 382.84 
L 378.693058 382.84 
L 376.461815 382.84 
z
" clip-path="url(#p2257ceee62)" style="fill: #1f77b4"/>
   </g>
   <g id="patch_131">
    <path d="M 378.693058 382.84 
L 380.924301 382.84 
L 380.924301 197.878736 
L 378.693058 197.878736 
z
" clip-path="url(#p2257ceee62)" style="fill: #1f77b4"/>
   </g>
   <g id="patch_132">
    <path d="M 380.924301 382.84 
L 383.155543 382.84 
L 383.155543 382.84 
L 380.924301 382.84 
z
" clip-path="url(#p2257ceee62)" style="fill: #1f77b4"/>
   </g>
   <g id="patch_133">
    <path d="M 383.155543 382.84 
L 385.386786 382.84 
L 385.386786 213.089251 
L 383.155543 213.089251 
z
" clip-path="url(#p2257ceee62)" style="fill: #1f77b4"/>
   </g>
   <g id="patch_134">
    <path d="M 385.386786 382.84 
L 387.618029 382.84 
L 387.618029 382.84 
L 385.386786 382.84 
z
" clip-path="url(#p2257ceee62)" style="fill: #1f77b4"/>
   </g>
   <g id="patch_135">
    <path d="M 387.618029 382.84 
L 389.849272 382.84 
L 389.849272 228.793842 
L 387.618029 228.793842 
z
" clip-path="url(#p2257ceee62)" style="fill: #1f77b4"/>
   </g>
   <g id="patch_136">
    <path d="M 389.849272 382.84 
L 392.080514 382.84 
L 392.080514 382.84 
L 389.849272 382.84 
z
" clip-path="url(#p2257ceee62)" style="fill: #1f77b4"/>
   </g>
   <g id="patch_137">
    <path d="M 392.080514 382.84 
L 394.311757 382.84 
L 394.311757 243.157367 
L 392.080514 243.157367 
z
" clip-path="url(#p2257ceee62)" style="fill: #1f77b4"/>
   </g>
   <g id="patch_138">
    <path d="M 394.311757 382.84 
L 396.543 382.84 
L 396.543 382.84 
L 394.311757 382.84 
z
" clip-path="url(#p2257ceee62)" style="fill: #1f77b4"/>
   </g>
   <g id="patch_139">
    <path d="M 396.543 382.84 
L 398.774242 382.84 
L 398.774242 263.55569 
L 396.543 263.55569 
z
" clip-path="url(#p2257ceee62)" style="fill: #1f77b4"/>
   </g>
   <g id="patch_140">
    <path d="M 398.774242 382.84 
L 401.005485 382.84 
L 401.005485 382.84 
L 398.774242 382.84 
z
" clip-path="url(#p2257ceee62)" style="fill: #1f77b4"/>
   </g>
   <g id="patch_141">
    <path d="M 401.005485 382.84 
L 403.236728 382.84 
L 403.236728 280.813094 
L 401.005485 280.813094 
z
" clip-path="url(#p2257ceee62)" style="fill: #1f77b4"/>
   </g>
   <g id="patch_142">
    <path d="M 403.236728 382.84 
L 405.467971 382.84 
L 405.467971 382.84 
L 403.236728 382.84 
z
" clip-path="url(#p2257ceee62)" style="fill: #1f77b4"/>
   </g>
   <g id="patch_143">
    <path d="M 405.467971 382.84 
L 407.699213 382.84 
L 407.699213 382.84 
L 405.467971 382.84 
z
" clip-path="url(#p2257ceee62)" style="fill: #1f77b4"/>
   </g>
   <g id="patch_144">
    <path d="M 407.699213 382.84 
L 409.930456 382.84 
L 409.930456 292.529778 
L 407.699213 292.529778 
z
" clip-path="url(#p2257ceee62)" style="fill: #1f77b4"/>
   </g>
   <g id="patch_145">
    <path d="M 409.930456 382.84 
L 412.161699 382.84 
L 412.161699 382.84 
L 409.930456 382.84 
z
" clip-path="url(#p2257ceee62)" style="fill: #1f77b4"/>
   </g>
   <g id="patch_146">
    <path d="M 412.161699 382.84 
L 414.392942 382.84 
L 414.392942 302.481901 
L 412.161699 302.481901 
z
" clip-path="url(#p2257ceee62)" style="fill: #1f77b4"/>
   </g>
   <g id="patch_147">
    <path d="M 414.392942 382.84 
L 416.624184 382.84 
L 416.624184 382.84 
L 414.392942 382.84 
z
" clip-path="url(#p2257ceee62)" style="fill: #1f77b4"/>
   </g>
   <g id="patch_148">
    <path d="M 416.624184 382.84 
L 418.855427 382.84 
L 418.855427 317.410085 
L 416.624184 317.410085 
z
" clip-path="url(#p2257ceee62)" style="fill: #1f77b4"/>
   </g>
   <g id="patch_149">
    <path d="M 418.855427 382.84 
L 421.08667 382.84 
L 421.08667 382.84 
L 418.855427 382.84 
z
" clip-path="url(#p2257ceee62)" style="fill: #1f77b4"/>
   </g>
   <g id="patch_150">
    <path d="M 421.08667 382.84 
L 423.317912 382.84 
L 423.317912 327.71512 
L 421.08667 327.71512 
z
" clip-path="url(#p2257ceee62)" style="fill: #1f77b4"/>
   </g>
   <g id="patch_151">
    <path d="M 423.317912 382.84 
L 425.549155 382.84 
L 425.549155 382.84 
L 423.317912 382.84 
z
" clip-path="url(#p2257ceee62)" style="fill: #1f77b4"/>
   </g>
   <g id="patch_152">
    <path d="M 425.549155 382.84 
L 427.780398 382.84 
L 427.780398 337.27904 
L 425.549155 337.27904 
z
" clip-path="url(#p2257ceee62)" style="fill: #1f77b4"/>
   </g>
   <g id="patch_153">
    <path d="M 427.780398 382.84 
L 430.011641 382.84 
L 430.011641 382.84 
L 427.780398 382.84 
z
" clip-path="url(#p2257ceee62)" style="fill: #1f77b4"/>
   </g>
   <g id="patch_154">
    <path d="M 430.011641 382.84 
L 432.242883 382.84 
L 432.242883 345.678349 
L 430.011641 345.678349 
z
" clip-path="url(#p2257ceee62)" style="fill: #1f77b4"/>
   </g>
   <g id="patch_155">
    <path d="M 432.242883 382.84 
L 434.474126 382.84 
L 434.474126 382.84 
L 432.242883 382.84 
z
" clip-path="url(#p2257ceee62)" style="fill: #1f77b4"/>
   </g>
   <g id="patch_156">
    <path d="M 434.474126 382.84 
L 436.705369 382.84 
L 436.705369 351.077906 
L 434.474126 351.077906 
z
" clip-path="url(#p2257ceee62)" style="fill: #1f77b4"/>
   </g>
   <g id="patch_157">
    <path d="M 436.705369 382.84 
L 438.936611 382.84 
L 438.936611 382.84 
L 436.705369 382.84 
z
" clip-path="url(#p2257ceee62)" style="fill: #1f77b4"/>
   </g>
   <g id="patch_158">
    <path d="M 438.936611 382.84 
L 441.167854 382.84 
L 441.167854 382.84 
L 438.936611 382.84 
z
" clip-path="url(#p2257ceee62)" style="fill: #1f77b4"/>
   </g>
   <g id="patch_159">
    <path d="M 441.167854 382.84 
L 443.399097 382.84 
L 443.399097 357.60678 
L 441.167854 357.60678 
z
" clip-path="url(#p2257ceee62)" style="fill: #1f77b4"/>
   </g>
   <g id="patch_160">
    <path d="M 443.399097 382.84 
L 445.63034 382.84 
L 445.63034 382.84 
L 443.399097 382.84 
z
" clip-path="url(#p2257ceee62)" style="fill: #1f77b4"/>
   </g>
   <g id="patch_161">
    <path d="M 445.63034 382.84 
L 447.861582 382.84 
L 447.861582 361.912309 
L 445.63034 361.912309 
z
" clip-path="url(#p2257ceee62)" style="fill: #1f77b4"/>
   </g>
   <g id="patch_162">
    <path d="M 447.861582 382.84 
L 450.092825 382.84 
L 450.092825 382.84 
L 447.861582 382.84 
z
" clip-path="url(#p2257ceee62)" style="fill: #1f77b4"/>
   </g>
   <g id="patch_163">
    <path d="M 450.092825 382.84 
L 452.324068 382.84 
L 452.324068 366.782497 
L 450.092825 366.782497 
z
" clip-path="url(#p2257ceee62)" style="fill: #1f77b4"/>
   </g>
   <g id="patch_164">
    <path d="M 452.324068 382.84 
L 454.555311 382.84 
L 454.555311 382.84 
L 452.324068 382.84 
z
" clip-path="url(#p2257ceee62)" style="fill: #1f77b4"/>
   </g>
   <g id="patch_165">
    <path d="M 454.555311 382.84 
L 456.786553 382.84 
L 456.786553 370.770404 
L 454.555311 370.770404 
z
" clip-path="url(#p2257ceee62)" style="fill: #1f77b4"/>
   </g>
   <g id="patch_166">
    <path d="M 456.786553 382.84 
L 459.017796 382.84 
L 459.017796 382.84 
L 456.786553 382.84 
z
" clip-path="url(#p2257ceee62)" style="fill: #1f77b4"/>
   </g>
   <g id="patch_167">
    <path d="M 459.017796 382.84 
L 461.249039 382.84 
L 461.249039 371.899723 
L 459.017796 371.899723 
z
" clip-path="url(#p2257ceee62)" style="fill: #1f77b4"/>
   </g>
   <g id="patch_168">
    <path d="M 461.249039 382.84 
L 463.480281 382.84 
L 463.480281 382.84 
L 461.249039 382.84 
z
" clip-path="url(#p2257ceee62)" style="fill: #1f77b4"/>
   </g>
   <g id="patch_169">
    <path d="M 463.480281 382.84 
L 465.711524 382.84 
L 465.711524 375.075932 
L 463.480281 375.075932 
z
" clip-path="url(#p2257ceee62)" style="fill: #1f77b4"/>
   </g>
   <g id="patch_170">
    <path d="M 465.711524 382.84 
L 467.942767 382.84 
L 467.942767 382.84 
L 465.711524 382.84 
z
" clip-path="url(#p2257ceee62)" style="fill: #1f77b4"/>
   </g>
   <g id="patch_171">
    <path d="M 467.942767 382.84 
L 470.17401 382.84 
L 470.17401 377.33457 
L 467.942767 377.33457 
z
" clip-path="url(#p2257ceee62)" style="fill: #1f77b4"/>
   </g>
   <g id="patch_172">
    <path d="M 470.17401 382.84 
L 472.405252 382.84 
L 472.405252 382.84 
L 470.17401 382.84 
z
" clip-path="url(#p2257ceee62)" style="fill: #1f77b4"/>
   </g>
   <g id="patch_173">
    <path d="M 472.405252 382.84 
L 474.636495 382.84 
L 474.636495 382.84 
L 472.405252 382.84 
z
" clip-path="url(#p2257ceee62)" style="fill: #1f77b4"/>
   </g>
   <g id="patch_174">
    <path d="M 474.636495 382.84 
L 476.867738 382.84 
L 476.867738 378.040395 
L 474.636495 378.040395 
z
" clip-path="url(#p2257ceee62)" style="fill: #1f77b4"/>
   </g>
   <g id="patch_175">
    <path d="M 476.867738 382.84 
L 479.09898 382.84 
L 479.09898 382.84 
L 476.867738 382.84 
z
" clip-path="url(#p2257ceee62)" style="fill: #1f77b4"/>
   </g>
   <g id="patch_176">
    <path d="M 479.09898 382.84 
L 481.330223 382.84 
L 481.330223 379.028549 
L 479.09898 379.028549 
z
" clip-path="url(#p2257ceee62)" style="fill: #1f77b4"/>
   </g>
   <g id="patch_177">
    <path d="M 481.330223 382.84 
L 483.561466 382.84 
L 483.561466 382.84 
L 481.330223 382.84 
z
" clip-path="url(#p2257ceee62)" style="fill: #1f77b4"/>
   </g>
   <g id="patch_178">
    <path d="M 483.561466 382.84 
L 485.792709 382.84 
L 485.792709 380.404906 
L 483.561466 380.404906 
z
" clip-path="url(#p2257ceee62)" style="fill: #1f77b4"/>
   </g>
   <g id="patch_179">
    <path d="M 485.792709 382.84 
L 488.023951 382.84 
L 488.023951 382.84 
L 485.792709 382.84 
z
" clip-path="url(#p2257ceee62)" style="fill: #1f77b4"/>
   </g>
   <g id="patch_180">
    <path d="M 488.023951 382.84 
L 490.255194 382.84 
L 490.255194 380.757818 
L 488.023951 380.757818 
z
" clip-path="url(#p2257ceee62)" style="fill: #1f77b4"/>
   </g>
   <g id="patch_181">
    <path d="M 490.255194 382.84 
L 492.486437 382.84 
L 492.486437 382.84 
L 490.255194 382.84 
z
" clip-path="url(#p2257ceee62)" style="fill: #1f77b4"/>
   </g>
   <g id="patch_182">
    <path d="M 492.486437 382.84 
L 494.71768 382.84 
L 494.71768 381.287186 
L 492.486437 381.287186 
z
" clip-path="url(#p2257ceee62)" style="fill: #1f77b4"/>
   </g>
   <g id="patch_183">
    <path d="M 494.71768 382.84 
L 496.948922 382.84 
L 496.948922 382.84 
L 494.71768 382.84 
z
" clip-path="url(#p2257ceee62)" style="fill: #1f77b4"/>
   </g>
   <g id="patch_184">
    <path d="M 496.948922 382.84 
L 499.180165 382.84 
L 499.180165 381.922428 
L 496.948922 381.922428 
z
" clip-path="url(#p2257ceee62)" style="fill: #1f77b4"/>
   </g>
   <g id="patch_185">
    <path d="M 499.180165 382.84 
L 501.411408 382.84 
L 501.411408 382.84 
L 499.180165 382.84 
z
" clip-path="url(#p2257ceee62)" style="fill: #1f77b4"/>
   </g>
   <g id="patch_186">
    <path d="M 501.411408 382.84 
L 503.64265 382.84 
L 503.64265 382.275341 
L 501.411408 382.275341 
z
" clip-path="url(#p2257ceee62)" style="fill: #1f77b4"/>
   </g>
   <g id="patch_187">
    <path d="M 503.64265 382.84 
L 505.873893 382.84 
L 505.873893 382.84 
L 503.64265 382.84 
z
" clip-path="url(#p2257ceee62)" style="fill: #1f77b4"/>
   </g>
   <g id="patch_188">
    <path d="M 505.873893 382.84 
L 508.105136 382.84 
L 508.105136 382.84 
L 505.873893 382.84 
z
" clip-path="url(#p2257ceee62)" style="fill: #1f77b4"/>
   </g>
   <g id="patch_189">
    <path d="M 508.105136 382.84 
L 510.336379 382.84 
L 510.336379 382.275341 
L 508.105136 382.275341 
z
" clip-path="url(#p2257ceee62)" style="fill: #1f77b4"/>
   </g>
   <g id="patch_190">
    <path d="M 510.336379 382.84 
L 512.567621 382.84 
L 512.567621 382.84 
L 510.336379 382.84 
z
" clip-path="url(#p2257ceee62)" style="fill: #1f77b4"/>
   </g>
   <g id="patch_191">
    <path d="M 512.567621 382.84 
L 514.798864 382.84 
L 514.798864 382.734126 
L 512.567621 382.734126 
z
" clip-path="url(#p2257ceee62)" style="fill: #1f77b4"/>
   </g>
   <g id="patch_192">
    <path d="M 514.798864 382.84 
L 517.030107 382.84 
L 517.030107 382.84 
L 514.798864 382.84 
z
" clip-path="url(#p2257ceee62)" style="fill: #1f77b4"/>
   </g>
   <g id="patch_193">
    <path d="M 517.030107 382.84 
L 519.26135 382.84 
L 519.26135 382.804709 
L 517.030107 382.804709 
z
" clip-path="url(#p2257ceee62)" style="fill: #1f77b4"/>
   </g>
   <g id="patch_194">
    <path d="M 519.26135 382.84 
L 521.492592 382.84 
L 521.492592 382.84 
L 519.26135 382.84 
z
" clip-path="url(#p2257ceee62)" style="fill: #1f77b4"/>
   </g>
   <g id="patch_195">
    <path d="M 521.492592 382.84 
L 523.723835 382.84 
L 523.723835 382.663544 
L 521.492592 382.663544 
z
" clip-path="url(#p2257ceee62)" style="fill: #1f77b4"/>
   </g>
   <g id="patch_196">
    <path d="M 523.723835 382.84 
L 525.955078 382.84 
L 525.955078 382.84 
L 523.723835 382.84 
z
" clip-path="url(#p2257ceee62)" style="fill: #1f77b4"/>
   </g>
   <g id="patch_197">
    <path d="M 525.955078 382.84 
L 528.18632 382.84 
L 528.18632 382.663544 
L 525.955078 382.663544 
z
" clip-path="url(#p2257ceee62)" style="fill: #1f77b4"/>
   </g>
   <g id="patch_198">
    <path d="M 528.18632 382.84 
L 530.417563 382.84 
L 530.417563 382.84 
L 528.18632 382.84 
z
" clip-path="url(#p2257ceee62)" style="fill: #1f77b4"/>
   </g>
   <g id="patch_199">
    <path d="M 530.417563 382.84 
L 532.648806 382.84 
L 532.648806 382.84 
L 530.417563 382.84 
z
" clip-path="url(#p2257ceee62)" style="fill: #1f77b4"/>
   </g>
   <g id="patch_200">
    <path d="M 532.648806 382.84 
L 534.880049 382.84 
L 534.880049 382.84 
L 532.648806 382.84 
z
" clip-path="url(#p2257ceee62)" style="fill: #1f77b4"/>
   </g>
   <g id="patch_201">
    <path d="M 534.880049 382.84 
L 537.111291 382.84 
L 537.111291 382.734126 
L 534.880049 382.734126 
z
" clip-path="url(#p2257ceee62)" style="fill: #1f77b4"/>
   </g>
   <g id="patch_202">
    <path d="M 537.111291 382.84 
L 539.342534 382.84 
L 539.342534 382.84 
L 537.111291 382.84 
z
" clip-path="url(#p2257ceee62)" style="fill: #1f77b4"/>
   </g>
   <g id="patch_203">
    <path d="M 539.342534 382.84 
L 541.573777 382.84 
L 541.573777 382.804709 
L 539.342534 382.804709 
z
" clip-path="url(#p2257ceee62)" style="fill: #1f77b4"/>
   </g>
   <g id="matplotlib.axis_1">
    <g id="xtick_1">
     <g id="line2d_1">
      <defs>
       <path id="m27454149a6" d="M 0 0 
L 0 3.5 
" style="stroke: #000000; stroke-width: 0.8"/>
      </defs>
      <g>
       <use xlink:href="#m27454149a6" x="136.033543" y="382.84" style="stroke: #000000; stroke-width: 0.8"/>
      </g>
     </g>
     <g id="text_1">
      <!-- −12 -->
      <g transform="translate(125.4812 397.438438) scale(0.1 -0.1)">
       <defs>
        <path id="DejaVuSans-2212" d="M 678 2272 
L 4684 2272 
L 4684 1741 
L 678 1741 
L 678 2272 
z
" transform="scale(0.015625)"/>
        <path id="DejaVuSans-31" d="M 794 531 
L 1825 531 
L 1825 4091 
L 703 3866 
L 703 4441 
L 1819 4666 
L 2450 4666 
L 2450 531 
L 3481 531 
L 3481 0 
L 794 0 
L 794 531 
z
" transform="scale(0.015625)"/>
        <path id="DejaVuSans-32" d="M 1228 531 
L 3431 531 
L 3431 0 
L 469 0 
L 469 531 
Q 828 903 1448 1529 
Q 2069 2156 2228 2338 
Q 2531 2678 2651 2914 
Q 2772 3150 2772 3378 
Q 2772 3750 2511 3984 
Q 2250 4219 1831 4219 
Q 1534 4219 1204 4116 
Q 875 4013 500 3803 
L 500 4441 
Q 881 4594 1212 4672 
Q 1544 4750 1819 4750 
Q 2544 4750 2975 4387 
Q 3406 4025 3406 3419 
Q 3406 3131 3298 2873 
Q 3191 2616 2906 2266 
Q 2828 2175 2409 1742 
Q 1991 1309 1228 531 
z
" transform="scale(0.015625)"/>
       </defs>
       <use xlink:href="#DejaVuSans-2212"/>
       <use xlink:href="#DejaVuSans-31" x="83.789062"/>
       <use xlink:href="#DejaVuSans-32" x="147.412109"/>
      </g>
     </g>
    </g>
    <g id="xtick_2">
     <g id="line2d_2">
      <g>
       <use xlink:href="#m27454149a6" x="231.454775" y="382.84" style="stroke: #000000; stroke-width: 0.8"/>
      </g>
     </g>
     <g id="text_2">
      <!-- −10 -->
      <g transform="translate(220.902431 397.438438) scale(0.1 -0.1)">
       <defs>
        <path id="DejaVuSans-30" d="M 2034 4250 
Q 1547 4250 1301 3770 
Q 1056 3291 1056 2328 
Q 1056 1369 1301 889 
Q 1547 409 2034 409 
Q 2525 409 2770 889 
Q 3016 1369 3016 2328 
Q 3016 3291 2770 3770 
Q 2525 4250 2034 4250 
z
M 2034 4750 
Q 2819 4750 3233 4129 
Q 3647 3509 3647 2328 
Q 3647 1150 3233 529 
Q 2819 -91 2034 -91 
Q 1250 -91 836 529 
Q 422 1150 422 2328 
Q 422 3509 836 4129 
Q 1250 4750 2034 4750 
z
" transform="scale(0.015625)"/>
       </defs>
       <use xlink:href="#DejaVuSans-2212"/>
       <use xlink:href="#DejaVuSans-31" x="83.789062"/>
       <use xlink:href="#DejaVuSans-30" x="147.412109"/>
      </g>
     </g>
    </g>
    <g id="xtick_3">
     <g id="line2d_3">
      <g>
       <use xlink:href="#m27454149a6" x="326.876006" y="382.84" style="stroke: #000000; stroke-width: 0.8"/>
      </g>
     </g>
     <g id="text_3">
      <!-- −8 -->
      <g transform="translate(319.504912 397.438438) scale(0.1 -0.1)">
       <defs>
        <path id="DejaVuSans-38" d="M 2034 2216 
Q 1584 2216 1326 1975 
Q 1069 1734 1069 1313 
Q 1069 891 1326 650 
Q 1584 409 2034 409 
Q 2484 409 2743 651 
Q 3003 894 3003 1313 
Q 3003 1734 2745 1975 
Q 2488 2216 2034 2216 
z
M 1403 2484 
Q 997 2584 770 2862 
Q 544 3141 544 3541 
Q 544 4100 942 4425 
Q 1341 4750 2034 4750 
Q 2731 4750 3128 4425 
Q 3525 4100 3525 3541 
Q 3525 3141 3298 2862 
Q 3072 2584 2669 2484 
Q 3125 2378 3379 2068 
Q 3634 1759 3634 1313 
Q 3634 634 3220 271 
Q 2806 -91 2034 -91 
Q 1263 -91 848 271 
Q 434 634 434 1313 
Q 434 1759 690 2068 
Q 947 2378 1403 2484 
z
M 1172 3481 
Q 1172 3119 1398 2916 
Q 1625 2713 2034 2713 
Q 2441 2713 2670 2916 
Q 2900 3119 2900 3481 
Q 2900 3844 2670 4047 
Q 2441 4250 2034 4250 
Q 1625 4250 1398 4047 
Q 1172 3844 1172 3481 
z
" transform="scale(0.015625)"/>
       </defs>
       <use xlink:href="#DejaVuSans-2212"/>
       <use xlink:href="#DejaVuSans-38" x="83.789062"/>
      </g>
     </g>
    </g>
    <g id="xtick_4">
     <g id="line2d_4">
      <g>
       <use xlink:href="#m27454149a6" x="422.297238" y="382.84" style="stroke: #000000; stroke-width: 0.8"/>
      </g>
     </g>
     <g id="text_4">
      <!-- −6 -->
      <g transform="translate(414.926144 397.438438) scale(0.1 -0.1)">
       <defs>
        <path id="DejaVuSans-36" d="M 2113 2584 
Q 1688 2584 1439 2293 
Q 1191 2003 1191 1497 
Q 1191 994 1439 701 
Q 1688 409 2113 409 
Q 2538 409 2786 701 
Q 3034 994 3034 1497 
Q 3034 2003 2786 2293 
Q 2538 2584 2113 2584 
z
M 3366 4563 
L 3366 3988 
Q 3128 4100 2886 4159 
Q 2644 4219 2406 4219 
Q 1781 4219 1451 3797 
Q 1122 3375 1075 2522 
Q 1259 2794 1537 2939 
Q 1816 3084 2150 3084 
Q 2853 3084 3261 2657 
Q 3669 2231 3669 1497 
Q 3669 778 3244 343 
Q 2819 -91 2113 -91 
Q 1303 -91 875 529 
Q 447 1150 447 2328 
Q 447 3434 972 4092 
Q 1497 4750 2381 4750 
Q 2619 4750 2861 4703 
Q 3103 4656 3366 4563 
z
" transform="scale(0.015625)"/>
       </defs>
       <use xlink:href="#DejaVuSans-2212"/>
       <use xlink:href="#DejaVuSans-36" x="83.789062"/>
      </g>
     </g>
    </g>
    <g id="xtick_5">
     <g id="line2d_5">
      <g>
       <use xlink:href="#m27454149a6" x="517.718469" y="382.84" style="stroke: #000000; stroke-width: 0.8"/>
      </g>
     </g>
     <g id="text_5">
      <!-- −4 -->
      <g transform="translate(510.347375 397.438438) scale(0.1 -0.1)">
       <defs>
        <path id="DejaVuSans-34" d="M 2419 4116 
L 825 1625 
L 2419 1625 
L 2419 4116 
z
M 2253 4666 
L 3047 4666 
L 3047 1625 
L 3713 1625 
L 3713 1100 
L 3047 1100 
L 3047 0 
L 2419 0 
L 2419 1100 
L 313 1100 
L 313 1709 
L 2253 4666 
z
" transform="scale(0.015625)"/>
       </defs>
       <use xlink:href="#DejaVuSans-2212"/>
       <use xlink:href="#DejaVuSans-34" x="83.789062"/>
      </g>
     </g>
    </g>
    <g id="text_6">
     <!-- KIT -->
     <g transform="translate(303.279821 417.195312) scale(0.18 -0.18)">
      <defs>
       <path id="DejaVuSans-4b" d="M 628 4666 
L 1259 4666 
L 1259 2694 
L 3353 4666 
L 4166 4666 
L 1850 2491 
L 4331 0 
L 3500 0 
L 1259 2247 
L 1259 0 
L 628 0 
L 628 4666 
z
" transform="scale(0.015625)"/>
       <path id="DejaVuSans-49" d="M 628 4666 
L 1259 4666 
L 1259 0 
L 628 0 
L 628 4666 
z
" transform="scale(0.015625)"/>
       <path id="DejaVuSans-54" d="M -19 4666 
L 3928 4666 
L 3928 4134 
L 2272 4134 
L 2272 0 
L 1638 0 
L 1638 4134 
L -19 4134 
L -19 4666 
z
" transform="scale(0.015625)"/>
      </defs>
      <use xlink:href="#DejaVuSans-4b"/>
      <use xlink:href="#DejaVuSans-49" x="65.576172"/>
      <use xlink:href="#DejaVuSans-54" x="95.068359"/>
     </g>
    </g>
   </g>
   <g id="matplotlib.axis_2">
    <g id="ytick_1">
     <g id="line2d_6">
      <defs>
       <path id="m0c31e8d3ff" d="M 0 0 
L -3.5 0 
" style="stroke: #000000; stroke-width: 0.8"/>
      </defs>
      <g>
       <use xlink:href="#m0c31e8d3ff" x="70.67" y="382.84" style="stroke: #000000; stroke-width: 0.8"/>
      </g>
     </g>
     <g id="text_7">
      <!-- 0 -->
      <g transform="translate(57.3075 386.639219) scale(0.1 -0.1)">
       <use xlink:href="#DejaVuSans-30"/>
      </g>
     </g>
    </g>
    <g id="ytick_2">
     <g id="line2d_7">
      <g>
       <use xlink:href="#m0c31e8d3ff" x="70.67" y="312.257568" style="stroke: #000000; stroke-width: 0.8"/>
      </g>
     </g>
     <g id="text_8">
      <!-- 2000 -->
      <g transform="translate(38.22 316.056787) scale(0.1 -0.1)">
       <use xlink:href="#DejaVuSans-32"/>
       <use xlink:href="#DejaVuSans-30" x="63.623047"/>
       <use xlink:href="#DejaVuSans-30" x="127.246094"/>
       <use xlink:href="#DejaVuSans-30" x="190.869141"/>
      </g>
     </g>
    </g>
    <g id="ytick_3">
     <g id="line2d_8">
      <g>
       <use xlink:href="#m0c31e8d3ff" x="70.67" y="241.675136" style="stroke: #000000; stroke-width: 0.8"/>
      </g>
     </g>
     <g id="text_9">
      <!-- 4000 -->
      <g transform="translate(38.22 245.474354) scale(0.1 -0.1)">
       <use xlink:href="#DejaVuSans-34"/>
       <use xlink:href="#DejaVuSans-30" x="63.623047"/>
       <use xlink:href="#DejaVuSans-30" x="127.246094"/>
       <use xlink:href="#DejaVuSans-30" x="190.869141"/>
      </g>
     </g>
    </g>
    <g id="ytick_4">
     <g id="line2d_9">
      <g>
       <use xlink:href="#m0c31e8d3ff" x="70.67" y="171.092703" style="stroke: #000000; stroke-width: 0.8"/>
      </g>
     </g>
     <g id="text_10">
      <!-- 6000 -->
      <g transform="translate(38.22 174.891922) scale(0.1 -0.1)">
       <use xlink:href="#DejaVuSans-36"/>
       <use xlink:href="#DejaVuSans-30" x="63.623047"/>
       <use xlink:href="#DejaVuSans-30" x="127.246094"/>
       <use xlink:href="#DejaVuSans-30" x="190.869141"/>
      </g>
     </g>
    </g>
    <g id="ytick_5">
     <g id="line2d_10">
      <g>
       <use xlink:href="#m0c31e8d3ff" x="70.67" y="100.510271" style="stroke: #000000; stroke-width: 0.8"/>
      </g>
     </g>
     <g id="text_11">
      <!-- 8000 -->
      <g transform="translate(38.22 104.30949) scale(0.1 -0.1)">
       <use xlink:href="#DejaVuSans-38"/>
       <use xlink:href="#DejaVuSans-30" x="63.623047"/>
       <use xlink:href="#DejaVuSans-30" x="127.246094"/>
       <use xlink:href="#DejaVuSans-30" x="190.869141"/>
      </g>
     </g>
    </g>
    <g id="ytick_6">
     <g id="line2d_11">
      <g>
       <use xlink:href="#m0c31e8d3ff" x="70.67" y="29.927839" style="stroke: #000000; stroke-width: 0.8"/>
      </g>
     </g>
     <g id="text_12">
      <!-- 10000 -->
      <g transform="translate(31.8575 33.727058) scale(0.1 -0.1)">
       <use xlink:href="#DejaVuSans-31"/>
       <use xlink:href="#DejaVuSans-30" x="63.623047"/>
       <use xlink:href="#DejaVuSans-30" x="127.246094"/>
       <use xlink:href="#DejaVuSans-30" x="190.869141"/>
       <use xlink:href="#DejaVuSans-30" x="254.492188"/>
      </g>
     </g>
    </g>
    <g id="text_13">
     <!-- Count -->
     <g transform="translate(24.114063 223.547188) rotate(-90) scale(0.18 -0.18)">
      <defs>
       <path id="DejaVuSans-43" d="M 4122 4306 
L 4122 3641 
Q 3803 3938 3442 4084 
Q 3081 4231 2675 4231 
Q 1875 4231 1450 3742 
Q 1025 3253 1025 2328 
Q 1025 1406 1450 917 
Q 1875 428 2675 428 
Q 3081 428 3442 575 
Q 3803 722 4122 1019 
L 4122 359 
Q 3791 134 3420 21 
Q 3050 -91 2638 -91 
Q 1578 -91 968 557 
Q 359 1206 359 2328 
Q 359 3453 968 4101 
Q 1578 4750 2638 4750 
Q 3056 4750 3426 4639 
Q 3797 4528 4122 4306 
z
" transform="scale(0.015625)"/>
       <path id="DejaVuSans-6f" d="M 1959 3097 
Q 1497 3097 1228 2736 
Q 959 2375 959 1747 
Q 959 1119 1226 758 
Q 1494 397 1959 397 
Q 2419 397 2687 759 
Q 2956 1122 2956 1747 
Q 2956 2369 2687 2733 
Q 2419 3097 1959 3097 
z
M 1959 3584 
Q 2709 3584 3137 3096 
Q 3566 2609 3566 1747 
Q 3566 888 3137 398 
Q 2709 -91 1959 -91 
Q 1206 -91 779 398 
Q 353 888 353 1747 
Q 353 2609 779 3096 
Q 1206 3584 1959 3584 
z
" transform="scale(0.015625)"/>
       <path id="DejaVuSans-75" d="M 544 1381 
L 544 3500 
L 1119 3500 
L 1119 1403 
Q 1119 906 1312 657 
Q 1506 409 1894 409 
Q 2359 409 2629 706 
Q 2900 1003 2900 1516 
L 2900 3500 
L 3475 3500 
L 3475 0 
L 2900 0 
L 2900 538 
Q 2691 219 2414 64 
Q 2138 -91 1772 -91 
Q 1169 -91 856 284 
Q 544 659 544 1381 
z
M 1991 3584 
L 1991 3584 
z
" transform="scale(0.015625)"/>
       <path id="DejaVuSans-6e" d="M 3513 2113 
L 3513 0 
L 2938 0 
L 2938 2094 
Q 2938 2591 2744 2837 
Q 2550 3084 2163 3084 
Q 1697 3084 1428 2787 
Q 1159 2491 1159 1978 
L 1159 0 
L 581 0 
L 581 3500 
L 1159 3500 
L 1159 2956 
Q 1366 3272 1645 3428 
Q 1925 3584 2291 3584 
Q 2894 3584 3203 3211 
Q 3513 2838 3513 2113 
z
" transform="scale(0.015625)"/>
       <path id="DejaVuSans-74" d="M 1172 4494 
L 1172 3500 
L 2356 3500 
L 2356 3053 
L 1172 3053 
L 1172 1153 
Q 1172 725 1289 603 
Q 1406 481 1766 481 
L 2356 481 
L 2356 0 
L 1766 0 
Q 1100 0 847 248 
Q 594 497 594 1153 
L 594 3053 
L 172 3053 
L 172 3500 
L 594 3500 
L 594 4494 
L 1172 4494 
z
" transform="scale(0.015625)"/>
      </defs>
      <use xlink:href="#DejaVuSans-43"/>
      <use xlink:href="#DejaVuSans-6f" x="69.824219"/>
      <use xlink:href="#DejaVuSans-75" x="131.005859"/>
      <use xlink:href="#DejaVuSans-6e" x="194.384766"/>
      <use xlink:href="#DejaVuSans-74" x="257.763672"/>
     </g>
    </g>
   </g>
   <g id="line2d_12">
    <path d="M 274.394329 382.84 
L 274.394329 28.51619 
" clip-path="url(#p2257ceee62)" style="fill: none; stroke: #ff0000; stroke-width: 1.6; stroke-linecap: square"/>
   </g>
   <g id="patch_204">
    <path d="M 70.67 382.84 
L 70.67 10.8 
" style="fill: none; stroke: #000000; stroke-width: 0.8; stroke-linejoin: miter; stroke-linecap: square"/>
   </g>
   <g id="patch_205">
    <path d="M 563.997766 382.84 
L 563.997766 10.8 
" style="fill: none; stroke: #000000; stroke-width: 0.8; stroke-linejoin: miter; stroke-linecap: square"/>
   </g>
   <g id="patch_206">
    <path d="M 70.67 382.84 
L 563.997766 382.84 
" style="fill: none; stroke: #000000; stroke-width: 0.8; stroke-linejoin: miter; stroke-linecap: square"/>
   </g>
   <g id="patch_207">
    <path d="M 70.67 10.8 
L 563.997766 10.8 
" style="fill: none; stroke: #000000; stroke-width: 0.8; stroke-linejoin: miter; stroke-linecap: square"/>
   </g>
   <g id="text_14">
    <!-- $\mu_3 = -8.048$ -->
    <g transform="translate(415.999436 61.649937) scale(0.21 -0.21)">
     <defs>
      <path id="DejaVuSans-Oblique-3bc" d="M -84 -1331 
L 856 3500 
L 1434 3500 
L 1009 1322 
Q 997 1256 987 1175 
Q 978 1094 978 1013 
Q 978 722 1161 565 
Q 1344 409 1684 409 
Q 2147 409 2431 671 
Q 2716 934 2816 1459 
L 3213 3500 
L 3788 3500 
L 3266 809 
Q 3253 750 3248 706 
Q 3244 663 3244 628 
Q 3244 531 3283 486 
Q 3322 441 3406 441 
Q 3438 441 3492 456 
Q 3547 472 3647 513 
L 3559 50 
Q 3422 -19 3297 -55 
Q 3172 -91 3053 -91 
Q 2847 -91 2730 40 
Q 2613 172 2613 403 
Q 2438 153 2195 31 
Q 1953 -91 1625 -91 
Q 1334 -91 1117 43 
Q 900 178 831 397 
L 494 -1331 
L -84 -1331 
z
" transform="scale(0.015625)"/>
      <path id="DejaVuSans-33" d="M 2597 2516 
Q 3050 2419 3304 2112 
Q 3559 1806 3559 1356 
Q 3559 666 3084 287 
Q 2609 -91 1734 -91 
Q 1441 -91 1130 -33 
Q 819 25 488 141 
L 488 750 
Q 750 597 1062 519 
Q 1375 441 1716 441 
Q 2309 441 2620 675 
Q 2931 909 2931 1356 
Q 2931 1769 2642 2001 
Q 2353 2234 1838 2234 
L 1294 2234 
L 1294 2753 
L 1863 2753 
Q 2328 2753 2575 2939 
Q 2822 3125 2822 3475 
Q 2822 3834 2567 4026 
Q 2313 4219 1838 4219 
Q 1578 4219 1281 4162 
Q 984 4106 628 3988 
L 628 4550 
Q 988 4650 1302 4700 
Q 1616 4750 1894 4750 
Q 2613 4750 3031 4423 
Q 3450 4097 3450 3541 
Q 3450 3153 3228 2886 
Q 3006 2619 2597 2516 
z
" transform="scale(0.015625)"/>
      <path id="DejaVuSans-3d" d="M 678 2906 
L 4684 2906 
L 4684 2381 
L 678 2381 
L 678 2906 
z
M 678 1631 
L 4684 1631 
L 4684 1100 
L 678 1100 
L 678 1631 
z
" transform="scale(0.015625)"/>
      <path id="DejaVuSans-2e" d="M 684 794 
L 1344 794 
L 1344 0 
L 684 0 
L 684 794 
z
" transform="scale(0.015625)"/>
     </defs>
     <use xlink:href="#DejaVuSans-Oblique-3bc" transform="translate(0 0.78125)"/>
     <use xlink:href="#DejaVuSans-33" transform="translate(63.623047 -15.625) scale(0.7)"/>
     <use xlink:href="#DejaVuSans-3d" transform="translate(130.375977 0.78125)"/>
     <use xlink:href="#DejaVuSans-2212" transform="translate(253.129883 0.78125)"/>
     <use xlink:href="#DejaVuSans-38" transform="translate(356.401367 0.78125)"/>
     <use xlink:href="#DejaVuSans-2e" transform="translate(420.024414 0.78125)"/>
     <use xlink:href="#DejaVuSans-30" transform="translate(451.811523 0.78125)"/>
     <use xlink:href="#DejaVuSans-34" transform="translate(515.43457 0.78125)"/>
     <use xlink:href="#DejaVuSans-38" transform="translate(579.057617 0.78125)"/>
    </g>
    <!-- $\sigma_3 = 1.055$ -->
    <g transform="translate(415.999436 85.208) scale(0.21 -0.21)">
     <defs>
      <path id="DejaVuSans-Oblique-3c3" d="M 2219 3044 
Q 1744 3044 1422 2700 
Q 1081 2341 969 1747 
Q 844 1119 1044 756 
Q 1241 397 1706 397 
Q 2166 397 2503 759 
Q 2844 1122 2966 1747 
Q 3075 2319 2881 2700 
Q 2700 3044 2219 3044 
z
M 2309 3503 
L 4219 3500 
L 4106 2925 
L 3463 2925 
Q 3706 2438 3575 1747 
Q 3406 888 2884 400 
Q 2359 -91 1609 -91 
Q 856 -91 525 400 
Q 194 888 363 1747 
Q 528 2609 1050 3097 
Q 1484 3503 2309 3503 
z
" transform="scale(0.015625)"/>
      <path id="DejaVuSans-35" d="M 691 4666 
L 3169 4666 
L 3169 4134 
L 1269 4134 
L 1269 2991 
Q 1406 3038 1543 3061 
Q 1681 3084 1819 3084 
Q 2600 3084 3056 2656 
Q 3513 2228 3513 1497 
Q 3513 744 3044 326 
Q 2575 -91 1722 -91 
Q 1428 -91 1123 -41 
Q 819 9 494 109 
L 494 744 
Q 775 591 1075 516 
Q 1375 441 1709 441 
Q 2250 441 2565 725 
Q 2881 1009 2881 1497 
Q 2881 1984 2565 2268 
Q 2250 2553 1709 2553 
Q 1456 2553 1204 2497 
Q 953 2441 691 2322 
L 691 4666 
z
" transform="scale(0.015625)"/>
     </defs>
     <use xlink:href="#DejaVuSans-Oblique-3c3" transform="translate(0 0.78125)"/>
     <use xlink:href="#DejaVuSans-33" transform="translate(63.378906 -15.625) scale(0.7)"/>
     <use xlink:href="#DejaVuSans-3d" transform="translate(130.131836 0.78125)"/>
     <use xlink:href="#DejaVuSans-31" transform="translate(233.40332 0.78125)"/>
     <use xlink:href="#DejaVuSans-2e" transform="translate(297.026367 0.78125)"/>
     <use xlink:href="#DejaVuSans-30" transform="translate(328.813477 0.78125)"/>
     <use xlink:href="#DejaVuSans-35" transform="translate(392.436523 0.78125)"/>
     <use xlink:href="#DejaVuSans-35" transform="translate(456.05957 0.78125)"/>
    </g>
   </g>
  </g>
 </g>
 <defs>
  <clipPath id="p2257ceee62">
   <rect x="70.67" y="10.8" width="493.327766" height="372.04"/>
  </clipPath>
 </defs>
</svg>
