<?xml version="1.0" encoding="utf-8" standalone="no"?>
<!DOCTYPE svg PUBLIC "-//W3C//DTD SVG 1.1//EN"
  "http://www.w3.org/Graphics/SVG/1.1/DTD/svg11.dtd">
<svg xmlns:xlink="http://www.w3.org/1999/xlink" width="576pt" height="432pt" viewBox="0 0 576 432" xmlns="http://www.w3.org/2000/svg" version="1.1">
 <metadata>
  <rdf:RDF xmlns:dc="http://purl.org/dc/elements/1.1/" xmlns:cc="http://creativecommons.org/ns#" xmlns:rdf="http://www.w3.org/1999/02/22-rdf-syntax-ns#">
   <cc:Work>
    <dc:type rdf:resource="http://purl.org/dc/dcmitype/StillImage"/>
    <dc:date>2024-09-05T19:41:14.232573</dc:date>
    <dc:format>image/svg+xml</dc:format>
    <dc:creator>
     <cc:Agent>
      <dc:title>Matplotlib v3.7.2, https://matplotlib.org/</dc:title>
     </cc:Agent>
    </dc:creator>
   </cc:Work>
  </rdf:RDF>
 </metadata>
 <defs>
  <style type="text/css">*{stroke-linejoin: round; stroke-linecap: butt}</style>
 </defs>
 <g id="figure_1">
  <g id="patch_1">
   <path d="M 0 432 
L 576 432 
L 576 0 
L 0 0 
z
" style="fill: #ffffff"/>
  </g>
  <g id="axes_1">
   <g id="patch_2">
    <path d="M 70.67 382.84 
L 563.997766 382.84 
L 563.997766 10.8 
L 70.67 10.8 
z
" style="fill: #ffffff"/>
   </g>
   <g id="patch_3">
    <path d="M 93.093989 382.84 
L 94.954901 382.84 
L 94.954901 382.809468 
L 93.093989 382.809468 
z
" clip-path="url(#pccef744dc1)" style="fill: #1f77b4"/>
   </g>
   <g id="patch_4">
    <path d="M 94.954901 382.84 
L 96.815813 382.84 
L 96.815813 382.84 
L 94.954901 382.84 
z
" clip-path="url(#pccef744dc1)" style="fill: #1f77b4"/>
   </g>
   <g id="patch_5">
    <path d="M 96.815813 382.84 
L 98.676725 382.84 
L 98.676725 382.84 
L 96.815813 382.84 
z
" clip-path="url(#pccef744dc1)" style="fill: #1f77b4"/>
   </g>
   <g id="patch_6">
    <path d="M 98.676725 382.84 
L 100.537637 382.84 
L 100.537637 382.84 
L 98.676725 382.84 
z
" clip-path="url(#pccef744dc1)" style="fill: #1f77b4"/>
   </g>
   <g id="patch_7">
    <path d="M 100.537637 382.84 
L 102.398549 382.84 
L 102.398549 382.84 
L 100.537637 382.84 
z
" clip-path="url(#pccef744dc1)" style="fill: #1f77b4"/>
   </g>
   <g id="patch_8">
    <path d="M 102.398549 382.84 
L 104.259461 382.84 
L 104.259461 382.84 
L 102.398549 382.84 
z
" clip-path="url(#pccef744dc1)" style="fill: #1f77b4"/>
   </g>
   <g id="patch_9">
    <path d="M 104.259461 382.84 
L 106.120373 382.84 
L 106.120373 382.84 
L 104.259461 382.84 
z
" clip-path="url(#pccef744dc1)" style="fill: #1f77b4"/>
   </g>
   <g id="patch_10">
    <path d="M 106.120373 382.84 
L 107.981285 382.84 
L 107.981285 382.84 
L 106.120373 382.84 
z
" clip-path="url(#pccef744dc1)" style="fill: #1f77b4"/>
   </g>
   <g id="patch_11">
    <path d="M 107.981285 382.84 
L 109.842197 382.84 
L 109.842197 382.84 
L 107.981285 382.84 
z
" clip-path="url(#pccef744dc1)" style="fill: #1f77b4"/>
   </g>
   <g id="patch_12">
    <path d="M 109.842197 382.84 
L 111.703109 382.84 
L 111.703109 382.809468 
L 109.842197 382.809468 
z
" clip-path="url(#pccef744dc1)" style="fill: #1f77b4"/>
   </g>
   <g id="patch_13">
    <path d="M 111.703109 382.84 
L 113.564021 382.84 
L 113.564021 382.84 
L 111.703109 382.84 
z
" clip-path="url(#pccef744dc1)" style="fill: #1f77b4"/>
   </g>
   <g id="patch_14">
    <path d="M 113.564021 382.84 
L 115.424933 382.84 
L 115.424933 382.84 
L 113.564021 382.84 
z
" clip-path="url(#pccef744dc1)" style="fill: #1f77b4"/>
   </g>
   <g id="patch_15">
    <path d="M 115.424933 382.84 
L 117.285845 382.84 
L 117.285845 382.84 
L 115.424933 382.84 
z
" clip-path="url(#pccef744dc1)" style="fill: #1f77b4"/>
   </g>
   <g id="patch_16">
    <path d="M 117.285845 382.84 
L 119.146757 382.84 
L 119.146757 382.84 
L 117.285845 382.84 
z
" clip-path="url(#pccef744dc1)" style="fill: #1f77b4"/>
   </g>
   <g id="patch_17">
    <path d="M 119.146757 382.84 
L 121.007669 382.84 
L 121.007669 382.84 
L 119.146757 382.84 
z
" clip-path="url(#pccef744dc1)" style="fill: #1f77b4"/>
   </g>
   <g id="patch_18">
    <path d="M 121.007669 382.84 
L 122.868581 382.84 
L 122.868581 382.84 
L 121.007669 382.84 
z
" clip-path="url(#pccef744dc1)" style="fill: #1f77b4"/>
   </g>
   <g id="patch_19">
    <path d="M 122.868581 382.84 
L 124.729493 382.84 
L 124.729493 382.84 
L 122.868581 382.84 
z
" clip-path="url(#pccef744dc1)" style="fill: #1f77b4"/>
   </g>
   <g id="patch_20">
    <path d="M 124.729493 382.84 
L 126.590405 382.84 
L 126.590405 382.84 
L 124.729493 382.84 
z
" clip-path="url(#pccef744dc1)" style="fill: #1f77b4"/>
   </g>
   <g id="patch_21">
    <path d="M 126.590405 382.84 
L 128.451317 382.84 
L 128.451317 382.84 
L 126.590405 382.84 
z
" clip-path="url(#pccef744dc1)" style="fill: #1f77b4"/>
   </g>
   <g id="patch_22">
    <path d="M 128.451317 382.84 
L 130.312229 382.84 
L 130.312229 382.778936 
L 128.451317 382.778936 
z
" clip-path="url(#pccef744dc1)" style="fill: #1f77b4"/>
   </g>
   <g id="patch_23">
    <path d="M 130.312229 382.84 
L 132.173141 382.84 
L 132.173141 382.84 
L 130.312229 382.84 
z
" clip-path="url(#pccef744dc1)" style="fill: #1f77b4"/>
   </g>
   <g id="patch_24">
    <path d="M 132.173141 382.84 
L 134.034053 382.84 
L 134.034053 382.84 
L 132.173141 382.84 
z
" clip-path="url(#pccef744dc1)" style="fill: #1f77b4"/>
   </g>
   <g id="patch_25">
    <path d="M 134.034053 382.84 
L 135.894965 382.84 
L 135.894965 382.84 
L 134.034053 382.84 
z
" clip-path="url(#pccef744dc1)" style="fill: #1f77b4"/>
   </g>
   <g id="patch_26">
    <path d="M 135.894965 382.84 
L 137.755877 382.84 
L 137.755877 382.84 
L 135.894965 382.84 
z
" clip-path="url(#pccef744dc1)" style="fill: #1f77b4"/>
   </g>
   <g id="patch_27">
    <path d="M 137.755877 382.84 
L 139.616789 382.84 
L 139.616789 382.778936 
L 137.755877 382.778936 
z
" clip-path="url(#pccef744dc1)" style="fill: #1f77b4"/>
   </g>
   <g id="patch_28">
    <path d="M 139.616789 382.84 
L 141.477701 382.84 
L 141.477701 382.84 
L 139.616789 382.84 
z
" clip-path="url(#pccef744dc1)" style="fill: #1f77b4"/>
   </g>
   <g id="patch_29">
    <path d="M 141.477701 382.84 
L 143.338613 382.84 
L 143.338613 382.84 
L 141.477701 382.84 
z
" clip-path="url(#pccef744dc1)" style="fill: #1f77b4"/>
   </g>
   <g id="patch_30">
    <path d="M 143.338613 382.84 
L 145.199525 382.84 
L 145.199525 382.84 
L 143.338613 382.84 
z
" clip-path="url(#pccef744dc1)" style="fill: #1f77b4"/>
   </g>
   <g id="patch_31">
    <path d="M 145.199525 382.84 
L 147.060437 382.84 
L 147.060437 382.84 
L 145.199525 382.84 
z
" clip-path="url(#pccef744dc1)" style="fill: #1f77b4"/>
   </g>
   <g id="patch_32">
    <path d="M 147.060437 382.84 
L 148.921349 382.84 
L 148.921349 382.809468 
L 147.060437 382.809468 
z
" clip-path="url(#pccef744dc1)" style="fill: #1f77b4"/>
   </g>
   <g id="patch_33">
    <path d="M 148.921349 382.84 
L 150.782261 382.84 
L 150.782261 382.84 
L 148.921349 382.84 
z
" clip-path="url(#pccef744dc1)" style="fill: #1f77b4"/>
   </g>
   <g id="patch_34">
    <path d="M 150.782261 382.84 
L 152.643173 382.84 
L 152.643173 382.778936 
L 150.782261 382.778936 
z
" clip-path="url(#pccef744dc1)" style="fill: #1f77b4"/>
   </g>
   <g id="patch_35">
    <path d="M 152.643173 382.84 
L 154.504085 382.84 
L 154.504085 382.84 
L 152.643173 382.84 
z
" clip-path="url(#pccef744dc1)" style="fill: #1f77b4"/>
   </g>
   <g id="patch_36">
    <path d="M 154.504085 382.84 
L 156.364997 382.84 
L 156.364997 382.84 
L 154.504085 382.84 
z
" clip-path="url(#pccef744dc1)" style="fill: #1f77b4"/>
   </g>
   <g id="patch_37">
    <path d="M 156.364997 382.84 
L 158.225909 382.84 
L 158.225909 382.778936 
L 156.364997 382.778936 
z
" clip-path="url(#pccef744dc1)" style="fill: #1f77b4"/>
   </g>
   <g id="patch_38">
    <path d="M 158.225909 382.84 
L 160.086821 382.84 
L 160.086821 382.84 
L 158.225909 382.84 
z
" clip-path="url(#pccef744dc1)" style="fill: #1f77b4"/>
   </g>
   <g id="patch_39">
    <path d="M 160.086821 382.84 
L 161.947733 382.84 
L 161.947733 382.809468 
L 160.086821 382.809468 
z
" clip-path="url(#pccef744dc1)" style="fill: #1f77b4"/>
   </g>
   <g id="patch_40">
    <path d="M 161.947733 382.84 
L 163.808645 382.84 
L 163.808645 382.84 
L 161.947733 382.84 
z
" clip-path="url(#pccef744dc1)" style="fill: #1f77b4"/>
   </g>
   <g id="patch_41">
    <path d="M 163.808645 382.84 
L 165.669557 382.84 
L 165.669557 382.84 
L 163.808645 382.84 
z
" clip-path="url(#pccef744dc1)" style="fill: #1f77b4"/>
   </g>
   <g id="patch_42">
    <path d="M 165.669557 382.84 
L 167.530469 382.84 
L 167.530469 382.565212 
L 165.669557 382.565212 
z
" clip-path="url(#pccef744dc1)" style="fill: #1f77b4"/>
   </g>
   <g id="patch_43">
    <path d="M 167.530469 382.84 
L 169.391381 382.84 
L 169.391381 382.84 
L 167.530469 382.84 
z
" clip-path="url(#pccef744dc1)" style="fill: #1f77b4"/>
   </g>
   <g id="patch_44">
    <path d="M 169.391381 382.84 
L 171.252293 382.84 
L 171.252293 382.565212 
L 169.391381 382.565212 
z
" clip-path="url(#pccef744dc1)" style="fill: #1f77b4"/>
   </g>
   <g id="patch_45">
    <path d="M 171.252293 382.84 
L 173.113205 382.84 
L 173.113205 382.84 
L 171.252293 382.84 
z
" clip-path="url(#pccef744dc1)" style="fill: #1f77b4"/>
   </g>
   <g id="patch_46">
    <path d="M 173.113205 382.84 
L 174.974117 382.84 
L 174.974117 382.84 
L 173.113205 382.84 
z
" clip-path="url(#pccef744dc1)" style="fill: #1f77b4"/>
   </g>
   <g id="patch_47">
    <path d="M 174.974117 382.84 
L 176.835029 382.84 
L 176.835029 382.595744 
L 174.974117 382.595744 
z
" clip-path="url(#pccef744dc1)" style="fill: #1f77b4"/>
   </g>
   <g id="patch_48">
    <path d="M 176.835029 382.84 
L 178.69594 382.84 
L 178.69594 382.84 
L 176.835029 382.84 
z
" clip-path="url(#pccef744dc1)" style="fill: #1f77b4"/>
   </g>
   <g id="patch_49">
    <path d="M 178.69594 382.84 
L 180.556852 382.84 
L 180.556852 382.565212 
L 178.69594 382.565212 
z
" clip-path="url(#pccef744dc1)" style="fill: #1f77b4"/>
   </g>
   <g id="patch_50">
    <path d="M 180.556852 382.84 
L 182.417764 382.84 
L 182.417764 382.84 
L 180.556852 382.84 
z
" clip-path="url(#pccef744dc1)" style="fill: #1f77b4"/>
   </g>
   <g id="patch_51">
    <path d="M 182.417764 382.84 
L 184.278676 382.84 
L 184.278676 382.84 
L 182.417764 382.84 
z
" clip-path="url(#pccef744dc1)" style="fill: #1f77b4"/>
   </g>
   <g id="patch_52">
    <path d="M 184.278676 382.84 
L 186.139588 382.84 
L 186.139588 382.595744 
L 184.278676 382.595744 
z
" clip-path="url(#pccef744dc1)" style="fill: #1f77b4"/>
   </g>
   <g id="patch_53">
    <path d="M 186.139588 382.84 
L 188.0005 382.84 
L 188.0005 382.84 
L 186.139588 382.84 
z
" clip-path="url(#pccef744dc1)" style="fill: #1f77b4"/>
   </g>
   <g id="patch_54">
    <path d="M 188.0005 382.84 
L 189.861412 382.84 
L 189.861412 382.38202 
L 188.0005 382.38202 
z
" clip-path="url(#pccef744dc1)" style="fill: #1f77b4"/>
   </g>
   <g id="patch_55">
    <path d="M 189.861412 382.84 
L 191.722324 382.84 
L 191.722324 382.84 
L 189.861412 382.84 
z
" clip-path="url(#pccef744dc1)" style="fill: #1f77b4"/>
   </g>
   <g id="patch_56">
    <path d="M 191.722324 382.84 
L 193.583236 382.84 
L 193.583236 382.84 
L 191.722324 382.84 
z
" clip-path="url(#pccef744dc1)" style="fill: #1f77b4"/>
   </g>
   <g id="patch_57">
    <path d="M 193.583236 382.84 
L 195.444148 382.84 
L 195.444148 381.954572 
L 193.583236 381.954572 
z
" clip-path="url(#pccef744dc1)" style="fill: #1f77b4"/>
   </g>
   <g id="patch_58">
    <path d="M 195.444148 382.84 
L 197.30506 382.84 
L 197.30506 382.84 
L 195.444148 382.84 
z
" clip-path="url(#pccef744dc1)" style="fill: #1f77b4"/>
   </g>
   <g id="patch_59">
    <path d="M 197.30506 382.84 
L 199.165972 382.84 
L 199.165972 381.893508 
L 197.30506 381.893508 
z
" clip-path="url(#pccef744dc1)" style="fill: #1f77b4"/>
   </g>
   <g id="patch_60">
    <path d="M 199.165972 382.84 
L 201.026884 382.84 
L 201.026884 382.84 
L 199.165972 382.84 
z
" clip-path="url(#pccef744dc1)" style="fill: #1f77b4"/>
   </g>
   <g id="patch_61">
    <path d="M 201.026884 382.84 
L 202.887796 382.84 
L 202.887796 382.84 
L 201.026884 382.84 
z
" clip-path="url(#pccef744dc1)" style="fill: #1f77b4"/>
   </g>
   <g id="patch_62">
    <path d="M 202.887796 382.84 
L 204.748708 382.84 
L 204.748708 380.824888 
L 202.887796 380.824888 
z
" clip-path="url(#pccef744dc1)" style="fill: #1f77b4"/>
   </g>
   <g id="patch_63">
    <path d="M 204.748708 382.84 
L 206.60962 382.84 
L 206.60962 382.84 
L 204.748708 382.84 
z
" clip-path="url(#pccef744dc1)" style="fill: #1f77b4"/>
   </g>
   <g id="patch_64">
    <path d="M 206.60962 382.84 
L 208.470532 382.84 
L 208.470532 380.733292 
L 206.60962 380.733292 
z
" clip-path="url(#pccef744dc1)" style="fill: #1f77b4"/>
   </g>
   <g id="patch_65">
    <path d="M 208.470532 382.84 
L 210.331444 382.84 
L 210.331444 382.84 
L 208.470532 382.84 
z
" clip-path="url(#pccef744dc1)" style="fill: #1f77b4"/>
   </g>
   <g id="patch_66">
    <path d="M 210.331444 382.84 
L 212.192356 382.84 
L 212.192356 379.93946 
L 210.331444 379.93946 
z
" clip-path="url(#pccef744dc1)" style="fill: #1f77b4"/>
   </g>
   <g id="patch_67">
    <path d="M 212.192356 382.84 
L 214.053268 382.84 
L 214.053268 382.84 
L 212.192356 382.84 
z
" clip-path="url(#pccef744dc1)" style="fill: #1f77b4"/>
   </g>
   <g id="patch_68">
    <path d="M 214.053268 382.84 
L 215.91418 382.84 
L 215.91418 382.84 
L 214.053268 382.84 
z
" clip-path="url(#pccef744dc1)" style="fill: #1f77b4"/>
   </g>
   <g id="patch_69">
    <path d="M 215.91418 382.84 
L 217.775092 382.84 
L 217.775092 378.138073 
L 215.91418 378.138073 
z
" clip-path="url(#pccef744dc1)" style="fill: #1f77b4"/>
   </g>
   <g id="patch_70">
    <path d="M 217.775092 382.84 
L 219.636004 382.84 
L 219.636004 382.84 
L 217.775092 382.84 
z
" clip-path="url(#pccef744dc1)" style="fill: #1f77b4"/>
   </g>
   <g id="patch_71">
    <path d="M 219.636004 382.84 
L 221.496916 382.84 
L 221.496916 377.283177 
L 219.636004 377.283177 
z
" clip-path="url(#pccef744dc1)" style="fill: #1f77b4"/>
   </g>
   <g id="patch_72">
    <path d="M 221.496916 382.84 
L 223.357828 382.84 
L 223.357828 382.84 
L 221.496916 382.84 
z
" clip-path="url(#pccef744dc1)" style="fill: #1f77b4"/>
   </g>
   <g id="patch_73">
    <path d="M 223.357828 382.84 
L 225.21874 382.84 
L 225.21874 382.84 
L 223.357828 382.84 
z
" clip-path="url(#pccef744dc1)" style="fill: #1f77b4"/>
   </g>
   <g id="patch_74">
    <path d="M 225.21874 382.84 
L 227.079652 382.84 
L 227.079652 376.184025 
L 225.21874 376.184025 
z
" clip-path="url(#pccef744dc1)" style="fill: #1f77b4"/>
   </g>
   <g id="patch_75">
    <path d="M 227.079652 382.84 
L 228.940564 382.84 
L 228.940564 382.84 
L 227.079652 382.84 
z
" clip-path="url(#pccef744dc1)" style="fill: #1f77b4"/>
   </g>
   <g id="patch_76">
    <path d="M 228.940564 382.84 
L 230.801476 382.84 
L 230.801476 374.779553 
L 228.940564 374.779553 
z
" clip-path="url(#pccef744dc1)" style="fill: #1f77b4"/>
   </g>
   <g id="patch_77">
    <path d="M 230.801476 382.84 
L 232.662388 382.84 
L 232.662388 382.84 
L 230.801476 382.84 
z
" clip-path="url(#pccef744dc1)" style="fill: #1f77b4"/>
   </g>
   <g id="patch_78">
    <path d="M 232.662388 382.84 
L 234.5233 382.84 
L 234.5233 382.84 
L 232.662388 382.84 
z
" clip-path="url(#pccef744dc1)" style="fill: #1f77b4"/>
   </g>
   <g id="patch_79">
    <path d="M 234.5233 382.84 
L 236.384212 382.84 
L 236.384212 371.146246 
L 234.5233 371.146246 
z
" clip-path="url(#pccef744dc1)" style="fill: #1f77b4"/>
   </g>
   <g id="patch_80">
    <path d="M 236.384212 382.84 
L 238.245124 382.84 
L 238.245124 382.84 
L 236.384212 382.84 
z
" clip-path="url(#pccef744dc1)" style="fill: #1f77b4"/>
   </g>
   <g id="patch_81">
    <path d="M 238.245124 382.84 
L 240.106036 382.84 
L 240.106036 368.062514 
L 238.245124 368.062514 
z
" clip-path="url(#pccef744dc1)" style="fill: #1f77b4"/>
   </g>
   <g id="patch_82">
    <path d="M 240.106036 382.84 
L 241.966948 382.84 
L 241.966948 382.84 
L 240.106036 382.84 
z
" clip-path="url(#pccef744dc1)" style="fill: #1f77b4"/>
   </g>
   <g id="patch_83">
    <path d="M 241.966948 382.84 
L 243.82786 382.84 
L 243.82786 382.84 
L 241.966948 382.84 
z
" clip-path="url(#pccef744dc1)" style="fill: #1f77b4"/>
   </g>
   <g id="patch_84">
    <path d="M 243.82786 382.84 
L 245.688772 382.84 
L 245.688772 363.971227 
L 243.82786 363.971227 
z
" clip-path="url(#pccef744dc1)" style="fill: #1f77b4"/>
   </g>
   <g id="patch_85">
    <path d="M 245.688772 382.84 
L 247.549684 382.84 
L 247.549684 382.84 
L 245.688772 382.84 
z
" clip-path="url(#pccef744dc1)" style="fill: #1f77b4"/>
   </g>
   <g id="patch_86">
    <path d="M 247.549684 382.84 
L 249.410596 382.84 
L 249.410596 359.299831 
L 247.549684 359.299831 
z
" clip-path="url(#pccef744dc1)" style="fill: #1f77b4"/>
   </g>
   <g id="patch_87">
    <path d="M 249.410596 382.84 
L 251.271508 382.84 
L 251.271508 382.84 
L 249.410596 382.84 
z
" clip-path="url(#pccef744dc1)" style="fill: #1f77b4"/>
   </g>
   <g id="patch_88">
    <path d="M 251.271508 382.84 
L 253.13242 382.84 
L 253.13242 382.84 
L 251.271508 382.84 
z
" clip-path="url(#pccef744dc1)" style="fill: #1f77b4"/>
   </g>
   <g id="patch_89">
    <path d="M 253.13242 382.84 
L 254.993332 382.84 
L 254.993332 351.819492 
L 253.13242 351.819492 
z
" clip-path="url(#pccef744dc1)" style="fill: #1f77b4"/>
   </g>
   <g id="patch_90">
    <path d="M 254.993332 382.84 
L 256.854244 382.84 
L 256.854244 382.84 
L 254.993332 382.84 
z
" clip-path="url(#pccef744dc1)" style="fill: #1f77b4"/>
   </g>
   <g id="patch_91">
    <path d="M 256.854244 382.84 
L 258.715156 382.84 
L 258.715156 347.575545 
L 256.854244 347.575545 
z
" clip-path="url(#pccef744dc1)" style="fill: #1f77b4"/>
   </g>
   <g id="patch_92">
    <path d="M 258.715156 382.84 
L 260.576068 382.84 
L 260.576068 382.84 
L 258.715156 382.84 
z
" clip-path="url(#pccef744dc1)" style="fill: #1f77b4"/>
   </g>
   <g id="patch_93">
    <path d="M 260.576068 382.84 
L 262.43698 382.84 
L 262.43698 336.980943 
L 260.576068 336.980943 
z
" clip-path="url(#pccef744dc1)" style="fill: #1f77b4"/>
   </g>
   <g id="patch_94">
    <path d="M 262.43698 382.84 
L 264.297892 382.84 
L 264.297892 382.84 
L 262.43698 382.84 
z
" clip-path="url(#pccef744dc1)" style="fill: #1f77b4"/>
   </g>
   <g id="patch_95">
    <path d="M 264.297892 382.84 
L 266.158804 382.84 
L 266.158804 382.84 
L 264.297892 382.84 
z
" clip-path="url(#pccef744dc1)" style="fill: #1f77b4"/>
   </g>
   <g id="patch_96">
    <path d="M 266.158804 382.84 
L 268.019716 382.84 
L 268.019716 325.7757 
L 266.158804 325.7757 
z
" clip-path="url(#pccef744dc1)" style="fill: #1f77b4"/>
   </g>
   <g id="patch_97">
    <path d="M 268.019716 382.84 
L 269.880628 382.84 
L 269.880628 382.84 
L 268.019716 382.84 
z
" clip-path="url(#pccef744dc1)" style="fill: #1f77b4"/>
   </g>
   <g id="patch_98">
    <path d="M 269.880628 382.84 
L 271.74154 382.84 
L 271.74154 314.326202 
L 269.880628 314.326202 
z
" clip-path="url(#pccef744dc1)" style="fill: #1f77b4"/>
   </g>
   <g id="patch_99">
    <path d="M 271.74154 382.84 
L 273.602452 382.84 
L 273.602452 382.84 
L 271.74154 382.84 
z
" clip-path="url(#pccef744dc1)" style="fill: #1f77b4"/>
   </g>
   <g id="patch_100">
    <path d="M 273.602452 382.84 
L 275.463363 382.84 
L 275.463363 382.84 
L 273.602452 382.84 
z
" clip-path="url(#pccef744dc1)" style="fill: #1f77b4"/>
   </g>
   <g id="patch_101">
    <path d="M 275.463363 382.84 
L 277.324275 382.84 
L 277.324275 301.74702 
L 275.463363 301.74702 
z
" clip-path="url(#pccef744dc1)" style="fill: #1f77b4"/>
   </g>
   <g id="patch_102">
    <path d="M 277.324275 382.84 
L 279.185187 382.84 
L 279.185187 382.84 
L 277.324275 382.84 
z
" clip-path="url(#pccef744dc1)" style="fill: #1f77b4"/>
   </g>
   <g id="patch_103">
    <path d="M 279.185187 382.84 
L 281.046099 382.84 
L 281.046099 284.252186 
L 279.185187 284.252186 
z
" clip-path="url(#pccef744dc1)" style="fill: #1f77b4"/>
   </g>
   <g id="patch_104">
    <path d="M 281.046099 382.84 
L 282.907011 382.84 
L 282.907011 382.84 
L 281.046099 382.84 
z
" clip-path="url(#pccef744dc1)" style="fill: #1f77b4"/>
   </g>
   <g id="patch_105">
    <path d="M 282.907011 382.84 
L 284.767923 382.84 
L 284.767923 382.84 
L 282.907011 382.84 
z
" clip-path="url(#pccef744dc1)" style="fill: #1f77b4"/>
   </g>
   <g id="patch_106">
    <path d="M 284.767923 382.84 
L 286.628835 382.84 
L 286.628835 267.978632 
L 284.767923 267.978632 
z
" clip-path="url(#pccef744dc1)" style="fill: #1f77b4"/>
   </g>
   <g id="patch_107">
    <path d="M 286.628835 382.84 
L 288.489747 382.84 
L 288.489747 382.84 
L 286.628835 382.84 
z
" clip-path="url(#pccef744dc1)" style="fill: #1f77b4"/>
   </g>
   <g id="patch_108">
    <path d="M 288.489747 382.84 
L 290.350659 382.84 
L 290.350659 248.285495 
L 288.489747 248.285495 
z
" clip-path="url(#pccef744dc1)" style="fill: #1f77b4"/>
   </g>
   <g id="patch_109">
    <path d="M 290.350659 382.84 
L 292.211571 382.84 
L 292.211571 382.84 
L 290.350659 382.84 
z
" clip-path="url(#pccef744dc1)" style="fill: #1f77b4"/>
   </g>
   <g id="patch_110">
    <path d="M 292.211571 382.84 
L 294.072483 382.84 
L 294.072483 382.84 
L 292.211571 382.84 
z
" clip-path="url(#pccef744dc1)" style="fill: #1f77b4"/>
   </g>
   <g id="patch_111">
    <path d="M 294.072483 382.84 
L 295.933395 382.84 
L 295.933395 228.409166 
L 294.072483 228.409166 
z
" clip-path="url(#pccef744dc1)" style="fill: #1f77b4"/>
   </g>
   <g id="patch_112">
    <path d="M 295.933395 382.84 
L 297.794307 382.84 
L 297.794307 382.84 
L 295.933395 382.84 
z
" clip-path="url(#pccef744dc1)" style="fill: #1f77b4"/>
   </g>
   <g id="patch_113">
    <path d="M 297.794307 382.84 
L 299.655219 382.84 
L 299.655219 209.815181 
L 297.794307 209.815181 
z
" clip-path="url(#pccef744dc1)" style="fill: #1f77b4"/>
   </g>
   <g id="patch_114">
    <path d="M 299.655219 382.84 
L 301.516131 382.84 
L 301.516131 382.84 
L 299.655219 382.84 
z
" clip-path="url(#pccef744dc1)" style="fill: #1f77b4"/>
   </g>
   <g id="patch_115">
    <path d="M 301.516131 382.84 
L 303.377043 382.84 
L 303.377043 382.84 
L 301.516131 382.84 
z
" clip-path="url(#pccef744dc1)" style="fill: #1f77b4"/>
   </g>
   <g id="patch_116">
    <path d="M 303.377043 382.84 
L 305.237955 382.84 
L 305.237955 188.320656 
L 303.377043 188.320656 
z
" clip-path="url(#pccef744dc1)" style="fill: #1f77b4"/>
   </g>
   <g id="patch_117">
    <path d="M 305.237955 382.84 
L 307.098867 382.84 
L 307.098867 382.84 
L 305.237955 382.84 
z
" clip-path="url(#pccef744dc1)" style="fill: #1f77b4"/>
   </g>
   <g id="patch_118">
    <path d="M 307.098867 382.84 
L 308.959779 382.84 
L 308.959779 159.46792 
L 307.098867 159.46792 
z
" clip-path="url(#pccef744dc1)" style="fill: #1f77b4"/>
   </g>
   <g id="patch_119">
    <path d="M 308.959779 382.84 
L 310.820691 382.84 
L 310.820691 382.84 
L 308.959779 382.84 
z
" clip-path="url(#pccef744dc1)" style="fill: #1f77b4"/>
   </g>
   <g id="patch_120">
    <path d="M 310.820691 382.84 
L 312.681603 382.84 
L 312.681603 382.84 
L 310.820691 382.84 
z
" clip-path="url(#pccef744dc1)" style="fill: #1f77b4"/>
   </g>
   <g id="patch_121">
    <path d="M 312.681603 382.84 
L 314.542515 382.84 
L 314.542515 132.019656 
L 312.681603 132.019656 
z
" clip-path="url(#pccef744dc1)" style="fill: #1f77b4"/>
   </g>
   <g id="patch_122">
    <path d="M 314.542515 382.84 
L 316.403427 382.84 
L 316.403427 382.84 
L 314.542515 382.84 
z
" clip-path="url(#pccef744dc1)" style="fill: #1f77b4"/>
   </g>
   <g id="patch_123">
    <path d="M 316.403427 382.84 
L 318.264339 382.84 
L 318.264339 110.006087 
L 316.403427 110.006087 
z
" clip-path="url(#pccef744dc1)" style="fill: #1f77b4"/>
   </g>
   <g id="patch_124">
    <path d="M 318.264339 382.84 
L 320.125251 382.84 
L 320.125251 382.84 
L 318.264339 382.84 
z
" clip-path="url(#pccef744dc1)" style="fill: #1f77b4"/>
   </g>
   <g id="patch_125">
    <path d="M 320.125251 382.84 
L 321.986163 382.84 
L 321.986163 86.404854 
L 320.125251 86.404854 
z
" clip-path="url(#pccef744dc1)" style="fill: #1f77b4"/>
   </g>
   <g id="patch_126">
    <path d="M 321.986163 382.84 
L 323.847075 382.84 
L 323.847075 382.84 
L 321.986163 382.84 
z
" clip-path="url(#pccef744dc1)" style="fill: #1f77b4"/>
   </g>
   <g id="patch_127">
    <path d="M 323.847075 382.84 
L 325.707987 382.84 
L 325.707987 382.84 
L 323.847075 382.84 
z
" clip-path="url(#pccef744dc1)" style="fill: #1f77b4"/>
   </g>
   <g id="patch_128">
    <path d="M 325.707987 382.84 
L 327.568899 382.84 
L 327.568899 71.35258 
L 325.707987 71.35258 
z
" clip-path="url(#pccef744dc1)" style="fill: #1f77b4"/>
   </g>
   <g id="patch_129">
    <path d="M 327.568899 382.84 
L 329.429811 382.84 
L 329.429811 382.84 
L 327.568899 382.84 
z
" clip-path="url(#pccef744dc1)" style="fill: #1f77b4"/>
   </g>
   <g id="patch_130">
    <path d="M 329.429811 382.84 
L 331.290723 382.84 
L 331.290723 55.872859 
L 329.429811 55.872859 
z
" clip-path="url(#pccef744dc1)" style="fill: #1f77b4"/>
   </g>
   <g id="patch_131">
    <path d="M 331.290723 382.84 
L 333.151635 382.84 
L 333.151635 382.84 
L 331.290723 382.84 
z
" clip-path="url(#pccef744dc1)" style="fill: #1f77b4"/>
   </g>
   <g id="patch_132">
    <path d="M 333.151635 382.84 
L 335.012547 382.84 
L 335.012547 382.84 
L 333.151635 382.84 
z
" clip-path="url(#pccef744dc1)" style="fill: #1f77b4"/>
   </g>
   <g id="patch_133">
    <path d="M 335.012547 382.84 
L 336.873459 382.84 
L 336.873459 46.835388 
L 335.012547 46.835388 
z
" clip-path="url(#pccef744dc1)" style="fill: #1f77b4"/>
   </g>
   <g id="patch_134">
    <path d="M 336.873459 382.84 
L 338.734371 382.84 
L 338.734371 382.84 
L 336.873459 382.84 
z
" clip-path="url(#pccef744dc1)" style="fill: #1f77b4"/>
   </g>
   <g id="patch_135">
    <path d="M 338.734371 382.84 
L 340.595283 382.84 
L 340.595283 34.408866 
L 338.734371 34.408866 
z
" clip-path="url(#pccef744dc1)" style="fill: #1f77b4"/>
   </g>
   <g id="patch_136">
    <path d="M 340.595283 382.84 
L 342.456195 382.84 
L 342.456195 382.84 
L 340.595283 382.84 
z
" clip-path="url(#pccef744dc1)" style="fill: #1f77b4"/>
   </g>
   <g id="patch_137">
    <path d="M 342.456195 382.84 
L 344.317107 382.84 
L 344.317107 382.84 
L 342.456195 382.84 
z
" clip-path="url(#pccef744dc1)" style="fill: #1f77b4"/>
   </g>
   <g id="patch_138">
    <path d="M 344.317107 382.84 
L 346.178019 382.84 
L 346.178019 28.51619 
L 344.317107 28.51619 
z
" clip-path="url(#pccef744dc1)" style="fill: #1f77b4"/>
   </g>
   <g id="patch_139">
    <path d="M 346.178019 382.84 
L 348.038931 382.84 
L 348.038931 382.84 
L 346.178019 382.84 
z
" clip-path="url(#pccef744dc1)" style="fill: #1f77b4"/>
   </g>
   <g id="patch_140">
    <path d="M 348.038931 382.84 
L 349.899843 382.84 
L 349.899843 34.01195 
L 348.038931 34.01195 
z
" clip-path="url(#pccef744dc1)" style="fill: #1f77b4"/>
   </g>
   <g id="patch_141">
    <path d="M 349.899843 382.84 
L 351.760755 382.84 
L 351.760755 382.84 
L 349.899843 382.84 
z
" clip-path="url(#pccef744dc1)" style="fill: #1f77b4"/>
   </g>
   <g id="patch_142">
    <path d="M 351.760755 382.84 
L 353.621667 382.84 
L 353.621667 382.84 
L 351.760755 382.84 
z
" clip-path="url(#pccef744dc1)" style="fill: #1f77b4"/>
   </g>
   <g id="patch_143">
    <path d="M 353.621667 382.84 
L 355.482579 382.84 
L 355.482579 36.820893 
L 353.621667 36.820893 
z
" clip-path="url(#pccef744dc1)" style="fill: #1f77b4"/>
   </g>
   <g id="patch_144">
    <path d="M 355.482579 382.84 
L 357.343491 382.84 
L 357.343491 382.84 
L 355.482579 382.84 
z
" clip-path="url(#pccef744dc1)" style="fill: #1f77b4"/>
   </g>
   <g id="patch_145">
    <path d="M 357.343491 382.84 
L 359.204403 382.84 
L 359.204403 45.919428 
L 357.343491 45.919428 
z
" clip-path="url(#pccef744dc1)" style="fill: #1f77b4"/>
   </g>
   <g id="patch_146">
    <path d="M 359.204403 382.84 
L 361.065315 382.84 
L 361.065315 382.84 
L 359.204403 382.84 
z
" clip-path="url(#pccef744dc1)" style="fill: #1f77b4"/>
   </g>
   <g id="patch_147">
    <path d="M 361.065315 382.84 
L 362.926227 382.84 
L 362.926227 382.84 
L 361.065315 382.84 
z
" clip-path="url(#pccef744dc1)" style="fill: #1f77b4"/>
   </g>
   <g id="patch_148">
    <path d="M 362.926227 382.84 
L 364.787139 382.84 
L 364.787139 65.490437 
L 362.926227 65.490437 
z
" clip-path="url(#pccef744dc1)" style="fill: #1f77b4"/>
   </g>
   <g id="patch_149">
    <path d="M 364.787139 382.84 
L 366.648051 382.84 
L 366.648051 382.84 
L 364.787139 382.84 
z
" clip-path="url(#pccef744dc1)" style="fill: #1f77b4"/>
   </g>
   <g id="patch_150">
    <path d="M 366.648051 382.84 
L 368.508963 382.84 
L 368.508963 85.12251 
L 366.648051 85.12251 
z
" clip-path="url(#pccef744dc1)" style="fill: #1f77b4"/>
   </g>
   <g id="patch_151">
    <path d="M 368.508963 382.84 
L 370.369875 382.84 
L 370.369875 382.84 
L 368.508963 382.84 
z
" clip-path="url(#pccef744dc1)" style="fill: #1f77b4"/>
   </g>
   <g id="patch_152">
    <path d="M 370.369875 382.84 
L 372.230786 382.84 
L 372.230786 382.84 
L 370.369875 382.84 
z
" clip-path="url(#pccef744dc1)" style="fill: #1f77b4"/>
   </g>
   <g id="patch_153">
    <path d="M 372.230786 382.84 
L 374.091698 382.84 
L 374.091698 101.79298 
L 372.230786 101.79298 
z
" clip-path="url(#pccef744dc1)" style="fill: #1f77b4"/>
   </g>
   <g id="patch_154">
    <path d="M 374.091698 382.84 
L 375.95261 382.84 
L 375.95261 382.84 
L 374.091698 382.84 
z
" clip-path="url(#pccef744dc1)" style="fill: #1f77b4"/>
   </g>
   <g id="patch_155">
    <path d="M 375.95261 382.84 
L 377.813522 382.84 
L 377.813522 130.828908 
L 375.95261 130.828908 
z
" clip-path="url(#pccef744dc1)" style="fill: #1f77b4"/>
   </g>
   <g id="patch_156">
    <path d="M 377.813522 382.84 
L 379.674434 382.84 
L 379.674434 382.84 
L 377.813522 382.84 
z
" clip-path="url(#pccef744dc1)" style="fill: #1f77b4"/>
   </g>
   <g id="patch_157">
    <path d="M 379.674434 382.84 
L 381.535346 382.84 
L 381.535346 151.743325 
L 379.674434 151.743325 
z
" clip-path="url(#pccef744dc1)" style="fill: #1f77b4"/>
   </g>
   <g id="patch_158">
    <path d="M 381.535346 382.84 
L 383.396258 382.84 
L 383.396258 382.84 
L 381.535346 382.84 
z
" clip-path="url(#pccef744dc1)" style="fill: #1f77b4"/>
   </g>
   <g id="patch_159">
    <path d="M 383.396258 382.84 
L 385.25717 382.84 
L 385.25717 382.84 
L 383.396258 382.84 
z
" clip-path="url(#pccef744dc1)" style="fill: #1f77b4"/>
   </g>
   <g id="patch_160">
    <path d="M 385.25717 382.84 
L 387.118082 382.84 
L 387.118082 171.589122 
L 385.25717 171.589122 
z
" clip-path="url(#pccef744dc1)" style="fill: #1f77b4"/>
   </g>
   <g id="patch_161">
    <path d="M 387.118082 382.84 
L 388.978994 382.84 
L 388.978994 382.84 
L 387.118082 382.84 
z
" clip-path="url(#pccef744dc1)" style="fill: #1f77b4"/>
   </g>
   <g id="patch_162">
    <path d="M 388.978994 382.84 
L 390.839906 382.84 
L 390.839906 198.18249 
L 388.978994 198.18249 
z
" clip-path="url(#pccef744dc1)" style="fill: #1f77b4"/>
   </g>
   <g id="patch_163">
    <path d="M 390.839906 382.84 
L 392.700818 382.84 
L 392.700818 382.84 
L 390.839906 382.84 
z
" clip-path="url(#pccef744dc1)" style="fill: #1f77b4"/>
   </g>
   <g id="patch_164">
    <path d="M 392.700818 382.84 
L 394.56173 382.84 
L 394.56173 382.84 
L 392.700818 382.84 
z
" clip-path="url(#pccef744dc1)" style="fill: #1f77b4"/>
   </g>
   <g id="patch_165">
    <path d="M 394.56173 382.84 
L 396.422642 382.84 
L 396.422642 217.539776 
L 394.56173 217.539776 
z
" clip-path="url(#pccef744dc1)" style="fill: #1f77b4"/>
   </g>
   <g id="patch_166">
    <path d="M 396.422642 382.84 
L 398.283554 382.84 
L 398.283554 382.84 
L 396.422642 382.84 
z
" clip-path="url(#pccef744dc1)" style="fill: #1f77b4"/>
   </g>
   <g id="patch_167">
    <path d="M 398.283554 382.84 
L 400.144466 382.84 
L 400.144466 235.797909 
L 398.283554 235.797909 
z
" clip-path="url(#pccef744dc1)" style="fill: #1f77b4"/>
   </g>
   <g id="patch_168">
    <path d="M 400.144466 382.84 
L 402.005378 382.84 
L 402.005378 382.84 
L 400.144466 382.84 
z
" clip-path="url(#pccef744dc1)" style="fill: #1f77b4"/>
   </g>
   <g id="patch_169">
    <path d="M 402.005378 382.84 
L 403.86629 382.84 
L 403.86629 382.84 
L 402.005378 382.84 
z
" clip-path="url(#pccef744dc1)" style="fill: #1f77b4"/>
   </g>
   <g id="patch_170">
    <path d="M 403.86629 382.84 
L 405.727202 382.84 
L 405.727202 252.040931 
L 403.86629 252.040931 
z
" clip-path="url(#pccef744dc1)" style="fill: #1f77b4"/>
   </g>
   <g id="patch_171">
    <path d="M 405.727202 382.84 
L 407.588114 382.84 
L 407.588114 382.84 
L 405.727202 382.84 
z
" clip-path="url(#pccef744dc1)" style="fill: #1f77b4"/>
   </g>
   <g id="patch_172">
    <path d="M 407.588114 382.84 
L 409.449026 382.84 
L 409.449026 273.657584 
L 407.588114 273.657584 
z
" clip-path="url(#pccef744dc1)" style="fill: #1f77b4"/>
   </g>
   <g id="patch_173">
    <path d="M 409.449026 382.84 
L 411.309938 382.84 
L 411.309938 382.84 
L 409.449026 382.84 
z
" clip-path="url(#pccef744dc1)" style="fill: #1f77b4"/>
   </g>
   <g id="patch_174">
    <path d="M 411.309938 382.84 
L 413.17085 382.84 
L 413.17085 382.84 
L 411.309938 382.84 
z
" clip-path="url(#pccef744dc1)" style="fill: #1f77b4"/>
   </g>
   <g id="patch_175">
    <path d="M 413.17085 382.84 
L 415.031762 382.84 
L 415.031762 287.793898 
L 413.17085 287.793898 
z
" clip-path="url(#pccef744dc1)" style="fill: #1f77b4"/>
   </g>
   <g id="patch_176">
    <path d="M 415.031762 382.84 
L 416.892674 382.84 
L 416.892674 382.84 
L 415.031762 382.84 
z
" clip-path="url(#pccef744dc1)" style="fill: #1f77b4"/>
   </g>
   <g id="patch_177">
    <path d="M 416.892674 382.84 
L 418.753586 382.84 
L 418.753586 302.204999 
L 416.892674 302.204999 
z
" clip-path="url(#pccef744dc1)" style="fill: #1f77b4"/>
   </g>
   <g id="patch_178">
    <path d="M 418.753586 382.84 
L 420.614498 382.84 
L 420.614498 382.84 
L 418.753586 382.84 
z
" clip-path="url(#pccef744dc1)" style="fill: #1f77b4"/>
   </g>
   <g id="patch_179">
    <path d="M 420.614498 382.84 
L 422.47541 382.84 
L 422.47541 382.84 
L 420.614498 382.84 
z
" clip-path="url(#pccef744dc1)" style="fill: #1f77b4"/>
   </g>
   <g id="patch_180">
    <path d="M 422.47541 382.84 
L 424.336322 382.84 
L 424.336322 315.730674 
L 422.47541 315.730674 
z
" clip-path="url(#pccef744dc1)" style="fill: #1f77b4"/>
   </g>
   <g id="patch_181">
    <path d="M 424.336322 382.84 
L 426.197234 382.84 
L 426.197234 382.84 
L 424.336322 382.84 
z
" clip-path="url(#pccef744dc1)" style="fill: #1f77b4"/>
   </g>
   <g id="patch_182">
    <path d="M 426.197234 382.84 
L 428.058146 382.84 
L 428.058146 324.40176 
L 426.197234 324.40176 
z
" clip-path="url(#pccef744dc1)" style="fill: #1f77b4"/>
   </g>
   <g id="patch_183">
    <path d="M 428.058146 382.84 
L 429.919058 382.84 
L 429.919058 382.84 
L 428.058146 382.84 
z
" clip-path="url(#pccef744dc1)" style="fill: #1f77b4"/>
   </g>
   <g id="patch_184">
    <path d="M 429.919058 382.84 
L 431.77997 382.84 
L 431.77997 333.011783 
L 429.919058 333.011783 
z
" clip-path="url(#pccef744dc1)" style="fill: #1f77b4"/>
   </g>
   <g id="patch_185">
    <path d="M 431.77997 382.84 
L 433.640882 382.84 
L 433.640882 382.84 
L 431.77997 382.84 
z
" clip-path="url(#pccef744dc1)" style="fill: #1f77b4"/>
   </g>
   <g id="patch_186">
    <path d="M 433.640882 382.84 
L 435.501794 382.84 
L 435.501794 382.84 
L 433.640882 382.84 
z
" clip-path="url(#pccef744dc1)" style="fill: #1f77b4"/>
   </g>
   <g id="patch_187">
    <path d="M 435.501794 382.84 
L 437.362706 382.84 
L 437.362706 340.61425 
L 435.501794 340.61425 
z
" clip-path="url(#pccef744dc1)" style="fill: #1f77b4"/>
   </g>
   <g id="patch_188">
    <path d="M 437.362706 382.84 
L 439.223618 382.84 
L 439.223618 382.84 
L 437.362706 382.84 
z
" clip-path="url(#pccef744dc1)" style="fill: #1f77b4"/>
   </g>
   <g id="patch_189">
    <path d="M 439.223618 382.84 
L 441.08453 382.84 
L 441.08453 347.575545 
L 439.223618 347.575545 
z
" clip-path="url(#pccef744dc1)" style="fill: #1f77b4"/>
   </g>
   <g id="patch_190">
    <path d="M 441.08453 382.84 
L 442.945442 382.84 
L 442.945442 382.84 
L 441.08453 382.84 
z
" clip-path="url(#pccef744dc1)" style="fill: #1f77b4"/>
   </g>
   <g id="patch_191">
    <path d="M 442.945442 382.84 
L 444.806354 382.84 
L 444.806354 382.84 
L 442.945442 382.84 
z
" clip-path="url(#pccef744dc1)" style="fill: #1f77b4"/>
   </g>
   <g id="patch_192">
    <path d="M 444.806354 382.84 
L 446.667266 382.84 
L 446.667266 353.834604 
L 444.806354 353.834604 
z
" clip-path="url(#pccef744dc1)" style="fill: #1f77b4"/>
   </g>
   <g id="patch_193">
    <path d="M 446.667266 382.84 
L 448.528178 382.84 
L 448.528178 382.84 
L 446.667266 382.84 
z
" clip-path="url(#pccef744dc1)" style="fill: #1f77b4"/>
   </g>
   <g id="patch_194">
    <path d="M 448.528178 382.84 
L 450.38909 382.84 
L 450.38909 357.89536 
L 448.528178 357.89536 
z
" clip-path="url(#pccef744dc1)" style="fill: #1f77b4"/>
   </g>
   <g id="patch_195">
    <path d="M 450.38909 382.84 
L 452.250002 382.84 
L 452.250002 382.84 
L 450.38909 382.84 
z
" clip-path="url(#pccef744dc1)" style="fill: #1f77b4"/>
   </g>
   <g id="patch_196">
    <path d="M 452.250002 382.84 
L 454.110914 382.84 
L 454.110914 382.84 
L 452.250002 382.84 
z
" clip-path="url(#pccef744dc1)" style="fill: #1f77b4"/>
   </g>
   <g id="patch_197">
    <path d="M 454.110914 382.84 
L 455.971826 382.84 
L 455.971826 363.696439 
L 454.110914 363.696439 
z
" clip-path="url(#pccef744dc1)" style="fill: #1f77b4"/>
   </g>
   <g id="patch_198">
    <path d="M 455.971826 382.84 
L 457.832738 382.84 
L 457.832738 382.84 
L 455.971826 382.84 
z
" clip-path="url(#pccef744dc1)" style="fill: #1f77b4"/>
   </g>
   <g id="patch_199">
    <path d="M 457.832738 382.84 
L 459.69365 382.84 
L 459.69365 365.925274 
L 457.832738 365.925274 
z
" clip-path="url(#pccef744dc1)" style="fill: #1f77b4"/>
   </g>
   <g id="patch_200">
    <path d="M 459.69365 382.84 
L 461.554562 382.84 
L 461.554562 382.84 
L 459.69365 382.84 
z
" clip-path="url(#pccef744dc1)" style="fill: #1f77b4"/>
   </g>
   <g id="patch_201">
    <path d="M 461.554562 382.84 
L 463.415474 382.84 
L 463.415474 382.84 
L 461.554562 382.84 
z
" clip-path="url(#pccef744dc1)" style="fill: #1f77b4"/>
   </g>
   <g id="patch_202">
    <path d="M 463.415474 382.84 
L 465.276386 382.84 
L 465.276386 369.863902 
L 463.415474 369.863902 
z
" clip-path="url(#pccef744dc1)" style="fill: #1f77b4"/>
   </g>
   <g id="patch_203">
    <path d="M 465.276386 382.84 
L 467.137298 382.84 
L 467.137298 382.84 
L 465.276386 382.84 
z
" clip-path="url(#pccef744dc1)" style="fill: #1f77b4"/>
   </g>
   <g id="patch_204">
    <path d="M 467.137298 382.84 
L 468.998209 382.84 
L 468.998209 373.100293 
L 467.137298 373.100293 
z
" clip-path="url(#pccef744dc1)" style="fill: #1f77b4"/>
   </g>
   <g id="patch_205">
    <path d="M 468.998209 382.84 
L 470.859121 382.84 
L 470.859121 382.84 
L 468.998209 382.84 
z
" clip-path="url(#pccef744dc1)" style="fill: #1f77b4"/>
   </g>
   <g id="patch_206">
    <path d="M 470.859121 382.84 
L 472.720033 382.84 
L 472.720033 382.84 
L 470.859121 382.84 
z
" clip-path="url(#pccef744dc1)" style="fill: #1f77b4"/>
   </g>
   <g id="patch_207">
    <path d="M 472.720033 382.84 
L 474.580945 382.84 
L 474.580945 375.145937 
L 472.720033 375.145937 
z
" clip-path="url(#pccef744dc1)" style="fill: #1f77b4"/>
   </g>
   <g id="patch_208">
    <path d="M 474.580945 382.84 
L 476.441857 382.84 
L 476.441857 382.84 
L 474.580945 382.84 
z
" clip-path="url(#pccef744dc1)" style="fill: #1f77b4"/>
   </g>
   <g id="patch_209">
    <path d="M 476.441857 382.84 
L 478.302769 382.84 
L 478.302769 376.947325 
L 476.441857 376.947325 
z
" clip-path="url(#pccef744dc1)" style="fill: #1f77b4"/>
   </g>
   <g id="patch_210">
    <path d="M 478.302769 382.84 
L 480.163681 382.84 
L 480.163681 382.84 
L 478.302769 382.84 
z
" clip-path="url(#pccef744dc1)" style="fill: #1f77b4"/>
   </g>
   <g id="patch_211">
    <path d="M 480.163681 382.84 
L 482.024593 382.84 
L 482.024593 382.84 
L 480.163681 382.84 
z
" clip-path="url(#pccef744dc1)" style="fill: #1f77b4"/>
   </g>
   <g id="patch_212">
    <path d="M 482.024593 382.84 
L 483.885505 382.84 
L 483.885505 378.412861 
L 482.024593 378.412861 
z
" clip-path="url(#pccef744dc1)" style="fill: #1f77b4"/>
   </g>
   <g id="patch_213">
    <path d="M 483.885505 382.84 
L 485.746417 382.84 
L 485.746417 382.84 
L 483.885505 382.84 
z
" clip-path="url(#pccef744dc1)" style="fill: #1f77b4"/>
   </g>
   <g id="patch_214">
    <path d="M 485.746417 382.84 
L 487.607329 382.84 
L 487.607329 379.725736 
L 485.746417 379.725736 
z
" clip-path="url(#pccef744dc1)" style="fill: #1f77b4"/>
   </g>
   <g id="patch_215">
    <path d="M 487.607329 382.84 
L 489.468241 382.84 
L 489.468241 382.84 
L 487.607329 382.84 
z
" clip-path="url(#pccef744dc1)" style="fill: #1f77b4"/>
   </g>
   <g id="patch_216">
    <path d="M 489.468241 382.84 
L 491.329153 382.84 
L 491.329153 380.336376 
L 489.468241 380.336376 
z
" clip-path="url(#pccef744dc1)" style="fill: #1f77b4"/>
   </g>
   <g id="patch_217">
    <path d="M 491.329153 382.84 
L 493.190065 382.84 
L 493.190065 382.84 
L 491.329153 382.84 
z
" clip-path="url(#pccef744dc1)" style="fill: #1f77b4"/>
   </g>
   <g id="patch_218">
    <path d="M 493.190065 382.84 
L 495.050977 382.84 
L 495.050977 382.84 
L 493.190065 382.84 
z
" clip-path="url(#pccef744dc1)" style="fill: #1f77b4"/>
   </g>
   <g id="patch_219">
    <path d="M 495.050977 382.84 
L 496.911889 382.84 
L 496.911889 381.649252 
L 495.050977 381.649252 
z
" clip-path="url(#pccef744dc1)" style="fill: #1f77b4"/>
   </g>
   <g id="patch_220">
    <path d="M 496.911889 382.84 
L 498.772801 382.84 
L 498.772801 382.84 
L 496.911889 382.84 
z
" clip-path="url(#pccef744dc1)" style="fill: #1f77b4"/>
   </g>
   <g id="patch_221">
    <path d="M 498.772801 382.84 
L 500.633713 382.84 
L 500.633713 381.649252 
L 498.772801 381.649252 
z
" clip-path="url(#pccef744dc1)" style="fill: #1f77b4"/>
   </g>
   <g id="patch_222">
    <path d="M 500.633713 382.84 
L 502.494625 382.84 
L 502.494625 382.84 
L 500.633713 382.84 
z
" clip-path="url(#pccef744dc1)" style="fill: #1f77b4"/>
   </g>
   <g id="patch_223">
    <path d="M 502.494625 382.84 
L 504.355537 382.84 
L 504.355537 382.84 
L 502.494625 382.84 
z
" clip-path="url(#pccef744dc1)" style="fill: #1f77b4"/>
   </g>
   <g id="patch_224">
    <path d="M 504.355537 382.84 
L 506.216449 382.84 
L 506.216449 382.198828 
L 504.355537 382.198828 
z
" clip-path="url(#pccef744dc1)" style="fill: #1f77b4"/>
   </g>
   <g id="patch_225">
    <path d="M 506.216449 382.84 
L 508.077361 382.84 
L 508.077361 382.84 
L 506.216449 382.84 
z
" clip-path="url(#pccef744dc1)" style="fill: #1f77b4"/>
   </g>
   <g id="patch_226">
    <path d="M 508.077361 382.84 
L 509.938273 382.84 
L 509.938273 382.22936 
L 508.077361 382.22936 
z
" clip-path="url(#pccef744dc1)" style="fill: #1f77b4"/>
   </g>
   <g id="patch_227">
    <path d="M 509.938273 382.84 
L 511.799185 382.84 
L 511.799185 382.84 
L 509.938273 382.84 
z
" clip-path="url(#pccef744dc1)" style="fill: #1f77b4"/>
   </g>
   <g id="patch_228">
    <path d="M 511.799185 382.84 
L 513.660097 382.84 
L 513.660097 382.84 
L 511.799185 382.84 
z
" clip-path="url(#pccef744dc1)" style="fill: #1f77b4"/>
   </g>
   <g id="patch_229">
    <path d="M 513.660097 382.84 
L 515.521009 382.84 
L 515.521009 382.626276 
L 513.660097 382.626276 
z
" clip-path="url(#pccef744dc1)" style="fill: #1f77b4"/>
   </g>
   <g id="patch_230">
    <path d="M 515.521009 382.84 
L 517.381921 382.84 
L 517.381921 382.84 
L 515.521009 382.84 
z
" clip-path="url(#pccef744dc1)" style="fill: #1f77b4"/>
   </g>
   <g id="patch_231">
    <path d="M 517.381921 382.84 
L 519.242833 382.84 
L 519.242833 382.656808 
L 517.381921 382.656808 
z
" clip-path="url(#pccef744dc1)" style="fill: #1f77b4"/>
   </g>
   <g id="patch_232">
    <path d="M 519.242833 382.84 
L 521.103745 382.84 
L 521.103745 382.84 
L 519.242833 382.84 
z
" clip-path="url(#pccef744dc1)" style="fill: #1f77b4"/>
   </g>
   <g id="patch_233">
    <path d="M 521.103745 382.84 
L 522.964657 382.84 
L 522.964657 382.84 
L 521.103745 382.84 
z
" clip-path="url(#pccef744dc1)" style="fill: #1f77b4"/>
   </g>
   <g id="patch_234">
    <path d="M 522.964657 382.84 
L 524.825569 382.84 
L 524.825569 382.68734 
L 522.964657 382.68734 
z
" clip-path="url(#pccef744dc1)" style="fill: #1f77b4"/>
   </g>
   <g id="patch_235">
    <path d="M 524.825569 382.84 
L 526.686481 382.84 
L 526.686481 382.84 
L 524.825569 382.84 
z
" clip-path="url(#pccef744dc1)" style="fill: #1f77b4"/>
   </g>
   <g id="patch_236">
    <path d="M 526.686481 382.84 
L 528.547393 382.84 
L 528.547393 382.68734 
L 526.686481 382.68734 
z
" clip-path="url(#pccef744dc1)" style="fill: #1f77b4"/>
   </g>
   <g id="patch_237">
    <path d="M 528.547393 382.84 
L 530.408305 382.84 
L 530.408305 382.84 
L 528.547393 382.84 
z
" clip-path="url(#pccef744dc1)" style="fill: #1f77b4"/>
   </g>
   <g id="patch_238">
    <path d="M 530.408305 382.84 
L 532.269217 382.84 
L 532.269217 382.84 
L 530.408305 382.84 
z
" clip-path="url(#pccef744dc1)" style="fill: #1f77b4"/>
   </g>
   <g id="patch_239">
    <path d="M 532.269217 382.84 
L 534.130129 382.84 
L 534.130129 382.748404 
L 532.269217 382.748404 
z
" clip-path="url(#pccef744dc1)" style="fill: #1f77b4"/>
   </g>
   <g id="patch_240">
    <path d="M 534.130129 382.84 
L 535.991041 382.84 
L 535.991041 382.84 
L 534.130129 382.84 
z
" clip-path="url(#pccef744dc1)" style="fill: #1f77b4"/>
   </g>
   <g id="patch_241">
    <path d="M 535.991041 382.84 
L 537.851953 382.84 
L 537.851953 382.809468 
L 535.991041 382.809468 
z
" clip-path="url(#pccef744dc1)" style="fill: #1f77b4"/>
   </g>
   <g id="patch_242">
    <path d="M 537.851953 382.84 
L 539.712865 382.84 
L 539.712865 382.84 
L 537.851953 382.84 
z
" clip-path="url(#pccef744dc1)" style="fill: #1f77b4"/>
   </g>
   <g id="patch_243">
    <path d="M 539.712865 382.84 
L 541.573777 382.84 
L 541.573777 382.809468 
L 539.712865 382.809468 
z
" clip-path="url(#pccef744dc1)" style="fill: #1f77b4"/>
   </g>
   <g id="matplotlib.axis_1">
    <g id="xtick_1">
     <g id="line2d_1">
      <defs>
       <path id="mc05e01dbb8" d="M 0 0 
L 0 3.5 
" style="stroke: #000000; stroke-width: 0.8"/>
      </defs>
      <g>
       <use xlink:href="#mc05e01dbb8" x="74.788692" y="382.84" style="stroke: #000000; stroke-width: 0.8"/>
      </g>
     </g>
     <g id="text_1">
      <!-- −14 -->
      <g transform="translate(64.236348 397.438438) scale(0.1 -0.1)">
       <defs>
        <path id="DejaVuSans-2212" d="M 678 2272 
L 4684 2272 
L 4684 1741 
L 678 1741 
L 678 2272 
z
" transform="scale(0.015625)"/>
        <path id="DejaVuSans-31" d="M 794 531 
L 1825 531 
L 1825 4091 
L 703 3866 
L 703 4441 
L 1819 4666 
L 2450 4666 
L 2450 531 
L 3481 531 
L 3481 0 
L 794 0 
L 794 531 
z
" transform="scale(0.015625)"/>
        <path id="DejaVuSans-34" d="M 2419 4116 
L 825 1625 
L 2419 1625 
L 2419 4116 
z
M 2253 4666 
L 3047 4666 
L 3047 1625 
L 3713 1625 
L 3713 1100 
L 3047 1100 
L 3047 0 
L 2419 0 
L 2419 1100 
L 313 1100 
L 313 1709 
L 2253 4666 
z
" transform="scale(0.015625)"/>
       </defs>
       <use xlink:href="#DejaVuSans-2212"/>
       <use xlink:href="#DejaVuSans-31" x="83.789062"/>
       <use xlink:href="#DejaVuSans-34" x="147.412109"/>
      </g>
     </g>
    </g>
    <g id="xtick_2">
     <g id="line2d_2">
      <g>
       <use xlink:href="#mc05e01dbb8" x="166.315179" y="382.84" style="stroke: #000000; stroke-width: 0.8"/>
      </g>
     </g>
     <g id="text_2">
      <!-- −12 -->
      <g transform="translate(155.762835 397.438438) scale(0.1 -0.1)">
       <defs>
        <path id="DejaVuSans-32" d="M 1228 531 
L 3431 531 
L 3431 0 
L 469 0 
L 469 531 
Q 828 903 1448 1529 
Q 2069 2156 2228 2338 
Q 2531 2678 2651 2914 
Q 2772 3150 2772 3378 
Q 2772 3750 2511 3984 
Q 2250 4219 1831 4219 
Q 1534 4219 1204 4116 
Q 875 4013 500 3803 
L 500 4441 
Q 881 4594 1212 4672 
Q 1544 4750 1819 4750 
Q 2544 4750 2975 4387 
Q 3406 4025 3406 3419 
Q 3406 3131 3298 2873 
Q 3191 2616 2906 2266 
Q 2828 2175 2409 1742 
Q 1991 1309 1228 531 
z
" transform="scale(0.015625)"/>
       </defs>
       <use xlink:href="#DejaVuSans-2212"/>
       <use xlink:href="#DejaVuSans-31" x="83.789062"/>
       <use xlink:href="#DejaVuSans-32" x="147.412109"/>
      </g>
     </g>
    </g>
    <g id="xtick_3">
     <g id="line2d_3">
      <g>
       <use xlink:href="#mc05e01dbb8" x="257.841666" y="382.84" style="stroke: #000000; stroke-width: 0.8"/>
      </g>
     </g>
     <g id="text_3">
      <!-- −10 -->
      <g transform="translate(247.289323 397.438438) scale(0.1 -0.1)">
       <defs>
        <path id="DejaVuSans-30" d="M 2034 4250 
Q 1547 4250 1301 3770 
Q 1056 3291 1056 2328 
Q 1056 1369 1301 889 
Q 1547 409 2034 409 
Q 2525 409 2770 889 
Q 3016 1369 3016 2328 
Q 3016 3291 2770 3770 
Q 2525 4250 2034 4250 
z
M 2034 4750 
Q 2819 4750 3233 4129 
Q 3647 3509 3647 2328 
Q 3647 1150 3233 529 
Q 2819 -91 2034 -91 
Q 1250 -91 836 529 
Q 422 1150 422 2328 
Q 422 3509 836 4129 
Q 1250 4750 2034 4750 
z
" transform="scale(0.015625)"/>
       </defs>
       <use xlink:href="#DejaVuSans-2212"/>
       <use xlink:href="#DejaVuSans-31" x="83.789062"/>
       <use xlink:href="#DejaVuSans-30" x="147.412109"/>
      </g>
     </g>
    </g>
    <g id="xtick_4">
     <g id="line2d_4">
      <g>
       <use xlink:href="#mc05e01dbb8" x="349.368154" y="382.84" style="stroke: #000000; stroke-width: 0.8"/>
      </g>
     </g>
     <g id="text_4">
      <!-- −8 -->
      <g transform="translate(341.99706 397.438438) scale(0.1 -0.1)">
       <defs>
        <path id="DejaVuSans-38" d="M 2034 2216 
Q 1584 2216 1326 1975 
Q 1069 1734 1069 1313 
Q 1069 891 1326 650 
Q 1584 409 2034 409 
Q 2484 409 2743 651 
Q 3003 894 3003 1313 
Q 3003 1734 2745 1975 
Q 2488 2216 2034 2216 
z
M 1403 2484 
Q 997 2584 770 2862 
Q 544 3141 544 3541 
Q 544 4100 942 4425 
Q 1341 4750 2034 4750 
Q 2731 4750 3128 4425 
Q 3525 4100 3525 3541 
Q 3525 3141 3298 2862 
Q 3072 2584 2669 2484 
Q 3125 2378 3379 2068 
Q 3634 1759 3634 1313 
Q 3634 634 3220 271 
Q 2806 -91 2034 -91 
Q 1263 -91 848 271 
Q 434 634 434 1313 
Q 434 1759 690 2068 
Q 947 2378 1403 2484 
z
M 1172 3481 
Q 1172 3119 1398 2916 
Q 1625 2713 2034 2713 
Q 2441 2713 2670 2916 
Q 2900 3119 2900 3481 
Q 2900 3844 2670 4047 
Q 2441 4250 2034 4250 
Q 1625 4250 1398 4047 
Q 1172 3844 1172 3481 
z
" transform="scale(0.015625)"/>
       </defs>
       <use xlink:href="#DejaVuSans-2212"/>
       <use xlink:href="#DejaVuSans-38" x="83.789062"/>
      </g>
     </g>
    </g>
    <g id="xtick_5">
     <g id="line2d_5">
      <g>
       <use xlink:href="#mc05e01dbb8" x="440.894641" y="382.84" style="stroke: #000000; stroke-width: 0.8"/>
      </g>
     </g>
     <g id="text_5">
      <!-- −6 -->
      <g transform="translate(433.523547 397.438438) scale(0.1 -0.1)">
       <defs>
        <path id="DejaVuSans-36" d="M 2113 2584 
Q 1688 2584 1439 2293 
Q 1191 2003 1191 1497 
Q 1191 994 1439 701 
Q 1688 409 2113 409 
Q 2538 409 2786 701 
Q 3034 994 3034 1497 
Q 3034 2003 2786 2293 
Q 2538 2584 2113 2584 
z
M 3366 4563 
L 3366 3988 
Q 3128 4100 2886 4159 
Q 2644 4219 2406 4219 
Q 1781 4219 1451 3797 
Q 1122 3375 1075 2522 
Q 1259 2794 1537 2939 
Q 1816 3084 2150 3084 
Q 2853 3084 3261 2657 
Q 3669 2231 3669 1497 
Q 3669 778 3244 343 
Q 2819 -91 2113 -91 
Q 1303 -91 875 529 
Q 447 1150 447 2328 
Q 447 3434 972 4092 
Q 1497 4750 2381 4750 
Q 2619 4750 2861 4703 
Q 3103 4656 3366 4563 
z
" transform="scale(0.015625)"/>
       </defs>
       <use xlink:href="#DejaVuSans-2212"/>
       <use xlink:href="#DejaVuSans-36" x="83.789062"/>
      </g>
     </g>
    </g>
    <g id="xtick_6">
     <g id="line2d_6">
      <g>
       <use xlink:href="#mc05e01dbb8" x="532.421128" y="382.84" style="stroke: #000000; stroke-width: 0.8"/>
      </g>
     </g>
     <g id="text_6">
      <!-- −4 -->
      <g transform="translate(525.050034 397.438438) scale(0.1 -0.1)">
       <use xlink:href="#DejaVuSans-2212"/>
       <use xlink:href="#DejaVuSans-34" x="83.789062"/>
      </g>
     </g>
    </g>
    <g id="text_7">
     <!-- LCK -->
     <g transform="translate(300.132633 417.195312) scale(0.18 -0.18)">
      <defs>
       <path id="DejaVuSans-4c" d="M 628 4666 
L 1259 4666 
L 1259 531 
L 3531 531 
L 3531 0 
L 628 0 
L 628 4666 
z
" transform="scale(0.015625)"/>
       <path id="DejaVuSans-43" d="M 4122 4306 
L 4122 3641 
Q 3803 3938 3442 4084 
Q 3081 4231 2675 4231 
Q 1875 4231 1450 3742 
Q 1025 3253 1025 2328 
Q 1025 1406 1450 917 
Q 1875 428 2675 428 
Q 3081 428 3442 575 
Q 3803 722 4122 1019 
L 4122 359 
Q 3791 134 3420 21 
Q 3050 -91 2638 -91 
Q 1578 -91 968 557 
Q 359 1206 359 2328 
Q 359 3453 968 4101 
Q 1578 4750 2638 4750 
Q 3056 4750 3426 4639 
Q 3797 4528 4122 4306 
z
" transform="scale(0.015625)"/>
       <path id="DejaVuSans-4b" d="M 628 4666 
L 1259 4666 
L 1259 2694 
L 3353 4666 
L 4166 4666 
L 1850 2491 
L 4331 0 
L 3500 0 
L 1259 2247 
L 1259 0 
L 628 0 
L 628 4666 
z
" transform="scale(0.015625)"/>
      </defs>
      <use xlink:href="#DejaVuSans-4c"/>
      <use xlink:href="#DejaVuSans-43" x="55.712891"/>
      <use xlink:href="#DejaVuSans-4b" x="125.537109"/>
     </g>
    </g>
   </g>
   <g id="matplotlib.axis_2">
    <g id="ytick_1">
     <g id="line2d_7">
      <defs>
       <path id="md8f50c8f51" d="M 0 0 
L -3.5 0 
" style="stroke: #000000; stroke-width: 0.8"/>
      </defs>
      <g>
       <use xlink:href="#md8f50c8f51" x="70.67" y="382.84" style="stroke: #000000; stroke-width: 0.8"/>
      </g>
     </g>
     <g id="text_8">
      <!-- 0 -->
      <g transform="translate(57.3075 386.639219) scale(0.1 -0.1)">
       <use xlink:href="#DejaVuSans-30"/>
      </g>
     </g>
    </g>
    <g id="ytick_2">
     <g id="line2d_8">
      <g>
       <use xlink:href="#md8f50c8f51" x="70.67" y="321.776009" style="stroke: #000000; stroke-width: 0.8"/>
      </g>
     </g>
     <g id="text_9">
      <!-- 2000 -->
      <g transform="translate(38.22 325.575227) scale(0.1 -0.1)">
       <use xlink:href="#DejaVuSans-32"/>
       <use xlink:href="#DejaVuSans-30" x="63.623047"/>
       <use xlink:href="#DejaVuSans-30" x="127.246094"/>
       <use xlink:href="#DejaVuSans-30" x="190.869141"/>
      </g>
     </g>
    </g>
    <g id="ytick_3">
     <g id="line2d_9">
      <g>
       <use xlink:href="#md8f50c8f51" x="70.67" y="260.712017" style="stroke: #000000; stroke-width: 0.8"/>
      </g>
     </g>
     <g id="text_10">
      <!-- 4000 -->
      <g transform="translate(38.22 264.511236) scale(0.1 -0.1)">
       <use xlink:href="#DejaVuSans-34"/>
       <use xlink:href="#DejaVuSans-30" x="63.623047"/>
       <use xlink:href="#DejaVuSans-30" x="127.246094"/>
       <use xlink:href="#DejaVuSans-30" x="190.869141"/>
      </g>
     </g>
    </g>
    <g id="ytick_4">
     <g id="line2d_10">
      <g>
       <use xlink:href="#md8f50c8f51" x="70.67" y="199.648026" style="stroke: #000000; stroke-width: 0.8"/>
      </g>
     </g>
     <g id="text_11">
      <!-- 6000 -->
      <g transform="translate(38.22 203.447245) scale(0.1 -0.1)">
       <use xlink:href="#DejaVuSans-36"/>
       <use xlink:href="#DejaVuSans-30" x="63.623047"/>
       <use xlink:href="#DejaVuSans-30" x="127.246094"/>
       <use xlink:href="#DejaVuSans-30" x="190.869141"/>
      </g>
     </g>
    </g>
    <g id="ytick_5">
     <g id="line2d_11">
      <g>
       <use xlink:href="#md8f50c8f51" x="70.67" y="138.584035" style="stroke: #000000; stroke-width: 0.8"/>
      </g>
     </g>
     <g id="text_12">
      <!-- 8000 -->
      <g transform="translate(38.22 142.383254) scale(0.1 -0.1)">
       <use xlink:href="#DejaVuSans-38"/>
       <use xlink:href="#DejaVuSans-30" x="63.623047"/>
       <use xlink:href="#DejaVuSans-30" x="127.246094"/>
       <use xlink:href="#DejaVuSans-30" x="190.869141"/>
      </g>
     </g>
    </g>
    <g id="ytick_6">
     <g id="line2d_12">
      <g>
       <use xlink:href="#md8f50c8f51" x="70.67" y="77.520043" style="stroke: #000000; stroke-width: 0.8"/>
      </g>
     </g>
     <g id="text_13">
      <!-- 10000 -->
      <g transform="translate(31.8575 81.319262) scale(0.1 -0.1)">
       <use xlink:href="#DejaVuSans-31"/>
       <use xlink:href="#DejaVuSans-30" x="63.623047"/>
       <use xlink:href="#DejaVuSans-30" x="127.246094"/>
       <use xlink:href="#DejaVuSans-30" x="190.869141"/>
       <use xlink:href="#DejaVuSans-30" x="254.492188"/>
      </g>
     </g>
    </g>
    <g id="ytick_7">
     <g id="line2d_13">
      <g>
       <use xlink:href="#md8f50c8f51" x="70.67" y="16.456052" style="stroke: #000000; stroke-width: 0.8"/>
      </g>
     </g>
     <g id="text_14">
      <!-- 12000 -->
      <g transform="translate(31.8575 20.255271) scale(0.1 -0.1)">
       <use xlink:href="#DejaVuSans-31"/>
       <use xlink:href="#DejaVuSans-32" x="63.623047"/>
       <use xlink:href="#DejaVuSans-30" x="127.246094"/>
       <use xlink:href="#DejaVuSans-30" x="190.869141"/>
       <use xlink:href="#DejaVuSans-30" x="254.492188"/>
      </g>
     </g>
    </g>
    <g id="text_15">
     <!-- Count -->
     <g transform="translate(24.114063 223.547188) rotate(-90) scale(0.18 -0.18)">
      <defs>
       <path id="DejaVuSans-6f" d="M 1959 3097 
Q 1497 3097 1228 2736 
Q 959 2375 959 1747 
Q 959 1119 1226 758 
Q 1494 397 1959 397 
Q 2419 397 2687 759 
Q 2956 1122 2956 1747 
Q 2956 2369 2687 2733 
Q 2419 3097 1959 3097 
z
M 1959 3584 
Q 2709 3584 3137 3096 
Q 3566 2609 3566 1747 
Q 3566 888 3137 398 
Q 2709 -91 1959 -91 
Q 1206 -91 779 398 
Q 353 888 353 1747 
Q 353 2609 779 3096 
Q 1206 3584 1959 3584 
z
" transform="scale(0.015625)"/>
       <path id="DejaVuSans-75" d="M 544 1381 
L 544 3500 
L 1119 3500 
L 1119 1403 
Q 1119 906 1312 657 
Q 1506 409 1894 409 
Q 2359 409 2629 706 
Q 2900 1003 2900 1516 
L 2900 3500 
L 3475 3500 
L 3475 0 
L 2900 0 
L 2900 538 
Q 2691 219 2414 64 
Q 2138 -91 1772 -91 
Q 1169 -91 856 284 
Q 544 659 544 1381 
z
M 1991 3584 
L 1991 3584 
z
" transform="scale(0.015625)"/>
       <path id="DejaVuSans-6e" d="M 3513 2113 
L 3513 0 
L 2938 0 
L 2938 2094 
Q 2938 2591 2744 2837 
Q 2550 3084 2163 3084 
Q 1697 3084 1428 2787 
Q 1159 2491 1159 1978 
L 1159 0 
L 581 0 
L 581 3500 
L 1159 3500 
L 1159 2956 
Q 1366 3272 1645 3428 
Q 1925 3584 2291 3584 
Q 2894 3584 3203 3211 
Q 3513 2838 3513 2113 
z
" transform="scale(0.015625)"/>
       <path id="DejaVuSans-74" d="M 1172 4494 
L 1172 3500 
L 2356 3500 
L 2356 3053 
L 1172 3053 
L 1172 1153 
Q 1172 725 1289 603 
Q 1406 481 1766 481 
L 2356 481 
L 2356 0 
L 1766 0 
Q 1100 0 847 248 
Q 594 497 594 1153 
L 594 3053 
L 172 3053 
L 172 3500 
L 594 3500 
L 594 4494 
L 1172 4494 
z
" transform="scale(0.015625)"/>
      </defs>
      <use xlink:href="#DejaVuSans-43"/>
      <use xlink:href="#DejaVuSans-6f" x="69.824219"/>
      <use xlink:href="#DejaVuSans-75" x="131.005859"/>
      <use xlink:href="#DejaVuSans-6e" x="194.384766"/>
      <use xlink:href="#DejaVuSans-74" x="257.763672"/>
     </g>
    </g>
   </g>
   <g id="line2d_14">
    <path d="M 303.60491 382.84 
L 303.60491 28.51619 
" clip-path="url(#pccef744dc1)" style="fill: none; stroke: #ff0000; stroke-width: 1.6; stroke-linecap: square"/>
   </g>
   <g id="patch_244">
    <path d="M 70.67 382.84 
L 70.67 10.8 
" style="fill: none; stroke: #000000; stroke-width: 0.8; stroke-linejoin: miter; stroke-linecap: square"/>
   </g>
   <g id="patch_245">
    <path d="M 563.997766 382.84 
L 563.997766 10.8 
" style="fill: none; stroke: #000000; stroke-width: 0.8; stroke-linejoin: miter; stroke-linecap: square"/>
   </g>
   <g id="patch_246">
    <path d="M 70.67 382.84 
L 563.997766 382.84 
" style="fill: none; stroke: #000000; stroke-width: 0.8; stroke-linejoin: miter; stroke-linecap: square"/>
   </g>
   <g id="patch_247">
    <path d="M 70.67 10.8 
L 563.997766 10.8 
" style="fill: none; stroke: #000000; stroke-width: 0.8; stroke-linejoin: miter; stroke-linecap: square"/>
   </g>
   <g id="text_16">
    <!-- $\mu_4 = -8.048$ -->
    <g transform="translate(415.999436 61.649937) scale(0.21 -0.21)">
     <defs>
      <path id="DejaVuSans-Oblique-3bc" d="M -84 -1331 
L 856 3500 
L 1434 3500 
L 1009 1322 
Q 997 1256 987 1175 
Q 978 1094 978 1013 
Q 978 722 1161 565 
Q 1344 409 1684 409 
Q 2147 409 2431 671 
Q 2716 934 2816 1459 
L 3213 3500 
L 3788 3500 
L 3266 809 
Q 3253 750 3248 706 
Q 3244 663 3244 628 
Q 3244 531 3283 486 
Q 3322 441 3406 441 
Q 3438 441 3492 456 
Q 3547 472 3647 513 
L 3559 50 
Q 3422 -19 3297 -55 
Q 3172 -91 3053 -91 
Q 2847 -91 2730 40 
Q 2613 172 2613 403 
Q 2438 153 2195 31 
Q 1953 -91 1625 -91 
Q 1334 -91 1117 43 
Q 900 178 831 397 
L 494 -1331 
L -84 -1331 
z
" transform="scale(0.015625)"/>
      <path id="DejaVuSans-3d" d="M 678 2906 
L 4684 2906 
L 4684 2381 
L 678 2381 
L 678 2906 
z
M 678 1631 
L 4684 1631 
L 4684 1100 
L 678 1100 
L 678 1631 
z
" transform="scale(0.015625)"/>
      <path id="DejaVuSans-2e" d="M 684 794 
L 1344 794 
L 1344 0 
L 684 0 
L 684 794 
z
" transform="scale(0.015625)"/>
     </defs>
     <use xlink:href="#DejaVuSans-Oblique-3bc" transform="translate(0 0.78125)"/>
     <use xlink:href="#DejaVuSans-34" transform="translate(63.623047 -15.625) scale(0.7)"/>
     <use xlink:href="#DejaVuSans-3d" transform="translate(130.375977 0.78125)"/>
     <use xlink:href="#DejaVuSans-2212" transform="translate(253.129883 0.78125)"/>
     <use xlink:href="#DejaVuSans-38" transform="translate(356.401367 0.78125)"/>
     <use xlink:href="#DejaVuSans-2e" transform="translate(420.024414 0.78125)"/>
     <use xlink:href="#DejaVuSans-30" transform="translate(451.811523 0.78125)"/>
     <use xlink:href="#DejaVuSans-34" transform="translate(515.43457 0.78125)"/>
     <use xlink:href="#DejaVuSans-38" transform="translate(579.057617 0.78125)"/>
    </g>
    <!-- $\sigma_4 = 0.947$ -->
    <g transform="translate(415.999436 85.208) scale(0.21 -0.21)">
     <defs>
      <path id="DejaVuSans-Oblique-3c3" d="M 2219 3044 
Q 1744 3044 1422 2700 
Q 1081 2341 969 1747 
Q 844 1119 1044 756 
Q 1241 397 1706 397 
Q 2166 397 2503 759 
Q 2844 1122 2966 1747 
Q 3075 2319 2881 2700 
Q 2700 3044 2219 3044 
z
M 2309 3503 
L 4219 3500 
L 4106 2925 
L 3463 2925 
Q 3706 2438 3575 1747 
Q 3406 888 2884 400 
Q 2359 -91 1609 -91 
Q 856 -91 525 400 
Q 194 888 363 1747 
Q 528 2609 1050 3097 
Q 1484 3503 2309 3503 
z
" transform="scale(0.015625)"/>
      <path id="DejaVuSans-39" d="M 703 97 
L 703 672 
Q 941 559 1184 500 
Q 1428 441 1663 441 
Q 2288 441 2617 861 
Q 2947 1281 2994 2138 
Q 2813 1869 2534 1725 
Q 2256 1581 1919 1581 
Q 1219 1581 811 2004 
Q 403 2428 403 3163 
Q 403 3881 828 4315 
Q 1253 4750 1959 4750 
Q 2769 4750 3195 4129 
Q 3622 3509 3622 2328 
Q 3622 1225 3098 567 
Q 2575 -91 1691 -91 
Q 1453 -91 1209 -44 
Q 966 3 703 97 
z
M 1959 2075 
Q 2384 2075 2632 2365 
Q 2881 2656 2881 3163 
Q 2881 3666 2632 3958 
Q 2384 4250 1959 4250 
Q 1534 4250 1286 3958 
Q 1038 3666 1038 3163 
Q 1038 2656 1286 2365 
Q 1534 2075 1959 2075 
z
" transform="scale(0.015625)"/>
      <path id="DejaVuSans-37" d="M 525 4666 
L 3525 4666 
L 3525 4397 
L 1831 0 
L 1172 0 
L 2766 4134 
L 525 4134 
L 525 4666 
z
" transform="scale(0.015625)"/>
     </defs>
     <use xlink:href="#DejaVuSans-Oblique-3c3" transform="translate(0 0.78125)"/>
     <use xlink:href="#DejaVuSans-34" transform="translate(63.378906 -15.625) scale(0.7)"/>
     <use xlink:href="#DejaVuSans-3d" transform="translate(130.131836 0.78125)"/>
     <use xlink:href="#DejaVuSans-30" transform="translate(233.40332 0.78125)"/>
     <use xlink:href="#DejaVuSans-2e" transform="translate(297.026367 0.78125)"/>
     <use xlink:href="#DejaVuSans-39" transform="translate(328.813477 0.78125)"/>
     <use xlink:href="#DejaVuSans-34" transform="translate(392.436523 0.78125)"/>
     <use xlink:href="#DejaVuSans-37" transform="translate(456.05957 0.78125)"/>
    </g>
   </g>
  </g>
 </g>
 <defs>
  <clipPath id="pccef744dc1">
   <rect x="70.67" y="10.8" width="493.327766" height="372.04"/>
  </clipPath>
 </defs>
</svg>
