<?xml version="1.0" encoding="utf-8" standalone="no"?>
<!DOCTYPE svg PUBLIC "-//W3C//DTD SVG 1.1//EN"
  "http://www.w3.org/Graphics/SVG/1.1/DTD/svg11.dtd">
<svg xmlns:xlink="http://www.w3.org/1999/xlink" width="576pt" height="432pt" viewBox="0 0 576 432" xmlns="http://www.w3.org/2000/svg" version="1.1">
 <metadata>
  <rdf:RDF xmlns:dc="http://purl.org/dc/elements/1.1/" xmlns:cc="http://creativecommons.org/ns#" xmlns:rdf="http://www.w3.org/1999/02/22-rdf-syntax-ns#">
   <cc:Work>
    <dc:type rdf:resource="http://purl.org/dc/dcmitype/StillImage"/>
    <dc:date>2024-09-05T19:41:15.500717</dc:date>
    <dc:format>image/svg+xml</dc:format>
    <dc:creator>
     <cc:Agent>
      <dc:title>Matplotlib v3.7.2, https://matplotlib.org/</dc:title>
     </cc:Agent>
    </dc:creator>
   </cc:Work>
  </rdf:RDF>
 </metadata>
 <defs>
  <style type="text/css">*{stroke-linejoin: round; stroke-linecap: butt}</style>
 </defs>
 <g id="figure_1">
  <g id="patch_1">
   <path d="M 0 432 
L 576 432 
L 576 0 
L 0 0 
z
" style="fill: #ffffff"/>
  </g>
  <g id="axes_1">
   <g id="patch_2">
    <path d="M 70.67 382.84 
L 563.817766 382.84 
L 563.817766 12.636432 
L 70.67 12.636432 
z
" style="fill: #ffffff"/>
   </g>
   <g id="patch_3">
    <path d="M 93.085808 382.84 
L 94.871928 382.84 
L 94.871928 382.809347 
L 93.085808 382.809347 
z
" clip-path="url(#p999083f198)" style="fill: #1f77b4"/>
   </g>
   <g id="patch_4">
    <path d="M 94.871928 382.84 
L 96.658048 382.84 
L 96.658048 382.84 
L 94.871928 382.84 
z
" clip-path="url(#p999083f198)" style="fill: #1f77b4"/>
   </g>
   <g id="patch_5">
    <path d="M 96.658048 382.84 
L 98.444168 382.84 
L 98.444168 382.84 
L 96.658048 382.84 
z
" clip-path="url(#p999083f198)" style="fill: #1f77b4"/>
   </g>
   <g id="patch_6">
    <path d="M 98.444168 382.84 
L 100.230288 382.84 
L 100.230288 382.84 
L 98.444168 382.84 
z
" clip-path="url(#p999083f198)" style="fill: #1f77b4"/>
   </g>
   <g id="patch_7">
    <path d="M 100.230288 382.84 
L 102.016408 382.84 
L 102.016408 382.84 
L 100.230288 382.84 
z
" clip-path="url(#p999083f198)" style="fill: #1f77b4"/>
   </g>
   <g id="patch_8">
    <path d="M 102.016408 382.84 
L 103.802528 382.84 
L 103.802528 382.84 
L 102.016408 382.84 
z
" clip-path="url(#p999083f198)" style="fill: #1f77b4"/>
   </g>
   <g id="patch_9">
    <path d="M 103.802528 382.84 
L 105.588648 382.84 
L 105.588648 382.84 
L 103.802528 382.84 
z
" clip-path="url(#p999083f198)" style="fill: #1f77b4"/>
   </g>
   <g id="patch_10">
    <path d="M 105.588648 382.84 
L 107.374769 382.84 
L 107.374769 382.84 
L 105.588648 382.84 
z
" clip-path="url(#p999083f198)" style="fill: #1f77b4"/>
   </g>
   <g id="patch_11">
    <path d="M 107.374769 382.84 
L 109.160889 382.84 
L 109.160889 382.84 
L 107.374769 382.84 
z
" clip-path="url(#p999083f198)" style="fill: #1f77b4"/>
   </g>
   <g id="patch_12">
    <path d="M 109.160889 382.84 
L 110.947009 382.84 
L 110.947009 382.84 
L 109.160889 382.84 
z
" clip-path="url(#p999083f198)" style="fill: #1f77b4"/>
   </g>
   <g id="patch_13">
    <path d="M 110.947009 382.84 
L 112.733129 382.84 
L 112.733129 382.84 
L 110.947009 382.84 
z
" clip-path="url(#p999083f198)" style="fill: #1f77b4"/>
   </g>
   <g id="patch_14">
    <path d="M 112.733129 382.84 
L 114.519249 382.84 
L 114.519249 382.84 
L 112.733129 382.84 
z
" clip-path="url(#p999083f198)" style="fill: #1f77b4"/>
   </g>
   <g id="patch_15">
    <path d="M 114.519249 382.84 
L 116.305369 382.84 
L 116.305369 382.84 
L 114.519249 382.84 
z
" clip-path="url(#p999083f198)" style="fill: #1f77b4"/>
   </g>
   <g id="patch_16">
    <path d="M 116.305369 382.84 
L 118.091489 382.84 
L 118.091489 382.809347 
L 116.305369 382.809347 
z
" clip-path="url(#p999083f198)" style="fill: #1f77b4"/>
   </g>
   <g id="patch_17">
    <path d="M 118.091489 382.84 
L 119.877609 382.84 
L 119.877609 382.84 
L 118.091489 382.84 
z
" clip-path="url(#p999083f198)" style="fill: #1f77b4"/>
   </g>
   <g id="patch_18">
    <path d="M 119.877609 382.84 
L 121.66373 382.84 
L 121.66373 382.84 
L 119.877609 382.84 
z
" clip-path="url(#p999083f198)" style="fill: #1f77b4"/>
   </g>
   <g id="patch_19">
    <path d="M 121.66373 382.84 
L 123.44985 382.84 
L 123.44985 382.84 
L 121.66373 382.84 
z
" clip-path="url(#p999083f198)" style="fill: #1f77b4"/>
   </g>
   <g id="patch_20">
    <path d="M 123.44985 382.84 
L 125.23597 382.84 
L 125.23597 382.84 
L 123.44985 382.84 
z
" clip-path="url(#p999083f198)" style="fill: #1f77b4"/>
   </g>
   <g id="patch_21">
    <path d="M 125.23597 382.84 
L 127.02209 382.84 
L 127.02209 382.84 
L 125.23597 382.84 
z
" clip-path="url(#p999083f198)" style="fill: #1f77b4"/>
   </g>
   <g id="patch_22">
    <path d="M 127.02209 382.84 
L 128.80821 382.84 
L 128.80821 382.84 
L 127.02209 382.84 
z
" clip-path="url(#p999083f198)" style="fill: #1f77b4"/>
   </g>
   <g id="patch_23">
    <path d="M 128.80821 382.84 
L 130.59433 382.84 
L 130.59433 382.84 
L 128.80821 382.84 
z
" clip-path="url(#p999083f198)" style="fill: #1f77b4"/>
   </g>
   <g id="patch_24">
    <path d="M 130.59433 382.84 
L 132.38045 382.84 
L 132.38045 382.809347 
L 130.59433 382.809347 
z
" clip-path="url(#p999083f198)" style="fill: #1f77b4"/>
   </g>
   <g id="patch_25">
    <path d="M 132.38045 382.84 
L 134.16657 382.84 
L 134.16657 382.84 
L 132.38045 382.84 
z
" clip-path="url(#p999083f198)" style="fill: #1f77b4"/>
   </g>
   <g id="patch_26">
    <path d="M 134.16657 382.84 
L 135.952691 382.84 
L 135.952691 382.84 
L 134.16657 382.84 
z
" clip-path="url(#p999083f198)" style="fill: #1f77b4"/>
   </g>
   <g id="patch_27">
    <path d="M 135.952691 382.84 
L 137.738811 382.84 
L 137.738811 382.778693 
L 135.952691 382.778693 
z
" clip-path="url(#p999083f198)" style="fill: #1f77b4"/>
   </g>
   <g id="patch_28">
    <path d="M 137.738811 382.84 
L 139.524931 382.84 
L 139.524931 382.84 
L 137.738811 382.84 
z
" clip-path="url(#p999083f198)" style="fill: #1f77b4"/>
   </g>
   <g id="patch_29">
    <path d="M 139.524931 382.84 
L 141.311051 382.84 
L 141.311051 382.778693 
L 139.524931 382.778693 
z
" clip-path="url(#p999083f198)" style="fill: #1f77b4"/>
   </g>
   <g id="patch_30">
    <path d="M 141.311051 382.84 
L 143.097171 382.84 
L 143.097171 382.84 
L 141.311051 382.84 
z
" clip-path="url(#p999083f198)" style="fill: #1f77b4"/>
   </g>
   <g id="patch_31">
    <path d="M 143.097171 382.84 
L 144.883291 382.84 
L 144.883291 382.84 
L 143.097171 382.84 
z
" clip-path="url(#p999083f198)" style="fill: #1f77b4"/>
   </g>
   <g id="patch_32">
    <path d="M 144.883291 382.84 
L 146.669411 382.84 
L 146.669411 382.717387 
L 144.883291 382.717387 
z
" clip-path="url(#p999083f198)" style="fill: #1f77b4"/>
   </g>
   <g id="patch_33">
    <path d="M 146.669411 382.84 
L 148.455531 382.84 
L 148.455531 382.84 
L 146.669411 382.84 
z
" clip-path="url(#p999083f198)" style="fill: #1f77b4"/>
   </g>
   <g id="patch_34">
    <path d="M 148.455531 382.84 
L 150.241652 382.84 
L 150.241652 382.84 
L 148.455531 382.84 
z
" clip-path="url(#p999083f198)" style="fill: #1f77b4"/>
   </g>
   <g id="patch_35">
    <path d="M 150.241652 382.84 
L 152.027772 382.84 
L 152.027772 382.594773 
L 150.241652 382.594773 
z
" clip-path="url(#p999083f198)" style="fill: #1f77b4"/>
   </g>
   <g id="patch_36">
    <path d="M 152.027772 382.84 
L 153.813892 382.84 
L 153.813892 382.84 
L 152.027772 382.84 
z
" clip-path="url(#p999083f198)" style="fill: #1f77b4"/>
   </g>
   <g id="patch_37">
    <path d="M 153.813892 382.84 
L 155.600012 382.84 
L 155.600012 382.56412 
L 153.813892 382.56412 
z
" clip-path="url(#p999083f198)" style="fill: #1f77b4"/>
   </g>
   <g id="patch_38">
    <path d="M 155.600012 382.84 
L 157.386132 382.84 
L 157.386132 382.84 
L 155.600012 382.84 
z
" clip-path="url(#p999083f198)" style="fill: #1f77b4"/>
   </g>
   <g id="patch_39">
    <path d="M 157.386132 382.84 
L 159.172252 382.84 
L 159.172252 382.84 
L 157.386132 382.84 
z
" clip-path="url(#p999083f198)" style="fill: #1f77b4"/>
   </g>
   <g id="patch_40">
    <path d="M 159.172252 382.84 
L 160.958372 382.84 
L 160.958372 382.56412 
L 159.172252 382.56412 
z
" clip-path="url(#p999083f198)" style="fill: #1f77b4"/>
   </g>
   <g id="patch_41">
    <path d="M 160.958372 382.84 
L 162.744492 382.84 
L 162.744492 382.84 
L 160.958372 382.84 
z
" clip-path="url(#p999083f198)" style="fill: #1f77b4"/>
   </g>
   <g id="patch_42">
    <path d="M 162.744492 382.84 
L 164.530612 382.84 
L 164.530612 382.84 
L 162.744492 382.84 
z
" clip-path="url(#p999083f198)" style="fill: #1f77b4"/>
   </g>
   <g id="patch_43">
    <path d="M 164.530612 382.84 
L 166.316733 382.84 
L 166.316733 382.318893 
L 164.530612 382.318893 
z
" clip-path="url(#p999083f198)" style="fill: #1f77b4"/>
   </g>
   <g id="patch_44">
    <path d="M 166.316733 382.84 
L 168.102853 382.84 
L 168.102853 382.84 
L 166.316733 382.84 
z
" clip-path="url(#p999083f198)" style="fill: #1f77b4"/>
   </g>
   <g id="patch_45">
    <path d="M 168.102853 382.84 
L 169.888973 382.84 
L 169.888973 382.28824 
L 168.102853 382.28824 
z
" clip-path="url(#p999083f198)" style="fill: #1f77b4"/>
   </g>
   <g id="patch_46">
    <path d="M 169.888973 382.84 
L 171.675093 382.84 
L 171.675093 382.84 
L 169.888973 382.84 
z
" clip-path="url(#p999083f198)" style="fill: #1f77b4"/>
   </g>
   <g id="patch_47">
    <path d="M 171.675093 382.84 
L 173.461213 382.84 
L 173.461213 382.84 
L 171.675093 382.84 
z
" clip-path="url(#p999083f198)" style="fill: #1f77b4"/>
   </g>
   <g id="patch_48">
    <path d="M 173.461213 382.84 
L 175.247333 382.84 
L 175.247333 381.583213 
L 173.461213 381.583213 
z
" clip-path="url(#p999083f198)" style="fill: #1f77b4"/>
   </g>
   <g id="patch_49">
    <path d="M 175.247333 382.84 
L 177.033453 382.84 
L 177.033453 382.84 
L 175.247333 382.84 
z
" clip-path="url(#p999083f198)" style="fill: #1f77b4"/>
   </g>
   <g id="patch_50">
    <path d="M 177.033453 382.84 
L 178.819573 382.84 
L 178.819573 382.84 
L 177.033453 382.84 
z
" clip-path="url(#p999083f198)" style="fill: #1f77b4"/>
   </g>
   <g id="patch_51">
    <path d="M 178.819573 382.84 
L 180.605694 382.84 
L 180.605694 381.767133 
L 178.819573 381.767133 
z
" clip-path="url(#p999083f198)" style="fill: #1f77b4"/>
   </g>
   <g id="patch_52">
    <path d="M 180.605694 382.84 
L 182.391814 382.84 
L 182.391814 382.84 
L 180.605694 382.84 
z
" clip-path="url(#p999083f198)" style="fill: #1f77b4"/>
   </g>
   <g id="patch_53">
    <path d="M 182.391814 382.84 
L 184.177934 382.84 
L 184.177934 381.092759 
L 182.391814 381.092759 
z
" clip-path="url(#p999083f198)" style="fill: #1f77b4"/>
   </g>
   <g id="patch_54">
    <path d="M 184.177934 382.84 
L 185.964054 382.84 
L 185.964054 382.84 
L 184.177934 382.84 
z
" clip-path="url(#p999083f198)" style="fill: #1f77b4"/>
   </g>
   <g id="patch_55">
    <path d="M 185.964054 382.84 
L 187.750174 382.84 
L 187.750174 382.84 
L 185.964054 382.84 
z
" clip-path="url(#p999083f198)" style="fill: #1f77b4"/>
   </g>
   <g id="patch_56">
    <path d="M 187.750174 382.84 
L 189.536294 382.84 
L 189.536294 380.449039 
L 187.750174 380.449039 
z
" clip-path="url(#p999083f198)" style="fill: #1f77b4"/>
   </g>
   <g id="patch_57">
    <path d="M 189.536294 382.84 
L 191.322414 382.84 
L 191.322414 382.84 
L 189.536294 382.84 
z
" clip-path="url(#p999083f198)" style="fill: #1f77b4"/>
   </g>
   <g id="patch_58">
    <path d="M 191.322414 382.84 
L 193.108534 382.84 
L 193.108534 382.84 
L 191.322414 382.84 
z
" clip-path="url(#p999083f198)" style="fill: #1f77b4"/>
   </g>
   <g id="patch_59">
    <path d="M 193.108534 382.84 
L 194.894655 382.84 
L 194.894655 379.805318 
L 193.108534 379.805318 
z
" clip-path="url(#p999083f198)" style="fill: #1f77b4"/>
   </g>
   <g id="patch_60">
    <path d="M 194.894655 382.84 
L 196.680775 382.84 
L 196.680775 382.84 
L 194.894655 382.84 
z
" clip-path="url(#p999083f198)" style="fill: #1f77b4"/>
   </g>
   <g id="patch_61">
    <path d="M 196.680775 382.84 
L 198.466895 382.84 
L 198.466895 379.222905 
L 196.680775 379.222905 
z
" clip-path="url(#p999083f198)" style="fill: #1f77b4"/>
   </g>
   <g id="patch_62">
    <path d="M 198.466895 382.84 
L 200.253015 382.84 
L 200.253015 382.84 
L 198.466895 382.84 
z
" clip-path="url(#p999083f198)" style="fill: #1f77b4"/>
   </g>
   <g id="patch_63">
    <path d="M 200.253015 382.84 
L 202.039135 382.84 
L 202.039135 382.84 
L 200.253015 382.84 
z
" clip-path="url(#p999083f198)" style="fill: #1f77b4"/>
   </g>
   <g id="patch_64">
    <path d="M 202.039135 382.84 
L 203.825255 382.84 
L 203.825255 377.598277 
L 202.039135 377.598277 
z
" clip-path="url(#p999083f198)" style="fill: #1f77b4"/>
   </g>
   <g id="patch_65">
    <path d="M 203.825255 382.84 
L 205.611375 382.84 
L 205.611375 382.84 
L 203.825255 382.84 
z
" clip-path="url(#p999083f198)" style="fill: #1f77b4"/>
   </g>
   <g id="patch_66">
    <path d="M 205.611375 382.84 
L 207.397495 382.84 
L 207.397495 382.84 
L 205.611375 382.84 
z
" clip-path="url(#p999083f198)" style="fill: #1f77b4"/>
   </g>
   <g id="patch_67">
    <path d="M 207.397495 382.84 
L 209.183616 382.84 
L 209.183616 376.218876 
L 207.397495 376.218876 
z
" clip-path="url(#p999083f198)" style="fill: #1f77b4"/>
   </g>
   <g id="patch_68">
    <path d="M 209.183616 382.84 
L 210.969736 382.84 
L 210.969736 382.84 
L 209.183616 382.84 
z
" clip-path="url(#p999083f198)" style="fill: #1f77b4"/>
   </g>
   <g id="patch_69">
    <path d="M 210.969736 382.84 
L 212.755856 382.84 
L 212.755856 375.421889 
L 210.969736 375.421889 
z
" clip-path="url(#p999083f198)" style="fill: #1f77b4"/>
   </g>
   <g id="patch_70">
    <path d="M 212.755856 382.84 
L 214.541976 382.84 
L 214.541976 382.84 
L 212.755856 382.84 
z
" clip-path="url(#p999083f198)" style="fill: #1f77b4"/>
   </g>
   <g id="patch_71">
    <path d="M 214.541976 382.84 
L 216.328096 382.84 
L 216.328096 382.84 
L 214.541976 382.84 
z
" clip-path="url(#p999083f198)" style="fill: #1f77b4"/>
   </g>
   <g id="patch_72">
    <path d="M 216.328096 382.84 
L 218.114216 382.84 
L 218.114216 372.264594 
L 216.328096 372.264594 
z
" clip-path="url(#p999083f198)" style="fill: #1f77b4"/>
   </g>
   <g id="patch_73">
    <path d="M 218.114216 382.84 
L 219.900336 382.84 
L 219.900336 382.84 
L 218.114216 382.84 
z
" clip-path="url(#p999083f198)" style="fill: #1f77b4"/>
   </g>
   <g id="patch_74">
    <path d="M 219.900336 382.84 
L 221.686456 382.84 
L 221.686456 382.84 
L 219.900336 382.84 
z
" clip-path="url(#p999083f198)" style="fill: #1f77b4"/>
   </g>
   <g id="patch_75">
    <path d="M 221.686456 382.84 
L 223.472577 382.84 
L 223.472577 368.984686 
L 221.686456 368.984686 
z
" clip-path="url(#p999083f198)" style="fill: #1f77b4"/>
   </g>
   <g id="patch_76">
    <path d="M 223.472577 382.84 
L 225.258697 382.84 
L 225.258697 382.84 
L 223.472577 382.84 
z
" clip-path="url(#p999083f198)" style="fill: #1f77b4"/>
   </g>
   <g id="patch_77">
    <path d="M 225.258697 382.84 
L 227.044817 382.84 
L 227.044817 365.796738 
L 225.258697 365.796738 
z
" clip-path="url(#p999083f198)" style="fill: #1f77b4"/>
   </g>
   <g id="patch_78">
    <path d="M 227.044817 382.84 
L 228.830937 382.84 
L 228.830937 382.84 
L 227.044817 382.84 
z
" clip-path="url(#p999083f198)" style="fill: #1f77b4"/>
   </g>
   <g id="patch_79">
    <path d="M 228.830937 382.84 
L 230.617057 382.84 
L 230.617057 382.84 
L 228.830937 382.84 
z
" clip-path="url(#p999083f198)" style="fill: #1f77b4"/>
   </g>
   <g id="patch_80">
    <path d="M 230.617057 382.84 
L 232.403177 382.84 
L 232.403177 361.413309 
L 230.617057 361.413309 
z
" clip-path="url(#p999083f198)" style="fill: #1f77b4"/>
   </g>
   <g id="patch_81">
    <path d="M 232.403177 382.84 
L 234.189297 382.84 
L 234.189297 382.84 
L 232.403177 382.84 
z
" clip-path="url(#p999083f198)" style="fill: #1f77b4"/>
   </g>
   <g id="patch_82">
    <path d="M 234.189297 382.84 
L 235.975417 382.84 
L 235.975417 382.84 
L 234.189297 382.84 
z
" clip-path="url(#p999083f198)" style="fill: #1f77b4"/>
   </g>
   <g id="patch_83">
    <path d="M 235.975417 382.84 
L 237.761538 382.84 
L 237.761538 355.190679 
L 235.975417 355.190679 
z
" clip-path="url(#p999083f198)" style="fill: #1f77b4"/>
   </g>
   <g id="patch_84">
    <path d="M 237.761538 382.84 
L 239.547658 382.84 
L 239.547658 382.84 
L 237.761538 382.84 
z
" clip-path="url(#p999083f198)" style="fill: #1f77b4"/>
   </g>
   <g id="patch_85">
    <path d="M 239.547658 382.84 
L 241.333778 382.84 
L 241.333778 350.071569 
L 239.547658 350.071569 
z
" clip-path="url(#p999083f198)" style="fill: #1f77b4"/>
   </g>
   <g id="patch_86">
    <path d="M 241.333778 382.84 
L 243.119898 382.84 
L 243.119898 382.84 
L 241.333778 382.84 
z
" clip-path="url(#p999083f198)" style="fill: #1f77b4"/>
   </g>
   <g id="patch_87">
    <path d="M 243.119898 382.84 
L 244.906018 382.84 
L 244.906018 382.84 
L 243.119898 382.84 
z
" clip-path="url(#p999083f198)" style="fill: #1f77b4"/>
   </g>
   <g id="patch_88">
    <path d="M 244.906018 382.84 
L 246.692138 382.84 
L 246.692138 337.748923 
L 244.906018 337.748923 
z
" clip-path="url(#p999083f198)" style="fill: #1f77b4"/>
   </g>
   <g id="patch_89">
    <path d="M 246.692138 382.84 
L 248.478258 382.84 
L 248.478258 382.84 
L 246.692138 382.84 
z
" clip-path="url(#p999083f198)" style="fill: #1f77b4"/>
   </g>
   <g id="patch_90">
    <path d="M 248.478258 382.84 
L 250.264378 382.84 
L 250.264378 382.84 
L 248.478258 382.84 
z
" clip-path="url(#p999083f198)" style="fill: #1f77b4"/>
   </g>
   <g id="patch_91">
    <path d="M 250.264378 382.84 
L 252.050499 382.84 
L 252.050499 331.434333 
L 250.264378 331.434333 
z
" clip-path="url(#p999083f198)" style="fill: #1f77b4"/>
   </g>
   <g id="patch_92">
    <path d="M 252.050499 382.84 
L 253.836619 382.84 
L 253.836619 382.84 
L 252.050499 382.84 
z
" clip-path="url(#p999083f198)" style="fill: #1f77b4"/>
   </g>
   <g id="patch_93">
    <path d="M 253.836619 382.84 
L 255.622739 382.84 
L 255.622739 322.177021 
L 253.836619 322.177021 
z
" clip-path="url(#p999083f198)" style="fill: #1f77b4"/>
   </g>
   <g id="patch_94">
    <path d="M 255.622739 382.84 
L 257.408859 382.84 
L 257.408859 382.84 
L 255.622739 382.84 
z
" clip-path="url(#p999083f198)" style="fill: #1f77b4"/>
   </g>
   <g id="patch_95">
    <path d="M 257.408859 382.84 
L 259.194979 382.84 
L 259.194979 382.84 
L 257.408859 382.84 
z
" clip-path="url(#p999083f198)" style="fill: #1f77b4"/>
   </g>
   <g id="patch_96">
    <path d="M 259.194979 382.84 
L 260.981099 382.84 
L 260.981099 308.536281 
L 259.194979 308.536281 
z
" clip-path="url(#p999083f198)" style="fill: #1f77b4"/>
   </g>
   <g id="patch_97">
    <path d="M 260.981099 382.84 
L 262.767219 382.84 
L 262.767219 382.84 
L 260.981099 382.84 
z
" clip-path="url(#p999083f198)" style="fill: #1f77b4"/>
   </g>
   <g id="patch_98">
    <path d="M 262.767219 382.84 
L 264.553339 382.84 
L 264.553339 382.84 
L 262.767219 382.84 
z
" clip-path="url(#p999083f198)" style="fill: #1f77b4"/>
   </g>
   <g id="patch_99">
    <path d="M 264.553339 382.84 
L 266.33946 382.84 
L 266.33946 294.374433 
L 264.553339 294.374433 
z
" clip-path="url(#p999083f198)" style="fill: #1f77b4"/>
   </g>
   <g id="patch_100">
    <path d="M 266.33946 382.84 
L 268.12558 382.84 
L 268.12558 382.84 
L 266.33946 382.84 
z
" clip-path="url(#p999083f198)" style="fill: #1f77b4"/>
   </g>
   <g id="patch_101">
    <path d="M 268.12558 382.84 
L 269.9117 382.84 
L 269.9117 275.798503 
L 268.12558 275.798503 
z
" clip-path="url(#p999083f198)" style="fill: #1f77b4"/>
   </g>
   <g id="patch_102">
    <path d="M 269.9117 382.84 
L 271.69782 382.84 
L 271.69782 382.84 
L 269.9117 382.84 
z
" clip-path="url(#p999083f198)" style="fill: #1f77b4"/>
   </g>
   <g id="patch_103">
    <path d="M 271.69782 382.84 
L 273.48394 382.84 
L 273.48394 382.84 
L 271.69782 382.84 
z
" clip-path="url(#p999083f198)" style="fill: #1f77b4"/>
   </g>
   <g id="patch_104">
    <path d="M 273.48394 382.84 
L 275.27006 382.84 
L 275.27006 256.517546 
L 273.48394 256.517546 
z
" clip-path="url(#p999083f198)" style="fill: #1f77b4"/>
   </g>
   <g id="patch_105">
    <path d="M 275.27006 382.84 
L 277.05618 382.84 
L 277.05618 382.84 
L 275.27006 382.84 
z
" clip-path="url(#p999083f198)" style="fill: #1f77b4"/>
   </g>
   <g id="patch_106">
    <path d="M 277.05618 382.84 
L 278.8423 382.84 
L 278.8423 382.84 
L 277.05618 382.84 
z
" clip-path="url(#p999083f198)" style="fill: #1f77b4"/>
   </g>
   <g id="patch_107">
    <path d="M 278.8423 382.84 
L 280.628421 382.84 
L 280.628421 234.968242 
L 278.8423 234.968242 
z
" clip-path="url(#p999083f198)" style="fill: #1f77b4"/>
   </g>
   <g id="patch_108">
    <path d="M 280.628421 382.84 
L 282.414541 382.84 
L 282.414541 382.84 
L 280.628421 382.84 
z
" clip-path="url(#p999083f198)" style="fill: #1f77b4"/>
   </g>
   <g id="patch_109">
    <path d="M 282.414541 382.84 
L 284.200661 382.84 
L 284.200661 215.534018 
L 282.414541 215.534018 
z
" clip-path="url(#p999083f198)" style="fill: #1f77b4"/>
   </g>
   <g id="patch_110">
    <path d="M 284.200661 382.84 
L 285.986781 382.84 
L 285.986781 382.84 
L 284.200661 382.84 
z
" clip-path="url(#p999083f198)" style="fill: #1f77b4"/>
   </g>
   <g id="patch_111">
    <path d="M 285.986781 382.84 
L 287.772901 382.84 
L 287.772901 382.84 
L 285.986781 382.84 
z
" clip-path="url(#p999083f198)" style="fill: #1f77b4"/>
   </g>
   <g id="patch_112">
    <path d="M 287.772901 382.84 
L 289.559021 382.84 
L 289.559021 192.360086 
L 287.772901 192.360086 
z
" clip-path="url(#p999083f198)" style="fill: #1f77b4"/>
   </g>
   <g id="patch_113">
    <path d="M 289.559021 382.84 
L 291.345141 382.84 
L 291.345141 382.84 
L 289.559021 382.84 
z
" clip-path="url(#p999083f198)" style="fill: #1f77b4"/>
   </g>
   <g id="patch_114">
    <path d="M 291.345141 382.84 
L 293.131261 382.84 
L 293.131261 382.84 
L 291.345141 382.84 
z
" clip-path="url(#p999083f198)" style="fill: #1f77b4"/>
   </g>
   <g id="patch_115">
    <path d="M 293.131261 382.84 
L 294.917382 382.84 
L 294.917382 172.772595 
L 293.131261 172.772595 
z
" clip-path="url(#p999083f198)" style="fill: #1f77b4"/>
   </g>
   <g id="patch_116">
    <path d="M 294.917382 382.84 
L 296.703502 382.84 
L 296.703502 382.84 
L 294.917382 382.84 
z
" clip-path="url(#p999083f198)" style="fill: #1f77b4"/>
   </g>
   <g id="patch_117">
    <path d="M 296.703502 382.84 
L 298.489622 382.84 
L 298.489622 148.433836 
L 296.703502 148.433836 
z
" clip-path="url(#p999083f198)" style="fill: #1f77b4"/>
   </g>
   <g id="patch_118">
    <path d="M 298.489622 382.84 
L 300.275742 382.84 
L 300.275742 382.84 
L 298.489622 382.84 
z
" clip-path="url(#p999083f198)" style="fill: #1f77b4"/>
   </g>
   <g id="patch_119">
    <path d="M 300.275742 382.84 
L 302.061862 382.84 
L 302.061862 382.84 
L 300.275742 382.84 
z
" clip-path="url(#p999083f198)" style="fill: #1f77b4"/>
   </g>
   <g id="patch_120">
    <path d="M 302.061862 382.84 
L 303.847982 382.84 
L 303.847982 120.968435 
L 302.061862 120.968435 
z
" clip-path="url(#p999083f198)" style="fill: #1f77b4"/>
   </g>
   <g id="patch_121">
    <path d="M 303.847982 382.84 
L 305.634102 382.84 
L 305.634102 382.84 
L 303.847982 382.84 
z
" clip-path="url(#p999083f198)" style="fill: #1f77b4"/>
   </g>
   <g id="patch_122">
    <path d="M 305.634102 382.84 
L 307.420222 382.84 
L 307.420222 382.84 
L 305.634102 382.84 
z
" clip-path="url(#p999083f198)" style="fill: #1f77b4"/>
   </g>
   <g id="patch_123">
    <path d="M 307.420222 382.84 
L 309.206343 382.84 
L 309.206343 100.491997 
L 307.420222 100.491997 
z
" clip-path="url(#p999083f198)" style="fill: #1f77b4"/>
   </g>
   <g id="patch_124">
    <path d="M 309.206343 382.84 
L 310.992463 382.84 
L 310.992463 382.84 
L 309.206343 382.84 
z
" clip-path="url(#p999083f198)" style="fill: #1f77b4"/>
   </g>
   <g id="patch_125">
    <path d="M 310.992463 382.84 
L 312.778583 382.84 
L 312.778583 86.33015 
L 310.992463 86.33015 
z
" clip-path="url(#p999083f198)" style="fill: #1f77b4"/>
   </g>
   <g id="patch_126">
    <path d="M 312.778583 382.84 
L 314.564703 382.84 
L 314.564703 382.84 
L 312.778583 382.84 
z
" clip-path="url(#p999083f198)" style="fill: #1f77b4"/>
   </g>
   <g id="patch_127">
    <path d="M 314.564703 382.84 
L 316.350823 382.84 
L 316.350823 382.84 
L 314.564703 382.84 
z
" clip-path="url(#p999083f198)" style="fill: #1f77b4"/>
   </g>
   <g id="patch_128">
    <path d="M 316.350823 382.84 
L 318.136943 382.84 
L 318.136943 59.508469 
L 316.350823 59.508469 
z
" clip-path="url(#p999083f198)" style="fill: #1f77b4"/>
   </g>
   <g id="patch_129">
    <path d="M 318.136943 382.84 
L 319.923063 382.84 
L 319.923063 382.84 
L 318.136943 382.84 
z
" clip-path="url(#p999083f198)" style="fill: #1f77b4"/>
   </g>
   <g id="patch_130">
    <path d="M 319.923063 382.84 
L 321.709183 382.84 
L 321.709183 382.84 
L 319.923063 382.84 
z
" clip-path="url(#p999083f198)" style="fill: #1f77b4"/>
   </g>
   <g id="patch_131">
    <path d="M 321.709183 382.84 
L 323.495303 382.84 
L 323.495303 48.71849 
L 321.709183 48.71849 
z
" clip-path="url(#p999083f198)" style="fill: #1f77b4"/>
   </g>
   <g id="patch_132">
    <path d="M 323.495303 382.84 
L 325.281424 382.84 
L 325.281424 382.84 
L 323.495303 382.84 
z
" clip-path="url(#p999083f198)" style="fill: #1f77b4"/>
   </g>
   <g id="patch_133">
    <path d="M 325.281424 382.84 
L 327.067544 382.84 
L 327.067544 32.318948 
L 325.281424 32.318948 
z
" clip-path="url(#p999083f198)" style="fill: #1f77b4"/>
   </g>
   <g id="patch_134">
    <path d="M 327.067544 382.84 
L 328.853664 382.84 
L 328.853664 382.84 
L 327.067544 382.84 
z
" clip-path="url(#p999083f198)" style="fill: #1f77b4"/>
   </g>
   <g id="patch_135">
    <path d="M 328.853664 382.84 
L 330.639784 382.84 
L 330.639784 382.84 
L 328.853664 382.84 
z
" clip-path="url(#p999083f198)" style="fill: #1f77b4"/>
   </g>
   <g id="patch_136">
    <path d="M 330.639784 382.84 
L 332.425904 382.84 
L 332.425904 30.265173 
L 330.639784 30.265173 
z
" clip-path="url(#p999083f198)" style="fill: #1f77b4"/>
   </g>
   <g id="patch_137">
    <path d="M 332.425904 382.84 
L 334.212024 382.84 
L 334.212024 382.84 
L 332.425904 382.84 
z
" clip-path="url(#p999083f198)" style="fill: #1f77b4"/>
   </g>
   <g id="patch_138">
    <path d="M 334.212024 382.84 
L 335.998144 382.84 
L 335.998144 382.84 
L 334.212024 382.84 
z
" clip-path="url(#p999083f198)" style="fill: #1f77b4"/>
   </g>
   <g id="patch_139">
    <path d="M 335.998144 382.84 
L 337.784264 382.84 
L 337.784264 34.403375 
L 335.998144 34.403375 
z
" clip-path="url(#p999083f198)" style="fill: #1f77b4"/>
   </g>
   <g id="patch_140">
    <path d="M 337.784264 382.84 
L 339.570385 382.84 
L 339.570385 382.84 
L 337.784264 382.84 
z
" clip-path="url(#p999083f198)" style="fill: #1f77b4"/>
   </g>
   <g id="patch_141">
    <path d="M 339.570385 382.84 
L 341.356505 382.84 
L 341.356505 41.484299 
L 339.570385 41.484299 
z
" clip-path="url(#p999083f198)" style="fill: #1f77b4"/>
   </g>
   <g id="patch_142">
    <path d="M 341.356505 382.84 
L 343.142625 382.84 
L 343.142625 382.84 
L 341.356505 382.84 
z
" clip-path="url(#p999083f198)" style="fill: #1f77b4"/>
   </g>
   <g id="patch_143">
    <path d="M 343.142625 382.84 
L 344.928745 382.84 
L 344.928745 382.84 
L 343.142625 382.84 
z
" clip-path="url(#p999083f198)" style="fill: #1f77b4"/>
   </g>
   <g id="patch_144">
    <path d="M 344.928745 382.84 
L 346.714865 382.84 
L 346.714865 44.702901 
L 344.928745 44.702901 
z
" clip-path="url(#p999083f198)" style="fill: #1f77b4"/>
   </g>
   <g id="patch_145">
    <path d="M 346.714865 382.84 
L 348.500985 382.84 
L 348.500985 382.84 
L 346.714865 382.84 
z
" clip-path="url(#p999083f198)" style="fill: #1f77b4"/>
   </g>
   <g id="patch_146">
    <path d="M 348.500985 382.84 
L 350.287105 382.84 
L 350.287105 382.84 
L 348.500985 382.84 
z
" clip-path="url(#p999083f198)" style="fill: #1f77b4"/>
   </g>
   <g id="patch_147">
    <path d="M 350.287105 382.84 
L 352.073225 382.84 
L 352.073225 55.339613 
L 350.287105 55.339613 
z
" clip-path="url(#p999083f198)" style="fill: #1f77b4"/>
   </g>
   <g id="patch_148">
    <path d="M 352.073225 382.84 
L 353.859346 382.84 
L 353.859346 382.84 
L 352.073225 382.84 
z
" clip-path="url(#p999083f198)" style="fill: #1f77b4"/>
   </g>
   <g id="patch_149">
    <path d="M 353.859346 382.84 
L 355.645466 382.84 
L 355.645466 71.524582 
L 353.859346 71.524582 
z
" clip-path="url(#p999083f198)" style="fill: #1f77b4"/>
   </g>
   <g id="patch_150">
    <path d="M 355.645466 382.84 
L 357.431586 382.84 
L 357.431586 382.84 
L 355.645466 382.84 
z
" clip-path="url(#p999083f198)" style="fill: #1f77b4"/>
   </g>
   <g id="patch_151">
    <path d="M 357.431586 382.84 
L 359.217706 382.84 
L 359.217706 382.84 
L 357.431586 382.84 
z
" clip-path="url(#p999083f198)" style="fill: #1f77b4"/>
   </g>
   <g id="patch_152">
    <path d="M 359.217706 382.84 
L 361.003826 382.84 
L 361.003826 90.866845 
L 359.217706 90.866845 
z
" clip-path="url(#p999083f198)" style="fill: #1f77b4"/>
   </g>
   <g id="patch_153">
    <path d="M 361.003826 382.84 
L 362.789946 382.84 
L 362.789946 382.84 
L 361.003826 382.84 
z
" clip-path="url(#p999083f198)" style="fill: #1f77b4"/>
   </g>
   <g id="patch_154">
    <path d="M 362.789946 382.84 
L 364.576066 382.84 
L 364.576066 382.84 
L 362.789946 382.84 
z
" clip-path="url(#p999083f198)" style="fill: #1f77b4"/>
   </g>
   <g id="patch_155">
    <path d="M 364.576066 382.84 
L 366.362186 382.84 
L 366.362186 114.653845 
L 364.576066 114.653845 
z
" clip-path="url(#p999083f198)" style="fill: #1f77b4"/>
   </g>
   <g id="patch_156">
    <path d="M 366.362186 382.84 
L 368.148307 382.84 
L 368.148307 382.84 
L 366.362186 382.84 
z
" clip-path="url(#p999083f198)" style="fill: #1f77b4"/>
   </g>
   <g id="patch_157">
    <path d="M 368.148307 382.84 
L 369.934427 382.84 
L 369.934427 133.689575 
L 368.148307 133.689575 
z
" clip-path="url(#p999083f198)" style="fill: #1f77b4"/>
   </g>
   <g id="patch_158">
    <path d="M 369.934427 382.84 
L 371.720547 382.84 
L 371.720547 382.84 
L 369.934427 382.84 
z
" clip-path="url(#p999083f198)" style="fill: #1f77b4"/>
   </g>
   <g id="patch_159">
    <path d="M 371.720547 382.84 
L 373.506667 382.84 
L 373.506667 382.84 
L 371.720547 382.84 
z
" clip-path="url(#p999083f198)" style="fill: #1f77b4"/>
   </g>
   <g id="patch_160">
    <path d="M 373.506667 382.84 
L 375.292787 382.84 
L 375.292787 159.683615 
L 373.506667 159.683615 
z
" clip-path="url(#p999083f198)" style="fill: #1f77b4"/>
   </g>
   <g id="patch_161">
    <path d="M 375.292787 382.84 
L 377.078907 382.84 
L 377.078907 382.84 
L 375.292787 382.84 
z
" clip-path="url(#p999083f198)" style="fill: #1f77b4"/>
   </g>
   <g id="patch_162">
    <path d="M 377.078907 382.84 
L 378.865027 382.84 
L 378.865027 382.84 
L 377.078907 382.84 
z
" clip-path="url(#p999083f198)" style="fill: #1f77b4"/>
   </g>
   <g id="patch_163">
    <path d="M 378.865027 382.84 
L 380.651147 382.84 
L 380.651147 179.761559 
L 378.865027 179.761559 
z
" clip-path="url(#p999083f198)" style="fill: #1f77b4"/>
   </g>
   <g id="patch_164">
    <path d="M 380.651147 382.84 
L 382.437268 382.84 
L 382.437268 382.84 
L 380.651147 382.84 
z
" clip-path="url(#p999083f198)" style="fill: #1f77b4"/>
   </g>
   <g id="patch_165">
    <path d="M 382.437268 382.84 
L 384.223388 382.84 
L 384.223388 205.357106 
L 382.437268 205.357106 
z
" clip-path="url(#p999083f198)" style="fill: #1f77b4"/>
   </g>
   <g id="patch_166">
    <path d="M 384.223388 382.84 
L 386.009508 382.84 
L 386.009508 382.84 
L 384.223388 382.84 
z
" clip-path="url(#p999083f198)" style="fill: #1f77b4"/>
   </g>
   <g id="patch_167">
    <path d="M 386.009508 382.84 
L 387.795628 382.84 
L 387.795628 382.84 
L 386.009508 382.84 
z
" clip-path="url(#p999083f198)" style="fill: #1f77b4"/>
   </g>
   <g id="patch_168">
    <path d="M 387.795628 382.84 
L 389.581748 382.84 
L 389.581748 222.768209 
L 387.795628 222.768209 
z
" clip-path="url(#p999083f198)" style="fill: #1f77b4"/>
   </g>
   <g id="patch_169">
    <path d="M 389.581748 382.84 
L 391.367868 382.84 
L 391.367868 382.84 
L 389.581748 382.84 
z
" clip-path="url(#p999083f198)" style="fill: #1f77b4"/>
   </g>
   <g id="patch_170">
    <path d="M 391.367868 382.84 
L 393.153988 382.84 
L 393.153988 382.84 
L 391.367868 382.84 
z
" clip-path="url(#p999083f198)" style="fill: #1f77b4"/>
   </g>
   <g id="patch_171">
    <path d="M 393.153988 382.84 
L 394.940108 382.84 
L 394.940108 244.041633 
L 393.153988 244.041633 
z
" clip-path="url(#p999083f198)" style="fill: #1f77b4"/>
   </g>
   <g id="patch_172">
    <path d="M 394.940108 382.84 
L 396.726229 382.84 
L 396.726229 382.84 
L 394.940108 382.84 
z
" clip-path="url(#p999083f198)" style="fill: #1f77b4"/>
   </g>
   <g id="patch_173">
    <path d="M 396.726229 382.84 
L 398.512349 382.84 
L 398.512349 260.717055 
L 396.726229 260.717055 
z
" clip-path="url(#p999083f198)" style="fill: #1f77b4"/>
   </g>
   <g id="patch_174">
    <path d="M 398.512349 382.84 
L 400.298469 382.84 
L 400.298469 382.84 
L 398.512349 382.84 
z
" clip-path="url(#p999083f198)" style="fill: #1f77b4"/>
   </g>
   <g id="patch_175">
    <path d="M 400.298469 382.84 
L 402.084589 382.84 
L 402.084589 382.84 
L 400.298469 382.84 
z
" clip-path="url(#p999083f198)" style="fill: #1f77b4"/>
   </g>
   <g id="patch_176">
    <path d="M 402.084589 382.84 
L 403.870709 382.84 
L 403.870709 276.41157 
L 402.084589 276.41157 
z
" clip-path="url(#p999083f198)" style="fill: #1f77b4"/>
   </g>
   <g id="patch_177">
    <path d="M 403.870709 382.84 
L 405.656829 382.84 
L 405.656829 382.84 
L 403.870709 382.84 
z
" clip-path="url(#p999083f198)" style="fill: #1f77b4"/>
   </g>
   <g id="patch_178">
    <path d="M 405.656829 382.84 
L 407.442949 382.84 
L 407.442949 382.84 
L 405.656829 382.84 
z
" clip-path="url(#p999083f198)" style="fill: #1f77b4"/>
   </g>
   <g id="patch_179">
    <path d="M 407.442949 382.84 
L 409.229069 382.84 
L 409.229069 292.964379 
L 407.442949 292.964379 
z
" clip-path="url(#p999083f198)" style="fill: #1f77b4"/>
   </g>
   <g id="patch_180">
    <path d="M 409.229069 382.84 
L 411.01519 382.84 
L 411.01519 382.84 
L 409.229069 382.84 
z
" clip-path="url(#p999083f198)" style="fill: #1f77b4"/>
   </g>
   <g id="patch_181">
    <path d="M 411.01519 382.84 
L 412.80131 382.84 
L 412.80131 307.861907 
L 411.01519 307.861907 
z
" clip-path="url(#p999083f198)" style="fill: #1f77b4"/>
   </g>
   <g id="patch_182">
    <path d="M 412.80131 382.84 
L 414.58743 382.84 
L 414.58743 382.84 
L 412.80131 382.84 
z
" clip-path="url(#p999083f198)" style="fill: #1f77b4"/>
   </g>
   <g id="patch_183">
    <path d="M 414.58743 382.84 
L 416.37355 382.84 
L 416.37355 382.84 
L 414.58743 382.84 
z
" clip-path="url(#p999083f198)" style="fill: #1f77b4"/>
   </g>
   <g id="patch_184">
    <path d="M 416.37355 382.84 
L 418.15967 382.84 
L 418.15967 317.487059 
L 416.37355 317.487059 
z
" clip-path="url(#p999083f198)" style="fill: #1f77b4"/>
   </g>
   <g id="patch_185">
    <path d="M 418.15967 382.84 
L 419.94579 382.84 
L 419.94579 382.84 
L 418.15967 382.84 
z
" clip-path="url(#p999083f198)" style="fill: #1f77b4"/>
   </g>
   <g id="patch_186">
    <path d="M 419.94579 382.84 
L 421.73191 382.84 
L 421.73191 382.84 
L 419.94579 382.84 
z
" clip-path="url(#p999083f198)" style="fill: #1f77b4"/>
   </g>
   <g id="patch_187">
    <path d="M 421.73191 382.84 
L 423.51803 382.84 
L 423.51803 329.349905 
L 421.73191 329.349905 
z
" clip-path="url(#p999083f198)" style="fill: #1f77b4"/>
   </g>
   <g id="patch_188">
    <path d="M 423.51803 382.84 
L 425.304151 382.84 
L 425.304151 382.84 
L 423.51803 382.84 
z
" clip-path="url(#p999083f198)" style="fill: #1f77b4"/>
   </g>
   <g id="patch_189">
    <path d="M 425.304151 382.84 
L 427.090271 382.84 
L 427.090271 338.72983 
L 425.304151 338.72983 
z
" clip-path="url(#p999083f198)" style="fill: #1f77b4"/>
   </g>
   <g id="patch_190">
    <path d="M 427.090271 382.84 
L 428.876391 382.84 
L 428.876391 382.84 
L 427.090271 382.84 
z
" clip-path="url(#p999083f198)" style="fill: #1f77b4"/>
   </g>
   <g id="patch_191">
    <path d="M 428.876391 382.84 
L 430.662511 382.84 
L 430.662511 382.84 
L 428.876391 382.84 
z
" clip-path="url(#p999083f198)" style="fill: #1f77b4"/>
   </g>
   <g id="patch_192">
    <path d="M 430.662511 382.84 
L 432.448631 382.84 
L 432.448631 345.565527 
L 430.662511 345.565527 
z
" clip-path="url(#p999083f198)" style="fill: #1f77b4"/>
   </g>
   <g id="patch_193">
    <path d="M 432.448631 382.84 
L 434.234751 382.84 
L 434.234751 382.84 
L 432.448631 382.84 
z
" clip-path="url(#p999083f198)" style="fill: #1f77b4"/>
   </g>
   <g id="patch_194">
    <path d="M 434.234751 382.84 
L 436.020871 382.84 
L 436.020871 382.84 
L 434.234751 382.84 
z
" clip-path="url(#p999083f198)" style="fill: #1f77b4"/>
   </g>
   <g id="patch_195">
    <path d="M 436.020871 382.84 
L 437.806991 382.84 
L 437.806991 351.757504 
L 436.020871 351.757504 
z
" clip-path="url(#p999083f198)" style="fill: #1f77b4"/>
   </g>
   <g id="patch_196">
    <path d="M 437.806991 382.84 
L 439.593112 382.84 
L 439.593112 382.84 
L 437.806991 382.84 
z
" clip-path="url(#p999083f198)" style="fill: #1f77b4"/>
   </g>
   <g id="patch_197">
    <path d="M 439.593112 382.84 
L 441.379232 382.84 
L 441.379232 357.704253 
L 439.593112 357.704253 
z
" clip-path="url(#p999083f198)" style="fill: #1f77b4"/>
   </g>
   <g id="patch_198">
    <path d="M 441.379232 382.84 
L 443.165352 382.84 
L 443.165352 382.84 
L 441.379232 382.84 
z
" clip-path="url(#p999083f198)" style="fill: #1f77b4"/>
   </g>
   <g id="patch_199">
    <path d="M 443.165352 382.84 
L 444.951472 382.84 
L 444.951472 382.84 
L 443.165352 382.84 
z
" clip-path="url(#p999083f198)" style="fill: #1f77b4"/>
   </g>
   <g id="patch_200">
    <path d="M 444.951472 382.84 
L 446.737592 382.84 
L 446.737592 363.52839 
L 444.951472 363.52839 
z
" clip-path="url(#p999083f198)" style="fill: #1f77b4"/>
   </g>
   <g id="patch_201">
    <path d="M 446.737592 382.84 
L 448.523712 382.84 
L 448.523712 382.84 
L 446.737592 382.84 
z
" clip-path="url(#p999083f198)" style="fill: #1f77b4"/>
   </g>
   <g id="patch_202">
    <path d="M 448.523712 382.84 
L 450.309832 382.84 
L 450.309832 382.84 
L 448.523712 382.84 
z
" clip-path="url(#p999083f198)" style="fill: #1f77b4"/>
   </g>
   <g id="patch_203">
    <path d="M 450.309832 382.84 
L 452.095952 382.84 
L 452.095952 366.808298 
L 450.309832 366.808298 
z
" clip-path="url(#p999083f198)" style="fill: #1f77b4"/>
   </g>
   <g id="patch_204">
    <path d="M 452.095952 382.84 
L 453.882073 382.84 
L 453.882073 382.84 
L 452.095952 382.84 
z
" clip-path="url(#p999083f198)" style="fill: #1f77b4"/>
   </g>
   <g id="patch_205">
    <path d="M 453.882073 382.84 
L 455.668193 382.84 
L 455.668193 369.965593 
L 453.882073 369.965593 
z
" clip-path="url(#p999083f198)" style="fill: #1f77b4"/>
   </g>
   <g id="patch_206">
    <path d="M 455.668193 382.84 
L 457.454313 382.84 
L 457.454313 382.84 
L 455.668193 382.84 
z
" clip-path="url(#p999083f198)" style="fill: #1f77b4"/>
   </g>
   <g id="patch_207">
    <path d="M 457.454313 382.84 
L 459.240433 382.84 
L 459.240433 382.84 
L 457.454313 382.84 
z
" clip-path="url(#p999083f198)" style="fill: #1f77b4"/>
   </g>
   <g id="patch_208">
    <path d="M 459.240433 382.84 
L 461.026553 382.84 
L 461.026553 373.674648 
L 459.240433 373.674648 
z
" clip-path="url(#p999083f198)" style="fill: #1f77b4"/>
   </g>
   <g id="patch_209">
    <path d="M 461.026553 382.84 
L 462.812673 382.84 
L 462.812673 382.84 
L 461.026553 382.84 
z
" clip-path="url(#p999083f198)" style="fill: #1f77b4"/>
   </g>
   <g id="patch_210">
    <path d="M 462.812673 382.84 
L 464.598793 382.84 
L 464.598793 382.84 
L 462.812673 382.84 
z
" clip-path="url(#p999083f198)" style="fill: #1f77b4"/>
   </g>
   <g id="patch_211">
    <path d="M 464.598793 382.84 
L 466.384913 382.84 
L 466.384913 376.096263 
L 464.598793 376.096263 
z
" clip-path="url(#p999083f198)" style="fill: #1f77b4"/>
   </g>
   <g id="patch_212">
    <path d="M 466.384913 382.84 
L 468.171033 382.84 
L 468.171033 382.84 
L 466.384913 382.84 
z
" clip-path="url(#p999083f198)" style="fill: #1f77b4"/>
   </g>
   <g id="patch_213">
    <path d="M 468.171033 382.84 
L 469.957154 382.84 
L 469.957154 377.383704 
L 468.171033 377.383704 
z
" clip-path="url(#p999083f198)" style="fill: #1f77b4"/>
   </g>
   <g id="patch_214">
    <path d="M 469.957154 382.84 
L 471.743274 382.84 
L 471.743274 382.84 
L 469.957154 382.84 
z
" clip-path="url(#p999083f198)" style="fill: #1f77b4"/>
   </g>
   <g id="patch_215">
    <path d="M 471.743274 382.84 
L 473.529394 382.84 
L 473.529394 382.84 
L 471.743274 382.84 
z
" clip-path="url(#p999083f198)" style="fill: #1f77b4"/>
   </g>
   <g id="patch_216">
    <path d="M 473.529394 382.84 
L 475.315514 382.84 
L 475.315514 378.824411 
L 473.529394 378.824411 
z
" clip-path="url(#p999083f198)" style="fill: #1f77b4"/>
   </g>
   <g id="patch_217">
    <path d="M 475.315514 382.84 
L 477.101634 382.84 
L 477.101634 382.84 
L 475.315514 382.84 
z
" clip-path="url(#p999083f198)" style="fill: #1f77b4"/>
   </g>
   <g id="patch_218">
    <path d="M 477.101634 382.84 
L 478.887754 382.84 
L 478.887754 382.84 
L 477.101634 382.84 
z
" clip-path="url(#p999083f198)" style="fill: #1f77b4"/>
   </g>
   <g id="patch_219">
    <path d="M 478.887754 382.84 
L 480.673874 382.84 
L 480.673874 379.897278 
L 478.887754 379.897278 
z
" clip-path="url(#p999083f198)" style="fill: #1f77b4"/>
   </g>
   <g id="patch_220">
    <path d="M 480.673874 382.84 
L 482.459994 382.84 
L 482.459994 382.84 
L 480.673874 382.84 
z
" clip-path="url(#p999083f198)" style="fill: #1f77b4"/>
   </g>
   <g id="patch_221">
    <path d="M 482.459994 382.84 
L 484.246115 382.84 
L 484.246115 380.632959 
L 482.459994 380.632959 
z
" clip-path="url(#p999083f198)" style="fill: #1f77b4"/>
   </g>
   <g id="patch_222">
    <path d="M 484.246115 382.84 
L 486.032235 382.84 
L 486.032235 382.84 
L 484.246115 382.84 
z
" clip-path="url(#p999083f198)" style="fill: #1f77b4"/>
   </g>
   <g id="patch_223">
    <path d="M 486.032235 382.84 
L 487.818355 382.84 
L 487.818355 382.84 
L 486.032235 382.84 
z
" clip-path="url(#p999083f198)" style="fill: #1f77b4"/>
   </g>
   <g id="patch_224">
    <path d="M 487.818355 382.84 
L 489.604475 382.84 
L 489.604475 381.399293 
L 487.818355 381.399293 
z
" clip-path="url(#p999083f198)" style="fill: #1f77b4"/>
   </g>
   <g id="patch_225">
    <path d="M 489.604475 382.84 
L 491.390595 382.84 
L 491.390595 382.84 
L 489.604475 382.84 
z
" clip-path="url(#p999083f198)" style="fill: #1f77b4"/>
   </g>
   <g id="patch_226">
    <path d="M 491.390595 382.84 
L 493.176715 382.84 
L 493.176715 382.84 
L 491.390595 382.84 
z
" clip-path="url(#p999083f198)" style="fill: #1f77b4"/>
   </g>
   <g id="patch_227">
    <path d="M 493.176715 382.84 
L 494.962835 382.84 
L 494.962835 381.951053 
L 493.176715 381.951053 
z
" clip-path="url(#p999083f198)" style="fill: #1f77b4"/>
   </g>
   <g id="patch_228">
    <path d="M 494.962835 382.84 
L 496.748955 382.84 
L 496.748955 382.84 
L 494.962835 382.84 
z
" clip-path="url(#p999083f198)" style="fill: #1f77b4"/>
   </g>
   <g id="patch_229">
    <path d="M 496.748955 382.84 
L 498.535076 382.84 
L 498.535076 381.9204 
L 496.748955 381.9204 
z
" clip-path="url(#p999083f198)" style="fill: #1f77b4"/>
   </g>
   <g id="patch_230">
    <path d="M 498.535076 382.84 
L 500.321196 382.84 
L 500.321196 382.84 
L 498.535076 382.84 
z
" clip-path="url(#p999083f198)" style="fill: #1f77b4"/>
   </g>
   <g id="patch_231">
    <path d="M 500.321196 382.84 
L 502.107316 382.84 
L 502.107316 382.84 
L 500.321196 382.84 
z
" clip-path="url(#p999083f198)" style="fill: #1f77b4"/>
   </g>
   <g id="patch_232">
    <path d="M 502.107316 382.84 
L 503.893436 382.84 
L 503.893436 382.349546 
L 502.107316 382.349546 
z
" clip-path="url(#p999083f198)" style="fill: #1f77b4"/>
   </g>
   <g id="patch_233">
    <path d="M 503.893436 382.84 
L 505.679556 382.84 
L 505.679556 382.84 
L 503.893436 382.84 
z
" clip-path="url(#p999083f198)" style="fill: #1f77b4"/>
   </g>
   <g id="patch_234">
    <path d="M 505.679556 382.84 
L 507.465676 382.84 
L 507.465676 382.84 
L 505.679556 382.84 
z
" clip-path="url(#p999083f198)" style="fill: #1f77b4"/>
   </g>
   <g id="patch_235">
    <path d="M 507.465676 382.84 
L 509.251796 382.84 
L 509.251796 382.502813 
L 507.465676 382.502813 
z
" clip-path="url(#p999083f198)" style="fill: #1f77b4"/>
   </g>
   <g id="patch_236">
    <path d="M 509.251796 382.84 
L 511.037916 382.84 
L 511.037916 382.84 
L 509.251796 382.84 
z
" clip-path="url(#p999083f198)" style="fill: #1f77b4"/>
   </g>
   <g id="patch_237">
    <path d="M 511.037916 382.84 
L 512.824037 382.84 
L 512.824037 382.625427 
L 511.037916 382.625427 
z
" clip-path="url(#p999083f198)" style="fill: #1f77b4"/>
   </g>
   <g id="patch_238">
    <path d="M 512.824037 382.84 
L 514.610157 382.84 
L 514.610157 382.84 
L 512.824037 382.84 
z
" clip-path="url(#p999083f198)" style="fill: #1f77b4"/>
   </g>
   <g id="patch_239">
    <path d="M 514.610157 382.84 
L 516.396277 382.84 
L 516.396277 382.84 
L 514.610157 382.84 
z
" clip-path="url(#p999083f198)" style="fill: #1f77b4"/>
   </g>
   <g id="patch_240">
    <path d="M 516.396277 382.84 
L 518.182397 382.84 
L 518.182397 382.84 
L 516.396277 382.84 
z
" clip-path="url(#p999083f198)" style="fill: #1f77b4"/>
   </g>
   <g id="patch_241">
    <path d="M 518.182397 382.84 
L 519.968517 382.84 
L 519.968517 382.84 
L 518.182397 382.84 
z
" clip-path="url(#p999083f198)" style="fill: #1f77b4"/>
   </g>
   <g id="patch_242">
    <path d="M 519.968517 382.84 
L 521.754637 382.84 
L 521.754637 382.84 
L 519.968517 382.84 
z
" clip-path="url(#p999083f198)" style="fill: #1f77b4"/>
   </g>
   <g id="patch_243">
    <path d="M 521.754637 382.84 
L 523.540757 382.84 
L 523.540757 382.717387 
L 521.754637 382.717387 
z
" clip-path="url(#p999083f198)" style="fill: #1f77b4"/>
   </g>
   <g id="patch_244">
    <path d="M 523.540757 382.84 
L 525.326877 382.84 
L 525.326877 382.84 
L 523.540757 382.84 
z
" clip-path="url(#p999083f198)" style="fill: #1f77b4"/>
   </g>
   <g id="patch_245">
    <path d="M 525.326877 382.84 
L 527.112998 382.84 
L 527.112998 382.74804 
L 525.326877 382.74804 
z
" clip-path="url(#p999083f198)" style="fill: #1f77b4"/>
   </g>
   <g id="patch_246">
    <path d="M 527.112998 382.84 
L 528.899118 382.84 
L 528.899118 382.84 
L 527.112998 382.84 
z
" clip-path="url(#p999083f198)" style="fill: #1f77b4"/>
   </g>
   <g id="patch_247">
    <path d="M 528.899118 382.84 
L 530.685238 382.84 
L 530.685238 382.84 
L 528.899118 382.84 
z
" clip-path="url(#p999083f198)" style="fill: #1f77b4"/>
   </g>
   <g id="patch_248">
    <path d="M 530.685238 382.84 
L 532.471358 382.84 
L 532.471358 382.809347 
L 530.685238 382.809347 
z
" clip-path="url(#p999083f198)" style="fill: #1f77b4"/>
   </g>
   <g id="patch_249">
    <path d="M 532.471358 382.84 
L 534.257478 382.84 
L 534.257478 382.84 
L 532.471358 382.84 
z
" clip-path="url(#p999083f198)" style="fill: #1f77b4"/>
   </g>
   <g id="patch_250">
    <path d="M 534.257478 382.84 
L 536.043598 382.84 
L 536.043598 382.84 
L 534.257478 382.84 
z
" clip-path="url(#p999083f198)" style="fill: #1f77b4"/>
   </g>
   <g id="patch_251">
    <path d="M 536.043598 382.84 
L 537.829718 382.84 
L 537.829718 382.809347 
L 536.043598 382.809347 
z
" clip-path="url(#p999083f198)" style="fill: #1f77b4"/>
   </g>
   <g id="patch_252">
    <path d="M 537.829718 382.84 
L 539.615838 382.84 
L 539.615838 382.84 
L 537.829718 382.84 
z
" clip-path="url(#p999083f198)" style="fill: #1f77b4"/>
   </g>
   <g id="patch_253">
    <path d="M 539.615838 382.84 
L 541.401959 382.84 
L 541.401959 382.809347 
L 539.615838 382.809347 
z
" clip-path="url(#p999083f198)" style="fill: #1f77b4"/>
   </g>
   <g id="matplotlib.axis_1">
    <g id="xtick_1">
     <g id="line2d_1">
      <defs>
       <path id="m9d55177c0f" d="M 0 0 
L 0 3.5 
" style="stroke: #000000; stroke-width: 0.8"/>
      </defs>
      <g>
       <use xlink:href="#m9d55177c0f" x="145.548336" y="382.84" style="stroke: #000000; stroke-width: 0.8"/>
      </g>
     </g>
     <g id="text_1">
      <!-- −12 -->
      <g transform="translate(134.995992 397.438438) scale(0.1 -0.1)">
       <defs>
        <path id="DejaVuSans-2212" d="M 678 2272 
L 4684 2272 
L 4684 1741 
L 678 1741 
L 678 2272 
z
" transform="scale(0.015625)"/>
        <path id="DejaVuSans-31" d="M 794 531 
L 1825 531 
L 1825 4091 
L 703 3866 
L 703 4441 
L 1819 4666 
L 2450 4666 
L 2450 531 
L 3481 531 
L 3481 0 
L 794 0 
L 794 531 
z
" transform="scale(0.015625)"/>
        <path id="DejaVuSans-32" d="M 1228 531 
L 3431 531 
L 3431 0 
L 469 0 
L 469 531 
Q 828 903 1448 1529 
Q 2069 2156 2228 2338 
Q 2531 2678 2651 2914 
Q 2772 3150 2772 3378 
Q 2772 3750 2511 3984 
Q 2250 4219 1831 4219 
Q 1534 4219 1204 4116 
Q 875 4013 500 3803 
L 500 4441 
Q 881 4594 1212 4672 
Q 1544 4750 1819 4750 
Q 2544 4750 2975 4387 
Q 3406 4025 3406 3419 
Q 3406 3131 3298 2873 
Q 3191 2616 2906 2266 
Q 2828 2175 2409 1742 
Q 1991 1309 1228 531 
z
" transform="scale(0.015625)"/>
       </defs>
       <use xlink:href="#DejaVuSans-2212"/>
       <use xlink:href="#DejaVuSans-31" x="83.789062"/>
       <use xlink:href="#DejaVuSans-32" x="147.412109"/>
      </g>
     </g>
    </g>
    <g id="xtick_2">
     <g id="line2d_2">
      <g>
       <use xlink:href="#m9d55177c0f" x="240.934751" y="382.84" style="stroke: #000000; stroke-width: 0.8"/>
      </g>
     </g>
     <g id="text_2">
      <!-- −10 -->
      <g transform="translate(230.382407 397.438438) scale(0.1 -0.1)">
       <defs>
        <path id="DejaVuSans-30" d="M 2034 4250 
Q 1547 4250 1301 3770 
Q 1056 3291 1056 2328 
Q 1056 1369 1301 889 
Q 1547 409 2034 409 
Q 2525 409 2770 889 
Q 3016 1369 3016 2328 
Q 3016 3291 2770 3770 
Q 2525 4250 2034 4250 
z
M 2034 4750 
Q 2819 4750 3233 4129 
Q 3647 3509 3647 2328 
Q 3647 1150 3233 529 
Q 2819 -91 2034 -91 
Q 1250 -91 836 529 
Q 422 1150 422 2328 
Q 422 3509 836 4129 
Q 1250 4750 2034 4750 
z
" transform="scale(0.015625)"/>
       </defs>
       <use xlink:href="#DejaVuSans-2212"/>
       <use xlink:href="#DejaVuSans-31" x="83.789062"/>
       <use xlink:href="#DejaVuSans-30" x="147.412109"/>
      </g>
     </g>
    </g>
    <g id="xtick_3">
     <g id="line2d_3">
      <g>
       <use xlink:href="#m9d55177c0f" x="336.321166" y="382.84" style="stroke: #000000; stroke-width: 0.8"/>
      </g>
     </g>
     <g id="text_3">
      <!-- −8 -->
      <g transform="translate(328.950072 397.438438) scale(0.1 -0.1)">
       <defs>
        <path id="DejaVuSans-38" d="M 2034 2216 
Q 1584 2216 1326 1975 
Q 1069 1734 1069 1313 
Q 1069 891 1326 650 
Q 1584 409 2034 409 
Q 2484 409 2743 651 
Q 3003 894 3003 1313 
Q 3003 1734 2745 1975 
Q 2488 2216 2034 2216 
z
M 1403 2484 
Q 997 2584 770 2862 
Q 544 3141 544 3541 
Q 544 4100 942 4425 
Q 1341 4750 2034 4750 
Q 2731 4750 3128 4425 
Q 3525 4100 3525 3541 
Q 3525 3141 3298 2862 
Q 3072 2584 2669 2484 
Q 3125 2378 3379 2068 
Q 3634 1759 3634 1313 
Q 3634 634 3220 271 
Q 2806 -91 2034 -91 
Q 1263 -91 848 271 
Q 434 634 434 1313 
Q 434 1759 690 2068 
Q 947 2378 1403 2484 
z
M 1172 3481 
Q 1172 3119 1398 2916 
Q 1625 2713 2034 2713 
Q 2441 2713 2670 2916 
Q 2900 3119 2900 3481 
Q 2900 3844 2670 4047 
Q 2441 4250 2034 4250 
Q 1625 4250 1398 4047 
Q 1172 3844 1172 3481 
z
" transform="scale(0.015625)"/>
       </defs>
       <use xlink:href="#DejaVuSans-2212"/>
       <use xlink:href="#DejaVuSans-38" x="83.789062"/>
      </g>
     </g>
    </g>
    <g id="xtick_4">
     <g id="line2d_4">
      <g>
       <use xlink:href="#m9d55177c0f" x="431.707581" y="382.84" style="stroke: #000000; stroke-width: 0.8"/>
      </g>
     </g>
     <g id="text_4">
      <!-- −6 -->
      <g transform="translate(424.336487 397.438438) scale(0.1 -0.1)">
       <defs>
        <path id="DejaVuSans-36" d="M 2113 2584 
Q 1688 2584 1439 2293 
Q 1191 2003 1191 1497 
Q 1191 994 1439 701 
Q 1688 409 2113 409 
Q 2538 409 2786 701 
Q 3034 994 3034 1497 
Q 3034 2003 2786 2293 
Q 2538 2584 2113 2584 
z
M 3366 4563 
L 3366 3988 
Q 3128 4100 2886 4159 
Q 2644 4219 2406 4219 
Q 1781 4219 1451 3797 
Q 1122 3375 1075 2522 
Q 1259 2794 1537 2939 
Q 1816 3084 2150 3084 
Q 2853 3084 3261 2657 
Q 3669 2231 3669 1497 
Q 3669 778 3244 343 
Q 2819 -91 2113 -91 
Q 1303 -91 875 529 
Q 447 1150 447 2328 
Q 447 3434 972 4092 
Q 1497 4750 2381 4750 
Q 2619 4750 2861 4703 
Q 3103 4656 3366 4563 
z
" transform="scale(0.015625)"/>
       </defs>
       <use xlink:href="#DejaVuSans-2212"/>
       <use xlink:href="#DejaVuSans-36" x="83.789062"/>
      </g>
     </g>
    </g>
    <g id="xtick_5">
     <g id="line2d_5">
      <g>
       <use xlink:href="#m9d55177c0f" x="527.093996" y="382.84" style="stroke: #000000; stroke-width: 0.8"/>
      </g>
     </g>
     <g id="text_5">
      <!-- −4 -->
      <g transform="translate(519.722903 397.438438) scale(0.1 -0.1)">
       <defs>
        <path id="DejaVuSans-34" d="M 2419 4116 
L 825 1625 
L 2419 1625 
L 2419 4116 
z
M 2253 4666 
L 3047 4666 
L 3047 1625 
L 3713 1625 
L 3713 1100 
L 3047 1100 
L 3047 0 
L 2419 0 
L 2419 1100 
L 313 1100 
L 313 1709 
L 2253 4666 
z
" transform="scale(0.015625)"/>
       </defs>
       <use xlink:href="#DejaVuSans-2212"/>
       <use xlink:href="#DejaVuSans-34" x="83.789062"/>
      </g>
     </g>
    </g>
    <g id="text_6">
     <!-- MAPKAPK2 -->
     <g transform="translate(268.939196 417.195312) scale(0.18 -0.18)">
      <defs>
       <path id="DejaVuSans-4d" d="M 628 4666 
L 1569 4666 
L 2759 1491 
L 3956 4666 
L 4897 4666 
L 4897 0 
L 4281 0 
L 4281 4097 
L 3078 897 
L 2444 897 
L 1241 4097 
L 1241 0 
L 628 0 
L 628 4666 
z
" transform="scale(0.015625)"/>
       <path id="DejaVuSans-41" d="M 2188 4044 
L 1331 1722 
L 3047 1722 
L 2188 4044 
z
M 1831 4666 
L 2547 4666 
L 4325 0 
L 3669 0 
L 3244 1197 
L 1141 1197 
L 716 0 
L 50 0 
L 1831 4666 
z
" transform="scale(0.015625)"/>
       <path id="DejaVuSans-50" d="M 1259 4147 
L 1259 2394 
L 2053 2394 
Q 2494 2394 2734 2622 
Q 2975 2850 2975 3272 
Q 2975 3691 2734 3919 
Q 2494 4147 2053 4147 
L 1259 4147 
z
M 628 4666 
L 2053 4666 
Q 2838 4666 3239 4311 
Q 3641 3956 3641 3272 
Q 3641 2581 3239 2228 
Q 2838 1875 2053 1875 
L 1259 1875 
L 1259 0 
L 628 0 
L 628 4666 
z
" transform="scale(0.015625)"/>
       <path id="DejaVuSans-4b" d="M 628 4666 
L 1259 4666 
L 1259 2694 
L 3353 4666 
L 4166 4666 
L 1850 2491 
L 4331 0 
L 3500 0 
L 1259 2247 
L 1259 0 
L 628 0 
L 628 4666 
z
" transform="scale(0.015625)"/>
      </defs>
      <use xlink:href="#DejaVuSans-4d"/>
      <use xlink:href="#DejaVuSans-41" x="86.279297"/>
      <use xlink:href="#DejaVuSans-50" x="154.6875"/>
      <use xlink:href="#DejaVuSans-4b" x="214.990234"/>
      <use xlink:href="#DejaVuSans-41" x="278.816406"/>
      <use xlink:href="#DejaVuSans-50" x="347.224609"/>
      <use xlink:href="#DejaVuSans-4b" x="407.527344"/>
      <use xlink:href="#DejaVuSans-32" x="473.103516"/>
     </g>
    </g>
   </g>
   <g id="matplotlib.axis_2">
    <g id="ytick_1">
     <g id="line2d_6">
      <defs>
       <path id="mfd2c27835a" d="M 0 0 
L -3.5 0 
" style="stroke: #000000; stroke-width: 0.8"/>
      </defs>
      <g>
       <use xlink:href="#mfd2c27835a" x="70.67" y="382.84" style="stroke: #000000; stroke-width: 0.8"/>
      </g>
     </g>
     <g id="text_7">
      <!-- 0 -->
      <g transform="translate(57.3075 386.639219) scale(0.1 -0.1)">
       <use xlink:href="#DejaVuSans-30"/>
      </g>
     </g>
    </g>
    <g id="ytick_2">
     <g id="line2d_7">
      <g>
       <use xlink:href="#mfd2c27835a" x="70.67" y="321.533301" style="stroke: #000000; stroke-width: 0.8"/>
      </g>
     </g>
     <g id="text_8">
      <!-- 2000 -->
      <g transform="translate(38.22 325.33252) scale(0.1 -0.1)">
       <use xlink:href="#DejaVuSans-32"/>
       <use xlink:href="#DejaVuSans-30" x="63.623047"/>
       <use xlink:href="#DejaVuSans-30" x="127.246094"/>
       <use xlink:href="#DejaVuSans-30" x="190.869141"/>
      </g>
     </g>
    </g>
    <g id="ytick_3">
     <g id="line2d_8">
      <g>
       <use xlink:href="#mfd2c27835a" x="70.67" y="260.226602" style="stroke: #000000; stroke-width: 0.8"/>
      </g>
     </g>
     <g id="text_9">
      <!-- 4000 -->
      <g transform="translate(38.22 264.02582) scale(0.1 -0.1)">
       <use xlink:href="#DejaVuSans-34"/>
       <use xlink:href="#DejaVuSans-30" x="63.623047"/>
       <use xlink:href="#DejaVuSans-30" x="127.246094"/>
       <use xlink:href="#DejaVuSans-30" x="190.869141"/>
      </g>
     </g>
    </g>
    <g id="ytick_4">
     <g id="line2d_9">
      <g>
       <use xlink:href="#mfd2c27835a" x="70.67" y="198.919903" style="stroke: #000000; stroke-width: 0.8"/>
      </g>
     </g>
     <g id="text_10">
      <!-- 6000 -->
      <g transform="translate(38.22 202.719121) scale(0.1 -0.1)">
       <use xlink:href="#DejaVuSans-36"/>
       <use xlink:href="#DejaVuSans-30" x="63.623047"/>
       <use xlink:href="#DejaVuSans-30" x="127.246094"/>
       <use xlink:href="#DejaVuSans-30" x="190.869141"/>
      </g>
     </g>
    </g>
    <g id="ytick_5">
     <g id="line2d_10">
      <g>
       <use xlink:href="#mfd2c27835a" x="70.67" y="137.613203" style="stroke: #000000; stroke-width: 0.8"/>
      </g>
     </g>
     <g id="text_11">
      <!-- 8000 -->
      <g transform="translate(38.22 141.412422) scale(0.1 -0.1)">
       <use xlink:href="#DejaVuSans-38"/>
       <use xlink:href="#DejaVuSans-30" x="63.623047"/>
       <use xlink:href="#DejaVuSans-30" x="127.246094"/>
       <use xlink:href="#DejaVuSans-30" x="190.869141"/>
      </g>
     </g>
    </g>
    <g id="ytick_6">
     <g id="line2d_11">
      <g>
       <use xlink:href="#mfd2c27835a" x="70.67" y="76.306504" style="stroke: #000000; stroke-width: 0.8"/>
      </g>
     </g>
     <g id="text_12">
      <!-- 10000 -->
      <g transform="translate(31.8575 80.105723) scale(0.1 -0.1)">
       <use xlink:href="#DejaVuSans-31"/>
       <use xlink:href="#DejaVuSans-30" x="63.623047"/>
       <use xlink:href="#DejaVuSans-30" x="127.246094"/>
       <use xlink:href="#DejaVuSans-30" x="190.869141"/>
       <use xlink:href="#DejaVuSans-30" x="254.492188"/>
      </g>
     </g>
    </g>
    <g id="ytick_7">
     <g id="line2d_12">
      <g>
       <use xlink:href="#mfd2c27835a" x="70.67" y="14.999805" style="stroke: #000000; stroke-width: 0.8"/>
      </g>
     </g>
     <g id="text_13">
      <!-- 12000 -->
      <g transform="translate(31.8575 18.799024) scale(0.1 -0.1)">
       <use xlink:href="#DejaVuSans-31"/>
       <use xlink:href="#DejaVuSans-32" x="63.623047"/>
       <use xlink:href="#DejaVuSans-30" x="127.246094"/>
       <use xlink:href="#DejaVuSans-30" x="190.869141"/>
       <use xlink:href="#DejaVuSans-30" x="254.492188"/>
      </g>
     </g>
    </g>
    <g id="text_14">
     <!-- Count -->
     <g transform="translate(24.114063 224.465403) rotate(-90) scale(0.18 -0.18)">
      <defs>
       <path id="DejaVuSans-43" d="M 4122 4306 
L 4122 3641 
Q 3803 3938 3442 4084 
Q 3081 4231 2675 4231 
Q 1875 4231 1450 3742 
Q 1025 3253 1025 2328 
Q 1025 1406 1450 917 
Q 1875 428 2675 428 
Q 3081 428 3442 575 
Q 3803 722 4122 1019 
L 4122 359 
Q 3791 134 3420 21 
Q 3050 -91 2638 -91 
Q 1578 -91 968 557 
Q 359 1206 359 2328 
Q 359 3453 968 4101 
Q 1578 4750 2638 4750 
Q 3056 4750 3426 4639 
Q 3797 4528 4122 4306 
z
" transform="scale(0.015625)"/>
       <path id="DejaVuSans-6f" d="M 1959 3097 
Q 1497 3097 1228 2736 
Q 959 2375 959 1747 
Q 959 1119 1226 758 
Q 1494 397 1959 397 
Q 2419 397 2687 759 
Q 2956 1122 2956 1747 
Q 2956 2369 2687 2733 
Q 2419 3097 1959 3097 
z
M 1959 3584 
Q 2709 3584 3137 3096 
Q 3566 2609 3566 1747 
Q 3566 888 3137 398 
Q 2709 -91 1959 -91 
Q 1206 -91 779 398 
Q 353 888 353 1747 
Q 353 2609 779 3096 
Q 1206 3584 1959 3584 
z
" transform="scale(0.015625)"/>
       <path id="DejaVuSans-75" d="M 544 1381 
L 544 3500 
L 1119 3500 
L 1119 1403 
Q 1119 906 1312 657 
Q 1506 409 1894 409 
Q 2359 409 2629 706 
Q 2900 1003 2900 1516 
L 2900 3500 
L 3475 3500 
L 3475 0 
L 2900 0 
L 2900 538 
Q 2691 219 2414 64 
Q 2138 -91 1772 -91 
Q 1169 -91 856 284 
Q 544 659 544 1381 
z
M 1991 3584 
L 1991 3584 
z
" transform="scale(0.015625)"/>
       <path id="DejaVuSans-6e" d="M 3513 2113 
L 3513 0 
L 2938 0 
L 2938 2094 
Q 2938 2591 2744 2837 
Q 2550 3084 2163 3084 
Q 1697 3084 1428 2787 
Q 1159 2491 1159 1978 
L 1159 0 
L 581 0 
L 581 3500 
L 1159 3500 
L 1159 2956 
Q 1366 3272 1645 3428 
Q 1925 3584 2291 3584 
Q 2894 3584 3203 3211 
Q 3513 2838 3513 2113 
z
" transform="scale(0.015625)"/>
       <path id="DejaVuSans-74" d="M 1172 4494 
L 1172 3500 
L 2356 3500 
L 2356 3053 
L 1172 3053 
L 1172 1153 
Q 1172 725 1289 603 
Q 1406 481 1766 481 
L 2356 481 
L 2356 0 
L 1766 0 
Q 1100 0 847 248 
Q 594 497 594 1153 
L 594 3053 
L 172 3053 
L 172 3500 
L 594 3500 
L 594 4494 
L 1172 4494 
z
" transform="scale(0.015625)"/>
      </defs>
      <use xlink:href="#DejaVuSans-43"/>
      <use xlink:href="#DejaVuSans-6f" x="69.824219"/>
      <use xlink:href="#DejaVuSans-75" x="131.005859"/>
      <use xlink:href="#DejaVuSans-6e" x="194.384766"/>
      <use xlink:href="#DejaVuSans-74" x="257.763672"/>
     </g>
    </g>
   </g>
   <g id="line2d_13">
    <path d="M 288.627959 382.84 
L 288.627959 30.265173 
" clip-path="url(#p999083f198)" style="fill: none; stroke: #ff0000; stroke-width: 1.6; stroke-linecap: square"/>
   </g>
   <g id="patch_254">
    <path d="M 70.67 382.84 
L 70.67 12.636432 
" style="fill: none; stroke: #000000; stroke-width: 0.8; stroke-linejoin: miter; stroke-linecap: square"/>
   </g>
   <g id="patch_255">
    <path d="M 563.817766 382.84 
L 563.817766 12.636432 
" style="fill: none; stroke: #000000; stroke-width: 0.8; stroke-linejoin: miter; stroke-linecap: square"/>
   </g>
   <g id="patch_256">
    <path d="M 70.67 382.84 
L 563.817766 382.84 
" style="fill: none; stroke: #000000; stroke-width: 0.8; stroke-linejoin: miter; stroke-linecap: square"/>
   </g>
   <g id="patch_257">
    <path d="M 70.67 12.636432 
L 563.817766 12.636432 
" style="fill: none; stroke: #000000; stroke-width: 0.8; stroke-linejoin: miter; stroke-linecap: square"/>
   </g>
   <g id="text_15">
    <!-- $\mu_6 = -8.004$ -->
    <g transform="translate(415.873436 63.119083) scale(0.21 -0.21)">
     <defs>
      <path id="DejaVuSans-Oblique-3bc" d="M -84 -1331 
L 856 3500 
L 1434 3500 
L 1009 1322 
Q 997 1256 987 1175 
Q 978 1094 978 1013 
Q 978 722 1161 565 
Q 1344 409 1684 409 
Q 2147 409 2431 671 
Q 2716 934 2816 1459 
L 3213 3500 
L 3788 3500 
L 3266 809 
Q 3253 750 3248 706 
Q 3244 663 3244 628 
Q 3244 531 3283 486 
Q 3322 441 3406 441 
Q 3438 441 3492 456 
Q 3547 472 3647 513 
L 3559 50 
Q 3422 -19 3297 -55 
Q 3172 -91 3053 -91 
Q 2847 -91 2730 40 
Q 2613 172 2613 403 
Q 2438 153 2195 31 
Q 1953 -91 1625 -91 
Q 1334 -91 1117 43 
Q 900 178 831 397 
L 494 -1331 
L -84 -1331 
z
" transform="scale(0.015625)"/>
      <path id="DejaVuSans-3d" d="M 678 2906 
L 4684 2906 
L 4684 2381 
L 678 2381 
L 678 2906 
z
M 678 1631 
L 4684 1631 
L 4684 1100 
L 678 1100 
L 678 1631 
z
" transform="scale(0.015625)"/>
      <path id="DejaVuSans-2e" d="M 684 794 
L 1344 794 
L 1344 0 
L 684 0 
L 684 794 
z
" transform="scale(0.015625)"/>
     </defs>
     <use xlink:href="#DejaVuSans-Oblique-3bc" transform="translate(0 0.78125)"/>
     <use xlink:href="#DejaVuSans-36" transform="translate(63.623047 -15.625) scale(0.7)"/>
     <use xlink:href="#DejaVuSans-3d" transform="translate(130.375977 0.78125)"/>
     <use xlink:href="#DejaVuSans-2212" transform="translate(253.129883 0.78125)"/>
     <use xlink:href="#DejaVuSans-38" transform="translate(356.401367 0.78125)"/>
     <use xlink:href="#DejaVuSans-2e" transform="translate(420.024414 0.78125)"/>
     <use xlink:href="#DejaVuSans-30" transform="translate(451.811523 0.78125)"/>
     <use xlink:href="#DejaVuSans-30" transform="translate(515.43457 0.78125)"/>
     <use xlink:href="#DejaVuSans-34" transform="translate(579.057617 0.78125)"/>
    </g>
    <!-- $\sigma_6 = 0.944$ -->
    <g transform="translate(415.873436 86.677146) scale(0.21 -0.21)">
     <defs>
      <path id="DejaVuSans-Oblique-3c3" d="M 2219 3044 
Q 1744 3044 1422 2700 
Q 1081 2341 969 1747 
Q 844 1119 1044 756 
Q 1241 397 1706 397 
Q 2166 397 2503 759 
Q 2844 1122 2966 1747 
Q 3075 2319 2881 2700 
Q 2700 3044 2219 3044 
z
M 2309 3503 
L 4219 3500 
L 4106 2925 
L 3463 2925 
Q 3706 2438 3575 1747 
Q 3406 888 2884 400 
Q 2359 -91 1609 -91 
Q 856 -91 525 400 
Q 194 888 363 1747 
Q 528 2609 1050 3097 
Q 1484 3503 2309 3503 
z
" transform="scale(0.015625)"/>
      <path id="DejaVuSans-39" d="M 703 97 
L 703 672 
Q 941 559 1184 500 
Q 1428 441 1663 441 
Q 2288 441 2617 861 
Q 2947 1281 2994 2138 
Q 2813 1869 2534 1725 
Q 2256 1581 1919 1581 
Q 1219 1581 811 2004 
Q 403 2428 403 3163 
Q 403 3881 828 4315 
Q 1253 4750 1959 4750 
Q 2769 4750 3195 4129 
Q 3622 3509 3622 2328 
Q 3622 1225 3098 567 
Q 2575 -91 1691 -91 
Q 1453 -91 1209 -44 
Q 966 3 703 97 
z
M 1959 2075 
Q 2384 2075 2632 2365 
Q 2881 2656 2881 3163 
Q 2881 3666 2632 3958 
Q 2384 4250 1959 4250 
Q 1534 4250 1286 3958 
Q 1038 3666 1038 3163 
Q 1038 2656 1286 2365 
Q 1534 2075 1959 2075 
z
" transform="scale(0.015625)"/>
     </defs>
     <use xlink:href="#DejaVuSans-Oblique-3c3" transform="translate(0 0.78125)"/>
     <use xlink:href="#DejaVuSans-36" transform="translate(63.378906 -15.625) scale(0.7)"/>
     <use xlink:href="#DejaVuSans-3d" transform="translate(130.131836 0.78125)"/>
     <use xlink:href="#DejaVuSans-30" transform="translate(233.40332 0.78125)"/>
     <use xlink:href="#DejaVuSans-2e" transform="translate(297.026367 0.78125)"/>
     <use xlink:href="#DejaVuSans-39" transform="translate(328.813477 0.78125)"/>
     <use xlink:href="#DejaVuSans-34" transform="translate(392.436523 0.78125)"/>
     <use xlink:href="#DejaVuSans-34" transform="translate(456.05957 0.78125)"/>
    </g>
   </g>
  </g>
 </g>
 <defs>
  <clipPath id="p999083f198">
   <rect x="70.67" y="12.636432" width="493.147766" height="370.203568"/>
  </clipPath>
 </defs>
</svg>
