<?xml version="1.0" encoding="utf-8" standalone="no"?>
<!DOCTYPE svg PUBLIC "-//W3C//DTD SVG 1.1//EN"
  "http://www.w3.org/Graphics/SVG/1.1/DTD/svg11.dtd">
<svg xmlns:xlink="http://www.w3.org/1999/xlink" width="576pt" height="432pt" viewBox="0 0 576 432" xmlns="http://www.w3.org/2000/svg" version="1.1">
 <metadata>
  <rdf:RDF xmlns:dc="http://purl.org/dc/elements/1.1/" xmlns:cc="http://creativecommons.org/ns#" xmlns:rdf="http://www.w3.org/1999/02/22-rdf-syntax-ns#">
   <cc:Work>
    <dc:type rdf:resource="http://purl.org/dc/dcmitype/StillImage"/>
    <dc:date>2024-09-05T19:41:14.815310</dc:date>
    <dc:format>image/svg+xml</dc:format>
    <dc:creator>
     <cc:Agent>
      <dc:title>Matplotlib v3.7.2, https://matplotlib.org/</dc:title>
     </cc:Agent>
    </dc:creator>
   </cc:Work>
  </rdf:RDF>
 </metadata>
 <defs>
  <style type="text/css">*{stroke-linejoin: round; stroke-linecap: butt}</style>
 </defs>
 <g id="figure_1">
  <g id="patch_1">
   <path d="M 0 432 
L 576 432 
L 576 0 
L 0 0 
z
" style="fill: #ffffff"/>
  </g>
  <g id="axes_1">
   <g id="patch_2">
    <path d="M 70.67 382.84 
L 564.537766 382.84 
L 564.537766 10.8 
L 70.67 10.8 
z
" style="fill: #ffffff"/>
   </g>
   <g id="patch_3">
    <path d="M 93.118535 382.84 
L 95.029048 382.84 
L 95.029048 382.811428 
L 93.118535 382.811428 
z
" clip-path="url(#p9af1296c23)" style="fill: #1f77b4"/>
   </g>
   <g id="patch_4">
    <path d="M 95.029048 382.84 
L 96.939562 382.84 
L 96.939562 382.84 
L 95.029048 382.84 
z
" clip-path="url(#p9af1296c23)" style="fill: #1f77b4"/>
   </g>
   <g id="patch_5">
    <path d="M 96.939562 382.84 
L 98.850076 382.84 
L 98.850076 382.84 
L 96.939562 382.84 
z
" clip-path="url(#p9af1296c23)" style="fill: #1f77b4"/>
   </g>
   <g id="patch_6">
    <path d="M 98.850076 382.84 
L 100.760589 382.84 
L 100.760589 382.84 
L 98.850076 382.84 
z
" clip-path="url(#p9af1296c23)" style="fill: #1f77b4"/>
   </g>
   <g id="patch_7">
    <path d="M 100.760589 382.84 
L 102.671103 382.84 
L 102.671103 382.84 
L 100.760589 382.84 
z
" clip-path="url(#p9af1296c23)" style="fill: #1f77b4"/>
   </g>
   <g id="patch_8">
    <path d="M 102.671103 382.84 
L 104.581616 382.84 
L 104.581616 382.84 
L 102.671103 382.84 
z
" clip-path="url(#p9af1296c23)" style="fill: #1f77b4"/>
   </g>
   <g id="patch_9">
    <path d="M 104.581616 382.84 
L 106.49213 382.84 
L 106.49213 382.84 
L 104.581616 382.84 
z
" clip-path="url(#p9af1296c23)" style="fill: #1f77b4"/>
   </g>
   <g id="patch_10">
    <path d="M 106.49213 382.84 
L 108.402644 382.84 
L 108.402644 382.84 
L 106.49213 382.84 
z
" clip-path="url(#p9af1296c23)" style="fill: #1f77b4"/>
   </g>
   <g id="patch_11">
    <path d="M 108.402644 382.84 
L 110.313157 382.84 
L 110.313157 382.84 
L 108.402644 382.84 
z
" clip-path="url(#p9af1296c23)" style="fill: #1f77b4"/>
   </g>
   <g id="patch_12">
    <path d="M 110.313157 382.84 
L 112.223671 382.84 
L 112.223671 382.84 
L 110.313157 382.84 
z
" clip-path="url(#p9af1296c23)" style="fill: #1f77b4"/>
   </g>
   <g id="patch_13">
    <path d="M 112.223671 382.84 
L 114.134184 382.84 
L 114.134184 382.84 
L 112.223671 382.84 
z
" clip-path="url(#p9af1296c23)" style="fill: #1f77b4"/>
   </g>
   <g id="patch_14">
    <path d="M 114.134184 382.84 
L 116.044698 382.84 
L 116.044698 382.84 
L 114.134184 382.84 
z
" clip-path="url(#p9af1296c23)" style="fill: #1f77b4"/>
   </g>
   <g id="patch_15">
    <path d="M 116.044698 382.84 
L 117.955212 382.84 
L 117.955212 382.84 
L 116.044698 382.84 
z
" clip-path="url(#p9af1296c23)" style="fill: #1f77b4"/>
   </g>
   <g id="patch_16">
    <path d="M 117.955212 382.84 
L 119.865725 382.84 
L 119.865725 382.84 
L 117.955212 382.84 
z
" clip-path="url(#p9af1296c23)" style="fill: #1f77b4"/>
   </g>
   <g id="patch_17">
    <path d="M 119.865725 382.84 
L 121.776239 382.84 
L 121.776239 382.84 
L 119.865725 382.84 
z
" clip-path="url(#p9af1296c23)" style="fill: #1f77b4"/>
   </g>
   <g id="patch_18">
    <path d="M 121.776239 382.84 
L 123.686752 382.84 
L 123.686752 382.84 
L 121.776239 382.84 
z
" clip-path="url(#p9af1296c23)" style="fill: #1f77b4"/>
   </g>
   <g id="patch_19">
    <path d="M 123.686752 382.84 
L 125.597266 382.84 
L 125.597266 382.811428 
L 123.686752 382.811428 
z
" clip-path="url(#p9af1296c23)" style="fill: #1f77b4"/>
   </g>
   <g id="patch_20">
    <path d="M 125.597266 382.84 
L 127.50778 382.84 
L 127.50778 382.84 
L 125.597266 382.84 
z
" clip-path="url(#p9af1296c23)" style="fill: #1f77b4"/>
   </g>
   <g id="patch_21">
    <path d="M 127.50778 382.84 
L 129.418293 382.84 
L 129.418293 382.811428 
L 127.50778 382.811428 
z
" clip-path="url(#p9af1296c23)" style="fill: #1f77b4"/>
   </g>
   <g id="patch_22">
    <path d="M 129.418293 382.84 
L 131.328807 382.84 
L 131.328807 382.84 
L 129.418293 382.84 
z
" clip-path="url(#p9af1296c23)" style="fill: #1f77b4"/>
   </g>
   <g id="patch_23">
    <path d="M 131.328807 382.84 
L 133.23932 382.84 
L 133.23932 382.84 
L 131.328807 382.84 
z
" clip-path="url(#p9af1296c23)" style="fill: #1f77b4"/>
   </g>
   <g id="patch_24">
    <path d="M 133.23932 382.84 
L 135.149834 382.84 
L 135.149834 382.754283 
L 133.23932 382.754283 
z
" clip-path="url(#p9af1296c23)" style="fill: #1f77b4"/>
   </g>
   <g id="patch_25">
    <path d="M 135.149834 382.84 
L 137.060348 382.84 
L 137.060348 382.84 
L 135.149834 382.84 
z
" clip-path="url(#p9af1296c23)" style="fill: #1f77b4"/>
   </g>
   <g id="patch_26">
    <path d="M 137.060348 382.84 
L 138.970861 382.84 
L 138.970861 382.84 
L 137.060348 382.84 
z
" clip-path="url(#p9af1296c23)" style="fill: #1f77b4"/>
   </g>
   <g id="patch_27">
    <path d="M 138.970861 382.84 
L 140.881375 382.84 
L 140.881375 382.811428 
L 138.970861 382.811428 
z
" clip-path="url(#p9af1296c23)" style="fill: #1f77b4"/>
   </g>
   <g id="patch_28">
    <path d="M 140.881375 382.84 
L 142.791888 382.84 
L 142.791888 382.84 
L 140.881375 382.84 
z
" clip-path="url(#p9af1296c23)" style="fill: #1f77b4"/>
   </g>
   <g id="patch_29">
    <path d="M 142.791888 382.84 
L 144.702402 382.84 
L 144.702402 382.811428 
L 142.791888 382.811428 
z
" clip-path="url(#p9af1296c23)" style="fill: #1f77b4"/>
   </g>
   <g id="patch_30">
    <path d="M 144.702402 382.84 
L 146.612916 382.84 
L 146.612916 382.84 
L 144.702402 382.84 
z
" clip-path="url(#p9af1296c23)" style="fill: #1f77b4"/>
   </g>
   <g id="patch_31">
    <path d="M 146.612916 382.84 
L 148.523429 382.84 
L 148.523429 382.84 
L 146.612916 382.84 
z
" clip-path="url(#p9af1296c23)" style="fill: #1f77b4"/>
   </g>
   <g id="patch_32">
    <path d="M 148.523429 382.84 
L 150.433943 382.84 
L 150.433943 382.697139 
L 148.523429 382.697139 
z
" clip-path="url(#p9af1296c23)" style="fill: #1f77b4"/>
   </g>
   <g id="patch_33">
    <path d="M 150.433943 382.84 
L 152.344456 382.84 
L 152.344456 382.84 
L 150.433943 382.84 
z
" clip-path="url(#p9af1296c23)" style="fill: #1f77b4"/>
   </g>
   <g id="patch_34">
    <path d="M 152.344456 382.84 
L 154.25497 382.84 
L 154.25497 382.84 
L 152.344456 382.84 
z
" clip-path="url(#p9af1296c23)" style="fill: #1f77b4"/>
   </g>
   <g id="patch_35">
    <path d="M 154.25497 382.84 
L 156.165484 382.84 
L 156.165484 382.668567 
L 154.25497 382.668567 
z
" clip-path="url(#p9af1296c23)" style="fill: #1f77b4"/>
   </g>
   <g id="patch_36">
    <path d="M 156.165484 382.84 
L 158.075997 382.84 
L 158.075997 382.84 
L 156.165484 382.84 
z
" clip-path="url(#p9af1296c23)" style="fill: #1f77b4"/>
   </g>
   <g id="patch_37">
    <path d="M 158.075997 382.84 
L 159.986511 382.84 
L 159.986511 382.58285 
L 158.075997 382.58285 
z
" clip-path="url(#p9af1296c23)" style="fill: #1f77b4"/>
   </g>
   <g id="patch_38">
    <path d="M 159.986511 382.84 
L 161.897024 382.84 
L 161.897024 382.84 
L 159.986511 382.84 
z
" clip-path="url(#p9af1296c23)" style="fill: #1f77b4"/>
   </g>
   <g id="patch_39">
    <path d="M 161.897024 382.84 
L 163.807538 382.84 
L 163.807538 382.84 
L 161.897024 382.84 
z
" clip-path="url(#p9af1296c23)" style="fill: #1f77b4"/>
   </g>
   <g id="patch_40">
    <path d="M 163.807538 382.84 
L 165.718052 382.84 
L 165.718052 382.639995 
L 163.807538 382.639995 
z
" clip-path="url(#p9af1296c23)" style="fill: #1f77b4"/>
   </g>
   <g id="patch_41">
    <path d="M 165.718052 382.84 
L 167.628565 382.84 
L 167.628565 382.84 
L 165.718052 382.84 
z
" clip-path="url(#p9af1296c23)" style="fill: #1f77b4"/>
   </g>
   <g id="patch_42">
    <path d="M 167.628565 382.84 
L 169.539079 382.84 
L 169.539079 382.84 
L 167.628565 382.84 
z
" clip-path="url(#p9af1296c23)" style="fill: #1f77b4"/>
   </g>
   <g id="patch_43">
    <path d="M 169.539079 382.84 
L 171.449593 382.84 
L 171.449593 382.439989 
L 169.539079 382.439989 
z
" clip-path="url(#p9af1296c23)" style="fill: #1f77b4"/>
   </g>
   <g id="patch_44">
    <path d="M 171.449593 382.84 
L 173.360106 382.84 
L 173.360106 382.84 
L 171.449593 382.84 
z
" clip-path="url(#p9af1296c23)" style="fill: #1f77b4"/>
   </g>
   <g id="patch_45">
    <path d="M 173.360106 382.84 
L 175.27062 382.84 
L 175.27062 382.497134 
L 173.360106 382.497134 
z
" clip-path="url(#p9af1296c23)" style="fill: #1f77b4"/>
   </g>
   <g id="patch_46">
    <path d="M 175.27062 382.84 
L 177.181133 382.84 
L 177.181133 382.84 
L 175.27062 382.84 
z
" clip-path="url(#p9af1296c23)" style="fill: #1f77b4"/>
   </g>
   <g id="patch_47">
    <path d="M 177.181133 382.84 
L 179.091647 382.84 
L 179.091647 382.84 
L 177.181133 382.84 
z
" clip-path="url(#p9af1296c23)" style="fill: #1f77b4"/>
   </g>
   <g id="patch_48">
    <path d="M 179.091647 382.84 
L 181.002161 382.84 
L 181.002161 382.068551 
L 179.091647 382.068551 
z
" clip-path="url(#p9af1296c23)" style="fill: #1f77b4"/>
   </g>
   <g id="patch_49">
    <path d="M 181.002161 382.84 
L 182.912674 382.84 
L 182.912674 382.84 
L 181.002161 382.84 
z
" clip-path="url(#p9af1296c23)" style="fill: #1f77b4"/>
   </g>
   <g id="patch_50">
    <path d="M 182.912674 382.84 
L 184.823188 382.84 
L 184.823188 382.84 
L 182.912674 382.84 
z
" clip-path="url(#p9af1296c23)" style="fill: #1f77b4"/>
   </g>
   <g id="patch_51">
    <path d="M 184.823188 382.84 
L 186.733701 382.84 
L 186.733701 382.097123 
L 184.823188 382.097123 
z
" clip-path="url(#p9af1296c23)" style="fill: #1f77b4"/>
   </g>
   <g id="patch_52">
    <path d="M 186.733701 382.84 
L 188.644215 382.84 
L 188.644215 382.84 
L 186.733701 382.84 
z
" clip-path="url(#p9af1296c23)" style="fill: #1f77b4"/>
   </g>
   <g id="patch_53">
    <path d="M 188.644215 382.84 
L 190.554729 382.84 
L 190.554729 381.497107 
L 188.644215 381.497107 
z
" clip-path="url(#p9af1296c23)" style="fill: #1f77b4"/>
   </g>
   <g id="patch_54">
    <path d="M 190.554729 382.84 
L 192.465242 382.84 
L 192.465242 382.84 
L 190.554729 382.84 
z
" clip-path="url(#p9af1296c23)" style="fill: #1f77b4"/>
   </g>
   <g id="patch_55">
    <path d="M 192.465242 382.84 
L 194.375756 382.84 
L 194.375756 382.84 
L 192.465242 382.84 
z
" clip-path="url(#p9af1296c23)" style="fill: #1f77b4"/>
   </g>
   <g id="patch_56">
    <path d="M 194.375756 382.84 
L 196.286269 382.84 
L 196.286269 381.725684 
L 194.375756 381.725684 
z
" clip-path="url(#p9af1296c23)" style="fill: #1f77b4"/>
   </g>
   <g id="patch_57">
    <path d="M 196.286269 382.84 
L 198.196783 382.84 
L 198.196783 382.84 
L 196.286269 382.84 
z
" clip-path="url(#p9af1296c23)" style="fill: #1f77b4"/>
   </g>
   <g id="patch_58">
    <path d="M 198.196783 382.84 
L 200.107297 382.84 
L 200.107297 382.84 
L 198.196783 382.84 
z
" clip-path="url(#p9af1296c23)" style="fill: #1f77b4"/>
   </g>
   <g id="patch_59">
    <path d="M 200.107297 382.84 
L 202.01781 382.84 
L 202.01781 381.182813 
L 200.107297 381.182813 
z
" clip-path="url(#p9af1296c23)" style="fill: #1f77b4"/>
   </g>
   <g id="patch_60">
    <path d="M 202.01781 382.84 
L 203.928324 382.84 
L 203.928324 382.84 
L 202.01781 382.84 
z
" clip-path="url(#p9af1296c23)" style="fill: #1f77b4"/>
   </g>
   <g id="patch_61">
    <path d="M 203.928324 382.84 
L 205.838837 382.84 
L 205.838837 379.954208 
L 203.928324 379.954208 
z
" clip-path="url(#p9af1296c23)" style="fill: #1f77b4"/>
   </g>
   <g id="patch_62">
    <path d="M 205.838837 382.84 
L 207.749351 382.84 
L 207.749351 382.84 
L 205.838837 382.84 
z
" clip-path="url(#p9af1296c23)" style="fill: #1f77b4"/>
   </g>
   <g id="patch_63">
    <path d="M 207.749351 382.84 
L 209.659865 382.84 
L 209.659865 382.84 
L 207.749351 382.84 
z
" clip-path="url(#p9af1296c23)" style="fill: #1f77b4"/>
   </g>
   <g id="patch_64">
    <path d="M 209.659865 382.84 
L 211.570378 382.84 
L 211.570378 378.582743 
L 209.659865 378.582743 
z
" clip-path="url(#p9af1296c23)" style="fill: #1f77b4"/>
   </g>
   <g id="patch_65">
    <path d="M 211.570378 382.84 
L 213.480892 382.84 
L 213.480892 382.84 
L 211.570378 382.84 
z
" clip-path="url(#p9af1296c23)" style="fill: #1f77b4"/>
   </g>
   <g id="patch_66">
    <path d="M 213.480892 382.84 
L 215.391405 382.84 
L 215.391405 382.84 
L 213.480892 382.84 
z
" clip-path="url(#p9af1296c23)" style="fill: #1f77b4"/>
   </g>
   <g id="patch_67">
    <path d="M 215.391405 382.84 
L 217.301919 382.84 
L 217.301919 377.982727 
L 215.391405 377.982727 
z
" clip-path="url(#p9af1296c23)" style="fill: #1f77b4"/>
   </g>
   <g id="patch_68">
    <path d="M 217.301919 382.84 
L 219.212433 382.84 
L 219.212433 382.84 
L 217.301919 382.84 
z
" clip-path="url(#p9af1296c23)" style="fill: #1f77b4"/>
   </g>
   <g id="patch_69">
    <path d="M 219.212433 382.84 
L 221.122946 382.84 
L 221.122946 376.496972 
L 219.212433 376.496972 
z
" clip-path="url(#p9af1296c23)" style="fill: #1f77b4"/>
   </g>
   <g id="patch_70">
    <path d="M 221.122946 382.84 
L 223.03346 382.84 
L 223.03346 382.84 
L 221.122946 382.84 
z
" clip-path="url(#p9af1296c23)" style="fill: #1f77b4"/>
   </g>
   <g id="patch_71">
    <path d="M 223.03346 382.84 
L 224.943973 382.84 
L 224.943973 382.84 
L 223.03346 382.84 
z
" clip-path="url(#p9af1296c23)" style="fill: #1f77b4"/>
   </g>
   <g id="patch_72">
    <path d="M 224.943973 382.84 
L 226.854487 382.84 
L 226.854487 374.068336 
L 224.943973 374.068336 
z
" clip-path="url(#p9af1296c23)" style="fill: #1f77b4"/>
   </g>
   <g id="patch_73">
    <path d="M 226.854487 382.84 
L 228.765001 382.84 
L 228.765001 382.84 
L 226.854487 382.84 
z
" clip-path="url(#p9af1296c23)" style="fill: #1f77b4"/>
   </g>
   <g id="patch_74">
    <path d="M 228.765001 382.84 
L 230.675514 382.84 
L 230.675514 382.84 
L 228.765001 382.84 
z
" clip-path="url(#p9af1296c23)" style="fill: #1f77b4"/>
   </g>
   <g id="patch_75">
    <path d="M 230.675514 382.84 
L 232.586028 382.84 
L 232.586028 370.525383 
L 230.675514 370.525383 
z
" clip-path="url(#p9af1296c23)" style="fill: #1f77b4"/>
   </g>
   <g id="patch_76">
    <path d="M 232.586028 382.84 
L 234.496541 382.84 
L 234.496541 382.84 
L 232.586028 382.84 
z
" clip-path="url(#p9af1296c23)" style="fill: #1f77b4"/>
   </g>
   <g id="patch_77">
    <path d="M 234.496541 382.84 
L 236.407055 382.84 
L 236.407055 367.925313 
L 234.496541 367.925313 
z
" clip-path="url(#p9af1296c23)" style="fill: #1f77b4"/>
   </g>
   <g id="patch_78">
    <path d="M 236.407055 382.84 
L 238.317569 382.84 
L 238.317569 382.84 
L 236.407055 382.84 
z
" clip-path="url(#p9af1296c23)" style="fill: #1f77b4"/>
   </g>
   <g id="patch_79">
    <path d="M 238.317569 382.84 
L 240.228082 382.84 
L 240.228082 382.84 
L 238.317569 382.84 
z
" clip-path="url(#p9af1296c23)" style="fill: #1f77b4"/>
   </g>
   <g id="patch_80">
    <path d="M 240.228082 382.84 
L 242.138596 382.84 
L 242.138596 359.896526 
L 240.228082 359.896526 
z
" clip-path="url(#p9af1296c23)" style="fill: #1f77b4"/>
   </g>
   <g id="patch_81">
    <path d="M 242.138596 382.84 
L 244.049109 382.84 
L 244.049109 382.84 
L 242.138596 382.84 
z
" clip-path="url(#p9af1296c23)" style="fill: #1f77b4"/>
   </g>
   <g id="patch_82">
    <path d="M 244.049109 382.84 
L 245.959623 382.84 
L 245.959623 382.84 
L 244.049109 382.84 
z
" clip-path="url(#p9af1296c23)" style="fill: #1f77b4"/>
   </g>
   <g id="patch_83">
    <path d="M 245.959623 382.84 
L 247.870137 382.84 
L 247.870137 355.039253 
L 245.959623 355.039253 
z
" clip-path="url(#p9af1296c23)" style="fill: #1f77b4"/>
   </g>
   <g id="patch_84">
    <path d="M 247.870137 382.84 
L 249.78065 382.84 
L 249.78065 382.84 
L 247.870137 382.84 
z
" clip-path="url(#p9af1296c23)" style="fill: #1f77b4"/>
   </g>
   <g id="patch_85">
    <path d="M 249.78065 382.84 
L 251.691164 382.84 
L 251.691164 347.353332 
L 249.78065 347.353332 
z
" clip-path="url(#p9af1296c23)" style="fill: #1f77b4"/>
   </g>
   <g id="patch_86">
    <path d="M 251.691164 382.84 
L 253.601677 382.84 
L 253.601677 382.84 
L 251.691164 382.84 
z
" clip-path="url(#p9af1296c23)" style="fill: #1f77b4"/>
   </g>
   <g id="patch_87">
    <path d="M 253.601677 382.84 
L 255.512191 382.84 
L 255.512191 382.84 
L 253.601677 382.84 
z
" clip-path="url(#p9af1296c23)" style="fill: #1f77b4"/>
   </g>
   <g id="patch_88">
    <path d="M 255.512191 382.84 
L 257.422705 382.84 
L 257.422705 339.01025 
L 255.512191 339.01025 
z
" clip-path="url(#p9af1296c23)" style="fill: #1f77b4"/>
   </g>
   <g id="patch_89">
    <path d="M 257.422705 382.84 
L 259.333218 382.84 
L 259.333218 382.84 
L 257.422705 382.84 
z
" clip-path="url(#p9af1296c23)" style="fill: #1f77b4"/>
   </g>
   <g id="patch_90">
    <path d="M 259.333218 382.84 
L 261.243732 382.84 
L 261.243732 382.84 
L 259.333218 382.84 
z
" clip-path="url(#p9af1296c23)" style="fill: #1f77b4"/>
   </g>
   <g id="patch_91">
    <path d="M 261.243732 382.84 
L 263.154245 382.84 
L 263.154245 327.209933 
L 261.243732 327.209933 
z
" clip-path="url(#p9af1296c23)" style="fill: #1f77b4"/>
   </g>
   <g id="patch_92">
    <path d="M 263.154245 382.84 
L 265.064759 382.84 
L 265.064759 382.84 
L 263.154245 382.84 
z
" clip-path="url(#p9af1296c23)" style="fill: #1f77b4"/>
   </g>
   <g id="patch_93">
    <path d="M 265.064759 382.84 
L 266.975273 382.84 
L 266.975273 313.438135 
L 265.064759 313.438135 
z
" clip-path="url(#p9af1296c23)" style="fill: #1f77b4"/>
   </g>
   <g id="patch_94">
    <path d="M 266.975273 382.84 
L 268.885786 382.84 
L 268.885786 382.84 
L 266.975273 382.84 
z
" clip-path="url(#p9af1296c23)" style="fill: #1f77b4"/>
   </g>
   <g id="patch_95">
    <path d="M 268.885786 382.84 
L 270.7963 382.84 
L 270.7963 382.84 
L 268.885786 382.84 
z
" clip-path="url(#p9af1296c23)" style="fill: #1f77b4"/>
   </g>
   <g id="patch_96">
    <path d="M 270.7963 382.84 
L 272.706813 382.84 
L 272.706813 295.380506 
L 270.7963 295.380506 
z
" clip-path="url(#p9af1296c23)" style="fill: #1f77b4"/>
   </g>
   <g id="patch_97">
    <path d="M 272.706813 382.84 
L 274.617327 382.84 
L 274.617327 382.84 
L 272.706813 382.84 
z
" clip-path="url(#p9af1296c23)" style="fill: #1f77b4"/>
   </g>
   <g id="patch_98">
    <path d="M 274.617327 382.84 
L 276.527841 382.84 
L 276.527841 382.84 
L 274.617327 382.84 
z
" clip-path="url(#p9af1296c23)" style="fill: #1f77b4"/>
   </g>
   <g id="patch_99">
    <path d="M 276.527841 382.84 
L 278.438354 382.84 
L 278.438354 279.69437 
L 276.527841 279.69437 
z
" clip-path="url(#p9af1296c23)" style="fill: #1f77b4"/>
   </g>
   <g id="patch_100">
    <path d="M 278.438354 382.84 
L 280.348868 382.84 
L 280.348868 382.84 
L 278.438354 382.84 
z
" clip-path="url(#p9af1296c23)" style="fill: #1f77b4"/>
   </g>
   <g id="patch_101">
    <path d="M 280.348868 382.84 
L 282.259381 382.84 
L 282.259381 259.836694 
L 280.348868 259.836694 
z
" clip-path="url(#p9af1296c23)" style="fill: #1f77b4"/>
   </g>
   <g id="patch_102">
    <path d="M 282.259381 382.84 
L 284.169895 382.84 
L 284.169895 382.84 
L 282.259381 382.84 
z
" clip-path="url(#p9af1296c23)" style="fill: #1f77b4"/>
   </g>
   <g id="patch_103">
    <path d="M 284.169895 382.84 
L 286.080409 382.84 
L 286.080409 382.84 
L 284.169895 382.84 
z
" clip-path="url(#p9af1296c23)" style="fill: #1f77b4"/>
   </g>
   <g id="patch_104">
    <path d="M 286.080409 382.84 
L 287.990922 382.84 
L 287.990922 238.06468 
L 286.080409 238.06468 
z
" clip-path="url(#p9af1296c23)" style="fill: #1f77b4"/>
   </g>
   <g id="patch_105">
    <path d="M 287.990922 382.84 
L 289.901436 382.84 
L 289.901436 382.84 
L 287.990922 382.84 
z
" clip-path="url(#p9af1296c23)" style="fill: #1f77b4"/>
   </g>
   <g id="patch_106">
    <path d="M 289.901436 382.84 
L 291.811949 382.84 
L 291.811949 382.84 
L 289.901436 382.84 
z
" clip-path="url(#p9af1296c23)" style="fill: #1f77b4"/>
   </g>
   <g id="patch_107">
    <path d="M 291.811949 382.84 
L 293.722463 382.84 
L 293.722463 214.235468 
L 291.811949 214.235468 
z
" clip-path="url(#p9af1296c23)" style="fill: #1f77b4"/>
   </g>
   <g id="patch_108">
    <path d="M 293.722463 382.84 
L 295.632977 382.84 
L 295.632977 382.84 
L 293.722463 382.84 
z
" clip-path="url(#p9af1296c23)" style="fill: #1f77b4"/>
   </g>
   <g id="patch_109">
    <path d="M 295.632977 382.84 
L 297.54349 382.84 
L 297.54349 186.863304 
L 295.632977 186.863304 
z
" clip-path="url(#p9af1296c23)" style="fill: #1f77b4"/>
   </g>
   <g id="patch_110">
    <path d="M 297.54349 382.84 
L 299.454004 382.84 
L 299.454004 382.84 
L 297.54349 382.84 
z
" clip-path="url(#p9af1296c23)" style="fill: #1f77b4"/>
   </g>
   <g id="patch_111">
    <path d="M 299.454004 382.84 
L 301.364517 382.84 
L 301.364517 382.84 
L 299.454004 382.84 
z
" clip-path="url(#p9af1296c23)" style="fill: #1f77b4"/>
   </g>
   <g id="patch_112">
    <path d="M 301.364517 382.84 
L 303.275031 382.84 
L 303.275031 152.890962 
L 301.364517 152.890962 
z
" clip-path="url(#p9af1296c23)" style="fill: #1f77b4"/>
   </g>
   <g id="patch_113">
    <path d="M 303.275031 382.84 
L 305.185545 382.84 
L 305.185545 382.84 
L 303.275031 382.84 
z
" clip-path="url(#p9af1296c23)" style="fill: #1f77b4"/>
   </g>
   <g id="patch_114">
    <path d="M 305.185545 382.84 
L 307.096058 382.84 
L 307.096058 382.84 
L 305.185545 382.84 
z
" clip-path="url(#p9af1296c23)" style="fill: #1f77b4"/>
   </g>
   <g id="patch_115">
    <path d="M 307.096058 382.84 
L 309.006572 382.84 
L 309.006572 133.861879 
L 307.096058 133.861879 
z
" clip-path="url(#p9af1296c23)" style="fill: #1f77b4"/>
   </g>
   <g id="patch_116">
    <path d="M 309.006572 382.84 
L 310.917085 382.84 
L 310.917085 382.84 
L 309.006572 382.84 
z
" clip-path="url(#p9af1296c23)" style="fill: #1f77b4"/>
   </g>
   <g id="patch_117">
    <path d="M 310.917085 382.84 
L 312.827599 382.84 
L 312.827599 109.232646 
L 310.917085 109.232646 
z
" clip-path="url(#p9af1296c23)" style="fill: #1f77b4"/>
   </g>
   <g id="patch_118">
    <path d="M 312.827599 382.84 
L 314.738113 382.84 
L 314.738113 382.84 
L 312.827599 382.84 
z
" clip-path="url(#p9af1296c23)" style="fill: #1f77b4"/>
   </g>
   <g id="patch_119">
    <path d="M 314.738113 382.84 
L 316.648626 382.84 
L 316.648626 382.84 
L 314.738113 382.84 
z
" clip-path="url(#p9af1296c23)" style="fill: #1f77b4"/>
   </g>
   <g id="patch_120">
    <path d="M 316.648626 382.84 
L 318.55914 382.84 
L 318.55914 82.146203 
L 316.648626 82.146203 
z
" clip-path="url(#p9af1296c23)" style="fill: #1f77b4"/>
   </g>
   <g id="patch_121">
    <path d="M 318.55914 382.84 
L 320.469653 382.84 
L 320.469653 382.84 
L 318.55914 382.84 
z
" clip-path="url(#p9af1296c23)" style="fill: #1f77b4"/>
   </g>
   <g id="patch_122">
    <path d="M 320.469653 382.84 
L 322.380167 382.84 
L 322.380167 382.84 
L 320.469653 382.84 
z
" clip-path="url(#p9af1296c23)" style="fill: #1f77b4"/>
   </g>
   <g id="patch_123">
    <path d="M 322.380167 382.84 
L 324.290681 382.84 
L 324.290681 64.974313 
L 322.380167 64.974313 
z
" clip-path="url(#p9af1296c23)" style="fill: #1f77b4"/>
   </g>
   <g id="patch_124">
    <path d="M 324.290681 382.84 
L 326.201194 382.84 
L 326.201194 382.84 
L 324.290681 382.84 
z
" clip-path="url(#p9af1296c23)" style="fill: #1f77b4"/>
   </g>
   <g id="patch_125">
    <path d="M 326.201194 382.84 
L 328.111708 382.84 
L 328.111708 52.802558 
L 326.201194 52.802558 
z
" clip-path="url(#p9af1296c23)" style="fill: #1f77b4"/>
   </g>
   <g id="patch_126">
    <path d="M 328.111708 382.84 
L 330.022221 382.84 
L 330.022221 382.84 
L 328.111708 382.84 
z
" clip-path="url(#p9af1296c23)" style="fill: #1f77b4"/>
   </g>
   <g id="patch_127">
    <path d="M 330.022221 382.84 
L 331.932735 382.84 
L 331.932735 382.84 
L 330.022221 382.84 
z
" clip-path="url(#p9af1296c23)" style="fill: #1f77b4"/>
   </g>
   <g id="patch_128">
    <path d="M 331.932735 382.84 
L 333.843249 382.84 
L 333.843249 35.973534 
L 331.932735 35.973534 
z
" clip-path="url(#p9af1296c23)" style="fill: #1f77b4"/>
   </g>
   <g id="patch_129">
    <path d="M 333.843249 382.84 
L 335.753762 382.84 
L 335.753762 382.84 
L 333.843249 382.84 
z
" clip-path="url(#p9af1296c23)" style="fill: #1f77b4"/>
   </g>
   <g id="patch_130">
    <path d="M 335.753762 382.84 
L 337.664276 382.84 
L 337.664276 382.84 
L 335.753762 382.84 
z
" clip-path="url(#p9af1296c23)" style="fill: #1f77b4"/>
   </g>
   <g id="patch_131">
    <path d="M 337.664276 382.84 
L 339.574789 382.84 
L 339.574789 28.51619 
L 337.664276 28.51619 
z
" clip-path="url(#p9af1296c23)" style="fill: #1f77b4"/>
   </g>
   <g id="patch_132">
    <path d="M 339.574789 382.84 
L 341.485303 382.84 
L 341.485303 382.84 
L 339.574789 382.84 
z
" clip-path="url(#p9af1296c23)" style="fill: #1f77b4"/>
   </g>
   <g id="patch_133">
    <path d="M 341.485303 382.84 
L 343.395817 382.84 
L 343.395817 30.630533 
L 341.485303 30.630533 
z
" clip-path="url(#p9af1296c23)" style="fill: #1f77b4"/>
   </g>
   <g id="patch_134">
    <path d="M 343.395817 382.84 
L 345.30633 382.84 
L 345.30633 382.84 
L 343.395817 382.84 
z
" clip-path="url(#p9af1296c23)" style="fill: #1f77b4"/>
   </g>
   <g id="patch_135">
    <path d="M 345.30633 382.84 
L 347.216844 382.84 
L 347.216844 382.84 
L 345.30633 382.84 
z
" clip-path="url(#p9af1296c23)" style="fill: #1f77b4"/>
   </g>
   <g id="patch_136">
    <path d="M 347.216844 382.84 
L 349.127357 382.84 
L 349.127357 34.144913 
L 347.216844 34.144913 
z
" clip-path="url(#p9af1296c23)" style="fill: #1f77b4"/>
   </g>
   <g id="patch_137">
    <path d="M 349.127357 382.84 
L 351.037871 382.84 
L 351.037871 382.84 
L 349.127357 382.84 
z
" clip-path="url(#p9af1296c23)" style="fill: #1f77b4"/>
   </g>
   <g id="patch_138">
    <path d="M 351.037871 382.84 
L 352.948385 382.84 
L 352.948385 382.84 
L 351.037871 382.84 
z
" clip-path="url(#p9af1296c23)" style="fill: #1f77b4"/>
   </g>
   <g id="patch_139">
    <path d="M 352.948385 382.84 
L 354.858898 382.84 
L 354.858898 38.830753 
L 352.948385 38.830753 
z
" clip-path="url(#p9af1296c23)" style="fill: #1f77b4"/>
   </g>
   <g id="patch_140">
    <path d="M 354.858898 382.84 
L 356.769412 382.84 
L 356.769412 382.84 
L 354.858898 382.84 
z
" clip-path="url(#p9af1296c23)" style="fill: #1f77b4"/>
   </g>
   <g id="patch_141">
    <path d="M 356.769412 382.84 
L 358.679925 382.84 
L 358.679925 53.688296 
L 356.769412 53.688296 
z
" clip-path="url(#p9af1296c23)" style="fill: #1f77b4"/>
   </g>
   <g id="patch_142">
    <path d="M 358.679925 382.84 
L 360.590439 382.84 
L 360.590439 382.84 
L 358.679925 382.84 
z
" clip-path="url(#p9af1296c23)" style="fill: #1f77b4"/>
   </g>
   <g id="patch_143">
    <path d="M 360.590439 382.84 
L 362.500953 382.84 
L 362.500953 382.84 
L 360.590439 382.84 
z
" clip-path="url(#p9af1296c23)" style="fill: #1f77b4"/>
   </g>
   <g id="patch_144">
    <path d="M 362.500953 382.84 
L 364.411466 382.84 
L 364.411466 70.26017 
L 362.500953 70.26017 
z
" clip-path="url(#p9af1296c23)" style="fill: #1f77b4"/>
   </g>
   <g id="patch_145">
    <path d="M 364.411466 382.84 
L 366.32198 382.84 
L 366.32198 382.84 
L 364.411466 382.84 
z
" clip-path="url(#p9af1296c23)" style="fill: #1f77b4"/>
   </g>
   <g id="patch_146">
    <path d="M 366.32198 382.84 
L 368.232494 382.84 
L 368.232494 382.84 
L 366.32198 382.84 
z
" clip-path="url(#p9af1296c23)" style="fill: #1f77b4"/>
   </g>
   <g id="patch_147">
    <path d="M 368.232494 382.84 
L 370.143007 382.84 
L 370.143007 96.089435 
L 368.232494 96.089435 
z
" clip-path="url(#p9af1296c23)" style="fill: #1f77b4"/>
   </g>
   <g id="patch_148">
    <path d="M 370.143007 382.84 
L 372.053521 382.84 
L 372.053521 382.84 
L 370.143007 382.84 
z
" clip-path="url(#p9af1296c23)" style="fill: #1f77b4"/>
   </g>
   <g id="patch_149">
    <path d="M 372.053521 382.84 
L 373.964034 382.84 
L 373.964034 115.061374 
L 372.053521 115.061374 
z
" clip-path="url(#p9af1296c23)" style="fill: #1f77b4"/>
   </g>
   <g id="patch_150">
    <path d="M 373.964034 382.84 
L 375.874548 382.84 
L 375.874548 382.84 
L 373.964034 382.84 
z
" clip-path="url(#p9af1296c23)" style="fill: #1f77b4"/>
   </g>
   <g id="patch_151">
    <path d="M 375.874548 382.84 
L 377.785062 382.84 
L 377.785062 382.84 
L 375.874548 382.84 
z
" clip-path="url(#p9af1296c23)" style="fill: #1f77b4"/>
   </g>
   <g id="patch_152">
    <path d="M 377.785062 382.84 
L 379.695575 382.84 
L 379.695575 140.919212 
L 377.785062 140.919212 
z
" clip-path="url(#p9af1296c23)" style="fill: #1f77b4"/>
   </g>
   <g id="patch_153">
    <path d="M 379.695575 382.84 
L 381.606089 382.84 
L 381.606089 382.84 
L 379.695575 382.84 
z
" clip-path="url(#p9af1296c23)" style="fill: #1f77b4"/>
   </g>
   <g id="patch_154">
    <path d="M 381.606089 382.84 
L 383.516602 382.84 
L 383.516602 382.84 
L 381.606089 382.84 
z
" clip-path="url(#p9af1296c23)" style="fill: #1f77b4"/>
   </g>
   <g id="patch_155">
    <path d="M 383.516602 382.84 
L 385.427116 382.84 
L 385.427116 170.94859 
L 383.516602 170.94859 
z
" clip-path="url(#p9af1296c23)" style="fill: #1f77b4"/>
   </g>
   <g id="patch_156">
    <path d="M 385.427116 382.84 
L 387.33763 382.84 
L 387.33763 382.84 
L 385.427116 382.84 
z
" clip-path="url(#p9af1296c23)" style="fill: #1f77b4"/>
   </g>
   <g id="patch_157">
    <path d="M 387.33763 382.84 
L 389.248143 382.84 
L 389.248143 191.720577 
L 387.33763 191.720577 
z
" clip-path="url(#p9af1296c23)" style="fill: #1f77b4"/>
   </g>
   <g id="patch_158">
    <path d="M 389.248143 382.84 
L 391.158657 382.84 
L 391.158657 382.84 
L 389.248143 382.84 
z
" clip-path="url(#p9af1296c23)" style="fill: #1f77b4"/>
   </g>
   <g id="patch_159">
    <path d="M 391.158657 382.84 
L 393.06917 382.84 
L 393.06917 382.84 
L 391.158657 382.84 
z
" clip-path="url(#p9af1296c23)" style="fill: #1f77b4"/>
   </g>
   <g id="patch_160">
    <path d="M 393.06917 382.84 
L 394.979684 382.84 
L 394.979684 216.378383 
L 393.06917 216.378383 
z
" clip-path="url(#p9af1296c23)" style="fill: #1f77b4"/>
   </g>
   <g id="patch_161">
    <path d="M 394.979684 382.84 
L 396.890198 382.84 
L 396.890198 382.84 
L 394.979684 382.84 
z
" clip-path="url(#p9af1296c23)" style="fill: #1f77b4"/>
   </g>
   <g id="patch_162">
    <path d="M 396.890198 382.84 
L 398.800711 382.84 
L 398.800711 382.84 
L 396.890198 382.84 
z
" clip-path="url(#p9af1296c23)" style="fill: #1f77b4"/>
   </g>
   <g id="patch_163">
    <path d="M 398.800711 382.84 
L 400.711225 382.84 
L 400.711225 238.093252 
L 398.800711 238.093252 
z
" clip-path="url(#p9af1296c23)" style="fill: #1f77b4"/>
   </g>
   <g id="patch_164">
    <path d="M 400.711225 382.84 
L 402.621738 382.84 
L 402.621738 382.84 
L 400.711225 382.84 
z
" clip-path="url(#p9af1296c23)" style="fill: #1f77b4"/>
   </g>
   <g id="patch_165">
    <path d="M 402.621738 382.84 
L 404.532252 382.84 
L 404.532252 254.750843 
L 402.621738 254.750843 
z
" clip-path="url(#p9af1296c23)" style="fill: #1f77b4"/>
   </g>
   <g id="patch_166">
    <path d="M 404.532252 382.84 
L 406.442766 382.84 
L 406.442766 382.84 
L 404.532252 382.84 
z
" clip-path="url(#p9af1296c23)" style="fill: #1f77b4"/>
   </g>
   <g id="patch_167">
    <path d="M 406.442766 382.84 
L 408.353279 382.84 
L 408.353279 382.84 
L 406.442766 382.84 
z
" clip-path="url(#p9af1296c23)" style="fill: #1f77b4"/>
   </g>
   <g id="patch_168">
    <path d="M 408.353279 382.84 
L 410.263793 382.84 
L 410.263793 282.980173 
L 408.353279 282.980173 
z
" clip-path="url(#p9af1296c23)" style="fill: #1f77b4"/>
   </g>
   <g id="patch_169">
    <path d="M 410.263793 382.84 
L 412.174306 382.84 
L 412.174306 382.84 
L 410.263793 382.84 
z
" clip-path="url(#p9af1296c23)" style="fill: #1f77b4"/>
   </g>
   <g id="patch_170">
    <path d="M 412.174306 382.84 
L 414.08482 382.84 
L 414.08482 382.84 
L 412.174306 382.84 
z
" clip-path="url(#p9af1296c23)" style="fill: #1f77b4"/>
   </g>
   <g id="patch_171">
    <path d="M 414.08482 382.84 
L 415.995334 382.84 
L 415.995334 296.551966 
L 414.08482 296.551966 
z
" clip-path="url(#p9af1296c23)" style="fill: #1f77b4"/>
   </g>
   <g id="patch_172">
    <path d="M 415.995334 382.84 
L 417.905847 382.84 
L 417.905847 382.84 
L 415.995334 382.84 
z
" clip-path="url(#p9af1296c23)" style="fill: #1f77b4"/>
   </g>
   <g id="patch_173">
    <path d="M 417.905847 382.84 
L 419.816361 382.84 
L 419.816361 309.495171 
L 417.905847 309.495171 
z
" clip-path="url(#p9af1296c23)" style="fill: #1f77b4"/>
   </g>
   <g id="patch_174">
    <path d="M 419.816361 382.84 
L 421.726874 382.84 
L 421.726874 382.84 
L 419.816361 382.84 
z
" clip-path="url(#p9af1296c23)" style="fill: #1f77b4"/>
   </g>
   <g id="patch_175">
    <path d="M 421.726874 382.84 
L 423.637388 382.84 
L 423.637388 382.84 
L 421.726874 382.84 
z
" clip-path="url(#p9af1296c23)" style="fill: #1f77b4"/>
   </g>
   <g id="patch_176">
    <path d="M 423.637388 382.84 
L 425.547902 382.84 
L 425.547902 324.009847 
L 423.637388 324.009847 
z
" clip-path="url(#p9af1296c23)" style="fill: #1f77b4"/>
   </g>
   <g id="patch_177">
    <path d="M 425.547902 382.84 
L 427.458415 382.84 
L 427.458415 382.84 
L 425.547902 382.84 
z
" clip-path="url(#p9af1296c23)" style="fill: #1f77b4"/>
   </g>
   <g id="patch_178">
    <path d="M 427.458415 382.84 
L 429.368929 382.84 
L 429.368929 382.84 
L 427.458415 382.84 
z
" clip-path="url(#p9af1296c23)" style="fill: #1f77b4"/>
   </g>
   <g id="patch_179">
    <path d="M 429.368929 382.84 
L 431.279442 382.84 
L 431.279442 332.324356 
L 429.368929 332.324356 
z
" clip-path="url(#p9af1296c23)" style="fill: #1f77b4"/>
   </g>
   <g id="patch_180">
    <path d="M 431.279442 382.84 
L 433.189956 382.84 
L 433.189956 382.84 
L 431.279442 382.84 
z
" clip-path="url(#p9af1296c23)" style="fill: #1f77b4"/>
   </g>
   <g id="patch_181">
    <path d="M 433.189956 382.84 
L 435.10047 382.84 
L 435.10047 340.724582 
L 433.189956 340.724582 
z
" clip-path="url(#p9af1296c23)" style="fill: #1f77b4"/>
   </g>
   <g id="patch_182">
    <path d="M 435.10047 382.84 
L 437.010983 382.84 
L 437.010983 382.84 
L 435.10047 382.84 
z
" clip-path="url(#p9af1296c23)" style="fill: #1f77b4"/>
   </g>
   <g id="patch_183">
    <path d="M 437.010983 382.84 
L 438.921497 382.84 
L 438.921497 382.84 
L 437.010983 382.84 
z
" clip-path="url(#p9af1296c23)" style="fill: #1f77b4"/>
   </g>
   <g id="patch_184">
    <path d="M 438.921497 382.84 
L 440.83201 382.84 
L 440.83201 347.667626 
L 438.921497 347.667626 
z
" clip-path="url(#p9af1296c23)" style="fill: #1f77b4"/>
   </g>
   <g id="patch_185">
    <path d="M 440.83201 382.84 
L 442.742524 382.84 
L 442.742524 382.84 
L 440.83201 382.84 
z
" clip-path="url(#p9af1296c23)" style="fill: #1f77b4"/>
   </g>
   <g id="patch_186">
    <path d="M 442.742524 382.84 
L 444.653038 382.84 
L 444.653038 382.84 
L 442.742524 382.84 
z
" clip-path="url(#p9af1296c23)" style="fill: #1f77b4"/>
   </g>
   <g id="patch_187">
    <path d="M 444.653038 382.84 
L 446.563551 382.84 
L 446.563551 355.582124 
L 444.653038 355.582124 
z
" clip-path="url(#p9af1296c23)" style="fill: #1f77b4"/>
   </g>
   <g id="patch_188">
    <path d="M 446.563551 382.84 
L 448.474065 382.84 
L 448.474065 382.84 
L 446.563551 382.84 
z
" clip-path="url(#p9af1296c23)" style="fill: #1f77b4"/>
   </g>
   <g id="patch_189">
    <path d="M 448.474065 382.84 
L 450.384578 382.84 
L 450.384578 361.182275 
L 448.474065 361.182275 
z
" clip-path="url(#p9af1296c23)" style="fill: #1f77b4"/>
   </g>
   <g id="patch_190">
    <path d="M 450.384578 382.84 
L 452.295092 382.84 
L 452.295092 382.84 
L 450.384578 382.84 
z
" clip-path="url(#p9af1296c23)" style="fill: #1f77b4"/>
   </g>
   <g id="patch_191">
    <path d="M 452.295092 382.84 
L 454.205606 382.84 
L 454.205606 382.84 
L 452.295092 382.84 
z
" clip-path="url(#p9af1296c23)" style="fill: #1f77b4"/>
   </g>
   <g id="patch_192">
    <path d="M 454.205606 382.84 
L 456.116119 382.84 
L 456.116119 365.268099 
L 454.205606 365.268099 
z
" clip-path="url(#p9af1296c23)" style="fill: #1f77b4"/>
   </g>
   <g id="patch_193">
    <path d="M 456.116119 382.84 
L 458.026633 382.84 
L 458.026633 382.84 
L 456.116119 382.84 
z
" clip-path="url(#p9af1296c23)" style="fill: #1f77b4"/>
   </g>
   <g id="patch_194">
    <path d="M 458.026633 382.84 
L 459.937146 382.84 
L 459.937146 382.84 
L 458.026633 382.84 
z
" clip-path="url(#p9af1296c23)" style="fill: #1f77b4"/>
   </g>
   <g id="patch_195">
    <path d="M 459.937146 382.84 
L 461.84766 382.84 
L 461.84766 368.325324 
L 459.937146 368.325324 
z
" clip-path="url(#p9af1296c23)" style="fill: #1f77b4"/>
   </g>
   <g id="patch_196">
    <path d="M 461.84766 382.84 
L 463.758174 382.84 
L 463.758174 382.84 
L 461.84766 382.84 
z
" clip-path="url(#p9af1296c23)" style="fill: #1f77b4"/>
   </g>
   <g id="patch_197">
    <path d="M 463.758174 382.84 
L 465.668687 382.84 
L 465.668687 372.668298 
L 463.758174 372.668298 
z
" clip-path="url(#p9af1296c23)" style="fill: #1f77b4"/>
   </g>
   <g id="patch_198">
    <path d="M 465.668687 382.84 
L 467.579201 382.84 
L 467.579201 382.84 
L 465.668687 382.84 
z
" clip-path="url(#p9af1296c23)" style="fill: #1f77b4"/>
   </g>
   <g id="patch_199">
    <path d="M 467.579201 382.84 
L 469.489714 382.84 
L 469.489714 382.84 
L 467.579201 382.84 
z
" clip-path="url(#p9af1296c23)" style="fill: #1f77b4"/>
   </g>
   <g id="patch_200">
    <path d="M 469.489714 382.84 
L 471.400228 382.84 
L 471.400228 374.63978 
L 469.489714 374.63978 
z
" clip-path="url(#p9af1296c23)" style="fill: #1f77b4"/>
   </g>
   <g id="patch_201">
    <path d="M 471.400228 382.84 
L 473.310742 382.84 
L 473.310742 382.84 
L 471.400228 382.84 
z
" clip-path="url(#p9af1296c23)" style="fill: #1f77b4"/>
   </g>
   <g id="patch_202">
    <path d="M 473.310742 382.84 
L 475.221255 382.84 
L 475.221255 382.84 
L 473.310742 382.84 
z
" clip-path="url(#p9af1296c23)" style="fill: #1f77b4"/>
   </g>
   <g id="patch_203">
    <path d="M 475.221255 382.84 
L 477.131769 382.84 
L 477.131769 376.696978 
L 475.221255 376.696978 
z
" clip-path="url(#p9af1296c23)" style="fill: #1f77b4"/>
   </g>
   <g id="patch_204">
    <path d="M 477.131769 382.84 
L 479.042282 382.84 
L 479.042282 382.84 
L 477.131769 382.84 
z
" clip-path="url(#p9af1296c23)" style="fill: #1f77b4"/>
   </g>
   <g id="patch_205">
    <path d="M 479.042282 382.84 
L 480.952796 382.84 
L 480.952796 378.868465 
L 479.042282 378.868465 
z
" clip-path="url(#p9af1296c23)" style="fill: #1f77b4"/>
   </g>
   <g id="patch_206">
    <path d="M 480.952796 382.84 
L 482.86331 382.84 
L 482.86331 382.84 
L 480.952796 382.84 
z
" clip-path="url(#p9af1296c23)" style="fill: #1f77b4"/>
   </g>
   <g id="patch_207">
    <path d="M 482.86331 382.84 
L 484.773823 382.84 
L 484.773823 382.84 
L 482.86331 382.84 
z
" clip-path="url(#p9af1296c23)" style="fill: #1f77b4"/>
   </g>
   <g id="patch_208">
    <path d="M 484.773823 382.84 
L 486.684337 382.84 
L 486.684337 379.925636 
L 484.773823 379.925636 
z
" clip-path="url(#p9af1296c23)" style="fill: #1f77b4"/>
   </g>
   <g id="patch_209">
    <path d="M 486.684337 382.84 
L 488.59485 382.84 
L 488.59485 382.84 
L 486.684337 382.84 
z
" clip-path="url(#p9af1296c23)" style="fill: #1f77b4"/>
   </g>
   <g id="patch_210">
    <path d="M 488.59485 382.84 
L 490.505364 382.84 
L 490.505364 382.84 
L 488.59485 382.84 
z
" clip-path="url(#p9af1296c23)" style="fill: #1f77b4"/>
   </g>
   <g id="patch_211">
    <path d="M 490.505364 382.84 
L 492.415878 382.84 
L 492.415878 380.411363 
L 490.505364 380.411363 
z
" clip-path="url(#p9af1296c23)" style="fill: #1f77b4"/>
   </g>
   <g id="patch_212">
    <path d="M 492.415878 382.84 
L 494.326391 382.84 
L 494.326391 382.84 
L 492.415878 382.84 
z
" clip-path="url(#p9af1296c23)" style="fill: #1f77b4"/>
   </g>
   <g id="patch_213">
    <path d="M 494.326391 382.84 
L 496.236905 382.84 
L 496.236905 381.211385 
L 494.326391 381.211385 
z
" clip-path="url(#p9af1296c23)" style="fill: #1f77b4"/>
   </g>
   <g id="patch_214">
    <path d="M 496.236905 382.84 
L 498.147418 382.84 
L 498.147418 382.84 
L 496.236905 382.84 
z
" clip-path="url(#p9af1296c23)" style="fill: #1f77b4"/>
   </g>
   <g id="patch_215">
    <path d="M 498.147418 382.84 
L 500.057932 382.84 
L 500.057932 382.84 
L 498.147418 382.84 
z
" clip-path="url(#p9af1296c23)" style="fill: #1f77b4"/>
   </g>
   <g id="patch_216">
    <path d="M 500.057932 382.84 
L 501.968446 382.84 
L 501.968446 381.811401 
L 500.057932 381.811401 
z
" clip-path="url(#p9af1296c23)" style="fill: #1f77b4"/>
   </g>
   <g id="patch_217">
    <path d="M 501.968446 382.84 
L 503.878959 382.84 
L 503.878959 382.84 
L 501.968446 382.84 
z
" clip-path="url(#p9af1296c23)" style="fill: #1f77b4"/>
   </g>
   <g id="patch_218">
    <path d="M 503.878959 382.84 
L 505.789473 382.84 
L 505.789473 382.84 
L 503.878959 382.84 
z
" clip-path="url(#p9af1296c23)" style="fill: #1f77b4"/>
   </g>
   <g id="patch_219">
    <path d="M 505.789473 382.84 
L 507.699986 382.84 
L 507.699986 382.354273 
L 505.789473 382.354273 
z
" clip-path="url(#p9af1296c23)" style="fill: #1f77b4"/>
   </g>
   <g id="patch_220">
    <path d="M 507.699986 382.84 
L 509.6105 382.84 
L 509.6105 382.84 
L 507.699986 382.84 
z
" clip-path="url(#p9af1296c23)" style="fill: #1f77b4"/>
   </g>
   <g id="patch_221">
    <path d="M 509.6105 382.84 
L 511.521014 382.84 
L 511.521014 382.468561 
L 509.6105 382.468561 
z
" clip-path="url(#p9af1296c23)" style="fill: #1f77b4"/>
   </g>
   <g id="patch_222">
    <path d="M 511.521014 382.84 
L 513.431527 382.84 
L 513.431527 382.84 
L 511.521014 382.84 
z
" clip-path="url(#p9af1296c23)" style="fill: #1f77b4"/>
   </g>
   <g id="patch_223">
    <path d="M 513.431527 382.84 
L 515.342041 382.84 
L 515.342041 382.84 
L 513.431527 382.84 
z
" clip-path="url(#p9af1296c23)" style="fill: #1f77b4"/>
   </g>
   <g id="patch_224">
    <path d="M 515.342041 382.84 
L 517.252554 382.84 
L 517.252554 382.354273 
L 515.342041 382.354273 
z
" clip-path="url(#p9af1296c23)" style="fill: #1f77b4"/>
   </g>
   <g id="patch_225">
    <path d="M 517.252554 382.84 
L 519.163068 382.84 
L 519.163068 382.84 
L 517.252554 382.84 
z
" clip-path="url(#p9af1296c23)" style="fill: #1f77b4"/>
   </g>
   <g id="patch_226">
    <path d="M 519.163068 382.84 
L 521.073582 382.84 
L 521.073582 382.84 
L 519.163068 382.84 
z
" clip-path="url(#p9af1296c23)" style="fill: #1f77b4"/>
   </g>
   <g id="patch_227">
    <path d="M 521.073582 382.84 
L 522.984095 382.84 
L 522.984095 382.725711 
L 521.073582 382.725711 
z
" clip-path="url(#p9af1296c23)" style="fill: #1f77b4"/>
   </g>
   <g id="patch_228">
    <path d="M 522.984095 382.84 
L 524.894609 382.84 
L 524.894609 382.84 
L 522.984095 382.84 
z
" clip-path="url(#p9af1296c23)" style="fill: #1f77b4"/>
   </g>
   <g id="patch_229">
    <path d="M 524.894609 382.84 
L 526.805122 382.84 
L 526.805122 382.697139 
L 524.894609 382.697139 
z
" clip-path="url(#p9af1296c23)" style="fill: #1f77b4"/>
   </g>
   <g id="patch_230">
    <path d="M 526.805122 382.84 
L 528.715636 382.84 
L 528.715636 382.84 
L 526.805122 382.84 
z
" clip-path="url(#p9af1296c23)" style="fill: #1f77b4"/>
   </g>
   <g id="patch_231">
    <path d="M 528.715636 382.84 
L 530.62615 382.84 
L 530.62615 382.84 
L 528.715636 382.84 
z
" clip-path="url(#p9af1296c23)" style="fill: #1f77b4"/>
   </g>
   <g id="patch_232">
    <path d="M 530.62615 382.84 
L 532.536663 382.84 
L 532.536663 382.697139 
L 530.62615 382.697139 
z
" clip-path="url(#p9af1296c23)" style="fill: #1f77b4"/>
   </g>
   <g id="patch_233">
    <path d="M 532.536663 382.84 
L 534.447177 382.84 
L 534.447177 382.84 
L 532.536663 382.84 
z
" clip-path="url(#p9af1296c23)" style="fill: #1f77b4"/>
   </g>
   <g id="patch_234">
    <path d="M 534.447177 382.84 
L 536.35769 382.84 
L 536.35769 382.84 
L 534.447177 382.84 
z
" clip-path="url(#p9af1296c23)" style="fill: #1f77b4"/>
   </g>
   <g id="patch_235">
    <path d="M 536.35769 382.84 
L 538.268204 382.84 
L 538.268204 382.725711 
L 536.35769 382.725711 
z
" clip-path="url(#p9af1296c23)" style="fill: #1f77b4"/>
   </g>
   <g id="patch_236">
    <path d="M 538.268204 382.84 
L 540.178718 382.84 
L 540.178718 382.84 
L 538.268204 382.84 
z
" clip-path="url(#p9af1296c23)" style="fill: #1f77b4"/>
   </g>
   <g id="patch_237">
    <path d="M 540.178718 382.84 
L 542.089231 382.84 
L 542.089231 382.754283 
L 540.178718 382.754283 
z
" clip-path="url(#p9af1296c23)" style="fill: #1f77b4"/>
   </g>
   <g id="matplotlib.axis_1">
    <g id="xtick_1">
     <g id="line2d_1">
      <defs>
       <path id="m9f204259fb" d="M 0 0 
L 0 3.5 
" style="stroke: #000000; stroke-width: 0.8"/>
      </defs>
      <g>
       <use xlink:href="#m9f204259fb" x="133.934053" y="382.84" style="stroke: #000000; stroke-width: 0.8"/>
      </g>
     </g>
     <g id="text_1">
      <!-- −12 -->
      <g transform="translate(123.381709 397.438438) scale(0.1 -0.1)">
       <defs>
        <path id="DejaVuSans-2212" d="M 678 2272 
L 4684 2272 
L 4684 1741 
L 678 1741 
L 678 2272 
z
" transform="scale(0.015625)"/>
        <path id="DejaVuSans-31" d="M 794 531 
L 1825 531 
L 1825 4091 
L 703 3866 
L 703 4441 
L 1819 4666 
L 2450 4666 
L 2450 531 
L 3481 531 
L 3481 0 
L 794 0 
L 794 531 
z
" transform="scale(0.015625)"/>
        <path id="DejaVuSans-32" d="M 1228 531 
L 3431 531 
L 3431 0 
L 469 0 
L 469 531 
Q 828 903 1448 1529 
Q 2069 2156 2228 2338 
Q 2531 2678 2651 2914 
Q 2772 3150 2772 3378 
Q 2772 3750 2511 3984 
Q 2250 4219 1831 4219 
Q 1534 4219 1204 4116 
Q 875 4013 500 3803 
L 500 4441 
Q 881 4594 1212 4672 
Q 1544 4750 1819 4750 
Q 2544 4750 2975 4387 
Q 3406 4025 3406 3419 
Q 3406 3131 3298 2873 
Q 3191 2616 2906 2266 
Q 2828 2175 2409 1742 
Q 1991 1309 1228 531 
z
" transform="scale(0.015625)"/>
       </defs>
       <use xlink:href="#DejaVuSans-2212"/>
       <use xlink:href="#DejaVuSans-31" x="83.789062"/>
       <use xlink:href="#DejaVuSans-32" x="147.412109"/>
      </g>
     </g>
    </g>
    <g id="xtick_2">
     <g id="line2d_2">
      <g>
       <use xlink:href="#m9f204259fb" x="235.972847" y="382.84" style="stroke: #000000; stroke-width: 0.8"/>
      </g>
     </g>
     <g id="text_2">
      <!-- −10 -->
      <g transform="translate(225.420504 397.438438) scale(0.1 -0.1)">
       <defs>
        <path id="DejaVuSans-30" d="M 2034 4250 
Q 1547 4250 1301 3770 
Q 1056 3291 1056 2328 
Q 1056 1369 1301 889 
Q 1547 409 2034 409 
Q 2525 409 2770 889 
Q 3016 1369 3016 2328 
Q 3016 3291 2770 3770 
Q 2525 4250 2034 4250 
z
M 2034 4750 
Q 2819 4750 3233 4129 
Q 3647 3509 3647 2328 
Q 3647 1150 3233 529 
Q 2819 -91 2034 -91 
Q 1250 -91 836 529 
Q 422 1150 422 2328 
Q 422 3509 836 4129 
Q 1250 4750 2034 4750 
z
" transform="scale(0.015625)"/>
       </defs>
       <use xlink:href="#DejaVuSans-2212"/>
       <use xlink:href="#DejaVuSans-31" x="83.789062"/>
       <use xlink:href="#DejaVuSans-30" x="147.412109"/>
      </g>
     </g>
    </g>
    <g id="xtick_3">
     <g id="line2d_3">
      <g>
       <use xlink:href="#m9f204259fb" x="338.011642" y="382.84" style="stroke: #000000; stroke-width: 0.8"/>
      </g>
     </g>
     <g id="text_3">
      <!-- −8 -->
      <g transform="translate(330.640548 397.438438) scale(0.1 -0.1)">
       <defs>
        <path id="DejaVuSans-38" d="M 2034 2216 
Q 1584 2216 1326 1975 
Q 1069 1734 1069 1313 
Q 1069 891 1326 650 
Q 1584 409 2034 409 
Q 2484 409 2743 651 
Q 3003 894 3003 1313 
Q 3003 1734 2745 1975 
Q 2488 2216 2034 2216 
z
M 1403 2484 
Q 997 2584 770 2862 
Q 544 3141 544 3541 
Q 544 4100 942 4425 
Q 1341 4750 2034 4750 
Q 2731 4750 3128 4425 
Q 3525 4100 3525 3541 
Q 3525 3141 3298 2862 
Q 3072 2584 2669 2484 
Q 3125 2378 3379 2068 
Q 3634 1759 3634 1313 
Q 3634 634 3220 271 
Q 2806 -91 2034 -91 
Q 1263 -91 848 271 
Q 434 634 434 1313 
Q 434 1759 690 2068 
Q 947 2378 1403 2484 
z
M 1172 3481 
Q 1172 3119 1398 2916 
Q 1625 2713 2034 2713 
Q 2441 2713 2670 2916 
Q 2900 3119 2900 3481 
Q 2900 3844 2670 4047 
Q 2441 4250 2034 4250 
Q 1625 4250 1398 4047 
Q 1172 3844 1172 3481 
z
" transform="scale(0.015625)"/>
       </defs>
       <use xlink:href="#DejaVuSans-2212"/>
       <use xlink:href="#DejaVuSans-38" x="83.789062"/>
      </g>
     </g>
    </g>
    <g id="xtick_4">
     <g id="line2d_4">
      <g>
       <use xlink:href="#m9f204259fb" x="440.050437" y="382.84" style="stroke: #000000; stroke-width: 0.8"/>
      </g>
     </g>
     <g id="text_4">
      <!-- −6 -->
      <g transform="translate(432.679343 397.438438) scale(0.1 -0.1)">
       <defs>
        <path id="DejaVuSans-36" d="M 2113 2584 
Q 1688 2584 1439 2293 
Q 1191 2003 1191 1497 
Q 1191 994 1439 701 
Q 1688 409 2113 409 
Q 2538 409 2786 701 
Q 3034 994 3034 1497 
Q 3034 2003 2786 2293 
Q 2538 2584 2113 2584 
z
M 3366 4563 
L 3366 3988 
Q 3128 4100 2886 4159 
Q 2644 4219 2406 4219 
Q 1781 4219 1451 3797 
Q 1122 3375 1075 2522 
Q 1259 2794 1537 2939 
Q 1816 3084 2150 3084 
Q 2853 3084 3261 2657 
Q 3669 2231 3669 1497 
Q 3669 778 3244 343 
Q 2819 -91 2113 -91 
Q 1303 -91 875 529 
Q 447 1150 447 2328 
Q 447 3434 972 4092 
Q 1497 4750 2381 4750 
Q 2619 4750 2861 4703 
Q 3103 4656 3366 4563 
z
" transform="scale(0.015625)"/>
       </defs>
       <use xlink:href="#DejaVuSans-2212"/>
       <use xlink:href="#DejaVuSans-36" x="83.789062"/>
      </g>
     </g>
    </g>
    <g id="xtick_5">
     <g id="line2d_5">
      <g>
       <use xlink:href="#m9f204259fb" x="542.089231" y="382.84" style="stroke: #000000; stroke-width: 0.8"/>
      </g>
     </g>
     <g id="text_5">
      <!-- −4 -->
      <g transform="translate(534.718138 397.438438) scale(0.1 -0.1)">
       <defs>
        <path id="DejaVuSans-34" d="M 2419 4116 
L 825 1625 
L 2419 1625 
L 2419 4116 
z
M 2253 4666 
L 3047 4666 
L 3047 1625 
L 3713 1625 
L 3713 1100 
L 3047 1100 
L 3047 0 
L 2419 0 
L 2419 1100 
L 313 1100 
L 313 1709 
L 2253 4666 
z
" transform="scale(0.015625)"/>
       </defs>
       <use xlink:href="#DejaVuSans-2212"/>
       <use xlink:href="#DejaVuSans-34" x="83.789062"/>
      </g>
     </g>
    </g>
    <g id="text_6">
     <!-- MAPK14 -->
     <g transform="translate(280.900758 417.195312) scale(0.18 -0.18)">
      <defs>
       <path id="DejaVuSans-4d" d="M 628 4666 
L 1569 4666 
L 2759 1491 
L 3956 4666 
L 4897 4666 
L 4897 0 
L 4281 0 
L 4281 4097 
L 3078 897 
L 2444 897 
L 1241 4097 
L 1241 0 
L 628 0 
L 628 4666 
z
" transform="scale(0.015625)"/>
       <path id="DejaVuSans-41" d="M 2188 4044 
L 1331 1722 
L 3047 1722 
L 2188 4044 
z
M 1831 4666 
L 2547 4666 
L 4325 0 
L 3669 0 
L 3244 1197 
L 1141 1197 
L 716 0 
L 50 0 
L 1831 4666 
z
" transform="scale(0.015625)"/>
       <path id="DejaVuSans-50" d="M 1259 4147 
L 1259 2394 
L 2053 2394 
Q 2494 2394 2734 2622 
Q 2975 2850 2975 3272 
Q 2975 3691 2734 3919 
Q 2494 4147 2053 4147 
L 1259 4147 
z
M 628 4666 
L 2053 4666 
Q 2838 4666 3239 4311 
Q 3641 3956 3641 3272 
Q 3641 2581 3239 2228 
Q 2838 1875 2053 1875 
L 1259 1875 
L 1259 0 
L 628 0 
L 628 4666 
z
" transform="scale(0.015625)"/>
       <path id="DejaVuSans-4b" d="M 628 4666 
L 1259 4666 
L 1259 2694 
L 3353 4666 
L 4166 4666 
L 1850 2491 
L 4331 0 
L 3500 0 
L 1259 2247 
L 1259 0 
L 628 0 
L 628 4666 
z
" transform="scale(0.015625)"/>
      </defs>
      <use xlink:href="#DejaVuSans-4d"/>
      <use xlink:href="#DejaVuSans-41" x="86.279297"/>
      <use xlink:href="#DejaVuSans-50" x="154.6875"/>
      <use xlink:href="#DejaVuSans-4b" x="214.990234"/>
      <use xlink:href="#DejaVuSans-31" x="280.566406"/>
      <use xlink:href="#DejaVuSans-34" x="344.189453"/>
     </g>
    </g>
   </g>
   <g id="matplotlib.axis_2">
    <g id="ytick_1">
     <g id="line2d_6">
      <defs>
       <path id="m06072d0cb4" d="M 0 0 
L -3.5 0 
" style="stroke: #000000; stroke-width: 0.8"/>
      </defs>
      <g>
       <use xlink:href="#m06072d0cb4" x="70.67" y="382.84" style="stroke: #000000; stroke-width: 0.8"/>
      </g>
     </g>
     <g id="text_7">
      <!-- 0 -->
      <g transform="translate(57.3075 386.639219) scale(0.1 -0.1)">
       <use xlink:href="#DejaVuSans-30"/>
      </g>
     </g>
    </g>
    <g id="ytick_2">
     <g id="line2d_7">
      <g>
       <use xlink:href="#m06072d0cb4" x="70.67" y="325.695607" style="stroke: #000000; stroke-width: 0.8"/>
      </g>
     </g>
     <g id="text_8">
      <!-- 2000 -->
      <g transform="translate(38.22 329.494826) scale(0.1 -0.1)">
       <use xlink:href="#DejaVuSans-32"/>
       <use xlink:href="#DejaVuSans-30" x="63.623047"/>
       <use xlink:href="#DejaVuSans-30" x="127.246094"/>
       <use xlink:href="#DejaVuSans-30" x="190.869141"/>
      </g>
     </g>
    </g>
    <g id="ytick_3">
     <g id="line2d_8">
      <g>
       <use xlink:href="#m06072d0cb4" x="70.67" y="268.551214" style="stroke: #000000; stroke-width: 0.8"/>
      </g>
     </g>
     <g id="text_9">
      <!-- 4000 -->
      <g transform="translate(38.22 272.350433) scale(0.1 -0.1)">
       <use xlink:href="#DejaVuSans-34"/>
       <use xlink:href="#DejaVuSans-30" x="63.623047"/>
       <use xlink:href="#DejaVuSans-30" x="127.246094"/>
       <use xlink:href="#DejaVuSans-30" x="190.869141"/>
      </g>
     </g>
    </g>
    <g id="ytick_4">
     <g id="line2d_9">
      <g>
       <use xlink:href="#m06072d0cb4" x="70.67" y="211.406821" style="stroke: #000000; stroke-width: 0.8"/>
      </g>
     </g>
     <g id="text_10">
      <!-- 6000 -->
      <g transform="translate(38.22 215.206039) scale(0.1 -0.1)">
       <use xlink:href="#DejaVuSans-36"/>
       <use xlink:href="#DejaVuSans-30" x="63.623047"/>
       <use xlink:href="#DejaVuSans-30" x="127.246094"/>
       <use xlink:href="#DejaVuSans-30" x="190.869141"/>
      </g>
     </g>
    </g>
    <g id="ytick_5">
     <g id="line2d_10">
      <g>
       <use xlink:href="#m06072d0cb4" x="70.67" y="154.262428" style="stroke: #000000; stroke-width: 0.8"/>
      </g>
     </g>
     <g id="text_11">
      <!-- 8000 -->
      <g transform="translate(38.22 158.061646) scale(0.1 -0.1)">
       <use xlink:href="#DejaVuSans-38"/>
       <use xlink:href="#DejaVuSans-30" x="63.623047"/>
       <use xlink:href="#DejaVuSans-30" x="127.246094"/>
       <use xlink:href="#DejaVuSans-30" x="190.869141"/>
      </g>
     </g>
    </g>
    <g id="ytick_6">
     <g id="line2d_11">
      <g>
       <use xlink:href="#m06072d0cb4" x="70.67" y="97.118034" style="stroke: #000000; stroke-width: 0.8"/>
      </g>
     </g>
     <g id="text_12">
      <!-- 10000 -->
      <g transform="translate(31.8575 100.917253) scale(0.1 -0.1)">
       <use xlink:href="#DejaVuSans-31"/>
       <use xlink:href="#DejaVuSans-30" x="63.623047"/>
       <use xlink:href="#DejaVuSans-30" x="127.246094"/>
       <use xlink:href="#DejaVuSans-30" x="190.869141"/>
       <use xlink:href="#DejaVuSans-30" x="254.492188"/>
      </g>
     </g>
    </g>
    <g id="ytick_7">
     <g id="line2d_12">
      <g>
       <use xlink:href="#m06072d0cb4" x="70.67" y="39.973641" style="stroke: #000000; stroke-width: 0.8"/>
      </g>
     </g>
     <g id="text_13">
      <!-- 12000 -->
      <g transform="translate(31.8575 43.77286) scale(0.1 -0.1)">
       <use xlink:href="#DejaVuSans-31"/>
       <use xlink:href="#DejaVuSans-32" x="63.623047"/>
       <use xlink:href="#DejaVuSans-30" x="127.246094"/>
       <use xlink:href="#DejaVuSans-30" x="190.869141"/>
       <use xlink:href="#DejaVuSans-30" x="254.492188"/>
      </g>
     </g>
    </g>
    <g id="text_14">
     <!-- Count -->
     <g transform="translate(24.114063 223.547188) rotate(-90) scale(0.18 -0.18)">
      <defs>
       <path id="DejaVuSans-43" d="M 4122 4306 
L 4122 3641 
Q 3803 3938 3442 4084 
Q 3081 4231 2675 4231 
Q 1875 4231 1450 3742 
Q 1025 3253 1025 2328 
Q 1025 1406 1450 917 
Q 1875 428 2675 428 
Q 3081 428 3442 575 
Q 3803 722 4122 1019 
L 4122 359 
Q 3791 134 3420 21 
Q 3050 -91 2638 -91 
Q 1578 -91 968 557 
Q 359 1206 359 2328 
Q 359 3453 968 4101 
Q 1578 4750 2638 4750 
Q 3056 4750 3426 4639 
Q 3797 4528 4122 4306 
z
" transform="scale(0.015625)"/>
       <path id="DejaVuSans-6f" d="M 1959 3097 
Q 1497 3097 1228 2736 
Q 959 2375 959 1747 
Q 959 1119 1226 758 
Q 1494 397 1959 397 
Q 2419 397 2687 759 
Q 2956 1122 2956 1747 
Q 2956 2369 2687 2733 
Q 2419 3097 1959 3097 
z
M 1959 3584 
Q 2709 3584 3137 3096 
Q 3566 2609 3566 1747 
Q 3566 888 3137 398 
Q 2709 -91 1959 -91 
Q 1206 -91 779 398 
Q 353 888 353 1747 
Q 353 2609 779 3096 
Q 1206 3584 1959 3584 
z
" transform="scale(0.015625)"/>
       <path id="DejaVuSans-75" d="M 544 1381 
L 544 3500 
L 1119 3500 
L 1119 1403 
Q 1119 906 1312 657 
Q 1506 409 1894 409 
Q 2359 409 2629 706 
Q 2900 1003 2900 1516 
L 2900 3500 
L 3475 3500 
L 3475 0 
L 2900 0 
L 2900 538 
Q 2691 219 2414 64 
Q 2138 -91 1772 -91 
Q 1169 -91 856 284 
Q 544 659 544 1381 
z
M 1991 3584 
L 1991 3584 
z
" transform="scale(0.015625)"/>
       <path id="DejaVuSans-6e" d="M 3513 2113 
L 3513 0 
L 2938 0 
L 2938 2094 
Q 2938 2591 2744 2837 
Q 2550 3084 2163 3084 
Q 1697 3084 1428 2787 
Q 1159 2491 1159 1978 
L 1159 0 
L 581 0 
L 581 3500 
L 1159 3500 
L 1159 2956 
Q 1366 3272 1645 3428 
Q 1925 3584 2291 3584 
Q 2894 3584 3203 3211 
Q 3513 2838 3513 2113 
z
" transform="scale(0.015625)"/>
       <path id="DejaVuSans-74" d="M 1172 4494 
L 1172 3500 
L 2356 3500 
L 2356 3053 
L 1172 3053 
L 1172 1153 
Q 1172 725 1289 603 
Q 1406 481 1766 481 
L 2356 481 
L 2356 0 
L 1766 0 
Q 1100 0 847 248 
Q 594 497 594 1153 
L 594 3053 
L 172 3053 
L 172 3500 
L 594 3500 
L 594 4494 
L 1172 4494 
z
" transform="scale(0.015625)"/>
      </defs>
      <use xlink:href="#DejaVuSans-43"/>
      <use xlink:href="#DejaVuSans-6f" x="69.824219"/>
      <use xlink:href="#DejaVuSans-75" x="131.005859"/>
      <use xlink:href="#DejaVuSans-6e" x="194.384766"/>
      <use xlink:href="#DejaVuSans-74" x="257.763672"/>
     </g>
    </g>
   </g>
   <g id="line2d_13">
    <path d="M 297.196124 382.84 
L 297.196124 28.51619 
" clip-path="url(#p9af1296c23)" style="fill: none; stroke: #ff0000; stroke-width: 1.6; stroke-linecap: square"/>
   </g>
   <g id="patch_238">
    <path d="M 70.67 382.84 
L 70.67 10.8 
" style="fill: none; stroke: #000000; stroke-width: 0.8; stroke-linejoin: miter; stroke-linecap: square"/>
   </g>
   <g id="patch_239">
    <path d="M 564.537766 382.84 
L 564.537766 10.8 
" style="fill: none; stroke: #000000; stroke-width: 0.8; stroke-linejoin: miter; stroke-linecap: square"/>
   </g>
   <g id="patch_240">
    <path d="M 70.67 382.84 
L 564.537766 382.84 
" style="fill: none; stroke: #000000; stroke-width: 0.8; stroke-linejoin: miter; stroke-linecap: square"/>
   </g>
   <g id="patch_241">
    <path d="M 70.67 10.8 
L 564.537766 10.8 
" style="fill: none; stroke: #000000; stroke-width: 0.8; stroke-linejoin: miter; stroke-linecap: square"/>
   </g>
   <g id="text_15">
    <!-- $\mu_5 = -7.888$ -->
    <g transform="translate(416.377436 61.649937) scale(0.21 -0.21)">
     <defs>
      <path id="DejaVuSans-Oblique-3bc" d="M -84 -1331 
L 856 3500 
L 1434 3500 
L 1009 1322 
Q 997 1256 987 1175 
Q 978 1094 978 1013 
Q 978 722 1161 565 
Q 1344 409 1684 409 
Q 2147 409 2431 671 
Q 2716 934 2816 1459 
L 3213 3500 
L 3788 3500 
L 3266 809 
Q 3253 750 3248 706 
Q 3244 663 3244 628 
Q 3244 531 3283 486 
Q 3322 441 3406 441 
Q 3438 441 3492 456 
Q 3547 472 3647 513 
L 3559 50 
Q 3422 -19 3297 -55 
Q 3172 -91 3053 -91 
Q 2847 -91 2730 40 
Q 2613 172 2613 403 
Q 2438 153 2195 31 
Q 1953 -91 1625 -91 
Q 1334 -91 1117 43 
Q 900 178 831 397 
L 494 -1331 
L -84 -1331 
z
" transform="scale(0.015625)"/>
      <path id="DejaVuSans-35" d="M 691 4666 
L 3169 4666 
L 3169 4134 
L 1269 4134 
L 1269 2991 
Q 1406 3038 1543 3061 
Q 1681 3084 1819 3084 
Q 2600 3084 3056 2656 
Q 3513 2228 3513 1497 
Q 3513 744 3044 326 
Q 2575 -91 1722 -91 
Q 1428 -91 1123 -41 
Q 819 9 494 109 
L 494 744 
Q 775 591 1075 516 
Q 1375 441 1709 441 
Q 2250 441 2565 725 
Q 2881 1009 2881 1497 
Q 2881 1984 2565 2268 
Q 2250 2553 1709 2553 
Q 1456 2553 1204 2497 
Q 953 2441 691 2322 
L 691 4666 
z
" transform="scale(0.015625)"/>
      <path id="DejaVuSans-3d" d="M 678 2906 
L 4684 2906 
L 4684 2381 
L 678 2381 
L 678 2906 
z
M 678 1631 
L 4684 1631 
L 4684 1100 
L 678 1100 
L 678 1631 
z
" transform="scale(0.015625)"/>
      <path id="DejaVuSans-37" d="M 525 4666 
L 3525 4666 
L 3525 4397 
L 1831 0 
L 1172 0 
L 2766 4134 
L 525 4134 
L 525 4666 
z
" transform="scale(0.015625)"/>
      <path id="DejaVuSans-2e" d="M 684 794 
L 1344 794 
L 1344 0 
L 684 0 
L 684 794 
z
" transform="scale(0.015625)"/>
     </defs>
     <use xlink:href="#DejaVuSans-Oblique-3bc" transform="translate(0 0.78125)"/>
     <use xlink:href="#DejaVuSans-35" transform="translate(63.623047 -15.625) scale(0.7)"/>
     <use xlink:href="#DejaVuSans-3d" transform="translate(130.375977 0.78125)"/>
     <use xlink:href="#DejaVuSans-2212" transform="translate(253.129883 0.78125)"/>
     <use xlink:href="#DejaVuSans-37" transform="translate(356.401367 0.78125)"/>
     <use xlink:href="#DejaVuSans-2e" transform="translate(420.024414 0.78125)"/>
     <use xlink:href="#DejaVuSans-38" transform="translate(449.186523 0.78125)"/>
     <use xlink:href="#DejaVuSans-38" transform="translate(512.80957 0.78125)"/>
     <use xlink:href="#DejaVuSans-38" transform="translate(576.432617 0.78125)"/>
    </g>
    <!-- $\sigma_5 = 0.865$ -->
    <g transform="translate(416.377436 85.208) scale(0.21 -0.21)">
     <defs>
      <path id="DejaVuSans-Oblique-3c3" d="M 2219 3044 
Q 1744 3044 1422 2700 
Q 1081 2341 969 1747 
Q 844 1119 1044 756 
Q 1241 397 1706 397 
Q 2166 397 2503 759 
Q 2844 1122 2966 1747 
Q 3075 2319 2881 2700 
Q 2700 3044 2219 3044 
z
M 2309 3503 
L 4219 3500 
L 4106 2925 
L 3463 2925 
Q 3706 2438 3575 1747 
Q 3406 888 2884 400 
Q 2359 -91 1609 -91 
Q 856 -91 525 400 
Q 194 888 363 1747 
Q 528 2609 1050 3097 
Q 1484 3503 2309 3503 
z
" transform="scale(0.015625)"/>
     </defs>
     <use xlink:href="#DejaVuSans-Oblique-3c3" transform="translate(0 0.78125)"/>
     <use xlink:href="#DejaVuSans-35" transform="translate(63.378906 -15.625) scale(0.7)"/>
     <use xlink:href="#DejaVuSans-3d" transform="translate(130.131836 0.78125)"/>
     <use xlink:href="#DejaVuSans-30" transform="translate(233.40332 0.78125)"/>
     <use xlink:href="#DejaVuSans-2e" transform="translate(297.026367 0.78125)"/>
     <use xlink:href="#DejaVuSans-38" transform="translate(326.188477 0.78125)"/>
     <use xlink:href="#DejaVuSans-36" transform="translate(389.811523 0.78125)"/>
     <use xlink:href="#DejaVuSans-35" transform="translate(453.43457 0.78125)"/>
    </g>
   </g>
  </g>
 </g>
 <defs>
  <clipPath id="p9af1296c23">
   <rect x="70.67" y="10.8" width="493.867766" height="372.04"/>
  </clipPath>
 </defs>
</svg>
