<?xml version="1.0" encoding="utf-8" standalone="no"?>
<!DOCTYPE svg PUBLIC "-//W3C//DTD SVG 1.1//EN"
  "http://www.w3.org/Graphics/SVG/1.1/DTD/svg11.dtd">
<svg xmlns:xlink="http://www.w3.org/1999/xlink" width="576pt" height="432pt" viewBox="0 0 576 432" xmlns="http://www.w3.org/2000/svg" version="1.1">
 <metadata>
  <rdf:RDF xmlns:dc="http://purl.org/dc/elements/1.1/" xmlns:cc="http://creativecommons.org/ns#" xmlns:rdf="http://www.w3.org/1999/02/22-rdf-syntax-ns#">
   <cc:Work>
    <dc:type rdf:resource="http://purl.org/dc/dcmitype/StillImage"/>
    <dc:date>2024-09-05T19:41:16.057981</dc:date>
    <dc:format>image/svg+xml</dc:format>
    <dc:creator>
     <cc:Agent>
      <dc:title>Matplotlib v3.7.2, https://matplotlib.org/</dc:title>
     </cc:Agent>
    </dc:creator>
   </cc:Work>
  </rdf:RDF>
 </metadata>
 <defs>
  <style type="text/css">*{stroke-linejoin: round; stroke-linecap: butt}</style>
 </defs>
 <g id="figure_1">
  <g id="patch_1">
   <path d="M 0 432 
L 576 432 
L 576 0 
L 0 0 
z
" style="fill: #ffffff"/>
  </g>
  <g id="axes_1">
   <g id="patch_2">
    <path d="M 64.37 382.84 
L 564.717766 382.84 
L 564.717766 10.8 
L 64.37 10.8 
z
" style="fill: #ffffff"/>
   </g>
   <g id="patch_3">
    <path d="M 87.11308 382.84 
L 89.433803 382.84 
L 89.433803 382.802414 
L 87.11308 382.802414 
z
" clip-path="url(#p1ada9abe6a)" style="fill: #1f77b4"/>
   </g>
   <g id="patch_4">
    <path d="M 89.433803 382.84 
L 91.754525 382.84 
L 91.754525 382.84 
L 89.433803 382.84 
z
" clip-path="url(#p1ada9abe6a)" style="fill: #1f77b4"/>
   </g>
   <g id="patch_5">
    <path d="M 91.754525 382.84 
L 94.075248 382.84 
L 94.075248 382.727242 
L 91.754525 382.727242 
z
" clip-path="url(#p1ada9abe6a)" style="fill: #1f77b4"/>
   </g>
   <g id="patch_6">
    <path d="M 94.075248 382.84 
L 96.39597 382.84 
L 96.39597 382.84 
L 94.075248 382.84 
z
" clip-path="url(#p1ada9abe6a)" style="fill: #1f77b4"/>
   </g>
   <g id="patch_7">
    <path d="M 96.39597 382.84 
L 98.716693 382.84 
L 98.716693 382.764828 
L 96.39597 382.764828 
z
" clip-path="url(#p1ada9abe6a)" style="fill: #1f77b4"/>
   </g>
   <g id="patch_8">
    <path d="M 98.716693 382.84 
L 101.037415 382.84 
L 101.037415 382.84 
L 98.716693 382.84 
z
" clip-path="url(#p1ada9abe6a)" style="fill: #1f77b4"/>
   </g>
   <g id="patch_9">
    <path d="M 101.037415 382.84 
L 103.358138 382.84 
L 103.358138 382.614484 
L 101.037415 382.614484 
z
" clip-path="url(#p1ada9abe6a)" style="fill: #1f77b4"/>
   </g>
   <g id="patch_10">
    <path d="M 103.358138 382.84 
L 105.67886 382.84 
L 105.67886 382.84 
L 103.358138 382.84 
z
" clip-path="url(#p1ada9abe6a)" style="fill: #1f77b4"/>
   </g>
   <g id="patch_11">
    <path d="M 105.67886 382.84 
L 107.999583 382.84 
L 107.999583 382.727242 
L 105.67886 382.727242 
z
" clip-path="url(#p1ada9abe6a)" style="fill: #1f77b4"/>
   </g>
   <g id="patch_12">
    <path d="M 107.999583 382.84 
L 110.320305 382.84 
L 110.320305 382.84 
L 107.999583 382.84 
z
" clip-path="url(#p1ada9abe6a)" style="fill: #1f77b4"/>
   </g>
   <g id="patch_13">
    <path d="M 110.320305 382.84 
L 112.641028 382.84 
L 112.641028 382.84 
L 110.320305 382.84 
z
" clip-path="url(#p1ada9abe6a)" style="fill: #1f77b4"/>
   </g>
   <g id="patch_14">
    <path d="M 112.641028 382.84 
L 114.96175 382.84 
L 114.96175 382.84 
L 112.641028 382.84 
z
" clip-path="url(#p1ada9abe6a)" style="fill: #1f77b4"/>
   </g>
   <g id="patch_15">
    <path d="M 114.96175 382.84 
L 117.282472 382.84 
L 117.282472 382.689656 
L 114.96175 382.689656 
z
" clip-path="url(#p1ada9abe6a)" style="fill: #1f77b4"/>
   </g>
   <g id="patch_16">
    <path d="M 117.282472 382.84 
L 119.603195 382.84 
L 119.603195 382.84 
L 117.282472 382.84 
z
" clip-path="url(#p1ada9abe6a)" style="fill: #1f77b4"/>
   </g>
   <g id="patch_17">
    <path d="M 119.603195 382.84 
L 121.923917 382.84 
L 121.923917 382.727242 
L 119.603195 382.727242 
z
" clip-path="url(#p1ada9abe6a)" style="fill: #1f77b4"/>
   </g>
   <g id="patch_18">
    <path d="M 121.923917 382.84 
L 124.24464 382.84 
L 124.24464 382.84 
L 121.923917 382.84 
z
" clip-path="url(#p1ada9abe6a)" style="fill: #1f77b4"/>
   </g>
   <g id="patch_19">
    <path d="M 124.24464 382.84 
L 126.565362 382.84 
L 126.565362 382.84 
L 124.24464 382.84 
z
" clip-path="url(#p1ada9abe6a)" style="fill: #1f77b4"/>
   </g>
   <g id="patch_20">
    <path d="M 126.565362 382.84 
L 128.886085 382.84 
L 128.886085 382.351381 
L 126.565362 382.351381 
z
" clip-path="url(#p1ada9abe6a)" style="fill: #1f77b4"/>
   </g>
   <g id="patch_21">
    <path d="M 128.886085 382.84 
L 131.206807 382.84 
L 131.206807 382.84 
L 128.886085 382.84 
z
" clip-path="url(#p1ada9abe6a)" style="fill: #1f77b4"/>
   </g>
   <g id="patch_22">
    <path d="M 131.206807 382.84 
L 133.52753 382.84 
L 133.52753 382.313795 
L 131.206807 382.313795 
z
" clip-path="url(#p1ada9abe6a)" style="fill: #1f77b4"/>
   </g>
   <g id="patch_23">
    <path d="M 133.52753 382.84 
L 135.848252 382.84 
L 135.848252 382.84 
L 133.52753 382.84 
z
" clip-path="url(#p1ada9abe6a)" style="fill: #1f77b4"/>
   </g>
   <g id="patch_24">
    <path d="M 135.848252 382.84 
L 138.168975 382.84 
L 138.168975 382.163451 
L 135.848252 382.163451 
z
" clip-path="url(#p1ada9abe6a)" style="fill: #1f77b4"/>
   </g>
   <g id="patch_25">
    <path d="M 138.168975 382.84 
L 140.489697 382.84 
L 140.489697 382.84 
L 138.168975 382.84 
z
" clip-path="url(#p1ada9abe6a)" style="fill: #1f77b4"/>
   </g>
   <g id="patch_26">
    <path d="M 140.489697 382.84 
L 142.81042 382.84 
L 142.81042 382.050693 
L 140.489697 382.050693 
z
" clip-path="url(#p1ada9abe6a)" style="fill: #1f77b4"/>
   </g>
   <g id="patch_27">
    <path d="M 142.81042 382.84 
L 145.131142 382.84 
L 145.131142 382.84 
L 142.81042 382.84 
z
" clip-path="url(#p1ada9abe6a)" style="fill: #1f77b4"/>
   </g>
   <g id="patch_28">
    <path d="M 145.131142 382.84 
L 147.451865 382.84 
L 147.451865 381.637246 
L 145.131142 381.637246 
z
" clip-path="url(#p1ada9abe6a)" style="fill: #1f77b4"/>
   </g>
   <g id="patch_29">
    <path d="M 147.451865 382.84 
L 149.772587 382.84 
L 149.772587 382.84 
L 147.451865 382.84 
z
" clip-path="url(#p1ada9abe6a)" style="fill: #1f77b4"/>
   </g>
   <g id="patch_30">
    <path d="M 149.772587 382.84 
L 152.09331 382.84 
L 152.09331 381.111041 
L 149.772587 381.111041 
z
" clip-path="url(#p1ada9abe6a)" style="fill: #1f77b4"/>
   </g>
   <g id="patch_31">
    <path d="M 152.09331 382.84 
L 154.414032 382.84 
L 154.414032 382.84 
L 152.09331 382.84 
z
" clip-path="url(#p1ada9abe6a)" style="fill: #1f77b4"/>
   </g>
   <g id="patch_32">
    <path d="M 154.414032 382.84 
L 156.734755 382.84 
L 156.734755 380.960697 
L 154.414032 380.960697 
z
" clip-path="url(#p1ada9abe6a)" style="fill: #1f77b4"/>
   </g>
   <g id="patch_33">
    <path d="M 156.734755 382.84 
L 159.055477 382.84 
L 159.055477 382.84 
L 156.734755 382.84 
z
" clip-path="url(#p1ada9abe6a)" style="fill: #1f77b4"/>
   </g>
   <g id="patch_34">
    <path d="M 159.055477 382.84 
L 161.3762 382.84 
L 161.3762 380.472078 
L 159.055477 380.472078 
z
" clip-path="url(#p1ada9abe6a)" style="fill: #1f77b4"/>
   </g>
   <g id="patch_35">
    <path d="M 161.3762 382.84 
L 163.696922 382.84 
L 163.696922 382.84 
L 161.3762 382.84 
z
" clip-path="url(#p1ada9abe6a)" style="fill: #1f77b4"/>
   </g>
   <g id="patch_36">
    <path d="M 163.696922 382.84 
L 166.017645 382.84 
L 166.017645 382.84 
L 163.696922 382.84 
z
" clip-path="url(#p1ada9abe6a)" style="fill: #1f77b4"/>
   </g>
   <g id="patch_37">
    <path d="M 166.017645 382.84 
L 168.338367 382.84 
L 168.338367 379.194152 
L 166.017645 379.194152 
z
" clip-path="url(#p1ada9abe6a)" style="fill: #1f77b4"/>
   </g>
   <g id="patch_38">
    <path d="M 168.338367 382.84 
L 170.659089 382.84 
L 170.659089 382.84 
L 168.338367 382.84 
z
" clip-path="url(#p1ada9abe6a)" style="fill: #1f77b4"/>
   </g>
   <g id="patch_39">
    <path d="M 170.659089 382.84 
L 172.979812 382.84 
L 172.979812 377.953812 
L 170.659089 377.953812 
z
" clip-path="url(#p1ada9abe6a)" style="fill: #1f77b4"/>
   </g>
   <g id="patch_40">
    <path d="M 172.979812 382.84 
L 175.300534 382.84 
L 175.300534 382.84 
L 172.979812 382.84 
z
" clip-path="url(#p1ada9abe6a)" style="fill: #1f77b4"/>
   </g>
   <g id="patch_41">
    <path d="M 175.300534 382.84 
L 177.621257 382.84 
L 177.621257 378.104156 
L 175.300534 378.104156 
z
" clip-path="url(#p1ada9abe6a)" style="fill: #1f77b4"/>
   </g>
   <g id="patch_42">
    <path d="M 177.621257 382.84 
L 179.941979 382.84 
L 179.941979 382.84 
L 177.621257 382.84 
z
" clip-path="url(#p1ada9abe6a)" style="fill: #1f77b4"/>
   </g>
   <g id="patch_43">
    <path d="M 179.941979 382.84 
L 182.262702 382.84 
L 182.262702 376.112095 
L 179.941979 376.112095 
z
" clip-path="url(#p1ada9abe6a)" style="fill: #1f77b4"/>
   </g>
   <g id="patch_44">
    <path d="M 182.262702 382.84 
L 184.583424 382.84 
L 184.583424 382.84 
L 182.262702 382.84 
z
" clip-path="url(#p1ada9abe6a)" style="fill: #1f77b4"/>
   </g>
   <g id="patch_45">
    <path d="M 184.583424 382.84 
L 186.904147 382.84 
L 186.904147 374.796583 
L 184.583424 374.796583 
z
" clip-path="url(#p1ada9abe6a)" style="fill: #1f77b4"/>
   </g>
   <g id="patch_46">
    <path d="M 186.904147 382.84 
L 189.224869 382.84 
L 189.224869 382.84 
L 186.904147 382.84 
z
" clip-path="url(#p1ada9abe6a)" style="fill: #1f77b4"/>
   </g>
   <g id="patch_47">
    <path d="M 189.224869 382.84 
L 191.545592 382.84 
L 191.545592 372.616591 
L 189.224869 372.616591 
z
" clip-path="url(#p1ada9abe6a)" style="fill: #1f77b4"/>
   </g>
   <g id="patch_48">
    <path d="M 191.545592 382.84 
L 193.866314 382.84 
L 193.866314 382.84 
L 191.545592 382.84 
z
" clip-path="url(#p1ada9abe6a)" style="fill: #1f77b4"/>
   </g>
   <g id="patch_49">
    <path d="M 193.866314 382.84 
L 196.187037 382.84 
L 196.187037 368.670055 
L 193.866314 368.670055 
z
" clip-path="url(#p1ada9abe6a)" style="fill: #1f77b4"/>
   </g>
   <g id="patch_50">
    <path d="M 196.187037 382.84 
L 198.507759 382.84 
L 198.507759 382.84 
L 196.187037 382.84 
z
" clip-path="url(#p1ada9abe6a)" style="fill: #1f77b4"/>
   </g>
   <g id="patch_51">
    <path d="M 198.507759 382.84 
L 200.828482 382.84 
L 200.828482 382.84 
L 198.507759 382.84 
z
" clip-path="url(#p1ada9abe6a)" style="fill: #1f77b4"/>
   </g>
   <g id="patch_52">
    <path d="M 200.828482 382.84 
L 203.149204 382.84 
L 203.149204 365.362481 
L 200.828482 365.362481 
z
" clip-path="url(#p1ada9abe6a)" style="fill: #1f77b4"/>
   </g>
   <g id="patch_53">
    <path d="M 203.149204 382.84 
L 205.469927 382.84 
L 205.469927 382.84 
L 203.149204 382.84 
z
" clip-path="url(#p1ada9abe6a)" style="fill: #1f77b4"/>
   </g>
   <g id="patch_54">
    <path d="M 205.469927 382.84 
L 207.790649 382.84 
L 207.790649 361.491117 
L 205.469927 361.491117 
z
" clip-path="url(#p1ada9abe6a)" style="fill: #1f77b4"/>
   </g>
   <g id="patch_55">
    <path d="M 207.790649 382.84 
L 210.111372 382.84 
L 210.111372 382.84 
L 207.790649 382.84 
z
" clip-path="url(#p1ada9abe6a)" style="fill: #1f77b4"/>
   </g>
   <g id="patch_56">
    <path d="M 210.111372 382.84 
L 212.432094 382.84 
L 212.432094 357.243892 
L 210.111372 357.243892 
z
" clip-path="url(#p1ada9abe6a)" style="fill: #1f77b4"/>
   </g>
   <g id="patch_57">
    <path d="M 212.432094 382.84 
L 214.752817 382.84 
L 214.752817 382.84 
L 212.432094 382.84 
z
" clip-path="url(#p1ada9abe6a)" style="fill: #1f77b4"/>
   </g>
   <g id="patch_58">
    <path d="M 214.752817 382.84 
L 217.073539 382.84 
L 217.073539 350.666331 
L 214.752817 350.666331 
z
" clip-path="url(#p1ada9abe6a)" style="fill: #1f77b4"/>
   </g>
   <g id="patch_59">
    <path d="M 217.073539 382.84 
L 219.394261 382.84 
L 219.394261 382.84 
L 217.073539 382.84 
z
" clip-path="url(#p1ada9abe6a)" style="fill: #1f77b4"/>
   </g>
   <g id="patch_60">
    <path d="M 219.394261 382.84 
L 221.714984 382.84 
L 221.714984 344.502216 
L 219.394261 344.502216 
z
" clip-path="url(#p1ada9abe6a)" style="fill: #1f77b4"/>
   </g>
   <g id="patch_61">
    <path d="M 221.714984 382.84 
L 224.035706 382.84 
L 224.035706 382.84 
L 221.714984 382.84 
z
" clip-path="url(#p1ada9abe6a)" style="fill: #1f77b4"/>
   </g>
   <g id="patch_62">
    <path d="M 224.035706 382.84 
L 226.356429 382.84 
L 226.356429 334.54191 
L 224.035706 334.54191 
z
" clip-path="url(#p1ada9abe6a)" style="fill: #1f77b4"/>
   </g>
   <g id="patch_63">
    <path d="M 226.356429 382.84 
L 228.677151 382.84 
L 228.677151 382.84 
L 226.356429 382.84 
z
" clip-path="url(#p1ada9abe6a)" style="fill: #1f77b4"/>
   </g>
   <g id="patch_64">
    <path d="M 228.677151 382.84 
L 230.997874 382.84 
L 230.997874 327.738833 
L 228.677151 327.738833 
z
" clip-path="url(#p1ada9abe6a)" style="fill: #1f77b4"/>
   </g>
   <g id="patch_65">
    <path d="M 230.997874 382.84 
L 233.318596 382.84 
L 233.318596 382.84 
L 230.997874 382.84 
z
" clip-path="url(#p1ada9abe6a)" style="fill: #1f77b4"/>
   </g>
   <g id="patch_66">
    <path d="M 233.318596 382.84 
L 235.639319 382.84 
L 235.639319 312.629236 
L 233.318596 312.629236 
z
" clip-path="url(#p1ada9abe6a)" style="fill: #1f77b4"/>
   </g>
   <g id="patch_67">
    <path d="M 235.639319 382.84 
L 237.960041 382.84 
L 237.960041 382.84 
L 235.639319 382.84 
z
" clip-path="url(#p1ada9abe6a)" style="fill: #1f77b4"/>
   </g>
   <g id="patch_68">
    <path d="M 237.960041 382.84 
L 240.280764 382.84 
L 240.280764 382.84 
L 237.960041 382.84 
z
" clip-path="url(#p1ada9abe6a)" style="fill: #1f77b4"/>
   </g>
   <g id="patch_69">
    <path d="M 240.280764 382.84 
L 242.601486 382.84 
L 242.601486 301.353417 
L 240.280764 301.353417 
z
" clip-path="url(#p1ada9abe6a)" style="fill: #1f77b4"/>
   </g>
   <g id="patch_70">
    <path d="M 242.601486 382.84 
L 244.922209 382.84 
L 244.922209 382.84 
L 242.601486 382.84 
z
" clip-path="url(#p1ada9abe6a)" style="fill: #1f77b4"/>
   </g>
   <g id="patch_71">
    <path d="M 244.922209 382.84 
L 247.242931 382.84 
L 247.242931 288.611742 
L 244.922209 288.611742 
z
" clip-path="url(#p1ada9abe6a)" style="fill: #1f77b4"/>
   </g>
   <g id="patch_72">
    <path d="M 247.242931 382.84 
L 249.563654 382.84 
L 249.563654 382.84 
L 247.242931 382.84 
z
" clip-path="url(#p1ada9abe6a)" style="fill: #1f77b4"/>
   </g>
   <g id="patch_73">
    <path d="M 249.563654 382.84 
L 251.884376 382.84 
L 251.884376 273.3518 
L 249.563654 273.3518 
z
" clip-path="url(#p1ada9abe6a)" style="fill: #1f77b4"/>
   </g>
   <g id="patch_74">
    <path d="M 251.884376 382.84 
L 254.205099 382.84 
L 254.205099 382.84 
L 251.884376 382.84 
z
" clip-path="url(#p1ada9abe6a)" style="fill: #1f77b4"/>
   </g>
   <g id="patch_75">
    <path d="M 254.205099 382.84 
L 256.525821 382.84 
L 256.525821 255.686351 
L 254.205099 255.686351 
z
" clip-path="url(#p1ada9abe6a)" style="fill: #1f77b4"/>
   </g>
   <g id="patch_76">
    <path d="M 256.525821 382.84 
L 258.846544 382.84 
L 258.846544 382.84 
L 256.525821 382.84 
z
" clip-path="url(#p1ada9abe6a)" style="fill: #1f77b4"/>
   </g>
   <g id="patch_77">
    <path d="M 258.846544 382.84 
L 261.167266 382.84 
L 261.167266 236.442287 
L 258.846544 236.442287 
z
" clip-path="url(#p1ada9abe6a)" style="fill: #1f77b4"/>
   </g>
   <g id="patch_78">
    <path d="M 261.167266 382.84 
L 263.487989 382.84 
L 263.487989 382.84 
L 261.167266 382.84 
z
" clip-path="url(#p1ada9abe6a)" style="fill: #1f77b4"/>
   </g>
   <g id="patch_79">
    <path d="M 263.487989 382.84 
L 265.808711 382.84 
L 265.808711 221.670965 
L 263.487989 221.670965 
z
" clip-path="url(#p1ada9abe6a)" style="fill: #1f77b4"/>
   </g>
   <g id="patch_80">
    <path d="M 265.808711 382.84 
L 268.129434 382.84 
L 268.129434 382.84 
L 265.808711 382.84 
z
" clip-path="url(#p1ada9abe6a)" style="fill: #1f77b4"/>
   </g>
   <g id="patch_81">
    <path d="M 268.129434 382.84 
L 270.450156 382.84 
L 270.450156 200.848286 
L 268.129434 200.848286 
z
" clip-path="url(#p1ada9abe6a)" style="fill: #1f77b4"/>
   </g>
   <g id="patch_82">
    <path d="M 270.450156 382.84 
L 272.770878 382.84 
L 272.770878 382.84 
L 270.450156 382.84 
z
" clip-path="url(#p1ada9abe6a)" style="fill: #1f77b4"/>
   </g>
   <g id="patch_83">
    <path d="M 272.770878 382.84 
L 275.091601 382.84 
L 275.091601 180.777329 
L 272.770878 180.777329 
z
" clip-path="url(#p1ada9abe6a)" style="fill: #1f77b4"/>
   </g>
   <g id="patch_84">
    <path d="M 275.091601 382.84 
L 277.412323 382.84 
L 277.412323 382.84 
L 275.091601 382.84 
z
" clip-path="url(#p1ada9abe6a)" style="fill: #1f77b4"/>
   </g>
   <g id="patch_85">
    <path d="M 277.412323 382.84 
L 279.733046 382.84 
L 279.733046 382.84 
L 277.412323 382.84 
z
" clip-path="url(#p1ada9abe6a)" style="fill: #1f77b4"/>
   </g>
   <g id="patch_86">
    <path d="M 279.733046 382.84 
L 282.053768 382.84 
L 282.053768 160.029823 
L 279.733046 160.029823 
z
" clip-path="url(#p1ada9abe6a)" style="fill: #1f77b4"/>
   </g>
   <g id="patch_87">
    <path d="M 282.053768 382.84 
L 284.374491 382.84 
L 284.374491 382.84 
L 282.053768 382.84 
z
" clip-path="url(#p1ada9abe6a)" style="fill: #1f77b4"/>
   </g>
   <g id="patch_88">
    <path d="M 284.374491 382.84 
L 286.695213 382.84 
L 286.695213 139.395074 
L 284.374491 139.395074 
z
" clip-path="url(#p1ada9abe6a)" style="fill: #1f77b4"/>
   </g>
   <g id="patch_89">
    <path d="M 286.695213 382.84 
L 289.015936 382.84 
L 289.015936 382.84 
L 286.695213 382.84 
z
" clip-path="url(#p1ada9abe6a)" style="fill: #1f77b4"/>
   </g>
   <g id="patch_90">
    <path d="M 289.015936 382.84 
L 291.336658 382.84 
L 291.336658 120.677215 
L 289.015936 120.677215 
z
" clip-path="url(#p1ada9abe6a)" style="fill: #1f77b4"/>
   </g>
   <g id="patch_91">
    <path d="M 291.336658 382.84 
L 293.657381 382.84 
L 293.657381 382.84 
L 291.336658 382.84 
z
" clip-path="url(#p1ada9abe6a)" style="fill: #1f77b4"/>
   </g>
   <g id="patch_92">
    <path d="M 293.657381 382.84 
L 295.978103 382.84 
L 295.978103 98.163164 
L 293.657381 98.163164 
z
" clip-path="url(#p1ada9abe6a)" style="fill: #1f77b4"/>
   </g>
   <g id="patch_93">
    <path d="M 295.978103 382.84 
L 298.298826 382.84 
L 298.298826 382.84 
L 295.978103 382.84 
z
" clip-path="url(#p1ada9abe6a)" style="fill: #1f77b4"/>
   </g>
   <g id="patch_94">
    <path d="M 298.298826 382.84 
L 300.619548 382.84 
L 300.619548 76.212904 
L 298.298826 76.212904 
z
" clip-path="url(#p1ada9abe6a)" style="fill: #1f77b4"/>
   </g>
   <g id="patch_95">
    <path d="M 300.619548 382.84 
L 302.940271 382.84 
L 302.940271 382.84 
L 300.619548 382.84 
z
" clip-path="url(#p1ada9abe6a)" style="fill: #1f77b4"/>
   </g>
   <g id="patch_96">
    <path d="M 302.940271 382.84 
L 305.260993 382.84 
L 305.260993 67.154663 
L 302.940271 67.154663 
z
" clip-path="url(#p1ada9abe6a)" style="fill: #1f77b4"/>
   </g>
   <g id="patch_97">
    <path d="M 305.260993 382.84 
L 307.581716 382.84 
L 307.581716 382.84 
L 305.260993 382.84 
z
" clip-path="url(#p1ada9abe6a)" style="fill: #1f77b4"/>
   </g>
   <g id="patch_98">
    <path d="M 307.581716 382.84 
L 309.902438 382.84 
L 309.902438 59.599864 
L 307.581716 59.599864 
z
" clip-path="url(#p1ada9abe6a)" style="fill: #1f77b4"/>
   </g>
   <g id="patch_99">
    <path d="M 309.902438 382.84 
L 312.223161 382.84 
L 312.223161 382.84 
L 309.902438 382.84 
z
" clip-path="url(#p1ada9abe6a)" style="fill: #1f77b4"/>
   </g>
   <g id="patch_100">
    <path d="M 312.223161 382.84 
L 314.543883 382.84 
L 314.543883 382.84 
L 312.223161 382.84 
z
" clip-path="url(#p1ada9abe6a)" style="fill: #1f77b4"/>
   </g>
   <g id="patch_101">
    <path d="M 314.543883 382.84 
L 316.864606 382.84 
L 316.864606 44.678197 
L 314.543883 44.678197 
z
" clip-path="url(#p1ada9abe6a)" style="fill: #1f77b4"/>
   </g>
   <g id="patch_102">
    <path d="M 316.864606 382.84 
L 319.185328 382.84 
L 319.185328 382.84 
L 316.864606 382.84 
z
" clip-path="url(#p1ada9abe6a)" style="fill: #1f77b4"/>
   </g>
   <g id="patch_103">
    <path d="M 319.185328 382.84 
L 321.50605 382.84 
L 321.50605 36.709952 
L 319.185328 36.709952 
z
" clip-path="url(#p1ada9abe6a)" style="fill: #1f77b4"/>
   </g>
   <g id="patch_104">
    <path d="M 321.50605 382.84 
L 323.826773 382.84 
L 323.826773 382.84 
L 321.50605 382.84 
z
" clip-path="url(#p1ada9abe6a)" style="fill: #1f77b4"/>
   </g>
   <g id="patch_105">
    <path d="M 323.826773 382.84 
L 326.147495 382.84 
L 326.147495 37.950292 
L 323.826773 37.950292 
z
" clip-path="url(#p1ada9abe6a)" style="fill: #1f77b4"/>
   </g>
   <g id="patch_106">
    <path d="M 326.147495 382.84 
L 328.468218 382.84 
L 328.468218 382.84 
L 326.147495 382.84 
z
" clip-path="url(#p1ada9abe6a)" style="fill: #1f77b4"/>
   </g>
   <g id="patch_107">
    <path d="M 328.468218 382.84 
L 330.78894 382.84 
L 330.78894 32.237211 
L 328.468218 32.237211 
z
" clip-path="url(#p1ada9abe6a)" style="fill: #1f77b4"/>
   </g>
   <g id="patch_108">
    <path d="M 330.78894 382.84 
L 333.109663 382.84 
L 333.109663 382.84 
L 330.78894 382.84 
z
" clip-path="url(#p1ada9abe6a)" style="fill: #1f77b4"/>
   </g>
   <g id="patch_109">
    <path d="M 333.109663 382.84 
L 335.430385 382.84 
L 335.430385 28.51619 
L 333.109663 28.51619 
z
" clip-path="url(#p1ada9abe6a)" style="fill: #1f77b4"/>
   </g>
   <g id="patch_110">
    <path d="M 335.430385 382.84 
L 337.751108 382.84 
L 337.751108 382.84 
L 335.430385 382.84 
z
" clip-path="url(#p1ada9abe6a)" style="fill: #1f77b4"/>
   </g>
   <g id="patch_111">
    <path d="M 337.751108 382.84 
L 340.07183 382.84 
L 340.07183 36.033403 
L 337.751108 36.033403 
z
" clip-path="url(#p1ada9abe6a)" style="fill: #1f77b4"/>
   </g>
   <g id="patch_112">
    <path d="M 340.07183 382.84 
L 342.392553 382.84 
L 342.392553 382.84 
L 340.07183 382.84 
z
" clip-path="url(#p1ada9abe6a)" style="fill: #1f77b4"/>
   </g>
   <g id="patch_113">
    <path d="M 342.392553 382.84 
L 344.713275 382.84 
L 344.713275 37.68719 
L 342.392553 37.68719 
z
" clip-path="url(#p1ada9abe6a)" style="fill: #1f77b4"/>
   </g>
   <g id="patch_114">
    <path d="M 344.713275 382.84 
L 347.033998 382.84 
L 347.033998 382.84 
L 344.713275 382.84 
z
" clip-path="url(#p1ada9abe6a)" style="fill: #1f77b4"/>
   </g>
   <g id="patch_115">
    <path d="M 347.033998 382.84 
L 349.35472 382.84 
L 349.35472 47.910599 
L 347.033998 47.910599 
z
" clip-path="url(#p1ada9abe6a)" style="fill: #1f77b4"/>
   </g>
   <g id="patch_116">
    <path d="M 349.35472 382.84 
L 351.675443 382.84 
L 351.675443 382.84 
L 349.35472 382.84 
z
" clip-path="url(#p1ada9abe6a)" style="fill: #1f77b4"/>
   </g>
   <g id="patch_117">
    <path d="M 351.675443 382.84 
L 353.996165 382.84 
L 353.996165 382.84 
L 351.675443 382.84 
z
" clip-path="url(#p1ada9abe6a)" style="fill: #1f77b4"/>
   </g>
   <g id="patch_118">
    <path d="M 353.996165 382.84 
L 356.316888 382.84 
L 356.316888 52.232996 
L 353.996165 52.232996 
z
" clip-path="url(#p1ada9abe6a)" style="fill: #1f77b4"/>
   </g>
   <g id="patch_119">
    <path d="M 356.316888 382.84 
L 358.63761 382.84 
L 358.63761 382.84 
L 356.316888 382.84 
z
" clip-path="url(#p1ada9abe6a)" style="fill: #1f77b4"/>
   </g>
   <g id="patch_120">
    <path d="M 358.63761 382.84 
L 360.958333 382.84 
L 360.958333 67.831212 
L 358.63761 67.831212 
z
" clip-path="url(#p1ada9abe6a)" style="fill: #1f77b4"/>
   </g>
   <g id="patch_121">
    <path d="M 360.958333 382.84 
L 363.279055 382.84 
L 363.279055 382.84 
L 360.958333 382.84 
z
" clip-path="url(#p1ada9abe6a)" style="fill: #1f77b4"/>
   </g>
   <g id="patch_122">
    <path d="M 363.279055 382.84 
L 365.599778 382.84 
L 365.599778 82.414604 
L 363.279055 82.414604 
z
" clip-path="url(#p1ada9abe6a)" style="fill: #1f77b4"/>
   </g>
   <g id="patch_123">
    <path d="M 365.599778 382.84 
L 367.9205 382.84 
L 367.9205 382.84 
L 365.599778 382.84 
z
" clip-path="url(#p1ada9abe6a)" style="fill: #1f77b4"/>
   </g>
   <g id="patch_124">
    <path d="M 367.9205 382.84 
L 370.241223 382.84 
L 370.241223 93.61525 
L 367.9205 93.61525 
z
" clip-path="url(#p1ada9abe6a)" style="fill: #1f77b4"/>
   </g>
   <g id="patch_125">
    <path d="M 370.241223 382.84 
L 372.561945 382.84 
L 372.561945 382.84 
L 370.241223 382.84 
z
" clip-path="url(#p1ada9abe6a)" style="fill: #1f77b4"/>
   </g>
   <g id="patch_126">
    <path d="M 372.561945 382.84 
L 374.882667 382.84 
L 374.882667 108.048298 
L 372.561945 108.048298 
z
" clip-path="url(#p1ada9abe6a)" style="fill: #1f77b4"/>
   </g>
   <g id="patch_127">
    <path d="M 374.882667 382.84 
L 377.20339 382.84 
L 377.20339 382.84 
L 374.882667 382.84 
z
" clip-path="url(#p1ada9abe6a)" style="fill: #1f77b4"/>
   </g>
   <g id="patch_128">
    <path d="M 377.20339 382.84 
L 379.524112 382.84 
L 379.524112 121.165834 
L 377.20339 121.165834 
z
" clip-path="url(#p1ada9abe6a)" style="fill: #1f77b4"/>
   </g>
   <g id="patch_129">
    <path d="M 379.524112 382.84 
L 381.844835 382.84 
L 381.844835 382.84 
L 379.524112 382.84 
z
" clip-path="url(#p1ada9abe6a)" style="fill: #1f77b4"/>
   </g>
   <g id="patch_130">
    <path d="M 381.844835 382.84 
L 384.165557 382.84 
L 384.165557 145.859877 
L 381.844835 145.859877 
z
" clip-path="url(#p1ada9abe6a)" style="fill: #1f77b4"/>
   </g>
   <g id="patch_131">
    <path d="M 384.165557 382.84 
L 386.48628 382.84 
L 386.48628 382.84 
L 384.165557 382.84 
z
" clip-path="url(#p1ada9abe6a)" style="fill: #1f77b4"/>
   </g>
   <g id="patch_132">
    <path d="M 386.48628 382.84 
L 388.807002 382.84 
L 388.807002 167.096002 
L 386.48628 167.096002 
z
" clip-path="url(#p1ada9abe6a)" style="fill: #1f77b4"/>
   </g>
   <g id="patch_133">
    <path d="M 388.807002 382.84 
L 391.127725 382.84 
L 391.127725 382.84 
L 388.807002 382.84 
z
" clip-path="url(#p1ada9abe6a)" style="fill: #1f77b4"/>
   </g>
   <g id="patch_134">
    <path d="M 391.127725 382.84 
L 393.448447 382.84 
L 393.448447 382.84 
L 391.127725 382.84 
z
" clip-path="url(#p1ada9abe6a)" style="fill: #1f77b4"/>
   </g>
   <g id="patch_135">
    <path d="M 393.448447 382.84 
L 395.76917 382.84 
L 395.76917 186.415238 
L 393.448447 186.415238 
z
" clip-path="url(#p1ada9abe6a)" style="fill: #1f77b4"/>
   </g>
   <g id="patch_136">
    <path d="M 395.76917 382.84 
L 398.089892 382.84 
L 398.089892 382.84 
L 395.76917 382.84 
z
" clip-path="url(#p1ada9abe6a)" style="fill: #1f77b4"/>
   </g>
   <g id="patch_137">
    <path d="M 398.089892 382.84 
L 400.410615 382.84 
L 400.410615 206.373437 
L 398.089892 206.373437 
z
" clip-path="url(#p1ada9abe6a)" style="fill: #1f77b4"/>
   </g>
   <g id="patch_138">
    <path d="M 400.410615 382.84 
L 402.731337 382.84 
L 402.731337 382.84 
L 400.410615 382.84 
z
" clip-path="url(#p1ada9abe6a)" style="fill: #1f77b4"/>
   </g>
   <g id="patch_139">
    <path d="M 402.731337 382.84 
L 405.05206 382.84 
L 405.05206 224.527505 
L 402.731337 224.527505 
z
" clip-path="url(#p1ada9abe6a)" style="fill: #1f77b4"/>
   </g>
   <g id="patch_140">
    <path d="M 405.05206 382.84 
L 407.372782 382.84 
L 407.372782 382.84 
L 405.05206 382.84 
z
" clip-path="url(#p1ada9abe6a)" style="fill: #1f77b4"/>
   </g>
   <g id="patch_141">
    <path d="M 407.372782 382.84 
L 409.693505 382.84 
L 409.693505 242.944676 
L 407.372782 242.944676 
z
" clip-path="url(#p1ada9abe6a)" style="fill: #1f77b4"/>
   </g>
   <g id="patch_142">
    <path d="M 409.693505 382.84 
L 412.014227 382.84 
L 412.014227 382.84 
L 409.693505 382.84 
z
" clip-path="url(#p1ada9abe6a)" style="fill: #1f77b4"/>
   </g>
   <g id="patch_143">
    <path d="M 412.014227 382.84 
L 414.33495 382.84 
L 414.33495 265.345969 
L 412.014227 265.345969 
z
" clip-path="url(#p1ada9abe6a)" style="fill: #1f77b4"/>
   </g>
   <g id="patch_144">
    <path d="M 414.33495 382.84 
L 416.655672 382.84 
L 416.655672 382.84 
L 414.33495 382.84 
z
" clip-path="url(#p1ada9abe6a)" style="fill: #1f77b4"/>
   </g>
   <g id="patch_145">
    <path d="M 416.655672 382.84 
L 418.976395 382.84 
L 418.976395 278.087644 
L 416.655672 278.087644 
z
" clip-path="url(#p1ada9abe6a)" style="fill: #1f77b4"/>
   </g>
   <g id="patch_146">
    <path d="M 418.976395 382.84 
L 421.297117 382.84 
L 421.297117 382.84 
L 418.976395 382.84 
z
" clip-path="url(#p1ada9abe6a)" style="fill: #1f77b4"/>
   </g>
   <g id="patch_147">
    <path d="M 421.297117 382.84 
L 423.617839 382.84 
L 423.617839 294.700684 
L 421.297117 294.700684 
z
" clip-path="url(#p1ada9abe6a)" style="fill: #1f77b4"/>
   </g>
   <g id="patch_148">
    <path d="M 423.617839 382.84 
L 425.938562 382.84 
L 425.938562 382.84 
L 423.617839 382.84 
z
" clip-path="url(#p1ada9abe6a)" style="fill: #1f77b4"/>
   </g>
   <g id="patch_149">
    <path d="M 425.938562 382.84 
L 428.259284 382.84 
L 428.259284 382.84 
L 425.938562 382.84 
z
" clip-path="url(#p1ada9abe6a)" style="fill: #1f77b4"/>
   </g>
   <g id="patch_150">
    <path d="M 428.259284 382.84 
L 430.580007 382.84 
L 430.580007 306.653052 
L 428.259284 306.653052 
z
" clip-path="url(#p1ada9abe6a)" style="fill: #1f77b4"/>
   </g>
   <g id="patch_151">
    <path d="M 430.580007 382.84 
L 432.900729 382.84 
L 432.900729 382.84 
L 430.580007 382.84 
z
" clip-path="url(#p1ada9abe6a)" style="fill: #1f77b4"/>
   </g>
   <g id="patch_152">
    <path d="M 432.900729 382.84 
L 435.221452 382.84 
L 435.221452 321.386788 
L 432.900729 321.386788 
z
" clip-path="url(#p1ada9abe6a)" style="fill: #1f77b4"/>
   </g>
   <g id="patch_153">
    <path d="M 435.221452 382.84 
L 437.542174 382.84 
L 437.542174 382.84 
L 435.221452 382.84 
z
" clip-path="url(#p1ada9abe6a)" style="fill: #1f77b4"/>
   </g>
   <g id="patch_154">
    <path d="M 437.542174 382.84 
L 439.862897 382.84 
L 439.862897 333.11364 
L 437.542174 333.11364 
z
" clip-path="url(#p1ada9abe6a)" style="fill: #1f77b4"/>
   </g>
   <g id="patch_155">
    <path d="M 439.862897 382.84 
L 442.183619 382.84 
L 442.183619 382.84 
L 439.862897 382.84 
z
" clip-path="url(#p1ada9abe6a)" style="fill: #1f77b4"/>
   </g>
   <g id="patch_156">
    <path d="M 442.183619 382.84 
L 444.504342 382.84 
L 444.504342 338.826721 
L 442.183619 338.826721 
z
" clip-path="url(#p1ada9abe6a)" style="fill: #1f77b4"/>
   </g>
   <g id="patch_157">
    <path d="M 444.504342 382.84 
L 446.825064 382.84 
L 446.825064 382.84 
L 444.504342 382.84 
z
" clip-path="url(#p1ada9abe6a)" style="fill: #1f77b4"/>
   </g>
   <g id="patch_158">
    <path d="M 446.825064 382.84 
L 449.145787 382.84 
L 449.145787 348.899786 
L 446.825064 348.899786 
z
" clip-path="url(#p1ada9abe6a)" style="fill: #1f77b4"/>
   </g>
   <g id="patch_159">
    <path d="M 449.145787 382.84 
L 451.466509 382.84 
L 451.466509 382.84 
L 449.145787 382.84 
z
" clip-path="url(#p1ada9abe6a)" style="fill: #1f77b4"/>
   </g>
   <g id="patch_160">
    <path d="M 451.466509 382.84 
L 453.787232 382.84 
L 453.787232 356.49217 
L 451.466509 356.49217 
z
" clip-path="url(#p1ada9abe6a)" style="fill: #1f77b4"/>
   </g>
   <g id="patch_161">
    <path d="M 453.787232 382.84 
L 456.107954 382.84 
L 456.107954 382.84 
L 453.787232 382.84 
z
" clip-path="url(#p1ada9abe6a)" style="fill: #1f77b4"/>
   </g>
   <g id="patch_162">
    <path d="M 456.107954 382.84 
L 458.428677 382.84 
L 458.428677 361.829391 
L 456.107954 361.829391 
z
" clip-path="url(#p1ada9abe6a)" style="fill: #1f77b4"/>
   </g>
   <g id="patch_163">
    <path d="M 458.428677 382.84 
L 460.749399 382.84 
L 460.749399 382.84 
L 458.428677 382.84 
z
" clip-path="url(#p1ada9abe6a)" style="fill: #1f77b4"/>
   </g>
   <g id="patch_164">
    <path d="M 460.749399 382.84 
L 463.070122 382.84 
L 463.070122 366.640407 
L 460.749399 366.640407 
z
" clip-path="url(#p1ada9abe6a)" style="fill: #1f77b4"/>
   </g>
   <g id="patch_165">
    <path d="M 463.070122 382.84 
L 465.390844 382.84 
L 465.390844 382.84 
L 463.070122 382.84 
z
" clip-path="url(#p1ada9abe6a)" style="fill: #1f77b4"/>
   </g>
   <g id="patch_166">
    <path d="M 465.390844 382.84 
L 467.711567 382.84 
L 467.711567 382.84 
L 465.390844 382.84 
z
" clip-path="url(#p1ada9abe6a)" style="fill: #1f77b4"/>
   </g>
   <g id="patch_167">
    <path d="M 467.711567 382.84 
L 470.032289 382.84 
L 470.032289 369.309018 
L 467.711567 369.309018 
z
" clip-path="url(#p1ada9abe6a)" style="fill: #1f77b4"/>
   </g>
   <g id="patch_168">
    <path d="M 470.032289 382.84 
L 472.353012 382.84 
L 472.353012 382.84 
L 470.032289 382.84 
z
" clip-path="url(#p1ada9abe6a)" style="fill: #1f77b4"/>
   </g>
   <g id="patch_169">
    <path d="M 472.353012 382.84 
L 474.673734 382.84 
L 474.673734 373.48107 
L 472.353012 373.48107 
z
" clip-path="url(#p1ada9abe6a)" style="fill: #1f77b4"/>
   </g>
   <g id="patch_170">
    <path d="M 474.673734 382.84 
L 476.994456 382.84 
L 476.994456 382.84 
L 474.673734 382.84 
z
" clip-path="url(#p1ada9abe6a)" style="fill: #1f77b4"/>
   </g>
   <g id="patch_171">
    <path d="M 476.994456 382.84 
L 479.315179 382.84 
L 479.315179 375.623476 
L 476.994456 375.623476 
z
" clip-path="url(#p1ada9abe6a)" style="fill: #1f77b4"/>
   </g>
   <g id="patch_172">
    <path d="M 479.315179 382.84 
L 481.635901 382.84 
L 481.635901 382.84 
L 479.315179 382.84 
z
" clip-path="url(#p1ada9abe6a)" style="fill: #1f77b4"/>
   </g>
   <g id="patch_173">
    <path d="M 481.635901 382.84 
L 483.956624 382.84 
L 483.956624 377.314849 
L 481.635901 377.314849 
z
" clip-path="url(#p1ada9abe6a)" style="fill: #1f77b4"/>
   </g>
   <g id="patch_174">
    <path d="M 483.956624 382.84 
L 486.277346 382.84 
L 486.277346 382.84 
L 483.956624 382.84 
z
" clip-path="url(#p1ada9abe6a)" style="fill: #1f77b4"/>
   </g>
   <g id="patch_175">
    <path d="M 486.277346 382.84 
L 488.598069 382.84 
L 488.598069 379.231738 
L 486.277346 379.231738 
z
" clip-path="url(#p1ada9abe6a)" style="fill: #1f77b4"/>
   </g>
   <g id="patch_176">
    <path d="M 488.598069 382.84 
L 490.918791 382.84 
L 490.918791 382.84 
L 488.598069 382.84 
z
" clip-path="url(#p1ada9abe6a)" style="fill: #1f77b4"/>
   </g>
   <g id="patch_177">
    <path d="M 490.918791 382.84 
L 493.239514 382.84 
L 493.239514 379.908287 
L 490.918791 379.908287 
z
" clip-path="url(#p1ada9abe6a)" style="fill: #1f77b4"/>
   </g>
   <g id="patch_178">
    <path d="M 493.239514 382.84 
L 495.560236 382.84 
L 495.560236 382.84 
L 493.239514 382.84 
z
" clip-path="url(#p1ada9abe6a)" style="fill: #1f77b4"/>
   </g>
   <g id="patch_179">
    <path d="M 495.560236 382.84 
L 497.880959 382.84 
L 497.880959 381.261385 
L 495.560236 381.261385 
z
" clip-path="url(#p1ada9abe6a)" style="fill: #1f77b4"/>
   </g>
   <g id="patch_180">
    <path d="M 497.880959 382.84 
L 500.201681 382.84 
L 500.201681 382.84 
L 497.880959 382.84 
z
" clip-path="url(#p1ada9abe6a)" style="fill: #1f77b4"/>
   </g>
   <g id="patch_181">
    <path d="M 500.201681 382.84 
L 502.522404 382.84 
L 502.522404 381.374144 
L 500.201681 381.374144 
z
" clip-path="url(#p1ada9abe6a)" style="fill: #1f77b4"/>
   </g>
   <g id="patch_182">
    <path d="M 502.522404 382.84 
L 504.843126 382.84 
L 504.843126 382.84 
L 502.522404 382.84 
z
" clip-path="url(#p1ada9abe6a)" style="fill: #1f77b4"/>
   </g>
   <g id="patch_183">
    <path d="M 504.843126 382.84 
L 507.163849 382.84 
L 507.163849 382.84 
L 504.843126 382.84 
z
" clip-path="url(#p1ada9abe6a)" style="fill: #1f77b4"/>
   </g>
   <g id="patch_184">
    <path d="M 507.163849 382.84 
L 509.484571 382.84 
L 509.484571 381.825176 
L 507.163849 381.825176 
z
" clip-path="url(#p1ada9abe6a)" style="fill: #1f77b4"/>
   </g>
   <g id="patch_185">
    <path d="M 509.484571 382.84 
L 511.805294 382.84 
L 511.805294 382.84 
L 509.484571 382.84 
z
" clip-path="url(#p1ada9abe6a)" style="fill: #1f77b4"/>
   </g>
   <g id="patch_186">
    <path d="M 511.805294 382.84 
L 514.126016 382.84 
L 514.126016 382.426553 
L 511.805294 382.426553 
z
" clip-path="url(#p1ada9abe6a)" style="fill: #1f77b4"/>
   </g>
   <g id="patch_187">
    <path d="M 514.126016 382.84 
L 516.446739 382.84 
L 516.446739 382.84 
L 514.126016 382.84 
z
" clip-path="url(#p1ada9abe6a)" style="fill: #1f77b4"/>
   </g>
   <g id="patch_188">
    <path d="M 516.446739 382.84 
L 518.767461 382.84 
L 518.767461 382.313795 
L 516.446739 382.313795 
z
" clip-path="url(#p1ada9abe6a)" style="fill: #1f77b4"/>
   </g>
   <g id="patch_189">
    <path d="M 518.767461 382.84 
L 521.088184 382.84 
L 521.088184 382.84 
L 518.767461 382.84 
z
" clip-path="url(#p1ada9abe6a)" style="fill: #1f77b4"/>
   </g>
   <g id="patch_190">
    <path d="M 521.088184 382.84 
L 523.408906 382.84 
L 523.408906 382.464139 
L 521.088184 382.464139 
z
" clip-path="url(#p1ada9abe6a)" style="fill: #1f77b4"/>
   </g>
   <g id="patch_191">
    <path d="M 523.408906 382.84 
L 525.729628 382.84 
L 525.729628 382.84 
L 523.408906 382.84 
z
" clip-path="url(#p1ada9abe6a)" style="fill: #1f77b4"/>
   </g>
   <g id="patch_192">
    <path d="M 525.729628 382.84 
L 528.050351 382.84 
L 528.050351 382.539312 
L 525.729628 382.539312 
z
" clip-path="url(#p1ada9abe6a)" style="fill: #1f77b4"/>
   </g>
   <g id="patch_193">
    <path d="M 528.050351 382.84 
L 530.371073 382.84 
L 530.371073 382.84 
L 528.050351 382.84 
z
" clip-path="url(#p1ada9abe6a)" style="fill: #1f77b4"/>
   </g>
   <g id="patch_194">
    <path d="M 530.371073 382.84 
L 532.691796 382.84 
L 532.691796 382.614484 
L 530.371073 382.614484 
z
" clip-path="url(#p1ada9abe6a)" style="fill: #1f77b4"/>
   </g>
   <g id="patch_195">
    <path d="M 532.691796 382.84 
L 535.012518 382.84 
L 535.012518 382.84 
L 532.691796 382.84 
z
" clip-path="url(#p1ada9abe6a)" style="fill: #1f77b4"/>
   </g>
   <g id="patch_196">
    <path d="M 535.012518 382.84 
L 537.333241 382.84 
L 537.333241 382.764828 
L 535.012518 382.764828 
z
" clip-path="url(#p1ada9abe6a)" style="fill: #1f77b4"/>
   </g>
   <g id="patch_197">
    <path d="M 537.333241 382.84 
L 539.653963 382.84 
L 539.653963 382.84 
L 537.333241 382.84 
z
" clip-path="url(#p1ada9abe6a)" style="fill: #1f77b4"/>
   </g>
   <g id="patch_198">
    <path d="M 539.653963 382.84 
L 541.974686 382.84 
L 541.974686 382.802414 
L 539.653963 382.802414 
z
" clip-path="url(#p1ada9abe6a)" style="fill: #1f77b4"/>
   </g>
   <g id="matplotlib.axis_1">
    <g id="xtick_1">
     <g id="line2d_1">
      <defs>
       <path id="m4e084fcd0f" d="M 0 0 
L 0 3.5 
" style="stroke: #000000; stroke-width: 0.8"/>
      </defs>
      <g>
       <use xlink:href="#m4e084fcd0f" x="156.331151" y="382.84" style="stroke: #000000; stroke-width: 0.8"/>
      </g>
     </g>
     <g id="text_1">
      <!-- −12 -->
      <g transform="translate(145.778807 397.438438) scale(0.1 -0.1)">
       <defs>
        <path id="DejaVuSans-2212" d="M 678 2272 
L 4684 2272 
L 4684 1741 
L 678 1741 
L 678 2272 
z
" transform="scale(0.015625)"/>
        <path id="DejaVuSans-31" d="M 794 531 
L 1825 531 
L 1825 4091 
L 703 3866 
L 703 4441 
L 1819 4666 
L 2450 4666 
L 2450 531 
L 3481 531 
L 3481 0 
L 794 0 
L 794 531 
z
" transform="scale(0.015625)"/>
        <path id="DejaVuSans-32" d="M 1228 531 
L 3431 531 
L 3431 0 
L 469 0 
L 469 531 
Q 828 903 1448 1529 
Q 2069 2156 2228 2338 
Q 2531 2678 2651 2914 
Q 2772 3150 2772 3378 
Q 2772 3750 2511 3984 
Q 2250 4219 1831 4219 
Q 1534 4219 1204 4116 
Q 875 4013 500 3803 
L 500 4441 
Q 881 4594 1212 4672 
Q 1544 4750 1819 4750 
Q 2544 4750 2975 4387 
Q 3406 4025 3406 3419 
Q 3406 3131 3298 2873 
Q 3191 2616 2906 2266 
Q 2828 2175 2409 1742 
Q 1991 1309 1228 531 
z
" transform="scale(0.015625)"/>
       </defs>
       <use xlink:href="#DejaVuSans-2212"/>
       <use xlink:href="#DejaVuSans-31" x="83.789062"/>
       <use xlink:href="#DejaVuSans-32" x="147.412109"/>
      </g>
     </g>
    </g>
    <g id="xtick_2">
     <g id="line2d_2">
      <g>
       <use xlink:href="#m4e084fcd0f" x="255.214108" y="382.84" style="stroke: #000000; stroke-width: 0.8"/>
      </g>
     </g>
     <g id="text_2">
      <!-- −10 -->
      <g transform="translate(244.661765 397.438438) scale(0.1 -0.1)">
       <defs>
        <path id="DejaVuSans-30" d="M 2034 4250 
Q 1547 4250 1301 3770 
Q 1056 3291 1056 2328 
Q 1056 1369 1301 889 
Q 1547 409 2034 409 
Q 2525 409 2770 889 
Q 3016 1369 3016 2328 
Q 3016 3291 2770 3770 
Q 2525 4250 2034 4250 
z
M 2034 4750 
Q 2819 4750 3233 4129 
Q 3647 3509 3647 2328 
Q 3647 1150 3233 529 
Q 2819 -91 2034 -91 
Q 1250 -91 836 529 
Q 422 1150 422 2328 
Q 422 3509 836 4129 
Q 1250 4750 2034 4750 
z
" transform="scale(0.015625)"/>
       </defs>
       <use xlink:href="#DejaVuSans-2212"/>
       <use xlink:href="#DejaVuSans-31" x="83.789062"/>
       <use xlink:href="#DejaVuSans-30" x="147.412109"/>
      </g>
     </g>
    </g>
    <g id="xtick_3">
     <g id="line2d_3">
      <g>
       <use xlink:href="#m4e084fcd0f" x="354.097066" y="382.84" style="stroke: #000000; stroke-width: 0.8"/>
      </g>
     </g>
     <g id="text_3">
      <!-- −8 -->
      <g transform="translate(346.725972 397.438438) scale(0.1 -0.1)">
       <defs>
        <path id="DejaVuSans-38" d="M 2034 2216 
Q 1584 2216 1326 1975 
Q 1069 1734 1069 1313 
Q 1069 891 1326 650 
Q 1584 409 2034 409 
Q 2484 409 2743 651 
Q 3003 894 3003 1313 
Q 3003 1734 2745 1975 
Q 2488 2216 2034 2216 
z
M 1403 2484 
Q 997 2584 770 2862 
Q 544 3141 544 3541 
Q 544 4100 942 4425 
Q 1341 4750 2034 4750 
Q 2731 4750 3128 4425 
Q 3525 4100 3525 3541 
Q 3525 3141 3298 2862 
Q 3072 2584 2669 2484 
Q 3125 2378 3379 2068 
Q 3634 1759 3634 1313 
Q 3634 634 3220 271 
Q 2806 -91 2034 -91 
Q 1263 -91 848 271 
Q 434 634 434 1313 
Q 434 1759 690 2068 
Q 947 2378 1403 2484 
z
M 1172 3481 
Q 1172 3119 1398 2916 
Q 1625 2713 2034 2713 
Q 2441 2713 2670 2916 
Q 2900 3119 2900 3481 
Q 2900 3844 2670 4047 
Q 2441 4250 2034 4250 
Q 1625 4250 1398 4047 
Q 1172 3844 1172 3481 
z
" transform="scale(0.015625)"/>
       </defs>
       <use xlink:href="#DejaVuSans-2212"/>
       <use xlink:href="#DejaVuSans-38" x="83.789062"/>
      </g>
     </g>
    </g>
    <g id="xtick_4">
     <g id="line2d_4">
      <g>
       <use xlink:href="#m4e084fcd0f" x="452.980024" y="382.84" style="stroke: #000000; stroke-width: 0.8"/>
      </g>
     </g>
     <g id="text_4">
      <!-- −6 -->
      <g transform="translate(445.60893 397.438438) scale(0.1 -0.1)">
       <defs>
        <path id="DejaVuSans-36" d="M 2113 2584 
Q 1688 2584 1439 2293 
Q 1191 2003 1191 1497 
Q 1191 994 1439 701 
Q 1688 409 2113 409 
Q 2538 409 2786 701 
Q 3034 994 3034 1497 
Q 3034 2003 2786 2293 
Q 2538 2584 2113 2584 
z
M 3366 4563 
L 3366 3988 
Q 3128 4100 2886 4159 
Q 2644 4219 2406 4219 
Q 1781 4219 1451 3797 
Q 1122 3375 1075 2522 
Q 1259 2794 1537 2939 
Q 1816 3084 2150 3084 
Q 2853 3084 3261 2657 
Q 3669 2231 3669 1497 
Q 3669 778 3244 343 
Q 2819 -91 2113 -91 
Q 1303 -91 875 529 
Q 447 1150 447 2328 
Q 447 3434 972 4092 
Q 1497 4750 2381 4750 
Q 2619 4750 2861 4703 
Q 3103 4656 3366 4563 
z
" transform="scale(0.015625)"/>
       </defs>
       <use xlink:href="#DejaVuSans-2212"/>
       <use xlink:href="#DejaVuSans-36" x="83.789062"/>
      </g>
     </g>
    </g>
    <g id="xtick_5">
     <g id="line2d_5">
      <g>
       <use xlink:href="#m4e084fcd0f" x="551.862982" y="382.84" style="stroke: #000000; stroke-width: 0.8"/>
      </g>
     </g>
     <g id="text_5">
      <!-- −4 -->
      <g transform="translate(544.491888 397.438438) scale(0.1 -0.1)">
       <defs>
        <path id="DejaVuSans-34" d="M 2419 4116 
L 825 1625 
L 2419 1625 
L 2419 4116 
z
M 2253 4666 
L 3047 4666 
L 3047 1625 
L 3713 1625 
L 3713 1100 
L 3047 1100 
L 3047 0 
L 2419 0 
L 2419 1100 
L 313 1100 
L 313 1709 
L 2253 4666 
z
" transform="scale(0.015625)"/>
       </defs>
       <use xlink:href="#DejaVuSans-2212"/>
       <use xlink:href="#DejaVuSans-34" x="83.789062"/>
      </g>
     </g>
    </g>
    <g id="text_6">
     <!-- MET -->
     <g transform="translate(295.594664 417.195312) scale(0.18 -0.18)">
      <defs>
       <path id="DejaVuSans-4d" d="M 628 4666 
L 1569 4666 
L 2759 1491 
L 3956 4666 
L 4897 4666 
L 4897 0 
L 4281 0 
L 4281 4097 
L 3078 897 
L 2444 897 
L 1241 4097 
L 1241 0 
L 628 0 
L 628 4666 
z
" transform="scale(0.015625)"/>
       <path id="DejaVuSans-45" d="M 628 4666 
L 3578 4666 
L 3578 4134 
L 1259 4134 
L 1259 2753 
L 3481 2753 
L 3481 2222 
L 1259 2222 
L 1259 531 
L 3634 531 
L 3634 0 
L 628 0 
L 628 4666 
z
" transform="scale(0.015625)"/>
       <path id="DejaVuSans-54" d="M -19 4666 
L 3928 4666 
L 3928 4134 
L 2272 4134 
L 2272 0 
L 1638 0 
L 1638 4134 
L -19 4134 
L -19 4666 
z
" transform="scale(0.015625)"/>
      </defs>
      <use xlink:href="#DejaVuSans-4d"/>
      <use xlink:href="#DejaVuSans-45" x="86.279297"/>
      <use xlink:href="#DejaVuSans-54" x="149.462891"/>
     </g>
    </g>
   </g>
   <g id="matplotlib.axis_2">
    <g id="ytick_1">
     <g id="line2d_6">
      <defs>
       <path id="m5472d7f8fd" d="M 0 0 
L -3.5 0 
" style="stroke: #000000; stroke-width: 0.8"/>
      </defs>
      <g>
       <use xlink:href="#m5472d7f8fd" x="64.37" y="382.84" style="stroke: #000000; stroke-width: 0.8"/>
      </g>
     </g>
     <g id="text_7">
      <!-- 0 -->
      <g transform="translate(51.0075 386.639219) scale(0.1 -0.1)">
       <use xlink:href="#DejaVuSans-30"/>
      </g>
     </g>
    </g>
    <g id="ytick_2">
     <g id="line2d_7">
      <g>
       <use xlink:href="#m5472d7f8fd" x="64.37" y="307.667875" style="stroke: #000000; stroke-width: 0.8"/>
      </g>
     </g>
     <g id="text_8">
      <!-- 2000 -->
      <g transform="translate(31.92 311.467094) scale(0.1 -0.1)">
       <use xlink:href="#DejaVuSans-32"/>
       <use xlink:href="#DejaVuSans-30" x="63.623047"/>
       <use xlink:href="#DejaVuSans-30" x="127.246094"/>
       <use xlink:href="#DejaVuSans-30" x="190.869141"/>
      </g>
     </g>
    </g>
    <g id="ytick_3">
     <g id="line2d_8">
      <g>
       <use xlink:href="#m5472d7f8fd" x="64.37" y="232.495751" style="stroke: #000000; stroke-width: 0.8"/>
      </g>
     </g>
     <g id="text_9">
      <!-- 4000 -->
      <g transform="translate(31.92 236.294969) scale(0.1 -0.1)">
       <use xlink:href="#DejaVuSans-34"/>
       <use xlink:href="#DejaVuSans-30" x="63.623047"/>
       <use xlink:href="#DejaVuSans-30" x="127.246094"/>
       <use xlink:href="#DejaVuSans-30" x="190.869141"/>
      </g>
     </g>
    </g>
    <g id="ytick_4">
     <g id="line2d_9">
      <g>
       <use xlink:href="#m5472d7f8fd" x="64.37" y="157.323626" style="stroke: #000000; stroke-width: 0.8"/>
      </g>
     </g>
     <g id="text_10">
      <!-- 6000 -->
      <g transform="translate(31.92 161.122845) scale(0.1 -0.1)">
       <use xlink:href="#DejaVuSans-36"/>
       <use xlink:href="#DejaVuSans-30" x="63.623047"/>
       <use xlink:href="#DejaVuSans-30" x="127.246094"/>
       <use xlink:href="#DejaVuSans-30" x="190.869141"/>
      </g>
     </g>
    </g>
    <g id="ytick_5">
     <g id="line2d_10">
      <g>
       <use xlink:href="#m5472d7f8fd" x="64.37" y="82.151501" style="stroke: #000000; stroke-width: 0.8"/>
      </g>
     </g>
     <g id="text_11">
      <!-- 8000 -->
      <g transform="translate(31.92 85.95072) scale(0.1 -0.1)">
       <use xlink:href="#DejaVuSans-38"/>
       <use xlink:href="#DejaVuSans-30" x="63.623047"/>
       <use xlink:href="#DejaVuSans-30" x="127.246094"/>
       <use xlink:href="#DejaVuSans-30" x="190.869141"/>
      </g>
     </g>
    </g>
    <g id="text_12">
     <!-- Count -->
     <g transform="translate(24.176563 223.547188) rotate(-90) scale(0.18 -0.18)">
      <defs>
       <path id="DejaVuSans-43" d="M 4122 4306 
L 4122 3641 
Q 3803 3938 3442 4084 
Q 3081 4231 2675 4231 
Q 1875 4231 1450 3742 
Q 1025 3253 1025 2328 
Q 1025 1406 1450 917 
Q 1875 428 2675 428 
Q 3081 428 3442 575 
Q 3803 722 4122 1019 
L 4122 359 
Q 3791 134 3420 21 
Q 3050 -91 2638 -91 
Q 1578 -91 968 557 
Q 359 1206 359 2328 
Q 359 3453 968 4101 
Q 1578 4750 2638 4750 
Q 3056 4750 3426 4639 
Q 3797 4528 4122 4306 
z
" transform="scale(0.015625)"/>
       <path id="DejaVuSans-6f" d="M 1959 3097 
Q 1497 3097 1228 2736 
Q 959 2375 959 1747 
Q 959 1119 1226 758 
Q 1494 397 1959 397 
Q 2419 397 2687 759 
Q 2956 1122 2956 1747 
Q 2956 2369 2687 2733 
Q 2419 3097 1959 3097 
z
M 1959 3584 
Q 2709 3584 3137 3096 
Q 3566 2609 3566 1747 
Q 3566 888 3137 398 
Q 2709 -91 1959 -91 
Q 1206 -91 779 398 
Q 353 888 353 1747 
Q 353 2609 779 3096 
Q 1206 3584 1959 3584 
z
" transform="scale(0.015625)"/>
       <path id="DejaVuSans-75" d="M 544 1381 
L 544 3500 
L 1119 3500 
L 1119 1403 
Q 1119 906 1312 657 
Q 1506 409 1894 409 
Q 2359 409 2629 706 
Q 2900 1003 2900 1516 
L 2900 3500 
L 3475 3500 
L 3475 0 
L 2900 0 
L 2900 538 
Q 2691 219 2414 64 
Q 2138 -91 1772 -91 
Q 1169 -91 856 284 
Q 544 659 544 1381 
z
M 1991 3584 
L 1991 3584 
z
" transform="scale(0.015625)"/>
       <path id="DejaVuSans-6e" d="M 3513 2113 
L 3513 0 
L 2938 0 
L 2938 2094 
Q 2938 2591 2744 2837 
Q 2550 3084 2163 3084 
Q 1697 3084 1428 2787 
Q 1159 2491 1159 1978 
L 1159 0 
L 581 0 
L 581 3500 
L 1159 3500 
L 1159 2956 
Q 1366 3272 1645 3428 
Q 1925 3584 2291 3584 
Q 2894 3584 3203 3211 
Q 3513 2838 3513 2113 
z
" transform="scale(0.015625)"/>
       <path id="DejaVuSans-74" d="M 1172 4494 
L 1172 3500 
L 2356 3500 
L 2356 3053 
L 1172 3053 
L 1172 1153 
Q 1172 725 1289 603 
Q 1406 481 1766 481 
L 2356 481 
L 2356 0 
L 1766 0 
Q 1100 0 847 248 
Q 594 497 594 1153 
L 594 3053 
L 172 3053 
L 172 3500 
L 594 3500 
L 594 4494 
L 1172 4494 
z
" transform="scale(0.015625)"/>
      </defs>
      <use xlink:href="#DejaVuSans-43"/>
      <use xlink:href="#DejaVuSans-6f" x="69.824219"/>
      <use xlink:href="#DejaVuSans-75" x="131.005859"/>
      <use xlink:href="#DejaVuSans-6e" x="194.384766"/>
      <use xlink:href="#DejaVuSans-74" x="257.763672"/>
     </g>
    </g>
   </g>
   <g id="line2d_11">
    <path d="M 274.9907 382.84 
L 274.9907 28.51619 
" clip-path="url(#p1ada9abe6a)" style="fill: none; stroke: #ff0000; stroke-width: 1.6; stroke-linecap: square"/>
   </g>
   <g id="patch_199">
    <path d="M 64.37 382.84 
L 64.37 10.8 
" style="fill: none; stroke: #000000; stroke-width: 0.8; stroke-linejoin: miter; stroke-linecap: square"/>
   </g>
   <g id="patch_200">
    <path d="M 564.717766 382.84 
L 564.717766 10.8 
" style="fill: none; stroke: #000000; stroke-width: 0.8; stroke-linejoin: miter; stroke-linecap: square"/>
   </g>
   <g id="patch_201">
    <path d="M 64.37 382.84 
L 564.717766 382.84 
" style="fill: none; stroke: #000000; stroke-width: 0.8; stroke-linejoin: miter; stroke-linecap: square"/>
   </g>
   <g id="patch_202">
    <path d="M 64.37 10.8 
L 564.717766 10.8 
" style="fill: none; stroke: #000000; stroke-width: 0.8; stroke-linejoin: miter; stroke-linecap: square"/>
   </g>
   <g id="text_13">
    <!-- $\mu_7 = -8.432$ -->
    <g transform="translate(414.613436 61.649937) scale(0.21 -0.21)">
     <defs>
      <path id="DejaVuSans-Oblique-3bc" d="M -84 -1331 
L 856 3500 
L 1434 3500 
L 1009 1322 
Q 997 1256 987 1175 
Q 978 1094 978 1013 
Q 978 722 1161 565 
Q 1344 409 1684 409 
Q 2147 409 2431 671 
Q 2716 934 2816 1459 
L 3213 3500 
L 3788 3500 
L 3266 809 
Q 3253 750 3248 706 
Q 3244 663 3244 628 
Q 3244 531 3283 486 
Q 3322 441 3406 441 
Q 3438 441 3492 456 
Q 3547 472 3647 513 
L 3559 50 
Q 3422 -19 3297 -55 
Q 3172 -91 3053 -91 
Q 2847 -91 2730 40 
Q 2613 172 2613 403 
Q 2438 153 2195 31 
Q 1953 -91 1625 -91 
Q 1334 -91 1117 43 
Q 900 178 831 397 
L 494 -1331 
L -84 -1331 
z
" transform="scale(0.015625)"/>
      <path id="DejaVuSans-37" d="M 525 4666 
L 3525 4666 
L 3525 4397 
L 1831 0 
L 1172 0 
L 2766 4134 
L 525 4134 
L 525 4666 
z
" transform="scale(0.015625)"/>
      <path id="DejaVuSans-3d" d="M 678 2906 
L 4684 2906 
L 4684 2381 
L 678 2381 
L 678 2906 
z
M 678 1631 
L 4684 1631 
L 4684 1100 
L 678 1100 
L 678 1631 
z
" transform="scale(0.015625)"/>
      <path id="DejaVuSans-2e" d="M 684 794 
L 1344 794 
L 1344 0 
L 684 0 
L 684 794 
z
" transform="scale(0.015625)"/>
      <path id="DejaVuSans-33" d="M 2597 2516 
Q 3050 2419 3304 2112 
Q 3559 1806 3559 1356 
Q 3559 666 3084 287 
Q 2609 -91 1734 -91 
Q 1441 -91 1130 -33 
Q 819 25 488 141 
L 488 750 
Q 750 597 1062 519 
Q 1375 441 1716 441 
Q 2309 441 2620 675 
Q 2931 909 2931 1356 
Q 2931 1769 2642 2001 
Q 2353 2234 1838 2234 
L 1294 2234 
L 1294 2753 
L 1863 2753 
Q 2328 2753 2575 2939 
Q 2822 3125 2822 3475 
Q 2822 3834 2567 4026 
Q 2313 4219 1838 4219 
Q 1578 4219 1281 4162 
Q 984 4106 628 3988 
L 628 4550 
Q 988 4650 1302 4700 
Q 1616 4750 1894 4750 
Q 2613 4750 3031 4423 
Q 3450 4097 3450 3541 
Q 3450 3153 3228 2886 
Q 3006 2619 2597 2516 
z
" transform="scale(0.015625)"/>
     </defs>
     <use xlink:href="#DejaVuSans-Oblique-3bc" transform="translate(0 0.78125)"/>
     <use xlink:href="#DejaVuSans-37" transform="translate(63.623047 -15.625) scale(0.7)"/>
     <use xlink:href="#DejaVuSans-3d" transform="translate(130.375977 0.78125)"/>
     <use xlink:href="#DejaVuSans-2212" transform="translate(253.129883 0.78125)"/>
     <use xlink:href="#DejaVuSans-38" transform="translate(356.401367 0.78125)"/>
     <use xlink:href="#DejaVuSans-2e" transform="translate(420.024414 0.78125)"/>
     <use xlink:href="#DejaVuSans-34" transform="translate(451.811523 0.78125)"/>
     <use xlink:href="#DejaVuSans-33" transform="translate(515.43457 0.78125)"/>
     <use xlink:href="#DejaVuSans-32" transform="translate(579.057617 0.78125)"/>
    </g>
    <!-- $\sigma_7 = 1.08$ -->
    <g transform="translate(414.613436 85.208) scale(0.21 -0.21)">
     <defs>
      <path id="DejaVuSans-Oblique-3c3" d="M 2219 3044 
Q 1744 3044 1422 2700 
Q 1081 2341 969 1747 
Q 844 1119 1044 756 
Q 1241 397 1706 397 
Q 2166 397 2503 759 
Q 2844 1122 2966 1747 
Q 3075 2319 2881 2700 
Q 2700 3044 2219 3044 
z
M 2309 3503 
L 4219 3500 
L 4106 2925 
L 3463 2925 
Q 3706 2438 3575 1747 
Q 3406 888 2884 400 
Q 2359 -91 1609 -91 
Q 856 -91 525 400 
Q 194 888 363 1747 
Q 528 2609 1050 3097 
Q 1484 3503 2309 3503 
z
" transform="scale(0.015625)"/>
     </defs>
     <use xlink:href="#DejaVuSans-Oblique-3c3" transform="translate(0 0.78125)"/>
     <use xlink:href="#DejaVuSans-37" transform="translate(63.378906 -15.625) scale(0.7)"/>
     <use xlink:href="#DejaVuSans-3d" transform="translate(130.131836 0.78125)"/>
     <use xlink:href="#DejaVuSans-31" transform="translate(233.40332 0.78125)"/>
     <use xlink:href="#DejaVuSans-2e" transform="translate(297.026367 0.78125)"/>
     <use xlink:href="#DejaVuSans-30" transform="translate(328.813477 0.78125)"/>
     <use xlink:href="#DejaVuSans-38" transform="translate(392.436523 0.78125)"/>
    </g>
   </g>
  </g>
 </g>
 <defs>
  <clipPath id="p1ada9abe6a">
   <rect x="64.37" y="10.8" width="500.347766" height="372.04"/>
  </clipPath>
 </defs>
</svg>
