<?xml version="1.0" encoding="utf-8" standalone="no"?>
<!DOCTYPE svg PUBLIC "-//W3C//DTD SVG 1.1//EN"
  "http://www.w3.org/Graphics/SVG/1.1/DTD/svg11.dtd">
<svg xmlns:xlink="http://www.w3.org/1999/xlink" width="576pt" height="432pt" viewBox="0 0 576 432" xmlns="http://www.w3.org/2000/svg" version="1.1">
 <metadata>
  <rdf:RDF xmlns:dc="http://purl.org/dc/elements/1.1/" xmlns:cc="http://creativecommons.org/ns#" xmlns:rdf="http://www.w3.org/1999/02/22-rdf-syntax-ns#">
   <cc:Work>
    <dc:type rdf:resource="http://purl.org/dc/dcmitype/StillImage"/>
    <dc:date>2024-09-05T19:41:19.244277</dc:date>
    <dc:format>image/svg+xml</dc:format>
    <dc:creator>
     <cc:Agent>
      <dc:title>Matplotlib v3.7.2, https://matplotlib.org/</dc:title>
     </cc:Agent>
    </dc:creator>
   </cc:Work>
  </rdf:RDF>
 </metadata>
 <defs>
  <style type="text/css">*{stroke-linejoin: round; stroke-linecap: butt}</style>
 </defs>
 <g id="figure_1">
  <g id="patch_1">
   <path d="M 0 432 
L 576 432 
L 576 0 
L 0 0 
z
" style="fill: #ffffff"/>
  </g>
  <g id="axes_1">
   <g id="patch_2">
    <path d="M 64.37 382.84 
L 563.997766 382.84 
L 563.997766 10.8 
L 64.37 10.8 
z
" style="fill: #ffffff"/>
   </g>
   <g id="patch_3">
    <path d="M 87.080353 382.84 
L 89.144931 382.84 
L 89.144931 382.801466 
L 87.080353 382.801466 
z
" clip-path="url(#pdb2fe5465d)" style="fill: #1f77b4"/>
   </g>
   <g id="patch_4">
    <path d="M 89.144931 382.84 
L 91.209508 382.84 
L 91.209508 382.84 
L 89.144931 382.84 
z
" clip-path="url(#pdb2fe5465d)" style="fill: #1f77b4"/>
   </g>
   <g id="patch_5">
    <path d="M 91.209508 382.84 
L 93.274086 382.84 
L 93.274086 382.801466 
L 91.209508 382.801466 
z
" clip-path="url(#pdb2fe5465d)" style="fill: #1f77b4"/>
   </g>
   <g id="patch_6">
    <path d="M 93.274086 382.84 
L 95.338663 382.84 
L 95.338663 382.84 
L 93.274086 382.84 
z
" clip-path="url(#pdb2fe5465d)" style="fill: #1f77b4"/>
   </g>
   <g id="patch_7">
    <path d="M 95.338663 382.84 
L 97.403241 382.84 
L 97.403241 382.84 
L 95.338663 382.84 
z
" clip-path="url(#pdb2fe5465d)" style="fill: #1f77b4"/>
   </g>
   <g id="patch_8">
    <path d="M 97.403241 382.84 
L 99.467818 382.84 
L 99.467818 382.84 
L 97.403241 382.84 
z
" clip-path="url(#pdb2fe5465d)" style="fill: #1f77b4"/>
   </g>
   <g id="patch_9">
    <path d="M 99.467818 382.84 
L 101.532396 382.84 
L 101.532396 382.801466 
L 99.467818 382.801466 
z
" clip-path="url(#pdb2fe5465d)" style="fill: #1f77b4"/>
   </g>
   <g id="patch_10">
    <path d="M 101.532396 382.84 
L 103.596973 382.84 
L 103.596973 382.84 
L 101.532396 382.84 
z
" clip-path="url(#pdb2fe5465d)" style="fill: #1f77b4"/>
   </g>
   <g id="patch_11">
    <path d="M 103.596973 382.84 
L 105.661551 382.84 
L 105.661551 382.84 
L 103.596973 382.84 
z
" clip-path="url(#pdb2fe5465d)" style="fill: #1f77b4"/>
   </g>
   <g id="patch_12">
    <path d="M 105.661551 382.84 
L 107.726128 382.84 
L 107.726128 382.84 
L 105.661551 382.84 
z
" clip-path="url(#pdb2fe5465d)" style="fill: #1f77b4"/>
   </g>
   <g id="patch_13">
    <path d="M 107.726128 382.84 
L 109.790706 382.84 
L 109.790706 382.84 
L 107.726128 382.84 
z
" clip-path="url(#pdb2fe5465d)" style="fill: #1f77b4"/>
   </g>
   <g id="patch_14">
    <path d="M 109.790706 382.84 
L 111.855284 382.84 
L 111.855284 382.84 
L 109.790706 382.84 
z
" clip-path="url(#pdb2fe5465d)" style="fill: #1f77b4"/>
   </g>
   <g id="patch_15">
    <path d="M 111.855284 382.84 
L 113.919861 382.84 
L 113.919861 382.84 
L 111.855284 382.84 
z
" clip-path="url(#pdb2fe5465d)" style="fill: #1f77b4"/>
   </g>
   <g id="patch_16">
    <path d="M 113.919861 382.84 
L 115.984439 382.84 
L 115.984439 382.84 
L 113.919861 382.84 
z
" clip-path="url(#pdb2fe5465d)" style="fill: #1f77b4"/>
   </g>
   <g id="patch_17">
    <path d="M 115.984439 382.84 
L 118.049016 382.84 
L 118.049016 382.84 
L 115.984439 382.84 
z
" clip-path="url(#pdb2fe5465d)" style="fill: #1f77b4"/>
   </g>
   <g id="patch_18">
    <path d="M 118.049016 382.84 
L 120.113594 382.84 
L 120.113594 382.84 
L 118.049016 382.84 
z
" clip-path="url(#pdb2fe5465d)" style="fill: #1f77b4"/>
   </g>
   <g id="patch_19">
    <path d="M 120.113594 382.84 
L 122.178171 382.84 
L 122.178171 382.762931 
L 120.113594 382.762931 
z
" clip-path="url(#pdb2fe5465d)" style="fill: #1f77b4"/>
   </g>
   <g id="patch_20">
    <path d="M 122.178171 382.84 
L 124.242749 382.84 
L 124.242749 382.84 
L 122.178171 382.84 
z
" clip-path="url(#pdb2fe5465d)" style="fill: #1f77b4"/>
   </g>
   <g id="patch_21">
    <path d="M 124.242749 382.84 
L 126.307326 382.84 
L 126.307326 382.84 
L 124.242749 382.84 
z
" clip-path="url(#pdb2fe5465d)" style="fill: #1f77b4"/>
   </g>
   <g id="patch_22">
    <path d="M 126.307326 382.84 
L 128.371904 382.84 
L 128.371904 382.84 
L 126.307326 382.84 
z
" clip-path="url(#pdb2fe5465d)" style="fill: #1f77b4"/>
   </g>
   <g id="patch_23">
    <path d="M 128.371904 382.84 
L 130.436481 382.84 
L 130.436481 382.724397 
L 128.371904 382.724397 
z
" clip-path="url(#pdb2fe5465d)" style="fill: #1f77b4"/>
   </g>
   <g id="patch_24">
    <path d="M 130.436481 382.84 
L 132.501059 382.84 
L 132.501059 382.84 
L 130.436481 382.84 
z
" clip-path="url(#pdb2fe5465d)" style="fill: #1f77b4"/>
   </g>
   <g id="patch_25">
    <path d="M 132.501059 382.84 
L 134.565637 382.84 
L 134.565637 382.84 
L 132.501059 382.84 
z
" clip-path="url(#pdb2fe5465d)" style="fill: #1f77b4"/>
   </g>
   <g id="patch_26">
    <path d="M 134.565637 382.84 
L 136.630214 382.84 
L 136.630214 382.84 
L 134.565637 382.84 
z
" clip-path="url(#pdb2fe5465d)" style="fill: #1f77b4"/>
   </g>
   <g id="patch_27">
    <path d="M 136.630214 382.84 
L 138.694792 382.84 
L 138.694792 382.762931 
L 136.630214 382.762931 
z
" clip-path="url(#pdb2fe5465d)" style="fill: #1f77b4"/>
   </g>
   <g id="patch_28">
    <path d="M 138.694792 382.84 
L 140.759369 382.84 
L 140.759369 382.84 
L 138.694792 382.84 
z
" clip-path="url(#pdb2fe5465d)" style="fill: #1f77b4"/>
   </g>
   <g id="patch_29">
    <path d="M 140.759369 382.84 
L 142.823947 382.84 
L 142.823947 382.801466 
L 140.759369 382.801466 
z
" clip-path="url(#pdb2fe5465d)" style="fill: #1f77b4"/>
   </g>
   <g id="patch_30">
    <path d="M 142.823947 382.84 
L 144.888524 382.84 
L 144.888524 382.84 
L 142.823947 382.84 
z
" clip-path="url(#pdb2fe5465d)" style="fill: #1f77b4"/>
   </g>
   <g id="patch_31">
    <path d="M 144.888524 382.84 
L 146.953102 382.84 
L 146.953102 382.724397 
L 144.888524 382.724397 
z
" clip-path="url(#pdb2fe5465d)" style="fill: #1f77b4"/>
   </g>
   <g id="patch_32">
    <path d="M 146.953102 382.84 
L 149.017679 382.84 
L 149.017679 382.84 
L 146.953102 382.84 
z
" clip-path="url(#pdb2fe5465d)" style="fill: #1f77b4"/>
   </g>
   <g id="patch_33">
    <path d="M 149.017679 382.84 
L 151.082257 382.84 
L 151.082257 382.762931 
L 149.017679 382.762931 
z
" clip-path="url(#pdb2fe5465d)" style="fill: #1f77b4"/>
   </g>
   <g id="patch_34">
    <path d="M 151.082257 382.84 
L 153.146834 382.84 
L 153.146834 382.84 
L 151.082257 382.84 
z
" clip-path="url(#pdb2fe5465d)" style="fill: #1f77b4"/>
   </g>
   <g id="patch_35">
    <path d="M 153.146834 382.84 
L 155.211412 382.84 
L 155.211412 382.570259 
L 153.146834 382.570259 
z
" clip-path="url(#pdb2fe5465d)" style="fill: #1f77b4"/>
   </g>
   <g id="patch_36">
    <path d="M 155.211412 382.84 
L 157.27599 382.84 
L 157.27599 382.84 
L 155.211412 382.84 
z
" clip-path="url(#pdb2fe5465d)" style="fill: #1f77b4"/>
   </g>
   <g id="patch_37">
    <path d="M 157.27599 382.84 
L 159.340567 382.84 
L 159.340567 382.570259 
L 157.27599 382.570259 
z
" clip-path="url(#pdb2fe5465d)" style="fill: #1f77b4"/>
   </g>
   <g id="patch_38">
    <path d="M 159.340567 382.84 
L 161.405145 382.84 
L 161.405145 382.84 
L 159.340567 382.84 
z
" clip-path="url(#pdb2fe5465d)" style="fill: #1f77b4"/>
   </g>
   <g id="patch_39">
    <path d="M 161.405145 382.84 
L 163.469722 382.84 
L 163.469722 382.570259 
L 161.405145 382.570259 
z
" clip-path="url(#pdb2fe5465d)" style="fill: #1f77b4"/>
   </g>
   <g id="patch_40">
    <path d="M 163.469722 382.84 
L 165.5343 382.84 
L 165.5343 382.84 
L 163.469722 382.84 
z
" clip-path="url(#pdb2fe5465d)" style="fill: #1f77b4"/>
   </g>
   <g id="patch_41">
    <path d="M 165.5343 382.84 
L 167.598877 382.84 
L 167.598877 382.22345 
L 165.5343 382.22345 
z
" clip-path="url(#pdb2fe5465d)" style="fill: #1f77b4"/>
   </g>
   <g id="patch_42">
    <path d="M 167.598877 382.84 
L 169.663455 382.84 
L 169.663455 382.84 
L 167.598877 382.84 
z
" clip-path="url(#pdb2fe5465d)" style="fill: #1f77b4"/>
   </g>
   <g id="patch_43">
    <path d="M 169.663455 382.84 
L 171.728032 382.84 
L 171.728032 382.184915 
L 169.663455 382.184915 
z
" clip-path="url(#pdb2fe5465d)" style="fill: #1f77b4"/>
   </g>
   <g id="patch_44">
    <path d="M 171.728032 382.84 
L 173.79261 382.84 
L 173.79261 382.84 
L 171.728032 382.84 
z
" clip-path="url(#pdb2fe5465d)" style="fill: #1f77b4"/>
   </g>
   <g id="patch_45">
    <path d="M 173.79261 382.84 
L 175.857187 382.84 
L 175.857187 382.261984 
L 173.79261 382.261984 
z
" clip-path="url(#pdb2fe5465d)" style="fill: #1f77b4"/>
   </g>
   <g id="patch_46">
    <path d="M 175.857187 382.84 
L 177.921765 382.84 
L 177.921765 382.84 
L 175.857187 382.84 
z
" clip-path="url(#pdb2fe5465d)" style="fill: #1f77b4"/>
   </g>
   <g id="patch_47">
    <path d="M 177.921765 382.84 
L 179.986343 382.84 
L 179.986343 381.799571 
L 177.921765 381.799571 
z
" clip-path="url(#pdb2fe5465d)" style="fill: #1f77b4"/>
   </g>
   <g id="patch_48">
    <path d="M 179.986343 382.84 
L 182.05092 382.84 
L 182.05092 382.84 
L 179.986343 382.84 
z
" clip-path="url(#pdb2fe5465d)" style="fill: #1f77b4"/>
   </g>
   <g id="patch_49">
    <path d="M 182.05092 382.84 
L 184.115498 382.84 
L 184.115498 381.568365 
L 182.05092 381.568365 
z
" clip-path="url(#pdb2fe5465d)" style="fill: #1f77b4"/>
   </g>
   <g id="patch_50">
    <path d="M 184.115498 382.84 
L 186.180075 382.84 
L 186.180075 382.84 
L 184.115498 382.84 
z
" clip-path="url(#pdb2fe5465d)" style="fill: #1f77b4"/>
   </g>
   <g id="patch_51">
    <path d="M 186.180075 382.84 
L 188.244653 382.84 
L 188.244653 380.797677 
L 186.180075 380.797677 
z
" clip-path="url(#pdb2fe5465d)" style="fill: #1f77b4"/>
   </g>
   <g id="patch_52">
    <path d="M 188.244653 382.84 
L 190.30923 382.84 
L 190.30923 382.84 
L 188.244653 382.84 
z
" clip-path="url(#pdb2fe5465d)" style="fill: #1f77b4"/>
   </g>
   <g id="patch_53">
    <path d="M 190.30923 382.84 
L 192.373808 382.84 
L 192.373808 379.834317 
L 190.30923 379.834317 
z
" clip-path="url(#pdb2fe5465d)" style="fill: #1f77b4"/>
   </g>
   <g id="patch_54">
    <path d="M 192.373808 382.84 
L 194.438385 382.84 
L 194.438385 382.84 
L 192.373808 382.84 
z
" clip-path="url(#pdb2fe5465d)" style="fill: #1f77b4"/>
   </g>
   <g id="patch_55">
    <path d="M 194.438385 382.84 
L 196.502963 382.84 
L 196.502963 379.025094 
L 194.438385 379.025094 
z
" clip-path="url(#pdb2fe5465d)" style="fill: #1f77b4"/>
   </g>
   <g id="patch_56">
    <path d="M 196.502963 382.84 
L 198.56754 382.84 
L 198.56754 382.84 
L 196.502963 382.84 
z
" clip-path="url(#pdb2fe5465d)" style="fill: #1f77b4"/>
   </g>
   <g id="patch_57">
    <path d="M 198.56754 382.84 
L 200.632118 382.84 
L 200.632118 378.447078 
L 198.56754 378.447078 
z
" clip-path="url(#pdb2fe5465d)" style="fill: #1f77b4"/>
   </g>
   <g id="patch_58">
    <path d="M 200.632118 382.84 
L 202.696696 382.84 
L 202.696696 382.84 
L 200.632118 382.84 
z
" clip-path="url(#pdb2fe5465d)" style="fill: #1f77b4"/>
   </g>
   <g id="patch_59">
    <path d="M 202.696696 382.84 
L 204.761273 382.84 
L 204.761273 377.907597 
L 202.696696 377.907597 
z
" clip-path="url(#pdb2fe5465d)" style="fill: #1f77b4"/>
   </g>
   <g id="patch_60">
    <path d="M 204.761273 382.84 
L 206.825851 382.84 
L 206.825851 382.84 
L 204.761273 382.84 
z
" clip-path="url(#pdb2fe5465d)" style="fill: #1f77b4"/>
   </g>
   <g id="patch_61">
    <path d="M 206.825851 382.84 
L 208.890428 382.84 
L 208.890428 375.518464 
L 206.825851 375.518464 
z
" clip-path="url(#pdb2fe5465d)" style="fill: #1f77b4"/>
   </g>
   <g id="patch_62">
    <path d="M 208.890428 382.84 
L 210.955006 382.84 
L 210.955006 382.84 
L 208.890428 382.84 
z
" clip-path="url(#pdb2fe5465d)" style="fill: #1f77b4"/>
   </g>
   <g id="patch_63">
    <path d="M 210.955006 382.84 
L 213.019583 382.84 
L 213.019583 373.437606 
L 210.955006 373.437606 
z
" clip-path="url(#pdb2fe5465d)" style="fill: #1f77b4"/>
   </g>
   <g id="patch_64">
    <path d="M 213.019583 382.84 
L 215.084161 382.84 
L 215.084161 382.84 
L 213.019583 382.84 
z
" clip-path="url(#pdb2fe5465d)" style="fill: #1f77b4"/>
   </g>
   <g id="patch_65">
    <path d="M 215.084161 382.84 
L 217.148738 382.84 
L 217.148738 371.89623 
L 215.084161 371.89623 
z
" clip-path="url(#pdb2fe5465d)" style="fill: #1f77b4"/>
   </g>
   <g id="patch_66">
    <path d="M 217.148738 382.84 
L 219.213316 382.84 
L 219.213316 382.84 
L 217.148738 382.84 
z
" clip-path="url(#pdb2fe5465d)" style="fill: #1f77b4"/>
   </g>
   <g id="patch_67">
    <path d="M 219.213316 382.84 
L 221.277893 382.84 
L 221.277893 369.083219 
L 219.213316 369.083219 
z
" clip-path="url(#pdb2fe5465d)" style="fill: #1f77b4"/>
   </g>
   <g id="patch_68">
    <path d="M 221.277893 382.84 
L 223.342471 382.84 
L 223.342471 382.84 
L 221.277893 382.84 
z
" clip-path="url(#pdb2fe5465d)" style="fill: #1f77b4"/>
   </g>
   <g id="patch_69">
    <path d="M 223.342471 382.84 
L 225.407049 382.84 
L 225.407049 367.002362 
L 223.342471 367.002362 
z
" clip-path="url(#pdb2fe5465d)" style="fill: #1f77b4"/>
   </g>
   <g id="patch_70">
    <path d="M 225.407049 382.84 
L 227.471626 382.84 
L 227.471626 382.84 
L 225.407049 382.84 
z
" clip-path="url(#pdb2fe5465d)" style="fill: #1f77b4"/>
   </g>
   <g id="patch_71">
    <path d="M 227.471626 382.84 
L 229.536204 382.84 
L 229.536204 361.838752 
L 227.471626 361.838752 
z
" clip-path="url(#pdb2fe5465d)" style="fill: #1f77b4"/>
   </g>
   <g id="patch_72">
    <path d="M 229.536204 382.84 
L 231.600781 382.84 
L 231.600781 382.84 
L 229.536204 382.84 
z
" clip-path="url(#pdb2fe5465d)" style="fill: #1f77b4"/>
   </g>
   <g id="patch_73">
    <path d="M 231.600781 382.84 
L 233.665359 382.84 
L 233.665359 357.831174 
L 231.600781 357.831174 
z
" clip-path="url(#pdb2fe5465d)" style="fill: #1f77b4"/>
   </g>
   <g id="patch_74">
    <path d="M 233.665359 382.84 
L 235.729936 382.84 
L 235.729936 382.84 
L 233.665359 382.84 
z
" clip-path="url(#pdb2fe5465d)" style="fill: #1f77b4"/>
   </g>
   <g id="patch_75">
    <path d="M 235.729936 382.84 
L 237.794514 382.84 
L 237.794514 352.359289 
L 235.729936 352.359289 
z
" clip-path="url(#pdb2fe5465d)" style="fill: #1f77b4"/>
   </g>
   <g id="patch_76">
    <path d="M 237.794514 382.84 
L 239.859091 382.84 
L 239.859091 382.84 
L 237.794514 382.84 
z
" clip-path="url(#pdb2fe5465d)" style="fill: #1f77b4"/>
   </g>
   <g id="patch_77">
    <path d="M 239.859091 382.84 
L 241.923669 382.84 
L 241.923669 344.536806 
L 239.859091 344.536806 
z
" clip-path="url(#pdb2fe5465d)" style="fill: #1f77b4"/>
   </g>
   <g id="patch_78">
    <path d="M 241.923669 382.84 
L 243.988246 382.84 
L 243.988246 382.84 
L 241.923669 382.84 
z
" clip-path="url(#pdb2fe5465d)" style="fill: #1f77b4"/>
   </g>
   <g id="patch_79">
    <path d="M 243.988246 382.84 
L 246.052824 382.84 
L 246.052824 338.563974 
L 243.988246 338.563974 
z
" clip-path="url(#pdb2fe5465d)" style="fill: #1f77b4"/>
   </g>
   <g id="patch_80">
    <path d="M 246.052824 382.84 
L 248.117402 382.84 
L 248.117402 382.84 
L 246.052824 382.84 
z
" clip-path="url(#pdb2fe5465d)" style="fill: #1f77b4"/>
   </g>
   <g id="patch_81">
    <path d="M 248.117402 382.84 
L 250.181979 382.84 
L 250.181979 328.506496 
L 248.117402 328.506496 
z
" clip-path="url(#pdb2fe5465d)" style="fill: #1f77b4"/>
   </g>
   <g id="patch_82">
    <path d="M 250.181979 382.84 
L 252.246557 382.84 
L 252.246557 382.84 
L 250.181979 382.84 
z
" clip-path="url(#pdb2fe5465d)" style="fill: #1f77b4"/>
   </g>
   <g id="patch_83">
    <path d="M 252.246557 382.84 
L 254.311134 382.84 
L 254.311134 321.762976 
L 252.246557 321.762976 
z
" clip-path="url(#pdb2fe5465d)" style="fill: #1f77b4"/>
   </g>
   <g id="patch_84">
    <path d="M 254.311134 382.84 
L 256.375712 382.84 
L 256.375712 382.84 
L 254.311134 382.84 
z
" clip-path="url(#pdb2fe5465d)" style="fill: #1f77b4"/>
   </g>
   <g id="patch_85">
    <path d="M 256.375712 382.84 
L 258.440289 382.84 
L 258.440289 310.087052 
L 256.375712 310.087052 
z
" clip-path="url(#pdb2fe5465d)" style="fill: #1f77b4"/>
   </g>
   <g id="patch_86">
    <path d="M 258.440289 382.84 
L 260.504867 382.84 
L 260.504867 382.84 
L 258.440289 382.84 
z
" clip-path="url(#pdb2fe5465d)" style="fill: #1f77b4"/>
   </g>
   <g id="patch_87">
    <path d="M 260.504867 382.84 
L 262.569444 382.84 
L 262.569444 293.594329 
L 260.504867 293.594329 
z
" clip-path="url(#pdb2fe5465d)" style="fill: #1f77b4"/>
   </g>
   <g id="patch_88">
    <path d="M 262.569444 382.84 
L 264.634022 382.84 
L 264.634022 382.84 
L 262.569444 382.84 
z
" clip-path="url(#pdb2fe5465d)" style="fill: #1f77b4"/>
   </g>
   <g id="patch_89">
    <path d="M 264.634022 382.84 
L 266.6986 382.84 
L 266.6986 283.922195 
L 264.634022 283.922195 
z
" clip-path="url(#pdb2fe5465d)" style="fill: #1f77b4"/>
   </g>
   <g id="patch_90">
    <path d="M 266.6986 382.84 
L 268.763177 382.84 
L 268.763177 382.84 
L 266.6986 382.84 
z
" clip-path="url(#pdb2fe5465d)" style="fill: #1f77b4"/>
   </g>
   <g id="patch_91">
    <path d="M 268.763177 382.84 
L 270.827755 382.84 
L 270.827755 268.4699 
L 268.763177 268.4699 
z
" clip-path="url(#pdb2fe5465d)" style="fill: #1f77b4"/>
   </g>
   <g id="patch_92">
    <path d="M 270.827755 382.84 
L 272.892332 382.84 
L 272.892332 382.84 
L 270.827755 382.84 
z
" clip-path="url(#pdb2fe5465d)" style="fill: #1f77b4"/>
   </g>
   <g id="patch_93">
    <path d="M 272.892332 382.84 
L 274.95691 382.84 
L 274.95691 249.819251 
L 272.892332 249.819251 
z
" clip-path="url(#pdb2fe5465d)" style="fill: #1f77b4"/>
   </g>
   <g id="patch_94">
    <path d="M 274.95691 382.84 
L 277.021487 382.84 
L 277.021487 382.84 
L 274.95691 382.84 
z
" clip-path="url(#pdb2fe5465d)" style="fill: #1f77b4"/>
   </g>
   <g id="patch_95">
    <path d="M 277.021487 382.84 
L 279.086065 382.84 
L 279.086065 234.829369 
L 277.021487 234.829369 
z
" clip-path="url(#pdb2fe5465d)" style="fill: #1f77b4"/>
   </g>
   <g id="patch_96">
    <path d="M 279.086065 382.84 
L 281.150642 382.84 
L 281.150642 382.84 
L 279.086065 382.84 
z
" clip-path="url(#pdb2fe5465d)" style="fill: #1f77b4"/>
   </g>
   <g id="patch_97">
    <path d="M 281.150642 382.84 
L 283.21522 382.84 
L 283.21522 217.989836 
L 281.150642 217.989836 
z
" clip-path="url(#pdb2fe5465d)" style="fill: #1f77b4"/>
   </g>
   <g id="patch_98">
    <path d="M 283.21522 382.84 
L 285.279797 382.84 
L 285.279797 382.84 
L 283.21522 382.84 
z
" clip-path="url(#pdb2fe5465d)" style="fill: #1f77b4"/>
   </g>
   <g id="patch_99">
    <path d="M 285.279797 382.84 
L 287.344375 382.84 
L 287.344375 196.372038 
L 285.279797 196.372038 
z
" clip-path="url(#pdb2fe5465d)" style="fill: #1f77b4"/>
   </g>
   <g id="patch_100">
    <path d="M 287.344375 382.84 
L 289.408953 382.84 
L 289.408953 382.84 
L 287.344375 382.84 
z
" clip-path="url(#pdb2fe5465d)" style="fill: #1f77b4"/>
   </g>
   <g id="patch_101">
    <path d="M 289.408953 382.84 
L 291.47353 382.84 
L 291.47353 176.565356 
L 289.408953 176.565356 
z
" clip-path="url(#pdb2fe5465d)" style="fill: #1f77b4"/>
   </g>
   <g id="patch_102">
    <path d="M 291.47353 382.84 
L 293.538108 382.84 
L 293.538108 382.84 
L 291.47353 382.84 
z
" clip-path="url(#pdb2fe5465d)" style="fill: #1f77b4"/>
   </g>
   <g id="patch_103">
    <path d="M 293.538108 382.84 
L 295.602685 382.84 
L 295.602685 151.980409 
L 293.538108 151.980409 
z
" clip-path="url(#pdb2fe5465d)" style="fill: #1f77b4"/>
   </g>
   <g id="patch_104">
    <path d="M 295.602685 382.84 
L 297.667263 382.84 
L 297.667263 382.84 
L 295.602685 382.84 
z
" clip-path="url(#pdb2fe5465d)" style="fill: #1f77b4"/>
   </g>
   <g id="patch_105">
    <path d="M 297.667263 382.84 
L 299.73184 382.84 
L 299.73184 133.715103 
L 297.667263 133.715103 
z
" clip-path="url(#pdb2fe5465d)" style="fill: #1f77b4"/>
   </g>
   <g id="patch_106">
    <path d="M 299.73184 382.84 
L 301.796418 382.84 
L 301.796418 382.84 
L 299.73184 382.84 
z
" clip-path="url(#pdb2fe5465d)" style="fill: #1f77b4"/>
   </g>
   <g id="patch_107">
    <path d="M 301.796418 382.84 
L 303.860995 382.84 
L 303.860995 113.792818 
L 301.796418 113.792818 
z
" clip-path="url(#pdb2fe5465d)" style="fill: #1f77b4"/>
   </g>
   <g id="patch_108">
    <path d="M 303.860995 382.84 
L 305.925573 382.84 
L 305.925573 382.84 
L 303.860995 382.84 
z
" clip-path="url(#pdb2fe5465d)" style="fill: #1f77b4"/>
   </g>
   <g id="patch_109">
    <path d="M 305.925573 382.84 
L 307.99015 382.84 
L 307.99015 96.529407 
L 305.925573 96.529407 
z
" clip-path="url(#pdb2fe5465d)" style="fill: #1f77b4"/>
   </g>
   <g id="patch_110">
    <path d="M 307.99015 382.84 
L 310.054728 382.84 
L 310.054728 382.84 
L 307.99015 382.84 
z
" clip-path="url(#pdb2fe5465d)" style="fill: #1f77b4"/>
   </g>
   <g id="patch_111">
    <path d="M 310.054728 382.84 
L 312.119306 382.84 
L 312.119306 82.734092 
L 310.054728 82.734092 
z
" clip-path="url(#pdb2fe5465d)" style="fill: #1f77b4"/>
   </g>
   <g id="patch_112">
    <path d="M 312.119306 382.84 
L 314.183883 382.84 
L 314.183883 382.84 
L 312.119306 382.84 
z
" clip-path="url(#pdb2fe5465d)" style="fill: #1f77b4"/>
   </g>
   <g id="patch_113">
    <path d="M 314.183883 382.84 
L 316.248461 382.84 
L 316.248461 67.358866 
L 314.183883 67.358866 
z
" clip-path="url(#pdb2fe5465d)" style="fill: #1f77b4"/>
   </g>
   <g id="patch_114">
    <path d="M 316.248461 382.84 
L 318.313038 382.84 
L 318.313038 382.84 
L 316.248461 382.84 
z
" clip-path="url(#pdb2fe5465d)" style="fill: #1f77b4"/>
   </g>
   <g id="patch_115">
    <path d="M 318.313038 382.84 
L 320.377616 382.84 
L 320.377616 59.844658 
L 318.313038 59.844658 
z
" clip-path="url(#pdb2fe5465d)" style="fill: #1f77b4"/>
   </g>
   <g id="patch_116">
    <path d="M 320.377616 382.84 
L 322.442193 382.84 
L 322.442193 382.84 
L 320.377616 382.84 
z
" clip-path="url(#pdb2fe5465d)" style="fill: #1f77b4"/>
   </g>
   <g id="patch_117">
    <path d="M 322.442193 382.84 
L 324.506771 382.84 
L 324.506771 50.634936 
L 322.442193 50.634936 
z
" clip-path="url(#pdb2fe5465d)" style="fill: #1f77b4"/>
   </g>
   <g id="patch_118">
    <path d="M 324.506771 382.84 
L 326.571348 382.84 
L 326.571348 382.84 
L 324.506771 382.84 
z
" clip-path="url(#pdb2fe5465d)" style="fill: #1f77b4"/>
   </g>
   <g id="patch_119">
    <path d="M 326.571348 382.84 
L 328.635926 382.84 
L 328.635926 43.467538 
L 326.571348 43.467538 
z
" clip-path="url(#pdb2fe5465d)" style="fill: #1f77b4"/>
   </g>
   <g id="patch_120">
    <path d="M 328.635926 382.84 
L 330.700503 382.84 
L 330.700503 382.84 
L 328.635926 382.84 
z
" clip-path="url(#pdb2fe5465d)" style="fill: #1f77b4"/>
   </g>
   <g id="patch_121">
    <path d="M 330.700503 382.84 
L 332.765081 382.84 
L 332.765081 38.535135 
L 330.700503 38.535135 
z
" clip-path="url(#pdb2fe5465d)" style="fill: #1f77b4"/>
   </g>
   <g id="patch_122">
    <path d="M 332.765081 382.84 
L 334.829659 382.84 
L 334.829659 382.84 
L 332.765081 382.84 
z
" clip-path="url(#pdb2fe5465d)" style="fill: #1f77b4"/>
   </g>
   <g id="patch_123">
    <path d="M 334.829659 382.84 
L 336.894236 382.84 
L 336.894236 37.224965 
L 334.829659 37.224965 
z
" clip-path="url(#pdb2fe5465d)" style="fill: #1f77b4"/>
   </g>
   <g id="patch_124">
    <path d="M 336.894236 382.84 
L 338.958814 382.84 
L 338.958814 382.84 
L 336.894236 382.84 
z
" clip-path="url(#pdb2fe5465d)" style="fill: #1f77b4"/>
   </g>
   <g id="patch_125">
    <path d="M 338.958814 382.84 
L 341.023391 382.84 
L 341.023391 28.51619 
L 338.958814 28.51619 
z
" clip-path="url(#pdb2fe5465d)" style="fill: #1f77b4"/>
   </g>
   <g id="patch_126">
    <path d="M 341.023391 382.84 
L 343.087969 382.84 
L 343.087969 382.84 
L 341.023391 382.84 
z
" clip-path="url(#pdb2fe5465d)" style="fill: #1f77b4"/>
   </g>
   <g id="patch_127">
    <path d="M 343.087969 382.84 
L 345.152546 382.84 
L 345.152546 38.612203 
L 343.087969 38.612203 
z
" clip-path="url(#pdb2fe5465d)" style="fill: #1f77b4"/>
   </g>
   <g id="patch_128">
    <path d="M 345.152546 382.84 
L 347.217124 382.84 
L 347.217124 382.84 
L 345.152546 382.84 
z
" clip-path="url(#pdb2fe5465d)" style="fill: #1f77b4"/>
   </g>
   <g id="patch_129">
    <path d="M 347.217124 382.84 
L 349.281701 382.84 
L 349.281701 46.010808 
L 347.217124 46.010808 
z
" clip-path="url(#pdb2fe5465d)" style="fill: #1f77b4"/>
   </g>
   <g id="patch_130">
    <path d="M 349.281701 382.84 
L 351.346279 382.84 
L 351.346279 382.84 
L 349.281701 382.84 
z
" clip-path="url(#pdb2fe5465d)" style="fill: #1f77b4"/>
   </g>
   <g id="patch_131">
    <path d="M 351.346279 382.84 
L 353.410856 382.84 
L 353.410856 57.070181 
L 351.346279 57.070181 
z
" clip-path="url(#pdb2fe5465d)" style="fill: #1f77b4"/>
   </g>
   <g id="patch_132">
    <path d="M 353.410856 382.84 
L 355.475434 382.84 
L 355.475434 382.84 
L 353.410856 382.84 
z
" clip-path="url(#pdb2fe5465d)" style="fill: #1f77b4"/>
   </g>
   <g id="patch_133">
    <path d="M 355.475434 382.84 
L 357.540012 382.84 
L 357.540012 67.513003 
L 355.475434 67.513003 
z
" clip-path="url(#pdb2fe5465d)" style="fill: #1f77b4"/>
   </g>
   <g id="patch_134">
    <path d="M 357.540012 382.84 
L 359.604589 382.84 
L 359.604589 382.84 
L 357.540012 382.84 
z
" clip-path="url(#pdb2fe5465d)" style="fill: #1f77b4"/>
   </g>
   <g id="patch_135">
    <path d="M 359.604589 382.84 
L 361.669167 382.84 
L 361.669167 89.747352 
L 359.604589 89.747352 
z
" clip-path="url(#pdb2fe5465d)" style="fill: #1f77b4"/>
   </g>
   <g id="patch_136">
    <path d="M 361.669167 382.84 
L 363.733744 382.84 
L 363.733744 382.84 
L 361.669167 382.84 
z
" clip-path="url(#pdb2fe5465d)" style="fill: #1f77b4"/>
   </g>
   <g id="patch_137">
    <path d="M 363.733744 382.84 
L 365.798322 382.84 
L 365.798322 94.988031 
L 363.733744 94.988031 
z
" clip-path="url(#pdb2fe5465d)" style="fill: #1f77b4"/>
   </g>
   <g id="patch_138">
    <path d="M 365.798322 382.84 
L 367.862899 382.84 
L 367.862899 382.84 
L 365.798322 382.84 
z
" clip-path="url(#pdb2fe5465d)" style="fill: #1f77b4"/>
   </g>
   <g id="patch_139">
    <path d="M 367.862899 382.84 
L 369.927477 382.84 
L 369.927477 113.792818 
L 367.862899 113.792818 
z
" clip-path="url(#pdb2fe5465d)" style="fill: #1f77b4"/>
   </g>
   <g id="patch_140">
    <path d="M 369.927477 382.84 
L 371.992054 382.84 
L 371.992054 382.84 
L 369.927477 382.84 
z
" clip-path="url(#pdb2fe5465d)" style="fill: #1f77b4"/>
   </g>
   <g id="patch_141">
    <path d="M 371.992054 382.84 
L 374.056632 382.84 
L 374.056632 133.715103 
L 371.992054 133.715103 
z
" clip-path="url(#pdb2fe5465d)" style="fill: #1f77b4"/>
   </g>
   <g id="patch_142">
    <path d="M 374.056632 382.84 
L 376.121209 382.84 
L 376.121209 382.84 
L 374.056632 382.84 
z
" clip-path="url(#pdb2fe5465d)" style="fill: #1f77b4"/>
   </g>
   <g id="patch_143">
    <path d="M 376.121209 382.84 
L 378.185787 382.84 
L 378.185787 147.202143 
L 376.121209 147.202143 
z
" clip-path="url(#pdb2fe5465d)" style="fill: #1f77b4"/>
   </g>
   <g id="patch_144">
    <path d="M 378.185787 382.84 
L 380.250365 382.84 
L 380.250365 382.84 
L 378.185787 382.84 
z
" clip-path="url(#pdb2fe5465d)" style="fill: #1f77b4"/>
   </g>
   <g id="patch_145">
    <path d="M 380.250365 382.84 
L 382.314942 382.84 
L 382.314942 159.571685 
L 380.250365 159.571685 
z
" clip-path="url(#pdb2fe5465d)" style="fill: #1f77b4"/>
   </g>
   <g id="patch_146">
    <path d="M 382.314942 382.84 
L 384.37952 382.84 
L 384.37952 382.84 
L 382.314942 382.84 
z
" clip-path="url(#pdb2fe5465d)" style="fill: #1f77b4"/>
   </g>
   <g id="patch_147">
    <path d="M 384.37952 382.84 
L 386.444097 382.84 
L 386.444097 183.154738 
L 384.37952 183.154738 
z
" clip-path="url(#pdb2fe5465d)" style="fill: #1f77b4"/>
   </g>
   <g id="patch_148">
    <path d="M 386.444097 382.84 
L 388.508675 382.84 
L 388.508675 382.84 
L 386.444097 382.84 
z
" clip-path="url(#pdb2fe5465d)" style="fill: #1f77b4"/>
   </g>
   <g id="patch_149">
    <path d="M 388.508675 382.84 
L 390.573252 382.84 
L 390.573252 198.414361 
L 388.508675 198.414361 
z
" clip-path="url(#pdb2fe5465d)" style="fill: #1f77b4"/>
   </g>
   <g id="patch_150">
    <path d="M 390.573252 382.84 
L 392.63783 382.84 
L 392.63783 382.84 
L 390.573252 382.84 
z
" clip-path="url(#pdb2fe5465d)" style="fill: #1f77b4"/>
   </g>
   <g id="patch_151">
    <path d="M 392.63783 382.84 
L 394.702407 382.84 
L 394.702407 216.409926 
L 392.63783 216.409926 
z
" clip-path="url(#pdb2fe5465d)" style="fill: #1f77b4"/>
   </g>
   <g id="patch_152">
    <path d="M 394.702407 382.84 
L 396.766985 382.84 
L 396.766985 382.84 
L 394.702407 382.84 
z
" clip-path="url(#pdb2fe5465d)" style="fill: #1f77b4"/>
   </g>
   <g id="patch_153">
    <path d="M 396.766985 382.84 
L 398.831562 382.84 
L 398.831562 229.164812 
L 396.766985 229.164812 
z
" clip-path="url(#pdb2fe5465d)" style="fill: #1f77b4"/>
   </g>
   <g id="patch_154">
    <path d="M 398.831562 382.84 
L 400.89614 382.84 
L 400.89614 382.84 
L 398.831562 382.84 
z
" clip-path="url(#pdb2fe5465d)" style="fill: #1f77b4"/>
   </g>
   <g id="patch_155">
    <path d="M 400.89614 382.84 
L 402.960718 382.84 
L 402.960718 243.42254 
L 400.89614 243.42254 
z
" clip-path="url(#pdb2fe5465d)" style="fill: #1f77b4"/>
   </g>
   <g id="patch_156">
    <path d="M 402.960718 382.84 
L 405.025295 382.84 
L 405.025295 382.84 
L 402.960718 382.84 
z
" clip-path="url(#pdb2fe5465d)" style="fill: #1f77b4"/>
   </g>
   <g id="patch_157">
    <path d="M 405.025295 382.84 
L 407.089873 382.84 
L 407.089873 252.516659 
L 405.025295 252.516659 
z
" clip-path="url(#pdb2fe5465d)" style="fill: #1f77b4"/>
   </g>
   <g id="patch_158">
    <path d="M 407.089873 382.84 
L 409.15445 382.84 
L 409.15445 382.84 
L 407.089873 382.84 
z
" clip-path="url(#pdb2fe5465d)" style="fill: #1f77b4"/>
   </g>
   <g id="patch_159">
    <path d="M 409.15445 382.84 
L 411.219028 382.84 
L 411.219028 264.269651 
L 409.15445 264.269651 
z
" clip-path="url(#pdb2fe5465d)" style="fill: #1f77b4"/>
   </g>
   <g id="patch_160">
    <path d="M 411.219028 382.84 
L 413.283605 382.84 
L 413.283605 382.84 
L 411.219028 382.84 
z
" clip-path="url(#pdb2fe5465d)" style="fill: #1f77b4"/>
   </g>
   <g id="patch_161">
    <path d="M 413.283605 382.84 
L 415.348183 382.84 
L 415.348183 279.06686 
L 413.283605 279.06686 
z
" clip-path="url(#pdb2fe5465d)" style="fill: #1f77b4"/>
   </g>
   <g id="patch_162">
    <path d="M 415.348183 382.84 
L 417.41276 382.84 
L 417.41276 382.84 
L 415.348183 382.84 
z
" clip-path="url(#pdb2fe5465d)" style="fill: #1f77b4"/>
   </g>
   <g id="patch_163">
    <path d="M 417.41276 382.84 
L 419.477338 382.84 
L 419.477338 294.557689 
L 417.41276 294.557689 
z
" clip-path="url(#pdb2fe5465d)" style="fill: #1f77b4"/>
   </g>
   <g id="patch_164">
    <path d="M 419.477338 382.84 
L 421.541915 382.84 
L 421.541915 382.84 
L 419.477338 382.84 
z
" clip-path="url(#pdb2fe5465d)" style="fill: #1f77b4"/>
   </g>
   <g id="patch_165">
    <path d="M 421.541915 382.84 
L 423.606493 382.84 
L 423.606493 295.135705 
L 421.541915 295.135705 
z
" clip-path="url(#pdb2fe5465d)" style="fill: #1f77b4"/>
   </g>
   <g id="patch_166">
    <path d="M 423.606493 382.84 
L 425.671071 382.84 
L 425.671071 382.84 
L 423.606493 382.84 
z
" clip-path="url(#pdb2fe5465d)" style="fill: #1f77b4"/>
   </g>
   <g id="patch_167">
    <path d="M 425.671071 382.84 
L 427.735648 382.84 
L 427.735648 307.852057 
L 425.671071 307.852057 
z
" clip-path="url(#pdb2fe5465d)" style="fill: #1f77b4"/>
   </g>
   <g id="patch_168">
    <path d="M 427.735648 382.84 
L 429.800226 382.84 
L 429.800226 382.84 
L 427.735648 382.84 
z
" clip-path="url(#pdb2fe5465d)" style="fill: #1f77b4"/>
   </g>
   <g id="patch_169">
    <path d="M 429.800226 382.84 
L 431.864803 382.84 
L 431.864803 315.443334 
L 429.800226 315.443334 
z
" clip-path="url(#pdb2fe5465d)" style="fill: #1f77b4"/>
   </g>
   <g id="patch_170">
    <path d="M 431.864803 382.84 
L 433.929381 382.84 
L 433.929381 382.84 
L 431.864803 382.84 
z
" clip-path="url(#pdb2fe5465d)" style="fill: #1f77b4"/>
   </g>
   <g id="patch_171">
    <path d="M 433.929381 382.84 
L 435.993958 382.84 
L 435.993958 323.227283 
L 433.929381 323.227283 
z
" clip-path="url(#pdb2fe5465d)" style="fill: #1f77b4"/>
   </g>
   <g id="patch_172">
    <path d="M 435.993958 382.84 
L 438.058536 382.84 
L 438.058536 382.84 
L 435.993958 382.84 
z
" clip-path="url(#pdb2fe5465d)" style="fill: #1f77b4"/>
   </g>
   <g id="patch_173">
    <path d="M 438.058536 382.84 
L 440.123113 382.84 
L 440.123113 329.662528 
L 438.058536 329.662528 
z
" clip-path="url(#pdb2fe5465d)" style="fill: #1f77b4"/>
   </g>
   <g id="patch_174">
    <path d="M 440.123113 382.84 
L 442.187691 382.84 
L 442.187691 382.84 
L 440.123113 382.84 
z
" clip-path="url(#pdb2fe5465d)" style="fill: #1f77b4"/>
   </g>
   <g id="patch_175">
    <path d="M 442.187691 382.84 
L 444.252268 382.84 
L 444.252268 336.328979 
L 442.187691 336.328979 
z
" clip-path="url(#pdb2fe5465d)" style="fill: #1f77b4"/>
   </g>
   <g id="patch_176">
    <path d="M 444.252268 382.84 
L 446.316846 382.84 
L 446.316846 382.84 
L 444.252268 382.84 
z
" clip-path="url(#pdb2fe5465d)" style="fill: #1f77b4"/>
   </g>
   <g id="patch_177">
    <path d="M 446.316846 382.84 
L 448.381424 382.84 
L 448.381424 345.808441 
L 446.316846 345.808441 
z
" clip-path="url(#pdb2fe5465d)" style="fill: #1f77b4"/>
   </g>
   <g id="patch_178">
    <path d="M 448.381424 382.84 
L 450.446001 382.84 
L 450.446001 382.84 
L 448.381424 382.84 
z
" clip-path="url(#pdb2fe5465d)" style="fill: #1f77b4"/>
   </g>
   <g id="patch_179">
    <path d="M 450.446001 382.84 
L 452.510579 382.84 
L 452.510579 349.083865 
L 450.446001 349.083865 
z
" clip-path="url(#pdb2fe5465d)" style="fill: #1f77b4"/>
   </g>
   <g id="patch_180">
    <path d="M 452.510579 382.84 
L 454.575156 382.84 
L 454.575156 382.84 
L 452.510579 382.84 
z
" clip-path="url(#pdb2fe5465d)" style="fill: #1f77b4"/>
   </g>
   <g id="patch_181">
    <path d="M 454.575156 382.84 
L 456.639734 382.84 
L 456.639734 356.174195 
L 454.575156 356.174195 
z
" clip-path="url(#pdb2fe5465d)" style="fill: #1f77b4"/>
   </g>
   <g id="patch_182">
    <path d="M 456.639734 382.84 
L 458.704311 382.84 
L 458.704311 382.84 
L 456.639734 382.84 
z
" clip-path="url(#pdb2fe5465d)" style="fill: #1f77b4"/>
   </g>
   <g id="patch_183">
    <path d="M 458.704311 382.84 
L 460.768889 382.84 
L 460.768889 359.680826 
L 458.704311 359.680826 
z
" clip-path="url(#pdb2fe5465d)" style="fill: #1f77b4"/>
   </g>
   <g id="patch_184">
    <path d="M 460.768889 382.84 
L 462.833466 382.84 
L 462.833466 382.84 
L 460.768889 382.84 
z
" clip-path="url(#pdb2fe5465d)" style="fill: #1f77b4"/>
   </g>
   <g id="patch_185">
    <path d="M 462.833466 382.84 
L 464.898044 382.84 
L 464.898044 362.994784 
L 462.833466 362.994784 
z
" clip-path="url(#pdb2fe5465d)" style="fill: #1f77b4"/>
   </g>
   <g id="patch_186">
    <path d="M 464.898044 382.84 
L 466.962621 382.84 
L 466.962621 382.84 
L 464.898044 382.84 
z
" clip-path="url(#pdb2fe5465d)" style="fill: #1f77b4"/>
   </g>
   <g id="patch_187">
    <path d="M 466.962621 382.84 
L 469.027199 382.84 
L 469.027199 367.695981 
L 466.962621 367.695981 
z
" clip-path="url(#pdb2fe5465d)" style="fill: #1f77b4"/>
   </g>
   <g id="patch_188">
    <path d="M 469.027199 382.84 
L 471.091777 382.84 
L 471.091777 382.84 
L 469.027199 382.84 
z
" clip-path="url(#pdb2fe5465d)" style="fill: #1f77b4"/>
   </g>
   <g id="patch_189">
    <path d="M 471.091777 382.84 
L 473.156354 382.84 
L 473.156354 370.508992 
L 471.091777 370.508992 
z
" clip-path="url(#pdb2fe5465d)" style="fill: #1f77b4"/>
   </g>
   <g id="patch_190">
    <path d="M 473.156354 382.84 
L 475.220932 382.84 
L 475.220932 382.84 
L 473.156354 382.84 
z
" clip-path="url(#pdb2fe5465d)" style="fill: #1f77b4"/>
   </g>
   <g id="patch_191">
    <path d="M 475.220932 382.84 
L 477.285509 382.84 
L 477.285509 372.85959 
L 475.220932 372.85959 
z
" clip-path="url(#pdb2fe5465d)" style="fill: #1f77b4"/>
   </g>
   <g id="patch_192">
    <path d="M 477.285509 382.84 
L 479.350087 382.84 
L 479.350087 382.84 
L 477.285509 382.84 
z
" clip-path="url(#pdb2fe5465d)" style="fill: #1f77b4"/>
   </g>
   <g id="patch_193">
    <path d="M 479.350087 382.84 
L 481.414664 382.84 
L 481.414664 374.78631 
L 479.350087 374.78631 
z
" clip-path="url(#pdb2fe5465d)" style="fill: #1f77b4"/>
   </g>
   <g id="patch_194">
    <path d="M 481.414664 382.84 
L 483.479242 382.84 
L 483.479242 376.327686 
L 481.414664 376.327686 
z
" clip-path="url(#pdb2fe5465d)" style="fill: #1f77b4"/>
   </g>
   <g id="patch_195">
    <path d="M 483.479242 382.84 
L 485.543819 382.84 
L 485.543819 382.84 
L 483.479242 382.84 
z
" clip-path="url(#pdb2fe5465d)" style="fill: #1f77b4"/>
   </g>
   <g id="patch_196">
    <path d="M 485.543819 382.84 
L 487.608397 382.84 
L 487.608397 382.84 
L 485.543819 382.84 
z
" clip-path="url(#pdb2fe5465d)" style="fill: #1f77b4"/>
   </g>
   <g id="patch_197">
    <path d="M 487.608397 382.84 
L 489.672974 382.84 
L 489.672974 378.0232 
L 487.608397 378.0232 
z
" clip-path="url(#pdb2fe5465d)" style="fill: #1f77b4"/>
   </g>
   <g id="patch_198">
    <path d="M 489.672974 382.84 
L 491.737552 382.84 
L 491.737552 382.84 
L 489.672974 382.84 
z
" clip-path="url(#pdb2fe5465d)" style="fill: #1f77b4"/>
   </g>
   <g id="patch_199">
    <path d="M 491.737552 382.84 
L 493.80213 382.84 
L 493.80213 378.948026 
L 491.737552 378.948026 
z
" clip-path="url(#pdb2fe5465d)" style="fill: #1f77b4"/>
   </g>
   <g id="patch_200">
    <path d="M 493.80213 382.84 
L 495.866707 382.84 
L 495.866707 382.84 
L 493.80213 382.84 
z
" clip-path="url(#pdb2fe5465d)" style="fill: #1f77b4"/>
   </g>
   <g id="patch_201">
    <path d="M 495.866707 382.84 
L 497.931285 382.84 
L 497.931285 379.872851 
L 495.866707 379.872851 
z
" clip-path="url(#pdb2fe5465d)" style="fill: #1f77b4"/>
   </g>
   <g id="patch_202">
    <path d="M 497.931285 382.84 
L 499.995862 382.84 
L 499.995862 382.84 
L 497.931285 382.84 
z
" clip-path="url(#pdb2fe5465d)" style="fill: #1f77b4"/>
   </g>
   <g id="patch_203">
    <path d="M 499.995862 382.84 
L 502.06044 382.84 
L 502.06044 380.56647 
L 499.995862 380.56647 
z
" clip-path="url(#pdb2fe5465d)" style="fill: #1f77b4"/>
   </g>
   <g id="patch_204">
    <path d="M 502.06044 382.84 
L 504.125017 382.84 
L 504.125017 381.221555 
L 502.06044 381.221555 
z
" clip-path="url(#pdb2fe5465d)" style="fill: #1f77b4"/>
   </g>
   <g id="patch_205">
    <path d="M 504.125017 382.84 
L 506.189595 382.84 
L 506.189595 382.84 
L 504.125017 382.84 
z
" clip-path="url(#pdb2fe5465d)" style="fill: #1f77b4"/>
   </g>
   <g id="patch_206">
    <path d="M 506.189595 382.84 
L 508.254172 382.84 
L 508.254172 382.84 
L 506.189595 382.84 
z
" clip-path="url(#pdb2fe5465d)" style="fill: #1f77b4"/>
   </g>
   <g id="patch_207">
    <path d="M 508.254172 382.84 
L 510.31875 382.84 
L 510.31875 382.030778 
L 508.254172 382.030778 
z
" clip-path="url(#pdb2fe5465d)" style="fill: #1f77b4"/>
   </g>
   <g id="patch_208">
    <path d="M 510.31875 382.84 
L 512.383327 382.84 
L 512.383327 382.84 
L 510.31875 382.84 
z
" clip-path="url(#pdb2fe5465d)" style="fill: #1f77b4"/>
   </g>
   <g id="patch_209">
    <path d="M 512.383327 382.84 
L 514.447905 382.84 
L 514.447905 381.953709 
L 512.383327 381.953709 
z
" clip-path="url(#pdb2fe5465d)" style="fill: #1f77b4"/>
   </g>
   <g id="patch_210">
    <path d="M 514.447905 382.84 
L 516.512483 382.84 
L 516.512483 382.84 
L 514.447905 382.84 
z
" clip-path="url(#pdb2fe5465d)" style="fill: #1f77b4"/>
   </g>
   <g id="patch_211">
    <path d="M 516.512483 382.84 
L 518.57706 382.84 
L 518.57706 382.261984 
L 516.512483 382.261984 
z
" clip-path="url(#pdb2fe5465d)" style="fill: #1f77b4"/>
   </g>
   <g id="patch_212">
    <path d="M 518.57706 382.84 
L 520.641638 382.84 
L 520.641638 382.84 
L 518.57706 382.84 
z
" clip-path="url(#pdb2fe5465d)" style="fill: #1f77b4"/>
   </g>
   <g id="patch_213">
    <path d="M 520.641638 382.84 
L 522.706215 382.84 
L 522.706215 382.49319 
L 520.641638 382.49319 
z
" clip-path="url(#pdb2fe5465d)" style="fill: #1f77b4"/>
   </g>
   <g id="patch_214">
    <path d="M 522.706215 382.84 
L 524.770793 382.84 
L 524.770793 382.724397 
L 522.706215 382.724397 
z
" clip-path="url(#pdb2fe5465d)" style="fill: #1f77b4"/>
   </g>
   <g id="patch_215">
    <path d="M 524.770793 382.84 
L 526.83537 382.84 
L 526.83537 382.84 
L 524.770793 382.84 
z
" clip-path="url(#pdb2fe5465d)" style="fill: #1f77b4"/>
   </g>
   <g id="patch_216">
    <path d="M 526.83537 382.84 
L 528.899948 382.84 
L 528.899948 382.84 
L 526.83537 382.84 
z
" clip-path="url(#pdb2fe5465d)" style="fill: #1f77b4"/>
   </g>
   <g id="patch_217">
    <path d="M 528.899948 382.84 
L 530.964525 382.84 
L 530.964525 382.724397 
L 528.899948 382.724397 
z
" clip-path="url(#pdb2fe5465d)" style="fill: #1f77b4"/>
   </g>
   <g id="patch_218">
    <path d="M 530.964525 382.84 
L 533.029103 382.84 
L 533.029103 382.84 
L 530.964525 382.84 
z
" clip-path="url(#pdb2fe5465d)" style="fill: #1f77b4"/>
   </g>
   <g id="patch_219">
    <path d="M 533.029103 382.84 
L 535.09368 382.84 
L 535.09368 382.84 
L 533.029103 382.84 
z
" clip-path="url(#pdb2fe5465d)" style="fill: #1f77b4"/>
   </g>
   <g id="patch_220">
    <path d="M 535.09368 382.84 
L 537.158258 382.84 
L 537.158258 382.84 
L 535.09368 382.84 
z
" clip-path="url(#pdb2fe5465d)" style="fill: #1f77b4"/>
   </g>
   <g id="patch_221">
    <path d="M 537.158258 382.84 
L 539.222836 382.84 
L 539.222836 382.416122 
L 537.158258 382.416122 
z
" clip-path="url(#pdb2fe5465d)" style="fill: #1f77b4"/>
   </g>
   <g id="patch_222">
    <path d="M 539.222836 382.84 
L 541.287413 382.84 
L 541.287413 382.801466 
L 539.222836 382.801466 
z
" clip-path="url(#pdb2fe5465d)" style="fill: #1f77b4"/>
   </g>
   <g id="matplotlib.axis_1">
    <g id="xtick_1">
     <g id="line2d_1">
      <defs>
       <path id="m9d8b43ff9e" d="M 0 0 
L 0 3.5 
" style="stroke: #000000; stroke-width: 0.8"/>
      </defs>
      <g>
       <use xlink:href="#m9d8b43ff9e" x="140.759369" y="382.84" style="stroke: #000000; stroke-width: 0.8"/>
      </g>
     </g>
     <g id="text_1">
      <!-- −14 -->
      <g transform="translate(130.207025 397.438438) scale(0.1 -0.1)">
       <defs>
        <path id="DejaVuSans-2212" d="M 678 2272 
L 4684 2272 
L 4684 1741 
L 678 1741 
L 678 2272 
z
" transform="scale(0.015625)"/>
        <path id="DejaVuSans-31" d="M 794 531 
L 1825 531 
L 1825 4091 
L 703 3866 
L 703 4441 
L 1819 4666 
L 2450 4666 
L 2450 531 
L 3481 531 
L 3481 0 
L 794 0 
L 794 531 
z
" transform="scale(0.015625)"/>
        <path id="DejaVuSans-34" d="M 2419 4116 
L 825 1625 
L 2419 1625 
L 2419 4116 
z
M 2253 4666 
L 3047 4666 
L 3047 1625 
L 3713 1625 
L 3713 1100 
L 3047 1100 
L 3047 0 
L 2419 0 
L 2419 1100 
L 313 1100 
L 313 1709 
L 2253 4666 
z
" transform="scale(0.015625)"/>
       </defs>
       <use xlink:href="#DejaVuSans-2212"/>
       <use xlink:href="#DejaVuSans-31" x="83.789062"/>
       <use xlink:href="#DejaVuSans-34" x="147.412109"/>
      </g>
     </g>
    </g>
    <g id="xtick_2">
     <g id="line2d_2">
      <g>
       <use xlink:href="#m9d8b43ff9e" x="223.342471" y="382.84" style="stroke: #000000; stroke-width: 0.8"/>
      </g>
     </g>
     <g id="text_2">
      <!-- −12 -->
      <g transform="translate(212.790127 397.438438) scale(0.1 -0.1)">
       <defs>
        <path id="DejaVuSans-32" d="M 1228 531 
L 3431 531 
L 3431 0 
L 469 0 
L 469 531 
Q 828 903 1448 1529 
Q 2069 2156 2228 2338 
Q 2531 2678 2651 2914 
Q 2772 3150 2772 3378 
Q 2772 3750 2511 3984 
Q 2250 4219 1831 4219 
Q 1534 4219 1204 4116 
Q 875 4013 500 3803 
L 500 4441 
Q 881 4594 1212 4672 
Q 1544 4750 1819 4750 
Q 2544 4750 2975 4387 
Q 3406 4025 3406 3419 
Q 3406 3131 3298 2873 
Q 3191 2616 2906 2266 
Q 2828 2175 2409 1742 
Q 1991 1309 1228 531 
z
" transform="scale(0.015625)"/>
       </defs>
       <use xlink:href="#DejaVuSans-2212"/>
       <use xlink:href="#DejaVuSans-31" x="83.789062"/>
       <use xlink:href="#DejaVuSans-32" x="147.412109"/>
      </g>
     </g>
    </g>
    <g id="xtick_3">
     <g id="line2d_3">
      <g>
       <use xlink:href="#m9d8b43ff9e" x="305.925573" y="382.84" style="stroke: #000000; stroke-width: 0.8"/>
      </g>
     </g>
     <g id="text_3">
      <!-- −10 -->
      <g transform="translate(295.373229 397.438438) scale(0.1 -0.1)">
       <defs>
        <path id="DejaVuSans-30" d="M 2034 4250 
Q 1547 4250 1301 3770 
Q 1056 3291 1056 2328 
Q 1056 1369 1301 889 
Q 1547 409 2034 409 
Q 2525 409 2770 889 
Q 3016 1369 3016 2328 
Q 3016 3291 2770 3770 
Q 2525 4250 2034 4250 
z
M 2034 4750 
Q 2819 4750 3233 4129 
Q 3647 3509 3647 2328 
Q 3647 1150 3233 529 
Q 2819 -91 2034 -91 
Q 1250 -91 836 529 
Q 422 1150 422 2328 
Q 422 3509 836 4129 
Q 1250 4750 2034 4750 
z
" transform="scale(0.015625)"/>
       </defs>
       <use xlink:href="#DejaVuSans-2212"/>
       <use xlink:href="#DejaVuSans-31" x="83.789062"/>
       <use xlink:href="#DejaVuSans-30" x="147.412109"/>
      </g>
     </g>
    </g>
    <g id="xtick_4">
     <g id="line2d_4">
      <g>
       <use xlink:href="#m9d8b43ff9e" x="388.508675" y="382.84" style="stroke: #000000; stroke-width: 0.8"/>
      </g>
     </g>
     <g id="text_4">
      <!-- −8 -->
      <g transform="translate(381.137581 397.438438) scale(0.1 -0.1)">
       <defs>
        <path id="DejaVuSans-38" d="M 2034 2216 
Q 1584 2216 1326 1975 
Q 1069 1734 1069 1313 
Q 1069 891 1326 650 
Q 1584 409 2034 409 
Q 2484 409 2743 651 
Q 3003 894 3003 1313 
Q 3003 1734 2745 1975 
Q 2488 2216 2034 2216 
z
M 1403 2484 
Q 997 2584 770 2862 
Q 544 3141 544 3541 
Q 544 4100 942 4425 
Q 1341 4750 2034 4750 
Q 2731 4750 3128 4425 
Q 3525 4100 3525 3541 
Q 3525 3141 3298 2862 
Q 3072 2584 2669 2484 
Q 3125 2378 3379 2068 
Q 3634 1759 3634 1313 
Q 3634 634 3220 271 
Q 2806 -91 2034 -91 
Q 1263 -91 848 271 
Q 434 634 434 1313 
Q 434 1759 690 2068 
Q 947 2378 1403 2484 
z
M 1172 3481 
Q 1172 3119 1398 2916 
Q 1625 2713 2034 2713 
Q 2441 2713 2670 2916 
Q 2900 3119 2900 3481 
Q 2900 3844 2670 4047 
Q 2441 4250 2034 4250 
Q 1625 4250 1398 4047 
Q 1172 3844 1172 3481 
z
" transform="scale(0.015625)"/>
       </defs>
       <use xlink:href="#DejaVuSans-2212"/>
       <use xlink:href="#DejaVuSans-38" x="83.789062"/>
      </g>
     </g>
    </g>
    <g id="xtick_5">
     <g id="line2d_5">
      <g>
       <use xlink:href="#m9d8b43ff9e" x="471.091777" y="382.84" style="stroke: #000000; stroke-width: 0.8"/>
      </g>
     </g>
     <g id="text_5">
      <!-- −6 -->
      <g transform="translate(463.720683 397.438438) scale(0.1 -0.1)">
       <defs>
        <path id="DejaVuSans-36" d="M 2113 2584 
Q 1688 2584 1439 2293 
Q 1191 2003 1191 1497 
Q 1191 994 1439 701 
Q 1688 409 2113 409 
Q 2538 409 2786 701 
Q 3034 994 3034 1497 
Q 3034 2003 2786 2293 
Q 2538 2584 2113 2584 
z
M 3366 4563 
L 3366 3988 
Q 3128 4100 2886 4159 
Q 2644 4219 2406 4219 
Q 1781 4219 1451 3797 
Q 1122 3375 1075 2522 
Q 1259 2794 1537 2939 
Q 1816 3084 2150 3084 
Q 2853 3084 3261 2657 
Q 3669 2231 3669 1497 
Q 3669 778 3244 343 
Q 2819 -91 2113 -91 
Q 1303 -91 875 529 
Q 447 1150 447 2328 
Q 447 3434 972 4092 
Q 1497 4750 2381 4750 
Q 2619 4750 2861 4703 
Q 3103 4656 3366 4563 
z
" transform="scale(0.015625)"/>
       </defs>
       <use xlink:href="#DejaVuSans-2212"/>
       <use xlink:href="#DejaVuSans-36" x="83.789062"/>
      </g>
     </g>
    </g>
    <g id="xtick_6">
     <g id="line2d_6">
      <g>
       <use xlink:href="#m9d8b43ff9e" x="553.674878" y="382.84" style="stroke: #000000; stroke-width: 0.8"/>
      </g>
     </g>
     <g id="text_6">
      <!-- −4 -->
      <g transform="translate(546.303785 397.438438) scale(0.1 -0.1)">
       <use xlink:href="#DejaVuSans-2212"/>
       <use xlink:href="#DejaVuSans-34" x="83.789062"/>
      </g>
     </g>
    </g>
    <g id="text_7">
     <!-- PARP1 -->
     <g transform="translate(285.767789 417.195312) scale(0.18 -0.18)">
      <defs>
       <path id="DejaVuSans-50" d="M 1259 4147 
L 1259 2394 
L 2053 2394 
Q 2494 2394 2734 2622 
Q 2975 2850 2975 3272 
Q 2975 3691 2734 3919 
Q 2494 4147 2053 4147 
L 1259 4147 
z
M 628 4666 
L 2053 4666 
Q 2838 4666 3239 4311 
Q 3641 3956 3641 3272 
Q 3641 2581 3239 2228 
Q 2838 1875 2053 1875 
L 1259 1875 
L 1259 0 
L 628 0 
L 628 4666 
z
" transform="scale(0.015625)"/>
       <path id="DejaVuSans-41" d="M 2188 4044 
L 1331 1722 
L 3047 1722 
L 2188 4044 
z
M 1831 4666 
L 2547 4666 
L 4325 0 
L 3669 0 
L 3244 1197 
L 1141 1197 
L 716 0 
L 50 0 
L 1831 4666 
z
" transform="scale(0.015625)"/>
       <path id="DejaVuSans-52" d="M 2841 2188 
Q 3044 2119 3236 1894 
Q 3428 1669 3622 1275 
L 4263 0 
L 3584 0 
L 2988 1197 
Q 2756 1666 2539 1819 
Q 2322 1972 1947 1972 
L 1259 1972 
L 1259 0 
L 628 0 
L 628 4666 
L 2053 4666 
Q 2853 4666 3247 4331 
Q 3641 3997 3641 3322 
Q 3641 2881 3436 2590 
Q 3231 2300 2841 2188 
z
M 1259 4147 
L 1259 2491 
L 2053 2491 
Q 2509 2491 2742 2702 
Q 2975 2913 2975 3322 
Q 2975 3731 2742 3939 
Q 2509 4147 2053 4147 
L 1259 4147 
z
" transform="scale(0.015625)"/>
      </defs>
      <use xlink:href="#DejaVuSans-50"/>
      <use xlink:href="#DejaVuSans-41" x="53.927734"/>
      <use xlink:href="#DejaVuSans-52" x="122.335938"/>
      <use xlink:href="#DejaVuSans-50" x="191.818359"/>
      <use xlink:href="#DejaVuSans-31" x="252.121094"/>
     </g>
    </g>
   </g>
   <g id="matplotlib.axis_2">
    <g id="ytick_1">
     <g id="line2d_7">
      <defs>
       <path id="mec6c4d675b" d="M 0 0 
L -3.5 0 
" style="stroke: #000000; stroke-width: 0.8"/>
      </defs>
      <g>
       <use xlink:href="#mec6c4d675b" x="64.37" y="382.84" style="stroke: #000000; stroke-width: 0.8"/>
      </g>
     </g>
     <g id="text_8">
      <!-- 0 -->
      <g transform="translate(51.0075 386.639219) scale(0.1 -0.1)">
       <use xlink:href="#DejaVuSans-30"/>
      </g>
     </g>
    </g>
    <g id="ytick_2">
     <g id="line2d_8">
      <g>
       <use xlink:href="#mec6c4d675b" x="64.37" y="305.7712" style="stroke: #000000; stroke-width: 0.8"/>
      </g>
     </g>
     <g id="text_9">
      <!-- 2000 -->
      <g transform="translate(31.92 309.570418) scale(0.1 -0.1)">
       <use xlink:href="#DejaVuSans-32"/>
       <use xlink:href="#DejaVuSans-30" x="63.623047"/>
       <use xlink:href="#DejaVuSans-30" x="127.246094"/>
       <use xlink:href="#DejaVuSans-30" x="190.869141"/>
      </g>
     </g>
    </g>
    <g id="ytick_3">
     <g id="line2d_9">
      <g>
       <use xlink:href="#mec6c4d675b" x="64.37" y="228.702399" style="stroke: #000000; stroke-width: 0.8"/>
      </g>
     </g>
     <g id="text_10">
      <!-- 4000 -->
      <g transform="translate(31.92 232.501618) scale(0.1 -0.1)">
       <use xlink:href="#DejaVuSans-34"/>
       <use xlink:href="#DejaVuSans-30" x="63.623047"/>
       <use xlink:href="#DejaVuSans-30" x="127.246094"/>
       <use xlink:href="#DejaVuSans-30" x="190.869141"/>
      </g>
     </g>
    </g>
    <g id="ytick_4">
     <g id="line2d_10">
      <g>
       <use xlink:href="#mec6c4d675b" x="64.37" y="151.633599" style="stroke: #000000; stroke-width: 0.8"/>
      </g>
     </g>
     <g id="text_11">
      <!-- 6000 -->
      <g transform="translate(31.92 155.432818) scale(0.1 -0.1)">
       <use xlink:href="#DejaVuSans-36"/>
       <use xlink:href="#DejaVuSans-30" x="63.623047"/>
       <use xlink:href="#DejaVuSans-30" x="127.246094"/>
       <use xlink:href="#DejaVuSans-30" x="190.869141"/>
      </g>
     </g>
    </g>
    <g id="ytick_5">
     <g id="line2d_11">
      <g>
       <use xlink:href="#mec6c4d675b" x="64.37" y="74.564799" style="stroke: #000000; stroke-width: 0.8"/>
      </g>
     </g>
     <g id="text_12">
      <!-- 8000 -->
      <g transform="translate(31.92 78.364017) scale(0.1 -0.1)">
       <use xlink:href="#DejaVuSans-38"/>
       <use xlink:href="#DejaVuSans-30" x="63.623047"/>
       <use xlink:href="#DejaVuSans-30" x="127.246094"/>
       <use xlink:href="#DejaVuSans-30" x="190.869141"/>
      </g>
     </g>
    </g>
    <g id="text_13">
     <!-- Count -->
     <g transform="translate(24.176563 223.547188) rotate(-90) scale(0.18 -0.18)">
      <defs>
       <path id="DejaVuSans-43" d="M 4122 4306 
L 4122 3641 
Q 3803 3938 3442 4084 
Q 3081 4231 2675 4231 
Q 1875 4231 1450 3742 
Q 1025 3253 1025 2328 
Q 1025 1406 1450 917 
Q 1875 428 2675 428 
Q 3081 428 3442 575 
Q 3803 722 4122 1019 
L 4122 359 
Q 3791 134 3420 21 
Q 3050 -91 2638 -91 
Q 1578 -91 968 557 
Q 359 1206 359 2328 
Q 359 3453 968 4101 
Q 1578 4750 2638 4750 
Q 3056 4750 3426 4639 
Q 3797 4528 4122 4306 
z
" transform="scale(0.015625)"/>
       <path id="DejaVuSans-6f" d="M 1959 3097 
Q 1497 3097 1228 2736 
Q 959 2375 959 1747 
Q 959 1119 1226 758 
Q 1494 397 1959 397 
Q 2419 397 2687 759 
Q 2956 1122 2956 1747 
Q 2956 2369 2687 2733 
Q 2419 3097 1959 3097 
z
M 1959 3584 
Q 2709 3584 3137 3096 
Q 3566 2609 3566 1747 
Q 3566 888 3137 398 
Q 2709 -91 1959 -91 
Q 1206 -91 779 398 
Q 353 888 353 1747 
Q 353 2609 779 3096 
Q 1206 3584 1959 3584 
z
" transform="scale(0.015625)"/>
       <path id="DejaVuSans-75" d="M 544 1381 
L 544 3500 
L 1119 3500 
L 1119 1403 
Q 1119 906 1312 657 
Q 1506 409 1894 409 
Q 2359 409 2629 706 
Q 2900 1003 2900 1516 
L 2900 3500 
L 3475 3500 
L 3475 0 
L 2900 0 
L 2900 538 
Q 2691 219 2414 64 
Q 2138 -91 1772 -91 
Q 1169 -91 856 284 
Q 544 659 544 1381 
z
M 1991 3584 
L 1991 3584 
z
" transform="scale(0.015625)"/>
       <path id="DejaVuSans-6e" d="M 3513 2113 
L 3513 0 
L 2938 0 
L 2938 2094 
Q 2938 2591 2744 2837 
Q 2550 3084 2163 3084 
Q 1697 3084 1428 2787 
Q 1159 2491 1159 1978 
L 1159 0 
L 581 0 
L 581 3500 
L 1159 3500 
L 1159 2956 
Q 1366 3272 1645 3428 
Q 1925 3584 2291 3584 
Q 2894 3584 3203 3211 
Q 3513 2838 3513 2113 
z
" transform="scale(0.015625)"/>
       <path id="DejaVuSans-74" d="M 1172 4494 
L 1172 3500 
L 2356 3500 
L 2356 3053 
L 1172 3053 
L 1172 1153 
Q 1172 725 1289 603 
Q 1406 481 1766 481 
L 2356 481 
L 2356 0 
L 1766 0 
Q 1100 0 847 248 
Q 594 497 594 1153 
L 594 3053 
L 172 3053 
L 172 3500 
L 594 3500 
L 594 4494 
L 1172 4494 
z
" transform="scale(0.015625)"/>
      </defs>
      <use xlink:href="#DejaVuSans-43"/>
      <use xlink:href="#DejaVuSans-6f" x="69.824219"/>
      <use xlink:href="#DejaVuSans-75" x="131.005859"/>
      <use xlink:href="#DejaVuSans-6e" x="194.384766"/>
      <use xlink:href="#DejaVuSans-74" x="257.763672"/>
     </g>
    </g>
   </g>
   <g id="line2d_12">
    <path d="M 289.408953 382.84 
L 289.408953 28.51619 
" clip-path="url(#pdb2fe5465d)" style="fill: none; stroke: #ff0000; stroke-width: 1.6; stroke-linecap: square"/>
   </g>
   <g id="patch_223">
    <path d="M 64.37 382.84 
L 64.37 10.8 
" style="fill: none; stroke: #000000; stroke-width: 0.8; stroke-linejoin: miter; stroke-linecap: square"/>
   </g>
   <g id="patch_224">
    <path d="M 563.997766 382.84 
L 563.997766 10.8 
" style="fill: none; stroke: #000000; stroke-width: 0.8; stroke-linejoin: miter; stroke-linecap: square"/>
   </g>
   <g id="patch_225">
    <path d="M 64.37 382.84 
L 563.997766 382.84 
" style="fill: none; stroke: #000000; stroke-width: 0.8; stroke-linejoin: miter; stroke-linecap: square"/>
   </g>
   <g id="patch_226">
    <path d="M 64.37 10.8 
L 563.997766 10.8 
" style="fill: none; stroke: #000000; stroke-width: 0.8; stroke-linejoin: miter; stroke-linecap: square"/>
   </g>
   <g id="text_14">
    <!-- $\mu_12 = -9.18$ -->
    <g transform="translate(414.109436 61.649937) scale(0.21 -0.21)">
     <defs>
      <path id="DejaVuSans-Oblique-3bc" d="M -84 -1331 
L 856 3500 
L 1434 3500 
L 1009 1322 
Q 997 1256 987 1175 
Q 978 1094 978 1013 
Q 978 722 1161 565 
Q 1344 409 1684 409 
Q 2147 409 2431 671 
Q 2716 934 2816 1459 
L 3213 3500 
L 3788 3500 
L 3266 809 
Q 3253 750 3248 706 
Q 3244 663 3244 628 
Q 3244 531 3283 486 
Q 3322 441 3406 441 
Q 3438 441 3492 456 
Q 3547 472 3647 513 
L 3559 50 
Q 3422 -19 3297 -55 
Q 3172 -91 3053 -91 
Q 2847 -91 2730 40 
Q 2613 172 2613 403 
Q 2438 153 2195 31 
Q 1953 -91 1625 -91 
Q 1334 -91 1117 43 
Q 900 178 831 397 
L 494 -1331 
L -84 -1331 
z
" transform="scale(0.015625)"/>
      <path id="DejaVuSans-3d" d="M 678 2906 
L 4684 2906 
L 4684 2381 
L 678 2381 
L 678 2906 
z
M 678 1631 
L 4684 1631 
L 4684 1100 
L 678 1100 
L 678 1631 
z
" transform="scale(0.015625)"/>
      <path id="DejaVuSans-39" d="M 703 97 
L 703 672 
Q 941 559 1184 500 
Q 1428 441 1663 441 
Q 2288 441 2617 861 
Q 2947 1281 2994 2138 
Q 2813 1869 2534 1725 
Q 2256 1581 1919 1581 
Q 1219 1581 811 2004 
Q 403 2428 403 3163 
Q 403 3881 828 4315 
Q 1253 4750 1959 4750 
Q 2769 4750 3195 4129 
Q 3622 3509 3622 2328 
Q 3622 1225 3098 567 
Q 2575 -91 1691 -91 
Q 1453 -91 1209 -44 
Q 966 3 703 97 
z
M 1959 2075 
Q 2384 2075 2632 2365 
Q 2881 2656 2881 3163 
Q 2881 3666 2632 3958 
Q 2384 4250 1959 4250 
Q 1534 4250 1286 3958 
Q 1038 3666 1038 3163 
Q 1038 2656 1286 2365 
Q 1534 2075 1959 2075 
z
" transform="scale(0.015625)"/>
      <path id="DejaVuSans-2e" d="M 684 794 
L 1344 794 
L 1344 0 
L 684 0 
L 684 794 
z
" transform="scale(0.015625)"/>
     </defs>
     <use xlink:href="#DejaVuSans-Oblique-3bc" transform="translate(0 0.78125)"/>
     <use xlink:href="#DejaVuSans-31" transform="translate(63.623047 -15.625) scale(0.7)"/>
     <use xlink:href="#DejaVuSans-32" transform="translate(110.893555 0.78125)"/>
     <use xlink:href="#DejaVuSans-3d" transform="translate(193.999023 0.78125)"/>
     <use xlink:href="#DejaVuSans-2212" transform="translate(316.75293 0.78125)"/>
     <use xlink:href="#DejaVuSans-39" transform="translate(420.024414 0.78125)"/>
     <use xlink:href="#DejaVuSans-2e" transform="translate(483.647461 0.78125)"/>
     <use xlink:href="#DejaVuSans-31" transform="translate(515.43457 0.78125)"/>
     <use xlink:href="#DejaVuSans-38" transform="translate(579.057617 0.78125)"/>
    </g>
    <!-- $\sigma_12 = 1.186$ -->
    <g transform="translate(414.109436 85.208) scale(0.21 -0.21)">
     <defs>
      <path id="DejaVuSans-Oblique-3c3" d="M 2219 3044 
Q 1744 3044 1422 2700 
Q 1081 2341 969 1747 
Q 844 1119 1044 756 
Q 1241 397 1706 397 
Q 2166 397 2503 759 
Q 2844 1122 2966 1747 
Q 3075 2319 2881 2700 
Q 2700 3044 2219 3044 
z
M 2309 3503 
L 4219 3500 
L 4106 2925 
L 3463 2925 
Q 3706 2438 3575 1747 
Q 3406 888 2884 400 
Q 2359 -91 1609 -91 
Q 856 -91 525 400 
Q 194 888 363 1747 
Q 528 2609 1050 3097 
Q 1484 3503 2309 3503 
z
" transform="scale(0.015625)"/>
     </defs>
     <use xlink:href="#DejaVuSans-Oblique-3c3" transform="translate(0 0.78125)"/>
     <use xlink:href="#DejaVuSans-31" transform="translate(63.378906 -15.625) scale(0.7)"/>
     <use xlink:href="#DejaVuSans-32" transform="translate(110.649414 0.78125)"/>
     <use xlink:href="#DejaVuSans-3d" transform="translate(193.754883 0.78125)"/>
     <use xlink:href="#DejaVuSans-31" transform="translate(297.026367 0.78125)"/>
     <use xlink:href="#DejaVuSans-2e" transform="translate(360.649414 0.78125)"/>
     <use xlink:href="#DejaVuSans-31" transform="translate(392.436523 0.78125)"/>
     <use xlink:href="#DejaVuSans-38" transform="translate(456.05957 0.78125)"/>
     <use xlink:href="#DejaVuSans-36" transform="translate(519.682617 0.78125)"/>
    </g>
   </g>
  </g>
 </g>
 <defs>
  <clipPath id="pdb2fe5465d">
   <rect x="64.37" y="10.8" width="499.627766" height="372.04"/>
  </clipPath>
 </defs>
</svg>
