<?xml version="1.0" encoding="utf-8" standalone="no"?>
<!DOCTYPE svg PUBLIC "-//W3C//DTD SVG 1.1//EN"
  "http://www.w3.org/Graphics/SVG/1.1/DTD/svg11.dtd">
<svg xmlns:xlink="http://www.w3.org/1999/xlink" width="576pt" height="432pt" viewBox="0 0 576 432" xmlns="http://www.w3.org/2000/svg" version="1.1">
 <metadata>
  <rdf:RDF xmlns:dc="http://purl.org/dc/elements/1.1/" xmlns:cc="http://creativecommons.org/ns#" xmlns:rdf="http://www.w3.org/1999/02/22-rdf-syntax-ns#">
   <cc:Work>
    <dc:type rdf:resource="http://purl.org/dc/dcmitype/StillImage"/>
    <dc:date>2024-09-05T19:41:19.818814</dc:date>
    <dc:format>image/svg+xml</dc:format>
    <dc:creator>
     <cc:Agent>
      <dc:title>Matplotlib v3.7.2, https://matplotlib.org/</dc:title>
     </cc:Agent>
    </dc:creator>
   </cc:Work>
  </rdf:RDF>
 </metadata>
 <defs>
  <style type="text/css">*{stroke-linejoin: round; stroke-linecap: butt}</style>
 </defs>
 <g id="figure_1">
  <g id="patch_1">
   <path d="M 0 432 
L 576 432 
L 576 0 
L 0 0 
z
" style="fill: #ffffff"/>
  </g>
  <g id="axes_1">
   <g id="patch_2">
    <path d="M 70.67 382.84 
L 551.646013 382.84 
L 551.646013 10.8 
L 70.67 10.8 
z
" style="fill: #ffffff"/>
   </g>
   <g id="patch_3">
    <path d="M 92.532546 382.84 
L 94.317244 382.84 
L 94.317244 382.803267 
L 92.532546 382.803267 
z
" clip-path="url(#pa0377bc19a)" style="fill: #1f77b4"/>
   </g>
   <g id="patch_4">
    <path d="M 94.317244 382.84 
L 96.101941 382.84 
L 96.101941 382.84 
L 94.317244 382.84 
z
" clip-path="url(#pa0377bc19a)" style="fill: #1f77b4"/>
   </g>
   <g id="patch_5">
    <path d="M 96.101941 382.84 
L 97.886639 382.84 
L 97.886639 382.766535 
L 96.101941 382.766535 
z
" clip-path="url(#pa0377bc19a)" style="fill: #1f77b4"/>
   </g>
   <g id="patch_6">
    <path d="M 97.886639 382.84 
L 99.671337 382.84 
L 99.671337 382.84 
L 97.886639 382.84 
z
" clip-path="url(#pa0377bc19a)" style="fill: #1f77b4"/>
   </g>
   <g id="patch_7">
    <path d="M 99.671337 382.84 
L 101.456034 382.84 
L 101.456034 382.84 
L 99.671337 382.84 
z
" clip-path="url(#pa0377bc19a)" style="fill: #1f77b4"/>
   </g>
   <g id="patch_8">
    <path d="M 101.456034 382.84 
L 103.240732 382.84 
L 103.240732 382.84 
L 101.456034 382.84 
z
" clip-path="url(#pa0377bc19a)" style="fill: #1f77b4"/>
   </g>
   <g id="patch_9">
    <path d="M 103.240732 382.84 
L 105.02543 382.84 
L 105.02543 382.729802 
L 103.240732 382.729802 
z
" clip-path="url(#pa0377bc19a)" style="fill: #1f77b4"/>
   </g>
   <g id="patch_10">
    <path d="M 105.02543 382.84 
L 106.810127 382.84 
L 106.810127 382.84 
L 105.02543 382.84 
z
" clip-path="url(#pa0377bc19a)" style="fill: #1f77b4"/>
   </g>
   <g id="patch_11">
    <path d="M 106.810127 382.84 
L 108.594825 382.84 
L 108.594825 382.803267 
L 106.810127 382.803267 
z
" clip-path="url(#pa0377bc19a)" style="fill: #1f77b4"/>
   </g>
   <g id="patch_12">
    <path d="M 108.594825 382.84 
L 110.379522 382.84 
L 110.379522 382.84 
L 108.594825 382.84 
z
" clip-path="url(#pa0377bc19a)" style="fill: #1f77b4"/>
   </g>
   <g id="patch_13">
    <path d="M 110.379522 382.84 
L 112.16422 382.84 
L 112.16422 382.766535 
L 110.379522 382.766535 
z
" clip-path="url(#pa0377bc19a)" style="fill: #1f77b4"/>
   </g>
   <g id="patch_14">
    <path d="M 112.16422 382.84 
L 113.948918 382.84 
L 113.948918 382.84 
L 112.16422 382.84 
z
" clip-path="url(#pa0377bc19a)" style="fill: #1f77b4"/>
   </g>
   <g id="patch_15">
    <path d="M 113.948918 382.84 
L 115.733615 382.84 
L 115.733615 382.803267 
L 113.948918 382.803267 
z
" clip-path="url(#pa0377bc19a)" style="fill: #1f77b4"/>
   </g>
   <g id="patch_16">
    <path d="M 115.733615 382.84 
L 117.518313 382.84 
L 117.518313 382.84 
L 115.733615 382.84 
z
" clip-path="url(#pa0377bc19a)" style="fill: #1f77b4"/>
   </g>
   <g id="patch_17">
    <path d="M 117.518313 382.84 
L 119.303011 382.84 
L 119.303011 382.582871 
L 117.518313 382.582871 
z
" clip-path="url(#pa0377bc19a)" style="fill: #1f77b4"/>
   </g>
   <g id="patch_18">
    <path d="M 119.303011 382.84 
L 121.087708 382.84 
L 121.087708 382.84 
L 119.303011 382.84 
z
" clip-path="url(#pa0377bc19a)" style="fill: #1f77b4"/>
   </g>
   <g id="patch_19">
    <path d="M 121.087708 382.84 
L 122.872406 382.84 
L 122.872406 382.84 
L 121.087708 382.84 
z
" clip-path="url(#pa0377bc19a)" style="fill: #1f77b4"/>
   </g>
   <g id="patch_20">
    <path d="M 122.872406 382.84 
L 124.657104 382.84 
L 124.657104 382.656336 
L 122.872406 382.656336 
z
" clip-path="url(#pa0377bc19a)" style="fill: #1f77b4"/>
   </g>
   <g id="patch_21">
    <path d="M 124.657104 382.84 
L 126.441801 382.84 
L 126.441801 382.84 
L 124.657104 382.84 
z
" clip-path="url(#pa0377bc19a)" style="fill: #1f77b4"/>
   </g>
   <g id="patch_22">
    <path d="M 126.441801 382.84 
L 128.226499 382.84 
L 128.226499 382.509406 
L 126.441801 382.509406 
z
" clip-path="url(#pa0377bc19a)" style="fill: #1f77b4"/>
   </g>
   <g id="patch_23">
    <path d="M 128.226499 382.84 
L 130.011196 382.84 
L 130.011196 382.84 
L 128.226499 382.84 
z
" clip-path="url(#pa0377bc19a)" style="fill: #1f77b4"/>
   </g>
   <g id="patch_24">
    <path d="M 130.011196 382.84 
L 131.795894 382.84 
L 131.795894 382.289009 
L 130.011196 382.289009 
z
" clip-path="url(#pa0377bc19a)" style="fill: #1f77b4"/>
   </g>
   <g id="patch_25">
    <path d="M 131.795894 382.84 
L 133.580592 382.84 
L 133.580592 382.84 
L 131.795894 382.84 
z
" clip-path="url(#pa0377bc19a)" style="fill: #1f77b4"/>
   </g>
   <g id="patch_26">
    <path d="M 133.580592 382.84 
L 135.365289 382.84 
L 135.365289 382.215544 
L 133.580592 382.215544 
z
" clip-path="url(#pa0377bc19a)" style="fill: #1f77b4"/>
   </g>
   <g id="patch_27">
    <path d="M 135.365289 382.84 
L 137.149987 382.84 
L 137.149987 382.84 
L 135.365289 382.84 
z
" clip-path="url(#pa0377bc19a)" style="fill: #1f77b4"/>
   </g>
   <g id="patch_28">
    <path d="M 137.149987 382.84 
L 138.934685 382.84 
L 138.934685 382.068613 
L 137.149987 382.068613 
z
" clip-path="url(#pa0377bc19a)" style="fill: #1f77b4"/>
   </g>
   <g id="patch_29">
    <path d="M 138.934685 382.84 
L 140.719382 382.84 
L 140.719382 382.84 
L 138.934685 382.84 
z
" clip-path="url(#pa0377bc19a)" style="fill: #1f77b4"/>
   </g>
   <g id="patch_30">
    <path d="M 140.719382 382.84 
L 142.50408 382.84 
L 142.50408 382.03188 
L 140.719382 382.03188 
z
" clip-path="url(#pa0377bc19a)" style="fill: #1f77b4"/>
   </g>
   <g id="patch_31">
    <path d="M 142.50408 382.84 
L 144.288778 382.84 
L 144.288778 382.84 
L 142.50408 382.84 
z
" clip-path="url(#pa0377bc19a)" style="fill: #1f77b4"/>
   </g>
   <g id="patch_32">
    <path d="M 144.288778 382.84 
L 146.073475 382.84 
L 146.073475 381.995147 
L 144.288778 381.995147 
z
" clip-path="url(#pa0377bc19a)" style="fill: #1f77b4"/>
   </g>
   <g id="patch_33">
    <path d="M 146.073475 382.84 
L 147.858173 382.84 
L 147.858173 382.84 
L 146.073475 382.84 
z
" clip-path="url(#pa0377bc19a)" style="fill: #1f77b4"/>
   </g>
   <g id="patch_34">
    <path d="M 147.858173 382.84 
L 149.64287 382.84 
L 149.64287 381.113562 
L 147.858173 381.113562 
z
" clip-path="url(#pa0377bc19a)" style="fill: #1f77b4"/>
   </g>
   <g id="patch_35">
    <path d="M 149.64287 382.84 
L 151.427568 382.84 
L 151.427568 382.84 
L 149.64287 382.84 
z
" clip-path="url(#pa0377bc19a)" style="fill: #1f77b4"/>
   </g>
   <g id="patch_36">
    <path d="M 151.427568 382.84 
L 153.212266 382.84 
L 153.212266 382.84 
L 151.427568 382.84 
z
" clip-path="url(#pa0377bc19a)" style="fill: #1f77b4"/>
   </g>
   <g id="patch_37">
    <path d="M 153.212266 382.84 
L 154.996963 382.84 
L 154.996963 381.076829 
L 153.212266 381.076829 
z
" clip-path="url(#pa0377bc19a)" style="fill: #1f77b4"/>
   </g>
   <g id="patch_38">
    <path d="M 154.996963 382.84 
L 156.781661 382.84 
L 156.781661 382.84 
L 154.996963 382.84 
z
" clip-path="url(#pa0377bc19a)" style="fill: #1f77b4"/>
   </g>
   <g id="patch_39">
    <path d="M 156.781661 382.84 
L 158.566359 382.84 
L 158.566359 381.076829 
L 156.781661 381.076829 
z
" clip-path="url(#pa0377bc19a)" style="fill: #1f77b4"/>
   </g>
   <g id="patch_40">
    <path d="M 158.566359 382.84 
L 160.351056 382.84 
L 160.351056 382.84 
L 158.566359 382.84 
z
" clip-path="url(#pa0377bc19a)" style="fill: #1f77b4"/>
   </g>
   <g id="patch_41">
    <path d="M 160.351056 382.84 
L 162.135754 382.84 
L 162.135754 379.974848 
L 160.351056 379.974848 
z
" clip-path="url(#pa0377bc19a)" style="fill: #1f77b4"/>
   </g>
   <g id="patch_42">
    <path d="M 162.135754 382.84 
L 163.920452 382.84 
L 163.920452 382.84 
L 162.135754 382.84 
z
" clip-path="url(#pa0377bc19a)" style="fill: #1f77b4"/>
   </g>
   <g id="patch_43">
    <path d="M 163.920452 382.84 
L 165.705149 382.84 
L 165.705149 378.909599 
L 163.920452 378.909599 
z
" clip-path="url(#pa0377bc19a)" style="fill: #1f77b4"/>
   </g>
   <g id="patch_44">
    <path d="M 165.705149 382.84 
L 167.489847 382.84 
L 167.489847 382.84 
L 165.705149 382.84 
z
" clip-path="url(#pa0377bc19a)" style="fill: #1f77b4"/>
   </g>
   <g id="patch_45">
    <path d="M 167.489847 382.84 
L 169.274544 382.84 
L 169.274544 378.101479 
L 167.489847 378.101479 
z
" clip-path="url(#pa0377bc19a)" style="fill: #1f77b4"/>
   </g>
   <g id="patch_46">
    <path d="M 169.274544 382.84 
L 171.059242 382.84 
L 171.059242 382.84 
L 169.274544 382.84 
z
" clip-path="url(#pa0377bc19a)" style="fill: #1f77b4"/>
   </g>
   <g id="patch_47">
    <path d="M 171.059242 382.84 
L 172.84394 382.84 
L 172.84394 376.999498 
L 171.059242 376.999498 
z
" clip-path="url(#pa0377bc19a)" style="fill: #1f77b4"/>
   </g>
   <g id="patch_48">
    <path d="M 172.84394 382.84 
L 174.628637 382.84 
L 174.628637 382.84 
L 172.84394 382.84 
z
" clip-path="url(#pa0377bc19a)" style="fill: #1f77b4"/>
   </g>
   <g id="patch_49">
    <path d="M 174.628637 382.84 
L 176.413335 382.84 
L 176.413335 374.391475 
L 174.628637 374.391475 
z
" clip-path="url(#pa0377bc19a)" style="fill: #1f77b4"/>
   </g>
   <g id="patch_50">
    <path d="M 176.413335 382.84 
L 178.198033 382.84 
L 178.198033 382.84 
L 176.413335 382.84 
z
" clip-path="url(#pa0377bc19a)" style="fill: #1f77b4"/>
   </g>
   <g id="patch_51">
    <path d="M 178.198033 382.84 
L 179.98273 382.84 
L 179.98273 374.318009 
L 178.198033 374.318009 
z
" clip-path="url(#pa0377bc19a)" style="fill: #1f77b4"/>
   </g>
   <g id="patch_52">
    <path d="M 179.98273 382.84 
L 181.767428 382.84 
L 181.767428 382.84 
L 179.98273 382.84 
z
" clip-path="url(#pa0377bc19a)" style="fill: #1f77b4"/>
   </g>
   <g id="patch_53">
    <path d="M 181.767428 382.84 
L 183.552126 382.84 
L 183.552126 382.84 
L 181.767428 382.84 
z
" clip-path="url(#pa0377bc19a)" style="fill: #1f77b4"/>
   </g>
   <g id="patch_54">
    <path d="M 183.552126 382.84 
L 185.336823 382.84 
L 185.336823 370.754935 
L 183.552126 370.754935 
z
" clip-path="url(#pa0377bc19a)" style="fill: #1f77b4"/>
   </g>
   <g id="patch_55">
    <path d="M 185.336823 382.84 
L 187.121521 382.84 
L 187.121521 382.84 
L 185.336823 382.84 
z
" clip-path="url(#pa0377bc19a)" style="fill: #1f77b4"/>
   </g>
   <g id="patch_56">
    <path d="M 187.121521 382.84 
L 188.906218 382.84 
L 188.906218 369.946816 
L 187.121521 369.946816 
z
" clip-path="url(#pa0377bc19a)" style="fill: #1f77b4"/>
   </g>
   <g id="patch_57">
    <path d="M 188.906218 382.84 
L 190.690916 382.84 
L 190.690916 382.84 
L 188.906218 382.84 
z
" clip-path="url(#pa0377bc19a)" style="fill: #1f77b4"/>
   </g>
   <g id="patch_58">
    <path d="M 190.690916 382.84 
L 192.475614 382.84 
L 192.475614 364.032848 
L 190.690916 364.032848 
z
" clip-path="url(#pa0377bc19a)" style="fill: #1f77b4"/>
   </g>
   <g id="patch_59">
    <path d="M 192.475614 382.84 
L 194.260311 382.84 
L 194.260311 382.84 
L 192.475614 382.84 
z
" clip-path="url(#pa0377bc19a)" style="fill: #1f77b4"/>
   </g>
   <g id="patch_60">
    <path d="M 194.260311 382.84 
L 196.045009 382.84 
L 196.045009 362.416608 
L 194.260311 362.416608 
z
" clip-path="url(#pa0377bc19a)" style="fill: #1f77b4"/>
   </g>
   <g id="patch_61">
    <path d="M 196.045009 382.84 
L 197.829707 382.84 
L 197.829707 382.84 
L 196.045009 382.84 
z
" clip-path="url(#pa0377bc19a)" style="fill: #1f77b4"/>
   </g>
   <g id="patch_62">
    <path d="M 197.829707 382.84 
L 199.614404 382.84 
L 199.614404 359.000465 
L 197.829707 359.000465 
z
" clip-path="url(#pa0377bc19a)" style="fill: #1f77b4"/>
   </g>
   <g id="patch_63">
    <path d="M 199.614404 382.84 
L 201.399102 382.84 
L 201.399102 382.84 
L 199.614404 382.84 
z
" clip-path="url(#pa0377bc19a)" style="fill: #1f77b4"/>
   </g>
   <g id="patch_64">
    <path d="M 201.399102 382.84 
L 203.1838 382.84 
L 203.1838 351.543723 
L 201.399102 351.543723 
z
" clip-path="url(#pa0377bc19a)" style="fill: #1f77b4"/>
   </g>
   <g id="patch_65">
    <path d="M 203.1838 382.84 
L 204.968497 382.84 
L 204.968497 382.84 
L 203.1838 382.84 
z
" clip-path="url(#pa0377bc19a)" style="fill: #1f77b4"/>
   </g>
   <g id="patch_66">
    <path d="M 204.968497 382.84 
L 206.753195 382.84 
L 206.753195 346.290944 
L 204.968497 346.290944 
z
" clip-path="url(#pa0377bc19a)" style="fill: #1f77b4"/>
   </g>
   <g id="patch_67">
    <path d="M 206.753195 382.84 
L 208.537892 382.84 
L 208.537892 382.84 
L 206.753195 382.84 
z
" clip-path="url(#pa0377bc19a)" style="fill: #1f77b4"/>
   </g>
   <g id="patch_68">
    <path d="M 208.537892 382.84 
L 210.32259 382.84 
L 210.32259 382.84 
L 208.537892 382.84 
z
" clip-path="url(#pa0377bc19a)" style="fill: #1f77b4"/>
   </g>
   <g id="patch_69">
    <path d="M 210.32259 382.84 
L 212.107288 382.84 
L 212.107288 339.017866 
L 210.32259 339.017866 
z
" clip-path="url(#pa0377bc19a)" style="fill: #1f77b4"/>
   </g>
   <g id="patch_70">
    <path d="M 212.107288 382.84 
L 213.891985 382.84 
L 213.891985 382.84 
L 212.107288 382.84 
z
" clip-path="url(#pa0377bc19a)" style="fill: #1f77b4"/>
   </g>
   <g id="patch_71">
    <path d="M 213.891985 382.84 
L 215.676683 382.84 
L 215.676683 329.981617 
L 213.891985 329.981617 
z
" clip-path="url(#pa0377bc19a)" style="fill: #1f77b4"/>
   </g>
   <g id="patch_72">
    <path d="M 215.676683 382.84 
L 217.461381 382.84 
L 217.461381 382.84 
L 215.676683 382.84 
z
" clip-path="url(#pa0377bc19a)" style="fill: #1f77b4"/>
   </g>
   <g id="patch_73">
    <path d="M 217.461381 382.84 
L 219.246078 382.84 
L 219.246078 323.553391 
L 217.461381 323.553391 
z
" clip-path="url(#pa0377bc19a)" style="fill: #1f77b4"/>
   </g>
   <g id="patch_74">
    <path d="M 219.246078 382.84 
L 221.030776 382.84 
L 221.030776 382.84 
L 219.246078 382.84 
z
" clip-path="url(#pa0377bc19a)" style="fill: #1f77b4"/>
   </g>
   <g id="patch_75">
    <path d="M 221.030776 382.84 
L 222.815474 382.84 
L 222.815474 312.717239 
L 221.030776 312.717239 
z
" clip-path="url(#pa0377bc19a)" style="fill: #1f77b4"/>
   </g>
   <g id="patch_76">
    <path d="M 222.815474 382.84 
L 224.600171 382.84 
L 224.600171 382.84 
L 222.815474 382.84 
z
" clip-path="url(#pa0377bc19a)" style="fill: #1f77b4"/>
   </g>
   <g id="patch_77">
    <path d="M 224.600171 382.84 
L 226.384869 382.84 
L 226.384869 304.452377 
L 224.600171 304.452377 
z
" clip-path="url(#pa0377bc19a)" style="fill: #1f77b4"/>
   </g>
   <g id="patch_78">
    <path d="M 226.384869 382.84 
L 228.169566 382.84 
L 228.169566 382.84 
L 226.384869 382.84 
z
" clip-path="url(#pa0377bc19a)" style="fill: #1f77b4"/>
   </g>
   <g id="patch_79">
    <path d="M 228.169566 382.84 
L 229.954264 382.84 
L 229.954264 289.832755 
L 228.169566 289.832755 
z
" clip-path="url(#pa0377bc19a)" style="fill: #1f77b4"/>
   </g>
   <g id="patch_80">
    <path d="M 229.954264 382.84 
L 231.738962 382.84 
L 231.738962 382.84 
L 229.954264 382.84 
z
" clip-path="url(#pa0377bc19a)" style="fill: #1f77b4"/>
   </g>
   <g id="patch_81">
    <path d="M 231.738962 382.84 
L 233.523659 382.84 
L 233.523659 276.829372 
L 231.738962 276.829372 
z
" clip-path="url(#pa0377bc19a)" style="fill: #1f77b4"/>
   </g>
   <g id="patch_82">
    <path d="M 233.523659 382.84 
L 235.308357 382.84 
L 235.308357 382.84 
L 233.523659 382.84 
z
" clip-path="url(#pa0377bc19a)" style="fill: #1f77b4"/>
   </g>
   <g id="patch_83">
    <path d="M 235.308357 382.84 
L 237.093055 382.84 
L 237.093055 256.993704 
L 235.308357 256.993704 
z
" clip-path="url(#pa0377bc19a)" style="fill: #1f77b4"/>
   </g>
   <g id="patch_84">
    <path d="M 237.093055 382.84 
L 238.877752 382.84 
L 238.877752 382.84 
L 237.093055 382.84 
z
" clip-path="url(#pa0377bc19a)" style="fill: #1f77b4"/>
   </g>
   <g id="patch_85">
    <path d="M 238.877752 382.84 
L 240.66245 382.84 
L 240.66245 382.84 
L 238.877752 382.84 
z
" clip-path="url(#pa0377bc19a)" style="fill: #1f77b4"/>
   </g>
   <g id="patch_86">
    <path d="M 240.66245 382.84 
L 242.447148 382.84 
L 242.447148 246.084086 
L 240.66245 246.084086 
z
" clip-path="url(#pa0377bc19a)" style="fill: #1f77b4"/>
   </g>
   <g id="patch_87">
    <path d="M 242.447148 382.84 
L 244.231845 382.84 
L 244.231845 382.84 
L 242.447148 382.84 
z
" clip-path="url(#pa0377bc19a)" style="fill: #1f77b4"/>
   </g>
   <g id="patch_88">
    <path d="M 244.231845 382.84 
L 246.016543 382.84 
L 246.016543 223.015939 
L 244.231845 223.015939 
z
" clip-path="url(#pa0377bc19a)" style="fill: #1f77b4"/>
   </g>
   <g id="patch_89">
    <path d="M 246.016543 382.84 
L 247.80124 382.84 
L 247.80124 382.84 
L 246.016543 382.84 
z
" clip-path="url(#pa0377bc19a)" style="fill: #1f77b4"/>
   </g>
   <g id="patch_90">
    <path d="M 247.80124 382.84 
L 249.585938 382.84 
L 249.585938 201.306902 
L 247.80124 201.306902 
z
" clip-path="url(#pa0377bc19a)" style="fill: #1f77b4"/>
   </g>
   <g id="patch_91">
    <path d="M 249.585938 382.84 
L 251.370636 382.84 
L 251.370636 382.84 
L 249.585938 382.84 
z
" clip-path="url(#pa0377bc19a)" style="fill: #1f77b4"/>
   </g>
   <g id="patch_92">
    <path d="M 251.370636 382.84 
L 253.155333 382.84 
L 253.155333 187.825994 
L 251.370636 187.825994 
z
" clip-path="url(#pa0377bc19a)" style="fill: #1f77b4"/>
   </g>
   <g id="patch_93">
    <path d="M 253.155333 382.84 
L 254.940031 382.84 
L 254.940031 382.84 
L 253.155333 382.84 
z
" clip-path="url(#pa0377bc19a)" style="fill: #1f77b4"/>
   </g>
   <g id="patch_94">
    <path d="M 254.940031 382.84 
L 256.724729 382.84 
L 256.724729 168.247454 
L 254.940031 168.247454 
z
" clip-path="url(#pa0377bc19a)" style="fill: #1f77b4"/>
   </g>
   <g id="patch_95">
    <path d="M 256.724729 382.84 
L 258.509426 382.84 
L 258.509426 382.84 
L 256.724729 382.84 
z
" clip-path="url(#pa0377bc19a)" style="fill: #1f77b4"/>
   </g>
   <g id="patch_96">
    <path d="M 258.509426 382.84 
L 260.294124 382.84 
L 260.294124 137.832763 
L 258.509426 137.832763 
z
" clip-path="url(#pa0377bc19a)" style="fill: #1f77b4"/>
   </g>
   <g id="patch_97">
    <path d="M 260.294124 382.84 
L 262.078822 382.84 
L 262.078822 382.84 
L 260.294124 382.84 
z
" clip-path="url(#pa0377bc19a)" style="fill: #1f77b4"/>
   </g>
   <g id="patch_98">
    <path d="M 262.078822 382.84 
L 263.863519 382.84 
L 263.863519 123.617201 
L 262.078822 123.617201 
z
" clip-path="url(#pa0377bc19a)" style="fill: #1f77b4"/>
   </g>
   <g id="patch_99">
    <path d="M 263.863519 382.84 
L 265.648217 382.84 
L 265.648217 382.84 
L 263.863519 382.84 
z
" clip-path="url(#pa0377bc19a)" style="fill: #1f77b4"/>
   </g>
   <g id="patch_100">
    <path d="M 265.648217 382.84 
L 267.432914 382.84 
L 267.432914 382.84 
L 265.648217 382.84 
z
" clip-path="url(#pa0377bc19a)" style="fill: #1f77b4"/>
   </g>
   <g id="patch_101">
    <path d="M 267.432914 382.84 
L 269.217612 382.84 
L 269.217612 104.259057 
L 267.432914 104.259057 
z
" clip-path="url(#pa0377bc19a)" style="fill: #1f77b4"/>
   </g>
   <g id="patch_102">
    <path d="M 269.217612 382.84 
L 271.00231 382.84 
L 271.00231 382.84 
L 269.217612 382.84 
z
" clip-path="url(#pa0377bc19a)" style="fill: #1f77b4"/>
   </g>
   <g id="patch_103">
    <path d="M 271.00231 382.84 
L 272.787007 382.84 
L 272.787007 86.700818 
L 271.00231 86.700818 
z
" clip-path="url(#pa0377bc19a)" style="fill: #1f77b4"/>
   </g>
   <g id="patch_104">
    <path d="M 272.787007 382.84 
L 274.571705 382.84 
L 274.571705 382.84 
L 272.787007 382.84 
z
" clip-path="url(#pa0377bc19a)" style="fill: #1f77b4"/>
   </g>
   <g id="patch_105">
    <path d="M 274.571705 382.84 
L 276.356403 382.84 
L 276.356403 71.750601 
L 274.571705 71.750601 
z
" clip-path="url(#pa0377bc19a)" style="fill: #1f77b4"/>
   </g>
   <g id="patch_106">
    <path d="M 276.356403 382.84 
L 278.1411 382.84 
L 278.1411 382.84 
L 276.356403 382.84 
z
" clip-path="url(#pa0377bc19a)" style="fill: #1f77b4"/>
   </g>
   <g id="patch_107">
    <path d="M 278.1411 382.84 
L 279.925798 382.84 
L 279.925798 64.550988 
L 278.1411 64.550988 
z
" clip-path="url(#pa0377bc19a)" style="fill: #1f77b4"/>
   </g>
   <g id="patch_108">
    <path d="M 279.925798 382.84 
L 281.710496 382.84 
L 281.710496 382.84 
L 279.925798 382.84 
z
" clip-path="url(#pa0377bc19a)" style="fill: #1f77b4"/>
   </g>
   <g id="patch_109">
    <path d="M 281.710496 382.84 
L 283.495193 382.84 
L 283.495193 53.788301 
L 281.710496 53.788301 
z
" clip-path="url(#pa0377bc19a)" style="fill: #1f77b4"/>
   </g>
   <g id="patch_110">
    <path d="M 283.495193 382.84 
L 285.279891 382.84 
L 285.279891 382.84 
L 283.495193 382.84 
z
" clip-path="url(#pa0377bc19a)" style="fill: #1f77b4"/>
   </g>
   <g id="patch_111">
    <path d="M 285.279891 382.84 
L 287.064588 382.84 
L 287.064588 42.584822 
L 285.279891 42.584822 
z
" clip-path="url(#pa0377bc19a)" style="fill: #1f77b4"/>
   </g>
   <g id="patch_112">
    <path d="M 287.064588 382.84 
L 288.849286 382.84 
L 288.849286 382.84 
L 287.064588 382.84 
z
" clip-path="url(#pa0377bc19a)" style="fill: #1f77b4"/>
   </g>
   <g id="patch_113">
    <path d="M 288.849286 382.84 
L 290.633984 382.84 
L 290.633984 34.283227 
L 288.849286 34.283227 
z
" clip-path="url(#pa0377bc19a)" style="fill: #1f77b4"/>
   </g>
   <g id="patch_114">
    <path d="M 290.633984 382.84 
L 292.418681 382.84 
L 292.418681 382.84 
L 290.633984 382.84 
z
" clip-path="url(#pa0377bc19a)" style="fill: #1f77b4"/>
   </g>
   <g id="patch_115">
    <path d="M 292.418681 382.84 
L 294.203379 382.84 
L 294.203379 28.51619 
L 292.418681 28.51619 
z
" clip-path="url(#pa0377bc19a)" style="fill: #1f77b4"/>
   </g>
   <g id="patch_116">
    <path d="M 294.203379 382.84 
L 295.988077 382.84 
L 295.988077 382.84 
L 294.203379 382.84 
z
" clip-path="url(#pa0377bc19a)" style="fill: #1f77b4"/>
   </g>
   <g id="patch_117">
    <path d="M 295.988077 382.84 
L 297.772774 382.84 
L 297.772774 382.84 
L 295.988077 382.84 
z
" clip-path="url(#pa0377bc19a)" style="fill: #1f77b4"/>
   </g>
   <g id="patch_118">
    <path d="M 297.772774 382.84 
L 299.557472 382.84 
L 299.557472 38.838085 
L 297.772774 38.838085 
z
" clip-path="url(#pa0377bc19a)" style="fill: #1f77b4"/>
   </g>
   <g id="patch_119">
    <path d="M 299.557472 382.84 
L 301.34217 382.84 
L 301.34217 382.84 
L 299.557472 382.84 
z
" clip-path="url(#pa0377bc19a)" style="fill: #1f77b4"/>
   </g>
   <g id="patch_120">
    <path d="M 301.34217 382.84 
L 303.126867 382.84 
L 303.126867 40.821651 
L 301.34217 40.821651 
z
" clip-path="url(#pa0377bc19a)" style="fill: #1f77b4"/>
   </g>
   <g id="patch_121">
    <path d="M 303.126867 382.84 
L 304.911565 382.84 
L 304.911565 382.84 
L 303.126867 382.84 
z
" clip-path="url(#pa0377bc19a)" style="fill: #1f77b4"/>
   </g>
   <g id="patch_122">
    <path d="M 304.911565 382.84 
L 306.696262 382.84 
L 306.696262 57.902366 
L 304.911565 57.902366 
z
" clip-path="url(#pa0377bc19a)" style="fill: #1f77b4"/>
   </g>
   <g id="patch_123">
    <path d="M 306.696262 382.84 
L 308.48096 382.84 
L 308.48096 382.84 
L 306.696262 382.84 
z
" clip-path="url(#pa0377bc19a)" style="fill: #1f77b4"/>
   </g>
   <g id="patch_124">
    <path d="M 308.48096 382.84 
L 310.265658 382.84 
L 310.265658 67.159011 
L 308.48096 67.159011 
z
" clip-path="url(#pa0377bc19a)" style="fill: #1f77b4"/>
   </g>
   <g id="patch_125">
    <path d="M 310.265658 382.84 
L 312.050355 382.84 
L 312.050355 382.84 
L 310.265658 382.84 
z
" clip-path="url(#pa0377bc19a)" style="fill: #1f77b4"/>
   </g>
   <g id="patch_126">
    <path d="M 312.050355 382.84 
L 313.835053 382.84 
L 313.835053 76.121795 
L 312.050355 76.121795 
z
" clip-path="url(#pa0377bc19a)" style="fill: #1f77b4"/>
   </g>
   <g id="patch_127">
    <path d="M 313.835053 382.84 
L 315.619751 382.84 
L 315.619751 382.84 
L 313.835053 382.84 
z
" clip-path="url(#pa0377bc19a)" style="fill: #1f77b4"/>
   </g>
   <g id="patch_128">
    <path d="M 315.619751 382.84 
L 317.404448 382.84 
L 317.404448 95.296274 
L 315.619751 95.296274 
z
" clip-path="url(#pa0377bc19a)" style="fill: #1f77b4"/>
   </g>
   <g id="patch_129">
    <path d="M 317.404448 382.84 
L 319.189146 382.84 
L 319.189146 382.84 
L 317.404448 382.84 
z
" clip-path="url(#pa0377bc19a)" style="fill: #1f77b4"/>
   </g>
   <g id="patch_130">
    <path d="M 319.189146 382.84 
L 320.973844 382.84 
L 320.973844 109.989362 
L 319.189146 109.989362 
z
" clip-path="url(#pa0377bc19a)" style="fill: #1f77b4"/>
   </g>
   <g id="patch_131">
    <path d="M 320.973844 382.84 
L 322.758541 382.84 
L 322.758541 382.84 
L 320.973844 382.84 
z
" clip-path="url(#pa0377bc19a)" style="fill: #1f77b4"/>
   </g>
   <g id="patch_132">
    <path d="M 322.758541 382.84 
L 324.543239 382.84 
L 324.543239 127.070076 
L 322.758541 127.070076 
z
" clip-path="url(#pa0377bc19a)" style="fill: #1f77b4"/>
   </g>
   <g id="patch_133">
    <path d="M 324.543239 382.84 
L 326.327937 382.84 
L 326.327937 382.84 
L 324.543239 382.84 
z
" clip-path="url(#pa0377bc19a)" style="fill: #1f77b4"/>
   </g>
   <g id="patch_134">
    <path d="M 326.327937 382.84 
L 328.112634 382.84 
L 328.112634 382.84 
L 326.327937 382.84 
z
" clip-path="url(#pa0377bc19a)" style="fill: #1f77b4"/>
   </g>
   <g id="patch_135">
    <path d="M 328.112634 382.84 
L 329.897332 382.84 
L 329.897332 151.864662 
L 328.112634 151.864662 
z
" clip-path="url(#pa0377bc19a)" style="fill: #1f77b4"/>
   </g>
   <g id="patch_136">
    <path d="M 329.897332 382.84 
L 331.682029 382.84 
L 331.682029 382.84 
L 329.897332 382.84 
z
" clip-path="url(#pa0377bc19a)" style="fill: #1f77b4"/>
   </g>
   <g id="patch_137">
    <path d="M 331.682029 382.84 
L 333.466727 382.84 
L 333.466727 171.883994 
L 331.682029 171.883994 
z
" clip-path="url(#pa0377bc19a)" style="fill: #1f77b4"/>
   </g>
   <g id="patch_138">
    <path d="M 333.466727 382.84 
L 335.251425 382.84 
L 335.251425 382.84 
L 333.466727 382.84 
z
" clip-path="url(#pa0377bc19a)" style="fill: #1f77b4"/>
   </g>
   <g id="patch_139">
    <path d="M 335.251425 382.84 
L 337.036122 382.84 
L 337.036122 190.470749 
L 335.251425 190.470749 
z
" clip-path="url(#pa0377bc19a)" style="fill: #1f77b4"/>
   </g>
   <g id="patch_140">
    <path d="M 337.036122 382.84 
L 338.82082 382.84 
L 338.82082 382.84 
L 337.036122 382.84 
z
" clip-path="url(#pa0377bc19a)" style="fill: #1f77b4"/>
   </g>
   <g id="patch_141">
    <path d="M 338.82082 382.84 
L 340.605518 382.84 
L 340.605518 204.355717 
L 338.82082 204.355717 
z
" clip-path="url(#pa0377bc19a)" style="fill: #1f77b4"/>
   </g>
   <g id="patch_142">
    <path d="M 340.605518 382.84 
L 342.390215 382.84 
L 342.390215 382.84 
L 340.605518 382.84 
z
" clip-path="url(#pa0377bc19a)" style="fill: #1f77b4"/>
   </g>
   <g id="patch_143">
    <path d="M 342.390215 382.84 
L 344.174913 382.84 
L 344.174913 218.314151 
L 342.390215 218.314151 
z
" clip-path="url(#pa0377bc19a)" style="fill: #1f77b4"/>
   </g>
   <g id="patch_144">
    <path d="M 344.174913 382.84 
L 345.959611 382.84 
L 345.959611 382.84 
L 344.174913 382.84 
z
" clip-path="url(#pa0377bc19a)" style="fill: #1f77b4"/>
   </g>
   <g id="patch_145">
    <path d="M 345.959611 382.84 
L 347.744308 382.84 
L 347.744308 235.835658 
L 345.959611 235.835658 
z
" clip-path="url(#pa0377bc19a)" style="fill: #1f77b4"/>
   </g>
   <g id="patch_146">
    <path d="M 347.744308 382.84 
L 349.529006 382.84 
L 349.529006 382.84 
L 347.744308 382.84 
z
" clip-path="url(#pa0377bc19a)" style="fill: #1f77b4"/>
   </g>
   <g id="patch_147">
    <path d="M 349.529006 382.84 
L 351.313703 382.84 
L 351.313703 248.067653 
L 349.529006 248.067653 
z
" clip-path="url(#pa0377bc19a)" style="fill: #1f77b4"/>
   </g>
   <g id="patch_148">
    <path d="M 351.313703 382.84 
L 353.098401 382.84 
L 353.098401 382.84 
L 351.313703 382.84 
z
" clip-path="url(#pa0377bc19a)" style="fill: #1f77b4"/>
   </g>
   <g id="patch_149">
    <path d="M 353.098401 382.84 
L 354.883099 382.84 
L 354.883099 264.487179 
L 353.098401 264.487179 
z
" clip-path="url(#pa0377bc19a)" style="fill: #1f77b4"/>
   </g>
   <g id="patch_150">
    <path d="M 354.883099 382.84 
L 356.667796 382.84 
L 356.667796 382.84 
L 354.883099 382.84 
z
" clip-path="url(#pa0377bc19a)" style="fill: #1f77b4"/>
   </g>
   <g id="patch_151">
    <path d="M 356.667796 382.84 
L 358.452494 382.84 
L 358.452494 382.84 
L 356.667796 382.84 
z
" clip-path="url(#pa0377bc19a)" style="fill: #1f77b4"/>
   </g>
   <g id="patch_152">
    <path d="M 358.452494 382.84 
L 360.237192 382.84 
L 360.237192 277.74769 
L 358.452494 277.74769 
z
" clip-path="url(#pa0377bc19a)" style="fill: #1f77b4"/>
   </g>
   <g id="patch_153">
    <path d="M 360.237192 382.84 
L 362.021889 382.84 
L 362.021889 382.84 
L 360.237192 382.84 
z
" clip-path="url(#pa0377bc19a)" style="fill: #1f77b4"/>
   </g>
   <g id="patch_154">
    <path d="M 362.021889 382.84 
L 363.806587 382.84 
L 363.806587 286.196216 
L 362.021889 286.196216 
z
" clip-path="url(#pa0377bc19a)" style="fill: #1f77b4"/>
   </g>
   <g id="patch_155">
    <path d="M 363.806587 382.84 
L 365.591285 382.84 
L 365.591285 382.84 
L 363.806587 382.84 
z
" clip-path="url(#pa0377bc19a)" style="fill: #1f77b4"/>
   </g>
   <g id="patch_156">
    <path d="M 365.591285 382.84 
L 367.375982 382.84 
L 367.375982 296.077317 
L 365.591285 296.077317 
z
" clip-path="url(#pa0377bc19a)" style="fill: #1f77b4"/>
   </g>
   <g id="patch_157">
    <path d="M 367.375982 382.84 
L 369.16068 382.84 
L 369.16068 382.84 
L 367.375982 382.84 
z
" clip-path="url(#pa0377bc19a)" style="fill: #1f77b4"/>
   </g>
   <g id="patch_158">
    <path d="M 369.16068 382.84 
L 370.945377 382.84 
L 370.945377 301.954552 
L 369.16068 301.954552 
z
" clip-path="url(#pa0377bc19a)" style="fill: #1f77b4"/>
   </g>
   <g id="patch_159">
    <path d="M 370.945377 382.84 
L 372.730075 382.84 
L 372.730075 382.84 
L 370.945377 382.84 
z
" clip-path="url(#pa0377bc19a)" style="fill: #1f77b4"/>
   </g>
   <g id="patch_160">
    <path d="M 372.730075 382.84 
L 374.514773 382.84 
L 374.514773 314.406944 
L 372.730075 314.406944 
z
" clip-path="url(#pa0377bc19a)" style="fill: #1f77b4"/>
   </g>
   <g id="patch_161">
    <path d="M 374.514773 382.84 
L 376.29947 382.84 
L 376.29947 382.84 
L 374.514773 382.84 
z
" clip-path="url(#pa0377bc19a)" style="fill: #1f77b4"/>
   </g>
   <g id="patch_162">
    <path d="M 376.29947 382.84 
L 378.084168 382.84 
L 378.084168 317.565958 
L 376.29947 317.565958 
z
" clip-path="url(#pa0377bc19a)" style="fill: #1f77b4"/>
   </g>
   <g id="patch_163">
    <path d="M 378.084168 382.84 
L 379.868866 382.84 
L 379.868866 382.84 
L 378.084168 382.84 
z
" clip-path="url(#pa0377bc19a)" style="fill: #1f77b4"/>
   </g>
   <g id="patch_164">
    <path d="M 379.868866 382.84 
L 381.653563 382.84 
L 381.653563 324.398244 
L 379.868866 324.398244 
z
" clip-path="url(#pa0377bc19a)" style="fill: #1f77b4"/>
   </g>
   <g id="patch_165">
    <path d="M 381.653563 382.84 
L 383.438261 382.84 
L 383.438261 382.84 
L 381.653563 382.84 
z
" clip-path="url(#pa0377bc19a)" style="fill: #1f77b4"/>
   </g>
   <g id="patch_166">
    <path d="M 383.438261 382.84 
L 385.222959 382.84 
L 385.222959 382.84 
L 383.438261 382.84 
z
" clip-path="url(#pa0377bc19a)" style="fill: #1f77b4"/>
   </g>
   <g id="patch_167">
    <path d="M 385.222959 382.84 
L 387.007656 382.84 
L 387.007656 331.487659 
L 385.222959 331.487659 
z
" clip-path="url(#pa0377bc19a)" style="fill: #1f77b4"/>
   </g>
   <g id="patch_168">
    <path d="M 387.007656 382.84 
L 388.792354 382.84 
L 388.792354 382.84 
L 387.007656 382.84 
z
" clip-path="url(#pa0377bc19a)" style="fill: #1f77b4"/>
   </g>
   <g id="patch_169">
    <path d="M 388.792354 382.84 
L 390.577051 382.84 
L 390.577051 335.307861 
L 388.792354 335.307861 
z
" clip-path="url(#pa0377bc19a)" style="fill: #1f77b4"/>
   </g>
   <g id="patch_170">
    <path d="M 390.577051 382.84 
L 392.361749 382.84 
L 392.361749 382.84 
L 390.577051 382.84 
z
" clip-path="url(#pa0377bc19a)" style="fill: #1f77b4"/>
   </g>
   <g id="patch_171">
    <path d="M 392.361749 382.84 
L 394.146447 382.84 
L 394.146447 343.095198 
L 392.361749 343.095198 
z
" clip-path="url(#pa0377bc19a)" style="fill: #1f77b4"/>
   </g>
   <g id="patch_172">
    <path d="M 394.146447 382.84 
L 395.931144 382.84 
L 395.931144 382.84 
L 394.146447 382.84 
z
" clip-path="url(#pa0377bc19a)" style="fill: #1f77b4"/>
   </g>
   <g id="patch_173">
    <path d="M 395.931144 382.84 
L 397.715842 382.84 
L 397.715842 346.107281 
L 395.931144 346.107281 
z
" clip-path="url(#pa0377bc19a)" style="fill: #1f77b4"/>
   </g>
   <g id="patch_174">
    <path d="M 397.715842 382.84 
L 399.50054 382.84 
L 399.50054 382.84 
L 397.715842 382.84 
z
" clip-path="url(#pa0377bc19a)" style="fill: #1f77b4"/>
   </g>
   <g id="patch_175">
    <path d="M 399.50054 382.84 
L 401.285237 382.84 
L 401.285237 351.947783 
L 399.50054 351.947783 
z
" clip-path="url(#pa0377bc19a)" style="fill: #1f77b4"/>
   </g>
   <g id="patch_176">
    <path d="M 401.285237 382.84 
L 403.069935 382.84 
L 403.069935 382.84 
L 401.285237 382.84 
z
" clip-path="url(#pa0377bc19a)" style="fill: #1f77b4"/>
   </g>
   <g id="patch_177">
    <path d="M 403.069935 382.84 
L 404.854633 382.84 
L 404.854633 355.584322 
L 403.069935 355.584322 
z
" clip-path="url(#pa0377bc19a)" style="fill: #1f77b4"/>
   </g>
   <g id="patch_178">
    <path d="M 404.854633 382.84 
L 406.63933 382.84 
L 406.63933 382.84 
L 404.854633 382.84 
z
" clip-path="url(#pa0377bc19a)" style="fill: #1f77b4"/>
   </g>
   <g id="patch_179">
    <path d="M 406.63933 382.84 
L 408.424028 382.84 
L 408.424028 360.322843 
L 406.63933 360.322843 
z
" clip-path="url(#pa0377bc19a)" style="fill: #1f77b4"/>
   </g>
   <g id="patch_180">
    <path d="M 408.424028 382.84 
L 410.208725 382.84 
L 410.208725 382.84 
L 408.424028 382.84 
z
" clip-path="url(#pa0377bc19a)" style="fill: #1f77b4"/>
   </g>
   <g id="patch_181">
    <path d="M 410.208725 382.84 
L 411.993423 382.84 
L 411.993423 359.514723 
L 410.208725 359.514723 
z
" clip-path="url(#pa0377bc19a)" style="fill: #1f77b4"/>
   </g>
   <g id="patch_182">
    <path d="M 411.993423 382.84 
L 413.778121 382.84 
L 413.778121 382.84 
L 411.993423 382.84 
z
" clip-path="url(#pa0377bc19a)" style="fill: #1f77b4"/>
   </g>
   <g id="patch_183">
    <path d="M 413.778121 382.84 
L 415.562818 382.84 
L 415.562818 382.84 
L 413.778121 382.84 
z
" clip-path="url(#pa0377bc19a)" style="fill: #1f77b4"/>
   </g>
   <g id="patch_184">
    <path d="M 415.562818 382.84 
L 417.347516 382.84 
L 417.347516 365.391958 
L 415.562818 365.391958 
z
" clip-path="url(#pa0377bc19a)" style="fill: #1f77b4"/>
   </g>
   <g id="patch_185">
    <path d="M 417.347516 382.84 
L 419.132214 382.84 
L 419.132214 382.84 
L 417.347516 382.84 
z
" clip-path="url(#pa0377bc19a)" style="fill: #1f77b4"/>
   </g>
   <g id="patch_186">
    <path d="M 419.132214 382.84 
L 420.916911 382.84 
L 420.916911 368.918299 
L 419.132214 368.918299 
z
" clip-path="url(#pa0377bc19a)" style="fill: #1f77b4"/>
   </g>
   <g id="patch_187">
    <path d="M 420.916911 382.84 
L 422.701609 382.84 
L 422.701609 382.84 
L 420.916911 382.84 
z
" clip-path="url(#pa0377bc19a)" style="fill: #1f77b4"/>
   </g>
   <g id="patch_188">
    <path d="M 422.701609 382.84 
L 424.486307 382.84 
L 424.486307 370.938599 
L 422.701609 370.938599 
z
" clip-path="url(#pa0377bc19a)" style="fill: #1f77b4"/>
   </g>
   <g id="patch_189">
    <path d="M 424.486307 382.84 
L 426.271004 382.84 
L 426.271004 382.84 
L 424.486307 382.84 
z
" clip-path="url(#pa0377bc19a)" style="fill: #1f77b4"/>
   </g>
   <g id="patch_190">
    <path d="M 426.271004 382.84 
L 428.055702 382.84 
L 428.055702 372.8487 
L 426.271004 372.8487 
z
" clip-path="url(#pa0377bc19a)" style="fill: #1f77b4"/>
   </g>
   <g id="patch_191">
    <path d="M 428.055702 382.84 
L 429.840399 382.84 
L 429.840399 382.84 
L 428.055702 382.84 
z
" clip-path="url(#pa0377bc19a)" style="fill: #1f77b4"/>
   </g>
   <g id="patch_192">
    <path d="M 429.840399 382.84 
L 431.625097 382.84 
L 431.625097 375.750585 
L 429.840399 375.750585 
z
" clip-path="url(#pa0377bc19a)" style="fill: #1f77b4"/>
   </g>
   <g id="patch_193">
    <path d="M 431.625097 382.84 
L 433.409795 382.84 
L 433.409795 382.84 
L 431.625097 382.84 
z
" clip-path="url(#pa0377bc19a)" style="fill: #1f77b4"/>
   </g>
   <g id="patch_194">
    <path d="M 433.409795 382.84 
L 435.194492 382.84 
L 435.194492 377.293359 
L 433.409795 377.293359 
z
" clip-path="url(#pa0377bc19a)" style="fill: #1f77b4"/>
   </g>
   <g id="patch_195">
    <path d="M 435.194492 382.84 
L 436.97919 382.84 
L 436.97919 382.84 
L 435.194492 382.84 
z
" clip-path="url(#pa0377bc19a)" style="fill: #1f77b4"/>
   </g>
   <g id="patch_196">
    <path d="M 436.97919 382.84 
L 438.763888 382.84 
L 438.763888 378.358608 
L 436.97919 378.358608 
z
" clip-path="url(#pa0377bc19a)" style="fill: #1f77b4"/>
   </g>
   <g id="patch_197">
    <path d="M 438.763888 382.84 
L 440.548585 382.84 
L 440.548585 382.84 
L 438.763888 382.84 
z
" clip-path="url(#pa0377bc19a)" style="fill: #1f77b4"/>
   </g>
   <g id="patch_198">
    <path d="M 440.548585 382.84 
L 442.333283 382.84 
L 442.333283 382.84 
L 440.548585 382.84 
z
" clip-path="url(#pa0377bc19a)" style="fill: #1f77b4"/>
   </g>
   <g id="patch_199">
    <path d="M 442.333283 382.84 
L 444.117981 382.84 
L 444.117981 378.505539 
L 442.333283 378.505539 
z
" clip-path="url(#pa0377bc19a)" style="fill: #1f77b4"/>
   </g>
   <g id="patch_200">
    <path d="M 444.117981 382.84 
L 445.902678 382.84 
L 445.902678 382.84 
L 444.117981 382.84 
z
" clip-path="url(#pa0377bc19a)" style="fill: #1f77b4"/>
   </g>
   <g id="patch_201">
    <path d="M 445.902678 382.84 
L 447.687376 382.84 
L 447.687376 379.313659 
L 445.902678 379.313659 
z
" clip-path="url(#pa0377bc19a)" style="fill: #1f77b4"/>
   </g>
   <g id="patch_202">
    <path d="M 447.687376 382.84 
L 449.472073 382.84 
L 449.472073 382.84 
L 447.687376 382.84 
z
" clip-path="url(#pa0377bc19a)" style="fill: #1f77b4"/>
   </g>
   <g id="patch_203">
    <path d="M 449.472073 382.84 
L 451.256771 382.84 
L 451.256771 380.709502 
L 449.472073 380.709502 
z
" clip-path="url(#pa0377bc19a)" style="fill: #1f77b4"/>
   </g>
   <g id="patch_204">
    <path d="M 451.256771 382.84 
L 453.041469 382.84 
L 453.041469 382.84 
L 451.256771 382.84 
z
" clip-path="url(#pa0377bc19a)" style="fill: #1f77b4"/>
   </g>
   <g id="patch_205">
    <path d="M 453.041469 382.84 
L 454.826166 382.84 
L 454.826166 380.489106 
L 453.041469 380.489106 
z
" clip-path="url(#pa0377bc19a)" style="fill: #1f77b4"/>
   </g>
   <g id="patch_206">
    <path d="M 454.826166 382.84 
L 456.610864 382.84 
L 456.610864 382.84 
L 454.826166 382.84 
z
" clip-path="url(#pa0377bc19a)" style="fill: #1f77b4"/>
   </g>
   <g id="patch_207">
    <path d="M 456.610864 382.84 
L 458.395562 382.84 
L 458.395562 381.187028 
L 456.610864 381.187028 
z
" clip-path="url(#pa0377bc19a)" style="fill: #1f77b4"/>
   </g>
   <g id="patch_208">
    <path d="M 458.395562 382.84 
L 460.180259 382.84 
L 460.180259 382.84 
L 458.395562 382.84 
z
" clip-path="url(#pa0377bc19a)" style="fill: #1f77b4"/>
   </g>
   <g id="patch_209">
    <path d="M 460.180259 382.84 
L 461.964957 382.84 
L 461.964957 381.333959 
L 460.180259 381.333959 
z
" clip-path="url(#pa0377bc19a)" style="fill: #1f77b4"/>
   </g>
   <g id="patch_210">
    <path d="M 461.964957 382.84 
L 463.749655 382.84 
L 463.749655 382.84 
L 461.964957 382.84 
z
" clip-path="url(#pa0377bc19a)" style="fill: #1f77b4"/>
   </g>
   <g id="patch_211">
    <path d="M 463.749655 382.84 
L 465.534352 382.84 
L 465.534352 382.03188 
L 463.749655 382.03188 
z
" clip-path="url(#pa0377bc19a)" style="fill: #1f77b4"/>
   </g>
   <g id="patch_212">
    <path d="M 465.534352 382.84 
L 467.31905 382.84 
L 467.31905 382.84 
L 465.534352 382.84 
z
" clip-path="url(#pa0377bc19a)" style="fill: #1f77b4"/>
   </g>
   <g id="patch_213">
    <path d="M 467.31905 382.84 
L 469.103747 382.84 
L 469.103747 381.738018 
L 467.31905 381.738018 
z
" clip-path="url(#pa0377bc19a)" style="fill: #1f77b4"/>
   </g>
   <g id="patch_214">
    <path d="M 469.103747 382.84 
L 470.888445 382.84 
L 470.888445 382.84 
L 469.103747 382.84 
z
" clip-path="url(#pa0377bc19a)" style="fill: #1f77b4"/>
   </g>
   <g id="patch_215">
    <path d="M 470.888445 382.84 
L 472.673143 382.84 
L 472.673143 382.84 
L 470.888445 382.84 
z
" clip-path="url(#pa0377bc19a)" style="fill: #1f77b4"/>
   </g>
   <g id="patch_216">
    <path d="M 472.673143 382.84 
L 474.45784 382.84 
L 474.45784 382.142078 
L 472.673143 382.142078 
z
" clip-path="url(#pa0377bc19a)" style="fill: #1f77b4"/>
   </g>
   <g id="patch_217">
    <path d="M 474.45784 382.84 
L 476.242538 382.84 
L 476.242538 382.84 
L 474.45784 382.84 
z
" clip-path="url(#pa0377bc19a)" style="fill: #1f77b4"/>
   </g>
   <g id="patch_218">
    <path d="M 476.242538 382.84 
L 478.027236 382.84 
L 478.027236 382.215544 
L 476.242538 382.215544 
z
" clip-path="url(#pa0377bc19a)" style="fill: #1f77b4"/>
   </g>
   <g id="patch_219">
    <path d="M 478.027236 382.84 
L 479.811933 382.84 
L 479.811933 382.84 
L 478.027236 382.84 
z
" clip-path="url(#pa0377bc19a)" style="fill: #1f77b4"/>
   </g>
   <g id="patch_220">
    <path d="M 479.811933 382.84 
L 481.596631 382.84 
L 481.596631 382.43594 
L 479.811933 382.43594 
z
" clip-path="url(#pa0377bc19a)" style="fill: #1f77b4"/>
   </g>
   <g id="patch_221">
    <path d="M 481.596631 382.84 
L 483.381329 382.84 
L 483.381329 382.84 
L 481.596631 382.84 
z
" clip-path="url(#pa0377bc19a)" style="fill: #1f77b4"/>
   </g>
   <g id="patch_222">
    <path d="M 483.381329 382.84 
L 485.166026 382.84 
L 485.166026 382.325742 
L 483.381329 382.325742 
z
" clip-path="url(#pa0377bc19a)" style="fill: #1f77b4"/>
   </g>
   <g id="patch_223">
    <path d="M 485.166026 382.84 
L 486.950724 382.84 
L 486.950724 382.84 
L 485.166026 382.84 
z
" clip-path="url(#pa0377bc19a)" style="fill: #1f77b4"/>
   </g>
   <g id="patch_224">
    <path d="M 486.950724 382.84 
L 488.735421 382.84 
L 488.735421 382.656336 
L 486.950724 382.656336 
z
" clip-path="url(#pa0377bc19a)" style="fill: #1f77b4"/>
   </g>
   <g id="patch_225">
    <path d="M 488.735421 382.84 
L 490.520119 382.84 
L 490.520119 382.84 
L 488.735421 382.84 
z
" clip-path="url(#pa0377bc19a)" style="fill: #1f77b4"/>
   </g>
   <g id="patch_226">
    <path d="M 490.520119 382.84 
L 492.304817 382.84 
L 492.304817 382.84 
L 490.520119 382.84 
z
" clip-path="url(#pa0377bc19a)" style="fill: #1f77b4"/>
   </g>
   <g id="patch_227">
    <path d="M 492.304817 382.84 
L 494.089514 382.84 
L 494.089514 382.84 
L 492.304817 382.84 
z
" clip-path="url(#pa0377bc19a)" style="fill: #1f77b4"/>
   </g>
   <g id="patch_228">
    <path d="M 494.089514 382.84 
L 495.874212 382.84 
L 495.874212 382.84 
L 494.089514 382.84 
z
" clip-path="url(#pa0377bc19a)" style="fill: #1f77b4"/>
   </g>
   <g id="patch_229">
    <path d="M 495.874212 382.84 
L 497.65891 382.84 
L 497.65891 382.84 
L 495.874212 382.84 
z
" clip-path="url(#pa0377bc19a)" style="fill: #1f77b4"/>
   </g>
   <g id="patch_230">
    <path d="M 497.65891 382.84 
L 499.443607 382.84 
L 499.443607 382.729802 
L 497.65891 382.729802 
z
" clip-path="url(#pa0377bc19a)" style="fill: #1f77b4"/>
   </g>
   <g id="patch_231">
    <path d="M 499.443607 382.84 
L 501.228305 382.84 
L 501.228305 382.84 
L 499.443607 382.84 
z
" clip-path="url(#pa0377bc19a)" style="fill: #1f77b4"/>
   </g>
   <g id="patch_232">
    <path d="M 501.228305 382.84 
L 503.013003 382.84 
L 503.013003 382.84 
L 501.228305 382.84 
z
" clip-path="url(#pa0377bc19a)" style="fill: #1f77b4"/>
   </g>
   <g id="patch_233">
    <path d="M 503.013003 382.84 
L 504.7977 382.84 
L 504.7977 382.803267 
L 503.013003 382.803267 
z
" clip-path="url(#pa0377bc19a)" style="fill: #1f77b4"/>
   </g>
   <g id="patch_234">
    <path d="M 504.7977 382.84 
L 506.582398 382.84 
L 506.582398 382.84 
L 504.7977 382.84 
z
" clip-path="url(#pa0377bc19a)" style="fill: #1f77b4"/>
   </g>
   <g id="patch_235">
    <path d="M 506.582398 382.84 
L 508.367095 382.84 
L 508.367095 382.84 
L 506.582398 382.84 
z
" clip-path="url(#pa0377bc19a)" style="fill: #1f77b4"/>
   </g>
   <g id="patch_236">
    <path d="M 508.367095 382.84 
L 510.151793 382.84 
L 510.151793 382.84 
L 508.367095 382.84 
z
" clip-path="url(#pa0377bc19a)" style="fill: #1f77b4"/>
   </g>
   <g id="patch_237">
    <path d="M 510.151793 382.84 
L 511.936491 382.84 
L 511.936491 382.803267 
L 510.151793 382.803267 
z
" clip-path="url(#pa0377bc19a)" style="fill: #1f77b4"/>
   </g>
   <g id="patch_238">
    <path d="M 511.936491 382.84 
L 513.721188 382.84 
L 513.721188 382.84 
L 511.936491 382.84 
z
" clip-path="url(#pa0377bc19a)" style="fill: #1f77b4"/>
   </g>
   <g id="patch_239">
    <path d="M 513.721188 382.84 
L 515.505886 382.84 
L 515.505886 382.84 
L 513.721188 382.84 
z
" clip-path="url(#pa0377bc19a)" style="fill: #1f77b4"/>
   </g>
   <g id="patch_240">
    <path d="M 515.505886 382.84 
L 517.290584 382.84 
L 517.290584 382.84 
L 515.505886 382.84 
z
" clip-path="url(#pa0377bc19a)" style="fill: #1f77b4"/>
   </g>
   <g id="patch_241">
    <path d="M 517.290584 382.84 
L 519.075281 382.84 
L 519.075281 382.84 
L 517.290584 382.84 
z
" clip-path="url(#pa0377bc19a)" style="fill: #1f77b4"/>
   </g>
   <g id="patch_242">
    <path d="M 519.075281 382.84 
L 520.859979 382.84 
L 520.859979 382.84 
L 519.075281 382.84 
z
" clip-path="url(#pa0377bc19a)" style="fill: #1f77b4"/>
   </g>
   <g id="patch_243">
    <path d="M 520.859979 382.84 
L 522.644677 382.84 
L 522.644677 382.84 
L 520.859979 382.84 
z
" clip-path="url(#pa0377bc19a)" style="fill: #1f77b4"/>
   </g>
   <g id="patch_244">
    <path d="M 522.644677 382.84 
L 524.429374 382.84 
L 524.429374 382.84 
L 522.644677 382.84 
z
" clip-path="url(#pa0377bc19a)" style="fill: #1f77b4"/>
   </g>
   <g id="patch_245">
    <path d="M 524.429374 382.84 
L 526.214072 382.84 
L 526.214072 382.84 
L 524.429374 382.84 
z
" clip-path="url(#pa0377bc19a)" style="fill: #1f77b4"/>
   </g>
   <g id="patch_246">
    <path d="M 526.214072 382.84 
L 527.998769 382.84 
L 527.998769 382.84 
L 526.214072 382.84 
z
" clip-path="url(#pa0377bc19a)" style="fill: #1f77b4"/>
   </g>
   <g id="patch_247">
    <path d="M 527.998769 382.84 
L 529.783467 382.84 
L 529.783467 382.803267 
L 527.998769 382.803267 
z
" clip-path="url(#pa0377bc19a)" style="fill: #1f77b4"/>
   </g>
   <g id="matplotlib.axis_1">
    <g id="xtick_1">
     <g id="line2d_1">
      <defs>
       <path id="me3ecd92074" d="M 0 0 
L 0 3.5 
" style="stroke: #000000; stroke-width: 0.8"/>
      </defs>
      <g>
       <use xlink:href="#me3ecd92074" x="138.158729" y="382.84" style="stroke: #000000; stroke-width: 0.8"/>
      </g>
     </g>
     <g id="text_1">
      <!-- −14 -->
      <g transform="translate(127.606385 397.438438) scale(0.1 -0.1)">
       <defs>
        <path id="DejaVuSans-2212" d="M 678 2272 
L 4684 2272 
L 4684 1741 
L 678 1741 
L 678 2272 
z
" transform="scale(0.015625)"/>
        <path id="DejaVuSans-31" d="M 794 531 
L 1825 531 
L 1825 4091 
L 703 3866 
L 703 4441 
L 1819 4666 
L 2450 4666 
L 2450 531 
L 3481 531 
L 3481 0 
L 794 0 
L 794 531 
z
" transform="scale(0.015625)"/>
        <path id="DejaVuSans-34" d="M 2419 4116 
L 825 1625 
L 2419 1625 
L 2419 4116 
z
M 2253 4666 
L 3047 4666 
L 3047 1625 
L 3713 1625 
L 3713 1100 
L 3047 1100 
L 3047 0 
L 2419 0 
L 2419 1100 
L 313 1100 
L 313 1709 
L 2253 4666 
z
" transform="scale(0.015625)"/>
       </defs>
       <use xlink:href="#DejaVuSans-2212"/>
       <use xlink:href="#DejaVuSans-31" x="83.789062"/>
       <use xlink:href="#DejaVuSans-34" x="147.412109"/>
      </g>
     </g>
    </g>
    <g id="xtick_2">
     <g id="line2d_2">
      <g>
       <use xlink:href="#me3ecd92074" x="214.202368" y="382.84" style="stroke: #000000; stroke-width: 0.8"/>
      </g>
     </g>
     <g id="text_2">
      <!-- −12 -->
      <g transform="translate(203.650024 397.438438) scale(0.1 -0.1)">
       <defs>
        <path id="DejaVuSans-32" d="M 1228 531 
L 3431 531 
L 3431 0 
L 469 0 
L 469 531 
Q 828 903 1448 1529 
Q 2069 2156 2228 2338 
Q 2531 2678 2651 2914 
Q 2772 3150 2772 3378 
Q 2772 3750 2511 3984 
Q 2250 4219 1831 4219 
Q 1534 4219 1204 4116 
Q 875 4013 500 3803 
L 500 4441 
Q 881 4594 1212 4672 
Q 1544 4750 1819 4750 
Q 2544 4750 2975 4387 
Q 3406 4025 3406 3419 
Q 3406 3131 3298 2873 
Q 3191 2616 2906 2266 
Q 2828 2175 2409 1742 
Q 1991 1309 1228 531 
z
" transform="scale(0.015625)"/>
       </defs>
       <use xlink:href="#DejaVuSans-2212"/>
       <use xlink:href="#DejaVuSans-31" x="83.789062"/>
       <use xlink:href="#DejaVuSans-32" x="147.412109"/>
      </g>
     </g>
    </g>
    <g id="xtick_3">
     <g id="line2d_3">
      <g>
       <use xlink:href="#me3ecd92074" x="290.246006" y="382.84" style="stroke: #000000; stroke-width: 0.8"/>
      </g>
     </g>
     <g id="text_3">
      <!-- −10 -->
      <g transform="translate(279.693662 397.438438) scale(0.1 -0.1)">
       <defs>
        <path id="DejaVuSans-30" d="M 2034 4250 
Q 1547 4250 1301 3770 
Q 1056 3291 1056 2328 
Q 1056 1369 1301 889 
Q 1547 409 2034 409 
Q 2525 409 2770 889 
Q 3016 1369 3016 2328 
Q 3016 3291 2770 3770 
Q 2525 4250 2034 4250 
z
M 2034 4750 
Q 2819 4750 3233 4129 
Q 3647 3509 3647 2328 
Q 3647 1150 3233 529 
Q 2819 -91 2034 -91 
Q 1250 -91 836 529 
Q 422 1150 422 2328 
Q 422 3509 836 4129 
Q 1250 4750 2034 4750 
z
" transform="scale(0.015625)"/>
       </defs>
       <use xlink:href="#DejaVuSans-2212"/>
       <use xlink:href="#DejaVuSans-31" x="83.789062"/>
       <use xlink:href="#DejaVuSans-30" x="147.412109"/>
      </g>
     </g>
    </g>
    <g id="xtick_4">
     <g id="line2d_4">
      <g>
       <use xlink:href="#me3ecd92074" x="366.289644" y="382.84" style="stroke: #000000; stroke-width: 0.8"/>
      </g>
     </g>
     <g id="text_4">
      <!-- −8 -->
      <g transform="translate(358.918551 397.438438) scale(0.1 -0.1)">
       <defs>
        <path id="DejaVuSans-38" d="M 2034 2216 
Q 1584 2216 1326 1975 
Q 1069 1734 1069 1313 
Q 1069 891 1326 650 
Q 1584 409 2034 409 
Q 2484 409 2743 651 
Q 3003 894 3003 1313 
Q 3003 1734 2745 1975 
Q 2488 2216 2034 2216 
z
M 1403 2484 
Q 997 2584 770 2862 
Q 544 3141 544 3541 
Q 544 4100 942 4425 
Q 1341 4750 2034 4750 
Q 2731 4750 3128 4425 
Q 3525 4100 3525 3541 
Q 3525 3141 3298 2862 
Q 3072 2584 2669 2484 
Q 3125 2378 3379 2068 
Q 3634 1759 3634 1313 
Q 3634 634 3220 271 
Q 2806 -91 2034 -91 
Q 1263 -91 848 271 
Q 434 634 434 1313 
Q 434 1759 690 2068 
Q 947 2378 1403 2484 
z
M 1172 3481 
Q 1172 3119 1398 2916 
Q 1625 2713 2034 2713 
Q 2441 2713 2670 2916 
Q 2900 3119 2900 3481 
Q 2900 3844 2670 4047 
Q 2441 4250 2034 4250 
Q 1625 4250 1398 4047 
Q 1172 3844 1172 3481 
z
" transform="scale(0.015625)"/>
       </defs>
       <use xlink:href="#DejaVuSans-2212"/>
       <use xlink:href="#DejaVuSans-38" x="83.789062"/>
      </g>
     </g>
    </g>
    <g id="xtick_5">
     <g id="line2d_5">
      <g>
       <use xlink:href="#me3ecd92074" x="442.333283" y="382.84" style="stroke: #000000; stroke-width: 0.8"/>
      </g>
     </g>
     <g id="text_5">
      <!-- −6 -->
      <g transform="translate(434.962189 397.438438) scale(0.1 -0.1)">
       <defs>
        <path id="DejaVuSans-36" d="M 2113 2584 
Q 1688 2584 1439 2293 
Q 1191 2003 1191 1497 
Q 1191 994 1439 701 
Q 1688 409 2113 409 
Q 2538 409 2786 701 
Q 3034 994 3034 1497 
Q 3034 2003 2786 2293 
Q 2538 2584 2113 2584 
z
M 3366 4563 
L 3366 3988 
Q 3128 4100 2886 4159 
Q 2644 4219 2406 4219 
Q 1781 4219 1451 3797 
Q 1122 3375 1075 2522 
Q 1259 2794 1537 2939 
Q 1816 3084 2150 3084 
Q 2853 3084 3261 2657 
Q 3669 2231 3669 1497 
Q 3669 778 3244 343 
Q 2819 -91 2113 -91 
Q 1303 -91 875 529 
Q 447 1150 447 2328 
Q 447 3434 972 4092 
Q 1497 4750 2381 4750 
Q 2619 4750 2861 4703 
Q 3103 4656 3366 4563 
z
" transform="scale(0.015625)"/>
       </defs>
       <use xlink:href="#DejaVuSans-2212"/>
       <use xlink:href="#DejaVuSans-36" x="83.789062"/>
      </g>
     </g>
    </g>
    <g id="xtick_6">
     <g id="line2d_6">
      <g>
       <use xlink:href="#me3ecd92074" x="518.376921" y="382.84" style="stroke: #000000; stroke-width: 0.8"/>
      </g>
     </g>
     <g id="text_6">
      <!-- −4 -->
      <g transform="translate(511.005828 397.438438) scale(0.1 -0.1)">
       <use xlink:href="#DejaVuSans-2212"/>
       <use xlink:href="#DejaVuSans-34" x="83.789062"/>
      </g>
     </g>
    </g>
    <g id="text_7">
     <!-- PDE5A -->
     <g transform="translate(281.2316 417.195312) scale(0.18 -0.18)">
      <defs>
       <path id="DejaVuSans-50" d="M 1259 4147 
L 1259 2394 
L 2053 2394 
Q 2494 2394 2734 2622 
Q 2975 2850 2975 3272 
Q 2975 3691 2734 3919 
Q 2494 4147 2053 4147 
L 1259 4147 
z
M 628 4666 
L 2053 4666 
Q 2838 4666 3239 4311 
Q 3641 3956 3641 3272 
Q 3641 2581 3239 2228 
Q 2838 1875 2053 1875 
L 1259 1875 
L 1259 0 
L 628 0 
L 628 4666 
z
" transform="scale(0.015625)"/>
       <path id="DejaVuSans-44" d="M 1259 4147 
L 1259 519 
L 2022 519 
Q 2988 519 3436 956 
Q 3884 1394 3884 2338 
Q 3884 3275 3436 3711 
Q 2988 4147 2022 4147 
L 1259 4147 
z
M 628 4666 
L 1925 4666 
Q 3281 4666 3915 4102 
Q 4550 3538 4550 2338 
Q 4550 1131 3912 565 
Q 3275 0 1925 0 
L 628 0 
L 628 4666 
z
" transform="scale(0.015625)"/>
       <path id="DejaVuSans-45" d="M 628 4666 
L 3578 4666 
L 3578 4134 
L 1259 4134 
L 1259 2753 
L 3481 2753 
L 3481 2222 
L 1259 2222 
L 1259 531 
L 3634 531 
L 3634 0 
L 628 0 
L 628 4666 
z
" transform="scale(0.015625)"/>
       <path id="DejaVuSans-35" d="M 691 4666 
L 3169 4666 
L 3169 4134 
L 1269 4134 
L 1269 2991 
Q 1406 3038 1543 3061 
Q 1681 3084 1819 3084 
Q 2600 3084 3056 2656 
Q 3513 2228 3513 1497 
Q 3513 744 3044 326 
Q 2575 -91 1722 -91 
Q 1428 -91 1123 -41 
Q 819 9 494 109 
L 494 744 
Q 775 591 1075 516 
Q 1375 441 1709 441 
Q 2250 441 2565 725 
Q 2881 1009 2881 1497 
Q 2881 1984 2565 2268 
Q 2250 2553 1709 2553 
Q 1456 2553 1204 2497 
Q 953 2441 691 2322 
L 691 4666 
z
" transform="scale(0.015625)"/>
       <path id="DejaVuSans-41" d="M 2188 4044 
L 1331 1722 
L 3047 1722 
L 2188 4044 
z
M 1831 4666 
L 2547 4666 
L 4325 0 
L 3669 0 
L 3244 1197 
L 1141 1197 
L 716 0 
L 50 0 
L 1831 4666 
z
" transform="scale(0.015625)"/>
      </defs>
      <use xlink:href="#DejaVuSans-50"/>
      <use xlink:href="#DejaVuSans-44" x="60.302734"/>
      <use xlink:href="#DejaVuSans-45" x="137.304688"/>
      <use xlink:href="#DejaVuSans-35" x="200.488281"/>
      <use xlink:href="#DejaVuSans-41" x="264.111328"/>
     </g>
    </g>
   </g>
   <g id="matplotlib.axis_2">
    <g id="ytick_1">
     <g id="line2d_7">
      <defs>
       <path id="m0e6ce60d38" d="M 0 0 
L -3.5 0 
" style="stroke: #000000; stroke-width: 0.8"/>
      </defs>
      <g>
       <use xlink:href="#m0e6ce60d38" x="70.67" y="382.84" style="stroke: #000000; stroke-width: 0.8"/>
      </g>
     </g>
     <g id="text_8">
      <!-- 0 -->
      <g transform="translate(57.3075 386.639219) scale(0.1 -0.1)">
       <use xlink:href="#DejaVuSans-30"/>
      </g>
     </g>
    </g>
    <g id="ytick_2">
     <g id="line2d_8">
      <g>
       <use xlink:href="#m0e6ce60d38" x="70.67" y="309.374562" style="stroke: #000000; stroke-width: 0.8"/>
      </g>
     </g>
     <g id="text_9">
      <!-- 2000 -->
      <g transform="translate(38.22 313.17378) scale(0.1 -0.1)">
       <use xlink:href="#DejaVuSans-32"/>
       <use xlink:href="#DejaVuSans-30" x="63.623047"/>
       <use xlink:href="#DejaVuSans-30" x="127.246094"/>
       <use xlink:href="#DejaVuSans-30" x="190.869141"/>
      </g>
     </g>
    </g>
    <g id="ytick_3">
     <g id="line2d_9">
      <g>
       <use xlink:href="#m0e6ce60d38" x="70.67" y="235.909123" style="stroke: #000000; stroke-width: 0.8"/>
      </g>
     </g>
     <g id="text_10">
      <!-- 4000 -->
      <g transform="translate(38.22 239.708342) scale(0.1 -0.1)">
       <use xlink:href="#DejaVuSans-34"/>
       <use xlink:href="#DejaVuSans-30" x="63.623047"/>
       <use xlink:href="#DejaVuSans-30" x="127.246094"/>
       <use xlink:href="#DejaVuSans-30" x="190.869141"/>
      </g>
     </g>
    </g>
    <g id="ytick_4">
     <g id="line2d_10">
      <g>
       <use xlink:href="#m0e6ce60d38" x="70.67" y="162.443685" style="stroke: #000000; stroke-width: 0.8"/>
      </g>
     </g>
     <g id="text_11">
      <!-- 6000 -->
      <g transform="translate(38.22 166.242903) scale(0.1 -0.1)">
       <use xlink:href="#DejaVuSans-36"/>
       <use xlink:href="#DejaVuSans-30" x="63.623047"/>
       <use xlink:href="#DejaVuSans-30" x="127.246094"/>
       <use xlink:href="#DejaVuSans-30" x="190.869141"/>
      </g>
     </g>
    </g>
    <g id="ytick_5">
     <g id="line2d_11">
      <g>
       <use xlink:href="#m0e6ce60d38" x="70.67" y="88.978246" style="stroke: #000000; stroke-width: 0.8"/>
      </g>
     </g>
     <g id="text_12">
      <!-- 8000 -->
      <g transform="translate(38.22 92.777465) scale(0.1 -0.1)">
       <use xlink:href="#DejaVuSans-38"/>
       <use xlink:href="#DejaVuSans-30" x="63.623047"/>
       <use xlink:href="#DejaVuSans-30" x="127.246094"/>
       <use xlink:href="#DejaVuSans-30" x="190.869141"/>
      </g>
     </g>
    </g>
    <g id="ytick_6">
     <g id="line2d_12">
      <g>
       <use xlink:href="#m0e6ce60d38" x="70.67" y="15.512808" style="stroke: #000000; stroke-width: 0.8"/>
      </g>
     </g>
     <g id="text_13">
      <!-- 10000 -->
      <g transform="translate(31.8575 19.312027) scale(0.1 -0.1)">
       <use xlink:href="#DejaVuSans-31"/>
       <use xlink:href="#DejaVuSans-30" x="63.623047"/>
       <use xlink:href="#DejaVuSans-30" x="127.246094"/>
       <use xlink:href="#DejaVuSans-30" x="190.869141"/>
       <use xlink:href="#DejaVuSans-30" x="254.492188"/>
      </g>
     </g>
    </g>
    <g id="text_14">
     <!-- Count -->
     <g transform="translate(24.114063 223.547188) rotate(-90) scale(0.18 -0.18)">
      <defs>
       <path id="DejaVuSans-43" d="M 4122 4306 
L 4122 3641 
Q 3803 3938 3442 4084 
Q 3081 4231 2675 4231 
Q 1875 4231 1450 3742 
Q 1025 3253 1025 2328 
Q 1025 1406 1450 917 
Q 1875 428 2675 428 
Q 3081 428 3442 575 
Q 3803 722 4122 1019 
L 4122 359 
Q 3791 134 3420 21 
Q 3050 -91 2638 -91 
Q 1578 -91 968 557 
Q 359 1206 359 2328 
Q 359 3453 968 4101 
Q 1578 4750 2638 4750 
Q 3056 4750 3426 4639 
Q 3797 4528 4122 4306 
z
" transform="scale(0.015625)"/>
       <path id="DejaVuSans-6f" d="M 1959 3097 
Q 1497 3097 1228 2736 
Q 959 2375 959 1747 
Q 959 1119 1226 758 
Q 1494 397 1959 397 
Q 2419 397 2687 759 
Q 2956 1122 2956 1747 
Q 2956 2369 2687 2733 
Q 2419 3097 1959 3097 
z
M 1959 3584 
Q 2709 3584 3137 3096 
Q 3566 2609 3566 1747 
Q 3566 888 3137 398 
Q 2709 -91 1959 -91 
Q 1206 -91 779 398 
Q 353 888 353 1747 
Q 353 2609 779 3096 
Q 1206 3584 1959 3584 
z
" transform="scale(0.015625)"/>
       <path id="DejaVuSans-75" d="M 544 1381 
L 544 3500 
L 1119 3500 
L 1119 1403 
Q 1119 906 1312 657 
Q 1506 409 1894 409 
Q 2359 409 2629 706 
Q 2900 1003 2900 1516 
L 2900 3500 
L 3475 3500 
L 3475 0 
L 2900 0 
L 2900 538 
Q 2691 219 2414 64 
Q 2138 -91 1772 -91 
Q 1169 -91 856 284 
Q 544 659 544 1381 
z
M 1991 3584 
L 1991 3584 
z
" transform="scale(0.015625)"/>
       <path id="DejaVuSans-6e" d="M 3513 2113 
L 3513 0 
L 2938 0 
L 2938 2094 
Q 2938 2591 2744 2837 
Q 2550 3084 2163 3084 
Q 1697 3084 1428 2787 
Q 1159 2491 1159 1978 
L 1159 0 
L 581 0 
L 581 3500 
L 1159 3500 
L 1159 2956 
Q 1366 3272 1645 3428 
Q 1925 3584 2291 3584 
Q 2894 3584 3203 3211 
Q 3513 2838 3513 2113 
z
" transform="scale(0.015625)"/>
       <path id="DejaVuSans-74" d="M 1172 4494 
L 1172 3500 
L 2356 3500 
L 2356 3053 
L 1172 3053 
L 1172 1153 
Q 1172 725 1289 603 
Q 1406 481 1766 481 
L 2356 481 
L 2356 0 
L 1766 0 
Q 1100 0 847 248 
Q 594 497 594 1153 
L 594 3053 
L 172 3053 
L 172 3500 
L 594 3500 
L 594 4494 
L 1172 4494 
z
" transform="scale(0.015625)"/>
      </defs>
      <use xlink:href="#DejaVuSans-43"/>
      <use xlink:href="#DejaVuSans-6f" x="69.824219"/>
      <use xlink:href="#DejaVuSans-75" x="131.005859"/>
      <use xlink:href="#DejaVuSans-6e" x="194.384766"/>
      <use xlink:href="#DejaVuSans-74" x="257.763672"/>
     </g>
    </g>
   </g>
   <g id="line2d_13">
    <path d="M 252.224187 382.84 
L 252.224187 28.51619 
" clip-path="url(#pa0377bc19a)" style="fill: none; stroke: #ff0000; stroke-width: 1.6; stroke-linecap: square"/>
   </g>
   <g id="patch_248">
    <path d="M 70.67 382.84 
L 70.67 10.8 
" style="fill: none; stroke: #000000; stroke-width: 0.8; stroke-linejoin: miter; stroke-linecap: square"/>
   </g>
   <g id="patch_249">
    <path d="M 551.646013 382.84 
L 551.646013 10.8 
" style="fill: none; stroke: #000000; stroke-width: 0.8; stroke-linejoin: miter; stroke-linecap: square"/>
   </g>
   <g id="patch_250">
    <path d="M 70.67 382.84 
L 551.646013 382.84 
" style="fill: none; stroke: #000000; stroke-width: 0.8; stroke-linejoin: miter; stroke-linecap: square"/>
   </g>
   <g id="patch_251">
    <path d="M 70.67 10.8 
L 551.646013 10.8 
" style="fill: none; stroke: #000000; stroke-width: 0.8; stroke-linejoin: miter; stroke-linecap: square"/>
   </g>
   <g id="text_15">
    <!-- $\mu_13 = -9.807$ -->
    <g transform="translate(407.353209 61.649937) scale(0.21 -0.21)">
     <defs>
      <path id="DejaVuSans-Oblique-3bc" d="M -84 -1331 
L 856 3500 
L 1434 3500 
L 1009 1322 
Q 997 1256 987 1175 
Q 978 1094 978 1013 
Q 978 722 1161 565 
Q 1344 409 1684 409 
Q 2147 409 2431 671 
Q 2716 934 2816 1459 
L 3213 3500 
L 3788 3500 
L 3266 809 
Q 3253 750 3248 706 
Q 3244 663 3244 628 
Q 3244 531 3283 486 
Q 3322 441 3406 441 
Q 3438 441 3492 456 
Q 3547 472 3647 513 
L 3559 50 
Q 3422 -19 3297 -55 
Q 3172 -91 3053 -91 
Q 2847 -91 2730 40 
Q 2613 172 2613 403 
Q 2438 153 2195 31 
Q 1953 -91 1625 -91 
Q 1334 -91 1117 43 
Q 900 178 831 397 
L 494 -1331 
L -84 -1331 
z
" transform="scale(0.015625)"/>
      <path id="DejaVuSans-33" d="M 2597 2516 
Q 3050 2419 3304 2112 
Q 3559 1806 3559 1356 
Q 3559 666 3084 287 
Q 2609 -91 1734 -91 
Q 1441 -91 1130 -33 
Q 819 25 488 141 
L 488 750 
Q 750 597 1062 519 
Q 1375 441 1716 441 
Q 2309 441 2620 675 
Q 2931 909 2931 1356 
Q 2931 1769 2642 2001 
Q 2353 2234 1838 2234 
L 1294 2234 
L 1294 2753 
L 1863 2753 
Q 2328 2753 2575 2939 
Q 2822 3125 2822 3475 
Q 2822 3834 2567 4026 
Q 2313 4219 1838 4219 
Q 1578 4219 1281 4162 
Q 984 4106 628 3988 
L 628 4550 
Q 988 4650 1302 4700 
Q 1616 4750 1894 4750 
Q 2613 4750 3031 4423 
Q 3450 4097 3450 3541 
Q 3450 3153 3228 2886 
Q 3006 2619 2597 2516 
z
" transform="scale(0.015625)"/>
      <path id="DejaVuSans-3d" d="M 678 2906 
L 4684 2906 
L 4684 2381 
L 678 2381 
L 678 2906 
z
M 678 1631 
L 4684 1631 
L 4684 1100 
L 678 1100 
L 678 1631 
z
" transform="scale(0.015625)"/>
      <path id="DejaVuSans-39" d="M 703 97 
L 703 672 
Q 941 559 1184 500 
Q 1428 441 1663 441 
Q 2288 441 2617 861 
Q 2947 1281 2994 2138 
Q 2813 1869 2534 1725 
Q 2256 1581 1919 1581 
Q 1219 1581 811 2004 
Q 403 2428 403 3163 
Q 403 3881 828 4315 
Q 1253 4750 1959 4750 
Q 2769 4750 3195 4129 
Q 3622 3509 3622 2328 
Q 3622 1225 3098 567 
Q 2575 -91 1691 -91 
Q 1453 -91 1209 -44 
Q 966 3 703 97 
z
M 1959 2075 
Q 2384 2075 2632 2365 
Q 2881 2656 2881 3163 
Q 2881 3666 2632 3958 
Q 2384 4250 1959 4250 
Q 1534 4250 1286 3958 
Q 1038 3666 1038 3163 
Q 1038 2656 1286 2365 
Q 1534 2075 1959 2075 
z
" transform="scale(0.015625)"/>
      <path id="DejaVuSans-2e" d="M 684 794 
L 1344 794 
L 1344 0 
L 684 0 
L 684 794 
z
" transform="scale(0.015625)"/>
      <path id="DejaVuSans-37" d="M 525 4666 
L 3525 4666 
L 3525 4397 
L 1831 0 
L 1172 0 
L 2766 4134 
L 525 4134 
L 525 4666 
z
" transform="scale(0.015625)"/>
     </defs>
     <use xlink:href="#DejaVuSans-Oblique-3bc" transform="translate(0 0.78125)"/>
     <use xlink:href="#DejaVuSans-31" transform="translate(63.623047 -15.625) scale(0.7)"/>
     <use xlink:href="#DejaVuSans-33" transform="translate(110.893555 0.78125)"/>
     <use xlink:href="#DejaVuSans-3d" transform="translate(193.999023 0.78125)"/>
     <use xlink:href="#DejaVuSans-2212" transform="translate(316.75293 0.78125)"/>
     <use xlink:href="#DejaVuSans-39" transform="translate(420.024414 0.78125)"/>
     <use xlink:href="#DejaVuSans-2e" transform="translate(483.647461 0.78125)"/>
     <use xlink:href="#DejaVuSans-38" transform="translate(512.80957 0.78125)"/>
     <use xlink:href="#DejaVuSans-30" transform="translate(576.432617 0.78125)"/>
     <use xlink:href="#DejaVuSans-37" transform="translate(640.055664 0.78125)"/>
    </g>
    <!-- $\sigma_13 = 1.189$ -->
    <g transform="translate(407.353209 85.208) scale(0.21 -0.21)">
     <defs>
      <path id="DejaVuSans-Oblique-3c3" d="M 2219 3044 
Q 1744 3044 1422 2700 
Q 1081 2341 969 1747 
Q 844 1119 1044 756 
Q 1241 397 1706 397 
Q 2166 397 2503 759 
Q 2844 1122 2966 1747 
Q 3075 2319 2881 2700 
Q 2700 3044 2219 3044 
z
M 2309 3503 
L 4219 3500 
L 4106 2925 
L 3463 2925 
Q 3706 2438 3575 1747 
Q 3406 888 2884 400 
Q 2359 -91 1609 -91 
Q 856 -91 525 400 
Q 194 888 363 1747 
Q 528 2609 1050 3097 
Q 1484 3503 2309 3503 
z
" transform="scale(0.015625)"/>
     </defs>
     <use xlink:href="#DejaVuSans-Oblique-3c3" transform="translate(0 0.78125)"/>
     <use xlink:href="#DejaVuSans-31" transform="translate(63.378906 -15.625) scale(0.7)"/>
     <use xlink:href="#DejaVuSans-33" transform="translate(110.649414 0.78125)"/>
     <use xlink:href="#DejaVuSans-3d" transform="translate(193.754883 0.78125)"/>
     <use xlink:href="#DejaVuSans-31" transform="translate(297.026367 0.78125)"/>
     <use xlink:href="#DejaVuSans-2e" transform="translate(360.649414 0.78125)"/>
     <use xlink:href="#DejaVuSans-31" transform="translate(392.436523 0.78125)"/>
     <use xlink:href="#DejaVuSans-38" transform="translate(456.05957 0.78125)"/>
     <use xlink:href="#DejaVuSans-39" transform="translate(519.682617 0.78125)"/>
    </g>
   </g>
  </g>
 </g>
 <defs>
  <clipPath id="pa0377bc19a">
   <rect x="70.67" y="10.8" width="480.976013" height="372.04"/>
  </clipPath>
 </defs>
</svg>
