<?xml version="1.0" encoding="utf-8" standalone="no"?>
<!DOCTYPE svg PUBLIC "-//W3C//DTD SVG 1.1//EN"
  "http://www.w3.org/Graphics/SVG/1.1/DTD/svg11.dtd">
<svg xmlns:xlink="http://www.w3.org/1999/xlink" width="576pt" height="432pt" viewBox="0 0 576 432" xmlns="http://www.w3.org/2000/svg" version="1.1">
 <metadata>
  <rdf:RDF xmlns:dc="http://purl.org/dc/elements/1.1/" xmlns:cc="http://creativecommons.org/ns#" xmlns:rdf="http://www.w3.org/1999/02/22-rdf-syntax-ns#">
   <cc:Work>
    <dc:type rdf:resource="http://purl.org/dc/dcmitype/StillImage"/>
    <dc:date>2024-09-05T19:41:26.157128</dc:date>
    <dc:format>image/svg+xml</dc:format>
    <dc:creator>
     <cc:Agent>
      <dc:title>Matplotlib v3.7.2, https://matplotlib.org/</dc:title>
     </cc:Agent>
    </dc:creator>
   </cc:Work>
  </rdf:RDF>
 </metadata>
 <defs>
  <style type="text/css">*{stroke-linejoin: round; stroke-linecap: butt}</style>
 </defs>
 <g id="figure_1">
  <g id="patch_1">
   <path d="M 0 432 
L 576 432 
L 576 0 
L 0 0 
z
" style="fill: #ffffff"/>
  </g>
  <g id="axes_1">
   <g id="patch_2">
    <path d="M 64.37 382.84 
L 551.376013 382.84 
L 551.376013 10.8 
L 64.37 10.8 
z
" style="fill: #ffffff"/>
   </g>
   <g id="patch_3">
    <path d="M 86.506637 382.84 
L 88.537521 382.84 
L 88.537521 382.8026 
L 86.506637 382.8026 
z
" clip-path="url(#p35d5876630)" style="fill: #1f77b4"/>
   </g>
   <g id="patch_4">
    <path d="M 88.537521 382.84 
L 90.568405 382.84 
L 90.568405 382.84 
L 88.537521 382.84 
z
" clip-path="url(#p35d5876630)" style="fill: #1f77b4"/>
   </g>
   <g id="patch_5">
    <path d="M 90.568405 382.84 
L 92.599289 382.84 
L 92.599289 382.84 
L 90.568405 382.84 
z
" clip-path="url(#p35d5876630)" style="fill: #1f77b4"/>
   </g>
   <g id="patch_6">
    <path d="M 92.599289 382.84 
L 94.630173 382.84 
L 94.630173 382.84 
L 92.599289 382.84 
z
" clip-path="url(#p35d5876630)" style="fill: #1f77b4"/>
   </g>
   <g id="patch_7">
    <path d="M 94.630173 382.84 
L 96.661058 382.84 
L 96.661058 382.84 
L 94.630173 382.84 
z
" clip-path="url(#p35d5876630)" style="fill: #1f77b4"/>
   </g>
   <g id="patch_8">
    <path d="M 96.661058 382.84 
L 98.691942 382.84 
L 98.691942 382.84 
L 96.661058 382.84 
z
" clip-path="url(#p35d5876630)" style="fill: #1f77b4"/>
   </g>
   <g id="patch_9">
    <path d="M 98.691942 382.84 
L 100.722826 382.84 
L 100.722826 382.653002 
L 98.691942 382.653002 
z
" clip-path="url(#p35d5876630)" style="fill: #1f77b4"/>
   </g>
   <g id="patch_10">
    <path d="M 100.722826 382.84 
L 102.75371 382.84 
L 102.75371 382.84 
L 100.722826 382.84 
z
" clip-path="url(#p35d5876630)" style="fill: #1f77b4"/>
   </g>
   <g id="patch_11">
    <path d="M 102.75371 382.84 
L 104.784594 382.84 
L 104.784594 382.765201 
L 102.75371 382.765201 
z
" clip-path="url(#p35d5876630)" style="fill: #1f77b4"/>
   </g>
   <g id="patch_12">
    <path d="M 104.784594 382.84 
L 106.815478 382.84 
L 106.815478 382.84 
L 104.784594 382.84 
z
" clip-path="url(#p35d5876630)" style="fill: #1f77b4"/>
   </g>
   <g id="patch_13">
    <path d="M 106.815478 382.84 
L 108.846362 382.84 
L 108.846362 382.765201 
L 106.815478 382.765201 
z
" clip-path="url(#p35d5876630)" style="fill: #1f77b4"/>
   </g>
   <g id="patch_14">
    <path d="M 108.846362 382.84 
L 110.877246 382.84 
L 110.877246 382.84 
L 108.846362 382.84 
z
" clip-path="url(#p35d5876630)" style="fill: #1f77b4"/>
   </g>
   <g id="patch_15">
    <path d="M 110.877246 382.84 
L 112.908131 382.84 
L 112.908131 382.727801 
L 110.877246 382.727801 
z
" clip-path="url(#p35d5876630)" style="fill: #1f77b4"/>
   </g>
   <g id="patch_16">
    <path d="M 112.908131 382.84 
L 114.939015 382.84 
L 114.939015 382.84 
L 112.908131 382.84 
z
" clip-path="url(#p35d5876630)" style="fill: #1f77b4"/>
   </g>
   <g id="patch_17">
    <path d="M 114.939015 382.84 
L 116.969899 382.84 
L 116.969899 382.84 
L 114.939015 382.84 
z
" clip-path="url(#p35d5876630)" style="fill: #1f77b4"/>
   </g>
   <g id="patch_18">
    <path d="M 116.969899 382.84 
L 119.000783 382.84 
L 119.000783 382.84 
L 116.969899 382.84 
z
" clip-path="url(#p35d5876630)" style="fill: #1f77b4"/>
   </g>
   <g id="patch_19">
    <path d="M 119.000783 382.84 
L 121.031667 382.84 
L 121.031667 382.84 
L 119.000783 382.84 
z
" clip-path="url(#p35d5876630)" style="fill: #1f77b4"/>
   </g>
   <g id="patch_20">
    <path d="M 121.031667 382.84 
L 123.062551 382.84 
L 123.062551 382.765201 
L 121.031667 382.765201 
z
" clip-path="url(#p35d5876630)" style="fill: #1f77b4"/>
   </g>
   <g id="patch_21">
    <path d="M 123.062551 382.84 
L 125.093435 382.84 
L 125.093435 382.84 
L 123.062551 382.84 
z
" clip-path="url(#p35d5876630)" style="fill: #1f77b4"/>
   </g>
   <g id="patch_22">
    <path d="M 125.093435 382.84 
L 127.124319 382.84 
L 127.124319 382.690402 
L 125.093435 382.690402 
z
" clip-path="url(#p35d5876630)" style="fill: #1f77b4"/>
   </g>
   <g id="patch_23">
    <path d="M 127.124319 382.84 
L 129.155204 382.84 
L 129.155204 382.84 
L 127.124319 382.84 
z
" clip-path="url(#p35d5876630)" style="fill: #1f77b4"/>
   </g>
   <g id="patch_24">
    <path d="M 129.155204 382.84 
L 131.186088 382.84 
L 131.186088 382.765201 
L 129.155204 382.765201 
z
" clip-path="url(#p35d5876630)" style="fill: #1f77b4"/>
   </g>
   <g id="patch_25">
    <path d="M 131.186088 382.84 
L 133.216972 382.84 
L 133.216972 382.84 
L 131.186088 382.84 
z
" clip-path="url(#p35d5876630)" style="fill: #1f77b4"/>
   </g>
   <g id="patch_26">
    <path d="M 133.216972 382.84 
L 135.247856 382.84 
L 135.247856 382.578203 
L 133.216972 382.578203 
z
" clip-path="url(#p35d5876630)" style="fill: #1f77b4"/>
   </g>
   <g id="patch_27">
    <path d="M 135.247856 382.84 
L 137.27874 382.84 
L 137.27874 382.84 
L 135.247856 382.84 
z
" clip-path="url(#p35d5876630)" style="fill: #1f77b4"/>
   </g>
   <g id="patch_28">
    <path d="M 137.27874 382.84 
L 139.309624 382.84 
L 139.309624 382.727801 
L 137.27874 382.727801 
z
" clip-path="url(#p35d5876630)" style="fill: #1f77b4"/>
   </g>
   <g id="patch_29">
    <path d="M 139.309624 382.84 
L 141.340508 382.84 
L 141.340508 382.84 
L 139.309624 382.84 
z
" clip-path="url(#p35d5876630)" style="fill: #1f77b4"/>
   </g>
   <g id="patch_30">
    <path d="M 141.340508 382.84 
L 143.371392 382.84 
L 143.371392 382.391205 
L 141.340508 382.391205 
z
" clip-path="url(#p35d5876630)" style="fill: #1f77b4"/>
   </g>
   <g id="patch_31">
    <path d="M 143.371392 382.84 
L 145.402277 382.84 
L 145.402277 382.84 
L 143.371392 382.84 
z
" clip-path="url(#p35d5876630)" style="fill: #1f77b4"/>
   </g>
   <g id="patch_32">
    <path d="M 145.402277 382.84 
L 147.433161 382.84 
L 147.433161 382.279006 
L 145.402277 382.279006 
z
" clip-path="url(#p35d5876630)" style="fill: #1f77b4"/>
   </g>
   <g id="patch_33">
    <path d="M 147.433161 382.84 
L 149.464045 382.84 
L 149.464045 382.84 
L 147.433161 382.84 
z
" clip-path="url(#p35d5876630)" style="fill: #1f77b4"/>
   </g>
   <g id="patch_34">
    <path d="M 149.464045 382.84 
L 151.494929 382.84 
L 151.494929 382.84 
L 149.464045 382.84 
z
" clip-path="url(#p35d5876630)" style="fill: #1f77b4"/>
   </g>
   <g id="patch_35">
    <path d="M 151.494929 382.84 
L 153.525813 382.84 
L 153.525813 382.279006 
L 151.494929 382.279006 
z
" clip-path="url(#p35d5876630)" style="fill: #1f77b4"/>
   </g>
   <g id="patch_36">
    <path d="M 153.525813 382.84 
L 155.556697 382.84 
L 155.556697 382.84 
L 153.525813 382.84 
z
" clip-path="url(#p35d5876630)" style="fill: #1f77b4"/>
   </g>
   <g id="patch_37">
    <path d="M 155.556697 382.84 
L 157.587581 382.84 
L 157.587581 382.129408 
L 155.556697 382.129408 
z
" clip-path="url(#p35d5876630)" style="fill: #1f77b4"/>
   </g>
   <g id="patch_38">
    <path d="M 157.587581 382.84 
L 159.618465 382.84 
L 159.618465 382.84 
L 157.587581 382.84 
z
" clip-path="url(#p35d5876630)" style="fill: #1f77b4"/>
   </g>
   <g id="patch_39">
    <path d="M 159.618465 382.84 
L 161.64935 382.84 
L 161.64935 381.90501 
L 159.618465 381.90501 
z
" clip-path="url(#p35d5876630)" style="fill: #1f77b4"/>
   </g>
   <g id="patch_40">
    <path d="M 161.64935 382.84 
L 163.680234 382.84 
L 163.680234 382.84 
L 161.64935 382.84 
z
" clip-path="url(#p35d5876630)" style="fill: #1f77b4"/>
   </g>
   <g id="patch_41">
    <path d="M 163.680234 382.84 
L 165.711118 382.84 
L 165.711118 381.119618 
L 163.680234 381.119618 
z
" clip-path="url(#p35d5876630)" style="fill: #1f77b4"/>
   </g>
   <g id="patch_42">
    <path d="M 165.711118 382.84 
L 167.742002 382.84 
L 167.742002 382.84 
L 165.711118 382.84 
z
" clip-path="url(#p35d5876630)" style="fill: #1f77b4"/>
   </g>
   <g id="patch_43">
    <path d="M 167.742002 382.84 
L 169.772886 382.84 
L 169.772886 380.708223 
L 167.742002 380.708223 
z
" clip-path="url(#p35d5876630)" style="fill: #1f77b4"/>
   </g>
   <g id="patch_44">
    <path d="M 169.772886 382.84 
L 171.80377 382.84 
L 171.80377 382.84 
L 169.772886 382.84 
z
" clip-path="url(#p35d5876630)" style="fill: #1f77b4"/>
   </g>
   <g id="patch_45">
    <path d="M 171.80377 382.84 
L 173.834654 382.84 
L 173.834654 380.296827 
L 171.80377 380.296827 
z
" clip-path="url(#p35d5876630)" style="fill: #1f77b4"/>
   </g>
   <g id="patch_46">
    <path d="M 173.834654 382.84 
L 175.865538 382.84 
L 175.865538 382.84 
L 173.834654 382.84 
z
" clip-path="url(#p35d5876630)" style="fill: #1f77b4"/>
   </g>
   <g id="patch_47">
    <path d="M 175.865538 382.84 
L 177.896423 382.84 
L 177.896423 379.735833 
L 175.865538 379.735833 
z
" clip-path="url(#p35d5876630)" style="fill: #1f77b4"/>
   </g>
   <g id="patch_48">
    <path d="M 177.896423 382.84 
L 179.927307 382.84 
L 179.927307 382.84 
L 177.896423 382.84 
z
" clip-path="url(#p35d5876630)" style="fill: #1f77b4"/>
   </g>
   <g id="patch_49">
    <path d="M 179.927307 382.84 
L 181.958191 382.84 
L 181.958191 382.84 
L 179.927307 382.84 
z
" clip-path="url(#p35d5876630)" style="fill: #1f77b4"/>
   </g>
   <g id="patch_50">
    <path d="M 181.958191 382.84 
L 183.989075 382.84 
L 183.989075 378.389448 
L 181.958191 378.389448 
z
" clip-path="url(#p35d5876630)" style="fill: #1f77b4"/>
   </g>
   <g id="patch_51">
    <path d="M 183.989075 382.84 
L 186.019959 382.84 
L 186.019959 382.84 
L 183.989075 382.84 
z
" clip-path="url(#p35d5876630)" style="fill: #1f77b4"/>
   </g>
   <g id="patch_52">
    <path d="M 186.019959 382.84 
L 188.050843 382.84 
L 188.050843 377.23006 
L 186.019959 377.23006 
z
" clip-path="url(#p35d5876630)" style="fill: #1f77b4"/>
   </g>
   <g id="patch_53">
    <path d="M 188.050843 382.84 
L 190.081727 382.84 
L 190.081727 382.84 
L 188.050843 382.84 
z
" clip-path="url(#p35d5876630)" style="fill: #1f77b4"/>
   </g>
   <g id="patch_54">
    <path d="M 190.081727 382.84 
L 192.112611 382.84 
L 192.112611 374.499889 
L 190.081727 374.499889 
z
" clip-path="url(#p35d5876630)" style="fill: #1f77b4"/>
   </g>
   <g id="patch_55">
    <path d="M 192.112611 382.84 
L 194.143496 382.84 
L 194.143496 382.84 
L 192.112611 382.84 
z
" clip-path="url(#p35d5876630)" style="fill: #1f77b4"/>
   </g>
   <g id="patch_56">
    <path d="M 194.143496 382.84 
L 196.17438 382.84 
L 196.17438 372.59251 
L 194.143496 372.59251 
z
" clip-path="url(#p35d5876630)" style="fill: #1f77b4"/>
   </g>
   <g id="patch_57">
    <path d="M 196.17438 382.84 
L 198.205264 382.84 
L 198.205264 382.84 
L 196.17438 382.84 
z
" clip-path="url(#p35d5876630)" style="fill: #1f77b4"/>
   </g>
   <g id="patch_58">
    <path d="M 198.205264 382.84 
L 200.236148 382.84 
L 200.236148 370.834728 
L 198.205264 370.834728 
z
" clip-path="url(#p35d5876630)" style="fill: #1f77b4"/>
   </g>
   <g id="patch_59">
    <path d="M 200.236148 382.84 
L 202.267032 382.84 
L 202.267032 382.84 
L 200.236148 382.84 
z
" clip-path="url(#p35d5876630)" style="fill: #1f77b4"/>
   </g>
   <g id="patch_60">
    <path d="M 202.267032 382.84 
L 204.297916 382.84 
L 204.297916 367.319166 
L 202.267032 367.319166 
z
" clip-path="url(#p35d5876630)" style="fill: #1f77b4"/>
   </g>
   <g id="patch_61">
    <path d="M 204.297916 382.84 
L 206.3288 382.84 
L 206.3288 382.84 
L 204.297916 382.84 
z
" clip-path="url(#p35d5876630)" style="fill: #1f77b4"/>
   </g>
   <g id="patch_62">
    <path d="M 206.3288 382.84 
L 208.359684 382.84 
L 208.359684 362.158021 
L 206.3288 362.158021 
z
" clip-path="url(#p35d5876630)" style="fill: #1f77b4"/>
   </g>
   <g id="patch_63">
    <path d="M 208.359684 382.84 
L 210.390569 382.84 
L 210.390569 382.84 
L 208.359684 382.84 
z
" clip-path="url(#p35d5876630)" style="fill: #1f77b4"/>
   </g>
   <g id="patch_64">
    <path d="M 210.390569 382.84 
L 212.421453 382.84 
L 212.421453 360.288041 
L 210.390569 360.288041 
z
" clip-path="url(#p35d5876630)" style="fill: #1f77b4"/>
   </g>
   <g id="patch_65">
    <path d="M 212.421453 382.84 
L 214.452337 382.84 
L 214.452337 382.84 
L 212.421453 382.84 
z
" clip-path="url(#p35d5876630)" style="fill: #1f77b4"/>
   </g>
   <g id="patch_66">
    <path d="M 214.452337 382.84 
L 216.483221 382.84 
L 216.483221 382.84 
L 214.452337 382.84 
z
" clip-path="url(#p35d5876630)" style="fill: #1f77b4"/>
   </g>
   <g id="patch_67">
    <path d="M 216.483221 382.84 
L 218.514105 382.84 
L 218.514105 352.92032 
L 216.483221 352.92032 
z
" clip-path="url(#p35d5876630)" style="fill: #1f77b4"/>
   </g>
   <g id="patch_68">
    <path d="M 218.514105 382.84 
L 220.544989 382.84 
L 220.544989 382.84 
L 218.514105 382.84 
z
" clip-path="url(#p35d5876630)" style="fill: #1f77b4"/>
   </g>
   <g id="patch_69">
    <path d="M 220.544989 382.84 
L 222.575873 382.84 
L 222.575873 347.011183 
L 220.544989 347.011183 
z
" clip-path="url(#p35d5876630)" style="fill: #1f77b4"/>
   </g>
   <g id="patch_70">
    <path d="M 222.575873 382.84 
L 224.606757 382.84 
L 224.606757 382.84 
L 222.575873 382.84 
z
" clip-path="url(#p35d5876630)" style="fill: #1f77b4"/>
   </g>
   <g id="patch_71">
    <path d="M 224.606757 382.84 
L 226.637642 382.84 
L 226.637642 339.718261 
L 224.606757 339.718261 
z
" clip-path="url(#p35d5876630)" style="fill: #1f77b4"/>
   </g>
   <g id="patch_72">
    <path d="M 226.637642 382.84 
L 228.668526 382.84 
L 228.668526 382.84 
L 226.637642 382.84 
z
" clip-path="url(#p35d5876630)" style="fill: #1f77b4"/>
   </g>
   <g id="patch_73">
    <path d="M 228.668526 382.84 
L 230.69941 382.84 
L 230.69941 332.275741 
L 228.668526 332.275741 
z
" clip-path="url(#p35d5876630)" style="fill: #1f77b4"/>
   </g>
   <g id="patch_74">
    <path d="M 230.69941 382.84 
L 232.730294 382.84 
L 232.730294 382.84 
L 230.69941 382.84 
z
" clip-path="url(#p35d5876630)" style="fill: #1f77b4"/>
   </g>
   <g id="patch_75">
    <path d="M 232.730294 382.84 
L 234.761178 382.84 
L 234.761178 323.225038 
L 232.730294 323.225038 
z
" clip-path="url(#p35d5876630)" style="fill: #1f77b4"/>
   </g>
   <g id="patch_76">
    <path d="M 234.761178 382.84 
L 236.792062 382.84 
L 236.792062 382.84 
L 234.761178 382.84 
z
" clip-path="url(#p35d5876630)" style="fill: #1f77b4"/>
   </g>
   <g id="patch_77">
    <path d="M 236.792062 382.84 
L 238.822946 382.84 
L 238.822946 311.331965 
L 236.792062 311.331965 
z
" clip-path="url(#p35d5876630)" style="fill: #1f77b4"/>
   </g>
   <g id="patch_78">
    <path d="M 238.822946 382.84 
L 240.85383 382.84 
L 240.85383 382.84 
L 238.822946 382.84 
z
" clip-path="url(#p35d5876630)" style="fill: #1f77b4"/>
   </g>
   <g id="patch_79">
    <path d="M 240.85383 382.84 
L 242.884715 382.84 
L 242.884715 301.421071 
L 240.85383 301.421071 
z
" clip-path="url(#p35d5876630)" style="fill: #1f77b4"/>
   </g>
   <g id="patch_80">
    <path d="M 242.884715 382.84 
L 244.915599 382.84 
L 244.915599 382.84 
L 242.884715 382.84 
z
" clip-path="url(#p35d5876630)" style="fill: #1f77b4"/>
   </g>
   <g id="patch_81">
    <path d="M 244.915599 382.84 
L 246.946483 382.84 
L 246.946483 382.84 
L 244.915599 382.84 
z
" clip-path="url(#p35d5876630)" style="fill: #1f77b4"/>
   </g>
   <g id="patch_82">
    <path d="M 246.946483 382.84 
L 248.977367 382.84 
L 248.977367 285.414042 
L 246.946483 285.414042 
z
" clip-path="url(#p35d5876630)" style="fill: #1f77b4"/>
   </g>
   <g id="patch_83">
    <path d="M 248.977367 382.84 
L 251.008251 382.84 
L 251.008251 382.84 
L 248.977367 382.84 
z
" clip-path="url(#p35d5876630)" style="fill: #1f77b4"/>
   </g>
   <g id="patch_84">
    <path d="M 251.008251 382.84 
L 253.039135 382.84 
L 253.039135 273.371371 
L 251.008251 273.371371 
z
" clip-path="url(#p35d5876630)" style="fill: #1f77b4"/>
   </g>
   <g id="patch_85">
    <path d="M 253.039135 382.84 
L 255.070019 382.84 
L 255.070019 382.84 
L 253.039135 382.84 
z
" clip-path="url(#p35d5876630)" style="fill: #1f77b4"/>
   </g>
   <g id="patch_86">
    <path d="M 255.070019 382.84 
L 257.100903 382.84 
L 257.100903 253.736581 
L 255.070019 253.736581 
z
" clip-path="url(#p35d5876630)" style="fill: #1f77b4"/>
   </g>
   <g id="patch_87">
    <path d="M 257.100903 382.84 
L 259.131788 382.84 
L 259.131788 382.84 
L 257.100903 382.84 
z
" clip-path="url(#p35d5876630)" style="fill: #1f77b4"/>
   </g>
   <g id="patch_88">
    <path d="M 259.131788 382.84 
L 261.162672 382.84 
L 261.162672 232.605807 
L 259.131788 232.605807 
z
" clip-path="url(#p35d5876630)" style="fill: #1f77b4"/>
   </g>
   <g id="patch_89">
    <path d="M 261.162672 382.84 
L 263.193556 382.84 
L 263.193556 382.84 
L 261.162672 382.84 
z
" clip-path="url(#p35d5876630)" style="fill: #1f77b4"/>
   </g>
   <g id="patch_90">
    <path d="M 263.193556 382.84 
L 265.22444 382.84 
L 265.22444 217.271971 
L 263.193556 217.271971 
z
" clip-path="url(#p35d5876630)" style="fill: #1f77b4"/>
   </g>
   <g id="patch_91">
    <path d="M 265.22444 382.84 
L 267.255324 382.84 
L 267.255324 382.84 
L 265.22444 382.84 
z
" clip-path="url(#p35d5876630)" style="fill: #1f77b4"/>
   </g>
   <g id="patch_92">
    <path d="M 267.255324 382.84 
L 269.286208 382.84 
L 269.286208 202.199932 
L 267.255324 202.199932 
z
" clip-path="url(#p35d5876630)" style="fill: #1f77b4"/>
   </g>
   <g id="patch_93">
    <path d="M 269.286208 382.84 
L 271.317092 382.84 
L 271.317092 382.84 
L 269.286208 382.84 
z
" clip-path="url(#p35d5876630)" style="fill: #1f77b4"/>
   </g>
   <g id="patch_94">
    <path d="M 271.317092 382.84 
L 273.347976 382.84 
L 273.347976 185.744108 
L 271.317092 185.744108 
z
" clip-path="url(#p35d5876630)" style="fill: #1f77b4"/>
   </g>
   <g id="patch_95">
    <path d="M 273.347976 382.84 
L 275.378861 382.84 
L 275.378861 382.84 
L 273.347976 382.84 
z
" clip-path="url(#p35d5876630)" style="fill: #1f77b4"/>
   </g>
   <g id="patch_96">
    <path d="M 275.378861 382.84 
L 277.409745 382.84 
L 277.409745 382.84 
L 275.378861 382.84 
z
" clip-path="url(#p35d5876630)" style="fill: #1f77b4"/>
   </g>
   <g id="patch_97">
    <path d="M 277.409745 382.84 
L 279.440629 382.84 
L 279.440629 165.436126 
L 277.409745 165.436126 
z
" clip-path="url(#p35d5876630)" style="fill: #1f77b4"/>
   </g>
   <g id="patch_98">
    <path d="M 279.440629 382.84 
L 281.471513 382.84 
L 281.471513 382.84 
L 279.440629 382.84 
z
" clip-path="url(#p35d5876630)" style="fill: #1f77b4"/>
   </g>
   <g id="patch_99">
    <path d="M 281.471513 382.84 
L 283.502397 382.84 
L 283.502397 143.594759 
L 281.471513 143.594759 
z
" clip-path="url(#p35d5876630)" style="fill: #1f77b4"/>
   </g>
   <g id="patch_100">
    <path d="M 283.502397 382.84 
L 285.533281 382.84 
L 285.533281 382.84 
L 283.502397 382.84 
z
" clip-path="url(#p35d5876630)" style="fill: #1f77b4"/>
   </g>
   <g id="patch_101">
    <path d="M 285.533281 382.84 
L 287.564165 382.84 
L 287.564165 125.568152 
L 285.533281 125.568152 
z
" clip-path="url(#p35d5876630)" style="fill: #1f77b4"/>
   </g>
   <g id="patch_102">
    <path d="M 287.564165 382.84 
L 289.595049 382.84 
L 289.595049 382.84 
L 287.564165 382.84 
z
" clip-path="url(#p35d5876630)" style="fill: #1f77b4"/>
   </g>
   <g id="patch_103">
    <path d="M 289.595049 382.84 
L 291.625934 382.84 
L 291.625934 106.195159 
L 289.595049 106.195159 
z
" clip-path="url(#p35d5876630)" style="fill: #1f77b4"/>
   </g>
   <g id="patch_104">
    <path d="M 291.625934 382.84 
L 293.656818 382.84 
L 293.656818 382.84 
L 291.625934 382.84 
z
" clip-path="url(#p35d5876630)" style="fill: #1f77b4"/>
   </g>
   <g id="patch_105">
    <path d="M 293.656818 382.84 
L 295.687702 382.84 
L 295.687702 90.823924 
L 293.656818 90.823924 
z
" clip-path="url(#p35d5876630)" style="fill: #1f77b4"/>
   </g>
   <g id="patch_106">
    <path d="M 295.687702 382.84 
L 297.718586 382.84 
L 297.718586 382.84 
L 295.687702 382.84 
z
" clip-path="url(#p35d5876630)" style="fill: #1f77b4"/>
   </g>
   <g id="patch_107">
    <path d="M 297.718586 382.84 
L 299.74947 382.84 
L 299.74947 76.387678 
L 297.718586 76.387678 
z
" clip-path="url(#p35d5876630)" style="fill: #1f77b4"/>
   </g>
   <g id="patch_108">
    <path d="M 299.74947 382.84 
L 301.780354 382.84 
L 301.780354 382.84 
L 299.74947 382.84 
z
" clip-path="url(#p35d5876630)" style="fill: #1f77b4"/>
   </g>
   <g id="patch_109">
    <path d="M 301.780354 382.84 
L 303.811238 382.84 
L 303.811238 60.941644 
L 301.780354 60.941644 
z
" clip-path="url(#p35d5876630)" style="fill: #1f77b4"/>
   </g>
   <g id="patch_110">
    <path d="M 303.811238 382.84 
L 305.842122 382.84 
L 305.842122 382.84 
L 303.811238 382.84 
z
" clip-path="url(#p35d5876630)" style="fill: #1f77b4"/>
   </g>
   <g id="patch_111">
    <path d="M 305.842122 382.84 
L 307.873007 382.84 
L 307.873007 382.84 
L 305.842122 382.84 
z
" clip-path="url(#p35d5876630)" style="fill: #1f77b4"/>
   </g>
   <g id="patch_112">
    <path d="M 307.873007 382.84 
L 309.903891 382.84 
L 309.903891 44.635418 
L 307.873007 44.635418 
z
" clip-path="url(#p35d5876630)" style="fill: #1f77b4"/>
   </g>
   <g id="patch_113">
    <path d="M 309.903891 382.84 
L 311.934775 382.84 
L 311.934775 382.84 
L 309.903891 382.84 
z
" clip-path="url(#p35d5876630)" style="fill: #1f77b4"/>
   </g>
   <g id="patch_114">
    <path d="M 311.934775 382.84 
L 313.965659 382.84 
L 313.965659 42.877637 
L 311.934775 42.877637 
z
" clip-path="url(#p35d5876630)" style="fill: #1f77b4"/>
   </g>
   <g id="patch_115">
    <path d="M 313.965659 382.84 
L 315.996543 382.84 
L 315.996543 382.84 
L 313.965659 382.84 
z
" clip-path="url(#p35d5876630)" style="fill: #1f77b4"/>
   </g>
   <g id="patch_116">
    <path d="M 315.996543 382.84 
L 318.027427 382.84 
L 318.027427 35.958711 
L 315.996543 35.958711 
z
" clip-path="url(#p35d5876630)" style="fill: #1f77b4"/>
   </g>
   <g id="patch_117">
    <path d="M 318.027427 382.84 
L 320.058311 382.84 
L 320.058311 382.84 
L 318.027427 382.84 
z
" clip-path="url(#p35d5876630)" style="fill: #1f77b4"/>
   </g>
   <g id="patch_118">
    <path d="M 320.058311 382.84 
L 322.089195 382.84 
L 322.089195 41.157255 
L 320.058311 41.157255 
z
" clip-path="url(#p35d5876630)" style="fill: #1f77b4"/>
   </g>
   <g id="patch_119">
    <path d="M 322.089195 382.84 
L 324.12008 382.84 
L 324.12008 382.84 
L 322.089195 382.84 
z
" clip-path="url(#p35d5876630)" style="fill: #1f77b4"/>
   </g>
   <g id="patch_120">
    <path d="M 324.12008 382.84 
L 326.150964 382.84 
L 326.150964 34.574926 
L 324.12008 34.574926 
z
" clip-path="url(#p35d5876630)" style="fill: #1f77b4"/>
   </g>
   <g id="patch_121">
    <path d="M 326.150964 382.84 
L 328.181848 382.84 
L 328.181848 382.84 
L 326.150964 382.84 
z
" clip-path="url(#p35d5876630)" style="fill: #1f77b4"/>
   </g>
   <g id="patch_122">
    <path d="M 328.181848 382.84 
L 330.212732 382.84 
L 330.212732 28.51619 
L 328.181848 28.51619 
z
" clip-path="url(#p35d5876630)" style="fill: #1f77b4"/>
   </g>
   <g id="patch_123">
    <path d="M 330.212732 382.84 
L 332.243616 382.84 
L 332.243616 382.84 
L 330.212732 382.84 
z
" clip-path="url(#p35d5876630)" style="fill: #1f77b4"/>
   </g>
   <g id="patch_124">
    <path d="M 332.243616 382.84 
L 334.2745 382.84 
L 334.2745 39.848269 
L 332.243616 39.848269 
z
" clip-path="url(#p35d5876630)" style="fill: #1f77b4"/>
   </g>
   <g id="patch_125">
    <path d="M 334.2745 382.84 
L 336.305384 382.84 
L 336.305384 382.84 
L 334.2745 382.84 
z
" clip-path="url(#p35d5876630)" style="fill: #1f77b4"/>
   </g>
   <g id="patch_126">
    <path d="M 336.305384 382.84 
L 338.336268 382.84 
L 338.336268 47.926583 
L 336.305384 47.926583 
z
" clip-path="url(#p35d5876630)" style="fill: #1f77b4"/>
   </g>
   <g id="patch_127">
    <path d="M 338.336268 382.84 
L 340.367153 382.84 
L 340.367153 382.84 
L 338.336268 382.84 
z
" clip-path="url(#p35d5876630)" style="fill: #1f77b4"/>
   </g>
   <g id="patch_128">
    <path d="M 340.367153 382.84 
L 342.398037 382.84 
L 342.398037 382.84 
L 340.367153 382.84 
z
" clip-path="url(#p35d5876630)" style="fill: #1f77b4"/>
   </g>
   <g id="patch_129">
    <path d="M 342.398037 382.84 
L 344.428921 382.84 
L 344.428921 58.099274 
L 342.398037 58.099274 
z
" clip-path="url(#p35d5876630)" style="fill: #1f77b4"/>
   </g>
   <g id="patch_130">
    <path d="M 344.428921 382.84 
L 346.459805 382.84 
L 346.459805 382.84 
L 344.428921 382.84 
z
" clip-path="url(#p35d5876630)" style="fill: #1f77b4"/>
   </g>
   <g id="patch_131">
    <path d="M 346.459805 382.84 
L 348.490689 382.84 
L 348.490689 80.01544 
L 346.459805 80.01544 
z
" clip-path="url(#p35d5876630)" style="fill: #1f77b4"/>
   </g>
   <g id="patch_132">
    <path d="M 348.490689 382.84 
L 350.521573 382.84 
L 350.521573 382.84 
L 348.490689 382.84 
z
" clip-path="url(#p35d5876630)" style="fill: #1f77b4"/>
   </g>
   <g id="patch_133">
    <path d="M 350.521573 382.84 
L 352.552457 382.84 
L 352.552457 89.066143 
L 350.521573 89.066143 
z
" clip-path="url(#p35d5876630)" style="fill: #1f77b4"/>
   </g>
   <g id="patch_134">
    <path d="M 352.552457 382.84 
L 354.583341 382.84 
L 354.583341 382.84 
L 352.552457 382.84 
z
" clip-path="url(#p35d5876630)" style="fill: #1f77b4"/>
   </g>
   <g id="patch_135">
    <path d="M 354.583341 382.84 
L 356.614226 382.84 
L 356.614226 107.242348 
L 354.583341 107.242348 
z
" clip-path="url(#p35d5876630)" style="fill: #1f77b4"/>
   </g>
   <g id="patch_136">
    <path d="M 356.614226 382.84 
L 358.64511 382.84 
L 358.64511 382.84 
L 356.614226 382.84 
z
" clip-path="url(#p35d5876630)" style="fill: #1f77b4"/>
   </g>
   <g id="patch_137">
    <path d="M 358.64511 382.84 
L 360.675994 382.84 
L 360.675994 123.548574 
L 358.64511 123.548574 
z
" clip-path="url(#p35d5876630)" style="fill: #1f77b4"/>
   </g>
   <g id="patch_138">
    <path d="M 360.675994 382.84 
L 362.706878 382.84 
L 362.706878 382.84 
L 360.675994 382.84 
z
" clip-path="url(#p35d5876630)" style="fill: #1f77b4"/>
   </g>
   <g id="patch_139">
    <path d="M 362.706878 382.84 
L 364.737762 382.84 
L 364.737762 145.464739 
L 362.706878 145.464739 
z
" clip-path="url(#p35d5876630)" style="fill: #1f77b4"/>
   </g>
   <g id="patch_140">
    <path d="M 364.737762 382.84 
L 366.768646 382.84 
L 366.768646 382.84 
L 364.737762 382.84 
z
" clip-path="url(#p35d5876630)" style="fill: #1f77b4"/>
   </g>
   <g id="patch_141">
    <path d="M 366.768646 382.84 
L 368.79953 382.84 
L 368.79953 165.286527 
L 366.768646 165.286527 
z
" clip-path="url(#p35d5876630)" style="fill: #1f77b4"/>
   </g>
   <g id="patch_142">
    <path d="M 368.79953 382.84 
L 370.830414 382.84 
L 370.830414 382.84 
L 368.79953 382.84 
z
" clip-path="url(#p35d5876630)" style="fill: #1f77b4"/>
   </g>
   <g id="patch_143">
    <path d="M 370.830414 382.84 
L 372.861299 382.84 
L 372.861299 382.84 
L 370.830414 382.84 
z
" clip-path="url(#p35d5876630)" style="fill: #1f77b4"/>
   </g>
   <g id="patch_144">
    <path d="M 372.861299 382.84 
L 374.892183 382.84 
L 374.892183 182.639942 
L 372.861299 182.639942 
z
" clip-path="url(#p35d5876630)" style="fill: #1f77b4"/>
   </g>
   <g id="patch_145">
    <path d="M 374.892183 382.84 
L 376.923067 382.84 
L 376.923067 382.84 
L 374.892183 382.84 
z
" clip-path="url(#p35d5876630)" style="fill: #1f77b4"/>
   </g>
   <g id="patch_146">
    <path d="M 376.923067 382.84 
L 378.953951 382.84 
L 378.953951 196.702191 
L 376.923067 196.702191 
z
" clip-path="url(#p35d5876630)" style="fill: #1f77b4"/>
   </g>
   <g id="patch_147">
    <path d="M 378.953951 382.84 
L 380.984835 382.84 
L 380.984835 382.84 
L 378.953951 382.84 
z
" clip-path="url(#p35d5876630)" style="fill: #1f77b4"/>
   </g>
   <g id="patch_148">
    <path d="M 380.984835 382.84 
L 383.015719 382.84 
L 383.015719 217.982564 
L 380.984835 217.982564 
z
" clip-path="url(#p35d5876630)" style="fill: #1f77b4"/>
   </g>
   <g id="patch_149">
    <path d="M 383.015719 382.84 
L 385.046603 382.84 
L 385.046603 382.84 
L 383.015719 382.84 
z
" clip-path="url(#p35d5876630)" style="fill: #1f77b4"/>
   </g>
   <g id="patch_150">
    <path d="M 385.046603 382.84 
L 387.077487 382.84 
L 387.077487 228.865847 
L 385.046603 228.865847 
z
" clip-path="url(#p35d5876630)" style="fill: #1f77b4"/>
   </g>
   <g id="patch_151">
    <path d="M 387.077487 382.84 
L 389.108372 382.84 
L 389.108372 382.84 
L 387.077487 382.84 
z
" clip-path="url(#p35d5876630)" style="fill: #1f77b4"/>
   </g>
   <g id="patch_152">
    <path d="M 389.108372 382.84 
L 391.139256 382.84 
L 391.139256 251.417806 
L 389.108372 251.417806 
z
" clip-path="url(#p35d5876630)" style="fill: #1f77b4"/>
   </g>
   <g id="patch_153">
    <path d="M 391.139256 382.84 
L 393.17014 382.84 
L 393.17014 382.84 
L 391.139256 382.84 
z
" clip-path="url(#p35d5876630)" style="fill: #1f77b4"/>
   </g>
   <g id="patch_154">
    <path d="M 393.17014 382.84 
L 395.201024 382.84 
L 395.201024 266.041049 
L 393.17014 266.041049 
z
" clip-path="url(#p35d5876630)" style="fill: #1f77b4"/>
   </g>
   <g id="patch_155">
    <path d="M 395.201024 382.84 
L 397.231908 382.84 
L 397.231908 382.84 
L 395.201024 382.84 
z
" clip-path="url(#p35d5876630)" style="fill: #1f77b4"/>
   </g>
   <g id="patch_156">
    <path d="M 397.231908 382.84 
L 399.262792 382.84 
L 399.262792 277.821923 
L 397.231908 277.821923 
z
" clip-path="url(#p35d5876630)" style="fill: #1f77b4"/>
   </g>
   <g id="patch_157">
    <path d="M 399.262792 382.84 
L 401.293676 382.84 
L 401.293676 382.84 
L 399.262792 382.84 
z
" clip-path="url(#p35d5876630)" style="fill: #1f77b4"/>
   </g>
   <g id="patch_158">
    <path d="M 401.293676 382.84 
L 403.32456 382.84 
L 403.32456 382.84 
L 401.293676 382.84 
z
" clip-path="url(#p35d5876630)" style="fill: #1f77b4"/>
   </g>
   <g id="patch_159">
    <path d="M 403.32456 382.84 
L 405.355445 382.84 
L 405.355445 286.723028 
L 403.32456 286.723028 
z
" clip-path="url(#p35d5876630)" style="fill: #1f77b4"/>
   </g>
   <g id="patch_160">
    <path d="M 405.355445 382.84 
L 407.386329 382.84 
L 407.386329 382.84 
L 405.355445 382.84 
z
" clip-path="url(#p35d5876630)" style="fill: #1f77b4"/>
   </g>
   <g id="patch_161">
    <path d="M 407.386329 382.84 
L 409.417213 382.84 
L 409.417213 300.074685 
L 407.386329 300.074685 
z
" clip-path="url(#p35d5876630)" style="fill: #1f77b4"/>
   </g>
   <g id="patch_162">
    <path d="M 409.417213 382.84 
L 411.448097 382.84 
L 411.448097 382.84 
L 409.417213 382.84 
z
" clip-path="url(#p35d5876630)" style="fill: #1f77b4"/>
   </g>
   <g id="patch_163">
    <path d="M 411.448097 382.84 
L 413.478981 382.84 
L 413.478981 313.501142 
L 411.448097 313.501142 
z
" clip-path="url(#p35d5876630)" style="fill: #1f77b4"/>
   </g>
   <g id="patch_164">
    <path d="M 413.478981 382.84 
L 415.509865 382.84 
L 415.509865 382.84 
L 413.478981 382.84 
z
" clip-path="url(#p35d5876630)" style="fill: #1f77b4"/>
   </g>
   <g id="patch_165">
    <path d="M 415.509865 382.84 
L 417.540749 382.84 
L 417.540749 321.990851 
L 415.509865 321.990851 
z
" clip-path="url(#p35d5876630)" style="fill: #1f77b4"/>
   </g>
   <g id="patch_166">
    <path d="M 417.540749 382.84 
L 419.571633 382.84 
L 419.571633 382.84 
L 417.540749 382.84 
z
" clip-path="url(#p35d5876630)" style="fill: #1f77b4"/>
   </g>
   <g id="patch_167">
    <path d="M 419.571633 382.84 
L 421.602518 382.84 
L 421.602518 329.956966 
L 419.571633 329.956966 
z
" clip-path="url(#p35d5876630)" style="fill: #1f77b4"/>
   </g>
   <g id="patch_168">
    <path d="M 421.602518 382.84 
L 423.633402 382.84 
L 423.633402 382.84 
L 421.602518 382.84 
z
" clip-path="url(#p35d5876630)" style="fill: #1f77b4"/>
   </g>
   <g id="patch_169">
    <path d="M 423.633402 382.84 
L 425.664286 382.84 
L 425.664286 336.464496 
L 423.633402 336.464496 
z
" clip-path="url(#p35d5876630)" style="fill: #1f77b4"/>
   </g>
   <g id="patch_170">
    <path d="M 425.664286 382.84 
L 427.69517 382.84 
L 427.69517 382.84 
L 425.664286 382.84 
z
" clip-path="url(#p35d5876630)" style="fill: #1f77b4"/>
   </g>
   <g id="patch_171">
    <path d="M 427.69517 382.84 
L 429.726054 382.84 
L 429.726054 345.141203 
L 427.69517 345.141203 
z
" clip-path="url(#p35d5876630)" style="fill: #1f77b4"/>
   </g>
   <g id="patch_172">
    <path d="M 429.726054 382.84 
L 431.756938 382.84 
L 431.756938 382.84 
L 429.726054 382.84 
z
" clip-path="url(#p35d5876630)" style="fill: #1f77b4"/>
   </g>
   <g id="patch_173">
    <path d="M 431.756938 382.84 
L 433.787822 382.84 
L 433.787822 352.172328 
L 431.756938 352.172328 
z
" clip-path="url(#p35d5876630)" style="fill: #1f77b4"/>
   </g>
   <g id="patch_174">
    <path d="M 433.787822 382.84 
L 435.818706 382.84 
L 435.818706 382.84 
L 433.787822 382.84 
z
" clip-path="url(#p35d5876630)" style="fill: #1f77b4"/>
   </g>
   <g id="patch_175">
    <path d="M 435.818706 382.84 
L 437.849591 382.84 
L 437.849591 382.84 
L 435.818706 382.84 
z
" clip-path="url(#p35d5876630)" style="fill: #1f77b4"/>
   </g>
   <g id="patch_176">
    <path d="M 437.849591 382.84 
L 439.880475 382.84 
L 439.880475 356.735079 
L 437.849591 356.735079 
z
" clip-path="url(#p35d5876630)" style="fill: #1f77b4"/>
   </g>
   <g id="patch_177">
    <path d="M 439.880475 382.84 
L 441.911359 382.84 
L 441.911359 382.84 
L 439.880475 382.84 
z
" clip-path="url(#p35d5876630)" style="fill: #1f77b4"/>
   </g>
   <g id="patch_178">
    <path d="M 441.911359 382.84 
L 443.942243 382.84 
L 443.942243 362.345019 
L 441.911359 362.345019 
z
" clip-path="url(#p35d5876630)" style="fill: #1f77b4"/>
   </g>
   <g id="patch_179">
    <path d="M 443.942243 382.84 
L 445.973127 382.84 
L 445.973127 382.84 
L 443.942243 382.84 
z
" clip-path="url(#p35d5876630)" style="fill: #1f77b4"/>
   </g>
   <g id="patch_180">
    <path d="M 445.973127 382.84 
L 448.004011 382.84 
L 448.004011 366.533774 
L 445.973127 366.533774 
z
" clip-path="url(#p35d5876630)" style="fill: #1f77b4"/>
   </g>
   <g id="patch_181">
    <path d="M 448.004011 382.84 
L 450.034895 382.84 
L 450.034895 382.84 
L 448.004011 382.84 
z
" clip-path="url(#p35d5876630)" style="fill: #1f77b4"/>
   </g>
   <g id="patch_182">
    <path d="M 450.034895 382.84 
L 452.065779 382.84 
L 452.065779 368.85255 
L 450.034895 368.85255 
z
" clip-path="url(#p35d5876630)" style="fill: #1f77b4"/>
   </g>
   <g id="patch_183">
    <path d="M 452.065779 382.84 
L 454.096664 382.84 
L 454.096664 382.84 
L 452.065779 382.84 
z
" clip-path="url(#p35d5876630)" style="fill: #1f77b4"/>
   </g>
   <g id="patch_184">
    <path d="M 454.096664 382.84 
L 456.127548 382.84 
L 456.127548 373.265702 
L 454.096664 373.265702 
z
" clip-path="url(#p35d5876630)" style="fill: #1f77b4"/>
   </g>
   <g id="patch_185">
    <path d="M 456.127548 382.84 
L 458.158432 382.84 
L 458.158432 382.84 
L 456.127548 382.84 
z
" clip-path="url(#p35d5876630)" style="fill: #1f77b4"/>
   </g>
   <g id="patch_186">
    <path d="M 458.158432 382.84 
L 460.189316 382.84 
L 460.189316 375.659277 
L 458.158432 375.659277 
z
" clip-path="url(#p35d5876630)" style="fill: #1f77b4"/>
   </g>
   <g id="patch_187">
    <path d="M 460.189316 382.84 
L 462.2202 382.84 
L 462.2202 382.84 
L 460.189316 382.84 
z
" clip-path="url(#p35d5876630)" style="fill: #1f77b4"/>
   </g>
   <g id="patch_188">
    <path d="M 462.2202 382.84 
L 464.251084 382.84 
L 464.251084 377.566656 
L 462.2202 377.566656 
z
" clip-path="url(#p35d5876630)" style="fill: #1f77b4"/>
   </g>
   <g id="patch_189">
    <path d="M 464.251084 382.84 
L 466.281968 382.84 
L 466.281968 382.84 
L 464.251084 382.84 
z
" clip-path="url(#p35d5876630)" style="fill: #1f77b4"/>
   </g>
   <g id="patch_190">
    <path d="M 466.281968 382.84 
L 468.312852 382.84 
L 468.312852 382.84 
L 466.281968 382.84 
z
" clip-path="url(#p35d5876630)" style="fill: #1f77b4"/>
   </g>
   <g id="patch_191">
    <path d="M 468.312852 382.84 
L 470.343737 382.84 
L 470.343737 379.212239 
L 468.312852 379.212239 
z
" clip-path="url(#p35d5876630)" style="fill: #1f77b4"/>
   </g>
   <g id="patch_192">
    <path d="M 470.343737 382.84 
L 472.374621 382.84 
L 472.374621 382.84 
L 470.343737 382.84 
z
" clip-path="url(#p35d5876630)" style="fill: #1f77b4"/>
   </g>
   <g id="patch_193">
    <path d="M 472.374621 382.84 
L 474.405505 382.84 
L 474.405505 380.259428 
L 472.374621 380.259428 
z
" clip-path="url(#p35d5876630)" style="fill: #1f77b4"/>
   </g>
   <g id="patch_194">
    <path d="M 474.405505 382.84 
L 476.436389 382.84 
L 476.436389 382.84 
L 474.405505 382.84 
z
" clip-path="url(#p35d5876630)" style="fill: #1f77b4"/>
   </g>
   <g id="patch_195">
    <path d="M 476.436389 382.84 
L 478.467273 382.84 
L 478.467273 380.93262 
L 476.436389 380.93262 
z
" clip-path="url(#p35d5876630)" style="fill: #1f77b4"/>
   </g>
   <g id="patch_196">
    <path d="M 478.467273 382.84 
L 480.498157 382.84 
L 480.498157 382.84 
L 478.467273 382.84 
z
" clip-path="url(#p35d5876630)" style="fill: #1f77b4"/>
   </g>
   <g id="patch_197">
    <path d="M 480.498157 382.84 
L 482.529041 382.84 
L 482.529041 381.718012 
L 480.498157 381.718012 
z
" clip-path="url(#p35d5876630)" style="fill: #1f77b4"/>
   </g>
   <g id="patch_198">
    <path d="M 482.529041 382.84 
L 484.559925 382.84 
L 484.559925 382.84 
L 482.529041 382.84 
z
" clip-path="url(#p35d5876630)" style="fill: #1f77b4"/>
   </g>
   <g id="patch_199">
    <path d="M 484.559925 382.84 
L 486.59081 382.84 
L 486.59081 382.129408 
L 484.559925 382.129408 
z
" clip-path="url(#p35d5876630)" style="fill: #1f77b4"/>
   </g>
   <g id="patch_200">
    <path d="M 486.59081 382.84 
L 488.621694 382.84 
L 488.621694 382.84 
L 486.59081 382.84 
z
" clip-path="url(#p35d5876630)" style="fill: #1f77b4"/>
   </g>
   <g id="patch_201">
    <path d="M 488.621694 382.84 
L 490.652578 382.84 
L 490.652578 382.428604 
L 488.621694 382.428604 
z
" clip-path="url(#p35d5876630)" style="fill: #1f77b4"/>
   </g>
   <g id="patch_202">
    <path d="M 490.652578 382.84 
L 492.683462 382.84 
L 492.683462 382.84 
L 490.652578 382.84 
z
" clip-path="url(#p35d5876630)" style="fill: #1f77b4"/>
   </g>
   <g id="patch_203">
    <path d="M 492.683462 382.84 
L 494.714346 382.84 
L 494.714346 382.466004 
L 492.683462 382.466004 
z
" clip-path="url(#p35d5876630)" style="fill: #1f77b4"/>
   </g>
   <g id="patch_204">
    <path d="M 494.714346 382.84 
L 496.74523 382.84 
L 496.74523 382.84 
L 494.714346 382.84 
z
" clip-path="url(#p35d5876630)" style="fill: #1f77b4"/>
   </g>
   <g id="patch_205">
    <path d="M 496.74523 382.84 
L 498.776114 382.84 
L 498.776114 382.84 
L 496.74523 382.84 
z
" clip-path="url(#p35d5876630)" style="fill: #1f77b4"/>
   </g>
   <g id="patch_206">
    <path d="M 498.776114 382.84 
L 500.806998 382.84 
L 500.806998 382.540803 
L 498.776114 382.540803 
z
" clip-path="url(#p35d5876630)" style="fill: #1f77b4"/>
   </g>
   <g id="patch_207">
    <path d="M 500.806998 382.84 
L 502.837883 382.84 
L 502.837883 382.84 
L 500.806998 382.84 
z
" clip-path="url(#p35d5876630)" style="fill: #1f77b4"/>
   </g>
   <g id="patch_208">
    <path d="M 502.837883 382.84 
L 504.868767 382.84 
L 504.868767 382.765201 
L 502.837883 382.765201 
z
" clip-path="url(#p35d5876630)" style="fill: #1f77b4"/>
   </g>
   <g id="patch_209">
    <path d="M 504.868767 382.84 
L 506.899651 382.84 
L 506.899651 382.84 
L 504.868767 382.84 
z
" clip-path="url(#p35d5876630)" style="fill: #1f77b4"/>
   </g>
   <g id="patch_210">
    <path d="M 506.899651 382.84 
L 508.930535 382.84 
L 508.930535 382.727801 
L 506.899651 382.727801 
z
" clip-path="url(#p35d5876630)" style="fill: #1f77b4"/>
   </g>
   <g id="patch_211">
    <path d="M 508.930535 382.84 
L 510.961419 382.84 
L 510.961419 382.84 
L 508.930535 382.84 
z
" clip-path="url(#p35d5876630)" style="fill: #1f77b4"/>
   </g>
   <g id="patch_212">
    <path d="M 510.961419 382.84 
L 512.992303 382.84 
L 512.992303 382.8026 
L 510.961419 382.8026 
z
" clip-path="url(#p35d5876630)" style="fill: #1f77b4"/>
   </g>
   <g id="patch_213">
    <path d="M 512.992303 382.84 
L 515.023187 382.84 
L 515.023187 382.84 
L 512.992303 382.84 
z
" clip-path="url(#p35d5876630)" style="fill: #1f77b4"/>
   </g>
   <g id="patch_214">
    <path d="M 515.023187 382.84 
L 517.054071 382.84 
L 517.054071 382.727801 
L 515.023187 382.727801 
z
" clip-path="url(#p35d5876630)" style="fill: #1f77b4"/>
   </g>
   <g id="patch_215">
    <path d="M 517.054071 382.84 
L 519.084956 382.84 
L 519.084956 382.84 
L 517.054071 382.84 
z
" clip-path="url(#p35d5876630)" style="fill: #1f77b4"/>
   </g>
   <g id="patch_216">
    <path d="M 519.084956 382.84 
L 521.11584 382.84 
L 521.11584 382.84 
L 519.084956 382.84 
z
" clip-path="url(#p35d5876630)" style="fill: #1f77b4"/>
   </g>
   <g id="patch_217">
    <path d="M 521.11584 382.84 
L 523.146724 382.84 
L 523.146724 382.84 
L 521.11584 382.84 
z
" clip-path="url(#p35d5876630)" style="fill: #1f77b4"/>
   </g>
   <g id="patch_218">
    <path d="M 523.146724 382.84 
L 525.177608 382.84 
L 525.177608 382.84 
L 523.146724 382.84 
z
" clip-path="url(#p35d5876630)" style="fill: #1f77b4"/>
   </g>
   <g id="patch_219">
    <path d="M 525.177608 382.84 
L 527.208492 382.84 
L 527.208492 382.84 
L 525.177608 382.84 
z
" clip-path="url(#p35d5876630)" style="fill: #1f77b4"/>
   </g>
   <g id="patch_220">
    <path d="M 527.208492 382.84 
L 529.239376 382.84 
L 529.239376 382.8026 
L 527.208492 382.8026 
z
" clip-path="url(#p35d5876630)" style="fill: #1f77b4"/>
   </g>
   <g id="matplotlib.axis_1">
    <g id="xtick_1">
     <g id="line2d_1">
      <defs>
       <path id="m3e33aec184" d="M 0 0 
L 0 3.5 
" style="stroke: #000000; stroke-width: 0.8"/>
      </defs>
      <g>
       <use xlink:href="#m3e33aec184" x="86.506637" y="382.84" style="stroke: #000000; stroke-width: 0.8"/>
      </g>
     </g>
     <g id="text_1">
      <!-- −14 -->
      <g transform="translate(75.954293 397.438438) scale(0.1 -0.1)">
       <defs>
        <path id="DejaVuSans-2212" d="M 678 2272 
L 4684 2272 
L 4684 1741 
L 678 1741 
L 678 2272 
z
" transform="scale(0.015625)"/>
        <path id="DejaVuSans-31" d="M 794 531 
L 1825 531 
L 1825 4091 
L 703 3866 
L 703 4441 
L 1819 4666 
L 2450 4666 
L 2450 531 
L 3481 531 
L 3481 0 
L 794 0 
L 794 531 
z
" transform="scale(0.015625)"/>
        <path id="DejaVuSans-34" d="M 2419 4116 
L 825 1625 
L 2419 1625 
L 2419 4116 
z
M 2253 4666 
L 3047 4666 
L 3047 1625 
L 3713 1625 
L 3713 1100 
L 3047 1100 
L 3047 0 
L 2419 0 
L 2419 1100 
L 313 1100 
L 313 1709 
L 2253 4666 
z
" transform="scale(0.015625)"/>
       </defs>
       <use xlink:href="#DejaVuSans-2212"/>
       <use xlink:href="#DejaVuSans-31" x="83.789062"/>
       <use xlink:href="#DejaVuSans-34" x="147.412109"/>
      </g>
     </g>
    </g>
    <g id="xtick_2">
     <g id="line2d_2">
      <g>
       <use xlink:href="#m3e33aec184" x="173.316978" y="382.84" style="stroke: #000000; stroke-width: 0.8"/>
      </g>
     </g>
     <g id="text_2">
      <!-- −12 -->
      <g transform="translate(162.764634 397.438438) scale(0.1 -0.1)">
       <defs>
        <path id="DejaVuSans-32" d="M 1228 531 
L 3431 531 
L 3431 0 
L 469 0 
L 469 531 
Q 828 903 1448 1529 
Q 2069 2156 2228 2338 
Q 2531 2678 2651 2914 
Q 2772 3150 2772 3378 
Q 2772 3750 2511 3984 
Q 2250 4219 1831 4219 
Q 1534 4219 1204 4116 
Q 875 4013 500 3803 
L 500 4441 
Q 881 4594 1212 4672 
Q 1544 4750 1819 4750 
Q 2544 4750 2975 4387 
Q 3406 4025 3406 3419 
Q 3406 3131 3298 2873 
Q 3191 2616 2906 2266 
Q 2828 2175 2409 1742 
Q 1991 1309 1228 531 
z
" transform="scale(0.015625)"/>
       </defs>
       <use xlink:href="#DejaVuSans-2212"/>
       <use xlink:href="#DejaVuSans-31" x="83.789062"/>
       <use xlink:href="#DejaVuSans-32" x="147.412109"/>
      </g>
     </g>
    </g>
    <g id="xtick_3">
     <g id="line2d_3">
      <g>
       <use xlink:href="#m3e33aec184" x="260.127319" y="382.84" style="stroke: #000000; stroke-width: 0.8"/>
      </g>
     </g>
     <g id="text_3">
      <!-- −10 -->
      <g transform="translate(249.574975 397.438438) scale(0.1 -0.1)">
       <defs>
        <path id="DejaVuSans-30" d="M 2034 4250 
Q 1547 4250 1301 3770 
Q 1056 3291 1056 2328 
Q 1056 1369 1301 889 
Q 1547 409 2034 409 
Q 2525 409 2770 889 
Q 3016 1369 3016 2328 
Q 3016 3291 2770 3770 
Q 2525 4250 2034 4250 
z
M 2034 4750 
Q 2819 4750 3233 4129 
Q 3647 3509 3647 2328 
Q 3647 1150 3233 529 
Q 2819 -91 2034 -91 
Q 1250 -91 836 529 
Q 422 1150 422 2328 
Q 422 3509 836 4129 
Q 1250 4750 2034 4750 
z
" transform="scale(0.015625)"/>
       </defs>
       <use xlink:href="#DejaVuSans-2212"/>
       <use xlink:href="#DejaVuSans-31" x="83.789062"/>
       <use xlink:href="#DejaVuSans-30" x="147.412109"/>
      </g>
     </g>
    </g>
    <g id="xtick_4">
     <g id="line2d_4">
      <g>
       <use xlink:href="#m3e33aec184" x="346.93766" y="382.84" style="stroke: #000000; stroke-width: 0.8"/>
      </g>
     </g>
     <g id="text_4">
      <!-- −8 -->
      <g transform="translate(339.566566 397.438438) scale(0.1 -0.1)">
       <defs>
        <path id="DejaVuSans-38" d="M 2034 2216 
Q 1584 2216 1326 1975 
Q 1069 1734 1069 1313 
Q 1069 891 1326 650 
Q 1584 409 2034 409 
Q 2484 409 2743 651 
Q 3003 894 3003 1313 
Q 3003 1734 2745 1975 
Q 2488 2216 2034 2216 
z
M 1403 2484 
Q 997 2584 770 2862 
Q 544 3141 544 3541 
Q 544 4100 942 4425 
Q 1341 4750 2034 4750 
Q 2731 4750 3128 4425 
Q 3525 4100 3525 3541 
Q 3525 3141 3298 2862 
Q 3072 2584 2669 2484 
Q 3125 2378 3379 2068 
Q 3634 1759 3634 1313 
Q 3634 634 3220 271 
Q 2806 -91 2034 -91 
Q 1263 -91 848 271 
Q 434 634 434 1313 
Q 434 1759 690 2068 
Q 947 2378 1403 2484 
z
M 1172 3481 
Q 1172 3119 1398 2916 
Q 1625 2713 2034 2713 
Q 2441 2713 2670 2916 
Q 2900 3119 2900 3481 
Q 2900 3844 2670 4047 
Q 2441 4250 2034 4250 
Q 1625 4250 1398 4047 
Q 1172 3844 1172 3481 
z
" transform="scale(0.015625)"/>
       </defs>
       <use xlink:href="#DejaVuSans-2212"/>
       <use xlink:href="#DejaVuSans-38" x="83.789062"/>
      </g>
     </g>
    </g>
    <g id="xtick_5">
     <g id="line2d_5">
      <g>
       <use xlink:href="#m3e33aec184" x="433.748001" y="382.84" style="stroke: #000000; stroke-width: 0.8"/>
      </g>
     </g>
     <g id="text_5">
      <!-- −6 -->
      <g transform="translate(426.376907 397.438438) scale(0.1 -0.1)">
       <defs>
        <path id="DejaVuSans-36" d="M 2113 2584 
Q 1688 2584 1439 2293 
Q 1191 2003 1191 1497 
Q 1191 994 1439 701 
Q 1688 409 2113 409 
Q 2538 409 2786 701 
Q 3034 994 3034 1497 
Q 3034 2003 2786 2293 
Q 2538 2584 2113 2584 
z
M 3366 4563 
L 3366 3988 
Q 3128 4100 2886 4159 
Q 2644 4219 2406 4219 
Q 1781 4219 1451 3797 
Q 1122 3375 1075 2522 
Q 1259 2794 1537 2939 
Q 1816 3084 2150 3084 
Q 2853 3084 3261 2657 
Q 3669 2231 3669 1497 
Q 3669 778 3244 343 
Q 2819 -91 2113 -91 
Q 1303 -91 875 529 
Q 447 1150 447 2328 
Q 447 3434 972 4092 
Q 1497 4750 2381 4750 
Q 2619 4750 2861 4703 
Q 3103 4656 3366 4563 
z
" transform="scale(0.015625)"/>
       </defs>
       <use xlink:href="#DejaVuSans-2212"/>
       <use xlink:href="#DejaVuSans-36" x="83.789062"/>
      </g>
     </g>
    </g>
    <g id="xtick_6">
     <g id="line2d_6">
      <g>
       <use xlink:href="#m3e33aec184" x="520.558342" y="382.84" style="stroke: #000000; stroke-width: 0.8"/>
      </g>
     </g>
     <g id="text_6">
      <!-- −4 -->
      <g transform="translate(513.187248 397.438438) scale(0.1 -0.1)">
       <use xlink:href="#DejaVuSans-2212"/>
       <use xlink:href="#DejaVuSans-34" x="83.789062"/>
      </g>
     </g>
    </g>
    <g id="text_7">
     <!-- PPARA -->
     <g transform="translate(279.3866 417.195312) scale(0.18 -0.18)">
      <defs>
       <path id="DejaVuSans-50" d="M 1259 4147 
L 1259 2394 
L 2053 2394 
Q 2494 2394 2734 2622 
Q 2975 2850 2975 3272 
Q 2975 3691 2734 3919 
Q 2494 4147 2053 4147 
L 1259 4147 
z
M 628 4666 
L 2053 4666 
Q 2838 4666 3239 4311 
Q 3641 3956 3641 3272 
Q 3641 2581 3239 2228 
Q 2838 1875 2053 1875 
L 1259 1875 
L 1259 0 
L 628 0 
L 628 4666 
z
" transform="scale(0.015625)"/>
       <path id="DejaVuSans-41" d="M 2188 4044 
L 1331 1722 
L 3047 1722 
L 2188 4044 
z
M 1831 4666 
L 2547 4666 
L 4325 0 
L 3669 0 
L 3244 1197 
L 1141 1197 
L 716 0 
L 50 0 
L 1831 4666 
z
" transform="scale(0.015625)"/>
       <path id="DejaVuSans-52" d="M 2841 2188 
Q 3044 2119 3236 1894 
Q 3428 1669 3622 1275 
L 4263 0 
L 3584 0 
L 2988 1197 
Q 2756 1666 2539 1819 
Q 2322 1972 1947 1972 
L 1259 1972 
L 1259 0 
L 628 0 
L 628 4666 
L 2053 4666 
Q 2853 4666 3247 4331 
Q 3641 3997 3641 3322 
Q 3641 2881 3436 2590 
Q 3231 2300 2841 2188 
z
M 1259 4147 
L 1259 2491 
L 2053 2491 
Q 2509 2491 2742 2702 
Q 2975 2913 2975 3322 
Q 2975 3731 2742 3939 
Q 2509 4147 2053 4147 
L 1259 4147 
z
" transform="scale(0.015625)"/>
      </defs>
      <use xlink:href="#DejaVuSans-50"/>
      <use xlink:href="#DejaVuSans-50" x="60.302734"/>
      <use xlink:href="#DejaVuSans-41" x="114.230469"/>
      <use xlink:href="#DejaVuSans-52" x="182.638672"/>
      <use xlink:href="#DejaVuSans-41" x="248.121094"/>
     </g>
    </g>
   </g>
   <g id="matplotlib.axis_2">
    <g id="ytick_1">
     <g id="line2d_7">
      <defs>
       <path id="m879f3d1a13" d="M 0 0 
L -3.5 0 
" style="stroke: #000000; stroke-width: 0.8"/>
      </defs>
      <g>
       <use xlink:href="#m879f3d1a13" x="64.37" y="382.84" style="stroke: #000000; stroke-width: 0.8"/>
      </g>
     </g>
     <g id="text_8">
      <!-- 0 -->
      <g transform="translate(51.0075 386.639219) scale(0.1 -0.1)">
       <use xlink:href="#DejaVuSans-30"/>
      </g>
     </g>
    </g>
    <g id="ytick_2">
     <g id="line2d_8">
      <g>
       <use xlink:href="#m879f3d1a13" x="64.37" y="308.0408" style="stroke: #000000; stroke-width: 0.8"/>
      </g>
     </g>
     <g id="text_9">
      <!-- 2000 -->
      <g transform="translate(31.92 311.840019) scale(0.1 -0.1)">
       <use xlink:href="#DejaVuSans-32"/>
       <use xlink:href="#DejaVuSans-30" x="63.623047"/>
       <use xlink:href="#DejaVuSans-30" x="127.246094"/>
       <use xlink:href="#DejaVuSans-30" x="190.869141"/>
      </g>
     </g>
    </g>
    <g id="ytick_3">
     <g id="line2d_9">
      <g>
       <use xlink:href="#m879f3d1a13" x="64.37" y="233.2416" style="stroke: #000000; stroke-width: 0.8"/>
      </g>
     </g>
     <g id="text_10">
      <!-- 4000 -->
      <g transform="translate(31.92 237.040819) scale(0.1 -0.1)">
       <use xlink:href="#DejaVuSans-34"/>
       <use xlink:href="#DejaVuSans-30" x="63.623047"/>
       <use xlink:href="#DejaVuSans-30" x="127.246094"/>
       <use xlink:href="#DejaVuSans-30" x="190.869141"/>
      </g>
     </g>
    </g>
    <g id="ytick_4">
     <g id="line2d_10">
      <g>
       <use xlink:href="#m879f3d1a13" x="64.37" y="158.442401" style="stroke: #000000; stroke-width: 0.8"/>
      </g>
     </g>
     <g id="text_11">
      <!-- 6000 -->
      <g transform="translate(31.92 162.241619) scale(0.1 -0.1)">
       <use xlink:href="#DejaVuSans-36"/>
       <use xlink:href="#DejaVuSans-30" x="63.623047"/>
       <use xlink:href="#DejaVuSans-30" x="127.246094"/>
       <use xlink:href="#DejaVuSans-30" x="190.869141"/>
      </g>
     </g>
    </g>
    <g id="ytick_5">
     <g id="line2d_11">
      <g>
       <use xlink:href="#m879f3d1a13" x="64.37" y="83.643201" style="stroke: #000000; stroke-width: 0.8"/>
      </g>
     </g>
     <g id="text_12">
      <!-- 8000 -->
      <g transform="translate(31.92 87.442419) scale(0.1 -0.1)">
       <use xlink:href="#DejaVuSans-38"/>
       <use xlink:href="#DejaVuSans-30" x="63.623047"/>
       <use xlink:href="#DejaVuSans-30" x="127.246094"/>
       <use xlink:href="#DejaVuSans-30" x="190.869141"/>
      </g>
     </g>
    </g>
    <g id="text_13">
     <!-- Count -->
     <g transform="translate(24.176563 223.547188) rotate(-90) scale(0.18 -0.18)">
      <defs>
       <path id="DejaVuSans-43" d="M 4122 4306 
L 4122 3641 
Q 3803 3938 3442 4084 
Q 3081 4231 2675 4231 
Q 1875 4231 1450 3742 
Q 1025 3253 1025 2328 
Q 1025 1406 1450 917 
Q 1875 428 2675 428 
Q 3081 428 3442 575 
Q 3803 722 4122 1019 
L 4122 359 
Q 3791 134 3420 21 
Q 3050 -91 2638 -91 
Q 1578 -91 968 557 
Q 359 1206 359 2328 
Q 359 3453 968 4101 
Q 1578 4750 2638 4750 
Q 3056 4750 3426 4639 
Q 3797 4528 4122 4306 
z
" transform="scale(0.015625)"/>
       <path id="DejaVuSans-6f" d="M 1959 3097 
Q 1497 3097 1228 2736 
Q 959 2375 959 1747 
Q 959 1119 1226 758 
Q 1494 397 1959 397 
Q 2419 397 2687 759 
Q 2956 1122 2956 1747 
Q 2956 2369 2687 2733 
Q 2419 3097 1959 3097 
z
M 1959 3584 
Q 2709 3584 3137 3096 
Q 3566 2609 3566 1747 
Q 3566 888 3137 398 
Q 2709 -91 1959 -91 
Q 1206 -91 779 398 
Q 353 888 353 1747 
Q 353 2609 779 3096 
Q 1206 3584 1959 3584 
z
" transform="scale(0.015625)"/>
       <path id="DejaVuSans-75" d="M 544 1381 
L 544 3500 
L 1119 3500 
L 1119 1403 
Q 1119 906 1312 657 
Q 1506 409 1894 409 
Q 2359 409 2629 706 
Q 2900 1003 2900 1516 
L 2900 3500 
L 3475 3500 
L 3475 0 
L 2900 0 
L 2900 538 
Q 2691 219 2414 64 
Q 2138 -91 1772 -91 
Q 1169 -91 856 284 
Q 544 659 544 1381 
z
M 1991 3584 
L 1991 3584 
z
" transform="scale(0.015625)"/>
       <path id="DejaVuSans-6e" d="M 3513 2113 
L 3513 0 
L 2938 0 
L 2938 2094 
Q 2938 2591 2744 2837 
Q 2550 3084 2163 3084 
Q 1697 3084 1428 2787 
Q 1159 2491 1159 1978 
L 1159 0 
L 581 0 
L 581 3500 
L 1159 3500 
L 1159 2956 
Q 1366 3272 1645 3428 
Q 1925 3584 2291 3584 
Q 2894 3584 3203 3211 
Q 3513 2838 3513 2113 
z
" transform="scale(0.015625)"/>
       <path id="DejaVuSans-74" d="M 1172 4494 
L 1172 3500 
L 2356 3500 
L 2356 3053 
L 1172 3053 
L 1172 1153 
Q 1172 725 1289 603 
Q 1406 481 1766 481 
L 2356 481 
L 2356 0 
L 1766 0 
Q 1100 0 847 248 
Q 594 497 594 1153 
L 594 3053 
L 172 3053 
L 172 3500 
L 594 3500 
L 594 4494 
L 1172 4494 
z
" transform="scale(0.015625)"/>
      </defs>
      <use xlink:href="#DejaVuSans-43"/>
      <use xlink:href="#DejaVuSans-6f" x="69.824219"/>
      <use xlink:href="#DejaVuSans-75" x="131.005859"/>
      <use xlink:href="#DejaVuSans-6e" x="194.384766"/>
      <use xlink:href="#DejaVuSans-74" x="257.763672"/>
     </g>
    </g>
   </g>
   <g id="line2d_12">
    <path d="M 273.14887 382.84 
L 273.14887 28.51619 
" clip-path="url(#p35d5876630)" style="fill: none; stroke: #ff0000; stroke-width: 1.6; stroke-linecap: square"/>
   </g>
   <g id="patch_221">
    <path d="M 64.37 382.84 
L 64.37 10.8 
" style="fill: none; stroke: #000000; stroke-width: 0.8; stroke-linejoin: miter; stroke-linecap: square"/>
   </g>
   <g id="patch_222">
    <path d="M 551.376013 382.84 
L 551.376013 10.8 
" style="fill: none; stroke: #000000; stroke-width: 0.8; stroke-linejoin: miter; stroke-linecap: square"/>
   </g>
   <g id="patch_223">
    <path d="M 64.37 382.84 
L 551.376013 382.84 
" style="fill: none; stroke: #000000; stroke-width: 0.8; stroke-linejoin: miter; stroke-linecap: square"/>
   </g>
   <g id="patch_224">
    <path d="M 64.37 10.8 
L 551.376013 10.8 
" style="fill: none; stroke: #000000; stroke-width: 0.8; stroke-linejoin: miter; stroke-linecap: square"/>
   </g>
   <g id="text_14">
    <!-- $\mu_19 = -8.522$ -->
    <g transform="translate(405.274209 61.649937) scale(0.21 -0.21)">
     <defs>
      <path id="DejaVuSans-Oblique-3bc" d="M -84 -1331 
L 856 3500 
L 1434 3500 
L 1009 1322 
Q 997 1256 987 1175 
Q 978 1094 978 1013 
Q 978 722 1161 565 
Q 1344 409 1684 409 
Q 2147 409 2431 671 
Q 2716 934 2816 1459 
L 3213 3500 
L 3788 3500 
L 3266 809 
Q 3253 750 3248 706 
Q 3244 663 3244 628 
Q 3244 531 3283 486 
Q 3322 441 3406 441 
Q 3438 441 3492 456 
Q 3547 472 3647 513 
L 3559 50 
Q 3422 -19 3297 -55 
Q 3172 -91 3053 -91 
Q 2847 -91 2730 40 
Q 2613 172 2613 403 
Q 2438 153 2195 31 
Q 1953 -91 1625 -91 
Q 1334 -91 1117 43 
Q 900 178 831 397 
L 494 -1331 
L -84 -1331 
z
" transform="scale(0.015625)"/>
      <path id="DejaVuSans-39" d="M 703 97 
L 703 672 
Q 941 559 1184 500 
Q 1428 441 1663 441 
Q 2288 441 2617 861 
Q 2947 1281 2994 2138 
Q 2813 1869 2534 1725 
Q 2256 1581 1919 1581 
Q 1219 1581 811 2004 
Q 403 2428 403 3163 
Q 403 3881 828 4315 
Q 1253 4750 1959 4750 
Q 2769 4750 3195 4129 
Q 3622 3509 3622 2328 
Q 3622 1225 3098 567 
Q 2575 -91 1691 -91 
Q 1453 -91 1209 -44 
Q 966 3 703 97 
z
M 1959 2075 
Q 2384 2075 2632 2365 
Q 2881 2656 2881 3163 
Q 2881 3666 2632 3958 
Q 2384 4250 1959 4250 
Q 1534 4250 1286 3958 
Q 1038 3666 1038 3163 
Q 1038 2656 1286 2365 
Q 1534 2075 1959 2075 
z
" transform="scale(0.015625)"/>
      <path id="DejaVuSans-3d" d="M 678 2906 
L 4684 2906 
L 4684 2381 
L 678 2381 
L 678 2906 
z
M 678 1631 
L 4684 1631 
L 4684 1100 
L 678 1100 
L 678 1631 
z
" transform="scale(0.015625)"/>
      <path id="DejaVuSans-2e" d="M 684 794 
L 1344 794 
L 1344 0 
L 684 0 
L 684 794 
z
" transform="scale(0.015625)"/>
      <path id="DejaVuSans-35" d="M 691 4666 
L 3169 4666 
L 3169 4134 
L 1269 4134 
L 1269 2991 
Q 1406 3038 1543 3061 
Q 1681 3084 1819 3084 
Q 2600 3084 3056 2656 
Q 3513 2228 3513 1497 
Q 3513 744 3044 326 
Q 2575 -91 1722 -91 
Q 1428 -91 1123 -41 
Q 819 9 494 109 
L 494 744 
Q 775 591 1075 516 
Q 1375 441 1709 441 
Q 2250 441 2565 725 
Q 2881 1009 2881 1497 
Q 2881 1984 2565 2268 
Q 2250 2553 1709 2553 
Q 1456 2553 1204 2497 
Q 953 2441 691 2322 
L 691 4666 
z
" transform="scale(0.015625)"/>
     </defs>
     <use xlink:href="#DejaVuSans-Oblique-3bc" transform="translate(0 0.78125)"/>
     <use xlink:href="#DejaVuSans-31" transform="translate(63.623047 -15.625) scale(0.7)"/>
     <use xlink:href="#DejaVuSans-39" transform="translate(110.893555 0.78125)"/>
     <use xlink:href="#DejaVuSans-3d" transform="translate(193.999023 0.78125)"/>
     <use xlink:href="#DejaVuSans-2212" transform="translate(316.75293 0.78125)"/>
     <use xlink:href="#DejaVuSans-38" transform="translate(420.024414 0.78125)"/>
     <use xlink:href="#DejaVuSans-2e" transform="translate(483.647461 0.78125)"/>
     <use xlink:href="#DejaVuSans-35" transform="translate(515.43457 0.78125)"/>
     <use xlink:href="#DejaVuSans-32" transform="translate(579.057617 0.78125)"/>
     <use xlink:href="#DejaVuSans-32" transform="translate(642.680664 0.78125)"/>
    </g>
    <!-- $\sigma_19 = 1.12$ -->
    <g transform="translate(405.274209 85.208) scale(0.21 -0.21)">
     <defs>
      <path id="DejaVuSans-Oblique-3c3" d="M 2219 3044 
Q 1744 3044 1422 2700 
Q 1081 2341 969 1747 
Q 844 1119 1044 756 
Q 1241 397 1706 397 
Q 2166 397 2503 759 
Q 2844 1122 2966 1747 
Q 3075 2319 2881 2700 
Q 2700 3044 2219 3044 
z
M 2309 3503 
L 4219 3500 
L 4106 2925 
L 3463 2925 
Q 3706 2438 3575 1747 
Q 3406 888 2884 400 
Q 2359 -91 1609 -91 
Q 856 -91 525 400 
Q 194 888 363 1747 
Q 528 2609 1050 3097 
Q 1484 3503 2309 3503 
z
" transform="scale(0.015625)"/>
     </defs>
     <use xlink:href="#DejaVuSans-Oblique-3c3" transform="translate(0 0.78125)"/>
     <use xlink:href="#DejaVuSans-31" transform="translate(63.378906 -15.625) scale(0.7)"/>
     <use xlink:href="#DejaVuSans-39" transform="translate(110.649414 0.78125)"/>
     <use xlink:href="#DejaVuSans-3d" transform="translate(193.754883 0.78125)"/>
     <use xlink:href="#DejaVuSans-31" transform="translate(297.026367 0.78125)"/>
     <use xlink:href="#DejaVuSans-2e" transform="translate(360.649414 0.78125)"/>
     <use xlink:href="#DejaVuSans-31" transform="translate(392.436523 0.78125)"/>
     <use xlink:href="#DejaVuSans-32" transform="translate(456.05957 0.78125)"/>
    </g>
   </g>
  </g>
 </g>
 <defs>
  <clipPath id="p35d5876630">
   <rect x="64.37" y="10.8" width="487.006013" height="372.04"/>
  </clipPath>
 </defs>
</svg>
