<?xml version="1.0" encoding="utf-8" standalone="no"?>
<!DOCTYPE svg PUBLIC "-//W3C//DTD SVG 1.1//EN"
  "http://www.w3.org/Graphics/SVG/1.1/DTD/svg11.dtd">
<svg xmlns:xlink="http://www.w3.org/1999/xlink" width="576pt" height="432pt" viewBox="0 0 576 432" xmlns="http://www.w3.org/2000/svg" version="1.1">
 <metadata>
  <rdf:RDF xmlns:dc="http://purl.org/dc/elements/1.1/" xmlns:cc="http://creativecommons.org/ns#" xmlns:rdf="http://www.w3.org/1999/02/22-rdf-syntax-ns#">
   <cc:Work>
    <dc:type rdf:resource="http://purl.org/dc/dcmitype/StillImage"/>
    <dc:date>2024-09-05T19:41:27.435295</dc:date>
    <dc:format>image/svg+xml</dc:format>
    <dc:creator>
     <cc:Agent>
      <dc:title>Matplotlib v3.7.2, https://matplotlib.org/</dc:title>
     </cc:Agent>
    </dc:creator>
   </cc:Work>
  </rdf:RDF>
 </metadata>
 <defs>
  <style type="text/css">*{stroke-linejoin: round; stroke-linecap: butt}</style>
 </defs>
 <g id="figure_1">
  <g id="patch_1">
   <path d="M 0 432 
L 576 432 
L 576 0 
L 0 0 
z
" style="fill: #ffffff"/>
  </g>
  <g id="axes_1">
   <g id="patch_2">
    <path d="M 70.67 382.84 
L 552.276013 382.84 
L 552.276013 10.8 
L 70.67 10.8 
z
" style="fill: #ffffff"/>
   </g>
   <g id="patch_3">
    <path d="M 92.561182 382.84 
L 94.616693 382.84 
L 94.616693 382.805482 
L 92.561182 382.805482 
z
" clip-path="url(#pf4161c7f2c)" style="fill: #1f77b4"/>
   </g>
   <g id="patch_4">
    <path d="M 94.616693 382.84 
L 96.672203 382.84 
L 96.672203 382.84 
L 94.616693 382.84 
z
" clip-path="url(#pf4161c7f2c)" style="fill: #1f77b4"/>
   </g>
   <g id="patch_5">
    <path d="M 96.672203 382.84 
L 98.727713 382.84 
L 98.727713 382.84 
L 96.672203 382.84 
z
" clip-path="url(#pf4161c7f2c)" style="fill: #1f77b4"/>
   </g>
   <g id="patch_6">
    <path d="M 98.727713 382.84 
L 100.783223 382.84 
L 100.783223 382.84 
L 98.727713 382.84 
z
" clip-path="url(#pf4161c7f2c)" style="fill: #1f77b4"/>
   </g>
   <g id="patch_7">
    <path d="M 100.783223 382.84 
L 102.838733 382.84 
L 102.838733 382.84 
L 100.783223 382.84 
z
" clip-path="url(#pf4161c7f2c)" style="fill: #1f77b4"/>
   </g>
   <g id="patch_8">
    <path d="M 102.838733 382.84 
L 104.894243 382.84 
L 104.894243 382.84 
L 102.838733 382.84 
z
" clip-path="url(#pf4161c7f2c)" style="fill: #1f77b4"/>
   </g>
   <g id="patch_9">
    <path d="M 104.894243 382.84 
L 106.949753 382.84 
L 106.949753 382.84 
L 104.894243 382.84 
z
" clip-path="url(#pf4161c7f2c)" style="fill: #1f77b4"/>
   </g>
   <g id="patch_10">
    <path d="M 106.949753 382.84 
L 109.005263 382.84 
L 109.005263 382.84 
L 106.949753 382.84 
z
" clip-path="url(#pf4161c7f2c)" style="fill: #1f77b4"/>
   </g>
   <g id="patch_11">
    <path d="M 109.005263 382.84 
L 111.060773 382.84 
L 111.060773 382.84 
L 109.005263 382.84 
z
" clip-path="url(#pf4161c7f2c)" style="fill: #1f77b4"/>
   </g>
   <g id="patch_12">
    <path d="M 111.060773 382.84 
L 113.116283 382.84 
L 113.116283 382.770965 
L 111.060773 382.770965 
z
" clip-path="url(#pf4161c7f2c)" style="fill: #1f77b4"/>
   </g>
   <g id="patch_13">
    <path d="M 113.116283 382.84 
L 115.171793 382.84 
L 115.171793 382.84 
L 113.116283 382.84 
z
" clip-path="url(#pf4161c7f2c)" style="fill: #1f77b4"/>
   </g>
   <g id="patch_14">
    <path d="M 115.171793 382.84 
L 117.227303 382.84 
L 117.227303 382.805482 
L 115.171793 382.805482 
z
" clip-path="url(#pf4161c7f2c)" style="fill: #1f77b4"/>
   </g>
   <g id="patch_15">
    <path d="M 117.227303 382.84 
L 119.282814 382.84 
L 119.282814 382.84 
L 117.227303 382.84 
z
" clip-path="url(#pf4161c7f2c)" style="fill: #1f77b4"/>
   </g>
   <g id="patch_16">
    <path d="M 119.282814 382.84 
L 121.338324 382.84 
L 121.338324 382.84 
L 119.282814 382.84 
z
" clip-path="url(#pf4161c7f2c)" style="fill: #1f77b4"/>
   </g>
   <g id="patch_17">
    <path d="M 121.338324 382.84 
L 123.393834 382.84 
L 123.393834 382.84 
L 121.338324 382.84 
z
" clip-path="url(#pf4161c7f2c)" style="fill: #1f77b4"/>
   </g>
   <g id="patch_18">
    <path d="M 123.393834 382.84 
L 125.449344 382.84 
L 125.449344 382.84 
L 123.393834 382.84 
z
" clip-path="url(#pf4161c7f2c)" style="fill: #1f77b4"/>
   </g>
   <g id="patch_19">
    <path d="M 125.449344 382.84 
L 127.504854 382.84 
L 127.504854 382.805482 
L 125.449344 382.805482 
z
" clip-path="url(#pf4161c7f2c)" style="fill: #1f77b4"/>
   </g>
   <g id="patch_20">
    <path d="M 127.504854 382.84 
L 129.560364 382.84 
L 129.560364 382.84 
L 127.504854 382.84 
z
" clip-path="url(#pf4161c7f2c)" style="fill: #1f77b4"/>
   </g>
   <g id="patch_21">
    <path d="M 129.560364 382.84 
L 131.615874 382.84 
L 131.615874 382.701929 
L 129.560364 382.701929 
z
" clip-path="url(#pf4161c7f2c)" style="fill: #1f77b4"/>
   </g>
   <g id="patch_22">
    <path d="M 131.615874 382.84 
L 133.671384 382.84 
L 133.671384 382.84 
L 131.615874 382.84 
z
" clip-path="url(#pf4161c7f2c)" style="fill: #1f77b4"/>
   </g>
   <g id="patch_23">
    <path d="M 133.671384 382.84 
L 135.726894 382.84 
L 135.726894 382.770965 
L 133.671384 382.770965 
z
" clip-path="url(#pf4161c7f2c)" style="fill: #1f77b4"/>
   </g>
   <g id="patch_24">
    <path d="M 135.726894 382.84 
L 137.782404 382.84 
L 137.782404 382.84 
L 135.726894 382.84 
z
" clip-path="url(#pf4161c7f2c)" style="fill: #1f77b4"/>
   </g>
   <g id="patch_25">
    <path d="M 137.782404 382.84 
L 139.837914 382.84 
L 139.837914 382.701929 
L 137.782404 382.701929 
z
" clip-path="url(#pf4161c7f2c)" style="fill: #1f77b4"/>
   </g>
   <g id="patch_26">
    <path d="M 139.837914 382.84 
L 141.893424 382.84 
L 141.893424 382.84 
L 139.837914 382.84 
z
" clip-path="url(#pf4161c7f2c)" style="fill: #1f77b4"/>
   </g>
   <g id="patch_27">
    <path d="M 141.893424 382.84 
L 143.948935 382.84 
L 143.948935 382.84 
L 141.893424 382.84 
z
" clip-path="url(#pf4161c7f2c)" style="fill: #1f77b4"/>
   </g>
   <g id="patch_28">
    <path d="M 143.948935 382.84 
L 146.004445 382.84 
L 146.004445 382.632894 
L 143.948935 382.632894 
z
" clip-path="url(#pf4161c7f2c)" style="fill: #1f77b4"/>
   </g>
   <g id="patch_29">
    <path d="M 146.004445 382.84 
L 148.059955 382.84 
L 148.059955 382.84 
L 146.004445 382.84 
z
" clip-path="url(#pf4161c7f2c)" style="fill: #1f77b4"/>
   </g>
   <g id="patch_30">
    <path d="M 148.059955 382.84 
L 150.115465 382.84 
L 150.115465 382.39127 
L 148.059955 382.39127 
z
" clip-path="url(#pf4161c7f2c)" style="fill: #1f77b4"/>
   </g>
   <g id="patch_31">
    <path d="M 150.115465 382.84 
L 152.170975 382.84 
L 152.170975 382.84 
L 150.115465 382.84 
z
" clip-path="url(#pf4161c7f2c)" style="fill: #1f77b4"/>
   </g>
   <g id="patch_32">
    <path d="M 152.170975 382.84 
L 154.226485 382.84 
L 154.226485 382.425788 
L 152.170975 382.425788 
z
" clip-path="url(#pf4161c7f2c)" style="fill: #1f77b4"/>
   </g>
   <g id="patch_33">
    <path d="M 154.226485 382.84 
L 156.281995 382.84 
L 156.281995 382.84 
L 154.226485 382.84 
z
" clip-path="url(#pf4161c7f2c)" style="fill: #1f77b4"/>
   </g>
   <g id="patch_34">
    <path d="M 156.281995 382.84 
L 158.337505 382.84 
L 158.337505 382.84 
L 156.281995 382.84 
z
" clip-path="url(#pf4161c7f2c)" style="fill: #1f77b4"/>
   </g>
   <g id="patch_35">
    <path d="M 158.337505 382.84 
L 160.393015 382.84 
L 160.393015 382.115129 
L 158.337505 382.115129 
z
" clip-path="url(#pf4161c7f2c)" style="fill: #1f77b4"/>
   </g>
   <g id="patch_36">
    <path d="M 160.393015 382.84 
L 162.448525 382.84 
L 162.448525 382.84 
L 160.393015 382.84 
z
" clip-path="url(#pf4161c7f2c)" style="fill: #1f77b4"/>
   </g>
   <g id="patch_37">
    <path d="M 162.448525 382.84 
L 164.504035 382.84 
L 164.504035 382.149647 
L 162.448525 382.149647 
z
" clip-path="url(#pf4161c7f2c)" style="fill: #1f77b4"/>
   </g>
   <g id="patch_38">
    <path d="M 164.504035 382.84 
L 166.559546 382.84 
L 166.559546 382.84 
L 164.504035 382.84 
z
" clip-path="url(#pf4161c7f2c)" style="fill: #1f77b4"/>
   </g>
   <g id="patch_39">
    <path d="M 166.559546 382.84 
L 168.615056 382.84 
L 168.615056 382.011576 
L 166.559546 382.011576 
z
" clip-path="url(#pf4161c7f2c)" style="fill: #1f77b4"/>
   </g>
   <g id="patch_40">
    <path d="M 168.615056 382.84 
L 170.670566 382.84 
L 170.670566 382.84 
L 168.615056 382.84 
z
" clip-path="url(#pf4161c7f2c)" style="fill: #1f77b4"/>
   </g>
   <g id="patch_41">
    <path d="M 170.670566 382.84 
L 172.726076 382.84 
L 172.726076 381.562846 
L 170.670566 381.562846 
z
" clip-path="url(#pf4161c7f2c)" style="fill: #1f77b4"/>
   </g>
   <g id="patch_42">
    <path d="M 172.726076 382.84 
L 174.781586 382.84 
L 174.781586 382.84 
L 172.726076 382.84 
z
" clip-path="url(#pf4161c7f2c)" style="fill: #1f77b4"/>
   </g>
   <g id="patch_43">
    <path d="M 174.781586 382.84 
L 176.837096 382.84 
L 176.837096 382.84 
L 174.781586 382.84 
z
" clip-path="url(#pf4161c7f2c)" style="fill: #1f77b4"/>
   </g>
   <g id="patch_44">
    <path d="M 176.837096 382.84 
L 178.892606 382.84 
L 178.892606 381.183152 
L 176.837096 381.183152 
z
" clip-path="url(#pf4161c7f2c)" style="fill: #1f77b4"/>
   </g>
   <g id="patch_45">
    <path d="M 178.892606 382.84 
L 180.948116 382.84 
L 180.948116 382.84 
L 178.892606 382.84 
z
" clip-path="url(#pf4161c7f2c)" style="fill: #1f77b4"/>
   </g>
   <g id="patch_46">
    <path d="M 180.948116 382.84 
L 183.003626 382.84 
L 183.003626 380.734423 
L 180.948116 380.734423 
z
" clip-path="url(#pf4161c7f2c)" style="fill: #1f77b4"/>
   </g>
   <g id="patch_47">
    <path d="M 183.003626 382.84 
L 185.059136 382.84 
L 185.059136 382.84 
L 183.003626 382.84 
z
" clip-path="url(#pf4161c7f2c)" style="fill: #1f77b4"/>
   </g>
   <g id="patch_48">
    <path d="M 185.059136 382.84 
L 187.114646 382.84 
L 187.114646 380.113105 
L 185.059136 380.113105 
z
" clip-path="url(#pf4161c7f2c)" style="fill: #1f77b4"/>
   </g>
   <g id="patch_49">
    <path d="M 187.114646 382.84 
L 189.170156 382.84 
L 189.170156 382.84 
L 187.114646 382.84 
z
" clip-path="url(#pf4161c7f2c)" style="fill: #1f77b4"/>
   </g>
   <g id="patch_50">
    <path d="M 189.170156 382.84 
L 191.225667 382.84 
L 191.225667 382.84 
L 189.170156 382.84 
z
" clip-path="url(#pf4161c7f2c)" style="fill: #1f77b4"/>
   </g>
   <g id="patch_51">
    <path d="M 191.225667 382.84 
L 193.281177 382.84 
L 193.281177 378.974022 
L 191.225667 378.974022 
z
" clip-path="url(#pf4161c7f2c)" style="fill: #1f77b4"/>
   </g>
   <g id="patch_52">
    <path d="M 193.281177 382.84 
L 195.336687 382.84 
L 195.336687 382.84 
L 193.281177 382.84 
z
" clip-path="url(#pf4161c7f2c)" style="fill: #1f77b4"/>
   </g>
   <g id="patch_53">
    <path d="M 195.336687 382.84 
L 197.392197 382.84 
L 197.392197 378.11108 
L 195.336687 378.11108 
z
" clip-path="url(#pf4161c7f2c)" style="fill: #1f77b4"/>
   </g>
   <g id="patch_54">
    <path d="M 197.392197 382.84 
L 199.447707 382.84 
L 199.447707 382.84 
L 197.392197 382.84 
z
" clip-path="url(#pf4161c7f2c)" style="fill: #1f77b4"/>
   </g>
   <g id="patch_55">
    <path d="M 199.447707 382.84 
L 201.503217 382.84 
L 201.503217 375.729361 
L 199.447707 375.729361 
z
" clip-path="url(#pf4161c7f2c)" style="fill: #1f77b4"/>
   </g>
   <g id="patch_56">
    <path d="M 201.503217 382.84 
L 203.558727 382.84 
L 203.558727 382.84 
L 201.503217 382.84 
z
" clip-path="url(#pf4161c7f2c)" style="fill: #1f77b4"/>
   </g>
   <g id="patch_57">
    <path d="M 203.558727 382.84 
L 205.614237 382.84 
L 205.614237 373.416678 
L 203.558727 373.416678 
z
" clip-path="url(#pf4161c7f2c)" style="fill: #1f77b4"/>
   </g>
   <g id="patch_58">
    <path d="M 205.614237 382.84 
L 207.669747 382.84 
L 207.669747 382.84 
L 205.614237 382.84 
z
" clip-path="url(#pf4161c7f2c)" style="fill: #1f77b4"/>
   </g>
   <g id="patch_59">
    <path d="M 207.669747 382.84 
L 209.725257 382.84 
L 209.725257 382.84 
L 207.669747 382.84 
z
" clip-path="url(#pf4161c7f2c)" style="fill: #1f77b4"/>
   </g>
   <g id="patch_60">
    <path d="M 209.725257 382.84 
L 211.780767 382.84 
L 211.780767 371.380136 
L 209.725257 371.380136 
z
" clip-path="url(#pf4161c7f2c)" style="fill: #1f77b4"/>
   </g>
   <g id="patch_61">
    <path d="M 211.780767 382.84 
L 213.836277 382.84 
L 213.836277 382.84 
L 211.780767 382.84 
z
" clip-path="url(#pf4161c7f2c)" style="fill: #1f77b4"/>
   </g>
   <g id="patch_62">
    <path d="M 213.836277 382.84 
L 215.891788 382.84 
L 215.891788 367.341569 
L 213.836277 367.341569 
z
" clip-path="url(#pf4161c7f2c)" style="fill: #1f77b4"/>
   </g>
   <g id="patch_63">
    <path d="M 215.891788 382.84 
L 217.947298 382.84 
L 217.947298 382.84 
L 215.891788 382.84 
z
" clip-path="url(#pf4161c7f2c)" style="fill: #1f77b4"/>
   </g>
   <g id="patch_64">
    <path d="M 217.947298 382.84 
L 220.002808 382.84 
L 220.002808 363.855285 
L 217.947298 363.855285 
z
" clip-path="url(#pf4161c7f2c)" style="fill: #1f77b4"/>
   </g>
   <g id="patch_65">
    <path d="M 220.002808 382.84 
L 222.058318 382.84 
L 222.058318 382.84 
L 220.002808 382.84 
z
" clip-path="url(#pf4161c7f2c)" style="fill: #1f77b4"/>
   </g>
   <g id="patch_66">
    <path d="M 222.058318 382.84 
L 224.113828 382.84 
L 224.113828 382.84 
L 222.058318 382.84 
z
" clip-path="url(#pf4161c7f2c)" style="fill: #1f77b4"/>
   </g>
   <g id="patch_67">
    <path d="M 224.113828 382.84 
L 226.169338 382.84 
L 226.169338 359.091848 
L 224.113828 359.091848 
z
" clip-path="url(#pf4161c7f2c)" style="fill: #1f77b4"/>
   </g>
   <g id="patch_68">
    <path d="M 226.169338 382.84 
L 228.224848 382.84 
L 228.224848 382.84 
L 226.169338 382.84 
z
" clip-path="url(#pf4161c7f2c)" style="fill: #1f77b4"/>
   </g>
   <g id="patch_69">
    <path d="M 228.224848 382.84 
L 230.280358 382.84 
L 230.280358 353.051257 
L 228.224848 353.051257 
z
" clip-path="url(#pf4161c7f2c)" style="fill: #1f77b4"/>
   </g>
   <g id="patch_70">
    <path d="M 230.280358 382.84 
L 232.335868 382.84 
L 232.335868 382.84 
L 230.280358 382.84 
z
" clip-path="url(#pf4161c7f2c)" style="fill: #1f77b4"/>
   </g>
   <g id="patch_71">
    <path d="M 232.335868 382.84 
L 234.391378 382.84 
L 234.391378 347.97716 
L 232.335868 347.97716 
z
" clip-path="url(#pf4161c7f2c)" style="fill: #1f77b4"/>
   </g>
   <g id="patch_72">
    <path d="M 234.391378 382.84 
L 236.446888 382.84 
L 236.446888 382.84 
L 234.391378 382.84 
z
" clip-path="url(#pf4161c7f2c)" style="fill: #1f77b4"/>
   </g>
   <g id="patch_73">
    <path d="M 236.446888 382.84 
L 238.502399 382.84 
L 238.502399 382.84 
L 236.446888 382.84 
z
" clip-path="url(#pf4161c7f2c)" style="fill: #1f77b4"/>
   </g>
   <g id="patch_74">
    <path d="M 238.502399 382.84 
L 240.557909 382.84 
L 240.557909 338.82998 
L 238.502399 338.82998 
z
" clip-path="url(#pf4161c7f2c)" style="fill: #1f77b4"/>
   </g>
   <g id="patch_75">
    <path d="M 240.557909 382.84 
L 242.613419 382.84 
L 242.613419 382.84 
L 240.557909 382.84 
z
" clip-path="url(#pf4161c7f2c)" style="fill: #1f77b4"/>
   </g>
   <g id="patch_76">
    <path d="M 242.613419 382.84 
L 244.668929 382.84 
L 244.668929 331.098023 
L 242.613419 331.098023 
z
" clip-path="url(#pf4161c7f2c)" style="fill: #1f77b4"/>
   </g>
   <g id="patch_77">
    <path d="M 244.668929 382.84 
L 246.724439 382.84 
L 246.724439 382.84 
L 244.668929 382.84 
z
" clip-path="url(#pf4161c7f2c)" style="fill: #1f77b4"/>
   </g>
   <g id="patch_78">
    <path d="M 246.724439 382.84 
L 248.779949 382.84 
L 248.779949 316.945782 
L 246.724439 316.945782 
z
" clip-path="url(#pf4161c7f2c)" style="fill: #1f77b4"/>
   </g>
   <g id="patch_79">
    <path d="M 248.779949 382.84 
L 250.835459 382.84 
L 250.835459 382.84 
L 248.779949 382.84 
z
" clip-path="url(#pf4161c7f2c)" style="fill: #1f77b4"/>
   </g>
   <g id="patch_80">
    <path d="M 250.835459 382.84 
L 252.890969 382.84 
L 252.890969 308.212813 
L 250.835459 308.212813 
z
" clip-path="url(#pf4161c7f2c)" style="fill: #1f77b4"/>
   </g>
   <g id="patch_81">
    <path d="M 252.890969 382.84 
L 254.946479 382.84 
L 254.946479 382.84 
L 252.890969 382.84 
z
" clip-path="url(#pf4161c7f2c)" style="fill: #1f77b4"/>
   </g>
   <g id="patch_82">
    <path d="M 254.946479 382.84 
L 257.001989 382.84 
L 257.001989 382.84 
L 254.946479 382.84 
z
" clip-path="url(#pf4161c7f2c)" style="fill: #1f77b4"/>
   </g>
   <g id="patch_83">
    <path d="M 257.001989 382.84 
L 259.057499 382.84 
L 259.057499 293.887983 
L 257.001989 293.887983 
z
" clip-path="url(#pf4161c7f2c)" style="fill: #1f77b4"/>
   </g>
   <g id="patch_84">
    <path d="M 259.057499 382.84 
L 261.113009 382.84 
L 261.113009 382.84 
L 259.057499 382.84 
z
" clip-path="url(#pf4161c7f2c)" style="fill: #1f77b4"/>
   </g>
   <g id="patch_85">
    <path d="M 261.113009 382.84 
L 263.16852 382.84 
L 263.16852 278.734729 
L 261.113009 278.734729 
z
" clip-path="url(#pf4161c7f2c)" style="fill: #1f77b4"/>
   </g>
   <g id="patch_86">
    <path d="M 263.16852 382.84 
L 265.22403 382.84 
L 265.22403 382.84 
L 263.16852 382.84 
z
" clip-path="url(#pf4161c7f2c)" style="fill: #1f77b4"/>
   </g>
   <g id="patch_87">
    <path d="M 265.22403 382.84 
L 267.27954 382.84 
L 267.27954 261.337827 
L 265.22403 261.337827 
z
" clip-path="url(#pf4161c7f2c)" style="fill: #1f77b4"/>
   </g>
   <g id="patch_88">
    <path d="M 267.27954 382.84 
L 269.33505 382.84 
L 269.33505 382.84 
L 267.27954 382.84 
z
" clip-path="url(#pf4161c7f2c)" style="fill: #1f77b4"/>
   </g>
   <g id="patch_89">
    <path d="M 269.33505 382.84 
L 271.39056 382.84 
L 271.39056 382.84 
L 269.33505 382.84 
z
" clip-path="url(#pf4161c7f2c)" style="fill: #1f77b4"/>
   </g>
   <g id="patch_90">
    <path d="M 271.39056 382.84 
L 273.44607 382.84 
L 273.44607 240.7653 
L 271.39056 240.7653 
z
" clip-path="url(#pf4161c7f2c)" style="fill: #1f77b4"/>
   </g>
   <g id="patch_91">
    <path d="M 273.44607 382.84 
L 275.50158 382.84 
L 275.50158 382.84 
L 273.44607 382.84 
z
" clip-path="url(#pf4161c7f2c)" style="fill: #1f77b4"/>
   </g>
   <g id="patch_92">
    <path d="M 275.50158 382.84 
L 277.55709 382.84 
L 277.55709 219.05369 
L 275.50158 219.05369 
z
" clip-path="url(#pf4161c7f2c)" style="fill: #1f77b4"/>
   </g>
   <g id="patch_93">
    <path d="M 277.55709 382.84 
L 279.6126 382.84 
L 279.6126 382.84 
L 277.55709 382.84 
z
" clip-path="url(#pf4161c7f2c)" style="fill: #1f77b4"/>
   </g>
   <g id="patch_94">
    <path d="M 279.6126 382.84 
L 281.66811 382.84 
L 281.66811 198.619233 
L 279.6126 198.619233 
z
" clip-path="url(#pf4161c7f2c)" style="fill: #1f77b4"/>
   </g>
   <g id="patch_95">
    <path d="M 281.66811 382.84 
L 283.72362 382.84 
L 283.72362 382.84 
L 281.66811 382.84 
z
" clip-path="url(#pf4161c7f2c)" style="fill: #1f77b4"/>
   </g>
   <g id="patch_96">
    <path d="M 283.72362 382.84 
L 285.779131 382.84 
L 285.779131 179.979695 
L 283.72362 179.979695 
z
" clip-path="url(#pf4161c7f2c)" style="fill: #1f77b4"/>
   </g>
   <g id="patch_97">
    <path d="M 285.779131 382.84 
L 287.834641 382.84 
L 287.834641 382.84 
L 285.779131 382.84 
z
" clip-path="url(#pf4161c7f2c)" style="fill: #1f77b4"/>
   </g>
   <g id="patch_98">
    <path d="M 287.834641 382.84 
L 289.890151 382.84 
L 289.890151 382.84 
L 287.834641 382.84 
z
" clip-path="url(#pf4161c7f2c)" style="fill: #1f77b4"/>
   </g>
   <g id="patch_99">
    <path d="M 289.890151 382.84 
L 291.945661 382.84 
L 291.945661 161.89244 
L 289.890151 161.89244 
z
" clip-path="url(#pf4161c7f2c)" style="fill: #1f77b4"/>
   </g>
   <g id="patch_100">
    <path d="M 291.945661 382.84 
L 294.001171 382.84 
L 294.001171 382.84 
L 291.945661 382.84 
z
" clip-path="url(#pf4161c7f2c)" style="fill: #1f77b4"/>
   </g>
   <g id="patch_101">
    <path d="M 294.001171 382.84 
L 296.056681 382.84 
L 296.056681 138.075252 
L 294.001171 138.075252 
z
" clip-path="url(#pf4161c7f2c)" style="fill: #1f77b4"/>
   </g>
   <g id="patch_102">
    <path d="M 296.056681 382.84 
L 298.112191 382.84 
L 298.112191 382.84 
L 296.056681 382.84 
z
" clip-path="url(#pf4161c7f2c)" style="fill: #1f77b4"/>
   </g>
   <g id="patch_103">
    <path d="M 298.112191 382.84 
L 300.167701 382.84 
L 300.167701 115.017454 
L 298.112191 115.017454 
z
" clip-path="url(#pf4161c7f2c)" style="fill: #1f77b4"/>
   </g>
   <g id="patch_104">
    <path d="M 300.167701 382.84 
L 302.223211 382.84 
L 302.223211 382.84 
L 300.167701 382.84 
z
" clip-path="url(#pf4161c7f2c)" style="fill: #1f77b4"/>
   </g>
   <g id="patch_105">
    <path d="M 302.223211 382.84 
L 304.278721 382.84 
L 304.278721 382.84 
L 302.223211 382.84 
z
" clip-path="url(#pf4161c7f2c)" style="fill: #1f77b4"/>
   </g>
   <g id="patch_106">
    <path d="M 304.278721 382.84 
L 306.334231 382.84 
L 306.334231 96.688575 
L 304.278721 96.688575 
z
" clip-path="url(#pf4161c7f2c)" style="fill: #1f77b4"/>
   </g>
   <g id="patch_107">
    <path d="M 306.334231 382.84 
L 308.389741 382.84 
L 308.389741 382.84 
L 306.334231 382.84 
z
" clip-path="url(#pf4161c7f2c)" style="fill: #1f77b4"/>
   </g>
   <g id="patch_108">
    <path d="M 308.389741 382.84 
L 310.445252 382.84 
L 310.445252 84.020592 
L 308.389741 84.020592 
z
" clip-path="url(#pf4161c7f2c)" style="fill: #1f77b4"/>
   </g>
   <g id="patch_109">
    <path d="M 310.445252 382.84 
L 312.500762 382.84 
L 312.500762 382.84 
L 310.445252 382.84 
z
" clip-path="url(#pf4161c7f2c)" style="fill: #1f77b4"/>
   </g>
   <g id="patch_110">
    <path d="M 312.500762 382.84 
L 314.556272 382.84 
L 314.556272 65.312019 
L 312.500762 65.312019 
z
" clip-path="url(#pf4161c7f2c)" style="fill: #1f77b4"/>
   </g>
   <g id="patch_111">
    <path d="M 314.556272 382.84 
L 316.611782 382.84 
L 316.611782 382.84 
L 314.556272 382.84 
z
" clip-path="url(#pf4161c7f2c)" style="fill: #1f77b4"/>
   </g>
   <g id="patch_112">
    <path d="M 316.611782 382.84 
L 318.667292 382.84 
L 318.667292 58.857216 
L 316.611782 58.857216 
z
" clip-path="url(#pf4161c7f2c)" style="fill: #1f77b4"/>
   </g>
   <g id="patch_113">
    <path d="M 318.667292 382.84 
L 320.722802 382.84 
L 320.722802 382.84 
L 318.667292 382.84 
z
" clip-path="url(#pf4161c7f2c)" style="fill: #1f77b4"/>
   </g>
   <g id="patch_114">
    <path d="M 320.722802 382.84 
L 322.778312 382.84 
L 322.778312 382.84 
L 320.722802 382.84 
z
" clip-path="url(#pf4161c7f2c)" style="fill: #1f77b4"/>
   </g>
   <g id="patch_115">
    <path d="M 322.778312 382.84 
L 324.833822 382.84 
L 324.833822 46.741516 
L 322.778312 46.741516 
z
" clip-path="url(#pf4161c7f2c)" style="fill: #1f77b4"/>
   </g>
   <g id="patch_116">
    <path d="M 324.833822 382.84 
L 326.889332 382.84 
L 326.889332 382.84 
L 324.833822 382.84 
z
" clip-path="url(#pf4161c7f2c)" style="fill: #1f77b4"/>
   </g>
   <g id="patch_117">
    <path d="M 326.889332 382.84 
L 328.944842 382.84 
L 328.944842 39.872502 
L 326.889332 39.872502 
z
" clip-path="url(#pf4161c7f2c)" style="fill: #1f77b4"/>
   </g>
   <g id="patch_118">
    <path d="M 328.944842 382.84 
L 331.000352 382.84 
L 331.000352 382.84 
L 328.944842 382.84 
z
" clip-path="url(#pf4161c7f2c)" style="fill: #1f77b4"/>
   </g>
   <g id="patch_119">
    <path d="M 331.000352 382.84 
L 333.055862 382.84 
L 333.055862 35.005511 
L 331.000352 35.005511 
z
" clip-path="url(#pf4161c7f2c)" style="fill: #1f77b4"/>
   </g>
   <g id="patch_120">
    <path d="M 333.055862 382.84 
L 335.111373 382.84 
L 335.111373 382.84 
L 333.055862 382.84 
z
" clip-path="url(#pf4161c7f2c)" style="fill: #1f77b4"/>
   </g>
   <g id="patch_121">
    <path d="M 335.111373 382.84 
L 337.166883 382.84 
L 337.166883 382.84 
L 335.111373 382.84 
z
" clip-path="url(#pf4161c7f2c)" style="fill: #1f77b4"/>
   </g>
   <g id="patch_122">
    <path d="M 337.166883 382.84 
L 339.222393 382.84 
L 339.222393 28.51619 
L 337.166883 28.51619 
z
" clip-path="url(#pf4161c7f2c)" style="fill: #1f77b4"/>
   </g>
   <g id="patch_123">
    <path d="M 339.222393 382.84 
L 341.277903 382.84 
L 341.277903 382.84 
L 339.222393 382.84 
z
" clip-path="url(#pf4161c7f2c)" style="fill: #1f77b4"/>
   </g>
   <g id="patch_124">
    <path d="M 341.277903 382.84 
L 343.333413 382.84 
L 343.333413 35.695864 
L 341.277903 35.695864 
z
" clip-path="url(#pf4161c7f2c)" style="fill: #1f77b4"/>
   </g>
   <g id="patch_125">
    <path d="M 343.333413 382.84 
L 345.388923 382.84 
L 345.388923 382.84 
L 343.333413 382.84 
z
" clip-path="url(#pf4161c7f2c)" style="fill: #1f77b4"/>
   </g>
   <g id="patch_126">
    <path d="M 345.388923 382.84 
L 347.444433 382.84 
L 347.444433 41.391279 
L 345.388923 41.391279 
z
" clip-path="url(#pf4161c7f2c)" style="fill: #1f77b4"/>
   </g>
   <g id="patch_127">
    <path d="M 347.444433 382.84 
L 349.499943 382.84 
L 349.499943 382.84 
L 347.444433 382.84 
z
" clip-path="url(#pf4161c7f2c)" style="fill: #1f77b4"/>
   </g>
   <g id="patch_128">
    <path d="M 349.499943 382.84 
L 351.555453 382.84 
L 351.555453 56.302909 
L 349.499943 56.302909 
z
" clip-path="url(#pf4161c7f2c)" style="fill: #1f77b4"/>
   </g>
   <g id="patch_129">
    <path d="M 351.555453 382.84 
L 353.610963 382.84 
L 353.610963 382.84 
L 351.555453 382.84 
z
" clip-path="url(#pf4161c7f2c)" style="fill: #1f77b4"/>
   </g>
   <g id="patch_130">
    <path d="M 353.610963 382.84 
L 355.666473 382.84 
L 355.666473 382.84 
L 353.610963 382.84 
z
" clip-path="url(#pf4161c7f2c)" style="fill: #1f77b4"/>
   </g>
   <g id="patch_131">
    <path d="M 355.666473 382.84 
L 357.721984 382.84 
L 357.721984 59.133357 
L 355.666473 59.133357 
z
" clip-path="url(#pf4161c7f2c)" style="fill: #1f77b4"/>
   </g>
   <g id="patch_132">
    <path d="M 357.721984 382.84 
L 359.777494 382.84 
L 359.777494 382.84 
L 357.721984 382.84 
z
" clip-path="url(#pf4161c7f2c)" style="fill: #1f77b4"/>
   </g>
   <g id="patch_133">
    <path d="M 359.777494 382.84 
L 361.833004 382.84 
L 361.833004 76.012495 
L 359.777494 76.012495 
z
" clip-path="url(#pf4161c7f2c)" style="fill: #1f77b4"/>
   </g>
   <g id="patch_134">
    <path d="M 361.833004 382.84 
L 363.888514 382.84 
L 363.888514 382.84 
L 361.833004 382.84 
z
" clip-path="url(#pf4161c7f2c)" style="fill: #1f77b4"/>
   </g>
   <g id="patch_135">
    <path d="M 363.888514 382.84 
L 365.944024 382.84 
L 365.944024 91.062196 
L 363.888514 91.062196 
z
" clip-path="url(#pf4161c7f2c)" style="fill: #1f77b4"/>
   </g>
   <g id="patch_136">
    <path d="M 365.944024 382.84 
L 367.999534 382.84 
L 367.999534 382.84 
L 365.944024 382.84 
z
" clip-path="url(#pf4161c7f2c)" style="fill: #1f77b4"/>
   </g>
   <g id="patch_137">
    <path d="M 367.999534 382.84 
L 370.055044 382.84 
L 370.055044 382.84 
L 367.999534 382.84 
z
" clip-path="url(#pf4161c7f2c)" style="fill: #1f77b4"/>
   </g>
   <g id="patch_138">
    <path d="M 370.055044 382.84 
L 372.110554 382.84 
L 372.110554 110.668228 
L 370.055044 110.668228 
z
" clip-path="url(#pf4161c7f2c)" style="fill: #1f77b4"/>
   </g>
   <g id="patch_139">
    <path d="M 372.110554 382.84 
L 374.166064 382.84 
L 374.166064 382.84 
L 372.110554 382.84 
z
" clip-path="url(#pf4161c7f2c)" style="fill: #1f77b4"/>
   </g>
   <g id="patch_140">
    <path d="M 374.166064 382.84 
L 376.221574 382.84 
L 376.221574 129.894566 
L 374.166064 129.894566 
z
" clip-path="url(#pf4161c7f2c)" style="fill: #1f77b4"/>
   </g>
   <g id="patch_141">
    <path d="M 376.221574 382.84 
L 378.277084 382.84 
L 378.277084 382.84 
L 376.221574 382.84 
z
" clip-path="url(#pf4161c7f2c)" style="fill: #1f77b4"/>
   </g>
   <g id="patch_142">
    <path d="M 378.277084 382.84 
L 380.332594 382.84 
L 380.332594 147.498574 
L 378.277084 147.498574 
z
" clip-path="url(#pf4161c7f2c)" style="fill: #1f77b4"/>
   </g>
   <g id="patch_143">
    <path d="M 380.332594 382.84 
L 382.388105 382.84 
L 382.388105 382.84 
L 380.332594 382.84 
z
" clip-path="url(#pf4161c7f2c)" style="fill: #1f77b4"/>
   </g>
   <g id="patch_144">
    <path d="M 382.388105 382.84 
L 384.443615 382.84 
L 384.443615 382.84 
L 382.388105 382.84 
z
" clip-path="url(#pf4161c7f2c)" style="fill: #1f77b4"/>
   </g>
   <g id="patch_145">
    <path d="M 384.443615 382.84 
L 386.499125 382.84 
L 386.499125 167.311713 
L 384.443615 167.311713 
z
" clip-path="url(#pf4161c7f2c)" style="fill: #1f77b4"/>
   </g>
   <g id="patch_146">
    <path d="M 386.499125 382.84 
L 388.554635 382.84 
L 388.554635 382.84 
L 386.499125 382.84 
z
" clip-path="url(#pf4161c7f2c)" style="fill: #1f77b4"/>
   </g>
   <g id="patch_147">
    <path d="M 388.554635 382.84 
L 390.610145 382.84 
L 390.610145 191.853771 
L 388.554635 191.853771 
z
" clip-path="url(#pf4161c7f2c)" style="fill: #1f77b4"/>
   </g>
   <g id="patch_148">
    <path d="M 390.610145 382.84 
L 392.665655 382.84 
L 392.665655 382.84 
L 390.610145 382.84 
z
" clip-path="url(#pf4161c7f2c)" style="fill: #1f77b4"/>
   </g>
   <g id="patch_149">
    <path d="M 392.665655 382.84 
L 394.721165 382.84 
L 394.721165 205.936978 
L 392.665655 205.936978 
z
" clip-path="url(#pf4161c7f2c)" style="fill: #1f77b4"/>
   </g>
   <g id="patch_150">
    <path d="M 394.721165 382.84 
L 396.776675 382.84 
L 396.776675 382.84 
L 394.721165 382.84 
z
" clip-path="url(#pf4161c7f2c)" style="fill: #1f77b4"/>
   </g>
   <g id="patch_151">
    <path d="M 396.776675 382.84 
L 398.832185 382.84 
L 398.832185 235.898309 
L 396.776675 235.898309 
z
" clip-path="url(#pf4161c7f2c)" style="fill: #1f77b4"/>
   </g>
   <g id="patch_152">
    <path d="M 398.832185 382.84 
L 400.887695 382.84 
L 400.887695 382.84 
L 398.832185 382.84 
z
" clip-path="url(#pf4161c7f2c)" style="fill: #1f77b4"/>
   </g>
   <g id="patch_153">
    <path d="M 400.887695 382.84 
L 402.943205 382.84 
L 402.943205 382.84 
L 400.887695 382.84 
z
" clip-path="url(#pf4161c7f2c)" style="fill: #1f77b4"/>
   </g>
   <g id="patch_154">
    <path d="M 402.943205 382.84 
L 404.998716 382.84 
L 404.998716 251.120598 
L 402.943205 251.120598 
z
" clip-path="url(#pf4161c7f2c)" style="fill: #1f77b4"/>
   </g>
   <g id="patch_155">
    <path d="M 404.998716 382.84 
L 407.054226 382.84 
L 407.054226 382.84 
L 404.998716 382.84 
z
" clip-path="url(#pf4161c7f2c)" style="fill: #1f77b4"/>
   </g>
   <g id="patch_156">
    <path d="M 407.054226 382.84 
L 409.109736 382.84 
L 409.109736 265.997711 
L 407.054226 265.997711 
z
" clip-path="url(#pf4161c7f2c)" style="fill: #1f77b4"/>
   </g>
   <g id="patch_157">
    <path d="M 409.109736 382.84 
L 411.165246 382.84 
L 411.165246 382.84 
L 409.109736 382.84 
z
" clip-path="url(#pf4161c7f2c)" style="fill: #1f77b4"/>
   </g>
   <g id="patch_158">
    <path d="M 411.165246 382.84 
L 413.220756 382.84 
L 413.220756 279.321529 
L 411.165246 279.321529 
z
" clip-path="url(#pf4161c7f2c)" style="fill: #1f77b4"/>
   </g>
   <g id="patch_159">
    <path d="M 413.220756 382.84 
L 415.276266 382.84 
L 415.276266 382.84 
L 413.220756 382.84 
z
" clip-path="url(#pf4161c7f2c)" style="fill: #1f77b4"/>
   </g>
   <g id="patch_160">
    <path d="M 415.276266 382.84 
L 417.331776 382.84 
L 417.331776 382.84 
L 415.276266 382.84 
z
" clip-path="url(#pf4161c7f2c)" style="fill: #1f77b4"/>
   </g>
   <g id="patch_161">
    <path d="M 417.331776 382.84 
L 419.387286 382.84 
L 419.387286 301.274763 
L 417.331776 301.274763 
z
" clip-path="url(#pf4161c7f2c)" style="fill: #1f77b4"/>
   </g>
   <g id="patch_162">
    <path d="M 419.387286 382.84 
L 421.442796 382.84 
L 421.442796 382.84 
L 419.387286 382.84 
z
" clip-path="url(#pf4161c7f2c)" style="fill: #1f77b4"/>
   </g>
   <g id="patch_163">
    <path d="M 421.442796 382.84 
L 423.498306 382.84 
L 423.498306 310.629049 
L 421.442796 310.629049 
z
" clip-path="url(#pf4161c7f2c)" style="fill: #1f77b4"/>
   </g>
   <g id="patch_164">
    <path d="M 423.498306 382.84 
L 425.553816 382.84 
L 425.553816 382.84 
L 423.498306 382.84 
z
" clip-path="url(#pf4161c7f2c)" style="fill: #1f77b4"/>
   </g>
   <g id="patch_165">
    <path d="M 425.553816 382.84 
L 427.609326 382.84 
L 427.609326 325.126468 
L 425.553816 325.126468 
z
" clip-path="url(#pf4161c7f2c)" style="fill: #1f77b4"/>
   </g>
   <g id="patch_166">
    <path d="M 427.609326 382.84 
L 429.664837 382.84 
L 429.664837 382.84 
L 427.609326 382.84 
z
" clip-path="url(#pf4161c7f2c)" style="fill: #1f77b4"/>
   </g>
   <g id="patch_167">
    <path d="M 429.664837 382.84 
L 431.720347 382.84 
L 431.720347 334.480754 
L 429.664837 334.480754 
z
" clip-path="url(#pf4161c7f2c)" style="fill: #1f77b4"/>
   </g>
   <g id="patch_168">
    <path d="M 431.720347 382.84 
L 433.775857 382.84 
L 433.775857 382.84 
L 431.720347 382.84 
z
" clip-path="url(#pf4161c7f2c)" style="fill: #1f77b4"/>
   </g>
   <g id="patch_169">
    <path d="M 433.775857 382.84 
L 435.831367 382.84 
L 435.831367 382.84 
L 433.775857 382.84 
z
" clip-path="url(#pf4161c7f2c)" style="fill: #1f77b4"/>
   </g>
   <g id="patch_170">
    <path d="M 435.831367 382.84 
L 437.886877 382.84 
L 437.886877 340.486828 
L 435.831367 340.486828 
z
" clip-path="url(#pf4161c7f2c)" style="fill: #1f77b4"/>
   </g>
   <g id="patch_171">
    <path d="M 437.886877 382.84 
L 439.942387 382.84 
L 439.942387 382.84 
L 437.886877 382.84 
z
" clip-path="url(#pf4161c7f2c)" style="fill: #1f77b4"/>
   </g>
   <g id="patch_172">
    <path d="M 439.942387 382.84 
L 441.997897 382.84 
L 441.997897 351.325374 
L 439.942387 351.325374 
z
" clip-path="url(#pf4161c7f2c)" style="fill: #1f77b4"/>
   </g>
   <g id="patch_173">
    <path d="M 441.997897 382.84 
L 444.053407 382.84 
L 444.053407 382.84 
L 441.997897 382.84 
z
" clip-path="url(#pf4161c7f2c)" style="fill: #1f77b4"/>
   </g>
   <g id="patch_174">
    <path d="M 444.053407 382.84 
L 446.108917 382.84 
L 446.108917 356.710129 
L 444.053407 356.710129 
z
" clip-path="url(#pf4161c7f2c)" style="fill: #1f77b4"/>
   </g>
   <g id="patch_175">
    <path d="M 446.108917 382.84 
L 448.164427 382.84 
L 448.164427 382.84 
L 446.108917 382.84 
z
" clip-path="url(#pf4161c7f2c)" style="fill: #1f77b4"/>
   </g>
   <g id="patch_176">
    <path d="M 448.164427 382.84 
L 450.219937 382.84 
L 450.219937 382.84 
L 448.164427 382.84 
z
" clip-path="url(#pf4161c7f2c)" style="fill: #1f77b4"/>
   </g>
   <g id="patch_177">
    <path d="M 450.219937 382.84 
L 452.275447 382.84 
L 452.275447 362.16392 
L 450.219937 362.16392 
z
" clip-path="url(#pf4161c7f2c)" style="fill: #1f77b4"/>
   </g>
   <g id="patch_178">
    <path d="M 452.275447 382.84 
L 454.330958 382.84 
L 454.330958 382.84 
L 452.275447 382.84 
z
" clip-path="url(#pf4161c7f2c)" style="fill: #1f77b4"/>
   </g>
   <g id="patch_179">
    <path d="M 454.330958 382.84 
L 456.386468 382.84 
L 456.386468 366.409592 
L 454.330958 366.409592 
z
" clip-path="url(#pf4161c7f2c)" style="fill: #1f77b4"/>
   </g>
   <g id="patch_180">
    <path d="M 456.386468 382.84 
L 458.441978 382.84 
L 458.441978 382.84 
L 456.386468 382.84 
z
" clip-path="url(#pf4161c7f2c)" style="fill: #1f77b4"/>
   </g>
   <g id="patch_181">
    <path d="M 458.441978 382.84 
L 460.497488 382.84 
L 460.497488 371.103995 
L 458.441978 371.103995 
z
" clip-path="url(#pf4161c7f2c)" style="fill: #1f77b4"/>
   </g>
   <g id="patch_182">
    <path d="M 460.497488 382.84 
L 462.552998 382.84 
L 462.552998 382.84 
L 460.497488 382.84 
z
" clip-path="url(#pf4161c7f2c)" style="fill: #1f77b4"/>
   </g>
   <g id="patch_183">
    <path d="M 462.552998 382.84 
L 464.608508 382.84 
L 464.608508 373.83089 
L 462.552998 373.83089 
z
" clip-path="url(#pf4161c7f2c)" style="fill: #1f77b4"/>
   </g>
   <g id="patch_184">
    <path d="M 464.608508 382.84 
L 466.664018 382.84 
L 466.664018 382.84 
L 464.608508 382.84 
z
" clip-path="url(#pf4161c7f2c)" style="fill: #1f77b4"/>
   </g>
   <g id="patch_185">
    <path d="M 466.664018 382.84 
L 468.719528 382.84 
L 468.719528 382.84 
L 466.664018 382.84 
z
" clip-path="url(#pf4161c7f2c)" style="fill: #1f77b4"/>
   </g>
   <g id="patch_186">
    <path d="M 468.719528 382.84 
L 470.775038 382.84 
L 470.775038 375.729361 
L 468.719528 375.729361 
z
" clip-path="url(#pf4161c7f2c)" style="fill: #1f77b4"/>
   </g>
   <g id="patch_187">
    <path d="M 470.775038 382.84 
L 472.830548 382.84 
L 472.830548 382.84 
L 470.775038 382.84 
z
" clip-path="url(#pf4161c7f2c)" style="fill: #1f77b4"/>
   </g>
   <g id="patch_188">
    <path d="M 472.830548 382.84 
L 474.886058 382.84 
L 474.886058 377.248139 
L 472.830548 377.248139 
z
" clip-path="url(#pf4161c7f2c)" style="fill: #1f77b4"/>
   </g>
   <g id="patch_189">
    <path d="M 474.886058 382.84 
L 476.941569 382.84 
L 476.941569 382.84 
L 474.886058 382.84 
z
" clip-path="url(#pf4161c7f2c)" style="fill: #1f77b4"/>
   </g>
   <g id="patch_190">
    <path d="M 476.941569 382.84 
L 478.997079 382.84 
L 478.997079 378.628845 
L 476.941569 378.628845 
z
" clip-path="url(#pf4161c7f2c)" style="fill: #1f77b4"/>
   </g>
   <g id="patch_191">
    <path d="M 478.997079 382.84 
L 481.052589 382.84 
L 481.052589 382.84 
L 478.997079 382.84 
z
" clip-path="url(#pf4161c7f2c)" style="fill: #1f77b4"/>
   </g>
   <g id="patch_192">
    <path d="M 481.052589 382.84 
L 483.108099 382.84 
L 483.108099 382.84 
L 481.052589 382.84 
z
" clip-path="url(#pf4161c7f2c)" style="fill: #1f77b4"/>
   </g>
   <g id="patch_193">
    <path d="M 483.108099 382.84 
L 485.163609 382.84 
L 485.163609 379.905999 
L 483.108099 379.905999 
z
" clip-path="url(#pf4161c7f2c)" style="fill: #1f77b4"/>
   </g>
   <g id="patch_194">
    <path d="M 485.163609 382.84 
L 487.219119 382.84 
L 487.219119 382.84 
L 485.163609 382.84 
z
" clip-path="url(#pf4161c7f2c)" style="fill: #1f77b4"/>
   </g>
   <g id="patch_195">
    <path d="M 487.219119 382.84 
L 489.274629 382.84 
L 489.274629 380.941529 
L 487.219119 380.941529 
z
" clip-path="url(#pf4161c7f2c)" style="fill: #1f77b4"/>
   </g>
   <g id="patch_196">
    <path d="M 489.274629 382.84 
L 491.330139 382.84 
L 491.330139 382.84 
L 489.274629 382.84 
z
" clip-path="url(#pf4161c7f2c)" style="fill: #1f77b4"/>
   </g>
   <g id="patch_197">
    <path d="M 491.330139 382.84 
L 493.385649 382.84 
L 493.385649 381.597364 
L 491.330139 381.597364 
z
" clip-path="url(#pf4161c7f2c)" style="fill: #1f77b4"/>
   </g>
   <g id="patch_198">
    <path d="M 493.385649 382.84 
L 495.441159 382.84 
L 495.441159 382.84 
L 493.385649 382.84 
z
" clip-path="url(#pf4161c7f2c)" style="fill: #1f77b4"/>
   </g>
   <g id="patch_199">
    <path d="M 495.441159 382.84 
L 497.496669 382.84 
L 497.496669 381.942541 
L 495.441159 381.942541 
z
" clip-path="url(#pf4161c7f2c)" style="fill: #1f77b4"/>
   </g>
   <g id="patch_200">
    <path d="M 497.496669 382.84 
L 499.552179 382.84 
L 499.552179 382.84 
L 497.496669 382.84 
z
" clip-path="url(#pf4161c7f2c)" style="fill: #1f77b4"/>
   </g>
   <g id="patch_201">
    <path d="M 499.552179 382.84 
L 501.60769 382.84 
L 501.60769 382.84 
L 499.552179 382.84 
z
" clip-path="url(#pf4161c7f2c)" style="fill: #1f77b4"/>
   </g>
   <g id="patch_202">
    <path d="M 501.60769 382.84 
L 503.6632 382.84 
L 503.6632 382.356753 
L 501.60769 382.356753 
z
" clip-path="url(#pf4161c7f2c)" style="fill: #1f77b4"/>
   </g>
   <g id="patch_203">
    <path d="M 503.6632 382.84 
L 505.71871 382.84 
L 505.71871 382.84 
L 503.6632 382.84 
z
" clip-path="url(#pf4161c7f2c)" style="fill: #1f77b4"/>
   </g>
   <g id="patch_204">
    <path d="M 505.71871 382.84 
L 507.77422 382.84 
L 507.77422 382.322235 
L 505.71871 382.322235 
z
" clip-path="url(#pf4161c7f2c)" style="fill: #1f77b4"/>
   </g>
   <g id="patch_205">
    <path d="M 507.77422 382.84 
L 509.82973 382.84 
L 509.82973 382.84 
L 507.77422 382.84 
z
" clip-path="url(#pf4161c7f2c)" style="fill: #1f77b4"/>
   </g>
   <g id="patch_206">
    <path d="M 509.82973 382.84 
L 511.88524 382.84 
L 511.88524 382.563859 
L 509.82973 382.563859 
z
" clip-path="url(#pf4161c7f2c)" style="fill: #1f77b4"/>
   </g>
   <g id="patch_207">
    <path d="M 511.88524 382.84 
L 513.94075 382.84 
L 513.94075 382.84 
L 511.88524 382.84 
z
" clip-path="url(#pf4161c7f2c)" style="fill: #1f77b4"/>
   </g>
   <g id="patch_208">
    <path d="M 513.94075 382.84 
L 515.99626 382.84 
L 515.99626 382.84 
L 513.94075 382.84 
z
" clip-path="url(#pf4161c7f2c)" style="fill: #1f77b4"/>
   </g>
   <g id="patch_209">
    <path d="M 515.99626 382.84 
L 518.05177 382.84 
L 518.05177 382.632894 
L 515.99626 382.632894 
z
" clip-path="url(#pf4161c7f2c)" style="fill: #1f77b4"/>
   </g>
   <g id="patch_210">
    <path d="M 518.05177 382.84 
L 520.10728 382.84 
L 520.10728 382.84 
L 518.05177 382.84 
z
" clip-path="url(#pf4161c7f2c)" style="fill: #1f77b4"/>
   </g>
   <g id="patch_211">
    <path d="M 520.10728 382.84 
L 522.16279 382.84 
L 522.16279 382.770965 
L 520.10728 382.770965 
z
" clip-path="url(#pf4161c7f2c)" style="fill: #1f77b4"/>
   </g>
   <g id="patch_212">
    <path d="M 522.16279 382.84 
L 524.218301 382.84 
L 524.218301 382.84 
L 522.16279 382.84 
z
" clip-path="url(#pf4161c7f2c)" style="fill: #1f77b4"/>
   </g>
   <g id="patch_213">
    <path d="M 524.218301 382.84 
L 526.273811 382.84 
L 526.273811 382.736447 
L 524.218301 382.736447 
z
" clip-path="url(#pf4161c7f2c)" style="fill: #1f77b4"/>
   </g>
   <g id="patch_214">
    <path d="M 526.273811 382.84 
L 528.329321 382.84 
L 528.329321 382.84 
L 526.273811 382.84 
z
" clip-path="url(#pf4161c7f2c)" style="fill: #1f77b4"/>
   </g>
   <g id="patch_215">
    <path d="M 528.329321 382.84 
L 530.384831 382.84 
L 530.384831 382.770965 
L 528.329321 382.770965 
z
" clip-path="url(#pf4161c7f2c)" style="fill: #1f77b4"/>
   </g>
   <g id="matplotlib.axis_1">
    <g id="xtick_1">
     <g id="line2d_1">
      <defs>
       <path id="m1ee8050a04" d="M 0 0 
L 0 3.5 
" style="stroke: #000000; stroke-width: 0.8"/>
      </defs>
      <g>
       <use xlink:href="#m1ee8050a04" x="158.470119" y="382.84" style="stroke: #000000; stroke-width: 0.8"/>
      </g>
     </g>
     <g id="text_1">
      <!-- −12 -->
      <g transform="translate(147.917775 397.438438) scale(0.1 -0.1)">
       <defs>
        <path id="DejaVuSans-2212" d="M 678 2272 
L 4684 2272 
L 4684 1741 
L 678 1741 
L 678 2272 
z
" transform="scale(0.015625)"/>
        <path id="DejaVuSans-31" d="M 794 531 
L 1825 531 
L 1825 4091 
L 703 3866 
L 703 4441 
L 1819 4666 
L 2450 4666 
L 2450 531 
L 3481 531 
L 3481 0 
L 794 0 
L 794 531 
z
" transform="scale(0.015625)"/>
        <path id="DejaVuSans-32" d="M 1228 531 
L 3431 531 
L 3431 0 
L 469 0 
L 469 531 
Q 828 903 1448 1529 
Q 2069 2156 2228 2338 
Q 2531 2678 2651 2914 
Q 2772 3150 2772 3378 
Q 2772 3750 2511 3984 
Q 2250 4219 1831 4219 
Q 1534 4219 1204 4116 
Q 875 4013 500 3803 
L 500 4441 
Q 881 4594 1212 4672 
Q 1544 4750 1819 4750 
Q 2544 4750 2975 4387 
Q 3406 4025 3406 3419 
Q 3406 3131 3298 2873 
Q 3191 2616 2906 2266 
Q 2828 2175 2409 1742 
Q 1991 1309 1228 531 
z
" transform="scale(0.015625)"/>
       </defs>
       <use xlink:href="#DejaVuSans-2212"/>
       <use xlink:href="#DejaVuSans-31" x="83.789062"/>
       <use xlink:href="#DejaVuSans-32" x="147.412109"/>
      </g>
     </g>
    </g>
    <g id="xtick_2">
     <g id="line2d_2">
      <g>
       <use xlink:href="#m1ee8050a04" x="252.625742" y="382.84" style="stroke: #000000; stroke-width: 0.8"/>
      </g>
     </g>
     <g id="text_2">
      <!-- −10 -->
      <g transform="translate(242.073398 397.438438) scale(0.1 -0.1)">
       <defs>
        <path id="DejaVuSans-30" d="M 2034 4250 
Q 1547 4250 1301 3770 
Q 1056 3291 1056 2328 
Q 1056 1369 1301 889 
Q 1547 409 2034 409 
Q 2525 409 2770 889 
Q 3016 1369 3016 2328 
Q 3016 3291 2770 3770 
Q 2525 4250 2034 4250 
z
M 2034 4750 
Q 2819 4750 3233 4129 
Q 3647 3509 3647 2328 
Q 3647 1150 3233 529 
Q 2819 -91 2034 -91 
Q 1250 -91 836 529 
Q 422 1150 422 2328 
Q 422 3509 836 4129 
Q 1250 4750 2034 4750 
z
" transform="scale(0.015625)"/>
       </defs>
       <use xlink:href="#DejaVuSans-2212"/>
       <use xlink:href="#DejaVuSans-31" x="83.789062"/>
       <use xlink:href="#DejaVuSans-30" x="147.412109"/>
      </g>
     </g>
    </g>
    <g id="xtick_3">
     <g id="line2d_3">
      <g>
       <use xlink:href="#m1ee8050a04" x="346.781365" y="382.84" style="stroke: #000000; stroke-width: 0.8"/>
      </g>
     </g>
     <g id="text_3">
      <!-- −8 -->
      <g transform="translate(339.410272 397.438438) scale(0.1 -0.1)">
       <defs>
        <path id="DejaVuSans-38" d="M 2034 2216 
Q 1584 2216 1326 1975 
Q 1069 1734 1069 1313 
Q 1069 891 1326 650 
Q 1584 409 2034 409 
Q 2484 409 2743 651 
Q 3003 894 3003 1313 
Q 3003 1734 2745 1975 
Q 2488 2216 2034 2216 
z
M 1403 2484 
Q 997 2584 770 2862 
Q 544 3141 544 3541 
Q 544 4100 942 4425 
Q 1341 4750 2034 4750 
Q 2731 4750 3128 4425 
Q 3525 4100 3525 3541 
Q 3525 3141 3298 2862 
Q 3072 2584 2669 2484 
Q 3125 2378 3379 2068 
Q 3634 1759 3634 1313 
Q 3634 634 3220 271 
Q 2806 -91 2034 -91 
Q 1263 -91 848 271 
Q 434 634 434 1313 
Q 434 1759 690 2068 
Q 947 2378 1403 2484 
z
M 1172 3481 
Q 1172 3119 1398 2916 
Q 1625 2713 2034 2713 
Q 2441 2713 2670 2916 
Q 2900 3119 2900 3481 
Q 2900 3844 2670 4047 
Q 2441 4250 2034 4250 
Q 1625 4250 1398 4047 
Q 1172 3844 1172 3481 
z
" transform="scale(0.015625)"/>
       </defs>
       <use xlink:href="#DejaVuSans-2212"/>
       <use xlink:href="#DejaVuSans-38" x="83.789062"/>
      </g>
     </g>
    </g>
    <g id="xtick_4">
     <g id="line2d_4">
      <g>
       <use xlink:href="#m1ee8050a04" x="440.936989" y="382.84" style="stroke: #000000; stroke-width: 0.8"/>
      </g>
     </g>
     <g id="text_4">
      <!-- −6 -->
      <g transform="translate(433.565895 397.438438) scale(0.1 -0.1)">
       <defs>
        <path id="DejaVuSans-36" d="M 2113 2584 
Q 1688 2584 1439 2293 
Q 1191 2003 1191 1497 
Q 1191 994 1439 701 
Q 1688 409 2113 409 
Q 2538 409 2786 701 
Q 3034 994 3034 1497 
Q 3034 2003 2786 2293 
Q 2538 2584 2113 2584 
z
M 3366 4563 
L 3366 3988 
Q 3128 4100 2886 4159 
Q 2644 4219 2406 4219 
Q 1781 4219 1451 3797 
Q 1122 3375 1075 2522 
Q 1259 2794 1537 2939 
Q 1816 3084 2150 3084 
Q 2853 3084 3261 2657 
Q 3669 2231 3669 1497 
Q 3669 778 3244 343 
Q 2819 -91 2113 -91 
Q 1303 -91 875 529 
Q 447 1150 447 2328 
Q 447 3434 972 4092 
Q 1497 4750 2381 4750 
Q 2619 4750 2861 4703 
Q 3103 4656 3366 4563 
z
" transform="scale(0.015625)"/>
       </defs>
       <use xlink:href="#DejaVuSans-2212"/>
       <use xlink:href="#DejaVuSans-36" x="83.789062"/>
      </g>
     </g>
    </g>
    <g id="xtick_5">
     <g id="line2d_5">
      <g>
       <use xlink:href="#m1ee8050a04" x="535.092612" y="382.84" style="stroke: #000000; stroke-width: 0.8"/>
      </g>
     </g>
     <g id="text_5">
      <!-- −4 -->
      <g transform="translate(527.721518 397.438438) scale(0.1 -0.1)">
       <defs>
        <path id="DejaVuSans-34" d="M 2419 4116 
L 825 1625 
L 2419 1625 
L 2419 4116 
z
M 2253 4666 
L 3047 4666 
L 3047 1625 
L 3713 1625 
L 3713 1100 
L 3047 1100 
L 3047 0 
L 2419 0 
L 2419 1100 
L 313 1100 
L 313 1709 
L 2253 4666 
z
" transform="scale(0.015625)"/>
       </defs>
       <use xlink:href="#DejaVuSans-2212"/>
       <use xlink:href="#DejaVuSans-34" x="83.789062"/>
      </g>
     </g>
    </g>
    <g id="text_6">
     <!-- PPARG -->
     <g transform="translate(281.809569 417.195312) scale(0.18 -0.18)">
      <defs>
       <path id="DejaVuSans-50" d="M 1259 4147 
L 1259 2394 
L 2053 2394 
Q 2494 2394 2734 2622 
Q 2975 2850 2975 3272 
Q 2975 3691 2734 3919 
Q 2494 4147 2053 4147 
L 1259 4147 
z
M 628 4666 
L 2053 4666 
Q 2838 4666 3239 4311 
Q 3641 3956 3641 3272 
Q 3641 2581 3239 2228 
Q 2838 1875 2053 1875 
L 1259 1875 
L 1259 0 
L 628 0 
L 628 4666 
z
" transform="scale(0.015625)"/>
       <path id="DejaVuSans-41" d="M 2188 4044 
L 1331 1722 
L 3047 1722 
L 2188 4044 
z
M 1831 4666 
L 2547 4666 
L 4325 0 
L 3669 0 
L 3244 1197 
L 1141 1197 
L 716 0 
L 50 0 
L 1831 4666 
z
" transform="scale(0.015625)"/>
       <path id="DejaVuSans-52" d="M 2841 2188 
Q 3044 2119 3236 1894 
Q 3428 1669 3622 1275 
L 4263 0 
L 3584 0 
L 2988 1197 
Q 2756 1666 2539 1819 
Q 2322 1972 1947 1972 
L 1259 1972 
L 1259 0 
L 628 0 
L 628 4666 
L 2053 4666 
Q 2853 4666 3247 4331 
Q 3641 3997 3641 3322 
Q 3641 2881 3436 2590 
Q 3231 2300 2841 2188 
z
M 1259 4147 
L 1259 2491 
L 2053 2491 
Q 2509 2491 2742 2702 
Q 2975 2913 2975 3322 
Q 2975 3731 2742 3939 
Q 2509 4147 2053 4147 
L 1259 4147 
z
" transform="scale(0.015625)"/>
       <path id="DejaVuSans-47" d="M 3809 666 
L 3809 1919 
L 2778 1919 
L 2778 2438 
L 4434 2438 
L 4434 434 
Q 4069 175 3628 42 
Q 3188 -91 2688 -91 
Q 1594 -91 976 548 
Q 359 1188 359 2328 
Q 359 3472 976 4111 
Q 1594 4750 2688 4750 
Q 3144 4750 3555 4637 
Q 3966 4525 4313 4306 
L 4313 3634 
Q 3963 3931 3569 4081 
Q 3175 4231 2741 4231 
Q 1884 4231 1454 3753 
Q 1025 3275 1025 2328 
Q 1025 1384 1454 906 
Q 1884 428 2741 428 
Q 3075 428 3337 486 
Q 3600 544 3809 666 
z
" transform="scale(0.015625)"/>
      </defs>
      <use xlink:href="#DejaVuSans-50"/>
      <use xlink:href="#DejaVuSans-50" x="60.302734"/>
      <use xlink:href="#DejaVuSans-41" x="114.230469"/>
      <use xlink:href="#DejaVuSans-52" x="182.638672"/>
      <use xlink:href="#DejaVuSans-47" x="252.121094"/>
     </g>
    </g>
   </g>
   <g id="matplotlib.axis_2">
    <g id="ytick_1">
     <g id="line2d_6">
      <defs>
       <path id="m847958c302" d="M 0 0 
L -3.5 0 
" style="stroke: #000000; stroke-width: 0.8"/>
      </defs>
      <g>
       <use xlink:href="#m847958c302" x="70.67" y="382.84" style="stroke: #000000; stroke-width: 0.8"/>
      </g>
     </g>
     <g id="text_7">
      <!-- 0 -->
      <g transform="translate(57.3075 386.639219) scale(0.1 -0.1)">
       <use xlink:href="#DejaVuSans-30"/>
      </g>
     </g>
    </g>
    <g id="ytick_2">
     <g id="line2d_7">
      <g>
       <use xlink:href="#m847958c302" x="70.67" y="313.804674" style="stroke: #000000; stroke-width: 0.8"/>
      </g>
     </g>
     <g id="text_8">
      <!-- 2000 -->
      <g transform="translate(38.22 317.603893) scale(0.1 -0.1)">
       <use xlink:href="#DejaVuSans-32"/>
       <use xlink:href="#DejaVuSans-30" x="63.623047"/>
       <use xlink:href="#DejaVuSans-30" x="127.246094"/>
       <use xlink:href="#DejaVuSans-30" x="190.869141"/>
      </g>
     </g>
    </g>
    <g id="ytick_3">
     <g id="line2d_8">
      <g>
       <use xlink:href="#m847958c302" x="70.67" y="244.769348" style="stroke: #000000; stroke-width: 0.8"/>
      </g>
     </g>
     <g id="text_9">
      <!-- 4000 -->
      <g transform="translate(38.22 248.568567) scale(0.1 -0.1)">
       <use xlink:href="#DejaVuSans-34"/>
       <use xlink:href="#DejaVuSans-30" x="63.623047"/>
       <use xlink:href="#DejaVuSans-30" x="127.246094"/>
       <use xlink:href="#DejaVuSans-30" x="190.869141"/>
      </g>
     </g>
    </g>
    <g id="ytick_4">
     <g id="line2d_9">
      <g>
       <use xlink:href="#m847958c302" x="70.67" y="175.734023" style="stroke: #000000; stroke-width: 0.8"/>
      </g>
     </g>
     <g id="text_10">
      <!-- 6000 -->
      <g transform="translate(38.22 179.533241) scale(0.1 -0.1)">
       <use xlink:href="#DejaVuSans-36"/>
       <use xlink:href="#DejaVuSans-30" x="63.623047"/>
       <use xlink:href="#DejaVuSans-30" x="127.246094"/>
       <use xlink:href="#DejaVuSans-30" x="190.869141"/>
      </g>
     </g>
    </g>
    <g id="ytick_5">
     <g id="line2d_10">
      <g>
       <use xlink:href="#m847958c302" x="70.67" y="106.698697" style="stroke: #000000; stroke-width: 0.8"/>
      </g>
     </g>
     <g id="text_11">
      <!-- 8000 -->
      <g transform="translate(38.22 110.497916) scale(0.1 -0.1)">
       <use xlink:href="#DejaVuSans-38"/>
       <use xlink:href="#DejaVuSans-30" x="63.623047"/>
       <use xlink:href="#DejaVuSans-30" x="127.246094"/>
       <use xlink:href="#DejaVuSans-30" x="190.869141"/>
      </g>
     </g>
    </g>
    <g id="ytick_6">
     <g id="line2d_11">
      <g>
       <use xlink:href="#m847958c302" x="70.67" y="37.663371" style="stroke: #000000; stroke-width: 0.8"/>
      </g>
     </g>
     <g id="text_12">
      <!-- 10000 -->
      <g transform="translate(31.8575 41.46259) scale(0.1 -0.1)">
       <use xlink:href="#DejaVuSans-31"/>
       <use xlink:href="#DejaVuSans-30" x="63.623047"/>
       <use xlink:href="#DejaVuSans-30" x="127.246094"/>
       <use xlink:href="#DejaVuSans-30" x="190.869141"/>
       <use xlink:href="#DejaVuSans-30" x="254.492188"/>
      </g>
     </g>
    </g>
    <g id="text_13">
     <!-- Count -->
     <g transform="translate(24.114063 223.547188) rotate(-90) scale(0.18 -0.18)">
      <defs>
       <path id="DejaVuSans-43" d="M 4122 4306 
L 4122 3641 
Q 3803 3938 3442 4084 
Q 3081 4231 2675 4231 
Q 1875 4231 1450 3742 
Q 1025 3253 1025 2328 
Q 1025 1406 1450 917 
Q 1875 428 2675 428 
Q 3081 428 3442 575 
Q 3803 722 4122 1019 
L 4122 359 
Q 3791 134 3420 21 
Q 3050 -91 2638 -91 
Q 1578 -91 968 557 
Q 359 1206 359 2328 
Q 359 3453 968 4101 
Q 1578 4750 2638 4750 
Q 3056 4750 3426 4639 
Q 3797 4528 4122 4306 
z
" transform="scale(0.015625)"/>
       <path id="DejaVuSans-6f" d="M 1959 3097 
Q 1497 3097 1228 2736 
Q 959 2375 959 1747 
Q 959 1119 1226 758 
Q 1494 397 1959 397 
Q 2419 397 2687 759 
Q 2956 1122 2956 1747 
Q 2956 2369 2687 2733 
Q 2419 3097 1959 3097 
z
M 1959 3584 
Q 2709 3584 3137 3096 
Q 3566 2609 3566 1747 
Q 3566 888 3137 398 
Q 2709 -91 1959 -91 
Q 1206 -91 779 398 
Q 353 888 353 1747 
Q 353 2609 779 3096 
Q 1206 3584 1959 3584 
z
" transform="scale(0.015625)"/>
       <path id="DejaVuSans-75" d="M 544 1381 
L 544 3500 
L 1119 3500 
L 1119 1403 
Q 1119 906 1312 657 
Q 1506 409 1894 409 
Q 2359 409 2629 706 
Q 2900 1003 2900 1516 
L 2900 3500 
L 3475 3500 
L 3475 0 
L 2900 0 
L 2900 538 
Q 2691 219 2414 64 
Q 2138 -91 1772 -91 
Q 1169 -91 856 284 
Q 544 659 544 1381 
z
M 1991 3584 
L 1991 3584 
z
" transform="scale(0.015625)"/>
       <path id="DejaVuSans-6e" d="M 3513 2113 
L 3513 0 
L 2938 0 
L 2938 2094 
Q 2938 2591 2744 2837 
Q 2550 3084 2163 3084 
Q 1697 3084 1428 2787 
Q 1159 2491 1159 1978 
L 1159 0 
L 581 0 
L 581 3500 
L 1159 3500 
L 1159 2956 
Q 1366 3272 1645 3428 
Q 1925 3584 2291 3584 
Q 2894 3584 3203 3211 
Q 3513 2838 3513 2113 
z
" transform="scale(0.015625)"/>
       <path id="DejaVuSans-74" d="M 1172 4494 
L 1172 3500 
L 2356 3500 
L 2356 3053 
L 1172 3053 
L 1172 1153 
Q 1172 725 1289 603 
Q 1406 481 1766 481 
L 2356 481 
L 2356 0 
L 1766 0 
Q 1100 0 847 248 
Q 594 497 594 1153 
L 594 3053 
L 172 3053 
L 172 3500 
L 594 3500 
L 594 4494 
L 1172 4494 
z
" transform="scale(0.015625)"/>
      </defs>
      <use xlink:href="#DejaVuSans-43"/>
      <use xlink:href="#DejaVuSans-6f" x="69.824219"/>
      <use xlink:href="#DejaVuSans-75" x="131.005859"/>
      <use xlink:href="#DejaVuSans-6e" x="194.384766"/>
      <use xlink:href="#DejaVuSans-74" x="257.763672"/>
     </g>
    </g>
   </g>
   <g id="line2d_12">
    <path d="M 285.58021 382.84 
L 285.58021 28.51619 
" clip-path="url(#pf4161c7f2c)" style="fill: none; stroke: #ff0000; stroke-width: 1.6; stroke-linecap: square"/>
   </g>
   <g id="patch_216">
    <path d="M 70.67 382.84 
L 70.67 10.8 
" style="fill: none; stroke: #000000; stroke-width: 0.8; stroke-linejoin: miter; stroke-linecap: square"/>
   </g>
   <g id="patch_217">
    <path d="M 552.276013 382.84 
L 552.276013 10.8 
" style="fill: none; stroke: #000000; stroke-width: 0.8; stroke-linejoin: miter; stroke-linecap: square"/>
   </g>
   <g id="patch_218">
    <path d="M 70.67 382.84 
L 552.276013 382.84 
" style="fill: none; stroke: #000000; stroke-width: 0.8; stroke-linejoin: miter; stroke-linecap: square"/>
   </g>
   <g id="patch_219">
    <path d="M 70.67 10.8 
L 552.276013 10.8 
" style="fill: none; stroke: #000000; stroke-width: 0.8; stroke-linejoin: miter; stroke-linecap: square"/>
   </g>
   <g id="text_14">
    <!-- $\mu_21 = -8.227$ -->
    <g transform="translate(407.794209 61.649937) scale(0.21 -0.21)">
     <defs>
      <path id="DejaVuSans-Oblique-3bc" d="M -84 -1331 
L 856 3500 
L 1434 3500 
L 1009 1322 
Q 997 1256 987 1175 
Q 978 1094 978 1013 
Q 978 722 1161 565 
Q 1344 409 1684 409 
Q 2147 409 2431 671 
Q 2716 934 2816 1459 
L 3213 3500 
L 3788 3500 
L 3266 809 
Q 3253 750 3248 706 
Q 3244 663 3244 628 
Q 3244 531 3283 486 
Q 3322 441 3406 441 
Q 3438 441 3492 456 
Q 3547 472 3647 513 
L 3559 50 
Q 3422 -19 3297 -55 
Q 3172 -91 3053 -91 
Q 2847 -91 2730 40 
Q 2613 172 2613 403 
Q 2438 153 2195 31 
Q 1953 -91 1625 -91 
Q 1334 -91 1117 43 
Q 900 178 831 397 
L 494 -1331 
L -84 -1331 
z
" transform="scale(0.015625)"/>
      <path id="DejaVuSans-3d" d="M 678 2906 
L 4684 2906 
L 4684 2381 
L 678 2381 
L 678 2906 
z
M 678 1631 
L 4684 1631 
L 4684 1100 
L 678 1100 
L 678 1631 
z
" transform="scale(0.015625)"/>
      <path id="DejaVuSans-2e" d="M 684 794 
L 1344 794 
L 1344 0 
L 684 0 
L 684 794 
z
" transform="scale(0.015625)"/>
      <path id="DejaVuSans-37" d="M 525 4666 
L 3525 4666 
L 3525 4397 
L 1831 0 
L 1172 0 
L 2766 4134 
L 525 4134 
L 525 4666 
z
" transform="scale(0.015625)"/>
     </defs>
     <use xlink:href="#DejaVuSans-Oblique-3bc" transform="translate(0 0.78125)"/>
     <use xlink:href="#DejaVuSans-32" transform="translate(63.623047 -15.625) scale(0.7)"/>
     <use xlink:href="#DejaVuSans-31" transform="translate(110.893555 0.78125)"/>
     <use xlink:href="#DejaVuSans-3d" transform="translate(193.999023 0.78125)"/>
     <use xlink:href="#DejaVuSans-2212" transform="translate(316.75293 0.78125)"/>
     <use xlink:href="#DejaVuSans-38" transform="translate(420.024414 0.78125)"/>
     <use xlink:href="#DejaVuSans-2e" transform="translate(483.647461 0.78125)"/>
     <use xlink:href="#DejaVuSans-32" transform="translate(509.93457 0.78125)"/>
     <use xlink:href="#DejaVuSans-32" transform="translate(573.557617 0.78125)"/>
     <use xlink:href="#DejaVuSans-37" transform="translate(637.180664 0.78125)"/>
    </g>
    <!-- $\sigma_21 = 1.02$ -->
    <g transform="translate(407.794209 85.208) scale(0.21 -0.21)">
     <defs>
      <path id="DejaVuSans-Oblique-3c3" d="M 2219 3044 
Q 1744 3044 1422 2700 
Q 1081 2341 969 1747 
Q 844 1119 1044 756 
Q 1241 397 1706 397 
Q 2166 397 2503 759 
Q 2844 1122 2966 1747 
Q 3075 2319 2881 2700 
Q 2700 3044 2219 3044 
z
M 2309 3503 
L 4219 3500 
L 4106 2925 
L 3463 2925 
Q 3706 2438 3575 1747 
Q 3406 888 2884 400 
Q 2359 -91 1609 -91 
Q 856 -91 525 400 
Q 194 888 363 1747 
Q 528 2609 1050 3097 
Q 1484 3503 2309 3503 
z
" transform="scale(0.015625)"/>
     </defs>
     <use xlink:href="#DejaVuSans-Oblique-3c3" transform="translate(0 0.78125)"/>
     <use xlink:href="#DejaVuSans-32" transform="translate(63.378906 -15.625) scale(0.7)"/>
     <use xlink:href="#DejaVuSans-31" transform="translate(110.649414 0.78125)"/>
     <use xlink:href="#DejaVuSans-3d" transform="translate(193.754883 0.78125)"/>
     <use xlink:href="#DejaVuSans-31" transform="translate(297.026367 0.78125)"/>
     <use xlink:href="#DejaVuSans-2e" transform="translate(360.649414 0.78125)"/>
     <use xlink:href="#DejaVuSans-30" transform="translate(392.436523 0.78125)"/>
     <use xlink:href="#DejaVuSans-32" transform="translate(456.05957 0.78125)"/>
    </g>
   </g>
  </g>
 </g>
 <defs>
  <clipPath id="pf4161c7f2c">
   <rect x="70.67" y="10.8" width="481.606013" height="372.04"/>
  </clipPath>
 </defs>
</svg>
