<?xml version="1.0" encoding="utf-8" standalone="no"?>
<!DOCTYPE svg PUBLIC "-//W3C//DTD SVG 1.1//EN"
  "http://www.w3.org/Graphics/SVG/1.1/DTD/svg11.dtd">
<svg xmlns:xlink="http://www.w3.org/1999/xlink" width="576pt" height="432pt" viewBox="0 0 576 432" xmlns="http://www.w3.org/2000/svg" version="1.1">
 <metadata>
  <rdf:RDF xmlns:dc="http://purl.org/dc/elements/1.1/" xmlns:cc="http://creativecommons.org/ns#" xmlns:rdf="http://www.w3.org/1999/02/22-rdf-syntax-ns#">
   <cc:Work>
    <dc:type rdf:resource="http://purl.org/dc/dcmitype/StillImage"/>
    <dc:date>2024-09-05T19:41:26.720887</dc:date>
    <dc:format>image/svg+xml</dc:format>
    <dc:creator>
     <cc:Agent>
      <dc:title>Matplotlib v3.7.2, https://matplotlib.org/</dc:title>
     </cc:Agent>
    </dc:creator>
   </cc:Work>
  </rdf:RDF>
 </metadata>
 <defs>
  <style type="text/css">*{stroke-linejoin: round; stroke-linecap: butt}</style>
 </defs>
 <g id="figure_1">
  <g id="patch_1">
   <path d="M 0 432 
L 576 432 
L 576 0 
L 0 0 
z
" style="fill: #ffffff"/>
  </g>
  <g id="axes_1">
   <g id="patch_2">
    <path d="M 64.37 382.84 
L 553.086013 382.84 
L 553.086013 10.8 
L 64.37 10.8 
z
" style="fill: #ffffff"/>
   </g>
   <g id="patch_3">
    <path d="M 86.584364 382.84 
L 88.474948 382.84 
L 88.474948 382.801884 
L 86.584364 382.801884 
z
" clip-path="url(#p1846b852a2)" style="fill: #1f77b4"/>
   </g>
   <g id="patch_4">
    <path d="M 88.474948 382.84 
L 90.365533 382.84 
L 90.365533 382.84 
L 88.474948 382.84 
z
" clip-path="url(#p1846b852a2)" style="fill: #1f77b4"/>
   </g>
   <g id="patch_5">
    <path d="M 90.365533 382.84 
L 92.256117 382.84 
L 92.256117 382.84 
L 90.365533 382.84 
z
" clip-path="url(#p1846b852a2)" style="fill: #1f77b4"/>
   </g>
   <g id="patch_6">
    <path d="M 92.256117 382.84 
L 94.146701 382.84 
L 94.146701 382.84 
L 92.256117 382.84 
z
" clip-path="url(#p1846b852a2)" style="fill: #1f77b4"/>
   </g>
   <g id="patch_7">
    <path d="M 94.146701 382.84 
L 96.037285 382.84 
L 96.037285 382.84 
L 94.146701 382.84 
z
" clip-path="url(#p1846b852a2)" style="fill: #1f77b4"/>
   </g>
   <g id="patch_8">
    <path d="M 96.037285 382.84 
L 97.927869 382.84 
L 97.927869 382.84 
L 96.037285 382.84 
z
" clip-path="url(#p1846b852a2)" style="fill: #1f77b4"/>
   </g>
   <g id="patch_9">
    <path d="M 97.927869 382.84 
L 99.818454 382.84 
L 99.818454 382.84 
L 97.927869 382.84 
z
" clip-path="url(#p1846b852a2)" style="fill: #1f77b4"/>
   </g>
   <g id="patch_10">
    <path d="M 99.818454 382.84 
L 101.709038 382.84 
L 101.709038 382.84 
L 99.818454 382.84 
z
" clip-path="url(#p1846b852a2)" style="fill: #1f77b4"/>
   </g>
   <g id="patch_11">
    <path d="M 101.709038 382.84 
L 103.599622 382.84 
L 103.599622 382.84 
L 101.709038 382.84 
z
" clip-path="url(#p1846b852a2)" style="fill: #1f77b4"/>
   </g>
   <g id="patch_12">
    <path d="M 103.599622 382.84 
L 105.490206 382.84 
L 105.490206 382.84 
L 103.599622 382.84 
z
" clip-path="url(#p1846b852a2)" style="fill: #1f77b4"/>
   </g>
   <g id="patch_13">
    <path d="M 105.490206 382.84 
L 107.38079 382.84 
L 107.38079 382.84 
L 105.490206 382.84 
z
" clip-path="url(#p1846b852a2)" style="fill: #1f77b4"/>
   </g>
   <g id="patch_14">
    <path d="M 107.38079 382.84 
L 109.271375 382.84 
L 109.271375 382.84 
L 107.38079 382.84 
z
" clip-path="url(#p1846b852a2)" style="fill: #1f77b4"/>
   </g>
   <g id="patch_15">
    <path d="M 109.271375 382.84 
L 111.161959 382.84 
L 111.161959 382.84 
L 109.271375 382.84 
z
" clip-path="url(#p1846b852a2)" style="fill: #1f77b4"/>
   </g>
   <g id="patch_16">
    <path d="M 111.161959 382.84 
L 113.052543 382.84 
L 113.052543 382.84 
L 111.161959 382.84 
z
" clip-path="url(#p1846b852a2)" style="fill: #1f77b4"/>
   </g>
   <g id="patch_17">
    <path d="M 113.052543 382.84 
L 114.943127 382.84 
L 114.943127 382.84 
L 113.052543 382.84 
z
" clip-path="url(#p1846b852a2)" style="fill: #1f77b4"/>
   </g>
   <g id="patch_18">
    <path d="M 114.943127 382.84 
L 116.833711 382.84 
L 116.833711 382.84 
L 114.943127 382.84 
z
" clip-path="url(#p1846b852a2)" style="fill: #1f77b4"/>
   </g>
   <g id="patch_19">
    <path d="M 116.833711 382.84 
L 118.724295 382.84 
L 118.724295 382.84 
L 116.833711 382.84 
z
" clip-path="url(#p1846b852a2)" style="fill: #1f77b4"/>
   </g>
   <g id="patch_20">
    <path d="M 118.724295 382.84 
L 120.61488 382.84 
L 120.61488 382.763769 
L 118.724295 382.763769 
z
" clip-path="url(#p1846b852a2)" style="fill: #1f77b4"/>
   </g>
   <g id="patch_21">
    <path d="M 120.61488 382.84 
L 122.505464 382.84 
L 122.505464 382.84 
L 120.61488 382.84 
z
" clip-path="url(#p1846b852a2)" style="fill: #1f77b4"/>
   </g>
   <g id="patch_22">
    <path d="M 122.505464 382.84 
L 124.396048 382.84 
L 124.396048 382.84 
L 122.505464 382.84 
z
" clip-path="url(#p1846b852a2)" style="fill: #1f77b4"/>
   </g>
   <g id="patch_23">
    <path d="M 124.396048 382.84 
L 126.286632 382.84 
L 126.286632 382.84 
L 124.396048 382.84 
z
" clip-path="url(#p1846b852a2)" style="fill: #1f77b4"/>
   </g>
   <g id="patch_24">
    <path d="M 126.286632 382.84 
L 128.177216 382.84 
L 128.177216 382.801884 
L 126.286632 382.801884 
z
" clip-path="url(#p1846b852a2)" style="fill: #1f77b4"/>
   </g>
   <g id="patch_25">
    <path d="M 128.177216 382.84 
L 130.067801 382.84 
L 130.067801 382.84 
L 128.177216 382.84 
z
" clip-path="url(#p1846b852a2)" style="fill: #1f77b4"/>
   </g>
   <g id="patch_26">
    <path d="M 130.067801 382.84 
L 131.958385 382.84 
L 131.958385 382.725653 
L 130.067801 382.725653 
z
" clip-path="url(#p1846b852a2)" style="fill: #1f77b4"/>
   </g>
   <g id="patch_27">
    <path d="M 131.958385 382.84 
L 133.848969 382.84 
L 133.848969 382.84 
L 131.958385 382.84 
z
" clip-path="url(#p1846b852a2)" style="fill: #1f77b4"/>
   </g>
   <g id="patch_28">
    <path d="M 133.848969 382.84 
L 135.739553 382.84 
L 135.739553 382.763769 
L 133.848969 382.763769 
z
" clip-path="url(#p1846b852a2)" style="fill: #1f77b4"/>
   </g>
   <g id="patch_29">
    <path d="M 135.739553 382.84 
L 137.630137 382.84 
L 137.630137 382.84 
L 135.739553 382.84 
z
" clip-path="url(#p1846b852a2)" style="fill: #1f77b4"/>
   </g>
   <g id="patch_30">
    <path d="M 137.630137 382.84 
L 139.520722 382.84 
L 139.520722 382.801884 
L 137.630137 382.801884 
z
" clip-path="url(#p1846b852a2)" style="fill: #1f77b4"/>
   </g>
   <g id="patch_31">
    <path d="M 139.520722 382.84 
L 141.411306 382.84 
L 141.411306 382.84 
L 139.520722 382.84 
z
" clip-path="url(#p1846b852a2)" style="fill: #1f77b4"/>
   </g>
   <g id="patch_32">
    <path d="M 141.411306 382.84 
L 143.30189 382.84 
L 143.30189 382.611306 
L 141.411306 382.611306 
z
" clip-path="url(#p1846b852a2)" style="fill: #1f77b4"/>
   </g>
   <g id="patch_33">
    <path d="M 143.30189 382.84 
L 145.192474 382.84 
L 145.192474 382.84 
L 143.30189 382.84 
z
" clip-path="url(#p1846b852a2)" style="fill: #1f77b4"/>
   </g>
   <g id="patch_34">
    <path d="M 145.192474 382.84 
L 147.083058 382.84 
L 147.083058 382.84 
L 145.192474 382.84 
z
" clip-path="url(#p1846b852a2)" style="fill: #1f77b4"/>
   </g>
   <g id="patch_35">
    <path d="M 147.083058 382.84 
L 148.973643 382.84 
L 148.973643 382.535074 
L 147.083058 382.535074 
z
" clip-path="url(#p1846b852a2)" style="fill: #1f77b4"/>
   </g>
   <g id="patch_36">
    <path d="M 148.973643 382.84 
L 150.864227 382.84 
L 150.864227 382.84 
L 148.973643 382.84 
z
" clip-path="url(#p1846b852a2)" style="fill: #1f77b4"/>
   </g>
   <g id="patch_37">
    <path d="M 150.864227 382.84 
L 152.754811 382.84 
L 152.754811 382.57319 
L 150.864227 382.57319 
z
" clip-path="url(#p1846b852a2)" style="fill: #1f77b4"/>
   </g>
   <g id="patch_38">
    <path d="M 152.754811 382.84 
L 154.645395 382.84 
L 154.645395 382.84 
L 152.754811 382.84 
z
" clip-path="url(#p1846b852a2)" style="fill: #1f77b4"/>
   </g>
   <g id="patch_39">
    <path d="M 154.645395 382.84 
L 156.535979 382.84 
L 156.535979 382.496958 
L 154.645395 382.496958 
z
" clip-path="url(#p1846b852a2)" style="fill: #1f77b4"/>
   </g>
   <g id="patch_40">
    <path d="M 156.535979 382.84 
L 158.426563 382.84 
L 158.426563 382.84 
L 156.535979 382.84 
z
" clip-path="url(#p1846b852a2)" style="fill: #1f77b4"/>
   </g>
   <g id="patch_41">
    <path d="M 158.426563 382.84 
L 160.317148 382.84 
L 160.317148 382.344496 
L 158.426563 382.344496 
z
" clip-path="url(#p1846b852a2)" style="fill: #1f77b4"/>
   </g>
   <g id="patch_42">
    <path d="M 160.317148 382.84 
L 162.207732 382.84 
L 162.207732 382.84 
L 160.317148 382.84 
z
" clip-path="url(#p1846b852a2)" style="fill: #1f77b4"/>
   </g>
   <g id="patch_43">
    <path d="M 162.207732 382.84 
L 164.098316 382.84 
L 164.098316 382.344496 
L 162.207732 382.344496 
z
" clip-path="url(#p1846b852a2)" style="fill: #1f77b4"/>
   </g>
   <g id="patch_44">
    <path d="M 164.098316 382.84 
L 165.9889 382.84 
L 165.9889 382.84 
L 164.098316 382.84 
z
" clip-path="url(#p1846b852a2)" style="fill: #1f77b4"/>
   </g>
   <g id="patch_45">
    <path d="M 165.9889 382.84 
L 167.879484 382.84 
L 167.879484 381.810875 
L 165.9889 381.810875 
z
" clip-path="url(#p1846b852a2)" style="fill: #1f77b4"/>
   </g>
   <g id="patch_46">
    <path d="M 167.879484 382.84 
L 169.770069 382.84 
L 169.770069 382.84 
L 167.879484 382.84 
z
" clip-path="url(#p1846b852a2)" style="fill: #1f77b4"/>
   </g>
   <g id="patch_47">
    <path d="M 169.770069 382.84 
L 171.660653 382.84 
L 171.660653 381.696528 
L 169.770069 381.696528 
z
" clip-path="url(#p1846b852a2)" style="fill: #1f77b4"/>
   </g>
   <g id="patch_48">
    <path d="M 171.660653 382.84 
L 173.551237 382.84 
L 173.551237 382.84 
L 171.660653 382.84 
z
" clip-path="url(#p1846b852a2)" style="fill: #1f77b4"/>
   </g>
   <g id="patch_49">
    <path d="M 173.551237 382.84 
L 175.441821 382.84 
L 175.441821 382.84 
L 173.551237 382.84 
z
" clip-path="url(#p1846b852a2)" style="fill: #1f77b4"/>
   </g>
   <g id="patch_50">
    <path d="M 175.441821 382.84 
L 177.332405 382.84 
L 177.332405 381.544065 
L 175.441821 381.544065 
z
" clip-path="url(#p1846b852a2)" style="fill: #1f77b4"/>
   </g>
   <g id="patch_51">
    <path d="M 177.332405 382.84 
L 179.22299 382.84 
L 179.22299 382.84 
L 177.332405 382.84 
z
" clip-path="url(#p1846b852a2)" style="fill: #1f77b4"/>
   </g>
   <g id="patch_52">
    <path d="M 179.22299 382.84 
L 181.113574 382.84 
L 181.113574 380.934214 
L 179.22299 380.934214 
z
" clip-path="url(#p1846b852a2)" style="fill: #1f77b4"/>
   </g>
   <g id="patch_53">
    <path d="M 181.113574 382.84 
L 183.004158 382.84 
L 183.004158 382.84 
L 181.113574 382.84 
z
" clip-path="url(#p1846b852a2)" style="fill: #1f77b4"/>
   </g>
   <g id="patch_54">
    <path d="M 183.004158 382.84 
L 184.894742 382.84 
L 184.894742 379.905089 
L 183.004158 379.905089 
z
" clip-path="url(#p1846b852a2)" style="fill: #1f77b4"/>
   </g>
   <g id="patch_55">
    <path d="M 184.894742 382.84 
L 186.785326 382.84 
L 186.785326 382.84 
L 184.894742 382.84 
z
" clip-path="url(#p1846b852a2)" style="fill: #1f77b4"/>
   </g>
   <g id="patch_56">
    <path d="M 186.785326 382.84 
L 188.675911 382.84 
L 188.675911 378.723501 
L 186.785326 378.723501 
z
" clip-path="url(#p1846b852a2)" style="fill: #1f77b4"/>
   </g>
   <g id="patch_57">
    <path d="M 188.675911 382.84 
L 190.566495 382.84 
L 190.566495 382.84 
L 188.675911 382.84 
z
" clip-path="url(#p1846b852a2)" style="fill: #1f77b4"/>
   </g>
   <g id="patch_58">
    <path d="M 190.566495 382.84 
L 192.457079 382.84 
L 192.457079 377.046409 
L 190.566495 377.046409 
z
" clip-path="url(#p1846b852a2)" style="fill: #1f77b4"/>
   </g>
   <g id="patch_59">
    <path d="M 192.457079 382.84 
L 194.347663 382.84 
L 194.347663 382.84 
L 192.457079 382.84 
z
" clip-path="url(#p1846b852a2)" style="fill: #1f77b4"/>
   </g>
   <g id="patch_60">
    <path d="M 194.347663 382.84 
L 196.238247 382.84 
L 196.238247 375.902937 
L 194.347663 375.902937 
z
" clip-path="url(#p1846b852a2)" style="fill: #1f77b4"/>
   </g>
   <g id="patch_61">
    <path d="M 196.238247 382.84 
L 198.128831 382.84 
L 198.128831 382.84 
L 196.238247 382.84 
z
" clip-path="url(#p1846b852a2)" style="fill: #1f77b4"/>
   </g>
   <g id="patch_62">
    <path d="M 198.128831 382.84 
L 200.019416 382.84 
L 200.019416 374.98816 
L 198.128831 374.98816 
z
" clip-path="url(#p1846b852a2)" style="fill: #1f77b4"/>
   </g>
   <g id="patch_63">
    <path d="M 200.019416 382.84 
L 201.91 382.84 
L 201.91 382.84 
L 200.019416 382.84 
z
" clip-path="url(#p1846b852a2)" style="fill: #1f77b4"/>
   </g>
   <g id="patch_64">
    <path d="M 201.91 382.84 
L 203.800584 382.84 
L 203.800584 372.320059 
L 201.91 372.320059 
z
" clip-path="url(#p1846b852a2)" style="fill: #1f77b4"/>
   </g>
   <g id="patch_65">
    <path d="M 203.800584 382.84 
L 205.691168 382.84 
L 205.691168 382.84 
L 203.800584 382.84 
z
" clip-path="url(#p1846b852a2)" style="fill: #1f77b4"/>
   </g>
   <g id="patch_66">
    <path d="M 205.691168 382.84 
L 207.581752 382.84 
L 207.581752 382.84 
L 205.691168 382.84 
z
" clip-path="url(#p1846b852a2)" style="fill: #1f77b4"/>
   </g>
   <g id="patch_67">
    <path d="M 207.581752 382.84 
L 209.472337 382.84 
L 209.472337 371.06224 
L 207.581752 371.06224 
z
" clip-path="url(#p1846b852a2)" style="fill: #1f77b4"/>
   </g>
   <g id="patch_68">
    <path d="M 209.472337 382.84 
L 211.362921 382.84 
L 211.362921 382.84 
L 209.472337 382.84 
z
" clip-path="url(#p1846b852a2)" style="fill: #1f77b4"/>
   </g>
   <g id="patch_69">
    <path d="M 211.362921 382.84 
L 213.253505 382.84 
L 213.253505 367.555593 
L 211.362921 367.555593 
z
" clip-path="url(#p1846b852a2)" style="fill: #1f77b4"/>
   </g>
   <g id="patch_70">
    <path d="M 213.253505 382.84 
L 215.144089 382.84 
L 215.144089 382.84 
L 213.253505 382.84 
z
" clip-path="url(#p1846b852a2)" style="fill: #1f77b4"/>
   </g>
   <g id="patch_71">
    <path d="M 215.144089 382.84 
L 217.034673 382.84 
L 217.034673 362.753011 
L 215.144089 362.753011 
z
" clip-path="url(#p1846b852a2)" style="fill: #1f77b4"/>
   </g>
   <g id="patch_72">
    <path d="M 217.034673 382.84 
L 218.925258 382.84 
L 218.925258 382.84 
L 217.034673 382.84 
z
" clip-path="url(#p1846b852a2)" style="fill: #1f77b4"/>
   </g>
   <g id="patch_73">
    <path d="M 218.925258 382.84 
L 220.815842 382.84 
L 220.815842 358.522165 
L 218.925258 358.522165 
z
" clip-path="url(#p1846b852a2)" style="fill: #1f77b4"/>
   </g>
   <g id="patch_74">
    <path d="M 220.815842 382.84 
L 222.706426 382.84 
L 222.706426 382.84 
L 220.815842 382.84 
z
" clip-path="url(#p1846b852a2)" style="fill: #1f77b4"/>
   </g>
   <g id="patch_75">
    <path d="M 222.706426 382.84 
L 224.59701 382.84 
L 224.59701 355.09175 
L 222.706426 355.09175 
z
" clip-path="url(#p1846b852a2)" style="fill: #1f77b4"/>
   </g>
   <g id="patch_76">
    <path d="M 224.59701 382.84 
L 226.487594 382.84 
L 226.487594 382.84 
L 224.59701 382.84 
z
" clip-path="url(#p1846b852a2)" style="fill: #1f77b4"/>
   </g>
   <g id="patch_77">
    <path d="M 226.487594 382.84 
L 228.378179 382.84 
L 228.378179 347.316141 
L 226.487594 347.316141 
z
" clip-path="url(#p1846b852a2)" style="fill: #1f77b4"/>
   </g>
   <g id="patch_78">
    <path d="M 228.378179 382.84 
L 230.268763 382.84 
L 230.268763 382.84 
L 228.378179 382.84 
z
" clip-path="url(#p1846b852a2)" style="fill: #1f77b4"/>
   </g>
   <g id="patch_79">
    <path d="M 230.268763 382.84 
L 232.159347 382.84 
L 232.159347 338.892565 
L 230.268763 338.892565 
z
" clip-path="url(#p1846b852a2)" style="fill: #1f77b4"/>
   </g>
   <g id="patch_80">
    <path d="M 232.159347 382.84 
L 234.049931 382.84 
L 234.049931 382.84 
L 232.159347 382.84 
z
" clip-path="url(#p1846b852a2)" style="fill: #1f77b4"/>
   </g>
   <g id="patch_81">
    <path d="M 234.049931 382.84 
L 235.940515 382.84 
L 235.940515 382.84 
L 234.049931 382.84 
z
" clip-path="url(#p1846b852a2)" style="fill: #1f77b4"/>
   </g>
   <g id="patch_82">
    <path d="M 235.940515 382.84 
L 237.831099 382.84 
L 237.831099 334.66172 
L 235.940515 334.66172 
z
" clip-path="url(#p1846b852a2)" style="fill: #1f77b4"/>
   </g>
   <g id="patch_83">
    <path d="M 237.831099 382.84 
L 239.721684 382.84 
L 239.721684 382.84 
L 237.831099 382.84 
z
" clip-path="url(#p1846b852a2)" style="fill: #1f77b4"/>
   </g>
   <g id="patch_84">
    <path d="M 239.721684 382.84 
L 241.612268 382.84 
L 241.612268 325.933218 
L 239.721684 325.933218 
z
" clip-path="url(#p1846b852a2)" style="fill: #1f77b4"/>
   </g>
   <g id="patch_85">
    <path d="M 241.612268 382.84 
L 243.502852 382.84 
L 243.502852 382.84 
L 241.612268 382.84 
z
" clip-path="url(#p1846b852a2)" style="fill: #1f77b4"/>
   </g>
   <g id="patch_86">
    <path d="M 243.502852 382.84 
L 245.393436 382.84 
L 245.393436 315.222698 
L 243.502852 315.222698 
z
" clip-path="url(#p1846b852a2)" style="fill: #1f77b4"/>
   </g>
   <g id="patch_87">
    <path d="M 245.393436 382.84 
L 247.28402 382.84 
L 247.28402 382.84 
L 245.393436 382.84 
z
" clip-path="url(#p1846b852a2)" style="fill: #1f77b4"/>
   </g>
   <g id="patch_88">
    <path d="M 247.28402 382.84 
L 249.174605 382.84 
L 249.174605 302.301466 
L 247.28402 302.301466 
z
" clip-path="url(#p1846b852a2)" style="fill: #1f77b4"/>
   </g>
   <g id="patch_89">
    <path d="M 249.174605 382.84 
L 251.065189 382.84 
L 251.065189 382.84 
L 249.174605 382.84 
z
" clip-path="url(#p1846b852a2)" style="fill: #1f77b4"/>
   </g>
   <g id="patch_90">
    <path d="M 251.065189 382.84 
L 252.955773 382.84 
L 252.955773 292.848766 
L 251.065189 292.848766 
z
" clip-path="url(#p1846b852a2)" style="fill: #1f77b4"/>
   </g>
   <g id="patch_91">
    <path d="M 252.955773 382.84 
L 254.846357 382.84 
L 254.846357 382.84 
L 252.955773 382.84 
z
" clip-path="url(#p1846b852a2)" style="fill: #1f77b4"/>
   </g>
   <g id="patch_92">
    <path d="M 254.846357 382.84 
L 256.736941 382.84 
L 256.736941 281.109121 
L 254.846357 281.109121 
z
" clip-path="url(#p1846b852a2)" style="fill: #1f77b4"/>
   </g>
   <g id="patch_93">
    <path d="M 256.736941 382.84 
L 258.627526 382.84 
L 258.627526 382.84 
L 256.736941 382.84 
z
" clip-path="url(#p1846b852a2)" style="fill: #1f77b4"/>
   </g>
   <g id="patch_94">
    <path d="M 258.627526 382.84 
L 260.51811 382.84 
L 260.51811 260.145471 
L 258.627526 260.145471 
z
" clip-path="url(#p1846b852a2)" style="fill: #1f77b4"/>
   </g>
   <g id="patch_95">
    <path d="M 260.51811 382.84 
L 262.408694 382.84 
L 262.408694 382.84 
L 260.51811 382.84 
z
" clip-path="url(#p1846b852a2)" style="fill: #1f77b4"/>
   </g>
   <g id="patch_96">
    <path d="M 262.408694 382.84 
L 264.299278 382.84 
L 264.299278 382.84 
L 262.408694 382.84 
z
" clip-path="url(#p1846b852a2)" style="fill: #1f77b4"/>
   </g>
   <g id="patch_97">
    <path d="M 264.299278 382.84 
L 266.189862 382.84 
L 266.189862 246.309462 
L 264.299278 246.309462 
z
" clip-path="url(#p1846b852a2)" style="fill: #1f77b4"/>
   </g>
   <g id="patch_98">
    <path d="M 266.189862 382.84 
L 268.080447 382.84 
L 268.080447 382.84 
L 266.189862 382.84 
z
" clip-path="url(#p1846b852a2)" style="fill: #1f77b4"/>
   </g>
   <g id="patch_99">
    <path d="M 268.080447 382.84 
L 269.971031 382.84 
L 269.971031 230.948823 
L 268.080447 230.948823 
z
" clip-path="url(#p1846b852a2)" style="fill: #1f77b4"/>
   </g>
   <g id="patch_100">
    <path d="M 269.971031 382.84 
L 271.861615 382.84 
L 271.861615 382.84 
L 269.971031 382.84 
z
" clip-path="url(#p1846b852a2)" style="fill: #1f77b4"/>
   </g>
   <g id="patch_101">
    <path d="M 271.861615 382.84 
L 273.752199 382.84 
L 273.752199 209.527784 
L 271.861615 209.527784 
z
" clip-path="url(#p1846b852a2)" style="fill: #1f77b4"/>
   </g>
   <g id="patch_102">
    <path d="M 273.752199 382.84 
L 275.642783 382.84 
L 275.642783 382.84 
L 273.752199 382.84 
z
" clip-path="url(#p1846b852a2)" style="fill: #1f77b4"/>
   </g>
   <g id="patch_103">
    <path d="M 275.642783 382.84 
L 277.533367 382.84 
L 277.533367 192.185127 
L 275.642783 192.185127 
z
" clip-path="url(#p1846b852a2)" style="fill: #1f77b4"/>
   </g>
   <g id="patch_104">
    <path d="M 277.533367 382.84 
L 279.423952 382.84 
L 279.423952 382.84 
L 277.533367 382.84 
z
" clip-path="url(#p1846b852a2)" style="fill: #1f77b4"/>
   </g>
   <g id="patch_105">
    <path d="M 279.423952 382.84 
L 281.314536 382.84 
L 281.314536 170.802204 
L 279.423952 170.802204 
z
" clip-path="url(#p1846b852a2)" style="fill: #1f77b4"/>
   </g>
   <g id="patch_106">
    <path d="M 281.314536 382.84 
L 283.20512 382.84 
L 283.20512 382.84 
L 281.314536 382.84 
z
" clip-path="url(#p1846b852a2)" style="fill: #1f77b4"/>
   </g>
   <g id="patch_107">
    <path d="M 283.20512 382.84 
L 285.095704 382.84 
L 285.095704 145.76017 
L 283.20512 145.76017 
z
" clip-path="url(#p1846b852a2)" style="fill: #1f77b4"/>
   </g>
   <g id="patch_108">
    <path d="M 285.095704 382.84 
L 286.986288 382.84 
L 286.986288 382.84 
L 285.095704 382.84 
z
" clip-path="url(#p1846b852a2)" style="fill: #1f77b4"/>
   </g>
   <g id="patch_109">
    <path d="M 286.986288 382.84 
L 288.876873 382.84 
L 288.876873 131.619235 
L 286.986288 131.619235 
z
" clip-path="url(#p1846b852a2)" style="fill: #1f77b4"/>
   </g>
   <g id="patch_110">
    <path d="M 288.876873 382.84 
L 290.767457 382.84 
L 290.767457 382.84 
L 288.876873 382.84 
z
" clip-path="url(#p1846b852a2)" style="fill: #1f77b4"/>
   </g>
   <g id="patch_111">
    <path d="M 290.767457 382.84 
L 292.658041 382.84 
L 292.658041 113.742959 
L 290.767457 113.742959 
z
" clip-path="url(#p1846b852a2)" style="fill: #1f77b4"/>
   </g>
   <g id="patch_112">
    <path d="M 292.658041 382.84 
L 294.548625 382.84 
L 294.548625 382.84 
L 292.658041 382.84 
z
" clip-path="url(#p1846b852a2)" style="fill: #1f77b4"/>
   </g>
   <g id="patch_113">
    <path d="M 294.548625 382.84 
L 296.439209 382.84 
L 296.439209 382.84 
L 294.548625 382.84 
z
" clip-path="url(#p1846b852a2)" style="fill: #1f77b4"/>
   </g>
   <g id="patch_114">
    <path d="M 296.439209 382.84 
L 298.329794 382.84 
L 298.329794 89.99686 
L 296.439209 89.99686 
z
" clip-path="url(#p1846b852a2)" style="fill: #1f77b4"/>
   </g>
   <g id="patch_115">
    <path d="M 298.329794 382.84 
L 300.220378 382.84 
L 300.220378 382.84 
L 298.329794 382.84 
z
" clip-path="url(#p1846b852a2)" style="fill: #1f77b4"/>
   </g>
   <g id="patch_116">
    <path d="M 300.220378 382.84 
L 302.110962 382.84 
L 302.110962 75.703462 
L 300.220378 75.703462 
z
" clip-path="url(#p1846b852a2)" style="fill: #1f77b4"/>
   </g>
   <g id="patch_117">
    <path d="M 302.110962 382.84 
L 304.001546 382.84 
L 304.001546 382.84 
L 302.110962 382.84 
z
" clip-path="url(#p1846b852a2)" style="fill: #1f77b4"/>
   </g>
   <g id="patch_118">
    <path d="M 304.001546 382.84 
L 305.89213 382.84 
L 305.89213 61.867453 
L 304.001546 61.867453 
z
" clip-path="url(#p1846b852a2)" style="fill: #1f77b4"/>
   </g>
   <g id="patch_119">
    <path d="M 305.89213 382.84 
L 307.782714 382.84 
L 307.782714 382.84 
L 305.89213 382.84 
z
" clip-path="url(#p1846b852a2)" style="fill: #1f77b4"/>
   </g>
   <g id="patch_120">
    <path d="M 307.782714 382.84 
L 309.673299 382.84 
L 309.673299 54.739811 
L 307.782714 54.739811 
z
" clip-path="url(#p1846b852a2)" style="fill: #1f77b4"/>
   </g>
   <g id="patch_121">
    <path d="M 309.673299 382.84 
L 311.563883 382.84 
L 311.563883 382.84 
L 309.673299 382.84 
z
" clip-path="url(#p1846b852a2)" style="fill: #1f77b4"/>
   </g>
   <g id="patch_122">
    <path d="M 311.563883 382.84 
L 313.454467 382.84 
L 313.454467 43.991176 
L 311.563883 43.991176 
z
" clip-path="url(#p1846b852a2)" style="fill: #1f77b4"/>
   </g>
   <g id="patch_123">
    <path d="M 313.454467 382.84 
L 315.345051 382.84 
L 315.345051 382.84 
L 313.454467 382.84 
z
" clip-path="url(#p1846b852a2)" style="fill: #1f77b4"/>
   </g>
   <g id="patch_124">
    <path d="M 315.345051 382.84 
L 317.235635 382.84 
L 317.235635 31.10806 
L 315.345051 31.10806 
z
" clip-path="url(#p1846b852a2)" style="fill: #1f77b4"/>
   </g>
   <g id="patch_125">
    <path d="M 317.235635 382.84 
L 319.12622 382.84 
L 319.12622 382.84 
L 317.235635 382.84 
z
" clip-path="url(#p1846b852a2)" style="fill: #1f77b4"/>
   </g>
   <g id="patch_126">
    <path d="M 319.12622 382.84 
L 321.016804 382.84 
L 321.016804 32.099069 
L 319.12622 32.099069 
z
" clip-path="url(#p1846b852a2)" style="fill: #1f77b4"/>
   </g>
   <g id="patch_127">
    <path d="M 321.016804 382.84 
L 322.907388 382.84 
L 322.907388 382.84 
L 321.016804 382.84 
z
" clip-path="url(#p1846b852a2)" style="fill: #1f77b4"/>
   </g>
   <g id="patch_128">
    <path d="M 322.907388 382.84 
L 324.797972 382.84 
L 324.797972 382.84 
L 322.907388 382.84 
z
" clip-path="url(#p1846b852a2)" style="fill: #1f77b4"/>
   </g>
   <g id="patch_129">
    <path d="M 324.797972 382.84 
L 326.688556 382.84 
L 326.688556 34.271665 
L 324.797972 34.271665 
z
" clip-path="url(#p1846b852a2)" style="fill: #1f77b4"/>
   </g>
   <g id="patch_130">
    <path d="M 326.688556 382.84 
L 328.579141 382.84 
L 328.579141 382.84 
L 326.688556 382.84 
z
" clip-path="url(#p1846b852a2)" style="fill: #1f77b4"/>
   </g>
   <g id="patch_131">
    <path d="M 328.579141 382.84 
L 330.469725 382.84 
L 330.469725 28.51619 
L 328.579141 28.51619 
z
" clip-path="url(#p1846b852a2)" style="fill: #1f77b4"/>
   </g>
   <g id="patch_132">
    <path d="M 330.469725 382.84 
L 332.360309 382.84 
L 332.360309 382.84 
L 330.469725 382.84 
z
" clip-path="url(#p1846b852a2)" style="fill: #1f77b4"/>
   </g>
   <g id="patch_133">
    <path d="M 332.360309 382.84 
L 334.250893 382.84 
L 334.250893 39.950909 
L 332.360309 39.950909 
z
" clip-path="url(#p1846b852a2)" style="fill: #1f77b4"/>
   </g>
   <g id="patch_134">
    <path d="M 334.250893 382.84 
L 336.141477 382.84 
L 336.141477 382.84 
L 334.250893 382.84 
z
" clip-path="url(#p1846b852a2)" style="fill: #1f77b4"/>
   </g>
   <g id="patch_135">
    <path d="M 336.141477 382.84 
L 338.032062 382.84 
L 338.032062 38.540627 
L 336.141477 38.540627 
z
" clip-path="url(#p1846b852a2)" style="fill: #1f77b4"/>
   </g>
   <g id="patch_136">
    <path d="M 338.032062 382.84 
L 339.922646 382.84 
L 339.922646 382.84 
L 338.032062 382.84 
z
" clip-path="url(#p1846b852a2)" style="fill: #1f77b4"/>
   </g>
   <g id="patch_137">
    <path d="M 339.922646 382.84 
L 341.81323 382.84 
L 341.81323 52.338521 
L 339.922646 52.338521 
z
" clip-path="url(#p1846b852a2)" style="fill: #1f77b4"/>
   </g>
   <g id="patch_138">
    <path d="M 341.81323 382.84 
L 343.703814 382.84 
L 343.703814 382.84 
L 341.81323 382.84 
z
" clip-path="url(#p1846b852a2)" style="fill: #1f77b4"/>
   </g>
   <g id="patch_139">
    <path d="M 343.703814 382.84 
L 345.594398 382.84 
L 345.594398 65.602794 
L 343.703814 65.602794 
z
" clip-path="url(#p1846b852a2)" style="fill: #1f77b4"/>
   </g>
   <g id="patch_140">
    <path d="M 345.594398 382.84 
L 347.484982 382.84 
L 347.484982 382.84 
L 345.594398 382.84 
z
" clip-path="url(#p1846b852a2)" style="fill: #1f77b4"/>
   </g>
   <g id="patch_141">
    <path d="M 347.484982 382.84 
L 349.375567 382.84 
L 349.375567 75.017379 
L 347.484982 75.017379 
z
" clip-path="url(#p1846b852a2)" style="fill: #1f77b4"/>
   </g>
   <g id="patch_142">
    <path d="M 349.375567 382.84 
L 351.266151 382.84 
L 351.266151 382.84 
L 349.375567 382.84 
z
" clip-path="url(#p1846b852a2)" style="fill: #1f77b4"/>
   </g>
   <g id="patch_143">
    <path d="M 351.266151 382.84 
L 353.156735 382.84 
L 353.156735 382.84 
L 351.266151 382.84 
z
" clip-path="url(#p1846b852a2)" style="fill: #1f77b4"/>
   </g>
   <g id="patch_144">
    <path d="M 353.156735 382.84 
L 355.047319 382.84 
L 355.047319 89.539471 
L 353.156735 89.539471 
z
" clip-path="url(#p1846b852a2)" style="fill: #1f77b4"/>
   </g>
   <g id="patch_145">
    <path d="M 355.047319 382.84 
L 356.937903 382.84 
L 356.937903 382.84 
L 355.047319 382.84 
z
" clip-path="url(#p1846b852a2)" style="fill: #1f77b4"/>
   </g>
   <g id="patch_146">
    <path d="M 356.937903 382.84 
L 358.828488 382.84 
L 358.828488 104.290258 
L 356.937903 104.290258 
z
" clip-path="url(#p1846b852a2)" style="fill: #1f77b4"/>
   </g>
   <g id="patch_147">
    <path d="M 358.828488 382.84 
L 360.719072 382.84 
L 360.719072 382.84 
L 358.828488 382.84 
z
" clip-path="url(#p1846b852a2)" style="fill: #1f77b4"/>
   </g>
   <g id="patch_148">
    <path d="M 360.719072 382.84 
L 362.609656 382.84 
L 362.609656 123.843627 
L 360.719072 123.843627 
z
" clip-path="url(#p1846b852a2)" style="fill: #1f77b4"/>
   </g>
   <g id="patch_149">
    <path d="M 362.609656 382.84 
L 364.50024 382.84 
L 364.50024 382.84 
L 362.609656 382.84 
z
" clip-path="url(#p1846b852a2)" style="fill: #1f77b4"/>
   </g>
   <g id="patch_150">
    <path d="M 364.50024 382.84 
L 366.390824 382.84 
L 366.390824 146.293791 
L 364.50024 146.293791 
z
" clip-path="url(#p1846b852a2)" style="fill: #1f77b4"/>
   </g>
   <g id="patch_151">
    <path d="M 366.390824 382.84 
L 368.281409 382.84 
L 368.281409 382.84 
L 366.390824 382.84 
z
" clip-path="url(#p1846b852a2)" style="fill: #1f77b4"/>
   </g>
   <g id="patch_152">
    <path d="M 368.281409 382.84 
L 370.171993 382.84 
L 370.171993 157.880972 
L 368.281409 157.880972 
z
" clip-path="url(#p1846b852a2)" style="fill: #1f77b4"/>
   </g>
   <g id="patch_153">
    <path d="M 370.171993 382.84 
L 372.062577 382.84 
L 372.062577 382.84 
L 370.171993 382.84 
z
" clip-path="url(#p1846b852a2)" style="fill: #1f77b4"/>
   </g>
   <g id="patch_154">
    <path d="M 372.062577 382.84 
L 373.953161 382.84 
L 373.953161 177.510572 
L 372.062577 177.510572 
z
" clip-path="url(#p1846b852a2)" style="fill: #1f77b4"/>
   </g>
   <g id="patch_155">
    <path d="M 373.953161 382.84 
L 375.843745 382.84 
L 375.843745 382.84 
L 373.953161 382.84 
z
" clip-path="url(#p1846b852a2)" style="fill: #1f77b4"/>
   </g>
   <g id="patch_156">
    <path d="M 375.843745 382.84 
L 377.73433 382.84 
L 377.73433 199.007843 
L 375.843745 199.007843 
z
" clip-path="url(#p1846b852a2)" style="fill: #1f77b4"/>
   </g>
   <g id="patch_157">
    <path d="M 377.73433 382.84 
L 379.624914 382.84 
L 379.624914 382.84 
L 377.73433 382.84 
z
" clip-path="url(#p1846b852a2)" style="fill: #1f77b4"/>
   </g>
   <g id="patch_158">
    <path d="M 379.624914 382.84 
L 381.515498 382.84 
L 381.515498 216.769772 
L 379.624914 216.769772 
z
" clip-path="url(#p1846b852a2)" style="fill: #1f77b4"/>
   </g>
   <g id="patch_159">
    <path d="M 381.515498 382.84 
L 383.406082 382.84 
L 383.406082 382.84 
L 381.515498 382.84 
z
" clip-path="url(#p1846b852a2)" style="fill: #1f77b4"/>
   </g>
   <g id="patch_160">
    <path d="M 383.406082 382.84 
L 385.296666 382.84 
L 385.296666 382.84 
L 383.406082 382.84 
z
" clip-path="url(#p1846b852a2)" style="fill: #1f77b4"/>
   </g>
   <g id="patch_161">
    <path d="M 385.296666 382.84 
L 387.18725 382.84 
L 387.18725 232.549684 
L 385.296666 232.549684 
z
" clip-path="url(#p1846b852a2)" style="fill: #1f77b4"/>
   </g>
   <g id="patch_162">
    <path d="M 387.18725 382.84 
L 389.077835 382.84 
L 389.077835 382.84 
L 387.18725 382.84 
z
" clip-path="url(#p1846b852a2)" style="fill: #1f77b4"/>
   </g>
   <g id="patch_163">
    <path d="M 389.077835 382.84 
L 390.968419 382.84 
L 390.968419 250.082919 
L 389.077835 250.082919 
z
" clip-path="url(#p1846b852a2)" style="fill: #1f77b4"/>
   </g>
   <g id="patch_164">
    <path d="M 390.968419 382.84 
L 392.859003 382.84 
L 392.859003 382.84 
L 390.968419 382.84 
z
" clip-path="url(#p1846b852a2)" style="fill: #1f77b4"/>
   </g>
   <g id="patch_165">
    <path d="M 392.859003 382.84 
L 394.749587 382.84 
L 394.749587 267.921079 
L 392.859003 267.921079 
z
" clip-path="url(#p1846b852a2)" style="fill: #1f77b4"/>
   </g>
   <g id="patch_166">
    <path d="M 394.749587 382.84 
L 396.640171 382.84 
L 396.640171 382.84 
L 394.749587 382.84 
z
" clip-path="url(#p1846b852a2)" style="fill: #1f77b4"/>
   </g>
   <g id="patch_167">
    <path d="M 396.640171 382.84 
L 398.530756 382.84 
L 398.530756 282.824329 
L 396.640171 282.824329 
z
" clip-path="url(#p1846b852a2)" style="fill: #1f77b4"/>
   </g>
   <g id="patch_168">
    <path d="M 398.530756 382.84 
L 400.42134 382.84 
L 400.42134 382.84 
L 398.530756 382.84 
z
" clip-path="url(#p1846b852a2)" style="fill: #1f77b4"/>
   </g>
   <g id="patch_169">
    <path d="M 400.42134 382.84 
L 402.311924 382.84 
L 402.311924 300.166985 
L 400.42134 300.166985 
z
" clip-path="url(#p1846b852a2)" style="fill: #1f77b4"/>
   </g>
   <g id="patch_170">
    <path d="M 402.311924 382.84 
L 404.202508 382.84 
L 404.202508 382.84 
L 402.311924 382.84 
z
" clip-path="url(#p1846b852a2)" style="fill: #1f77b4"/>
   </g>
   <g id="patch_171">
    <path d="M 404.202508 382.84 
L 406.093092 382.84 
L 406.093092 308.399983 
L 404.202508 308.399983 
z
" clip-path="url(#p1846b852a2)" style="fill: #1f77b4"/>
   </g>
   <g id="patch_172">
    <path d="M 406.093092 382.84 
L 407.983677 382.84 
L 407.983677 382.84 
L 406.093092 382.84 
z
" clip-path="url(#p1846b852a2)" style="fill: #1f77b4"/>
   </g>
   <g id="patch_173">
    <path d="M 407.983677 382.84 
L 409.874261 382.84 
L 409.874261 320.787594 
L 407.983677 320.787594 
z
" clip-path="url(#p1846b852a2)" style="fill: #1f77b4"/>
   </g>
   <g id="patch_174">
    <path d="M 409.874261 382.84 
L 411.764845 382.84 
L 411.764845 382.84 
L 409.874261 382.84 
z
" clip-path="url(#p1846b852a2)" style="fill: #1f77b4"/>
   </g>
   <g id="patch_175">
    <path d="M 411.764845 382.84 
L 413.655429 382.84 
L 413.655429 382.84 
L 411.764845 382.84 
z
" clip-path="url(#p1846b852a2)" style="fill: #1f77b4"/>
   </g>
   <g id="patch_176">
    <path d="M 413.655429 382.84 
L 415.546013 382.84 
L 415.546013 327.495963 
L 413.655429 327.495963 
z
" clip-path="url(#p1846b852a2)" style="fill: #1f77b4"/>
   </g>
   <g id="patch_177">
    <path d="M 415.546013 382.84 
L 417.436598 382.84 
L 417.436598 382.84 
L 415.546013 382.84 
z
" clip-path="url(#p1846b852a2)" style="fill: #1f77b4"/>
   </g>
   <g id="patch_178">
    <path d="M 417.436598 382.84 
L 419.327182 382.84 
L 419.327182 337.863441 
L 417.436598 337.863441 
z
" clip-path="url(#p1846b852a2)" style="fill: #1f77b4"/>
   </g>
   <g id="patch_179">
    <path d="M 419.327182 382.84 
L 421.217766 382.84 
L 421.217766 382.84 
L 419.327182 382.84 
z
" clip-path="url(#p1846b852a2)" style="fill: #1f77b4"/>
   </g>
   <g id="patch_180">
    <path d="M 421.217766 382.84 
L 423.10835 382.84 
L 423.10835 341.941824 
L 421.217766 341.941824 
z
" clip-path="url(#p1846b852a2)" style="fill: #1f77b4"/>
   </g>
   <g id="patch_181">
    <path d="M 423.10835 382.84 
L 424.998934 382.84 
L 424.998934 382.84 
L 423.10835 382.84 
z
" clip-path="url(#p1846b852a2)" style="fill: #1f77b4"/>
   </g>
   <g id="patch_182">
    <path d="M 424.998934 382.84 
L 426.889518 382.84 
L 426.889518 349.183812 
L 424.998934 349.183812 
z
" clip-path="url(#p1846b852a2)" style="fill: #1f77b4"/>
   </g>
   <g id="patch_183">
    <path d="M 426.889518 382.84 
L 428.780103 382.84 
L 428.780103 382.84 
L 426.889518 382.84 
z
" clip-path="url(#p1846b852a2)" style="fill: #1f77b4"/>
   </g>
   <g id="patch_184">
    <path d="M 428.780103 382.84 
L 430.670687 382.84 
L 430.670687 355.549139 
L 428.780103 355.549139 
z
" clip-path="url(#p1846b852a2)" style="fill: #1f77b4"/>
   </g>
   <g id="patch_185">
    <path d="M 430.670687 382.84 
L 432.561271 382.84 
L 432.561271 382.84 
L 430.670687 382.84 
z
" clip-path="url(#p1846b852a2)" style="fill: #1f77b4"/>
   </g>
   <g id="patch_186">
    <path d="M 432.561271 382.84 
L 434.451855 382.84 
L 434.451855 360.999688 
L 432.561271 360.999688 
z
" clip-path="url(#p1846b852a2)" style="fill: #1f77b4"/>
   </g>
   <g id="patch_187">
    <path d="M 434.451855 382.84 
L 436.342439 382.84 
L 436.342439 382.84 
L 434.451855 382.84 
z
" clip-path="url(#p1846b852a2)" style="fill: #1f77b4"/>
   </g>
   <g id="patch_188">
    <path d="M 436.342439 382.84 
L 438.233024 382.84 
L 438.233024 365.382996 
L 436.342439 365.382996 
z
" clip-path="url(#p1846b852a2)" style="fill: #1f77b4"/>
   </g>
   <g id="patch_189">
    <path d="M 438.233024 382.84 
L 440.123608 382.84 
L 440.123608 382.84 
L 438.233024 382.84 
z
" clip-path="url(#p1846b852a2)" style="fill: #1f77b4"/>
   </g>
   <g id="patch_190">
    <path d="M 440.123608 382.84 
L 442.014192 382.84 
L 442.014192 382.84 
L 440.123608 382.84 
z
" clip-path="url(#p1846b852a2)" style="fill: #1f77b4"/>
   </g>
   <g id="patch_191">
    <path d="M 442.014192 382.84 
L 443.904776 382.84 
L 443.904776 368.394139 
L 442.014192 368.394139 
z
" clip-path="url(#p1846b852a2)" style="fill: #1f77b4"/>
   </g>
   <g id="patch_192">
    <path d="M 443.904776 382.84 
L 445.79536 382.84 
L 445.79536 382.84 
L 443.904776 382.84 
z
" clip-path="url(#p1846b852a2)" style="fill: #1f77b4"/>
   </g>
   <g id="patch_193">
    <path d="M 445.79536 382.84 
L 447.685945 382.84 
L 447.685945 370.681083 
L 445.79536 370.681083 
z
" clip-path="url(#p1846b852a2)" style="fill: #1f77b4"/>
   </g>
   <g id="patch_194">
    <path d="M 447.685945 382.84 
L 449.576529 382.84 
L 449.576529 382.84 
L 447.685945 382.84 
z
" clip-path="url(#p1846b852a2)" style="fill: #1f77b4"/>
   </g>
   <g id="patch_195">
    <path d="M 449.576529 382.84 
L 451.467113 382.84 
L 451.467113 373.615994 
L 449.576529 373.615994 
z
" clip-path="url(#p1846b852a2)" style="fill: #1f77b4"/>
   </g>
   <g id="patch_196">
    <path d="M 451.467113 382.84 
L 453.357697 382.84 
L 453.357697 382.84 
L 451.467113 382.84 
z
" clip-path="url(#p1846b852a2)" style="fill: #1f77b4"/>
   </g>
   <g id="patch_197">
    <path d="M 453.357697 382.84 
L 455.248281 382.84 
L 455.248281 376.093516 
L 453.357697 376.093516 
z
" clip-path="url(#p1846b852a2)" style="fill: #1f77b4"/>
   </g>
   <g id="patch_198">
    <path d="M 455.248281 382.84 
L 457.138866 382.84 
L 457.138866 382.84 
L 455.248281 382.84 
z
" clip-path="url(#p1846b852a2)" style="fill: #1f77b4"/>
   </g>
   <g id="patch_199">
    <path d="M 457.138866 382.84 
L 459.02945 382.84 
L 459.02945 377.884955 
L 457.138866 377.884955 
z
" clip-path="url(#p1846b852a2)" style="fill: #1f77b4"/>
   </g>
   <g id="patch_200">
    <path d="M 459.02945 382.84 
L 460.920034 382.84 
L 460.920034 382.84 
L 459.02945 382.84 
z
" clip-path="url(#p1846b852a2)" style="fill: #1f77b4"/>
   </g>
   <g id="patch_201">
    <path d="M 460.920034 382.84 
L 462.810618 382.84 
L 462.810618 379.562047 
L 460.920034 379.562047 
z
" clip-path="url(#p1846b852a2)" style="fill: #1f77b4"/>
   </g>
   <g id="patch_202">
    <path d="M 462.810618 382.84 
L 464.701202 382.84 
L 464.701202 382.84 
L 462.810618 382.84 
z
" clip-path="url(#p1846b852a2)" style="fill: #1f77b4"/>
   </g>
   <g id="patch_203">
    <path d="M 464.701202 382.84 
L 466.591786 382.84 
L 466.591786 380.819866 
L 464.701202 380.819866 
z
" clip-path="url(#p1846b852a2)" style="fill: #1f77b4"/>
   </g>
   <g id="patch_204">
    <path d="M 466.591786 382.84 
L 468.482371 382.84 
L 468.482371 382.84 
L 466.591786 382.84 
z
" clip-path="url(#p1846b852a2)" style="fill: #1f77b4"/>
   </g>
   <g id="patch_205">
    <path d="M 468.482371 382.84 
L 470.372955 382.84 
L 470.372955 380.857982 
L 468.482371 380.857982 
z
" clip-path="url(#p1846b852a2)" style="fill: #1f77b4"/>
   </g>
   <g id="patch_206">
    <path d="M 470.372955 382.84 
L 472.263539 382.84 
L 472.263539 382.84 
L 470.372955 382.84 
z
" clip-path="url(#p1846b852a2)" style="fill: #1f77b4"/>
   </g>
   <g id="patch_207">
    <path d="M 472.263539 382.84 
L 474.154123 382.84 
L 474.154123 382.84 
L 472.263539 382.84 
z
" clip-path="url(#p1846b852a2)" style="fill: #1f77b4"/>
   </g>
   <g id="patch_208">
    <path d="M 474.154123 382.84 
L 476.044707 382.84 
L 476.044707 381.50595 
L 474.154123 381.50595 
z
" clip-path="url(#p1846b852a2)" style="fill: #1f77b4"/>
   </g>
   <g id="patch_209">
    <path d="M 476.044707 382.84 
L 477.935292 382.84 
L 477.935292 382.84 
L 476.044707 382.84 
z
" clip-path="url(#p1846b852a2)" style="fill: #1f77b4"/>
   </g>
   <g id="patch_210">
    <path d="M 477.935292 382.84 
L 479.825876 382.84 
L 479.825876 381.734644 
L 477.935292 381.734644 
z
" clip-path="url(#p1846b852a2)" style="fill: #1f77b4"/>
   </g>
   <g id="patch_211">
    <path d="M 479.825876 382.84 
L 481.71646 382.84 
L 481.71646 382.84 
L 479.825876 382.84 
z
" clip-path="url(#p1846b852a2)" style="fill: #1f77b4"/>
   </g>
   <g id="patch_212">
    <path d="M 481.71646 382.84 
L 483.607044 382.84 
L 483.607044 382.077685 
L 481.71646 382.077685 
z
" clip-path="url(#p1846b852a2)" style="fill: #1f77b4"/>
   </g>
   <g id="patch_213">
    <path d="M 483.607044 382.84 
L 485.497628 382.84 
L 485.497628 382.84 
L 483.607044 382.84 
z
" clip-path="url(#p1846b852a2)" style="fill: #1f77b4"/>
   </g>
   <g id="patch_214">
    <path d="M 485.497628 382.84 
L 487.388213 382.84 
L 487.388213 382.420727 
L 485.497628 382.420727 
z
" clip-path="url(#p1846b852a2)" style="fill: #1f77b4"/>
   </g>
   <g id="patch_215">
    <path d="M 487.388213 382.84 
L 489.278797 382.84 
L 489.278797 382.84 
L 487.388213 382.84 
z
" clip-path="url(#p1846b852a2)" style="fill: #1f77b4"/>
   </g>
   <g id="patch_216">
    <path d="M 489.278797 382.84 
L 491.169381 382.84 
L 491.169381 382.268264 
L 489.278797 382.268264 
z
" clip-path="url(#p1846b852a2)" style="fill: #1f77b4"/>
   </g>
   <g id="patch_217">
    <path d="M 491.169381 382.84 
L 493.059965 382.84 
L 493.059965 382.84 
L 491.169381 382.84 
z
" clip-path="url(#p1846b852a2)" style="fill: #1f77b4"/>
   </g>
   <g id="patch_218">
    <path d="M 493.059965 382.84 
L 494.950549 382.84 
L 494.950549 382.687537 
L 493.059965 382.687537 
z
" clip-path="url(#p1846b852a2)" style="fill: #1f77b4"/>
   </g>
   <g id="patch_219">
    <path d="M 494.950549 382.84 
L 496.841134 382.84 
L 496.841134 382.84 
L 494.950549 382.84 
z
" clip-path="url(#p1846b852a2)" style="fill: #1f77b4"/>
   </g>
   <g id="patch_220">
    <path d="M 496.841134 382.84 
L 498.731718 382.84 
L 498.731718 382.725653 
L 496.841134 382.725653 
z
" clip-path="url(#p1846b852a2)" style="fill: #1f77b4"/>
   </g>
   <g id="patch_221">
    <path d="M 498.731718 382.84 
L 500.622302 382.84 
L 500.622302 382.84 
L 498.731718 382.84 
z
" clip-path="url(#p1846b852a2)" style="fill: #1f77b4"/>
   </g>
   <g id="patch_222">
    <path d="M 500.622302 382.84 
L 502.512886 382.84 
L 502.512886 382.84 
L 500.622302 382.84 
z
" clip-path="url(#p1846b852a2)" style="fill: #1f77b4"/>
   </g>
   <g id="patch_223">
    <path d="M 502.512886 382.84 
L 504.40347 382.84 
L 504.40347 382.84 
L 502.512886 382.84 
z
" clip-path="url(#p1846b852a2)" style="fill: #1f77b4"/>
   </g>
   <g id="patch_224">
    <path d="M 504.40347 382.84 
L 506.294054 382.84 
L 506.294054 382.84 
L 504.40347 382.84 
z
" clip-path="url(#p1846b852a2)" style="fill: #1f77b4"/>
   </g>
   <g id="patch_225">
    <path d="M 506.294054 382.84 
L 508.184639 382.84 
L 508.184639 382.801884 
L 506.294054 382.801884 
z
" clip-path="url(#p1846b852a2)" style="fill: #1f77b4"/>
   </g>
   <g id="patch_226">
    <path d="M 508.184639 382.84 
L 510.075223 382.84 
L 510.075223 382.84 
L 508.184639 382.84 
z
" clip-path="url(#p1846b852a2)" style="fill: #1f77b4"/>
   </g>
   <g id="patch_227">
    <path d="M 510.075223 382.84 
L 511.965807 382.84 
L 511.965807 382.84 
L 510.075223 382.84 
z
" clip-path="url(#p1846b852a2)" style="fill: #1f77b4"/>
   </g>
   <g id="patch_228">
    <path d="M 511.965807 382.84 
L 513.856391 382.84 
L 513.856391 382.84 
L 511.965807 382.84 
z
" clip-path="url(#p1846b852a2)" style="fill: #1f77b4"/>
   </g>
   <g id="patch_229">
    <path d="M 513.856391 382.84 
L 515.746975 382.84 
L 515.746975 382.84 
L 513.856391 382.84 
z
" clip-path="url(#p1846b852a2)" style="fill: #1f77b4"/>
   </g>
   <g id="patch_230">
    <path d="M 515.746975 382.84 
L 517.63756 382.84 
L 517.63756 382.84 
L 515.746975 382.84 
z
" clip-path="url(#p1846b852a2)" style="fill: #1f77b4"/>
   </g>
   <g id="patch_231">
    <path d="M 517.63756 382.84 
L 519.528144 382.84 
L 519.528144 382.763769 
L 517.63756 382.763769 
z
" clip-path="url(#p1846b852a2)" style="fill: #1f77b4"/>
   </g>
   <g id="patch_232">
    <path d="M 519.528144 382.84 
L 521.418728 382.84 
L 521.418728 382.84 
L 519.528144 382.84 
z
" clip-path="url(#p1846b852a2)" style="fill: #1f77b4"/>
   </g>
   <g id="patch_233">
    <path d="M 521.418728 382.84 
L 523.309312 382.84 
L 523.309312 382.84 
L 521.418728 382.84 
z
" clip-path="url(#p1846b852a2)" style="fill: #1f77b4"/>
   </g>
   <g id="patch_234">
    <path d="M 523.309312 382.84 
L 525.199896 382.84 
L 525.199896 382.84 
L 523.309312 382.84 
z
" clip-path="url(#p1846b852a2)" style="fill: #1f77b4"/>
   </g>
   <g id="patch_235">
    <path d="M 525.199896 382.84 
L 527.090481 382.84 
L 527.090481 382.84 
L 525.199896 382.84 
z
" clip-path="url(#p1846b852a2)" style="fill: #1f77b4"/>
   </g>
   <g id="patch_236">
    <path d="M 527.090481 382.84 
L 528.981065 382.84 
L 528.981065 382.84 
L 527.090481 382.84 
z
" clip-path="url(#p1846b852a2)" style="fill: #1f77b4"/>
   </g>
   <g id="patch_237">
    <path d="M 528.981065 382.84 
L 530.871649 382.84 
L 530.871649 382.801884 
L 528.981065 382.801884 
z
" clip-path="url(#p1846b852a2)" style="fill: #1f77b4"/>
   </g>
   <g id="matplotlib.axis_1">
    <g id="xtick_1">
     <g id="line2d_1">
      <defs>
       <path id="ma0ce647976" d="M 0 0 
L 0 3.5 
" style="stroke: #000000; stroke-width: 0.8"/>
      </defs>
      <g>
       <use xlink:href="#ma0ce647976" x="114.857191" y="382.84" style="stroke: #000000; stroke-width: 0.8"/>
      </g>
     </g>
     <g id="text_1">
      <!-- −14 -->
      <g transform="translate(104.304848 397.438438) scale(0.1 -0.1)">
       <defs>
        <path id="DejaVuSans-2212" d="M 678 2272 
L 4684 2272 
L 4684 1741 
L 678 1741 
L 678 2272 
z
" transform="scale(0.015625)"/>
        <path id="DejaVuSans-31" d="M 794 531 
L 1825 531 
L 1825 4091 
L 703 3866 
L 703 4441 
L 1819 4666 
L 2450 4666 
L 2450 531 
L 3481 531 
L 3481 0 
L 794 0 
L 794 531 
z
" transform="scale(0.015625)"/>
        <path id="DejaVuSans-34" d="M 2419 4116 
L 825 1625 
L 2419 1625 
L 2419 4116 
z
M 2253 4666 
L 3047 4666 
L 3047 1625 
L 3713 1625 
L 3713 1100 
L 3047 1100 
L 3047 0 
L 2419 0 
L 2419 1100 
L 313 1100 
L 313 1709 
L 2253 4666 
z
" transform="scale(0.015625)"/>
       </defs>
       <use xlink:href="#DejaVuSans-2212"/>
       <use xlink:href="#DejaVuSans-31" x="83.789062"/>
       <use xlink:href="#DejaVuSans-34" x="147.412109"/>
      </g>
     </g>
    </g>
    <g id="xtick_2">
     <g id="line2d_2">
      <g>
       <use xlink:href="#ma0ce647976" x="195.636698" y="382.84" style="stroke: #000000; stroke-width: 0.8"/>
      </g>
     </g>
     <g id="text_2">
      <!-- −12 -->
      <g transform="translate(185.084354 397.438438) scale(0.1 -0.1)">
       <defs>
        <path id="DejaVuSans-32" d="M 1228 531 
L 3431 531 
L 3431 0 
L 469 0 
L 469 531 
Q 828 903 1448 1529 
Q 2069 2156 2228 2338 
Q 2531 2678 2651 2914 
Q 2772 3150 2772 3378 
Q 2772 3750 2511 3984 
Q 2250 4219 1831 4219 
Q 1534 4219 1204 4116 
Q 875 4013 500 3803 
L 500 4441 
Q 881 4594 1212 4672 
Q 1544 4750 1819 4750 
Q 2544 4750 2975 4387 
Q 3406 4025 3406 3419 
Q 3406 3131 3298 2873 
Q 3191 2616 2906 2266 
Q 2828 2175 2409 1742 
Q 1991 1309 1228 531 
z
" transform="scale(0.015625)"/>
       </defs>
       <use xlink:href="#DejaVuSans-2212"/>
       <use xlink:href="#DejaVuSans-31" x="83.789062"/>
       <use xlink:href="#DejaVuSans-32" x="147.412109"/>
      </g>
     </g>
    </g>
    <g id="xtick_3">
     <g id="line2d_3">
      <g>
       <use xlink:href="#ma0ce647976" x="276.416204" y="382.84" style="stroke: #000000; stroke-width: 0.8"/>
      </g>
     </g>
     <g id="text_3">
      <!-- −10 -->
      <g transform="translate(265.86386 397.438438) scale(0.1 -0.1)">
       <defs>
        <path id="DejaVuSans-30" d="M 2034 4250 
Q 1547 4250 1301 3770 
Q 1056 3291 1056 2328 
Q 1056 1369 1301 889 
Q 1547 409 2034 409 
Q 2525 409 2770 889 
Q 3016 1369 3016 2328 
Q 3016 3291 2770 3770 
Q 2525 4250 2034 4250 
z
M 2034 4750 
Q 2819 4750 3233 4129 
Q 3647 3509 3647 2328 
Q 3647 1150 3233 529 
Q 2819 -91 2034 -91 
Q 1250 -91 836 529 
Q 422 1150 422 2328 
Q 422 3509 836 4129 
Q 1250 4750 2034 4750 
z
" transform="scale(0.015625)"/>
       </defs>
       <use xlink:href="#DejaVuSans-2212"/>
       <use xlink:href="#DejaVuSans-31" x="83.789062"/>
       <use xlink:href="#DejaVuSans-30" x="147.412109"/>
      </g>
     </g>
    </g>
    <g id="xtick_4">
     <g id="line2d_4">
      <g>
       <use xlink:href="#ma0ce647976" x="357.19571" y="382.84" style="stroke: #000000; stroke-width: 0.8"/>
      </g>
     </g>
     <g id="text_4">
      <!-- −8 -->
      <g transform="translate(349.824617 397.438438) scale(0.1 -0.1)">
       <defs>
        <path id="DejaVuSans-38" d="M 2034 2216 
Q 1584 2216 1326 1975 
Q 1069 1734 1069 1313 
Q 1069 891 1326 650 
Q 1584 409 2034 409 
Q 2484 409 2743 651 
Q 3003 894 3003 1313 
Q 3003 1734 2745 1975 
Q 2488 2216 2034 2216 
z
M 1403 2484 
Q 997 2584 770 2862 
Q 544 3141 544 3541 
Q 544 4100 942 4425 
Q 1341 4750 2034 4750 
Q 2731 4750 3128 4425 
Q 3525 4100 3525 3541 
Q 3525 3141 3298 2862 
Q 3072 2584 2669 2484 
Q 3125 2378 3379 2068 
Q 3634 1759 3634 1313 
Q 3634 634 3220 271 
Q 2806 -91 2034 -91 
Q 1263 -91 848 271 
Q 434 634 434 1313 
Q 434 1759 690 2068 
Q 947 2378 1403 2484 
z
M 1172 3481 
Q 1172 3119 1398 2916 
Q 1625 2713 2034 2713 
Q 2441 2713 2670 2916 
Q 2900 3119 2900 3481 
Q 2900 3844 2670 4047 
Q 2441 4250 2034 4250 
Q 1625 4250 1398 4047 
Q 1172 3844 1172 3481 
z
" transform="scale(0.015625)"/>
       </defs>
       <use xlink:href="#DejaVuSans-2212"/>
       <use xlink:href="#DejaVuSans-38" x="83.789062"/>
      </g>
     </g>
    </g>
    <g id="xtick_5">
     <g id="line2d_5">
      <g>
       <use xlink:href="#ma0ce647976" x="437.975217" y="382.84" style="stroke: #000000; stroke-width: 0.8"/>
      </g>
     </g>
     <g id="text_5">
      <!-- −6 -->
      <g transform="translate(430.604123 397.438438) scale(0.1 -0.1)">
       <defs>
        <path id="DejaVuSans-36" d="M 2113 2584 
Q 1688 2584 1439 2293 
Q 1191 2003 1191 1497 
Q 1191 994 1439 701 
Q 1688 409 2113 409 
Q 2538 409 2786 701 
Q 3034 994 3034 1497 
Q 3034 2003 2786 2293 
Q 2538 2584 2113 2584 
z
M 3366 4563 
L 3366 3988 
Q 3128 4100 2886 4159 
Q 2644 4219 2406 4219 
Q 1781 4219 1451 3797 
Q 1122 3375 1075 2522 
Q 1259 2794 1537 2939 
Q 1816 3084 2150 3084 
Q 2853 3084 3261 2657 
Q 3669 2231 3669 1497 
Q 3669 778 3244 343 
Q 2819 -91 2113 -91 
Q 1303 -91 875 529 
Q 447 1150 447 2328 
Q 447 3434 972 4092 
Q 1497 4750 2381 4750 
Q 2619 4750 2861 4703 
Q 3103 4656 3366 4563 
z
" transform="scale(0.015625)"/>
       </defs>
       <use xlink:href="#DejaVuSans-2212"/>
       <use xlink:href="#DejaVuSans-36" x="83.789062"/>
      </g>
     </g>
    </g>
    <g id="xtick_6">
     <g id="line2d_6">
      <g>
       <use xlink:href="#ma0ce647976" x="518.754723" y="382.84" style="stroke: #000000; stroke-width: 0.8"/>
      </g>
     </g>
     <g id="text_6">
      <!-- −4 -->
      <g transform="translate(511.383629 397.438438) scale(0.1 -0.1)">
       <use xlink:href="#DejaVuSans-2212"/>
       <use xlink:href="#DejaVuSans-34" x="83.789062"/>
      </g>
     </g>
    </g>
    <g id="text_7">
     <!-- PPARD -->
     <g transform="translate(279.108163 417.195312) scale(0.18 -0.18)">
      <defs>
       <path id="DejaVuSans-50" d="M 1259 4147 
L 1259 2394 
L 2053 2394 
Q 2494 2394 2734 2622 
Q 2975 2850 2975 3272 
Q 2975 3691 2734 3919 
Q 2494 4147 2053 4147 
L 1259 4147 
z
M 628 4666 
L 2053 4666 
Q 2838 4666 3239 4311 
Q 3641 3956 3641 3272 
Q 3641 2581 3239 2228 
Q 2838 1875 2053 1875 
L 1259 1875 
L 1259 0 
L 628 0 
L 628 4666 
z
" transform="scale(0.015625)"/>
       <path id="DejaVuSans-41" d="M 2188 4044 
L 1331 1722 
L 3047 1722 
L 2188 4044 
z
M 1831 4666 
L 2547 4666 
L 4325 0 
L 3669 0 
L 3244 1197 
L 1141 1197 
L 716 0 
L 50 0 
L 1831 4666 
z
" transform="scale(0.015625)"/>
       <path id="DejaVuSans-52" d="M 2841 2188 
Q 3044 2119 3236 1894 
Q 3428 1669 3622 1275 
L 4263 0 
L 3584 0 
L 2988 1197 
Q 2756 1666 2539 1819 
Q 2322 1972 1947 1972 
L 1259 1972 
L 1259 0 
L 628 0 
L 628 4666 
L 2053 4666 
Q 2853 4666 3247 4331 
Q 3641 3997 3641 3322 
Q 3641 2881 3436 2590 
Q 3231 2300 2841 2188 
z
M 1259 4147 
L 1259 2491 
L 2053 2491 
Q 2509 2491 2742 2702 
Q 2975 2913 2975 3322 
Q 2975 3731 2742 3939 
Q 2509 4147 2053 4147 
L 1259 4147 
z
" transform="scale(0.015625)"/>
       <path id="DejaVuSans-44" d="M 1259 4147 
L 1259 519 
L 2022 519 
Q 2988 519 3436 956 
Q 3884 1394 3884 2338 
Q 3884 3275 3436 3711 
Q 2988 4147 2022 4147 
L 1259 4147 
z
M 628 4666 
L 1925 4666 
Q 3281 4666 3915 4102 
Q 4550 3538 4550 2338 
Q 4550 1131 3912 565 
Q 3275 0 1925 0 
L 628 0 
L 628 4666 
z
" transform="scale(0.015625)"/>
      </defs>
      <use xlink:href="#DejaVuSans-50"/>
      <use xlink:href="#DejaVuSans-50" x="60.302734"/>
      <use xlink:href="#DejaVuSans-41" x="114.230469"/>
      <use xlink:href="#DejaVuSans-52" x="182.638672"/>
      <use xlink:href="#DejaVuSans-44" x="252.121094"/>
     </g>
    </g>
   </g>
   <g id="matplotlib.axis_2">
    <g id="ytick_1">
     <g id="line2d_7">
      <defs>
       <path id="m88717bed85" d="M 0 0 
L -3.5 0 
" style="stroke: #000000; stroke-width: 0.8"/>
      </defs>
      <g>
       <use xlink:href="#m88717bed85" x="64.37" y="382.84" style="stroke: #000000; stroke-width: 0.8"/>
      </g>
     </g>
     <g id="text_8">
      <!-- 0 -->
      <g transform="translate(51.0075 386.639219) scale(0.1 -0.1)">
       <use xlink:href="#DejaVuSans-30"/>
      </g>
     </g>
    </g>
    <g id="ytick_2">
     <g id="line2d_8">
      <g>
       <use xlink:href="#m88717bed85" x="64.37" y="306.608544" style="stroke: #000000; stroke-width: 0.8"/>
      </g>
     </g>
     <g id="text_9">
      <!-- 2000 -->
      <g transform="translate(31.92 310.407762) scale(0.1 -0.1)">
       <use xlink:href="#DejaVuSans-32"/>
       <use xlink:href="#DejaVuSans-30" x="63.623047"/>
       <use xlink:href="#DejaVuSans-30" x="127.246094"/>
       <use xlink:href="#DejaVuSans-30" x="190.869141"/>
      </g>
     </g>
    </g>
    <g id="ytick_3">
     <g id="line2d_9">
      <g>
       <use xlink:href="#m88717bed85" x="64.37" y="230.377087" style="stroke: #000000; stroke-width: 0.8"/>
      </g>
     </g>
     <g id="text_10">
      <!-- 4000 -->
      <g transform="translate(31.92 234.176306) scale(0.1 -0.1)">
       <use xlink:href="#DejaVuSans-34"/>
       <use xlink:href="#DejaVuSans-30" x="63.623047"/>
       <use xlink:href="#DejaVuSans-30" x="127.246094"/>
       <use xlink:href="#DejaVuSans-30" x="190.869141"/>
      </g>
     </g>
    </g>
    <g id="ytick_4">
     <g id="line2d_10">
      <g>
       <use xlink:href="#m88717bed85" x="64.37" y="154.145631" style="stroke: #000000; stroke-width: 0.8"/>
      </g>
     </g>
     <g id="text_11">
      <!-- 6000 -->
      <g transform="translate(31.92 157.944849) scale(0.1 -0.1)">
       <use xlink:href="#DejaVuSans-36"/>
       <use xlink:href="#DejaVuSans-30" x="63.623047"/>
       <use xlink:href="#DejaVuSans-30" x="127.246094"/>
       <use xlink:href="#DejaVuSans-30" x="190.869141"/>
      </g>
     </g>
    </g>
    <g id="ytick_5">
     <g id="line2d_11">
      <g>
       <use xlink:href="#m88717bed85" x="64.37" y="77.914174" style="stroke: #000000; stroke-width: 0.8"/>
      </g>
     </g>
     <g id="text_12">
      <!-- 8000 -->
      <g transform="translate(31.92 81.713393) scale(0.1 -0.1)">
       <use xlink:href="#DejaVuSans-38"/>
       <use xlink:href="#DejaVuSans-30" x="63.623047"/>
       <use xlink:href="#DejaVuSans-30" x="127.246094"/>
       <use xlink:href="#DejaVuSans-30" x="190.869141"/>
      </g>
     </g>
    </g>
    <g id="text_13">
     <!-- Count -->
     <g transform="translate(24.176563 223.547188) rotate(-90) scale(0.18 -0.18)">
      <defs>
       <path id="DejaVuSans-43" d="M 4122 4306 
L 4122 3641 
Q 3803 3938 3442 4084 
Q 3081 4231 2675 4231 
Q 1875 4231 1450 3742 
Q 1025 3253 1025 2328 
Q 1025 1406 1450 917 
Q 1875 428 2675 428 
Q 3081 428 3442 575 
Q 3803 722 4122 1019 
L 4122 359 
Q 3791 134 3420 21 
Q 3050 -91 2638 -91 
Q 1578 -91 968 557 
Q 359 1206 359 2328 
Q 359 3453 968 4101 
Q 1578 4750 2638 4750 
Q 3056 4750 3426 4639 
Q 3797 4528 4122 4306 
z
" transform="scale(0.015625)"/>
       <path id="DejaVuSans-6f" d="M 1959 3097 
Q 1497 3097 1228 2736 
Q 959 2375 959 1747 
Q 959 1119 1226 758 
Q 1494 397 1959 397 
Q 2419 397 2687 759 
Q 2956 1122 2956 1747 
Q 2956 2369 2687 2733 
Q 2419 3097 1959 3097 
z
M 1959 3584 
Q 2709 3584 3137 3096 
Q 3566 2609 3566 1747 
Q 3566 888 3137 398 
Q 2709 -91 1959 -91 
Q 1206 -91 779 398 
Q 353 888 353 1747 
Q 353 2609 779 3096 
Q 1206 3584 1959 3584 
z
" transform="scale(0.015625)"/>
       <path id="DejaVuSans-75" d="M 544 1381 
L 544 3500 
L 1119 3500 
L 1119 1403 
Q 1119 906 1312 657 
Q 1506 409 1894 409 
Q 2359 409 2629 706 
Q 2900 1003 2900 1516 
L 2900 3500 
L 3475 3500 
L 3475 0 
L 2900 0 
L 2900 538 
Q 2691 219 2414 64 
Q 2138 -91 1772 -91 
Q 1169 -91 856 284 
Q 544 659 544 1381 
z
M 1991 3584 
L 1991 3584 
z
" transform="scale(0.015625)"/>
       <path id="DejaVuSans-6e" d="M 3513 2113 
L 3513 0 
L 2938 0 
L 2938 2094 
Q 2938 2591 2744 2837 
Q 2550 3084 2163 3084 
Q 1697 3084 1428 2787 
Q 1159 2491 1159 1978 
L 1159 0 
L 581 0 
L 581 3500 
L 1159 3500 
L 1159 2956 
Q 1366 3272 1645 3428 
Q 1925 3584 2291 3584 
Q 2894 3584 3203 3211 
Q 3513 2838 3513 2113 
z
" transform="scale(0.015625)"/>
       <path id="DejaVuSans-74" d="M 1172 4494 
L 1172 3500 
L 2356 3500 
L 2356 3053 
L 1172 3053 
L 1172 1153 
Q 1172 725 1289 603 
Q 1406 481 1766 481 
L 2356 481 
L 2356 0 
L 1766 0 
Q 1100 0 847 248 
Q 594 497 594 1153 
L 594 3053 
L 172 3053 
L 172 3500 
L 594 3500 
L 594 4494 
L 1172 4494 
z
" transform="scale(0.015625)"/>
      </defs>
      <use xlink:href="#DejaVuSans-43"/>
      <use xlink:href="#DejaVuSans-6f" x="69.824219"/>
      <use xlink:href="#DejaVuSans-75" x="131.005859"/>
      <use xlink:href="#DejaVuSans-6e" x="194.384766"/>
      <use xlink:href="#DejaVuSans-74" x="257.763672"/>
     </g>
    </g>
   </g>
   <g id="line2d_12">
    <path d="M 280.455179 382.84 
L 280.455179 28.51619 
" clip-path="url(#p1846b852a2)" style="fill: none; stroke: #ff0000; stroke-width: 1.6; stroke-linecap: square"/>
   </g>
   <g id="patch_238">
    <path d="M 64.37 382.84 
L 64.37 10.8 
" style="fill: none; stroke: #000000; stroke-width: 0.8; stroke-linejoin: miter; stroke-linecap: square"/>
   </g>
   <g id="patch_239">
    <path d="M 553.086013 382.84 
L 553.086013 10.8 
" style="fill: none; stroke: #000000; stroke-width: 0.8; stroke-linejoin: miter; stroke-linecap: square"/>
   </g>
   <g id="patch_240">
    <path d="M 64.37 382.84 
L 553.086013 382.84 
" style="fill: none; stroke: #000000; stroke-width: 0.8; stroke-linejoin: miter; stroke-linecap: square"/>
   </g>
   <g id="patch_241">
    <path d="M 64.37 10.8 
L 553.086013 10.8 
" style="fill: none; stroke: #000000; stroke-width: 0.8; stroke-linejoin: miter; stroke-linecap: square"/>
   </g>
   <g id="text_14">
    <!-- $\mu_20 = -8.775$ -->
    <g transform="translate(406.471209 61.649937) scale(0.21 -0.21)">
     <defs>
      <path id="DejaVuSans-Oblique-3bc" d="M -84 -1331 
L 856 3500 
L 1434 3500 
L 1009 1322 
Q 997 1256 987 1175 
Q 978 1094 978 1013 
Q 978 722 1161 565 
Q 1344 409 1684 409 
Q 2147 409 2431 671 
Q 2716 934 2816 1459 
L 3213 3500 
L 3788 3500 
L 3266 809 
Q 3253 750 3248 706 
Q 3244 663 3244 628 
Q 3244 531 3283 486 
Q 3322 441 3406 441 
Q 3438 441 3492 456 
Q 3547 472 3647 513 
L 3559 50 
Q 3422 -19 3297 -55 
Q 3172 -91 3053 -91 
Q 2847 -91 2730 40 
Q 2613 172 2613 403 
Q 2438 153 2195 31 
Q 1953 -91 1625 -91 
Q 1334 -91 1117 43 
Q 900 178 831 397 
L 494 -1331 
L -84 -1331 
z
" transform="scale(0.015625)"/>
      <path id="DejaVuSans-3d" d="M 678 2906 
L 4684 2906 
L 4684 2381 
L 678 2381 
L 678 2906 
z
M 678 1631 
L 4684 1631 
L 4684 1100 
L 678 1100 
L 678 1631 
z
" transform="scale(0.015625)"/>
      <path id="DejaVuSans-2e" d="M 684 794 
L 1344 794 
L 1344 0 
L 684 0 
L 684 794 
z
" transform="scale(0.015625)"/>
      <path id="DejaVuSans-37" d="M 525 4666 
L 3525 4666 
L 3525 4397 
L 1831 0 
L 1172 0 
L 2766 4134 
L 525 4134 
L 525 4666 
z
" transform="scale(0.015625)"/>
      <path id="DejaVuSans-35" d="M 691 4666 
L 3169 4666 
L 3169 4134 
L 1269 4134 
L 1269 2991 
Q 1406 3038 1543 3061 
Q 1681 3084 1819 3084 
Q 2600 3084 3056 2656 
Q 3513 2228 3513 1497 
Q 3513 744 3044 326 
Q 2575 -91 1722 -91 
Q 1428 -91 1123 -41 
Q 819 9 494 109 
L 494 744 
Q 775 591 1075 516 
Q 1375 441 1709 441 
Q 2250 441 2565 725 
Q 2881 1009 2881 1497 
Q 2881 1984 2565 2268 
Q 2250 2553 1709 2553 
Q 1456 2553 1204 2497 
Q 953 2441 691 2322 
L 691 4666 
z
" transform="scale(0.015625)"/>
     </defs>
     <use xlink:href="#DejaVuSans-Oblique-3bc" transform="translate(0 0.78125)"/>
     <use xlink:href="#DejaVuSans-32" transform="translate(63.623047 -15.625) scale(0.7)"/>
     <use xlink:href="#DejaVuSans-30" transform="translate(110.893555 0.78125)"/>
     <use xlink:href="#DejaVuSans-3d" transform="translate(193.999023 0.78125)"/>
     <use xlink:href="#DejaVuSans-2212" transform="translate(316.75293 0.78125)"/>
     <use xlink:href="#DejaVuSans-38" transform="translate(420.024414 0.78125)"/>
     <use xlink:href="#DejaVuSans-2e" transform="translate(483.647461 0.78125)"/>
     <use xlink:href="#DejaVuSans-37" transform="translate(507.68457 0.78125)"/>
     <use xlink:href="#DejaVuSans-37" transform="translate(569.557617 0.78125)"/>
     <use xlink:href="#DejaVuSans-35" transform="translate(633.180664 0.78125)"/>
    </g>
    <!-- $\sigma_20 = 1.126$ -->
    <g transform="translate(406.471209 85.208) scale(0.21 -0.21)">
     <defs>
      <path id="DejaVuSans-Oblique-3c3" d="M 2219 3044 
Q 1744 3044 1422 2700 
Q 1081 2341 969 1747 
Q 844 1119 1044 756 
Q 1241 397 1706 397 
Q 2166 397 2503 759 
Q 2844 1122 2966 1747 
Q 3075 2319 2881 2700 
Q 2700 3044 2219 3044 
z
M 2309 3503 
L 4219 3500 
L 4106 2925 
L 3463 2925 
Q 3706 2438 3575 1747 
Q 3406 888 2884 400 
Q 2359 -91 1609 -91 
Q 856 -91 525 400 
Q 194 888 363 1747 
Q 528 2609 1050 3097 
Q 1484 3503 2309 3503 
z
" transform="scale(0.015625)"/>
     </defs>
     <use xlink:href="#DejaVuSans-Oblique-3c3" transform="translate(0 0.78125)"/>
     <use xlink:href="#DejaVuSans-32" transform="translate(63.378906 -15.625) scale(0.7)"/>
     <use xlink:href="#DejaVuSans-30" transform="translate(110.649414 0.78125)"/>
     <use xlink:href="#DejaVuSans-3d" transform="translate(193.754883 0.78125)"/>
     <use xlink:href="#DejaVuSans-31" transform="translate(297.026367 0.78125)"/>
     <use xlink:href="#DejaVuSans-2e" transform="translate(360.649414 0.78125)"/>
     <use xlink:href="#DejaVuSans-31" transform="translate(392.436523 0.78125)"/>
     <use xlink:href="#DejaVuSans-32" transform="translate(456.05957 0.78125)"/>
     <use xlink:href="#DejaVuSans-36" transform="translate(519.682617 0.78125)"/>
    </g>
   </g>
  </g>
 </g>
 <defs>
  <clipPath id="p1846b852a2">
   <rect x="64.37" y="10.8" width="488.716013" height="372.04"/>
  </clipPath>
 </defs>
</svg>
