<?xml version="1.0" encoding="utf-8" standalone="no"?>
<!DOCTYPE svg PUBLIC "-//W3C//DTD SVG 1.1//EN"
  "http://www.w3.org/Graphics/SVG/1.1/DTD/svg11.dtd">
<svg xmlns:xlink="http://www.w3.org/1999/xlink" width="576pt" height="432pt" viewBox="0 0 576 432" xmlns="http://www.w3.org/2000/svg" version="1.1">
 <metadata>
  <rdf:RDF xmlns:dc="http://purl.org/dc/elements/1.1/" xmlns:cc="http://creativecommons.org/ns#" xmlns:rdf="http://www.w3.org/1999/02/22-rdf-syntax-ns#">
   <cc:Work>
    <dc:type rdf:resource="http://purl.org/dc/dcmitype/StillImage"/>
    <dc:date>2024-09-05T19:41:16.616193</dc:date>
    <dc:format>image/svg+xml</dc:format>
    <dc:creator>
     <cc:Agent>
      <dc:title>Matplotlib v3.7.2, https://matplotlib.org/</dc:title>
     </cc:Agent>
    </dc:creator>
   </cc:Work>
  </rdf:RDF>
 </metadata>
 <defs>
  <style type="text/css">*{stroke-linejoin: round; stroke-linecap: butt}</style>
 </defs>
 <g id="figure_1">
  <g id="patch_1">
   <path d="M 0 432 
L 576 432 
L 576 0 
L 0 0 
z
" style="fill: #ffffff"/>
  </g>
  <g id="axes_1">
   <g id="patch_2">
    <path d="M 70.67 382.84 
L 563.997766 382.84 
L 563.997766 10.8 
L 70.67 10.8 
z
" style="fill: #ffffff"/>
   </g>
   <g id="patch_3">
    <path d="M 93.093989 382.84 
L 94.866637 382.84 
L 94.866637 382.808599 
L 93.093989 382.808599 
z
" clip-path="url(#p1b2276d497)" style="fill: #1f77b4"/>
   </g>
   <g id="patch_4">
    <path d="M 94.866637 382.84 
L 96.639284 382.84 
L 96.639284 382.84 
L 94.866637 382.84 
z
" clip-path="url(#p1b2276d497)" style="fill: #1f77b4"/>
   </g>
   <g id="patch_5">
    <path d="M 96.639284 382.84 
L 98.411932 382.84 
L 98.411932 382.84 
L 96.639284 382.84 
z
" clip-path="url(#p1b2276d497)" style="fill: #1f77b4"/>
   </g>
   <g id="patch_6">
    <path d="M 98.411932 382.84 
L 100.184579 382.84 
L 100.184579 382.84 
L 98.411932 382.84 
z
" clip-path="url(#p1b2276d497)" style="fill: #1f77b4"/>
   </g>
   <g id="patch_7">
    <path d="M 100.184579 382.84 
L 101.957226 382.84 
L 101.957226 382.84 
L 100.184579 382.84 
z
" clip-path="url(#p1b2276d497)" style="fill: #1f77b4"/>
   </g>
   <g id="patch_8">
    <path d="M 101.957226 382.84 
L 103.729874 382.84 
L 103.729874 382.808599 
L 101.957226 382.808599 
z
" clip-path="url(#p1b2276d497)" style="fill: #1f77b4"/>
   </g>
   <g id="patch_9">
    <path d="M 103.729874 382.84 
L 105.502521 382.84 
L 105.502521 382.84 
L 103.729874 382.84 
z
" clip-path="url(#p1b2276d497)" style="fill: #1f77b4"/>
   </g>
   <g id="patch_10">
    <path d="M 105.502521 382.84 
L 107.275168 382.84 
L 107.275168 382.84 
L 105.502521 382.84 
z
" clip-path="url(#p1b2276d497)" style="fill: #1f77b4"/>
   </g>
   <g id="patch_11">
    <path d="M 107.275168 382.84 
L 109.047816 382.84 
L 109.047816 382.84 
L 107.275168 382.84 
z
" clip-path="url(#p1b2276d497)" style="fill: #1f77b4"/>
   </g>
   <g id="patch_12">
    <path d="M 109.047816 382.84 
L 110.820463 382.84 
L 110.820463 382.84 
L 109.047816 382.84 
z
" clip-path="url(#p1b2276d497)" style="fill: #1f77b4"/>
   </g>
   <g id="patch_13">
    <path d="M 110.820463 382.84 
L 112.593111 382.84 
L 112.593111 382.84 
L 110.820463 382.84 
z
" clip-path="url(#p1b2276d497)" style="fill: #1f77b4"/>
   </g>
   <g id="patch_14">
    <path d="M 112.593111 382.84 
L 114.365758 382.84 
L 114.365758 382.84 
L 112.593111 382.84 
z
" clip-path="url(#p1b2276d497)" style="fill: #1f77b4"/>
   </g>
   <g id="patch_15">
    <path d="M 114.365758 382.84 
L 116.138405 382.84 
L 116.138405 382.84 
L 114.365758 382.84 
z
" clip-path="url(#p1b2276d497)" style="fill: #1f77b4"/>
   </g>
   <g id="patch_16">
    <path d="M 116.138405 382.84 
L 117.911053 382.84 
L 117.911053 382.84 
L 116.138405 382.84 
z
" clip-path="url(#p1b2276d497)" style="fill: #1f77b4"/>
   </g>
   <g id="patch_17">
    <path d="M 117.911053 382.84 
L 119.6837 382.84 
L 119.6837 382.84 
L 117.911053 382.84 
z
" clip-path="url(#p1b2276d497)" style="fill: #1f77b4"/>
   </g>
   <g id="patch_18">
    <path d="M 119.6837 382.84 
L 121.456347 382.84 
L 121.456347 382.777199 
L 119.6837 382.777199 
z
" clip-path="url(#p1b2276d497)" style="fill: #1f77b4"/>
   </g>
   <g id="patch_19">
    <path d="M 121.456347 382.84 
L 123.228995 382.84 
L 123.228995 382.84 
L 121.456347 382.84 
z
" clip-path="url(#p1b2276d497)" style="fill: #1f77b4"/>
   </g>
   <g id="patch_20">
    <path d="M 123.228995 382.84 
L 125.001642 382.84 
L 125.001642 382.84 
L 123.228995 382.84 
z
" clip-path="url(#p1b2276d497)" style="fill: #1f77b4"/>
   </g>
   <g id="patch_21">
    <path d="M 125.001642 382.84 
L 126.77429 382.84 
L 126.77429 382.808599 
L 125.001642 382.808599 
z
" clip-path="url(#p1b2276d497)" style="fill: #1f77b4"/>
   </g>
   <g id="patch_22">
    <path d="M 126.77429 382.84 
L 128.546937 382.84 
L 128.546937 382.84 
L 126.77429 382.84 
z
" clip-path="url(#p1b2276d497)" style="fill: #1f77b4"/>
   </g>
   <g id="patch_23">
    <path d="M 128.546937 382.84 
L 130.319584 382.84 
L 130.319584 382.84 
L 128.546937 382.84 
z
" clip-path="url(#p1b2276d497)" style="fill: #1f77b4"/>
   </g>
   <g id="patch_24">
    <path d="M 130.319584 382.84 
L 132.092232 382.84 
L 132.092232 382.84 
L 130.319584 382.84 
z
" clip-path="url(#p1b2276d497)" style="fill: #1f77b4"/>
   </g>
   <g id="patch_25">
    <path d="M 132.092232 382.84 
L 133.864879 382.84 
L 133.864879 382.84 
L 132.092232 382.84 
z
" clip-path="url(#p1b2276d497)" style="fill: #1f77b4"/>
   </g>
   <g id="patch_26">
    <path d="M 133.864879 382.84 
L 135.637527 382.84 
L 135.637527 382.808599 
L 133.864879 382.808599 
z
" clip-path="url(#p1b2276d497)" style="fill: #1f77b4"/>
   </g>
   <g id="patch_27">
    <path d="M 135.637527 382.84 
L 137.410174 382.84 
L 137.410174 382.84 
L 135.637527 382.84 
z
" clip-path="url(#p1b2276d497)" style="fill: #1f77b4"/>
   </g>
   <g id="patch_28">
    <path d="M 137.410174 382.84 
L 139.182821 382.84 
L 139.182821 382.84 
L 137.410174 382.84 
z
" clip-path="url(#p1b2276d497)" style="fill: #1f77b4"/>
   </g>
   <g id="patch_29">
    <path d="M 139.182821 382.84 
L 140.955469 382.84 
L 140.955469 382.777199 
L 139.182821 382.777199 
z
" clip-path="url(#p1b2276d497)" style="fill: #1f77b4"/>
   </g>
   <g id="patch_30">
    <path d="M 140.955469 382.84 
L 142.728116 382.84 
L 142.728116 382.84 
L 140.955469 382.84 
z
" clip-path="url(#p1b2276d497)" style="fill: #1f77b4"/>
   </g>
   <g id="patch_31">
    <path d="M 142.728116 382.84 
L 144.500763 382.84 
L 144.500763 382.84 
L 142.728116 382.84 
z
" clip-path="url(#p1b2276d497)" style="fill: #1f77b4"/>
   </g>
   <g id="patch_32">
    <path d="M 144.500763 382.84 
L 146.273411 382.84 
L 146.273411 382.714398 
L 144.500763 382.714398 
z
" clip-path="url(#p1b2276d497)" style="fill: #1f77b4"/>
   </g>
   <g id="patch_33">
    <path d="M 146.273411 382.84 
L 148.046058 382.84 
L 148.046058 382.84 
L 146.273411 382.84 
z
" clip-path="url(#p1b2276d497)" style="fill: #1f77b4"/>
   </g>
   <g id="patch_34">
    <path d="M 148.046058 382.84 
L 149.818706 382.84 
L 149.818706 382.557395 
L 148.046058 382.557395 
z
" clip-path="url(#p1b2276d497)" style="fill: #1f77b4"/>
   </g>
   <g id="patch_35">
    <path d="M 149.818706 382.84 
L 151.591353 382.84 
L 151.591353 382.84 
L 149.818706 382.84 
z
" clip-path="url(#p1b2276d497)" style="fill: #1f77b4"/>
   </g>
   <g id="patch_36">
    <path d="M 151.591353 382.84 
L 153.364 382.84 
L 153.364 382.84 
L 151.591353 382.84 
z
" clip-path="url(#p1b2276d497)" style="fill: #1f77b4"/>
   </g>
   <g id="patch_37">
    <path d="M 153.364 382.84 
L 155.136648 382.84 
L 155.136648 382.557395 
L 153.364 382.557395 
z
" clip-path="url(#p1b2276d497)" style="fill: #1f77b4"/>
   </g>
   <g id="patch_38">
    <path d="M 155.136648 382.84 
L 156.909295 382.84 
L 156.909295 382.84 
L 155.136648 382.84 
z
" clip-path="url(#p1b2276d497)" style="fill: #1f77b4"/>
   </g>
   <g id="patch_39">
    <path d="M 156.909295 382.84 
L 158.681942 382.84 
L 158.681942 382.84 
L 156.909295 382.84 
z
" clip-path="url(#p1b2276d497)" style="fill: #1f77b4"/>
   </g>
   <g id="patch_40">
    <path d="M 158.681942 382.84 
L 160.45459 382.84 
L 160.45459 382.525994 
L 158.681942 382.525994 
z
" clip-path="url(#p1b2276d497)" style="fill: #1f77b4"/>
   </g>
   <g id="patch_41">
    <path d="M 160.45459 382.84 
L 162.227237 382.84 
L 162.227237 382.84 
L 160.45459 382.84 
z
" clip-path="url(#p1b2276d497)" style="fill: #1f77b4"/>
   </g>
   <g id="patch_42">
    <path d="M 162.227237 382.84 
L 163.999885 382.84 
L 163.999885 382.306191 
L 162.227237 382.306191 
z
" clip-path="url(#p1b2276d497)" style="fill: #1f77b4"/>
   </g>
   <g id="patch_43">
    <path d="M 163.999885 382.84 
L 165.772532 382.84 
L 165.772532 382.84 
L 163.999885 382.84 
z
" clip-path="url(#p1b2276d497)" style="fill: #1f77b4"/>
   </g>
   <g id="patch_44">
    <path d="M 165.772532 382.84 
L 167.545179 382.84 
L 167.545179 382.84 
L 165.772532 382.84 
z
" clip-path="url(#p1b2276d497)" style="fill: #1f77b4"/>
   </g>
   <g id="patch_45">
    <path d="M 167.545179 382.84 
L 169.317827 382.84 
L 169.317827 382.023586 
L 167.545179 382.023586 
z
" clip-path="url(#p1b2276d497)" style="fill: #1f77b4"/>
   </g>
   <g id="patch_46">
    <path d="M 169.317827 382.84 
L 171.090474 382.84 
L 171.090474 382.84 
L 169.317827 382.84 
z
" clip-path="url(#p1b2276d497)" style="fill: #1f77b4"/>
   </g>
   <g id="patch_47">
    <path d="M 171.090474 382.84 
L 172.863122 382.84 
L 172.863122 382.84 
L 171.090474 382.84 
z
" clip-path="url(#p1b2276d497)" style="fill: #1f77b4"/>
   </g>
   <g id="patch_48">
    <path d="M 172.863122 382.84 
L 174.635769 382.84 
L 174.635769 381.583978 
L 172.863122 381.583978 
z
" clip-path="url(#p1b2276d497)" style="fill: #1f77b4"/>
   </g>
   <g id="patch_49">
    <path d="M 174.635769 382.84 
L 176.408416 382.84 
L 176.408416 382.84 
L 174.635769 382.84 
z
" clip-path="url(#p1b2276d497)" style="fill: #1f77b4"/>
   </g>
   <g id="patch_50">
    <path d="M 176.408416 382.84 
L 178.181064 382.84 
L 178.181064 381.67818 
L 176.408416 381.67818 
z
" clip-path="url(#p1b2276d497)" style="fill: #1f77b4"/>
   </g>
   <g id="patch_51">
    <path d="M 178.181064 382.84 
L 179.953711 382.84 
L 179.953711 382.84 
L 178.181064 382.84 
z
" clip-path="url(#p1b2276d497)" style="fill: #1f77b4"/>
   </g>
   <g id="patch_52">
    <path d="M 179.953711 382.84 
L 181.726358 382.84 
L 181.726358 382.84 
L 179.953711 382.84 
z
" clip-path="url(#p1b2276d497)" style="fill: #1f77b4"/>
   </g>
   <g id="patch_53">
    <path d="M 181.726358 382.84 
L 183.499006 382.84 
L 183.499006 381.238572 
L 181.726358 381.238572 
z
" clip-path="url(#p1b2276d497)" style="fill: #1f77b4"/>
   </g>
   <g id="patch_54">
    <path d="M 183.499006 382.84 
L 185.271653 382.84 
L 185.271653 382.84 
L 183.499006 382.84 
z
" clip-path="url(#p1b2276d497)" style="fill: #1f77b4"/>
   </g>
   <g id="patch_55">
    <path d="M 185.271653 382.84 
L 187.044301 382.84 
L 187.044301 382.84 
L 185.271653 382.84 
z
" clip-path="url(#p1b2276d497)" style="fill: #1f77b4"/>
   </g>
   <g id="patch_56">
    <path d="M 187.044301 382.84 
L 188.816948 382.84 
L 188.816948 380.704763 
L 187.044301 380.704763 
z
" clip-path="url(#p1b2276d497)" style="fill: #1f77b4"/>
   </g>
   <g id="patch_57">
    <path d="M 188.816948 382.84 
L 190.589595 382.84 
L 190.589595 382.84 
L 188.816948 382.84 
z
" clip-path="url(#p1b2276d497)" style="fill: #1f77b4"/>
   </g>
   <g id="patch_58">
    <path d="M 190.589595 382.84 
L 192.362243 382.84 
L 192.362243 379.888348 
L 190.589595 379.888348 
z
" clip-path="url(#p1b2276d497)" style="fill: #1f77b4"/>
   </g>
   <g id="patch_59">
    <path d="M 192.362243 382.84 
L 194.13489 382.84 
L 194.13489 382.84 
L 192.362243 382.84 
z
" clip-path="url(#p1b2276d497)" style="fill: #1f77b4"/>
   </g>
   <g id="patch_60">
    <path d="M 194.13489 382.84 
L 195.907537 382.84 
L 195.907537 382.84 
L 194.13489 382.84 
z
" clip-path="url(#p1b2276d497)" style="fill: #1f77b4"/>
   </g>
   <g id="patch_61">
    <path d="M 195.907537 382.84 
L 197.680185 382.84 
L 197.680185 378.506724 
L 195.907537 378.506724 
z
" clip-path="url(#p1b2276d497)" style="fill: #1f77b4"/>
   </g>
   <g id="patch_62">
    <path d="M 197.680185 382.84 
L 199.452832 382.84 
L 199.452832 382.84 
L 197.680185 382.84 
z
" clip-path="url(#p1b2276d497)" style="fill: #1f77b4"/>
   </g>
   <g id="patch_63">
    <path d="M 199.452832 382.84 
L 201.22548 382.84 
L 201.22548 382.84 
L 199.452832 382.84 
z
" clip-path="url(#p1b2276d497)" style="fill: #1f77b4"/>
   </g>
   <g id="patch_64">
    <path d="M 201.22548 382.84 
L 202.998127 382.84 
L 202.998127 377.219301 
L 201.22548 377.219301 
z
" clip-path="url(#p1b2276d497)" style="fill: #1f77b4"/>
   </g>
   <g id="patch_65">
    <path d="M 202.998127 382.84 
L 204.770774 382.84 
L 204.770774 382.84 
L 202.998127 382.84 
z
" clip-path="url(#p1b2276d497)" style="fill: #1f77b4"/>
   </g>
   <g id="patch_66">
    <path d="M 204.770774 382.84 
L 206.543422 382.84 
L 206.543422 375.460871 
L 204.770774 375.460871 
z
" clip-path="url(#p1b2276d497)" style="fill: #1f77b4"/>
   </g>
   <g id="patch_67">
    <path d="M 206.543422 382.84 
L 208.316069 382.84 
L 208.316069 382.84 
L 206.543422 382.84 
z
" clip-path="url(#p1b2276d497)" style="fill: #1f77b4"/>
   </g>
   <g id="patch_68">
    <path d="M 208.316069 382.84 
L 210.088717 382.84 
L 210.088717 382.84 
L 208.316069 382.84 
z
" clip-path="url(#p1b2276d497)" style="fill: #1f77b4"/>
   </g>
   <g id="patch_69">
    <path d="M 210.088717 382.84 
L 211.861364 382.84 
L 211.861364 373.13723 
L 210.088717 373.13723 
z
" clip-path="url(#p1b2276d497)" style="fill: #1f77b4"/>
   </g>
   <g id="patch_70">
    <path d="M 211.861364 382.84 
L 213.634011 382.84 
L 213.634011 382.84 
L 211.861364 382.84 
z
" clip-path="url(#p1b2276d497)" style="fill: #1f77b4"/>
   </g>
   <g id="patch_71">
    <path d="M 213.634011 382.84 
L 215.406659 382.84 
L 215.406659 382.84 
L 213.634011 382.84 
z
" clip-path="url(#p1b2276d497)" style="fill: #1f77b4"/>
   </g>
   <g id="patch_72">
    <path d="M 215.406659 382.84 
L 217.179306 382.84 
L 217.179306 371.378799 
L 215.406659 371.378799 
z
" clip-path="url(#p1b2276d497)" style="fill: #1f77b4"/>
   </g>
   <g id="patch_73">
    <path d="M 217.179306 382.84 
L 218.951953 382.84 
L 218.951953 382.84 
L 217.179306 382.84 
z
" clip-path="url(#p1b2276d497)" style="fill: #1f77b4"/>
   </g>
   <g id="patch_74">
    <path d="M 218.951953 382.84 
L 220.724601 382.84 
L 220.724601 367.579333 
L 218.951953 367.579333 
z
" clip-path="url(#p1b2276d497)" style="fill: #1f77b4"/>
   </g>
   <g id="patch_75">
    <path d="M 220.724601 382.84 
L 222.497248 382.84 
L 222.497248 382.84 
L 220.724601 382.84 
z
" clip-path="url(#p1b2276d497)" style="fill: #1f77b4"/>
   </g>
   <g id="patch_76">
    <path d="M 222.497248 382.84 
L 224.269896 382.84 
L 224.269896 382.84 
L 222.497248 382.84 
z
" clip-path="url(#p1b2276d497)" style="fill: #1f77b4"/>
   </g>
   <g id="patch_77">
    <path d="M 224.269896 382.84 
L 226.042543 382.84 
L 226.042543 365.287092 
L 224.269896 365.287092 
z
" clip-path="url(#p1b2276d497)" style="fill: #1f77b4"/>
   </g>
   <g id="patch_78">
    <path d="M 226.042543 382.84 
L 227.81519 382.84 
L 227.81519 382.84 
L 226.042543 382.84 
z
" clip-path="url(#p1b2276d497)" style="fill: #1f77b4"/>
   </g>
   <g id="patch_79">
    <path d="M 227.81519 382.84 
L 229.587838 382.84 
L 229.587838 382.84 
L 227.81519 382.84 
z
" clip-path="url(#p1b2276d497)" style="fill: #1f77b4"/>
   </g>
   <g id="patch_80">
    <path d="M 229.587838 382.84 
L 231.360485 382.84 
L 231.360485 359.195386 
L 229.587838 359.195386 
z
" clip-path="url(#p1b2276d497)" style="fill: #1f77b4"/>
   </g>
   <g id="patch_81">
    <path d="M 231.360485 382.84 
L 233.133132 382.84 
L 233.133132 382.84 
L 231.360485 382.84 
z
" clip-path="url(#p1b2276d497)" style="fill: #1f77b4"/>
   </g>
   <g id="patch_82">
    <path d="M 233.133132 382.84 
L 234.90578 382.84 
L 234.90578 355.364518 
L 233.133132 355.364518 
z
" clip-path="url(#p1b2276d497)" style="fill: #1f77b4"/>
   </g>
   <g id="patch_83">
    <path d="M 234.90578 382.84 
L 236.678427 382.84 
L 236.678427 382.84 
L 234.90578 382.84 
z
" clip-path="url(#p1b2276d497)" style="fill: #1f77b4"/>
   </g>
   <g id="patch_84">
    <path d="M 236.678427 382.84 
L 238.451075 382.84 
L 238.451075 382.84 
L 236.678427 382.84 
z
" clip-path="url(#p1b2276d497)" style="fill: #1f77b4"/>
   </g>
   <g id="patch_85">
    <path d="M 238.451075 382.84 
L 240.223722 382.84 
L 240.223722 345.033737 
L 238.451075 345.033737 
z
" clip-path="url(#p1b2276d497)" style="fill: #1f77b4"/>
   </g>
   <g id="patch_86">
    <path d="M 240.223722 382.84 
L 241.996369 382.84 
L 241.996369 382.84 
L 240.223722 382.84 
z
" clip-path="url(#p1b2276d497)" style="fill: #1f77b4"/>
   </g>
   <g id="patch_87">
    <path d="M 241.996369 382.84 
L 243.769017 382.84 
L 243.769017 382.84 
L 241.996369 382.84 
z
" clip-path="url(#p1b2276d497)" style="fill: #1f77b4"/>
   </g>
   <g id="patch_88">
    <path d="M 243.769017 382.84 
L 245.541664 382.84 
L 245.541664 338.753627 
L 243.769017 338.753627 
z
" clip-path="url(#p1b2276d497)" style="fill: #1f77b4"/>
   </g>
   <g id="patch_89">
    <path d="M 245.541664 382.84 
L 247.314312 382.84 
L 247.314312 382.84 
L 245.541664 382.84 
z
" clip-path="url(#p1b2276d497)" style="fill: #1f77b4"/>
   </g>
   <g id="patch_90">
    <path d="M 247.314312 382.84 
L 249.086959 382.84 
L 249.086959 330.432482 
L 247.314312 330.432482 
z
" clip-path="url(#p1b2276d497)" style="fill: #1f77b4"/>
   </g>
   <g id="patch_91">
    <path d="M 249.086959 382.84 
L 250.859606 382.84 
L 250.859606 382.84 
L 249.086959 382.84 
z
" clip-path="url(#p1b2276d497)" style="fill: #1f77b4"/>
   </g>
   <g id="patch_92">
    <path d="M 250.859606 382.84 
L 252.632254 382.84 
L 252.632254 382.84 
L 250.859606 382.84 
z
" clip-path="url(#p1b2276d497)" style="fill: #1f77b4"/>
   </g>
   <g id="patch_93">
    <path d="M 252.632254 382.84 
L 254.404901 382.84 
L 254.404901 316.270833 
L 252.632254 316.270833 
z
" clip-path="url(#p1b2276d497)" style="fill: #1f77b4"/>
   </g>
   <g id="patch_94">
    <path d="M 254.404901 382.84 
L 256.177548 382.84 
L 256.177548 382.84 
L 254.404901 382.84 
z
" clip-path="url(#p1b2276d497)" style="fill: #1f77b4"/>
   </g>
   <g id="patch_95">
    <path d="M 256.177548 382.84 
L 257.950196 382.84 
L 257.950196 382.84 
L 256.177548 382.84 
z
" clip-path="url(#p1b2276d497)" style="fill: #1f77b4"/>
   </g>
   <g id="patch_96">
    <path d="M 257.950196 382.84 
L 259.722843 382.84 
L 259.722843 305.092237 
L 257.950196 305.092237 
z
" clip-path="url(#p1b2276d497)" style="fill: #1f77b4"/>
   </g>
   <g id="patch_97">
    <path d="M 259.722843 382.84 
L 261.495491 382.84 
L 261.495491 382.84 
L 259.722843 382.84 
z
" clip-path="url(#p1b2276d497)" style="fill: #1f77b4"/>
   </g>
   <g id="patch_98">
    <path d="M 261.495491 382.84 
L 263.268138 382.84 
L 263.268138 291.056191 
L 261.495491 291.056191 
z
" clip-path="url(#p1b2276d497)" style="fill: #1f77b4"/>
   </g>
   <g id="patch_99">
    <path d="M 263.268138 382.84 
L 265.040785 382.84 
L 265.040785 382.84 
L 263.268138 382.84 
z
" clip-path="url(#p1b2276d497)" style="fill: #1f77b4"/>
   </g>
   <g id="patch_100">
    <path d="M 265.040785 382.84 
L 266.813433 382.84 
L 266.813433 382.84 
L 265.040785 382.84 
z
" clip-path="url(#p1b2276d497)" style="fill: #1f77b4"/>
   </g>
   <g id="patch_101">
    <path d="M 266.813433 382.84 
L 268.58608 382.84 
L 268.58608 274.790706 
L 266.813433 274.790706 
z
" clip-path="url(#p1b2276d497)" style="fill: #1f77b4"/>
   </g>
   <g id="patch_102">
    <path d="M 268.58608 382.84 
L 270.358727 382.84 
L 270.358727 382.84 
L 268.58608 382.84 
z
" clip-path="url(#p1b2276d497)" style="fill: #1f77b4"/>
   </g>
   <g id="patch_103">
    <path d="M 270.358727 382.84 
L 272.131375 382.84 
L 272.131375 382.84 
L 270.358727 382.84 
z
" clip-path="url(#p1b2276d497)" style="fill: #1f77b4"/>
   </g>
   <g id="patch_104">
    <path d="M 272.131375 382.84 
L 273.904022 382.84 
L 273.904022 256.452785 
L 272.131375 256.452785 
z
" clip-path="url(#p1b2276d497)" style="fill: #1f77b4"/>
   </g>
   <g id="patch_105">
    <path d="M 273.904022 382.84 
L 275.67667 382.84 
L 275.67667 382.84 
L 273.904022 382.84 
z
" clip-path="url(#p1b2276d497)" style="fill: #1f77b4"/>
   </g>
   <g id="patch_106">
    <path d="M 275.67667 382.84 
L 277.449317 382.84 
L 277.449317 238.46027 
L 275.67667 238.46027 
z
" clip-path="url(#p1b2276d497)" style="fill: #1f77b4"/>
   </g>
   <g id="patch_107">
    <path d="M 277.449317 382.84 
L 279.221964 382.84 
L 279.221964 382.84 
L 277.449317 382.84 
z
" clip-path="url(#p1b2276d497)" style="fill: #1f77b4"/>
   </g>
   <g id="patch_108">
    <path d="M 279.221964 382.84 
L 280.994612 382.84 
L 280.994612 382.84 
L 279.221964 382.84 
z
" clip-path="url(#p1b2276d497)" style="fill: #1f77b4"/>
   </g>
   <g id="patch_109">
    <path d="M 280.994612 382.84 
L 282.767259 382.84 
L 282.767259 212.900222 
L 280.994612 212.900222 
z
" clip-path="url(#p1b2276d497)" style="fill: #1f77b4"/>
   </g>
   <g id="patch_110">
    <path d="M 282.767259 382.84 
L 284.539907 382.84 
L 284.539907 382.84 
L 282.767259 382.84 
z
" clip-path="url(#p1b2276d497)" style="fill: #1f77b4"/>
   </g>
   <g id="patch_111">
    <path d="M 284.539907 382.84 
L 286.312554 382.84 
L 286.312554 382.84 
L 284.539907 382.84 
z
" clip-path="url(#p1b2276d497)" style="fill: #1f77b4"/>
   </g>
   <g id="patch_112">
    <path d="M 286.312554 382.84 
L 288.085201 382.84 
L 288.085201 192.960872 
L 286.312554 192.960872 
z
" clip-path="url(#p1b2276d497)" style="fill: #1f77b4"/>
   </g>
   <g id="patch_113">
    <path d="M 288.085201 382.84 
L 289.857849 382.84 
L 289.857849 382.84 
L 288.085201 382.84 
z
" clip-path="url(#p1b2276d497)" style="fill: #1f77b4"/>
   </g>
   <g id="patch_114">
    <path d="M 289.857849 382.84 
L 291.630496 382.84 
L 291.630496 173.115725 
L 289.857849 173.115725 
z
" clip-path="url(#p1b2276d497)" style="fill: #1f77b4"/>
   </g>
   <g id="patch_115">
    <path d="M 291.630496 382.84 
L 293.403143 382.84 
L 293.403143 382.84 
L 291.630496 382.84 
z
" clip-path="url(#p1b2276d497)" style="fill: #1f77b4"/>
   </g>
   <g id="patch_116">
    <path d="M 293.403143 382.84 
L 295.175791 382.84 
L 295.175791 382.84 
L 293.403143 382.84 
z
" clip-path="url(#p1b2276d497)" style="fill: #1f77b4"/>
   </g>
   <g id="patch_117">
    <path d="M 295.175791 382.84 
L 296.948438 382.84 
L 296.948438 144.447022 
L 295.175791 144.447022 
z
" clip-path="url(#p1b2276d497)" style="fill: #1f77b4"/>
   </g>
   <g id="patch_118">
    <path d="M 296.948438 382.84 
L 298.721086 382.84 
L 298.721086 382.84 
L 296.948438 382.84 
z
" clip-path="url(#p1b2276d497)" style="fill: #1f77b4"/>
   </g>
   <g id="patch_119">
    <path d="M 298.721086 382.84 
L 300.493733 382.84 
L 300.493733 382.84 
L 298.721086 382.84 
z
" clip-path="url(#p1b2276d497)" style="fill: #1f77b4"/>
   </g>
   <g id="patch_120">
    <path d="M 300.493733 382.84 
L 302.26638 382.84 
L 302.26638 127.522126 
L 300.493733 127.522126 
z
" clip-path="url(#p1b2276d497)" style="fill: #1f77b4"/>
   </g>
   <g id="patch_121">
    <path d="M 302.26638 382.84 
L 304.039028 382.84 
L 304.039028 382.84 
L 302.26638 382.84 
z
" clip-path="url(#p1b2276d497)" style="fill: #1f77b4"/>
   </g>
   <g id="patch_122">
    <path d="M 304.039028 382.84 
L 305.811675 382.84 
L 305.811675 101.993478 
L 304.039028 101.993478 
z
" clip-path="url(#p1b2276d497)" style="fill: #1f77b4"/>
   </g>
   <g id="patch_123">
    <path d="M 305.811675 382.84 
L 307.584322 382.84 
L 307.584322 382.84 
L 305.811675 382.84 
z
" clip-path="url(#p1b2276d497)" style="fill: #1f77b4"/>
   </g>
   <g id="patch_124">
    <path d="M 307.584322 382.84 
L 309.35697 382.84 
L 309.35697 382.84 
L 307.584322 382.84 
z
" clip-path="url(#p1b2276d497)" style="fill: #1f77b4"/>
   </g>
   <g id="patch_125">
    <path d="M 309.35697 382.84 
L 311.129617 382.84 
L 311.129617 77.218444 
L 309.35697 77.218444 
z
" clip-path="url(#p1b2276d497)" style="fill: #1f77b4"/>
   </g>
   <g id="patch_126">
    <path d="M 311.129617 382.84 
L 312.902265 382.84 
L 312.902265 382.84 
L 311.129617 382.84 
z
" clip-path="url(#p1b2276d497)" style="fill: #1f77b4"/>
   </g>
   <g id="patch_127">
    <path d="M 312.902265 382.84 
L 314.674912 382.84 
L 314.674912 382.84 
L 312.902265 382.84 
z
" clip-path="url(#p1b2276d497)" style="fill: #1f77b4"/>
   </g>
   <g id="patch_128">
    <path d="M 314.674912 382.84 
L 316.447559 382.84 
L 316.447559 60.890158 
L 314.674912 60.890158 
z
" clip-path="url(#p1b2276d497)" style="fill: #1f77b4"/>
   </g>
   <g id="patch_129">
    <path d="M 316.447559 382.84 
L 318.220207 382.84 
L 318.220207 382.84 
L 316.447559 382.84 
z
" clip-path="url(#p1b2276d497)" style="fill: #1f77b4"/>
   </g>
   <g id="patch_130">
    <path d="M 318.220207 382.84 
L 319.992854 382.84 
L 319.992854 48.235736 
L 318.220207 48.235736 
z
" clip-path="url(#p1b2276d497)" style="fill: #1f77b4"/>
   </g>
   <g id="patch_131">
    <path d="M 319.992854 382.84 
L 321.765502 382.84 
L 321.765502 382.84 
L 319.992854 382.84 
z
" clip-path="url(#p1b2276d497)" style="fill: #1f77b4"/>
   </g>
   <g id="patch_132">
    <path d="M 321.765502 382.84 
L 323.538149 382.84 
L 323.538149 382.84 
L 321.765502 382.84 
z
" clip-path="url(#p1b2276d497)" style="fill: #1f77b4"/>
   </g>
   <g id="patch_133">
    <path d="M 323.538149 382.84 
L 325.310796 382.84 
L 325.310796 39.066775 
L 323.538149 39.066775 
z
" clip-path="url(#p1b2276d497)" style="fill: #1f77b4"/>
   </g>
   <g id="patch_134">
    <path d="M 325.310796 382.84 
L 327.083444 382.84 
L 327.083444 382.84 
L 325.310796 382.84 
z
" clip-path="url(#p1b2276d497)" style="fill: #1f77b4"/>
   </g>
   <g id="patch_135">
    <path d="M 327.083444 382.84 
L 328.856091 382.84 
L 328.856091 382.84 
L 327.083444 382.84 
z
" clip-path="url(#p1b2276d497)" style="fill: #1f77b4"/>
   </g>
   <g id="patch_136">
    <path d="M 328.856091 382.84 
L 330.628738 382.84 
L 330.628738 39.945991 
L 328.856091 39.945991 
z
" clip-path="url(#p1b2276d497)" style="fill: #1f77b4"/>
   </g>
   <g id="patch_137">
    <path d="M 330.628738 382.84 
L 332.401386 382.84 
L 332.401386 382.84 
L 330.628738 382.84 
z
" clip-path="url(#p1b2276d497)" style="fill: #1f77b4"/>
   </g>
   <g id="patch_138">
    <path d="M 332.401386 382.84 
L 334.174033 382.84 
L 334.174033 31.405041 
L 332.401386 31.405041 
z
" clip-path="url(#p1b2276d497)" style="fill: #1f77b4"/>
   </g>
   <g id="patch_139">
    <path d="M 334.174033 382.84 
L 335.946681 382.84 
L 335.946681 382.84 
L 334.174033 382.84 
z
" clip-path="url(#p1b2276d497)" style="fill: #1f77b4"/>
   </g>
   <g id="patch_140">
    <path d="M 335.946681 382.84 
L 337.719328 382.84 
L 337.719328 382.84 
L 335.946681 382.84 
z
" clip-path="url(#p1b2276d497)" style="fill: #1f77b4"/>
   </g>
   <g id="patch_141">
    <path d="M 337.719328 382.84 
L 339.491975 382.84 
L 339.491975 28.51619 
L 337.719328 28.51619 
z
" clip-path="url(#p1b2276d497)" style="fill: #1f77b4"/>
   </g>
   <g id="patch_142">
    <path d="M 339.491975 382.84 
L 341.264623 382.84 
L 341.264623 382.84 
L 339.491975 382.84 
z
" clip-path="url(#p1b2276d497)" style="fill: #1f77b4"/>
   </g>
   <g id="patch_143">
    <path d="M 341.264623 382.84 
L 343.03727 382.84 
L 343.03727 382.84 
L 341.264623 382.84 
z
" clip-path="url(#p1b2276d497)" style="fill: #1f77b4"/>
   </g>
   <g id="patch_144">
    <path d="M 343.03727 382.84 
L 344.809917 382.84 
L 344.809917 37.810753 
L 343.03727 37.810753 
z
" clip-path="url(#p1b2276d497)" style="fill: #1f77b4"/>
   </g>
   <g id="patch_145">
    <path d="M 344.809917 382.84 
L 346.582565 382.84 
L 346.582565 382.84 
L 344.809917 382.84 
z
" clip-path="url(#p1b2276d497)" style="fill: #1f77b4"/>
   </g>
   <g id="patch_146">
    <path d="M 346.582565 382.84 
L 348.355212 382.84 
L 348.355212 45.535289 
L 346.582565 45.535289 
z
" clip-path="url(#p1b2276d497)" style="fill: #1f77b4"/>
   </g>
   <g id="patch_147">
    <path d="M 348.355212 382.84 
L 350.12786 382.84 
L 350.12786 382.84 
L 348.355212 382.84 
z
" clip-path="url(#p1b2276d497)" style="fill: #1f77b4"/>
   </g>
   <g id="patch_148">
    <path d="M 350.12786 382.84 
L 351.900507 382.84 
L 351.900507 382.84 
L 350.12786 382.84 
z
" clip-path="url(#p1b2276d497)" style="fill: #1f77b4"/>
   </g>
   <g id="patch_149">
    <path d="M 351.900507 382.84 
L 353.673154 382.84 
L 353.673154 67.923881 
L 351.900507 67.923881 
z
" clip-path="url(#p1b2276d497)" style="fill: #1f77b4"/>
   </g>
   <g id="patch_150">
    <path d="M 353.673154 382.84 
L 355.445802 382.84 
L 355.445802 382.84 
L 353.673154 382.84 
z
" clip-path="url(#p1b2276d497)" style="fill: #1f77b4"/>
   </g>
   <g id="patch_151">
    <path d="M 355.445802 382.84 
L 357.218449 382.84 
L 357.218449 382.84 
L 355.445802 382.84 
z
" clip-path="url(#p1b2276d497)" style="fill: #1f77b4"/>
   </g>
   <g id="patch_152">
    <path d="M 357.218449 382.84 
L 358.991097 382.84 
L 358.991097 89.119253 
L 357.218449 89.119253 
z
" clip-path="url(#p1b2276d497)" style="fill: #1f77b4"/>
   </g>
   <g id="patch_153">
    <path d="M 358.991097 382.84 
L 360.763744 382.84 
L 360.763744 382.84 
L 358.991097 382.84 
z
" clip-path="url(#p1b2276d497)" style="fill: #1f77b4"/>
   </g>
   <g id="patch_154">
    <path d="M 360.763744 382.84 
L 362.536391 382.84 
L 362.536391 103.312301 
L 360.763744 103.312301 
z
" clip-path="url(#p1b2276d497)" style="fill: #1f77b4"/>
   </g>
   <g id="patch_155">
    <path d="M 362.536391 382.84 
L 364.309039 382.84 
L 364.309039 382.84 
L 362.536391 382.84 
z
" clip-path="url(#p1b2276d497)" style="fill: #1f77b4"/>
   </g>
   <g id="patch_156">
    <path d="M 364.309039 382.84 
L 366.081686 382.84 
L 366.081686 382.84 
L 364.309039 382.84 
z
" clip-path="url(#p1b2276d497)" style="fill: #1f77b4"/>
   </g>
   <g id="patch_157">
    <path d="M 366.081686 382.84 
L 367.854333 382.84 
L 367.854333 125.229885 
L 366.081686 125.229885 
z
" clip-path="url(#p1b2276d497)" style="fill: #1f77b4"/>
   </g>
   <g id="patch_158">
    <path d="M 367.854333 382.84 
L 369.626981 382.84 
L 369.626981 382.84 
L 367.854333 382.84 
z
" clip-path="url(#p1b2276d497)" style="fill: #1f77b4"/>
   </g>
   <g id="patch_159">
    <path d="M 369.626981 382.84 
L 371.399628 382.84 
L 371.399628 382.84 
L 369.626981 382.84 
z
" clip-path="url(#p1b2276d497)" style="fill: #1f77b4"/>
   </g>
   <g id="patch_160">
    <path d="M 371.399628 382.84 
L 373.172276 382.84 
L 373.172276 153.961389 
L 371.399628 153.961389 
z
" clip-path="url(#p1b2276d497)" style="fill: #1f77b4"/>
   </g>
   <g id="patch_161">
    <path d="M 373.172276 382.84 
L 374.944923 382.84 
L 374.944923 382.84 
L 373.172276 382.84 
z
" clip-path="url(#p1b2276d497)" style="fill: #1f77b4"/>
   </g>
   <g id="patch_162">
    <path d="M 374.944923 382.84 
L 376.71757 382.84 
L 376.71757 168.594045 
L 374.944923 168.594045 
z
" clip-path="url(#p1b2276d497)" style="fill: #1f77b4"/>
   </g>
   <g id="patch_163">
    <path d="M 376.71757 382.84 
L 378.490218 382.84 
L 378.490218 382.84 
L 376.71757 382.84 
z
" clip-path="url(#p1b2276d497)" style="fill: #1f77b4"/>
   </g>
   <g id="patch_164">
    <path d="M 378.490218 382.84 
L 380.262865 382.84 
L 380.262865 382.84 
L 378.490218 382.84 
z
" clip-path="url(#p1b2276d497)" style="fill: #1f77b4"/>
   </g>
   <g id="patch_165">
    <path d="M 380.262865 382.84 
L 382.035512 382.84 
L 382.035512 188.470594 
L 380.262865 188.470594 
z
" clip-path="url(#p1b2276d497)" style="fill: #1f77b4"/>
   </g>
   <g id="patch_166">
    <path d="M 382.035512 382.84 
L 383.80816 382.84 
L 383.80816 382.84 
L 382.035512 382.84 
z
" clip-path="url(#p1b2276d497)" style="fill: #1f77b4"/>
   </g>
   <g id="patch_167">
    <path d="M 383.80816 382.84 
L 385.580807 382.84 
L 385.580807 382.84 
L 383.80816 382.84 
z
" clip-path="url(#p1b2276d497)" style="fill: #1f77b4"/>
   </g>
   <g id="patch_168">
    <path d="M 385.580807 382.84 
L 387.353455 382.84 
L 387.353455 211.047589 
L 385.580807 211.047589 
z
" clip-path="url(#p1b2276d497)" style="fill: #1f77b4"/>
   </g>
   <g id="patch_169">
    <path d="M 387.353455 382.84 
L 389.126102 382.84 
L 389.126102 382.84 
L 387.353455 382.84 
z
" clip-path="url(#p1b2276d497)" style="fill: #1f77b4"/>
   </g>
   <g id="patch_170">
    <path d="M 389.126102 382.84 
L 390.898749 382.84 
L 390.898749 228.443494 
L 389.126102 228.443494 
z
" clip-path="url(#p1b2276d497)" style="fill: #1f77b4"/>
   </g>
   <g id="patch_171">
    <path d="M 390.898749 382.84 
L 392.671397 382.84 
L 392.671397 382.84 
L 390.898749 382.84 
z
" clip-path="url(#p1b2276d497)" style="fill: #1f77b4"/>
   </g>
   <g id="patch_172">
    <path d="M 392.671397 382.84 
L 394.444044 382.84 
L 394.444044 382.84 
L 392.671397 382.84 
z
" clip-path="url(#p1b2276d497)" style="fill: #1f77b4"/>
   </g>
   <g id="patch_173">
    <path d="M 394.444044 382.84 
L 396.216692 382.84 
L 396.216692 255.950376 
L 394.444044 255.950376 
z
" clip-path="url(#p1b2276d497)" style="fill: #1f77b4"/>
   </g>
   <g id="patch_174">
    <path d="M 396.216692 382.84 
L 397.989339 382.84 
L 397.989339 382.84 
L 396.216692 382.84 
z
" clip-path="url(#p1b2276d497)" style="fill: #1f77b4"/>
   </g>
   <g id="patch_175">
    <path d="M 397.989339 382.84 
L 399.761986 382.84 
L 399.761986 382.84 
L 397.989339 382.84 
z
" clip-path="url(#p1b2276d497)" style="fill: #1f77b4"/>
   </g>
   <g id="patch_176">
    <path d="M 399.761986 382.84 
L 401.534634 382.84 
L 401.534634 268.290793 
L 399.761986 268.290793 
z
" clip-path="url(#p1b2276d497)" style="fill: #1f77b4"/>
   </g>
   <g id="patch_177">
    <path d="M 401.534634 382.84 
L 403.307281 382.84 
L 403.307281 382.84 
L 401.534634 382.84 
z
" clip-path="url(#p1b2276d497)" style="fill: #1f77b4"/>
   </g>
   <g id="patch_178">
    <path d="M 403.307281 382.84 
L 405.079928 382.84 
L 405.079928 282.42104 
L 403.307281 282.42104 
z
" clip-path="url(#p1b2276d497)" style="fill: #1f77b4"/>
   </g>
   <g id="patch_179">
    <path d="M 405.079928 382.84 
L 406.852576 382.84 
L 406.852576 382.84 
L 405.079928 382.84 
z
" clip-path="url(#p1b2276d497)" style="fill: #1f77b4"/>
   </g>
   <g id="patch_180">
    <path d="M 406.852576 382.84 
L 408.625223 382.84 
L 408.625223 382.84 
L 406.852576 382.84 
z
" clip-path="url(#p1b2276d497)" style="fill: #1f77b4"/>
   </g>
   <g id="patch_181">
    <path d="M 408.625223 382.84 
L 410.397871 382.84 
L 410.397871 299.659942 
L 408.625223 299.659942 
z
" clip-path="url(#p1b2276d497)" style="fill: #1f77b4"/>
   </g>
   <g id="patch_182">
    <path d="M 410.397871 382.84 
L 412.170518 382.84 
L 412.170518 382.84 
L 410.397871 382.84 
z
" clip-path="url(#p1b2276d497)" style="fill: #1f77b4"/>
   </g>
   <g id="patch_183">
    <path d="M 412.170518 382.84 
L 413.943165 382.84 
L 413.943165 382.84 
L 412.170518 382.84 
z
" clip-path="url(#p1b2276d497)" style="fill: #1f77b4"/>
   </g>
   <g id="patch_184">
    <path d="M 413.943165 382.84 
L 415.715813 382.84 
L 415.715813 310.084925 
L 413.943165 310.084925 
z
" clip-path="url(#p1b2276d497)" style="fill: #1f77b4"/>
   </g>
   <g id="patch_185">
    <path d="M 415.715813 382.84 
L 417.48846 382.84 
L 417.48846 382.84 
L 415.715813 382.84 
z
" clip-path="url(#p1b2276d497)" style="fill: #1f77b4"/>
   </g>
   <g id="patch_186">
    <path d="M 417.48846 382.84 
L 419.261107 382.84 
L 419.261107 324.874584 
L 417.48846 324.874584 
z
" clip-path="url(#p1b2276d497)" style="fill: #1f77b4"/>
   </g>
   <g id="patch_187">
    <path d="M 419.261107 382.84 
L 421.033755 382.84 
L 421.033755 382.84 
L 419.261107 382.84 
z
" clip-path="url(#p1b2276d497)" style="fill: #1f77b4"/>
   </g>
   <g id="patch_188">
    <path d="M 421.033755 382.84 
L 422.806402 382.84 
L 422.806402 382.84 
L 421.033755 382.84 
z
" clip-path="url(#p1b2276d497)" style="fill: #1f77b4"/>
   </g>
   <g id="patch_189">
    <path d="M 422.806402 382.84 
L 424.57905 382.84 
L 424.57905 333.572537 
L 422.806402 333.572537 
z
" clip-path="url(#p1b2276d497)" style="fill: #1f77b4"/>
   </g>
   <g id="patch_190">
    <path d="M 424.57905 382.84 
L 426.351697 382.84 
L 426.351697 382.84 
L 424.57905 382.84 
z
" clip-path="url(#p1b2276d497)" style="fill: #1f77b4"/>
   </g>
   <g id="patch_191">
    <path d="M 426.351697 382.84 
L 428.124344 382.84 
L 428.124344 382.84 
L 426.351697 382.84 
z
" clip-path="url(#p1b2276d497)" style="fill: #1f77b4"/>
   </g>
   <g id="patch_192">
    <path d="M 428.124344 382.84 
L 429.896992 382.84 
L 429.896992 344.123121 
L 428.124344 344.123121 
z
" clip-path="url(#p1b2276d497)" style="fill: #1f77b4"/>
   </g>
   <g id="patch_193">
    <path d="M 429.896992 382.84 
L 431.669639 382.84 
L 431.669639 382.84 
L 429.896992 382.84 
z
" clip-path="url(#p1b2276d497)" style="fill: #1f77b4"/>
   </g>
   <g id="patch_194">
    <path d="M 431.669639 382.84 
L 433.442287 382.84 
L 433.442287 348.739002 
L 431.669639 348.739002 
z
" clip-path="url(#p1b2276d497)" style="fill: #1f77b4"/>
   </g>
   <g id="patch_195">
    <path d="M 433.442287 382.84 
L 435.214934 382.84 
L 435.214934 382.84 
L 433.442287 382.84 
z
" clip-path="url(#p1b2276d497)" style="fill: #1f77b4"/>
   </g>
   <g id="patch_196">
    <path d="M 435.214934 382.84 
L 436.987581 382.84 
L 436.987581 382.84 
L 435.214934 382.84 
z
" clip-path="url(#p1b2276d497)" style="fill: #1f77b4"/>
   </g>
   <g id="patch_197">
    <path d="M 436.987581 382.84 
L 438.760229 382.84 
L 438.760229 357.060148 
L 436.987581 357.060148 
z
" clip-path="url(#p1b2276d497)" style="fill: #1f77b4"/>
   </g>
   <g id="patch_198">
    <path d="M 438.760229 382.84 
L 440.532876 382.84 
L 440.532876 382.84 
L 438.760229 382.84 
z
" clip-path="url(#p1b2276d497)" style="fill: #1f77b4"/>
   </g>
   <g id="patch_199">
    <path d="M 440.532876 382.84 
L 442.305523 382.84 
L 442.305523 382.84 
L 440.532876 382.84 
z
" clip-path="url(#p1b2276d497)" style="fill: #1f77b4"/>
   </g>
   <g id="patch_200">
    <path d="M 442.305523 382.84 
L 444.078171 382.84 
L 444.078171 362.712247 
L 442.305523 362.712247 
z
" clip-path="url(#p1b2276d497)" style="fill: #1f77b4"/>
   </g>
   <g id="patch_201">
    <path d="M 444.078171 382.84 
L 445.850818 382.84 
L 445.850818 382.84 
L 444.078171 382.84 
z
" clip-path="url(#p1b2276d497)" style="fill: #1f77b4"/>
   </g>
   <g id="patch_202">
    <path d="M 445.850818 382.84 
L 447.623466 382.84 
L 447.623466 364.502079 
L 445.850818 364.502079 
z
" clip-path="url(#p1b2276d497)" style="fill: #1f77b4"/>
   </g>
   <g id="patch_203">
    <path d="M 447.623466 382.84 
L 449.396113 382.84 
L 449.396113 382.84 
L 447.623466 382.84 
z
" clip-path="url(#p1b2276d497)" style="fill: #1f77b4"/>
   </g>
   <g id="patch_204">
    <path d="M 449.396113 382.84 
L 451.16876 382.84 
L 451.16876 382.84 
L 449.396113 382.84 
z
" clip-path="url(#p1b2276d497)" style="fill: #1f77b4"/>
   </g>
   <g id="patch_205">
    <path d="M 451.16876 382.84 
L 452.941408 382.84 
L 452.941408 370.059976 
L 451.16876 370.059976 
z
" clip-path="url(#p1b2276d497)" style="fill: #1f77b4"/>
   </g>
   <g id="patch_206">
    <path d="M 452.941408 382.84 
L 454.714055 382.84 
L 454.714055 382.84 
L 452.941408 382.84 
z
" clip-path="url(#p1b2276d497)" style="fill: #1f77b4"/>
   </g>
   <g id="patch_207">
    <path d="M 454.714055 382.84 
L 456.486702 382.84 
L 456.486702 382.84 
L 454.714055 382.84 
z
" clip-path="url(#p1b2276d497)" style="fill: #1f77b4"/>
   </g>
   <g id="patch_208">
    <path d="M 456.486702 382.84 
L 458.25935 382.84 
L 458.25935 372.258015 
L 456.486702 372.258015 
z
" clip-path="url(#p1b2276d497)" style="fill: #1f77b4"/>
   </g>
   <g id="patch_209">
    <path d="M 458.25935 382.84 
L 460.031997 382.84 
L 460.031997 382.84 
L 458.25935 382.84 
z
" clip-path="url(#p1b2276d497)" style="fill: #1f77b4"/>
   </g>
   <g id="patch_210">
    <path d="M 460.031997 382.84 
L 461.804645 382.84 
L 461.804645 375.209666 
L 460.031997 375.209666 
z
" clip-path="url(#p1b2276d497)" style="fill: #1f77b4"/>
   </g>
   <g id="patch_211">
    <path d="M 461.804645 382.84 
L 463.577292 382.84 
L 463.577292 382.84 
L 461.804645 382.84 
z
" clip-path="url(#p1b2276d497)" style="fill: #1f77b4"/>
   </g>
   <g id="patch_212">
    <path d="M 463.577292 382.84 
L 465.349939 382.84 
L 465.349939 382.84 
L 463.577292 382.84 
z
" clip-path="url(#p1b2276d497)" style="fill: #1f77b4"/>
   </g>
   <g id="patch_213">
    <path d="M 465.349939 382.84 
L 467.122587 382.84 
L 467.122587 377.1565 
L 465.349939 377.1565 
z
" clip-path="url(#p1b2276d497)" style="fill: #1f77b4"/>
   </g>
   <g id="patch_214">
    <path d="M 467.122587 382.84 
L 468.895234 382.84 
L 468.895234 382.84 
L 467.122587 382.84 
z
" clip-path="url(#p1b2276d497)" style="fill: #1f77b4"/>
   </g>
   <g id="patch_215">
    <path d="M 468.895234 382.84 
L 470.667882 382.84 
L 470.667882 382.84 
L 468.895234 382.84 
z
" clip-path="url(#p1b2276d497)" style="fill: #1f77b4"/>
   </g>
   <g id="patch_216">
    <path d="M 470.667882 382.84 
L 472.440529 382.84 
L 472.440529 378.25552 
L 470.667882 378.25552 
z
" clip-path="url(#p1b2276d497)" style="fill: #1f77b4"/>
   </g>
   <g id="patch_217">
    <path d="M 472.440529 382.84 
L 474.213176 382.84 
L 474.213176 382.84 
L 472.440529 382.84 
z
" clip-path="url(#p1b2276d497)" style="fill: #1f77b4"/>
   </g>
   <g id="patch_218">
    <path d="M 474.213176 382.84 
L 475.985824 382.84 
L 475.985824 379.354539 
L 474.213176 379.354539 
z
" clip-path="url(#p1b2276d497)" style="fill: #1f77b4"/>
   </g>
   <g id="patch_219">
    <path d="M 475.985824 382.84 
L 477.758471 382.84 
L 477.758471 382.84 
L 475.985824 382.84 
z
" clip-path="url(#p1b2276d497)" style="fill: #1f77b4"/>
   </g>
   <g id="patch_220">
    <path d="M 477.758471 382.84 
L 479.531118 382.84 
L 479.531118 382.84 
L 477.758471 382.84 
z
" clip-path="url(#p1b2276d497)" style="fill: #1f77b4"/>
   </g>
   <g id="patch_221">
    <path d="M 479.531118 382.84 
L 481.303766 382.84 
L 481.303766 380.422158 
L 479.531118 380.422158 
z
" clip-path="url(#p1b2276d497)" style="fill: #1f77b4"/>
   </g>
   <g id="patch_222">
    <path d="M 481.303766 382.84 
L 483.076413 382.84 
L 483.076413 382.84 
L 481.303766 382.84 
z
" clip-path="url(#p1b2276d497)" style="fill: #1f77b4"/>
   </g>
   <g id="patch_223">
    <path d="M 483.076413 382.84 
L 484.849061 382.84 
L 484.849061 382.84 
L 483.076413 382.84 
z
" clip-path="url(#p1b2276d497)" style="fill: #1f77b4"/>
   </g>
   <g id="patch_224">
    <path d="M 484.849061 382.84 
L 486.621708 382.84 
L 486.621708 381.207171 
L 484.849061 381.207171 
z
" clip-path="url(#p1b2276d497)" style="fill: #1f77b4"/>
   </g>
   <g id="patch_225">
    <path d="M 486.621708 382.84 
L 488.394355 382.84 
L 488.394355 382.84 
L 486.621708 382.84 
z
" clip-path="url(#p1b2276d497)" style="fill: #1f77b4"/>
   </g>
   <g id="patch_226">
    <path d="M 488.394355 382.84 
L 490.167003 382.84 
L 490.167003 381.615379 
L 488.394355 381.615379 
z
" clip-path="url(#p1b2276d497)" style="fill: #1f77b4"/>
   </g>
   <g id="patch_227">
    <path d="M 490.167003 382.84 
L 491.93965 382.84 
L 491.93965 382.84 
L 490.167003 382.84 
z
" clip-path="url(#p1b2276d497)" style="fill: #1f77b4"/>
   </g>
   <g id="patch_228">
    <path d="M 491.93965 382.84 
L 493.712297 382.84 
L 493.712297 382.84 
L 491.93965 382.84 
z
" clip-path="url(#p1b2276d497)" style="fill: #1f77b4"/>
   </g>
   <g id="patch_229">
    <path d="M 493.712297 382.84 
L 495.484945 382.84 
L 495.484945 382.086387 
L 493.712297 382.086387 
z
" clip-path="url(#p1b2276d497)" style="fill: #1f77b4"/>
   </g>
   <g id="patch_230">
    <path d="M 495.484945 382.84 
L 497.257592 382.84 
L 497.257592 382.84 
L 495.484945 382.84 
z
" clip-path="url(#p1b2276d497)" style="fill: #1f77b4"/>
   </g>
   <g id="patch_231">
    <path d="M 497.257592 382.84 
L 499.03024 382.84 
L 499.03024 382.84 
L 497.257592 382.84 
z
" clip-path="url(#p1b2276d497)" style="fill: #1f77b4"/>
   </g>
   <g id="patch_232">
    <path d="M 499.03024 382.84 
L 500.802887 382.84 
L 500.802887 382.149188 
L 499.03024 382.149188 
z
" clip-path="url(#p1b2276d497)" style="fill: #1f77b4"/>
   </g>
   <g id="patch_233">
    <path d="M 500.802887 382.84 
L 502.575534 382.84 
L 502.575534 382.84 
L 500.802887 382.84 
z
" clip-path="url(#p1b2276d497)" style="fill: #1f77b4"/>
   </g>
   <g id="patch_234">
    <path d="M 502.575534 382.84 
L 504.348182 382.84 
L 504.348182 382.400392 
L 502.575534 382.400392 
z
" clip-path="url(#p1b2276d497)" style="fill: #1f77b4"/>
   </g>
   <g id="patch_235">
    <path d="M 504.348182 382.84 
L 506.120829 382.84 
L 506.120829 382.84 
L 504.348182 382.84 
z
" clip-path="url(#p1b2276d497)" style="fill: #1f77b4"/>
   </g>
   <g id="patch_236">
    <path d="M 506.120829 382.84 
L 507.893477 382.84 
L 507.893477 382.84 
L 506.120829 382.84 
z
" clip-path="url(#p1b2276d497)" style="fill: #1f77b4"/>
   </g>
   <g id="patch_237">
    <path d="M 507.893477 382.84 
L 509.666124 382.84 
L 509.666124 382.557395 
L 507.893477 382.557395 
z
" clip-path="url(#p1b2276d497)" style="fill: #1f77b4"/>
   </g>
   <g id="patch_238">
    <path d="M 509.666124 382.84 
L 511.438771 382.84 
L 511.438771 382.84 
L 509.666124 382.84 
z
" clip-path="url(#p1b2276d497)" style="fill: #1f77b4"/>
   </g>
   <g id="patch_239">
    <path d="M 511.438771 382.84 
L 513.211419 382.84 
L 513.211419 382.84 
L 511.438771 382.84 
z
" clip-path="url(#p1b2276d497)" style="fill: #1f77b4"/>
   </g>
   <g id="patch_240">
    <path d="M 513.211419 382.84 
L 514.984066 382.84 
L 514.984066 382.714398 
L 513.211419 382.714398 
z
" clip-path="url(#p1b2276d497)" style="fill: #1f77b4"/>
   </g>
   <g id="patch_241">
    <path d="M 514.984066 382.84 
L 516.756713 382.84 
L 516.756713 382.84 
L 514.984066 382.84 
z
" clip-path="url(#p1b2276d497)" style="fill: #1f77b4"/>
   </g>
   <g id="patch_242">
    <path d="M 516.756713 382.84 
L 518.529361 382.84 
L 518.529361 382.463193 
L 516.756713 382.463193 
z
" clip-path="url(#p1b2276d497)" style="fill: #1f77b4"/>
   </g>
   <g id="patch_243">
    <path d="M 518.529361 382.84 
L 520.302008 382.84 
L 520.302008 382.84 
L 518.529361 382.84 
z
" clip-path="url(#p1b2276d497)" style="fill: #1f77b4"/>
   </g>
   <g id="patch_244">
    <path d="M 520.302008 382.84 
L 522.074656 382.84 
L 522.074656 382.84 
L 520.302008 382.84 
z
" clip-path="url(#p1b2276d497)" style="fill: #1f77b4"/>
   </g>
   <g id="patch_245">
    <path d="M 522.074656 382.84 
L 523.847303 382.84 
L 523.847303 382.745798 
L 522.074656 382.745798 
z
" clip-path="url(#p1b2276d497)" style="fill: #1f77b4"/>
   </g>
   <g id="patch_246">
    <path d="M 523.847303 382.84 
L 525.61995 382.84 
L 525.61995 382.84 
L 523.847303 382.84 
z
" clip-path="url(#p1b2276d497)" style="fill: #1f77b4"/>
   </g>
   <g id="patch_247">
    <path d="M 525.61995 382.84 
L 527.392598 382.84 
L 527.392598 382.84 
L 525.61995 382.84 
z
" clip-path="url(#p1b2276d497)" style="fill: #1f77b4"/>
   </g>
   <g id="patch_248">
    <path d="M 527.392598 382.84 
L 529.165245 382.84 
L 529.165245 382.808599 
L 527.392598 382.808599 
z
" clip-path="url(#p1b2276d497)" style="fill: #1f77b4"/>
   </g>
   <g id="patch_249">
    <path d="M 529.165245 382.84 
L 530.937892 382.84 
L 530.937892 382.84 
L 529.165245 382.84 
z
" clip-path="url(#p1b2276d497)" style="fill: #1f77b4"/>
   </g>
   <g id="patch_250">
    <path d="M 530.937892 382.84 
L 532.71054 382.84 
L 532.71054 382.808599 
L 530.937892 382.808599 
z
" clip-path="url(#p1b2276d497)" style="fill: #1f77b4"/>
   </g>
   <g id="patch_251">
    <path d="M 532.71054 382.84 
L 534.483187 382.84 
L 534.483187 382.84 
L 532.71054 382.84 
z
" clip-path="url(#p1b2276d497)" style="fill: #1f77b4"/>
   </g>
   <g id="patch_252">
    <path d="M 534.483187 382.84 
L 536.255835 382.84 
L 536.255835 382.84 
L 534.483187 382.84 
z
" clip-path="url(#p1b2276d497)" style="fill: #1f77b4"/>
   </g>
   <g id="patch_253">
    <path d="M 536.255835 382.84 
L 538.028482 382.84 
L 538.028482 382.808599 
L 536.255835 382.808599 
z
" clip-path="url(#p1b2276d497)" style="fill: #1f77b4"/>
   </g>
   <g id="patch_254">
    <path d="M 538.028482 382.84 
L 539.801129 382.84 
L 539.801129 382.84 
L 538.028482 382.84 
z
" clip-path="url(#p1b2276d497)" style="fill: #1f77b4"/>
   </g>
   <g id="patch_255">
    <path d="M 539.801129 382.84 
L 541.573777 382.84 
L 541.573777 382.808599 
L 539.801129 382.808599 
z
" clip-path="url(#p1b2276d497)" style="fill: #1f77b4"/>
   </g>
   <g id="matplotlib.axis_1">
    <g id="xtick_1">
     <g id="line2d_1">
      <defs>
       <path id="mbdea2f9110" d="M 0 0 
L 0 3.5 
" style="stroke: #000000; stroke-width: 0.8"/>
      </defs>
      <g>
       <use xlink:href="#mbdea2f9110" x="154.464908" y="382.84" style="stroke: #000000; stroke-width: 0.8"/>
      </g>
     </g>
     <g id="text_1">
      <!-- −12 -->
      <g transform="translate(143.912564 397.438438) scale(0.1 -0.1)">
       <defs>
        <path id="DejaVuSans-2212" d="M 678 2272 
L 4684 2272 
L 4684 1741 
L 678 1741 
L 678 2272 
z
" transform="scale(0.015625)"/>
        <path id="DejaVuSans-31" d="M 794 531 
L 1825 531 
L 1825 4091 
L 703 3866 
L 703 4441 
L 1819 4666 
L 2450 4666 
L 2450 531 
L 3481 531 
L 3481 0 
L 794 0 
L 794 531 
z
" transform="scale(0.015625)"/>
        <path id="DejaVuSans-32" d="M 1228 531 
L 3431 531 
L 3431 0 
L 469 0 
L 469 531 
Q 828 903 1448 1529 
Q 2069 2156 2228 2338 
Q 2531 2678 2651 2914 
Q 2772 3150 2772 3378 
Q 2772 3750 2511 3984 
Q 2250 4219 1831 4219 
Q 1534 4219 1204 4116 
Q 875 4013 500 3803 
L 500 4441 
Q 881 4594 1212 4672 
Q 1544 4750 1819 4750 
Q 2544 4750 2975 4387 
Q 3406 4025 3406 3419 
Q 3406 3131 3298 2873 
Q 3191 2616 2906 2266 
Q 2828 2175 2409 1742 
Q 1991 1309 1228 531 
z
" transform="scale(0.015625)"/>
       </defs>
       <use xlink:href="#DejaVuSans-2212"/>
       <use xlink:href="#DejaVuSans-31" x="83.789062"/>
       <use xlink:href="#DejaVuSans-32" x="147.412109"/>
      </g>
     </g>
    </g>
    <g id="xtick_2">
     <g id="line2d_2">
      <g>
       <use xlink:href="#mbdea2f9110" x="248.881705" y="382.84" style="stroke: #000000; stroke-width: 0.8"/>
      </g>
     </g>
     <g id="text_2">
      <!-- −10 -->
      <g transform="translate(238.329361 397.438438) scale(0.1 -0.1)">
       <defs>
        <path id="DejaVuSans-30" d="M 2034 4250 
Q 1547 4250 1301 3770 
Q 1056 3291 1056 2328 
Q 1056 1369 1301 889 
Q 1547 409 2034 409 
Q 2525 409 2770 889 
Q 3016 1369 3016 2328 
Q 3016 3291 2770 3770 
Q 2525 4250 2034 4250 
z
M 2034 4750 
Q 2819 4750 3233 4129 
Q 3647 3509 3647 2328 
Q 3647 1150 3233 529 
Q 2819 -91 2034 -91 
Q 1250 -91 836 529 
Q 422 1150 422 2328 
Q 422 3509 836 4129 
Q 1250 4750 2034 4750 
z
" transform="scale(0.015625)"/>
       </defs>
       <use xlink:href="#DejaVuSans-2212"/>
       <use xlink:href="#DejaVuSans-31" x="83.789062"/>
       <use xlink:href="#DejaVuSans-30" x="147.412109"/>
      </g>
     </g>
    </g>
    <g id="xtick_3">
     <g id="line2d_3">
      <g>
       <use xlink:href="#mbdea2f9110" x="343.298502" y="382.84" style="stroke: #000000; stroke-width: 0.8"/>
      </g>
     </g>
     <g id="text_3">
      <!-- −8 -->
      <g transform="translate(335.927409 397.438438) scale(0.1 -0.1)">
       <defs>
        <path id="DejaVuSans-38" d="M 2034 2216 
Q 1584 2216 1326 1975 
Q 1069 1734 1069 1313 
Q 1069 891 1326 650 
Q 1584 409 2034 409 
Q 2484 409 2743 651 
Q 3003 894 3003 1313 
Q 3003 1734 2745 1975 
Q 2488 2216 2034 2216 
z
M 1403 2484 
Q 997 2584 770 2862 
Q 544 3141 544 3541 
Q 544 4100 942 4425 
Q 1341 4750 2034 4750 
Q 2731 4750 3128 4425 
Q 3525 4100 3525 3541 
Q 3525 3141 3298 2862 
Q 3072 2584 2669 2484 
Q 3125 2378 3379 2068 
Q 3634 1759 3634 1313 
Q 3634 634 3220 271 
Q 2806 -91 2034 -91 
Q 1263 -91 848 271 
Q 434 634 434 1313 
Q 434 1759 690 2068 
Q 947 2378 1403 2484 
z
M 1172 3481 
Q 1172 3119 1398 2916 
Q 1625 2713 2034 2713 
Q 2441 2713 2670 2916 
Q 2900 3119 2900 3481 
Q 2900 3844 2670 4047 
Q 2441 4250 2034 4250 
Q 1625 4250 1398 4047 
Q 1172 3844 1172 3481 
z
" transform="scale(0.015625)"/>
       </defs>
       <use xlink:href="#DejaVuSans-2212"/>
       <use xlink:href="#DejaVuSans-38" x="83.789062"/>
      </g>
     </g>
    </g>
    <g id="xtick_4">
     <g id="line2d_4">
      <g>
       <use xlink:href="#mbdea2f9110" x="437.7153" y="382.84" style="stroke: #000000; stroke-width: 0.8"/>
      </g>
     </g>
     <g id="text_4">
      <!-- −6 -->
      <g transform="translate(430.344206 397.438438) scale(0.1 -0.1)">
       <defs>
        <path id="DejaVuSans-36" d="M 2113 2584 
Q 1688 2584 1439 2293 
Q 1191 2003 1191 1497 
Q 1191 994 1439 701 
Q 1688 409 2113 409 
Q 2538 409 2786 701 
Q 3034 994 3034 1497 
Q 3034 2003 2786 2293 
Q 2538 2584 2113 2584 
z
M 3366 4563 
L 3366 3988 
Q 3128 4100 2886 4159 
Q 2644 4219 2406 4219 
Q 1781 4219 1451 3797 
Q 1122 3375 1075 2522 
Q 1259 2794 1537 2939 
Q 1816 3084 2150 3084 
Q 2853 3084 3261 2657 
Q 3669 2231 3669 1497 
Q 3669 778 3244 343 
Q 2819 -91 2113 -91 
Q 1303 -91 875 529 
Q 447 1150 447 2328 
Q 447 3434 972 4092 
Q 1497 4750 2381 4750 
Q 2619 4750 2861 4703 
Q 3103 4656 3366 4563 
z
" transform="scale(0.015625)"/>
       </defs>
       <use xlink:href="#DejaVuSans-2212"/>
       <use xlink:href="#DejaVuSans-36" x="83.789062"/>
      </g>
     </g>
    </g>
    <g id="xtick_5">
     <g id="line2d_5">
      <g>
       <use xlink:href="#mbdea2f9110" x="532.132097" y="382.84" style="stroke: #000000; stroke-width: 0.8"/>
      </g>
     </g>
     <g id="text_5">
      <!-- −4 -->
      <g transform="translate(524.761003 397.438438) scale(0.1 -0.1)">
       <defs>
        <path id="DejaVuSans-34" d="M 2419 4116 
L 825 1625 
L 2419 1625 
L 2419 4116 
z
M 2253 4666 
L 3047 4666 
L 3047 1625 
L 3713 1625 
L 3713 1100 
L 3047 1100 
L 3047 0 
L 2419 0 
L 2419 1100 
L 313 1100 
L 313 1709 
L 2253 4666 
z
" transform="scale(0.015625)"/>
       </defs>
       <use xlink:href="#DejaVuSans-2212"/>
       <use xlink:href="#DejaVuSans-34" x="83.789062"/>
      </g>
     </g>
    </g>
    <g id="text_6">
     <!-- PTK2 -->
     <g transform="translate(294.781852 417.195312) scale(0.18 -0.18)">
      <defs>
       <path id="DejaVuSans-50" d="M 1259 4147 
L 1259 2394 
L 2053 2394 
Q 2494 2394 2734 2622 
Q 2975 2850 2975 3272 
Q 2975 3691 2734 3919 
Q 2494 4147 2053 4147 
L 1259 4147 
z
M 628 4666 
L 2053 4666 
Q 2838 4666 3239 4311 
Q 3641 3956 3641 3272 
Q 3641 2581 3239 2228 
Q 2838 1875 2053 1875 
L 1259 1875 
L 1259 0 
L 628 0 
L 628 4666 
z
" transform="scale(0.015625)"/>
       <path id="DejaVuSans-54" d="M -19 4666 
L 3928 4666 
L 3928 4134 
L 2272 4134 
L 2272 0 
L 1638 0 
L 1638 4134 
L -19 4134 
L -19 4666 
z
" transform="scale(0.015625)"/>
       <path id="DejaVuSans-4b" d="M 628 4666 
L 1259 4666 
L 1259 2694 
L 3353 4666 
L 4166 4666 
L 1850 2491 
L 4331 0 
L 3500 0 
L 1259 2247 
L 1259 0 
L 628 0 
L 628 4666 
z
" transform="scale(0.015625)"/>
      </defs>
      <use xlink:href="#DejaVuSans-50"/>
      <use xlink:href="#DejaVuSans-54" x="60.302734"/>
      <use xlink:href="#DejaVuSans-4b" x="121.386719"/>
      <use xlink:href="#DejaVuSans-32" x="186.962891"/>
     </g>
    </g>
   </g>
   <g id="matplotlib.axis_2">
    <g id="ytick_1">
     <g id="line2d_6">
      <defs>
       <path id="mb0e13d917d" d="M 0 0 
L -3.5 0 
" style="stroke: #000000; stroke-width: 0.8"/>
      </defs>
      <g>
       <use xlink:href="#mb0e13d917d" x="70.67" y="382.84" style="stroke: #000000; stroke-width: 0.8"/>
      </g>
     </g>
     <g id="text_7">
      <!-- 0 -->
      <g transform="translate(57.3075 386.639219) scale(0.1 -0.1)">
       <use xlink:href="#DejaVuSans-30"/>
      </g>
     </g>
    </g>
    <g id="ytick_2">
     <g id="line2d_7">
      <g>
       <use xlink:href="#mb0e13d917d" x="70.67" y="320.038899" style="stroke: #000000; stroke-width: 0.8"/>
      </g>
     </g>
     <g id="text_8">
      <!-- 2000 -->
      <g transform="translate(38.22 323.838118) scale(0.1 -0.1)">
       <use xlink:href="#DejaVuSans-32"/>
       <use xlink:href="#DejaVuSans-30" x="63.623047"/>
       <use xlink:href="#DejaVuSans-30" x="127.246094"/>
       <use xlink:href="#DejaVuSans-30" x="190.869141"/>
      </g>
     </g>
    </g>
    <g id="ytick_3">
     <g id="line2d_8">
      <g>
       <use xlink:href="#mb0e13d917d" x="70.67" y="257.237799" style="stroke: #000000; stroke-width: 0.8"/>
      </g>
     </g>
     <g id="text_9">
      <!-- 4000 -->
      <g transform="translate(38.22 261.037018) scale(0.1 -0.1)">
       <use xlink:href="#DejaVuSans-34"/>
       <use xlink:href="#DejaVuSans-30" x="63.623047"/>
       <use xlink:href="#DejaVuSans-30" x="127.246094"/>
       <use xlink:href="#DejaVuSans-30" x="190.869141"/>
      </g>
     </g>
    </g>
    <g id="ytick_4">
     <g id="line2d_9">
      <g>
       <use xlink:href="#mb0e13d917d" x="70.67" y="194.436698" style="stroke: #000000; stroke-width: 0.8"/>
      </g>
     </g>
     <g id="text_10">
      <!-- 6000 -->
      <g transform="translate(38.22 198.235917) scale(0.1 -0.1)">
       <use xlink:href="#DejaVuSans-36"/>
       <use xlink:href="#DejaVuSans-30" x="63.623047"/>
       <use xlink:href="#DejaVuSans-30" x="127.246094"/>
       <use xlink:href="#DejaVuSans-30" x="190.869141"/>
      </g>
     </g>
    </g>
    <g id="ytick_5">
     <g id="line2d_10">
      <g>
       <use xlink:href="#mb0e13d917d" x="70.67" y="131.635598" style="stroke: #000000; stroke-width: 0.8"/>
      </g>
     </g>
     <g id="text_11">
      <!-- 8000 -->
      <g transform="translate(38.22 135.434816) scale(0.1 -0.1)">
       <use xlink:href="#DejaVuSans-38"/>
       <use xlink:href="#DejaVuSans-30" x="63.623047"/>
       <use xlink:href="#DejaVuSans-30" x="127.246094"/>
       <use xlink:href="#DejaVuSans-30" x="190.869141"/>
      </g>
     </g>
    </g>
    <g id="ytick_6">
     <g id="line2d_11">
      <g>
       <use xlink:href="#mb0e13d917d" x="70.67" y="68.834497" style="stroke: #000000; stroke-width: 0.8"/>
      </g>
     </g>
     <g id="text_12">
      <!-- 10000 -->
      <g transform="translate(31.8575 72.633716) scale(0.1 -0.1)">
       <use xlink:href="#DejaVuSans-31"/>
       <use xlink:href="#DejaVuSans-30" x="63.623047"/>
       <use xlink:href="#DejaVuSans-30" x="127.246094"/>
       <use xlink:href="#DejaVuSans-30" x="190.869141"/>
       <use xlink:href="#DejaVuSans-30" x="254.492188"/>
      </g>
     </g>
    </g>
    <g id="text_13">
     <!-- Count -->
     <g transform="translate(24.114063 223.547188) rotate(-90) scale(0.18 -0.18)">
      <defs>
       <path id="DejaVuSans-43" d="M 4122 4306 
L 4122 3641 
Q 3803 3938 3442 4084 
Q 3081 4231 2675 4231 
Q 1875 4231 1450 3742 
Q 1025 3253 1025 2328 
Q 1025 1406 1450 917 
Q 1875 428 2675 428 
Q 3081 428 3442 575 
Q 3803 722 4122 1019 
L 4122 359 
Q 3791 134 3420 21 
Q 3050 -91 2638 -91 
Q 1578 -91 968 557 
Q 359 1206 359 2328 
Q 359 3453 968 4101 
Q 1578 4750 2638 4750 
Q 3056 4750 3426 4639 
Q 3797 4528 4122 4306 
z
" transform="scale(0.015625)"/>
       <path id="DejaVuSans-6f" d="M 1959 3097 
Q 1497 3097 1228 2736 
Q 959 2375 959 1747 
Q 959 1119 1226 758 
Q 1494 397 1959 397 
Q 2419 397 2687 759 
Q 2956 1122 2956 1747 
Q 2956 2369 2687 2733 
Q 2419 3097 1959 3097 
z
M 1959 3584 
Q 2709 3584 3137 3096 
Q 3566 2609 3566 1747 
Q 3566 888 3137 398 
Q 2709 -91 1959 -91 
Q 1206 -91 779 398 
Q 353 888 353 1747 
Q 353 2609 779 3096 
Q 1206 3584 1959 3584 
z
" transform="scale(0.015625)"/>
       <path id="DejaVuSans-75" d="M 544 1381 
L 544 3500 
L 1119 3500 
L 1119 1403 
Q 1119 906 1312 657 
Q 1506 409 1894 409 
Q 2359 409 2629 706 
Q 2900 1003 2900 1516 
L 2900 3500 
L 3475 3500 
L 3475 0 
L 2900 0 
L 2900 538 
Q 2691 219 2414 64 
Q 2138 -91 1772 -91 
Q 1169 -91 856 284 
Q 544 659 544 1381 
z
M 1991 3584 
L 1991 3584 
z
" transform="scale(0.015625)"/>
       <path id="DejaVuSans-6e" d="M 3513 2113 
L 3513 0 
L 2938 0 
L 2938 2094 
Q 2938 2591 2744 2837 
Q 2550 3084 2163 3084 
Q 1697 3084 1428 2787 
Q 1159 2491 1159 1978 
L 1159 0 
L 581 0 
L 581 3500 
L 1159 3500 
L 1159 2956 
Q 1366 3272 1645 3428 
Q 1925 3584 2291 3584 
Q 2894 3584 3203 3211 
Q 3513 2838 3513 2113 
z
" transform="scale(0.015625)"/>
       <path id="DejaVuSans-74" d="M 1172 4494 
L 1172 3500 
L 2356 3500 
L 2356 3053 
L 1172 3053 
L 1172 1153 
Q 1172 725 1289 603 
Q 1406 481 1766 481 
L 2356 481 
L 2356 0 
L 1766 0 
Q 1100 0 847 248 
Q 594 497 594 1153 
L 594 3053 
L 172 3053 
L 172 3500 
L 594 3500 
L 594 4494 
L 1172 4494 
z
" transform="scale(0.015625)"/>
      </defs>
      <use xlink:href="#DejaVuSans-43"/>
      <use xlink:href="#DejaVuSans-6f" x="69.824219"/>
      <use xlink:href="#DejaVuSans-75" x="131.005859"/>
      <use xlink:href="#DejaVuSans-6e" x="194.384766"/>
      <use xlink:href="#DejaVuSans-74" x="257.763672"/>
     </g>
    </g>
   </g>
   <g id="line2d_12">
    <path d="M 286.648424 382.84 
L 286.648424 28.51619 
" clip-path="url(#p1b2276d497)" style="fill: none; stroke: #ff0000; stroke-width: 1.6; stroke-linecap: square"/>
   </g>
   <g id="patch_256">
    <path d="M 70.67 382.84 
L 70.67 10.8 
" style="fill: none; stroke: #000000; stroke-width: 0.8; stroke-linejoin: miter; stroke-linecap: square"/>
   </g>
   <g id="patch_257">
    <path d="M 563.997766 382.84 
L 563.997766 10.8 
" style="fill: none; stroke: #000000; stroke-width: 0.8; stroke-linejoin: miter; stroke-linecap: square"/>
   </g>
   <g id="patch_258">
    <path d="M 70.67 382.84 
L 563.997766 382.84 
" style="fill: none; stroke: #000000; stroke-width: 0.8; stroke-linejoin: miter; stroke-linecap: square"/>
   </g>
   <g id="patch_259">
    <path d="M 70.67 10.8 
L 563.997766 10.8 
" style="fill: none; stroke: #000000; stroke-width: 0.8; stroke-linejoin: miter; stroke-linecap: square"/>
   </g>
   <g id="text_14">
    <!-- $\mu_8 = -8.186$ -->
    <g transform="translate(415.999436 61.649937) scale(0.21 -0.21)">
     <defs>
      <path id="DejaVuSans-Oblique-3bc" d="M -84 -1331 
L 856 3500 
L 1434 3500 
L 1009 1322 
Q 997 1256 987 1175 
Q 978 1094 978 1013 
Q 978 722 1161 565 
Q 1344 409 1684 409 
Q 2147 409 2431 671 
Q 2716 934 2816 1459 
L 3213 3500 
L 3788 3500 
L 3266 809 
Q 3253 750 3248 706 
Q 3244 663 3244 628 
Q 3244 531 3283 486 
Q 3322 441 3406 441 
Q 3438 441 3492 456 
Q 3547 472 3647 513 
L 3559 50 
Q 3422 -19 3297 -55 
Q 3172 -91 3053 -91 
Q 2847 -91 2730 40 
Q 2613 172 2613 403 
Q 2438 153 2195 31 
Q 1953 -91 1625 -91 
Q 1334 -91 1117 43 
Q 900 178 831 397 
L 494 -1331 
L -84 -1331 
z
" transform="scale(0.015625)"/>
      <path id="DejaVuSans-3d" d="M 678 2906 
L 4684 2906 
L 4684 2381 
L 678 2381 
L 678 2906 
z
M 678 1631 
L 4684 1631 
L 4684 1100 
L 678 1100 
L 678 1631 
z
" transform="scale(0.015625)"/>
      <path id="DejaVuSans-2e" d="M 684 794 
L 1344 794 
L 1344 0 
L 684 0 
L 684 794 
z
" transform="scale(0.015625)"/>
     </defs>
     <use xlink:href="#DejaVuSans-Oblique-3bc" transform="translate(0 0.78125)"/>
     <use xlink:href="#DejaVuSans-38" transform="translate(63.623047 -15.625) scale(0.7)"/>
     <use xlink:href="#DejaVuSans-3d" transform="translate(130.375977 0.78125)"/>
     <use xlink:href="#DejaVuSans-2212" transform="translate(253.129883 0.78125)"/>
     <use xlink:href="#DejaVuSans-38" transform="translate(356.401367 0.78125)"/>
     <use xlink:href="#DejaVuSans-2e" transform="translate(420.024414 0.78125)"/>
     <use xlink:href="#DejaVuSans-31" transform="translate(451.811523 0.78125)"/>
     <use xlink:href="#DejaVuSans-38" transform="translate(515.43457 0.78125)"/>
     <use xlink:href="#DejaVuSans-36" transform="translate(579.057617 0.78125)"/>
    </g>
    <!-- $\sigma_8 = 0.958$ -->
    <g transform="translate(415.999436 85.208) scale(0.21 -0.21)">
     <defs>
      <path id="DejaVuSans-Oblique-3c3" d="M 2219 3044 
Q 1744 3044 1422 2700 
Q 1081 2341 969 1747 
Q 844 1119 1044 756 
Q 1241 397 1706 397 
Q 2166 397 2503 759 
Q 2844 1122 2966 1747 
Q 3075 2319 2881 2700 
Q 2700 3044 2219 3044 
z
M 2309 3503 
L 4219 3500 
L 4106 2925 
L 3463 2925 
Q 3706 2438 3575 1747 
Q 3406 888 2884 400 
Q 2359 -91 1609 -91 
Q 856 -91 525 400 
Q 194 888 363 1747 
Q 528 2609 1050 3097 
Q 1484 3503 2309 3503 
z
" transform="scale(0.015625)"/>
      <path id="DejaVuSans-39" d="M 703 97 
L 703 672 
Q 941 559 1184 500 
Q 1428 441 1663 441 
Q 2288 441 2617 861 
Q 2947 1281 2994 2138 
Q 2813 1869 2534 1725 
Q 2256 1581 1919 1581 
Q 1219 1581 811 2004 
Q 403 2428 403 3163 
Q 403 3881 828 4315 
Q 1253 4750 1959 4750 
Q 2769 4750 3195 4129 
Q 3622 3509 3622 2328 
Q 3622 1225 3098 567 
Q 2575 -91 1691 -91 
Q 1453 -91 1209 -44 
Q 966 3 703 97 
z
M 1959 2075 
Q 2384 2075 2632 2365 
Q 2881 2656 2881 3163 
Q 2881 3666 2632 3958 
Q 2384 4250 1959 4250 
Q 1534 4250 1286 3958 
Q 1038 3666 1038 3163 
Q 1038 2656 1286 2365 
Q 1534 2075 1959 2075 
z
" transform="scale(0.015625)"/>
      <path id="DejaVuSans-35" d="M 691 4666 
L 3169 4666 
L 3169 4134 
L 1269 4134 
L 1269 2991 
Q 1406 3038 1543 3061 
Q 1681 3084 1819 3084 
Q 2600 3084 3056 2656 
Q 3513 2228 3513 1497 
Q 3513 744 3044 326 
Q 2575 -91 1722 -91 
Q 1428 -91 1123 -41 
Q 819 9 494 109 
L 494 744 
Q 775 591 1075 516 
Q 1375 441 1709 441 
Q 2250 441 2565 725 
Q 2881 1009 2881 1497 
Q 2881 1984 2565 2268 
Q 2250 2553 1709 2553 
Q 1456 2553 1204 2497 
Q 953 2441 691 2322 
L 691 4666 
z
" transform="scale(0.015625)"/>
     </defs>
     <use xlink:href="#DejaVuSans-Oblique-3c3" transform="translate(0 0.78125)"/>
     <use xlink:href="#DejaVuSans-38" transform="translate(63.378906 -15.625) scale(0.7)"/>
     <use xlink:href="#DejaVuSans-3d" transform="translate(130.131836 0.78125)"/>
     <use xlink:href="#DejaVuSans-30" transform="translate(233.40332 0.78125)"/>
     <use xlink:href="#DejaVuSans-2e" transform="translate(297.026367 0.78125)"/>
     <use xlink:href="#DejaVuSans-39" transform="translate(328.813477 0.78125)"/>
     <use xlink:href="#DejaVuSans-35" transform="translate(392.436523 0.78125)"/>
     <use xlink:href="#DejaVuSans-38" transform="translate(456.05957 0.78125)"/>
    </g>
   </g>
  </g>
 </g>
 <defs>
  <clipPath id="p1b2276d497">
   <rect x="70.67" y="10.8" width="493.327766" height="372.04"/>
  </clipPath>
 </defs>
</svg>
