<?xml version="1.0" encoding="utf-8" standalone="no"?>
<!DOCTYPE svg PUBLIC "-//W3C//DTD SVG 1.1//EN"
  "http://www.w3.org/Graphics/SVG/1.1/DTD/svg11.dtd">
<svg xmlns:xlink="http://www.w3.org/1999/xlink" width="576pt" height="432pt" viewBox="0 0 576 432" xmlns="http://www.w3.org/2000/svg" version="1.1">
 <metadata>
  <rdf:RDF xmlns:dc="http://purl.org/dc/elements/1.1/" xmlns:cc="http://creativecommons.org/ns#" xmlns:rdf="http://www.w3.org/1999/02/22-rdf-syntax-ns#">
   <cc:Work>
    <dc:type rdf:resource="http://purl.org/dc/dcmitype/StillImage"/>
    <dc:date>2024-09-05T19:41:17.280392</dc:date>
    <dc:format>image/svg+xml</dc:format>
    <dc:creator>
     <cc:Agent>
      <dc:title>Matplotlib v3.7.2, https://matplotlib.org/</dc:title>
     </cc:Agent>
    </dc:creator>
   </cc:Work>
  </rdf:RDF>
 </metadata>
 <defs>
  <style type="text/css">*{stroke-linejoin: round; stroke-linecap: butt}</style>
 </defs>
 <g id="figure_1">
  <g id="patch_1">
   <path d="M 0 432 
L 576 432 
L 576 0 
L 0 0 
z
" style="fill: #ffffff"/>
  </g>
  <g id="axes_1">
   <g id="patch_2">
    <path d="M 70.67 382.84 
L 563.997766 382.84 
L 563.997766 10.8 
L 70.67 10.8 
z
" style="fill: #ffffff"/>
   </g>
   <g id="patch_3">
    <path d="M 93.093989 382.84 
L 95.096131 382.84 
L 95.096131 382.808415 
L 93.093989 382.808415 
z
" clip-path="url(#p560390e85a)" style="fill: #1f77b4"/>
   </g>
   <g id="patch_4">
    <path d="M 95.096131 382.84 
L 97.098273 382.84 
L 97.098273 382.84 
L 95.096131 382.84 
z
" clip-path="url(#p560390e85a)" style="fill: #1f77b4"/>
   </g>
   <g id="patch_5">
    <path d="M 97.098273 382.84 
L 99.100415 382.84 
L 99.100415 382.84 
L 97.098273 382.84 
z
" clip-path="url(#p560390e85a)" style="fill: #1f77b4"/>
   </g>
   <g id="patch_6">
    <path d="M 99.100415 382.84 
L 101.102557 382.84 
L 101.102557 382.84 
L 99.100415 382.84 
z
" clip-path="url(#p560390e85a)" style="fill: #1f77b4"/>
   </g>
   <g id="patch_7">
    <path d="M 101.102557 382.84 
L 103.104699 382.84 
L 103.104699 382.84 
L 101.102557 382.84 
z
" clip-path="url(#p560390e85a)" style="fill: #1f77b4"/>
   </g>
   <g id="patch_8">
    <path d="M 103.104699 382.84 
L 105.106841 382.84 
L 105.106841 382.84 
L 103.104699 382.84 
z
" clip-path="url(#p560390e85a)" style="fill: #1f77b4"/>
   </g>
   <g id="patch_9">
    <path d="M 105.106841 382.84 
L 107.108983 382.84 
L 107.108983 382.84 
L 105.106841 382.84 
z
" clip-path="url(#p560390e85a)" style="fill: #1f77b4"/>
   </g>
   <g id="patch_10">
    <path d="M 107.108983 382.84 
L 109.111125 382.84 
L 109.111125 382.84 
L 107.108983 382.84 
z
" clip-path="url(#p560390e85a)" style="fill: #1f77b4"/>
   </g>
   <g id="patch_11">
    <path d="M 109.111125 382.84 
L 111.113267 382.84 
L 111.113267 382.84 
L 109.111125 382.84 
z
" clip-path="url(#p560390e85a)" style="fill: #1f77b4"/>
   </g>
   <g id="patch_12">
    <path d="M 111.113267 382.84 
L 113.115408 382.84 
L 113.115408 382.776829 
L 111.113267 382.776829 
z
" clip-path="url(#p560390e85a)" style="fill: #1f77b4"/>
   </g>
   <g id="patch_13">
    <path d="M 113.115408 382.84 
L 115.11755 382.84 
L 115.11755 382.84 
L 113.115408 382.84 
z
" clip-path="url(#p560390e85a)" style="fill: #1f77b4"/>
   </g>
   <g id="patch_14">
    <path d="M 115.11755 382.84 
L 117.119692 382.84 
L 117.119692 382.84 
L 115.11755 382.84 
z
" clip-path="url(#p560390e85a)" style="fill: #1f77b4"/>
   </g>
   <g id="patch_15">
    <path d="M 117.119692 382.84 
L 119.121834 382.84 
L 119.121834 382.808415 
L 117.119692 382.808415 
z
" clip-path="url(#p560390e85a)" style="fill: #1f77b4"/>
   </g>
   <g id="patch_16">
    <path d="M 119.121834 382.84 
L 121.123976 382.84 
L 121.123976 382.84 
L 119.121834 382.84 
z
" clip-path="url(#p560390e85a)" style="fill: #1f77b4"/>
   </g>
   <g id="patch_17">
    <path d="M 121.123976 382.84 
L 123.126118 382.84 
L 123.126118 382.84 
L 121.123976 382.84 
z
" clip-path="url(#p560390e85a)" style="fill: #1f77b4"/>
   </g>
   <g id="patch_18">
    <path d="M 123.126118 382.84 
L 125.12826 382.84 
L 125.12826 382.84 
L 123.126118 382.84 
z
" clip-path="url(#p560390e85a)" style="fill: #1f77b4"/>
   </g>
   <g id="patch_19">
    <path d="M 125.12826 382.84 
L 127.130402 382.84 
L 127.130402 382.84 
L 125.12826 382.84 
z
" clip-path="url(#p560390e85a)" style="fill: #1f77b4"/>
   </g>
   <g id="patch_20">
    <path d="M 127.130402 382.84 
L 129.132544 382.84 
L 129.132544 382.776829 
L 127.130402 382.776829 
z
" clip-path="url(#p560390e85a)" style="fill: #1f77b4"/>
   </g>
   <g id="patch_21">
    <path d="M 129.132544 382.84 
L 131.134686 382.84 
L 131.134686 382.84 
L 129.132544 382.84 
z
" clip-path="url(#p560390e85a)" style="fill: #1f77b4"/>
   </g>
   <g id="patch_22">
    <path d="M 131.134686 382.84 
L 133.136828 382.84 
L 133.136828 382.84 
L 131.134686 382.84 
z
" clip-path="url(#p560390e85a)" style="fill: #1f77b4"/>
   </g>
   <g id="patch_23">
    <path d="M 133.136828 382.84 
L 135.138969 382.84 
L 135.138969 382.84 
L 133.136828 382.84 
z
" clip-path="url(#p560390e85a)" style="fill: #1f77b4"/>
   </g>
   <g id="patch_24">
    <path d="M 135.138969 382.84 
L 137.141111 382.84 
L 137.141111 382.84 
L 135.138969 382.84 
z
" clip-path="url(#p560390e85a)" style="fill: #1f77b4"/>
   </g>
   <g id="patch_25">
    <path d="M 137.141111 382.84 
L 139.143253 382.84 
L 139.143253 382.745244 
L 137.141111 382.745244 
z
" clip-path="url(#p560390e85a)" style="fill: #1f77b4"/>
   </g>
   <g id="patch_26">
    <path d="M 139.143253 382.84 
L 141.145395 382.84 
L 141.145395 382.84 
L 139.143253 382.84 
z
" clip-path="url(#p560390e85a)" style="fill: #1f77b4"/>
   </g>
   <g id="patch_27">
    <path d="M 141.145395 382.84 
L 143.147537 382.84 
L 143.147537 382.776829 
L 141.145395 382.776829 
z
" clip-path="url(#p560390e85a)" style="fill: #1f77b4"/>
   </g>
   <g id="patch_28">
    <path d="M 143.147537 382.84 
L 145.149679 382.84 
L 145.149679 382.84 
L 143.147537 382.84 
z
" clip-path="url(#p560390e85a)" style="fill: #1f77b4"/>
   </g>
   <g id="patch_29">
    <path d="M 145.149679 382.84 
L 147.151821 382.84 
L 147.151821 382.84 
L 145.149679 382.84 
z
" clip-path="url(#p560390e85a)" style="fill: #1f77b4"/>
   </g>
   <g id="patch_30">
    <path d="M 147.151821 382.84 
L 149.153963 382.84 
L 149.153963 382.713659 
L 147.151821 382.713659 
z
" clip-path="url(#p560390e85a)" style="fill: #1f77b4"/>
   </g>
   <g id="patch_31">
    <path d="M 149.153963 382.84 
L 151.156105 382.84 
L 151.156105 382.84 
L 149.153963 382.84 
z
" clip-path="url(#p560390e85a)" style="fill: #1f77b4"/>
   </g>
   <g id="patch_32">
    <path d="M 151.156105 382.84 
L 153.158247 382.84 
L 153.158247 382.492562 
L 151.156105 382.492562 
z
" clip-path="url(#p560390e85a)" style="fill: #1f77b4"/>
   </g>
   <g id="patch_33">
    <path d="M 153.158247 382.84 
L 155.160389 382.84 
L 155.160389 382.84 
L 153.158247 382.84 
z
" clip-path="url(#p560390e85a)" style="fill: #1f77b4"/>
   </g>
   <g id="patch_34">
    <path d="M 155.160389 382.84 
L 157.16253 382.84 
L 157.16253 382.84 
L 155.160389 382.84 
z
" clip-path="url(#p560390e85a)" style="fill: #1f77b4"/>
   </g>
   <g id="patch_35">
    <path d="M 157.16253 382.84 
L 159.164672 382.84 
L 159.164672 382.30305 
L 157.16253 382.30305 
z
" clip-path="url(#p560390e85a)" style="fill: #1f77b4"/>
   </g>
   <g id="patch_36">
    <path d="M 159.164672 382.84 
L 161.166814 382.84 
L 161.166814 382.84 
L 159.164672 382.84 
z
" clip-path="url(#p560390e85a)" style="fill: #1f77b4"/>
   </g>
   <g id="patch_37">
    <path d="M 161.166814 382.84 
L 163.168956 382.84 
L 163.168956 382.460976 
L 161.166814 382.460976 
z
" clip-path="url(#p560390e85a)" style="fill: #1f77b4"/>
   </g>
   <g id="patch_38">
    <path d="M 163.168956 382.84 
L 165.171098 382.84 
L 165.171098 382.84 
L 163.168956 382.84 
z
" clip-path="url(#p560390e85a)" style="fill: #1f77b4"/>
   </g>
   <g id="patch_39">
    <path d="M 165.171098 382.84 
L 167.17324 382.84 
L 167.17324 382.334635 
L 165.171098 382.334635 
z
" clip-path="url(#p560390e85a)" style="fill: #1f77b4"/>
   </g>
   <g id="patch_40">
    <path d="M 167.17324 382.84 
L 169.175382 382.84 
L 169.175382 382.84 
L 167.17324 382.84 
z
" clip-path="url(#p560390e85a)" style="fill: #1f77b4"/>
   </g>
   <g id="patch_41">
    <path d="M 169.175382 382.84 
L 171.177524 382.84 
L 171.177524 382.84 
L 169.175382 382.84 
z
" clip-path="url(#p560390e85a)" style="fill: #1f77b4"/>
   </g>
   <g id="patch_42">
    <path d="M 171.177524 382.84 
L 173.179666 382.84 
L 173.179666 381.924027 
L 171.177524 381.924027 
z
" clip-path="url(#p560390e85a)" style="fill: #1f77b4"/>
   </g>
   <g id="patch_43">
    <path d="M 173.179666 382.84 
L 175.181808 382.84 
L 175.181808 382.84 
L 173.179666 382.84 
z
" clip-path="url(#p560390e85a)" style="fill: #1f77b4"/>
   </g>
   <g id="patch_44">
    <path d="M 175.181808 382.84 
L 177.18395 382.84 
L 177.18395 381.481832 
L 175.181808 381.481832 
z
" clip-path="url(#p560390e85a)" style="fill: #1f77b4"/>
   </g>
   <g id="patch_45">
    <path d="M 177.18395 382.84 
L 179.186091 382.84 
L 179.186091 382.84 
L 177.18395 382.84 
z
" clip-path="url(#p560390e85a)" style="fill: #1f77b4"/>
   </g>
   <g id="patch_46">
    <path d="M 179.186091 382.84 
L 181.188233 382.84 
L 181.188233 382.84 
L 179.186091 382.84 
z
" clip-path="url(#p560390e85a)" style="fill: #1f77b4"/>
   </g>
   <g id="patch_47">
    <path d="M 181.188233 382.84 
L 183.190375 382.84 
L 183.190375 381.071224 
L 181.188233 381.071224 
z
" clip-path="url(#p560390e85a)" style="fill: #1f77b4"/>
   </g>
   <g id="patch_48">
    <path d="M 183.190375 382.84 
L 185.192517 382.84 
L 185.192517 382.84 
L 183.190375 382.84 
z
" clip-path="url(#p560390e85a)" style="fill: #1f77b4"/>
   </g>
   <g id="patch_49">
    <path d="M 185.192517 382.84 
L 187.194659 382.84 
L 187.194659 379.776227 
L 185.192517 379.776227 
z
" clip-path="url(#p560390e85a)" style="fill: #1f77b4"/>
   </g>
   <g id="patch_50">
    <path d="M 187.194659 382.84 
L 189.196801 382.84 
L 189.196801 382.84 
L 187.194659 382.84 
z
" clip-path="url(#p560390e85a)" style="fill: #1f77b4"/>
   </g>
   <g id="patch_51">
    <path d="M 189.196801 382.84 
L 191.198943 382.84 
L 191.198943 382.84 
L 189.196801 382.84 
z
" clip-path="url(#p560390e85a)" style="fill: #1f77b4"/>
   </g>
   <g id="patch_52">
    <path d="M 191.198943 382.84 
L 193.201085 382.84 
L 193.201085 379.681471 
L 191.198943 379.681471 
z
" clip-path="url(#p560390e85a)" style="fill: #1f77b4"/>
   </g>
   <g id="patch_53">
    <path d="M 193.201085 382.84 
L 195.203227 382.84 
L 195.203227 382.84 
L 193.201085 382.84 
z
" clip-path="url(#p560390e85a)" style="fill: #1f77b4"/>
   </g>
   <g id="patch_54">
    <path d="M 195.203227 382.84 
L 197.205369 382.84 
L 197.205369 379.586715 
L 195.203227 379.586715 
z
" clip-path="url(#p560390e85a)" style="fill: #1f77b4"/>
   </g>
   <g id="patch_55">
    <path d="M 197.205369 382.84 
L 199.20751 382.84 
L 199.20751 382.84 
L 197.205369 382.84 
z
" clip-path="url(#p560390e85a)" style="fill: #1f77b4"/>
   </g>
   <g id="patch_56">
    <path d="M 199.20751 382.84 
L 201.209652 382.84 
L 201.209652 382.84 
L 199.20751 382.84 
z
" clip-path="url(#p560390e85a)" style="fill: #1f77b4"/>
   </g>
   <g id="patch_57">
    <path d="M 201.209652 382.84 
L 203.211794 382.84 
L 203.211794 377.975865 
L 201.209652 377.975865 
z
" clip-path="url(#p560390e85a)" style="fill: #1f77b4"/>
   </g>
   <g id="patch_58">
    <path d="M 203.211794 382.84 
L 205.213936 382.84 
L 205.213936 382.84 
L 203.211794 382.84 
z
" clip-path="url(#p560390e85a)" style="fill: #1f77b4"/>
   </g>
   <g id="patch_59">
    <path d="M 205.213936 382.84 
L 207.216078 382.84 
L 207.216078 375.701724 
L 205.213936 375.701724 
z
" clip-path="url(#p560390e85a)" style="fill: #1f77b4"/>
   </g>
   <g id="patch_60">
    <path d="M 207.216078 382.84 
L 209.21822 382.84 
L 209.21822 382.84 
L 207.216078 382.84 
z
" clip-path="url(#p560390e85a)" style="fill: #1f77b4"/>
   </g>
   <g id="patch_61">
    <path d="M 209.21822 382.84 
L 211.220362 382.84 
L 211.220362 382.84 
L 209.21822 382.84 
z
" clip-path="url(#p560390e85a)" style="fill: #1f77b4"/>
   </g>
   <g id="patch_62">
    <path d="M 211.220362 382.84 
L 213.222504 382.84 
L 213.222504 373.806606 
L 211.220362 373.806606 
z
" clip-path="url(#p560390e85a)" style="fill: #1f77b4"/>
   </g>
   <g id="patch_63">
    <path d="M 213.222504 382.84 
L 215.224646 382.84 
L 215.224646 382.84 
L 213.222504 382.84 
z
" clip-path="url(#p560390e85a)" style="fill: #1f77b4"/>
   </g>
   <g id="patch_64">
    <path d="M 215.224646 382.84 
L 217.226788 382.84 
L 217.226788 371.058686 
L 215.224646 371.058686 
z
" clip-path="url(#p560390e85a)" style="fill: #1f77b4"/>
   </g>
   <g id="patch_65">
    <path d="M 217.226788 382.84 
L 219.22893 382.84 
L 219.22893 382.84 
L 217.226788 382.84 
z
" clip-path="url(#p560390e85a)" style="fill: #1f77b4"/>
   </g>
   <g id="patch_66">
    <path d="M 219.22893 382.84 
L 221.231071 382.84 
L 221.231071 382.84 
L 219.22893 382.84 
z
" clip-path="url(#p560390e85a)" style="fill: #1f77b4"/>
   </g>
   <g id="patch_67">
    <path d="M 221.231071 382.84 
L 223.233213 382.84 
L 223.233213 367.552719 
L 221.231071 367.552719 
z
" clip-path="url(#p560390e85a)" style="fill: #1f77b4"/>
   </g>
   <g id="patch_68">
    <path d="M 223.233213 382.84 
L 225.235355 382.84 
L 225.235355 382.84 
L 223.233213 382.84 
z
" clip-path="url(#p560390e85a)" style="fill: #1f77b4"/>
   </g>
   <g id="patch_69">
    <path d="M 225.235355 382.84 
L 227.237497 382.84 
L 227.237497 363.541386 
L 225.235355 363.541386 
z
" clip-path="url(#p560390e85a)" style="fill: #1f77b4"/>
   </g>
   <g id="patch_70">
    <path d="M 227.237497 382.84 
L 229.239639 382.84 
L 229.239639 382.84 
L 227.237497 382.84 
z
" clip-path="url(#p560390e85a)" style="fill: #1f77b4"/>
   </g>
   <g id="patch_71">
    <path d="M 229.239639 382.84 
L 231.241781 382.84 
L 231.241781 357.919204 
L 229.239639 357.919204 
z
" clip-path="url(#p560390e85a)" style="fill: #1f77b4"/>
   </g>
   <g id="patch_72">
    <path d="M 231.241781 382.84 
L 233.243923 382.84 
L 233.243923 382.84 
L 231.241781 382.84 
z
" clip-path="url(#p560390e85a)" style="fill: #1f77b4"/>
   </g>
   <g id="patch_73">
    <path d="M 233.243923 382.84 
L 235.246065 382.84 
L 235.246065 382.84 
L 233.243923 382.84 
z
" clip-path="url(#p560390e85a)" style="fill: #1f77b4"/>
   </g>
   <g id="patch_74">
    <path d="M 235.246065 382.84 
L 237.248207 382.84 
L 237.248207 352.202266 
L 235.246065 352.202266 
z
" clip-path="url(#p560390e85a)" style="fill: #1f77b4"/>
   </g>
   <g id="patch_75">
    <path d="M 237.248207 382.84 
L 239.250349 382.84 
L 239.250349 382.84 
L 237.248207 382.84 
z
" clip-path="url(#p560390e85a)" style="fill: #1f77b4"/>
   </g>
   <g id="patch_76">
    <path d="M 239.250349 382.84 
L 241.252491 382.84 
L 241.252491 342.094973 
L 239.250349 342.094973 
z
" clip-path="url(#p560390e85a)" style="fill: #1f77b4"/>
   </g>
   <g id="patch_77">
    <path d="M 241.252491 382.84 
L 243.254632 382.84 
L 243.254632 382.84 
L 241.252491 382.84 
z
" clip-path="url(#p560390e85a)" style="fill: #1f77b4"/>
   </g>
   <g id="patch_78">
    <path d="M 243.254632 382.84 
L 245.256774 382.84 
L 245.256774 382.84 
L 243.254632 382.84 
z
" clip-path="url(#p560390e85a)" style="fill: #1f77b4"/>
   </g>
   <g id="patch_79">
    <path d="M 245.256774 382.84 
L 247.258916 382.84 
L 247.258916 334.704014 
L 245.256774 334.704014 
z
" clip-path="url(#p560390e85a)" style="fill: #1f77b4"/>
   </g>
   <g id="patch_80">
    <path d="M 247.258916 382.84 
L 249.261058 382.84 
L 249.261058 382.84 
L 247.258916 382.84 
z
" clip-path="url(#p560390e85a)" style="fill: #1f77b4"/>
   </g>
   <g id="patch_81">
    <path d="M 249.261058 382.84 
L 251.2632 382.84 
L 251.2632 322.796359 
L 249.261058 322.796359 
z
" clip-path="url(#p560390e85a)" style="fill: #1f77b4"/>
   </g>
   <g id="patch_82">
    <path d="M 251.2632 382.84 
L 253.265342 382.84 
L 253.265342 382.84 
L 251.2632 382.84 
z
" clip-path="url(#p560390e85a)" style="fill: #1f77b4"/>
   </g>
   <g id="patch_83">
    <path d="M 253.265342 382.84 
L 255.267484 382.84 
L 255.267484 382.84 
L 253.265342 382.84 
z
" clip-path="url(#p560390e85a)" style="fill: #1f77b4"/>
   </g>
   <g id="patch_84">
    <path d="M 255.267484 382.84 
L 257.269626 382.84 
L 257.269626 312.562725 
L 255.267484 312.562725 
z
" clip-path="url(#p560390e85a)" style="fill: #1f77b4"/>
   </g>
   <g id="patch_85">
    <path d="M 257.269626 382.84 
L 259.271768 382.84 
L 259.271768 382.84 
L 257.269626 382.84 
z
" clip-path="url(#p560390e85a)" style="fill: #1f77b4"/>
   </g>
   <g id="patch_86">
    <path d="M 259.271768 382.84 
L 261.27391 382.84 
L 261.27391 293.864231 
L 259.271768 293.864231 
z
" clip-path="url(#p560390e85a)" style="fill: #1f77b4"/>
   </g>
   <g id="patch_87">
    <path d="M 261.27391 382.84 
L 263.276052 382.84 
L 263.276052 382.84 
L 261.27391 382.84 
z
" clip-path="url(#p560390e85a)" style="fill: #1f77b4"/>
   </g>
   <g id="patch_88">
    <path d="M 263.276052 382.84 
L 265.278193 382.84 
L 265.278193 382.84 
L 263.276052 382.84 
z
" clip-path="url(#p560390e85a)" style="fill: #1f77b4"/>
   </g>
   <g id="patch_89">
    <path d="M 265.278193 382.84 
L 267.280335 382.84 
L 267.280335 279.619265 
L 265.278193 279.619265 
z
" clip-path="url(#p560390e85a)" style="fill: #1f77b4"/>
   </g>
   <g id="patch_90">
    <path d="M 267.280335 382.84 
L 269.282477 382.84 
L 269.282477 382.84 
L 267.280335 382.84 
z
" clip-path="url(#p560390e85a)" style="fill: #1f77b4"/>
   </g>
   <g id="patch_91">
    <path d="M 269.282477 382.84 
L 271.284619 382.84 
L 271.284619 260.541748 
L 269.282477 260.541748 
z
" clip-path="url(#p560390e85a)" style="fill: #1f77b4"/>
   </g>
   <g id="patch_92">
    <path d="M 271.284619 382.84 
L 273.286761 382.84 
L 273.286761 382.84 
L 271.284619 382.84 
z
" clip-path="url(#p560390e85a)" style="fill: #1f77b4"/>
   </g>
   <g id="patch_93">
    <path d="M 273.286761 382.84 
L 275.288903 382.84 
L 275.288903 382.84 
L 273.286761 382.84 
z
" clip-path="url(#p560390e85a)" style="fill: #1f77b4"/>
   </g>
   <g id="patch_94">
    <path d="M 275.288903 382.84 
L 277.291045 382.84 
L 277.291045 245.601905 
L 275.288903 245.601905 
z
" clip-path="url(#p560390e85a)" style="fill: #1f77b4"/>
   </g>
   <g id="patch_95">
    <path d="M 277.291045 382.84 
L 279.293187 382.84 
L 279.293187 382.84 
L 277.291045 382.84 
z
" clip-path="url(#p560390e85a)" style="fill: #1f77b4"/>
   </g>
   <g id="patch_96">
    <path d="M 279.293187 382.84 
L 281.295329 382.84 
L 281.295329 217.743677 
L 279.293187 217.743677 
z
" clip-path="url(#p560390e85a)" style="fill: #1f77b4"/>
   </g>
   <g id="patch_97">
    <path d="M 281.295329 382.84 
L 283.297471 382.84 
L 283.297471 382.84 
L 281.295329 382.84 
z
" clip-path="url(#p560390e85a)" style="fill: #1f77b4"/>
   </g>
   <g id="patch_98">
    <path d="M 283.297471 382.84 
L 285.299613 382.84 
L 285.299613 382.84 
L 283.297471 382.84 
z
" clip-path="url(#p560390e85a)" style="fill: #1f77b4"/>
   </g>
   <g id="patch_99">
    <path d="M 285.299613 382.84 
L 287.301754 382.84 
L 287.301754 198.445063 
L 285.299613 198.445063 
z
" clip-path="url(#p560390e85a)" style="fill: #1f77b4"/>
   </g>
   <g id="patch_100">
    <path d="M 287.301754 382.84 
L 289.303896 382.84 
L 289.303896 382.84 
L 287.301754 382.84 
z
" clip-path="url(#p560390e85a)" style="fill: #1f77b4"/>
   </g>
   <g id="patch_101">
    <path d="M 289.303896 382.84 
L 291.306038 382.84 
L 291.306038 171.439638 
L 289.303896 171.439638 
z
" clip-path="url(#p560390e85a)" style="fill: #1f77b4"/>
   </g>
   <g id="patch_102">
    <path d="M 291.306038 382.84 
L 293.30818 382.84 
L 293.30818 382.84 
L 291.306038 382.84 
z
" clip-path="url(#p560390e85a)" style="fill: #1f77b4"/>
   </g>
   <g id="patch_103">
    <path d="M 293.30818 382.84 
L 295.310322 382.84 
L 295.310322 154.225654 
L 293.30818 154.225654 
z
" clip-path="url(#p560390e85a)" style="fill: #1f77b4"/>
   </g>
   <g id="patch_104">
    <path d="M 295.310322 382.84 
L 297.312464 382.84 
L 297.312464 382.84 
L 295.310322 382.84 
z
" clip-path="url(#p560390e85a)" style="fill: #1f77b4"/>
   </g>
   <g id="patch_105">
    <path d="M 297.312464 382.84 
L 299.314606 382.84 
L 299.314606 382.84 
L 297.312464 382.84 
z
" clip-path="url(#p560390e85a)" style="fill: #1f77b4"/>
   </g>
   <g id="patch_106">
    <path d="M 299.314606 382.84 
L 301.316748 382.84 
L 301.316748 127.504497 
L 299.314606 127.504497 
z
" clip-path="url(#p560390e85a)" style="fill: #1f77b4"/>
   </g>
   <g id="patch_107">
    <path d="M 301.316748 382.84 
L 303.31889 382.84 
L 303.31889 382.84 
L 301.316748 382.84 
z
" clip-path="url(#p560390e85a)" style="fill: #1f77b4"/>
   </g>
   <g id="patch_108">
    <path d="M 303.31889 382.84 
L 305.321032 382.84 
L 305.321032 104.510404 
L 303.31889 104.510404 
z
" clip-path="url(#p560390e85a)" style="fill: #1f77b4"/>
   </g>
   <g id="patch_109">
    <path d="M 305.321032 382.84 
L 307.323174 382.84 
L 307.323174 382.84 
L 305.321032 382.84 
z
" clip-path="url(#p560390e85a)" style="fill: #1f77b4"/>
   </g>
   <g id="patch_110">
    <path d="M 307.323174 382.84 
L 309.325315 382.84 
L 309.325315 382.84 
L 307.323174 382.84 
z
" clip-path="url(#p560390e85a)" style="fill: #1f77b4"/>
   </g>
   <g id="patch_111">
    <path d="M 309.325315 382.84 
L 311.327457 382.84 
L 311.327457 81.832164 
L 309.325315 81.832164 
z
" clip-path="url(#p560390e85a)" style="fill: #1f77b4"/>
   </g>
   <g id="patch_112">
    <path d="M 311.327457 382.84 
L 313.329599 382.84 
L 313.329599 382.84 
L 311.327457 382.84 
z
" clip-path="url(#p560390e85a)" style="fill: #1f77b4"/>
   </g>
   <g id="patch_113">
    <path d="M 313.329599 382.84 
L 315.331741 382.84 
L 315.331741 67.997806 
L 313.329599 67.997806 
z
" clip-path="url(#p560390e85a)" style="fill: #1f77b4"/>
   </g>
   <g id="patch_114">
    <path d="M 315.331741 382.84 
L 317.333883 382.84 
L 317.333883 382.84 
L 315.331741 382.84 
z
" clip-path="url(#p560390e85a)" style="fill: #1f77b4"/>
   </g>
   <g id="patch_115">
    <path d="M 317.333883 382.84 
L 319.336025 382.84 
L 319.336025 382.84 
L 317.333883 382.84 
z
" clip-path="url(#p560390e85a)" style="fill: #1f77b4"/>
   </g>
   <g id="patch_116">
    <path d="M 319.336025 382.84 
L 321.338167 382.84 
L 321.338167 52.521013 
L 319.336025 52.521013 
z
" clip-path="url(#p560390e85a)" style="fill: #1f77b4"/>
   </g>
   <g id="patch_117">
    <path d="M 321.338167 382.84 
L 323.340309 382.84 
L 323.340309 382.84 
L 321.338167 382.84 
z
" clip-path="url(#p560390e85a)" style="fill: #1f77b4"/>
   </g>
   <g id="patch_118">
    <path d="M 323.340309 382.84 
L 325.342451 382.84 
L 325.342451 38.591899 
L 323.340309 38.591899 
z
" clip-path="url(#p560390e85a)" style="fill: #1f77b4"/>
   </g>
   <g id="patch_119">
    <path d="M 325.342451 382.84 
L 327.344593 382.84 
L 327.344593 382.84 
L 325.342451 382.84 
z
" clip-path="url(#p560390e85a)" style="fill: #1f77b4"/>
   </g>
   <g id="patch_120">
    <path d="M 327.344593 382.84 
L 329.346735 382.84 
L 329.346735 382.84 
L 327.344593 382.84 
z
" clip-path="url(#p560390e85a)" style="fill: #1f77b4"/>
   </g>
   <g id="patch_121">
    <path d="M 329.346735 382.84 
L 331.348876 382.84 
L 331.348876 30.348137 
L 329.346735 30.348137 
z
" clip-path="url(#p560390e85a)" style="fill: #1f77b4"/>
   </g>
   <g id="patch_122">
    <path d="M 331.348876 382.84 
L 333.351018 382.84 
L 333.351018 382.84 
L 331.348876 382.84 
z
" clip-path="url(#p560390e85a)" style="fill: #1f77b4"/>
   </g>
   <g id="patch_123">
    <path d="M 333.351018 382.84 
L 335.35316 382.84 
L 335.35316 32.780205 
L 333.351018 32.780205 
z
" clip-path="url(#p560390e85a)" style="fill: #1f77b4"/>
   </g>
   <g id="patch_124">
    <path d="M 335.35316 382.84 
L 337.355302 382.84 
L 337.355302 382.84 
L 335.35316 382.84 
z
" clip-path="url(#p560390e85a)" style="fill: #1f77b4"/>
   </g>
   <g id="patch_125">
    <path d="M 337.355302 382.84 
L 339.357444 382.84 
L 339.357444 382.84 
L 337.355302 382.84 
z
" clip-path="url(#p560390e85a)" style="fill: #1f77b4"/>
   </g>
   <g id="patch_126">
    <path d="M 339.357444 382.84 
L 341.359586 382.84 
L 341.359586 28.51619 
L 339.357444 28.51619 
z
" clip-path="url(#p560390e85a)" style="fill: #1f77b4"/>
   </g>
   <g id="patch_127">
    <path d="M 341.359586 382.84 
L 343.361728 382.84 
L 343.361728 382.84 
L 341.359586 382.84 
z
" clip-path="url(#p560390e85a)" style="fill: #1f77b4"/>
   </g>
   <g id="patch_128">
    <path d="M 343.361728 382.84 
L 345.36387 382.84 
L 345.36387 32.559108 
L 343.361728 32.559108 
z
" clip-path="url(#p560390e85a)" style="fill: #1f77b4"/>
   </g>
   <g id="patch_129">
    <path d="M 345.36387 382.84 
L 347.366012 382.84 
L 347.366012 382.84 
L 345.36387 382.84 
z
" clip-path="url(#p560390e85a)" style="fill: #1f77b4"/>
   </g>
   <g id="patch_130">
    <path d="M 347.366012 382.84 
L 349.368154 382.84 
L 349.368154 382.84 
L 347.366012 382.84 
z
" clip-path="url(#p560390e85a)" style="fill: #1f77b4"/>
   </g>
   <g id="patch_131">
    <path d="M 349.368154 382.84 
L 351.370295 382.84 
L 351.370295 39.602628 
L 349.368154 39.602628 
z
" clip-path="url(#p560390e85a)" style="fill: #1f77b4"/>
   </g>
   <g id="patch_132">
    <path d="M 351.370295 382.84 
L 353.372437 382.84 
L 353.372437 382.84 
L 351.370295 382.84 
z
" clip-path="url(#p560390e85a)" style="fill: #1f77b4"/>
   </g>
   <g id="patch_133">
    <path d="M 353.372437 382.84 
L 355.374579 382.84 
L 355.374579 57.732586 
L 353.372437 57.732586 
z
" clip-path="url(#p560390e85a)" style="fill: #1f77b4"/>
   </g>
   <g id="patch_134">
    <path d="M 355.374579 382.84 
L 357.376721 382.84 
L 357.376721 382.84 
L 355.374579 382.84 
z
" clip-path="url(#p560390e85a)" style="fill: #1f77b4"/>
   </g>
   <g id="patch_135">
    <path d="M 357.376721 382.84 
L 359.378863 382.84 
L 359.378863 69.892923 
L 357.376721 69.892923 
z
" clip-path="url(#p560390e85a)" style="fill: #1f77b4"/>
   </g>
   <g id="patch_136">
    <path d="M 359.378863 382.84 
L 361.381005 382.84 
L 361.381005 382.84 
L 359.378863 382.84 
z
" clip-path="url(#p560390e85a)" style="fill: #1f77b4"/>
   </g>
   <g id="patch_137">
    <path d="M 361.381005 382.84 
L 363.383147 382.84 
L 363.383147 382.84 
L 361.381005 382.84 
z
" clip-path="url(#p560390e85a)" style="fill: #1f77b4"/>
   </g>
   <g id="patch_138">
    <path d="M 363.383147 382.84 
L 365.385289 382.84 
L 365.385289 93.960916 
L 363.383147 93.960916 
z
" clip-path="url(#p560390e85a)" style="fill: #1f77b4"/>
   </g>
   <g id="patch_139">
    <path d="M 365.385289 382.84 
L 367.387431 382.84 
L 367.387431 382.84 
L 365.385289 382.84 
z
" clip-path="url(#p560390e85a)" style="fill: #1f77b4"/>
   </g>
   <g id="patch_140">
    <path d="M 367.387431 382.84 
L 369.389573 382.84 
L 369.389573 112.438312 
L 367.387431 112.438312 
z
" clip-path="url(#p560390e85a)" style="fill: #1f77b4"/>
   </g>
   <g id="patch_141">
    <path d="M 369.389573 382.84 
L 371.391715 382.84 
L 371.391715 382.84 
L 369.389573 382.84 
z
" clip-path="url(#p560390e85a)" style="fill: #1f77b4"/>
   </g>
   <g id="patch_142">
    <path d="M 371.391715 382.84 
L 373.393856 382.84 
L 373.393856 382.84 
L 371.391715 382.84 
z
" clip-path="url(#p560390e85a)" style="fill: #1f77b4"/>
   </g>
   <g id="patch_143">
    <path d="M 373.393856 382.84 
L 375.395998 382.84 
L 375.395998 131.326317 
L 373.393856 131.326317 
z
" clip-path="url(#p560390e85a)" style="fill: #1f77b4"/>
   </g>
   <g id="patch_144">
    <path d="M 375.395998 382.84 
L 377.39814 382.84 
L 377.39814 382.84 
L 375.395998 382.84 
z
" clip-path="url(#p560390e85a)" style="fill: #1f77b4"/>
   </g>
   <g id="patch_145">
    <path d="M 377.39814 382.84 
L 379.400282 382.84 
L 379.400282 162.153562 
L 377.39814 162.153562 
z
" clip-path="url(#p560390e85a)" style="fill: #1f77b4"/>
   </g>
   <g id="patch_146">
    <path d="M 379.400282 382.84 
L 381.402424 382.84 
L 381.402424 382.84 
L 379.400282 382.84 
z
" clip-path="url(#p560390e85a)" style="fill: #1f77b4"/>
   </g>
   <g id="patch_147">
    <path d="M 381.402424 382.84 
L 383.404566 382.84 
L 383.404566 382.84 
L 381.402424 382.84 
z
" clip-path="url(#p560390e85a)" style="fill: #1f77b4"/>
   </g>
   <g id="patch_148">
    <path d="M 383.404566 382.84 
L 385.406708 382.84 
L 385.406708 184.105341 
L 383.404566 184.105341 
z
" clip-path="url(#p560390e85a)" style="fill: #1f77b4"/>
   </g>
   <g id="patch_149">
    <path d="M 385.406708 382.84 
L 387.40885 382.84 
L 387.40885 382.84 
L 385.406708 382.84 
z
" clip-path="url(#p560390e85a)" style="fill: #1f77b4"/>
   </g>
   <g id="patch_150">
    <path d="M 387.40885 382.84 
L 389.410992 382.84 
L 389.410992 206.120289 
L 387.40885 206.120289 
z
" clip-path="url(#p560390e85a)" style="fill: #1f77b4"/>
   </g>
   <g id="patch_151">
    <path d="M 389.410992 382.84 
L 391.413134 382.84 
L 391.413134 382.84 
L 389.410992 382.84 
z
" clip-path="url(#p560390e85a)" style="fill: #1f77b4"/>
   </g>
   <g id="patch_152">
    <path d="M 391.413134 382.84 
L 393.415276 382.84 
L 393.415276 382.84 
L 391.413134 382.84 
z
" clip-path="url(#p560390e85a)" style="fill: #1f77b4"/>
   </g>
   <g id="patch_153">
    <path d="M 393.415276 382.84 
L 395.417417 382.84 
L 395.417417 223.871224 
L 393.415276 223.871224 
z
" clip-path="url(#p560390e85a)" style="fill: #1f77b4"/>
   </g>
   <g id="patch_154">
    <path d="M 395.417417 382.84 
L 397.419559 382.84 
L 397.419559 382.84 
L 395.417417 382.84 
z
" clip-path="url(#p560390e85a)" style="fill: #1f77b4"/>
   </g>
   <g id="patch_155">
    <path d="M 397.419559 382.84 
L 399.421701 382.84 
L 399.421701 243.296178 
L 397.419559 243.296178 
z
" clip-path="url(#p560390e85a)" style="fill: #1f77b4"/>
   </g>
   <g id="patch_156">
    <path d="M 399.421701 382.84 
L 401.423843 382.84 
L 401.423843 382.84 
L 399.421701 382.84 
z
" clip-path="url(#p560390e85a)" style="fill: #1f77b4"/>
   </g>
   <g id="patch_157">
    <path d="M 401.423843 382.84 
L 403.425985 382.84 
L 403.425985 382.84 
L 401.423843 382.84 
z
" clip-path="url(#p560390e85a)" style="fill: #1f77b4"/>
   </g>
   <g id="patch_158">
    <path d="M 403.425985 382.84 
L 405.428127 382.84 
L 405.428127 264.647836 
L 403.425985 264.647836 
z
" clip-path="url(#p560390e85a)" style="fill: #1f77b4"/>
   </g>
   <g id="patch_159">
    <path d="M 405.428127 382.84 
L 407.430269 382.84 
L 407.430269 382.84 
L 405.428127 382.84 
z
" clip-path="url(#p560390e85a)" style="fill: #1f77b4"/>
   </g>
   <g id="patch_160">
    <path d="M 407.430269 382.84 
L 409.432411 382.84 
L 409.432411 284.104376 
L 407.430269 284.104376 
z
" clip-path="url(#p560390e85a)" style="fill: #1f77b4"/>
   </g>
   <g id="patch_161">
    <path d="M 409.432411 382.84 
L 411.434553 382.84 
L 411.434553 382.84 
L 409.432411 382.84 
z
" clip-path="url(#p560390e85a)" style="fill: #1f77b4"/>
   </g>
   <g id="patch_162">
    <path d="M 411.434553 382.84 
L 413.436695 382.84 
L 413.436695 382.84 
L 411.434553 382.84 
z
" clip-path="url(#p560390e85a)" style="fill: #1f77b4"/>
   </g>
   <g id="patch_163">
    <path d="M 413.436695 382.84 
L 415.438837 382.84 
L 415.438837 295.28557 
L 413.436695 295.28557 
z
" clip-path="url(#p560390e85a)" style="fill: #1f77b4"/>
   </g>
   <g id="patch_164">
    <path d="M 415.438837 382.84 
L 417.440978 382.84 
L 417.440978 382.84 
L 415.438837 382.84 
z
" clip-path="url(#p560390e85a)" style="fill: #1f77b4"/>
   </g>
   <g id="patch_165">
    <path d="M 417.440978 382.84 
L 419.44312 382.84 
L 419.44312 308.203954 
L 417.440978 308.203954 
z
" clip-path="url(#p560390e85a)" style="fill: #1f77b4"/>
   </g>
   <g id="patch_166">
    <path d="M 419.44312 382.84 
L 421.445262 382.84 
L 421.445262 382.84 
L 419.44312 382.84 
z
" clip-path="url(#p560390e85a)" style="fill: #1f77b4"/>
   </g>
   <g id="patch_167">
    <path d="M 421.445262 382.84 
L 423.447404 382.84 
L 423.447404 320.774901 
L 421.445262 320.774901 
z
" clip-path="url(#p560390e85a)" style="fill: #1f77b4"/>
   </g>
   <g id="patch_168">
    <path d="M 423.447404 382.84 
L 425.449546 382.84 
L 425.449546 382.84 
L 423.447404 382.84 
z
" clip-path="url(#p560390e85a)" style="fill: #1f77b4"/>
   </g>
   <g id="patch_169">
    <path d="M 425.449546 382.84 
L 427.451688 382.84 
L 427.451688 382.84 
L 425.449546 382.84 
z
" clip-path="url(#p560390e85a)" style="fill: #1f77b4"/>
   </g>
   <g id="patch_170">
    <path d="M 427.451688 382.84 
L 429.45383 382.84 
L 429.45383 330.471585 
L 427.451688 330.471585 
z
" clip-path="url(#p560390e85a)" style="fill: #1f77b4"/>
   </g>
   <g id="patch_171">
    <path d="M 429.45383 382.84 
L 431.455972 382.84 
L 431.455972 382.84 
L 429.45383 382.84 
z
" clip-path="url(#p560390e85a)" style="fill: #1f77b4"/>
   </g>
   <g id="patch_172">
    <path d="M 431.455972 382.84 
L 433.458114 382.84 
L 433.458114 339.473394 
L 431.455972 339.473394 
z
" clip-path="url(#p560390e85a)" style="fill: #1f77b4"/>
   </g>
   <g id="patch_173">
    <path d="M 433.458114 382.84 
L 435.460256 382.84 
L 435.460256 382.84 
L 433.458114 382.84 
z
" clip-path="url(#p560390e85a)" style="fill: #1f77b4"/>
   </g>
   <g id="patch_174">
    <path d="M 435.460256 382.84 
L 437.462398 382.84 
L 437.462398 382.84 
L 435.460256 382.84 
z
" clip-path="url(#p560390e85a)" style="fill: #1f77b4"/>
   </g>
   <g id="patch_175">
    <path d="M 437.462398 382.84 
L 439.464539 382.84 
L 439.464539 349.012152 
L 437.462398 349.012152 
z
" clip-path="url(#p560390e85a)" style="fill: #1f77b4"/>
   </g>
   <g id="patch_176">
    <path d="M 439.464539 382.84 
L 441.466681 382.84 
L 441.466681 382.84 
L 439.464539 382.84 
z
" clip-path="url(#p560390e85a)" style="fill: #1f77b4"/>
   </g>
   <g id="patch_177">
    <path d="M 441.466681 382.84 
L 443.468823 382.84 
L 443.468823 354.823846 
L 441.466681 354.823846 
z
" clip-path="url(#p560390e85a)" style="fill: #1f77b4"/>
   </g>
   <g id="patch_178">
    <path d="M 443.468823 382.84 
L 445.470965 382.84 
L 445.470965 382.84 
L 443.468823 382.84 
z
" clip-path="url(#p560390e85a)" style="fill: #1f77b4"/>
   </g>
   <g id="patch_179">
    <path d="M 445.470965 382.84 
L 447.473107 382.84 
L 447.473107 382.84 
L 445.470965 382.84 
z
" clip-path="url(#p560390e85a)" style="fill: #1f77b4"/>
   </g>
   <g id="patch_180">
    <path d="M 447.473107 382.84 
L 449.475249 382.84 
L 449.475249 358.645666 
L 447.473107 358.645666 
z
" clip-path="url(#p560390e85a)" style="fill: #1f77b4"/>
   </g>
   <g id="patch_181">
    <path d="M 449.475249 382.84 
L 451.477391 382.84 
L 451.477391 382.84 
L 449.475249 382.84 
z
" clip-path="url(#p560390e85a)" style="fill: #1f77b4"/>
   </g>
   <g id="patch_182">
    <path d="M 451.477391 382.84 
L 453.479533 382.84 
L 453.479533 364.267848 
L 451.477391 364.267848 
z
" clip-path="url(#p560390e85a)" style="fill: #1f77b4"/>
   </g>
   <g id="patch_183">
    <path d="M 453.479533 382.84 
L 455.481675 382.84 
L 455.481675 382.84 
L 453.479533 382.84 
z
" clip-path="url(#p560390e85a)" style="fill: #1f77b4"/>
   </g>
   <g id="patch_184">
    <path d="M 455.481675 382.84 
L 457.483817 382.84 
L 457.483817 382.84 
L 455.481675 382.84 
z
" clip-path="url(#p560390e85a)" style="fill: #1f77b4"/>
   </g>
   <g id="patch_185">
    <path d="M 457.483817 382.84 
L 459.485959 382.84 
L 459.485959 368.563448 
L 457.483817 368.563448 
z
" clip-path="url(#p560390e85a)" style="fill: #1f77b4"/>
   </g>
   <g id="patch_186">
    <path d="M 459.485959 382.84 
L 461.4881 382.84 
L 461.4881 382.84 
L 459.485959 382.84 
z
" clip-path="url(#p560390e85a)" style="fill: #1f77b4"/>
   </g>
   <g id="patch_187">
    <path d="M 461.4881 382.84 
L 463.490242 382.84 
L 463.490242 371.090271 
L 461.4881 371.090271 
z
" clip-path="url(#p560390e85a)" style="fill: #1f77b4"/>
   </g>
   <g id="patch_188">
    <path d="M 463.490242 382.84 
L 465.492384 382.84 
L 465.492384 382.84 
L 463.490242 382.84 
z
" clip-path="url(#p560390e85a)" style="fill: #1f77b4"/>
   </g>
   <g id="patch_189">
    <path d="M 465.492384 382.84 
L 467.494526 382.84 
L 467.494526 382.84 
L 465.492384 382.84 
z
" clip-path="url(#p560390e85a)" style="fill: #1f77b4"/>
   </g>
   <g id="patch_190">
    <path d="M 467.494526 382.84 
L 469.496668 382.84 
L 469.496668 373.711851 
L 467.494526 373.711851 
z
" clip-path="url(#p560390e85a)" style="fill: #1f77b4"/>
   </g>
   <g id="patch_191">
    <path d="M 469.496668 382.84 
L 471.49881 382.84 
L 471.49881 382.84 
L 469.496668 382.84 
z
" clip-path="url(#p560390e85a)" style="fill: #1f77b4"/>
   </g>
   <g id="patch_192">
    <path d="M 471.49881 382.84 
L 473.500952 382.84 
L 473.500952 376.017577 
L 471.49881 376.017577 
z
" clip-path="url(#p560390e85a)" style="fill: #1f77b4"/>
   </g>
   <g id="patch_193">
    <path d="M 473.500952 382.84 
L 475.503094 382.84 
L 475.503094 382.84 
L 473.500952 382.84 
z
" clip-path="url(#p560390e85a)" style="fill: #1f77b4"/>
   </g>
   <g id="patch_194">
    <path d="M 475.503094 382.84 
L 477.505236 382.84 
L 477.505236 377.817939 
L 475.503094 377.817939 
z
" clip-path="url(#p560390e85a)" style="fill: #1f77b4"/>
   </g>
   <g id="patch_195">
    <path d="M 477.505236 382.84 
L 479.507378 382.84 
L 479.507378 382.84 
L 477.505236 382.84 
z
" clip-path="url(#p560390e85a)" style="fill: #1f77b4"/>
   </g>
   <g id="patch_196">
    <path d="M 479.507378 382.84 
L 481.50952 382.84 
L 481.50952 382.84 
L 479.507378 382.84 
z
" clip-path="url(#p560390e85a)" style="fill: #1f77b4"/>
   </g>
   <g id="patch_197">
    <path d="M 481.50952 382.84 
L 483.511661 382.84 
L 483.511661 379.270862 
L 481.50952 379.270862 
z
" clip-path="url(#p560390e85a)" style="fill: #1f77b4"/>
   </g>
   <g id="patch_198">
    <path d="M 483.511661 382.84 
L 485.513803 382.84 
L 485.513803 382.84 
L 483.511661 382.84 
z
" clip-path="url(#p560390e85a)" style="fill: #1f77b4"/>
   </g>
   <g id="patch_199">
    <path d="M 485.513803 382.84 
L 487.515945 382.84 
L 487.515945 380.376347 
L 485.513803 380.376347 
z
" clip-path="url(#p560390e85a)" style="fill: #1f77b4"/>
   </g>
   <g id="patch_200">
    <path d="M 487.515945 382.84 
L 489.518087 382.84 
L 489.518087 382.84 
L 487.515945 382.84 
z
" clip-path="url(#p560390e85a)" style="fill: #1f77b4"/>
   </g>
   <g id="patch_201">
    <path d="M 489.518087 382.84 
L 491.520229 382.84 
L 491.520229 382.84 
L 489.518087 382.84 
z
" clip-path="url(#p560390e85a)" style="fill: #1f77b4"/>
   </g>
   <g id="patch_202">
    <path d="M 491.520229 382.84 
L 493.522371 382.84 
L 493.522371 381.102809 
L 491.520229 381.102809 
z
" clip-path="url(#p560390e85a)" style="fill: #1f77b4"/>
   </g>
   <g id="patch_203">
    <path d="M 493.522371 382.84 
L 495.524513 382.84 
L 495.524513 382.84 
L 493.522371 382.84 
z
" clip-path="url(#p560390e85a)" style="fill: #1f77b4"/>
   </g>
   <g id="patch_204">
    <path d="M 495.524513 382.84 
L 497.526655 382.84 
L 497.526655 381.702929 
L 495.524513 381.702929 
z
" clip-path="url(#p560390e85a)" style="fill: #1f77b4"/>
   </g>
   <g id="patch_205">
    <path d="M 497.526655 382.84 
L 499.528797 382.84 
L 499.528797 382.84 
L 497.526655 382.84 
z
" clip-path="url(#p560390e85a)" style="fill: #1f77b4"/>
   </g>
   <g id="patch_206">
    <path d="M 499.528797 382.84 
L 501.530939 382.84 
L 501.530939 382.84 
L 499.528797 382.84 
z
" clip-path="url(#p560390e85a)" style="fill: #1f77b4"/>
   </g>
   <g id="patch_207">
    <path d="M 501.530939 382.84 
L 503.53308 382.84 
L 503.53308 382.050368 
L 501.530939 382.050368 
z
" clip-path="url(#p560390e85a)" style="fill: #1f77b4"/>
   </g>
   <g id="patch_208">
    <path d="M 503.53308 382.84 
L 505.535222 382.84 
L 505.535222 382.84 
L 503.53308 382.84 
z
" clip-path="url(#p560390e85a)" style="fill: #1f77b4"/>
   </g>
   <g id="patch_209">
    <path d="M 505.535222 382.84 
L 507.537364 382.84 
L 507.537364 382.334635 
L 505.535222 382.334635 
z
" clip-path="url(#p560390e85a)" style="fill: #1f77b4"/>
   </g>
   <g id="patch_210">
    <path d="M 507.537364 382.84 
L 509.539506 382.84 
L 509.539506 382.84 
L 507.537364 382.84 
z
" clip-path="url(#p560390e85a)" style="fill: #1f77b4"/>
   </g>
   <g id="patch_211">
    <path d="M 509.539506 382.84 
L 511.541648 382.84 
L 511.541648 382.84 
L 509.539506 382.84 
z
" clip-path="url(#p560390e85a)" style="fill: #1f77b4"/>
   </g>
   <g id="patch_212">
    <path d="M 511.541648 382.84 
L 513.54379 382.84 
L 513.54379 382.460976 
L 511.541648 382.460976 
z
" clip-path="url(#p560390e85a)" style="fill: #1f77b4"/>
   </g>
   <g id="patch_213">
    <path d="M 513.54379 382.84 
L 515.545932 382.84 
L 515.545932 382.84 
L 513.54379 382.84 
z
" clip-path="url(#p560390e85a)" style="fill: #1f77b4"/>
   </g>
   <g id="patch_214">
    <path d="M 515.545932 382.84 
L 517.548074 382.84 
L 517.548074 382.555732 
L 515.545932 382.555732 
z
" clip-path="url(#p560390e85a)" style="fill: #1f77b4"/>
   </g>
   <g id="patch_215">
    <path d="M 517.548074 382.84 
L 519.550216 382.84 
L 519.550216 382.84 
L 517.548074 382.84 
z
" clip-path="url(#p560390e85a)" style="fill: #1f77b4"/>
   </g>
   <g id="patch_216">
    <path d="M 519.550216 382.84 
L 521.552358 382.84 
L 521.552358 382.84 
L 519.550216 382.84 
z
" clip-path="url(#p560390e85a)" style="fill: #1f77b4"/>
   </g>
   <g id="patch_217">
    <path d="M 521.552358 382.84 
L 523.5545 382.84 
L 523.5545 382.682074 
L 521.552358 382.682074 
z
" clip-path="url(#p560390e85a)" style="fill: #1f77b4"/>
   </g>
   <g id="patch_218">
    <path d="M 523.5545 382.84 
L 525.556641 382.84 
L 525.556641 382.84 
L 523.5545 382.84 
z
" clip-path="url(#p560390e85a)" style="fill: #1f77b4"/>
   </g>
   <g id="patch_219">
    <path d="M 525.556641 382.84 
L 527.558783 382.84 
L 527.558783 382.776829 
L 525.556641 382.776829 
z
" clip-path="url(#p560390e85a)" style="fill: #1f77b4"/>
   </g>
   <g id="patch_220">
    <path d="M 527.558783 382.84 
L 529.560925 382.84 
L 529.560925 382.84 
L 527.558783 382.84 
z
" clip-path="url(#p560390e85a)" style="fill: #1f77b4"/>
   </g>
   <g id="patch_221">
    <path d="M 529.560925 382.84 
L 531.563067 382.84 
L 531.563067 382.84 
L 529.560925 382.84 
z
" clip-path="url(#p560390e85a)" style="fill: #1f77b4"/>
   </g>
   <g id="patch_222">
    <path d="M 531.563067 382.84 
L 533.565209 382.84 
L 533.565209 382.745244 
L 531.563067 382.745244 
z
" clip-path="url(#p560390e85a)" style="fill: #1f77b4"/>
   </g>
   <g id="patch_223">
    <path d="M 533.565209 382.84 
L 535.567351 382.84 
L 535.567351 382.84 
L 533.565209 382.84 
z
" clip-path="url(#p560390e85a)" style="fill: #1f77b4"/>
   </g>
   <g id="patch_224">
    <path d="M 535.567351 382.84 
L 537.569493 382.84 
L 537.569493 382.776829 
L 535.567351 382.776829 
z
" clip-path="url(#p560390e85a)" style="fill: #1f77b4"/>
   </g>
   <g id="patch_225">
    <path d="M 537.569493 382.84 
L 539.571635 382.84 
L 539.571635 382.84 
L 537.569493 382.84 
z
" clip-path="url(#p560390e85a)" style="fill: #1f77b4"/>
   </g>
   <g id="patch_226">
    <path d="M 539.571635 382.84 
L 541.573777 382.84 
L 541.573777 382.808415 
L 539.571635 382.808415 
z
" clip-path="url(#p560390e85a)" style="fill: #1f77b4"/>
   </g>
   <g id="matplotlib.axis_1">
    <g id="xtick_1">
     <g id="line2d_1">
      <defs>
       <path id="me14b84e64e" d="M 0 0 
L 0 3.5 
" style="stroke: #000000; stroke-width: 0.8"/>
      </defs>
      <g>
       <use xlink:href="#me14b84e64e" x="117.735736" y="382.84" style="stroke: #000000; stroke-width: 0.8"/>
      </g>
     </g>
     <g id="text_1">
      <!-- −12 -->
      <g transform="translate(107.183392 397.438438) scale(0.1 -0.1)">
       <defs>
        <path id="DejaVuSans-2212" d="M 678 2272 
L 4684 2272 
L 4684 1741 
L 678 1741 
L 678 2272 
z
" transform="scale(0.015625)"/>
        <path id="DejaVuSans-31" d="M 794 531 
L 1825 531 
L 1825 4091 
L 703 3866 
L 703 4441 
L 1819 4666 
L 2450 4666 
L 2450 531 
L 3481 531 
L 3481 0 
L 794 0 
L 794 531 
z
" transform="scale(0.015625)"/>
        <path id="DejaVuSans-32" d="M 1228 531 
L 3431 531 
L 3431 0 
L 469 0 
L 469 531 
Q 828 903 1448 1529 
Q 2069 2156 2228 2338 
Q 2531 2678 2651 2914 
Q 2772 3150 2772 3378 
Q 2772 3750 2511 3984 
Q 2250 4219 1831 4219 
Q 1534 4219 1204 4116 
Q 875 4013 500 3803 
L 500 4441 
Q 881 4594 1212 4672 
Q 1544 4750 1819 4750 
Q 2544 4750 2975 4387 
Q 3406 4025 3406 3419 
Q 3406 3131 3298 2873 
Q 3191 2616 2906 2266 
Q 2828 2175 2409 1742 
Q 1991 1309 1228 531 
z
" transform="scale(0.015625)"/>
       </defs>
       <use xlink:href="#DejaVuSans-2212"/>
       <use xlink:href="#DejaVuSans-31" x="83.789062"/>
       <use xlink:href="#DejaVuSans-32" x="147.412109"/>
      </g>
     </g>
    </g>
    <g id="xtick_2">
     <g id="line2d_2">
      <g>
       <use xlink:href="#me14b84e64e" x="216.302722" y="382.84" style="stroke: #000000; stroke-width: 0.8"/>
      </g>
     </g>
     <g id="text_2">
      <!-- −10 -->
      <g transform="translate(205.750378 397.438438) scale(0.1 -0.1)">
       <defs>
        <path id="DejaVuSans-30" d="M 2034 4250 
Q 1547 4250 1301 3770 
Q 1056 3291 1056 2328 
Q 1056 1369 1301 889 
Q 1547 409 2034 409 
Q 2525 409 2770 889 
Q 3016 1369 3016 2328 
Q 3016 3291 2770 3770 
Q 2525 4250 2034 4250 
z
M 2034 4750 
Q 2819 4750 3233 4129 
Q 3647 3509 3647 2328 
Q 3647 1150 3233 529 
Q 2819 -91 2034 -91 
Q 1250 -91 836 529 
Q 422 1150 422 2328 
Q 422 3509 836 4129 
Q 1250 4750 2034 4750 
z
" transform="scale(0.015625)"/>
       </defs>
       <use xlink:href="#DejaVuSans-2212"/>
       <use xlink:href="#DejaVuSans-31" x="83.789062"/>
       <use xlink:href="#DejaVuSans-30" x="147.412109"/>
      </g>
     </g>
    </g>
    <g id="xtick_3">
     <g id="line2d_3">
      <g>
       <use xlink:href="#me14b84e64e" x="314.869708" y="382.84" style="stroke: #000000; stroke-width: 0.8"/>
      </g>
     </g>
     <g id="text_3">
      <!-- −8 -->
      <g transform="translate(307.498615 397.438438) scale(0.1 -0.1)">
       <defs>
        <path id="DejaVuSans-38" d="M 2034 2216 
Q 1584 2216 1326 1975 
Q 1069 1734 1069 1313 
Q 1069 891 1326 650 
Q 1584 409 2034 409 
Q 2484 409 2743 651 
Q 3003 894 3003 1313 
Q 3003 1734 2745 1975 
Q 2488 2216 2034 2216 
z
M 1403 2484 
Q 997 2584 770 2862 
Q 544 3141 544 3541 
Q 544 4100 942 4425 
Q 1341 4750 2034 4750 
Q 2731 4750 3128 4425 
Q 3525 4100 3525 3541 
Q 3525 3141 3298 2862 
Q 3072 2584 2669 2484 
Q 3125 2378 3379 2068 
Q 3634 1759 3634 1313 
Q 3634 634 3220 271 
Q 2806 -91 2034 -91 
Q 1263 -91 848 271 
Q 434 634 434 1313 
Q 434 1759 690 2068 
Q 947 2378 1403 2484 
z
M 1172 3481 
Q 1172 3119 1398 2916 
Q 1625 2713 2034 2713 
Q 2441 2713 2670 2916 
Q 2900 3119 2900 3481 
Q 2900 3844 2670 4047 
Q 2441 4250 2034 4250 
Q 1625 4250 1398 4047 
Q 1172 3844 1172 3481 
z
" transform="scale(0.015625)"/>
       </defs>
       <use xlink:href="#DejaVuSans-2212"/>
       <use xlink:href="#DejaVuSans-38" x="83.789062"/>
      </g>
     </g>
    </g>
    <g id="xtick_4">
     <g id="line2d_4">
      <g>
       <use xlink:href="#me14b84e64e" x="413.436695" y="382.84" style="stroke: #000000; stroke-width: 0.8"/>
      </g>
     </g>
     <g id="text_4">
      <!-- −6 -->
      <g transform="translate(406.065601 397.438438) scale(0.1 -0.1)">
       <defs>
        <path id="DejaVuSans-36" d="M 2113 2584 
Q 1688 2584 1439 2293 
Q 1191 2003 1191 1497 
Q 1191 994 1439 701 
Q 1688 409 2113 409 
Q 2538 409 2786 701 
Q 3034 994 3034 1497 
Q 3034 2003 2786 2293 
Q 2538 2584 2113 2584 
z
M 3366 4563 
L 3366 3988 
Q 3128 4100 2886 4159 
Q 2644 4219 2406 4219 
Q 1781 4219 1451 3797 
Q 1122 3375 1075 2522 
Q 1259 2794 1537 2939 
Q 1816 3084 2150 3084 
Q 2853 3084 3261 2657 
Q 3669 2231 3669 1497 
Q 3669 778 3244 343 
Q 2819 -91 2113 -91 
Q 1303 -91 875 529 
Q 447 1150 447 2328 
Q 447 3434 972 4092 
Q 1497 4750 2381 4750 
Q 2619 4750 2861 4703 
Q 3103 4656 3366 4563 
z
" transform="scale(0.015625)"/>
       </defs>
       <use xlink:href="#DejaVuSans-2212"/>
       <use xlink:href="#DejaVuSans-36" x="83.789062"/>
      </g>
     </g>
    </g>
    <g id="xtick_5">
     <g id="line2d_5">
      <g>
       <use xlink:href="#me14b84e64e" x="512.003681" y="382.84" style="stroke: #000000; stroke-width: 0.8"/>
      </g>
     </g>
     <g id="text_5">
      <!-- −4 -->
      <g transform="translate(504.632587 397.438438) scale(0.1 -0.1)">
       <defs>
        <path id="DejaVuSans-34" d="M 2419 4116 
L 825 1625 
L 2419 1625 
L 2419 4116 
z
M 2253 4666 
L 3047 4666 
L 3047 1625 
L 3713 1625 
L 3713 1100 
L 3047 1100 
L 3047 0 
L 2419 0 
L 2419 1100 
L 313 1100 
L 313 1709 
L 2253 4666 
z
" transform="scale(0.015625)"/>
       </defs>
       <use xlink:href="#DejaVuSans-2212"/>
       <use xlink:href="#DejaVuSans-34" x="83.789062"/>
      </g>
     </g>
    </g>
    <g id="text_6">
     <!-- PTPN1 -->
     <g transform="translate(288.524039 417.195312) scale(0.18 -0.18)">
      <defs>
       <path id="DejaVuSans-50" d="M 1259 4147 
L 1259 2394 
L 2053 2394 
Q 2494 2394 2734 2622 
Q 2975 2850 2975 3272 
Q 2975 3691 2734 3919 
Q 2494 4147 2053 4147 
L 1259 4147 
z
M 628 4666 
L 2053 4666 
Q 2838 4666 3239 4311 
Q 3641 3956 3641 3272 
Q 3641 2581 3239 2228 
Q 2838 1875 2053 1875 
L 1259 1875 
L 1259 0 
L 628 0 
L 628 4666 
z
" transform="scale(0.015625)"/>
       <path id="DejaVuSans-54" d="M -19 4666 
L 3928 4666 
L 3928 4134 
L 2272 4134 
L 2272 0 
L 1638 0 
L 1638 4134 
L -19 4134 
L -19 4666 
z
" transform="scale(0.015625)"/>
       <path id="DejaVuSans-4e" d="M 628 4666 
L 1478 4666 
L 3547 763 
L 3547 4666 
L 4159 4666 
L 4159 0 
L 3309 0 
L 1241 3903 
L 1241 0 
L 628 0 
L 628 4666 
z
" transform="scale(0.015625)"/>
      </defs>
      <use xlink:href="#DejaVuSans-50"/>
      <use xlink:href="#DejaVuSans-54" x="60.302734"/>
      <use xlink:href="#DejaVuSans-50" x="121.386719"/>
      <use xlink:href="#DejaVuSans-4e" x="181.689453"/>
      <use xlink:href="#DejaVuSans-31" x="256.494141"/>
     </g>
    </g>
   </g>
   <g id="matplotlib.axis_2">
    <g id="ytick_1">
     <g id="line2d_6">
      <defs>
       <path id="mc9d214727e" d="M 0 0 
L -3.5 0 
" style="stroke: #000000; stroke-width: 0.8"/>
      </defs>
      <g>
       <use xlink:href="#mc9d214727e" x="70.67" y="382.84" style="stroke: #000000; stroke-width: 0.8"/>
      </g>
     </g>
     <g id="text_7">
      <!-- 0 -->
      <g transform="translate(57.3075 386.639219) scale(0.1 -0.1)">
       <use xlink:href="#DejaVuSans-30"/>
      </g>
     </g>
    </g>
    <g id="ytick_2">
     <g id="line2d_7">
      <g>
       <use xlink:href="#mc9d214727e" x="70.67" y="319.669415" style="stroke: #000000; stroke-width: 0.8"/>
      </g>
     </g>
     <g id="text_8">
      <!-- 2000 -->
      <g transform="translate(38.22 323.468634) scale(0.1 -0.1)">
       <use xlink:href="#DejaVuSans-32"/>
       <use xlink:href="#DejaVuSans-30" x="63.623047"/>
       <use xlink:href="#DejaVuSans-30" x="127.246094"/>
       <use xlink:href="#DejaVuSans-30" x="190.869141"/>
      </g>
     </g>
    </g>
    <g id="ytick_3">
     <g id="line2d_8">
      <g>
       <use xlink:href="#mc9d214727e" x="70.67" y="256.498831" style="stroke: #000000; stroke-width: 0.8"/>
      </g>
     </g>
     <g id="text_9">
      <!-- 4000 -->
      <g transform="translate(38.22 260.298049) scale(0.1 -0.1)">
       <use xlink:href="#DejaVuSans-34"/>
       <use xlink:href="#DejaVuSans-30" x="63.623047"/>
       <use xlink:href="#DejaVuSans-30" x="127.246094"/>
       <use xlink:href="#DejaVuSans-30" x="190.869141"/>
      </g>
     </g>
    </g>
    <g id="ytick_4">
     <g id="line2d_9">
      <g>
       <use xlink:href="#mc9d214727e" x="70.67" y="193.328246" style="stroke: #000000; stroke-width: 0.8"/>
      </g>
     </g>
     <g id="text_10">
      <!-- 6000 -->
      <g transform="translate(38.22 197.127465) scale(0.1 -0.1)">
       <use xlink:href="#DejaVuSans-36"/>
       <use xlink:href="#DejaVuSans-30" x="63.623047"/>
       <use xlink:href="#DejaVuSans-30" x="127.246094"/>
       <use xlink:href="#DejaVuSans-30" x="190.869141"/>
      </g>
     </g>
    </g>
    <g id="ytick_5">
     <g id="line2d_10">
      <g>
       <use xlink:href="#mc9d214727e" x="70.67" y="130.157661" style="stroke: #000000; stroke-width: 0.8"/>
      </g>
     </g>
     <g id="text_11">
      <!-- 8000 -->
      <g transform="translate(38.22 133.95688) scale(0.1 -0.1)">
       <use xlink:href="#DejaVuSans-38"/>
       <use xlink:href="#DejaVuSans-30" x="63.623047"/>
       <use xlink:href="#DejaVuSans-30" x="127.246094"/>
       <use xlink:href="#DejaVuSans-30" x="190.869141"/>
      </g>
     </g>
    </g>
    <g id="ytick_6">
     <g id="line2d_11">
      <g>
       <use xlink:href="#mc9d214727e" x="70.67" y="66.987077" style="stroke: #000000; stroke-width: 0.8"/>
      </g>
     </g>
     <g id="text_12">
      <!-- 10000 -->
      <g transform="translate(31.8575 70.786295) scale(0.1 -0.1)">
       <use xlink:href="#DejaVuSans-31"/>
       <use xlink:href="#DejaVuSans-30" x="63.623047"/>
       <use xlink:href="#DejaVuSans-30" x="127.246094"/>
       <use xlink:href="#DejaVuSans-30" x="190.869141"/>
       <use xlink:href="#DejaVuSans-30" x="254.492188"/>
      </g>
     </g>
    </g>
    <g id="text_13">
     <!-- Count -->
     <g transform="translate(24.114063 223.547188) rotate(-90) scale(0.18 -0.18)">
      <defs>
       <path id="DejaVuSans-43" d="M 4122 4306 
L 4122 3641 
Q 3803 3938 3442 4084 
Q 3081 4231 2675 4231 
Q 1875 4231 1450 3742 
Q 1025 3253 1025 2328 
Q 1025 1406 1450 917 
Q 1875 428 2675 428 
Q 3081 428 3442 575 
Q 3803 722 4122 1019 
L 4122 359 
Q 3791 134 3420 21 
Q 3050 -91 2638 -91 
Q 1578 -91 968 557 
Q 359 1206 359 2328 
Q 359 3453 968 4101 
Q 1578 4750 2638 4750 
Q 3056 4750 3426 4639 
Q 3797 4528 4122 4306 
z
" transform="scale(0.015625)"/>
       <path id="DejaVuSans-6f" d="M 1959 3097 
Q 1497 3097 1228 2736 
Q 959 2375 959 1747 
Q 959 1119 1226 758 
Q 1494 397 1959 397 
Q 2419 397 2687 759 
Q 2956 1122 2956 1747 
Q 2956 2369 2687 2733 
Q 2419 3097 1959 3097 
z
M 1959 3584 
Q 2709 3584 3137 3096 
Q 3566 2609 3566 1747 
Q 3566 888 3137 398 
Q 2709 -91 1959 -91 
Q 1206 -91 779 398 
Q 353 888 353 1747 
Q 353 2609 779 3096 
Q 1206 3584 1959 3584 
z
" transform="scale(0.015625)"/>
       <path id="DejaVuSans-75" d="M 544 1381 
L 544 3500 
L 1119 3500 
L 1119 1403 
Q 1119 906 1312 657 
Q 1506 409 1894 409 
Q 2359 409 2629 706 
Q 2900 1003 2900 1516 
L 2900 3500 
L 3475 3500 
L 3475 0 
L 2900 0 
L 2900 538 
Q 2691 219 2414 64 
Q 2138 -91 1772 -91 
Q 1169 -91 856 284 
Q 544 659 544 1381 
z
M 1991 3584 
L 1991 3584 
z
" transform="scale(0.015625)"/>
       <path id="DejaVuSans-6e" d="M 3513 2113 
L 3513 0 
L 2938 0 
L 2938 2094 
Q 2938 2591 2744 2837 
Q 2550 3084 2163 3084 
Q 1697 3084 1428 2787 
Q 1159 2491 1159 1978 
L 1159 0 
L 581 0 
L 581 3500 
L 1159 3500 
L 1159 2956 
Q 1366 3272 1645 3428 
Q 1925 3584 2291 3584 
Q 2894 3584 3203 3211 
Q 3513 2838 3513 2113 
z
" transform="scale(0.015625)"/>
       <path id="DejaVuSans-74" d="M 1172 4494 
L 1172 3500 
L 2356 3500 
L 2356 3053 
L 1172 3053 
L 1172 1153 
Q 1172 725 1289 603 
Q 1406 481 1766 481 
L 2356 481 
L 2356 0 
L 1766 0 
Q 1100 0 847 248 
Q 594 497 594 1153 
L 594 3053 
L 172 3053 
L 172 3500 
L 594 3500 
L 594 4494 
L 1172 4494 
z
" transform="scale(0.015625)"/>
      </defs>
      <use xlink:href="#DejaVuSans-43"/>
      <use xlink:href="#DejaVuSans-6f" x="69.824219"/>
      <use xlink:href="#DejaVuSans-75" x="131.005859"/>
      <use xlink:href="#DejaVuSans-6e" x="194.384766"/>
      <use xlink:href="#DejaVuSans-74" x="257.763672"/>
     </g>
    </g>
   </g>
   <g id="line2d_12">
    <path d="M 290.227962 382.84 
L 290.227962 28.51619 
" clip-path="url(#p560390e85a)" style="fill: none; stroke: #ff0000; stroke-width: 1.6; stroke-linecap: square"/>
   </g>
   <g id="patch_227">
    <path d="M 70.67 382.84 
L 70.67 10.8 
" style="fill: none; stroke: #000000; stroke-width: 0.8; stroke-linejoin: miter; stroke-linecap: square"/>
   </g>
   <g id="patch_228">
    <path d="M 563.997766 382.84 
L 563.997766 10.8 
" style="fill: none; stroke: #000000; stroke-width: 0.8; stroke-linejoin: miter; stroke-linecap: square"/>
   </g>
   <g id="patch_229">
    <path d="M 70.67 382.84 
L 563.997766 382.84 
" style="fill: none; stroke: #000000; stroke-width: 0.8; stroke-linejoin: miter; stroke-linecap: square"/>
   </g>
   <g id="patch_230">
    <path d="M 70.67 10.8 
L 563.997766 10.8 
" style="fill: none; stroke: #000000; stroke-width: 0.8; stroke-linejoin: miter; stroke-linecap: square"/>
   </g>
   <g id="text_14">
    <!-- $\mu_9 = -7.548$ -->
    <g transform="translate(415.999436 61.649937) scale(0.21 -0.21)">
     <defs>
      <path id="DejaVuSans-Oblique-3bc" d="M -84 -1331 
L 856 3500 
L 1434 3500 
L 1009 1322 
Q 997 1256 987 1175 
Q 978 1094 978 1013 
Q 978 722 1161 565 
Q 1344 409 1684 409 
Q 2147 409 2431 671 
Q 2716 934 2816 1459 
L 3213 3500 
L 3788 3500 
L 3266 809 
Q 3253 750 3248 706 
Q 3244 663 3244 628 
Q 3244 531 3283 486 
Q 3322 441 3406 441 
Q 3438 441 3492 456 
Q 3547 472 3647 513 
L 3559 50 
Q 3422 -19 3297 -55 
Q 3172 -91 3053 -91 
Q 2847 -91 2730 40 
Q 2613 172 2613 403 
Q 2438 153 2195 31 
Q 1953 -91 1625 -91 
Q 1334 -91 1117 43 
Q 900 178 831 397 
L 494 -1331 
L -84 -1331 
z
" transform="scale(0.015625)"/>
      <path id="DejaVuSans-39" d="M 703 97 
L 703 672 
Q 941 559 1184 500 
Q 1428 441 1663 441 
Q 2288 441 2617 861 
Q 2947 1281 2994 2138 
Q 2813 1869 2534 1725 
Q 2256 1581 1919 1581 
Q 1219 1581 811 2004 
Q 403 2428 403 3163 
Q 403 3881 828 4315 
Q 1253 4750 1959 4750 
Q 2769 4750 3195 4129 
Q 3622 3509 3622 2328 
Q 3622 1225 3098 567 
Q 2575 -91 1691 -91 
Q 1453 -91 1209 -44 
Q 966 3 703 97 
z
M 1959 2075 
Q 2384 2075 2632 2365 
Q 2881 2656 2881 3163 
Q 2881 3666 2632 3958 
Q 2384 4250 1959 4250 
Q 1534 4250 1286 3958 
Q 1038 3666 1038 3163 
Q 1038 2656 1286 2365 
Q 1534 2075 1959 2075 
z
" transform="scale(0.015625)"/>
      <path id="DejaVuSans-3d" d="M 678 2906 
L 4684 2906 
L 4684 2381 
L 678 2381 
L 678 2906 
z
M 678 1631 
L 4684 1631 
L 4684 1100 
L 678 1100 
L 678 1631 
z
" transform="scale(0.015625)"/>
      <path id="DejaVuSans-37" d="M 525 4666 
L 3525 4666 
L 3525 4397 
L 1831 0 
L 1172 0 
L 2766 4134 
L 525 4134 
L 525 4666 
z
" transform="scale(0.015625)"/>
      <path id="DejaVuSans-2e" d="M 684 794 
L 1344 794 
L 1344 0 
L 684 0 
L 684 794 
z
" transform="scale(0.015625)"/>
      <path id="DejaVuSans-35" d="M 691 4666 
L 3169 4666 
L 3169 4134 
L 1269 4134 
L 1269 2991 
Q 1406 3038 1543 3061 
Q 1681 3084 1819 3084 
Q 2600 3084 3056 2656 
Q 3513 2228 3513 1497 
Q 3513 744 3044 326 
Q 2575 -91 1722 -91 
Q 1428 -91 1123 -41 
Q 819 9 494 109 
L 494 744 
Q 775 591 1075 516 
Q 1375 441 1709 441 
Q 2250 441 2565 725 
Q 2881 1009 2881 1497 
Q 2881 1984 2565 2268 
Q 2250 2553 1709 2553 
Q 1456 2553 1204 2497 
Q 953 2441 691 2322 
L 691 4666 
z
" transform="scale(0.015625)"/>
     </defs>
     <use xlink:href="#DejaVuSans-Oblique-3bc" transform="translate(0 0.78125)"/>
     <use xlink:href="#DejaVuSans-39" transform="translate(63.623047 -15.625) scale(0.7)"/>
     <use xlink:href="#DejaVuSans-3d" transform="translate(130.375977 0.78125)"/>
     <use xlink:href="#DejaVuSans-2212" transform="translate(253.129883 0.78125)"/>
     <use xlink:href="#DejaVuSans-37" transform="translate(356.401367 0.78125)"/>
     <use xlink:href="#DejaVuSans-2e" transform="translate(420.024414 0.78125)"/>
     <use xlink:href="#DejaVuSans-35" transform="translate(451.811523 0.78125)"/>
     <use xlink:href="#DejaVuSans-34" transform="translate(515.43457 0.78125)"/>
     <use xlink:href="#DejaVuSans-38" transform="translate(579.057617 0.78125)"/>
    </g>
    <!-- $\sigma_9 = 0.947$ -->
    <g transform="translate(415.999436 85.208) scale(0.21 -0.21)">
     <defs>
      <path id="DejaVuSans-Oblique-3c3" d="M 2219 3044 
Q 1744 3044 1422 2700 
Q 1081 2341 969 1747 
Q 844 1119 1044 756 
Q 1241 397 1706 397 
Q 2166 397 2503 759 
Q 2844 1122 2966 1747 
Q 3075 2319 2881 2700 
Q 2700 3044 2219 3044 
z
M 2309 3503 
L 4219 3500 
L 4106 2925 
L 3463 2925 
Q 3706 2438 3575 1747 
Q 3406 888 2884 400 
Q 2359 -91 1609 -91 
Q 856 -91 525 400 
Q 194 888 363 1747 
Q 528 2609 1050 3097 
Q 1484 3503 2309 3503 
z
" transform="scale(0.015625)"/>
     </defs>
     <use xlink:href="#DejaVuSans-Oblique-3c3" transform="translate(0 0.78125)"/>
     <use xlink:href="#DejaVuSans-39" transform="translate(63.378906 -15.625) scale(0.7)"/>
     <use xlink:href="#DejaVuSans-3d" transform="translate(130.131836 0.78125)"/>
     <use xlink:href="#DejaVuSans-30" transform="translate(233.40332 0.78125)"/>
     <use xlink:href="#DejaVuSans-2e" transform="translate(297.026367 0.78125)"/>
     <use xlink:href="#DejaVuSans-39" transform="translate(328.813477 0.78125)"/>
     <use xlink:href="#DejaVuSans-34" transform="translate(392.436523 0.78125)"/>
     <use xlink:href="#DejaVuSans-37" transform="translate(456.05957 0.78125)"/>
    </g>
   </g>
  </g>
 </g>
 <defs>
  <clipPath id="p560390e85a">
   <rect x="70.67" y="10.8" width="493.327766" height="372.04"/>
  </clipPath>
 </defs>
</svg>
