<?xml version="1.0" encoding="utf-8" standalone="no"?>
<!DOCTYPE svg PUBLIC "-//W3C//DTD SVG 1.1//EN"
  "http://www.w3.org/Graphics/SVG/1.1/DTD/svg11.dtd">
<svg xmlns:xlink="http://www.w3.org/1999/xlink" width="576pt" height="432pt" viewBox="0 0 576 432" xmlns="http://www.w3.org/2000/svg" version="1.1">
 <metadata>
  <rdf:RDF xmlns:dc="http://purl.org/dc/elements/1.1/" xmlns:cc="http://creativecommons.org/ns#" xmlns:rdf="http://www.w3.org/1999/02/22-rdf-syntax-ns#">
   <cc:Work>
    <dc:type rdf:resource="http://purl.org/dc/dcmitype/StillImage"/>
    <dc:date>2024-09-05T19:41:17.858150</dc:date>
    <dc:format>image/svg+xml</dc:format>
    <dc:creator>
     <cc:Agent>
      <dc:title>Matplotlib v3.7.2, https://matplotlib.org/</dc:title>
     </cc:Agent>
    </dc:creator>
   </cc:Work>
  </rdf:RDF>
 </metadata>
 <defs>
  <style type="text/css">*{stroke-linejoin: round; stroke-linecap: butt}</style>
 </defs>
 <g id="figure_1">
  <g id="patch_1">
   <path d="M 0 432 
L 576 432 
L 576 0 
L 0 0 
z
" style="fill: #ffffff"/>
  </g>
  <g id="axes_1">
   <g id="patch_2">
    <path d="M 70.67 382.84 
L 551.196013 382.84 
L 551.196013 13.760932 
L 70.67 13.760932 
z
" style="fill: #ffffff"/>
   </g>
   <g id="patch_3">
    <path d="M 92.512092 382.84 
L 94.302427 382.84 
L 94.302427 382.809336 
L 92.512092 382.809336 
z
" clip-path="url(#pa81996672b)" style="fill: #1f77b4"/>
   </g>
   <g id="patch_4">
    <path d="M 94.302427 382.84 
L 96.092762 382.84 
L 96.092762 382.84 
L 94.302427 382.84 
z
" clip-path="url(#pa81996672b)" style="fill: #1f77b4"/>
   </g>
   <g id="patch_5">
    <path d="M 96.092762 382.84 
L 97.883098 382.84 
L 97.883098 382.84 
L 96.092762 382.84 
z
" clip-path="url(#pa81996672b)" style="fill: #1f77b4"/>
   </g>
   <g id="patch_6">
    <path d="M 97.883098 382.84 
L 99.673433 382.84 
L 99.673433 382.84 
L 97.883098 382.84 
z
" clip-path="url(#pa81996672b)" style="fill: #1f77b4"/>
   </g>
   <g id="patch_7">
    <path d="M 99.673433 382.84 
L 101.463768 382.84 
L 101.463768 382.84 
L 99.673433 382.84 
z
" clip-path="url(#pa81996672b)" style="fill: #1f77b4"/>
   </g>
   <g id="patch_8">
    <path d="M 101.463768 382.84 
L 103.254104 382.84 
L 103.254104 382.84 
L 101.463768 382.84 
z
" clip-path="url(#pa81996672b)" style="fill: #1f77b4"/>
   </g>
   <g id="patch_9">
    <path d="M 103.254104 382.84 
L 105.044439 382.84 
L 105.044439 382.84 
L 103.254104 382.84 
z
" clip-path="url(#pa81996672b)" style="fill: #1f77b4"/>
   </g>
   <g id="patch_10">
    <path d="M 105.044439 382.84 
L 106.834774 382.84 
L 106.834774 382.84 
L 105.044439 382.84 
z
" clip-path="url(#pa81996672b)" style="fill: #1f77b4"/>
   </g>
   <g id="patch_11">
    <path d="M 106.834774 382.84 
L 108.62511 382.84 
L 108.62511 382.84 
L 106.834774 382.84 
z
" clip-path="url(#pa81996672b)" style="fill: #1f77b4"/>
   </g>
   <g id="patch_12">
    <path d="M 108.62511 382.84 
L 110.415445 382.84 
L 110.415445 382.84 
L 108.62511 382.84 
z
" clip-path="url(#pa81996672b)" style="fill: #1f77b4"/>
   </g>
   <g id="patch_13">
    <path d="M 110.415445 382.84 
L 112.205781 382.84 
L 112.205781 382.84 
L 110.415445 382.84 
z
" clip-path="url(#pa81996672b)" style="fill: #1f77b4"/>
   </g>
   <g id="patch_14">
    <path d="M 112.205781 382.84 
L 113.996116 382.84 
L 113.996116 382.84 
L 112.205781 382.84 
z
" clip-path="url(#pa81996672b)" style="fill: #1f77b4"/>
   </g>
   <g id="patch_15">
    <path d="M 113.996116 382.84 
L 115.786451 382.84 
L 115.786451 382.84 
L 113.996116 382.84 
z
" clip-path="url(#pa81996672b)" style="fill: #1f77b4"/>
   </g>
   <g id="patch_16">
    <path d="M 115.786451 382.84 
L 117.576787 382.84 
L 117.576787 382.84 
L 115.786451 382.84 
z
" clip-path="url(#pa81996672b)" style="fill: #1f77b4"/>
   </g>
   <g id="patch_17">
    <path d="M 117.576787 382.84 
L 119.367122 382.84 
L 119.367122 382.84 
L 117.576787 382.84 
z
" clip-path="url(#pa81996672b)" style="fill: #1f77b4"/>
   </g>
   <g id="patch_18">
    <path d="M 119.367122 382.84 
L 121.157457 382.84 
L 121.157457 382.84 
L 119.367122 382.84 
z
" clip-path="url(#pa81996672b)" style="fill: #1f77b4"/>
   </g>
   <g id="patch_19">
    <path d="M 121.157457 382.84 
L 122.947793 382.84 
L 122.947793 382.84 
L 121.157457 382.84 
z
" clip-path="url(#pa81996672b)" style="fill: #1f77b4"/>
   </g>
   <g id="patch_20">
    <path d="M 122.947793 382.84 
L 124.738128 382.84 
L 124.738128 382.84 
L 122.947793 382.84 
z
" clip-path="url(#pa81996672b)" style="fill: #1f77b4"/>
   </g>
   <g id="patch_21">
    <path d="M 124.738128 382.84 
L 126.528464 382.84 
L 126.528464 382.84 
L 124.738128 382.84 
z
" clip-path="url(#pa81996672b)" style="fill: #1f77b4"/>
   </g>
   <g id="patch_22">
    <path d="M 126.528464 382.84 
L 128.318799 382.84 
L 128.318799 382.84 
L 126.528464 382.84 
z
" clip-path="url(#pa81996672b)" style="fill: #1f77b4"/>
   </g>
   <g id="patch_23">
    <path d="M 128.318799 382.84 
L 130.109134 382.84 
L 130.109134 382.84 
L 128.318799 382.84 
z
" clip-path="url(#pa81996672b)" style="fill: #1f77b4"/>
   </g>
   <g id="patch_24">
    <path d="M 130.109134 382.84 
L 131.89947 382.84 
L 131.89947 382.84 
L 130.109134 382.84 
z
" clip-path="url(#pa81996672b)" style="fill: #1f77b4"/>
   </g>
   <g id="patch_25">
    <path d="M 131.89947 382.84 
L 133.689805 382.84 
L 133.689805 382.84 
L 131.89947 382.84 
z
" clip-path="url(#pa81996672b)" style="fill: #1f77b4"/>
   </g>
   <g id="patch_26">
    <path d="M 133.689805 382.84 
L 135.48014 382.84 
L 135.48014 382.84 
L 133.689805 382.84 
z
" clip-path="url(#pa81996672b)" style="fill: #1f77b4"/>
   </g>
   <g id="patch_27">
    <path d="M 135.48014 382.84 
L 137.270476 382.84 
L 137.270476 382.84 
L 135.48014 382.84 
z
" clip-path="url(#pa81996672b)" style="fill: #1f77b4"/>
   </g>
   <g id="patch_28">
    <path d="M 137.270476 382.84 
L 139.060811 382.84 
L 139.060811 382.84 
L 137.270476 382.84 
z
" clip-path="url(#pa81996672b)" style="fill: #1f77b4"/>
   </g>
   <g id="patch_29">
    <path d="M 139.060811 382.84 
L 140.851146 382.84 
L 140.851146 382.84 
L 139.060811 382.84 
z
" clip-path="url(#pa81996672b)" style="fill: #1f77b4"/>
   </g>
   <g id="patch_30">
    <path d="M 140.851146 382.84 
L 142.641482 382.84 
L 142.641482 382.84 
L 140.851146 382.84 
z
" clip-path="url(#pa81996672b)" style="fill: #1f77b4"/>
   </g>
   <g id="patch_31">
    <path d="M 142.641482 382.84 
L 144.431817 382.84 
L 144.431817 382.84 
L 142.641482 382.84 
z
" clip-path="url(#pa81996672b)" style="fill: #1f77b4"/>
   </g>
   <g id="patch_32">
    <path d="M 144.431817 382.84 
L 146.222153 382.84 
L 146.222153 382.809336 
L 144.431817 382.809336 
z
" clip-path="url(#pa81996672b)" style="fill: #1f77b4"/>
   </g>
   <g id="patch_33">
    <path d="M 146.222153 382.84 
L 148.012488 382.84 
L 148.012488 382.84 
L 146.222153 382.84 
z
" clip-path="url(#pa81996672b)" style="fill: #1f77b4"/>
   </g>
   <g id="patch_34">
    <path d="M 148.012488 382.84 
L 149.802823 382.84 
L 149.802823 382.84 
L 148.012488 382.84 
z
" clip-path="url(#pa81996672b)" style="fill: #1f77b4"/>
   </g>
   <g id="patch_35">
    <path d="M 149.802823 382.84 
L 151.593159 382.84 
L 151.593159 382.748007 
L 149.802823 382.748007 
z
" clip-path="url(#pa81996672b)" style="fill: #1f77b4"/>
   </g>
   <g id="patch_36">
    <path d="M 151.593159 382.84 
L 153.383494 382.84 
L 153.383494 382.84 
L 151.593159 382.84 
z
" clip-path="url(#pa81996672b)" style="fill: #1f77b4"/>
   </g>
   <g id="patch_37">
    <path d="M 153.383494 382.84 
L 155.173829 382.84 
L 155.173829 382.748007 
L 153.383494 382.748007 
z
" clip-path="url(#pa81996672b)" style="fill: #1f77b4"/>
   </g>
   <g id="patch_38">
    <path d="M 155.173829 382.84 
L 156.964165 382.84 
L 156.964165 382.84 
L 155.173829 382.84 
z
" clip-path="url(#pa81996672b)" style="fill: #1f77b4"/>
   </g>
   <g id="patch_39">
    <path d="M 156.964165 382.84 
L 158.7545 382.84 
L 158.7545 382.748007 
L 156.964165 382.748007 
z
" clip-path="url(#pa81996672b)" style="fill: #1f77b4"/>
   </g>
   <g id="patch_40">
    <path d="M 158.7545 382.84 
L 160.544836 382.84 
L 160.544836 382.84 
L 158.7545 382.84 
z
" clip-path="url(#pa81996672b)" style="fill: #1f77b4"/>
   </g>
   <g id="patch_41">
    <path d="M 160.544836 382.84 
L 162.335171 382.84 
L 162.335171 382.84 
L 160.544836 382.84 
z
" clip-path="url(#pa81996672b)" style="fill: #1f77b4"/>
   </g>
   <g id="patch_42">
    <path d="M 162.335171 382.84 
L 164.125506 382.84 
L 164.125506 382.656015 
L 162.335171 382.656015 
z
" clip-path="url(#pa81996672b)" style="fill: #1f77b4"/>
   </g>
   <g id="patch_43">
    <path d="M 164.125506 382.84 
L 165.915842 382.84 
L 165.915842 382.84 
L 164.125506 382.84 
z
" clip-path="url(#pa81996672b)" style="fill: #1f77b4"/>
   </g>
   <g id="patch_44">
    <path d="M 165.915842 382.84 
L 167.706177 382.84 
L 167.706177 382.594686 
L 165.915842 382.594686 
z
" clip-path="url(#pa81996672b)" style="fill: #1f77b4"/>
   </g>
   <g id="patch_45">
    <path d="M 167.706177 382.84 
L 169.496512 382.84 
L 169.496512 382.84 
L 167.706177 382.84 
z
" clip-path="url(#pa81996672b)" style="fill: #1f77b4"/>
   </g>
   <g id="patch_46">
    <path d="M 169.496512 382.84 
L 171.286848 382.84 
L 171.286848 382.84 
L 169.496512 382.84 
z
" clip-path="url(#pa81996672b)" style="fill: #1f77b4"/>
   </g>
   <g id="patch_47">
    <path d="M 171.286848 382.84 
L 173.077183 382.84 
L 173.077183 382.533358 
L 171.286848 382.533358 
z
" clip-path="url(#pa81996672b)" style="fill: #1f77b4"/>
   </g>
   <g id="patch_48">
    <path d="M 173.077183 382.84 
L 174.867519 382.84 
L 174.867519 382.84 
L 173.077183 382.84 
z
" clip-path="url(#pa81996672b)" style="fill: #1f77b4"/>
   </g>
   <g id="patch_49">
    <path d="M 174.867519 382.84 
L 176.657854 382.84 
L 176.657854 382.25738 
L 174.867519 382.25738 
z
" clip-path="url(#pa81996672b)" style="fill: #1f77b4"/>
   </g>
   <g id="patch_50">
    <path d="M 176.657854 382.84 
L 178.448189 382.84 
L 178.448189 382.84 
L 176.657854 382.84 
z
" clip-path="url(#pa81996672b)" style="fill: #1f77b4"/>
   </g>
   <g id="patch_51">
    <path d="M 178.448189 382.84 
L 180.238525 382.84 
L 180.238525 382.84 
L 178.448189 382.84 
z
" clip-path="url(#pa81996672b)" style="fill: #1f77b4"/>
   </g>
   <g id="patch_52">
    <path d="M 180.238525 382.84 
L 182.02886 382.84 
L 182.02886 382.380037 
L 180.238525 382.380037 
z
" clip-path="url(#pa81996672b)" style="fill: #1f77b4"/>
   </g>
   <g id="patch_53">
    <path d="M 182.02886 382.84 
L 183.819195 382.84 
L 183.819195 382.84 
L 182.02886 382.84 
z
" clip-path="url(#pa81996672b)" style="fill: #1f77b4"/>
   </g>
   <g id="patch_54">
    <path d="M 183.819195 382.84 
L 185.609531 382.84 
L 185.609531 382.226716 
L 183.819195 382.226716 
z
" clip-path="url(#pa81996672b)" style="fill: #1f77b4"/>
   </g>
   <g id="patch_55">
    <path d="M 185.609531 382.84 
L 187.399866 382.84 
L 187.399866 382.84 
L 185.609531 382.84 
z
" clip-path="url(#pa81996672b)" style="fill: #1f77b4"/>
   </g>
   <g id="patch_56">
    <path d="M 187.399866 382.84 
L 189.190201 382.84 
L 189.190201 382.84 
L 187.399866 382.84 
z
" clip-path="url(#pa81996672b)" style="fill: #1f77b4"/>
   </g>
   <g id="patch_57">
    <path d="M 189.190201 382.84 
L 190.980537 382.84 
L 190.980537 382.104059 
L 189.190201 382.104059 
z
" clip-path="url(#pa81996672b)" style="fill: #1f77b4"/>
   </g>
   <g id="patch_58">
    <path d="M 190.980537 382.84 
L 192.770872 382.84 
L 192.770872 382.84 
L 190.980537 382.84 
z
" clip-path="url(#pa81996672b)" style="fill: #1f77b4"/>
   </g>
   <g id="patch_59">
    <path d="M 192.770872 382.84 
L 194.561208 382.84 
L 194.561208 381.736088 
L 192.770872 381.736088 
z
" clip-path="url(#pa81996672b)" style="fill: #1f77b4"/>
   </g>
   <g id="patch_60">
    <path d="M 194.561208 382.84 
L 196.351543 382.84 
L 196.351543 382.84 
L 194.561208 382.84 
z
" clip-path="url(#pa81996672b)" style="fill: #1f77b4"/>
   </g>
   <g id="patch_61">
    <path d="M 196.351543 382.84 
L 198.141878 382.84 
L 198.141878 382.84 
L 196.351543 382.84 
z
" clip-path="url(#pa81996672b)" style="fill: #1f77b4"/>
   </g>
   <g id="patch_62">
    <path d="M 198.141878 382.84 
L 199.932214 382.84 
L 199.932214 381.122804 
L 198.141878 381.122804 
z
" clip-path="url(#pa81996672b)" style="fill: #1f77b4"/>
   </g>
   <g id="patch_63">
    <path d="M 199.932214 382.84 
L 201.722549 382.84 
L 201.722549 382.84 
L 199.932214 382.84 
z
" clip-path="url(#pa81996672b)" style="fill: #1f77b4"/>
   </g>
   <g id="patch_64">
    <path d="M 201.722549 382.84 
L 203.512884 382.84 
L 203.512884 380.846826 
L 201.722549 380.846826 
z
" clip-path="url(#pa81996672b)" style="fill: #1f77b4"/>
   </g>
   <g id="patch_65">
    <path d="M 203.512884 382.84 
L 205.30322 382.84 
L 205.30322 382.84 
L 203.512884 382.84 
z
" clip-path="url(#pa81996672b)" style="fill: #1f77b4"/>
   </g>
   <g id="patch_66">
    <path d="M 205.30322 382.84 
L 207.093555 382.84 
L 207.093555 382.84 
L 205.30322 382.84 
z
" clip-path="url(#pa81996672b)" style="fill: #1f77b4"/>
   </g>
   <g id="patch_67">
    <path d="M 207.093555 382.84 
L 208.883891 382.84 
L 208.883891 380.264206 
L 207.093555 380.264206 
z
" clip-path="url(#pa81996672b)" style="fill: #1f77b4"/>
   </g>
   <g id="patch_68">
    <path d="M 208.883891 382.84 
L 210.674226 382.84 
L 210.674226 382.84 
L 208.883891 382.84 
z
" clip-path="url(#pa81996672b)" style="fill: #1f77b4"/>
   </g>
   <g id="patch_69">
    <path d="M 210.674226 382.84 
L 212.464561 382.84 
L 212.464561 379.650922 
L 210.674226 379.650922 
z
" clip-path="url(#pa81996672b)" style="fill: #1f77b4"/>
   </g>
   <g id="patch_70">
    <path d="M 212.464561 382.84 
L 214.254897 382.84 
L 214.254897 382.84 
L 212.464561 382.84 
z
" clip-path="url(#pa81996672b)" style="fill: #1f77b4"/>
   </g>
   <g id="patch_71">
    <path d="M 214.254897 382.84 
L 216.045232 382.84 
L 216.045232 382.84 
L 214.254897 382.84 
z
" clip-path="url(#pa81996672b)" style="fill: #1f77b4"/>
   </g>
   <g id="patch_72">
    <path d="M 216.045232 382.84 
L 217.835567 382.84 
L 217.835567 378.639003 
L 216.045232 378.639003 
z
" clip-path="url(#pa81996672b)" style="fill: #1f77b4"/>
   </g>
   <g id="patch_73">
    <path d="M 217.835567 382.84 
L 219.625903 382.84 
L 219.625903 382.84 
L 217.835567 382.84 
z
" clip-path="url(#pa81996672b)" style="fill: #1f77b4"/>
   </g>
   <g id="patch_74">
    <path d="M 219.625903 382.84 
L 221.416238 382.84 
L 221.416238 376.983135 
L 219.625903 376.983135 
z
" clip-path="url(#pa81996672b)" style="fill: #1f77b4"/>
   </g>
   <g id="patch_75">
    <path d="M 221.416238 382.84 
L 223.206573 382.84 
L 223.206573 382.84 
L 221.416238 382.84 
z
" clip-path="url(#pa81996672b)" style="fill: #1f77b4"/>
   </g>
   <g id="patch_76">
    <path d="M 223.206573 382.84 
L 224.996909 382.84 
L 224.996909 375.265939 
L 223.206573 375.265939 
z
" clip-path="url(#pa81996672b)" style="fill: #1f77b4"/>
   </g>
   <g id="patch_77">
    <path d="M 224.996909 382.84 
L 226.787244 382.84 
L 226.787244 382.84 
L 224.996909 382.84 
z
" clip-path="url(#pa81996672b)" style="fill: #1f77b4"/>
   </g>
   <g id="patch_78">
    <path d="M 226.787244 382.84 
L 228.57758 382.84 
L 228.57758 382.84 
L 226.787244 382.84 
z
" clip-path="url(#pa81996672b)" style="fill: #1f77b4"/>
   </g>
   <g id="patch_79">
    <path d="M 228.57758 382.84 
L 230.367915 382.84 
L 230.367915 372.444832 
L 228.57758 372.444832 
z
" clip-path="url(#pa81996672b)" style="fill: #1f77b4"/>
   </g>
   <g id="patch_80">
    <path d="M 230.367915 382.84 
L 232.15825 382.84 
L 232.15825 382.84 
L 230.367915 382.84 
z
" clip-path="url(#pa81996672b)" style="fill: #1f77b4"/>
   </g>
   <g id="patch_81">
    <path d="M 232.15825 382.84 
L 233.948586 382.84 
L 233.948586 370.114352 
L 232.15825 370.114352 
z
" clip-path="url(#pa81996672b)" style="fill: #1f77b4"/>
   </g>
   <g id="patch_82">
    <path d="M 233.948586 382.84 
L 235.738921 382.84 
L 235.738921 382.84 
L 233.948586 382.84 
z
" clip-path="url(#pa81996672b)" style="fill: #1f77b4"/>
   </g>
   <g id="patch_83">
    <path d="M 235.738921 382.84 
L 237.529256 382.84 
L 237.529256 382.84 
L 235.738921 382.84 
z
" clip-path="url(#pa81996672b)" style="fill: #1f77b4"/>
   </g>
   <g id="patch_84">
    <path d="M 237.529256 382.84 
L 239.319592 382.84 
L 239.319592 367.814536 
L 237.529256 367.814536 
z
" clip-path="url(#pa81996672b)" style="fill: #1f77b4"/>
   </g>
   <g id="patch_85">
    <path d="M 239.319592 382.84 
L 241.109927 382.84 
L 241.109927 382.84 
L 239.319592 382.84 
z
" clip-path="url(#pa81996672b)" style="fill: #1f77b4"/>
   </g>
   <g id="patch_86">
    <path d="M 241.109927 382.84 
L 242.900263 382.84 
L 242.900263 364.502801 
L 241.109927 364.502801 
z
" clip-path="url(#pa81996672b)" style="fill: #1f77b4"/>
   </g>
   <g id="patch_87">
    <path d="M 242.900263 382.84 
L 244.690598 382.84 
L 244.690598 382.84 
L 242.900263 382.84 
z
" clip-path="url(#pa81996672b)" style="fill: #1f77b4"/>
   </g>
   <g id="patch_88">
    <path d="M 244.690598 382.84 
L 246.480933 382.84 
L 246.480933 382.84 
L 244.690598 382.84 
z
" clip-path="url(#pa81996672b)" style="fill: #1f77b4"/>
   </g>
   <g id="patch_89">
    <path d="M 246.480933 382.84 
L 248.271269 382.84 
L 248.271269 357.879331 
L 246.480933 357.879331 
z
" clip-path="url(#pa81996672b)" style="fill: #1f77b4"/>
   </g>
   <g id="patch_90">
    <path d="M 248.271269 382.84 
L 250.061604 382.84 
L 250.061604 382.84 
L 248.271269 382.84 
z
" clip-path="url(#pa81996672b)" style="fill: #1f77b4"/>
   </g>
   <g id="patch_91">
    <path d="M 250.061604 382.84 
L 251.851939 382.84 
L 251.851939 353.310363 
L 250.061604 353.310363 
z
" clip-path="url(#pa81996672b)" style="fill: #1f77b4"/>
   </g>
   <g id="patch_92">
    <path d="M 251.851939 382.84 
L 253.642275 382.84 
L 253.642275 382.84 
L 251.851939 382.84 
z
" clip-path="url(#pa81996672b)" style="fill: #1f77b4"/>
   </g>
   <g id="patch_93">
    <path d="M 253.642275 382.84 
L 255.43261 382.84 
L 255.43261 382.84 
L 253.642275 382.84 
z
" clip-path="url(#pa81996672b)" style="fill: #1f77b4"/>
   </g>
   <g id="patch_94">
    <path d="M 255.43261 382.84 
L 257.222946 382.84 
L 257.222946 344.663055 
L 255.43261 344.663055 
z
" clip-path="url(#pa81996672b)" style="fill: #1f77b4"/>
   </g>
   <g id="patch_95">
    <path d="M 257.222946 382.84 
L 259.013281 382.84 
L 259.013281 382.84 
L 257.222946 382.84 
z
" clip-path="url(#pa81996672b)" style="fill: #1f77b4"/>
   </g>
   <g id="patch_96">
    <path d="M 259.013281 382.84 
L 260.803616 382.84 
L 260.803616 335.463791 
L 259.013281 335.463791 
z
" clip-path="url(#pa81996672b)" style="fill: #1f77b4"/>
   </g>
   <g id="patch_97">
    <path d="M 260.803616 382.84 
L 262.593952 382.84 
L 262.593952 382.84 
L 260.803616 382.84 
z
" clip-path="url(#pa81996672b)" style="fill: #1f77b4"/>
   </g>
   <g id="patch_98">
    <path d="M 262.593952 382.84 
L 264.384287 382.84 
L 264.384287 382.84 
L 262.593952 382.84 
z
" clip-path="url(#pa81996672b)" style="fill: #1f77b4"/>
   </g>
   <g id="patch_99">
    <path d="M 264.384287 382.84 
L 266.174622 382.84 
L 266.174622 326.264527 
L 264.384287 326.264527 
z
" clip-path="url(#pa81996672b)" style="fill: #1f77b4"/>
   </g>
   <g id="patch_100">
    <path d="M 266.174622 382.84 
L 267.964958 382.84 
L 267.964958 382.84 
L 266.174622 382.84 
z
" clip-path="url(#pa81996672b)" style="fill: #1f77b4"/>
   </g>
   <g id="patch_101">
    <path d="M 267.964958 382.84 
L 269.755293 382.84 
L 269.755293 316.298658 
L 267.964958 316.298658 
z
" clip-path="url(#pa81996672b)" style="fill: #1f77b4"/>
   </g>
   <g id="patch_102">
    <path d="M 269.755293 382.84 
L 271.545628 382.84 
L 271.545628 382.84 
L 269.755293 382.84 
z
" clip-path="url(#pa81996672b)" style="fill: #1f77b4"/>
   </g>
   <g id="patch_103">
    <path d="M 271.545628 382.84 
L 273.335964 382.84 
L 273.335964 382.84 
L 271.545628 382.84 
z
" clip-path="url(#pa81996672b)" style="fill: #1f77b4"/>
   </g>
   <g id="patch_104">
    <path d="M 273.335964 382.84 
L 275.126299 382.84 
L 275.126299 303.051718 
L 273.335964 303.051718 
z
" clip-path="url(#pa81996672b)" style="fill: #1f77b4"/>
   </g>
   <g id="patch_105">
    <path d="M 275.126299 382.84 
L 276.916635 382.84 
L 276.916635 382.84 
L 275.126299 382.84 
z
" clip-path="url(#pa81996672b)" style="fill: #1f77b4"/>
   </g>
   <g id="patch_106">
    <path d="M 276.916635 382.84 
L 278.70697 382.84 
L 278.70697 286.891677 
L 276.916635 286.891677 
z
" clip-path="url(#pa81996672b)" style="fill: #1f77b4"/>
   </g>
   <g id="patch_107">
    <path d="M 278.70697 382.84 
L 280.497305 382.84 
L 280.497305 382.84 
L 278.70697 382.84 
z
" clip-path="url(#pa81996672b)" style="fill: #1f77b4"/>
   </g>
   <g id="patch_108">
    <path d="M 280.497305 382.84 
L 282.287641 382.84 
L 282.287641 270.516987 
L 280.497305 270.516987 
z
" clip-path="url(#pa81996672b)" style="fill: #1f77b4"/>
   </g>
   <g id="patch_109">
    <path d="M 282.287641 382.84 
L 284.077976 382.84 
L 284.077976 382.84 
L 282.287641 382.84 
z
" clip-path="url(#pa81996672b)" style="fill: #1f77b4"/>
   </g>
   <g id="patch_110">
    <path d="M 284.077976 382.84 
L 285.868311 382.84 
L 285.868311 382.84 
L 284.077976 382.84 
z
" clip-path="url(#pa81996672b)" style="fill: #1f77b4"/>
   </g>
   <g id="patch_111">
    <path d="M 285.868311 382.84 
L 287.658647 382.84 
L 287.658647 254.111633 
L 285.868311 254.111633 
z
" clip-path="url(#pa81996672b)" style="fill: #1f77b4"/>
   </g>
   <g id="patch_112">
    <path d="M 287.658647 382.84 
L 289.448982 382.84 
L 289.448982 382.84 
L 287.658647 382.84 
z
" clip-path="url(#pa81996672b)" style="fill: #1f77b4"/>
   </g>
   <g id="patch_113">
    <path d="M 289.448982 382.84 
L 291.239318 382.84 
L 291.239318 232.462699 
L 289.448982 232.462699 
z
" clip-path="url(#pa81996672b)" style="fill: #1f77b4"/>
   </g>
   <g id="patch_114">
    <path d="M 291.239318 382.84 
L 293.029653 382.84 
L 293.029653 382.84 
L 291.239318 382.84 
z
" clip-path="url(#pa81996672b)" style="fill: #1f77b4"/>
   </g>
   <g id="patch_115">
    <path d="M 293.029653 382.84 
L 294.819988 382.84 
L 294.819988 382.84 
L 293.029653 382.84 
z
" clip-path="url(#pa81996672b)" style="fill: #1f77b4"/>
   </g>
   <g id="patch_116">
    <path d="M 294.819988 382.84 
L 296.610324 382.84 
L 296.610324 207.778008 
L 294.819988 207.778008 
z
" clip-path="url(#pa81996672b)" style="fill: #1f77b4"/>
   </g>
   <g id="patch_117">
    <path d="M 296.610324 382.84 
L 298.400659 382.84 
L 298.400659 382.84 
L 296.610324 382.84 
z
" clip-path="url(#pa81996672b)" style="fill: #1f77b4"/>
   </g>
   <g id="patch_118">
    <path d="M 298.400659 382.84 
L 300.190994 382.84 
L 300.190994 188.459553 
L 298.400659 188.459553 
z
" clip-path="url(#pa81996672b)" style="fill: #1f77b4"/>
   </g>
   <g id="patch_119">
    <path d="M 300.190994 382.84 
L 301.98133 382.84 
L 301.98133 382.84 
L 300.190994 382.84 
z
" clip-path="url(#pa81996672b)" style="fill: #1f77b4"/>
   </g>
   <g id="patch_120">
    <path d="M 301.98133 382.84 
L 303.771665 382.84 
L 303.771665 382.84 
L 301.98133 382.84 
z
" clip-path="url(#pa81996672b)" style="fill: #1f77b4"/>
   </g>
   <g id="patch_121">
    <path d="M 303.771665 382.84 
L 305.562 382.84 
L 305.562 163.46822 
L 303.771665 163.46822 
z
" clip-path="url(#pa81996672b)" style="fill: #1f77b4"/>
   </g>
   <g id="patch_122">
    <path d="M 305.562 382.84 
L 307.352336 382.84 
L 307.352336 382.84 
L 305.562 382.84 
z
" clip-path="url(#pa81996672b)" style="fill: #1f77b4"/>
   </g>
   <g id="patch_123">
    <path d="M 307.352336 382.84 
L 309.142671 382.84 
L 309.142671 139.856776 
L 307.352336 139.856776 
z
" clip-path="url(#pa81996672b)" style="fill: #1f77b4"/>
   </g>
   <g id="patch_124">
    <path d="M 309.142671 382.84 
L 310.933007 382.84 
L 310.933007 382.84 
L 309.142671 382.84 
z
" clip-path="url(#pa81996672b)" style="fill: #1f77b4"/>
   </g>
   <g id="patch_125">
    <path d="M 310.933007 382.84 
L 312.723342 382.84 
L 312.723342 382.84 
L 310.933007 382.84 
z
" clip-path="url(#pa81996672b)" style="fill: #1f77b4"/>
   </g>
   <g id="patch_126">
    <path d="M 312.723342 382.84 
L 314.513677 382.84 
L 314.513677 115.110756 
L 312.723342 115.110756 
z
" clip-path="url(#pa81996672b)" style="fill: #1f77b4"/>
   </g>
   <g id="patch_127">
    <path d="M 314.513677 382.84 
L 316.304013 382.84 
L 316.304013 382.84 
L 314.513677 382.84 
z
" clip-path="url(#pa81996672b)" style="fill: #1f77b4"/>
   </g>
   <g id="patch_128">
    <path d="M 316.304013 382.84 
L 318.094348 382.84 
L 318.094348 98.920051 
L 316.304013 98.920051 
z
" clip-path="url(#pa81996672b)" style="fill: #1f77b4"/>
   </g>
   <g id="patch_129">
    <path d="M 318.094348 382.84 
L 319.884683 382.84 
L 319.884683 382.84 
L 318.094348 382.84 
z
" clip-path="url(#pa81996672b)" style="fill: #1f77b4"/>
   </g>
   <g id="patch_130">
    <path d="M 319.884683 382.84 
L 321.675019 382.84 
L 321.675019 382.84 
L 319.884683 382.84 
z
" clip-path="url(#pa81996672b)" style="fill: #1f77b4"/>
   </g>
   <g id="patch_131">
    <path d="M 321.675019 382.84 
L 323.465354 382.84 
L 323.465354 75.492592 
L 321.675019 75.492592 
z
" clip-path="url(#pa81996672b)" style="fill: #1f77b4"/>
   </g>
   <g id="patch_132">
    <path d="M 323.465354 382.84 
L 325.25569 382.84 
L 325.25569 382.84 
L 323.465354 382.84 
z
" clip-path="url(#pa81996672b)" style="fill: #1f77b4"/>
   </g>
   <g id="patch_133">
    <path d="M 325.25569 382.84 
L 327.046025 382.84 
L 327.046025 61.601704 
L 325.25569 61.601704 
z
" clip-path="url(#pa81996672b)" style="fill: #1f77b4"/>
   </g>
   <g id="patch_134">
    <path d="M 327.046025 382.84 
L 328.83636 382.84 
L 328.83636 382.84 
L 327.046025 382.84 
z
" clip-path="url(#pa81996672b)" style="fill: #1f77b4"/>
   </g>
   <g id="patch_135">
    <path d="M 328.83636 382.84 
L 330.626696 382.84 
L 330.626696 382.84 
L 328.83636 382.84 
z
" clip-path="url(#pa81996672b)" style="fill: #1f77b4"/>
   </g>
   <g id="patch_136">
    <path d="M 330.626696 382.84 
L 332.417031 382.84 
L 332.417031 53.169045 
L 330.626696 53.169045 
z
" clip-path="url(#pa81996672b)" style="fill: #1f77b4"/>
   </g>
   <g id="patch_137">
    <path d="M 332.417031 382.84 
L 334.207366 382.84 
L 334.207366 382.84 
L 332.417031 382.84 
z
" clip-path="url(#pa81996672b)" style="fill: #1f77b4"/>
   </g>
   <g id="patch_138">
    <path d="M 334.207366 382.84 
L 335.997702 382.84 
L 335.997702 41.27133 
L 334.207366 41.27133 
z
" clip-path="url(#pa81996672b)" style="fill: #1f77b4"/>
   </g>
   <g id="patch_139">
    <path d="M 335.997702 382.84 
L 337.788037 382.84 
L 337.788037 382.84 
L 335.997702 382.84 
z
" clip-path="url(#pa81996672b)" style="fill: #1f77b4"/>
   </g>
   <g id="patch_140">
    <path d="M 337.788037 382.84 
L 339.578373 382.84 
L 339.578373 382.84 
L 337.788037 382.84 
z
" clip-path="url(#pa81996672b)" style="fill: #1f77b4"/>
   </g>
   <g id="patch_141">
    <path d="M 339.578373 382.84 
L 341.368708 382.84 
L 341.368708 35.659779 
L 339.578373 35.659779 
z
" clip-path="url(#pa81996672b)" style="fill: #1f77b4"/>
   </g>
   <g id="patch_142">
    <path d="M 341.368708 382.84 
L 343.159043 382.84 
L 343.159043 382.84 
L 341.368708 382.84 
z
" clip-path="url(#pa81996672b)" style="fill: #1f77b4"/>
   </g>
   <g id="patch_143">
    <path d="M 343.159043 382.84 
L 344.949379 382.84 
L 344.949379 31.336125 
L 343.159043 31.336125 
z
" clip-path="url(#pa81996672b)" style="fill: #1f77b4"/>
   </g>
   <g id="patch_144">
    <path d="M 344.949379 382.84 
L 346.739714 382.84 
L 346.739714 382.84 
L 344.949379 382.84 
z
" clip-path="url(#pa81996672b)" style="fill: #1f77b4"/>
   </g>
   <g id="patch_145">
    <path d="M 346.739714 382.84 
L 348.530049 382.84 
L 348.530049 37.223654 
L 346.739714 37.223654 
z
" clip-path="url(#pa81996672b)" style="fill: #1f77b4"/>
   </g>
   <g id="patch_146">
    <path d="M 348.530049 382.84 
L 350.320385 382.84 
L 350.320385 382.84 
L 348.530049 382.84 
z
" clip-path="url(#pa81996672b)" style="fill: #1f77b4"/>
   </g>
   <g id="patch_147">
    <path d="M 350.320385 382.84 
L 352.11072 382.84 
L 352.11072 382.84 
L 350.320385 382.84 
z
" clip-path="url(#pa81996672b)" style="fill: #1f77b4"/>
   </g>
   <g id="patch_148">
    <path d="M 352.11072 382.84 
L 353.901055 382.84 
L 353.901055 44.859043 
L 352.11072 44.859043 
z
" clip-path="url(#pa81996672b)" style="fill: #1f77b4"/>
   </g>
   <g id="patch_149">
    <path d="M 353.901055 382.84 
L 355.691391 382.84 
L 355.691391 382.84 
L 353.901055 382.84 
z
" clip-path="url(#pa81996672b)" style="fill: #1f77b4"/>
   </g>
   <g id="patch_150">
    <path d="M 355.691391 382.84 
L 357.481726 382.84 
L 357.481726 58.013991 
L 355.691391 58.013991 
z
" clip-path="url(#pa81996672b)" style="fill: #1f77b4"/>
   </g>
   <g id="patch_151">
    <path d="M 357.481726 382.84 
L 359.272062 382.84 
L 359.272062 382.84 
L 357.481726 382.84 
z
" clip-path="url(#pa81996672b)" style="fill: #1f77b4"/>
   </g>
   <g id="patch_152">
    <path d="M 359.272062 382.84 
L 361.062397 382.84 
L 361.062397 382.84 
L 359.272062 382.84 
z
" clip-path="url(#pa81996672b)" style="fill: #1f77b4"/>
   </g>
   <g id="patch_153">
    <path d="M 361.062397 382.84 
L 362.852732 382.84 
L 362.852732 76.93381 
L 361.062397 76.93381 
z
" clip-path="url(#pa81996672b)" style="fill: #1f77b4"/>
   </g>
   <g id="patch_154">
    <path d="M 362.852732 382.84 
L 364.643068 382.84 
L 364.643068 382.84 
L 362.852732 382.84 
z
" clip-path="url(#pa81996672b)" style="fill: #1f77b4"/>
   </g>
   <g id="patch_155">
    <path d="M 364.643068 382.84 
L 366.433403 382.84 
L 366.433403 97.724147 
L 364.643068 97.724147 
z
" clip-path="url(#pa81996672b)" style="fill: #1f77b4"/>
   </g>
   <g id="patch_156">
    <path d="M 366.433403 382.84 
L 368.223738 382.84 
L 368.223738 382.84 
L 366.433403 382.84 
z
" clip-path="url(#pa81996672b)" style="fill: #1f77b4"/>
   </g>
   <g id="patch_157">
    <path d="M 368.223738 382.84 
L 370.014074 382.84 
L 370.014074 382.84 
L 368.223738 382.84 
z
" clip-path="url(#pa81996672b)" style="fill: #1f77b4"/>
   </g>
   <g id="patch_158">
    <path d="M 370.014074 382.84 
L 371.804409 382.84 
L 371.804409 123.236772 
L 370.014074 123.236772 
z
" clip-path="url(#pa81996672b)" style="fill: #1f77b4"/>
   </g>
   <g id="patch_159">
    <path d="M 371.804409 382.84 
L 373.594745 382.84 
L 373.594745 382.84 
L 371.804409 382.84 
z
" clip-path="url(#pa81996672b)" style="fill: #1f77b4"/>
   </g>
   <g id="patch_160">
    <path d="M 373.594745 382.84 
L 375.38508 382.84 
L 375.38508 143.812459 
L 373.594745 143.812459 
z
" clip-path="url(#pa81996672b)" style="fill: #1f77b4"/>
   </g>
   <g id="patch_161">
    <path d="M 375.38508 382.84 
L 377.175415 382.84 
L 377.175415 382.84 
L 375.38508 382.84 
z
" clip-path="url(#pa81996672b)" style="fill: #1f77b4"/>
   </g>
   <g id="patch_162">
    <path d="M 377.175415 382.84 
L 378.965751 382.84 
L 378.965751 382.84 
L 377.175415 382.84 
z
" clip-path="url(#pa81996672b)" style="fill: #1f77b4"/>
   </g>
   <g id="patch_163">
    <path d="M 378.965751 382.84 
L 380.756086 382.84 
L 380.756086 168.435822 
L 378.965751 168.435822 
z
" clip-path="url(#pa81996672b)" style="fill: #1f77b4"/>
   </g>
   <g id="patch_164">
    <path d="M 380.756086 382.84 
L 382.546421 382.84 
L 382.546421 382.84 
L 380.756086 382.84 
z
" clip-path="url(#pa81996672b)" style="fill: #1f77b4"/>
   </g>
   <g id="patch_165">
    <path d="M 382.546421 382.84 
L 384.336757 382.84 
L 384.336757 189.624793 
L 382.546421 189.624793 
z
" clip-path="url(#pa81996672b)" style="fill: #1f77b4"/>
   </g>
   <g id="patch_166">
    <path d="M 384.336757 382.84 
L 386.127092 382.84 
L 386.127092 382.84 
L 384.336757 382.84 
z
" clip-path="url(#pa81996672b)" style="fill: #1f77b4"/>
   </g>
   <g id="patch_167">
    <path d="M 386.127092 382.84 
L 387.917427 382.84 
L 387.917427 382.84 
L 386.127092 382.84 
z
" clip-path="url(#pa81996672b)" style="fill: #1f77b4"/>
   </g>
   <g id="patch_168">
    <path d="M 387.917427 382.84 
L 389.707763 382.84 
L 389.707763 212.224318 
L 387.917427 212.224318 
z
" clip-path="url(#pa81996672b)" style="fill: #1f77b4"/>
   </g>
   <g id="patch_169">
    <path d="M 389.707763 382.84 
L 391.498098 382.84 
L 391.498098 382.84 
L 389.707763 382.84 
z
" clip-path="url(#pa81996672b)" style="fill: #1f77b4"/>
   </g>
   <g id="patch_170">
    <path d="M 391.498098 382.84 
L 393.288434 382.84 
L 393.288434 230.960153 
L 391.498098 230.960153 
z
" clip-path="url(#pa81996672b)" style="fill: #1f77b4"/>
   </g>
   <g id="patch_171">
    <path d="M 393.288434 382.84 
L 395.078769 382.84 
L 395.078769 382.84 
L 393.288434 382.84 
z
" clip-path="url(#pa81996672b)" style="fill: #1f77b4"/>
   </g>
   <g id="patch_172">
    <path d="M 395.078769 382.84 
L 396.869104 382.84 
L 396.869104 382.84 
L 395.078769 382.84 
z
" clip-path="url(#pa81996672b)" style="fill: #1f77b4"/>
   </g>
   <g id="patch_173">
    <path d="M 396.869104 382.84 
L 398.65944 382.84 
L 398.65944 251.781153 
L 396.869104 251.781153 
z
" clip-path="url(#pa81996672b)" style="fill: #1f77b4"/>
   </g>
   <g id="patch_174">
    <path d="M 398.65944 382.84 
L 400.449775 382.84 
L 400.449775 382.84 
L 398.65944 382.84 
z
" clip-path="url(#pa81996672b)" style="fill: #1f77b4"/>
   </g>
   <g id="patch_175">
    <path d="M 400.449775 382.84 
L 402.24011 382.84 
L 402.24011 269.65839 
L 400.449775 269.65839 
z
" clip-path="url(#pa81996672b)" style="fill: #1f77b4"/>
   </g>
   <g id="patch_176">
    <path d="M 402.24011 382.84 
L 404.030446 382.84 
L 404.030446 382.84 
L 402.24011 382.84 
z
" clip-path="url(#pa81996672b)" style="fill: #1f77b4"/>
   </g>
   <g id="patch_177">
    <path d="M 404.030446 382.84 
L 405.820781 382.84 
L 405.820781 284.806511 
L 404.030446 284.806511 
z
" clip-path="url(#pa81996672b)" style="fill: #1f77b4"/>
   </g>
   <g id="patch_178">
    <path d="M 405.820781 382.84 
L 407.611117 382.84 
L 407.611117 382.84 
L 405.820781 382.84 
z
" clip-path="url(#pa81996672b)" style="fill: #1f77b4"/>
   </g>
   <g id="patch_179">
    <path d="M 407.611117 382.84 
L 409.401452 382.84 
L 409.401452 382.84 
L 407.611117 382.84 
z
" clip-path="url(#pa81996672b)" style="fill: #1f77b4"/>
   </g>
   <g id="patch_180">
    <path d="M 409.401452 382.84 
L 411.191787 382.84 
L 411.191787 297.378838 
L 409.401452 297.378838 
z
" clip-path="url(#pa81996672b)" style="fill: #1f77b4"/>
   </g>
   <g id="patch_181">
    <path d="M 411.191787 382.84 
L 412.982123 382.84 
L 412.982123 382.84 
L 411.191787 382.84 
z
" clip-path="url(#pa81996672b)" style="fill: #1f77b4"/>
   </g>
   <g id="patch_182">
    <path d="M 412.982123 382.84 
L 414.772458 382.84 
L 414.772458 310.227143 
L 412.982123 310.227143 
z
" clip-path="url(#pa81996672b)" style="fill: #1f77b4"/>
   </g>
   <g id="patch_183">
    <path d="M 414.772458 382.84 
L 416.562793 382.84 
L 416.562793 382.84 
L 414.772458 382.84 
z
" clip-path="url(#pa81996672b)" style="fill: #1f77b4"/>
   </g>
   <g id="patch_184">
    <path d="M 416.562793 382.84 
L 418.353129 382.84 
L 418.353129 382.84 
L 416.562793 382.84 
z
" clip-path="url(#pa81996672b)" style="fill: #1f77b4"/>
   </g>
   <g id="patch_185">
    <path d="M 418.353129 382.84 
L 420.143464 382.84 
L 420.143464 320.744969 
L 418.353129 320.744969 
z
" clip-path="url(#pa81996672b)" style="fill: #1f77b4"/>
   </g>
   <g id="patch_186">
    <path d="M 420.143464 382.84 
L 421.9338 382.84 
L 421.9338 382.84 
L 420.143464 382.84 
z
" clip-path="url(#pa81996672b)" style="fill: #1f77b4"/>
   </g>
   <g id="patch_187">
    <path d="M 421.9338 382.84 
L 423.724135 382.84 
L 423.724135 329.668255 
L 421.9338 329.668255 
z
" clip-path="url(#pa81996672b)" style="fill: #1f77b4"/>
   </g>
   <g id="patch_188">
    <path d="M 423.724135 382.84 
L 425.51447 382.84 
L 425.51447 382.84 
L 423.724135 382.84 
z
" clip-path="url(#pa81996672b)" style="fill: #1f77b4"/>
   </g>
   <g id="patch_189">
    <path d="M 425.51447 382.84 
L 427.304806 382.84 
L 427.304806 382.84 
L 425.51447 382.84 
z
" clip-path="url(#pa81996672b)" style="fill: #1f77b4"/>
   </g>
   <g id="patch_190">
    <path d="M 427.304806 382.84 
L 429.095141 382.84 
L 429.095141 339.174161 
L 427.304806 339.174161 
z
" clip-path="url(#pa81996672b)" style="fill: #1f77b4"/>
   </g>
   <g id="patch_191">
    <path d="M 429.095141 382.84 
L 430.885476 382.84 
L 430.885476 382.84 
L 429.095141 382.84 
z
" clip-path="url(#pa81996672b)" style="fill: #1f77b4"/>
   </g>
   <g id="patch_192">
    <path d="M 430.885476 382.84 
L 432.675812 382.84 
L 432.675812 345.184346 
L 430.885476 345.184346 
z
" clip-path="url(#pa81996672b)" style="fill: #1f77b4"/>
   </g>
   <g id="patch_193">
    <path d="M 432.675812 382.84 
L 434.466147 382.84 
L 434.466147 382.84 
L 432.675812 382.84 
z
" clip-path="url(#pa81996672b)" style="fill: #1f77b4"/>
   </g>
   <g id="patch_194">
    <path d="M 434.466147 382.84 
L 436.256482 382.84 
L 436.256482 382.84 
L 434.466147 382.84 
z
" clip-path="url(#pa81996672b)" style="fill: #1f77b4"/>
   </g>
   <g id="patch_195">
    <path d="M 436.256482 382.84 
L 438.046818 382.84 
L 438.046818 350.489255 
L 436.256482 350.489255 
z
" clip-path="url(#pa81996672b)" style="fill: #1f77b4"/>
   </g>
   <g id="patch_196">
    <path d="M 438.046818 382.84 
L 439.837153 382.84 
L 439.837153 382.84 
L 438.046818 382.84 
z
" clip-path="url(#pa81996672b)" style="fill: #1f77b4"/>
   </g>
   <g id="patch_197">
    <path d="M 439.837153 382.84 
L 441.627489 382.84 
L 441.627489 356.223463 
L 439.837153 356.223463 
z
" clip-path="url(#pa81996672b)" style="fill: #1f77b4"/>
   </g>
   <g id="patch_198">
    <path d="M 441.627489 382.84 
L 443.417824 382.84 
L 443.417824 382.84 
L 441.627489 382.84 
z
" clip-path="url(#pa81996672b)" style="fill: #1f77b4"/>
   </g>
   <g id="patch_199">
    <path d="M 443.417824 382.84 
L 445.208159 382.84 
L 445.208159 382.84 
L 443.417824 382.84 
z
" clip-path="url(#pa81996672b)" style="fill: #1f77b4"/>
   </g>
   <g id="patch_200">
    <path d="M 445.208159 382.84 
L 446.998495 382.84 
L 446.998495 362.080328 
L 445.208159 362.080328 
z
" clip-path="url(#pa81996672b)" style="fill: #1f77b4"/>
   </g>
   <g id="patch_201">
    <path d="M 446.998495 382.84 
L 448.78883 382.84 
L 448.78883 382.84 
L 446.998495 382.84 
z
" clip-path="url(#pa81996672b)" style="fill: #1f77b4"/>
   </g>
   <g id="patch_202">
    <path d="M 448.78883 382.84 
L 450.579165 382.84 
L 450.579165 364.625457 
L 448.78883 364.625457 
z
" clip-path="url(#pa81996672b)" style="fill: #1f77b4"/>
   </g>
   <g id="patch_203">
    <path d="M 450.579165 382.84 
L 452.369501 382.84 
L 452.369501 382.84 
L 450.579165 382.84 
z
" clip-path="url(#pa81996672b)" style="fill: #1f77b4"/>
   </g>
   <g id="patch_204">
    <path d="M 452.369501 382.84 
L 454.159836 382.84 
L 454.159836 382.84 
L 452.369501 382.84 
z
" clip-path="url(#pa81996672b)" style="fill: #1f77b4"/>
   </g>
   <g id="patch_205">
    <path d="M 454.159836 382.84 
L 455.950172 382.84 
L 455.950172 369.133097 
L 454.159836 369.133097 
z
" clip-path="url(#pa81996672b)" style="fill: #1f77b4"/>
   </g>
   <g id="patch_206">
    <path d="M 455.950172 382.84 
L 457.740507 382.84 
L 457.740507 382.84 
L 455.950172 382.84 
z
" clip-path="url(#pa81996672b)" style="fill: #1f77b4"/>
   </g>
   <g id="patch_207">
    <path d="M 457.740507 382.84 
L 459.530842 382.84 
L 459.530842 372.72081 
L 457.740507 372.72081 
z
" clip-path="url(#pa81996672b)" style="fill: #1f77b4"/>
   </g>
   <g id="patch_208">
    <path d="M 459.530842 382.84 
L 461.321178 382.84 
L 461.321178 382.84 
L 459.530842 382.84 
z
" clip-path="url(#pa81996672b)" style="fill: #1f77b4"/>
   </g>
   <g id="patch_209">
    <path d="M 461.321178 382.84 
L 463.111513 382.84 
L 463.111513 382.84 
L 461.321178 382.84 
z
" clip-path="url(#pa81996672b)" style="fill: #1f77b4"/>
   </g>
   <g id="patch_210">
    <path d="M 463.111513 382.84 
L 464.901848 382.84 
L 464.901848 375.695238 
L 463.111513 375.695238 
z
" clip-path="url(#pa81996672b)" style="fill: #1f77b4"/>
   </g>
   <g id="patch_211">
    <path d="M 464.901848 382.84 
L 466.692184 382.84 
L 466.692184 382.84 
L 464.901848 382.84 
z
" clip-path="url(#pa81996672b)" style="fill: #1f77b4"/>
   </g>
   <g id="patch_212">
    <path d="M 466.692184 382.84 
L 468.482519 382.84 
L 468.482519 376.615165 
L 466.692184 376.615165 
z
" clip-path="url(#pa81996672b)" style="fill: #1f77b4"/>
   </g>
   <g id="patch_213">
    <path d="M 468.482519 382.84 
L 470.272854 382.84 
L 470.272854 382.84 
L 468.482519 382.84 
z
" clip-path="url(#pa81996672b)" style="fill: #1f77b4"/>
   </g>
   <g id="patch_214">
    <path d="M 470.272854 382.84 
L 472.06319 382.84 
L 472.06319 378.301696 
L 470.272854 378.301696 
z
" clip-path="url(#pa81996672b)" style="fill: #1f77b4"/>
   </g>
   <g id="patch_215">
    <path d="M 472.06319 382.84 
L 473.853525 382.84 
L 473.853525 382.84 
L 472.06319 382.84 
z
" clip-path="url(#pa81996672b)" style="fill: #1f77b4"/>
   </g>
   <g id="patch_216">
    <path d="M 473.853525 382.84 
L 475.643861 382.84 
L 475.643861 382.84 
L 473.853525 382.84 
z
" clip-path="url(#pa81996672b)" style="fill: #1f77b4"/>
   </g>
   <g id="patch_217">
    <path d="M 475.643861 382.84 
L 477.434196 382.84 
L 477.434196 378.669667 
L 475.643861 378.669667 
z
" clip-path="url(#pa81996672b)" style="fill: #1f77b4"/>
   </g>
   <g id="patch_218">
    <path d="M 477.434196 382.84 
L 479.224531 382.84 
L 479.224531 382.84 
L 477.434196 382.84 
z
" clip-path="url(#pa81996672b)" style="fill: #1f77b4"/>
   </g>
   <g id="patch_219">
    <path d="M 479.224531 382.84 
L 481.014867 382.84 
L 481.014867 380.754834 
L 479.224531 380.754834 
z
" clip-path="url(#pa81996672b)" style="fill: #1f77b4"/>
   </g>
   <g id="patch_220">
    <path d="M 481.014867 382.84 
L 482.805202 382.84 
L 482.805202 382.84 
L 481.014867 382.84 
z
" clip-path="url(#pa81996672b)" style="fill: #1f77b4"/>
   </g>
   <g id="patch_221">
    <path d="M 482.805202 382.84 
L 484.595537 382.84 
L 484.595537 382.84 
L 482.805202 382.84 
z
" clip-path="url(#pa81996672b)" style="fill: #1f77b4"/>
   </g>
   <g id="patch_222">
    <path d="M 484.595537 382.84 
L 486.385873 382.84 
L 486.385873 381.09214 
L 484.595537 381.09214 
z
" clip-path="url(#pa81996672b)" style="fill: #1f77b4"/>
   </g>
   <g id="patch_223">
    <path d="M 486.385873 382.84 
L 488.176208 382.84 
L 488.176208 382.84 
L 486.385873 382.84 
z
" clip-path="url(#pa81996672b)" style="fill: #1f77b4"/>
   </g>
   <g id="patch_224">
    <path d="M 488.176208 382.84 
L 489.966544 382.84 
L 489.966544 381.46011 
L 488.176208 381.46011 
z
" clip-path="url(#pa81996672b)" style="fill: #1f77b4"/>
   </g>
   <g id="patch_225">
    <path d="M 489.966544 382.84 
L 491.756879 382.84 
L 491.756879 382.84 
L 489.966544 382.84 
z
" clip-path="url(#pa81996672b)" style="fill: #1f77b4"/>
   </g>
   <g id="patch_226">
    <path d="M 491.756879 382.84 
L 493.547214 382.84 
L 493.547214 382.84 
L 491.756879 382.84 
z
" clip-path="url(#pa81996672b)" style="fill: #1f77b4"/>
   </g>
   <g id="patch_227">
    <path d="M 493.547214 382.84 
L 495.33755 382.84 
L 495.33755 382.012066 
L 493.547214 382.012066 
z
" clip-path="url(#pa81996672b)" style="fill: #1f77b4"/>
   </g>
   <g id="patch_228">
    <path d="M 495.33755 382.84 
L 497.127885 382.84 
L 497.127885 382.84 
L 495.33755 382.84 
z
" clip-path="url(#pa81996672b)" style="fill: #1f77b4"/>
   </g>
   <g id="patch_229">
    <path d="M 497.127885 382.84 
L 498.91822 382.84 
L 498.91822 382.318708 
L 497.127885 382.318708 
z
" clip-path="url(#pa81996672b)" style="fill: #1f77b4"/>
   </g>
   <g id="patch_230">
    <path d="M 498.91822 382.84 
L 500.708556 382.84 
L 500.708556 382.84 
L 498.91822 382.84 
z
" clip-path="url(#pa81996672b)" style="fill: #1f77b4"/>
   </g>
   <g id="patch_231">
    <path d="M 500.708556 382.84 
L 502.498891 382.84 
L 502.498891 382.84 
L 500.708556 382.84 
z
" clip-path="url(#pa81996672b)" style="fill: #1f77b4"/>
   </g>
   <g id="patch_232">
    <path d="M 502.498891 382.84 
L 504.289227 382.84 
L 504.289227 382.349373 
L 502.498891 382.349373 
z
" clip-path="url(#pa81996672b)" style="fill: #1f77b4"/>
   </g>
   <g id="patch_233">
    <path d="M 504.289227 382.84 
L 506.079562 382.84 
L 506.079562 382.84 
L 504.289227 382.84 
z
" clip-path="url(#pa81996672b)" style="fill: #1f77b4"/>
   </g>
   <g id="patch_234">
    <path d="M 506.079562 382.84 
L 507.869897 382.84 
L 507.869897 382.441365 
L 506.079562 382.441365 
z
" clip-path="url(#pa81996672b)" style="fill: #1f77b4"/>
   </g>
   <g id="patch_235">
    <path d="M 507.869897 382.84 
L 509.660233 382.84 
L 509.660233 382.84 
L 507.869897 382.84 
z
" clip-path="url(#pa81996672b)" style="fill: #1f77b4"/>
   </g>
   <g id="patch_236">
    <path d="M 509.660233 382.84 
L 511.450568 382.84 
L 511.450568 382.84 
L 509.660233 382.84 
z
" clip-path="url(#pa81996672b)" style="fill: #1f77b4"/>
   </g>
   <g id="patch_237">
    <path d="M 511.450568 382.84 
L 513.240903 382.84 
L 513.240903 382.656015 
L 511.450568 382.656015 
z
" clip-path="url(#pa81996672b)" style="fill: #1f77b4"/>
   </g>
   <g id="patch_238">
    <path d="M 513.240903 382.84 
L 515.031239 382.84 
L 515.031239 382.84 
L 513.240903 382.84 
z
" clip-path="url(#pa81996672b)" style="fill: #1f77b4"/>
   </g>
   <g id="patch_239">
    <path d="M 515.031239 382.84 
L 516.821574 382.84 
L 516.821574 382.686679 
L 515.031239 382.686679 
z
" clip-path="url(#pa81996672b)" style="fill: #1f77b4"/>
   </g>
   <g id="patch_240">
    <path d="M 516.821574 382.84 
L 518.611909 382.84 
L 518.611909 382.84 
L 516.821574 382.84 
z
" clip-path="url(#pa81996672b)" style="fill: #1f77b4"/>
   </g>
   <g id="patch_241">
    <path d="M 518.611909 382.84 
L 520.402245 382.84 
L 520.402245 382.84 
L 518.611909 382.84 
z
" clip-path="url(#pa81996672b)" style="fill: #1f77b4"/>
   </g>
   <g id="patch_242">
    <path d="M 520.402245 382.84 
L 522.19258 382.84 
L 522.19258 382.778672 
L 520.402245 382.778672 
z
" clip-path="url(#pa81996672b)" style="fill: #1f77b4"/>
   </g>
   <g id="patch_243">
    <path d="M 522.19258 382.84 
L 523.982916 382.84 
L 523.982916 382.84 
L 522.19258 382.84 
z
" clip-path="url(#pa81996672b)" style="fill: #1f77b4"/>
   </g>
   <g id="patch_244">
    <path d="M 523.982916 382.84 
L 525.773251 382.84 
L 525.773251 382.809336 
L 523.982916 382.809336 
z
" clip-path="url(#pa81996672b)" style="fill: #1f77b4"/>
   </g>
   <g id="patch_245">
    <path d="M 525.773251 382.84 
L 527.563586 382.84 
L 527.563586 382.84 
L 525.773251 382.84 
z
" clip-path="url(#pa81996672b)" style="fill: #1f77b4"/>
   </g>
   <g id="patch_246">
    <path d="M 527.563586 382.84 
L 529.353922 382.84 
L 529.353922 382.809336 
L 527.563586 382.809336 
z
" clip-path="url(#pa81996672b)" style="fill: #1f77b4"/>
   </g>
   <g id="matplotlib.axis_1">
    <g id="xtick_1">
     <g id="line2d_1">
      <defs>
       <path id="m2974313f5e" d="M 0 0 
L 0 3.5 
" style="stroke: #000000; stroke-width: 0.8"/>
      </defs>
      <g>
       <use xlink:href="#m2974313f5e" x="83.687004" y="382.84" style="stroke: #000000; stroke-width: 0.8"/>
      </g>
     </g>
     <g id="text_1">
      <!-- −14 -->
      <g transform="translate(73.13466 397.438438) scale(0.1 -0.1)">
       <defs>
        <path id="DejaVuSans-2212" d="M 678 2272 
L 4684 2272 
L 4684 1741 
L 678 1741 
L 678 2272 
z
" transform="scale(0.015625)"/>
        <path id="DejaVuSans-31" d="M 794 531 
L 1825 531 
L 1825 4091 
L 703 3866 
L 703 4441 
L 1819 4666 
L 2450 4666 
L 2450 531 
L 3481 531 
L 3481 0 
L 794 0 
L 794 531 
z
" transform="scale(0.015625)"/>
        <path id="DejaVuSans-34" d="M 2419 4116 
L 825 1625 
L 2419 1625 
L 2419 4116 
z
M 2253 4666 
L 3047 4666 
L 3047 1625 
L 3713 1625 
L 3713 1100 
L 3047 1100 
L 3047 0 
L 2419 0 
L 2419 1100 
L 313 1100 
L 313 1709 
L 2253 4666 
z
" transform="scale(0.015625)"/>
       </defs>
       <use xlink:href="#DejaVuSans-2212"/>
       <use xlink:href="#DejaVuSans-31" x="83.789062"/>
       <use xlink:href="#DejaVuSans-34" x="147.412109"/>
      </g>
     </g>
    </g>
    <g id="xtick_2">
     <g id="line2d_2">
      <g>
       <use xlink:href="#m2974313f5e" x="171.937879" y="382.84" style="stroke: #000000; stroke-width: 0.8"/>
      </g>
     </g>
     <g id="text_2">
      <!-- −12 -->
      <g transform="translate(161.385535 397.438438) scale(0.1 -0.1)">
       <defs>
        <path id="DejaVuSans-32" d="M 1228 531 
L 3431 531 
L 3431 0 
L 469 0 
L 469 531 
Q 828 903 1448 1529 
Q 2069 2156 2228 2338 
Q 2531 2678 2651 2914 
Q 2772 3150 2772 3378 
Q 2772 3750 2511 3984 
Q 2250 4219 1831 4219 
Q 1534 4219 1204 4116 
Q 875 4013 500 3803 
L 500 4441 
Q 881 4594 1212 4672 
Q 1544 4750 1819 4750 
Q 2544 4750 2975 4387 
Q 3406 4025 3406 3419 
Q 3406 3131 3298 2873 
Q 3191 2616 2906 2266 
Q 2828 2175 2409 1742 
Q 1991 1309 1228 531 
z
" transform="scale(0.015625)"/>
       </defs>
       <use xlink:href="#DejaVuSans-2212"/>
       <use xlink:href="#DejaVuSans-31" x="83.789062"/>
       <use xlink:href="#DejaVuSans-32" x="147.412109"/>
      </g>
     </g>
    </g>
    <g id="xtick_3">
     <g id="line2d_3">
      <g>
       <use xlink:href="#m2974313f5e" x="260.188754" y="382.84" style="stroke: #000000; stroke-width: 0.8"/>
      </g>
     </g>
     <g id="text_3">
      <!-- −10 -->
      <g transform="translate(249.63641 397.438438) scale(0.1 -0.1)">
       <defs>
        <path id="DejaVuSans-30" d="M 2034 4250 
Q 1547 4250 1301 3770 
Q 1056 3291 1056 2328 
Q 1056 1369 1301 889 
Q 1547 409 2034 409 
Q 2525 409 2770 889 
Q 3016 1369 3016 2328 
Q 3016 3291 2770 3770 
Q 2525 4250 2034 4250 
z
M 2034 4750 
Q 2819 4750 3233 4129 
Q 3647 3509 3647 2328 
Q 3647 1150 3233 529 
Q 2819 -91 2034 -91 
Q 1250 -91 836 529 
Q 422 1150 422 2328 
Q 422 3509 836 4129 
Q 1250 4750 2034 4750 
z
" transform="scale(0.015625)"/>
       </defs>
       <use xlink:href="#DejaVuSans-2212"/>
       <use xlink:href="#DejaVuSans-31" x="83.789062"/>
       <use xlink:href="#DejaVuSans-30" x="147.412109"/>
      </g>
     </g>
    </g>
    <g id="xtick_4">
     <g id="line2d_4">
      <g>
       <use xlink:href="#m2974313f5e" x="348.439628" y="382.84" style="stroke: #000000; stroke-width: 0.8"/>
      </g>
     </g>
     <g id="text_4">
      <!-- −8 -->
      <g transform="translate(341.068535 397.438438) scale(0.1 -0.1)">
       <defs>
        <path id="DejaVuSans-38" d="M 2034 2216 
Q 1584 2216 1326 1975 
Q 1069 1734 1069 1313 
Q 1069 891 1326 650 
Q 1584 409 2034 409 
Q 2484 409 2743 651 
Q 3003 894 3003 1313 
Q 3003 1734 2745 1975 
Q 2488 2216 2034 2216 
z
M 1403 2484 
Q 997 2584 770 2862 
Q 544 3141 544 3541 
Q 544 4100 942 4425 
Q 1341 4750 2034 4750 
Q 2731 4750 3128 4425 
Q 3525 4100 3525 3541 
Q 3525 3141 3298 2862 
Q 3072 2584 2669 2484 
Q 3125 2378 3379 2068 
Q 3634 1759 3634 1313 
Q 3634 634 3220 271 
Q 2806 -91 2034 -91 
Q 1263 -91 848 271 
Q 434 634 434 1313 
Q 434 1759 690 2068 
Q 947 2378 1403 2484 
z
M 1172 3481 
Q 1172 3119 1398 2916 
Q 1625 2713 2034 2713 
Q 2441 2713 2670 2916 
Q 2900 3119 2900 3481 
Q 2900 3844 2670 4047 
Q 2441 4250 2034 4250 
Q 1625 4250 1398 4047 
Q 1172 3844 1172 3481 
z
" transform="scale(0.015625)"/>
       </defs>
       <use xlink:href="#DejaVuSans-2212"/>
       <use xlink:href="#DejaVuSans-38" x="83.789062"/>
      </g>
     </g>
    </g>
    <g id="xtick_5">
     <g id="line2d_5">
      <g>
       <use xlink:href="#m2974313f5e" x="436.690503" y="382.84" style="stroke: #000000; stroke-width: 0.8"/>
      </g>
     </g>
     <g id="text_5">
      <!-- −6 -->
      <g transform="translate(429.319409 397.438438) scale(0.1 -0.1)">
       <defs>
        <path id="DejaVuSans-36" d="M 2113 2584 
Q 1688 2584 1439 2293 
Q 1191 2003 1191 1497 
Q 1191 994 1439 701 
Q 1688 409 2113 409 
Q 2538 409 2786 701 
Q 3034 994 3034 1497 
Q 3034 2003 2786 2293 
Q 2538 2584 2113 2584 
z
M 3366 4563 
L 3366 3988 
Q 3128 4100 2886 4159 
Q 2644 4219 2406 4219 
Q 1781 4219 1451 3797 
Q 1122 3375 1075 2522 
Q 1259 2794 1537 2939 
Q 1816 3084 2150 3084 
Q 2853 3084 3261 2657 
Q 3669 2231 3669 1497 
Q 3669 778 3244 343 
Q 2819 -91 2113 -91 
Q 1303 -91 875 529 
Q 447 1150 447 2328 
Q 447 3434 972 4092 
Q 1497 4750 2381 4750 
Q 2619 4750 2861 4703 
Q 3103 4656 3366 4563 
z
" transform="scale(0.015625)"/>
       </defs>
       <use xlink:href="#DejaVuSans-2212"/>
       <use xlink:href="#DejaVuSans-36" x="83.789062"/>
      </g>
     </g>
    </g>
    <g id="xtick_6">
     <g id="line2d_6">
      <g>
       <use xlink:href="#m2974313f5e" x="524.941378" y="382.84" style="stroke: #000000; stroke-width: 0.8"/>
      </g>
     </g>
     <g id="text_6">
      <!-- −4 -->
      <g transform="translate(517.570284 397.438438) scale(0.1 -0.1)">
       <use xlink:href="#DejaVuSans-2212"/>
       <use xlink:href="#DejaVuSans-34" x="83.789062"/>
      </g>
     </g>
    </g>
    <g id="text_7">
     <!-- SRC -->
     <g transform="translate(293.131288 417.195312) scale(0.18 -0.18)">
      <defs>
       <path id="DejaVuSans-53" d="M 3425 4513 
L 3425 3897 
Q 3066 4069 2747 4153 
Q 2428 4238 2131 4238 
Q 1616 4238 1336 4038 
Q 1056 3838 1056 3469 
Q 1056 3159 1242 3001 
Q 1428 2844 1947 2747 
L 2328 2669 
Q 3034 2534 3370 2195 
Q 3706 1856 3706 1288 
Q 3706 609 3251 259 
Q 2797 -91 1919 -91 
Q 1588 -91 1214 -16 
Q 841 59 441 206 
L 441 856 
Q 825 641 1194 531 
Q 1563 422 1919 422 
Q 2459 422 2753 634 
Q 3047 847 3047 1241 
Q 3047 1584 2836 1778 
Q 2625 1972 2144 2069 
L 1759 2144 
Q 1053 2284 737 2584 
Q 422 2884 422 3419 
Q 422 4038 858 4394 
Q 1294 4750 2059 4750 
Q 2388 4750 2728 4690 
Q 3069 4631 3425 4513 
z
" transform="scale(0.015625)"/>
       <path id="DejaVuSans-52" d="M 2841 2188 
Q 3044 2119 3236 1894 
Q 3428 1669 3622 1275 
L 4263 0 
L 3584 0 
L 2988 1197 
Q 2756 1666 2539 1819 
Q 2322 1972 1947 1972 
L 1259 1972 
L 1259 0 
L 628 0 
L 628 4666 
L 2053 4666 
Q 2853 4666 3247 4331 
Q 3641 3997 3641 3322 
Q 3641 2881 3436 2590 
Q 3231 2300 2841 2188 
z
M 1259 4147 
L 1259 2491 
L 2053 2491 
Q 2509 2491 2742 2702 
Q 2975 2913 2975 3322 
Q 2975 3731 2742 3939 
Q 2509 4147 2053 4147 
L 1259 4147 
z
" transform="scale(0.015625)"/>
       <path id="DejaVuSans-43" d="M 4122 4306 
L 4122 3641 
Q 3803 3938 3442 4084 
Q 3081 4231 2675 4231 
Q 1875 4231 1450 3742 
Q 1025 3253 1025 2328 
Q 1025 1406 1450 917 
Q 1875 428 2675 428 
Q 3081 428 3442 575 
Q 3803 722 4122 1019 
L 4122 359 
Q 3791 134 3420 21 
Q 3050 -91 2638 -91 
Q 1578 -91 968 557 
Q 359 1206 359 2328 
Q 359 3453 968 4101 
Q 1578 4750 2638 4750 
Q 3056 4750 3426 4639 
Q 3797 4528 4122 4306 
z
" transform="scale(0.015625)"/>
      </defs>
      <use xlink:href="#DejaVuSans-53"/>
      <use xlink:href="#DejaVuSans-52" x="63.476562"/>
      <use xlink:href="#DejaVuSans-43" x="127.958984"/>
     </g>
    </g>
   </g>
   <g id="matplotlib.axis_2">
    <g id="ytick_1">
     <g id="line2d_7">
      <defs>
       <path id="m00a4491e27" d="M 0 0 
L -3.5 0 
" style="stroke: #000000; stroke-width: 0.8"/>
      </defs>
      <g>
       <use xlink:href="#m00a4491e27" x="70.67" y="382.84" style="stroke: #000000; stroke-width: 0.8"/>
      </g>
     </g>
     <g id="text_8">
      <!-- 0 -->
      <g transform="translate(57.3075 386.639219) scale(0.1 -0.1)">
       <use xlink:href="#DejaVuSans-30"/>
      </g>
     </g>
    </g>
    <g id="ytick_2">
     <g id="line2d_8">
      <g>
       <use xlink:href="#m00a4491e27" x="70.67" y="321.511574" style="stroke: #000000; stroke-width: 0.8"/>
      </g>
     </g>
     <g id="text_9">
      <!-- 2000 -->
      <g transform="translate(38.22 325.310793) scale(0.1 -0.1)">
       <use xlink:href="#DejaVuSans-32"/>
       <use xlink:href="#DejaVuSans-30" x="63.623047"/>
       <use xlink:href="#DejaVuSans-30" x="127.246094"/>
       <use xlink:href="#DejaVuSans-30" x="190.869141"/>
      </g>
     </g>
    </g>
    <g id="ytick_3">
     <g id="line2d_9">
      <g>
       <use xlink:href="#m00a4491e27" x="70.67" y="260.183148" style="stroke: #000000; stroke-width: 0.8"/>
      </g>
     </g>
     <g id="text_10">
      <!-- 4000 -->
      <g transform="translate(38.22 263.982366) scale(0.1 -0.1)">
       <use xlink:href="#DejaVuSans-34"/>
       <use xlink:href="#DejaVuSans-30" x="63.623047"/>
       <use xlink:href="#DejaVuSans-30" x="127.246094"/>
       <use xlink:href="#DejaVuSans-30" x="190.869141"/>
      </g>
     </g>
    </g>
    <g id="ytick_4">
     <g id="line2d_10">
      <g>
       <use xlink:href="#m00a4491e27" x="70.67" y="198.854721" style="stroke: #000000; stroke-width: 0.8"/>
      </g>
     </g>
     <g id="text_11">
      <!-- 6000 -->
      <g transform="translate(38.22 202.65394) scale(0.1 -0.1)">
       <use xlink:href="#DejaVuSans-36"/>
       <use xlink:href="#DejaVuSans-30" x="63.623047"/>
       <use xlink:href="#DejaVuSans-30" x="127.246094"/>
       <use xlink:href="#DejaVuSans-30" x="190.869141"/>
      </g>
     </g>
    </g>
    <g id="ytick_5">
     <g id="line2d_11">
      <g>
       <use xlink:href="#m00a4491e27" x="70.67" y="137.526295" style="stroke: #000000; stroke-width: 0.8"/>
      </g>
     </g>
     <g id="text_12">
      <!-- 8000 -->
      <g transform="translate(38.22 141.325514) scale(0.1 -0.1)">
       <use xlink:href="#DejaVuSans-38"/>
       <use xlink:href="#DejaVuSans-30" x="63.623047"/>
       <use xlink:href="#DejaVuSans-30" x="127.246094"/>
       <use xlink:href="#DejaVuSans-30" x="190.869141"/>
      </g>
     </g>
    </g>
    <g id="ytick_6">
     <g id="line2d_12">
      <g>
       <use xlink:href="#m00a4491e27" x="70.67" y="76.197869" style="stroke: #000000; stroke-width: 0.8"/>
      </g>
     </g>
     <g id="text_13">
      <!-- 10000 -->
      <g transform="translate(31.8575 79.997088) scale(0.1 -0.1)">
       <use xlink:href="#DejaVuSans-31"/>
       <use xlink:href="#DejaVuSans-30" x="63.623047"/>
       <use xlink:href="#DejaVuSans-30" x="127.246094"/>
       <use xlink:href="#DejaVuSans-30" x="190.869141"/>
       <use xlink:href="#DejaVuSans-30" x="254.492188"/>
      </g>
     </g>
    </g>
    <g id="ytick_7">
     <g id="line2d_13">
      <g>
       <use xlink:href="#m00a4491e27" x="70.67" y="14.869443" style="stroke: #000000; stroke-width: 0.8"/>
      </g>
     </g>
     <g id="text_14">
      <!-- 12000 -->
      <g transform="translate(31.8575 18.668662) scale(0.1 -0.1)">
       <use xlink:href="#DejaVuSans-31"/>
       <use xlink:href="#DejaVuSans-32" x="63.623047"/>
       <use xlink:href="#DejaVuSans-30" x="127.246094"/>
       <use xlink:href="#DejaVuSans-30" x="190.869141"/>
       <use xlink:href="#DejaVuSans-30" x="254.492188"/>
      </g>
     </g>
    </g>
    <g id="text_15">
     <!-- Count -->
     <g transform="translate(24.114063 225.027653) rotate(-90) scale(0.18 -0.18)">
      <defs>
       <path id="DejaVuSans-6f" d="M 1959 3097 
Q 1497 3097 1228 2736 
Q 959 2375 959 1747 
Q 959 1119 1226 758 
Q 1494 397 1959 397 
Q 2419 397 2687 759 
Q 2956 1122 2956 1747 
Q 2956 2369 2687 2733 
Q 2419 3097 1959 3097 
z
M 1959 3584 
Q 2709 3584 3137 3096 
Q 3566 2609 3566 1747 
Q 3566 888 3137 398 
Q 2709 -91 1959 -91 
Q 1206 -91 779 398 
Q 353 888 353 1747 
Q 353 2609 779 3096 
Q 1206 3584 1959 3584 
z
" transform="scale(0.015625)"/>
       <path id="DejaVuSans-75" d="M 544 1381 
L 544 3500 
L 1119 3500 
L 1119 1403 
Q 1119 906 1312 657 
Q 1506 409 1894 409 
Q 2359 409 2629 706 
Q 2900 1003 2900 1516 
L 2900 3500 
L 3475 3500 
L 3475 0 
L 2900 0 
L 2900 538 
Q 2691 219 2414 64 
Q 2138 -91 1772 -91 
Q 1169 -91 856 284 
Q 544 659 544 1381 
z
M 1991 3584 
L 1991 3584 
z
" transform="scale(0.015625)"/>
       <path id="DejaVuSans-6e" d="M 3513 2113 
L 3513 0 
L 2938 0 
L 2938 2094 
Q 2938 2591 2744 2837 
Q 2550 3084 2163 3084 
Q 1697 3084 1428 2787 
Q 1159 2491 1159 1978 
L 1159 0 
L 581 0 
L 581 3500 
L 1159 3500 
L 1159 2956 
Q 1366 3272 1645 3428 
Q 1925 3584 2291 3584 
Q 2894 3584 3203 3211 
Q 3513 2838 3513 2113 
z
" transform="scale(0.015625)"/>
       <path id="DejaVuSans-74" d="M 1172 4494 
L 1172 3500 
L 2356 3500 
L 2356 3053 
L 1172 3053 
L 1172 1153 
Q 1172 725 1289 603 
Q 1406 481 1766 481 
L 2356 481 
L 2356 0 
L 1766 0 
Q 1100 0 847 248 
Q 594 497 594 1153 
L 594 3053 
L 172 3053 
L 172 3500 
L 594 3500 
L 594 4494 
L 1172 4494 
z
" transform="scale(0.015625)"/>
      </defs>
      <use xlink:href="#DejaVuSans-43"/>
      <use xlink:href="#DejaVuSans-6f" x="69.824219"/>
      <use xlink:href="#DejaVuSans-75" x="131.005859"/>
      <use xlink:href="#DejaVuSans-6e" x="194.384766"/>
      <use xlink:href="#DejaVuSans-74" x="257.763672"/>
     </g>
    </g>
   </g>
   <g id="line2d_14">
    <path d="M 299.901647 382.84 
L 299.901647 31.336125 
" clip-path="url(#pa81996672b)" style="fill: none; stroke: #ff0000; stroke-width: 1.6; stroke-linecap: square"/>
   </g>
   <g id="patch_247">
    <path d="M 70.67 382.84 
L 70.67 13.760932 
" style="fill: none; stroke: #000000; stroke-width: 0.8; stroke-linejoin: miter; stroke-linecap: square"/>
   </g>
   <g id="patch_248">
    <path d="M 551.196013 382.84 
L 551.196013 13.760932 
" style="fill: none; stroke: #000000; stroke-width: 0.8; stroke-linejoin: miter; stroke-linecap: square"/>
   </g>
   <g id="patch_249">
    <path d="M 70.67 382.84 
L 551.196013 382.84 
" style="fill: none; stroke: #000000; stroke-width: 0.8; stroke-linejoin: miter; stroke-linecap: square"/>
   </g>
   <g id="patch_250">
    <path d="M 70.67 13.760932 
L 551.196013 13.760932 
" style="fill: none; stroke: #000000; stroke-width: 0.8; stroke-linejoin: miter; stroke-linecap: square"/>
   </g>
   <g id="text_16">
    <!-- $\mu_10 = -8.131$ -->
    <g transform="translate(407.038209 64.018683) scale(0.21 -0.21)">
     <defs>
      <path id="DejaVuSans-Oblique-3bc" d="M -84 -1331 
L 856 3500 
L 1434 3500 
L 1009 1322 
Q 997 1256 987 1175 
Q 978 1094 978 1013 
Q 978 722 1161 565 
Q 1344 409 1684 409 
Q 2147 409 2431 671 
Q 2716 934 2816 1459 
L 3213 3500 
L 3788 3500 
L 3266 809 
Q 3253 750 3248 706 
Q 3244 663 3244 628 
Q 3244 531 3283 486 
Q 3322 441 3406 441 
Q 3438 441 3492 456 
Q 3547 472 3647 513 
L 3559 50 
Q 3422 -19 3297 -55 
Q 3172 -91 3053 -91 
Q 2847 -91 2730 40 
Q 2613 172 2613 403 
Q 2438 153 2195 31 
Q 1953 -91 1625 -91 
Q 1334 -91 1117 43 
Q 900 178 831 397 
L 494 -1331 
L -84 -1331 
z
" transform="scale(0.015625)"/>
      <path id="DejaVuSans-3d" d="M 678 2906 
L 4684 2906 
L 4684 2381 
L 678 2381 
L 678 2906 
z
M 678 1631 
L 4684 1631 
L 4684 1100 
L 678 1100 
L 678 1631 
z
" transform="scale(0.015625)"/>
      <path id="DejaVuSans-2e" d="M 684 794 
L 1344 794 
L 1344 0 
L 684 0 
L 684 794 
z
" transform="scale(0.015625)"/>
      <path id="DejaVuSans-33" d="M 2597 2516 
Q 3050 2419 3304 2112 
Q 3559 1806 3559 1356 
Q 3559 666 3084 287 
Q 2609 -91 1734 -91 
Q 1441 -91 1130 -33 
Q 819 25 488 141 
L 488 750 
Q 750 597 1062 519 
Q 1375 441 1716 441 
Q 2309 441 2620 675 
Q 2931 909 2931 1356 
Q 2931 1769 2642 2001 
Q 2353 2234 1838 2234 
L 1294 2234 
L 1294 2753 
L 1863 2753 
Q 2328 2753 2575 2939 
Q 2822 3125 2822 3475 
Q 2822 3834 2567 4026 
Q 2313 4219 1838 4219 
Q 1578 4219 1281 4162 
Q 984 4106 628 3988 
L 628 4550 
Q 988 4650 1302 4700 
Q 1616 4750 1894 4750 
Q 2613 4750 3031 4423 
Q 3450 4097 3450 3541 
Q 3450 3153 3228 2886 
Q 3006 2619 2597 2516 
z
" transform="scale(0.015625)"/>
     </defs>
     <use xlink:href="#DejaVuSans-Oblique-3bc" transform="translate(0 0.78125)"/>
     <use xlink:href="#DejaVuSans-31" transform="translate(63.623047 -15.625) scale(0.7)"/>
     <use xlink:href="#DejaVuSans-30" transform="translate(110.893555 0.78125)"/>
     <use xlink:href="#DejaVuSans-3d" transform="translate(193.999023 0.78125)"/>
     <use xlink:href="#DejaVuSans-2212" transform="translate(316.75293 0.78125)"/>
     <use xlink:href="#DejaVuSans-38" transform="translate(420.024414 0.78125)"/>
     <use xlink:href="#DejaVuSans-2e" transform="translate(483.647461 0.78125)"/>
     <use xlink:href="#DejaVuSans-31" transform="translate(515.43457 0.78125)"/>
     <use xlink:href="#DejaVuSans-33" transform="translate(579.057617 0.78125)"/>
     <use xlink:href="#DejaVuSans-31" transform="translate(642.680664 0.78125)"/>
    </g>
    <!-- $\sigma_10 = 0.959$ -->
    <g transform="translate(407.038209 87.576745) scale(0.21 -0.21)">
     <defs>
      <path id="DejaVuSans-Oblique-3c3" d="M 2219 3044 
Q 1744 3044 1422 2700 
Q 1081 2341 969 1747 
Q 844 1119 1044 756 
Q 1241 397 1706 397 
Q 2166 397 2503 759 
Q 2844 1122 2966 1747 
Q 3075 2319 2881 2700 
Q 2700 3044 2219 3044 
z
M 2309 3503 
L 4219 3500 
L 4106 2925 
L 3463 2925 
Q 3706 2438 3575 1747 
Q 3406 888 2884 400 
Q 2359 -91 1609 -91 
Q 856 -91 525 400 
Q 194 888 363 1747 
Q 528 2609 1050 3097 
Q 1484 3503 2309 3503 
z
" transform="scale(0.015625)"/>
      <path id="DejaVuSans-39" d="M 703 97 
L 703 672 
Q 941 559 1184 500 
Q 1428 441 1663 441 
Q 2288 441 2617 861 
Q 2947 1281 2994 2138 
Q 2813 1869 2534 1725 
Q 2256 1581 1919 1581 
Q 1219 1581 811 2004 
Q 403 2428 403 3163 
Q 403 3881 828 4315 
Q 1253 4750 1959 4750 
Q 2769 4750 3195 4129 
Q 3622 3509 3622 2328 
Q 3622 1225 3098 567 
Q 2575 -91 1691 -91 
Q 1453 -91 1209 -44 
Q 966 3 703 97 
z
M 1959 2075 
Q 2384 2075 2632 2365 
Q 2881 2656 2881 3163 
Q 2881 3666 2632 3958 
Q 2384 4250 1959 4250 
Q 1534 4250 1286 3958 
Q 1038 3666 1038 3163 
Q 1038 2656 1286 2365 
Q 1534 2075 1959 2075 
z
" transform="scale(0.015625)"/>
      <path id="DejaVuSans-35" d="M 691 4666 
L 3169 4666 
L 3169 4134 
L 1269 4134 
L 1269 2991 
Q 1406 3038 1543 3061 
Q 1681 3084 1819 3084 
Q 2600 3084 3056 2656 
Q 3513 2228 3513 1497 
Q 3513 744 3044 326 
Q 2575 -91 1722 -91 
Q 1428 -91 1123 -41 
Q 819 9 494 109 
L 494 744 
Q 775 591 1075 516 
Q 1375 441 1709 441 
Q 2250 441 2565 725 
Q 2881 1009 2881 1497 
Q 2881 1984 2565 2268 
Q 2250 2553 1709 2553 
Q 1456 2553 1204 2497 
Q 953 2441 691 2322 
L 691 4666 
z
" transform="scale(0.015625)"/>
     </defs>
     <use xlink:href="#DejaVuSans-Oblique-3c3" transform="translate(0 0.78125)"/>
     <use xlink:href="#DejaVuSans-31" transform="translate(63.378906 -15.625) scale(0.7)"/>
     <use xlink:href="#DejaVuSans-30" transform="translate(110.649414 0.78125)"/>
     <use xlink:href="#DejaVuSans-3d" transform="translate(193.754883 0.78125)"/>
     <use xlink:href="#DejaVuSans-30" transform="translate(297.026367 0.78125)"/>
     <use xlink:href="#DejaVuSans-2e" transform="translate(360.649414 0.78125)"/>
     <use xlink:href="#DejaVuSans-39" transform="translate(392.436523 0.78125)"/>
     <use xlink:href="#DejaVuSans-35" transform="translate(456.05957 0.78125)"/>
     <use xlink:href="#DejaVuSans-39" transform="translate(514.182617 0.78125)"/>
    </g>
   </g>
  </g>
 </g>
 <defs>
  <clipPath id="pa81996672b">
   <rect x="70.67" y="13.760932" width="480.526013" height="369.079068"/>
  </clipPath>
 </defs>
</svg>
