<?xml version="1.0" encoding="utf-8" standalone="no"?>
<!DOCTYPE svg PUBLIC "-//W3C//DTD SVG 1.1//EN"
  "http://www.w3.org/Graphics/SVG/1.1/DTD/svg11.dtd">
<svg xmlns:xlink="http://www.w3.org/1999/xlink" width="720pt" height="360pt" viewBox="0 0 720 360" xmlns="http://www.w3.org/2000/svg" version="1.1">
 <metadata>
  <rdf:RDF xmlns:dc="http://purl.org/dc/elements/1.1/" xmlns:cc="http://creativecommons.org/ns#" xmlns:rdf="http://www.w3.org/1999/02/22-rdf-syntax-ns#">
   <cc:Work>
    <dc:type rdf:resource="http://purl.org/dc/dcmitype/StillImage"/>
    <dc:date>2023-10-02T21:44:56.435772</dc:date>
    <dc:format>image/svg+xml</dc:format>
    <dc:creator>
     <cc:Agent>
      <dc:title>Matplotlib v3.7.1, https://matplotlib.org/</dc:title>
     </cc:Agent>
    </dc:creator>
   </cc:Work>
  </rdf:RDF>
 </metadata>
 <defs>
  <style type="text/css">*{stroke-linejoin: round; stroke-linecap: butt}</style>
 </defs>
 <g id="figure_1">
  <g id="patch_1">
   <path d="M 0 360 
L 720 360 
L 720 0 
L 0 0 
z
" style="fill: #ffffff"/>
  </g>
  <g id="axes_1">
   <g id="patch_2">
    <path d="M 90 320.4 
L 648 320.4 
L 648 43.2 
L 90 43.2 
z
" style="fill: #ffffff"/>
   </g>
   <g id="patch_3">
    <path d="M 115.363636 320.4 
L 119.626432 320.4 
L 119.626432 320.138614 
L 115.363636 320.138614 
z
" clip-path="url(#p4af785e213)" style="fill: #1f77b4"/>
   </g>
   <g id="patch_4">
    <path d="M 119.626432 320.4 
L 123.889228 320.4 
L 123.889228 320.4 
L 119.626432 320.4 
z
" clip-path="url(#p4af785e213)" style="fill: #1f77b4"/>
   </g>
   <g id="patch_5">
    <path d="M 123.889228 320.4 
L 128.152024 320.4 
L 128.152024 320.4 
L 123.889228 320.4 
z
" clip-path="url(#p4af785e213)" style="fill: #1f77b4"/>
   </g>
   <g id="patch_6">
    <path d="M 128.152024 320.4 
L 132.41482 320.4 
L 132.41482 319.093069 
L 128.152024 319.093069 
z
" clip-path="url(#p4af785e213)" style="fill: #1f77b4"/>
   </g>
   <g id="patch_7">
    <path d="M 132.41482 320.4 
L 136.677617 320.4 
L 136.677617 318.308911 
L 132.41482 318.308911 
z
" clip-path="url(#p4af785e213)" style="fill: #1f77b4"/>
   </g>
   <g id="patch_8">
    <path d="M 136.677617 320.4 
L 140.940413 320.4 
L 140.940413 314.388119 
L 136.677617 314.388119 
z
" clip-path="url(#p4af785e213)" style="fill: #1f77b4"/>
   </g>
   <g id="patch_9">
    <path d="M 140.940413 320.4 
L 145.203209 320.4 
L 145.203209 309.160396 
L 140.940413 309.160396 
z
" clip-path="url(#p4af785e213)" style="fill: #1f77b4"/>
   </g>
   <g id="patch_10">
    <path d="M 145.203209 320.4 
L 149.466005 320.4 
L 149.466005 296.091089 
L 145.203209 296.091089 
z
" clip-path="url(#p4af785e213)" style="fill: #1f77b4"/>
   </g>
   <g id="patch_11">
    <path d="M 149.466005 320.4 
L 153.728801 320.4 
L 153.728801 283.805941 
L 149.466005 283.805941 
z
" clip-path="url(#p4af785e213)" style="fill: #1f77b4"/>
   </g>
   <g id="patch_12">
    <path d="M 153.728801 320.4 
L 157.991597 320.4 
L 157.991597 262.89505 
L 153.728801 262.89505 
z
" clip-path="url(#p4af785e213)" style="fill: #1f77b4"/>
   </g>
   <g id="patch_13">
    <path d="M 157.991597 320.4 
L 162.254393 320.4 
L 162.254393 225.516832 
L 157.991597 225.516832 
z
" clip-path="url(#p4af785e213)" style="fill: #1f77b4"/>
   </g>
   <g id="patch_14">
    <path d="M 162.254393 320.4 
L 166.517189 320.4 
L 166.517189 208.526733 
L 162.254393 208.526733 
z
" clip-path="url(#p4af785e213)" style="fill: #1f77b4"/>
   </g>
   <g id="patch_15">
    <path d="M 166.517189 320.4 
L 170.779985 320.4 
L 170.779985 192.582178 
L 166.517189 192.582178 
z
" clip-path="url(#p4af785e213)" style="fill: #1f77b4"/>
   </g>
   <g id="patch_16">
    <path d="M 170.779985 320.4 
L 175.042781 320.4 
L 175.042781 167.227723 
L 170.779985 167.227723 
z
" clip-path="url(#p4af785e213)" style="fill: #1f77b4"/>
   </g>
   <g id="patch_17">
    <path d="M 175.042781 320.4 
L 179.305577 320.4 
L 179.305577 143.441584 
L 175.042781 143.441584 
z
" clip-path="url(#p4af785e213)" style="fill: #1f77b4"/>
   </g>
   <g id="patch_18">
    <path d="M 179.305577 320.4 
L 183.568373 320.4 
L 183.568373 113.120792 
L 179.305577 113.120792 
z
" clip-path="url(#p4af785e213)" style="fill: #1f77b4"/>
   </g>
   <g id="patch_19">
    <path d="M 183.568373 320.4 
L 187.831169 320.4 
L 187.831169 100.835644 
L 183.568373 100.835644 
z
" clip-path="url(#p4af785e213)" style="fill: #1f77b4"/>
   </g>
   <g id="patch_20">
    <path d="M 187.831169 320.4 
L 192.093965 320.4 
L 192.093965 90.118812 
L 187.831169 90.118812 
z
" clip-path="url(#p4af785e213)" style="fill: #1f77b4"/>
   </g>
   <g id="patch_21">
    <path d="M 192.093965 320.4 
L 196.356761 320.4 
L 196.356761 83.322772 
L 192.093965 83.322772 
z
" clip-path="url(#p4af785e213)" style="fill: #1f77b4"/>
   </g>
   <g id="patch_22">
    <path d="M 196.356761 320.4 
L 200.619557 320.4 
L 200.619557 61.366337 
L 196.356761 61.366337 
z
" clip-path="url(#p4af785e213)" style="fill: #1f77b4"/>
   </g>
   <g id="patch_23">
    <path d="M 200.619557 320.4 
L 204.882353 320.4 
L 204.882353 81.754455 
L 200.619557 81.754455 
z
" clip-path="url(#p4af785e213)" style="fill: #1f77b4"/>
   </g>
   <g id="patch_24">
    <path d="M 204.882353 320.4 
L 209.145149 320.4 
L 209.145149 56.4 
L 204.882353 56.4 
z
" clip-path="url(#p4af785e213)" style="fill: #1f77b4"/>
   </g>
   <g id="patch_25">
    <path d="M 209.145149 320.4 
L 213.407945 320.4 
L 213.407945 69.469307 
L 209.145149 69.469307 
z
" clip-path="url(#p4af785e213)" style="fill: #1f77b4"/>
   </g>
   <g id="patch_26">
    <path d="M 213.407945 320.4 
L 217.670741 320.4 
L 217.670741 75.481188 
L 213.407945 75.481188 
z
" clip-path="url(#p4af785e213)" style="fill: #1f77b4"/>
   </g>
   <g id="patch_27">
    <path d="M 217.670741 320.4 
L 221.933537 320.4 
L 221.933537 73.651485 
L 217.670741 73.651485 
z
" clip-path="url(#p4af785e213)" style="fill: #1f77b4"/>
   </g>
   <g id="patch_28">
    <path d="M 221.933537 320.4 
L 226.196333 320.4 
L 226.196333 85.413861 
L 221.933537 85.413861 
z
" clip-path="url(#p4af785e213)" style="fill: #1f77b4"/>
   </g>
   <g id="patch_29">
    <path d="M 226.196333 320.4 
L 230.459129 320.4 
L 230.459129 105.017822 
L 226.196333 105.017822 
z
" clip-path="url(#p4af785e213)" style="fill: #1f77b4"/>
   </g>
   <g id="patch_30">
    <path d="M 230.459129 320.4 
L 234.721925 320.4 
L 234.721925 102.142574 
L 230.459129 102.142574 
z
" clip-path="url(#p4af785e213)" style="fill: #1f77b4"/>
   </g>
   <g id="patch_31">
    <path d="M 234.721925 320.4 
L 238.984721 320.4 
L 238.984721 102.926733 
L 234.721925 102.926733 
z
" clip-path="url(#p4af785e213)" style="fill: #1f77b4"/>
   </g>
   <g id="patch_32">
    <path d="M 238.984721 320.4 
L 243.247517 320.4 
L 243.247517 123.314851 
L 238.984721 123.314851 
z
" clip-path="url(#p4af785e213)" style="fill: #1f77b4"/>
   </g>
   <g id="patch_33">
    <path d="M 243.247517 320.4 
L 247.510313 320.4 
L 247.510313 124.360396 
L 243.247517 124.360396 
z
" clip-path="url(#p4af785e213)" style="fill: #1f77b4"/>
   </g>
   <g id="patch_34">
    <path d="M 247.510313 320.4 
L 251.773109 320.4 
L 251.773109 136.122772 
L 247.510313 136.122772 
z
" clip-path="url(#p4af785e213)" style="fill: #1f77b4"/>
   </g>
   <g id="patch_35">
    <path d="M 251.773109 320.4 
L 256.035905 320.4 
L 256.035905 152.328713 
L 251.773109 152.328713 
z
" clip-path="url(#p4af785e213)" style="fill: #1f77b4"/>
   </g>
   <g id="patch_36">
    <path d="M 256.035905 320.4 
L 260.298701 320.4 
L 260.298701 163.568317 
L 256.035905 163.568317 
z
" clip-path="url(#p4af785e213)" style="fill: #1f77b4"/>
   </g>
   <g id="patch_37">
    <path d="M 260.298701 320.4 
L 264.561497 320.4 
L 264.561497 169.841584 
L 260.298701 169.841584 
z
" clip-path="url(#p4af785e213)" style="fill: #1f77b4"/>
   </g>
   <g id="patch_38">
    <path d="M 264.561497 320.4 
L 268.824293 320.4 
L 268.824293 190.229703 
L 264.561497 190.229703 
z
" clip-path="url(#p4af785e213)" style="fill: #1f77b4"/>
   </g>
   <g id="patch_39">
    <path d="M 268.824293 320.4 
L 273.087089 320.4 
L 273.087089 198.594059 
L 268.824293 198.594059 
z
" clip-path="url(#p4af785e213)" style="fill: #1f77b4"/>
   </g>
   <g id="patch_40">
    <path d="M 273.087089 320.4 
L 277.349885 320.4 
L 277.349885 205.390099 
L 273.087089 205.390099 
z
" clip-path="url(#p4af785e213)" style="fill: #1f77b4"/>
   </g>
   <g id="patch_41">
    <path d="M 277.349885 320.4 
L 281.612681 320.4 
L 281.612681 212.186139 
L 277.349885 212.186139 
z
" clip-path="url(#p4af785e213)" style="fill: #1f77b4"/>
   </g>
   <g id="patch_42">
    <path d="M 281.612681 320.4 
L 285.875477 320.4 
L 285.875477 229.960396 
L 281.612681 229.960396 
z
" clip-path="url(#p4af785e213)" style="fill: #1f77b4"/>
   </g>
   <g id="patch_43">
    <path d="M 285.875477 320.4 
L 290.138273 320.4 
L 290.138273 233.881188 
L 285.875477 233.881188 
z
" clip-path="url(#p4af785e213)" style="fill: #1f77b4"/>
   </g>
   <g id="patch_44">
    <path d="M 290.138273 320.4 
L 294.40107 320.4 
L 294.40107 237.279208 
L 290.138273 237.279208 
z
" clip-path="url(#p4af785e213)" style="fill: #1f77b4"/>
   </g>
   <g id="patch_45">
    <path d="M 294.40107 320.4 
L 298.663866 320.4 
L 298.663866 253.746535 
L 294.40107 253.746535 
z
" clip-path="url(#p4af785e213)" style="fill: #1f77b4"/>
   </g>
   <g id="patch_46">
    <path d="M 298.663866 320.4 
L 302.926662 320.4 
L 302.926662 257.405941 
L 298.663866 257.405941 
z
" clip-path="url(#p4af785e213)" style="fill: #1f77b4"/>
   </g>
   <g id="patch_47">
    <path d="M 302.926662 320.4 
L 307.189458 320.4 
L 307.189458 264.20198 
L 302.926662 264.20198 
z
" clip-path="url(#p4af785e213)" style="fill: #1f77b4"/>
   </g>
   <g id="patch_48">
    <path d="M 307.189458 320.4 
L 311.452254 320.4 
L 311.452254 264.463366 
L 307.189458 264.463366 
z
" clip-path="url(#p4af785e213)" style="fill: #1f77b4"/>
   </g>
   <g id="patch_49">
    <path d="M 311.452254 320.4 
L 315.71505 320.4 
L 315.71505 275.964356 
L 311.452254 275.964356 
z
" clip-path="url(#p4af785e213)" style="fill: #1f77b4"/>
   </g>
   <g id="patch_50">
    <path d="M 315.71505 320.4 
L 319.977846 320.4 
L 319.977846 280.407921 
L 315.71505 280.407921 
z
" clip-path="url(#p4af785e213)" style="fill: #1f77b4"/>
   </g>
   <g id="patch_51">
    <path d="M 319.977846 320.4 
L 324.240642 320.4 
L 324.240642 279.885149 
L 319.977846 279.885149 
z
" clip-path="url(#p4af785e213)" style="fill: #1f77b4"/>
   </g>
   <g id="patch_52">
    <path d="M 324.240642 320.4 
L 328.503438 320.4 
L 328.503438 281.453465 
L 324.240642 281.453465 
z
" clip-path="url(#p4af785e213)" style="fill: #1f77b4"/>
   </g>
   <g id="patch_53">
    <path d="M 328.503438 320.4 
L 332.766234 320.4 
L 332.766234 293.215842 
L 328.503438 293.215842 
z
" clip-path="url(#p4af785e213)" style="fill: #1f77b4"/>
   </g>
   <g id="patch_54">
    <path d="M 332.766234 320.4 
L 337.02903 320.4 
L 337.02903 292.170297 
L 332.766234 292.170297 
z
" clip-path="url(#p4af785e213)" style="fill: #1f77b4"/>
   </g>
   <g id="patch_55">
    <path d="M 337.02903 320.4 
L 341.291826 320.4 
L 341.291826 298.70495 
L 337.02903 298.70495 
z
" clip-path="url(#p4af785e213)" style="fill: #1f77b4"/>
   </g>
   <g id="patch_56">
    <path d="M 341.291826 320.4 
L 345.554622 320.4 
L 345.554622 302.364356 
L 341.291826 302.364356 
z
" clip-path="url(#p4af785e213)" style="fill: #1f77b4"/>
   </g>
   <g id="patch_57">
    <path d="M 345.554622 320.4 
L 349.817418 320.4 
L 349.817418 305.762376 
L 345.554622 305.762376 
z
" clip-path="url(#p4af785e213)" style="fill: #1f77b4"/>
   </g>
   <g id="patch_58">
    <path d="M 349.817418 320.4 
L 354.080214 320.4 
L 354.080214 303.148515 
L 349.817418 303.148515 
z
" clip-path="url(#p4af785e213)" style="fill: #1f77b4"/>
   </g>
   <g id="patch_59">
    <path d="M 354.080214 320.4 
L 358.34301 320.4 
L 358.34301 307.069307 
L 354.080214 307.069307 
z
" clip-path="url(#p4af785e213)" style="fill: #1f77b4"/>
   </g>
   <g id="patch_60">
    <path d="M 358.34301 320.4 
L 362.605806 320.4 
L 362.605806 306.023762 
L 358.34301 306.023762 
z
" clip-path="url(#p4af785e213)" style="fill: #1f77b4"/>
   </g>
   <g id="patch_61">
    <path d="M 362.605806 320.4 
L 366.868602 320.4 
L 366.868602 310.728713 
L 362.605806 310.728713 
z
" clip-path="url(#p4af785e213)" style="fill: #1f77b4"/>
   </g>
   <g id="patch_62">
    <path d="M 366.868602 320.4 
L 371.131398 320.4 
L 371.131398 311.512871 
L 366.868602 311.512871 
z
" clip-path="url(#p4af785e213)" style="fill: #1f77b4"/>
   </g>
   <g id="patch_63">
    <path d="M 371.131398 320.4 
L 375.394194 320.4 
L 375.394194 312.558416 
L 371.131398 312.558416 
z
" clip-path="url(#p4af785e213)" style="fill: #1f77b4"/>
   </g>
   <g id="patch_64">
    <path d="M 375.394194 320.4 
L 379.65699 320.4 
L 379.65699 312.558416 
L 375.394194 312.558416 
z
" clip-path="url(#p4af785e213)" style="fill: #1f77b4"/>
   </g>
   <g id="patch_65">
    <path d="M 379.65699 320.4 
L 383.919786 320.4 
L 383.919786 314.649505 
L 379.65699 314.649505 
z
" clip-path="url(#p4af785e213)" style="fill: #1f77b4"/>
   </g>
   <g id="patch_66">
    <path d="M 383.919786 320.4 
L 388.182582 320.4 
L 388.182582 316.740594 
L 383.919786 316.740594 
z
" clip-path="url(#p4af785e213)" style="fill: #1f77b4"/>
   </g>
   <g id="patch_67">
    <path d="M 388.182582 320.4 
L 392.445378 320.4 
L 392.445378 316.479208 
L 388.182582 316.479208 
z
" clip-path="url(#p4af785e213)" style="fill: #1f77b4"/>
   </g>
   <g id="patch_68">
    <path d="M 392.445378 320.4 
L 396.708174 320.4 
L 396.708174 314.910891 
L 392.445378 314.910891 
z
" clip-path="url(#p4af785e213)" style="fill: #1f77b4"/>
   </g>
   <g id="patch_69">
    <path d="M 396.708174 320.4 
L 400.97097 320.4 
L 400.97097 316.479208 
L 396.708174 316.479208 
z
" clip-path="url(#p4af785e213)" style="fill: #1f77b4"/>
   </g>
   <g id="patch_70">
    <path d="M 400.97097 320.4 
L 405.233766 320.4 
L 405.233766 318.308911 
L 400.97097 318.308911 
z
" clip-path="url(#p4af785e213)" style="fill: #1f77b4"/>
   </g>
   <g id="patch_71">
    <path d="M 405.233766 320.4 
L 409.496562 320.4 
L 409.496562 318.047525 
L 405.233766 318.047525 
z
" clip-path="url(#p4af785e213)" style="fill: #1f77b4"/>
   </g>
   <g id="patch_72">
    <path d="M 409.496562 320.4 
L 413.759358 320.4 
L 413.759358 317.524752 
L 409.496562 317.524752 
z
" clip-path="url(#p4af785e213)" style="fill: #1f77b4"/>
   </g>
   <g id="patch_73">
    <path d="M 413.759358 320.4 
L 418.022154 320.4 
L 418.022154 318.308911 
L 413.759358 318.308911 
z
" clip-path="url(#p4af785e213)" style="fill: #1f77b4"/>
   </g>
   <g id="patch_74">
    <path d="M 418.022154 320.4 
L 422.28495 320.4 
L 422.28495 317.524752 
L 418.022154 317.524752 
z
" clip-path="url(#p4af785e213)" style="fill: #1f77b4"/>
   </g>
   <g id="patch_75">
    <path d="M 422.28495 320.4 
L 426.547746 320.4 
L 426.547746 319.093069 
L 422.28495 319.093069 
z
" clip-path="url(#p4af785e213)" style="fill: #1f77b4"/>
   </g>
   <g id="patch_76">
    <path d="M 426.547746 320.4 
L 430.810542 320.4 
L 430.810542 318.570297 
L 426.547746 318.570297 
z
" clip-path="url(#p4af785e213)" style="fill: #1f77b4"/>
   </g>
   <g id="patch_77">
    <path d="M 430.810542 320.4 
L 435.073338 320.4 
L 435.073338 319.877228 
L 430.810542 319.877228 
z
" clip-path="url(#p4af785e213)" style="fill: #1f77b4"/>
   </g>
   <g id="patch_78">
    <path d="M 435.073338 320.4 
L 439.336134 320.4 
L 439.336134 319.877228 
L 435.073338 319.877228 
z
" clip-path="url(#p4af785e213)" style="fill: #1f77b4"/>
   </g>
   <g id="patch_79">
    <path d="M 439.336134 320.4 
L 443.59893 320.4 
L 443.59893 318.831683 
L 439.336134 318.831683 
z
" clip-path="url(#p4af785e213)" style="fill: #1f77b4"/>
   </g>
   <g id="patch_80">
    <path d="M 443.59893 320.4 
L 447.861727 320.4 
L 447.861727 318.831683 
L 443.59893 318.831683 
z
" clip-path="url(#p4af785e213)" style="fill: #1f77b4"/>
   </g>
   <g id="patch_81">
    <path d="M 447.861727 320.4 
L 452.124523 320.4 
L 452.124523 319.093069 
L 447.861727 319.093069 
z
" clip-path="url(#p4af785e213)" style="fill: #1f77b4"/>
   </g>
   <g id="patch_82">
    <path d="M 452.124523 320.4 
L 456.387319 320.4 
L 456.387319 319.615842 
L 452.124523 319.615842 
z
" clip-path="url(#p4af785e213)" style="fill: #1f77b4"/>
   </g>
   <g id="patch_83">
    <path d="M 456.387319 320.4 
L 460.650115 320.4 
L 460.650115 319.615842 
L 456.387319 319.615842 
z
" clip-path="url(#p4af785e213)" style="fill: #1f77b4"/>
   </g>
   <g id="patch_84">
    <path d="M 460.650115 320.4 
L 464.912911 320.4 
L 464.912911 319.877228 
L 460.650115 319.877228 
z
" clip-path="url(#p4af785e213)" style="fill: #1f77b4"/>
   </g>
   <g id="patch_85">
    <path d="M 464.912911 320.4 
L 469.175707 320.4 
L 469.175707 320.138614 
L 464.912911 320.138614 
z
" clip-path="url(#p4af785e213)" style="fill: #1f77b4"/>
   </g>
   <g id="patch_86">
    <path d="M 469.175707 320.4 
L 473.438503 320.4 
L 473.438503 319.615842 
L 469.175707 319.615842 
z
" clip-path="url(#p4af785e213)" style="fill: #1f77b4"/>
   </g>
   <g id="patch_87">
    <path d="M 473.438503 320.4 
L 477.701299 320.4 
L 477.701299 320.4 
L 473.438503 320.4 
z
" clip-path="url(#p4af785e213)" style="fill: #1f77b4"/>
   </g>
   <g id="patch_88">
    <path d="M 477.701299 320.4 
L 481.964095 320.4 
L 481.964095 320.138614 
L 477.701299 320.138614 
z
" clip-path="url(#p4af785e213)" style="fill: #1f77b4"/>
   </g>
   <g id="patch_89">
    <path d="M 481.964095 320.4 
L 486.226891 320.4 
L 486.226891 320.4 
L 481.964095 320.4 
z
" clip-path="url(#p4af785e213)" style="fill: #1f77b4"/>
   </g>
   <g id="patch_90">
    <path d="M 486.226891 320.4 
L 490.489687 320.4 
L 490.489687 320.138614 
L 486.226891 320.138614 
z
" clip-path="url(#p4af785e213)" style="fill: #1f77b4"/>
   </g>
   <g id="patch_91">
    <path d="M 490.489687 320.4 
L 494.752483 320.4 
L 494.752483 319.877228 
L 490.489687 319.877228 
z
" clip-path="url(#p4af785e213)" style="fill: #1f77b4"/>
   </g>
   <g id="patch_92">
    <path d="M 494.752483 320.4 
L 499.015279 320.4 
L 499.015279 320.138614 
L 494.752483 320.138614 
z
" clip-path="url(#p4af785e213)" style="fill: #1f77b4"/>
   </g>
   <g id="patch_93">
    <path d="M 499.015279 320.4 
L 503.278075 320.4 
L 503.278075 320.4 
L 499.015279 320.4 
z
" clip-path="url(#p4af785e213)" style="fill: #1f77b4"/>
   </g>
   <g id="patch_94">
    <path d="M 503.278075 320.4 
L 507.540871 320.4 
L 507.540871 320.138614 
L 503.278075 320.138614 
z
" clip-path="url(#p4af785e213)" style="fill: #1f77b4"/>
   </g>
   <g id="patch_95">
    <path d="M 507.540871 320.4 
L 511.803667 320.4 
L 511.803667 320.4 
L 507.540871 320.4 
z
" clip-path="url(#p4af785e213)" style="fill: #1f77b4"/>
   </g>
   <g id="patch_96">
    <path d="M 511.803667 320.4 
L 516.066463 320.4 
L 516.066463 320.4 
L 511.803667 320.4 
z
" clip-path="url(#p4af785e213)" style="fill: #1f77b4"/>
   </g>
   <g id="patch_97">
    <path d="M 516.066463 320.4 
L 520.329259 320.4 
L 520.329259 320.4 
L 516.066463 320.4 
z
" clip-path="url(#p4af785e213)" style="fill: #1f77b4"/>
   </g>
   <g id="patch_98">
    <path d="M 520.329259 320.4 
L 524.592055 320.4 
L 524.592055 319.877228 
L 520.329259 319.877228 
z
" clip-path="url(#p4af785e213)" style="fill: #1f77b4"/>
   </g>
   <g id="patch_99">
    <path d="M 524.592055 320.4 
L 528.854851 320.4 
L 528.854851 320.138614 
L 524.592055 320.138614 
z
" clip-path="url(#p4af785e213)" style="fill: #1f77b4"/>
   </g>
   <g id="patch_100">
    <path d="M 528.854851 320.4 
L 533.117647 320.4 
L 533.117647 320.4 
L 528.854851 320.4 
z
" clip-path="url(#p4af785e213)" style="fill: #1f77b4"/>
   </g>
   <g id="patch_101">
    <path d="M 533.117647 320.4 
L 537.380443 320.4 
L 537.380443 320.4 
L 533.117647 320.4 
z
" clip-path="url(#p4af785e213)" style="fill: #1f77b4"/>
   </g>
   <g id="patch_102">
    <path d="M 537.380443 320.4 
L 541.643239 320.4 
L 541.643239 320.138614 
L 537.380443 320.138614 
z
" clip-path="url(#p4af785e213)" style="fill: #1f77b4"/>
   </g>
   <g id="patch_103">
    <path d="M 541.643239 320.4 
L 545.906035 320.4 
L 545.906035 320.138614 
L 541.643239 320.138614 
z
" clip-path="url(#p4af785e213)" style="fill: #1f77b4"/>
   </g>
   <g id="patch_104">
    <path d="M 545.906035 320.4 
L 550.168831 320.4 
L 550.168831 319.877228 
L 545.906035 319.877228 
z
" clip-path="url(#p4af785e213)" style="fill: #1f77b4"/>
   </g>
   <g id="patch_105">
    <path d="M 550.168831 320.4 
L 554.431627 320.4 
L 554.431627 320.4 
L 550.168831 320.4 
z
" clip-path="url(#p4af785e213)" style="fill: #1f77b4"/>
   </g>
   <g id="patch_106">
    <path d="M 554.431627 320.4 
L 558.694423 320.4 
L 558.694423 320.4 
L 554.431627 320.4 
z
" clip-path="url(#p4af785e213)" style="fill: #1f77b4"/>
   </g>
   <g id="patch_107">
    <path d="M 558.694423 320.4 
L 562.957219 320.4 
L 562.957219 320.4 
L 558.694423 320.4 
z
" clip-path="url(#p4af785e213)" style="fill: #1f77b4"/>
   </g>
   <g id="patch_108">
    <path d="M 562.957219 320.4 
L 567.220015 320.4 
L 567.220015 320.4 
L 562.957219 320.4 
z
" clip-path="url(#p4af785e213)" style="fill: #1f77b4"/>
   </g>
   <g id="patch_109">
    <path d="M 567.220015 320.4 
L 571.482811 320.4 
L 571.482811 320.4 
L 567.220015 320.4 
z
" clip-path="url(#p4af785e213)" style="fill: #1f77b4"/>
   </g>
   <g id="patch_110">
    <path d="M 571.482811 320.4 
L 575.745607 320.4 
L 575.745607 319.877228 
L 571.482811 319.877228 
z
" clip-path="url(#p4af785e213)" style="fill: #1f77b4"/>
   </g>
   <g id="patch_111">
    <path d="M 575.745607 320.4 
L 580.008403 320.4 
L 580.008403 320.4 
L 575.745607 320.4 
z
" clip-path="url(#p4af785e213)" style="fill: #1f77b4"/>
   </g>
   <g id="patch_112">
    <path d="M 580.008403 320.4 
L 584.271199 320.4 
L 584.271199 320.4 
L 580.008403 320.4 
z
" clip-path="url(#p4af785e213)" style="fill: #1f77b4"/>
   </g>
   <g id="patch_113">
    <path d="M 584.271199 320.4 
L 588.533995 320.4 
L 588.533995 320.4 
L 584.271199 320.4 
z
" clip-path="url(#p4af785e213)" style="fill: #1f77b4"/>
   </g>
   <g id="patch_114">
    <path d="M 588.533995 320.4 
L 592.796791 320.4 
L 592.796791 320.4 
L 588.533995 320.4 
z
" clip-path="url(#p4af785e213)" style="fill: #1f77b4"/>
   </g>
   <g id="patch_115">
    <path d="M 592.796791 320.4 
L 597.059587 320.4 
L 597.059587 320.4 
L 592.796791 320.4 
z
" clip-path="url(#p4af785e213)" style="fill: #1f77b4"/>
   </g>
   <g id="patch_116">
    <path d="M 597.059587 320.4 
L 601.322383 320.4 
L 601.322383 320.4 
L 597.059587 320.4 
z
" clip-path="url(#p4af785e213)" style="fill: #1f77b4"/>
   </g>
   <g id="patch_117">
    <path d="M 601.322383 320.4 
L 605.58518 320.4 
L 605.58518 320.4 
L 601.322383 320.4 
z
" clip-path="url(#p4af785e213)" style="fill: #1f77b4"/>
   </g>
   <g id="patch_118">
    <path d="M 605.58518 320.4 
L 609.847976 320.4 
L 609.847976 320.4 
L 605.58518 320.4 
z
" clip-path="url(#p4af785e213)" style="fill: #1f77b4"/>
   </g>
   <g id="patch_119">
    <path d="M 609.847976 320.4 
L 614.110772 320.4 
L 614.110772 320.4 
L 609.847976 320.4 
z
" clip-path="url(#p4af785e213)" style="fill: #1f77b4"/>
   </g>
   <g id="patch_120">
    <path d="M 614.110772 320.4 
L 618.373568 320.4 
L 618.373568 320.4 
L 614.110772 320.4 
z
" clip-path="url(#p4af785e213)" style="fill: #1f77b4"/>
   </g>
   <g id="patch_121">
    <path d="M 618.373568 320.4 
L 622.636364 320.4 
L 622.636364 320.138614 
L 618.373568 320.138614 
z
" clip-path="url(#p4af785e213)" style="fill: #1f77b4"/>
   </g>
   <g id="matplotlib.axis_1">
    <g id="xtick_1">
     <g id="line2d_1">
      <defs>
       <path id="mb8ce1bdf1b" d="M 0 0 
L 0 3.5 
" style="stroke: #000000; stroke-width: 0.8"/>
      </defs>
      <g>
       <use xlink:href="#mb8ce1bdf1b" x="106.799585" y="320.4" style="stroke: #000000; stroke-width: 0.8"/>
      </g>
     </g>
     <g id="text_1">
      <!-- 7.5 -->
      <g transform="translate(98.848022 334.998438) scale(0.1 -0.1)">
       <defs>
        <path id="DejaVuSans-37" d="M 525 4666 
L 3525 4666 
L 3525 4397 
L 1831 0 
L 1172 0 
L 2766 4134 
L 525 4134 
L 525 4666 
z
" transform="scale(0.015625)"/>
        <path id="DejaVuSans-2e" d="M 684 794 
L 1344 794 
L 1344 0 
L 684 0 
L 684 794 
z
" transform="scale(0.015625)"/>
        <path id="DejaVuSans-35" d="M 691 4666 
L 3169 4666 
L 3169 4134 
L 1269 4134 
L 1269 2991 
Q 1406 3038 1543 3061 
Q 1681 3084 1819 3084 
Q 2600 3084 3056 2656 
Q 3513 2228 3513 1497 
Q 3513 744 3044 326 
Q 2575 -91 1722 -91 
Q 1428 -91 1123 -41 
Q 819 9 494 109 
L 494 744 
Q 775 591 1075 516 
Q 1375 441 1709 441 
Q 2250 441 2565 725 
Q 2881 1009 2881 1497 
Q 2881 1984 2565 2268 
Q 2250 2553 1709 2553 
Q 1456 2553 1204 2497 
Q 953 2441 691 2322 
L 691 4666 
z
" transform="scale(0.015625)"/>
       </defs>
       <use xlink:href="#DejaVuSans-37"/>
       <use xlink:href="#DejaVuSans-2e" x="63.623047"/>
       <use xlink:href="#DejaVuSans-35" x="95.410156"/>
      </g>
     </g>
    </g>
    <g id="xtick_2">
     <g id="line2d_2">
      <g>
       <use xlink:href="#mb8ce1bdf1b" x="178.214291" y="320.4" style="stroke: #000000; stroke-width: 0.8"/>
      </g>
     </g>
     <g id="text_2">
      <!-- 10.0 -->
      <g transform="translate(167.081479 334.998438) scale(0.1 -0.1)">
       <defs>
        <path id="DejaVuSans-31" d="M 794 531 
L 1825 531 
L 1825 4091 
L 703 3866 
L 703 4441 
L 1819 4666 
L 2450 4666 
L 2450 531 
L 3481 531 
L 3481 0 
L 794 0 
L 794 531 
z
" transform="scale(0.015625)"/>
        <path id="DejaVuSans-30" d="M 2034 4250 
Q 1547 4250 1301 3770 
Q 1056 3291 1056 2328 
Q 1056 1369 1301 889 
Q 1547 409 2034 409 
Q 2525 409 2770 889 
Q 3016 1369 3016 2328 
Q 3016 3291 2770 3770 
Q 2525 4250 2034 4250 
z
M 2034 4750 
Q 2819 4750 3233 4129 
Q 3647 3509 3647 2328 
Q 3647 1150 3233 529 
Q 2819 -91 2034 -91 
Q 1250 -91 836 529 
Q 422 1150 422 2328 
Q 422 3509 836 4129 
Q 1250 4750 2034 4750 
z
" transform="scale(0.015625)"/>
       </defs>
       <use xlink:href="#DejaVuSans-31"/>
       <use xlink:href="#DejaVuSans-30" x="63.623047"/>
       <use xlink:href="#DejaVuSans-2e" x="127.246094"/>
       <use xlink:href="#DejaVuSans-30" x="159.033203"/>
      </g>
     </g>
    </g>
    <g id="xtick_3">
     <g id="line2d_3">
      <g>
       <use xlink:href="#mb8ce1bdf1b" x="249.628997" y="320.4" style="stroke: #000000; stroke-width: 0.8"/>
      </g>
     </g>
     <g id="text_3">
      <!-- 12.5 -->
      <g transform="translate(238.496185 334.998438) scale(0.1 -0.1)">
       <defs>
        <path id="DejaVuSans-32" d="M 1228 531 
L 3431 531 
L 3431 0 
L 469 0 
L 469 531 
Q 828 903 1448 1529 
Q 2069 2156 2228 2338 
Q 2531 2678 2651 2914 
Q 2772 3150 2772 3378 
Q 2772 3750 2511 3984 
Q 2250 4219 1831 4219 
Q 1534 4219 1204 4116 
Q 875 4013 500 3803 
L 500 4441 
Q 881 4594 1212 4672 
Q 1544 4750 1819 4750 
Q 2544 4750 2975 4387 
Q 3406 4025 3406 3419 
Q 3406 3131 3298 2873 
Q 3191 2616 2906 2266 
Q 2828 2175 2409 1742 
Q 1991 1309 1228 531 
z
" transform="scale(0.015625)"/>
       </defs>
       <use xlink:href="#DejaVuSans-31"/>
       <use xlink:href="#DejaVuSans-32" x="63.623047"/>
       <use xlink:href="#DejaVuSans-2e" x="127.246094"/>
       <use xlink:href="#DejaVuSans-35" x="159.033203"/>
      </g>
     </g>
    </g>
    <g id="xtick_4">
     <g id="line2d_4">
      <g>
       <use xlink:href="#mb8ce1bdf1b" x="321.043703" y="320.4" style="stroke: #000000; stroke-width: 0.8"/>
      </g>
     </g>
     <g id="text_4">
      <!-- 15.0 -->
      <g transform="translate(309.910891 334.998438) scale(0.1 -0.1)">
       <use xlink:href="#DejaVuSans-31"/>
       <use xlink:href="#DejaVuSans-35" x="63.623047"/>
       <use xlink:href="#DejaVuSans-2e" x="127.246094"/>
       <use xlink:href="#DejaVuSans-30" x="159.033203"/>
      </g>
     </g>
    </g>
    <g id="xtick_5">
     <g id="line2d_5">
      <g>
       <use xlink:href="#mb8ce1bdf1b" x="392.45841" y="320.4" style="stroke: #000000; stroke-width: 0.8"/>
      </g>
     </g>
     <g id="text_5">
      <!-- 17.5 -->
      <g transform="translate(381.325597 334.998438) scale(0.1 -0.1)">
       <use xlink:href="#DejaVuSans-31"/>
       <use xlink:href="#DejaVuSans-37" x="63.623047"/>
       <use xlink:href="#DejaVuSans-2e" x="127.246094"/>
       <use xlink:href="#DejaVuSans-35" x="159.033203"/>
      </g>
     </g>
    </g>
    <g id="xtick_6">
     <g id="line2d_6">
      <g>
       <use xlink:href="#mb8ce1bdf1b" x="463.873116" y="320.4" style="stroke: #000000; stroke-width: 0.8"/>
      </g>
     </g>
     <g id="text_6">
      <!-- 20.0 -->
      <g transform="translate(452.740303 334.998438) scale(0.1 -0.1)">
       <use xlink:href="#DejaVuSans-32"/>
       <use xlink:href="#DejaVuSans-30" x="63.623047"/>
       <use xlink:href="#DejaVuSans-2e" x="127.246094"/>
       <use xlink:href="#DejaVuSans-30" x="159.033203"/>
      </g>
     </g>
    </g>
    <g id="xtick_7">
     <g id="line2d_7">
      <g>
       <use xlink:href="#mb8ce1bdf1b" x="535.287822" y="320.4" style="stroke: #000000; stroke-width: 0.8"/>
      </g>
     </g>
     <g id="text_7">
      <!-- 22.5 -->
      <g transform="translate(524.15501 334.998438) scale(0.1 -0.1)">
       <use xlink:href="#DejaVuSans-32"/>
       <use xlink:href="#DejaVuSans-32" x="63.623047"/>
       <use xlink:href="#DejaVuSans-2e" x="127.246094"/>
       <use xlink:href="#DejaVuSans-35" x="159.033203"/>
      </g>
     </g>
    </g>
    <g id="xtick_8">
     <g id="line2d_8">
      <g>
       <use xlink:href="#mb8ce1bdf1b" x="606.702528" y="320.4" style="stroke: #000000; stroke-width: 0.8"/>
      </g>
     </g>
     <g id="text_8">
      <!-- 25.0 -->
      <g transform="translate(595.569716 334.998438) scale(0.1 -0.1)">
       <use xlink:href="#DejaVuSans-32"/>
       <use xlink:href="#DejaVuSans-35" x="63.623047"/>
       <use xlink:href="#DejaVuSans-2e" x="127.246094"/>
       <use xlink:href="#DejaVuSans-30" x="159.033203"/>
      </g>
     </g>
    </g>
    <g id="text_9">
     <!-- combined -->
     <g transform="translate(329.54125 353.235625) scale(0.16 -0.16)">
      <defs>
       <path id="DejaVuSans-63" d="M 3122 3366 
L 3122 2828 
Q 2878 2963 2633 3030 
Q 2388 3097 2138 3097 
Q 1578 3097 1268 2742 
Q 959 2388 959 1747 
Q 959 1106 1268 751 
Q 1578 397 2138 397 
Q 2388 397 2633 464 
Q 2878 531 3122 666 
L 3122 134 
Q 2881 22 2623 -34 
Q 2366 -91 2075 -91 
Q 1284 -91 818 406 
Q 353 903 353 1747 
Q 353 2603 823 3093 
Q 1294 3584 2113 3584 
Q 2378 3584 2631 3529 
Q 2884 3475 3122 3366 
z
" transform="scale(0.015625)"/>
       <path id="DejaVuSans-6f" d="M 1959 3097 
Q 1497 3097 1228 2736 
Q 959 2375 959 1747 
Q 959 1119 1226 758 
Q 1494 397 1959 397 
Q 2419 397 2687 759 
Q 2956 1122 2956 1747 
Q 2956 2369 2687 2733 
Q 2419 3097 1959 3097 
z
M 1959 3584 
Q 2709 3584 3137 3096 
Q 3566 2609 3566 1747 
Q 3566 888 3137 398 
Q 2709 -91 1959 -91 
Q 1206 -91 779 398 
Q 353 888 353 1747 
Q 353 2609 779 3096 
Q 1206 3584 1959 3584 
z
" transform="scale(0.015625)"/>
       <path id="DejaVuSans-6d" d="M 3328 2828 
Q 3544 3216 3844 3400 
Q 4144 3584 4550 3584 
Q 5097 3584 5394 3201 
Q 5691 2819 5691 2113 
L 5691 0 
L 5113 0 
L 5113 2094 
Q 5113 2597 4934 2840 
Q 4756 3084 4391 3084 
Q 3944 3084 3684 2787 
Q 3425 2491 3425 1978 
L 3425 0 
L 2847 0 
L 2847 2094 
Q 2847 2600 2669 2842 
Q 2491 3084 2119 3084 
Q 1678 3084 1418 2786 
Q 1159 2488 1159 1978 
L 1159 0 
L 581 0 
L 581 3500 
L 1159 3500 
L 1159 2956 
Q 1356 3278 1631 3431 
Q 1906 3584 2284 3584 
Q 2666 3584 2933 3390 
Q 3200 3197 3328 2828 
z
" transform="scale(0.015625)"/>
       <path id="DejaVuSans-62" d="M 3116 1747 
Q 3116 2381 2855 2742 
Q 2594 3103 2138 3103 
Q 1681 3103 1420 2742 
Q 1159 2381 1159 1747 
Q 1159 1113 1420 752 
Q 1681 391 2138 391 
Q 2594 391 2855 752 
Q 3116 1113 3116 1747 
z
M 1159 2969 
Q 1341 3281 1617 3432 
Q 1894 3584 2278 3584 
Q 2916 3584 3314 3078 
Q 3713 2572 3713 1747 
Q 3713 922 3314 415 
Q 2916 -91 2278 -91 
Q 1894 -91 1617 61 
Q 1341 213 1159 525 
L 1159 0 
L 581 0 
L 581 4863 
L 1159 4863 
L 1159 2969 
z
" transform="scale(0.015625)"/>
       <path id="DejaVuSans-69" d="M 603 3500 
L 1178 3500 
L 1178 0 
L 603 0 
L 603 3500 
z
M 603 4863 
L 1178 4863 
L 1178 4134 
L 603 4134 
L 603 4863 
z
" transform="scale(0.015625)"/>
       <path id="DejaVuSans-6e" d="M 3513 2113 
L 3513 0 
L 2938 0 
L 2938 2094 
Q 2938 2591 2744 2837 
Q 2550 3084 2163 3084 
Q 1697 3084 1428 2787 
Q 1159 2491 1159 1978 
L 1159 0 
L 581 0 
L 581 3500 
L 1159 3500 
L 1159 2956 
Q 1366 3272 1645 3428 
Q 1925 3584 2291 3584 
Q 2894 3584 3203 3211 
Q 3513 2838 3513 2113 
z
" transform="scale(0.015625)"/>
       <path id="DejaVuSans-65" d="M 3597 1894 
L 3597 1613 
L 953 1613 
Q 991 1019 1311 708 
Q 1631 397 2203 397 
Q 2534 397 2845 478 
Q 3156 559 3463 722 
L 3463 178 
Q 3153 47 2828 -22 
Q 2503 -91 2169 -91 
Q 1331 -91 842 396 
Q 353 884 353 1716 
Q 353 2575 817 3079 
Q 1281 3584 2069 3584 
Q 2775 3584 3186 3129 
Q 3597 2675 3597 1894 
z
M 3022 2063 
Q 3016 2534 2758 2815 
Q 2500 3097 2075 3097 
Q 1594 3097 1305 2825 
Q 1016 2553 972 2059 
L 3022 2063 
z
" transform="scale(0.015625)"/>
       <path id="DejaVuSans-64" d="M 2906 2969 
L 2906 4863 
L 3481 4863 
L 3481 0 
L 2906 0 
L 2906 525 
Q 2725 213 2448 61 
Q 2172 -91 1784 -91 
Q 1150 -91 751 415 
Q 353 922 353 1747 
Q 353 2572 751 3078 
Q 1150 3584 1784 3584 
Q 2172 3584 2448 3432 
Q 2725 3281 2906 2969 
z
M 947 1747 
Q 947 1113 1208 752 
Q 1469 391 1925 391 
Q 2381 391 2643 752 
Q 2906 1113 2906 1747 
Q 2906 2381 2643 2742 
Q 2381 3103 1925 3103 
Q 1469 3103 1208 2742 
Q 947 2381 947 1747 
z
" transform="scale(0.015625)"/>
      </defs>
      <use xlink:href="#DejaVuSans-63"/>
      <use xlink:href="#DejaVuSans-6f" x="54.980469"/>
      <use xlink:href="#DejaVuSans-6d" x="116.162109"/>
      <use xlink:href="#DejaVuSans-62" x="213.574219"/>
      <use xlink:href="#DejaVuSans-69" x="277.050781"/>
      <use xlink:href="#DejaVuSans-6e" x="304.833984"/>
      <use xlink:href="#DejaVuSans-65" x="368.212891"/>
      <use xlink:href="#DejaVuSans-64" x="429.736328"/>
     </g>
    </g>
   </g>
   <g id="matplotlib.axis_2">
    <g id="ytick_1">
     <g id="line2d_9">
      <defs>
       <path id="mb72620c40b" d="M 0 0 
L -3.5 0 
" style="stroke: #000000; stroke-width: 0.8"/>
      </defs>
      <g>
       <use xlink:href="#mb72620c40b" x="90" y="320.4" style="stroke: #000000; stroke-width: 0.8"/>
      </g>
     </g>
     <g id="text_10">
      <!-- 0.00 -->
      <g transform="translate(60.734375 324.199219) scale(0.1 -0.1)">
       <use xlink:href="#DejaVuSans-30"/>
       <use xlink:href="#DejaVuSans-2e" x="63.623047"/>
       <use xlink:href="#DejaVuSans-30" x="95.410156"/>
       <use xlink:href="#DejaVuSans-30" x="159.033203"/>
      </g>
     </g>
    </g>
    <g id="ytick_2">
     <g id="line2d_10">
      <g>
       <use xlink:href="#mb72620c40b" x="90" y="271.734383" style="stroke: #000000; stroke-width: 0.8"/>
      </g>
     </g>
     <g id="text_11">
      <!-- 0.05 -->
      <g transform="translate(60.734375 275.533602) scale(0.1 -0.1)">
       <use xlink:href="#DejaVuSans-30"/>
       <use xlink:href="#DejaVuSans-2e" x="63.623047"/>
       <use xlink:href="#DejaVuSans-30" x="95.410156"/>
       <use xlink:href="#DejaVuSans-35" x="159.033203"/>
      </g>
     </g>
    </g>
    <g id="ytick_3">
     <g id="line2d_11">
      <g>
       <use xlink:href="#mb72620c40b" x="90" y="223.068767" style="stroke: #000000; stroke-width: 0.8"/>
      </g>
     </g>
     <g id="text_12">
      <!-- 0.10 -->
      <g transform="translate(60.734375 226.867985) scale(0.1 -0.1)">
       <use xlink:href="#DejaVuSans-30"/>
       <use xlink:href="#DejaVuSans-2e" x="63.623047"/>
       <use xlink:href="#DejaVuSans-31" x="95.410156"/>
       <use xlink:href="#DejaVuSans-30" x="159.033203"/>
      </g>
     </g>
    </g>
    <g id="ytick_4">
     <g id="line2d_12">
      <g>
       <use xlink:href="#mb72620c40b" x="90" y="174.40315" style="stroke: #000000; stroke-width: 0.8"/>
      </g>
     </g>
     <g id="text_13">
      <!-- 0.15 -->
      <g transform="translate(60.734375 178.202369) scale(0.1 -0.1)">
       <use xlink:href="#DejaVuSans-30"/>
       <use xlink:href="#DejaVuSans-2e" x="63.623047"/>
       <use xlink:href="#DejaVuSans-31" x="95.410156"/>
       <use xlink:href="#DejaVuSans-35" x="159.033203"/>
      </g>
     </g>
    </g>
    <g id="ytick_5">
     <g id="line2d_13">
      <g>
       <use xlink:href="#mb72620c40b" x="90" y="125.737533" style="stroke: #000000; stroke-width: 0.8"/>
      </g>
     </g>
     <g id="text_14">
      <!-- 0.20 -->
      <g transform="translate(60.734375 129.536752) scale(0.1 -0.1)">
       <use xlink:href="#DejaVuSans-30"/>
       <use xlink:href="#DejaVuSans-2e" x="63.623047"/>
       <use xlink:href="#DejaVuSans-32" x="95.410156"/>
       <use xlink:href="#DejaVuSans-30" x="159.033203"/>
      </g>
     </g>
    </g>
    <g id="ytick_6">
     <g id="line2d_14">
      <g>
       <use xlink:href="#mb72620c40b" x="90" y="77.071917" style="stroke: #000000; stroke-width: 0.8"/>
      </g>
     </g>
     <g id="text_15">
      <!-- 0.25 -->
      <g transform="translate(60.734375 80.871135) scale(0.1 -0.1)">
       <use xlink:href="#DejaVuSans-30"/>
       <use xlink:href="#DejaVuSans-2e" x="63.623047"/>
       <use xlink:href="#DejaVuSans-32" x="95.410156"/>
       <use xlink:href="#DejaVuSans-35" x="159.033203"/>
      </g>
     </g>
    </g>
    <g id="text_16">
     <!-- Relative frequency -->
     <g transform="translate(53.406875 256.7275) rotate(-90) scale(0.16 -0.16)">
      <defs>
       <path id="DejaVuSans-52" d="M 2841 2188 
Q 3044 2119 3236 1894 
Q 3428 1669 3622 1275 
L 4263 0 
L 3584 0 
L 2988 1197 
Q 2756 1666 2539 1819 
Q 2322 1972 1947 1972 
L 1259 1972 
L 1259 0 
L 628 0 
L 628 4666 
L 2053 4666 
Q 2853 4666 3247 4331 
Q 3641 3997 3641 3322 
Q 3641 2881 3436 2590 
Q 3231 2300 2841 2188 
z
M 1259 4147 
L 1259 2491 
L 2053 2491 
Q 2509 2491 2742 2702 
Q 2975 2913 2975 3322 
Q 2975 3731 2742 3939 
Q 2509 4147 2053 4147 
L 1259 4147 
z
" transform="scale(0.015625)"/>
       <path id="DejaVuSans-6c" d="M 603 4863 
L 1178 4863 
L 1178 0 
L 603 0 
L 603 4863 
z
" transform="scale(0.015625)"/>
       <path id="DejaVuSans-61" d="M 2194 1759 
Q 1497 1759 1228 1600 
Q 959 1441 959 1056 
Q 959 750 1161 570 
Q 1363 391 1709 391 
Q 2188 391 2477 730 
Q 2766 1069 2766 1631 
L 2766 1759 
L 2194 1759 
z
M 3341 1997 
L 3341 0 
L 2766 0 
L 2766 531 
Q 2569 213 2275 61 
Q 1981 -91 1556 -91 
Q 1019 -91 701 211 
Q 384 513 384 1019 
Q 384 1609 779 1909 
Q 1175 2209 1959 2209 
L 2766 2209 
L 2766 2266 
Q 2766 2663 2505 2880 
Q 2244 3097 1772 3097 
Q 1472 3097 1187 3025 
Q 903 2953 641 2809 
L 641 3341 
Q 956 3463 1253 3523 
Q 1550 3584 1831 3584 
Q 2591 3584 2966 3190 
Q 3341 2797 3341 1997 
z
" transform="scale(0.015625)"/>
       <path id="DejaVuSans-74" d="M 1172 4494 
L 1172 3500 
L 2356 3500 
L 2356 3053 
L 1172 3053 
L 1172 1153 
Q 1172 725 1289 603 
Q 1406 481 1766 481 
L 2356 481 
L 2356 0 
L 1766 0 
Q 1100 0 847 248 
Q 594 497 594 1153 
L 594 3053 
L 172 3053 
L 172 3500 
L 594 3500 
L 594 4494 
L 1172 4494 
z
" transform="scale(0.015625)"/>
       <path id="DejaVuSans-76" d="M 191 3500 
L 800 3500 
L 1894 563 
L 2988 3500 
L 3597 3500 
L 2284 0 
L 1503 0 
L 191 3500 
z
" transform="scale(0.015625)"/>
       <path id="DejaVuSans-20" transform="scale(0.015625)"/>
       <path id="DejaVuSans-66" d="M 2375 4863 
L 2375 4384 
L 1825 4384 
Q 1516 4384 1395 4259 
Q 1275 4134 1275 3809 
L 1275 3500 
L 2222 3500 
L 2222 3053 
L 1275 3053 
L 1275 0 
L 697 0 
L 697 3053 
L 147 3053 
L 147 3500 
L 697 3500 
L 697 3744 
Q 697 4328 969 4595 
Q 1241 4863 1831 4863 
L 2375 4863 
z
" transform="scale(0.015625)"/>
       <path id="DejaVuSans-72" d="M 2631 2963 
Q 2534 3019 2420 3045 
Q 2306 3072 2169 3072 
Q 1681 3072 1420 2755 
Q 1159 2438 1159 1844 
L 1159 0 
L 581 0 
L 581 3500 
L 1159 3500 
L 1159 2956 
Q 1341 3275 1631 3429 
Q 1922 3584 2338 3584 
Q 2397 3584 2469 3576 
Q 2541 3569 2628 3553 
L 2631 2963 
z
" transform="scale(0.015625)"/>
       <path id="DejaVuSans-71" d="M 947 1747 
Q 947 1113 1208 752 
Q 1469 391 1925 391 
Q 2381 391 2643 752 
Q 2906 1113 2906 1747 
Q 2906 2381 2643 2742 
Q 2381 3103 1925 3103 
Q 1469 3103 1208 2742 
Q 947 2381 947 1747 
z
M 2906 525 
Q 2725 213 2448 61 
Q 2172 -91 1784 -91 
Q 1150 -91 751 415 
Q 353 922 353 1747 
Q 353 2572 751 3078 
Q 1150 3584 1784 3584 
Q 2172 3584 2448 3432 
Q 2725 3281 2906 2969 
L 2906 3500 
L 3481 3500 
L 3481 -1331 
L 2906 -1331 
L 2906 525 
z
" transform="scale(0.015625)"/>
       <path id="DejaVuSans-75" d="M 544 1381 
L 544 3500 
L 1119 3500 
L 1119 1403 
Q 1119 906 1312 657 
Q 1506 409 1894 409 
Q 2359 409 2629 706 
Q 2900 1003 2900 1516 
L 2900 3500 
L 3475 3500 
L 3475 0 
L 2900 0 
L 2900 538 
Q 2691 219 2414 64 
Q 2138 -91 1772 -91 
Q 1169 -91 856 284 
Q 544 659 544 1381 
z
M 1991 3584 
L 1991 3584 
z
" transform="scale(0.015625)"/>
       <path id="DejaVuSans-79" d="M 2059 -325 
Q 1816 -950 1584 -1140 
Q 1353 -1331 966 -1331 
L 506 -1331 
L 506 -850 
L 844 -850 
Q 1081 -850 1212 -737 
Q 1344 -625 1503 -206 
L 1606 56 
L 191 3500 
L 800 3500 
L 1894 763 
L 2988 3500 
L 3597 3500 
L 2059 -325 
z
" transform="scale(0.015625)"/>
      </defs>
      <use xlink:href="#DejaVuSans-52"/>
      <use xlink:href="#DejaVuSans-65" x="64.982422"/>
      <use xlink:href="#DejaVuSans-6c" x="126.505859"/>
      <use xlink:href="#DejaVuSans-61" x="154.289062"/>
      <use xlink:href="#DejaVuSans-74" x="215.568359"/>
      <use xlink:href="#DejaVuSans-69" x="254.777344"/>
      <use xlink:href="#DejaVuSans-76" x="282.560547"/>
      <use xlink:href="#DejaVuSans-65" x="341.740234"/>
      <use xlink:href="#DejaVuSans-20" x="403.263672"/>
      <use xlink:href="#DejaVuSans-66" x="435.050781"/>
      <use xlink:href="#DejaVuSans-72" x="470.255859"/>
      <use xlink:href="#DejaVuSans-65" x="509.119141"/>
      <use xlink:href="#DejaVuSans-71" x="570.642578"/>
      <use xlink:href="#DejaVuSans-75" x="634.119141"/>
      <use xlink:href="#DejaVuSans-65" x="697.498047"/>
      <use xlink:href="#DejaVuSans-6e" x="759.021484"/>
      <use xlink:href="#DejaVuSans-63" x="822.400391"/>
      <use xlink:href="#DejaVuSans-79" x="877.380859"/>
     </g>
    </g>
   </g>
   <g id="line2d_15">
    <path d="M 278.681183 320.4 
L 278.681183 56.4 
" clip-path="url(#p4af785e213)" style="fill: none; stroke: #ff0000; stroke-width: 1.6; stroke-linecap: square"/>
   </g>
   <g id="patch_122">
    <path d="M 90 320.4 
L 90 43.2 
" style="fill: none; stroke: #000000; stroke-width: 0.8; stroke-linejoin: miter; stroke-linecap: square"/>
   </g>
   <g id="patch_123">
    <path d="M 648 320.4 
L 648 43.2 
" style="fill: none; stroke: #000000; stroke-width: 0.8; stroke-linejoin: miter; stroke-linecap: square"/>
   </g>
   <g id="patch_124">
    <path d="M 90 320.4 
L 648 320.4 
" style="fill: none; stroke: #000000; stroke-width: 0.8; stroke-linejoin: miter; stroke-linecap: square"/>
   </g>
   <g id="patch_125">
    <path d="M 90 43.2 
L 648 43.2 
" style="fill: none; stroke: #000000; stroke-width: 0.8; stroke-linejoin: miter; stroke-linecap: square"/>
   </g>
   <g id="text_17">
    <!-- $\mu_4 = 11.824$ -->
    <g transform="translate(480.6 77.325562) scale(0.19 -0.19)">
     <defs>
      <path id="DejaVuSans-Oblique-3bc" d="M -84 -1331 
L 856 3500 
L 1434 3500 
L 1009 1322 
Q 997 1256 987 1175 
Q 978 1094 978 1013 
Q 978 722 1161 565 
Q 1344 409 1684 409 
Q 2147 409 2431 671 
Q 2716 934 2816 1459 
L 3213 3500 
L 3788 3500 
L 3266 809 
Q 3253 750 3248 706 
Q 3244 663 3244 628 
Q 3244 531 3283 486 
Q 3322 441 3406 441 
Q 3438 441 3492 456 
Q 3547 472 3647 513 
L 3559 50 
Q 3422 -19 3297 -55 
Q 3172 -91 3053 -91 
Q 2847 -91 2730 40 
Q 2613 172 2613 403 
Q 2438 153 2195 31 
Q 1953 -91 1625 -91 
Q 1334 -91 1117 43 
Q 900 178 831 397 
L 494 -1331 
L -84 -1331 
z
" transform="scale(0.015625)"/>
      <path id="DejaVuSans-34" d="M 2419 4116 
L 825 1625 
L 2419 1625 
L 2419 4116 
z
M 2253 4666 
L 3047 4666 
L 3047 1625 
L 3713 1625 
L 3713 1100 
L 3047 1100 
L 3047 0 
L 2419 0 
L 2419 1100 
L 313 1100 
L 313 1709 
L 2253 4666 
z
" transform="scale(0.015625)"/>
      <path id="DejaVuSans-3d" d="M 678 2906 
L 4684 2906 
L 4684 2381 
L 678 2381 
L 678 2906 
z
M 678 1631 
L 4684 1631 
L 4684 1100 
L 678 1100 
L 678 1631 
z
" transform="scale(0.015625)"/>
      <path id="DejaVuSans-38" d="M 2034 2216 
Q 1584 2216 1326 1975 
Q 1069 1734 1069 1313 
Q 1069 891 1326 650 
Q 1584 409 2034 409 
Q 2484 409 2743 651 
Q 3003 894 3003 1313 
Q 3003 1734 2745 1975 
Q 2488 2216 2034 2216 
z
M 1403 2484 
Q 997 2584 770 2862 
Q 544 3141 544 3541 
Q 544 4100 942 4425 
Q 1341 4750 2034 4750 
Q 2731 4750 3128 4425 
Q 3525 4100 3525 3541 
Q 3525 3141 3298 2862 
Q 3072 2584 2669 2484 
Q 3125 2378 3379 2068 
Q 3634 1759 3634 1313 
Q 3634 634 3220 271 
Q 2806 -91 2034 -91 
Q 1263 -91 848 271 
Q 434 634 434 1313 
Q 434 1759 690 2068 
Q 947 2378 1403 2484 
z
M 1172 3481 
Q 1172 3119 1398 2916 
Q 1625 2713 2034 2713 
Q 2441 2713 2670 2916 
Q 2900 3119 2900 3481 
Q 2900 3844 2670 4047 
Q 2441 4250 2034 4250 
Q 1625 4250 1398 4047 
Q 1172 3844 1172 3481 
z
" transform="scale(0.015625)"/>
     </defs>
     <use xlink:href="#DejaVuSans-Oblique-3bc" transform="translate(0 0.78125)"/>
     <use xlink:href="#DejaVuSans-34" transform="translate(63.623047 -15.625) scale(0.7)"/>
     <use xlink:href="#DejaVuSans-3d" transform="translate(130.375977 0.78125)"/>
     <use xlink:href="#DejaVuSans-31" transform="translate(233.647461 0.78125)"/>
     <use xlink:href="#DejaVuSans-31" transform="translate(297.270508 0.78125)"/>
     <use xlink:href="#DejaVuSans-2e" transform="translate(360.893555 0.78125)"/>
     <use xlink:href="#DejaVuSans-38" transform="translate(390.055664 0.78125)"/>
     <use xlink:href="#DejaVuSans-32" transform="translate(453.678711 0.78125)"/>
     <use xlink:href="#DejaVuSans-34" transform="translate(517.301758 0.78125)"/>
    </g>
    <!-- $\sigma_4 = 1.685$ -->
    <g transform="translate(480.6 98.64) scale(0.19 -0.19)">
     <defs>
      <path id="DejaVuSans-Oblique-3c3" d="M 2219 3044 
Q 1744 3044 1422 2700 
Q 1081 2341 969 1747 
Q 844 1119 1044 756 
Q 1241 397 1706 397 
Q 2166 397 2503 759 
Q 2844 1122 2966 1747 
Q 3075 2319 2881 2700 
Q 2700 3044 2219 3044 
z
M 2309 3503 
L 4219 3500 
L 4106 2925 
L 3463 2925 
Q 3706 2438 3575 1747 
Q 3406 888 2884 400 
Q 2359 -91 1609 -91 
Q 856 -91 525 400 
Q 194 888 363 1747 
Q 528 2609 1050 3097 
Q 1484 3503 2309 3503 
z
" transform="scale(0.015625)"/>
      <path id="DejaVuSans-36" d="M 2113 2584 
Q 1688 2584 1439 2293 
Q 1191 2003 1191 1497 
Q 1191 994 1439 701 
Q 1688 409 2113 409 
Q 2538 409 2786 701 
Q 3034 994 3034 1497 
Q 3034 2003 2786 2293 
Q 2538 2584 2113 2584 
z
M 3366 4563 
L 3366 3988 
Q 3128 4100 2886 4159 
Q 2644 4219 2406 4219 
Q 1781 4219 1451 3797 
Q 1122 3375 1075 2522 
Q 1259 2794 1537 2939 
Q 1816 3084 2150 3084 
Q 2853 3084 3261 2657 
Q 3669 2231 3669 1497 
Q 3669 778 3244 343 
Q 2819 -91 2113 -91 
Q 1303 -91 875 529 
Q 447 1150 447 2328 
Q 447 3434 972 4092 
Q 1497 4750 2381 4750 
Q 2619 4750 2861 4703 
Q 3103 4656 3366 4563 
z
" transform="scale(0.015625)"/>
     </defs>
     <use xlink:href="#DejaVuSans-Oblique-3c3" transform="translate(0 0.78125)"/>
     <use xlink:href="#DejaVuSans-34" transform="translate(63.378906 -15.625) scale(0.7)"/>
     <use xlink:href="#DejaVuSans-3d" transform="translate(130.131836 0.78125)"/>
     <use xlink:href="#DejaVuSans-31" transform="translate(233.40332 0.78125)"/>
     <use xlink:href="#DejaVuSans-2e" transform="translate(297.026367 0.78125)"/>
     <use xlink:href="#DejaVuSans-36" transform="translate(328.813477 0.78125)"/>
     <use xlink:href="#DejaVuSans-38" transform="translate(392.436523 0.78125)"/>
     <use xlink:href="#DejaVuSans-35" transform="translate(456.05957 0.78125)"/>
    </g>
   </g>
   <g id="text_18">
    <!-- Distribution of combined -->
    <g transform="translate(257.709375 37.2) scale(0.18 -0.18)">
     <defs>
      <path id="DejaVuSans-44" d="M 1259 4147 
L 1259 519 
L 2022 519 
Q 2988 519 3436 956 
Q 3884 1394 3884 2338 
Q 3884 3275 3436 3711 
Q 2988 4147 2022 4147 
L 1259 4147 
z
M 628 4666 
L 1925 4666 
Q 3281 4666 3915 4102 
Q 4550 3538 4550 2338 
Q 4550 1131 3912 565 
Q 3275 0 1925 0 
L 628 0 
L 628 4666 
z
" transform="scale(0.015625)"/>
      <path id="DejaVuSans-73" d="M 2834 3397 
L 2834 2853 
Q 2591 2978 2328 3040 
Q 2066 3103 1784 3103 
Q 1356 3103 1142 2972 
Q 928 2841 928 2578 
Q 928 2378 1081 2264 
Q 1234 2150 1697 2047 
L 1894 2003 
Q 2506 1872 2764 1633 
Q 3022 1394 3022 966 
Q 3022 478 2636 193 
Q 2250 -91 1575 -91 
Q 1294 -91 989 -36 
Q 684 19 347 128 
L 347 722 
Q 666 556 975 473 
Q 1284 391 1588 391 
Q 1994 391 2212 530 
Q 2431 669 2431 922 
Q 2431 1156 2273 1281 
Q 2116 1406 1581 1522 
L 1381 1569 
Q 847 1681 609 1914 
Q 372 2147 372 2553 
Q 372 3047 722 3315 
Q 1072 3584 1716 3584 
Q 2034 3584 2315 3537 
Q 2597 3491 2834 3397 
z
" transform="scale(0.015625)"/>
     </defs>
     <use xlink:href="#DejaVuSans-44"/>
     <use xlink:href="#DejaVuSans-69" x="77.001953"/>
     <use xlink:href="#DejaVuSans-73" x="104.785156"/>
     <use xlink:href="#DejaVuSans-74" x="156.884766"/>
     <use xlink:href="#DejaVuSans-72" x="196.09375"/>
     <use xlink:href="#DejaVuSans-69" x="237.207031"/>
     <use xlink:href="#DejaVuSans-62" x="264.990234"/>
     <use xlink:href="#DejaVuSans-75" x="328.466797"/>
     <use xlink:href="#DejaVuSans-74" x="391.845703"/>
     <use xlink:href="#DejaVuSans-69" x="431.054688"/>
     <use xlink:href="#DejaVuSans-6f" x="458.837891"/>
     <use xlink:href="#DejaVuSans-6e" x="520.019531"/>
     <use xlink:href="#DejaVuSans-20" x="583.398438"/>
     <use xlink:href="#DejaVuSans-6f" x="615.185547"/>
     <use xlink:href="#DejaVuSans-66" x="676.367188"/>
     <use xlink:href="#DejaVuSans-20" x="711.572266"/>
     <use xlink:href="#DejaVuSans-63" x="743.359375"/>
     <use xlink:href="#DejaVuSans-6f" x="798.339844"/>
     <use xlink:href="#DejaVuSans-6d" x="859.521484"/>
     <use xlink:href="#DejaVuSans-62" x="956.933594"/>
     <use xlink:href="#DejaVuSans-69" x="1020.410156"/>
     <use xlink:href="#DejaVuSans-6e" x="1048.193359"/>
     <use xlink:href="#DejaVuSans-65" x="1111.572266"/>
     <use xlink:href="#DejaVuSans-64" x="1173.095703"/>
    </g>
   </g>
  </g>
 </g>
 <defs>
  <clipPath id="p4af785e213">
   <rect x="90" y="43.2" width="558" height="277.2"/>
  </clipPath>
 </defs>
</svg>
