<?xml version="1.0" encoding="utf-8" standalone="no"?>
<!DOCTYPE svg PUBLIC "-//W3C//DTD SVG 1.1//EN"
  "http://www.w3.org/Graphics/SVG/1.1/DTD/svg11.dtd">
<svg xmlns:xlink="http://www.w3.org/1999/xlink" width="648pt" height="432pt" viewBox="0 0 648 432" xmlns="http://www.w3.org/2000/svg" version="1.1">
 <metadata>
  <rdf:RDF xmlns:dc="http://purl.org/dc/elements/1.1/" xmlns:cc="http://creativecommons.org/ns#" xmlns:rdf="http://www.w3.org/1999/02/22-rdf-syntax-ns#">
   <cc:Work>
    <dc:type rdf:resource="http://purl.org/dc/dcmitype/StillImage"/>
    <dc:date>2024-01-30T14:16:37.054927</dc:date>
    <dc:format>image/svg+xml</dc:format>
    <dc:creator>
     <cc:Agent>
      <dc:title>Matplotlib v3.7.2, https://matplotlib.org/</dc:title>
     </cc:Agent>
    </dc:creator>
   </cc:Work>
  </rdf:RDF>
 </metadata>
 <defs>
  <style type="text/css">*{stroke-linejoin: round; stroke-linecap: butt}</style>
 </defs>
 <g id="figure_1">
  <g id="patch_1">
   <path d="M 0 432 
L 648 432 
L 648 0 
L 0 0 
z
" style="fill: #ffffff"/>
  </g>
  <g id="axes_1">
   <g id="patch_2">
    <path d="M 63.92 385.72 
L 637.2 385.72 
L 637.2 10.8 
L 63.92 10.8 
z
" style="fill: #ffffff"/>
   </g>
   <g id="patch_3">
    <path d="M 89.978182 385.72 
L 99.62936 385.72 
L 99.62936 354.922619 
L 89.978182 354.922619 
z
" clip-path="url(#p83fdc3e52a)" style="fill: #1f77b4"/>
   </g>
   <g id="patch_4">
    <path d="M 99.62936 385.72 
L 109.280539 385.72 
L 109.280539 310.403632 
L 99.62936 310.403632 
z
" clip-path="url(#p83fdc3e52a)" style="fill: #1f77b4"/>
   </g>
   <g id="patch_5">
    <path d="M 109.280539 385.72 
L 118.931717 385.72 
L 118.931717 282.960421 
L 109.280539 282.960421 
z
" clip-path="url(#p83fdc3e52a)" style="fill: #1f77b4"/>
   </g>
   <g id="patch_6">
    <path d="M 118.931717 385.72 
L 128.582896 385.72 
L 128.582896 273.202835 
L 118.931717 273.202835 
z
" clip-path="url(#p83fdc3e52a)" style="fill: #1f77b4"/>
   </g>
   <g id="patch_7">
    <path d="M 128.582896 385.72 
L 138.234074 385.72 
L 138.234074 255.212286 
L 128.582896 255.212286 
z
" clip-path="url(#p83fdc3e52a)" style="fill: #1f77b4"/>
   </g>
   <g id="patch_8">
    <path d="M 138.234074 385.72 
L 147.885253 385.72 
L 147.885253 243.015303 
L 138.234074 243.015303 
z
" clip-path="url(#p83fdc3e52a)" style="fill: #1f77b4"/>
   </g>
   <g id="patch_9">
    <path d="M 147.885253 385.72 
L 157.536431 385.72 
L 157.536431 211.608073 
L 147.885253 211.608073 
z
" clip-path="url(#p83fdc3e52a)" style="fill: #1f77b4"/>
   </g>
   <g id="patch_10">
    <path d="M 157.536431 385.72 
L 167.187609 385.72 
L 167.187609 164.039841 
L 157.536431 164.039841 
z
" clip-path="url(#p83fdc3e52a)" style="fill: #1f77b4"/>
   </g>
   <g id="patch_11">
    <path d="M 167.187609 385.72 
L 176.838788 385.72 
L 176.838788 121.655326 
L 167.187609 121.655326 
z
" clip-path="url(#p83fdc3e52a)" style="fill: #1f77b4"/>
   </g>
   <g id="patch_12">
    <path d="M 176.838788 385.72 
L 186.489966 385.72 
L 186.489966 102.750003 
L 176.838788 102.750003 
z
" clip-path="url(#p83fdc3e52a)" style="fill: #1f77b4"/>
   </g>
   <g id="patch_13">
    <path d="M 186.489966 385.72 
L 196.141145 385.72 
L 196.141145 62.49996 
L 186.489966 62.49996 
z
" clip-path="url(#p83fdc3e52a)" style="fill: #1f77b4"/>
   </g>
   <g id="patch_14">
    <path d="M 196.141145 385.72 
L 205.792323 385.72 
L 205.792323 38.715844 
L 196.141145 38.715844 
z
" clip-path="url(#p83fdc3e52a)" style="fill: #1f77b4"/>
   </g>
   <g id="patch_15">
    <path d="M 205.792323 385.72 
L 215.443502 385.72 
L 215.443502 31.702579 
L 205.792323 31.702579 
z
" clip-path="url(#p83fdc3e52a)" style="fill: #1f77b4"/>
   </g>
   <g id="patch_16">
    <path d="M 215.443502 385.72 
L 225.09468 385.72 
L 225.09468 28.653333 
L 215.443502 28.653333 
z
" clip-path="url(#p83fdc3e52a)" style="fill: #1f77b4"/>
   </g>
   <g id="patch_17">
    <path d="M 225.09468 385.72 
L 234.745859 385.72 
L 234.745859 38.715844 
L 225.09468 38.715844 
z
" clip-path="url(#p83fdc3e52a)" style="fill: #1f77b4"/>
   </g>
   <g id="patch_18">
    <path d="M 234.745859 385.72 
L 244.397037 385.72 
L 244.397037 55.79162 
L 234.745859 55.79162 
z
" clip-path="url(#p83fdc3e52a)" style="fill: #1f77b4"/>
   </g>
   <g id="patch_19">
    <path d="M 244.397037 385.72 
L 254.048215 385.72 
L 254.048215 74.392018 
L 244.397037 74.392018 
z
" clip-path="url(#p83fdc3e52a)" style="fill: #1f77b4"/>
   </g>
   <g id="patch_20">
    <path d="M 254.048215 385.72 
L 263.699394 385.72 
L 263.699394 102.445078 
L 254.048215 102.445078 
z
" clip-path="url(#p83fdc3e52a)" style="fill: #1f77b4"/>
   </g>
   <g id="patch_21">
    <path d="M 263.699394 385.72 
L 273.350572 385.72 
L 273.350572 128.973516 
L 263.699394 128.973516 
z
" clip-path="url(#p83fdc3e52a)" style="fill: #1f77b4"/>
   </g>
   <g id="patch_22">
    <path d="M 273.350572 385.72 
L 283.001751 385.72 
L 283.001751 161.600444 
L 273.350572 161.600444 
z
" clip-path="url(#p83fdc3e52a)" style="fill: #1f77b4"/>
   </g>
   <g id="patch_23">
    <path d="M 283.001751 385.72 
L 292.652929 385.72 
L 292.652929 171.662955 
L 283.001751 171.662955 
z
" clip-path="url(#p83fdc3e52a)" style="fill: #1f77b4"/>
   </g>
   <g id="patch_24">
    <path d="M 292.652929 385.72 
L 302.304108 385.72 
L 302.304108 191.483052 
L 292.652929 191.483052 
z
" clip-path="url(#p83fdc3e52a)" style="fill: #1f77b4"/>
   </g>
   <g id="patch_25">
    <path d="M 302.304108 385.72 
L 311.955286 385.72 
L 311.955286 205.204657 
L 302.304108 205.204657 
z
" clip-path="url(#p83fdc3e52a)" style="fill: #1f77b4"/>
   </g>
   <g id="patch_26">
    <path d="M 311.955286 385.72 
L 321.606465 385.72 
L 321.606465 222.890282 
L 311.955286 222.890282 
z
" clip-path="url(#p83fdc3e52a)" style="fill: #1f77b4"/>
   </g>
   <g id="patch_27">
    <path d="M 321.606465 385.72 
L 331.257643 385.72 
L 331.257643 223.805056 
L 321.606465 223.805056 
z
" clip-path="url(#p83fdc3e52a)" style="fill: #1f77b4"/>
   </g>
   <g id="patch_28">
    <path d="M 331.257643 385.72 
L 340.908822 385.72 
L 340.908822 237.221736 
L 331.257643 237.221736 
z
" clip-path="url(#p83fdc3e52a)" style="fill: #1f77b4"/>
   </g>
   <g id="patch_29">
    <path d="M 340.908822 385.72 
L 350.56 385.72 
L 350.56 244.539926 
L 340.908822 244.539926 
z
" clip-path="url(#p83fdc3e52a)" style="fill: #1f77b4"/>
   </g>
   <g id="patch_30">
    <path d="M 350.56 385.72 
L 360.211178 385.72 
L 360.211178 245.149775 
L 350.56 245.149775 
z
" clip-path="url(#p83fdc3e52a)" style="fill: #1f77b4"/>
   </g>
   <g id="patch_31">
    <path d="M 360.211178 385.72 
L 369.862357 385.72 
L 369.862357 243.625152 
L 360.211178 243.625152 
z
" clip-path="url(#p83fdc3e52a)" style="fill: #1f77b4"/>
   </g>
   <g id="patch_32">
    <path d="M 369.862357 385.72 
L 379.513535 385.72 
L 379.513535 270.458514 
L 369.862357 270.458514 
z
" clip-path="url(#p83fdc3e52a)" style="fill: #1f77b4"/>
   </g>
   <g id="patch_33">
    <path d="M 379.513535 385.72 
L 389.164714 385.72 
L 389.164714 270.763439 
L 379.513535 270.763439 
z
" clip-path="url(#p83fdc3e52a)" style="fill: #1f77b4"/>
   </g>
   <g id="patch_34">
    <path d="M 389.164714 385.72 
L 398.815892 385.72 
L 398.815892 282.960421 
L 389.164714 282.960421 
z
" clip-path="url(#p83fdc3e52a)" style="fill: #1f77b4"/>
   </g>
   <g id="patch_35">
    <path d="M 398.815892 385.72 
L 408.467071 385.72 
L 408.467071 281.435798 
L 398.815892 281.435798 
z
" clip-path="url(#p83fdc3e52a)" style="fill: #1f77b4"/>
   </g>
   <g id="patch_36">
    <path d="M 408.467071 385.72 
L 418.118249 385.72 
L 418.118249 287.53429 
L 408.467071 287.53429 
z
" clip-path="url(#p83fdc3e52a)" style="fill: #1f77b4"/>
   </g>
   <g id="patch_37">
    <path d="M 418.118249 385.72 
L 427.769428 385.72 
L 427.769428 304.000216 
L 418.118249 304.000216 
z
" clip-path="url(#p83fdc3e52a)" style="fill: #1f77b4"/>
   </g>
   <g id="patch_38">
    <path d="M 427.769428 385.72 
L 437.420606 385.72 
L 437.420606 311.62333 
L 427.769428 311.62333 
z
" clip-path="url(#p83fdc3e52a)" style="fill: #1f77b4"/>
   </g>
   <g id="patch_39">
    <path d="M 437.420606 385.72 
L 447.071785 385.72 
L 447.071785 307.049462 
L 437.420606 307.049462 
z
" clip-path="url(#p83fdc3e52a)" style="fill: #1f77b4"/>
   </g>
   <g id="patch_40">
    <path d="M 447.071785 385.72 
L 456.722963 385.72 
L 456.722963 312.538104 
L 447.071785 312.538104 
z
" clip-path="url(#p83fdc3e52a)" style="fill: #1f77b4"/>
   </g>
   <g id="patch_41">
    <path d="M 456.722963 385.72 
L 466.374141 385.72 
L 466.374141 315.282425 
L 456.722963 315.282425 
z
" clip-path="url(#p83fdc3e52a)" style="fill: #1f77b4"/>
   </g>
   <g id="patch_42">
    <path d="M 466.374141 385.72 
L 476.02532 385.72 
L 476.02532 322.905539 
L 466.374141 322.905539 
z
" clip-path="url(#p83fdc3e52a)" style="fill: #1f77b4"/>
   </g>
   <g id="patch_43">
    <path d="M 476.02532 385.72 
L 485.676498 385.72 
L 485.676498 331.138503 
L 476.02532 331.138503 
z
" clip-path="url(#p83fdc3e52a)" style="fill: #1f77b4"/>
   </g>
   <g id="patch_44">
    <path d="M 485.676498 385.72 
L 495.327677 385.72 
L 495.327677 327.784332 
L 485.676498 327.784332 
z
" clip-path="url(#p83fdc3e52a)" style="fill: #1f77b4"/>
   </g>
   <g id="patch_45">
    <path d="M 495.327677 385.72 
L 504.978855 385.72 
L 504.978855 337.236994 
L 495.327677 337.236994 
z
" clip-path="url(#p83fdc3e52a)" style="fill: #1f77b4"/>
   </g>
   <g id="patch_46">
    <path d="M 504.978855 385.72 
L 514.630034 385.72 
L 514.630034 339.676391 
L 504.978855 339.676391 
z
" clip-path="url(#p83fdc3e52a)" style="fill: #1f77b4"/>
   </g>
   <g id="patch_47">
    <path d="M 514.630034 385.72 
L 524.281212 385.72 
L 524.281212 341.201013 
L 514.630034 341.201013 
z
" clip-path="url(#p83fdc3e52a)" style="fill: #1f77b4"/>
   </g>
   <g id="patch_48">
    <path d="M 524.281212 385.72 
L 533.932391 385.72 
L 533.932391 344.860108 
L 524.281212 344.860108 
z
" clip-path="url(#p83fdc3e52a)" style="fill: #1f77b4"/>
   </g>
   <g id="patch_49">
    <path d="M 533.932391 385.72 
L 543.583569 385.72 
L 543.583569 351.263524 
L 533.932391 351.263524 
z
" clip-path="url(#p83fdc3e52a)" style="fill: #1f77b4"/>
   </g>
   <g id="patch_50">
    <path d="M 543.583569 385.72 
L 553.234747 385.72 
L 553.234747 352.788147 
L 543.583569 352.788147 
z
" clip-path="url(#p83fdc3e52a)" style="fill: #1f77b4"/>
   </g>
   <g id="patch_51">
    <path d="M 553.234747 385.72 
L 562.885926 385.72 
L 562.885926 356.447242 
L 553.234747 356.447242 
z
" clip-path="url(#p83fdc3e52a)" style="fill: #1f77b4"/>
   </g>
   <g id="patch_52">
    <path d="M 562.885926 385.72 
L 572.537104 385.72 
L 572.537104 365.899903 
L 562.885926 365.899903 
z
" clip-path="url(#p83fdc3e52a)" style="fill: #1f77b4"/>
   </g>
   <g id="patch_53">
    <path d="M 572.537104 385.72 
L 582.188283 385.72 
L 582.188283 368.034375 
L 572.537104 368.034375 
z
" clip-path="url(#p83fdc3e52a)" style="fill: #1f77b4"/>
   </g>
   <g id="patch_54">
    <path d="M 582.188283 385.72 
L 591.839461 385.72 
L 591.839461 367.729451 
L 582.188283 367.729451 
z
" clip-path="url(#p83fdc3e52a)" style="fill: #1f77b4"/>
   </g>
   <g id="patch_55">
    <path d="M 591.839461 385.72 
L 601.49064 385.72 
L 601.49064 376.572263 
L 591.839461 376.572263 
z
" clip-path="url(#p83fdc3e52a)" style="fill: #1f77b4"/>
   </g>
   <g id="patch_56">
    <path d="M 601.49064 385.72 
L 611.141818 385.72 
L 611.141818 378.40181 
L 601.49064 378.40181 
z
" clip-path="url(#p83fdc3e52a)" style="fill: #1f77b4"/>
   </g>
   <g id="matplotlib.axis_1">
    <g id="xtick_1">
     <g id="line2d_1">
      <defs>
       <path id="m4f24a83488" d="M 0 0 
L 0 3.5 
" style="stroke: #000000; stroke-width: 0.8"/>
      </defs>
      <g>
       <use xlink:href="#m4f24a83488" x="89.635888" y="385.72" style="stroke: #000000; stroke-width: 0.8"/>
      </g>
     </g>
     <g id="text_1">
      <!-- −8 -->
      <g transform="translate(82.264795 400.318437) scale(0.1 -0.1)">
       <defs>
        <path id="DejaVuSans-2212" d="M 678 2272 
L 4684 2272 
L 4684 1741 
L 678 1741 
L 678 2272 
z
" transform="scale(0.015625)"/>
        <path id="DejaVuSans-38" d="M 2034 2216 
Q 1584 2216 1326 1975 
Q 1069 1734 1069 1313 
Q 1069 891 1326 650 
Q 1584 409 2034 409 
Q 2484 409 2743 651 
Q 3003 894 3003 1313 
Q 3003 1734 2745 1975 
Q 2488 2216 2034 2216 
z
M 1403 2484 
Q 997 2584 770 2862 
Q 544 3141 544 3541 
Q 544 4100 942 4425 
Q 1341 4750 2034 4750 
Q 2731 4750 3128 4425 
Q 3525 4100 3525 3541 
Q 3525 3141 3298 2862 
Q 3072 2584 2669 2484 
Q 3125 2378 3379 2068 
Q 3634 1759 3634 1313 
Q 3634 634 3220 271 
Q 2806 -91 2034 -91 
Q 1263 -91 848 271 
Q 434 634 434 1313 
Q 434 1759 690 2068 
Q 947 2378 1403 2484 
z
M 1172 3481 
Q 1172 3119 1398 2916 
Q 1625 2713 2034 2713 
Q 2441 2713 2670 2916 
Q 2900 3119 2900 3481 
Q 2900 3844 2670 4047 
Q 2441 4250 2034 4250 
Q 1625 4250 1398 4047 
Q 1172 3844 1172 3481 
z
" transform="scale(0.015625)"/>
       </defs>
       <use xlink:href="#DejaVuSans-2212"/>
       <use xlink:href="#DejaVuSans-38" x="83.789062"/>
      </g>
     </g>
    </g>
    <g id="xtick_2">
     <g id="line2d_2">
      <g>
       <use xlink:href="#m4f24a83488" x="173.642374" y="385.72" style="stroke: #000000; stroke-width: 0.8"/>
      </g>
     </g>
     <g id="text_2">
      <!-- −6 -->
      <g transform="translate(166.27128 400.318437) scale(0.1 -0.1)">
       <defs>
        <path id="DejaVuSans-36" d="M 2113 2584 
Q 1688 2584 1439 2293 
Q 1191 2003 1191 1497 
Q 1191 994 1439 701 
Q 1688 409 2113 409 
Q 2538 409 2786 701 
Q 3034 994 3034 1497 
Q 3034 2003 2786 2293 
Q 2538 2584 2113 2584 
z
M 3366 4563 
L 3366 3988 
Q 3128 4100 2886 4159 
Q 2644 4219 2406 4219 
Q 1781 4219 1451 3797 
Q 1122 3375 1075 2522 
Q 1259 2794 1537 2939 
Q 1816 3084 2150 3084 
Q 2853 3084 3261 2657 
Q 3669 2231 3669 1497 
Q 3669 778 3244 343 
Q 2819 -91 2113 -91 
Q 1303 -91 875 529 
Q 447 1150 447 2328 
Q 447 3434 972 4092 
Q 1497 4750 2381 4750 
Q 2619 4750 2861 4703 
Q 3103 4656 3366 4563 
z
" transform="scale(0.015625)"/>
       </defs>
       <use xlink:href="#DejaVuSans-2212"/>
       <use xlink:href="#DejaVuSans-36" x="83.789062"/>
      </g>
     </g>
    </g>
    <g id="xtick_3">
     <g id="line2d_3">
      <g>
       <use xlink:href="#m4f24a83488" x="257.648859" y="385.72" style="stroke: #000000; stroke-width: 0.8"/>
      </g>
     </g>
     <g id="text_3">
      <!-- −4 -->
      <g transform="translate(250.277766 400.318437) scale(0.1 -0.1)">
       <defs>
        <path id="DejaVuSans-34" d="M 2419 4116 
L 825 1625 
L 2419 1625 
L 2419 4116 
z
M 2253 4666 
L 3047 4666 
L 3047 1625 
L 3713 1625 
L 3713 1100 
L 3047 1100 
L 3047 0 
L 2419 0 
L 2419 1100 
L 313 1100 
L 313 1709 
L 2253 4666 
z
" transform="scale(0.015625)"/>
       </defs>
       <use xlink:href="#DejaVuSans-2212"/>
       <use xlink:href="#DejaVuSans-34" x="83.789062"/>
      </g>
     </g>
    </g>
    <g id="xtick_4">
     <g id="line2d_4">
      <g>
       <use xlink:href="#m4f24a83488" x="341.655345" y="385.72" style="stroke: #000000; stroke-width: 0.8"/>
      </g>
     </g>
     <g id="text_4">
      <!-- −2 -->
      <g transform="translate(334.284251 400.318437) scale(0.1 -0.1)">
       <defs>
        <path id="DejaVuSans-32" d="M 1228 531 
L 3431 531 
L 3431 0 
L 469 0 
L 469 531 
Q 828 903 1448 1529 
Q 2069 2156 2228 2338 
Q 2531 2678 2651 2914 
Q 2772 3150 2772 3378 
Q 2772 3750 2511 3984 
Q 2250 4219 1831 4219 
Q 1534 4219 1204 4116 
Q 875 4013 500 3803 
L 500 4441 
Q 881 4594 1212 4672 
Q 1544 4750 1819 4750 
Q 2544 4750 2975 4387 
Q 3406 4025 3406 3419 
Q 3406 3131 3298 2873 
Q 3191 2616 2906 2266 
Q 2828 2175 2409 1742 
Q 1991 1309 1228 531 
z
" transform="scale(0.015625)"/>
       </defs>
       <use xlink:href="#DejaVuSans-2212"/>
       <use xlink:href="#DejaVuSans-32" x="83.789062"/>
      </g>
     </g>
    </g>
    <g id="xtick_5">
     <g id="line2d_5">
      <g>
       <use xlink:href="#m4f24a83488" x="425.66183" y="385.72" style="stroke: #000000; stroke-width: 0.8"/>
      </g>
     </g>
     <g id="text_5">
      <!-- 0 -->
      <g transform="translate(422.48058 400.318437) scale(0.1 -0.1)">
       <defs>
        <path id="DejaVuSans-30" d="M 2034 4250 
Q 1547 4250 1301 3770 
Q 1056 3291 1056 2328 
Q 1056 1369 1301 889 
Q 1547 409 2034 409 
Q 2525 409 2770 889 
Q 3016 1369 3016 2328 
Q 3016 3291 2770 3770 
Q 2525 4250 2034 4250 
z
M 2034 4750 
Q 2819 4750 3233 4129 
Q 3647 3509 3647 2328 
Q 3647 1150 3233 529 
Q 2819 -91 2034 -91 
Q 1250 -91 836 529 
Q 422 1150 422 2328 
Q 422 3509 836 4129 
Q 1250 4750 2034 4750 
z
" transform="scale(0.015625)"/>
       </defs>
       <use xlink:href="#DejaVuSans-30"/>
      </g>
     </g>
    </g>
    <g id="xtick_6">
     <g id="line2d_6">
      <g>
       <use xlink:href="#m4f24a83488" x="509.668316" y="385.72" style="stroke: #000000; stroke-width: 0.8"/>
      </g>
     </g>
     <g id="text_6">
      <!-- 2 -->
      <g transform="translate(506.487066 400.318437) scale(0.1 -0.1)">
       <use xlink:href="#DejaVuSans-32"/>
      </g>
     </g>
    </g>
    <g id="xtick_7">
     <g id="line2d_7">
      <g>
       <use xlink:href="#m4f24a83488" x="593.674801" y="385.72" style="stroke: #000000; stroke-width: 0.8"/>
      </g>
     </g>
     <g id="text_7">
      <!-- 4 -->
      <g transform="translate(590.493551 400.318437) scale(0.1 -0.1)">
       <use xlink:href="#DejaVuSans-34"/>
      </g>
     </g>
    </g>
    <g id="text_8">
     <!-- pce_pcbm_sas_new -->
     <g transform="translate(281.853906 417.035937) scale(0.14 -0.14)">
      <defs>
       <path id="DejaVuSans-70" d="M 1159 525 
L 1159 -1331 
L 581 -1331 
L 581 3500 
L 1159 3500 
L 1159 2969 
Q 1341 3281 1617 3432 
Q 1894 3584 2278 3584 
Q 2916 3584 3314 3078 
Q 3713 2572 3713 1747 
Q 3713 922 3314 415 
Q 2916 -91 2278 -91 
Q 1894 -91 1617 61 
Q 1341 213 1159 525 
z
M 3116 1747 
Q 3116 2381 2855 2742 
Q 2594 3103 2138 3103 
Q 1681 3103 1420 2742 
Q 1159 2381 1159 1747 
Q 1159 1113 1420 752 
Q 1681 391 2138 391 
Q 2594 391 2855 752 
Q 3116 1113 3116 1747 
z
" transform="scale(0.015625)"/>
       <path id="DejaVuSans-63" d="M 3122 3366 
L 3122 2828 
Q 2878 2963 2633 3030 
Q 2388 3097 2138 3097 
Q 1578 3097 1268 2742 
Q 959 2388 959 1747 
Q 959 1106 1268 751 
Q 1578 397 2138 397 
Q 2388 397 2633 464 
Q 2878 531 3122 666 
L 3122 134 
Q 2881 22 2623 -34 
Q 2366 -91 2075 -91 
Q 1284 -91 818 406 
Q 353 903 353 1747 
Q 353 2603 823 3093 
Q 1294 3584 2113 3584 
Q 2378 3584 2631 3529 
Q 2884 3475 3122 3366 
z
" transform="scale(0.015625)"/>
       <path id="DejaVuSans-65" d="M 3597 1894 
L 3597 1613 
L 953 1613 
Q 991 1019 1311 708 
Q 1631 397 2203 397 
Q 2534 397 2845 478 
Q 3156 559 3463 722 
L 3463 178 
Q 3153 47 2828 -22 
Q 2503 -91 2169 -91 
Q 1331 -91 842 396 
Q 353 884 353 1716 
Q 353 2575 817 3079 
Q 1281 3584 2069 3584 
Q 2775 3584 3186 3129 
Q 3597 2675 3597 1894 
z
M 3022 2063 
Q 3016 2534 2758 2815 
Q 2500 3097 2075 3097 
Q 1594 3097 1305 2825 
Q 1016 2553 972 2059 
L 3022 2063 
z
" transform="scale(0.015625)"/>
       <path id="DejaVuSans-5f" d="M 3263 -1063 
L 3263 -1509 
L -63 -1509 
L -63 -1063 
L 3263 -1063 
z
" transform="scale(0.015625)"/>
       <path id="DejaVuSans-62" d="M 3116 1747 
Q 3116 2381 2855 2742 
Q 2594 3103 2138 3103 
Q 1681 3103 1420 2742 
Q 1159 2381 1159 1747 
Q 1159 1113 1420 752 
Q 1681 391 2138 391 
Q 2594 391 2855 752 
Q 3116 1113 3116 1747 
z
M 1159 2969 
Q 1341 3281 1617 3432 
Q 1894 3584 2278 3584 
Q 2916 3584 3314 3078 
Q 3713 2572 3713 1747 
Q 3713 922 3314 415 
Q 2916 -91 2278 -91 
Q 1894 -91 1617 61 
Q 1341 213 1159 525 
L 1159 0 
L 581 0 
L 581 4863 
L 1159 4863 
L 1159 2969 
z
" transform="scale(0.015625)"/>
       <path id="DejaVuSans-6d" d="M 3328 2828 
Q 3544 3216 3844 3400 
Q 4144 3584 4550 3584 
Q 5097 3584 5394 3201 
Q 5691 2819 5691 2113 
L 5691 0 
L 5113 0 
L 5113 2094 
Q 5113 2597 4934 2840 
Q 4756 3084 4391 3084 
Q 3944 3084 3684 2787 
Q 3425 2491 3425 1978 
L 3425 0 
L 2847 0 
L 2847 2094 
Q 2847 2600 2669 2842 
Q 2491 3084 2119 3084 
Q 1678 3084 1418 2786 
Q 1159 2488 1159 1978 
L 1159 0 
L 581 0 
L 581 3500 
L 1159 3500 
L 1159 2956 
Q 1356 3278 1631 3431 
Q 1906 3584 2284 3584 
Q 2666 3584 2933 3390 
Q 3200 3197 3328 2828 
z
" transform="scale(0.015625)"/>
       <path id="DejaVuSans-73" d="M 2834 3397 
L 2834 2853 
Q 2591 2978 2328 3040 
Q 2066 3103 1784 3103 
Q 1356 3103 1142 2972 
Q 928 2841 928 2578 
Q 928 2378 1081 2264 
Q 1234 2150 1697 2047 
L 1894 2003 
Q 2506 1872 2764 1633 
Q 3022 1394 3022 966 
Q 3022 478 2636 193 
Q 2250 -91 1575 -91 
Q 1294 -91 989 -36 
Q 684 19 347 128 
L 347 722 
Q 666 556 975 473 
Q 1284 391 1588 391 
Q 1994 391 2212 530 
Q 2431 669 2431 922 
Q 2431 1156 2273 1281 
Q 2116 1406 1581 1522 
L 1381 1569 
Q 847 1681 609 1914 
Q 372 2147 372 2553 
Q 372 3047 722 3315 
Q 1072 3584 1716 3584 
Q 2034 3584 2315 3537 
Q 2597 3491 2834 3397 
z
" transform="scale(0.015625)"/>
       <path id="DejaVuSans-61" d="M 2194 1759 
Q 1497 1759 1228 1600 
Q 959 1441 959 1056 
Q 959 750 1161 570 
Q 1363 391 1709 391 
Q 2188 391 2477 730 
Q 2766 1069 2766 1631 
L 2766 1759 
L 2194 1759 
z
M 3341 1997 
L 3341 0 
L 2766 0 
L 2766 531 
Q 2569 213 2275 61 
Q 1981 -91 1556 -91 
Q 1019 -91 701 211 
Q 384 513 384 1019 
Q 384 1609 779 1909 
Q 1175 2209 1959 2209 
L 2766 2209 
L 2766 2266 
Q 2766 2663 2505 2880 
Q 2244 3097 1772 3097 
Q 1472 3097 1187 3025 
Q 903 2953 641 2809 
L 641 3341 
Q 956 3463 1253 3523 
Q 1550 3584 1831 3584 
Q 2591 3584 2966 3190 
Q 3341 2797 3341 1997 
z
" transform="scale(0.015625)"/>
       <path id="DejaVuSans-6e" d="M 3513 2113 
L 3513 0 
L 2938 0 
L 2938 2094 
Q 2938 2591 2744 2837 
Q 2550 3084 2163 3084 
Q 1697 3084 1428 2787 
Q 1159 2491 1159 1978 
L 1159 0 
L 581 0 
L 581 3500 
L 1159 3500 
L 1159 2956 
Q 1366 3272 1645 3428 
Q 1925 3584 2291 3584 
Q 2894 3584 3203 3211 
Q 3513 2838 3513 2113 
z
" transform="scale(0.015625)"/>
       <path id="DejaVuSans-77" d="M 269 3500 
L 844 3500 
L 1563 769 
L 2278 3500 
L 2956 3500 
L 3675 769 
L 4391 3500 
L 4966 3500 
L 4050 0 
L 3372 0 
L 2619 2869 
L 1863 0 
L 1184 0 
L 269 3500 
z
" transform="scale(0.015625)"/>
      </defs>
      <use xlink:href="#DejaVuSans-70"/>
      <use xlink:href="#DejaVuSans-63" x="63.476562"/>
      <use xlink:href="#DejaVuSans-65" x="118.457031"/>
      <use xlink:href="#DejaVuSans-5f" x="179.980469"/>
      <use xlink:href="#DejaVuSans-70" x="229.980469"/>
      <use xlink:href="#DejaVuSans-63" x="293.457031"/>
      <use xlink:href="#DejaVuSans-62" x="348.4375"/>
      <use xlink:href="#DejaVuSans-6d" x="411.914062"/>
      <use xlink:href="#DejaVuSans-5f" x="509.326172"/>
      <use xlink:href="#DejaVuSans-73" x="559.326172"/>
      <use xlink:href="#DejaVuSans-61" x="611.425781"/>
      <use xlink:href="#DejaVuSans-73" x="672.705078"/>
      <use xlink:href="#DejaVuSans-5f" x="724.804688"/>
      <use xlink:href="#DejaVuSans-6e" x="774.804688"/>
      <use xlink:href="#DejaVuSans-65" x="838.183594"/>
      <use xlink:href="#DejaVuSans-77" x="899.707031"/>
     </g>
    </g>
   </g>
   <g id="matplotlib.axis_2">
    <g id="ytick_1">
     <g id="line2d_8">
      <defs>
       <path id="m7b15c4a6ba" d="M 0 0 
L -3.5 0 
" style="stroke: #000000; stroke-width: 0.8"/>
      </defs>
      <g>
       <use xlink:href="#m7b15c4a6ba" x="63.92" y="385.72" style="stroke: #000000; stroke-width: 0.8"/>
      </g>
     </g>
     <g id="text_9">
      <!-- 0.000 -->
      <g transform="translate(28.291875 389.519219) scale(0.1 -0.1)">
       <defs>
        <path id="DejaVuSans-2e" d="M 684 794 
L 1344 794 
L 1344 0 
L 684 0 
L 684 794 
z
" transform="scale(0.015625)"/>
       </defs>
       <use xlink:href="#DejaVuSans-30"/>
       <use xlink:href="#DejaVuSans-2e" x="63.623047"/>
       <use xlink:href="#DejaVuSans-30" x="95.410156"/>
       <use xlink:href="#DejaVuSans-30" x="159.033203"/>
       <use xlink:href="#DejaVuSans-30" x="222.65625"/>
      </g>
     </g>
    </g>
    <g id="ytick_2">
     <g id="line2d_9">
      <g>
       <use xlink:href="#m7b15c4a6ba" x="63.92" y="342.095151" style="stroke: #000000; stroke-width: 0.8"/>
      </g>
     </g>
     <g id="text_10">
      <!-- 0.025 -->
      <g transform="translate(28.291875 345.89437) scale(0.1 -0.1)">
       <defs>
        <path id="DejaVuSans-35" d="M 691 4666 
L 3169 4666 
L 3169 4134 
L 1269 4134 
L 1269 2991 
Q 1406 3038 1543 3061 
Q 1681 3084 1819 3084 
Q 2600 3084 3056 2656 
Q 3513 2228 3513 1497 
Q 3513 744 3044 326 
Q 2575 -91 1722 -91 
Q 1428 -91 1123 -41 
Q 819 9 494 109 
L 494 744 
Q 775 591 1075 516 
Q 1375 441 1709 441 
Q 2250 441 2565 725 
Q 2881 1009 2881 1497 
Q 2881 1984 2565 2268 
Q 2250 2553 1709 2553 
Q 1456 2553 1204 2497 
Q 953 2441 691 2322 
L 691 4666 
z
" transform="scale(0.015625)"/>
       </defs>
       <use xlink:href="#DejaVuSans-30"/>
       <use xlink:href="#DejaVuSans-2e" x="63.623047"/>
       <use xlink:href="#DejaVuSans-30" x="95.410156"/>
       <use xlink:href="#DejaVuSans-32" x="159.033203"/>
       <use xlink:href="#DejaVuSans-35" x="222.65625"/>
      </g>
     </g>
    </g>
    <g id="ytick_3">
     <g id="line2d_10">
      <g>
       <use xlink:href="#m7b15c4a6ba" x="63.92" y="298.470303" style="stroke: #000000; stroke-width: 0.8"/>
      </g>
     </g>
     <g id="text_11">
      <!-- 0.050 -->
      <g transform="translate(28.291875 302.269522) scale(0.1 -0.1)">
       <use xlink:href="#DejaVuSans-30"/>
       <use xlink:href="#DejaVuSans-2e" x="63.623047"/>
       <use xlink:href="#DejaVuSans-30" x="95.410156"/>
       <use xlink:href="#DejaVuSans-35" x="159.033203"/>
       <use xlink:href="#DejaVuSans-30" x="222.65625"/>
      </g>
     </g>
    </g>
    <g id="ytick_4">
     <g id="line2d_11">
      <g>
       <use xlink:href="#m7b15c4a6ba" x="63.92" y="254.845454" style="stroke: #000000; stroke-width: 0.8"/>
      </g>
     </g>
     <g id="text_12">
      <!-- 0.075 -->
      <g transform="translate(28.291875 258.644673) scale(0.1 -0.1)">
       <defs>
        <path id="DejaVuSans-37" d="M 525 4666 
L 3525 4666 
L 3525 4397 
L 1831 0 
L 1172 0 
L 2766 4134 
L 525 4134 
L 525 4666 
z
" transform="scale(0.015625)"/>
       </defs>
       <use xlink:href="#DejaVuSans-30"/>
       <use xlink:href="#DejaVuSans-2e" x="63.623047"/>
       <use xlink:href="#DejaVuSans-30" x="95.410156"/>
       <use xlink:href="#DejaVuSans-37" x="159.033203"/>
       <use xlink:href="#DejaVuSans-35" x="222.65625"/>
      </g>
     </g>
    </g>
    <g id="ytick_5">
     <g id="line2d_12">
      <g>
       <use xlink:href="#m7b15c4a6ba" x="63.92" y="211.220606" style="stroke: #000000; stroke-width: 0.8"/>
      </g>
     </g>
     <g id="text_13">
      <!-- 0.100 -->
      <g transform="translate(28.291875 215.019824) scale(0.1 -0.1)">
       <defs>
        <path id="DejaVuSans-31" d="M 794 531 
L 1825 531 
L 1825 4091 
L 703 3866 
L 703 4441 
L 1819 4666 
L 2450 4666 
L 2450 531 
L 3481 531 
L 3481 0 
L 794 0 
L 794 531 
z
" transform="scale(0.015625)"/>
       </defs>
       <use xlink:href="#DejaVuSans-30"/>
       <use xlink:href="#DejaVuSans-2e" x="63.623047"/>
       <use xlink:href="#DejaVuSans-31" x="95.410156"/>
       <use xlink:href="#DejaVuSans-30" x="159.033203"/>
       <use xlink:href="#DejaVuSans-30" x="222.65625"/>
      </g>
     </g>
    </g>
    <g id="ytick_6">
     <g id="line2d_13">
      <g>
       <use xlink:href="#m7b15c4a6ba" x="63.92" y="167.595757" style="stroke: #000000; stroke-width: 0.8"/>
      </g>
     </g>
     <g id="text_14">
      <!-- 0.125 -->
      <g transform="translate(28.291875 171.394976) scale(0.1 -0.1)">
       <use xlink:href="#DejaVuSans-30"/>
       <use xlink:href="#DejaVuSans-2e" x="63.623047"/>
       <use xlink:href="#DejaVuSans-31" x="95.410156"/>
       <use xlink:href="#DejaVuSans-32" x="159.033203"/>
       <use xlink:href="#DejaVuSans-35" x="222.65625"/>
      </g>
     </g>
    </g>
    <g id="ytick_7">
     <g id="line2d_14">
      <g>
       <use xlink:href="#m7b15c4a6ba" x="63.92" y="123.970908" style="stroke: #000000; stroke-width: 0.8"/>
      </g>
     </g>
     <g id="text_15">
      <!-- 0.150 -->
      <g transform="translate(28.291875 127.770127) scale(0.1 -0.1)">
       <use xlink:href="#DejaVuSans-30"/>
       <use xlink:href="#DejaVuSans-2e" x="63.623047"/>
       <use xlink:href="#DejaVuSans-31" x="95.410156"/>
       <use xlink:href="#DejaVuSans-35" x="159.033203"/>
       <use xlink:href="#DejaVuSans-30" x="222.65625"/>
      </g>
     </g>
    </g>
    <g id="ytick_8">
     <g id="line2d_15">
      <g>
       <use xlink:href="#m7b15c4a6ba" x="63.92" y="80.34606" style="stroke: #000000; stroke-width: 0.8"/>
      </g>
     </g>
     <g id="text_16">
      <!-- 0.175 -->
      <g transform="translate(28.291875 84.145279) scale(0.1 -0.1)">
       <use xlink:href="#DejaVuSans-30"/>
       <use xlink:href="#DejaVuSans-2e" x="63.623047"/>
       <use xlink:href="#DejaVuSans-31" x="95.410156"/>
       <use xlink:href="#DejaVuSans-37" x="159.033203"/>
       <use xlink:href="#DejaVuSans-35" x="222.65625"/>
      </g>
     </g>
    </g>
    <g id="ytick_9">
     <g id="line2d_16">
      <g>
       <use xlink:href="#m7b15c4a6ba" x="63.92" y="36.721211" style="stroke: #000000; stroke-width: 0.8"/>
      </g>
     </g>
     <g id="text_17">
      <!-- 0.200 -->
      <g transform="translate(28.291875 40.52043) scale(0.1 -0.1)">
       <use xlink:href="#DejaVuSans-30"/>
       <use xlink:href="#DejaVuSans-2e" x="63.623047"/>
       <use xlink:href="#DejaVuSans-32" x="95.410156"/>
       <use xlink:href="#DejaVuSans-30" x="159.033203"/>
       <use xlink:href="#DejaVuSans-30" x="222.65625"/>
      </g>
     </g>
    </g>
    <g id="text_18">
     <!-- Relative frequency -->
     <g transform="translate(21.380313 263.821563) rotate(-90) scale(0.14 -0.14)">
      <defs>
       <path id="DejaVuSans-52" d="M 2841 2188 
Q 3044 2119 3236 1894 
Q 3428 1669 3622 1275 
L 4263 0 
L 3584 0 
L 2988 1197 
Q 2756 1666 2539 1819 
Q 2322 1972 1947 1972 
L 1259 1972 
L 1259 0 
L 628 0 
L 628 4666 
L 2053 4666 
Q 2853 4666 3247 4331 
Q 3641 3997 3641 3322 
Q 3641 2881 3436 2590 
Q 3231 2300 2841 2188 
z
M 1259 4147 
L 1259 2491 
L 2053 2491 
Q 2509 2491 2742 2702 
Q 2975 2913 2975 3322 
Q 2975 3731 2742 3939 
Q 2509 4147 2053 4147 
L 1259 4147 
z
" transform="scale(0.015625)"/>
       <path id="DejaVuSans-6c" d="M 603 4863 
L 1178 4863 
L 1178 0 
L 603 0 
L 603 4863 
z
" transform="scale(0.015625)"/>
       <path id="DejaVuSans-74" d="M 1172 4494 
L 1172 3500 
L 2356 3500 
L 2356 3053 
L 1172 3053 
L 1172 1153 
Q 1172 725 1289 603 
Q 1406 481 1766 481 
L 2356 481 
L 2356 0 
L 1766 0 
Q 1100 0 847 248 
Q 594 497 594 1153 
L 594 3053 
L 172 3053 
L 172 3500 
L 594 3500 
L 594 4494 
L 1172 4494 
z
" transform="scale(0.015625)"/>
       <path id="DejaVuSans-69" d="M 603 3500 
L 1178 3500 
L 1178 0 
L 603 0 
L 603 3500 
z
M 603 4863 
L 1178 4863 
L 1178 4134 
L 603 4134 
L 603 4863 
z
" transform="scale(0.015625)"/>
       <path id="DejaVuSans-76" d="M 191 3500 
L 800 3500 
L 1894 563 
L 2988 3500 
L 3597 3500 
L 2284 0 
L 1503 0 
L 191 3500 
z
" transform="scale(0.015625)"/>
       <path id="DejaVuSans-20" transform="scale(0.015625)"/>
       <path id="DejaVuSans-66" d="M 2375 4863 
L 2375 4384 
L 1825 4384 
Q 1516 4384 1395 4259 
Q 1275 4134 1275 3809 
L 1275 3500 
L 2222 3500 
L 2222 3053 
L 1275 3053 
L 1275 0 
L 697 0 
L 697 3053 
L 147 3053 
L 147 3500 
L 697 3500 
L 697 3744 
Q 697 4328 969 4595 
Q 1241 4863 1831 4863 
L 2375 4863 
z
" transform="scale(0.015625)"/>
       <path id="DejaVuSans-72" d="M 2631 2963 
Q 2534 3019 2420 3045 
Q 2306 3072 2169 3072 
Q 1681 3072 1420 2755 
Q 1159 2438 1159 1844 
L 1159 0 
L 581 0 
L 581 3500 
L 1159 3500 
L 1159 2956 
Q 1341 3275 1631 3429 
Q 1922 3584 2338 3584 
Q 2397 3584 2469 3576 
Q 2541 3569 2628 3553 
L 2631 2963 
z
" transform="scale(0.015625)"/>
       <path id="DejaVuSans-71" d="M 947 1747 
Q 947 1113 1208 752 
Q 1469 391 1925 391 
Q 2381 391 2643 752 
Q 2906 1113 2906 1747 
Q 2906 2381 2643 2742 
Q 2381 3103 1925 3103 
Q 1469 3103 1208 2742 
Q 947 2381 947 1747 
z
M 2906 525 
Q 2725 213 2448 61 
Q 2172 -91 1784 -91 
Q 1150 -91 751 415 
Q 353 922 353 1747 
Q 353 2572 751 3078 
Q 1150 3584 1784 3584 
Q 2172 3584 2448 3432 
Q 2725 3281 2906 2969 
L 2906 3500 
L 3481 3500 
L 3481 -1331 
L 2906 -1331 
L 2906 525 
z
" transform="scale(0.015625)"/>
       <path id="DejaVuSans-75" d="M 544 1381 
L 544 3500 
L 1119 3500 
L 1119 1403 
Q 1119 906 1312 657 
Q 1506 409 1894 409 
Q 2359 409 2629 706 
Q 2900 1003 2900 1516 
L 2900 3500 
L 3475 3500 
L 3475 0 
L 2900 0 
L 2900 538 
Q 2691 219 2414 64 
Q 2138 -91 1772 -91 
Q 1169 -91 856 284 
Q 544 659 544 1381 
z
M 1991 3584 
L 1991 3584 
z
" transform="scale(0.015625)"/>
       <path id="DejaVuSans-79" d="M 2059 -325 
Q 1816 -950 1584 -1140 
Q 1353 -1331 966 -1331 
L 506 -1331 
L 506 -850 
L 844 -850 
Q 1081 -850 1212 -737 
Q 1344 -625 1503 -206 
L 1606 56 
L 191 3500 
L 800 3500 
L 1894 763 
L 2988 3500 
L 3597 3500 
L 2059 -325 
z
" transform="scale(0.015625)"/>
      </defs>
      <use xlink:href="#DejaVuSans-52"/>
      <use xlink:href="#DejaVuSans-65" x="64.982422"/>
      <use xlink:href="#DejaVuSans-6c" x="126.505859"/>
      <use xlink:href="#DejaVuSans-61" x="154.289062"/>
      <use xlink:href="#DejaVuSans-74" x="215.568359"/>
      <use xlink:href="#DejaVuSans-69" x="254.777344"/>
      <use xlink:href="#DejaVuSans-76" x="282.560547"/>
      <use xlink:href="#DejaVuSans-65" x="341.740234"/>
      <use xlink:href="#DejaVuSans-20" x="403.263672"/>
      <use xlink:href="#DejaVuSans-66" x="435.050781"/>
      <use xlink:href="#DejaVuSans-72" x="470.255859"/>
      <use xlink:href="#DejaVuSans-65" x="509.119141"/>
      <use xlink:href="#DejaVuSans-71" x="570.642578"/>
      <use xlink:href="#DejaVuSans-75" x="634.119141"/>
      <use xlink:href="#DejaVuSans-65" x="697.498047"/>
      <use xlink:href="#DejaVuSans-6e" x="759.021484"/>
      <use xlink:href="#DejaVuSans-63" x="822.400391"/>
      <use xlink:href="#DejaVuSans-79" x="877.380859"/>
     </g>
    </g>
   </g>
   <g id="line2d_17">
    <path d="M 435.520207 385.72 
L 435.520207 28.653333 
" clip-path="url(#p83fdc3e52a)" style="fill: none; stroke: #ff0000; stroke-width: 1.6; stroke-linecap: square"/>
   </g>
   <g id="patch_57">
    <path d="M 63.92 385.72 
L 63.92 10.8 
" style="fill: none; stroke: #000000; stroke-width: 0.8; stroke-linejoin: miter; stroke-linecap: square"/>
   </g>
   <g id="patch_58">
    <path d="M 637.2 385.72 
L 637.2 10.8 
" style="fill: none; stroke: #000000; stroke-width: 0.8; stroke-linejoin: miter; stroke-linecap: square"/>
   </g>
   <g id="patch_59">
    <path d="M 63.92 385.72 
L 637.2 385.72 
" style="fill: none; stroke: #000000; stroke-width: 0.8; stroke-linejoin: miter; stroke-linecap: square"/>
   </g>
   <g id="patch_60">
    <path d="M 63.92 10.8 
L 637.2 10.8 
" style="fill: none; stroke: #000000; stroke-width: 0.8; stroke-linejoin: miter; stroke-linecap: square"/>
   </g>
   <g id="text_19">
    <!-- $\mu_1 = -3.587$ -->
    <g transform="translate(465.216 66.713188) scale(0.17 -0.17)">
     <defs>
      <path id="DejaVuSans-Oblique-3bc" d="M -84 -1331 
L 856 3500 
L 1434 3500 
L 1009 1322 
Q 997 1256 987 1175 
Q 978 1094 978 1013 
Q 978 722 1161 565 
Q 1344 409 1684 409 
Q 2147 409 2431 671 
Q 2716 934 2816 1459 
L 3213 3500 
L 3788 3500 
L 3266 809 
Q 3253 750 3248 706 
Q 3244 663 3244 628 
Q 3244 531 3283 486 
Q 3322 441 3406 441 
Q 3438 441 3492 456 
Q 3547 472 3647 513 
L 3559 50 
Q 3422 -19 3297 -55 
Q 3172 -91 3053 -91 
Q 2847 -91 2730 40 
Q 2613 172 2613 403 
Q 2438 153 2195 31 
Q 1953 -91 1625 -91 
Q 1334 -91 1117 43 
Q 900 178 831 397 
L 494 -1331 
L -84 -1331 
z
" transform="scale(0.015625)"/>
      <path id="DejaVuSans-3d" d="M 678 2906 
L 4684 2906 
L 4684 2381 
L 678 2381 
L 678 2906 
z
M 678 1631 
L 4684 1631 
L 4684 1100 
L 678 1100 
L 678 1631 
z
" transform="scale(0.015625)"/>
      <path id="DejaVuSans-33" d="M 2597 2516 
Q 3050 2419 3304 2112 
Q 3559 1806 3559 1356 
Q 3559 666 3084 287 
Q 2609 -91 1734 -91 
Q 1441 -91 1130 -33 
Q 819 25 488 141 
L 488 750 
Q 750 597 1062 519 
Q 1375 441 1716 441 
Q 2309 441 2620 675 
Q 2931 909 2931 1356 
Q 2931 1769 2642 2001 
Q 2353 2234 1838 2234 
L 1294 2234 
L 1294 2753 
L 1863 2753 
Q 2328 2753 2575 2939 
Q 2822 3125 2822 3475 
Q 2822 3834 2567 4026 
Q 2313 4219 1838 4219 
Q 1578 4219 1281 4162 
Q 984 4106 628 3988 
L 628 4550 
Q 988 4650 1302 4700 
Q 1616 4750 1894 4750 
Q 2613 4750 3031 4423 
Q 3450 4097 3450 3541 
Q 3450 3153 3228 2886 
Q 3006 2619 2597 2516 
z
" transform="scale(0.015625)"/>
     </defs>
     <use xlink:href="#DejaVuSans-Oblique-3bc" transform="translate(0 0.78125)"/>
     <use xlink:href="#DejaVuSans-31" transform="translate(63.623047 -15.625) scale(0.7)"/>
     <use xlink:href="#DejaVuSans-3d" transform="translate(130.375977 0.78125)"/>
     <use xlink:href="#DejaVuSans-2212" transform="translate(253.129883 0.78125)"/>
     <use xlink:href="#DejaVuSans-33" transform="translate(356.401367 0.78125)"/>
     <use xlink:href="#DejaVuSans-2e" transform="translate(420.024414 0.78125)"/>
     <use xlink:href="#DejaVuSans-35" transform="translate(451.811523 0.78125)"/>
     <use xlink:href="#DejaVuSans-38" transform="translate(515.43457 0.78125)"/>
     <use xlink:href="#DejaVuSans-37" transform="translate(579.057617 0.78125)"/>
    </g>
    <!-- $\sigma_1 = 2.541$ -->
    <g transform="translate(465.216 85.784) scale(0.17 -0.17)">
     <defs>
      <path id="DejaVuSans-Oblique-3c3" d="M 2219 3044 
Q 1744 3044 1422 2700 
Q 1081 2341 969 1747 
Q 844 1119 1044 756 
Q 1241 397 1706 397 
Q 2166 397 2503 759 
Q 2844 1122 2966 1747 
Q 3075 2319 2881 2700 
Q 2700 3044 2219 3044 
z
M 2309 3503 
L 4219 3500 
L 4106 2925 
L 3463 2925 
Q 3706 2438 3575 1747 
Q 3406 888 2884 400 
Q 2359 -91 1609 -91 
Q 856 -91 525 400 
Q 194 888 363 1747 
Q 528 2609 1050 3097 
Q 1484 3503 2309 3503 
z
" transform="scale(0.015625)"/>
     </defs>
     <use xlink:href="#DejaVuSans-Oblique-3c3" transform="translate(0 0.78125)"/>
     <use xlink:href="#DejaVuSans-31" transform="translate(63.378906 -15.625) scale(0.7)"/>
     <use xlink:href="#DejaVuSans-3d" transform="translate(130.131836 0.78125)"/>
     <use xlink:href="#DejaVuSans-32" transform="translate(233.40332 0.78125)"/>
     <use xlink:href="#DejaVuSans-2e" transform="translate(297.026367 0.78125)"/>
     <use xlink:href="#DejaVuSans-35" transform="translate(328.813477 0.78125)"/>
     <use xlink:href="#DejaVuSans-34" transform="translate(392.436523 0.78125)"/>
     <use xlink:href="#DejaVuSans-31" transform="translate(456.05957 0.78125)"/>
    </g>
   </g>
  </g>
 </g>
 <defs>
  <clipPath id="p83fdc3e52a">
   <rect x="63.92" y="10.8" width="573.28" height="374.92"/>
  </clipPath>
 </defs>
</svg>
