<?xml version="1.0" encoding="utf-8" standalone="no"?>
<!DOCTYPE svg PUBLIC "-//W3C//DTD SVG 1.1//EN"
  "http://www.w3.org/Graphics/SVG/1.1/DTD/svg11.dtd">
<svg xmlns:xlink="http://www.w3.org/1999/xlink" width="576pt" height="432pt" viewBox="0 0 576 432" xmlns="http://www.w3.org/2000/svg" version="1.1">
 <metadata>
  <rdf:RDF xmlns:dc="http://purl.org/dc/elements/1.1/" xmlns:cc="http://creativecommons.org/ns#" xmlns:rdf="http://www.w3.org/1999/02/22-rdf-syntax-ns#">
   <cc:Work>
    <dc:type rdf:resource="http://purl.org/dc/dcmitype/StillImage"/>
    <dc:date>2024-07-14T16:52:57.111721</dc:date>
    <dc:format>image/svg+xml</dc:format>
    <dc:creator>
     <cc:Agent>
      <dc:title>Matplotlib v3.7.2, https://matplotlib.org/</dc:title>
     </cc:Agent>
    </dc:creator>
   </cc:Work>
  </rdf:RDF>
 </metadata>
 <defs>
  <style type="text/css">*{stroke-linejoin: round; stroke-linecap: butt}</style>
 </defs>
 <g id="figure_1">
  <g id="patch_1">
   <path d="M 0 432 
L 576 432 
L 576 0 
L 0 0 
z
" style="fill: #ffffff"/>
  </g>
  <g id="axes_1">
   <g id="patch_2">
    <path d="M 64.37 382.84 
L 559.362939 382.84 
L 559.362939 10.8 
L 64.37 10.8 
z
" style="fill: #ffffff"/>
   </g>
   <g id="patch_3">
    <path d="M 86.869679 382.84 
L 88.721504 382.84 
L 88.721504 382.561662 
L 86.869679 382.561662 
z
" clip-path="url(#ped41b6eea6)" style="fill: #1f77b4"/>
   </g>
   <g id="patch_4">
    <path d="M 88.721504 382.84 
L 90.57333 382.84 
L 90.57333 382.672997 
L 88.721504 382.672997 
z
" clip-path="url(#ped41b6eea6)" style="fill: #1f77b4"/>
   </g>
   <g id="patch_5">
    <path d="M 90.57333 382.84 
L 92.425155 382.84 
L 92.425155 382.505995 
L 90.57333 382.505995 
z
" clip-path="url(#ped41b6eea6)" style="fill: #1f77b4"/>
   </g>
   <g id="patch_6">
    <path d="M 92.425155 382.84 
L 94.276981 382.84 
L 94.276981 381.726649 
L 92.425155 381.726649 
z
" clip-path="url(#ped41b6eea6)" style="fill: #1f77b4"/>
   </g>
   <g id="patch_7">
    <path d="M 94.276981 382.84 
L 96.128806 382.84 
L 96.128806 381.002972 
L 94.276981 381.002972 
z
" clip-path="url(#ped41b6eea6)" style="fill: #1f77b4"/>
   </g>
   <g id="patch_8">
    <path d="M 96.128806 382.84 
L 97.980632 382.84 
L 97.980632 380.390629 
L 96.128806 380.390629 
z
" clip-path="url(#ped41b6eea6)" style="fill: #1f77b4"/>
   </g>
   <g id="patch_9">
    <path d="M 97.980632 382.84 
L 99.832457 382.84 
L 99.832457 379.165943 
L 97.980632 379.165943 
z
" clip-path="url(#ped41b6eea6)" style="fill: #1f77b4"/>
   </g>
   <g id="patch_10">
    <path d="M 99.832457 382.84 
L 101.684283 382.84 
L 101.684283 378.10826 
L 99.832457 378.10826 
z
" clip-path="url(#ped41b6eea6)" style="fill: #1f77b4"/>
   </g>
   <g id="patch_11">
    <path d="M 101.684283 382.84 
L 103.536108 382.84 
L 103.536108 375.547554 
L 101.684283 375.547554 
z
" clip-path="url(#ped41b6eea6)" style="fill: #1f77b4"/>
   </g>
   <g id="patch_12">
    <path d="M 103.536108 382.84 
L 105.387933 382.84 
L 105.387933 372.151835 
L 103.536108 372.151835 
z
" clip-path="url(#ped41b6eea6)" style="fill: #1f77b4"/>
   </g>
   <g id="patch_13">
    <path d="M 105.387933 382.84 
L 107.239759 382.84 
L 107.239759 369.424126 
L 105.387933 369.424126 
z
" clip-path="url(#ped41b6eea6)" style="fill: #1f77b4"/>
   </g>
   <g id="patch_14">
    <path d="M 107.239759 382.84 
L 109.091584 382.84 
L 109.091584 364.915056 
L 107.239759 364.915056 
z
" clip-path="url(#ped41b6eea6)" style="fill: #1f77b4"/>
   </g>
   <g id="patch_15">
    <path d="M 109.091584 382.84 
L 110.94341 382.84 
L 110.94341 363.300698 
L 109.091584 363.300698 
z
" clip-path="url(#ped41b6eea6)" style="fill: #1f77b4"/>
   </g>
   <g id="patch_16">
    <path d="M 110.94341 382.84 
L 112.795235 382.84 
L 112.795235 356.787597 
L 110.94341 356.787597 
z
" clip-path="url(#ped41b6eea6)" style="fill: #1f77b4"/>
   </g>
   <g id="patch_17">
    <path d="M 112.795235 382.84 
L 114.647061 382.84 
L 114.647061 358.735961 
L 112.795235 358.735961 
z
" clip-path="url(#ped41b6eea6)" style="fill: #1f77b4"/>
   </g>
   <g id="patch_18">
    <path d="M 114.647061 382.84 
L 116.498886 382.84 
L 116.498886 354.449561 
L 114.647061 354.449561 
z
" clip-path="url(#ped41b6eea6)" style="fill: #1f77b4"/>
   </g>
   <g id="patch_19">
    <path d="M 116.498886 382.84 
L 118.350711 382.84 
L 118.350711 345.654092 
L 116.498886 345.654092 
z
" clip-path="url(#ped41b6eea6)" style="fill: #1f77b4"/>
   </g>
   <g id="patch_20">
    <path d="M 118.350711 382.84 
L 120.202537 382.84 
L 120.202537 339.976004 
L 118.350711 339.976004 
z
" clip-path="url(#ped41b6eea6)" style="fill: #1f77b4"/>
   </g>
   <g id="patch_21">
    <path d="M 120.202537 382.84 
L 122.054362 382.84 
L 122.054362 338.973989 
L 120.202537 338.973989 
z
" clip-path="url(#ped41b6eea6)" style="fill: #1f77b4"/>
   </g>
   <g id="patch_22">
    <path d="M 122.054362 382.84 
L 123.906188 382.84 
L 123.906188 330.790862 
L 122.054362 330.790862 
z
" clip-path="url(#ped41b6eea6)" style="fill: #1f77b4"/>
   </g>
   <g id="patch_23">
    <path d="M 123.906188 382.84 
L 125.758013 382.84 
L 125.758013 327.784816 
L 123.906188 327.784816 
z
" clip-path="url(#ped41b6eea6)" style="fill: #1f77b4"/>
   </g>
   <g id="patch_24">
    <path d="M 125.758013 382.84 
L 127.609839 382.84 
L 127.609839 316.929648 
L 125.758013 316.929648 
z
" clip-path="url(#ped41b6eea6)" style="fill: #1f77b4"/>
   </g>
   <g id="patch_25">
    <path d="M 127.609839 382.84 
L 129.461664 382.84 
L 129.461664 305.295135 
L 127.609839 305.295135 
z
" clip-path="url(#ped41b6eea6)" style="fill: #1f77b4"/>
   </g>
   <g id="patch_26">
    <path d="M 129.461664 382.84 
L 131.313489 382.84 
L 131.313489 295.05231 
L 129.461664 295.05231 
z
" clip-path="url(#ped41b6eea6)" style="fill: #1f77b4"/>
   </g>
   <g id="patch_27">
    <path d="M 131.313489 382.84 
L 133.165315 382.84 
L 133.165315 282.582784 
L 131.313489 282.582784 
z
" clip-path="url(#ped41b6eea6)" style="fill: #1f77b4"/>
   </g>
   <g id="patch_28">
    <path d="M 133.165315 382.84 
L 135.01714 382.84 
L 135.01714 277.405704 
L 133.165315 277.405704 
z
" clip-path="url(#ped41b6eea6)" style="fill: #1f77b4"/>
   </g>
   <g id="patch_29">
    <path d="M 135.01714 382.84 
L 136.868966 382.84 
L 136.868966 264.713508 
L 135.01714 264.713508 
z
" clip-path="url(#ped41b6eea6)" style="fill: #1f77b4"/>
   </g>
   <g id="patch_30">
    <path d="M 136.868966 382.84 
L 138.720791 382.84 
L 138.720791 264.379502 
L 136.868966 264.379502 
z
" clip-path="url(#ped41b6eea6)" style="fill: #1f77b4"/>
   </g>
   <g id="patch_31">
    <path d="M 138.720791 382.84 
L 140.572617 382.84 
L 140.572617 247.846247 
L 138.720791 247.846247 
z
" clip-path="url(#ped41b6eea6)" style="fill: #1f77b4"/>
   </g>
   <g id="patch_32">
    <path d="M 140.572617 382.84 
L 142.424442 382.84 
L 142.424442 237.603422 
L 140.572617 237.603422 
z
" clip-path="url(#ped41b6eea6)" style="fill: #1f77b4"/>
   </g>
   <g id="patch_33">
    <path d="M 142.424442 382.84 
L 144.276268 382.84 
L 144.276268 230.756316 
L 142.424442 230.756316 
z
" clip-path="url(#ped41b6eea6)" style="fill: #1f77b4"/>
   </g>
   <g id="patch_34">
    <path d="M 144.276268 382.84 
L 146.128093 382.84 
L 146.128093 220.847496 
L 144.276268 220.847496 
z
" clip-path="url(#ped41b6eea6)" style="fill: #1f77b4"/>
   </g>
   <g id="patch_35">
    <path d="M 146.128093 382.84 
L 147.979918 382.84 
L 147.979918 207.26462 
L 146.128093 207.26462 
z
" clip-path="url(#ped41b6eea6)" style="fill: #1f77b4"/>
   </g>
   <g id="patch_36">
    <path d="M 147.979918 382.84 
L 149.831744 382.84 
L 149.831744 194.071416 
L 147.979918 194.071416 
z
" clip-path="url(#ped41b6eea6)" style="fill: #1f77b4"/>
   </g>
   <g id="patch_37">
    <path d="M 149.831744 382.84 
L 151.683569 382.84 
L 151.683569 182.548238 
L 149.831744 182.548238 
z
" clip-path="url(#ped41b6eea6)" style="fill: #1f77b4"/>
   </g>
   <g id="patch_38">
    <path d="M 151.683569 382.84 
L 153.535395 382.84 
L 153.535395 164.901632 
L 151.683569 164.901632 
z
" clip-path="url(#ped41b6eea6)" style="fill: #1f77b4"/>
   </g>
   <g id="patch_39">
    <path d="M 153.535395 382.84 
L 155.38722 382.84 
L 155.38722 167.184 
L 153.535395 167.184 
z
" clip-path="url(#ped41b6eea6)" style="fill: #1f77b4"/>
   </g>
   <g id="patch_40">
    <path d="M 155.38722 382.84 
L 157.239046 382.84 
L 157.239046 147.811701 
L 155.38722 147.811701 
z
" clip-path="url(#ped41b6eea6)" style="fill: #1f77b4"/>
   </g>
   <g id="patch_41">
    <path d="M 157.239046 382.84 
L 159.090871 382.84 
L 159.090871 143.525301 
L 157.239046 143.525301 
z
" clip-path="url(#ped41b6eea6)" style="fill: #1f77b4"/>
   </g>
   <g id="patch_42">
    <path d="M 159.090871 382.84 
L 160.942696 382.84 
L 160.942696 124.375672 
L 159.090871 124.375672 
z
" clip-path="url(#ped41b6eea6)" style="fill: #1f77b4"/>
   </g>
   <g id="patch_43">
    <path d="M 160.942696 382.84 
L 162.794522 382.84 
L 162.794522 115.524535 
L 160.942696 115.524535 
z
" clip-path="url(#ped41b6eea6)" style="fill: #1f77b4"/>
   </g>
   <g id="patch_44">
    <path d="M 162.794522 382.84 
L 164.646347 382.84 
L 164.646347 121.369626 
L 162.794522 121.369626 
z
" clip-path="url(#ped41b6eea6)" style="fill: #1f77b4"/>
   </g>
   <g id="patch_45">
    <path d="M 164.646347 382.84 
L 166.498173 382.84 
L 166.498173 112.908161 
L 164.646347 112.908161 
z
" clip-path="url(#ped41b6eea6)" style="fill: #1f77b4"/>
   </g>
   <g id="patch_46">
    <path d="M 166.498173 382.84 
L 168.349998 382.84 
L 168.349998 102.888007 
L 166.498173 102.888007 
z
" clip-path="url(#ped41b6eea6)" style="fill: #1f77b4"/>
   </g>
   <g id="patch_47">
    <path d="M 168.349998 382.84 
L 170.201824 382.84 
L 170.201824 88.525785 
L 168.349998 88.525785 
z
" clip-path="url(#ped41b6eea6)" style="fill: #1f77b4"/>
   </g>
   <g id="patch_48">
    <path d="M 170.201824 382.84 
L 172.053649 382.84 
L 172.053649 81.845681 
L 170.201824 81.845681 
z
" clip-path="url(#ped41b6eea6)" style="fill: #1f77b4"/>
   </g>
   <g id="patch_49">
    <path d="M 172.053649 382.84 
L 173.905474 382.84 
L 173.905474 81.456009 
L 172.053649 81.456009 
z
" clip-path="url(#ped41b6eea6)" style="fill: #1f77b4"/>
   </g>
   <g id="patch_50">
    <path d="M 173.905474 382.84 
L 175.7573 382.84 
L 175.7573 69.376155 
L 173.905474 69.376155 
z
" clip-path="url(#ped41b6eea6)" style="fill: #1f77b4"/>
   </g>
   <g id="patch_51">
    <path d="M 175.7573 382.84 
L 177.609125 382.84 
L 177.609125 64.254743 
L 175.7573 64.254743 
z
" clip-path="url(#ped41b6eea6)" style="fill: #1f77b4"/>
   </g>
   <g id="patch_52">
    <path d="M 177.609125 382.84 
L 179.460951 382.84 
L 179.460951 58.520988 
L 177.609125 58.520988 
z
" clip-path="url(#ped41b6eea6)" style="fill: #1f77b4"/>
   </g>
   <g id="patch_53">
    <path d="M 179.460951 382.84 
L 181.312776 382.84 
L 181.312776 59.13333 
L 179.460951 59.13333 
z
" clip-path="url(#ped41b6eea6)" style="fill: #1f77b4"/>
   </g>
   <g id="patch_54">
    <path d="M 181.312776 382.84 
L 183.164602 382.84 
L 183.164602 46.552469 
L 181.312776 46.552469 
z
" clip-path="url(#ped41b6eea6)" style="fill: #1f77b4"/>
   </g>
   <g id="patch_55">
    <path d="M 183.164602 382.84 
L 185.016427 382.84 
L 185.016427 42.321737 
L 183.164602 42.321737 
z
" clip-path="url(#ped41b6eea6)" style="fill: #1f77b4"/>
   </g>
   <g id="patch_56">
    <path d="M 185.016427 382.84 
L 186.868253 382.84 
L 186.868253 42.099067 
L 185.016427 42.099067 
z
" clip-path="url(#ped41b6eea6)" style="fill: #1f77b4"/>
   </g>
   <g id="patch_57">
    <path d="M 186.868253 382.84 
L 188.720078 382.84 
L 188.720078 42.71141 
L 186.868253 42.71141 
z
" clip-path="url(#ped41b6eea6)" style="fill: #1f77b4"/>
   </g>
   <g id="patch_58">
    <path d="M 188.720078 382.84 
L 190.571903 382.84 
L 190.571903 35.251961 
L 188.720078 35.251961 
z
" clip-path="url(#ped41b6eea6)" style="fill: #1f77b4"/>
   </g>
   <g id="patch_59">
    <path d="M 190.571903 382.84 
L 192.423729 382.84 
L 192.423729 36.532314 
L 190.571903 36.532314 
z
" clip-path="url(#ped41b6eea6)" style="fill: #1f77b4"/>
   </g>
   <g id="patch_60">
    <path d="M 192.423729 382.84 
L 194.275554 382.84 
L 194.275554 48.389498 
L 192.423729 48.389498 
z
" clip-path="url(#ped41b6eea6)" style="fill: #1f77b4"/>
   </g>
   <g id="patch_61">
    <path d="M 194.275554 382.84 
L 196.12738 382.84 
L 196.12738 28.51619 
L 194.275554 28.51619 
z
" clip-path="url(#ped41b6eea6)" style="fill: #1f77b4"/>
   </g>
   <g id="patch_62">
    <path d="M 196.12738 382.84 
L 197.979205 382.84 
L 197.979205 30.965562 
L 196.12738 30.965562 
z
" clip-path="url(#ped41b6eea6)" style="fill: #1f77b4"/>
   </g>
   <g id="patch_63">
    <path d="M 197.979205 382.84 
L 199.831031 382.84 
L 199.831031 35.585966 
L 197.979205 35.585966 
z
" clip-path="url(#ped41b6eea6)" style="fill: #1f77b4"/>
   </g>
   <g id="patch_64">
    <path d="M 199.831031 382.84 
L 201.682856 382.84 
L 201.682856 46.107129 
L 199.831031 46.107129 
z
" clip-path="url(#ped41b6eea6)" style="fill: #1f77b4"/>
   </g>
   <g id="patch_65">
    <path d="M 201.682856 382.84 
L 203.534681 382.84 
L 203.534681 45.105114 
L 201.682856 45.105114 
z
" clip-path="url(#ped41b6eea6)" style="fill: #1f77b4"/>
   </g>
   <g id="patch_66">
    <path d="M 203.534681 382.84 
L 205.386507 382.84 
L 205.386507 38.146673 
L 203.534681 38.146673 
z
" clip-path="url(#ped41b6eea6)" style="fill: #1f77b4"/>
   </g>
   <g id="patch_67">
    <path d="M 205.386507 382.84 
L 207.238332 382.84 
L 207.238332 51.506879 
L 205.386507 51.506879 
z
" clip-path="url(#ped41b6eea6)" style="fill: #1f77b4"/>
   </g>
   <g id="patch_68">
    <path d="M 207.238332 382.84 
L 209.090158 382.84 
L 209.090158 61.972374 
L 207.238332 61.972374 
z
" clip-path="url(#ped41b6eea6)" style="fill: #1f77b4"/>
   </g>
   <g id="patch_69">
    <path d="M 209.090158 382.84 
L 210.941983 382.84 
L 210.941983 60.135346 
L 209.090158 60.135346 
z
" clip-path="url(#ped41b6eea6)" style="fill: #1f77b4"/>
   </g>
   <g id="patch_70">
    <path d="M 210.941983 382.84 
L 212.793809 382.84 
L 212.793809 63.085725 
L 210.941983 63.085725 
z
" clip-path="url(#ped41b6eea6)" style="fill: #1f77b4"/>
   </g>
   <g id="patch_71">
    <path d="M 212.793809 382.84 
L 214.645634 382.84 
L 214.645634 67.427792 
L 212.793809 67.427792 
z
" clip-path="url(#ped41b6eea6)" style="fill: #1f77b4"/>
   </g>
   <g id="patch_72">
    <path d="M 214.645634 382.84 
L 216.49746 382.84 
L 216.49746 68.708145 
L 214.645634 68.708145 
z
" clip-path="url(#ped41b6eea6)" style="fill: #1f77b4"/>
   </g>
   <g id="patch_73">
    <path d="M 216.49746 382.84 
L 218.349285 382.84 
L 218.349285 75.499583 
L 216.49746 75.499583 
z
" clip-path="url(#ped41b6eea6)" style="fill: #1f77b4"/>
   </g>
   <g id="patch_74">
    <path d="M 218.349285 382.84 
L 220.20111 382.84 
L 220.20111 86.577421 
L 218.349285 86.577421 
z
" clip-path="url(#ped41b6eea6)" style="fill: #1f77b4"/>
   </g>
   <g id="patch_75">
    <path d="M 220.20111 382.84 
L 222.052936 382.84 
L 222.052936 95.762563 
L 220.20111 95.762563 
z
" clip-path="url(#ped41b6eea6)" style="fill: #1f77b4"/>
   </g>
   <g id="patch_76">
    <path d="M 222.052936 382.84 
L 223.904761 382.84 
L 223.904761 101.162313 
L 222.052936 101.162313 
z
" clip-path="url(#ped41b6eea6)" style="fill: #1f77b4"/>
   </g>
   <g id="patch_77">
    <path d="M 223.904761 382.84 
L 225.756587 382.84 
L 225.756587 108.454759 
L 223.904761 108.454759 
z
" clip-path="url(#ped41b6eea6)" style="fill: #1f77b4"/>
   </g>
   <g id="patch_78">
    <path d="M 225.756587 382.84 
L 227.608412 382.84 
L 227.608412 110.45879 
L 225.756587 110.45879 
z
" clip-path="url(#ped41b6eea6)" style="fill: #1f77b4"/>
   </g>
   <g id="patch_79">
    <path d="M 227.608412 382.84 
L 229.460238 382.84 
L 229.460238 126.713708 
L 227.608412 126.713708 
z
" clip-path="url(#ped41b6eea6)" style="fill: #1f77b4"/>
   </g>
   <g id="patch_80">
    <path d="M 229.460238 382.84 
L 231.312063 382.84 
L 231.312063 128.495069 
L 229.460238 128.495069 
z
" clip-path="url(#ped41b6eea6)" style="fill: #1f77b4"/>
   </g>
   <g id="patch_81">
    <path d="M 231.312063 382.84 
L 233.163888 382.84 
L 233.163888 134.395827 
L 231.312063 134.395827 
z
" clip-path="url(#ped41b6eea6)" style="fill: #1f77b4"/>
   </g>
   <g id="patch_82">
    <path d="M 233.163888 382.84 
L 235.015714 382.84 
L 235.015714 138.069884 
L 233.163888 138.069884 
z
" clip-path="url(#ped41b6eea6)" style="fill: #1f77b4"/>
   </g>
   <g id="patch_83">
    <path d="M 235.015714 382.84 
L 236.867539 382.84 
L 236.867539 139.906912 
L 235.015714 139.906912 
z
" clip-path="url(#ped41b6eea6)" style="fill: #1f77b4"/>
   </g>
   <g id="patch_84">
    <path d="M 236.867539 382.84 
L 238.719365 382.84 
L 238.719365 144.694319 
L 236.867539 144.694319 
z
" clip-path="url(#ped41b6eea6)" style="fill: #1f77b4"/>
   </g>
   <g id="patch_85">
    <path d="M 238.719365 382.84 
L 240.57119 382.84 
L 240.57119 152.320771 
L 238.719365 152.320771 
z
" clip-path="url(#ped41b6eea6)" style="fill: #1f77b4"/>
   </g>
   <g id="patch_86">
    <path d="M 240.57119 382.84 
L 242.423016 382.84 
L 242.423016 154.603139 
L 240.57119 154.603139 
z
" clip-path="url(#ped41b6eea6)" style="fill: #1f77b4"/>
   </g>
   <g id="patch_87">
    <path d="M 242.423016 382.84 
L 244.274841 382.84 
L 244.274841 164.456291 
L 242.423016 164.456291 
z
" clip-path="url(#ped41b6eea6)" style="fill: #1f77b4"/>
   </g>
   <g id="patch_88">
    <path d="M 244.274841 382.84 
L 246.126666 382.84 
L 246.126666 168.965361 
L 244.274841 168.965361 
z
" clip-path="url(#ped41b6eea6)" style="fill: #1f77b4"/>
   </g>
   <g id="patch_89">
    <path d="M 246.126666 382.84 
L 247.978492 382.84 
L 247.978492 174.031106 
L 246.126666 174.031106 
z
" clip-path="url(#ped41b6eea6)" style="fill: #1f77b4"/>
   </g>
   <g id="patch_90">
    <path d="M 247.978492 382.84 
L 249.830317 382.84 
L 249.830317 182.93791 
L 247.978492 182.93791 
z
" clip-path="url(#ped41b6eea6)" style="fill: #1f77b4"/>
   </g>
   <g id="patch_91">
    <path d="M 249.830317 382.84 
L 251.682143 382.84 
L 251.682143 183.049246 
L 249.830317 183.049246 
z
" clip-path="url(#ped41b6eea6)" style="fill: #1f77b4"/>
   </g>
   <g id="patch_92">
    <path d="M 251.682143 382.84 
L 253.533968 382.84 
L 253.533968 190.397359 
L 251.682143 190.397359 
z
" clip-path="url(#ped41b6eea6)" style="fill: #1f77b4"/>
   </g>
   <g id="patch_93">
    <path d="M 253.533968 382.84 
L 255.385794 382.84 
L 255.385794 195.630107 
L 253.533968 195.630107 
z
" clip-path="url(#ped41b6eea6)" style="fill: #1f77b4"/>
   </g>
   <g id="patch_94">
    <path d="M 255.385794 382.84 
L 257.237619 382.84 
L 257.237619 201.363862 
L 255.385794 201.363862 
z
" clip-path="url(#ped41b6eea6)" style="fill: #1f77b4"/>
   </g>
   <g id="patch_95">
    <path d="M 257.237619 382.84 
L 259.089445 382.84 
L 259.089445 208.489305 
L 257.237619 208.489305 
z
" clip-path="url(#ped41b6eea6)" style="fill: #1f77b4"/>
   </g>
   <g id="patch_96">
    <path d="M 259.089445 382.84 
L 260.94127 382.84 
L 260.94127 207.598625 
L 259.089445 207.598625 
z
" clip-path="url(#ped41b6eea6)" style="fill: #1f77b4"/>
   </g>
   <g id="patch_97">
    <path d="M 260.94127 382.84 
L 262.793095 382.84 
L 262.793095 209.936661 
L 260.94127 209.936661 
z
" clip-path="url(#ped41b6eea6)" style="fill: #1f77b4"/>
   </g>
   <g id="patch_98">
    <path d="M 262.793095 382.84 
L 264.644921 382.84 
L 264.644921 216.728099 
L 262.793095 216.728099 
z
" clip-path="url(#ped41b6eea6)" style="fill: #1f77b4"/>
   </g>
   <g id="patch_99">
    <path d="M 264.644921 382.84 
L 266.496746 382.84 
L 266.496746 215.169409 
L 264.644921 215.169409 
z
" clip-path="url(#ped41b6eea6)" style="fill: #1f77b4"/>
   </g>
   <g id="patch_100">
    <path d="M 266.496746 382.84 
L 268.348572 382.84 
L 268.348572 224.187548 
L 266.496746 224.187548 
z
" clip-path="url(#ped41b6eea6)" style="fill: #1f77b4"/>
   </g>
   <g id="patch_101">
    <path d="M 268.348572 382.84 
L 270.200397 382.84 
L 270.200397 228.974955 
L 268.348572 228.974955 
z
" clip-path="url(#ped41b6eea6)" style="fill: #1f77b4"/>
   </g>
   <g id="patch_102">
    <path d="M 270.200397 382.84 
L 272.052223 382.84 
L 272.052223 228.585283 
L 270.200397 228.585283 
z
" clip-path="url(#ped41b6eea6)" style="fill: #1f77b4"/>
   </g>
   <g id="patch_103">
    <path d="M 272.052223 382.84 
L 273.904048 382.84 
L 273.904048 244.005188 
L 272.052223 244.005188 
z
" clip-path="url(#ped41b6eea6)" style="fill: #1f77b4"/>
   </g>
   <g id="patch_104">
    <path d="M 273.904048 382.84 
L 275.755873 382.84 
L 275.755873 241.945489 
L 273.904048 241.945489 
z
" clip-path="url(#ped41b6eea6)" style="fill: #1f77b4"/>
   </g>
   <g id="patch_105">
    <path d="M 275.755873 382.84 
L 277.607699 382.84 
L 277.607699 252.021311 
L 275.755873 252.021311 
z
" clip-path="url(#ped41b6eea6)" style="fill: #1f77b4"/>
   </g>
   <g id="patch_106">
    <path d="M 277.607699 382.84 
L 279.459524 382.84 
L 279.459524 257.142724 
L 277.607699 257.142724 
z
" clip-path="url(#ped41b6eea6)" style="fill: #1f77b4"/>
   </g>
   <g id="patch_107">
    <path d="M 279.459524 382.84 
L 281.31135 382.84 
L 281.31135 253.914007 
L 279.459524 253.914007 
z
" clip-path="url(#ped41b6eea6)" style="fill: #1f77b4"/>
   </g>
   <g id="patch_108">
    <path d="M 281.31135 382.84 
L 283.163175 382.84 
L 283.163175 260.260105 
L 281.31135 260.260105 
z
" clip-path="url(#ped41b6eea6)" style="fill: #1f77b4"/>
   </g>
   <g id="patch_109">
    <path d="M 283.163175 382.84 
L 285.015001 382.84 
L 285.015001 265.771191 
L 283.163175 265.771191 
z
" clip-path="url(#ped41b6eea6)" style="fill: #1f77b4"/>
   </g>
   <g id="patch_110">
    <path d="M 285.015001 382.84 
L 286.866826 382.84 
L 286.866826 265.10318 
L 285.015001 265.10318 
z
" clip-path="url(#ped41b6eea6)" style="fill: #1f77b4"/>
   </g>
   <g id="patch_111">
    <path d="M 286.866826 382.84 
L 288.718651 382.84 
L 288.718651 272.451294 
L 286.866826 272.451294 
z
" clip-path="url(#ped41b6eea6)" style="fill: #1f77b4"/>
   </g>
   <g id="patch_112">
    <path d="M 288.718651 382.84 
L 290.570477 382.84 
L 290.570477 276.737693 
L 288.718651 276.737693 
z
" clip-path="url(#ped41b6eea6)" style="fill: #1f77b4"/>
   </g>
   <g id="patch_113">
    <path d="M 290.570477 382.84 
L 292.422302 382.84 
L 292.422302 285.8115 
L 290.570477 285.8115 
z
" clip-path="url(#ped41b6eea6)" style="fill: #1f77b4"/>
   </g>
   <g id="patch_114">
    <path d="M 292.422302 382.84 
L 294.274128 382.84 
L 294.274128 288.427874 
L 292.422302 288.427874 
z
" clip-path="url(#ped41b6eea6)" style="fill: #1f77b4"/>
   </g>
   <g id="patch_115">
    <path d="M 294.274128 382.84 
L 296.125953 382.84 
L 296.125953 294.105962 
L 294.274128 294.105962 
z
" clip-path="url(#ped41b6eea6)" style="fill: #1f77b4"/>
   </g>
   <g id="patch_116">
    <path d="M 296.125953 382.84 
L 297.977779 382.84 
L 297.977779 294.60697 
L 296.125953 294.60697 
z
" clip-path="url(#ped41b6eea6)" style="fill: #1f77b4"/>
   </g>
   <g id="patch_117">
    <path d="M 297.977779 382.84 
L 299.829604 382.84 
L 299.829604 296.666668 
L 297.977779 296.666668 
z
" clip-path="url(#ped41b6eea6)" style="fill: #1f77b4"/>
   </g>
   <g id="patch_118">
    <path d="M 299.829604 382.84 
L 301.68143 382.84 
L 301.68143 304.627125 
L 299.829604 304.627125 
z
" clip-path="url(#ped41b6eea6)" style="fill: #1f77b4"/>
   </g>
   <g id="patch_119">
    <path d="M 301.68143 382.84 
L 303.533255 382.84 
L 303.533255 313.422594 
L 301.68143 313.422594 
z
" clip-path="url(#ped41b6eea6)" style="fill: #1f77b4"/>
   </g>
   <g id="patch_120">
    <path d="M 303.533255 382.84 
L 305.38508 382.84 
L 305.38508 308.969192 
L 303.533255 308.969192 
z
" clip-path="url(#ped41b6eea6)" style="fill: #1f77b4"/>
   </g>
   <g id="patch_121">
    <path d="M 305.38508 382.84 
L 307.236906 382.84 
L 307.236906 316.094635 
L 305.38508 316.094635 
z
" clip-path="url(#ped41b6eea6)" style="fill: #1f77b4"/>
   </g>
   <g id="patch_122">
    <path d="M 307.236906 382.84 
L 309.088731 382.84 
L 309.088731 319.935694 
L 307.236906 319.935694 
z
" clip-path="url(#ped41b6eea6)" style="fill: #1f77b4"/>
   </g>
   <g id="patch_123">
    <path d="M 309.088731 382.84 
L 310.940557 382.84 
L 310.940557 321.550053 
L 309.088731 321.550053 
z
" clip-path="url(#ped41b6eea6)" style="fill: #1f77b4"/>
   </g>
   <g id="patch_124">
    <path d="M 310.940557 382.84 
L 312.792382 382.84 
L 312.792382 324.723102 
L 310.940557 324.723102 
z
" clip-path="url(#ped41b6eea6)" style="fill: #1f77b4"/>
   </g>
   <g id="patch_125">
    <path d="M 312.792382 382.84 
L 314.644208 382.84 
L 314.644208 331.681543 
L 312.792382 331.681543 
z
" clip-path="url(#ped41b6eea6)" style="fill: #1f77b4"/>
   </g>
   <g id="patch_126">
    <path d="M 314.644208 382.84 
L 316.496033 382.84 
L 316.496033 330.679527 
L 314.644208 330.679527 
z
" clip-path="url(#ped41b6eea6)" style="fill: #1f77b4"/>
   </g>
   <g id="patch_127">
    <path d="M 316.496033 382.84 
L 318.347858 382.84 
L 318.347858 334.186581 
L 316.496033 334.186581 
z
" clip-path="url(#ped41b6eea6)" style="fill: #1f77b4"/>
   </g>
   <g id="patch_128">
    <path d="M 318.347858 382.84 
L 320.199684 382.84 
L 320.199684 338.918321 
L 318.347858 338.918321 
z
" clip-path="url(#ped41b6eea6)" style="fill: #1f77b4"/>
   </g>
   <g id="patch_129">
    <path d="M 320.199684 382.84 
L 322.051509 382.84 
L 322.051509 341.145022 
L 320.199684 341.145022 
z
" clip-path="url(#ped41b6eea6)" style="fill: #1f77b4"/>
   </g>
   <g id="patch_130">
    <path d="M 322.051509 382.84 
L 323.903335 382.84 
L 323.903335 344.039734 
L 322.051509 344.039734 
z
" clip-path="url(#ped41b6eea6)" style="fill: #1f77b4"/>
   </g>
   <g id="patch_131">
    <path d="M 323.903335 382.84 
L 325.75516 382.84 
L 325.75516 348.214798 
L 323.903335 348.214798 
z
" clip-path="url(#ped41b6eea6)" style="fill: #1f77b4"/>
   </g>
   <g id="patch_132">
    <path d="M 325.75516 382.84 
L 327.606986 382.84 
L 327.606986 347.658123 
L 325.75516 347.658123 
z
" clip-path="url(#ped41b6eea6)" style="fill: #1f77b4"/>
   </g>
   <g id="patch_133">
    <path d="M 327.606986 382.84 
L 329.458811 382.84 
L 329.458811 353.169208 
L 327.606986 353.169208 
z
" clip-path="url(#ped41b6eea6)" style="fill: #1f77b4"/>
   </g>
   <g id="patch_134">
    <path d="M 329.458811 382.84 
L 331.310636 382.84 
L 331.310636 354.226891 
L 329.458811 354.226891 
z
" clip-path="url(#ped41b6eea6)" style="fill: #1f77b4"/>
   </g>
   <g id="patch_135">
    <path d="M 331.310636 382.84 
L 333.162462 382.84 
L 333.162462 356.787597 
L 331.310636 356.787597 
z
" clip-path="url(#ped41b6eea6)" style="fill: #1f77b4"/>
   </g>
   <g id="patch_136">
    <path d="M 333.162462 382.84 
L 335.014287 382.84 
L 335.014287 355.785582 
L 333.162462 355.785582 
z
" clip-path="url(#ped41b6eea6)" style="fill: #1f77b4"/>
   </g>
   <g id="patch_137">
    <path d="M 335.014287 382.84 
L 336.866113 382.84 
L 336.866113 360.350319 
L 335.014287 360.350319 
z
" clip-path="url(#ped41b6eea6)" style="fill: #1f77b4"/>
   </g>
   <g id="patch_138">
    <path d="M 336.866113 382.84 
L 338.717938 382.84 
L 338.717938 360.962662 
L 336.866113 360.962662 
z
" clip-path="url(#ped41b6eea6)" style="fill: #1f77b4"/>
   </g>
   <g id="patch_139">
    <path d="M 338.717938 382.84 
L 340.569764 382.84 
L 340.569764 363.02236 
L 338.717938 363.02236 
z
" clip-path="url(#ped41b6eea6)" style="fill: #1f77b4"/>
   </g>
   <g id="patch_140">
    <path d="M 340.569764 382.84 
L 342.421589 382.84 
L 342.421589 363.24503 
L 340.569764 363.24503 
z
" clip-path="url(#ped41b6eea6)" style="fill: #1f77b4"/>
   </g>
   <g id="patch_141">
    <path d="M 342.421589 382.84 
L 344.273415 382.84 
L 344.273415 367.642765 
L 342.421589 367.642765 
z
" clip-path="url(#ped41b6eea6)" style="fill: #1f77b4"/>
   </g>
   <g id="patch_142">
    <path d="M 344.273415 382.84 
L 346.12524 382.84 
L 346.12524 367.420095 
L 344.273415 367.420095 
z
" clip-path="url(#ped41b6eea6)" style="fill: #1f77b4"/>
   </g>
   <g id="patch_143">
    <path d="M 346.12524 382.84 
L 347.977065 382.84 
L 347.977065 368.255108 
L 346.12524 368.255108 
z
" clip-path="url(#ped41b6eea6)" style="fill: #1f77b4"/>
   </g>
   <g id="patch_144">
    <path d="M 347.977065 382.84 
L 349.828891 382.84 
L 349.828891 370.092136 
L 347.977065 370.092136 
z
" clip-path="url(#ped41b6eea6)" style="fill: #1f77b4"/>
   </g>
   <g id="patch_145">
    <path d="M 349.828891 382.84 
L 351.680716 382.84 
L 351.680716 371.316822 
L 349.828891 371.316822 
z
" clip-path="url(#ped41b6eea6)" style="fill: #1f77b4"/>
   </g>
   <g id="patch_146">
    <path d="M 351.680716 382.84 
L 353.532542 382.84 
L 353.532542 371.539492 
L 351.680716 371.539492 
z
" clip-path="url(#ped41b6eea6)" style="fill: #1f77b4"/>
   </g>
   <g id="patch_147">
    <path d="M 353.532542 382.84 
L 355.384367 382.84 
L 355.384367 374.434203 
L 353.532542 374.434203 
z
" clip-path="url(#ped41b6eea6)" style="fill: #1f77b4"/>
   </g>
   <g id="patch_148">
    <path d="M 355.384367 382.84 
L 357.236193 382.84 
L 357.236193 374.378536 
L 355.384367 374.378536 
z
" clip-path="url(#ped41b6eea6)" style="fill: #1f77b4"/>
   </g>
   <g id="patch_149">
    <path d="M 357.236193 382.84 
L 359.088018 382.84 
L 359.088018 374.601206 
L 357.236193 374.601206 
z
" clip-path="url(#ped41b6eea6)" style="fill: #1f77b4"/>
   </g>
   <g id="patch_150">
    <path d="M 359.088018 382.84 
L 360.939843 382.84 
L 360.939843 376.883575 
L 359.088018 376.883575 
z
" clip-path="url(#ped41b6eea6)" style="fill: #1f77b4"/>
   </g>
   <g id="patch_151">
    <path d="M 360.939843 382.84 
L 362.791669 382.84 
L 362.791669 377.106245 
L 360.939843 377.106245 
z
" clip-path="url(#ped41b6eea6)" style="fill: #1f77b4"/>
   </g>
   <g id="patch_152">
    <path d="M 362.791669 382.84 
L 364.643494 382.84 
L 364.643494 377.607252 
L 362.791669 377.607252 
z
" clip-path="url(#ped41b6eea6)" style="fill: #1f77b4"/>
   </g>
   <g id="patch_153">
    <path d="M 364.643494 382.84 
L 366.49532 382.84 
L 366.49532 377.941258 
L 364.643494 377.941258 
z
" clip-path="url(#ped41b6eea6)" style="fill: #1f77b4"/>
   </g>
   <g id="patch_154">
    <path d="M 366.49532 382.84 
L 368.347145 382.84 
L 368.347145 378.442265 
L 366.49532 378.442265 
z
" clip-path="url(#ped41b6eea6)" style="fill: #1f77b4"/>
   </g>
   <g id="patch_155">
    <path d="M 368.347145 382.84 
L 370.198971 382.84 
L 370.198971 378.998941 
L 368.347145 378.998941 
z
" clip-path="url(#ped41b6eea6)" style="fill: #1f77b4"/>
   </g>
   <g id="patch_156">
    <path d="M 370.198971 382.84 
L 372.050796 382.84 
L 372.050796 379.388613 
L 370.198971 379.388613 
z
" clip-path="url(#ped41b6eea6)" style="fill: #1f77b4"/>
   </g>
   <g id="patch_157">
    <path d="M 372.050796 382.84 
L 373.902622 382.84 
L 373.902622 380.223626 
L 372.050796 380.223626 
z
" clip-path="url(#ped41b6eea6)" style="fill: #1f77b4"/>
   </g>
   <g id="patch_158">
    <path d="M 373.902622 382.84 
L 375.754447 382.84 
L 375.754447 380.167959 
L 373.902622 380.167959 
z
" clip-path="url(#ped41b6eea6)" style="fill: #1f77b4"/>
   </g>
   <g id="patch_159">
    <path d="M 375.754447 382.84 
L 377.606272 382.84 
L 377.606272 381.169974 
L 375.754447 381.169974 
z
" clip-path="url(#ped41b6eea6)" style="fill: #1f77b4"/>
   </g>
   <g id="patch_160">
    <path d="M 377.606272 382.84 
L 379.458098 382.84 
L 379.458098 380.390629 
L 377.606272 380.390629 
z
" clip-path="url(#ped41b6eea6)" style="fill: #1f77b4"/>
   </g>
   <g id="patch_161">
    <path d="M 379.458098 382.84 
L 381.309923 382.84 
L 381.309923 381.615314 
L 379.458098 381.615314 
z
" clip-path="url(#ped41b6eea6)" style="fill: #1f77b4"/>
   </g>
   <g id="patch_162">
    <path d="M 381.309923 382.84 
L 383.161749 382.84 
L 383.161749 381.448312 
L 381.309923 381.448312 
z
" clip-path="url(#ped41b6eea6)" style="fill: #1f77b4"/>
   </g>
   <g id="patch_163">
    <path d="M 383.161749 382.84 
L 385.013574 382.84 
L 385.013574 381.114307 
L 383.161749 381.114307 
z
" clip-path="url(#ped41b6eea6)" style="fill: #1f77b4"/>
   </g>
   <g id="patch_164">
    <path d="M 385.013574 382.84 
L 386.8654 382.84 
L 386.8654 381.559647 
L 385.013574 381.559647 
z
" clip-path="url(#ped41b6eea6)" style="fill: #1f77b4"/>
   </g>
   <g id="patch_165">
    <path d="M 386.8654 382.84 
L 388.717225 382.84 
L 388.717225 381.94932 
L 386.8654 381.94932 
z
" clip-path="url(#ped41b6eea6)" style="fill: #1f77b4"/>
   </g>
   <g id="patch_166">
    <path d="M 388.717225 382.84 
L 390.56905 382.84 
L 390.56905 381.281309 
L 388.717225 381.281309 
z
" clip-path="url(#ped41b6eea6)" style="fill: #1f77b4"/>
   </g>
   <g id="patch_167">
    <path d="M 390.56905 382.84 
L 392.420876 382.84 
L 392.420876 382.39466 
L 390.56905 382.39466 
z
" clip-path="url(#ped41b6eea6)" style="fill: #1f77b4"/>
   </g>
   <g id="patch_168">
    <path d="M 392.420876 382.84 
L 394.272701 382.84 
L 394.272701 382.060655 
L 392.420876 382.060655 
z
" clip-path="url(#ped41b6eea6)" style="fill: #1f77b4"/>
   </g>
   <g id="patch_169">
    <path d="M 394.272701 382.84 
L 396.124527 382.84 
L 396.124527 382.227657 
L 394.272701 382.227657 
z
" clip-path="url(#ped41b6eea6)" style="fill: #1f77b4"/>
   </g>
   <g id="patch_170">
    <path d="M 396.124527 382.84 
L 397.976352 382.84 
L 397.976352 382.338992 
L 396.124527 382.338992 
z
" clip-path="url(#ped41b6eea6)" style="fill: #1f77b4"/>
   </g>
   <g id="patch_171">
    <path d="M 397.976352 382.84 
L 399.828178 382.84 
L 399.828178 382.505995 
L 397.976352 382.505995 
z
" clip-path="url(#ped41b6eea6)" style="fill: #1f77b4"/>
   </g>
   <g id="patch_172">
    <path d="M 399.828178 382.84 
L 401.680003 382.84 
L 401.680003 382.61733 
L 399.828178 382.61733 
z
" clip-path="url(#ped41b6eea6)" style="fill: #1f77b4"/>
   </g>
   <g id="patch_173">
    <path d="M 401.680003 382.84 
L 403.531828 382.84 
L 403.531828 382.561662 
L 401.680003 382.561662 
z
" clip-path="url(#ped41b6eea6)" style="fill: #1f77b4"/>
   </g>
   <g id="patch_174">
    <path d="M 403.531828 382.84 
L 405.383654 382.84 
L 405.383654 382.505995 
L 403.531828 382.505995 
z
" clip-path="url(#ped41b6eea6)" style="fill: #1f77b4"/>
   </g>
   <g id="patch_175">
    <path d="M 405.383654 382.84 
L 407.235479 382.84 
L 407.235479 382.338992 
L 405.383654 382.338992 
z
" clip-path="url(#ped41b6eea6)" style="fill: #1f77b4"/>
   </g>
   <g id="patch_176">
    <path d="M 407.235479 382.84 
L 409.087305 382.84 
L 409.087305 382.728665 
L 407.235479 382.728665 
z
" clip-path="url(#ped41b6eea6)" style="fill: #1f77b4"/>
   </g>
   <g id="patch_177">
    <path d="M 409.087305 382.84 
L 410.93913 382.84 
L 410.93913 382.561662 
L 409.087305 382.561662 
z
" clip-path="url(#ped41b6eea6)" style="fill: #1f77b4"/>
   </g>
   <g id="patch_178">
    <path d="M 410.93913 382.84 
L 412.790956 382.84 
L 412.790956 382.672997 
L 410.93913 382.672997 
z
" clip-path="url(#ped41b6eea6)" style="fill: #1f77b4"/>
   </g>
   <g id="patch_179">
    <path d="M 412.790956 382.84 
L 414.642781 382.84 
L 414.642781 382.728665 
L 412.790956 382.728665 
z
" clip-path="url(#ped41b6eea6)" style="fill: #1f77b4"/>
   </g>
   <g id="patch_180">
    <path d="M 414.642781 382.84 
L 416.494607 382.84 
L 416.494607 382.784332 
L 414.642781 382.784332 
z
" clip-path="url(#ped41b6eea6)" style="fill: #1f77b4"/>
   </g>
   <g id="patch_181">
    <path d="M 416.494607 382.84 
L 418.346432 382.84 
L 418.346432 382.505995 
L 416.494607 382.505995 
z
" clip-path="url(#ped41b6eea6)" style="fill: #1f77b4"/>
   </g>
   <g id="patch_182">
    <path d="M 418.346432 382.84 
L 420.198257 382.84 
L 420.198257 382.728665 
L 418.346432 382.728665 
z
" clip-path="url(#ped41b6eea6)" style="fill: #1f77b4"/>
   </g>
   <g id="patch_183">
    <path d="M 420.198257 382.84 
L 422.050083 382.84 
L 422.050083 382.784332 
L 420.198257 382.784332 
z
" clip-path="url(#ped41b6eea6)" style="fill: #1f77b4"/>
   </g>
   <g id="patch_184">
    <path d="M 422.050083 382.84 
L 423.901908 382.84 
L 423.901908 382.61733 
L 422.050083 382.61733 
z
" clip-path="url(#ped41b6eea6)" style="fill: #1f77b4"/>
   </g>
   <g id="patch_185">
    <path d="M 423.901908 382.84 
L 425.753734 382.84 
L 425.753734 382.784332 
L 423.901908 382.784332 
z
" clip-path="url(#ped41b6eea6)" style="fill: #1f77b4"/>
   </g>
   <g id="patch_186">
    <path d="M 425.753734 382.84 
L 427.605559 382.84 
L 427.605559 382.728665 
L 425.753734 382.728665 
z
" clip-path="url(#ped41b6eea6)" style="fill: #1f77b4"/>
   </g>
   <g id="patch_187">
    <path d="M 427.605559 382.84 
L 429.457385 382.84 
L 429.457385 382.728665 
L 427.605559 382.728665 
z
" clip-path="url(#ped41b6eea6)" style="fill: #1f77b4"/>
   </g>
   <g id="patch_188">
    <path d="M 429.457385 382.84 
L 431.30921 382.84 
L 431.30921 382.672997 
L 429.457385 382.672997 
z
" clip-path="url(#ped41b6eea6)" style="fill: #1f77b4"/>
   </g>
   <g id="patch_189">
    <path d="M 431.30921 382.84 
L 433.161035 382.84 
L 433.161035 382.728665 
L 431.30921 382.728665 
z
" clip-path="url(#ped41b6eea6)" style="fill: #1f77b4"/>
   </g>
   <g id="patch_190">
    <path d="M 433.161035 382.84 
L 435.012861 382.84 
L 435.012861 382.61733 
L 433.161035 382.61733 
z
" clip-path="url(#ped41b6eea6)" style="fill: #1f77b4"/>
   </g>
   <g id="patch_191">
    <path d="M 435.012861 382.84 
L 436.864686 382.84 
L 436.864686 382.672997 
L 435.012861 382.672997 
z
" clip-path="url(#ped41b6eea6)" style="fill: #1f77b4"/>
   </g>
   <g id="patch_192">
    <path d="M 436.864686 382.84 
L 438.716512 382.84 
L 438.716512 382.84 
L 436.864686 382.84 
z
" clip-path="url(#ped41b6eea6)" style="fill: #1f77b4"/>
   </g>
   <g id="patch_193">
    <path d="M 438.716512 382.84 
L 440.568337 382.84 
L 440.568337 382.784332 
L 438.716512 382.784332 
z
" clip-path="url(#ped41b6eea6)" style="fill: #1f77b4"/>
   </g>
   <g id="patch_194">
    <path d="M 440.568337 382.84 
L 442.420163 382.84 
L 442.420163 382.84 
L 440.568337 382.84 
z
" clip-path="url(#ped41b6eea6)" style="fill: #1f77b4"/>
   </g>
   <g id="patch_195">
    <path d="M 442.420163 382.84 
L 444.271988 382.84 
L 444.271988 382.84 
L 442.420163 382.84 
z
" clip-path="url(#ped41b6eea6)" style="fill: #1f77b4"/>
   </g>
   <g id="patch_196">
    <path d="M 444.271988 382.84 
L 446.123813 382.84 
L 446.123813 382.84 
L 444.271988 382.84 
z
" clip-path="url(#ped41b6eea6)" style="fill: #1f77b4"/>
   </g>
   <g id="patch_197">
    <path d="M 446.123813 382.84 
L 447.975639 382.84 
L 447.975639 382.84 
L 446.123813 382.84 
z
" clip-path="url(#ped41b6eea6)" style="fill: #1f77b4"/>
   </g>
   <g id="patch_198">
    <path d="M 447.975639 382.84 
L 449.827464 382.84 
L 449.827464 382.84 
L 447.975639 382.84 
z
" clip-path="url(#ped41b6eea6)" style="fill: #1f77b4"/>
   </g>
   <g id="patch_199">
    <path d="M 449.827464 382.84 
L 451.67929 382.84 
L 451.67929 382.84 
L 449.827464 382.84 
z
" clip-path="url(#ped41b6eea6)" style="fill: #1f77b4"/>
   </g>
   <g id="patch_200">
    <path d="M 451.67929 382.84 
L 453.531115 382.84 
L 453.531115 382.784332 
L 451.67929 382.784332 
z
" clip-path="url(#ped41b6eea6)" style="fill: #1f77b4"/>
   </g>
   <g id="patch_201">
    <path d="M 453.531115 382.84 
L 455.382941 382.84 
L 455.382941 382.84 
L 453.531115 382.84 
z
" clip-path="url(#ped41b6eea6)" style="fill: #1f77b4"/>
   </g>
   <g id="patch_202">
    <path d="M 455.382941 382.84 
L 457.234766 382.84 
L 457.234766 382.84 
L 455.382941 382.84 
z
" clip-path="url(#ped41b6eea6)" style="fill: #1f77b4"/>
   </g>
   <g id="patch_203">
    <path d="M 457.234766 382.84 
L 459.086592 382.84 
L 459.086592 382.84 
L 457.234766 382.84 
z
" clip-path="url(#ped41b6eea6)" style="fill: #1f77b4"/>
   </g>
   <g id="patch_204">
    <path d="M 459.086592 382.84 
L 460.938417 382.84 
L 460.938417 382.84 
L 459.086592 382.84 
z
" clip-path="url(#ped41b6eea6)" style="fill: #1f77b4"/>
   </g>
   <g id="patch_205">
    <path d="M 460.938417 382.84 
L 462.790242 382.84 
L 462.790242 382.84 
L 460.938417 382.84 
z
" clip-path="url(#ped41b6eea6)" style="fill: #1f77b4"/>
   </g>
   <g id="patch_206">
    <path d="M 462.790242 382.84 
L 464.642068 382.84 
L 464.642068 382.84 
L 462.790242 382.84 
z
" clip-path="url(#ped41b6eea6)" style="fill: #1f77b4"/>
   </g>
   <g id="patch_207">
    <path d="M 464.642068 382.84 
L 466.493893 382.84 
L 466.493893 382.84 
L 464.642068 382.84 
z
" clip-path="url(#ped41b6eea6)" style="fill: #1f77b4"/>
   </g>
   <g id="patch_208">
    <path d="M 466.493893 382.84 
L 468.345719 382.84 
L 468.345719 382.84 
L 466.493893 382.84 
z
" clip-path="url(#ped41b6eea6)" style="fill: #1f77b4"/>
   </g>
   <g id="patch_209">
    <path d="M 468.345719 382.84 
L 470.197544 382.84 
L 470.197544 382.84 
L 468.345719 382.84 
z
" clip-path="url(#ped41b6eea6)" style="fill: #1f77b4"/>
   </g>
   <g id="patch_210">
    <path d="M 470.197544 382.84 
L 472.04937 382.84 
L 472.04937 382.84 
L 470.197544 382.84 
z
" clip-path="url(#ped41b6eea6)" style="fill: #1f77b4"/>
   </g>
   <g id="patch_211">
    <path d="M 472.04937 382.84 
L 473.901195 382.84 
L 473.901195 382.84 
L 472.04937 382.84 
z
" clip-path="url(#ped41b6eea6)" style="fill: #1f77b4"/>
   </g>
   <g id="patch_212">
    <path d="M 473.901195 382.84 
L 475.75302 382.84 
L 475.75302 382.84 
L 473.901195 382.84 
z
" clip-path="url(#ped41b6eea6)" style="fill: #1f77b4"/>
   </g>
   <g id="patch_213">
    <path d="M 475.75302 382.84 
L 477.604846 382.84 
L 477.604846 382.84 
L 475.75302 382.84 
z
" clip-path="url(#ped41b6eea6)" style="fill: #1f77b4"/>
   </g>
   <g id="patch_214">
    <path d="M 477.604846 382.84 
L 479.456671 382.84 
L 479.456671 382.84 
L 477.604846 382.84 
z
" clip-path="url(#ped41b6eea6)" style="fill: #1f77b4"/>
   </g>
   <g id="patch_215">
    <path d="M 479.456671 382.84 
L 481.308497 382.84 
L 481.308497 382.84 
L 479.456671 382.84 
z
" clip-path="url(#ped41b6eea6)" style="fill: #1f77b4"/>
   </g>
   <g id="patch_216">
    <path d="M 481.308497 382.84 
L 483.160322 382.84 
L 483.160322 382.84 
L 481.308497 382.84 
z
" clip-path="url(#ped41b6eea6)" style="fill: #1f77b4"/>
   </g>
   <g id="patch_217">
    <path d="M 483.160322 382.84 
L 485.012148 382.84 
L 485.012148 382.84 
L 483.160322 382.84 
z
" clip-path="url(#ped41b6eea6)" style="fill: #1f77b4"/>
   </g>
   <g id="patch_218">
    <path d="M 485.012148 382.84 
L 486.863973 382.84 
L 486.863973 382.84 
L 485.012148 382.84 
z
" clip-path="url(#ped41b6eea6)" style="fill: #1f77b4"/>
   </g>
   <g id="patch_219">
    <path d="M 486.863973 382.84 
L 488.715798 382.84 
L 488.715798 382.84 
L 486.863973 382.84 
z
" clip-path="url(#ped41b6eea6)" style="fill: #1f77b4"/>
   </g>
   <g id="patch_220">
    <path d="M 488.715798 382.84 
L 490.567624 382.84 
L 490.567624 382.84 
L 488.715798 382.84 
z
" clip-path="url(#ped41b6eea6)" style="fill: #1f77b4"/>
   </g>
   <g id="patch_221">
    <path d="M 490.567624 382.84 
L 492.419449 382.84 
L 492.419449 382.84 
L 490.567624 382.84 
z
" clip-path="url(#ped41b6eea6)" style="fill: #1f77b4"/>
   </g>
   <g id="patch_222">
    <path d="M 492.419449 382.84 
L 494.271275 382.84 
L 494.271275 382.84 
L 492.419449 382.84 
z
" clip-path="url(#ped41b6eea6)" style="fill: #1f77b4"/>
   </g>
   <g id="patch_223">
    <path d="M 494.271275 382.84 
L 496.1231 382.84 
L 496.1231 382.84 
L 494.271275 382.84 
z
" clip-path="url(#ped41b6eea6)" style="fill: #1f77b4"/>
   </g>
   <g id="patch_224">
    <path d="M 496.1231 382.84 
L 497.974926 382.84 
L 497.974926 382.84 
L 496.1231 382.84 
z
" clip-path="url(#ped41b6eea6)" style="fill: #1f77b4"/>
   </g>
   <g id="patch_225">
    <path d="M 497.974926 382.84 
L 499.826751 382.84 
L 499.826751 382.84 
L 497.974926 382.84 
z
" clip-path="url(#ped41b6eea6)" style="fill: #1f77b4"/>
   </g>
   <g id="patch_226">
    <path d="M 499.826751 382.84 
L 501.678577 382.84 
L 501.678577 382.84 
L 499.826751 382.84 
z
" clip-path="url(#ped41b6eea6)" style="fill: #1f77b4"/>
   </g>
   <g id="patch_227">
    <path d="M 501.678577 382.84 
L 503.530402 382.84 
L 503.530402 382.84 
L 501.678577 382.84 
z
" clip-path="url(#ped41b6eea6)" style="fill: #1f77b4"/>
   </g>
   <g id="patch_228">
    <path d="M 503.530402 382.84 
L 505.382227 382.84 
L 505.382227 382.84 
L 503.530402 382.84 
z
" clip-path="url(#ped41b6eea6)" style="fill: #1f77b4"/>
   </g>
   <g id="patch_229">
    <path d="M 505.382227 382.84 
L 507.234053 382.84 
L 507.234053 382.84 
L 505.382227 382.84 
z
" clip-path="url(#ped41b6eea6)" style="fill: #1f77b4"/>
   </g>
   <g id="patch_230">
    <path d="M 507.234053 382.84 
L 509.085878 382.84 
L 509.085878 382.84 
L 507.234053 382.84 
z
" clip-path="url(#ped41b6eea6)" style="fill: #1f77b4"/>
   </g>
   <g id="patch_231">
    <path d="M 509.085878 382.84 
L 510.937704 382.84 
L 510.937704 382.84 
L 509.085878 382.84 
z
" clip-path="url(#ped41b6eea6)" style="fill: #1f77b4"/>
   </g>
   <g id="patch_232">
    <path d="M 510.937704 382.84 
L 512.789529 382.84 
L 512.789529 382.84 
L 510.937704 382.84 
z
" clip-path="url(#ped41b6eea6)" style="fill: #1f77b4"/>
   </g>
   <g id="patch_233">
    <path d="M 512.789529 382.84 
L 514.641355 382.84 
L 514.641355 382.84 
L 512.789529 382.84 
z
" clip-path="url(#ped41b6eea6)" style="fill: #1f77b4"/>
   </g>
   <g id="patch_234">
    <path d="M 514.641355 382.84 
L 516.49318 382.84 
L 516.49318 382.84 
L 514.641355 382.84 
z
" clip-path="url(#ped41b6eea6)" style="fill: #1f77b4"/>
   </g>
   <g id="patch_235">
    <path d="M 516.49318 382.84 
L 518.345005 382.84 
L 518.345005 382.84 
L 516.49318 382.84 
z
" clip-path="url(#ped41b6eea6)" style="fill: #1f77b4"/>
   </g>
   <g id="patch_236">
    <path d="M 518.345005 382.84 
L 520.196831 382.84 
L 520.196831 382.84 
L 518.345005 382.84 
z
" clip-path="url(#ped41b6eea6)" style="fill: #1f77b4"/>
   </g>
   <g id="patch_237">
    <path d="M 520.196831 382.84 
L 522.048656 382.84 
L 522.048656 382.84 
L 520.196831 382.84 
z
" clip-path="url(#ped41b6eea6)" style="fill: #1f77b4"/>
   </g>
   <g id="patch_238">
    <path d="M 522.048656 382.84 
L 523.900482 382.84 
L 523.900482 382.84 
L 522.048656 382.84 
z
" clip-path="url(#ped41b6eea6)" style="fill: #1f77b4"/>
   </g>
   <g id="patch_239">
    <path d="M 523.900482 382.84 
L 525.752307 382.84 
L 525.752307 382.84 
L 523.900482 382.84 
z
" clip-path="url(#ped41b6eea6)" style="fill: #1f77b4"/>
   </g>
   <g id="patch_240">
    <path d="M 525.752307 382.84 
L 527.604133 382.84 
L 527.604133 382.84 
L 525.752307 382.84 
z
" clip-path="url(#ped41b6eea6)" style="fill: #1f77b4"/>
   </g>
   <g id="patch_241">
    <path d="M 527.604133 382.84 
L 529.455958 382.84 
L 529.455958 382.84 
L 527.604133 382.84 
z
" clip-path="url(#ped41b6eea6)" style="fill: #1f77b4"/>
   </g>
   <g id="patch_242">
    <path d="M 529.455958 382.84 
L 531.307784 382.84 
L 531.307784 382.84 
L 529.455958 382.84 
z
" clip-path="url(#ped41b6eea6)" style="fill: #1f77b4"/>
   </g>
   <g id="patch_243">
    <path d="M 531.307784 382.84 
L 533.159609 382.84 
L 533.159609 382.84 
L 531.307784 382.84 
z
" clip-path="url(#ped41b6eea6)" style="fill: #1f77b4"/>
   </g>
   <g id="patch_244">
    <path d="M 533.159609 382.84 
L 535.011434 382.84 
L 535.011434 382.84 
L 533.159609 382.84 
z
" clip-path="url(#ped41b6eea6)" style="fill: #1f77b4"/>
   </g>
   <g id="patch_245">
    <path d="M 535.011434 382.84 
L 536.86326 382.84 
L 536.86326 382.784332 
L 535.011434 382.784332 
z
" clip-path="url(#ped41b6eea6)" style="fill: #1f77b4"/>
   </g>
   <g id="matplotlib.axis_1">
    <g id="xtick_1">
     <g id="line2d_1">
      <defs>
       <path id="m8165f89ba2" d="M 0 0 
L 0 3.5 
" style="stroke: #000000; stroke-width: 0.8"/>
      </defs>
      <g>
       <use xlink:href="#m8165f89ba2" x="84.147607" y="382.84" style="stroke: #000000; stroke-width: 0.8"/>
      </g>
     </g>
     <g id="text_1">
      <!-- 0 -->
      <g transform="translate(80.966357 397.438438) scale(0.1 -0.1)">
       <defs>
        <path id="DejaVuSans-30" d="M 2034 4250 
Q 1547 4250 1301 3770 
Q 1056 3291 1056 2328 
Q 1056 1369 1301 889 
Q 1547 409 2034 409 
Q 2525 409 2770 889 
Q 3016 1369 3016 2328 
Q 3016 3291 2770 3770 
Q 2525 4250 2034 4250 
z
M 2034 4750 
Q 2819 4750 3233 4129 
Q 3647 3509 3647 2328 
Q 3647 1150 3233 529 
Q 2819 -91 2034 -91 
Q 1250 -91 836 529 
Q 422 1150 422 2328 
Q 422 3509 836 4129 
Q 1250 4750 2034 4750 
z
" transform="scale(0.015625)"/>
       </defs>
       <use xlink:href="#DejaVuSans-30"/>
      </g>
     </g>
    </g>
    <g id="xtick_2">
     <g id="line2d_2">
      <g>
       <use xlink:href="#m8165f89ba2" x="179.078027" y="382.84" style="stroke: #000000; stroke-width: 0.8"/>
      </g>
     </g>
     <g id="text_2">
      <!-- 2 -->
      <g transform="translate(175.896777 397.438438) scale(0.1 -0.1)">
       <defs>
        <path id="DejaVuSans-32" d="M 1228 531 
L 3431 531 
L 3431 0 
L 469 0 
L 469 531 
Q 828 903 1448 1529 
Q 2069 2156 2228 2338 
Q 2531 2678 2651 2914 
Q 2772 3150 2772 3378 
Q 2772 3750 2511 3984 
Q 2250 4219 1831 4219 
Q 1534 4219 1204 4116 
Q 875 4013 500 3803 
L 500 4441 
Q 881 4594 1212 4672 
Q 1544 4750 1819 4750 
Q 2544 4750 2975 4387 
Q 3406 4025 3406 3419 
Q 3406 3131 3298 2873 
Q 3191 2616 2906 2266 
Q 2828 2175 2409 1742 
Q 1991 1309 1228 531 
z
" transform="scale(0.015625)"/>
       </defs>
       <use xlink:href="#DejaVuSans-32"/>
      </g>
     </g>
    </g>
    <g id="xtick_3">
     <g id="line2d_3">
      <g>
       <use xlink:href="#m8165f89ba2" x="274.008448" y="382.84" style="stroke: #000000; stroke-width: 0.8"/>
      </g>
     </g>
     <g id="text_3">
      <!-- 4 -->
      <g transform="translate(270.827198 397.438438) scale(0.1 -0.1)">
       <defs>
        <path id="DejaVuSans-34" d="M 2419 4116 
L 825 1625 
L 2419 1625 
L 2419 4116 
z
M 2253 4666 
L 3047 4666 
L 3047 1625 
L 3713 1625 
L 3713 1100 
L 3047 1100 
L 3047 0 
L 2419 0 
L 2419 1100 
L 313 1100 
L 313 1709 
L 2253 4666 
z
" transform="scale(0.015625)"/>
       </defs>
       <use xlink:href="#DejaVuSans-34"/>
      </g>
     </g>
    </g>
    <g id="xtick_4">
     <g id="line2d_4">
      <g>
       <use xlink:href="#m8165f89ba2" x="368.938868" y="382.84" style="stroke: #000000; stroke-width: 0.8"/>
      </g>
     </g>
     <g id="text_4">
      <!-- 6 -->
      <g transform="translate(365.757618 397.438438) scale(0.1 -0.1)">
       <defs>
        <path id="DejaVuSans-36" d="M 2113 2584 
Q 1688 2584 1439 2293 
Q 1191 2003 1191 1497 
Q 1191 994 1439 701 
Q 1688 409 2113 409 
Q 2538 409 2786 701 
Q 3034 994 3034 1497 
Q 3034 2003 2786 2293 
Q 2538 2584 2113 2584 
z
M 3366 4563 
L 3366 3988 
Q 3128 4100 2886 4159 
Q 2644 4219 2406 4219 
Q 1781 4219 1451 3797 
Q 1122 3375 1075 2522 
Q 1259 2794 1537 2939 
Q 1816 3084 2150 3084 
Q 2853 3084 3261 2657 
Q 3669 2231 3669 1497 
Q 3669 778 3244 343 
Q 2819 -91 2113 -91 
Q 1303 -91 875 529 
Q 447 1150 447 2328 
Q 447 3434 972 4092 
Q 1497 4750 2381 4750 
Q 2619 4750 2861 4703 
Q 3103 4656 3366 4563 
z
" transform="scale(0.015625)"/>
       </defs>
       <use xlink:href="#DejaVuSans-36"/>
      </g>
     </g>
    </g>
    <g id="xtick_5">
     <g id="line2d_5">
      <g>
       <use xlink:href="#m8165f89ba2" x="463.869288" y="382.84" style="stroke: #000000; stroke-width: 0.8"/>
      </g>
     </g>
     <g id="text_5">
      <!-- 8 -->
      <g transform="translate(460.688038 397.438438) scale(0.1 -0.1)">
       <defs>
        <path id="DejaVuSans-38" d="M 2034 2216 
Q 1584 2216 1326 1975 
Q 1069 1734 1069 1313 
Q 1069 891 1326 650 
Q 1584 409 2034 409 
Q 2484 409 2743 651 
Q 3003 894 3003 1313 
Q 3003 1734 2745 1975 
Q 2488 2216 2034 2216 
z
M 1403 2484 
Q 997 2584 770 2862 
Q 544 3141 544 3541 
Q 544 4100 942 4425 
Q 1341 4750 2034 4750 
Q 2731 4750 3128 4425 
Q 3525 4100 3525 3541 
Q 3525 3141 3298 2862 
Q 3072 2584 2669 2484 
Q 3125 2378 3379 2068 
Q 3634 1759 3634 1313 
Q 3634 634 3220 271 
Q 2806 -91 2034 -91 
Q 1263 -91 848 271 
Q 434 634 434 1313 
Q 434 1759 690 2068 
Q 947 2378 1403 2484 
z
M 1172 3481 
Q 1172 3119 1398 2916 
Q 1625 2713 2034 2713 
Q 2441 2713 2670 2916 
Q 2900 3119 2900 3481 
Q 2900 3844 2670 4047 
Q 2441 4250 2034 4250 
Q 1625 4250 1398 4047 
Q 1172 3844 1172 3481 
z
" transform="scale(0.015625)"/>
       </defs>
       <use xlink:href="#DejaVuSans-38"/>
      </g>
     </g>
    </g>
    <g id="xtick_6">
     <g id="line2d_6">
      <g>
       <use xlink:href="#m8165f89ba2" x="558.799708" y="382.84" style="stroke: #000000; stroke-width: 0.8"/>
      </g>
     </g>
     <g id="text_6">
      <!-- 10 -->
      <g transform="translate(552.437208 397.438438) scale(0.1 -0.1)">
       <defs>
        <path id="DejaVuSans-31" d="M 794 531 
L 1825 531 
L 1825 4091 
L 703 3866 
L 703 4441 
L 1819 4666 
L 2450 4666 
L 2450 531 
L 3481 531 
L 3481 0 
L 794 0 
L 794 531 
z
" transform="scale(0.015625)"/>
       </defs>
       <use xlink:href="#DejaVuSans-31"/>
       <use xlink:href="#DejaVuSans-30" x="63.623047"/>
      </g>
     </g>
    </g>
    <g id="text_7">
     <!-- Abs. diff. of VEE -->
     <g transform="translate(240.902876 417.195312) scale(0.18 -0.18)">
      <defs>
       <path id="DejaVuSans-41" d="M 2188 4044 
L 1331 1722 
L 3047 1722 
L 2188 4044 
z
M 1831 4666 
L 2547 4666 
L 4325 0 
L 3669 0 
L 3244 1197 
L 1141 1197 
L 716 0 
L 50 0 
L 1831 4666 
z
" transform="scale(0.015625)"/>
       <path id="DejaVuSans-62" d="M 3116 1747 
Q 3116 2381 2855 2742 
Q 2594 3103 2138 3103 
Q 1681 3103 1420 2742 
Q 1159 2381 1159 1747 
Q 1159 1113 1420 752 
Q 1681 391 2138 391 
Q 2594 391 2855 752 
Q 3116 1113 3116 1747 
z
M 1159 2969 
Q 1341 3281 1617 3432 
Q 1894 3584 2278 3584 
Q 2916 3584 3314 3078 
Q 3713 2572 3713 1747 
Q 3713 922 3314 415 
Q 2916 -91 2278 -91 
Q 1894 -91 1617 61 
Q 1341 213 1159 525 
L 1159 0 
L 581 0 
L 581 4863 
L 1159 4863 
L 1159 2969 
z
" transform="scale(0.015625)"/>
       <path id="DejaVuSans-73" d="M 2834 3397 
L 2834 2853 
Q 2591 2978 2328 3040 
Q 2066 3103 1784 3103 
Q 1356 3103 1142 2972 
Q 928 2841 928 2578 
Q 928 2378 1081 2264 
Q 1234 2150 1697 2047 
L 1894 2003 
Q 2506 1872 2764 1633 
Q 3022 1394 3022 966 
Q 3022 478 2636 193 
Q 2250 -91 1575 -91 
Q 1294 -91 989 -36 
Q 684 19 347 128 
L 347 722 
Q 666 556 975 473 
Q 1284 391 1588 391 
Q 1994 391 2212 530 
Q 2431 669 2431 922 
Q 2431 1156 2273 1281 
Q 2116 1406 1581 1522 
L 1381 1569 
Q 847 1681 609 1914 
Q 372 2147 372 2553 
Q 372 3047 722 3315 
Q 1072 3584 1716 3584 
Q 2034 3584 2315 3537 
Q 2597 3491 2834 3397 
z
" transform="scale(0.015625)"/>
       <path id="DejaVuSans-2e" d="M 684 794 
L 1344 794 
L 1344 0 
L 684 0 
L 684 794 
z
" transform="scale(0.015625)"/>
       <path id="DejaVuSans-20" transform="scale(0.015625)"/>
       <path id="DejaVuSans-64" d="M 2906 2969 
L 2906 4863 
L 3481 4863 
L 3481 0 
L 2906 0 
L 2906 525 
Q 2725 213 2448 61 
Q 2172 -91 1784 -91 
Q 1150 -91 751 415 
Q 353 922 353 1747 
Q 353 2572 751 3078 
Q 1150 3584 1784 3584 
Q 2172 3584 2448 3432 
Q 2725 3281 2906 2969 
z
M 947 1747 
Q 947 1113 1208 752 
Q 1469 391 1925 391 
Q 2381 391 2643 752 
Q 2906 1113 2906 1747 
Q 2906 2381 2643 2742 
Q 2381 3103 1925 3103 
Q 1469 3103 1208 2742 
Q 947 2381 947 1747 
z
" transform="scale(0.015625)"/>
       <path id="DejaVuSans-69" d="M 603 3500 
L 1178 3500 
L 1178 0 
L 603 0 
L 603 3500 
z
M 603 4863 
L 1178 4863 
L 1178 4134 
L 603 4134 
L 603 4863 
z
" transform="scale(0.015625)"/>
       <path id="DejaVuSans-66" d="M 2375 4863 
L 2375 4384 
L 1825 4384 
Q 1516 4384 1395 4259 
Q 1275 4134 1275 3809 
L 1275 3500 
L 2222 3500 
L 2222 3053 
L 1275 3053 
L 1275 0 
L 697 0 
L 697 3053 
L 147 3053 
L 147 3500 
L 697 3500 
L 697 3744 
Q 697 4328 969 4595 
Q 1241 4863 1831 4863 
L 2375 4863 
z
" transform="scale(0.015625)"/>
       <path id="DejaVuSans-6f" d="M 1959 3097 
Q 1497 3097 1228 2736 
Q 959 2375 959 1747 
Q 959 1119 1226 758 
Q 1494 397 1959 397 
Q 2419 397 2687 759 
Q 2956 1122 2956 1747 
Q 2956 2369 2687 2733 
Q 2419 3097 1959 3097 
z
M 1959 3584 
Q 2709 3584 3137 3096 
Q 3566 2609 3566 1747 
Q 3566 888 3137 398 
Q 2709 -91 1959 -91 
Q 1206 -91 779 398 
Q 353 888 353 1747 
Q 353 2609 779 3096 
Q 1206 3584 1959 3584 
z
" transform="scale(0.015625)"/>
       <path id="DejaVuSans-56" d="M 1831 0 
L 50 4666 
L 709 4666 
L 2188 738 
L 3669 4666 
L 4325 4666 
L 2547 0 
L 1831 0 
z
" transform="scale(0.015625)"/>
       <path id="DejaVuSans-45" d="M 628 4666 
L 3578 4666 
L 3578 4134 
L 1259 4134 
L 1259 2753 
L 3481 2753 
L 3481 2222 
L 1259 2222 
L 1259 531 
L 3634 531 
L 3634 0 
L 628 0 
L 628 4666 
z
" transform="scale(0.015625)"/>
      </defs>
      <use xlink:href="#DejaVuSans-41"/>
      <use xlink:href="#DejaVuSans-62" x="68.408203"/>
      <use xlink:href="#DejaVuSans-73" x="131.884766"/>
      <use xlink:href="#DejaVuSans-2e" x="183.984375"/>
      <use xlink:href="#DejaVuSans-20" x="215.771484"/>
      <use xlink:href="#DejaVuSans-64" x="247.558594"/>
      <use xlink:href="#DejaVuSans-69" x="311.035156"/>
      <use xlink:href="#DejaVuSans-66" x="338.818359"/>
      <use xlink:href="#DejaVuSans-66" x="374.023438"/>
      <use xlink:href="#DejaVuSans-2e" x="401.978516"/>
      <use xlink:href="#DejaVuSans-20" x="433.765625"/>
      <use xlink:href="#DejaVuSans-6f" x="465.552734"/>
      <use xlink:href="#DejaVuSans-66" x="526.734375"/>
      <use xlink:href="#DejaVuSans-20" x="561.939453"/>
      <use xlink:href="#DejaVuSans-56" x="593.726562"/>
      <use xlink:href="#DejaVuSans-45" x="662.134766"/>
      <use xlink:href="#DejaVuSans-45" x="725.318359"/>
     </g>
    </g>
   </g>
   <g id="matplotlib.axis_2">
    <g id="ytick_1">
     <g id="line2d_7">
      <defs>
       <path id="m91d3731525" d="M 0 0 
L -3.5 0 
" style="stroke: #000000; stroke-width: 0.8"/>
      </defs>
      <g>
       <use xlink:href="#m91d3731525" x="64.37" y="382.84" style="stroke: #000000; stroke-width: 0.8"/>
      </g>
     </g>
     <g id="text_8">
      <!-- 0 -->
      <g transform="translate(51.0075 386.639219) scale(0.1 -0.1)">
       <use xlink:href="#DejaVuSans-30"/>
      </g>
     </g>
    </g>
    <g id="ytick_2">
     <g id="line2d_8">
      <g>
       <use xlink:href="#m91d3731525" x="64.37" y="327.172473" style="stroke: #000000; stroke-width: 0.8"/>
      </g>
     </g>
     <g id="text_9">
      <!-- 1000 -->
      <g transform="translate(31.92 330.971692) scale(0.1 -0.1)">
       <use xlink:href="#DejaVuSans-31"/>
       <use xlink:href="#DejaVuSans-30" x="63.623047"/>
       <use xlink:href="#DejaVuSans-30" x="127.246094"/>
       <use xlink:href="#DejaVuSans-30" x="190.869141"/>
      </g>
     </g>
    </g>
    <g id="ytick_3">
     <g id="line2d_9">
      <g>
       <use xlink:href="#m91d3731525" x="64.37" y="271.504946" style="stroke: #000000; stroke-width: 0.8"/>
      </g>
     </g>
     <g id="text_10">
      <!-- 2000 -->
      <g transform="translate(31.92 275.304165) scale(0.1 -0.1)">
       <use xlink:href="#DejaVuSans-32"/>
       <use xlink:href="#DejaVuSans-30" x="63.623047"/>
       <use xlink:href="#DejaVuSans-30" x="127.246094"/>
       <use xlink:href="#DejaVuSans-30" x="190.869141"/>
      </g>
     </g>
    </g>
    <g id="ytick_4">
     <g id="line2d_10">
      <g>
       <use xlink:href="#m91d3731525" x="64.37" y="215.837419" style="stroke: #000000; stroke-width: 0.8"/>
      </g>
     </g>
     <g id="text_11">
      <!-- 3000 -->
      <g transform="translate(31.92 219.636638) scale(0.1 -0.1)">
       <defs>
        <path id="DejaVuSans-33" d="M 2597 2516 
Q 3050 2419 3304 2112 
Q 3559 1806 3559 1356 
Q 3559 666 3084 287 
Q 2609 -91 1734 -91 
Q 1441 -91 1130 -33 
Q 819 25 488 141 
L 488 750 
Q 750 597 1062 519 
Q 1375 441 1716 441 
Q 2309 441 2620 675 
Q 2931 909 2931 1356 
Q 2931 1769 2642 2001 
Q 2353 2234 1838 2234 
L 1294 2234 
L 1294 2753 
L 1863 2753 
Q 2328 2753 2575 2939 
Q 2822 3125 2822 3475 
Q 2822 3834 2567 4026 
Q 2313 4219 1838 4219 
Q 1578 4219 1281 4162 
Q 984 4106 628 3988 
L 628 4550 
Q 988 4650 1302 4700 
Q 1616 4750 1894 4750 
Q 2613 4750 3031 4423 
Q 3450 4097 3450 3541 
Q 3450 3153 3228 2886 
Q 3006 2619 2597 2516 
z
" transform="scale(0.015625)"/>
       </defs>
       <use xlink:href="#DejaVuSans-33"/>
       <use xlink:href="#DejaVuSans-30" x="63.623047"/>
       <use xlink:href="#DejaVuSans-30" x="127.246094"/>
       <use xlink:href="#DejaVuSans-30" x="190.869141"/>
      </g>
     </g>
    </g>
    <g id="ytick_5">
     <g id="line2d_11">
      <g>
       <use xlink:href="#m91d3731525" x="64.37" y="160.169892" style="stroke: #000000; stroke-width: 0.8"/>
      </g>
     </g>
     <g id="text_12">
      <!-- 4000 -->
      <g transform="translate(31.92 163.969111) scale(0.1 -0.1)">
       <use xlink:href="#DejaVuSans-34"/>
       <use xlink:href="#DejaVuSans-30" x="63.623047"/>
       <use xlink:href="#DejaVuSans-30" x="127.246094"/>
       <use xlink:href="#DejaVuSans-30" x="190.869141"/>
      </g>
     </g>
    </g>
    <g id="ytick_6">
     <g id="line2d_12">
      <g>
       <use xlink:href="#m91d3731525" x="64.37" y="104.502365" style="stroke: #000000; stroke-width: 0.8"/>
      </g>
     </g>
     <g id="text_13">
      <!-- 5000 -->
      <g transform="translate(31.92 108.301584) scale(0.1 -0.1)">
       <defs>
        <path id="DejaVuSans-35" d="M 691 4666 
L 3169 4666 
L 3169 4134 
L 1269 4134 
L 1269 2991 
Q 1406 3038 1543 3061 
Q 1681 3084 1819 3084 
Q 2600 3084 3056 2656 
Q 3513 2228 3513 1497 
Q 3513 744 3044 326 
Q 2575 -91 1722 -91 
Q 1428 -91 1123 -41 
Q 819 9 494 109 
L 494 744 
Q 775 591 1075 516 
Q 1375 441 1709 441 
Q 2250 441 2565 725 
Q 2881 1009 2881 1497 
Q 2881 1984 2565 2268 
Q 2250 2553 1709 2553 
Q 1456 2553 1204 2497 
Q 953 2441 691 2322 
L 691 4666 
z
" transform="scale(0.015625)"/>
       </defs>
       <use xlink:href="#DejaVuSans-35"/>
       <use xlink:href="#DejaVuSans-30" x="63.623047"/>
       <use xlink:href="#DejaVuSans-30" x="127.246094"/>
       <use xlink:href="#DejaVuSans-30" x="190.869141"/>
      </g>
     </g>
    </g>
    <g id="ytick_7">
     <g id="line2d_13">
      <g>
       <use xlink:href="#m91d3731525" x="64.37" y="48.834838" style="stroke: #000000; stroke-width: 0.8"/>
      </g>
     </g>
     <g id="text_14">
      <!-- 6000 -->
      <g transform="translate(31.92 52.634057) scale(0.1 -0.1)">
       <use xlink:href="#DejaVuSans-36"/>
       <use xlink:href="#DejaVuSans-30" x="63.623047"/>
       <use xlink:href="#DejaVuSans-30" x="127.246094"/>
       <use xlink:href="#DejaVuSans-30" x="190.869141"/>
      </g>
     </g>
    </g>
    <g id="text_15">
     <!-- Count -->
     <g transform="translate(24.176563 223.547188) rotate(-90) scale(0.18 -0.18)">
      <defs>
       <path id="DejaVuSans-43" d="M 4122 4306 
L 4122 3641 
Q 3803 3938 3442 4084 
Q 3081 4231 2675 4231 
Q 1875 4231 1450 3742 
Q 1025 3253 1025 2328 
Q 1025 1406 1450 917 
Q 1875 428 2675 428 
Q 3081 428 3442 575 
Q 3803 722 4122 1019 
L 4122 359 
Q 3791 134 3420 21 
Q 3050 -91 2638 -91 
Q 1578 -91 968 557 
Q 359 1206 359 2328 
Q 359 3453 968 4101 
Q 1578 4750 2638 4750 
Q 3056 4750 3426 4639 
Q 3797 4528 4122 4306 
z
" transform="scale(0.015625)"/>
       <path id="DejaVuSans-75" d="M 544 1381 
L 544 3500 
L 1119 3500 
L 1119 1403 
Q 1119 906 1312 657 
Q 1506 409 1894 409 
Q 2359 409 2629 706 
Q 2900 1003 2900 1516 
L 2900 3500 
L 3475 3500 
L 3475 0 
L 2900 0 
L 2900 538 
Q 2691 219 2414 64 
Q 2138 -91 1772 -91 
Q 1169 -91 856 284 
Q 544 659 544 1381 
z
M 1991 3584 
L 1991 3584 
z
" transform="scale(0.015625)"/>
       <path id="DejaVuSans-6e" d="M 3513 2113 
L 3513 0 
L 2938 0 
L 2938 2094 
Q 2938 2591 2744 2837 
Q 2550 3084 2163 3084 
Q 1697 3084 1428 2787 
Q 1159 2491 1159 1978 
L 1159 0 
L 581 0 
L 581 3500 
L 1159 3500 
L 1159 2956 
Q 1366 3272 1645 3428 
Q 1925 3584 2291 3584 
Q 2894 3584 3203 3211 
Q 3513 2838 3513 2113 
z
" transform="scale(0.015625)"/>
       <path id="DejaVuSans-74" d="M 1172 4494 
L 1172 3500 
L 2356 3500 
L 2356 3053 
L 1172 3053 
L 1172 1153 
Q 1172 725 1289 603 
Q 1406 481 1766 481 
L 2356 481 
L 2356 0 
L 1766 0 
Q 1100 0 847 248 
Q 594 497 594 1153 
L 594 3053 
L 172 3053 
L 172 3500 
L 594 3500 
L 594 4494 
L 1172 4494 
z
" transform="scale(0.015625)"/>
      </defs>
      <use xlink:href="#DejaVuSans-43"/>
      <use xlink:href="#DejaVuSans-6f" x="69.824219"/>
      <use xlink:href="#DejaVuSans-75" x="131.005859"/>
      <use xlink:href="#DejaVuSans-6e" x="194.384766"/>
      <use xlink:href="#DejaVuSans-74" x="257.763672"/>
     </g>
    </g>
   </g>
   <g id="line2d_14">
    <path d="M 160.81522 382.84 
L 160.81522 28.51619 
" clip-path="url(#ped41b6eea6)" style="fill: none; stroke: #ff0000; stroke-width: 1.6; stroke-linecap: square"/>
   </g>
   <g id="patch_246">
    <path d="M 64.37 382.84 
L 64.37 10.8 
" style="fill: none; stroke: #000000; stroke-width: 0.8; stroke-linejoin: miter; stroke-linecap: square"/>
   </g>
   <g id="patch_247">
    <path d="M 559.362939 382.84 
L 559.362939 10.8 
" style="fill: none; stroke: #000000; stroke-width: 0.8; stroke-linejoin: miter; stroke-linecap: square"/>
   </g>
   <g id="patch_248">
    <path d="M 64.37 382.84 
L 559.362939 382.84 
" style="fill: none; stroke: #000000; stroke-width: 0.8; stroke-linejoin: miter; stroke-linecap: square"/>
   </g>
   <g id="patch_249">
    <path d="M 64.37 10.8 
L 559.362939 10.8 
" style="fill: none; stroke: #000000; stroke-width: 0.8; stroke-linejoin: miter; stroke-linecap: square"/>
   </g>
   <g id="text_16">
    <!-- $\mu_3 = 2.688$ -->
    <g transform="translate(410.865057 61.649937) scale(0.21 -0.21)">
     <defs>
      <path id="DejaVuSans-Oblique-3bc" d="M -84 -1331 
L 856 3500 
L 1434 3500 
L 1009 1322 
Q 997 1256 987 1175 
Q 978 1094 978 1013 
Q 978 722 1161 565 
Q 1344 409 1684 409 
Q 2147 409 2431 671 
Q 2716 934 2816 1459 
L 3213 3500 
L 3788 3500 
L 3266 809 
Q 3253 750 3248 706 
Q 3244 663 3244 628 
Q 3244 531 3283 486 
Q 3322 441 3406 441 
Q 3438 441 3492 456 
Q 3547 472 3647 513 
L 3559 50 
Q 3422 -19 3297 -55 
Q 3172 -91 3053 -91 
Q 2847 -91 2730 40 
Q 2613 172 2613 403 
Q 2438 153 2195 31 
Q 1953 -91 1625 -91 
Q 1334 -91 1117 43 
Q 900 178 831 397 
L 494 -1331 
L -84 -1331 
z
" transform="scale(0.015625)"/>
      <path id="DejaVuSans-3d" d="M 678 2906 
L 4684 2906 
L 4684 2381 
L 678 2381 
L 678 2906 
z
M 678 1631 
L 4684 1631 
L 4684 1100 
L 678 1100 
L 678 1631 
z
" transform="scale(0.015625)"/>
     </defs>
     <use xlink:href="#DejaVuSans-Oblique-3bc" transform="translate(0 0.78125)"/>
     <use xlink:href="#DejaVuSans-33" transform="translate(63.623047 -15.625) scale(0.7)"/>
     <use xlink:href="#DejaVuSans-3d" transform="translate(130.375977 0.78125)"/>
     <use xlink:href="#DejaVuSans-32" transform="translate(233.647461 0.78125)"/>
     <use xlink:href="#DejaVuSans-2e" transform="translate(297.270508 0.78125)"/>
     <use xlink:href="#DejaVuSans-36" transform="translate(329.057617 0.78125)"/>
     <use xlink:href="#DejaVuSans-38" transform="translate(392.680664 0.78125)"/>
     <use xlink:href="#DejaVuSans-38" transform="translate(456.303711 0.78125)"/>
    </g>
    <!-- $\sigma_3 = 1.038$ -->
    <g transform="translate(410.865057 85.208) scale(0.21 -0.21)">
     <defs>
      <path id="DejaVuSans-Oblique-3c3" d="M 2219 3044 
Q 1744 3044 1422 2700 
Q 1081 2341 969 1747 
Q 844 1119 1044 756 
Q 1241 397 1706 397 
Q 2166 397 2503 759 
Q 2844 1122 2966 1747 
Q 3075 2319 2881 2700 
Q 2700 3044 2219 3044 
z
M 2309 3503 
L 4219 3500 
L 4106 2925 
L 3463 2925 
Q 3706 2438 3575 1747 
Q 3406 888 2884 400 
Q 2359 -91 1609 -91 
Q 856 -91 525 400 
Q 194 888 363 1747 
Q 528 2609 1050 3097 
Q 1484 3503 2309 3503 
z
" transform="scale(0.015625)"/>
     </defs>
     <use xlink:href="#DejaVuSans-Oblique-3c3" transform="translate(0 0.78125)"/>
     <use xlink:href="#DejaVuSans-33" transform="translate(63.378906 -15.625) scale(0.7)"/>
     <use xlink:href="#DejaVuSans-3d" transform="translate(130.131836 0.78125)"/>
     <use xlink:href="#DejaVuSans-31" transform="translate(233.40332 0.78125)"/>
     <use xlink:href="#DejaVuSans-2e" transform="translate(297.026367 0.78125)"/>
     <use xlink:href="#DejaVuSans-30" transform="translate(328.813477 0.78125)"/>
     <use xlink:href="#DejaVuSans-33" transform="translate(392.436523 0.78125)"/>
     <use xlink:href="#DejaVuSans-38" transform="translate(456.05957 0.78125)"/>
    </g>
   </g>
  </g>
 </g>
 <defs>
  <clipPath id="ped41b6eea6">
   <rect x="64.37" y="10.8" width="494.992939" height="372.04"/>
  </clipPath>
 </defs>
</svg>
