<?xml version="1.0" encoding="utf-8" standalone="no"?>
<!DOCTYPE svg PUBLIC "-//W3C//DTD SVG 1.1//EN"
  "http://www.w3.org/Graphics/SVG/1.1/DTD/svg11.dtd">
<svg xmlns:xlink="http://www.w3.org/1999/xlink" width="720pt" height="360pt" viewBox="0 0 720 360" xmlns="http://www.w3.org/2000/svg" version="1.1">
 <metadata>
  <rdf:RDF xmlns:dc="http://purl.org/dc/elements/1.1/" xmlns:cc="http://creativecommons.org/ns#" xmlns:rdf="http://www.w3.org/1999/02/22-rdf-syntax-ns#">
   <cc:Work>
    <dc:type rdf:resource="http://purl.org/dc/dcmitype/StillImage"/>
    <dc:date>2023-10-26T15:14:35.335687</dc:date>
    <dc:format>image/svg+xml</dc:format>
    <dc:creator>
     <cc:Agent>
      <dc:title>Matplotlib v3.7.2, https://matplotlib.org/</dc:title>
     </cc:Agent>
    </dc:creator>
   </cc:Work>
  </rdf:RDF>
 </metadata>
 <defs>
  <style type="text/css">*{stroke-linejoin: round; stroke-linecap: butt}</style>
 </defs>
 <g id="figure_1">
  <g id="patch_1">
   <path d="M 0 360 
L 720 360 
L 720 0 
L 0 0 
z
" style="fill: #ffffff"/>
  </g>
  <g id="axes_1">
   <g id="patch_2">
    <path d="M 90 320.4 
L 648 320.4 
L 648 43.2 
L 90 43.2 
z
" style="fill: #ffffff"/>
   </g>
   <g id="patch_3">
    <path d="M 115.363636 320.4 
L 117.451178 320.4 
L 117.451178 320.192616 
L 115.363636 320.192616 
z
" clip-path="url(#p4e019b2ff3)" style="fill: #1f77b4"/>
   </g>
   <g id="patch_4">
    <path d="M 117.451178 320.4 
L 119.538721 320.4 
L 119.538721 320.27557 
L 117.451178 320.27557 
z
" clip-path="url(#p4e019b2ff3)" style="fill: #1f77b4"/>
   </g>
   <g id="patch_5">
    <path d="M 119.538721 320.4 
L 121.626263 320.4 
L 121.626263 320.151139 
L 119.538721 320.151139 
z
" clip-path="url(#p4e019b2ff3)" style="fill: #1f77b4"/>
   </g>
   <g id="patch_6">
    <path d="M 121.626263 320.4 
L 123.713805 320.4 
L 123.713805 319.570463 
L 121.626263 319.570463 
z
" clip-path="url(#p4e019b2ff3)" style="fill: #1f77b4"/>
   </g>
   <g id="patch_7">
    <path d="M 123.713805 320.4 
L 125.801347 320.4 
L 125.801347 319.031265 
L 123.713805 319.031265 
z
" clip-path="url(#p4e019b2ff3)" style="fill: #1f77b4"/>
   </g>
   <g id="patch_8">
    <path d="M 125.801347 320.4 
L 127.888889 320.4 
L 127.888889 318.57502 
L 125.801347 318.57502 
z
" clip-path="url(#p4e019b2ff3)" style="fill: #1f77b4"/>
   </g>
   <g id="patch_9">
    <path d="M 127.888889 320.4 
L 129.976431 320.4 
L 129.976431 317.662529 
L 127.888889 317.662529 
z
" clip-path="url(#p4e019b2ff3)" style="fill: #1f77b4"/>
   </g>
   <g id="patch_10">
    <path d="M 129.976431 320.4 
L 132.063973 320.4 
L 132.063973 316.87447 
L 129.976431 316.87447 
z
" clip-path="url(#p4e019b2ff3)" style="fill: #1f77b4"/>
   </g>
   <g id="patch_11">
    <path d="M 132.063973 320.4 
L 134.151515 320.4 
L 134.151515 314.966536 
L 132.063973 314.966536 
z
" clip-path="url(#p4e019b2ff3)" style="fill: #1f77b4"/>
   </g>
   <g id="patch_12">
    <path d="M 134.151515 320.4 
L 136.239057 320.4 
L 136.239057 312.436449 
L 134.151515 312.436449 
z
" clip-path="url(#p4e019b2ff3)" style="fill: #1f77b4"/>
   </g>
   <g id="patch_13">
    <path d="M 136.239057 320.4 
L 138.326599 320.4 
L 138.326599 310.404085 
L 136.239057 310.404085 
z
" clip-path="url(#p4e019b2ff3)" style="fill: #1f77b4"/>
   </g>
   <g id="patch_14">
    <path d="M 138.326599 320.4 
L 140.414141 320.4 
L 140.414141 307.044462 
L 138.326599 307.044462 
z
" clip-path="url(#p4e019b2ff3)" style="fill: #1f77b4"/>
   </g>
   <g id="patch_15">
    <path d="M 140.414141 320.4 
L 142.501684 320.4 
L 142.501684 305.841634 
L 140.414141 305.841634 
z
" clip-path="url(#p4e019b2ff3)" style="fill: #1f77b4"/>
   </g>
   <g id="patch_16">
    <path d="M 142.501684 320.4 
L 144.589226 320.4 
L 144.589226 300.988845 
L 142.501684 300.988845 
z
" clip-path="url(#p4e019b2ff3)" style="fill: #1f77b4"/>
   </g>
   <g id="patch_17">
    <path d="M 144.589226 320.4 
L 146.676768 320.4 
L 146.676768 302.440534 
L 144.589226 302.440534 
z
" clip-path="url(#p4e019b2ff3)" style="fill: #1f77b4"/>
   </g>
   <g id="patch_18">
    <path d="M 146.676768 320.4 
L 148.76431 320.4 
L 148.76431 299.246819 
L 146.676768 299.246819 
z
" clip-path="url(#p4e019b2ff3)" style="fill: #1f77b4"/>
   </g>
   <g id="patch_19">
    <path d="M 148.76431 320.4 
L 150.851852 320.4 
L 150.851852 292.69348 
L 148.76431 292.69348 
z
" clip-path="url(#p4e019b2ff3)" style="fill: #1f77b4"/>
   </g>
   <g id="patch_20">
    <path d="M 150.851852 320.4 
L 152.939394 320.4 
L 152.939394 288.462844 
L 150.851852 288.462844 
z
" clip-path="url(#p4e019b2ff3)" style="fill: #1f77b4"/>
   </g>
   <g id="patch_21">
    <path d="M 152.939394 320.4 
L 155.026936 320.4 
L 155.026936 287.716261 
L 152.939394 287.716261 
z
" clip-path="url(#p4e019b2ff3)" style="fill: #1f77b4"/>
   </g>
   <g id="patch_22">
    <path d="M 155.026936 320.4 
L 157.114478 320.4 
L 157.114478 281.619167 
L 155.026936 281.619167 
z
" clip-path="url(#p4e019b2ff3)" style="fill: #1f77b4"/>
   </g>
   <g id="patch_23">
    <path d="M 157.114478 320.4 
L 159.20202 320.4 
L 159.20202 279.379419 
L 157.114478 279.379419 
z
" clip-path="url(#p4e019b2ff3)" style="fill: #1f77b4"/>
   </g>
   <g id="patch_24">
    <path d="M 159.20202 320.4 
L 161.289562 320.4 
L 161.289562 271.291438 
L 159.20202 271.291438 
z
" clip-path="url(#p4e019b2ff3)" style="fill: #1f77b4"/>
   </g>
   <g id="patch_25">
    <path d="M 161.289562 320.4 
L 163.377104 320.4 
L 163.377104 262.622781 
L 161.289562 262.622781 
z
" clip-path="url(#p4e019b2ff3)" style="fill: #1f77b4"/>
   </g>
   <g id="patch_26">
    <path d="M 163.377104 320.4 
L 165.464646 320.4 
L 165.464646 254.991045 
L 163.377104 254.991045 
z
" clip-path="url(#p4e019b2ff3)" style="fill: #1f77b4"/>
   </g>
   <g id="patch_27">
    <path d="M 165.464646 320.4 
L 167.552189 320.4 
L 167.552189 245.700236 
L 165.464646 245.700236 
z
" clip-path="url(#p4e019b2ff3)" style="fill: #1f77b4"/>
   </g>
   <g id="patch_28">
    <path d="M 167.552189 320.4 
L 169.639731 320.4 
L 169.639731 241.842891 
L 167.552189 241.842891 
z
" clip-path="url(#p4e019b2ff3)" style="fill: #1f77b4"/>
   </g>
   <g id="patch_29">
    <path d="M 169.639731 320.4 
L 171.727273 320.4 
L 171.727273 232.386174 
L 169.639731 232.386174 
z
" clip-path="url(#p4e019b2ff3)" style="fill: #1f77b4"/>
   </g>
   <g id="patch_30">
    <path d="M 171.727273 320.4 
L 173.814815 320.4 
L 173.814815 232.137313 
L 171.727273 232.137313 
z
" clip-path="url(#p4e019b2ff3)" style="fill: #1f77b4"/>
   </g>
   <g id="patch_31">
    <path d="M 173.814815 320.4 
L 175.902357 320.4 
L 175.902357 219.818696 
L 173.814815 219.818696 
z
" clip-path="url(#p4e019b2ff3)" style="fill: #1f77b4"/>
   </g>
   <g id="patch_32">
    <path d="M 175.902357 320.4 
L 177.989899 320.4 
L 177.989899 212.18696 
L 175.902357 212.18696 
z
" clip-path="url(#p4e019b2ff3)" style="fill: #1f77b4"/>
   </g>
   <g id="patch_33">
    <path d="M 177.989899 320.4 
L 180.077441 320.4 
L 180.077441 207.08531 
L 177.989899 207.08531 
z
" clip-path="url(#p4e019b2ff3)" style="fill: #1f77b4"/>
   </g>
   <g id="patch_34">
    <path d="M 180.077441 320.4 
L 182.164983 320.4 
L 182.164983 199.702435 
L 180.077441 199.702435 
z
" clip-path="url(#p4e019b2ff3)" style="fill: #1f77b4"/>
   </g>
   <g id="patch_35">
    <path d="M 182.164983 320.4 
L 184.252525 320.4 
L 184.252525 189.58209 
L 182.164983 189.58209 
z
" clip-path="url(#p4e019b2ff3)" style="fill: #1f77b4"/>
   </g>
   <g id="patch_36">
    <path d="M 184.252525 320.4 
L 186.340067 320.4 
L 186.340067 179.752082 
L 184.252525 179.752082 
z
" clip-path="url(#p4e019b2ff3)" style="fill: #1f77b4"/>
   </g>
   <g id="patch_37">
    <path d="M 186.340067 320.4 
L 188.427609 320.4 
L 188.427609 171.166379 
L 186.340067 171.166379 
z
" clip-path="url(#p4e019b2ff3)" style="fill: #1f77b4"/>
   </g>
   <g id="patch_38">
    <path d="M 188.427609 320.4 
L 190.515152 320.4 
L 190.515152 158.018225 
L 188.427609 158.018225 
z
" clip-path="url(#p4e019b2ff3)" style="fill: #1f77b4"/>
   </g>
   <g id="patch_39">
    <path d="M 190.515152 320.4 
L 192.602694 320.4 
L 192.602694 159.718775 
L 190.515152 159.718775 
z
" clip-path="url(#p4e019b2ff3)" style="fill: #1f77b4"/>
   </g>
   <g id="patch_40">
    <path d="M 192.602694 320.4 
L 194.690236 320.4 
L 194.690236 145.284839 
L 192.602694 145.284839 
z
" clip-path="url(#p4e019b2ff3)" style="fill: #1f77b4"/>
   </g>
   <g id="patch_41">
    <path d="M 194.690236 320.4 
L 196.777778 320.4 
L 196.777778 142.091123 
L 194.690236 142.091123 
z
" clip-path="url(#p4e019b2ff3)" style="fill: #1f77b4"/>
   </g>
   <g id="patch_42">
    <path d="M 196.777778 320.4 
L 198.86532 320.4 
L 198.86532 127.823095 
L 196.777778 127.823095 
z
" clip-path="url(#p4e019b2ff3)" style="fill: #1f77b4"/>
   </g>
   <g id="patch_43">
    <path d="M 198.86532 320.4 
L 200.952862 320.4 
L 200.952862 121.22828 
L 198.86532 121.22828 
z
" clip-path="url(#p4e019b2ff3)" style="fill: #1f77b4"/>
   </g>
   <g id="patch_44">
    <path d="M 200.952862 320.4 
L 203.040404 320.4 
L 203.040404 125.583346 
L 200.952862 125.583346 
z
" clip-path="url(#p4e019b2ff3)" style="fill: #1f77b4"/>
   </g>
   <g id="patch_45">
    <path d="M 203.040404 320.4 
L 205.127946 320.4 
L 205.127946 119.278869 
L 203.040404 119.278869 
z
" clip-path="url(#p4e019b2ff3)" style="fill: #1f77b4"/>
   </g>
   <g id="patch_46">
    <path d="M 205.127946 320.4 
L 207.215488 320.4 
L 207.215488 111.81304 
L 205.127946 111.81304 
z
" clip-path="url(#p4e019b2ff3)" style="fill: #1f77b4"/>
   </g>
   <g id="patch_47">
    <path d="M 207.215488 320.4 
L 209.30303 320.4 
L 209.30303 101.112019 
L 207.215488 101.112019 
z
" clip-path="url(#p4e019b2ff3)" style="fill: #1f77b4"/>
   </g>
   <g id="patch_48">
    <path d="M 209.30303 320.4 
L 211.390572 320.4 
L 211.390572 96.1348 
L 209.30303 96.1348 
z
" clip-path="url(#p4e019b2ff3)" style="fill: #1f77b4"/>
   </g>
   <g id="patch_49">
    <path d="M 211.390572 320.4 
L 213.478114 320.4 
L 213.478114 95.844462 
L 211.390572 95.844462 
z
" clip-path="url(#p4e019b2ff3)" style="fill: #1f77b4"/>
   </g>
   <g id="patch_50">
    <path d="M 213.478114 320.4 
L 215.565657 320.4 
L 215.565657 86.843991 
L 213.478114 86.843991 
z
" clip-path="url(#p4e019b2ff3)" style="fill: #1f77b4"/>
   </g>
   <g id="patch_51">
    <path d="M 215.565657 320.4 
L 217.653199 320.4 
L 217.653199 83.028123 
L 215.565657 83.028123 
z
" clip-path="url(#p4e019b2ff3)" style="fill: #1f77b4"/>
   </g>
   <g id="patch_52">
    <path d="M 217.653199 320.4 
L 219.740741 320.4 
L 219.740741 78.756009 
L 217.653199 78.756009 
z
" clip-path="url(#p4e019b2ff3)" style="fill: #1f77b4"/>
   </g>
   <g id="patch_53">
    <path d="M 219.740741 320.4 
L 221.828283 320.4 
L 221.828283 79.212255 
L 219.740741 79.212255 
z
" clip-path="url(#p4e019b2ff3)" style="fill: #1f77b4"/>
   </g>
   <g id="patch_54">
    <path d="M 221.828283 320.4 
L 223.915825 320.4 
L 223.915825 69.838492 
L 221.828283 69.838492 
z
" clip-path="url(#p4e019b2ff3)" style="fill: #1f77b4"/>
   </g>
   <g id="patch_55">
    <path d="M 223.915825 320.4 
L 226.003367 320.4 
L 226.003367 66.686253 
L 223.915825 66.686253 
z
" clip-path="url(#p4e019b2ff3)" style="fill: #1f77b4"/>
   </g>
   <g id="patch_56">
    <path d="M 226.003367 320.4 
L 228.090909 320.4 
L 228.090909 66.520346 
L 226.003367 66.520346 
z
" clip-path="url(#p4e019b2ff3)" style="fill: #1f77b4"/>
   </g>
   <g id="patch_57">
    <path d="M 228.090909 320.4 
L 230.178451 320.4 
L 230.178451 66.976591 
L 228.090909 66.976591 
z
" clip-path="url(#p4e019b2ff3)" style="fill: #1f77b4"/>
   </g>
   <g id="patch_58">
    <path d="M 230.178451 320.4 
L 232.265993 320.4 
L 232.265993 61.418696 
L 230.178451 61.418696 
z
" clip-path="url(#p4e019b2ff3)" style="fill: #1f77b4"/>
   </g>
   <g id="patch_59">
    <path d="M 232.265993 320.4 
L 234.353535 320.4 
L 234.353535 62.372663 
L 232.265993 62.372663 
z
" clip-path="url(#p4e019b2ff3)" style="fill: #1f77b4"/>
   </g>
   <g id="patch_60">
    <path d="M 234.353535 320.4 
L 236.441077 320.4 
L 236.441077 71.207227 
L 234.353535 71.207227 
z
" clip-path="url(#p4e019b2ff3)" style="fill: #1f77b4"/>
   </g>
   <g id="patch_61">
    <path d="M 236.441077 320.4 
L 238.52862 320.4 
L 238.52862 56.4 
L 236.441077 56.4 
z
" clip-path="url(#p4e019b2ff3)" style="fill: #1f77b4"/>
   </g>
   <g id="patch_62">
    <path d="M 238.52862 320.4 
L 240.616162 320.4 
L 240.616162 58.22498 
L 238.52862 58.22498 
z
" clip-path="url(#p4e019b2ff3)" style="fill: #1f77b4"/>
   </g>
   <g id="patch_63">
    <path d="M 240.616162 320.4 
L 242.703704 320.4 
L 242.703704 61.667557 
L 240.616162 61.667557 
z
" clip-path="url(#p4e019b2ff3)" style="fill: #1f77b4"/>
   </g>
   <g id="patch_64">
    <path d="M 242.703704 320.4 
L 244.791246 320.4 
L 244.791246 69.506677 
L 242.703704 69.506677 
z
" clip-path="url(#p4e019b2ff3)" style="fill: #1f77b4"/>
   </g>
   <g id="patch_65">
    <path d="M 244.791246 320.4 
L 246.878788 320.4 
L 246.878788 68.760094 
L 244.791246 68.760094 
z
" clip-path="url(#p4e019b2ff3)" style="fill: #1f77b4"/>
   </g>
   <g id="patch_66">
    <path d="M 246.878788 320.4 
L 248.96633 320.4 
L 248.96633 63.575491 
L 246.878788 63.575491 
z
" clip-path="url(#p4e019b2ff3)" style="fill: #1f77b4"/>
   </g>
   <g id="patch_67">
    <path d="M 248.96633 320.4 
L 251.053872 320.4 
L 251.053872 73.529929 
L 248.96633 73.529929 
z
" clip-path="url(#p4e019b2ff3)" style="fill: #1f77b4"/>
   </g>
   <g id="patch_68">
    <path d="M 251.053872 320.4 
L 253.141414 320.4 
L 253.141414 81.327573 
L 251.053872 81.327573 
z
" clip-path="url(#p4e019b2ff3)" style="fill: #1f77b4"/>
   </g>
   <g id="patch_69">
    <path d="M 253.141414 320.4 
L 255.228956 320.4 
L 255.228956 79.958837 
L 253.141414 79.958837 
z
" clip-path="url(#p4e019b2ff3)" style="fill: #1f77b4"/>
   </g>
   <g id="patch_70">
    <path d="M 255.228956 320.4 
L 257.316498 320.4 
L 257.316498 82.157109 
L 255.228956 82.157109 
z
" clip-path="url(#p4e019b2ff3)" style="fill: #1f77b4"/>
   </g>
   <g id="patch_71">
    <path d="M 257.316498 320.4 
L 259.40404 320.4 
L 259.40404 85.392302 
L 257.316498 85.392302 
z
" clip-path="url(#p4e019b2ff3)" style="fill: #1f77b4"/>
   </g>
   <g id="patch_72">
    <path d="M 259.40404 320.4 
L 261.491582 320.4 
L 261.491582 86.346269 
L 259.40404 86.346269 
z
" clip-path="url(#p4e019b2ff3)" style="fill: #1f77b4"/>
   </g>
   <g id="patch_73">
    <path d="M 261.491582 320.4 
L 263.579125 320.4 
L 263.579125 91.406441 
L 261.491582 91.406441 
z
" clip-path="url(#p4e019b2ff3)" style="fill: #1f77b4"/>
   </g>
   <g id="patch_74">
    <path d="M 263.579125 320.4 
L 265.666667 320.4 
L 265.666667 99.66033 
L 263.579125 99.66033 
z
" clip-path="url(#p4e019b2ff3)" style="fill: #1f77b4"/>
   </g>
   <g id="patch_75">
    <path d="M 265.666667 320.4 
L 267.754209 320.4 
L 267.754209 106.504006 
L 265.666667 106.504006 
z
" clip-path="url(#p4e019b2ff3)" style="fill: #1f77b4"/>
   </g>
   <g id="patch_76">
    <path d="M 267.754209 320.4 
L 269.841751 320.4 
L 269.841751 110.527258 
L 267.754209 110.527258 
z
" clip-path="url(#p4e019b2ff3)" style="fill: #1f77b4"/>
   </g>
   <g id="patch_77">
    <path d="M 269.841751 320.4 
L 271.929293 320.4 
L 271.929293 115.960723 
L 269.841751 115.960723 
z
" clip-path="url(#p4e019b2ff3)" style="fill: #1f77b4"/>
   </g>
   <g id="patch_78">
    <path d="M 271.929293 320.4 
L 274.016835 320.4 
L 274.016835 117.453888 
L 271.929293 117.453888 
z
" clip-path="url(#p4e019b2ff3)" style="fill: #1f77b4"/>
   </g>
   <g id="patch_79">
    <path d="M 274.016835 320.4 
L 276.104377 320.4 
L 276.104377 129.565122 
L 274.016835 129.565122 
z
" clip-path="url(#p4e019b2ff3)" style="fill: #1f77b4"/>
   </g>
   <g id="patch_80">
    <path d="M 276.104377 320.4 
L 278.191919 320.4 
L 278.191919 130.89238 
L 276.104377 130.89238 
z
" clip-path="url(#p4e019b2ff3)" style="fill: #1f77b4"/>
   </g>
   <g id="patch_81">
    <path d="M 278.191919 320.4 
L 280.279461 320.4 
L 280.279461 135.288924 
L 278.191919 135.288924 
z
" clip-path="url(#p4e019b2ff3)" style="fill: #1f77b4"/>
   </g>
   <g id="patch_82">
    <path d="M 280.279461 320.4 
L 282.367003 320.4 
L 282.367003 138.026394 
L 280.279461 138.026394 
z
" clip-path="url(#p4e019b2ff3)" style="fill: #1f77b4"/>
   </g>
   <g id="patch_83">
    <path d="M 282.367003 320.4 
L 284.454545 320.4 
L 284.454545 139.39513 
L 282.367003 139.39513 
z
" clip-path="url(#p4e019b2ff3)" style="fill: #1f77b4"/>
   </g>
   <g id="patch_84">
    <path d="M 284.454545 320.4 
L 286.542088 320.4 
L 286.542088 142.962137 
L 284.454545 142.962137 
z
" clip-path="url(#p4e019b2ff3)" style="fill: #1f77b4"/>
   </g>
   <g id="patch_85">
    <path d="M 286.542088 320.4 
L 288.62963 320.4 
L 288.62963 148.644462 
L 286.542088 148.644462 
z
" clip-path="url(#p4e019b2ff3)" style="fill: #1f77b4"/>
   </g>
   <g id="patch_86">
    <path d="M 288.62963 320.4 
L 290.717172 320.4 
L 290.717172 150.345012 
L 288.62963 150.345012 
z
" clip-path="url(#p4e019b2ff3)" style="fill: #1f77b4"/>
   </g>
   <g id="patch_87">
    <path d="M 290.717172 320.4 
L 292.804714 320.4 
L 292.804714 157.68641 
L 290.717172 157.68641 
z
" clip-path="url(#p4e019b2ff3)" style="fill: #1f77b4"/>
   </g>
   <g id="patch_88">
    <path d="M 292.804714 320.4 
L 294.892256 320.4 
L 294.892256 161.046033 
L 292.804714 161.046033 
z
" clip-path="url(#p4e019b2ff3)" style="fill: #1f77b4"/>
   </g>
   <g id="patch_89">
    <path d="M 294.892256 320.4 
L 296.979798 320.4 
L 296.979798 164.820424 
L 294.892256 164.820424 
z
" clip-path="url(#p4e019b2ff3)" style="fill: #1f77b4"/>
   </g>
   <g id="patch_90">
    <path d="M 296.979798 320.4 
L 299.06734 320.4 
L 299.06734 171.456716 
L 296.979798 171.456716 
z
" clip-path="url(#p4e019b2ff3)" style="fill: #1f77b4"/>
   </g>
   <g id="patch_91">
    <path d="M 299.06734 320.4 
L 301.154882 320.4 
L 301.154882 171.53967 
L 299.06734 171.53967 
z
" clip-path="url(#p4e019b2ff3)" style="fill: #1f77b4"/>
   </g>
   <g id="patch_92">
    <path d="M 301.154882 320.4 
L 303.242424 320.4 
L 303.242424 177.014611 
L 301.154882 177.014611 
z
" clip-path="url(#p4e019b2ff3)" style="fill: #1f77b4"/>
   </g>
   <g id="patch_93">
    <path d="M 303.242424 320.4 
L 305.329966 320.4 
L 305.329966 180.913433 
L 303.242424 180.913433 
z
" clip-path="url(#p4e019b2ff3)" style="fill: #1f77b4"/>
   </g>
   <g id="patch_94">
    <path d="M 305.329966 320.4 
L 307.417508 320.4 
L 307.417508 185.185546 
L 305.329966 185.185546 
z
" clip-path="url(#p4e019b2ff3)" style="fill: #1f77b4"/>
   </g>
   <g id="patch_95">
    <path d="M 307.417508 320.4 
L 309.505051 320.4 
L 309.505051 190.49458 
L 307.417508 190.49458 
z
" clip-path="url(#p4e019b2ff3)" style="fill: #1f77b4"/>
   </g>
   <g id="patch_96">
    <path d="M 309.505051 320.4 
L 311.592593 320.4 
L 311.592593 189.830951 
L 309.505051 189.830951 
z
" clip-path="url(#p4e019b2ff3)" style="fill: #1f77b4"/>
   </g>
   <g id="patch_97">
    <path d="M 311.592593 320.4 
L 313.680135 320.4 
L 313.680135 191.572977 
L 311.592593 191.572977 
z
" clip-path="url(#p4e019b2ff3)" style="fill: #1f77b4"/>
   </g>
   <g id="patch_98">
    <path d="M 313.680135 320.4 
L 315.767677 320.4 
L 315.767677 196.63315 
L 313.680135 196.63315 
z
" clip-path="url(#p4e019b2ff3)" style="fill: #1f77b4"/>
   </g>
   <g id="patch_99">
    <path d="M 315.767677 320.4 
L 317.855219 320.4 
L 317.855219 195.471799 
L 315.767677 195.471799 
z
" clip-path="url(#p4e019b2ff3)" style="fill: #1f77b4"/>
   </g>
   <g id="patch_100">
    <path d="M 317.855219 320.4 
L 319.942761 320.4 
L 319.942761 202.191045 
L 317.855219 202.191045 
z
" clip-path="url(#p4e019b2ff3)" style="fill: #1f77b4"/>
   </g>
   <g id="patch_101">
    <path d="M 319.942761 320.4 
L 322.030303 320.4 
L 322.030303 205.758052 
L 319.942761 205.758052 
z
" clip-path="url(#p4e019b2ff3)" style="fill: #1f77b4"/>
   </g>
   <g id="patch_102">
    <path d="M 322.030303 320.4 
L 324.117845 320.4 
L 324.117845 205.467714 
L 322.030303 205.467714 
z
" clip-path="url(#p4e019b2ff3)" style="fill: #1f77b4"/>
   </g>
   <g id="patch_103">
    <path d="M 324.117845 320.4 
L 326.205387 320.4 
L 326.205387 216.956795 
L 324.117845 216.956795 
z
" clip-path="url(#p4e019b2ff3)" style="fill: #1f77b4"/>
   </g>
   <g id="patch_104">
    <path d="M 326.205387 320.4 
L 328.292929 320.4 
L 328.292929 215.422152 
L 326.205387 215.422152 
z
" clip-path="url(#p4e019b2ff3)" style="fill: #1f77b4"/>
   </g>
   <g id="patch_105">
    <path d="M 328.292929 320.4 
L 330.380471 320.4 
L 330.380471 222.929458 
L 328.292929 222.929458 
z
" clip-path="url(#p4e019b2ff3)" style="fill: #1f77b4"/>
   </g>
   <g id="patch_106">
    <path d="M 330.380471 320.4 
L 332.468013 320.4 
L 332.468013 226.745326 
L 330.380471 226.745326 
z
" clip-path="url(#p4e019b2ff3)" style="fill: #1f77b4"/>
   </g>
   <g id="patch_107">
    <path d="M 332.468013 320.4 
L 334.555556 320.4 
L 334.555556 224.33967 
L 332.468013 224.33967 
z
" clip-path="url(#p4e019b2ff3)" style="fill: #1f77b4"/>
   </g>
   <g id="patch_108">
    <path d="M 334.555556 320.4 
L 336.643098 320.4 
L 336.643098 229.068028 
L 334.555556 229.068028 
z
" clip-path="url(#p4e019b2ff3)" style="fill: #1f77b4"/>
   </g>
   <g id="patch_109">
    <path d="M 336.643098 320.4 
L 338.73064 320.4 
L 338.73064 233.174234 
L 336.643098 233.174234 
z
" clip-path="url(#p4e019b2ff3)" style="fill: #1f77b4"/>
   </g>
   <g id="patch_110">
    <path d="M 338.73064 320.4 
L 340.818182 320.4 
L 340.818182 232.676512 
L 338.73064 232.676512 
z
" clip-path="url(#p4e019b2ff3)" style="fill: #1f77b4"/>
   </g>
   <g id="patch_111">
    <path d="M 340.818182 320.4 
L 342.905724 320.4 
L 342.905724 238.151453 
L 340.818182 238.151453 
z
" clip-path="url(#p4e019b2ff3)" style="fill: #1f77b4"/>
   </g>
   <g id="patch_112">
    <path d="M 342.905724 320.4 
L 344.993266 320.4 
L 344.993266 241.345169 
L 342.905724 241.345169 
z
" clip-path="url(#p4e019b2ff3)" style="fill: #1f77b4"/>
   </g>
   <g id="patch_113">
    <path d="M 344.993266 320.4 
L 347.080808 320.4 
L 347.080808 248.105892 
L 344.993266 248.105892 
z
" clip-path="url(#p4e019b2ff3)" style="fill: #1f77b4"/>
   </g>
   <g id="patch_114">
    <path d="M 347.080808 320.4 
L 349.16835 320.4 
L 349.16835 250.055302 
L 347.080808 250.055302 
z
" clip-path="url(#p4e019b2ff3)" style="fill: #1f77b4"/>
   </g>
   <g id="patch_115">
    <path d="M 349.16835 320.4 
L 351.255892 320.4 
L 351.255892 254.285939 
L 349.16835 254.285939 
z
" clip-path="url(#p4e019b2ff3)" style="fill: #1f77b4"/>
   </g>
   <g id="patch_116">
    <path d="M 351.255892 320.4 
L 353.343434 320.4 
L 353.343434 254.65923 
L 351.255892 254.65923 
z
" clip-path="url(#p4e019b2ff3)" style="fill: #1f77b4"/>
   </g>
   <g id="patch_117">
    <path d="M 353.343434 320.4 
L 355.430976 320.4 
L 355.430976 256.193873 
L 353.343434 256.193873 
z
" clip-path="url(#p4e019b2ff3)" style="fill: #1f77b4"/>
   </g>
   <g id="patch_118">
    <path d="M 355.430976 320.4 
L 357.518519 320.4 
L 357.518519 262.125059 
L 355.430976 262.125059 
z
" clip-path="url(#p4e019b2ff3)" style="fill: #1f77b4"/>
   </g>
   <g id="patch_119">
    <path d="M 357.518519 320.4 
L 359.606061 320.4 
L 359.606061 268.678397 
L 357.518519 268.678397 
z
" clip-path="url(#p4e019b2ff3)" style="fill: #1f77b4"/>
   </g>
   <g id="patch_120">
    <path d="M 359.606061 320.4 
L 361.693603 320.4 
L 361.693603 265.360251 
L 359.606061 265.360251 
z
" clip-path="url(#p4e019b2ff3)" style="fill: #1f77b4"/>
   </g>
   <g id="patch_121">
    <path d="M 361.693603 320.4 
L 363.781145 320.4 
L 363.781145 270.669285 
L 361.693603 270.669285 
z
" clip-path="url(#p4e019b2ff3)" style="fill: #1f77b4"/>
   </g>
   <g id="patch_122">
    <path d="M 363.781145 320.4 
L 365.868687 320.4 
L 365.868687 273.531186 
L 363.781145 273.531186 
z
" clip-path="url(#p4e019b2ff3)" style="fill: #1f77b4"/>
   </g>
   <g id="patch_123">
    <path d="M 365.868687 320.4 
L 367.956229 320.4 
L 367.956229 274.734014 
L 365.868687 274.734014 
z
" clip-path="url(#p4e019b2ff3)" style="fill: #1f77b4"/>
   </g>
   <g id="patch_124">
    <path d="M 367.956229 320.4 
L 370.043771 320.4 
L 370.043771 277.098193 
L 367.956229 277.098193 
z
" clip-path="url(#p4e019b2ff3)" style="fill: #1f77b4"/>
   </g>
   <g id="patch_125">
    <path d="M 370.043771 320.4 
L 372.131313 320.4 
L 372.131313 282.282797 
L 370.043771 282.282797 
z
" clip-path="url(#p4e019b2ff3)" style="fill: #1f77b4"/>
   </g>
   <g id="patch_126">
    <path d="M 372.131313 320.4 
L 374.218855 320.4 
L 374.218855 281.536214 
L 372.131313 281.536214 
z
" clip-path="url(#p4e019b2ff3)" style="fill: #1f77b4"/>
   </g>
   <g id="patch_127">
    <path d="M 374.218855 320.4 
L 376.306397 320.4 
L 376.306397 284.149254 
L 374.218855 284.149254 
z
" clip-path="url(#p4e019b2ff3)" style="fill: #1f77b4"/>
   </g>
   <g id="patch_128">
    <path d="M 376.306397 320.4 
L 378.393939 320.4 
L 378.393939 287.674784 
L 376.306397 287.674784 
z
" clip-path="url(#p4e019b2ff3)" style="fill: #1f77b4"/>
   </g>
   <g id="patch_129">
    <path d="M 378.393939 320.4 
L 380.481481 320.4 
L 380.481481 289.333857 
L 378.393939 289.333857 
z
" clip-path="url(#p4e019b2ff3)" style="fill: #1f77b4"/>
   </g>
   <g id="patch_130">
    <path d="M 380.481481 320.4 
L 382.569024 320.4 
L 382.569024 291.490652 
L 380.481481 291.490652 
z
" clip-path="url(#p4e019b2ff3)" style="fill: #1f77b4"/>
   </g>
   <g id="patch_131">
    <path d="M 382.569024 320.4 
L 384.656566 320.4 
L 384.656566 294.601414 
L 382.569024 294.601414 
z
" clip-path="url(#p4e019b2ff3)" style="fill: #1f77b4"/>
   </g>
   <g id="patch_132">
    <path d="M 384.656566 320.4 
L 386.744108 320.4 
L 386.744108 294.186646 
L 384.656566 294.186646 
z
" clip-path="url(#p4e019b2ff3)" style="fill: #1f77b4"/>
   </g>
   <g id="patch_133">
    <path d="M 386.744108 320.4 
L 388.83165 320.4 
L 388.83165 298.292852 
L 386.744108 298.292852 
z
" clip-path="url(#p4e019b2ff3)" style="fill: #1f77b4"/>
   </g>
   <g id="patch_134">
    <path d="M 388.83165 320.4 
L 390.919192 320.4 
L 390.919192 299.080911 
L 388.83165 299.080911 
z
" clip-path="url(#p4e019b2ff3)" style="fill: #1f77b4"/>
   </g>
   <g id="patch_135">
    <path d="M 390.919192 320.4 
L 393.006734 320.4 
L 393.006734 300.988845 
L 390.919192 300.988845 
z
" clip-path="url(#p4e019b2ff3)" style="fill: #1f77b4"/>
   </g>
   <g id="patch_136">
    <path d="M 393.006734 320.4 
L 395.094276 320.4 
L 395.094276 300.242262 
L 393.006734 300.242262 
z
" clip-path="url(#p4e019b2ff3)" style="fill: #1f77b4"/>
   </g>
   <g id="patch_137">
    <path d="M 395.094276 320.4 
L 397.181818 320.4 
L 397.181818 303.643362 
L 395.094276 303.643362 
z
" clip-path="url(#p4e019b2ff3)" style="fill: #1f77b4"/>
   </g>
   <g id="patch_138">
    <path d="M 397.181818 320.4 
L 399.26936 320.4 
L 399.26936 304.099607 
L 397.181818 304.099607 
z
" clip-path="url(#p4e019b2ff3)" style="fill: #1f77b4"/>
   </g>
   <g id="patch_139">
    <path d="M 399.26936 320.4 
L 401.356902 320.4 
L 401.356902 305.63425 
L 399.26936 305.63425 
z
" clip-path="url(#p4e019b2ff3)" style="fill: #1f77b4"/>
   </g>
   <g id="patch_140">
    <path d="M 401.356902 320.4 
L 403.444444 320.4 
L 403.444444 305.800157 
L 401.356902 305.800157 
z
" clip-path="url(#p4e019b2ff3)" style="fill: #1f77b4"/>
   </g>
   <g id="patch_141">
    <path d="M 403.444444 320.4 
L 405.531987 320.4 
L 405.531987 309.076826 
L 403.444444 309.076826 
z
" clip-path="url(#p4e019b2ff3)" style="fill: #1f77b4"/>
   </g>
   <g id="patch_142">
    <path d="M 405.531987 320.4 
L 407.619529 320.4 
L 407.619529 308.910919 
L 405.531987 308.910919 
z
" clip-path="url(#p4e019b2ff3)" style="fill: #1f77b4"/>
   </g>
   <g id="patch_143">
    <path d="M 407.619529 320.4 
L 409.707071 320.4 
L 409.707071 309.533071 
L 407.619529 309.533071 
z
" clip-path="url(#p4e019b2ff3)" style="fill: #1f77b4"/>
   </g>
   <g id="patch_144">
    <path d="M 409.707071 320.4 
L 411.794613 320.4 
L 411.794613 310.901807 
L 409.707071 310.901807 
z
" clip-path="url(#p4e019b2ff3)" style="fill: #1f77b4"/>
   </g>
   <g id="patch_145">
    <path d="M 411.794613 320.4 
L 413.882155 320.4 
L 413.882155 311.814297 
L 411.794613 311.814297 
z
" clip-path="url(#p4e019b2ff3)" style="fill: #1f77b4"/>
   </g>
   <g id="patch_146">
    <path d="M 413.882155 320.4 
L 415.969697 320.4 
L 415.969697 311.980204 
L 413.882155 311.980204 
z
" clip-path="url(#p4e019b2ff3)" style="fill: #1f77b4"/>
   </g>
   <g id="patch_147">
    <path d="M 415.969697 320.4 
L 418.057239 320.4 
L 418.057239 314.136999 
L 415.969697 314.136999 
z
" clip-path="url(#p4e019b2ff3)" style="fill: #1f77b4"/>
   </g>
   <g id="patch_148">
    <path d="M 418.057239 320.4 
L 420.144781 320.4 
L 420.144781 314.095522 
L 418.057239 314.095522 
z
" clip-path="url(#p4e019b2ff3)" style="fill: #1f77b4"/>
   </g>
   <g id="patch_149">
    <path d="M 420.144781 320.4 
L 422.232323 320.4 
L 422.232323 314.26143 
L 420.144781 314.26143 
z
" clip-path="url(#p4e019b2ff3)" style="fill: #1f77b4"/>
   </g>
   <g id="patch_150">
    <path d="M 422.232323 320.4 
L 424.319865 320.4 
L 424.319865 315.96198 
L 422.232323 315.96198 
z
" clip-path="url(#p4e019b2ff3)" style="fill: #1f77b4"/>
   </g>
   <g id="patch_151">
    <path d="M 424.319865 320.4 
L 426.407407 320.4 
L 426.407407 316.127887 
L 424.319865 316.127887 
z
" clip-path="url(#p4e019b2ff3)" style="fill: #1f77b4"/>
   </g>
   <g id="patch_152">
    <path d="M 426.407407 320.4 
L 428.494949 320.4 
L 428.494949 316.501178 
L 426.407407 316.501178 
z
" clip-path="url(#p4e019b2ff3)" style="fill: #1f77b4"/>
   </g>
   <g id="patch_153">
    <path d="M 428.494949 320.4 
L 430.582492 320.4 
L 430.582492 316.750039 
L 428.494949 316.750039 
z
" clip-path="url(#p4e019b2ff3)" style="fill: #1f77b4"/>
   </g>
   <g id="patch_154">
    <path d="M 430.582492 320.4 
L 432.670034 320.4 
L 432.670034 317.123331 
L 430.582492 317.123331 
z
" clip-path="url(#p4e019b2ff3)" style="fill: #1f77b4"/>
   </g>
   <g id="patch_155">
    <path d="M 432.670034 320.4 
L 434.757576 320.4 
L 434.757576 317.538099 
L 432.670034 317.538099 
z
" clip-path="url(#p4e019b2ff3)" style="fill: #1f77b4"/>
   </g>
   <g id="patch_156">
    <path d="M 434.757576 320.4 
L 436.845118 320.4 
L 436.845118 317.828437 
L 434.757576 317.828437 
z
" clip-path="url(#p4e019b2ff3)" style="fill: #1f77b4"/>
   </g>
   <g id="patch_157">
    <path d="M 436.845118 320.4 
L 438.93266 320.4 
L 438.93266 318.450589 
L 436.845118 318.450589 
z
" clip-path="url(#p4e019b2ff3)" style="fill: #1f77b4"/>
   </g>
   <g id="patch_158">
    <path d="M 438.93266 320.4 
L 441.020202 320.4 
L 441.020202 318.409112 
L 438.93266 318.409112 
z
" clip-path="url(#p4e019b2ff3)" style="fill: #1f77b4"/>
   </g>
   <g id="patch_159">
    <path d="M 441.020202 320.4 
L 443.107744 320.4 
L 443.107744 319.155695 
L 441.020202 319.155695 
z
" clip-path="url(#p4e019b2ff3)" style="fill: #1f77b4"/>
   </g>
   <g id="patch_160">
    <path d="M 443.107744 320.4 
L 445.195286 320.4 
L 445.195286 318.57502 
L 443.107744 318.57502 
z
" clip-path="url(#p4e019b2ff3)" style="fill: #1f77b4"/>
   </g>
   <g id="patch_161">
    <path d="M 445.195286 320.4 
L 447.282828 320.4 
L 447.282828 319.48751 
L 445.195286 319.48751 
z
" clip-path="url(#p4e019b2ff3)" style="fill: #1f77b4"/>
   </g>
   <g id="patch_162">
    <path d="M 447.282828 320.4 
L 449.37037 320.4 
L 449.37037 319.363079 
L 447.282828 319.363079 
z
" clip-path="url(#p4e019b2ff3)" style="fill: #1f77b4"/>
   </g>
   <g id="patch_163">
    <path d="M 449.37037 320.4 
L 451.457912 320.4 
L 451.457912 319.114218 
L 449.37037 319.114218 
z
" clip-path="url(#p4e019b2ff3)" style="fill: #1f77b4"/>
   </g>
   <g id="patch_164">
    <path d="M 451.457912 320.4 
L 453.545455 320.4 
L 453.545455 319.446033 
L 451.457912 319.446033 
z
" clip-path="url(#p4e019b2ff3)" style="fill: #1f77b4"/>
   </g>
   <g id="patch_165">
    <path d="M 453.545455 320.4 
L 455.632997 320.4 
L 455.632997 319.736371 
L 453.545455 319.736371 
z
" clip-path="url(#p4e019b2ff3)" style="fill: #1f77b4"/>
   </g>
   <g id="patch_166">
    <path d="M 455.632997 320.4 
L 457.720539 320.4 
L 457.720539 319.238649 
L 455.632997 319.238649 
z
" clip-path="url(#p4e019b2ff3)" style="fill: #1f77b4"/>
   </g>
   <g id="patch_167">
    <path d="M 457.720539 320.4 
L 459.808081 320.4 
L 459.808081 320.068185 
L 457.720539 320.068185 
z
" clip-path="url(#p4e019b2ff3)" style="fill: #1f77b4"/>
   </g>
   <g id="patch_168">
    <path d="M 459.808081 320.4 
L 461.895623 320.4 
L 461.895623 319.819324 
L 459.808081 319.819324 
z
" clip-path="url(#p4e019b2ff3)" style="fill: #1f77b4"/>
   </g>
   <g id="patch_169">
    <path d="M 461.895623 320.4 
L 463.983165 320.4 
L 463.983165 319.943755 
L 461.895623 319.943755 
z
" clip-path="url(#p4e019b2ff3)" style="fill: #1f77b4"/>
   </g>
   <g id="patch_170">
    <path d="M 463.983165 320.4 
L 466.070707 320.4 
L 466.070707 320.026709 
L 463.983165 320.026709 
z
" clip-path="url(#p4e019b2ff3)" style="fill: #1f77b4"/>
   </g>
   <g id="patch_171">
    <path d="M 466.070707 320.4 
L 468.158249 320.4 
L 468.158249 320.151139 
L 466.070707 320.151139 
z
" clip-path="url(#p4e019b2ff3)" style="fill: #1f77b4"/>
   </g>
   <g id="patch_172">
    <path d="M 468.158249 320.4 
L 470.245791 320.4 
L 470.245791 320.234093 
L 468.158249 320.234093 
z
" clip-path="url(#p4e019b2ff3)" style="fill: #1f77b4"/>
   </g>
   <g id="patch_173">
    <path d="M 470.245791 320.4 
L 472.333333 320.4 
L 472.333333 320.192616 
L 470.245791 320.192616 
z
" clip-path="url(#p4e019b2ff3)" style="fill: #1f77b4"/>
   </g>
   <g id="patch_174">
    <path d="M 472.333333 320.4 
L 474.420875 320.4 
L 474.420875 320.151139 
L 472.333333 320.151139 
z
" clip-path="url(#p4e019b2ff3)" style="fill: #1f77b4"/>
   </g>
   <g id="patch_175">
    <path d="M 474.420875 320.4 
L 476.508418 320.4 
L 476.508418 320.026709 
L 474.420875 320.026709 
z
" clip-path="url(#p4e019b2ff3)" style="fill: #1f77b4"/>
   </g>
   <g id="patch_176">
    <path d="M 476.508418 320.4 
L 478.59596 320.4 
L 478.59596 320.317046 
L 476.508418 320.317046 
z
" clip-path="url(#p4e019b2ff3)" style="fill: #1f77b4"/>
   </g>
   <g id="patch_177">
    <path d="M 478.59596 320.4 
L 480.683502 320.4 
L 480.683502 320.192616 
L 478.59596 320.192616 
z
" clip-path="url(#p4e019b2ff3)" style="fill: #1f77b4"/>
   </g>
   <g id="patch_178">
    <path d="M 480.683502 320.4 
L 482.771044 320.4 
L 482.771044 320.27557 
L 480.683502 320.27557 
z
" clip-path="url(#p4e019b2ff3)" style="fill: #1f77b4"/>
   </g>
   <g id="patch_179">
    <path d="M 482.771044 320.4 
L 484.858586 320.4 
L 484.858586 320.317046 
L 482.771044 320.317046 
z
" clip-path="url(#p4e019b2ff3)" style="fill: #1f77b4"/>
   </g>
   <g id="patch_180">
    <path d="M 484.858586 320.4 
L 486.946128 320.4 
L 486.946128 320.358523 
L 484.858586 320.358523 
z
" clip-path="url(#p4e019b2ff3)" style="fill: #1f77b4"/>
   </g>
   <g id="patch_181">
    <path d="M 486.946128 320.4 
L 489.03367 320.4 
L 489.03367 320.151139 
L 486.946128 320.151139 
z
" clip-path="url(#p4e019b2ff3)" style="fill: #1f77b4"/>
   </g>
   <g id="patch_182">
    <path d="M 489.03367 320.4 
L 491.121212 320.4 
L 491.121212 320.317046 
L 489.03367 320.317046 
z
" clip-path="url(#p4e019b2ff3)" style="fill: #1f77b4"/>
   </g>
   <g id="patch_183">
    <path d="M 491.121212 320.4 
L 493.208754 320.4 
L 493.208754 320.358523 
L 491.121212 320.358523 
z
" clip-path="url(#p4e019b2ff3)" style="fill: #1f77b4"/>
   </g>
   <g id="patch_184">
    <path d="M 493.208754 320.4 
L 495.296296 320.4 
L 495.296296 320.234093 
L 493.208754 320.234093 
z
" clip-path="url(#p4e019b2ff3)" style="fill: #1f77b4"/>
   </g>
   <g id="patch_185">
    <path d="M 495.296296 320.4 
L 497.383838 320.4 
L 497.383838 320.358523 
L 495.296296 320.358523 
z
" clip-path="url(#p4e019b2ff3)" style="fill: #1f77b4"/>
   </g>
   <g id="patch_186">
    <path d="M 497.383838 320.4 
L 499.47138 320.4 
L 499.47138 320.317046 
L 497.383838 320.317046 
z
" clip-path="url(#p4e019b2ff3)" style="fill: #1f77b4"/>
   </g>
   <g id="patch_187">
    <path d="M 499.47138 320.4 
L 501.558923 320.4 
L 501.558923 320.317046 
L 499.47138 320.317046 
z
" clip-path="url(#p4e019b2ff3)" style="fill: #1f77b4"/>
   </g>
   <g id="patch_188">
    <path d="M 501.558923 320.4 
L 503.646465 320.4 
L 503.646465 320.27557 
L 501.558923 320.27557 
z
" clip-path="url(#p4e019b2ff3)" style="fill: #1f77b4"/>
   </g>
   <g id="patch_189">
    <path d="M 503.646465 320.4 
L 505.734007 320.4 
L 505.734007 320.317046 
L 503.646465 320.317046 
z
" clip-path="url(#p4e019b2ff3)" style="fill: #1f77b4"/>
   </g>
   <g id="patch_190">
    <path d="M 505.734007 320.4 
L 507.821549 320.4 
L 507.821549 320.234093 
L 505.734007 320.234093 
z
" clip-path="url(#p4e019b2ff3)" style="fill: #1f77b4"/>
   </g>
   <g id="patch_191">
    <path d="M 507.821549 320.4 
L 509.909091 320.4 
L 509.909091 320.27557 
L 507.821549 320.27557 
z
" clip-path="url(#p4e019b2ff3)" style="fill: #1f77b4"/>
   </g>
   <g id="patch_192">
    <path d="M 509.909091 320.4 
L 511.996633 320.4 
L 511.996633 320.4 
L 509.909091 320.4 
z
" clip-path="url(#p4e019b2ff3)" style="fill: #1f77b4"/>
   </g>
   <g id="patch_193">
    <path d="M 511.996633 320.4 
L 514.084175 320.4 
L 514.084175 320.358523 
L 511.996633 320.358523 
z
" clip-path="url(#p4e019b2ff3)" style="fill: #1f77b4"/>
   </g>
   <g id="patch_194">
    <path d="M 514.084175 320.4 
L 516.171717 320.4 
L 516.171717 320.4 
L 514.084175 320.4 
z
" clip-path="url(#p4e019b2ff3)" style="fill: #1f77b4"/>
   </g>
   <g id="patch_195">
    <path d="M 516.171717 320.4 
L 518.259259 320.4 
L 518.259259 320.4 
L 516.171717 320.4 
z
" clip-path="url(#p4e019b2ff3)" style="fill: #1f77b4"/>
   </g>
   <g id="patch_196">
    <path d="M 518.259259 320.4 
L 520.346801 320.4 
L 520.346801 320.4 
L 518.259259 320.4 
z
" clip-path="url(#p4e019b2ff3)" style="fill: #1f77b4"/>
   </g>
   <g id="patch_197">
    <path d="M 520.346801 320.4 
L 522.434343 320.4 
L 522.434343 320.4 
L 520.346801 320.4 
z
" clip-path="url(#p4e019b2ff3)" style="fill: #1f77b4"/>
   </g>
   <g id="patch_198">
    <path d="M 522.434343 320.4 
L 524.521886 320.4 
L 524.521886 320.4 
L 522.434343 320.4 
z
" clip-path="url(#p4e019b2ff3)" style="fill: #1f77b4"/>
   </g>
   <g id="patch_199">
    <path d="M 524.521886 320.4 
L 526.609428 320.4 
L 526.609428 320.4 
L 524.521886 320.4 
z
" clip-path="url(#p4e019b2ff3)" style="fill: #1f77b4"/>
   </g>
   <g id="patch_200">
    <path d="M 526.609428 320.4 
L 528.69697 320.4 
L 528.69697 320.358523 
L 526.609428 320.358523 
z
" clip-path="url(#p4e019b2ff3)" style="fill: #1f77b4"/>
   </g>
   <g id="patch_201">
    <path d="M 528.69697 320.4 
L 530.784512 320.4 
L 530.784512 320.4 
L 528.69697 320.4 
z
" clip-path="url(#p4e019b2ff3)" style="fill: #1f77b4"/>
   </g>
   <g id="patch_202">
    <path d="M 530.784512 320.4 
L 532.872054 320.4 
L 532.872054 320.4 
L 530.784512 320.4 
z
" clip-path="url(#p4e019b2ff3)" style="fill: #1f77b4"/>
   </g>
   <g id="patch_203">
    <path d="M 532.872054 320.4 
L 534.959596 320.4 
L 534.959596 320.4 
L 532.872054 320.4 
z
" clip-path="url(#p4e019b2ff3)" style="fill: #1f77b4"/>
   </g>
   <g id="patch_204">
    <path d="M 534.959596 320.4 
L 537.047138 320.4 
L 537.047138 320.4 
L 534.959596 320.4 
z
" clip-path="url(#p4e019b2ff3)" style="fill: #1f77b4"/>
   </g>
   <g id="patch_205">
    <path d="M 537.047138 320.4 
L 539.13468 320.4 
L 539.13468 320.4 
L 537.047138 320.4 
z
" clip-path="url(#p4e019b2ff3)" style="fill: #1f77b4"/>
   </g>
   <g id="patch_206">
    <path d="M 539.13468 320.4 
L 541.222222 320.4 
L 541.222222 320.4 
L 539.13468 320.4 
z
" clip-path="url(#p4e019b2ff3)" style="fill: #1f77b4"/>
   </g>
   <g id="patch_207">
    <path d="M 541.222222 320.4 
L 543.309764 320.4 
L 543.309764 320.4 
L 541.222222 320.4 
z
" clip-path="url(#p4e019b2ff3)" style="fill: #1f77b4"/>
   </g>
   <g id="patch_208">
    <path d="M 543.309764 320.4 
L 545.397306 320.4 
L 545.397306 320.4 
L 543.309764 320.4 
z
" clip-path="url(#p4e019b2ff3)" style="fill: #1f77b4"/>
   </g>
   <g id="patch_209">
    <path d="M 545.397306 320.4 
L 547.484848 320.4 
L 547.484848 320.4 
L 545.397306 320.4 
z
" clip-path="url(#p4e019b2ff3)" style="fill: #1f77b4"/>
   </g>
   <g id="patch_210">
    <path d="M 547.484848 320.4 
L 549.572391 320.4 
L 549.572391 320.4 
L 547.484848 320.4 
z
" clip-path="url(#p4e019b2ff3)" style="fill: #1f77b4"/>
   </g>
   <g id="patch_211">
    <path d="M 549.572391 320.4 
L 551.659933 320.4 
L 551.659933 320.4 
L 549.572391 320.4 
z
" clip-path="url(#p4e019b2ff3)" style="fill: #1f77b4"/>
   </g>
   <g id="patch_212">
    <path d="M 551.659933 320.4 
L 553.747475 320.4 
L 553.747475 320.4 
L 551.659933 320.4 
z
" clip-path="url(#p4e019b2ff3)" style="fill: #1f77b4"/>
   </g>
   <g id="patch_213">
    <path d="M 553.747475 320.4 
L 555.835017 320.4 
L 555.835017 320.4 
L 553.747475 320.4 
z
" clip-path="url(#p4e019b2ff3)" style="fill: #1f77b4"/>
   </g>
   <g id="patch_214">
    <path d="M 555.835017 320.4 
L 557.922559 320.4 
L 557.922559 320.4 
L 555.835017 320.4 
z
" clip-path="url(#p4e019b2ff3)" style="fill: #1f77b4"/>
   </g>
   <g id="patch_215">
    <path d="M 557.922559 320.4 
L 560.010101 320.4 
L 560.010101 320.4 
L 557.922559 320.4 
z
" clip-path="url(#p4e019b2ff3)" style="fill: #1f77b4"/>
   </g>
   <g id="patch_216">
    <path d="M 560.010101 320.4 
L 562.097643 320.4 
L 562.097643 320.4 
L 560.010101 320.4 
z
" clip-path="url(#p4e019b2ff3)" style="fill: #1f77b4"/>
   </g>
   <g id="patch_217">
    <path d="M 562.097643 320.4 
L 564.185185 320.4 
L 564.185185 320.4 
L 562.097643 320.4 
z
" clip-path="url(#p4e019b2ff3)" style="fill: #1f77b4"/>
   </g>
   <g id="patch_218">
    <path d="M 564.185185 320.4 
L 566.272727 320.4 
L 566.272727 320.4 
L 564.185185 320.4 
z
" clip-path="url(#p4e019b2ff3)" style="fill: #1f77b4"/>
   </g>
   <g id="patch_219">
    <path d="M 566.272727 320.4 
L 568.360269 320.4 
L 568.360269 320.4 
L 566.272727 320.4 
z
" clip-path="url(#p4e019b2ff3)" style="fill: #1f77b4"/>
   </g>
   <g id="patch_220">
    <path d="M 568.360269 320.4 
L 570.447811 320.4 
L 570.447811 320.4 
L 568.360269 320.4 
z
" clip-path="url(#p4e019b2ff3)" style="fill: #1f77b4"/>
   </g>
   <g id="patch_221">
    <path d="M 570.447811 320.4 
L 572.535354 320.4 
L 572.535354 320.4 
L 570.447811 320.4 
z
" clip-path="url(#p4e019b2ff3)" style="fill: #1f77b4"/>
   </g>
   <g id="patch_222">
    <path d="M 572.535354 320.4 
L 574.622896 320.4 
L 574.622896 320.4 
L 572.535354 320.4 
z
" clip-path="url(#p4e019b2ff3)" style="fill: #1f77b4"/>
   </g>
   <g id="patch_223">
    <path d="M 574.622896 320.4 
L 576.710438 320.4 
L 576.710438 320.4 
L 574.622896 320.4 
z
" clip-path="url(#p4e019b2ff3)" style="fill: #1f77b4"/>
   </g>
   <g id="patch_224">
    <path d="M 576.710438 320.4 
L 578.79798 320.4 
L 578.79798 320.4 
L 576.710438 320.4 
z
" clip-path="url(#p4e019b2ff3)" style="fill: #1f77b4"/>
   </g>
   <g id="patch_225">
    <path d="M 578.79798 320.4 
L 580.885522 320.4 
L 580.885522 320.4 
L 578.79798 320.4 
z
" clip-path="url(#p4e019b2ff3)" style="fill: #1f77b4"/>
   </g>
   <g id="patch_226">
    <path d="M 580.885522 320.4 
L 582.973064 320.4 
L 582.973064 320.4 
L 580.885522 320.4 
z
" clip-path="url(#p4e019b2ff3)" style="fill: #1f77b4"/>
   </g>
   <g id="patch_227">
    <path d="M 582.973064 320.4 
L 585.060606 320.4 
L 585.060606 320.4 
L 582.973064 320.4 
z
" clip-path="url(#p4e019b2ff3)" style="fill: #1f77b4"/>
   </g>
   <g id="patch_228">
    <path d="M 585.060606 320.4 
L 587.148148 320.4 
L 587.148148 320.4 
L 585.060606 320.4 
z
" clip-path="url(#p4e019b2ff3)" style="fill: #1f77b4"/>
   </g>
   <g id="patch_229">
    <path d="M 587.148148 320.4 
L 589.23569 320.4 
L 589.23569 320.4 
L 587.148148 320.4 
z
" clip-path="url(#p4e019b2ff3)" style="fill: #1f77b4"/>
   </g>
   <g id="patch_230">
    <path d="M 589.23569 320.4 
L 591.323232 320.4 
L 591.323232 320.4 
L 589.23569 320.4 
z
" clip-path="url(#p4e019b2ff3)" style="fill: #1f77b4"/>
   </g>
   <g id="patch_231">
    <path d="M 591.323232 320.4 
L 593.410774 320.4 
L 593.410774 320.4 
L 591.323232 320.4 
z
" clip-path="url(#p4e019b2ff3)" style="fill: #1f77b4"/>
   </g>
   <g id="patch_232">
    <path d="M 593.410774 320.4 
L 595.498316 320.4 
L 595.498316 320.4 
L 593.410774 320.4 
z
" clip-path="url(#p4e019b2ff3)" style="fill: #1f77b4"/>
   </g>
   <g id="patch_233">
    <path d="M 595.498316 320.4 
L 597.585859 320.4 
L 597.585859 320.4 
L 595.498316 320.4 
z
" clip-path="url(#p4e019b2ff3)" style="fill: #1f77b4"/>
   </g>
   <g id="patch_234">
    <path d="M 597.585859 320.4 
L 599.673401 320.4 
L 599.673401 320.4 
L 597.585859 320.4 
z
" clip-path="url(#p4e019b2ff3)" style="fill: #1f77b4"/>
   </g>
   <g id="patch_235">
    <path d="M 599.673401 320.4 
L 601.760943 320.4 
L 601.760943 320.4 
L 599.673401 320.4 
z
" clip-path="url(#p4e019b2ff3)" style="fill: #1f77b4"/>
   </g>
   <g id="patch_236">
    <path d="M 601.760943 320.4 
L 603.848485 320.4 
L 603.848485 320.4 
L 601.760943 320.4 
z
" clip-path="url(#p4e019b2ff3)" style="fill: #1f77b4"/>
   </g>
   <g id="patch_237">
    <path d="M 603.848485 320.4 
L 605.936027 320.4 
L 605.936027 320.4 
L 603.848485 320.4 
z
" clip-path="url(#p4e019b2ff3)" style="fill: #1f77b4"/>
   </g>
   <g id="patch_238">
    <path d="M 605.936027 320.4 
L 608.023569 320.4 
L 608.023569 320.4 
L 605.936027 320.4 
z
" clip-path="url(#p4e019b2ff3)" style="fill: #1f77b4"/>
   </g>
   <g id="patch_239">
    <path d="M 608.023569 320.4 
L 610.111111 320.4 
L 610.111111 320.4 
L 608.023569 320.4 
z
" clip-path="url(#p4e019b2ff3)" style="fill: #1f77b4"/>
   </g>
   <g id="patch_240">
    <path d="M 610.111111 320.4 
L 612.198653 320.4 
L 612.198653 320.4 
L 610.111111 320.4 
z
" clip-path="url(#p4e019b2ff3)" style="fill: #1f77b4"/>
   </g>
   <g id="patch_241">
    <path d="M 612.198653 320.4 
L 614.286195 320.4 
L 614.286195 320.4 
L 612.198653 320.4 
z
" clip-path="url(#p4e019b2ff3)" style="fill: #1f77b4"/>
   </g>
   <g id="patch_242">
    <path d="M 614.286195 320.4 
L 616.373737 320.4 
L 616.373737 320.4 
L 614.286195 320.4 
z
" clip-path="url(#p4e019b2ff3)" style="fill: #1f77b4"/>
   </g>
   <g id="patch_243">
    <path d="M 616.373737 320.4 
L 618.461279 320.4 
L 618.461279 320.4 
L 616.373737 320.4 
z
" clip-path="url(#p4e019b2ff3)" style="fill: #1f77b4"/>
   </g>
   <g id="patch_244">
    <path d="M 618.461279 320.4 
L 620.548822 320.4 
L 620.548822 320.4 
L 618.461279 320.4 
z
" clip-path="url(#p4e019b2ff3)" style="fill: #1f77b4"/>
   </g>
   <g id="patch_245">
    <path d="M 620.548822 320.4 
L 622.636364 320.4 
L 622.636364 320.358523 
L 620.548822 320.358523 
z
" clip-path="url(#p4e019b2ff3)" style="fill: #1f77b4"/>
   </g>
   <g id="matplotlib.axis_1">
    <g id="xtick_1">
     <g id="line2d_1">
      <defs>
       <path id="m3014ad353e" d="M 0 0 
L 0 3.5 
" style="stroke: #000000; stroke-width: 0.8"/>
      </defs>
      <g>
       <use xlink:href="#m3014ad353e" x="112.295075" y="320.4" style="stroke: #000000; stroke-width: 0.8"/>
      </g>
     </g>
     <g id="text_1">
      <!-- 0 -->
      <g transform="translate(109.113825 334.998438) scale(0.1 -0.1)">
       <defs>
        <path id="DejaVuSans-30" d="M 2034 4250 
Q 1547 4250 1301 3770 
Q 1056 3291 1056 2328 
Q 1056 1369 1301 889 
Q 1547 409 2034 409 
Q 2525 409 2770 889 
Q 3016 1369 3016 2328 
Q 3016 3291 2770 3770 
Q 2525 4250 2034 4250 
z
M 2034 4750 
Q 2819 4750 3233 4129 
Q 3647 3509 3647 2328 
Q 3647 1150 3233 529 
Q 2819 -91 2034 -91 
Q 1250 -91 836 529 
Q 422 1150 422 2328 
Q 422 3509 836 4129 
Q 1250 4750 2034 4750 
z
" transform="scale(0.015625)"/>
       </defs>
       <use xlink:href="#DejaVuSans-30"/>
      </g>
     </g>
    </g>
    <g id="xtick_2">
     <g id="line2d_2">
      <g>
       <use xlink:href="#m3014ad353e" x="219.309075" y="320.4" style="stroke: #000000; stroke-width: 0.8"/>
      </g>
     </g>
     <g id="text_2">
      <!-- 2 -->
      <g transform="translate(216.127825 334.998438) scale(0.1 -0.1)">
       <defs>
        <path id="DejaVuSans-32" d="M 1228 531 
L 3431 531 
L 3431 0 
L 469 0 
L 469 531 
Q 828 903 1448 1529 
Q 2069 2156 2228 2338 
Q 2531 2678 2651 2914 
Q 2772 3150 2772 3378 
Q 2772 3750 2511 3984 
Q 2250 4219 1831 4219 
Q 1534 4219 1204 4116 
Q 875 4013 500 3803 
L 500 4441 
Q 881 4594 1212 4672 
Q 1544 4750 1819 4750 
Q 2544 4750 2975 4387 
Q 3406 4025 3406 3419 
Q 3406 3131 3298 2873 
Q 3191 2616 2906 2266 
Q 2828 2175 2409 1742 
Q 1991 1309 1228 531 
z
" transform="scale(0.015625)"/>
       </defs>
       <use xlink:href="#DejaVuSans-32"/>
      </g>
     </g>
    </g>
    <g id="xtick_3">
     <g id="line2d_3">
      <g>
       <use xlink:href="#m3014ad353e" x="326.323076" y="320.4" style="stroke: #000000; stroke-width: 0.8"/>
      </g>
     </g>
     <g id="text_3">
      <!-- 4 -->
      <g transform="translate(323.141826 334.998438) scale(0.1 -0.1)">
       <defs>
        <path id="DejaVuSans-34" d="M 2419 4116 
L 825 1625 
L 2419 1625 
L 2419 4116 
z
M 2253 4666 
L 3047 4666 
L 3047 1625 
L 3713 1625 
L 3713 1100 
L 3047 1100 
L 3047 0 
L 2419 0 
L 2419 1100 
L 313 1100 
L 313 1709 
L 2253 4666 
z
" transform="scale(0.015625)"/>
       </defs>
       <use xlink:href="#DejaVuSans-34"/>
      </g>
     </g>
    </g>
    <g id="xtick_4">
     <g id="line2d_4">
      <g>
       <use xlink:href="#m3014ad353e" x="433.337076" y="320.4" style="stroke: #000000; stroke-width: 0.8"/>
      </g>
     </g>
     <g id="text_4">
      <!-- 6 -->
      <g transform="translate(430.155826 334.998438) scale(0.1 -0.1)">
       <defs>
        <path id="DejaVuSans-36" d="M 2113 2584 
Q 1688 2584 1439 2293 
Q 1191 2003 1191 1497 
Q 1191 994 1439 701 
Q 1688 409 2113 409 
Q 2538 409 2786 701 
Q 3034 994 3034 1497 
Q 3034 2003 2786 2293 
Q 2538 2584 2113 2584 
z
M 3366 4563 
L 3366 3988 
Q 3128 4100 2886 4159 
Q 2644 4219 2406 4219 
Q 1781 4219 1451 3797 
Q 1122 3375 1075 2522 
Q 1259 2794 1537 2939 
Q 1816 3084 2150 3084 
Q 2853 3084 3261 2657 
Q 3669 2231 3669 1497 
Q 3669 778 3244 343 
Q 2819 -91 2113 -91 
Q 1303 -91 875 529 
Q 447 1150 447 2328 
Q 447 3434 972 4092 
Q 1497 4750 2381 4750 
Q 2619 4750 2861 4703 
Q 3103 4656 3366 4563 
z
" transform="scale(0.015625)"/>
       </defs>
       <use xlink:href="#DejaVuSans-36"/>
      </g>
     </g>
    </g>
    <g id="xtick_5">
     <g id="line2d_5">
      <g>
       <use xlink:href="#m3014ad353e" x="540.351076" y="320.4" style="stroke: #000000; stroke-width: 0.8"/>
      </g>
     </g>
     <g id="text_5">
      <!-- 8 -->
      <g transform="translate(537.169826 334.998438) scale(0.1 -0.1)">
       <defs>
        <path id="DejaVuSans-38" d="M 2034 2216 
Q 1584 2216 1326 1975 
Q 1069 1734 1069 1313 
Q 1069 891 1326 650 
Q 1584 409 2034 409 
Q 2484 409 2743 651 
Q 3003 894 3003 1313 
Q 3003 1734 2745 1975 
Q 2488 2216 2034 2216 
z
M 1403 2484 
Q 997 2584 770 2862 
Q 544 3141 544 3541 
Q 544 4100 942 4425 
Q 1341 4750 2034 4750 
Q 2731 4750 3128 4425 
Q 3525 4100 3525 3541 
Q 3525 3141 3298 2862 
Q 3072 2584 2669 2484 
Q 3125 2378 3379 2068 
Q 3634 1759 3634 1313 
Q 3634 634 3220 271 
Q 2806 -91 2034 -91 
Q 1263 -91 848 271 
Q 434 634 434 1313 
Q 434 1759 690 2068 
Q 947 2378 1403 2484 
z
M 1172 3481 
Q 1172 3119 1398 2916 
Q 1625 2713 2034 2713 
Q 2441 2713 2670 2916 
Q 2900 3119 2900 3481 
Q 2900 3844 2670 4047 
Q 2441 4250 2034 4250 
Q 1625 4250 1398 4047 
Q 1172 3844 1172 3481 
z
" transform="scale(0.015625)"/>
       </defs>
       <use xlink:href="#DejaVuSans-38"/>
      </g>
     </g>
    </g>
    <g id="xtick_6">
     <g id="line2d_6">
      <g>
       <use xlink:href="#m3014ad353e" x="647.365076" y="320.4" style="stroke: #000000; stroke-width: 0.8"/>
      </g>
     </g>
     <g id="text_6">
      <!-- 10 -->
      <g transform="translate(641.002576 334.998438) scale(0.1 -0.1)">
       <defs>
        <path id="DejaVuSans-31" d="M 794 531 
L 1825 531 
L 1825 4091 
L 703 3866 
L 703 4441 
L 1819 4666 
L 2450 4666 
L 2450 531 
L 3481 531 
L 3481 0 
L 794 0 
L 794 531 
z
" transform="scale(0.015625)"/>
       </defs>
       <use xlink:href="#DejaVuSans-31"/>
       <use xlink:href="#DejaVuSans-30" x="63.623047"/>
      </g>
     </g>
    </g>
    <g id="text_7">
     <!-- abs_diff_vee -->
     <g transform="translate(319.3375 353.235625) scale(0.16 -0.16)">
      <defs>
       <path id="DejaVuSans-61" d="M 2194 1759 
Q 1497 1759 1228 1600 
Q 959 1441 959 1056 
Q 959 750 1161 570 
Q 1363 391 1709 391 
Q 2188 391 2477 730 
Q 2766 1069 2766 1631 
L 2766 1759 
L 2194 1759 
z
M 3341 1997 
L 3341 0 
L 2766 0 
L 2766 531 
Q 2569 213 2275 61 
Q 1981 -91 1556 -91 
Q 1019 -91 701 211 
Q 384 513 384 1019 
Q 384 1609 779 1909 
Q 1175 2209 1959 2209 
L 2766 2209 
L 2766 2266 
Q 2766 2663 2505 2880 
Q 2244 3097 1772 3097 
Q 1472 3097 1187 3025 
Q 903 2953 641 2809 
L 641 3341 
Q 956 3463 1253 3523 
Q 1550 3584 1831 3584 
Q 2591 3584 2966 3190 
Q 3341 2797 3341 1997 
z
" transform="scale(0.015625)"/>
       <path id="DejaVuSans-62" d="M 3116 1747 
Q 3116 2381 2855 2742 
Q 2594 3103 2138 3103 
Q 1681 3103 1420 2742 
Q 1159 2381 1159 1747 
Q 1159 1113 1420 752 
Q 1681 391 2138 391 
Q 2594 391 2855 752 
Q 3116 1113 3116 1747 
z
M 1159 2969 
Q 1341 3281 1617 3432 
Q 1894 3584 2278 3584 
Q 2916 3584 3314 3078 
Q 3713 2572 3713 1747 
Q 3713 922 3314 415 
Q 2916 -91 2278 -91 
Q 1894 -91 1617 61 
Q 1341 213 1159 525 
L 1159 0 
L 581 0 
L 581 4863 
L 1159 4863 
L 1159 2969 
z
" transform="scale(0.015625)"/>
       <path id="DejaVuSans-73" d="M 2834 3397 
L 2834 2853 
Q 2591 2978 2328 3040 
Q 2066 3103 1784 3103 
Q 1356 3103 1142 2972 
Q 928 2841 928 2578 
Q 928 2378 1081 2264 
Q 1234 2150 1697 2047 
L 1894 2003 
Q 2506 1872 2764 1633 
Q 3022 1394 3022 966 
Q 3022 478 2636 193 
Q 2250 -91 1575 -91 
Q 1294 -91 989 -36 
Q 684 19 347 128 
L 347 722 
Q 666 556 975 473 
Q 1284 391 1588 391 
Q 1994 391 2212 530 
Q 2431 669 2431 922 
Q 2431 1156 2273 1281 
Q 2116 1406 1581 1522 
L 1381 1569 
Q 847 1681 609 1914 
Q 372 2147 372 2553 
Q 372 3047 722 3315 
Q 1072 3584 1716 3584 
Q 2034 3584 2315 3537 
Q 2597 3491 2834 3397 
z
" transform="scale(0.015625)"/>
       <path id="DejaVuSans-5f" d="M 3263 -1063 
L 3263 -1509 
L -63 -1509 
L -63 -1063 
L 3263 -1063 
z
" transform="scale(0.015625)"/>
       <path id="DejaVuSans-64" d="M 2906 2969 
L 2906 4863 
L 3481 4863 
L 3481 0 
L 2906 0 
L 2906 525 
Q 2725 213 2448 61 
Q 2172 -91 1784 -91 
Q 1150 -91 751 415 
Q 353 922 353 1747 
Q 353 2572 751 3078 
Q 1150 3584 1784 3584 
Q 2172 3584 2448 3432 
Q 2725 3281 2906 2969 
z
M 947 1747 
Q 947 1113 1208 752 
Q 1469 391 1925 391 
Q 2381 391 2643 752 
Q 2906 1113 2906 1747 
Q 2906 2381 2643 2742 
Q 2381 3103 1925 3103 
Q 1469 3103 1208 2742 
Q 947 2381 947 1747 
z
" transform="scale(0.015625)"/>
       <path id="DejaVuSans-69" d="M 603 3500 
L 1178 3500 
L 1178 0 
L 603 0 
L 603 3500 
z
M 603 4863 
L 1178 4863 
L 1178 4134 
L 603 4134 
L 603 4863 
z
" transform="scale(0.015625)"/>
       <path id="DejaVuSans-66" d="M 2375 4863 
L 2375 4384 
L 1825 4384 
Q 1516 4384 1395 4259 
Q 1275 4134 1275 3809 
L 1275 3500 
L 2222 3500 
L 2222 3053 
L 1275 3053 
L 1275 0 
L 697 0 
L 697 3053 
L 147 3053 
L 147 3500 
L 697 3500 
L 697 3744 
Q 697 4328 969 4595 
Q 1241 4863 1831 4863 
L 2375 4863 
z
" transform="scale(0.015625)"/>
       <path id="DejaVuSans-76" d="M 191 3500 
L 800 3500 
L 1894 563 
L 2988 3500 
L 3597 3500 
L 2284 0 
L 1503 0 
L 191 3500 
z
" transform="scale(0.015625)"/>
       <path id="DejaVuSans-65" d="M 3597 1894 
L 3597 1613 
L 953 1613 
Q 991 1019 1311 708 
Q 1631 397 2203 397 
Q 2534 397 2845 478 
Q 3156 559 3463 722 
L 3463 178 
Q 3153 47 2828 -22 
Q 2503 -91 2169 -91 
Q 1331 -91 842 396 
Q 353 884 353 1716 
Q 353 2575 817 3079 
Q 1281 3584 2069 3584 
Q 2775 3584 3186 3129 
Q 3597 2675 3597 1894 
z
M 3022 2063 
Q 3016 2534 2758 2815 
Q 2500 3097 2075 3097 
Q 1594 3097 1305 2825 
Q 1016 2553 972 2059 
L 3022 2063 
z
" transform="scale(0.015625)"/>
      </defs>
      <use xlink:href="#DejaVuSans-61"/>
      <use xlink:href="#DejaVuSans-62" x="61.279297"/>
      <use xlink:href="#DejaVuSans-73" x="124.755859"/>
      <use xlink:href="#DejaVuSans-5f" x="176.855469"/>
      <use xlink:href="#DejaVuSans-64" x="226.855469"/>
      <use xlink:href="#DejaVuSans-69" x="290.332031"/>
      <use xlink:href="#DejaVuSans-66" x="318.115234"/>
      <use xlink:href="#DejaVuSans-66" x="353.320312"/>
      <use xlink:href="#DejaVuSans-5f" x="388.525391"/>
      <use xlink:href="#DejaVuSans-76" x="438.525391"/>
      <use xlink:href="#DejaVuSans-65" x="497.705078"/>
      <use xlink:href="#DejaVuSans-65" x="559.228516"/>
     </g>
    </g>
   </g>
   <g id="matplotlib.axis_2">
    <g id="ytick_1">
     <g id="line2d_7">
      <defs>
       <path id="m40dc08ad39" d="M 0 0 
L -3.5 0 
" style="stroke: #000000; stroke-width: 0.8"/>
      </defs>
      <g>
       <use xlink:href="#m40dc08ad39" x="90" y="320.4" style="stroke: #000000; stroke-width: 0.8"/>
      </g>
     </g>
     <g id="text_8">
      <!-- 0.00 -->
      <g transform="translate(60.734375 324.199219) scale(0.1 -0.1)">
       <defs>
        <path id="DejaVuSans-2e" d="M 684 794 
L 1344 794 
L 1344 0 
L 684 0 
L 684 794 
z
" transform="scale(0.015625)"/>
       </defs>
       <use xlink:href="#DejaVuSans-30"/>
       <use xlink:href="#DejaVuSans-2e" x="63.623047"/>
       <use xlink:href="#DejaVuSans-30" x="95.410156"/>
       <use xlink:href="#DejaVuSans-30" x="159.033203"/>
      </g>
     </g>
    </g>
    <g id="ytick_2">
     <g id="line2d_8">
      <g>
       <use xlink:href="#m40dc08ad39" x="90" y="287.716802" style="stroke: #000000; stroke-width: 0.8"/>
      </g>
     </g>
     <g id="text_9">
      <!-- 0.05 -->
      <g transform="translate(60.734375 291.516021) scale(0.1 -0.1)">
       <defs>
        <path id="DejaVuSans-35" d="M 691 4666 
L 3169 4666 
L 3169 4134 
L 1269 4134 
L 1269 2991 
Q 1406 3038 1543 3061 
Q 1681 3084 1819 3084 
Q 2600 3084 3056 2656 
Q 3513 2228 3513 1497 
Q 3513 744 3044 326 
Q 2575 -91 1722 -91 
Q 1428 -91 1123 -41 
Q 819 9 494 109 
L 494 744 
Q 775 591 1075 516 
Q 1375 441 1709 441 
Q 2250 441 2565 725 
Q 2881 1009 2881 1497 
Q 2881 1984 2565 2268 
Q 2250 2553 1709 2553 
Q 1456 2553 1204 2497 
Q 953 2441 691 2322 
L 691 4666 
z
" transform="scale(0.015625)"/>
       </defs>
       <use xlink:href="#DejaVuSans-30"/>
       <use xlink:href="#DejaVuSans-2e" x="63.623047"/>
       <use xlink:href="#DejaVuSans-30" x="95.410156"/>
       <use xlink:href="#DejaVuSans-35" x="159.033203"/>
      </g>
     </g>
    </g>
    <g id="ytick_3">
     <g id="line2d_9">
      <g>
       <use xlink:href="#m40dc08ad39" x="90" y="255.033604" style="stroke: #000000; stroke-width: 0.8"/>
      </g>
     </g>
     <g id="text_10">
      <!-- 0.10 -->
      <g transform="translate(60.734375 258.832822) scale(0.1 -0.1)">
       <use xlink:href="#DejaVuSans-30"/>
       <use xlink:href="#DejaVuSans-2e" x="63.623047"/>
       <use xlink:href="#DejaVuSans-31" x="95.410156"/>
       <use xlink:href="#DejaVuSans-30" x="159.033203"/>
      </g>
     </g>
    </g>
    <g id="ytick_4">
     <g id="line2d_10">
      <g>
       <use xlink:href="#m40dc08ad39" x="90" y="222.350405" style="stroke: #000000; stroke-width: 0.8"/>
      </g>
     </g>
     <g id="text_11">
      <!-- 0.15 -->
      <g transform="translate(60.734375 226.149624) scale(0.1 -0.1)">
       <use xlink:href="#DejaVuSans-30"/>
       <use xlink:href="#DejaVuSans-2e" x="63.623047"/>
       <use xlink:href="#DejaVuSans-31" x="95.410156"/>
       <use xlink:href="#DejaVuSans-35" x="159.033203"/>
      </g>
     </g>
    </g>
    <g id="ytick_5">
     <g id="line2d_11">
      <g>
       <use xlink:href="#m40dc08ad39" x="90" y="189.667207" style="stroke: #000000; stroke-width: 0.8"/>
      </g>
     </g>
     <g id="text_12">
      <!-- 0.20 -->
      <g transform="translate(60.734375 193.466426) scale(0.1 -0.1)">
       <use xlink:href="#DejaVuSans-30"/>
       <use xlink:href="#DejaVuSans-2e" x="63.623047"/>
       <use xlink:href="#DejaVuSans-32" x="95.410156"/>
       <use xlink:href="#DejaVuSans-30" x="159.033203"/>
      </g>
     </g>
    </g>
    <g id="ytick_6">
     <g id="line2d_12">
      <g>
       <use xlink:href="#m40dc08ad39" x="90" y="156.984009" style="stroke: #000000; stroke-width: 0.8"/>
      </g>
     </g>
     <g id="text_13">
      <!-- 0.25 -->
      <g transform="translate(60.734375 160.783228) scale(0.1 -0.1)">
       <use xlink:href="#DejaVuSans-30"/>
       <use xlink:href="#DejaVuSans-2e" x="63.623047"/>
       <use xlink:href="#DejaVuSans-32" x="95.410156"/>
       <use xlink:href="#DejaVuSans-35" x="159.033203"/>
      </g>
     </g>
    </g>
    <g id="ytick_7">
     <g id="line2d_13">
      <g>
       <use xlink:href="#m40dc08ad39" x="90" y="124.300811" style="stroke: #000000; stroke-width: 0.8"/>
      </g>
     </g>
     <g id="text_14">
      <!-- 0.30 -->
      <g transform="translate(60.734375 128.10003) scale(0.1 -0.1)">
       <defs>
        <path id="DejaVuSans-33" d="M 2597 2516 
Q 3050 2419 3304 2112 
Q 3559 1806 3559 1356 
Q 3559 666 3084 287 
Q 2609 -91 1734 -91 
Q 1441 -91 1130 -33 
Q 819 25 488 141 
L 488 750 
Q 750 597 1062 519 
Q 1375 441 1716 441 
Q 2309 441 2620 675 
Q 2931 909 2931 1356 
Q 2931 1769 2642 2001 
Q 2353 2234 1838 2234 
L 1294 2234 
L 1294 2753 
L 1863 2753 
Q 2328 2753 2575 2939 
Q 2822 3125 2822 3475 
Q 2822 3834 2567 4026 
Q 2313 4219 1838 4219 
Q 1578 4219 1281 4162 
Q 984 4106 628 3988 
L 628 4550 
Q 988 4650 1302 4700 
Q 1616 4750 1894 4750 
Q 2613 4750 3031 4423 
Q 3450 4097 3450 3541 
Q 3450 3153 3228 2886 
Q 3006 2619 2597 2516 
z
" transform="scale(0.015625)"/>
       </defs>
       <use xlink:href="#DejaVuSans-30"/>
       <use xlink:href="#DejaVuSans-2e" x="63.623047"/>
       <use xlink:href="#DejaVuSans-33" x="95.410156"/>
       <use xlink:href="#DejaVuSans-30" x="159.033203"/>
      </g>
     </g>
    </g>
    <g id="ytick_8">
     <g id="line2d_14">
      <g>
       <use xlink:href="#m40dc08ad39" x="90" y="91.617613" style="stroke: #000000; stroke-width: 0.8"/>
      </g>
     </g>
     <g id="text_15">
      <!-- 0.35 -->
      <g transform="translate(60.734375 95.416831) scale(0.1 -0.1)">
       <use xlink:href="#DejaVuSans-30"/>
       <use xlink:href="#DejaVuSans-2e" x="63.623047"/>
       <use xlink:href="#DejaVuSans-33" x="95.410156"/>
       <use xlink:href="#DejaVuSans-35" x="159.033203"/>
      </g>
     </g>
    </g>
    <g id="ytick_9">
     <g id="line2d_15">
      <g>
       <use xlink:href="#m40dc08ad39" x="90" y="58.934414" style="stroke: #000000; stroke-width: 0.8"/>
      </g>
     </g>
     <g id="text_16">
      <!-- 0.40 -->
      <g transform="translate(60.734375 62.733633) scale(0.1 -0.1)">
       <use xlink:href="#DejaVuSans-30"/>
       <use xlink:href="#DejaVuSans-2e" x="63.623047"/>
       <use xlink:href="#DejaVuSans-34" x="95.410156"/>
       <use xlink:href="#DejaVuSans-30" x="159.033203"/>
      </g>
     </g>
    </g>
    <g id="text_17">
     <!-- Relative frequency -->
     <g transform="translate(53.406875 256.7275) rotate(-90) scale(0.16 -0.16)">
      <defs>
       <path id="DejaVuSans-52" d="M 2841 2188 
Q 3044 2119 3236 1894 
Q 3428 1669 3622 1275 
L 4263 0 
L 3584 0 
L 2988 1197 
Q 2756 1666 2539 1819 
Q 2322 1972 1947 1972 
L 1259 1972 
L 1259 0 
L 628 0 
L 628 4666 
L 2053 4666 
Q 2853 4666 3247 4331 
Q 3641 3997 3641 3322 
Q 3641 2881 3436 2590 
Q 3231 2300 2841 2188 
z
M 1259 4147 
L 1259 2491 
L 2053 2491 
Q 2509 2491 2742 2702 
Q 2975 2913 2975 3322 
Q 2975 3731 2742 3939 
Q 2509 4147 2053 4147 
L 1259 4147 
z
" transform="scale(0.015625)"/>
       <path id="DejaVuSans-6c" d="M 603 4863 
L 1178 4863 
L 1178 0 
L 603 0 
L 603 4863 
z
" transform="scale(0.015625)"/>
       <path id="DejaVuSans-74" d="M 1172 4494 
L 1172 3500 
L 2356 3500 
L 2356 3053 
L 1172 3053 
L 1172 1153 
Q 1172 725 1289 603 
Q 1406 481 1766 481 
L 2356 481 
L 2356 0 
L 1766 0 
Q 1100 0 847 248 
Q 594 497 594 1153 
L 594 3053 
L 172 3053 
L 172 3500 
L 594 3500 
L 594 4494 
L 1172 4494 
z
" transform="scale(0.015625)"/>
       <path id="DejaVuSans-20" transform="scale(0.015625)"/>
       <path id="DejaVuSans-72" d="M 2631 2963 
Q 2534 3019 2420 3045 
Q 2306 3072 2169 3072 
Q 1681 3072 1420 2755 
Q 1159 2438 1159 1844 
L 1159 0 
L 581 0 
L 581 3500 
L 1159 3500 
L 1159 2956 
Q 1341 3275 1631 3429 
Q 1922 3584 2338 3584 
Q 2397 3584 2469 3576 
Q 2541 3569 2628 3553 
L 2631 2963 
z
" transform="scale(0.015625)"/>
       <path id="DejaVuSans-71" d="M 947 1747 
Q 947 1113 1208 752 
Q 1469 391 1925 391 
Q 2381 391 2643 752 
Q 2906 1113 2906 1747 
Q 2906 2381 2643 2742 
Q 2381 3103 1925 3103 
Q 1469 3103 1208 2742 
Q 947 2381 947 1747 
z
M 2906 525 
Q 2725 213 2448 61 
Q 2172 -91 1784 -91 
Q 1150 -91 751 415 
Q 353 922 353 1747 
Q 353 2572 751 3078 
Q 1150 3584 1784 3584 
Q 2172 3584 2448 3432 
Q 2725 3281 2906 2969 
L 2906 3500 
L 3481 3500 
L 3481 -1331 
L 2906 -1331 
L 2906 525 
z
" transform="scale(0.015625)"/>
       <path id="DejaVuSans-75" d="M 544 1381 
L 544 3500 
L 1119 3500 
L 1119 1403 
Q 1119 906 1312 657 
Q 1506 409 1894 409 
Q 2359 409 2629 706 
Q 2900 1003 2900 1516 
L 2900 3500 
L 3475 3500 
L 3475 0 
L 2900 0 
L 2900 538 
Q 2691 219 2414 64 
Q 2138 -91 1772 -91 
Q 1169 -91 856 284 
Q 544 659 544 1381 
z
M 1991 3584 
L 1991 3584 
z
" transform="scale(0.015625)"/>
       <path id="DejaVuSans-6e" d="M 3513 2113 
L 3513 0 
L 2938 0 
L 2938 2094 
Q 2938 2591 2744 2837 
Q 2550 3084 2163 3084 
Q 1697 3084 1428 2787 
Q 1159 2491 1159 1978 
L 1159 0 
L 581 0 
L 581 3500 
L 1159 3500 
L 1159 2956 
Q 1366 3272 1645 3428 
Q 1925 3584 2291 3584 
Q 2894 3584 3203 3211 
Q 3513 2838 3513 2113 
z
" transform="scale(0.015625)"/>
       <path id="DejaVuSans-63" d="M 3122 3366 
L 3122 2828 
Q 2878 2963 2633 3030 
Q 2388 3097 2138 3097 
Q 1578 3097 1268 2742 
Q 959 2388 959 1747 
Q 959 1106 1268 751 
Q 1578 397 2138 397 
Q 2388 397 2633 464 
Q 2878 531 3122 666 
L 3122 134 
Q 2881 22 2623 -34 
Q 2366 -91 2075 -91 
Q 1284 -91 818 406 
Q 353 903 353 1747 
Q 353 2603 823 3093 
Q 1294 3584 2113 3584 
Q 2378 3584 2631 3529 
Q 2884 3475 3122 3366 
z
" transform="scale(0.015625)"/>
       <path id="DejaVuSans-79" d="M 2059 -325 
Q 1816 -950 1584 -1140 
Q 1353 -1331 966 -1331 
L 506 -1331 
L 506 -850 
L 844 -850 
Q 1081 -850 1212 -737 
Q 1344 -625 1503 -206 
L 1606 56 
L 191 3500 
L 800 3500 
L 1894 763 
L 2988 3500 
L 3597 3500 
L 2059 -325 
z
" transform="scale(0.015625)"/>
      </defs>
      <use xlink:href="#DejaVuSans-52"/>
      <use xlink:href="#DejaVuSans-65" x="64.982422"/>
      <use xlink:href="#DejaVuSans-6c" x="126.505859"/>
      <use xlink:href="#DejaVuSans-61" x="154.289062"/>
      <use xlink:href="#DejaVuSans-74" x="215.568359"/>
      <use xlink:href="#DejaVuSans-69" x="254.777344"/>
      <use xlink:href="#DejaVuSans-76" x="282.560547"/>
      <use xlink:href="#DejaVuSans-65" x="341.740234"/>
      <use xlink:href="#DejaVuSans-20" x="403.263672"/>
      <use xlink:href="#DejaVuSans-66" x="435.050781"/>
      <use xlink:href="#DejaVuSans-72" x="470.255859"/>
      <use xlink:href="#DejaVuSans-65" x="509.119141"/>
      <use xlink:href="#DejaVuSans-71" x="570.642578"/>
      <use xlink:href="#DejaVuSans-75" x="634.119141"/>
      <use xlink:href="#DejaVuSans-65" x="697.498047"/>
      <use xlink:href="#DejaVuSans-6e" x="759.021484"/>
      <use xlink:href="#DejaVuSans-63" x="822.400391"/>
      <use xlink:href="#DejaVuSans-79" x="877.380859"/>
     </g>
    </g>
   </g>
   <g id="line2d_16">
    <path d="M 198.721617 320.4 
L 198.721617 56.4 
" clip-path="url(#p4e019b2ff3)" style="fill: none; stroke: #ff0000; stroke-width: 1.6; stroke-linecap: square"/>
   </g>
   <g id="patch_246">
    <path d="M 90 320.4 
L 90 43.2 
" style="fill: none; stroke: #000000; stroke-width: 0.8; stroke-linejoin: miter; stroke-linecap: square"/>
   </g>
   <g id="patch_247">
    <path d="M 648 320.4 
L 648 43.2 
" style="fill: none; stroke: #000000; stroke-width: 0.8; stroke-linejoin: miter; stroke-linecap: square"/>
   </g>
   <g id="patch_248">
    <path d="M 90 320.4 
L 648 320.4 
" style="fill: none; stroke: #000000; stroke-width: 0.8; stroke-linejoin: miter; stroke-linecap: square"/>
   </g>
   <g id="patch_249">
    <path d="M 90 43.2 
L 648 43.2 
" style="fill: none; stroke: #000000; stroke-width: 0.8; stroke-linejoin: miter; stroke-linecap: square"/>
   </g>
   <g id="text_18">
    <!-- $\mu_3 = 2.688$ -->
    <g transform="translate(480.6 77.325562) scale(0.19 -0.19)">
     <defs>
      <path id="DejaVuSans-Oblique-3bc" d="M -84 -1331 
L 856 3500 
L 1434 3500 
L 1009 1322 
Q 997 1256 987 1175 
Q 978 1094 978 1013 
Q 978 722 1161 565 
Q 1344 409 1684 409 
Q 2147 409 2431 671 
Q 2716 934 2816 1459 
L 3213 3500 
L 3788 3500 
L 3266 809 
Q 3253 750 3248 706 
Q 3244 663 3244 628 
Q 3244 531 3283 486 
Q 3322 441 3406 441 
Q 3438 441 3492 456 
Q 3547 472 3647 513 
L 3559 50 
Q 3422 -19 3297 -55 
Q 3172 -91 3053 -91 
Q 2847 -91 2730 40 
Q 2613 172 2613 403 
Q 2438 153 2195 31 
Q 1953 -91 1625 -91 
Q 1334 -91 1117 43 
Q 900 178 831 397 
L 494 -1331 
L -84 -1331 
z
" transform="scale(0.015625)"/>
      <path id="DejaVuSans-3d" d="M 678 2906 
L 4684 2906 
L 4684 2381 
L 678 2381 
L 678 2906 
z
M 678 1631 
L 4684 1631 
L 4684 1100 
L 678 1100 
L 678 1631 
z
" transform="scale(0.015625)"/>
     </defs>
     <use xlink:href="#DejaVuSans-Oblique-3bc" transform="translate(0 0.78125)"/>
     <use xlink:href="#DejaVuSans-33" transform="translate(63.623047 -15.625) scale(0.7)"/>
     <use xlink:href="#DejaVuSans-3d" transform="translate(130.375977 0.78125)"/>
     <use xlink:href="#DejaVuSans-32" transform="translate(233.647461 0.78125)"/>
     <use xlink:href="#DejaVuSans-2e" transform="translate(297.270508 0.78125)"/>
     <use xlink:href="#DejaVuSans-36" transform="translate(329.057617 0.78125)"/>
     <use xlink:href="#DejaVuSans-38" transform="translate(392.680664 0.78125)"/>
     <use xlink:href="#DejaVuSans-38" transform="translate(456.303711 0.78125)"/>
    </g>
    <!-- $\sigma_3 = 1.038$ -->
    <g transform="translate(480.6 98.64) scale(0.19 -0.19)">
     <defs>
      <path id="DejaVuSans-Oblique-3c3" d="M 2219 3044 
Q 1744 3044 1422 2700 
Q 1081 2341 969 1747 
Q 844 1119 1044 756 
Q 1241 397 1706 397 
Q 2166 397 2503 759 
Q 2844 1122 2966 1747 
Q 3075 2319 2881 2700 
Q 2700 3044 2219 3044 
z
M 2309 3503 
L 4219 3500 
L 4106 2925 
L 3463 2925 
Q 3706 2438 3575 1747 
Q 3406 888 2884 400 
Q 2359 -91 1609 -91 
Q 856 -91 525 400 
Q 194 888 363 1747 
Q 528 2609 1050 3097 
Q 1484 3503 2309 3503 
z
" transform="scale(0.015625)"/>
     </defs>
     <use xlink:href="#DejaVuSans-Oblique-3c3" transform="translate(0 0.78125)"/>
     <use xlink:href="#DejaVuSans-33" transform="translate(63.378906 -15.625) scale(0.7)"/>
     <use xlink:href="#DejaVuSans-3d" transform="translate(130.131836 0.78125)"/>
     <use xlink:href="#DejaVuSans-31" transform="translate(233.40332 0.78125)"/>
     <use xlink:href="#DejaVuSans-2e" transform="translate(297.026367 0.78125)"/>
     <use xlink:href="#DejaVuSans-30" transform="translate(328.813477 0.78125)"/>
     <use xlink:href="#DejaVuSans-33" transform="translate(392.436523 0.78125)"/>
     <use xlink:href="#DejaVuSans-38" transform="translate(456.05957 0.78125)"/>
    </g>
   </g>
   <g id="text_19">
    <!-- Distribution of abs_diff_vee -->
    <g transform="translate(246.230156 37.2) scale(0.18 -0.18)">
     <defs>
      <path id="DejaVuSans-44" d="M 1259 4147 
L 1259 519 
L 2022 519 
Q 2988 519 3436 956 
Q 3884 1394 3884 2338 
Q 3884 3275 3436 3711 
Q 2988 4147 2022 4147 
L 1259 4147 
z
M 628 4666 
L 1925 4666 
Q 3281 4666 3915 4102 
Q 4550 3538 4550 2338 
Q 4550 1131 3912 565 
Q 3275 0 1925 0 
L 628 0 
L 628 4666 
z
" transform="scale(0.015625)"/>
      <path id="DejaVuSans-6f" d="M 1959 3097 
Q 1497 3097 1228 2736 
Q 959 2375 959 1747 
Q 959 1119 1226 758 
Q 1494 397 1959 397 
Q 2419 397 2687 759 
Q 2956 1122 2956 1747 
Q 2956 2369 2687 2733 
Q 2419 3097 1959 3097 
z
M 1959 3584 
Q 2709 3584 3137 3096 
Q 3566 2609 3566 1747 
Q 3566 888 3137 398 
Q 2709 -91 1959 -91 
Q 1206 -91 779 398 
Q 353 888 353 1747 
Q 353 2609 779 3096 
Q 1206 3584 1959 3584 
z
" transform="scale(0.015625)"/>
     </defs>
     <use xlink:href="#DejaVuSans-44"/>
     <use xlink:href="#DejaVuSans-69" x="77.001953"/>
     <use xlink:href="#DejaVuSans-73" x="104.785156"/>
     <use xlink:href="#DejaVuSans-74" x="156.884766"/>
     <use xlink:href="#DejaVuSans-72" x="196.09375"/>
     <use xlink:href="#DejaVuSans-69" x="237.207031"/>
     <use xlink:href="#DejaVuSans-62" x="264.990234"/>
     <use xlink:href="#DejaVuSans-75" x="328.466797"/>
     <use xlink:href="#DejaVuSans-74" x="391.845703"/>
     <use xlink:href="#DejaVuSans-69" x="431.054688"/>
     <use xlink:href="#DejaVuSans-6f" x="458.837891"/>
     <use xlink:href="#DejaVuSans-6e" x="520.019531"/>
     <use xlink:href="#DejaVuSans-20" x="583.398438"/>
     <use xlink:href="#DejaVuSans-6f" x="615.185547"/>
     <use xlink:href="#DejaVuSans-66" x="676.367188"/>
     <use xlink:href="#DejaVuSans-20" x="711.572266"/>
     <use xlink:href="#DejaVuSans-61" x="743.359375"/>
     <use xlink:href="#DejaVuSans-62" x="804.638672"/>
     <use xlink:href="#DejaVuSans-73" x="868.115234"/>
     <use xlink:href="#DejaVuSans-5f" x="920.214844"/>
     <use xlink:href="#DejaVuSans-64" x="970.214844"/>
     <use xlink:href="#DejaVuSans-69" x="1033.691406"/>
     <use xlink:href="#DejaVuSans-66" x="1061.474609"/>
     <use xlink:href="#DejaVuSans-66" x="1096.679688"/>
     <use xlink:href="#DejaVuSans-5f" x="1131.884766"/>
     <use xlink:href="#DejaVuSans-76" x="1181.884766"/>
     <use xlink:href="#DejaVuSans-65" x="1241.064453"/>
     <use xlink:href="#DejaVuSans-65" x="1302.587891"/>
    </g>
   </g>
  </g>
 </g>
 <defs>
  <clipPath id="p4e019b2ff3">
   <rect x="90" y="43.2" width="558" height="277.2"/>
  </clipPath>
 </defs>
</svg>
