<?xml version="1.0" encoding="utf-8" standalone="no"?>
<!DOCTYPE svg PUBLIC "-//W3C//DTD SVG 1.1//EN"
  "http://www.w3.org/Graphics/SVG/1.1/DTD/svg11.dtd">
<svg xmlns:xlink="http://www.w3.org/1999/xlink" width="648pt" height="432pt" viewBox="0 0 648 432" xmlns="http://www.w3.org/2000/svg" version="1.1">
 <metadata>
  <rdf:RDF xmlns:dc="http://purl.org/dc/elements/1.1/" xmlns:cc="http://creativecommons.org/ns#" xmlns:rdf="http://www.w3.org/1999/02/22-rdf-syntax-ns#">
   <cc:Work>
    <dc:type rdf:resource="http://purl.org/dc/dcmitype/StillImage"/>
    <dc:date>2024-02-07T23:15:13.655876</dc:date>
    <dc:format>image/svg+xml</dc:format>
    <dc:creator>
     <cc:Agent>
      <dc:title>Matplotlib v3.7.2, https://matplotlib.org/</dc:title>
     </cc:Agent>
    </dc:creator>
   </cc:Work>
  </rdf:RDF>
 </metadata>
 <defs>
  <style type="text/css">*{stroke-linejoin: round; stroke-linecap: butt}</style>
 </defs>
 <g id="figure_1">
  <g id="patch_1">
   <path d="M 0 432 
L 648 432 
L 648 0 
L 0 0 
z
" style="fill: #ffffff"/>
  </g>
  <g id="axes_1">
   <g id="patch_2">
    <path d="M 60.77 370.6 
L 631.426431 370.6 
L 631.426431 10.8 
L 60.77 10.8 
z
" style="fill: #ffffff"/>
   </g>
   <g id="patch_3">
    <path d="M 86.708929 370.6 
L 88.84382 370.6 
L 88.84382 370.33082 
L 86.708929 370.33082 
z
" clip-path="url(#p69e43cf33a)" style="fill: #1f77b4"/>
   </g>
   <g id="patch_4">
    <path d="M 88.84382 370.6 
L 90.978711 370.6 
L 90.978711 370.438492 
L 88.84382 370.438492 
z
" clip-path="url(#p69e43cf33a)" style="fill: #1f77b4"/>
   </g>
   <g id="patch_5">
    <path d="M 90.978711 370.6 
L 93.113602 370.6 
L 93.113602 370.276984 
L 90.978711 370.276984 
z
" clip-path="url(#p69e43cf33a)" style="fill: #1f77b4"/>
   </g>
   <g id="patch_6">
    <path d="M 93.113602 370.6 
L 95.248494 370.6 
L 95.248494 369.523278 
L 93.113602 369.523278 
z
" clip-path="url(#p69e43cf33a)" style="fill: #1f77b4"/>
   </g>
   <g id="patch_7">
    <path d="M 95.248494 370.6 
L 97.383385 370.6 
L 97.383385 368.823409 
L 95.248494 368.823409 
z
" clip-path="url(#p69e43cf33a)" style="fill: #1f77b4"/>
   </g>
   <g id="patch_8">
    <path d="M 97.383385 370.6 
L 99.518276 370.6 
L 99.518276 368.231212 
L 97.383385 368.231212 
z
" clip-path="url(#p69e43cf33a)" style="fill: #1f77b4"/>
   </g>
   <g id="patch_9">
    <path d="M 99.518276 370.6 
L 101.653167 370.6 
L 101.653167 367.046819 
L 99.518276 367.046819 
z
" clip-path="url(#p69e43cf33a)" style="fill: #1f77b4"/>
   </g>
   <g id="patch_10">
    <path d="M 101.653167 370.6 
L 103.788059 370.6 
L 103.788059 366.023933 
L 101.653167 366.023933 
z
" clip-path="url(#p69e43cf33a)" style="fill: #1f77b4"/>
   </g>
   <g id="patch_11">
    <path d="M 103.788059 370.6 
L 105.92295 370.6 
L 105.92295 363.547473 
L 103.788059 363.547473 
z
" clip-path="url(#p69e43cf33a)" style="fill: #1f77b4"/>
   </g>
   <g id="patch_12">
    <path d="M 105.92295 370.6 
L 108.057841 370.6 
L 108.057841 360.263472 
L 105.92295 360.263472 
z
" clip-path="url(#p69e43cf33a)" style="fill: #1f77b4"/>
   </g>
   <g id="patch_13">
    <path d="M 108.057841 370.6 
L 110.192732 370.6 
L 110.192732 357.625504 
L 108.057841 357.625504 
z
" clip-path="url(#p69e43cf33a)" style="fill: #1f77b4"/>
   </g>
   <g id="patch_14">
    <path d="M 110.192732 370.6 
L 112.327624 370.6 
L 112.327624 353.264781 
L 110.192732 353.264781 
z
" clip-path="url(#p69e43cf33a)" style="fill: #1f77b4"/>
   </g>
   <g id="patch_15">
    <path d="M 112.327624 370.6 
L 114.462515 370.6 
L 114.462515 351.703535 
L 112.327624 351.703535 
z
" clip-path="url(#p69e43cf33a)" style="fill: #1f77b4"/>
   </g>
   <g id="patch_16">
    <path d="M 114.462515 370.6 
L 116.597406 370.6 
L 116.597406 345.404713 
L 114.462515 345.404713 
z
" clip-path="url(#p69e43cf33a)" style="fill: #1f77b4"/>
   </g>
   <g id="patch_17">
    <path d="M 116.597406 370.6 
L 118.732297 370.6 
L 118.732297 347.288976 
L 116.597406 347.288976 
z
" clip-path="url(#p69e43cf33a)" style="fill: #1f77b4"/>
   </g>
   <g id="patch_18">
    <path d="M 118.732297 370.6 
L 120.867189 370.6 
L 120.867189 343.143598 
L 118.732297 343.143598 
z
" clip-path="url(#p69e43cf33a)" style="fill: #1f77b4"/>
   </g>
   <g id="patch_19">
    <path d="M 120.867189 370.6 
L 123.00208 370.6 
L 123.00208 334.637497 
L 120.867189 334.637497 
z
" clip-path="url(#p69e43cf33a)" style="fill: #1f77b4"/>
   </g>
   <g id="patch_20">
    <path d="M 123.00208 370.6 
L 125.136971 370.6 
L 125.136971 329.146216 
L 123.00208 329.146216 
z
" clip-path="url(#p69e43cf33a)" style="fill: #1f77b4"/>
   </g>
   <g id="patch_21">
    <path d="M 125.136971 370.6 
L 127.271862 370.6 
L 127.271862 328.177167 
L 125.136971 328.177167 
z
" clip-path="url(#p69e43cf33a)" style="fill: #1f77b4"/>
   </g>
   <g id="patch_22">
    <path d="M 127.271862 370.6 
L 129.406754 370.6 
L 129.406754 320.263263 
L 127.271862 320.263263 
z
" clip-path="url(#p69e43cf33a)" style="fill: #1f77b4"/>
   </g>
   <g id="patch_23">
    <path d="M 129.406754 370.6 
L 131.541645 370.6 
L 131.541645 317.356114 
L 129.406754 317.356114 
z
" clip-path="url(#p69e43cf33a)" style="fill: #1f77b4"/>
   </g>
   <g id="patch_24">
    <path d="M 131.541645 370.6 
L 133.676536 370.6 
L 133.676536 306.858078 
L 131.541645 306.858078 
z
" clip-path="url(#p69e43cf33a)" style="fill: #1f77b4"/>
   </g>
   <g id="patch_25">
    <path d="M 133.676536 370.6 
L 135.811427 370.6 
L 135.811427 295.606337 
L 133.676536 295.606337 
z
" clip-path="url(#p69e43cf33a)" style="fill: #1f77b4"/>
   </g>
   <g id="patch_26">
    <path d="M 135.811427 370.6 
L 137.946319 370.6 
L 137.946319 285.700498 
L 135.811427 285.700498 
z
" clip-path="url(#p69e43cf33a)" style="fill: #1f77b4"/>
   </g>
   <g id="patch_27">
    <path d="M 137.946319 370.6 
L 140.08121 370.6 
L 140.08121 273.641215 
L 137.946319 273.641215 
z
" clip-path="url(#p69e43cf33a)" style="fill: #1f77b4"/>
   </g>
   <g id="patch_28">
    <path d="M 140.08121 370.6 
L 142.216101 370.6 
L 142.216101 268.634459 
L 140.08121 268.634459 
z
" clip-path="url(#p69e43cf33a)" style="fill: #1f77b4"/>
   </g>
   <g id="patch_29">
    <path d="M 142.216101 370.6 
L 144.350992 370.6 
L 144.350992 256.359832 
L 142.216101 256.359832 
z
" clip-path="url(#p69e43cf33a)" style="fill: #1f77b4"/>
   </g>
   <g id="patch_30">
    <path d="M 144.350992 370.6 
L 146.485884 370.6 
L 146.485884 256.036816 
L 144.350992 256.036816 
z
" clip-path="url(#p69e43cf33a)" style="fill: #1f77b4"/>
   </g>
   <g id="patch_31">
    <path d="M 146.485884 370.6 
L 148.620775 370.6 
L 148.620775 240.047499 
L 146.485884 240.047499 
z
" clip-path="url(#p69e43cf33a)" style="fill: #1f77b4"/>
   </g>
   <g id="patch_32">
    <path d="M 148.620775 370.6 
L 150.755666 370.6 
L 150.755666 230.14166 
L 148.620775 230.14166 
z
" clip-path="url(#p69e43cf33a)" style="fill: #1f77b4"/>
   </g>
   <g id="patch_33">
    <path d="M 150.755666 370.6 
L 152.890557 370.6 
L 152.890557 223.519822 
L 150.755666 223.519822 
z
" clip-path="url(#p69e43cf33a)" style="fill: #1f77b4"/>
   </g>
   <g id="patch_34">
    <path d="M 152.890557 370.6 
L 155.025449 370.6 
L 155.025449 213.936999 
L 152.890557 213.936999 
z
" clip-path="url(#p69e43cf33a)" style="fill: #1f77b4"/>
   </g>
   <g id="patch_35">
    <path d="M 155.025449 370.6 
L 157.16034 370.6 
L 157.16034 200.800995 
L 155.025449 200.800995 
z
" clip-path="url(#p69e43cf33a)" style="fill: #1f77b4"/>
   </g>
   <g id="patch_36">
    <path d="M 157.16034 370.6 
L 159.295231 370.6 
L 159.295231 188.041843 
L 157.16034 188.041843 
z
" clip-path="url(#p69e43cf33a)" style="fill: #1f77b4"/>
   </g>
   <g id="patch_37">
    <path d="M 159.295231 370.6 
L 161.430122 370.6 
L 161.430122 176.897774 
L 159.295231 176.897774 
z
" clip-path="url(#p69e43cf33a)" style="fill: #1f77b4"/>
   </g>
   <g id="patch_38">
    <path d="M 161.430122 370.6 
L 163.565014 370.6 
L 163.565014 159.831736 
L 161.430122 159.831736 
z
" clip-path="url(#p69e43cf33a)" style="fill: #1f77b4"/>
   </g>
   <g id="patch_39">
    <path d="M 163.565014 370.6 
L 165.699905 370.6 
L 165.699905 162.039015 
L 163.565014 162.039015 
z
" clip-path="url(#p69e43cf33a)" style="fill: #1f77b4"/>
   </g>
   <g id="patch_40">
    <path d="M 165.699905 370.6 
L 167.834796 370.6 
L 167.834796 143.304059 
L 165.699905 143.304059 
z
" clip-path="url(#p69e43cf33a)" style="fill: #1f77b4"/>
   </g>
   <g id="patch_41">
    <path d="M 167.834796 370.6 
L 169.969687 370.6 
L 169.969687 139.15868 
L 167.834796 139.15868 
z
" clip-path="url(#p69e43cf33a)" style="fill: #1f77b4"/>
   </g>
   <g id="patch_42">
    <path d="M 169.969687 370.6 
L 172.104579 370.6 
L 172.104579 120.639068 
L 169.969687 120.639068 
z
" clip-path="url(#p69e43cf33a)" style="fill: #1f77b4"/>
   </g>
   <g id="patch_43">
    <path d="M 172.104579 370.6 
L 174.23947 370.6 
L 174.23947 112.079131 
L 172.104579 112.079131 
z
" clip-path="url(#p69e43cf33a)" style="fill: #1f77b4"/>
   </g>
   <g id="patch_44">
    <path d="M 174.23947 370.6 
L 176.374361 370.6 
L 176.374361 117.731919 
L 174.23947 117.731919 
z
" clip-path="url(#p69e43cf33a)" style="fill: #1f77b4"/>
   </g>
   <g id="patch_45">
    <path d="M 176.374361 370.6 
L 178.509252 370.6 
L 178.509252 109.548835 
L 176.374361 109.548835 
z
" clip-path="url(#p69e43cf33a)" style="fill: #1f77b4"/>
   </g>
   <g id="patch_46">
    <path d="M 178.509252 370.6 
L 180.644144 370.6 
L 180.644144 99.85834 
L 178.509252 99.85834 
z
" clip-path="url(#p69e43cf33a)" style="fill: #1f77b4"/>
   </g>
   <g id="patch_47">
    <path d="M 180.644144 370.6 
L 182.779035 370.6 
L 182.779035 85.968631 
L 180.644144 85.968631 
z
" clip-path="url(#p69e43cf33a)" style="fill: #1f77b4"/>
   </g>
   <g id="patch_48">
    <path d="M 182.779035 370.6 
L 184.913926 370.6 
L 184.913926 79.508301 
L 182.779035 79.508301 
z
" clip-path="url(#p69e43cf33a)" style="fill: #1f77b4"/>
   </g>
   <g id="patch_49">
    <path d="M 184.913926 370.6 
L 187.048817 370.6 
L 187.048817 79.131448 
L 184.913926 79.131448 
z
" clip-path="url(#p69e43cf33a)" style="fill: #1f77b4"/>
   </g>
   <g id="patch_50">
    <path d="M 187.048817 370.6 
L 189.183709 370.6 
L 189.183709 67.449018 
L 187.048817 67.449018 
z
" clip-path="url(#p69e43cf33a)" style="fill: #1f77b4"/>
   </g>
   <g id="patch_51">
    <path d="M 189.183709 370.6 
L 191.3186 370.6 
L 191.3186 62.496098 
L 189.183709 62.496098 
z
" clip-path="url(#p69e43cf33a)" style="fill: #1f77b4"/>
   </g>
   <g id="patch_52">
    <path d="M 191.3186 370.6 
L 193.453491 370.6 
L 193.453491 56.950982 
L 191.3186 56.950982 
z
" clip-path="url(#p69e43cf33a)" style="fill: #1f77b4"/>
   </g>
   <g id="patch_53">
    <path d="M 193.453491 370.6 
L 195.588382 370.6 
L 195.588382 57.543179 
L 193.453491 57.543179 
z
" clip-path="url(#p69e43cf33a)" style="fill: #1f77b4"/>
   </g>
   <g id="patch_54">
    <path d="M 195.588382 370.6 
L 197.723274 370.6 
L 197.723274 45.376224 
L 195.588382 45.376224 
z
" clip-path="url(#p69e43cf33a)" style="fill: #1f77b4"/>
   </g>
   <g id="patch_55">
    <path d="M 197.723274 370.6 
L 199.858165 370.6 
L 199.858165 41.284682 
L 197.723274 41.284682 
z
" clip-path="url(#p69e43cf33a)" style="fill: #1f77b4"/>
   </g>
   <g id="patch_56">
    <path d="M 199.858165 370.6 
L 201.993056 370.6 
L 201.993056 41.069338 
L 199.858165 41.069338 
z
" clip-path="url(#p69e43cf33a)" style="fill: #1f77b4"/>
   </g>
   <g id="patch_57">
    <path d="M 201.993056 370.6 
L 204.127947 370.6 
L 204.127947 41.661534 
L 201.993056 41.661534 
z
" clip-path="url(#p69e43cf33a)" style="fill: #1f77b4"/>
   </g>
   <g id="patch_58">
    <path d="M 204.127947 370.6 
L 206.262839 370.6 
L 206.262839 34.447499 
L 204.127947 34.447499 
z
" clip-path="url(#p69e43cf33a)" style="fill: #1f77b4"/>
   </g>
   <g id="patch_59">
    <path d="M 206.262839 370.6 
L 208.39773 370.6 
L 208.39773 35.685729 
L 206.262839 35.685729 
z
" clip-path="url(#p69e43cf33a)" style="fill: #1f77b4"/>
   </g>
   <g id="patch_60">
    <path d="M 208.39773 370.6 
L 210.532621 370.6 
L 210.532621 47.152815 
L 208.39773 47.152815 
z
" clip-path="url(#p69e43cf33a)" style="fill: #1f77b4"/>
   </g>
   <g id="patch_61">
    <path d="M 210.532621 370.6 
L 212.667512 370.6 
L 212.667512 27.933333 
L 210.532621 27.933333 
z
" clip-path="url(#p69e43cf33a)" style="fill: #1f77b4"/>
   </g>
   <g id="patch_62">
    <path d="M 212.667512 370.6 
L 214.802404 370.6 
L 214.802404 30.302121 
L 212.667512 30.302121 
z
" clip-path="url(#p69e43cf33a)" style="fill: #1f77b4"/>
   </g>
   <g id="patch_63">
    <path d="M 214.802404 370.6 
L 216.937295 370.6 
L 216.937295 34.770516 
L 214.802404 34.770516 
z
" clip-path="url(#p69e43cf33a)" style="fill: #1f77b4"/>
   </g>
   <g id="patch_64">
    <path d="M 216.937295 370.6 
L 219.072186 370.6 
L 219.072186 44.945535 
L 216.937295 44.945535 
z
" clip-path="url(#p69e43cf33a)" style="fill: #1f77b4"/>
   </g>
   <g id="patch_65">
    <path d="M 219.072186 370.6 
L 221.207077 370.6 
L 221.207077 43.976486 
L 219.072186 43.976486 
z
" clip-path="url(#p69e43cf33a)" style="fill: #1f77b4"/>
   </g>
   <g id="patch_66">
    <path d="M 221.207077 370.6 
L 223.341969 370.6 
L 223.341969 37.246976 
L 221.207077 37.246976 
z
" clip-path="url(#p69e43cf33a)" style="fill: #1f77b4"/>
   </g>
   <g id="patch_67">
    <path d="M 223.341969 370.6 
L 225.47686 370.6 
L 225.47686 50.167636 
L 223.341969 50.167636 
z
" clip-path="url(#p69e43cf33a)" style="fill: #1f77b4"/>
   </g>
   <g id="patch_68">
    <path d="M 225.47686 370.6 
L 227.611751 370.6 
L 227.611751 60.288819 
L 225.47686 60.288819 
z
" clip-path="url(#p69e43cf33a)" style="fill: #1f77b4"/>
   </g>
   <g id="patch_69">
    <path d="M 227.611751 370.6 
L 229.746642 370.6 
L 229.746642 58.512228 
L 227.611751 58.512228 
z
" clip-path="url(#p69e43cf33a)" style="fill: #1f77b4"/>
   </g>
   <g id="patch_70">
    <path d="M 229.746642 370.6 
L 231.881534 370.6 
L 231.881534 61.365541 
L 229.746642 61.365541 
z
" clip-path="url(#p69e43cf33a)" style="fill: #1f77b4"/>
   </g>
   <g id="patch_71">
    <path d="M 231.881534 370.6 
L 234.016425 370.6 
L 234.016425 65.564755 
L 231.881534 65.564755 
z
" clip-path="url(#p69e43cf33a)" style="fill: #1f77b4"/>
   </g>
   <g id="patch_72">
    <path d="M 234.016425 370.6 
L 236.151316 370.6 
L 236.151316 66.802985 
L 234.016425 66.802985 
z
" clip-path="url(#p69e43cf33a)" style="fill: #1f77b4"/>
   </g>
   <g id="patch_73">
    <path d="M 236.151316 370.6 
L 238.286207 370.6 
L 238.286207 73.370987 
L 236.151316 73.370987 
z
" clip-path="url(#p69e43cf33a)" style="fill: #1f77b4"/>
   </g>
   <g id="patch_74">
    <path d="M 238.286207 370.6 
L 240.421099 370.6 
L 240.421099 84.084368 
L 238.286207 84.084368 
z
" clip-path="url(#p69e43cf33a)" style="fill: #1f77b4"/>
   </g>
   <g id="patch_75">
    <path d="M 240.421099 370.6 
L 242.55599 370.6 
L 242.55599 92.967321 
L 240.421099 92.967321 
z
" clip-path="url(#p69e43cf33a)" style="fill: #1f77b4"/>
   </g>
   <g id="patch_76">
    <path d="M 242.55599 370.6 
L 244.690881 370.6 
L 244.690881 98.189421 
L 242.55599 98.189421 
z
" clip-path="url(#p69e43cf33a)" style="fill: #1f77b4"/>
   </g>
   <g id="patch_77">
    <path d="M 244.690881 370.6 
L 246.825772 370.6 
L 246.825772 105.241948 
L 244.690881 105.241948 
z
" clip-path="url(#p69e43cf33a)" style="fill: #1f77b4"/>
   </g>
   <g id="patch_78">
    <path d="M 246.825772 370.6 
L 248.960664 370.6 
L 248.960664 107.180047 
L 246.825772 107.180047 
z
" clip-path="url(#p69e43cf33a)" style="fill: #1f77b4"/>
   </g>
   <g id="patch_79">
    <path d="M 248.960664 370.6 
L 251.095555 370.6 
L 251.095555 122.900183 
L 248.960664 122.900183 
z
" clip-path="url(#p69e43cf33a)" style="fill: #1f77b4"/>
   </g>
   <g id="patch_80">
    <path d="M 251.095555 370.6 
L 253.230446 370.6 
L 253.230446 124.622938 
L 251.095555 124.622938 
z
" clip-path="url(#p69e43cf33a)" style="fill: #1f77b4"/>
   </g>
   <g id="patch_81">
    <path d="M 253.230446 370.6 
L 255.365337 370.6 
L 255.365337 130.329563 
L 253.230446 130.329563 
z
" clip-path="url(#p69e43cf33a)" style="fill: #1f77b4"/>
   </g>
   <g id="patch_82">
    <path d="M 255.365337 370.6 
L 257.500229 370.6 
L 257.500229 133.882744 
L 255.365337 133.882744 
z
" clip-path="url(#p69e43cf33a)" style="fill: #1f77b4"/>
   </g>
   <g id="patch_83">
    <path d="M 257.500229 370.6 
L 259.63512 370.6 
L 259.63512 135.659335 
L 257.500229 135.659335 
z
" clip-path="url(#p69e43cf33a)" style="fill: #1f77b4"/>
   </g>
   <g id="patch_84">
    <path d="M 259.63512 370.6 
L 261.770011 370.6 
L 261.770011 140.289238 
L 259.63512 140.289238 
z
" clip-path="url(#p69e43cf33a)" style="fill: #1f77b4"/>
   </g>
   <g id="patch_85">
    <path d="M 261.770011 370.6 
L 263.904902 370.6 
L 263.904902 147.664781 
L 261.770011 147.664781 
z
" clip-path="url(#p69e43cf33a)" style="fill: #1f77b4"/>
   </g>
   <g id="patch_86">
    <path d="M 263.904902 370.6 
L 266.039794 370.6 
L 266.039794 149.872061 
L 263.904902 149.872061 
z
" clip-path="url(#p69e43cf33a)" style="fill: #1f77b4"/>
   </g>
   <g id="patch_87">
    <path d="M 266.039794 370.6 
L 268.174685 370.6 
L 268.174685 159.401047 
L 266.039794 159.401047 
z
" clip-path="url(#p69e43cf33a)" style="fill: #1f77b4"/>
   </g>
   <g id="patch_88">
    <path d="M 268.174685 370.6 
L 270.309576 370.6 
L 270.309576 163.76177 
L 268.174685 163.76177 
z
" clip-path="url(#p69e43cf33a)" style="fill: #1f77b4"/>
   </g>
   <g id="patch_89">
    <path d="M 270.309576 370.6 
L 272.444467 370.6 
L 272.444467 168.660854 
L 270.309576 168.660854 
z
" clip-path="url(#p69e43cf33a)" style="fill: #1f77b4"/>
   </g>
   <g id="patch_90">
    <path d="M 272.444467 370.6 
L 274.579359 370.6 
L 274.579359 177.274627 
L 272.444467 177.274627 
z
" clip-path="url(#p69e43cf33a)" style="fill: #1f77b4"/>
   </g>
   <g id="patch_91">
    <path d="M 274.579359 370.6 
L 276.71425 370.6 
L 276.71425 177.382299 
L 274.579359 177.382299 
z
" clip-path="url(#p69e43cf33a)" style="fill: #1f77b4"/>
   </g>
   <g id="patch_92">
    <path d="M 276.71425 370.6 
L 278.849141 370.6 
L 278.849141 184.488662 
L 276.71425 184.488662 
z
" clip-path="url(#p69e43cf33a)" style="fill: #1f77b4"/>
   </g>
   <g id="patch_93">
    <path d="M 278.849141 370.6 
L 280.984032 370.6 
L 280.984032 189.549254 
L 278.849141 189.549254 
z
" clip-path="url(#p69e43cf33a)" style="fill: #1f77b4"/>
   </g>
   <g id="patch_94">
    <path d="M 280.984032 370.6 
L 283.118924 370.6 
L 283.118924 195.09437 
L 280.984032 195.09437 
z
" clip-path="url(#p69e43cf33a)" style="fill: #1f77b4"/>
   </g>
   <g id="patch_95">
    <path d="M 283.118924 370.6 
L 285.253815 370.6 
L 285.253815 201.985389 
L 283.118924 201.985389 
z
" clip-path="url(#p69e43cf33a)" style="fill: #1f77b4"/>
   </g>
   <g id="patch_96">
    <path d="M 285.253815 370.6 
L 287.388706 370.6 
L 287.388706 201.124012 
L 285.253815 201.124012 
z
" clip-path="url(#p69e43cf33a)" style="fill: #1f77b4"/>
   </g>
   <g id="patch_97">
    <path d="M 287.388706 370.6 
L 289.523597 370.6 
L 289.523597 203.385127 
L 287.388706 203.385127 
z
" clip-path="url(#p69e43cf33a)" style="fill: #1f77b4"/>
   </g>
   <g id="patch_98">
    <path d="M 289.523597 370.6 
L 291.658489 370.6 
L 291.658489 209.953129 
L 289.523597 209.953129 
z
" clip-path="url(#p69e43cf33a)" style="fill: #1f77b4"/>
   </g>
   <g id="patch_99">
    <path d="M 291.658489 370.6 
L 293.79338 370.6 
L 293.79338 208.445719 
L 291.658489 208.445719 
z
" clip-path="url(#p69e43cf33a)" style="fill: #1f77b4"/>
   </g>
   <g id="patch_100">
    <path d="M 293.79338 370.6 
L 295.928271 370.6 
L 295.928271 217.167164 
L 293.79338 217.167164 
z
" clip-path="url(#p69e43cf33a)" style="fill: #1f77b4"/>
   </g>
   <g id="patch_101">
    <path d="M 295.928271 370.6 
L 298.063162 370.6 
L 298.063162 221.797067 
L 295.928271 221.797067 
z
" clip-path="url(#p69e43cf33a)" style="fill: #1f77b4"/>
   </g>
   <g id="patch_102">
    <path d="M 298.063162 370.6 
L 300.198054 370.6 
L 300.198054 221.420215 
L 298.063162 221.420215 
z
" clip-path="url(#p69e43cf33a)" style="fill: #1f77b4"/>
   </g>
   <g id="patch_103">
    <path d="M 300.198054 370.6 
L 302.332945 370.6 
L 302.332945 236.33281 
L 300.198054 236.33281 
z
" clip-path="url(#p69e43cf33a)" style="fill: #1f77b4"/>
   </g>
   <g id="patch_104">
    <path d="M 302.332945 370.6 
L 304.467836 370.6 
L 304.467836 234.340875 
L 302.332945 234.340875 
z
" clip-path="url(#p69e43cf33a)" style="fill: #1f77b4"/>
   </g>
   <g id="patch_105">
    <path d="M 304.467836 370.6 
L 306.602727 370.6 
L 306.602727 244.085206 
L 304.467836 244.085206 
z
" clip-path="url(#p69e43cf33a)" style="fill: #1f77b4"/>
   </g>
   <g id="patch_106">
    <path d="M 306.602727 370.6 
L 308.737619 370.6 
L 308.737619 249.038125 
L 306.602727 249.038125 
z
" clip-path="url(#p69e43cf33a)" style="fill: #1f77b4"/>
   </g>
   <g id="patch_107">
    <path d="M 308.737619 370.6 
L 310.87251 370.6 
L 310.87251 245.915632 
L 308.737619 245.915632 
z
" clip-path="url(#p69e43cf33a)" style="fill: #1f77b4"/>
   </g>
   <g id="patch_108">
    <path d="M 310.87251 370.6 
L 313.007401 370.6 
L 313.007401 252.052946 
L 310.87251 252.052946 
z
" clip-path="url(#p69e43cf33a)" style="fill: #1f77b4"/>
   </g>
   <g id="patch_109">
    <path d="M 313.007401 370.6 
L 315.142292 370.6 
L 315.142292 257.382718 
L 313.007401 257.382718 
z
" clip-path="url(#p69e43cf33a)" style="fill: #1f77b4"/>
   </g>
   <g id="patch_110">
    <path d="M 315.142292 370.6 
L 317.277184 370.6 
L 317.277184 256.736685 
L 315.142292 256.736685 
z
" clip-path="url(#p69e43cf33a)" style="fill: #1f77b4"/>
   </g>
   <g id="patch_111">
    <path d="M 317.277184 370.6 
L 319.412075 370.6 
L 319.412075 263.843048 
L 317.277184 263.843048 
z
" clip-path="url(#p69e43cf33a)" style="fill: #1f77b4"/>
   </g>
   <g id="patch_112">
    <path d="M 319.412075 370.6 
L 321.546966 370.6 
L 321.546966 267.988426 
L 319.412075 267.988426 
z
" clip-path="url(#p69e43cf33a)" style="fill: #1f77b4"/>
   </g>
   <g id="patch_113">
    <path d="M 321.546966 370.6 
L 323.681857 370.6 
L 323.681857 276.763708 
L 321.546966 276.763708 
z
" clip-path="url(#p69e43cf33a)" style="fill: #1f77b4"/>
   </g>
   <g id="patch_114">
    <path d="M 323.681857 370.6 
L 325.816749 370.6 
L 325.816749 279.294004 
L 323.681857 279.294004 
z
" clip-path="url(#p69e43cf33a)" style="fill: #1f77b4"/>
   </g>
   <g id="patch_115">
    <path d="M 325.816749 370.6 
L 327.95164 370.6 
L 327.95164 284.785284 
L 325.816749 284.785284 
z
" clip-path="url(#p69e43cf33a)" style="fill: #1f77b4"/>
   </g>
   <g id="patch_116">
    <path d="M 327.95164 370.6 
L 330.086531 370.6 
L 330.086531 285.269809 
L 327.95164 285.269809 
z
" clip-path="url(#p69e43cf33a)" style="fill: #1f77b4"/>
   </g>
   <g id="patch_117">
    <path d="M 330.086531 370.6 
L 332.221422 370.6 
L 332.221422 287.261744 
L 330.086531 287.261744 
z
" clip-path="url(#p69e43cf33a)" style="fill: #1f77b4"/>
   </g>
   <g id="patch_118">
    <path d="M 332.221422 370.6 
L 334.356314 370.6 
L 334.356314 294.960304 
L 332.221422 294.960304 
z
" clip-path="url(#p69e43cf33a)" style="fill: #1f77b4"/>
   </g>
   <g id="patch_119">
    <path d="M 334.356314 370.6 
L 336.491205 370.6 
L 336.491205 303.466405 
L 334.356314 303.466405 
z
" clip-path="url(#p69e43cf33a)" style="fill: #1f77b4"/>
   </g>
   <g id="patch_120">
    <path d="M 336.491205 370.6 
L 338.626096 370.6 
L 338.626096 299.159518 
L 336.491205 299.159518 
z
" clip-path="url(#p69e43cf33a)" style="fill: #1f77b4"/>
   </g>
   <g id="patch_121">
    <path d="M 338.626096 370.6 
L 340.760987 370.6 
L 340.760987 306.050537 
L 338.626096 306.050537 
z
" clip-path="url(#p69e43cf33a)" style="fill: #1f77b4"/>
   </g>
   <g id="patch_122">
    <path d="M 340.760987 370.6 
L 342.895879 370.6 
L 342.895879 309.765226 
L 340.760987 309.765226 
z
" clip-path="url(#p69e43cf33a)" style="fill: #1f77b4"/>
   </g>
   <g id="patch_123">
    <path d="M 342.895879 370.6 
L 345.03077 370.6 
L 345.03077 311.326473 
L 342.895879 311.326473 
z
" clip-path="url(#p69e43cf33a)" style="fill: #1f77b4"/>
   </g>
   <g id="patch_124">
    <path d="M 345.03077 370.6 
L 347.165661 370.6 
L 347.165661 314.39513 
L 345.03077 314.39513 
z
" clip-path="url(#p69e43cf33a)" style="fill: #1f77b4"/>
   </g>
   <g id="patch_125">
    <path d="M 347.165661 370.6 
L 349.300552 370.6 
L 349.300552 321.12464 
L 347.165661 321.12464 
z
" clip-path="url(#p69e43cf33a)" style="fill: #1f77b4"/>
   </g>
   <g id="patch_126">
    <path d="M 349.300552 370.6 
L 351.435444 370.6 
L 351.435444 320.15559 
L 349.300552 320.15559 
z
" clip-path="url(#p69e43cf33a)" style="fill: #1f77b4"/>
   </g>
   <g id="patch_127">
    <path d="M 351.435444 370.6 
L 353.570335 370.6 
L 353.570335 323.547264 
L 351.435444 323.547264 
z
" clip-path="url(#p69e43cf33a)" style="fill: #1f77b4"/>
   </g>
   <g id="patch_128">
    <path d="M 353.570335 370.6 
L 355.705226 370.6 
L 355.705226 328.123331 
L 353.570335 328.123331 
z
" clip-path="url(#p69e43cf33a)" style="fill: #1f77b4"/>
   </g>
   <g id="patch_129">
    <path d="M 355.705226 370.6 
L 357.840117 370.6 
L 357.840117 330.276774 
L 355.705226 330.276774 
z
" clip-path="url(#p69e43cf33a)" style="fill: #1f77b4"/>
   </g>
   <g id="patch_130">
    <path d="M 357.840117 370.6 
L 359.975009 370.6 
L 359.975009 333.07625 
L 357.840117 333.07625 
z
" clip-path="url(#p69e43cf33a)" style="fill: #1f77b4"/>
   </g>
   <g id="patch_131">
    <path d="M 359.975009 370.6 
L 362.1099 370.6 
L 362.1099 337.113957 
L 359.975009 337.113957 
z
" clip-path="url(#p69e43cf33a)" style="fill: #1f77b4"/>
   </g>
   <g id="patch_132">
    <path d="M 362.1099 370.6 
L 364.244791 370.6 
L 364.244791 336.575596 
L 362.1099 336.575596 
z
" clip-path="url(#p69e43cf33a)" style="fill: #1f77b4"/>
   </g>
   <g id="patch_133">
    <path d="M 364.244791 370.6 
L 366.379682 370.6 
L 366.379682 341.905368 
L 364.244791 341.905368 
z
" clip-path="url(#p69e43cf33a)" style="fill: #1f77b4"/>
   </g>
   <g id="patch_134">
    <path d="M 366.379682 370.6 
L 368.514574 370.6 
L 368.514574 342.928253 
L 366.379682 342.928253 
z
" clip-path="url(#p69e43cf33a)" style="fill: #1f77b4"/>
   </g>
   <g id="patch_135">
    <path d="M 368.514574 370.6 
L 370.649465 370.6 
L 370.649465 345.404713 
L 368.514574 345.404713 
z
" clip-path="url(#p69e43cf33a)" style="fill: #1f77b4"/>
   </g>
   <g id="patch_136">
    <path d="M 370.649465 370.6 
L 372.784356 370.6 
L 372.784356 344.435664 
L 370.649465 344.435664 
z
" clip-path="url(#p69e43cf33a)" style="fill: #1f77b4"/>
   </g>
   <g id="patch_137">
    <path d="M 372.784356 370.6 
L 374.919247 370.6 
L 374.919247 348.850223 
L 372.784356 348.850223 
z
" clip-path="url(#p69e43cf33a)" style="fill: #1f77b4"/>
   </g>
   <g id="patch_138">
    <path d="M 374.919247 370.6 
L 377.054139 370.6 
L 377.054139 349.442419 
L 374.919247 349.442419 
z
" clip-path="url(#p69e43cf33a)" style="fill: #1f77b4"/>
   </g>
   <g id="patch_139">
    <path d="M 377.054139 370.6 
L 379.18903 370.6 
L 379.18903 351.434355 
L 377.054139 351.434355 
z
" clip-path="url(#p69e43cf33a)" style="fill: #1f77b4"/>
   </g>
   <g id="patch_140">
    <path d="M 379.18903 370.6 
L 381.323921 370.6 
L 381.323921 351.649699 
L 379.18903 351.649699 
z
" clip-path="url(#p69e43cf33a)" style="fill: #1f77b4"/>
   </g>
   <g id="patch_141">
    <path d="M 381.323921 370.6 
L 383.458812 370.6 
L 383.458812 355.902749 
L 381.323921 355.902749 
z
" clip-path="url(#p69e43cf33a)" style="fill: #1f77b4"/>
   </g>
   <g id="patch_142">
    <path d="M 383.458812 370.6 
L 385.593704 370.6 
L 385.593704 355.687405 
L 383.458812 355.687405 
z
" clip-path="url(#p69e43cf33a)" style="fill: #1f77b4"/>
   </g>
   <g id="patch_143">
    <path d="M 385.593704 370.6 
L 387.728595 370.6 
L 387.728595 356.494946 
L 385.593704 356.494946 
z
" clip-path="url(#p69e43cf33a)" style="fill: #1f77b4"/>
   </g>
   <g id="patch_144">
    <path d="M 387.728595 370.6 
L 389.863486 370.6 
L 389.863486 358.271537 
L 387.728595 358.271537 
z
" clip-path="url(#p69e43cf33a)" style="fill: #1f77b4"/>
   </g>
   <g id="patch_145">
    <path d="M 389.863486 370.6 
L 391.998377 370.6 
L 391.998377 359.455931 
L 389.863486 359.455931 
z
" clip-path="url(#p69e43cf33a)" style="fill: #1f77b4"/>
   </g>
   <g id="patch_146">
    <path d="M 391.998377 370.6 
L 394.133269 370.6 
L 394.133269 359.671275 
L 391.998377 359.671275 
z
" clip-path="url(#p69e43cf33a)" style="fill: #1f77b4"/>
   </g>
   <g id="patch_147">
    <path d="M 394.133269 370.6 
L 396.26816 370.6 
L 396.26816 362.470752 
L 394.133269 362.470752 
z
" clip-path="url(#p69e43cf33a)" style="fill: #1f77b4"/>
   </g>
   <g id="patch_148">
    <path d="M 396.26816 370.6 
L 398.403051 370.6 
L 398.403051 362.416915 
L 396.26816 362.416915 
z
" clip-path="url(#p69e43cf33a)" style="fill: #1f77b4"/>
   </g>
   <g id="patch_149">
    <path d="M 398.403051 370.6 
L 400.537942 370.6 
L 400.537942 362.63226 
L 398.403051 362.63226 
z
" clip-path="url(#p69e43cf33a)" style="fill: #1f77b4"/>
   </g>
   <g id="patch_150">
    <path d="M 400.537942 370.6 
L 402.672834 370.6 
L 402.672834 364.839539 
L 400.537942 364.839539 
z
" clip-path="url(#p69e43cf33a)" style="fill: #1f77b4"/>
   </g>
   <g id="patch_151">
    <path d="M 402.672834 370.6 
L 404.807725 370.6 
L 404.807725 365.054883 
L 402.672834 365.054883 
z
" clip-path="url(#p69e43cf33a)" style="fill: #1f77b4"/>
   </g>
   <g id="patch_152">
    <path d="M 404.807725 370.6 
L 406.942616 370.6 
L 406.942616 365.539408 
L 404.807725 365.539408 
z
" clip-path="url(#p69e43cf33a)" style="fill: #1f77b4"/>
   </g>
   <g id="patch_153">
    <path d="M 406.942616 370.6 
L 409.077507 370.6 
L 409.077507 365.862425 
L 406.942616 365.862425 
z
" clip-path="url(#p69e43cf33a)" style="fill: #1f77b4"/>
   </g>
   <g id="patch_154">
    <path d="M 409.077507 370.6 
L 411.212399 370.6 
L 411.212399 366.346949 
L 409.077507 366.346949 
z
" clip-path="url(#p69e43cf33a)" style="fill: #1f77b4"/>
   </g>
   <g id="patch_155">
    <path d="M 411.212399 370.6 
L 413.34729 370.6 
L 413.34729 366.88531 
L 411.212399 366.88531 
z
" clip-path="url(#p69e43cf33a)" style="fill: #1f77b4"/>
   </g>
   <g id="patch_156">
    <path d="M 413.34729 370.6 
L 415.482181 370.6 
L 415.482181 367.262163 
L 413.34729 367.262163 
z
" clip-path="url(#p69e43cf33a)" style="fill: #1f77b4"/>
   </g>
   <g id="patch_157">
    <path d="M 415.482181 370.6 
L 417.617072 370.6 
L 417.617072 368.069704 
L 415.482181 368.069704 
z
" clip-path="url(#p69e43cf33a)" style="fill: #1f77b4"/>
   </g>
   <g id="patch_158">
    <path d="M 417.617072 370.6 
L 419.751964 370.6 
L 419.751964 368.015868 
L 417.617072 368.015868 
z
" clip-path="url(#p69e43cf33a)" style="fill: #1f77b4"/>
   </g>
   <g id="patch_159">
    <path d="M 419.751964 370.6 
L 421.886855 370.6 
L 421.886855 368.984918 
L 419.751964 368.984918 
z
" clip-path="url(#p69e43cf33a)" style="fill: #1f77b4"/>
   </g>
   <g id="patch_160">
    <path d="M 421.886855 370.6 
L 424.021746 370.6 
L 424.021746 368.231212 
L 421.886855 368.231212 
z
" clip-path="url(#p69e43cf33a)" style="fill: #1f77b4"/>
   </g>
   <g id="patch_161">
    <path d="M 424.021746 370.6 
L 426.156637 370.6 
L 426.156637 369.415606 
L 424.021746 369.415606 
z
" clip-path="url(#p69e43cf33a)" style="fill: #1f77b4"/>
   </g>
   <g id="patch_162">
    <path d="M 426.156637 370.6 
L 428.291529 370.6 
L 428.291529 369.254098 
L 426.156637 369.254098 
z
" clip-path="url(#p69e43cf33a)" style="fill: #1f77b4"/>
   </g>
   <g id="patch_163">
    <path d="M 428.291529 370.6 
L 430.42642 370.6 
L 430.42642 368.931081 
L 428.291529 368.931081 
z
" clip-path="url(#p69e43cf33a)" style="fill: #1f77b4"/>
   </g>
   <g id="patch_164">
    <path d="M 430.42642 370.6 
L 432.561311 370.6 
L 432.561311 369.36177 
L 430.42642 369.36177 
z
" clip-path="url(#p69e43cf33a)" style="fill: #1f77b4"/>
   </g>
   <g id="patch_165">
    <path d="M 432.561311 370.6 
L 434.696202 370.6 
L 434.696202 369.738623 
L 432.561311 369.738623 
z
" clip-path="url(#p69e43cf33a)" style="fill: #1f77b4"/>
   </g>
   <g id="patch_166">
    <path d="M 434.696202 370.6 
L 436.831094 370.6 
L 436.831094 369.09259 
L 434.696202 369.09259 
z
" clip-path="url(#p69e43cf33a)" style="fill: #1f77b4"/>
   </g>
   <g id="patch_167">
    <path d="M 436.831094 370.6 
L 438.965985 370.6 
L 438.965985 370.169311 
L 436.831094 370.169311 
z
" clip-path="url(#p69e43cf33a)" style="fill: #1f77b4"/>
   </g>
   <g id="patch_168">
    <path d="M 438.965985 370.6 
L 441.100876 370.6 
L 441.100876 369.846295 
L 438.965985 369.846295 
z
" clip-path="url(#p69e43cf33a)" style="fill: #1f77b4"/>
   </g>
   <g id="patch_169">
    <path d="M 441.100876 370.6 
L 443.235767 370.6 
L 443.235767 370.007803 
L 441.100876 370.007803 
z
" clip-path="url(#p69e43cf33a)" style="fill: #1f77b4"/>
   </g>
   <g id="patch_170">
    <path d="M 443.235767 370.6 
L 445.370659 370.6 
L 445.370659 370.115475 
L 443.235767 370.115475 
z
" clip-path="url(#p69e43cf33a)" style="fill: #1f77b4"/>
   </g>
   <g id="patch_171">
    <path d="M 445.370659 370.6 
L 447.50555 370.6 
L 447.50555 370.276984 
L 445.370659 370.276984 
z
" clip-path="url(#p69e43cf33a)" style="fill: #1f77b4"/>
   </g>
   <g id="patch_172">
    <path d="M 447.50555 370.6 
L 449.640441 370.6 
L 449.640441 370.384656 
L 447.50555 370.384656 
z
" clip-path="url(#p69e43cf33a)" style="fill: #1f77b4"/>
   </g>
   <g id="patch_173">
    <path d="M 449.640441 370.6 
L 451.775332 370.6 
L 451.775332 370.33082 
L 449.640441 370.33082 
z
" clip-path="url(#p69e43cf33a)" style="fill: #1f77b4"/>
   </g>
   <g id="patch_174">
    <path d="M 451.775332 370.6 
L 453.910224 370.6 
L 453.910224 370.276984 
L 451.775332 370.276984 
z
" clip-path="url(#p69e43cf33a)" style="fill: #1f77b4"/>
   </g>
   <g id="patch_175">
    <path d="M 453.910224 370.6 
L 456.045115 370.6 
L 456.045115 370.115475 
L 453.910224 370.115475 
z
" clip-path="url(#p69e43cf33a)" style="fill: #1f77b4"/>
   </g>
   <g id="patch_176">
    <path d="M 456.045115 370.6 
L 458.180006 370.6 
L 458.180006 370.492328 
L 456.045115 370.492328 
z
" clip-path="url(#p69e43cf33a)" style="fill: #1f77b4"/>
   </g>
   <g id="patch_177">
    <path d="M 458.180006 370.6 
L 460.314897 370.6 
L 460.314897 370.33082 
L 458.180006 370.33082 
z
" clip-path="url(#p69e43cf33a)" style="fill: #1f77b4"/>
   </g>
   <g id="patch_178">
    <path d="M 460.314897 370.6 
L 462.449789 370.6 
L 462.449789 370.438492 
L 460.314897 370.438492 
z
" clip-path="url(#p69e43cf33a)" style="fill: #1f77b4"/>
   </g>
   <g id="patch_179">
    <path d="M 462.449789 370.6 
L 464.58468 370.6 
L 464.58468 370.492328 
L 462.449789 370.492328 
z
" clip-path="url(#p69e43cf33a)" style="fill: #1f77b4"/>
   </g>
   <g id="patch_180">
    <path d="M 464.58468 370.6 
L 466.719571 370.6 
L 466.719571 370.546164 
L 464.58468 370.546164 
z
" clip-path="url(#p69e43cf33a)" style="fill: #1f77b4"/>
   </g>
   <g id="patch_181">
    <path d="M 466.719571 370.6 
L 468.854462 370.6 
L 468.854462 370.276984 
L 466.719571 370.276984 
z
" clip-path="url(#p69e43cf33a)" style="fill: #1f77b4"/>
   </g>
   <g id="patch_182">
    <path d="M 468.854462 370.6 
L 470.989354 370.6 
L 470.989354 370.492328 
L 468.854462 370.492328 
z
" clip-path="url(#p69e43cf33a)" style="fill: #1f77b4"/>
   </g>
   <g id="patch_183">
    <path d="M 470.989354 370.6 
L 473.124245 370.6 
L 473.124245 370.546164 
L 470.989354 370.546164 
z
" clip-path="url(#p69e43cf33a)" style="fill: #1f77b4"/>
   </g>
   <g id="patch_184">
    <path d="M 473.124245 370.6 
L 475.259136 370.6 
L 475.259136 370.384656 
L 473.124245 370.384656 
z
" clip-path="url(#p69e43cf33a)" style="fill: #1f77b4"/>
   </g>
   <g id="patch_185">
    <path d="M 475.259136 370.6 
L 477.394027 370.6 
L 477.394027 370.546164 
L 475.259136 370.546164 
z
" clip-path="url(#p69e43cf33a)" style="fill: #1f77b4"/>
   </g>
   <g id="patch_186">
    <path d="M 477.394027 370.6 
L 479.528919 370.6 
L 479.528919 370.492328 
L 477.394027 370.492328 
z
" clip-path="url(#p69e43cf33a)" style="fill: #1f77b4"/>
   </g>
   <g id="patch_187">
    <path d="M 479.528919 370.6 
L 481.66381 370.6 
L 481.66381 370.492328 
L 479.528919 370.492328 
z
" clip-path="url(#p69e43cf33a)" style="fill: #1f77b4"/>
   </g>
   <g id="patch_188">
    <path d="M 481.66381 370.6 
L 483.798701 370.6 
L 483.798701 370.438492 
L 481.66381 370.438492 
z
" clip-path="url(#p69e43cf33a)" style="fill: #1f77b4"/>
   </g>
   <g id="patch_189">
    <path d="M 483.798701 370.6 
L 485.933592 370.6 
L 485.933592 370.492328 
L 483.798701 370.492328 
z
" clip-path="url(#p69e43cf33a)" style="fill: #1f77b4"/>
   </g>
   <g id="patch_190">
    <path d="M 485.933592 370.6 
L 488.068484 370.6 
L 488.068484 370.384656 
L 485.933592 370.384656 
z
" clip-path="url(#p69e43cf33a)" style="fill: #1f77b4"/>
   </g>
   <g id="patch_191">
    <path d="M 488.068484 370.6 
L 490.203375 370.6 
L 490.203375 370.438492 
L 488.068484 370.438492 
z
" clip-path="url(#p69e43cf33a)" style="fill: #1f77b4"/>
   </g>
   <g id="patch_192">
    <path d="M 490.203375 370.6 
L 492.338266 370.6 
L 492.338266 370.6 
L 490.203375 370.6 
z
" clip-path="url(#p69e43cf33a)" style="fill: #1f77b4"/>
   </g>
   <g id="patch_193">
    <path d="M 492.338266 370.6 
L 494.473158 370.6 
L 494.473158 370.546164 
L 492.338266 370.546164 
z
" clip-path="url(#p69e43cf33a)" style="fill: #1f77b4"/>
   </g>
   <g id="patch_194">
    <path d="M 494.473158 370.6 
L 496.608049 370.6 
L 496.608049 370.6 
L 494.473158 370.6 
z
" clip-path="url(#p69e43cf33a)" style="fill: #1f77b4"/>
   </g>
   <g id="patch_195">
    <path d="M 496.608049 370.6 
L 498.74294 370.6 
L 498.74294 370.6 
L 496.608049 370.6 
z
" clip-path="url(#p69e43cf33a)" style="fill: #1f77b4"/>
   </g>
   <g id="patch_196">
    <path d="M 498.74294 370.6 
L 500.877831 370.6 
L 500.877831 370.6 
L 498.74294 370.6 
z
" clip-path="url(#p69e43cf33a)" style="fill: #1f77b4"/>
   </g>
   <g id="patch_197">
    <path d="M 500.877831 370.6 
L 503.012723 370.6 
L 503.012723 370.6 
L 500.877831 370.6 
z
" clip-path="url(#p69e43cf33a)" style="fill: #1f77b4"/>
   </g>
   <g id="patch_198">
    <path d="M 503.012723 370.6 
L 505.147614 370.6 
L 505.147614 370.6 
L 503.012723 370.6 
z
" clip-path="url(#p69e43cf33a)" style="fill: #1f77b4"/>
   </g>
   <g id="patch_199">
    <path d="M 505.147614 370.6 
L 507.282505 370.6 
L 507.282505 370.6 
L 505.147614 370.6 
z
" clip-path="url(#p69e43cf33a)" style="fill: #1f77b4"/>
   </g>
   <g id="patch_200">
    <path d="M 507.282505 370.6 
L 509.417396 370.6 
L 509.417396 370.546164 
L 507.282505 370.546164 
z
" clip-path="url(#p69e43cf33a)" style="fill: #1f77b4"/>
   </g>
   <g id="patch_201">
    <path d="M 509.417396 370.6 
L 511.552288 370.6 
L 511.552288 370.6 
L 509.417396 370.6 
z
" clip-path="url(#p69e43cf33a)" style="fill: #1f77b4"/>
   </g>
   <g id="patch_202">
    <path d="M 511.552288 370.6 
L 513.687179 370.6 
L 513.687179 370.6 
L 511.552288 370.6 
z
" clip-path="url(#p69e43cf33a)" style="fill: #1f77b4"/>
   </g>
   <g id="patch_203">
    <path d="M 513.687179 370.6 
L 515.82207 370.6 
L 515.82207 370.6 
L 513.687179 370.6 
z
" clip-path="url(#p69e43cf33a)" style="fill: #1f77b4"/>
   </g>
   <g id="patch_204">
    <path d="M 515.82207 370.6 
L 517.956961 370.6 
L 517.956961 370.6 
L 515.82207 370.6 
z
" clip-path="url(#p69e43cf33a)" style="fill: #1f77b4"/>
   </g>
   <g id="patch_205">
    <path d="M 517.956961 370.6 
L 520.091853 370.6 
L 520.091853 370.6 
L 517.956961 370.6 
z
" clip-path="url(#p69e43cf33a)" style="fill: #1f77b4"/>
   </g>
   <g id="patch_206">
    <path d="M 520.091853 370.6 
L 522.226744 370.6 
L 522.226744 370.6 
L 520.091853 370.6 
z
" clip-path="url(#p69e43cf33a)" style="fill: #1f77b4"/>
   </g>
   <g id="patch_207">
    <path d="M 522.226744 370.6 
L 524.361635 370.6 
L 524.361635 370.6 
L 522.226744 370.6 
z
" clip-path="url(#p69e43cf33a)" style="fill: #1f77b4"/>
   </g>
   <g id="patch_208">
    <path d="M 524.361635 370.6 
L 526.496526 370.6 
L 526.496526 370.6 
L 524.361635 370.6 
z
" clip-path="url(#p69e43cf33a)" style="fill: #1f77b4"/>
   </g>
   <g id="patch_209">
    <path d="M 526.496526 370.6 
L 528.631418 370.6 
L 528.631418 370.6 
L 526.496526 370.6 
z
" clip-path="url(#p69e43cf33a)" style="fill: #1f77b4"/>
   </g>
   <g id="patch_210">
    <path d="M 528.631418 370.6 
L 530.766309 370.6 
L 530.766309 370.6 
L 528.631418 370.6 
z
" clip-path="url(#p69e43cf33a)" style="fill: #1f77b4"/>
   </g>
   <g id="patch_211">
    <path d="M 530.766309 370.6 
L 532.9012 370.6 
L 532.9012 370.6 
L 530.766309 370.6 
z
" clip-path="url(#p69e43cf33a)" style="fill: #1f77b4"/>
   </g>
   <g id="patch_212">
    <path d="M 532.9012 370.6 
L 535.036091 370.6 
L 535.036091 370.6 
L 532.9012 370.6 
z
" clip-path="url(#p69e43cf33a)" style="fill: #1f77b4"/>
   </g>
   <g id="patch_213">
    <path d="M 535.036091 370.6 
L 537.170983 370.6 
L 537.170983 370.6 
L 535.036091 370.6 
z
" clip-path="url(#p69e43cf33a)" style="fill: #1f77b4"/>
   </g>
   <g id="patch_214">
    <path d="M 537.170983 370.6 
L 539.305874 370.6 
L 539.305874 370.6 
L 537.170983 370.6 
z
" clip-path="url(#p69e43cf33a)" style="fill: #1f77b4"/>
   </g>
   <g id="patch_215">
    <path d="M 539.305874 370.6 
L 541.440765 370.6 
L 541.440765 370.6 
L 539.305874 370.6 
z
" clip-path="url(#p69e43cf33a)" style="fill: #1f77b4"/>
   </g>
   <g id="patch_216">
    <path d="M 541.440765 370.6 
L 543.575656 370.6 
L 543.575656 370.6 
L 541.440765 370.6 
z
" clip-path="url(#p69e43cf33a)" style="fill: #1f77b4"/>
   </g>
   <g id="patch_217">
    <path d="M 543.575656 370.6 
L 545.710548 370.6 
L 545.710548 370.6 
L 543.575656 370.6 
z
" clip-path="url(#p69e43cf33a)" style="fill: #1f77b4"/>
   </g>
   <g id="patch_218">
    <path d="M 545.710548 370.6 
L 547.845439 370.6 
L 547.845439 370.6 
L 545.710548 370.6 
z
" clip-path="url(#p69e43cf33a)" style="fill: #1f77b4"/>
   </g>
   <g id="patch_219">
    <path d="M 547.845439 370.6 
L 549.98033 370.6 
L 549.98033 370.6 
L 547.845439 370.6 
z
" clip-path="url(#p69e43cf33a)" style="fill: #1f77b4"/>
   </g>
   <g id="patch_220">
    <path d="M 549.98033 370.6 
L 552.115221 370.6 
L 552.115221 370.6 
L 549.98033 370.6 
z
" clip-path="url(#p69e43cf33a)" style="fill: #1f77b4"/>
   </g>
   <g id="patch_221">
    <path d="M 552.115221 370.6 
L 554.250113 370.6 
L 554.250113 370.6 
L 552.115221 370.6 
z
" clip-path="url(#p69e43cf33a)" style="fill: #1f77b4"/>
   </g>
   <g id="patch_222">
    <path d="M 554.250113 370.6 
L 556.385004 370.6 
L 556.385004 370.6 
L 554.250113 370.6 
z
" clip-path="url(#p69e43cf33a)" style="fill: #1f77b4"/>
   </g>
   <g id="patch_223">
    <path d="M 556.385004 370.6 
L 558.519895 370.6 
L 558.519895 370.6 
L 556.385004 370.6 
z
" clip-path="url(#p69e43cf33a)" style="fill: #1f77b4"/>
   </g>
   <g id="patch_224">
    <path d="M 558.519895 370.6 
L 560.654786 370.6 
L 560.654786 370.6 
L 558.519895 370.6 
z
" clip-path="url(#p69e43cf33a)" style="fill: #1f77b4"/>
   </g>
   <g id="patch_225">
    <path d="M 560.654786 370.6 
L 562.789678 370.6 
L 562.789678 370.6 
L 560.654786 370.6 
z
" clip-path="url(#p69e43cf33a)" style="fill: #1f77b4"/>
   </g>
   <g id="patch_226">
    <path d="M 562.789678 370.6 
L 564.924569 370.6 
L 564.924569 370.6 
L 562.789678 370.6 
z
" clip-path="url(#p69e43cf33a)" style="fill: #1f77b4"/>
   </g>
   <g id="patch_227">
    <path d="M 564.924569 370.6 
L 567.05946 370.6 
L 567.05946 370.6 
L 564.924569 370.6 
z
" clip-path="url(#p69e43cf33a)" style="fill: #1f77b4"/>
   </g>
   <g id="patch_228">
    <path d="M 567.05946 370.6 
L 569.194351 370.6 
L 569.194351 370.6 
L 567.05946 370.6 
z
" clip-path="url(#p69e43cf33a)" style="fill: #1f77b4"/>
   </g>
   <g id="patch_229">
    <path d="M 569.194351 370.6 
L 571.329243 370.6 
L 571.329243 370.6 
L 569.194351 370.6 
z
" clip-path="url(#p69e43cf33a)" style="fill: #1f77b4"/>
   </g>
   <g id="patch_230">
    <path d="M 571.329243 370.6 
L 573.464134 370.6 
L 573.464134 370.6 
L 571.329243 370.6 
z
" clip-path="url(#p69e43cf33a)" style="fill: #1f77b4"/>
   </g>
   <g id="patch_231">
    <path d="M 573.464134 370.6 
L 575.599025 370.6 
L 575.599025 370.6 
L 573.464134 370.6 
z
" clip-path="url(#p69e43cf33a)" style="fill: #1f77b4"/>
   </g>
   <g id="patch_232">
    <path d="M 575.599025 370.6 
L 577.733916 370.6 
L 577.733916 370.6 
L 575.599025 370.6 
z
" clip-path="url(#p69e43cf33a)" style="fill: #1f77b4"/>
   </g>
   <g id="patch_233">
    <path d="M 577.733916 370.6 
L 579.868808 370.6 
L 579.868808 370.6 
L 577.733916 370.6 
z
" clip-path="url(#p69e43cf33a)" style="fill: #1f77b4"/>
   </g>
   <g id="patch_234">
    <path d="M 579.868808 370.6 
L 582.003699 370.6 
L 582.003699 370.6 
L 579.868808 370.6 
z
" clip-path="url(#p69e43cf33a)" style="fill: #1f77b4"/>
   </g>
   <g id="patch_235">
    <path d="M 582.003699 370.6 
L 584.13859 370.6 
L 584.13859 370.6 
L 582.003699 370.6 
z
" clip-path="url(#p69e43cf33a)" style="fill: #1f77b4"/>
   </g>
   <g id="patch_236">
    <path d="M 584.13859 370.6 
L 586.273481 370.6 
L 586.273481 370.6 
L 584.13859 370.6 
z
" clip-path="url(#p69e43cf33a)" style="fill: #1f77b4"/>
   </g>
   <g id="patch_237">
    <path d="M 586.273481 370.6 
L 588.408373 370.6 
L 588.408373 370.6 
L 586.273481 370.6 
z
" clip-path="url(#p69e43cf33a)" style="fill: #1f77b4"/>
   </g>
   <g id="patch_238">
    <path d="M 588.408373 370.6 
L 590.543264 370.6 
L 590.543264 370.6 
L 588.408373 370.6 
z
" clip-path="url(#p69e43cf33a)" style="fill: #1f77b4"/>
   </g>
   <g id="patch_239">
    <path d="M 590.543264 370.6 
L 592.678155 370.6 
L 592.678155 370.6 
L 590.543264 370.6 
z
" clip-path="url(#p69e43cf33a)" style="fill: #1f77b4"/>
   </g>
   <g id="patch_240">
    <path d="M 592.678155 370.6 
L 594.813046 370.6 
L 594.813046 370.6 
L 592.678155 370.6 
z
" clip-path="url(#p69e43cf33a)" style="fill: #1f77b4"/>
   </g>
   <g id="patch_241">
    <path d="M 594.813046 370.6 
L 596.947938 370.6 
L 596.947938 370.6 
L 594.813046 370.6 
z
" clip-path="url(#p69e43cf33a)" style="fill: #1f77b4"/>
   </g>
   <g id="patch_242">
    <path d="M 596.947938 370.6 
L 599.082829 370.6 
L 599.082829 370.6 
L 596.947938 370.6 
z
" clip-path="url(#p69e43cf33a)" style="fill: #1f77b4"/>
   </g>
   <g id="patch_243">
    <path d="M 599.082829 370.6 
L 601.21772 370.6 
L 601.21772 370.6 
L 599.082829 370.6 
z
" clip-path="url(#p69e43cf33a)" style="fill: #1f77b4"/>
   </g>
   <g id="patch_244">
    <path d="M 601.21772 370.6 
L 603.352611 370.6 
L 603.352611 370.6 
L 601.21772 370.6 
z
" clip-path="url(#p69e43cf33a)" style="fill: #1f77b4"/>
   </g>
   <g id="patch_245">
    <path d="M 603.352611 370.6 
L 605.487503 370.6 
L 605.487503 370.546164 
L 603.352611 370.546164 
z
" clip-path="url(#p69e43cf33a)" style="fill: #1f77b4"/>
   </g>
   <g id="matplotlib.axis_1">
    <g id="xtick_1">
     <g id="line2d_1">
      <defs>
       <path id="m4d327510cd" d="M 0 0 
L 0 3.5 
" style="stroke: #000000; stroke-width: 0.8"/>
      </defs>
      <g>
       <use xlink:href="#m4d327510cd" x="83.570767" y="370.6" style="stroke: #000000; stroke-width: 0.8"/>
      </g>
     </g>
     <g id="text_1">
      <!-- 0 -->
      <g transform="translate(80.389517 385.198438) scale(0.1 -0.1)">
       <defs>
        <path id="DejaVuSans-30" d="M 2034 4250 
Q 1547 4250 1301 3770 
Q 1056 3291 1056 2328 
Q 1056 1369 1301 889 
Q 1547 409 2034 409 
Q 2525 409 2770 889 
Q 3016 1369 3016 2328 
Q 3016 3291 2770 3770 
Q 2525 4250 2034 4250 
z
M 2034 4750 
Q 2819 4750 3233 4129 
Q 3647 3509 3647 2328 
Q 3647 1150 3233 529 
Q 2819 -91 2034 -91 
Q 1250 -91 836 529 
Q 422 1150 422 2328 
Q 422 3509 836 4129 
Q 1250 4750 2034 4750 
z
" transform="scale(0.015625)"/>
       </defs>
       <use xlink:href="#DejaVuSans-30"/>
      </g>
     </g>
    </g>
    <g id="xtick_2">
     <g id="line2d_2">
      <g>
       <use xlink:href="#m4d327510cd" x="193.012035" y="370.6" style="stroke: #000000; stroke-width: 0.8"/>
      </g>
     </g>
     <g id="text_2">
      <!-- 2 -->
      <g transform="translate(189.830785 385.198438) scale(0.1 -0.1)">
       <defs>
        <path id="DejaVuSans-32" d="M 1228 531 
L 3431 531 
L 3431 0 
L 469 0 
L 469 531 
Q 828 903 1448 1529 
Q 2069 2156 2228 2338 
Q 2531 2678 2651 2914 
Q 2772 3150 2772 3378 
Q 2772 3750 2511 3984 
Q 2250 4219 1831 4219 
Q 1534 4219 1204 4116 
Q 875 4013 500 3803 
L 500 4441 
Q 881 4594 1212 4672 
Q 1544 4750 1819 4750 
Q 2544 4750 2975 4387 
Q 3406 4025 3406 3419 
Q 3406 3131 3298 2873 
Q 3191 2616 2906 2266 
Q 2828 2175 2409 1742 
Q 1991 1309 1228 531 
z
" transform="scale(0.015625)"/>
       </defs>
       <use xlink:href="#DejaVuSans-32"/>
      </g>
     </g>
    </g>
    <g id="xtick_3">
     <g id="line2d_3">
      <g>
       <use xlink:href="#m4d327510cd" x="302.453303" y="370.6" style="stroke: #000000; stroke-width: 0.8"/>
      </g>
     </g>
     <g id="text_3">
      <!-- 4 -->
      <g transform="translate(299.272053 385.198438) scale(0.1 -0.1)">
       <defs>
        <path id="DejaVuSans-34" d="M 2419 4116 
L 825 1625 
L 2419 1625 
L 2419 4116 
z
M 2253 4666 
L 3047 4666 
L 3047 1625 
L 3713 1625 
L 3713 1100 
L 3047 1100 
L 3047 0 
L 2419 0 
L 2419 1100 
L 313 1100 
L 313 1709 
L 2253 4666 
z
" transform="scale(0.015625)"/>
       </defs>
       <use xlink:href="#DejaVuSans-34"/>
      </g>
     </g>
    </g>
    <g id="xtick_4">
     <g id="line2d_4">
      <g>
       <use xlink:href="#m4d327510cd" x="411.894571" y="370.6" style="stroke: #000000; stroke-width: 0.8"/>
      </g>
     </g>
     <g id="text_4">
      <!-- 6 -->
      <g transform="translate(408.713321 385.198438) scale(0.1 -0.1)">
       <defs>
        <path id="DejaVuSans-36" d="M 2113 2584 
Q 1688 2584 1439 2293 
Q 1191 2003 1191 1497 
Q 1191 994 1439 701 
Q 1688 409 2113 409 
Q 2538 409 2786 701 
Q 3034 994 3034 1497 
Q 3034 2003 2786 2293 
Q 2538 2584 2113 2584 
z
M 3366 4563 
L 3366 3988 
Q 3128 4100 2886 4159 
Q 2644 4219 2406 4219 
Q 1781 4219 1451 3797 
Q 1122 3375 1075 2522 
Q 1259 2794 1537 2939 
Q 1816 3084 2150 3084 
Q 2853 3084 3261 2657 
Q 3669 2231 3669 1497 
Q 3669 778 3244 343 
Q 2819 -91 2113 -91 
Q 1303 -91 875 529 
Q 447 1150 447 2328 
Q 447 3434 972 4092 
Q 1497 4750 2381 4750 
Q 2619 4750 2861 4703 
Q 3103 4656 3366 4563 
z
" transform="scale(0.015625)"/>
       </defs>
       <use xlink:href="#DejaVuSans-36"/>
      </g>
     </g>
    </g>
    <g id="xtick_5">
     <g id="line2d_5">
      <g>
       <use xlink:href="#m4d327510cd" x="521.335839" y="370.6" style="stroke: #000000; stroke-width: 0.8"/>
      </g>
     </g>
     <g id="text_5">
      <!-- 8 -->
      <g transform="translate(518.154589 385.198438) scale(0.1 -0.1)">
       <defs>
        <path id="DejaVuSans-38" d="M 2034 2216 
Q 1584 2216 1326 1975 
Q 1069 1734 1069 1313 
Q 1069 891 1326 650 
Q 1584 409 2034 409 
Q 2484 409 2743 651 
Q 3003 894 3003 1313 
Q 3003 1734 2745 1975 
Q 2488 2216 2034 2216 
z
M 1403 2484 
Q 997 2584 770 2862 
Q 544 3141 544 3541 
Q 544 4100 942 4425 
Q 1341 4750 2034 4750 
Q 2731 4750 3128 4425 
Q 3525 4100 3525 3541 
Q 3525 3141 3298 2862 
Q 3072 2584 2669 2484 
Q 3125 2378 3379 2068 
Q 3634 1759 3634 1313 
Q 3634 634 3220 271 
Q 2806 -91 2034 -91 
Q 1263 -91 848 271 
Q 434 634 434 1313 
Q 434 1759 690 2068 
Q 947 2378 1403 2484 
z
M 1172 3481 
Q 1172 3119 1398 2916 
Q 1625 2713 2034 2713 
Q 2441 2713 2670 2916 
Q 2900 3119 2900 3481 
Q 2900 3844 2670 4047 
Q 2441 4250 2034 4250 
Q 1625 4250 1398 4047 
Q 1172 3844 1172 3481 
z
" transform="scale(0.015625)"/>
       </defs>
       <use xlink:href="#DejaVuSans-38"/>
      </g>
     </g>
    </g>
    <g id="xtick_6">
     <g id="line2d_6">
      <g>
       <use xlink:href="#m4d327510cd" x="630.777106" y="370.6" style="stroke: #000000; stroke-width: 0.8"/>
      </g>
     </g>
     <g id="text_6">
      <!-- 10 -->
      <g transform="translate(624.414606 385.198438) scale(0.1 -0.1)">
       <defs>
        <path id="DejaVuSans-31" d="M 794 531 
L 1825 531 
L 1825 4091 
L 703 3866 
L 703 4441 
L 1819 4666 
L 2450 4666 
L 2450 531 
L 3481 531 
L 3481 0 
L 794 0 
L 794 531 
z
" transform="scale(0.015625)"/>
       </defs>
       <use xlink:href="#DejaVuSans-31"/>
       <use xlink:href="#DejaVuSans-30" x="63.623047"/>
      </g>
     </g>
    </g>
    <g id="text_7">
     <!-- absolute difference of  -->
     <g transform="translate(267.337278 401.915938) scale(0.14 -0.14)">
      <defs>
       <path id="DejaVuSans-61" d="M 2194 1759 
Q 1497 1759 1228 1600 
Q 959 1441 959 1056 
Q 959 750 1161 570 
Q 1363 391 1709 391 
Q 2188 391 2477 730 
Q 2766 1069 2766 1631 
L 2766 1759 
L 2194 1759 
z
M 3341 1997 
L 3341 0 
L 2766 0 
L 2766 531 
Q 2569 213 2275 61 
Q 1981 -91 1556 -91 
Q 1019 -91 701 211 
Q 384 513 384 1019 
Q 384 1609 779 1909 
Q 1175 2209 1959 2209 
L 2766 2209 
L 2766 2266 
Q 2766 2663 2505 2880 
Q 2244 3097 1772 3097 
Q 1472 3097 1187 3025 
Q 903 2953 641 2809 
L 641 3341 
Q 956 3463 1253 3523 
Q 1550 3584 1831 3584 
Q 2591 3584 2966 3190 
Q 3341 2797 3341 1997 
z
" transform="scale(0.015625)"/>
       <path id="DejaVuSans-62" d="M 3116 1747 
Q 3116 2381 2855 2742 
Q 2594 3103 2138 3103 
Q 1681 3103 1420 2742 
Q 1159 2381 1159 1747 
Q 1159 1113 1420 752 
Q 1681 391 2138 391 
Q 2594 391 2855 752 
Q 3116 1113 3116 1747 
z
M 1159 2969 
Q 1341 3281 1617 3432 
Q 1894 3584 2278 3584 
Q 2916 3584 3314 3078 
Q 3713 2572 3713 1747 
Q 3713 922 3314 415 
Q 2916 -91 2278 -91 
Q 1894 -91 1617 61 
Q 1341 213 1159 525 
L 1159 0 
L 581 0 
L 581 4863 
L 1159 4863 
L 1159 2969 
z
" transform="scale(0.015625)"/>
       <path id="DejaVuSans-73" d="M 2834 3397 
L 2834 2853 
Q 2591 2978 2328 3040 
Q 2066 3103 1784 3103 
Q 1356 3103 1142 2972 
Q 928 2841 928 2578 
Q 928 2378 1081 2264 
Q 1234 2150 1697 2047 
L 1894 2003 
Q 2506 1872 2764 1633 
Q 3022 1394 3022 966 
Q 3022 478 2636 193 
Q 2250 -91 1575 -91 
Q 1294 -91 989 -36 
Q 684 19 347 128 
L 347 722 
Q 666 556 975 473 
Q 1284 391 1588 391 
Q 1994 391 2212 530 
Q 2431 669 2431 922 
Q 2431 1156 2273 1281 
Q 2116 1406 1581 1522 
L 1381 1569 
Q 847 1681 609 1914 
Q 372 2147 372 2553 
Q 372 3047 722 3315 
Q 1072 3584 1716 3584 
Q 2034 3584 2315 3537 
Q 2597 3491 2834 3397 
z
" transform="scale(0.015625)"/>
       <path id="DejaVuSans-6f" d="M 1959 3097 
Q 1497 3097 1228 2736 
Q 959 2375 959 1747 
Q 959 1119 1226 758 
Q 1494 397 1959 397 
Q 2419 397 2687 759 
Q 2956 1122 2956 1747 
Q 2956 2369 2687 2733 
Q 2419 3097 1959 3097 
z
M 1959 3584 
Q 2709 3584 3137 3096 
Q 3566 2609 3566 1747 
Q 3566 888 3137 398 
Q 2709 -91 1959 -91 
Q 1206 -91 779 398 
Q 353 888 353 1747 
Q 353 2609 779 3096 
Q 1206 3584 1959 3584 
z
" transform="scale(0.015625)"/>
       <path id="DejaVuSans-6c" d="M 603 4863 
L 1178 4863 
L 1178 0 
L 603 0 
L 603 4863 
z
" transform="scale(0.015625)"/>
       <path id="DejaVuSans-75" d="M 544 1381 
L 544 3500 
L 1119 3500 
L 1119 1403 
Q 1119 906 1312 657 
Q 1506 409 1894 409 
Q 2359 409 2629 706 
Q 2900 1003 2900 1516 
L 2900 3500 
L 3475 3500 
L 3475 0 
L 2900 0 
L 2900 538 
Q 2691 219 2414 64 
Q 2138 -91 1772 -91 
Q 1169 -91 856 284 
Q 544 659 544 1381 
z
M 1991 3584 
L 1991 3584 
z
" transform="scale(0.015625)"/>
       <path id="DejaVuSans-74" d="M 1172 4494 
L 1172 3500 
L 2356 3500 
L 2356 3053 
L 1172 3053 
L 1172 1153 
Q 1172 725 1289 603 
Q 1406 481 1766 481 
L 2356 481 
L 2356 0 
L 1766 0 
Q 1100 0 847 248 
Q 594 497 594 1153 
L 594 3053 
L 172 3053 
L 172 3500 
L 594 3500 
L 594 4494 
L 1172 4494 
z
" transform="scale(0.015625)"/>
       <path id="DejaVuSans-65" d="M 3597 1894 
L 3597 1613 
L 953 1613 
Q 991 1019 1311 708 
Q 1631 397 2203 397 
Q 2534 397 2845 478 
Q 3156 559 3463 722 
L 3463 178 
Q 3153 47 2828 -22 
Q 2503 -91 2169 -91 
Q 1331 -91 842 396 
Q 353 884 353 1716 
Q 353 2575 817 3079 
Q 1281 3584 2069 3584 
Q 2775 3584 3186 3129 
Q 3597 2675 3597 1894 
z
M 3022 2063 
Q 3016 2534 2758 2815 
Q 2500 3097 2075 3097 
Q 1594 3097 1305 2825 
Q 1016 2553 972 2059 
L 3022 2063 
z
" transform="scale(0.015625)"/>
       <path id="DejaVuSans-20" transform="scale(0.015625)"/>
       <path id="DejaVuSans-64" d="M 2906 2969 
L 2906 4863 
L 3481 4863 
L 3481 0 
L 2906 0 
L 2906 525 
Q 2725 213 2448 61 
Q 2172 -91 1784 -91 
Q 1150 -91 751 415 
Q 353 922 353 1747 
Q 353 2572 751 3078 
Q 1150 3584 1784 3584 
Q 2172 3584 2448 3432 
Q 2725 3281 2906 2969 
z
M 947 1747 
Q 947 1113 1208 752 
Q 1469 391 1925 391 
Q 2381 391 2643 752 
Q 2906 1113 2906 1747 
Q 2906 2381 2643 2742 
Q 2381 3103 1925 3103 
Q 1469 3103 1208 2742 
Q 947 2381 947 1747 
z
" transform="scale(0.015625)"/>
       <path id="DejaVuSans-69" d="M 603 3500 
L 1178 3500 
L 1178 0 
L 603 0 
L 603 3500 
z
M 603 4863 
L 1178 4863 
L 1178 4134 
L 603 4134 
L 603 4863 
z
" transform="scale(0.015625)"/>
       <path id="DejaVuSans-66" d="M 2375 4863 
L 2375 4384 
L 1825 4384 
Q 1516 4384 1395 4259 
Q 1275 4134 1275 3809 
L 1275 3500 
L 2222 3500 
L 2222 3053 
L 1275 3053 
L 1275 0 
L 697 0 
L 697 3053 
L 147 3053 
L 147 3500 
L 697 3500 
L 697 3744 
Q 697 4328 969 4595 
Q 1241 4863 1831 4863 
L 2375 4863 
z
" transform="scale(0.015625)"/>
       <path id="DejaVuSans-72" d="M 2631 2963 
Q 2534 3019 2420 3045 
Q 2306 3072 2169 3072 
Q 1681 3072 1420 2755 
Q 1159 2438 1159 1844 
L 1159 0 
L 581 0 
L 581 3500 
L 1159 3500 
L 1159 2956 
Q 1341 3275 1631 3429 
Q 1922 3584 2338 3584 
Q 2397 3584 2469 3576 
Q 2541 3569 2628 3553 
L 2631 2963 
z
" transform="scale(0.015625)"/>
       <path id="DejaVuSans-6e" d="M 3513 2113 
L 3513 0 
L 2938 0 
L 2938 2094 
Q 2938 2591 2744 2837 
Q 2550 3084 2163 3084 
Q 1697 3084 1428 2787 
Q 1159 2491 1159 1978 
L 1159 0 
L 581 0 
L 581 3500 
L 1159 3500 
L 1159 2956 
Q 1366 3272 1645 3428 
Q 1925 3584 2291 3584 
Q 2894 3584 3203 3211 
Q 3513 2838 3513 2113 
z
" transform="scale(0.015625)"/>
       <path id="DejaVuSans-63" d="M 3122 3366 
L 3122 2828 
Q 2878 2963 2633 3030 
Q 2388 3097 2138 3097 
Q 1578 3097 1268 2742 
Q 959 2388 959 1747 
Q 959 1106 1268 751 
Q 1578 397 2138 397 
Q 2388 397 2633 464 
Q 2878 531 3122 666 
L 3122 134 
Q 2881 22 2623 -34 
Q 2366 -91 2075 -91 
Q 1284 -91 818 406 
Q 353 903 353 1747 
Q 353 2603 823 3093 
Q 1294 3584 2113 3584 
Q 2378 3584 2631 3529 
Q 2884 3475 3122 3366 
z
" transform="scale(0.015625)"/>
      </defs>
      <use xlink:href="#DejaVuSans-61"/>
      <use xlink:href="#DejaVuSans-62" x="61.279297"/>
      <use xlink:href="#DejaVuSans-73" x="124.755859"/>
      <use xlink:href="#DejaVuSans-6f" x="176.855469"/>
      <use xlink:href="#DejaVuSans-6c" x="238.037109"/>
      <use xlink:href="#DejaVuSans-75" x="265.820312"/>
      <use xlink:href="#DejaVuSans-74" x="329.199219"/>
      <use xlink:href="#DejaVuSans-65" x="368.408203"/>
      <use xlink:href="#DejaVuSans-20" x="429.931641"/>
      <use xlink:href="#DejaVuSans-64" x="461.71875"/>
      <use xlink:href="#DejaVuSans-69" x="525.195312"/>
      <use xlink:href="#DejaVuSans-66" x="552.978516"/>
      <use xlink:href="#DejaVuSans-66" x="588.183594"/>
      <use xlink:href="#DejaVuSans-65" x="623.388672"/>
      <use xlink:href="#DejaVuSans-72" x="684.912109"/>
      <use xlink:href="#DejaVuSans-65" x="723.775391"/>
      <use xlink:href="#DejaVuSans-6e" x="785.298828"/>
      <use xlink:href="#DejaVuSans-63" x="848.677734"/>
      <use xlink:href="#DejaVuSans-65" x="903.658203"/>
      <use xlink:href="#DejaVuSans-20" x="965.181641"/>
      <use xlink:href="#DejaVuSans-6f" x="996.96875"/>
      <use xlink:href="#DejaVuSans-66" x="1058.150391"/>
      <use xlink:href="#DejaVuSans-20" x="1093.355469"/>
     </g>
     <!-- vertical excitation energy -->
     <g transform="translate(256.714778 417.592875) scale(0.14 -0.14)">
      <defs>
       <path id="DejaVuSans-76" d="M 191 3500 
L 800 3500 
L 1894 563 
L 2988 3500 
L 3597 3500 
L 2284 0 
L 1503 0 
L 191 3500 
z
" transform="scale(0.015625)"/>
       <path id="DejaVuSans-78" d="M 3513 3500 
L 2247 1797 
L 3578 0 
L 2900 0 
L 1881 1375 
L 863 0 
L 184 0 
L 1544 1831 
L 300 3500 
L 978 3500 
L 1906 2253 
L 2834 3500 
L 3513 3500 
z
" transform="scale(0.015625)"/>
       <path id="DejaVuSans-67" d="M 2906 1791 
Q 2906 2416 2648 2759 
Q 2391 3103 1925 3103 
Q 1463 3103 1205 2759 
Q 947 2416 947 1791 
Q 947 1169 1205 825 
Q 1463 481 1925 481 
Q 2391 481 2648 825 
Q 2906 1169 2906 1791 
z
M 3481 434 
Q 3481 -459 3084 -895 
Q 2688 -1331 1869 -1331 
Q 1566 -1331 1297 -1286 
Q 1028 -1241 775 -1147 
L 775 -588 
Q 1028 -725 1275 -790 
Q 1522 -856 1778 -856 
Q 2344 -856 2625 -561 
Q 2906 -266 2906 331 
L 2906 616 
Q 2728 306 2450 153 
Q 2172 0 1784 0 
Q 1141 0 747 490 
Q 353 981 353 1791 
Q 353 2603 747 3093 
Q 1141 3584 1784 3584 
Q 2172 3584 2450 3431 
Q 2728 3278 2906 2969 
L 2906 3500 
L 3481 3500 
L 3481 434 
z
" transform="scale(0.015625)"/>
       <path id="DejaVuSans-79" d="M 2059 -325 
Q 1816 -950 1584 -1140 
Q 1353 -1331 966 -1331 
L 506 -1331 
L 506 -850 
L 844 -850 
Q 1081 -850 1212 -737 
Q 1344 -625 1503 -206 
L 1606 56 
L 191 3500 
L 800 3500 
L 1894 763 
L 2988 3500 
L 3597 3500 
L 2059 -325 
z
" transform="scale(0.015625)"/>
      </defs>
      <use xlink:href="#DejaVuSans-76"/>
      <use xlink:href="#DejaVuSans-65" x="59.179688"/>
      <use xlink:href="#DejaVuSans-72" x="120.703125"/>
      <use xlink:href="#DejaVuSans-74" x="161.816406"/>
      <use xlink:href="#DejaVuSans-69" x="201.025391"/>
      <use xlink:href="#DejaVuSans-63" x="228.808594"/>
      <use xlink:href="#DejaVuSans-61" x="283.789062"/>
      <use xlink:href="#DejaVuSans-6c" x="345.068359"/>
      <use xlink:href="#DejaVuSans-20" x="372.851562"/>
      <use xlink:href="#DejaVuSans-65" x="404.638672"/>
      <use xlink:href="#DejaVuSans-78" x="464.412109"/>
      <use xlink:href="#DejaVuSans-63" x="521.841797"/>
      <use xlink:href="#DejaVuSans-69" x="576.822266"/>
      <use xlink:href="#DejaVuSans-74" x="604.605469"/>
      <use xlink:href="#DejaVuSans-61" x="643.814453"/>
      <use xlink:href="#DejaVuSans-74" x="705.09375"/>
      <use xlink:href="#DejaVuSans-69" x="744.302734"/>
      <use xlink:href="#DejaVuSans-6f" x="772.085938"/>
      <use xlink:href="#DejaVuSans-6e" x="833.267578"/>
      <use xlink:href="#DejaVuSans-20" x="896.646484"/>
      <use xlink:href="#DejaVuSans-65" x="928.433594"/>
      <use xlink:href="#DejaVuSans-6e" x="989.957031"/>
      <use xlink:href="#DejaVuSans-65" x="1053.335938"/>
      <use xlink:href="#DejaVuSans-72" x="1114.859375"/>
      <use xlink:href="#DejaVuSans-67" x="1154.222656"/>
      <use xlink:href="#DejaVuSans-79" x="1217.699219"/>
     </g>
    </g>
   </g>
   <g id="matplotlib.axis_2">
    <g id="ytick_1">
     <g id="line2d_7">
      <defs>
       <path id="mc302298e67" d="M 0 0 
L -3.5 0 
" style="stroke: #000000; stroke-width: 0.8"/>
      </defs>
      <g>
       <use xlink:href="#mc302298e67" x="60.77" y="370.6" style="stroke: #000000; stroke-width: 0.8"/>
      </g>
     </g>
     <g id="text_8">
      <!-- 0 -->
      <g transform="translate(47.4075 374.399219) scale(0.1 -0.1)">
       <use xlink:href="#DejaVuSans-30"/>
      </g>
     </g>
    </g>
    <g id="ytick_2">
     <g id="line2d_8">
      <g>
       <use xlink:href="#mc302298e67" x="60.77" y="316.763917" style="stroke: #000000; stroke-width: 0.8"/>
      </g>
     </g>
     <g id="text_9">
      <!-- 1000 -->
      <g transform="translate(28.32 320.563136) scale(0.1 -0.1)">
       <use xlink:href="#DejaVuSans-31"/>
       <use xlink:href="#DejaVuSans-30" x="63.623047"/>
       <use xlink:href="#DejaVuSans-30" x="127.246094"/>
       <use xlink:href="#DejaVuSans-30" x="190.869141"/>
      </g>
     </g>
    </g>
    <g id="ytick_3">
     <g id="line2d_9">
      <g>
       <use xlink:href="#mc302298e67" x="60.77" y="262.927835" style="stroke: #000000; stroke-width: 0.8"/>
      </g>
     </g>
     <g id="text_10">
      <!-- 2000 -->
      <g transform="translate(28.32 266.727053) scale(0.1 -0.1)">
       <use xlink:href="#DejaVuSans-32"/>
       <use xlink:href="#DejaVuSans-30" x="63.623047"/>
       <use xlink:href="#DejaVuSans-30" x="127.246094"/>
       <use xlink:href="#DejaVuSans-30" x="190.869141"/>
      </g>
     </g>
    </g>
    <g id="ytick_4">
     <g id="line2d_10">
      <g>
       <use xlink:href="#mc302298e67" x="60.77" y="209.091752" style="stroke: #000000; stroke-width: 0.8"/>
      </g>
     </g>
     <g id="text_11">
      <!-- 3000 -->
      <g transform="translate(28.32 212.890971) scale(0.1 -0.1)">
       <defs>
        <path id="DejaVuSans-33" d="M 2597 2516 
Q 3050 2419 3304 2112 
Q 3559 1806 3559 1356 
Q 3559 666 3084 287 
Q 2609 -91 1734 -91 
Q 1441 -91 1130 -33 
Q 819 25 488 141 
L 488 750 
Q 750 597 1062 519 
Q 1375 441 1716 441 
Q 2309 441 2620 675 
Q 2931 909 2931 1356 
Q 2931 1769 2642 2001 
Q 2353 2234 1838 2234 
L 1294 2234 
L 1294 2753 
L 1863 2753 
Q 2328 2753 2575 2939 
Q 2822 3125 2822 3475 
Q 2822 3834 2567 4026 
Q 2313 4219 1838 4219 
Q 1578 4219 1281 4162 
Q 984 4106 628 3988 
L 628 4550 
Q 988 4650 1302 4700 
Q 1616 4750 1894 4750 
Q 2613 4750 3031 4423 
Q 3450 4097 3450 3541 
Q 3450 3153 3228 2886 
Q 3006 2619 2597 2516 
z
" transform="scale(0.015625)"/>
       </defs>
       <use xlink:href="#DejaVuSans-33"/>
       <use xlink:href="#DejaVuSans-30" x="63.623047"/>
       <use xlink:href="#DejaVuSans-30" x="127.246094"/>
       <use xlink:href="#DejaVuSans-30" x="190.869141"/>
      </g>
     </g>
    </g>
    <g id="ytick_5">
     <g id="line2d_11">
      <g>
       <use xlink:href="#mc302298e67" x="60.77" y="155.255669" style="stroke: #000000; stroke-width: 0.8"/>
      </g>
     </g>
     <g id="text_12">
      <!-- 4000 -->
      <g transform="translate(28.32 159.054888) scale(0.1 -0.1)">
       <use xlink:href="#DejaVuSans-34"/>
       <use xlink:href="#DejaVuSans-30" x="63.623047"/>
       <use xlink:href="#DejaVuSans-30" x="127.246094"/>
       <use xlink:href="#DejaVuSans-30" x="190.869141"/>
      </g>
     </g>
    </g>
    <g id="ytick_6">
     <g id="line2d_12">
      <g>
       <use xlink:href="#mc302298e67" x="60.77" y="101.419586" style="stroke: #000000; stroke-width: 0.8"/>
      </g>
     </g>
     <g id="text_13">
      <!-- 5000 -->
      <g transform="translate(28.32 105.218805) scale(0.1 -0.1)">
       <defs>
        <path id="DejaVuSans-35" d="M 691 4666 
L 3169 4666 
L 3169 4134 
L 1269 4134 
L 1269 2991 
Q 1406 3038 1543 3061 
Q 1681 3084 1819 3084 
Q 2600 3084 3056 2656 
Q 3513 2228 3513 1497 
Q 3513 744 3044 326 
Q 2575 -91 1722 -91 
Q 1428 -91 1123 -41 
Q 819 9 494 109 
L 494 744 
Q 775 591 1075 516 
Q 1375 441 1709 441 
Q 2250 441 2565 725 
Q 2881 1009 2881 1497 
Q 2881 1984 2565 2268 
Q 2250 2553 1709 2553 
Q 1456 2553 1204 2497 
Q 953 2441 691 2322 
L 691 4666 
z
" transform="scale(0.015625)"/>
       </defs>
       <use xlink:href="#DejaVuSans-35"/>
       <use xlink:href="#DejaVuSans-30" x="63.623047"/>
       <use xlink:href="#DejaVuSans-30" x="127.246094"/>
       <use xlink:href="#DejaVuSans-30" x="190.869141"/>
      </g>
     </g>
    </g>
    <g id="ytick_7">
     <g id="line2d_13">
      <g>
       <use xlink:href="#mc302298e67" x="60.77" y="47.583504" style="stroke: #000000; stroke-width: 0.8"/>
      </g>
     </g>
     <g id="text_14">
      <!-- 6000 -->
      <g transform="translate(28.32 51.382722) scale(0.1 -0.1)">
       <use xlink:href="#DejaVuSans-36"/>
       <use xlink:href="#DejaVuSans-30" x="63.623047"/>
       <use xlink:href="#DejaVuSans-30" x="127.246094"/>
       <use xlink:href="#DejaVuSans-30" x="190.869141"/>
      </g>
     </g>
    </g>
    <g id="text_15">
     <!-- Count -->
     <g transform="translate(21.408437 211.487812) rotate(-90) scale(0.14 -0.14)">
      <defs>
       <path id="DejaVuSans-43" d="M 4122 4306 
L 4122 3641 
Q 3803 3938 3442 4084 
Q 3081 4231 2675 4231 
Q 1875 4231 1450 3742 
Q 1025 3253 1025 2328 
Q 1025 1406 1450 917 
Q 1875 428 2675 428 
Q 3081 428 3442 575 
Q 3803 722 4122 1019 
L 4122 359 
Q 3791 134 3420 21 
Q 3050 -91 2638 -91 
Q 1578 -91 968 557 
Q 359 1206 359 2328 
Q 359 3453 968 4101 
Q 1578 4750 2638 4750 
Q 3056 4750 3426 4639 
Q 3797 4528 4122 4306 
z
" transform="scale(0.015625)"/>
      </defs>
      <use xlink:href="#DejaVuSans-43"/>
      <use xlink:href="#DejaVuSans-6f" x="69.824219"/>
      <use xlink:href="#DejaVuSans-75" x="131.005859"/>
      <use xlink:href="#DejaVuSans-6e" x="194.384766"/>
      <use xlink:href="#DejaVuSans-74" x="257.763672"/>
     </g>
    </g>
   </g>
   <g id="line2d_14">
    <path d="M 171.957616 370.6 
L 171.957616 27.933333 
" clip-path="url(#p69e43cf33a)" style="fill: none; stroke: #ff0000; stroke-width: 1.6; stroke-linecap: square"/>
   </g>
   <g id="patch_246">
    <path d="M 60.77 370.6 
L 60.77 10.8 
" style="fill: none; stroke: #000000; stroke-width: 0.8; stroke-linejoin: miter; stroke-linecap: square"/>
   </g>
   <g id="patch_247">
    <path d="M 631.426431 370.6 
L 631.426431 10.8 
" style="fill: none; stroke: #000000; stroke-width: 0.8; stroke-linejoin: miter; stroke-linecap: square"/>
   </g>
   <g id="patch_248">
    <path d="M 60.77 370.6 
L 631.426431 370.6 
" style="fill: none; stroke: #000000; stroke-width: 0.8; stroke-linejoin: miter; stroke-linecap: square"/>
   </g>
   <g id="patch_249">
    <path d="M 60.77 10.8 
L 631.426431 10.8 
" style="fill: none; stroke: #000000; stroke-width: 0.8; stroke-linejoin: miter; stroke-linecap: square"/>
   </g>
   <g id="text_16">
    <!-- $\mu_3 = 2.688$ -->
    <g transform="translate(460.229502 63.689188) scale(0.17 -0.17)">
     <defs>
      <path id="DejaVuSans-Oblique-3bc" d="M -84 -1331 
L 856 3500 
L 1434 3500 
L 1009 1322 
Q 997 1256 987 1175 
Q 978 1094 978 1013 
Q 978 722 1161 565 
Q 1344 409 1684 409 
Q 2147 409 2431 671 
Q 2716 934 2816 1459 
L 3213 3500 
L 3788 3500 
L 3266 809 
Q 3253 750 3248 706 
Q 3244 663 3244 628 
Q 3244 531 3283 486 
Q 3322 441 3406 441 
Q 3438 441 3492 456 
Q 3547 472 3647 513 
L 3559 50 
Q 3422 -19 3297 -55 
Q 3172 -91 3053 -91 
Q 2847 -91 2730 40 
Q 2613 172 2613 403 
Q 2438 153 2195 31 
Q 1953 -91 1625 -91 
Q 1334 -91 1117 43 
Q 900 178 831 397 
L 494 -1331 
L -84 -1331 
z
" transform="scale(0.015625)"/>
      <path id="DejaVuSans-3d" d="M 678 2906 
L 4684 2906 
L 4684 2381 
L 678 2381 
L 678 2906 
z
M 678 1631 
L 4684 1631 
L 4684 1100 
L 678 1100 
L 678 1631 
z
" transform="scale(0.015625)"/>
      <path id="DejaVuSans-2e" d="M 684 794 
L 1344 794 
L 1344 0 
L 684 0 
L 684 794 
z
" transform="scale(0.015625)"/>
     </defs>
     <use xlink:href="#DejaVuSans-Oblique-3bc" transform="translate(0 0.78125)"/>
     <use xlink:href="#DejaVuSans-33" transform="translate(63.623047 -15.625) scale(0.7)"/>
     <use xlink:href="#DejaVuSans-3d" transform="translate(130.375977 0.78125)"/>
     <use xlink:href="#DejaVuSans-32" transform="translate(233.647461 0.78125)"/>
     <use xlink:href="#DejaVuSans-2e" transform="translate(297.270508 0.78125)"/>
     <use xlink:href="#DejaVuSans-36" transform="translate(329.057617 0.78125)"/>
     <use xlink:href="#DejaVuSans-38" transform="translate(392.680664 0.78125)"/>
     <use xlink:href="#DejaVuSans-38" transform="translate(456.303711 0.78125)"/>
    </g>
    <!-- $\sigma_3 = 1.038$ -->
    <g transform="translate(460.229502 82.76) scale(0.17 -0.17)">
     <defs>
      <path id="DejaVuSans-Oblique-3c3" d="M 2219 3044 
Q 1744 3044 1422 2700 
Q 1081 2341 969 1747 
Q 844 1119 1044 756 
Q 1241 397 1706 397 
Q 2166 397 2503 759 
Q 2844 1122 2966 1747 
Q 3075 2319 2881 2700 
Q 2700 3044 2219 3044 
z
M 2309 3503 
L 4219 3500 
L 4106 2925 
L 3463 2925 
Q 3706 2438 3575 1747 
Q 3406 888 2884 400 
Q 2359 -91 1609 -91 
Q 856 -91 525 400 
Q 194 888 363 1747 
Q 528 2609 1050 3097 
Q 1484 3503 2309 3503 
z
" transform="scale(0.015625)"/>
     </defs>
     <use xlink:href="#DejaVuSans-Oblique-3c3" transform="translate(0 0.78125)"/>
     <use xlink:href="#DejaVuSans-33" transform="translate(63.378906 -15.625) scale(0.7)"/>
     <use xlink:href="#DejaVuSans-3d" transform="translate(130.131836 0.78125)"/>
     <use xlink:href="#DejaVuSans-31" transform="translate(233.40332 0.78125)"/>
     <use xlink:href="#DejaVuSans-2e" transform="translate(297.026367 0.78125)"/>
     <use xlink:href="#DejaVuSans-30" transform="translate(328.813477 0.78125)"/>
     <use xlink:href="#DejaVuSans-33" transform="translate(392.436523 0.78125)"/>
     <use xlink:href="#DejaVuSans-38" transform="translate(456.05957 0.78125)"/>
    </g>
   </g>
  </g>
 </g>
 <defs>
  <clipPath id="p69e43cf33a">
   <rect x="60.77" y="10.8" width="570.656431" height="359.8"/>
  </clipPath>
 </defs>
</svg>
