<?xml version="1.0" encoding="utf-8" standalone="no"?>
<!DOCTYPE svg PUBLIC "-//W3C//DTD SVG 1.1//EN"
  "http://www.w3.org/Graphics/SVG/1.1/DTD/svg11.dtd">
<svg xmlns:xlink="http://www.w3.org/1999/xlink" width="720pt" height="360pt" viewBox="0 0 720 360" xmlns="http://www.w3.org/2000/svg" version="1.1">
 <metadata>
  <rdf:RDF xmlns:dc="http://purl.org/dc/elements/1.1/" xmlns:cc="http://creativecommons.org/ns#" xmlns:rdf="http://www.w3.org/1999/02/22-rdf-syntax-ns#">
   <cc:Work>
    <dc:type rdf:resource="http://purl.org/dc/dcmitype/StillImage"/>
    <dc:date>2023-09-28T23:18:42.415765</dc:date>
    <dc:format>image/svg+xml</dc:format>
    <dc:creator>
     <cc:Agent>
      <dc:title>Matplotlib v3.7.1, https://matplotlib.org/</dc:title>
     </cc:Agent>
    </dc:creator>
   </cc:Work>
  </rdf:RDF>
 </metadata>
 <defs>
  <style type="text/css">*{stroke-linejoin: round; stroke-linecap: butt}</style>
 </defs>
 <g id="figure_1">
  <g id="patch_1">
   <path d="M 0 360 
L 720 360 
L 720 0 
L 0 0 
z
" style="fill: #ffffff"/>
  </g>
  <g id="axes_1">
   <g id="patch_2">
    <path d="M 90 320.4 
L 648 320.4 
L 648 43.2 
L 90 43.2 
z
" style="fill: #ffffff"/>
   </g>
   <g id="patch_3">
    <path d="M 115.363636 320.4 
L 117.201581 320.4 
L 117.201581 320.358776 
L 115.363636 320.358776 
z
" clip-path="url(#pb0a6140034)" style="fill: #1f77b4"/>
   </g>
   <g id="patch_4">
    <path d="M 117.201581 320.4 
L 119.039526 320.4 
L 119.039526 320.4 
L 117.201581 320.4 
z
" clip-path="url(#pb0a6140034)" style="fill: #1f77b4"/>
   </g>
   <g id="patch_5">
    <path d="M 119.039526 320.4 
L 120.87747 320.4 
L 120.87747 320.4 
L 119.039526 320.4 
z
" clip-path="url(#pb0a6140034)" style="fill: #1f77b4"/>
   </g>
   <g id="patch_6">
    <path d="M 120.87747 320.4 
L 122.715415 320.4 
L 122.715415 320.4 
L 120.87747 320.4 
z
" clip-path="url(#pb0a6140034)" style="fill: #1f77b4"/>
   </g>
   <g id="patch_7">
    <path d="M 122.715415 320.4 
L 124.55336 320.4 
L 124.55336 320.4 
L 122.715415 320.4 
z
" clip-path="url(#pb0a6140034)" style="fill: #1f77b4"/>
   </g>
   <g id="patch_8">
    <path d="M 124.55336 320.4 
L 126.391304 320.4 
L 126.391304 320.4 
L 124.55336 320.4 
z
" clip-path="url(#pb0a6140034)" style="fill: #1f77b4"/>
   </g>
   <g id="patch_9">
    <path d="M 126.391304 320.4 
L 128.229249 320.4 
L 128.229249 320.4 
L 126.391304 320.4 
z
" clip-path="url(#pb0a6140034)" style="fill: #1f77b4"/>
   </g>
   <g id="patch_10">
    <path d="M 128.229249 320.4 
L 130.067194 320.4 
L 130.067194 320.4 
L 128.229249 320.4 
z
" clip-path="url(#pb0a6140034)" style="fill: #1f77b4"/>
   </g>
   <g id="patch_11">
    <path d="M 130.067194 320.4 
L 131.905138 320.4 
L 131.905138 320.4 
L 130.067194 320.4 
z
" clip-path="url(#pb0a6140034)" style="fill: #1f77b4"/>
   </g>
   <g id="patch_12">
    <path d="M 131.905138 320.4 
L 133.743083 320.4 
L 133.743083 320.4 
L 131.905138 320.4 
z
" clip-path="url(#pb0a6140034)" style="fill: #1f77b4"/>
   </g>
   <g id="patch_13">
    <path d="M 133.743083 320.4 
L 135.581028 320.4 
L 135.581028 320.4 
L 133.743083 320.4 
z
" clip-path="url(#pb0a6140034)" style="fill: #1f77b4"/>
   </g>
   <g id="patch_14">
    <path d="M 135.581028 320.4 
L 137.418972 320.4 
L 137.418972 320.4 
L 135.581028 320.4 
z
" clip-path="url(#pb0a6140034)" style="fill: #1f77b4"/>
   </g>
   <g id="patch_15">
    <path d="M 137.418972 320.4 
L 139.256917 320.4 
L 139.256917 320.4 
L 137.418972 320.4 
z
" clip-path="url(#pb0a6140034)" style="fill: #1f77b4"/>
   </g>
   <g id="patch_16">
    <path d="M 139.256917 320.4 
L 141.094862 320.4 
L 141.094862 320.4 
L 139.256917 320.4 
z
" clip-path="url(#pb0a6140034)" style="fill: #1f77b4"/>
   </g>
   <g id="patch_17">
    <path d="M 141.094862 320.4 
L 142.932806 320.4 
L 142.932806 320.4 
L 141.094862 320.4 
z
" clip-path="url(#pb0a6140034)" style="fill: #1f77b4"/>
   </g>
   <g id="patch_18">
    <path d="M 142.932806 320.4 
L 144.770751 320.4 
L 144.770751 320.4 
L 142.932806 320.4 
z
" clip-path="url(#pb0a6140034)" style="fill: #1f77b4"/>
   </g>
   <g id="patch_19">
    <path d="M 144.770751 320.4 
L 146.608696 320.4 
L 146.608696 320.4 
L 144.770751 320.4 
z
" clip-path="url(#pb0a6140034)" style="fill: #1f77b4"/>
   </g>
   <g id="patch_20">
    <path d="M 146.608696 320.4 
L 148.44664 320.4 
L 148.44664 320.4 
L 146.608696 320.4 
z
" clip-path="url(#pb0a6140034)" style="fill: #1f77b4"/>
   </g>
   <g id="patch_21">
    <path d="M 148.44664 320.4 
L 150.284585 320.4 
L 150.284585 320.4 
L 148.44664 320.4 
z
" clip-path="url(#pb0a6140034)" style="fill: #1f77b4"/>
   </g>
   <g id="patch_22">
    <path d="M 150.284585 320.4 
L 152.12253 320.4 
L 152.12253 320.4 
L 150.284585 320.4 
z
" clip-path="url(#pb0a6140034)" style="fill: #1f77b4"/>
   </g>
   <g id="patch_23">
    <path d="M 152.12253 320.4 
L 153.960474 320.4 
L 153.960474 320.4 
L 152.12253 320.4 
z
" clip-path="url(#pb0a6140034)" style="fill: #1f77b4"/>
   </g>
   <g id="patch_24">
    <path d="M 153.960474 320.4 
L 155.798419 320.4 
L 155.798419 320.4 
L 153.960474 320.4 
z
" clip-path="url(#pb0a6140034)" style="fill: #1f77b4"/>
   </g>
   <g id="patch_25">
    <path d="M 155.798419 320.4 
L 157.636364 320.4 
L 157.636364 320.4 
L 155.798419 320.4 
z
" clip-path="url(#pb0a6140034)" style="fill: #1f77b4"/>
   </g>
   <g id="patch_26">
    <path d="M 157.636364 320.4 
L 159.474308 320.4 
L 159.474308 320.4 
L 157.636364 320.4 
z
" clip-path="url(#pb0a6140034)" style="fill: #1f77b4"/>
   </g>
   <g id="patch_27">
    <path d="M 159.474308 320.4 
L 161.312253 320.4 
L 161.312253 320.4 
L 159.474308 320.4 
z
" clip-path="url(#pb0a6140034)" style="fill: #1f77b4"/>
   </g>
   <g id="patch_28">
    <path d="M 161.312253 320.4 
L 163.150198 320.4 
L 163.150198 320.4 
L 161.312253 320.4 
z
" clip-path="url(#pb0a6140034)" style="fill: #1f77b4"/>
   </g>
   <g id="patch_29">
    <path d="M 163.150198 320.4 
L 164.988142 320.4 
L 164.988142 320.4 
L 163.150198 320.4 
z
" clip-path="url(#pb0a6140034)" style="fill: #1f77b4"/>
   </g>
   <g id="patch_30">
    <path d="M 164.988142 320.4 
L 166.826087 320.4 
L 166.826087 320.4 
L 164.988142 320.4 
z
" clip-path="url(#pb0a6140034)" style="fill: #1f77b4"/>
   </g>
   <g id="patch_31">
    <path d="M 166.826087 320.4 
L 168.664032 320.4 
L 168.664032 320.4 
L 166.826087 320.4 
z
" clip-path="url(#pb0a6140034)" style="fill: #1f77b4"/>
   </g>
   <g id="patch_32">
    <path d="M 168.664032 320.4 
L 170.501976 320.4 
L 170.501976 320.4 
L 168.664032 320.4 
z
" clip-path="url(#pb0a6140034)" style="fill: #1f77b4"/>
   </g>
   <g id="patch_33">
    <path d="M 170.501976 320.4 
L 172.339921 320.4 
L 172.339921 320.4 
L 170.501976 320.4 
z
" clip-path="url(#pb0a6140034)" style="fill: #1f77b4"/>
   </g>
   <g id="patch_34">
    <path d="M 172.339921 320.4 
L 174.177866 320.4 
L 174.177866 320.4 
L 172.339921 320.4 
z
" clip-path="url(#pb0a6140034)" style="fill: #1f77b4"/>
   </g>
   <g id="patch_35">
    <path d="M 174.177866 320.4 
L 176.01581 320.4 
L 176.01581 320.4 
L 174.177866 320.4 
z
" clip-path="url(#pb0a6140034)" style="fill: #1f77b4"/>
   </g>
   <g id="patch_36">
    <path d="M 176.01581 320.4 
L 177.853755 320.4 
L 177.853755 320.4 
L 176.01581 320.4 
z
" clip-path="url(#pb0a6140034)" style="fill: #1f77b4"/>
   </g>
   <g id="patch_37">
    <path d="M 177.853755 320.4 
L 179.6917 320.4 
L 179.6917 320.4 
L 177.853755 320.4 
z
" clip-path="url(#pb0a6140034)" style="fill: #1f77b4"/>
   </g>
   <g id="patch_38">
    <path d="M 179.6917 320.4 
L 181.529644 320.4 
L 181.529644 320.4 
L 179.6917 320.4 
z
" clip-path="url(#pb0a6140034)" style="fill: #1f77b4"/>
   </g>
   <g id="patch_39">
    <path d="M 181.529644 320.4 
L 183.367589 320.4 
L 183.367589 320.4 
L 181.529644 320.4 
z
" clip-path="url(#pb0a6140034)" style="fill: #1f77b4"/>
   </g>
   <g id="patch_40">
    <path d="M 183.367589 320.4 
L 185.205534 320.4 
L 185.205534 320.4 
L 183.367589 320.4 
z
" clip-path="url(#pb0a6140034)" style="fill: #1f77b4"/>
   </g>
   <g id="patch_41">
    <path d="M 185.205534 320.4 
L 187.043478 320.4 
L 187.043478 320.4 
L 185.205534 320.4 
z
" clip-path="url(#pb0a6140034)" style="fill: #1f77b4"/>
   </g>
   <g id="patch_42">
    <path d="M 187.043478 320.4 
L 188.881423 320.4 
L 188.881423 320.4 
L 187.043478 320.4 
z
" clip-path="url(#pb0a6140034)" style="fill: #1f77b4"/>
   </g>
   <g id="patch_43">
    <path d="M 188.881423 320.4 
L 190.719368 320.4 
L 190.719368 320.4 
L 188.881423 320.4 
z
" clip-path="url(#pb0a6140034)" style="fill: #1f77b4"/>
   </g>
   <g id="patch_44">
    <path d="M 190.719368 320.4 
L 192.557312 320.4 
L 192.557312 320.4 
L 190.719368 320.4 
z
" clip-path="url(#pb0a6140034)" style="fill: #1f77b4"/>
   </g>
   <g id="patch_45">
    <path d="M 192.557312 320.4 
L 194.395257 320.4 
L 194.395257 320.4 
L 192.557312 320.4 
z
" clip-path="url(#pb0a6140034)" style="fill: #1f77b4"/>
   </g>
   <g id="patch_46">
    <path d="M 194.395257 320.4 
L 196.233202 320.4 
L 196.233202 320.4 
L 194.395257 320.4 
z
" clip-path="url(#pb0a6140034)" style="fill: #1f77b4"/>
   </g>
   <g id="patch_47">
    <path d="M 196.233202 320.4 
L 198.071146 320.4 
L 198.071146 320.4 
L 196.233202 320.4 
z
" clip-path="url(#pb0a6140034)" style="fill: #1f77b4"/>
   </g>
   <g id="patch_48">
    <path d="M 198.071146 320.4 
L 199.909091 320.4 
L 199.909091 320.4 
L 198.071146 320.4 
z
" clip-path="url(#pb0a6140034)" style="fill: #1f77b4"/>
   </g>
   <g id="patch_49">
    <path d="M 199.909091 320.4 
L 201.747036 320.4 
L 201.747036 320.4 
L 199.909091 320.4 
z
" clip-path="url(#pb0a6140034)" style="fill: #1f77b4"/>
   </g>
   <g id="patch_50">
    <path d="M 201.747036 320.4 
L 203.58498 320.4 
L 203.58498 320.4 
L 201.747036 320.4 
z
" clip-path="url(#pb0a6140034)" style="fill: #1f77b4"/>
   </g>
   <g id="patch_51">
    <path d="M 203.58498 320.4 
L 205.422925 320.4 
L 205.422925 320.4 
L 203.58498 320.4 
z
" clip-path="url(#pb0a6140034)" style="fill: #1f77b4"/>
   </g>
   <g id="patch_52">
    <path d="M 205.422925 320.4 
L 207.26087 320.4 
L 207.26087 320.4 
L 205.422925 320.4 
z
" clip-path="url(#pb0a6140034)" style="fill: #1f77b4"/>
   </g>
   <g id="patch_53">
    <path d="M 207.26087 320.4 
L 209.098814 320.4 
L 209.098814 320.4 
L 207.26087 320.4 
z
" clip-path="url(#pb0a6140034)" style="fill: #1f77b4"/>
   </g>
   <g id="patch_54">
    <path d="M 209.098814 320.4 
L 210.936759 320.4 
L 210.936759 320.4 
L 209.098814 320.4 
z
" clip-path="url(#pb0a6140034)" style="fill: #1f77b4"/>
   </g>
   <g id="patch_55">
    <path d="M 210.936759 320.4 
L 212.774704 320.4 
L 212.774704 320.4 
L 210.936759 320.4 
z
" clip-path="url(#pb0a6140034)" style="fill: #1f77b4"/>
   </g>
   <g id="patch_56">
    <path d="M 212.774704 320.4 
L 214.612648 320.4 
L 214.612648 320.4 
L 212.774704 320.4 
z
" clip-path="url(#pb0a6140034)" style="fill: #1f77b4"/>
   </g>
   <g id="patch_57">
    <path d="M 214.612648 320.4 
L 216.450593 320.4 
L 216.450593 320.4 
L 214.612648 320.4 
z
" clip-path="url(#pb0a6140034)" style="fill: #1f77b4"/>
   </g>
   <g id="patch_58">
    <path d="M 216.450593 320.4 
L 218.288538 320.4 
L 218.288538 320.358776 
L 216.450593 320.358776 
z
" clip-path="url(#pb0a6140034)" style="fill: #1f77b4"/>
   </g>
   <g id="patch_59">
    <path d="M 218.288538 320.4 
L 220.126482 320.4 
L 220.126482 320.358776 
L 218.288538 320.358776 
z
" clip-path="url(#pb0a6140034)" style="fill: #1f77b4"/>
   </g>
   <g id="patch_60">
    <path d="M 220.126482 320.4 
L 221.964427 320.4 
L 221.964427 320.4 
L 220.126482 320.4 
z
" clip-path="url(#pb0a6140034)" style="fill: #1f77b4"/>
   </g>
   <g id="patch_61">
    <path d="M 221.964427 320.4 
L 223.802372 320.4 
L 223.802372 320.358776 
L 221.964427 320.358776 
z
" clip-path="url(#pb0a6140034)" style="fill: #1f77b4"/>
   </g>
   <g id="patch_62">
    <path d="M 223.802372 320.4 
L 225.640316 320.4 
L 225.640316 320.4 
L 223.802372 320.4 
z
" clip-path="url(#pb0a6140034)" style="fill: #1f77b4"/>
   </g>
   <g id="patch_63">
    <path d="M 225.640316 320.4 
L 227.478261 320.4 
L 227.478261 320.4 
L 225.640316 320.4 
z
" clip-path="url(#pb0a6140034)" style="fill: #1f77b4"/>
   </g>
   <g id="patch_64">
    <path d="M 227.478261 320.4 
L 229.316206 320.4 
L 229.316206 320.4 
L 227.478261 320.4 
z
" clip-path="url(#pb0a6140034)" style="fill: #1f77b4"/>
   </g>
   <g id="patch_65">
    <path d="M 229.316206 320.4 
L 231.15415 320.4 
L 231.15415 320.4 
L 229.316206 320.4 
z
" clip-path="url(#pb0a6140034)" style="fill: #1f77b4"/>
   </g>
   <g id="patch_66">
    <path d="M 231.15415 320.4 
L 232.992095 320.4 
L 232.992095 320.4 
L 231.15415 320.4 
z
" clip-path="url(#pb0a6140034)" style="fill: #1f77b4"/>
   </g>
   <g id="patch_67">
    <path d="M 232.992095 320.4 
L 234.83004 320.4 
L 234.83004 320.358776 
L 232.992095 320.358776 
z
" clip-path="url(#pb0a6140034)" style="fill: #1f77b4"/>
   </g>
   <g id="patch_68">
    <path d="M 234.83004 320.4 
L 236.667984 320.4 
L 236.667984 320.4 
L 234.83004 320.4 
z
" clip-path="url(#pb0a6140034)" style="fill: #1f77b4"/>
   </g>
   <g id="patch_69">
    <path d="M 236.667984 320.4 
L 238.505929 320.4 
L 238.505929 320.4 
L 236.667984 320.4 
z
" clip-path="url(#pb0a6140034)" style="fill: #1f77b4"/>
   </g>
   <g id="patch_70">
    <path d="M 238.505929 320.4 
L 240.343874 320.4 
L 240.343874 320.4 
L 238.505929 320.4 
z
" clip-path="url(#pb0a6140034)" style="fill: #1f77b4"/>
   </g>
   <g id="patch_71">
    <path d="M 240.343874 320.4 
L 242.181818 320.4 
L 242.181818 320.358776 
L 240.343874 320.358776 
z
" clip-path="url(#pb0a6140034)" style="fill: #1f77b4"/>
   </g>
   <g id="patch_72">
    <path d="M 242.181818 320.4 
L 244.019763 320.4 
L 244.019763 320.4 
L 242.181818 320.4 
z
" clip-path="url(#pb0a6140034)" style="fill: #1f77b4"/>
   </g>
   <g id="patch_73">
    <path d="M 244.019763 320.4 
L 245.857708 320.4 
L 245.857708 320.4 
L 244.019763 320.4 
z
" clip-path="url(#pb0a6140034)" style="fill: #1f77b4"/>
   </g>
   <g id="patch_74">
    <path d="M 245.857708 320.4 
L 247.695652 320.4 
L 247.695652 320.358776 
L 245.857708 320.358776 
z
" clip-path="url(#pb0a6140034)" style="fill: #1f77b4"/>
   </g>
   <g id="patch_75">
    <path d="M 247.695652 320.4 
L 249.533597 320.4 
L 249.533597 320.317552 
L 247.695652 320.317552 
z
" clip-path="url(#pb0a6140034)" style="fill: #1f77b4"/>
   </g>
   <g id="patch_76">
    <path d="M 249.533597 320.4 
L 251.371542 320.4 
L 251.371542 320.358776 
L 249.533597 320.358776 
z
" clip-path="url(#pb0a6140034)" style="fill: #1f77b4"/>
   </g>
   <g id="patch_77">
    <path d="M 251.371542 320.4 
L 253.209486 320.4 
L 253.209486 320.358776 
L 251.371542 320.358776 
z
" clip-path="url(#pb0a6140034)" style="fill: #1f77b4"/>
   </g>
   <g id="patch_78">
    <path d="M 253.209486 320.4 
L 255.047431 320.4 
L 255.047431 320.235103 
L 253.209486 320.235103 
z
" clip-path="url(#pb0a6140034)" style="fill: #1f77b4"/>
   </g>
   <g id="patch_79">
    <path d="M 255.047431 320.4 
L 256.885375 320.4 
L 256.885375 320.317552 
L 255.047431 320.317552 
z
" clip-path="url(#pb0a6140034)" style="fill: #1f77b4"/>
   </g>
   <g id="patch_80">
    <path d="M 256.885375 320.4 
L 258.72332 320.4 
L 258.72332 320.358776 
L 256.885375 320.358776 
z
" clip-path="url(#pb0a6140034)" style="fill: #1f77b4"/>
   </g>
   <g id="patch_81">
    <path d="M 258.72332 320.4 
L 260.561265 320.4 
L 260.561265 320.358776 
L 258.72332 320.358776 
z
" clip-path="url(#pb0a6140034)" style="fill: #1f77b4"/>
   </g>
   <g id="patch_82">
    <path d="M 260.561265 320.4 
L 262.399209 320.4 
L 262.399209 320.4 
L 260.561265 320.4 
z
" clip-path="url(#pb0a6140034)" style="fill: #1f77b4"/>
   </g>
   <g id="patch_83">
    <path d="M 262.399209 320.4 
L 264.237154 320.4 
L 264.237154 320.4 
L 262.399209 320.4 
z
" clip-path="url(#pb0a6140034)" style="fill: #1f77b4"/>
   </g>
   <g id="patch_84">
    <path d="M 264.237154 320.4 
L 266.075099 320.4 
L 266.075099 320.317552 
L 264.237154 320.317552 
z
" clip-path="url(#pb0a6140034)" style="fill: #1f77b4"/>
   </g>
   <g id="patch_85">
    <path d="M 266.075099 320.4 
L 267.913043 320.4 
L 267.913043 320.4 
L 266.075099 320.4 
z
" clip-path="url(#pb0a6140034)" style="fill: #1f77b4"/>
   </g>
   <g id="patch_86">
    <path d="M 267.913043 320.4 
L 269.750988 320.4 
L 269.750988 320.358776 
L 267.913043 320.358776 
z
" clip-path="url(#pb0a6140034)" style="fill: #1f77b4"/>
   </g>
   <g id="patch_87">
    <path d="M 269.750988 320.4 
L 271.588933 320.4 
L 271.588933 320.4 
L 269.750988 320.4 
z
" clip-path="url(#pb0a6140034)" style="fill: #1f77b4"/>
   </g>
   <g id="patch_88">
    <path d="M 271.588933 320.4 
L 273.426877 320.4 
L 273.426877 320.276327 
L 271.588933 320.276327 
z
" clip-path="url(#pb0a6140034)" style="fill: #1f77b4"/>
   </g>
   <g id="patch_89">
    <path d="M 273.426877 320.4 
L 275.264822 320.4 
L 275.264822 320.317552 
L 273.426877 320.317552 
z
" clip-path="url(#pb0a6140034)" style="fill: #1f77b4"/>
   </g>
   <g id="patch_90">
    <path d="M 275.264822 320.4 
L 277.102767 320.4 
L 277.102767 320.193879 
L 275.264822 320.193879 
z
" clip-path="url(#pb0a6140034)" style="fill: #1f77b4"/>
   </g>
   <g id="patch_91">
    <path d="M 277.102767 320.4 
L 278.940711 320.4 
L 278.940711 320.358776 
L 277.102767 320.358776 
z
" clip-path="url(#pb0a6140034)" style="fill: #1f77b4"/>
   </g>
   <g id="patch_92">
    <path d="M 278.940711 320.4 
L 280.778656 320.4 
L 280.778656 320.358776 
L 278.940711 320.358776 
z
" clip-path="url(#pb0a6140034)" style="fill: #1f77b4"/>
   </g>
   <g id="patch_93">
    <path d="M 280.778656 320.4 
L 282.616601 320.4 
L 282.616601 320.235103 
L 280.778656 320.235103 
z
" clip-path="url(#pb0a6140034)" style="fill: #1f77b4"/>
   </g>
   <g id="patch_94">
    <path d="M 282.616601 320.4 
L 284.454545 320.4 
L 284.454545 320.11143 
L 282.616601 320.11143 
z
" clip-path="url(#pb0a6140034)" style="fill: #1f77b4"/>
   </g>
   <g id="patch_95">
    <path d="M 284.454545 320.4 
L 286.29249 320.4 
L 286.29249 320.235103 
L 284.454545 320.235103 
z
" clip-path="url(#pb0a6140034)" style="fill: #1f77b4"/>
   </g>
   <g id="patch_96">
    <path d="M 286.29249 320.4 
L 288.130435 320.4 
L 288.130435 320.235103 
L 286.29249 320.235103 
z
" clip-path="url(#pb0a6140034)" style="fill: #1f77b4"/>
   </g>
   <g id="patch_97">
    <path d="M 288.130435 320.4 
L 289.968379 320.4 
L 289.968379 320.193879 
L 288.130435 320.193879 
z
" clip-path="url(#pb0a6140034)" style="fill: #1f77b4"/>
   </g>
   <g id="patch_98">
    <path d="M 289.968379 320.4 
L 291.806324 320.4 
L 291.806324 320.028982 
L 289.968379 320.028982 
z
" clip-path="url(#pb0a6140034)" style="fill: #1f77b4"/>
   </g>
   <g id="patch_99">
    <path d="M 291.806324 320.4 
L 293.644269 320.4 
L 293.644269 320.070206 
L 291.806324 320.070206 
z
" clip-path="url(#pb0a6140034)" style="fill: #1f77b4"/>
   </g>
   <g id="patch_100">
    <path d="M 293.644269 320.4 
L 295.482213 320.4 
L 295.482213 320.11143 
L 293.644269 320.11143 
z
" clip-path="url(#pb0a6140034)" style="fill: #1f77b4"/>
   </g>
   <g id="patch_101">
    <path d="M 295.482213 320.4 
L 297.320158 320.4 
L 297.320158 319.987758 
L 295.482213 319.987758 
z
" clip-path="url(#pb0a6140034)" style="fill: #1f77b4"/>
   </g>
   <g id="patch_102">
    <path d="M 297.320158 320.4 
L 299.158103 320.4 
L 299.158103 320.152655 
L 297.320158 320.152655 
z
" clip-path="url(#pb0a6140034)" style="fill: #1f77b4"/>
   </g>
   <g id="patch_103">
    <path d="M 299.158103 320.4 
L 300.996047 320.4 
L 300.996047 319.946533 
L 299.158103 319.946533 
z
" clip-path="url(#pb0a6140034)" style="fill: #1f77b4"/>
   </g>
   <g id="patch_104">
    <path d="M 300.996047 320.4 
L 302.833992 320.4 
L 302.833992 319.699188 
L 300.996047 319.699188 
z
" clip-path="url(#pb0a6140034)" style="fill: #1f77b4"/>
   </g>
   <g id="patch_105">
    <path d="M 302.833992 320.4 
L 304.671937 320.4 
L 304.671937 319.822861 
L 302.833992 319.822861 
z
" clip-path="url(#pb0a6140034)" style="fill: #1f77b4"/>
   </g>
   <g id="patch_106">
    <path d="M 304.671937 320.4 
L 306.509881 320.4 
L 306.509881 320.11143 
L 304.671937 320.11143 
z
" clip-path="url(#pb0a6140034)" style="fill: #1f77b4"/>
   </g>
   <g id="patch_107">
    <path d="M 306.509881 320.4 
L 308.347826 320.4 
L 308.347826 319.740412 
L 306.509881 319.740412 
z
" clip-path="url(#pb0a6140034)" style="fill: #1f77b4"/>
   </g>
   <g id="patch_108">
    <path d="M 308.347826 320.4 
L 310.185771 320.4 
L 310.185771 319.740412 
L 308.347826 319.740412 
z
" clip-path="url(#pb0a6140034)" style="fill: #1f77b4"/>
   </g>
   <g id="patch_109">
    <path d="M 310.185771 320.4 
L 312.023715 320.4 
L 312.023715 319.534291 
L 310.185771 319.534291 
z
" clip-path="url(#pb0a6140034)" style="fill: #1f77b4"/>
   </g>
   <g id="patch_110">
    <path d="M 312.023715 320.4 
L 313.86166 320.4 
L 313.86166 319.122049 
L 312.023715 319.122049 
z
" clip-path="url(#pb0a6140034)" style="fill: #1f77b4"/>
   </g>
   <g id="patch_111">
    <path d="M 313.86166 320.4 
L 315.699605 320.4 
L 315.699605 319.122049 
L 313.86166 319.122049 
z
" clip-path="url(#pb0a6140034)" style="fill: #1f77b4"/>
   </g>
   <g id="patch_112">
    <path d="M 315.699605 320.4 
L 317.537549 320.4 
L 317.537549 319.575515 
L 315.699605 319.575515 
z
" clip-path="url(#pb0a6140034)" style="fill: #1f77b4"/>
   </g>
   <g id="patch_113">
    <path d="M 317.537549 320.4 
L 319.375494 320.4 
L 319.375494 319.163273 
L 317.537549 319.163273 
z
" clip-path="url(#pb0a6140034)" style="fill: #1f77b4"/>
   </g>
   <g id="patch_114">
    <path d="M 319.375494 320.4 
L 321.213439 320.4 
L 321.213439 319.122049 
L 319.375494 319.122049 
z
" clip-path="url(#pb0a6140034)" style="fill: #1f77b4"/>
   </g>
   <g id="patch_115">
    <path d="M 321.213439 320.4 
L 323.051383 320.4 
L 323.051383 319.122049 
L 321.213439 319.122049 
z
" clip-path="url(#pb0a6140034)" style="fill: #1f77b4"/>
   </g>
   <g id="patch_116">
    <path d="M 323.051383 320.4 
L 324.889328 320.4 
L 324.889328 318.915928 
L 323.051383 318.915928 
z
" clip-path="url(#pb0a6140034)" style="fill: #1f77b4"/>
   </g>
   <g id="patch_117">
    <path d="M 324.889328 320.4 
L 326.727273 320.4 
L 326.727273 318.297564 
L 324.889328 318.297564 
z
" clip-path="url(#pb0a6140034)" style="fill: #1f77b4"/>
   </g>
   <g id="patch_118">
    <path d="M 326.727273 320.4 
L 328.565217 320.4 
L 328.565217 318.132667 
L 326.727273 318.132667 
z
" clip-path="url(#pb0a6140034)" style="fill: #1f77b4"/>
   </g>
   <g id="patch_119">
    <path d="M 328.565217 320.4 
L 330.403162 320.4 
L 330.403162 317.926546 
L 328.565217 317.926546 
z
" clip-path="url(#pb0a6140034)" style="fill: #1f77b4"/>
   </g>
   <g id="patch_120">
    <path d="M 330.403162 320.4 
L 332.241107 320.4 
L 332.241107 317.802873 
L 330.403162 317.802873 
z
" clip-path="url(#pb0a6140034)" style="fill: #1f77b4"/>
   </g>
   <g id="patch_121">
    <path d="M 332.241107 320.4 
L 334.079051 320.4 
L 334.079051 317.390631 
L 332.241107 317.390631 
z
" clip-path="url(#pb0a6140034)" style="fill: #1f77b4"/>
   </g>
   <g id="patch_122">
    <path d="M 334.079051 320.4 
L 335.916996 320.4 
L 335.916996 316.978389 
L 334.079051 316.978389 
z
" clip-path="url(#pb0a6140034)" style="fill: #1f77b4"/>
   </g>
   <g id="patch_123">
    <path d="M 335.916996 320.4 
L 337.754941 320.4 
L 337.754941 317.019613 
L 335.916996 317.019613 
z
" clip-path="url(#pb0a6140034)" style="fill: #1f77b4"/>
   </g>
   <g id="patch_124">
    <path d="M 337.754941 320.4 
L 339.592885 320.4 
L 339.592885 316.689819 
L 337.754941 316.689819 
z
" clip-path="url(#pb0a6140034)" style="fill: #1f77b4"/>
   </g>
   <g id="patch_125">
    <path d="M 339.592885 320.4 
L 341.43083 320.4 
L 341.43083 315.659213 
L 339.592885 315.659213 
z
" clip-path="url(#pb0a6140034)" style="fill: #1f77b4"/>
   </g>
   <g id="patch_126">
    <path d="M 341.43083 320.4 
L 343.268775 320.4 
L 343.268775 316.071455 
L 341.43083 316.071455 
z
" clip-path="url(#pb0a6140034)" style="fill: #1f77b4"/>
   </g>
   <g id="patch_127">
    <path d="M 343.268775 320.4 
L 345.106719 320.4 
L 345.106719 315.164522 
L 343.268775 315.164522 
z
" clip-path="url(#pb0a6140034)" style="fill: #1f77b4"/>
   </g>
   <g id="patch_128">
    <path d="M 345.106719 320.4 
L 346.944664 320.4 
L 346.944664 314.546159 
L 345.106719 314.546159 
z
" clip-path="url(#pb0a6140034)" style="fill: #1f77b4"/>
   </g>
   <g id="patch_129">
    <path d="M 346.944664 320.4 
L 348.782609 320.4 
L 348.782609 315.453092 
L 346.944664 315.453092 
z
" clip-path="url(#pb0a6140034)" style="fill: #1f77b4"/>
   </g>
   <g id="patch_130">
    <path d="M 348.782609 320.4 
L 350.620553 320.4 
L 350.620553 314.422486 
L 348.782609 314.422486 
z
" clip-path="url(#pb0a6140034)" style="fill: #1f77b4"/>
   </g>
   <g id="patch_131">
    <path d="M 350.620553 320.4 
L 352.458498 320.4 
L 352.458498 313.886571 
L 350.620553 313.886571 
z
" clip-path="url(#pb0a6140034)" style="fill: #1f77b4"/>
   </g>
   <g id="patch_132">
    <path d="M 352.458498 320.4 
L 354.296443 320.4 
L 354.296443 313.804122 
L 352.458498 313.804122 
z
" clip-path="url(#pb0a6140034)" style="fill: #1f77b4"/>
   </g>
   <g id="patch_133">
    <path d="M 354.296443 320.4 
L 356.134387 320.4 
L 356.134387 312.814741 
L 354.296443 312.814741 
z
" clip-path="url(#pb0a6140034)" style="fill: #1f77b4"/>
   </g>
   <g id="patch_134">
    <path d="M 356.134387 320.4 
L 357.972332 320.4 
L 357.972332 312.979638 
L 356.134387 312.979638 
z
" clip-path="url(#pb0a6140034)" style="fill: #1f77b4"/>
   </g>
   <g id="patch_135">
    <path d="M 357.972332 320.4 
L 359.810277 320.4 
L 359.810277 311.784135 
L 357.972332 311.784135 
z
" clip-path="url(#pb0a6140034)" style="fill: #1f77b4"/>
   </g>
   <g id="patch_136">
    <path d="M 359.810277 320.4 
L 361.648221 320.4 
L 361.648221 310.629856 
L 359.810277 310.629856 
z
" clip-path="url(#pb0a6140034)" style="fill: #1f77b4"/>
   </g>
   <g id="patch_137">
    <path d="M 361.648221 320.4 
L 363.486166 320.4 
L 363.486166 310.794753 
L 361.648221 310.794753 
z
" clip-path="url(#pb0a6140034)" style="fill: #1f77b4"/>
   </g>
   <g id="patch_138">
    <path d="M 363.486166 320.4 
L 365.324111 320.4 
L 365.324111 310.588632 
L 363.486166 310.588632 
z
" clip-path="url(#pb0a6140034)" style="fill: #1f77b4"/>
   </g>
   <g id="patch_139">
    <path d="M 365.324111 320.4 
L 367.162055 320.4 
L 367.162055 309.228232 
L 365.324111 309.228232 
z
" clip-path="url(#pb0a6140034)" style="fill: #1f77b4"/>
   </g>
   <g id="patch_140">
    <path d="M 367.162055 320.4 
L 369 320.4 
L 369 307.867833 
L 367.162055 307.867833 
z
" clip-path="url(#pb0a6140034)" style="fill: #1f77b4"/>
   </g>
   <g id="patch_141">
    <path d="M 369 320.4 
L 370.837945 320.4 
L 370.837945 307.043348 
L 369 307.043348 
z
" clip-path="url(#pb0a6140034)" style="fill: #1f77b4"/>
   </g>
   <g id="patch_142">
    <path d="M 370.837945 320.4 
L 372.675889 320.4 
L 372.675889 305.518051 
L 370.837945 305.518051 
z
" clip-path="url(#pb0a6140034)" style="fill: #1f77b4"/>
   </g>
   <g id="patch_143">
    <path d="M 372.675889 320.4 
L 374.513834 320.4 
L 374.513834 306.466209 
L 372.675889 306.466209 
z
" clip-path="url(#pb0a6140034)" style="fill: #1f77b4"/>
   </g>
   <g id="patch_144">
    <path d="M 374.513834 320.4 
L 376.351779 320.4 
L 376.351779 306.424984 
L 374.513834 306.424984 
z
" clip-path="url(#pb0a6140034)" style="fill: #1f77b4"/>
   </g>
   <g id="patch_145">
    <path d="M 376.351779 320.4 
L 378.189723 320.4 
L 378.189723 304.569894 
L 376.351779 304.569894 
z
" clip-path="url(#pb0a6140034)" style="fill: #1f77b4"/>
   </g>
   <g id="patch_146">
    <path d="M 378.189723 320.4 
L 380.027668 320.4 
L 380.027668 302.549906 
L 378.189723 302.549906 
z
" clip-path="url(#pb0a6140034)" style="fill: #1f77b4"/>
   </g>
   <g id="patch_147">
    <path d="M 380.027668 320.4 
L 381.865613 320.4 
L 381.865613 302.714803 
L 380.027668 302.714803 
z
" clip-path="url(#pb0a6140034)" style="fill: #1f77b4"/>
   </g>
   <g id="patch_148">
    <path d="M 381.865613 320.4 
L 383.703557 320.4 
L 383.703557 298.757277 
L 381.865613 298.757277 
z
" clip-path="url(#pb0a6140034)" style="fill: #1f77b4"/>
   </g>
   <g id="patch_149">
    <path d="M 383.703557 320.4 
L 385.541502 320.4 
L 385.541502 297.726671 
L 383.703557 297.726671 
z
" clip-path="url(#pb0a6140034)" style="fill: #1f77b4"/>
   </g>
   <g id="patch_150">
    <path d="M 385.541502 320.4 
L 387.379447 320.4 
L 387.379447 295.912804 
L 385.541502 295.912804 
z
" clip-path="url(#pb0a6140034)" style="fill: #1f77b4"/>
   </g>
   <g id="patch_151">
    <path d="M 387.379447 320.4 
L 389.217391 320.4 
L 389.217391 296.16015 
L 387.379447 296.16015 
z
" clip-path="url(#pb0a6140034)" style="fill: #1f77b4"/>
   </g>
   <g id="patch_152">
    <path d="M 389.217391 320.4 
L 391.055336 320.4 
L 391.055336 292.65609 
L 389.217391 292.65609 
z
" clip-path="url(#pb0a6140034)" style="fill: #1f77b4"/>
   </g>
   <g id="patch_153">
    <path d="M 391.055336 320.4 
L 392.893281 320.4 
L 392.893281 291.419363 
L 391.055336 291.419363 
z
" clip-path="url(#pb0a6140034)" style="fill: #1f77b4"/>
   </g>
   <g id="patch_154">
    <path d="M 392.893281 320.4 
L 394.731225 320.4 
L 394.731225 291.749157 
L 392.893281 291.749157 
z
" clip-path="url(#pb0a6140034)" style="fill: #1f77b4"/>
   </g>
   <g id="patch_155">
    <path d="M 394.731225 320.4 
L 396.56917 320.4 
L 396.56917 285.441849 
L 394.731225 285.441849 
z
" clip-path="url(#pb0a6140034)" style="fill: #1f77b4"/>
   </g>
   <g id="patch_156">
    <path d="M 396.56917 320.4 
L 398.407115 320.4 
L 398.407115 286.060212 
L 396.56917 286.060212 
z
" clip-path="url(#pb0a6140034)" style="fill: #1f77b4"/>
   </g>
   <g id="patch_157">
    <path d="M 398.407115 320.4 
L 400.245059 320.4 
L 400.245059 286.967146 
L 398.407115 286.967146 
z
" clip-path="url(#pb0a6140034)" style="fill: #1f77b4"/>
   </g>
   <g id="patch_158">
    <path d="M 400.245059 320.4 
L 402.083004 320.4 
L 402.083004 282.968395 
L 400.245059 282.968395 
z
" clip-path="url(#pb0a6140034)" style="fill: #1f77b4"/>
   </g>
   <g id="patch_159">
    <path d="M 402.083004 320.4 
L 403.920949 320.4 
L 403.920949 280.165147 
L 402.083004 280.165147 
z
" clip-path="url(#pb0a6140034)" style="fill: #1f77b4"/>
   </g>
   <g id="patch_160">
    <path d="M 403.920949 320.4 
L 405.758893 320.4 
L 405.758893 277.732917 
L 403.920949 277.732917 
z
" clip-path="url(#pb0a6140034)" style="fill: #1f77b4"/>
   </g>
   <g id="patch_161">
    <path d="M 405.758893 320.4 
L 407.596838 320.4 
L 407.596838 273.651718 
L 405.758893 273.651718 
z
" clip-path="url(#pb0a6140034)" style="fill: #1f77b4"/>
   </g>
   <g id="patch_162">
    <path d="M 407.596838 320.4 
L 409.434783 320.4 
L 409.434783 272.868457 
L 407.596838 272.868457 
z
" clip-path="url(#pb0a6140034)" style="fill: #1f77b4"/>
   </g>
   <g id="patch_163">
    <path d="M 409.434783 320.4 
L 411.272727 320.4 
L 411.272727 268.168894 
L 409.434783 268.168894 
z
" clip-path="url(#pb0a6140034)" style="fill: #1f77b4"/>
   </g>
   <g id="patch_164">
    <path d="M 411.272727 320.4 
L 413.110672 320.4 
L 413.110672 266.025234 
L 411.272727 266.025234 
z
" clip-path="url(#pb0a6140034)" style="fill: #1f77b4"/>
   </g>
   <g id="patch_165">
    <path d="M 413.110672 320.4 
L 414.948617 320.4 
L 414.948617 268.539913 
L 413.110672 268.539913 
z
" clip-path="url(#pb0a6140034)" style="fill: #1f77b4"/>
   </g>
   <g id="patch_166">
    <path d="M 414.948617 320.4 
L 416.786561 320.4 
L 416.786561 260.707308 
L 414.948617 260.707308 
z
" clip-path="url(#pb0a6140034)" style="fill: #1f77b4"/>
   </g>
   <g id="patch_167">
    <path d="M 416.786561 320.4 
L 418.624506 320.4 
L 418.624506 262.47995 
L 416.786561 262.47995 
z
" clip-path="url(#pb0a6140034)" style="fill: #1f77b4"/>
   </g>
   <g id="patch_168">
    <path d="M 418.624506 320.4 
L 420.462451 320.4 
L 420.462451 256.172642 
L 418.624506 256.172642 
z
" clip-path="url(#pb0a6140034)" style="fill: #1f77b4"/>
   </g>
   <g id="patch_169">
    <path d="M 420.462451 320.4 
L 422.300395 320.4 
L 422.300395 253.369394 
L 420.462451 253.369394 
z
" clip-path="url(#pb0a6140034)" style="fill: #1f77b4"/>
   </g>
   <g id="patch_170">
    <path d="M 422.300395 320.4 
L 424.13834 320.4 
L 424.13834 251.390631 
L 422.300395 251.390631 
z
" clip-path="url(#pb0a6140034)" style="fill: #1f77b4"/>
   </g>
   <g id="patch_171">
    <path d="M 424.13834 320.4 
L 425.976285 320.4 
L 425.976285 246.443723 
L 424.13834 246.443723 
z
" clip-path="url(#pb0a6140034)" style="fill: #1f77b4"/>
   </g>
   <g id="patch_172">
    <path d="M 425.976285 320.4 
L 427.814229 320.4 
L 427.814229 250.483698 
L 425.976285 250.483698 
z
" clip-path="url(#pb0a6140034)" style="fill: #1f77b4"/>
   </g>
   <g id="patch_173">
    <path d="M 427.814229 320.4 
L 429.652174 320.4 
L 429.652174 244.423735 
L 427.814229 244.423735 
z
" clip-path="url(#pb0a6140034)" style="fill: #1f77b4"/>
   </g>
   <g id="patch_174">
    <path d="M 429.652174 320.4 
L 431.490119 320.4 
L 431.490119 238.322548 
L 429.652174 238.322548 
z
" clip-path="url(#pb0a6140034)" style="fill: #1f77b4"/>
   </g>
   <g id="patch_175">
    <path d="M 431.490119 320.4 
L 433.328063 320.4 
L 433.328063 237.539288 
L 431.490119 237.539288 
z
" clip-path="url(#pb0a6140034)" style="fill: #1f77b4"/>
   </g>
   <g id="patch_176">
    <path d="M 433.328063 320.4 
L 435.166008 320.4 
L 435.166008 234.612367 
L 433.328063 234.612367 
z
" clip-path="url(#pb0a6140034)" style="fill: #1f77b4"/>
   </g>
   <g id="patch_177">
    <path d="M 435.166008 320.4 
L 437.003953 320.4 
L 437.003953 228.387508 
L 435.166008 228.387508 
z
" clip-path="url(#pb0a6140034)" style="fill: #1f77b4"/>
   </g>
   <g id="patch_178">
    <path d="M 437.003953 320.4 
L 438.841897 320.4 
L 438.841897 225.790381 
L 437.003953 225.790381 
z
" clip-path="url(#pb0a6140034)" style="fill: #1f77b4"/>
   </g>
   <g id="patch_179">
    <path d="M 438.841897 320.4 
L 440.679842 320.4 
L 440.679842 224.306309 
L 438.841897 224.306309 
z
" clip-path="url(#pb0a6140034)" style="fill: #1f77b4"/>
   </g>
   <g id="patch_180">
    <path d="M 440.679842 320.4 
L 442.517787 320.4 
L 442.517787 220.348782 
L 440.679842 220.348782 
z
" clip-path="url(#pb0a6140034)" style="fill: #1f77b4"/>
   </g>
   <g id="patch_181">
    <path d="M 442.517787 320.4 
L 444.355731 320.4 
L 444.355731 217.545534 
L 442.517787 217.545534 
z
" clip-path="url(#pb0a6140034)" style="fill: #1f77b4"/>
   </g>
   <g id="patch_182">
    <path d="M 444.355731 320.4 
L 446.193676 320.4 
L 446.193676 212.021487 
L 444.355731 212.021487 
z
" clip-path="url(#pb0a6140034)" style="fill: #1f77b4"/>
   </g>
   <g id="patch_183">
    <path d="M 446.193676 320.4 
L 448.031621 320.4 
L 448.031621 208.105184 
L 446.193676 208.105184 
z
" clip-path="url(#pb0a6140034)" style="fill: #1f77b4"/>
   </g>
   <g id="patch_184">
    <path d="M 448.031621 320.4 
L 449.869565 320.4 
L 449.869565 205.137039 
L 448.031621 205.137039 
z
" clip-path="url(#pb0a6140034)" style="fill: #1f77b4"/>
   </g>
   <g id="patch_185">
    <path d="M 449.869565 320.4 
L 451.70751 320.4 
L 451.70751 201.220737 
L 449.869565 201.220737 
z
" clip-path="url(#pb0a6140034)" style="fill: #1f77b4"/>
   </g>
   <g id="patch_186">
    <path d="M 451.70751 320.4 
L 453.545455 320.4 
L 453.545455 197.881574 
L 451.70751 197.881574 
z
" clip-path="url(#pb0a6140034)" style="fill: #1f77b4"/>
   </g>
   <g id="patch_187">
    <path d="M 453.545455 320.4 
L 455.383399 320.4 
L 455.383399 192.316302 
L 453.545455 192.316302 
z
" clip-path="url(#pb0a6140034)" style="fill: #1f77b4"/>
   </g>
   <g id="patch_188">
    <path d="M 455.383399 320.4 
L 457.221344 320.4 
L 457.221344 193.759151 
L 455.383399 193.759151 
z
" clip-path="url(#pb0a6140034)" style="fill: #1f77b4"/>
   </g>
   <g id="patch_189">
    <path d="M 457.221344 320.4 
L 459.059289 320.4 
L 459.059289 189.348157 
L 457.221344 189.348157 
z
" clip-path="url(#pb0a6140034)" style="fill: #1f77b4"/>
   </g>
   <g id="patch_190">
    <path d="M 459.059289 320.4 
L 460.897233 320.4 
L 460.897233 187.946533 
L 459.059289 187.946533 
z
" clip-path="url(#pb0a6140034)" style="fill: #1f77b4"/>
   </g>
   <g id="patch_191">
    <path d="M 460.897233 320.4 
L 462.735178 320.4 
L 462.735178 179.701686 
L 460.897233 179.701686 
z
" clip-path="url(#pb0a6140034)" style="fill: #1f77b4"/>
   </g>
   <g id="patch_192">
    <path d="M 462.735178 320.4 
L 464.573123 320.4 
L 464.573123 175.496814 
L 462.735178 175.496814 
z
" clip-path="url(#pb0a6140034)" style="fill: #1f77b4"/>
   </g>
   <g id="patch_193">
    <path d="M 464.573123 320.4 
L 466.411067 320.4 
L 466.411067 180.072705 
L 464.573123 180.072705 
z
" clip-path="url(#pb0a6140034)" style="fill: #1f77b4"/>
   </g>
   <g id="patch_194">
    <path d="M 466.411067 320.4 
L 468.249012 320.4 
L 468.249012 171.95153 
L 466.411067 171.95153 
z
" clip-path="url(#pb0a6140034)" style="fill: #1f77b4"/>
   </g>
   <g id="patch_195">
    <path d="M 468.249012 320.4 
L 470.086957 320.4 
L 470.086957 170.385009 
L 468.249012 170.385009 
z
" clip-path="url(#pb0a6140034)" style="fill: #1f77b4"/>
   </g>
   <g id="patch_196">
    <path d="M 470.086957 320.4 
L 471.924901 320.4 
L 471.924901 163.335665 
L 470.086957 163.335665 
z
" clip-path="url(#pb0a6140034)" style="fill: #1f77b4"/>
   </g>
   <g id="patch_197">
    <path d="M 471.924901 320.4 
L 473.762846 320.4 
L 473.762846 157.646721 
L 471.924901 157.646721 
z
" clip-path="url(#pb0a6140034)" style="fill: #1f77b4"/>
   </g>
   <g id="patch_198">
    <path d="M 473.762846 320.4 
L 475.600791 320.4 
L 475.600791 158.265084 
L 473.762846 158.265084 
z
" clip-path="url(#pb0a6140034)" style="fill: #1f77b4"/>
   </g>
   <g id="patch_199">
    <path d="M 475.600791 320.4 
L 477.438735 320.4 
L 477.438735 149.649219 
L 475.600791 149.649219 
z
" clip-path="url(#pb0a6140034)" style="fill: #1f77b4"/>
   </g>
   <g id="patch_200">
    <path d="M 477.438735 320.4 
L 479.27668 320.4 
L 479.27668 144.331293 
L 477.438735 144.331293 
z
" clip-path="url(#pb0a6140034)" style="fill: #1f77b4"/>
   </g>
   <g id="patch_201">
    <path d="M 479.27668 320.4 
L 481.114625 320.4 
L 481.114625 141.528045 
L 479.27668 141.528045 
z
" clip-path="url(#pb0a6140034)" style="fill: #1f77b4"/>
   </g>
   <g id="patch_202">
    <path d="M 481.114625 320.4 
L 482.952569 320.4 
L 482.952569 135.138289 
L 481.114625 135.138289 
z
" clip-path="url(#pb0a6140034)" style="fill: #1f77b4"/>
   </g>
   <g id="patch_203">
    <path d="M 482.952569 320.4 
L 484.790514 320.4 
L 484.790514 133.283198 
L 482.952569 133.283198 
z
" clip-path="url(#pb0a6140034)" style="fill: #1f77b4"/>
   </g>
   <g id="patch_204">
    <path d="M 484.790514 320.4 
L 486.628458 320.4 
L 486.628458 126.934666 
L 484.790514 126.934666 
z
" clip-path="url(#pb0a6140034)" style="fill: #1f77b4"/>
   </g>
   <g id="patch_205">
    <path d="M 486.628458 320.4 
L 488.466403 320.4 
L 488.466403 124.048969 
L 486.628458 124.048969 
z
" clip-path="url(#pb0a6140034)" style="fill: #1f77b4"/>
   </g>
   <g id="patch_206">
    <path d="M 488.466403 320.4 
L 490.304348 320.4 
L 490.304348 122.935915 
L 488.466403 122.935915 
z
" clip-path="url(#pb0a6140034)" style="fill: #1f77b4"/>
   </g>
   <g id="patch_207">
    <path d="M 490.304348 320.4 
L 492.142292 320.4 
L 492.142292 113.042099 
L 490.304348 113.042099 
z
" clip-path="url(#pb0a6140034)" style="fill: #1f77b4"/>
   </g>
   <g id="patch_208">
    <path d="M 492.142292 320.4 
L 493.980237 320.4 
L 493.980237 112.547408 
L 492.142292 112.547408 
z
" clip-path="url(#pb0a6140034)" style="fill: #1f77b4"/>
   </g>
   <g id="patch_209">
    <path d="M 493.980237 320.4 
L 495.818182 320.4 
L 495.818182 107.435603 
L 493.980237 107.435603 
z
" clip-path="url(#pb0a6140034)" style="fill: #1f77b4"/>
   </g>
   <g id="patch_210">
    <path d="M 495.818182 320.4 
L 497.656126 320.4 
L 497.656126 104.838476 
L 495.818182 104.838476 
z
" clip-path="url(#pb0a6140034)" style="fill: #1f77b4"/>
   </g>
   <g id="patch_211">
    <path d="M 497.656126 320.4 
L 499.494071 320.4 
L 499.494071 100.880949 
L 497.656126 100.880949 
z
" clip-path="url(#pb0a6140034)" style="fill: #1f77b4"/>
   </g>
   <g id="patch_212">
    <path d="M 499.494071 320.4 
L 501.332016 320.4 
L 501.332016 94.94466 
L 499.494071 94.94466 
z
" clip-path="url(#pb0a6140034)" style="fill: #1f77b4"/>
   </g>
   <g id="patch_213">
    <path d="M 501.332016 320.4 
L 503.16996 320.4 
L 503.16996 94.243848 
L 501.332016 94.243848 
z
" clip-path="url(#pb0a6140034)" style="fill: #1f77b4"/>
   </g>
   <g id="patch_214">
    <path d="M 503.16996 320.4 
L 505.007905 320.4 
L 505.007905 95.769144 
L 503.16996 95.769144 
z
" clip-path="url(#pb0a6140034)" style="fill: #1f77b4"/>
   </g>
   <g id="patch_215">
    <path d="M 505.007905 320.4 
L 506.84585 320.4 
L 506.84585 89.255715 
L 505.007905 89.255715 
z
" clip-path="url(#pb0a6140034)" style="fill: #1f77b4"/>
   </g>
   <g id="patch_216">
    <path d="M 506.84585 320.4 
L 508.683794 320.4 
L 508.683794 83.566771 
L 506.84585 83.566771 
z
" clip-path="url(#pb0a6140034)" style="fill: #1f77b4"/>
   </g>
   <g id="patch_217">
    <path d="M 508.683794 320.4 
L 510.521739 320.4 
L 510.521739 85.050843 
L 508.683794 85.050843 
z
" clip-path="url(#pb0a6140034)" style="fill: #1f77b4"/>
   </g>
   <g id="patch_218">
    <path d="M 510.521739 320.4 
L 512.359684 320.4 
L 512.359684 79.114553 
L 510.521739 79.114553 
z
" clip-path="url(#pb0a6140034)" style="fill: #1f77b4"/>
   </g>
   <g id="patch_219">
    <path d="M 512.359684 320.4 
L 514.197628 320.4 
L 514.197628 72.353779 
L 512.359684 72.353779 
z
" clip-path="url(#pb0a6140034)" style="fill: #1f77b4"/>
   </g>
   <g id="patch_220">
    <path d="M 514.197628 320.4 
L 516.035573 320.4 
L 516.035573 70.787258 
L 514.197628 70.787258 
z
" clip-path="url(#pb0a6140034)" style="fill: #1f77b4"/>
   </g>
   <g id="patch_221">
    <path d="M 516.035573 320.4 
L 517.873518 320.4 
L 517.873518 66.953404 
L 516.035573 66.953404 
z
" clip-path="url(#pb0a6140034)" style="fill: #1f77b4"/>
   </g>
   <g id="patch_222">
    <path d="M 517.873518 320.4 
L 519.711462 320.4 
L 519.711462 67.077077 
L 517.873518 67.077077 
z
" clip-path="url(#pb0a6140034)" style="fill: #1f77b4"/>
   </g>
   <g id="patch_223">
    <path d="M 519.711462 320.4 
L 521.549407 320.4 
L 521.549407 64.47995 
L 519.711462 64.47995 
z
" clip-path="url(#pb0a6140034)" style="fill: #1f77b4"/>
   </g>
   <g id="patch_224">
    <path d="M 521.549407 320.4 
L 523.387352 320.4 
L 523.387352 64.232605 
L 521.549407 64.232605 
z
" clip-path="url(#pb0a6140034)" style="fill: #1f77b4"/>
   </g>
   <g id="patch_225">
    <path d="M 523.387352 320.4 
L 525.225296 320.4 
L 525.225296 56.4 
L 523.387352 56.4 
z
" clip-path="url(#pb0a6140034)" style="fill: #1f77b4"/>
   </g>
   <g id="patch_226">
    <path d="M 525.225296 320.4 
L 527.063241 320.4 
L 527.063241 59.1208 
L 525.225296 59.1208 
z
" clip-path="url(#pb0a6140034)" style="fill: #1f77b4"/>
   </g>
   <g id="patch_227">
    <path d="M 527.063241 320.4 
L 528.901186 320.4 
L 528.901186 64.356277 
L 527.063241 64.356277 
z
" clip-path="url(#pb0a6140034)" style="fill: #1f77b4"/>
   </g>
   <g id="patch_228">
    <path d="M 528.901186 320.4 
L 530.73913 320.4 
L 530.73913 63.779138 
L 528.901186 63.779138 
z
" clip-path="url(#pb0a6140034)" style="fill: #1f77b4"/>
   </g>
   <g id="patch_229">
    <path d="M 530.73913 320.4 
L 532.577075 320.4 
L 532.577075 68.684822 
L 530.73913 68.684822 
z
" clip-path="url(#pb0a6140034)" style="fill: #1f77b4"/>
   </g>
   <g id="patch_230">
    <path d="M 532.577075 320.4 
L 534.41502 320.4 
L 534.41502 63.325671 
L 532.577075 63.325671 
z
" clip-path="url(#pb0a6140034)" style="fill: #1f77b4"/>
   </g>
   <g id="patch_231">
    <path d="M 534.41502 320.4 
L 536.252964 320.4 
L 536.252964 64.19138 
L 534.41502 64.19138 
z
" clip-path="url(#pb0a6140034)" style="fill: #1f77b4"/>
   </g>
   <g id="patch_232">
    <path d="M 536.252964 320.4 
L 538.090909 320.4 
L 538.090909 70.003998 
L 536.252964 70.003998 
z
" clip-path="url(#pb0a6140034)" style="fill: #1f77b4"/>
   </g>
   <g id="patch_233">
    <path d="M 538.090909 320.4 
L 539.928854 320.4 
L 539.928854 68.396252 
L 538.090909 68.396252 
z
" clip-path="url(#pb0a6140034)" style="fill: #1f77b4"/>
   </g>
   <g id="patch_234">
    <path d="M 539.928854 320.4 
L 541.766798 320.4 
L 541.766798 73.549282 
L 539.928854 73.549282 
z
" clip-path="url(#pb0a6140034)" style="fill: #1f77b4"/>
   </g>
   <g id="patch_235">
    <path d="M 541.766798 320.4 
L 543.604743 320.4 
L 543.604743 81.835353 
L 541.766798 81.835353 
z
" clip-path="url(#pb0a6140034)" style="fill: #1f77b4"/>
   </g>
   <g id="patch_236">
    <path d="M 543.604743 320.4 
L 545.442688 320.4 
L 545.442688 90.121424 
L 543.604743 90.121424 
z
" clip-path="url(#pb0a6140034)" style="fill: #1f77b4"/>
   </g>
   <g id="patch_237">
    <path d="M 545.442688 320.4 
L 547.280632 320.4 
L 547.280632 92.51243 
L 545.442688 92.51243 
z
" clip-path="url(#pb0a6140034)" style="fill: #1f77b4"/>
   </g>
   <g id="patch_238">
    <path d="M 547.280632 320.4 
L 549.118577 320.4 
L 549.118577 99.767895 
L 547.280632 99.767895 
z
" clip-path="url(#pb0a6140034)" style="fill: #1f77b4"/>
   </g>
   <g id="patch_239">
    <path d="M 549.118577 320.4 
L 550.956522 320.4 
L 550.956522 107.229482 
L 549.118577 107.229482 
z
" clip-path="url(#pb0a6140034)" style="fill: #1f77b4"/>
   </g>
   <g id="patch_240">
    <path d="M 550.956522 320.4 
L 552.794466 320.4 
L 552.794466 111.269457 
L 550.956522 111.269457 
z
" clip-path="url(#pb0a6140034)" style="fill: #1f77b4"/>
   </g>
   <g id="patch_241">
    <path d="M 552.794466 320.4 
L 554.632411 320.4 
L 554.632411 121.905309 
L 552.794466 121.905309 
z
" clip-path="url(#pb0a6140034)" style="fill: #1f77b4"/>
   </g>
   <g id="patch_242">
    <path d="M 554.632411 320.4 
L 556.470356 320.4 
L 556.470356 124.461212 
L 554.632411 124.461212 
z
" clip-path="url(#pb0a6140034)" style="fill: #1f77b4"/>
   </g>
   <g id="patch_243">
    <path d="M 556.470356 320.4 
L 558.3083 320.4 
L 558.3083 138.27133 
L 556.470356 138.27133 
z
" clip-path="url(#pb0a6140034)" style="fill: #1f77b4"/>
   </g>
   <g id="patch_244">
    <path d="M 558.3083 320.4 
L 560.146245 320.4 
L 560.146245 138.353779 
L 558.3083 138.353779 
z
" clip-path="url(#pb0a6140034)" style="fill: #1f77b4"/>
   </g>
   <g id="patch_245">
    <path d="M 560.146245 320.4 
L 561.98419 320.4 
L 561.98419 152.86471 
L 560.146245 152.86471 
z
" clip-path="url(#pb0a6140034)" style="fill: #1f77b4"/>
   </g>
   <g id="patch_246">
    <path d="M 561.98419 320.4 
L 563.822134 320.4 
L 563.822134 169.148282 
L 561.98419 169.148282 
z
" clip-path="url(#pb0a6140034)" style="fill: #1f77b4"/>
   </g>
   <g id="patch_247">
    <path d="M 563.822134 320.4 
L 565.660079 320.4 
L 565.660079 169.725422 
L 563.822134 169.725422 
z
" clip-path="url(#pb0a6140034)" style="fill: #1f77b4"/>
   </g>
   <g id="patch_248">
    <path d="M 565.660079 320.4 
L 567.498024 320.4 
L 567.498024 181.062086 
L 565.660079 181.062086 
z
" clip-path="url(#pb0a6140034)" style="fill: #1f77b4"/>
   </g>
   <g id="patch_249">
    <path d="M 567.498024 320.4 
L 569.335968 320.4 
L 569.335968 194.171393 
L 567.498024 194.171393 
z
" clip-path="url(#pb0a6140034)" style="fill: #1f77b4"/>
   </g>
   <g id="patch_250">
    <path d="M 569.335968 320.4 
L 571.173913 320.4 
L 571.173913 203.281949 
L 569.335968 203.281949 
z
" clip-path="url(#pb0a6140034)" style="fill: #1f77b4"/>
   </g>
   <g id="patch_251">
    <path d="M 571.173913 320.4 
L 573.011858 320.4 
L 573.011858 211.691693 
L 571.173913 211.691693 
z
" clip-path="url(#pb0a6140034)" style="fill: #1f77b4"/>
   </g>
   <g id="patch_252">
    <path d="M 573.011858 320.4 
L 574.849802 320.4 
L 574.849802 218.081449 
L 573.011858 218.081449 
z
" clip-path="url(#pb0a6140034)" style="fill: #1f77b4"/>
   </g>
   <g id="patch_253">
    <path d="M 574.849802 320.4 
L 576.687747 320.4 
L 576.687747 229.500562 
L 574.849802 229.500562 
z
" clip-path="url(#pb0a6140034)" style="fill: #1f77b4"/>
   </g>
   <g id="patch_254">
    <path d="M 576.687747 320.4 
L 578.525692 320.4 
L 578.525692 234.529919 
L 576.687747 234.529919 
z
" clip-path="url(#pb0a6140034)" style="fill: #1f77b4"/>
   </g>
   <g id="patch_255">
    <path d="M 578.525692 320.4 
L 580.363636 320.4 
L 580.363636 243.063335 
L 578.525692 243.063335 
z
" clip-path="url(#pb0a6140034)" style="fill: #1f77b4"/>
   </g>
   <g id="patch_256">
    <path d="M 580.363636 320.4 
L 582.201581 320.4 
L 582.201581 248.999625 
L 580.363636 248.999625 
z
" clip-path="url(#pb0a6140034)" style="fill: #1f77b4"/>
   </g>
   <g id="patch_257">
    <path d="M 582.201581 320.4 
L 584.039526 320.4 
L 584.039526 254.4 
L 582.201581 254.4 
z
" clip-path="url(#pb0a6140034)" style="fill: #1f77b4"/>
   </g>
   <g id="patch_258">
    <path d="M 584.039526 320.4 
L 585.87747 320.4 
L 585.87747 261.201999 
L 584.039526 261.201999 
z
" clip-path="url(#pb0a6140034)" style="fill: #1f77b4"/>
   </g>
   <g id="patch_259">
    <path d="M 585.87747 320.4 
L 587.715415 320.4 
L 587.715415 270.106433 
L 585.87747 270.106433 
z
" clip-path="url(#pb0a6140034)" style="fill: #1f77b4"/>
   </g>
   <g id="patch_260">
    <path d="M 587.715415 320.4 
L 589.55336 320.4 
L 589.55336 274.888445 
L 587.715415 274.888445 
z
" clip-path="url(#pb0a6140034)" style="fill: #1f77b4"/>
   </g>
   <g id="patch_261">
    <path d="M 589.55336 320.4 
L 591.391304 320.4 
L 591.391304 282.885946 
L 589.55336 282.885946 
z
" clip-path="url(#pb0a6140034)" style="fill: #1f77b4"/>
   </g>
   <g id="patch_262">
    <path d="M 591.391304 320.4 
L 593.229249 320.4 
L 593.229249 286.802249 
L 591.391304 286.802249 
z
" clip-path="url(#pb0a6140034)" style="fill: #1f77b4"/>
   </g>
   <g id="patch_263">
    <path d="M 593.229249 320.4 
L 595.067194 320.4 
L 595.067194 293.72792 
L 593.229249 293.72792 
z
" clip-path="url(#pb0a6140034)" style="fill: #1f77b4"/>
   </g>
   <g id="patch_264">
    <path d="M 595.067194 320.4 
L 596.905138 320.4 
L 596.905138 297.974016 
L 595.067194 297.974016 
z
" clip-path="url(#pb0a6140034)" style="fill: #1f77b4"/>
   </g>
   <g id="patch_265">
    <path d="M 596.905138 320.4 
L 598.743083 320.4 
L 598.743083 300.117676 
L 596.905138 300.117676 
z
" clip-path="url(#pb0a6140034)" style="fill: #1f77b4"/>
   </g>
   <g id="patch_266">
    <path d="M 598.743083 320.4 
L 600.581028 320.4 
L 600.581028 304.940912 
L 598.743083 304.940912 
z
" clip-path="url(#pb0a6140034)" style="fill: #1f77b4"/>
   </g>
   <g id="patch_267">
    <path d="M 600.581028 320.4 
L 602.418972 320.4 
L 602.418972 308.156402 
L 600.581028 308.156402 
z
" clip-path="url(#pb0a6140034)" style="fill: #1f77b4"/>
   </g>
   <g id="patch_268">
    <path d="M 602.418972 320.4 
L 604.256917 320.4 
L 604.256917 308.280075 
L 602.418972 308.280075 
z
" clip-path="url(#pb0a6140034)" style="fill: #1f77b4"/>
   </g>
   <g id="patch_269">
    <path d="M 604.256917 320.4 
L 606.094862 320.4 
L 606.094862 312.278826 
L 604.256917 312.278826 
z
" clip-path="url(#pb0a6140034)" style="fill: #1f77b4"/>
   </g>
   <g id="patch_270">
    <path d="M 606.094862 320.4 
L 607.932806 320.4 
L 607.932806 313.886571 
L 606.094862 313.886571 
z
" clip-path="url(#pb0a6140034)" style="fill: #1f77b4"/>
   </g>
   <g id="patch_271">
    <path d="M 607.932806 320.4 
L 609.770751 320.4 
L 609.770751 315.53554 
L 607.932806 315.53554 
z
" clip-path="url(#pb0a6140034)" style="fill: #1f77b4"/>
   </g>
   <g id="patch_272">
    <path d="M 609.770751 320.4 
L 611.608696 320.4 
L 611.608696 317.6792 
L 609.770751 317.6792 
z
" clip-path="url(#pb0a6140034)" style="fill: #1f77b4"/>
   </g>
   <g id="patch_273">
    <path d="M 611.608696 320.4 
L 613.44664 320.4 
L 613.44664 318.173891 
L 611.608696 318.173891 
z
" clip-path="url(#pb0a6140034)" style="fill: #1f77b4"/>
   </g>
   <g id="patch_274">
    <path d="M 613.44664 320.4 
L 615.284585 320.4 
L 615.284585 319.245721 
L 613.44664 319.245721 
z
" clip-path="url(#pb0a6140034)" style="fill: #1f77b4"/>
   </g>
   <g id="patch_275">
    <path d="M 615.284585 320.4 
L 617.12253 320.4 
L 617.12253 319.32817 
L 615.284585 319.32817 
z
" clip-path="url(#pb0a6140034)" style="fill: #1f77b4"/>
   </g>
   <g id="patch_276">
    <path d="M 617.12253 320.4 
L 618.960474 320.4 
L 618.960474 320.028982 
L 617.12253 320.028982 
z
" clip-path="url(#pb0a6140034)" style="fill: #1f77b4"/>
   </g>
   <g id="patch_277">
    <path d="M 618.960474 320.4 
L 620.798419 320.4 
L 620.798419 320.276327 
L 618.960474 320.276327 
z
" clip-path="url(#pb0a6140034)" style="fill: #1f77b4"/>
   </g>
   <g id="patch_278">
    <path d="M 620.798419 320.4 
L 622.636364 320.4 
L 622.636364 320.193879 
L 620.798419 320.193879 
z
" clip-path="url(#pb0a6140034)" style="fill: #1f77b4"/>
   </g>
   <g id="matplotlib.axis_1">
    <g id="xtick_1">
     <g id="line2d_1">
      <defs>
       <path id="mb52d922b5c" d="M 0 0 
L 0 3.5 
" style="stroke: #000000; stroke-width: 0.8"/>
      </defs>
      <g>
       <use xlink:href="#mb52d922b5c" x="90.33624" y="320.4" style="stroke: #000000; stroke-width: 0.8"/>
      </g>
     </g>
     <g id="text_1">
      <!-- 7 -->
      <g transform="translate(82.965146 334.998438) scale(0.1 -0.1)">
       <defs>
        <path id="DejaVuSans-2212" d="M 678 2272 
L 4684 2272 
L 4684 1741 
L 678 1741 
L 678 2272 
z
" transform="scale(0.015625)"/>
        <path id="DejaVuSans-37" d="M 525 4666 
L 3525 4666 
L 3525 4397 
L 1831 0 
L 1172 0 
L 2766 4134 
L 525 4134 
L 525 4666 
z
" transform="scale(0.015625)"/>
       </defs>
       <use xlink:href="#DejaVuSans-2212"/>
       <use xlink:href="#DejaVuSans-37" x="83.789062"/>
      </g>
     </g>
    </g>
    <g id="xtick_2">
     <g id="line2d_2">
      <g>
       <use xlink:href="#mb52d922b5c" x="166.762926" y="320.4" style="stroke: #000000; stroke-width: 0.8"/>
      </g>
     </g>
     <g id="text_2">
      <!-- 6 -->
      <g transform="translate(159.391833 334.998438) scale(0.1 -0.1)">
       <defs>
        <path id="DejaVuSans-36" d="M 2113 2584 
Q 1688 2584 1439 2293 
Q 1191 2003 1191 1497 
Q 1191 994 1439 701 
Q 1688 409 2113 409 
Q 2538 409 2786 701 
Q 3034 994 3034 1497 
Q 3034 2003 2786 2293 
Q 2538 2584 2113 2584 
z
M 3366 4563 
L 3366 3988 
Q 3128 4100 2886 4159 
Q 2644 4219 2406 4219 
Q 1781 4219 1451 3797 
Q 1122 3375 1075 2522 
Q 1259 2794 1537 2939 
Q 1816 3084 2150 3084 
Q 2853 3084 3261 2657 
Q 3669 2231 3669 1497 
Q 3669 778 3244 343 
Q 2819 -91 2113 -91 
Q 1303 -91 875 529 
Q 447 1150 447 2328 
Q 447 3434 972 4092 
Q 1497 4750 2381 4750 
Q 2619 4750 2861 4703 
Q 3103 4656 3366 4563 
z
" transform="scale(0.015625)"/>
       </defs>
       <use xlink:href="#DejaVuSans-2212"/>
       <use xlink:href="#DejaVuSans-36" x="83.789062"/>
      </g>
     </g>
    </g>
    <g id="xtick_3">
     <g id="line2d_3">
      <g>
       <use xlink:href="#mb52d922b5c" x="243.189613" y="320.4" style="stroke: #000000; stroke-width: 0.8"/>
      </g>
     </g>
     <g id="text_3">
      <!-- 5 -->
      <g transform="translate(235.818519 334.998438) scale(0.1 -0.1)">
       <defs>
        <path id="DejaVuSans-35" d="M 691 4666 
L 3169 4666 
L 3169 4134 
L 1269 4134 
L 1269 2991 
Q 1406 3038 1543 3061 
Q 1681 3084 1819 3084 
Q 2600 3084 3056 2656 
Q 3513 2228 3513 1497 
Q 3513 744 3044 326 
Q 2575 -91 1722 -91 
Q 1428 -91 1123 -41 
Q 819 9 494 109 
L 494 744 
Q 775 591 1075 516 
Q 1375 441 1709 441 
Q 2250 441 2565 725 
Q 2881 1009 2881 1497 
Q 2881 1984 2565 2268 
Q 2250 2553 1709 2553 
Q 1456 2553 1204 2497 
Q 953 2441 691 2322 
L 691 4666 
z
" transform="scale(0.015625)"/>
       </defs>
       <use xlink:href="#DejaVuSans-2212"/>
       <use xlink:href="#DejaVuSans-35" x="83.789062"/>
      </g>
     </g>
    </g>
    <g id="xtick_4">
     <g id="line2d_4">
      <g>
       <use xlink:href="#mb52d922b5c" x="319.616299" y="320.4" style="stroke: #000000; stroke-width: 0.8"/>
      </g>
     </g>
     <g id="text_4">
      <!-- 4 -->
      <g transform="translate(312.245205 334.998438) scale(0.1 -0.1)">
       <defs>
        <path id="DejaVuSans-34" d="M 2419 4116 
L 825 1625 
L 2419 1625 
L 2419 4116 
z
M 2253 4666 
L 3047 4666 
L 3047 1625 
L 3713 1625 
L 3713 1100 
L 3047 1100 
L 3047 0 
L 2419 0 
L 2419 1100 
L 313 1100 
L 313 1709 
L 2253 4666 
z
" transform="scale(0.015625)"/>
       </defs>
       <use xlink:href="#DejaVuSans-2212"/>
       <use xlink:href="#DejaVuSans-34" x="83.789062"/>
      </g>
     </g>
    </g>
    <g id="xtick_5">
     <g id="line2d_5">
      <g>
       <use xlink:href="#mb52d922b5c" x="396.042986" y="320.4" style="stroke: #000000; stroke-width: 0.8"/>
      </g>
     </g>
     <g id="text_5">
      <!-- 3 -->
      <g transform="translate(388.671892 334.998438) scale(0.1 -0.1)">
       <defs>
        <path id="DejaVuSans-33" d="M 2597 2516 
Q 3050 2419 3304 2112 
Q 3559 1806 3559 1356 
Q 3559 666 3084 287 
Q 2609 -91 1734 -91 
Q 1441 -91 1130 -33 
Q 819 25 488 141 
L 488 750 
Q 750 597 1062 519 
Q 1375 441 1716 441 
Q 2309 441 2620 675 
Q 2931 909 2931 1356 
Q 2931 1769 2642 2001 
Q 2353 2234 1838 2234 
L 1294 2234 
L 1294 2753 
L 1863 2753 
Q 2328 2753 2575 2939 
Q 2822 3125 2822 3475 
Q 2822 3834 2567 4026 
Q 2313 4219 1838 4219 
Q 1578 4219 1281 4162 
Q 984 4106 628 3988 
L 628 4550 
Q 988 4650 1302 4700 
Q 1616 4750 1894 4750 
Q 2613 4750 3031 4423 
Q 3450 4097 3450 3541 
Q 3450 3153 3228 2886 
Q 3006 2619 2597 2516 
z
" transform="scale(0.015625)"/>
       </defs>
       <use xlink:href="#DejaVuSans-2212"/>
       <use xlink:href="#DejaVuSans-33" x="83.789062"/>
      </g>
     </g>
    </g>
    <g id="xtick_6">
     <g id="line2d_6">
      <g>
       <use xlink:href="#mb52d922b5c" x="472.469672" y="320.4" style="stroke: #000000; stroke-width: 0.8"/>
      </g>
     </g>
     <g id="text_6">
      <!-- 2 -->
      <g transform="translate(465.098578 334.998438) scale(0.1 -0.1)">
       <defs>
        <path id="DejaVuSans-32" d="M 1228 531 
L 3431 531 
L 3431 0 
L 469 0 
L 469 531 
Q 828 903 1448 1529 
Q 2069 2156 2228 2338 
Q 2531 2678 2651 2914 
Q 2772 3150 2772 3378 
Q 2772 3750 2511 3984 
Q 2250 4219 1831 4219 
Q 1534 4219 1204 4116 
Q 875 4013 500 3803 
L 500 4441 
Q 881 4594 1212 4672 
Q 1544 4750 1819 4750 
Q 2544 4750 2975 4387 
Q 3406 4025 3406 3419 
Q 3406 3131 3298 2873 
Q 3191 2616 2906 2266 
Q 2828 2175 2409 1742 
Q 1991 1309 1228 531 
z
" transform="scale(0.015625)"/>
       </defs>
       <use xlink:href="#DejaVuSans-2212"/>
       <use xlink:href="#DejaVuSans-32" x="83.789062"/>
      </g>
     </g>
    </g>
    <g id="xtick_7">
     <g id="line2d_7">
      <g>
       <use xlink:href="#mb52d922b5c" x="548.896358" y="320.4" style="stroke: #000000; stroke-width: 0.8"/>
      </g>
     </g>
     <g id="text_7">
      <!-- 1 -->
      <g transform="translate(541.525265 334.998438) scale(0.1 -0.1)">
       <defs>
        <path id="DejaVuSans-31" d="M 794 531 
L 1825 531 
L 1825 4091 
L 703 3866 
L 703 4441 
L 1819 4666 
L 2450 4666 
L 2450 531 
L 3481 531 
L 3481 0 
L 794 0 
L 794 531 
z
" transform="scale(0.015625)"/>
       </defs>
       <use xlink:href="#DejaVuSans-2212"/>
       <use xlink:href="#DejaVuSans-31" x="83.789062"/>
      </g>
     </g>
    </g>
    <g id="xtick_8">
     <g id="line2d_8">
      <g>
       <use xlink:href="#mb52d922b5c" x="625.323045" y="320.4" style="stroke: #000000; stroke-width: 0.8"/>
      </g>
     </g>
     <g id="text_8">
      <!-- 0 -->
      <g transform="translate(622.141795 334.998438) scale(0.1 -0.1)">
       <defs>
        <path id="DejaVuSans-30" d="M 2034 4250 
Q 1547 4250 1301 3770 
Q 1056 3291 1056 2328 
Q 1056 1369 1301 889 
Q 1547 409 2034 409 
Q 2525 409 2770 889 
Q 3016 1369 3016 2328 
Q 3016 3291 2770 3770 
Q 2525 4250 2034 4250 
z
M 2034 4750 
Q 2819 4750 3233 4129 
Q 3647 3509 3647 2328 
Q 3647 1150 3233 529 
Q 2819 -91 2034 -91 
Q 1250 -91 836 529 
Q 422 1150 422 2328 
Q 422 3509 836 4129 
Q 1250 4750 2034 4750 
z
" transform="scale(0.015625)"/>
       </defs>
       <use xlink:href="#DejaVuSans-30"/>
      </g>
     </g>
    </g>
    <g id="text_9">
     <!-- multi-objective value -->
     <g transform="translate(284.59125 353.235625) scale(0.16 -0.16)">
      <defs>
       <path id="DejaVuSans-6d" d="M 3328 2828 
Q 3544 3216 3844 3400 
Q 4144 3584 4550 3584 
Q 5097 3584 5394 3201 
Q 5691 2819 5691 2113 
L 5691 0 
L 5113 0 
L 5113 2094 
Q 5113 2597 4934 2840 
Q 4756 3084 4391 3084 
Q 3944 3084 3684 2787 
Q 3425 2491 3425 1978 
L 3425 0 
L 2847 0 
L 2847 2094 
Q 2847 2600 2669 2842 
Q 2491 3084 2119 3084 
Q 1678 3084 1418 2786 
Q 1159 2488 1159 1978 
L 1159 0 
L 581 0 
L 581 3500 
L 1159 3500 
L 1159 2956 
Q 1356 3278 1631 3431 
Q 1906 3584 2284 3584 
Q 2666 3584 2933 3390 
Q 3200 3197 3328 2828 
z
" transform="scale(0.015625)"/>
       <path id="DejaVuSans-75" d="M 544 1381 
L 544 3500 
L 1119 3500 
L 1119 1403 
Q 1119 906 1312 657 
Q 1506 409 1894 409 
Q 2359 409 2629 706 
Q 2900 1003 2900 1516 
L 2900 3500 
L 3475 3500 
L 3475 0 
L 2900 0 
L 2900 538 
Q 2691 219 2414 64 
Q 2138 -91 1772 -91 
Q 1169 -91 856 284 
Q 544 659 544 1381 
z
M 1991 3584 
L 1991 3584 
z
" transform="scale(0.015625)"/>
       <path id="DejaVuSans-6c" d="M 603 4863 
L 1178 4863 
L 1178 0 
L 603 0 
L 603 4863 
z
" transform="scale(0.015625)"/>
       <path id="DejaVuSans-74" d="M 1172 4494 
L 1172 3500 
L 2356 3500 
L 2356 3053 
L 1172 3053 
L 1172 1153 
Q 1172 725 1289 603 
Q 1406 481 1766 481 
L 2356 481 
L 2356 0 
L 1766 0 
Q 1100 0 847 248 
Q 594 497 594 1153 
L 594 3053 
L 172 3053 
L 172 3500 
L 594 3500 
L 594 4494 
L 1172 4494 
z
" transform="scale(0.015625)"/>
       <path id="DejaVuSans-69" d="M 603 3500 
L 1178 3500 
L 1178 0 
L 603 0 
L 603 3500 
z
M 603 4863 
L 1178 4863 
L 1178 4134 
L 603 4134 
L 603 4863 
z
" transform="scale(0.015625)"/>
       <path id="DejaVuSans-2d" d="M 313 2009 
L 1997 2009 
L 1997 1497 
L 313 1497 
L 313 2009 
z
" transform="scale(0.015625)"/>
       <path id="DejaVuSans-6f" d="M 1959 3097 
Q 1497 3097 1228 2736 
Q 959 2375 959 1747 
Q 959 1119 1226 758 
Q 1494 397 1959 397 
Q 2419 397 2687 759 
Q 2956 1122 2956 1747 
Q 2956 2369 2687 2733 
Q 2419 3097 1959 3097 
z
M 1959 3584 
Q 2709 3584 3137 3096 
Q 3566 2609 3566 1747 
Q 3566 888 3137 398 
Q 2709 -91 1959 -91 
Q 1206 -91 779 398 
Q 353 888 353 1747 
Q 353 2609 779 3096 
Q 1206 3584 1959 3584 
z
" transform="scale(0.015625)"/>
       <path id="DejaVuSans-62" d="M 3116 1747 
Q 3116 2381 2855 2742 
Q 2594 3103 2138 3103 
Q 1681 3103 1420 2742 
Q 1159 2381 1159 1747 
Q 1159 1113 1420 752 
Q 1681 391 2138 391 
Q 2594 391 2855 752 
Q 3116 1113 3116 1747 
z
M 1159 2969 
Q 1341 3281 1617 3432 
Q 1894 3584 2278 3584 
Q 2916 3584 3314 3078 
Q 3713 2572 3713 1747 
Q 3713 922 3314 415 
Q 2916 -91 2278 -91 
Q 1894 -91 1617 61 
Q 1341 213 1159 525 
L 1159 0 
L 581 0 
L 581 4863 
L 1159 4863 
L 1159 2969 
z
" transform="scale(0.015625)"/>
       <path id="DejaVuSans-6a" d="M 603 3500 
L 1178 3500 
L 1178 -63 
Q 1178 -731 923 -1031 
Q 669 -1331 103 -1331 
L -116 -1331 
L -116 -844 
L 38 -844 
Q 366 -844 484 -692 
Q 603 -541 603 -63 
L 603 3500 
z
M 603 4863 
L 1178 4863 
L 1178 4134 
L 603 4134 
L 603 4863 
z
" transform="scale(0.015625)"/>
       <path id="DejaVuSans-65" d="M 3597 1894 
L 3597 1613 
L 953 1613 
Q 991 1019 1311 708 
Q 1631 397 2203 397 
Q 2534 397 2845 478 
Q 3156 559 3463 722 
L 3463 178 
Q 3153 47 2828 -22 
Q 2503 -91 2169 -91 
Q 1331 -91 842 396 
Q 353 884 353 1716 
Q 353 2575 817 3079 
Q 1281 3584 2069 3584 
Q 2775 3584 3186 3129 
Q 3597 2675 3597 1894 
z
M 3022 2063 
Q 3016 2534 2758 2815 
Q 2500 3097 2075 3097 
Q 1594 3097 1305 2825 
Q 1016 2553 972 2059 
L 3022 2063 
z
" transform="scale(0.015625)"/>
       <path id="DejaVuSans-63" d="M 3122 3366 
L 3122 2828 
Q 2878 2963 2633 3030 
Q 2388 3097 2138 3097 
Q 1578 3097 1268 2742 
Q 959 2388 959 1747 
Q 959 1106 1268 751 
Q 1578 397 2138 397 
Q 2388 397 2633 464 
Q 2878 531 3122 666 
L 3122 134 
Q 2881 22 2623 -34 
Q 2366 -91 2075 -91 
Q 1284 -91 818 406 
Q 353 903 353 1747 
Q 353 2603 823 3093 
Q 1294 3584 2113 3584 
Q 2378 3584 2631 3529 
Q 2884 3475 3122 3366 
z
" transform="scale(0.015625)"/>
       <path id="DejaVuSans-76" d="M 191 3500 
L 800 3500 
L 1894 563 
L 2988 3500 
L 3597 3500 
L 2284 0 
L 1503 0 
L 191 3500 
z
" transform="scale(0.015625)"/>
       <path id="DejaVuSans-20" transform="scale(0.015625)"/>
       <path id="DejaVuSans-61" d="M 2194 1759 
Q 1497 1759 1228 1600 
Q 959 1441 959 1056 
Q 959 750 1161 570 
Q 1363 391 1709 391 
Q 2188 391 2477 730 
Q 2766 1069 2766 1631 
L 2766 1759 
L 2194 1759 
z
M 3341 1997 
L 3341 0 
L 2766 0 
L 2766 531 
Q 2569 213 2275 61 
Q 1981 -91 1556 -91 
Q 1019 -91 701 211 
Q 384 513 384 1019 
Q 384 1609 779 1909 
Q 1175 2209 1959 2209 
L 2766 2209 
L 2766 2266 
Q 2766 2663 2505 2880 
Q 2244 3097 1772 3097 
Q 1472 3097 1187 3025 
Q 903 2953 641 2809 
L 641 3341 
Q 956 3463 1253 3523 
Q 1550 3584 1831 3584 
Q 2591 3584 2966 3190 
Q 3341 2797 3341 1997 
z
" transform="scale(0.015625)"/>
      </defs>
      <use xlink:href="#DejaVuSans-6d"/>
      <use xlink:href="#DejaVuSans-75" x="97.412109"/>
      <use xlink:href="#DejaVuSans-6c" x="160.791016"/>
      <use xlink:href="#DejaVuSans-74" x="188.574219"/>
      <use xlink:href="#DejaVuSans-69" x="227.783203"/>
      <use xlink:href="#DejaVuSans-2d" x="255.566406"/>
      <use xlink:href="#DejaVuSans-6f" x="293.525391"/>
      <use xlink:href="#DejaVuSans-62" x="354.707031"/>
      <use xlink:href="#DejaVuSans-6a" x="418.183594"/>
      <use xlink:href="#DejaVuSans-65" x="445.966797"/>
      <use xlink:href="#DejaVuSans-63" x="507.490234"/>
      <use xlink:href="#DejaVuSans-74" x="562.470703"/>
      <use xlink:href="#DejaVuSans-69" x="601.679688"/>
      <use xlink:href="#DejaVuSans-76" x="629.462891"/>
      <use xlink:href="#DejaVuSans-65" x="688.642578"/>
      <use xlink:href="#DejaVuSans-20" x="750.166016"/>
      <use xlink:href="#DejaVuSans-76" x="781.953125"/>
      <use xlink:href="#DejaVuSans-61" x="841.132812"/>
      <use xlink:href="#DejaVuSans-6c" x="902.412109"/>
      <use xlink:href="#DejaVuSans-75" x="930.195312"/>
      <use xlink:href="#DejaVuSans-65" x="993.574219"/>
     </g>
    </g>
   </g>
   <g id="matplotlib.axis_2">
    <g id="ytick_1">
     <g id="line2d_9">
      <defs>
       <path id="m8a27f79eb6" d="M 0 0 
L -3.5 0 
" style="stroke: #000000; stroke-width: 0.8"/>
      </defs>
      <g>
       <use xlink:href="#m8a27f79eb6" x="90" y="320.4" style="stroke: #000000; stroke-width: 0.8"/>
      </g>
     </g>
     <g id="text_10">
      <!-- 0.0 -->
      <g transform="translate(67.096875 324.199219) scale(0.1 -0.1)">
       <defs>
        <path id="DejaVuSans-2e" d="M 684 794 
L 1344 794 
L 1344 0 
L 684 0 
L 684 794 
z
" transform="scale(0.015625)"/>
       </defs>
       <use xlink:href="#DejaVuSans-30"/>
       <use xlink:href="#DejaVuSans-2e" x="63.623047"/>
       <use xlink:href="#DejaVuSans-30" x="95.410156"/>
      </g>
     </g>
    </g>
    <g id="ytick_2">
     <g id="line2d_10">
      <g>
       <use xlink:href="#m8a27f79eb6" x="90" y="280.353516" style="stroke: #000000; stroke-width: 0.8"/>
      </g>
     </g>
     <g id="text_11">
      <!-- 0.1 -->
      <g transform="translate(67.096875 284.152735) scale(0.1 -0.1)">
       <use xlink:href="#DejaVuSans-30"/>
       <use xlink:href="#DejaVuSans-2e" x="63.623047"/>
       <use xlink:href="#DejaVuSans-31" x="95.410156"/>
      </g>
     </g>
    </g>
    <g id="ytick_3">
     <g id="line2d_11">
      <g>
       <use xlink:href="#m8a27f79eb6" x="90" y="240.307032" style="stroke: #000000; stroke-width: 0.8"/>
      </g>
     </g>
     <g id="text_12">
      <!-- 0.2 -->
      <g transform="translate(67.096875 244.106251) scale(0.1 -0.1)">
       <use xlink:href="#DejaVuSans-30"/>
       <use xlink:href="#DejaVuSans-2e" x="63.623047"/>
       <use xlink:href="#DejaVuSans-32" x="95.410156"/>
      </g>
     </g>
    </g>
    <g id="ytick_4">
     <g id="line2d_12">
      <g>
       <use xlink:href="#m8a27f79eb6" x="90" y="200.260548" style="stroke: #000000; stroke-width: 0.8"/>
      </g>
     </g>
     <g id="text_13">
      <!-- 0.3 -->
      <g transform="translate(67.096875 204.059767) scale(0.1 -0.1)">
       <use xlink:href="#DejaVuSans-30"/>
       <use xlink:href="#DejaVuSans-2e" x="63.623047"/>
       <use xlink:href="#DejaVuSans-33" x="95.410156"/>
      </g>
     </g>
    </g>
    <g id="ytick_5">
     <g id="line2d_13">
      <g>
       <use xlink:href="#m8a27f79eb6" x="90" y="160.214064" style="stroke: #000000; stroke-width: 0.8"/>
      </g>
     </g>
     <g id="text_14">
      <!-- 0.4 -->
      <g transform="translate(67.096875 164.013283) scale(0.1 -0.1)">
       <use xlink:href="#DejaVuSans-30"/>
       <use xlink:href="#DejaVuSans-2e" x="63.623047"/>
       <use xlink:href="#DejaVuSans-34" x="95.410156"/>
      </g>
     </g>
    </g>
    <g id="ytick_6">
     <g id="line2d_14">
      <g>
       <use xlink:href="#m8a27f79eb6" x="90" y="120.16758" style="stroke: #000000; stroke-width: 0.8"/>
      </g>
     </g>
     <g id="text_15">
      <!-- 0.5 -->
      <g transform="translate(67.096875 123.966799) scale(0.1 -0.1)">
       <use xlink:href="#DejaVuSans-30"/>
       <use xlink:href="#DejaVuSans-2e" x="63.623047"/>
       <use xlink:href="#DejaVuSans-35" x="95.410156"/>
      </g>
     </g>
    </g>
    <g id="ytick_7">
     <g id="line2d_15">
      <g>
       <use xlink:href="#m8a27f79eb6" x="90" y="80.121096" style="stroke: #000000; stroke-width: 0.8"/>
      </g>
     </g>
     <g id="text_16">
      <!-- 0.6 -->
      <g transform="translate(67.096875 83.920315) scale(0.1 -0.1)">
       <use xlink:href="#DejaVuSans-30"/>
       <use xlink:href="#DejaVuSans-2e" x="63.623047"/>
       <use xlink:href="#DejaVuSans-36" x="95.410156"/>
      </g>
     </g>
    </g>
    <g id="text_17">
     <!-- Relative frequency -->
     <g transform="translate(59.769375 256.7275) rotate(-90) scale(0.16 -0.16)">
      <defs>
       <path id="DejaVuSans-52" d="M 2841 2188 
Q 3044 2119 3236 1894 
Q 3428 1669 3622 1275 
L 4263 0 
L 3584 0 
L 2988 1197 
Q 2756 1666 2539 1819 
Q 2322 1972 1947 1972 
L 1259 1972 
L 1259 0 
L 628 0 
L 628 4666 
L 2053 4666 
Q 2853 4666 3247 4331 
Q 3641 3997 3641 3322 
Q 3641 2881 3436 2590 
Q 3231 2300 2841 2188 
z
M 1259 4147 
L 1259 2491 
L 2053 2491 
Q 2509 2491 2742 2702 
Q 2975 2913 2975 3322 
Q 2975 3731 2742 3939 
Q 2509 4147 2053 4147 
L 1259 4147 
z
" transform="scale(0.015625)"/>
       <path id="DejaVuSans-66" d="M 2375 4863 
L 2375 4384 
L 1825 4384 
Q 1516 4384 1395 4259 
Q 1275 4134 1275 3809 
L 1275 3500 
L 2222 3500 
L 2222 3053 
L 1275 3053 
L 1275 0 
L 697 0 
L 697 3053 
L 147 3053 
L 147 3500 
L 697 3500 
L 697 3744 
Q 697 4328 969 4595 
Q 1241 4863 1831 4863 
L 2375 4863 
z
" transform="scale(0.015625)"/>
       <path id="DejaVuSans-72" d="M 2631 2963 
Q 2534 3019 2420 3045 
Q 2306 3072 2169 3072 
Q 1681 3072 1420 2755 
Q 1159 2438 1159 1844 
L 1159 0 
L 581 0 
L 581 3500 
L 1159 3500 
L 1159 2956 
Q 1341 3275 1631 3429 
Q 1922 3584 2338 3584 
Q 2397 3584 2469 3576 
Q 2541 3569 2628 3553 
L 2631 2963 
z
" transform="scale(0.015625)"/>
       <path id="DejaVuSans-71" d="M 947 1747 
Q 947 1113 1208 752 
Q 1469 391 1925 391 
Q 2381 391 2643 752 
Q 2906 1113 2906 1747 
Q 2906 2381 2643 2742 
Q 2381 3103 1925 3103 
Q 1469 3103 1208 2742 
Q 947 2381 947 1747 
z
M 2906 525 
Q 2725 213 2448 61 
Q 2172 -91 1784 -91 
Q 1150 -91 751 415 
Q 353 922 353 1747 
Q 353 2572 751 3078 
Q 1150 3584 1784 3584 
Q 2172 3584 2448 3432 
Q 2725 3281 2906 2969 
L 2906 3500 
L 3481 3500 
L 3481 -1331 
L 2906 -1331 
L 2906 525 
z
" transform="scale(0.015625)"/>
       <path id="DejaVuSans-6e" d="M 3513 2113 
L 3513 0 
L 2938 0 
L 2938 2094 
Q 2938 2591 2744 2837 
Q 2550 3084 2163 3084 
Q 1697 3084 1428 2787 
Q 1159 2491 1159 1978 
L 1159 0 
L 581 0 
L 581 3500 
L 1159 3500 
L 1159 2956 
Q 1366 3272 1645 3428 
Q 1925 3584 2291 3584 
Q 2894 3584 3203 3211 
Q 3513 2838 3513 2113 
z
" transform="scale(0.015625)"/>
       <path id="DejaVuSans-79" d="M 2059 -325 
Q 1816 -950 1584 -1140 
Q 1353 -1331 966 -1331 
L 506 -1331 
L 506 -850 
L 844 -850 
Q 1081 -850 1212 -737 
Q 1344 -625 1503 -206 
L 1606 56 
L 191 3500 
L 800 3500 
L 1894 763 
L 2988 3500 
L 3597 3500 
L 2059 -325 
z
" transform="scale(0.015625)"/>
      </defs>
      <use xlink:href="#DejaVuSans-52"/>
      <use xlink:href="#DejaVuSans-65" x="64.982422"/>
      <use xlink:href="#DejaVuSans-6c" x="126.505859"/>
      <use xlink:href="#DejaVuSans-61" x="154.289062"/>
      <use xlink:href="#DejaVuSans-74" x="215.568359"/>
      <use xlink:href="#DejaVuSans-69" x="254.777344"/>
      <use xlink:href="#DejaVuSans-76" x="282.560547"/>
      <use xlink:href="#DejaVuSans-65" x="341.740234"/>
      <use xlink:href="#DejaVuSans-20" x="403.263672"/>
      <use xlink:href="#DejaVuSans-66" x="435.050781"/>
      <use xlink:href="#DejaVuSans-72" x="470.255859"/>
      <use xlink:href="#DejaVuSans-65" x="509.119141"/>
      <use xlink:href="#DejaVuSans-71" x="570.642578"/>
      <use xlink:href="#DejaVuSans-75" x="634.119141"/>
      <use xlink:href="#DejaVuSans-65" x="697.498047"/>
      <use xlink:href="#DejaVuSans-6e" x="759.021484"/>
      <use xlink:href="#DejaVuSans-63" x="822.400391"/>
      <use xlink:href="#DejaVuSans-79" x="877.380859"/>
     </g>
    </g>
   </g>
   <g id="line2d_16">
    <path d="M 557.479682 320.4 
L 557.479682 56.4 
" clip-path="url(#pb0a6140034)" style="fill: none; stroke: #ff0000; stroke-width: 1.6; stroke-linecap: square"/>
   </g>
   <g id="patch_279">
    <path d="M 90 320.4 
L 90 43.2 
" style="fill: none; stroke: #000000; stroke-width: 0.8; stroke-linejoin: miter; stroke-linecap: square"/>
   </g>
   <g id="patch_280">
    <path d="M 648 320.4 
L 648 43.2 
" style="fill: none; stroke: #000000; stroke-width: 0.8; stroke-linejoin: miter; stroke-linecap: square"/>
   </g>
   <g id="patch_281">
    <path d="M 90 320.4 
L 648 320.4 
" style="fill: none; stroke: #000000; stroke-width: 0.8; stroke-linejoin: miter; stroke-linecap: square"/>
   </g>
   <g id="patch_282">
    <path d="M 90 43.2 
L 648 43.2 
" style="fill: none; stroke: #000000; stroke-width: 0.8; stroke-linejoin: miter; stroke-linecap: square"/>
   </g>
   <g id="text_18">
    <!-- $\mu_3 = -1.6$ -->
    <g transform="translate(480.6 77.325562) scale(0.19 -0.19)">
     <defs>
      <path id="DejaVuSans-Oblique-3bc" d="M -84 -1331 
L 856 3500 
L 1434 3500 
L 1009 1322 
Q 997 1256 987 1175 
Q 978 1094 978 1013 
Q 978 722 1161 565 
Q 1344 409 1684 409 
Q 2147 409 2431 671 
Q 2716 934 2816 1459 
L 3213 3500 
L 3788 3500 
L 3266 809 
Q 3253 750 3248 706 
Q 3244 663 3244 628 
Q 3244 531 3283 486 
Q 3322 441 3406 441 
Q 3438 441 3492 456 
Q 3547 472 3647 513 
L 3559 50 
Q 3422 -19 3297 -55 
Q 3172 -91 3053 -91 
Q 2847 -91 2730 40 
Q 2613 172 2613 403 
Q 2438 153 2195 31 
Q 1953 -91 1625 -91 
Q 1334 -91 1117 43 
Q 900 178 831 397 
L 494 -1331 
L -84 -1331 
z
" transform="scale(0.015625)"/>
      <path id="DejaVuSans-3d" d="M 678 2906 
L 4684 2906 
L 4684 2381 
L 678 2381 
L 678 2906 
z
M 678 1631 
L 4684 1631 
L 4684 1100 
L 678 1100 
L 678 1631 
z
" transform="scale(0.015625)"/>
     </defs>
     <use xlink:href="#DejaVuSans-Oblique-3bc" transform="translate(0 0.78125)"/>
     <use xlink:href="#DejaVuSans-33" transform="translate(63.623047 -15.625) scale(0.7)"/>
     <use xlink:href="#DejaVuSans-3d" transform="translate(130.375977 0.78125)"/>
     <use xlink:href="#DejaVuSans-2212" transform="translate(253.129883 0.78125)"/>
     <use xlink:href="#DejaVuSans-31" transform="translate(356.401367 0.78125)"/>
     <use xlink:href="#DejaVuSans-2e" transform="translate(420.024414 0.78125)"/>
     <use xlink:href="#DejaVuSans-36" transform="translate(451.811523 0.78125)"/>
    </g>
    <!-- $\sigma_3 = 0.65$ -->
    <g transform="translate(480.6 98.64) scale(0.19 -0.19)">
     <defs>
      <path id="DejaVuSans-Oblique-3c3" d="M 2219 3044 
Q 1744 3044 1422 2700 
Q 1081 2341 969 1747 
Q 844 1119 1044 756 
Q 1241 397 1706 397 
Q 2166 397 2503 759 
Q 2844 1122 2966 1747 
Q 3075 2319 2881 2700 
Q 2700 3044 2219 3044 
z
M 2309 3503 
L 4219 3500 
L 4106 2925 
L 3463 2925 
Q 3706 2438 3575 1747 
Q 3406 888 2884 400 
Q 2359 -91 1609 -91 
Q 856 -91 525 400 
Q 194 888 363 1747 
Q 528 2609 1050 3097 
Q 1484 3503 2309 3503 
z
" transform="scale(0.015625)"/>
     </defs>
     <use xlink:href="#DejaVuSans-Oblique-3c3" transform="translate(0 0.78125)"/>
     <use xlink:href="#DejaVuSans-33" transform="translate(63.378906 -15.625) scale(0.7)"/>
     <use xlink:href="#DejaVuSans-3d" transform="translate(130.131836 0.78125)"/>
     <use xlink:href="#DejaVuSans-30" transform="translate(233.40332 0.78125)"/>
     <use xlink:href="#DejaVuSans-2e" transform="translate(297.026367 0.78125)"/>
     <use xlink:href="#DejaVuSans-36" transform="translate(328.813477 0.78125)"/>
     <use xlink:href="#DejaVuSans-35" transform="translate(392.436523 0.78125)"/>
    </g>
   </g>
   <g id="text_19">
    <!-- Distribution of multi-objective value -->
    <g transform="translate(207.140625 37.2) scale(0.18 -0.18)">
     <defs>
      <path id="DejaVuSans-44" d="M 1259 4147 
L 1259 519 
L 2022 519 
Q 2988 519 3436 956 
Q 3884 1394 3884 2338 
Q 3884 3275 3436 3711 
Q 2988 4147 2022 4147 
L 1259 4147 
z
M 628 4666 
L 1925 4666 
Q 3281 4666 3915 4102 
Q 4550 3538 4550 2338 
Q 4550 1131 3912 565 
Q 3275 0 1925 0 
L 628 0 
L 628 4666 
z
" transform="scale(0.015625)"/>
      <path id="DejaVuSans-73" d="M 2834 3397 
L 2834 2853 
Q 2591 2978 2328 3040 
Q 2066 3103 1784 3103 
Q 1356 3103 1142 2972 
Q 928 2841 928 2578 
Q 928 2378 1081 2264 
Q 1234 2150 1697 2047 
L 1894 2003 
Q 2506 1872 2764 1633 
Q 3022 1394 3022 966 
Q 3022 478 2636 193 
Q 2250 -91 1575 -91 
Q 1294 -91 989 -36 
Q 684 19 347 128 
L 347 722 
Q 666 556 975 473 
Q 1284 391 1588 391 
Q 1994 391 2212 530 
Q 2431 669 2431 922 
Q 2431 1156 2273 1281 
Q 2116 1406 1581 1522 
L 1381 1569 
Q 847 1681 609 1914 
Q 372 2147 372 2553 
Q 372 3047 722 3315 
Q 1072 3584 1716 3584 
Q 2034 3584 2315 3537 
Q 2597 3491 2834 3397 
z
" transform="scale(0.015625)"/>
     </defs>
     <use xlink:href="#DejaVuSans-44"/>
     <use xlink:href="#DejaVuSans-69" x="77.001953"/>
     <use xlink:href="#DejaVuSans-73" x="104.785156"/>
     <use xlink:href="#DejaVuSans-74" x="156.884766"/>
     <use xlink:href="#DejaVuSans-72" x="196.09375"/>
     <use xlink:href="#DejaVuSans-69" x="237.207031"/>
     <use xlink:href="#DejaVuSans-62" x="264.990234"/>
     <use xlink:href="#DejaVuSans-75" x="328.466797"/>
     <use xlink:href="#DejaVuSans-74" x="391.845703"/>
     <use xlink:href="#DejaVuSans-69" x="431.054688"/>
     <use xlink:href="#DejaVuSans-6f" x="458.837891"/>
     <use xlink:href="#DejaVuSans-6e" x="520.019531"/>
     <use xlink:href="#DejaVuSans-20" x="583.398438"/>
     <use xlink:href="#DejaVuSans-6f" x="615.185547"/>
     <use xlink:href="#DejaVuSans-66" x="676.367188"/>
     <use xlink:href="#DejaVuSans-20" x="711.572266"/>
     <use xlink:href="#DejaVuSans-6d" x="743.359375"/>
     <use xlink:href="#DejaVuSans-75" x="840.771484"/>
     <use xlink:href="#DejaVuSans-6c" x="904.150391"/>
     <use xlink:href="#DejaVuSans-74" x="931.933594"/>
     <use xlink:href="#DejaVuSans-69" x="971.142578"/>
     <use xlink:href="#DejaVuSans-2d" x="998.925781"/>
     <use xlink:href="#DejaVuSans-6f" x="1036.884766"/>
     <use xlink:href="#DejaVuSans-62" x="1098.066406"/>
     <use xlink:href="#DejaVuSans-6a" x="1161.542969"/>
     <use xlink:href="#DejaVuSans-65" x="1189.326172"/>
     <use xlink:href="#DejaVuSans-63" x="1250.849609"/>
     <use xlink:href="#DejaVuSans-74" x="1305.830078"/>
     <use xlink:href="#DejaVuSans-69" x="1345.039062"/>
     <use xlink:href="#DejaVuSans-76" x="1372.822266"/>
     <use xlink:href="#DejaVuSans-65" x="1432.001953"/>
     <use xlink:href="#DejaVuSans-20" x="1493.525391"/>
     <use xlink:href="#DejaVuSans-76" x="1525.3125"/>
     <use xlink:href="#DejaVuSans-61" x="1584.492188"/>
     <use xlink:href="#DejaVuSans-6c" x="1645.771484"/>
     <use xlink:href="#DejaVuSans-75" x="1673.554688"/>
     <use xlink:href="#DejaVuSans-65" x="1736.933594"/>
    </g>
   </g>
  </g>
 </g>
 <defs>
  <clipPath id="pb0a6140034">
   <rect x="90" y="43.2" width="558" height="277.2"/>
  </clipPath>
 </defs>
</svg>
