<?xml version="1.0" encoding="utf-8" standalone="no"?>
<!DOCTYPE svg PUBLIC "-//W3C//DTD SVG 1.1//EN"
  "http://www.w3.org/Graphics/SVG/1.1/DTD/svg11.dtd">
<svg xmlns:xlink="http://www.w3.org/1999/xlink" width="720pt" height="360pt" viewBox="0 0 720 360" xmlns="http://www.w3.org/2000/svg" version="1.1">
 <metadata>
  <rdf:RDF xmlns:dc="http://purl.org/dc/elements/1.1/" xmlns:cc="http://creativecommons.org/ns#" xmlns:rdf="http://www.w3.org/1999/02/22-rdf-syntax-ns#">
   <cc:Work>
    <dc:type rdf:resource="http://purl.org/dc/dcmitype/StillImage"/>
    <dc:date>2023-10-26T15:14:32.992313</dc:date>
    <dc:format>image/svg+xml</dc:format>
    <dc:creator>
     <cc:Agent>
      <dc:title>Matplotlib v3.7.2, https://matplotlib.org/</dc:title>
     </cc:Agent>
    </dc:creator>
   </cc:Work>
  </rdf:RDF>
 </metadata>
 <defs>
  <style type="text/css">*{stroke-linejoin: round; stroke-linecap: butt}</style>
 </defs>
 <g id="figure_1">
  <g id="patch_1">
   <path d="M 0 360 
L 720 360 
L 720 0 
L 0 0 
z
" style="fill: #ffffff"/>
  </g>
  <g id="axes_1">
   <g id="patch_2">
    <path d="M 90 320.4 
L 648 320.4 
L 648 43.2 
L 90 43.2 
z
" style="fill: #ffffff"/>
   </g>
   <g id="patch_3">
    <path d="M 115.363636 320.4 
L 118.076325 320.4 
L 118.076325 319.437454 
L 115.363636 319.437454 
z
" clip-path="url(#p884e398b12)" style="fill: #1f77b4"/>
   </g>
   <g id="patch_4">
    <path d="M 118.076325 320.4 
L 120.789013 320.4 
L 120.789013 318.124892 
L 118.076325 318.124892 
z
" clip-path="url(#p884e398b12)" style="fill: #1f77b4"/>
   </g>
   <g id="patch_5">
    <path d="M 120.789013 320.4 
L 123.501702 320.4 
L 123.501702 317.643619 
L 120.789013 317.643619 
z
" clip-path="url(#p884e398b12)" style="fill: #1f77b4"/>
   </g>
   <g id="patch_6">
    <path d="M 123.501702 320.4 
L 126.21439 320.4 
L 126.21439 315.893537 
L 123.501702 315.893537 
z
" clip-path="url(#p884e398b12)" style="fill: #1f77b4"/>
   </g>
   <g id="patch_7">
    <path d="M 126.21439 320.4 
L 128.927078 320.4 
L 128.927078 313.924693 
L 126.21439 313.924693 
z
" clip-path="url(#p884e398b12)" style="fill: #1f77b4"/>
   </g>
   <g id="patch_8">
    <path d="M 128.927078 320.4 
L 131.639767 320.4 
L 131.639767 310.9058 
L 128.927078 310.9058 
z
" clip-path="url(#p884e398b12)" style="fill: #1f77b4"/>
   </g>
   <g id="patch_9">
    <path d="M 131.639767 320.4 
L 134.352455 320.4 
L 134.352455 307.755651 
L 131.639767 307.755651 
z
" clip-path="url(#p884e398b12)" style="fill: #1f77b4"/>
   </g>
   <g id="patch_10">
    <path d="M 134.352455 320.4 
L 137.065143 320.4 
L 137.065143 306.005568 
L 134.352455 306.005568 
z
" clip-path="url(#p884e398b12)" style="fill: #1f77b4"/>
   </g>
   <g id="patch_11">
    <path d="M 137.065143 320.4 
L 139.777832 320.4 
L 139.777832 301.980378 
L 137.065143 301.980378 
z
" clip-path="url(#p884e398b12)" style="fill: #1f77b4"/>
   </g>
   <g id="patch_12">
    <path d="M 139.777832 320.4 
L 142.49052 320.4 
L 142.49052 299.836526 
L 139.777832 299.836526 
z
" clip-path="url(#p884e398b12)" style="fill: #1f77b4"/>
   </g>
   <g id="patch_13">
    <path d="M 142.49052 320.4 
L 145.203209 320.4 
L 145.203209 293.142459 
L 142.49052 293.142459 
z
" clip-path="url(#p884e398b12)" style="fill: #1f77b4"/>
   </g>
   <g id="patch_14">
    <path d="M 145.203209 320.4 
L 147.915897 320.4 
L 147.915897 290.561087 
L 145.203209 290.561087 
z
" clip-path="url(#p884e398b12)" style="fill: #1f77b4"/>
   </g>
   <g id="patch_15">
    <path d="M 147.915897 320.4 
L 150.628585 320.4 
L 150.628585 286.667153 
L 147.915897 286.667153 
z
" clip-path="url(#p884e398b12)" style="fill: #1f77b4"/>
   </g>
   <g id="patch_16">
    <path d="M 150.628585 320.4 
L 153.341274 320.4 
L 153.341274 283.123235 
L 150.628585 283.123235 
z
" clip-path="url(#p884e398b12)" style="fill: #1f77b4"/>
   </g>
   <g id="patch_17">
    <path d="M 153.341274 320.4 
L 156.053962 320.4 
L 156.053962 277.697978 
L 153.341274 277.697978 
z
" clip-path="url(#p884e398b12)" style="fill: #1f77b4"/>
   </g>
   <g id="patch_18">
    <path d="M 156.053962 320.4 
L 158.76665 320.4 
L 158.76665 275.904143 
L 156.053962 275.904143 
z
" clip-path="url(#p884e398b12)" style="fill: #1f77b4"/>
   </g>
   <g id="patch_19">
    <path d="M 158.76665 320.4 
L 161.479339 320.4 
L 161.479339 275.20411 
L 158.76665 275.20411 
z
" clip-path="url(#p884e398b12)" style="fill: #1f77b4"/>
   </g>
   <g id="patch_20">
    <path d="M 161.479339 320.4 
L 164.192027 320.4 
L 164.192027 273.235267 
L 161.479339 273.235267 
z
" clip-path="url(#p884e398b12)" style="fill: #1f77b4"/>
   </g>
   <g id="patch_21">
    <path d="M 164.192027 320.4 
L 166.904716 320.4 
L 166.904716 267.59125 
L 164.192027 267.59125 
z
" clip-path="url(#p884e398b12)" style="fill: #1f77b4"/>
   </g>
   <g id="patch_22">
    <path d="M 166.904716 320.4 
L 169.617404 320.4 
L 169.617404 265.797415 
L 166.904716 265.797415 
z
" clip-path="url(#p884e398b12)" style="fill: #1f77b4"/>
   </g>
   <g id="patch_23">
    <path d="M 169.617404 320.4 
L 172.330092 320.4 
L 172.330092 257.397017 
L 169.617404 257.397017 
z
" clip-path="url(#p884e398b12)" style="fill: #1f77b4"/>
   </g>
   <g id="patch_24">
    <path d="M 172.330092 320.4 
L 175.042781 320.4 
L 175.042781 250.48419 
L 172.330092 250.48419 
z
" clip-path="url(#p884e398b12)" style="fill: #1f77b4"/>
   </g>
   <g id="patch_25">
    <path d="M 175.042781 320.4 
L 177.755469 320.4 
L 177.755469 242.083792 
L 175.042781 242.083792 
z
" clip-path="url(#p884e398b12)" style="fill: #1f77b4"/>
   </g>
   <g id="patch_26">
    <path d="M 177.755469 320.4 
L 180.468158 320.4 
L 180.468158 235.08346 
L 177.755469 235.08346 
z
" clip-path="url(#p884e398b12)" style="fill: #1f77b4"/>
   </g>
   <g id="patch_27">
    <path d="M 180.468158 320.4 
L 183.180846 320.4 
L 183.180846 232.633344 
L 180.468158 232.633344 
z
" clip-path="url(#p884e398b12)" style="fill: #1f77b4"/>
   </g>
   <g id="patch_28">
    <path d="M 183.180846 320.4 
L 185.893534 320.4 
L 185.893534 225.326748 
L 183.180846 225.326748 
z
" clip-path="url(#p884e398b12)" style="fill: #1f77b4"/>
   </g>
   <g id="patch_29">
    <path d="M 185.893534 320.4 
L 188.606223 320.4 
L 188.606223 215.657541 
L 185.893534 215.657541 
z
" clip-path="url(#p884e398b12)" style="fill: #1f77b4"/>
   </g>
   <g id="patch_30">
    <path d="M 188.606223 320.4 
L 191.318911 320.4 
L 191.318911 198.287968 
L 188.606223 198.287968 
z
" clip-path="url(#p884e398b12)" style="fill: #1f77b4"/>
   </g>
   <g id="patch_31">
    <path d="M 191.318911 320.4 
L 194.031599 320.4 
L 194.031599 186.649917 
L 191.318911 186.649917 
z
" clip-path="url(#p884e398b12)" style="fill: #1f77b4"/>
   </g>
   <g id="patch_32">
    <path d="M 194.031599 320.4 
L 196.744288 320.4 
L 196.744288 176.324428 
L 194.031599 176.324428 
z
" clip-path="url(#p884e398b12)" style="fill: #1f77b4"/>
   </g>
   <g id="patch_33">
    <path d="M 196.744288 320.4 
L 199.456976 320.4 
L 199.456976 166.173948 
L 196.744288 166.173948 
z
" clip-path="url(#p884e398b12)" style="fill: #1f77b4"/>
   </g>
   <g id="patch_34">
    <path d="M 199.456976 320.4 
L 202.169665 320.4 
L 202.169665 161.186211 
L 199.456976 161.186211 
z
" clip-path="url(#p884e398b12)" style="fill: #1f77b4"/>
   </g>
   <g id="patch_35">
    <path d="M 202.169665 320.4 
L 204.882353 320.4 
L 204.882353 159.392377 
L 202.169665 159.392377 
z
" clip-path="url(#p884e398b12)" style="fill: #1f77b4"/>
   </g>
   <g id="patch_36">
    <path d="M 204.882353 320.4 
L 207.595041 320.4 
L 207.595041 156.373484 
L 204.882353 156.373484 
z
" clip-path="url(#p884e398b12)" style="fill: #1f77b4"/>
   </g>
   <g id="patch_37">
    <path d="M 207.595041 320.4 
L 210.30773 320.4 
L 210.30773 152.479549 
L 207.595041 152.479549 
z
" clip-path="url(#p884e398b12)" style="fill: #1f77b4"/>
   </g>
   <g id="patch_38">
    <path d="M 210.30773 320.4 
L 213.020418 320.4 
L 213.020418 150.510706 
L 210.30773 150.510706 
z
" clip-path="url(#p884e398b12)" style="fill: #1f77b4"/>
   </g>
   <g id="patch_39">
    <path d="M 213.020418 320.4 
L 215.733106 320.4 
L 215.733106 155.279682 
L 213.020418 155.279682 
z
" clip-path="url(#p884e398b12)" style="fill: #1f77b4"/>
   </g>
   <g id="patch_40">
    <path d="M 215.733106 320.4 
L 218.445795 320.4 
L 218.445795 153.442095 
L 215.733106 153.442095 
z
" clip-path="url(#p884e398b12)" style="fill: #1f77b4"/>
   </g>
   <g id="patch_41">
    <path d="M 218.445795 320.4 
L 221.158483 320.4 
L 221.158483 145.74173 
L 218.445795 145.74173 
z
" clip-path="url(#p884e398b12)" style="fill: #1f77b4"/>
   </g>
   <g id="patch_42">
    <path d="M 221.158483 320.4 
L 223.871172 320.4 
L 223.871172 145.347962 
L 221.158483 145.347962 
z
" clip-path="url(#p884e398b12)" style="fill: #1f77b4"/>
   </g>
   <g id="patch_43">
    <path d="M 223.871172 320.4 
L 226.58386 320.4 
L 226.58386 135.372489 
L 223.871172 135.372489 
z
" clip-path="url(#p884e398b12)" style="fill: #1f77b4"/>
   </g>
   <g id="patch_44">
    <path d="M 226.58386 320.4 
L 229.296548 320.4 
L 229.296548 129.290951 
L 226.58386 129.290951 
z
" clip-path="url(#p884e398b12)" style="fill: #1f77b4"/>
   </g>
   <g id="patch_45">
    <path d="M 229.296548 320.4 
L 232.009237 320.4 
L 232.009237 129.159695 
L 229.296548 129.159695 
z
" clip-path="url(#p884e398b12)" style="fill: #1f77b4"/>
   </g>
   <g id="patch_46">
    <path d="M 232.009237 320.4 
L 234.721925 320.4 
L 234.721925 115.290288 
L 232.009237 115.290288 
z
" clip-path="url(#p884e398b12)" style="fill: #1f77b4"/>
   </g>
   <g id="patch_47">
    <path d="M 234.721925 320.4 
L 237.434614 320.4 
L 237.434614 115.33404 
L 234.721925 115.33404 
z
" clip-path="url(#p884e398b12)" style="fill: #1f77b4"/>
   </g>
   <g id="patch_48">
    <path d="M 237.434614 320.4 
L 240.147302 320.4 
L 240.147302 105.796089 
L 237.434614 105.796089 
z
" clip-path="url(#p884e398b12)" style="fill: #1f77b4"/>
   </g>
   <g id="patch_49">
    <path d="M 240.147302 320.4 
L 242.85999 320.4 
L 242.85999 99.758303 
L 240.147302 99.758303 
z
" clip-path="url(#p884e398b12)" style="fill: #1f77b4"/>
   </g>
   <g id="patch_50">
    <path d="M 242.85999 320.4 
L 245.572679 320.4 
L 245.572679 95.776864 
L 242.85999 95.776864 
z
" clip-path="url(#p884e398b12)" style="fill: #1f77b4"/>
   </g>
   <g id="patch_51">
    <path d="M 245.572679 320.4 
L 248.285367 320.4 
L 248.285367 93.501757 
L 245.572679 93.501757 
z
" clip-path="url(#p884e398b12)" style="fill: #1f77b4"/>
   </g>
   <g id="patch_52">
    <path d="M 248.285367 320.4 
L 250.998055 320.4 
L 250.998055 89.695326 
L 248.285367 89.695326 
z
" clip-path="url(#p884e398b12)" style="fill: #1f77b4"/>
   </g>
   <g id="patch_53">
    <path d="M 250.998055 320.4 
L 253.710744 320.4 
L 253.710744 81.994962 
L 250.998055 81.994962 
z
" clip-path="url(#p884e398b12)" style="fill: #1f77b4"/>
   </g>
   <g id="patch_54">
    <path d="M 253.710744 320.4 
L 256.423432 320.4 
L 256.423432 76.132184 
L 253.710744 76.132184 
z
" clip-path="url(#p884e398b12)" style="fill: #1f77b4"/>
   </g>
   <g id="patch_55">
    <path d="M 256.423432 320.4 
L 259.136121 320.4 
L 259.136121 78.801061 
L 256.423432 78.801061 
z
" clip-path="url(#p884e398b12)" style="fill: #1f77b4"/>
   </g>
   <g id="patch_56">
    <path d="M 259.136121 320.4 
L 261.848809 320.4 
L 261.848809 68.563076 
L 259.136121 68.563076 
z
" clip-path="url(#p884e398b12)" style="fill: #1f77b4"/>
   </g>
   <g id="patch_57">
    <path d="M 261.848809 320.4 
L 264.561497 320.4 
L 264.561497 71.056944 
L 261.848809 71.056944 
z
" clip-path="url(#p884e398b12)" style="fill: #1f77b4"/>
   </g>
   <g id="patch_58">
    <path d="M 264.561497 320.4 
L 267.274186 320.4 
L 267.274186 68.65058 
L 264.561497 68.65058 
z
" clip-path="url(#p884e398b12)" style="fill: #1f77b4"/>
   </g>
   <g id="patch_59">
    <path d="M 267.274186 320.4 
L 269.986874 320.4 
L 269.986874 58.981372 
L 267.274186 58.981372 
z
" clip-path="url(#p884e398b12)" style="fill: #1f77b4"/>
   </g>
   <g id="patch_60">
    <path d="M 269.986874 320.4 
L 272.699562 320.4 
L 272.699562 65.369175 
L 269.986874 65.369175 
z
" clip-path="url(#p884e398b12)" style="fill: #1f77b4"/>
   </g>
   <g id="patch_61">
    <path d="M 272.699562 320.4 
L 275.412251 320.4 
L 275.412251 59.98767 
L 272.699562 59.98767 
z
" clip-path="url(#p884e398b12)" style="fill: #1f77b4"/>
   </g>
   <g id="patch_62">
    <path d="M 275.412251 320.4 
L 278.124939 320.4 
L 278.124939 56.4 
L 275.412251 56.4 
z
" clip-path="url(#p884e398b12)" style="fill: #1f77b4"/>
   </g>
   <g id="patch_63">
    <path d="M 278.124939 320.4 
L 280.837628 320.4 
L 280.837628 63.006563 
L 278.124939 63.006563 
z
" clip-path="url(#p884e398b12)" style="fill: #1f77b4"/>
   </g>
   <g id="patch_64">
    <path d="M 280.837628 320.4 
L 283.550316 320.4 
L 283.550316 65.500431 
L 280.837628 65.500431 
z
" clip-path="url(#p884e398b12)" style="fill: #1f77b4"/>
   </g>
   <g id="patch_65">
    <path d="M 283.550316 320.4 
L 286.263004 320.4 
L 286.263004 64.625389 
L 283.550316 64.625389 
z
" clip-path="url(#p884e398b12)" style="fill: #1f77b4"/>
   </g>
   <g id="patch_66">
    <path d="M 286.263004 320.4 
L 288.975693 320.4 
L 288.975693 66.462976 
L 286.263004 66.462976 
z
" clip-path="url(#p884e398b12)" style="fill: #1f77b4"/>
   </g>
   <g id="patch_67">
    <path d="M 288.975693 320.4 
L 291.688381 320.4 
L 291.688381 67.556778 
L 288.975693 67.556778 
z
" clip-path="url(#p884e398b12)" style="fill: #1f77b4"/>
   </g>
   <g id="patch_68">
    <path d="M 291.688381 320.4 
L 294.40107 320.4 
L 294.40107 68.256811 
L 291.688381 68.256811 
z
" clip-path="url(#p884e398b12)" style="fill: #1f77b4"/>
   </g>
   <g id="patch_69">
    <path d="M 294.40107 320.4 
L 297.113758 320.4 
L 297.113758 70.313159 
L 294.40107 70.313159 
z
" clip-path="url(#p884e398b12)" style="fill: #1f77b4"/>
   </g>
   <g id="patch_70">
    <path d="M 297.113758 320.4 
L 299.826446 320.4 
L 299.826446 69.306861 
L 297.113758 69.306861 
z
" clip-path="url(#p884e398b12)" style="fill: #1f77b4"/>
   </g>
   <g id="patch_71">
    <path d="M 299.826446 320.4 
L 302.539135 320.4 
L 302.539135 75.432151 
L 299.826446 75.432151 
z
" clip-path="url(#p884e398b12)" style="fill: #1f77b4"/>
   </g>
   <g id="patch_72">
    <path d="M 302.539135 320.4 
L 305.251823 320.4 
L 305.251823 81.469937 
L 302.539135 81.469937 
z
" clip-path="url(#p884e398b12)" style="fill: #1f77b4"/>
   </g>
   <g id="patch_73">
    <path d="M 305.251823 320.4 
L 307.964511 320.4 
L 307.964511 83.307524 
L 305.251823 83.307524 
z
" clip-path="url(#p884e398b12)" style="fill: #1f77b4"/>
   </g>
   <g id="patch_74">
    <path d="M 307.964511 320.4 
L 310.6772 320.4 
L 310.6772 87.201458 
L 307.964511 87.201458 
z
" clip-path="url(#p884e398b12)" style="fill: #1f77b4"/>
   </g>
   <g id="patch_75">
    <path d="M 310.6772 320.4 
L 313.389888 320.4 
L 313.389888 86.195161 
L 310.6772 86.195161 
z
" clip-path="url(#p884e398b12)" style="fill: #1f77b4"/>
   </g>
   <g id="patch_76">
    <path d="M 313.389888 320.4 
L 316.102577 320.4 
L 316.102577 92.320451 
L 313.389888 92.320451 
z
" clip-path="url(#p884e398b12)" style="fill: #1f77b4"/>
   </g>
   <g id="patch_77">
    <path d="M 316.102577 320.4 
L 318.815265 320.4 
L 318.815265 87.113954 
L 316.102577 87.113954 
z
" clip-path="url(#p884e398b12)" style="fill: #1f77b4"/>
   </g>
   <g id="patch_78">
    <path d="M 318.815265 320.4 
L 321.527953 320.4 
L 321.527953 94.508054 
L 318.815265 94.508054 
z
" clip-path="url(#p884e398b12)" style="fill: #1f77b4"/>
   </g>
   <g id="patch_79">
    <path d="M 321.527953 320.4 
L 324.240642 320.4 
L 324.240642 91.489161 
L 321.527953 91.489161 
z
" clip-path="url(#p884e398b12)" style="fill: #1f77b4"/>
   </g>
   <g id="patch_80">
    <path d="M 324.240642 320.4 
L 326.95333 320.4 
L 326.95333 105.839841 
L 324.240642 105.839841 
z
" clip-path="url(#p884e398b12)" style="fill: #1f77b4"/>
   </g>
   <g id="patch_81">
    <path d="M 326.95333 320.4 
L 329.666018 320.4 
L 329.666018 102.952204 
L 326.95333 102.952204 
z
" clip-path="url(#p884e398b12)" style="fill: #1f77b4"/>
   </g>
   <g id="patch_82">
    <path d="M 329.666018 320.4 
L 332.378707 320.4 
L 332.378707 108.508717 
L 329.666018 108.508717 
z
" clip-path="url(#p884e398b12)" style="fill: #1f77b4"/>
   </g>
   <g id="patch_83">
    <path d="M 332.378707 320.4 
L 335.091395 320.4 
L 335.091395 107.327411 
L 332.378707 107.327411 
z
" clip-path="url(#p884e398b12)" style="fill: #1f77b4"/>
   </g>
   <g id="patch_84">
    <path d="M 335.091395 320.4 
L 337.804084 320.4 
L 337.804084 110.171296 
L 335.091395 110.171296 
z
" clip-path="url(#p884e398b12)" style="fill: #1f77b4"/>
   </g>
   <g id="patch_85">
    <path d="M 337.804084 320.4 
L 340.516772 320.4 
L 340.516772 119.446735 
L 337.804084 119.446735 
z
" clip-path="url(#p884e398b12)" style="fill: #1f77b4"/>
   </g>
   <g id="patch_86">
    <path d="M 340.516772 320.4 
L 343.22946 320.4 
L 343.22946 125.790786 
L 340.516772 125.790786 
z
" clip-path="url(#p884e398b12)" style="fill: #1f77b4"/>
   </g>
   <g id="patch_87">
    <path d="M 343.22946 320.4 
L 345.942149 320.4 
L 345.942149 131.391051 
L 343.22946 131.391051 
z
" clip-path="url(#p884e398b12)" style="fill: #1f77b4"/>
   </g>
   <g id="patch_88">
    <path d="M 345.942149 320.4 
L 348.654837 320.4 
L 348.654837 126.534571 
L 345.942149 126.534571 
z
" clip-path="url(#p884e398b12)" style="fill: #1f77b4"/>
   </g>
   <g id="patch_89">
    <path d="M 348.654837 320.4 
L 351.367526 320.4 
L 351.367526 135.766258 
L 348.654837 135.766258 
z
" clip-path="url(#p884e398b12)" style="fill: #1f77b4"/>
   </g>
   <g id="patch_90">
    <path d="M 351.367526 320.4 
L 354.080214 320.4 
L 354.080214 142.197812 
L 351.367526 142.197812 
z
" clip-path="url(#p884e398b12)" style="fill: #1f77b4"/>
   </g>
   <g id="patch_91">
    <path d="M 354.080214 320.4 
L 356.792902 320.4 
L 356.792902 145.960491 
L 354.080214 145.960491 
z
" clip-path="url(#p884e398b12)" style="fill: #1f77b4"/>
   </g>
   <g id="patch_92">
    <path d="M 356.792902 320.4 
L 359.505591 320.4 
L 359.505591 152.042029 
L 356.792902 152.042029 
z
" clip-path="url(#p884e398b12)" style="fill: #1f77b4"/>
   </g>
   <g id="patch_93">
    <path d="M 359.505591 320.4 
L 362.218279 320.4 
L 362.218279 155.804707 
L 359.505591 155.804707 
z
" clip-path="url(#p884e398b12)" style="fill: #1f77b4"/>
   </g>
   <g id="patch_94">
    <path d="M 362.218279 320.4 
L 364.930967 320.4 
L 364.930967 158.604839 
L 362.218279 158.604839 
z
" clip-path="url(#p884e398b12)" style="fill: #1f77b4"/>
   </g>
   <g id="patch_95">
    <path d="M 364.930967 320.4 
L 367.643656 320.4 
L 367.643656 170.02413 
L 364.930967 170.02413 
z
" clip-path="url(#p884e398b12)" style="fill: #1f77b4"/>
   </g>
   <g id="patch_96">
    <path d="M 367.643656 320.4 
L 370.356344 320.4 
L 370.356344 172.34299 
L 367.643656 172.34299 
z
" clip-path="url(#p884e398b12)" style="fill: #1f77b4"/>
   </g>
   <g id="patch_97">
    <path d="M 370.356344 320.4 
L 373.069033 320.4 
L 373.069033 174.618097 
L 370.356344 174.618097 
z
" clip-path="url(#p884e398b12)" style="fill: #1f77b4"/>
   </g>
   <g id="patch_98">
    <path d="M 373.069033 320.4 
L 375.781721 320.4 
L 375.781721 177.593238 
L 373.069033 177.593238 
z
" clip-path="url(#p884e398b12)" style="fill: #1f77b4"/>
   </g>
   <g id="patch_99">
    <path d="M 375.781721 320.4 
L 378.494409 320.4 
L 378.494409 181.399669 
L 375.781721 181.399669 
z
" clip-path="url(#p884e398b12)" style="fill: #1f77b4"/>
   </g>
   <g id="patch_100">
    <path d="M 378.494409 320.4 
L 381.207098 320.4 
L 381.207098 187.962479 
L 378.494409 187.962479 
z
" clip-path="url(#p884e398b12)" style="fill: #1f77b4"/>
   </g>
   <g id="patch_101">
    <path d="M 381.207098 320.4 
L 383.919786 320.4 
L 383.919786 194.000265 
L 381.207098 194.000265 
z
" clip-path="url(#p884e398b12)" style="fill: #1f77b4"/>
   </g>
   <g id="patch_102">
    <path d="M 383.919786 320.4 
L 386.632474 320.4 
L 386.632474 200.256811 
L 383.919786 200.256811 
z
" clip-path="url(#p884e398b12)" style="fill: #1f77b4"/>
   </g>
   <g id="patch_103">
    <path d="M 386.632474 320.4 
L 389.345163 320.4 
L 389.345163 201.306861 
L 386.632474 201.306861 
z
" clip-path="url(#p884e398b12)" style="fill: #1f77b4"/>
   </g>
   <g id="patch_104">
    <path d="M 389.345163 320.4 
L 392.057851 320.4 
L 392.057851 211.063573 
L 389.345163 211.063573 
z
" clip-path="url(#p884e398b12)" style="fill: #1f77b4"/>
   </g>
   <g id="patch_105">
    <path d="M 392.057851 320.4 
L 394.77054 320.4 
L 394.77054 211.894862 
L 392.057851 211.894862 
z
" clip-path="url(#p884e398b12)" style="fill: #1f77b4"/>
   </g>
   <g id="patch_106">
    <path d="M 394.77054 320.4 
L 397.483228 320.4 
L 397.483228 219.420219 
L 394.77054 219.420219 
z
" clip-path="url(#p884e398b12)" style="fill: #1f77b4"/>
   </g>
   <g id="patch_107">
    <path d="M 397.483228 320.4 
L 400.195916 320.4 
L 400.195916 222.220351 
L 397.483228 222.220351 
z
" clip-path="url(#p884e398b12)" style="fill: #1f77b4"/>
   </g>
   <g id="patch_108">
    <path d="M 400.195916 320.4 
L 402.908605 320.4 
L 402.908605 224.93298 
L 400.195916 224.93298 
z
" clip-path="url(#p884e398b12)" style="fill: #1f77b4"/>
   </g>
   <g id="patch_109">
    <path d="M 402.908605 320.4 
L 405.621293 320.4 
L 405.621293 231.714551 
L 402.908605 231.714551 
z
" clip-path="url(#p884e398b12)" style="fill: #1f77b4"/>
   </g>
   <g id="patch_110">
    <path d="M 405.621293 320.4 
L 408.333982 320.4 
L 408.333982 237.052304 
L 405.621293 237.052304 
z
" clip-path="url(#p884e398b12)" style="fill: #1f77b4"/>
   </g>
   <g id="patch_111">
    <path d="M 408.333982 320.4 
L 411.04667 320.4 
L 411.04667 243.615114 
L 408.333982 243.615114 
z
" clip-path="url(#p884e398b12)" style="fill: #1f77b4"/>
   </g>
   <g id="patch_112">
    <path d="M 411.04667 320.4 
L 413.759358 320.4 
L 413.759358 246.590255 
L 411.04667 246.590255 
z
" clip-path="url(#p884e398b12)" style="fill: #1f77b4"/>
   </g>
   <g id="patch_113">
    <path d="M 413.759358 320.4 
L 416.472047 320.4 
L 416.472047 249.871661 
L 413.759358 249.871661 
z
" clip-path="url(#p884e398b12)" style="fill: #1f77b4"/>
   </g>
   <g id="patch_114">
    <path d="M 416.472047 320.4 
L 419.184735 320.4 
L 419.184735 258.753331 
L 416.472047 258.753331 
z
" clip-path="url(#p884e398b12)" style="fill: #1f77b4"/>
   </g>
   <g id="patch_115">
    <path d="M 419.184735 320.4 
L 421.897423 320.4 
L 421.897423 258.272058 
L 419.184735 258.272058 
z
" clip-path="url(#p884e398b12)" style="fill: #1f77b4"/>
   </g>
   <g id="patch_116">
    <path d="M 421.897423 320.4 
L 424.610112 320.4 
L 424.610112 264.922373 
L 421.897423 264.922373 
z
" clip-path="url(#p884e398b12)" style="fill: #1f77b4"/>
   </g>
   <g id="patch_117">
    <path d="M 424.610112 320.4 
L 427.3228 320.4 
L 427.3228 266.847464 
L 424.610112 266.847464 
z
" clip-path="url(#p884e398b12)" style="fill: #1f77b4"/>
   </g>
   <g id="patch_118">
    <path d="M 427.3228 320.4 
L 430.035489 320.4 
L 430.035489 274.679085 
L 427.3228 274.679085 
z
" clip-path="url(#p884e398b12)" style="fill: #1f77b4"/>
   </g>
   <g id="patch_119">
    <path d="M 430.035489 320.4 
L 432.748177 320.4 
L 432.748177 275.160358 
L 430.035489 275.160358 
z
" clip-path="url(#p884e398b12)" style="fill: #1f77b4"/>
   </g>
   <g id="patch_120">
    <path d="M 432.748177 320.4 
L 435.460865 320.4 
L 435.460865 278.660524 
L 432.748177 278.660524 
z
" clip-path="url(#p884e398b12)" style="fill: #1f77b4"/>
   </g>
   <g id="patch_121">
    <path d="M 435.460865 320.4 
L 438.173554 320.4 
L 438.173554 280.804375 
L 435.460865 280.804375 
z
" clip-path="url(#p884e398b12)" style="fill: #1f77b4"/>
   </g>
   <g id="patch_122">
    <path d="M 438.173554 320.4 
L 440.886242 320.4 
L 440.886242 282.816971 
L 438.173554 282.816971 
z
" clip-path="url(#p884e398b12)" style="fill: #1f77b4"/>
   </g>
   <g id="patch_123">
    <path d="M 440.886242 320.4 
L 443.59893 320.4 
L 443.59893 285.879616 
L 440.886242 285.879616 
z
" clip-path="url(#p884e398b12)" style="fill: #1f77b4"/>
   </g>
   <g id="patch_124">
    <path d="M 443.59893 320.4 
L 446.311619 320.4 
L 446.311619 289.99231 
L 443.59893 289.99231 
z
" clip-path="url(#p884e398b12)" style="fill: #1f77b4"/>
   </g>
   <g id="patch_125">
    <path d="M 446.311619 320.4 
L 449.024307 320.4 
L 449.024307 292.836195 
L 446.311619 292.836195 
z
" clip-path="url(#p884e398b12)" style="fill: #1f77b4"/>
   </g>
   <g id="patch_126">
    <path d="M 449.024307 320.4 
L 451.736996 320.4 
L 451.736996 294.498774 
L 449.024307 294.498774 
z
" clip-path="url(#p884e398b12)" style="fill: #1f77b4"/>
   </g>
   <g id="patch_127">
    <path d="M 451.736996 320.4 
L 454.449684 320.4 
L 454.449684 298.392708 
L 451.736996 298.392708 
z
" clip-path="url(#p884e398b12)" style="fill: #1f77b4"/>
   </g>
   <g id="patch_128">
    <path d="M 454.449684 320.4 
L 457.162372 320.4 
L 457.162372 299.70527 
L 454.449684 299.70527 
z
" clip-path="url(#p884e398b12)" style="fill: #1f77b4"/>
   </g>
   <g id="patch_129">
    <path d="M 457.162372 320.4 
L 459.875061 320.4 
L 459.875061 302.374147 
L 457.162372 302.374147 
z
" clip-path="url(#p884e398b12)" style="fill: #1f77b4"/>
   </g>
   <g id="patch_130">
    <path d="M 459.875061 320.4 
L 462.587749 320.4 
L 462.587749 302.24289 
L 459.875061 302.24289 
z
" clip-path="url(#p884e398b12)" style="fill: #1f77b4"/>
   </g>
   <g id="patch_131">
    <path d="M 462.587749 320.4 
L 465.300438 320.4 
L 465.300438 305.918064 
L 462.587749 305.918064 
z
" clip-path="url(#p884e398b12)" style="fill: #1f77b4"/>
   </g>
   <g id="patch_132">
    <path d="M 465.300438 320.4 
L 468.013126 320.4 
L 468.013126 306.180577 
L 465.300438 306.180577 
z
" clip-path="url(#p884e398b12)" style="fill: #1f77b4"/>
   </g>
   <g id="patch_133">
    <path d="M 468.013126 320.4 
L 470.725814 320.4 
L 470.725814 308.761949 
L 468.013126 308.761949 
z
" clip-path="url(#p884e398b12)" style="fill: #1f77b4"/>
   </g>
   <g id="patch_134">
    <path d="M 470.725814 320.4 
L 473.438503 320.4 
L 473.438503 309.899503 
L 470.725814 309.899503 
z
" clip-path="url(#p884e398b12)" style="fill: #1f77b4"/>
   </g>
   <g id="patch_135">
    <path d="M 473.438503 320.4 
L 476.151191 320.4 
L 476.151191 311.080809 
L 473.438503 311.080809 
z
" clip-path="url(#p884e398b12)" style="fill: #1f77b4"/>
   </g>
   <g id="patch_136">
    <path d="M 476.151191 320.4 
L 478.863879 320.4 
L 478.863879 311.649586 
L 476.151191 311.649586 
z
" clip-path="url(#p884e398b12)" style="fill: #1f77b4"/>
   </g>
   <g id="patch_137">
    <path d="M 478.863879 320.4 
L 481.576568 320.4 
L 481.576568 312.830892 
L 478.863879 312.830892 
z
" clip-path="url(#p884e398b12)" style="fill: #1f77b4"/>
   </g>
   <g id="patch_138">
    <path d="M 481.576568 320.4 
L 484.289256 320.4 
L 484.289256 313.880941 
L 481.576568 313.880941 
z
" clip-path="url(#p884e398b12)" style="fill: #1f77b4"/>
   </g>
   <g id="patch_139">
    <path d="M 484.289256 320.4 
L 487.001945 320.4 
L 487.001945 314.143454 
L 484.289256 314.143454 
z
" clip-path="url(#p884e398b12)" style="fill: #1f77b4"/>
   </g>
   <g id="patch_140">
    <path d="M 487.001945 320.4 
L 489.714633 320.4 
L 489.714633 314.755983 
L 487.001945 314.755983 
z
" clip-path="url(#p884e398b12)" style="fill: #1f77b4"/>
   </g>
   <g id="patch_141">
    <path d="M 489.714633 320.4 
L 492.427321 320.4 
L 492.427321 316.112297 
L 489.714633 316.112297 
z
" clip-path="url(#p884e398b12)" style="fill: #1f77b4"/>
   </g>
   <g id="patch_142">
    <path d="M 492.427321 320.4 
L 495.14001 320.4 
L 495.14001 316.549818 
L 492.427321 316.549818 
z
" clip-path="url(#p884e398b12)" style="fill: #1f77b4"/>
   </g>
   <g id="patch_143">
    <path d="M 495.14001 320.4 
L 497.852698 320.4 
L 497.852698 317.206099 
L 495.14001 317.206099 
z
" clip-path="url(#p884e398b12)" style="fill: #1f77b4"/>
   </g>
   <g id="patch_144">
    <path d="M 497.852698 320.4 
L 500.565386 320.4 
L 500.565386 316.987338 
L 497.852698 316.987338 
z
" clip-path="url(#p884e398b12)" style="fill: #1f77b4"/>
   </g>
   <g id="patch_145">
    <path d="M 500.565386 320.4 
L 503.278075 320.4 
L 503.278075 317.381107 
L 500.565386 317.381107 
z
" clip-path="url(#p884e398b12)" style="fill: #1f77b4"/>
   </g>
   <g id="patch_146">
    <path d="M 503.278075 320.4 
L 505.990763 320.4 
L 505.990763 317.949884 
L 503.278075 317.949884 
z
" clip-path="url(#p884e398b12)" style="fill: #1f77b4"/>
   </g>
   <g id="patch_147">
    <path d="M 505.990763 320.4 
L 508.703452 320.4 
L 508.703452 317.774876 
L 505.990763 317.774876 
z
" clip-path="url(#p884e398b12)" style="fill: #1f77b4"/>
   </g>
   <g id="patch_148">
    <path d="M 508.703452 320.4 
L 511.41614 320.4 
L 511.41614 318.474909 
L 508.703452 318.474909 
z
" clip-path="url(#p884e398b12)" style="fill: #1f77b4"/>
   </g>
   <g id="patch_149">
    <path d="M 511.41614 320.4 
L 514.128828 320.4 
L 514.128828 319.393702 
L 511.41614 319.393702 
z
" clip-path="url(#p884e398b12)" style="fill: #1f77b4"/>
   </g>
   <g id="patch_150">
    <path d="M 514.128828 320.4 
L 516.841517 320.4 
L 516.841517 319.043686 
L 514.128828 319.043686 
z
" clip-path="url(#p884e398b12)" style="fill: #1f77b4"/>
   </g>
   <g id="patch_151">
    <path d="M 516.841517 320.4 
L 519.554205 320.4 
L 519.554205 319.393702 
L 516.841517 319.393702 
z
" clip-path="url(#p884e398b12)" style="fill: #1f77b4"/>
   </g>
   <g id="patch_152">
    <path d="M 519.554205 320.4 
L 522.266894 320.4 
L 522.266894 319.524959 
L 519.554205 319.524959 
z
" clip-path="url(#p884e398b12)" style="fill: #1f77b4"/>
   </g>
   <g id="patch_153">
    <path d="M 522.266894 320.4 
L 524.979582 320.4 
L 524.979582 319.34995 
L 522.266894 319.34995 
z
" clip-path="url(#p884e398b12)" style="fill: #1f77b4"/>
   </g>
   <g id="patch_154">
    <path d="M 524.979582 320.4 
L 527.69227 320.4 
L 527.69227 319.787471 
L 524.979582 319.787471 
z
" clip-path="url(#p884e398b12)" style="fill: #1f77b4"/>
   </g>
   <g id="patch_155">
    <path d="M 527.69227 320.4 
L 530.404959 320.4 
L 530.404959 319.524959 
L 527.69227 319.524959 
z
" clip-path="url(#p884e398b12)" style="fill: #1f77b4"/>
   </g>
   <g id="patch_156">
    <path d="M 530.404959 320.4 
L 533.117647 320.4 
L 533.117647 320.049983 
L 530.404959 320.049983 
z
" clip-path="url(#p884e398b12)" style="fill: #1f77b4"/>
   </g>
   <g id="patch_157">
    <path d="M 533.117647 320.4 
L 535.830335 320.4 
L 535.830335 319.962479 
L 533.117647 319.962479 
z
" clip-path="url(#p884e398b12)" style="fill: #1f77b4"/>
   </g>
   <g id="patch_158">
    <path d="M 535.830335 320.4 
L 538.543024 320.4 
L 538.543024 319.612463 
L 535.830335 319.612463 
z
" clip-path="url(#p884e398b12)" style="fill: #1f77b4"/>
   </g>
   <g id="patch_159">
    <path d="M 538.543024 320.4 
L 541.255712 320.4 
L 541.255712 320.093735 
L 538.543024 320.093735 
z
" clip-path="url(#p884e398b12)" style="fill: #1f77b4"/>
   </g>
   <g id="patch_160">
    <path d="M 541.255712 320.4 
L 543.968401 320.4 
L 543.968401 320.049983 
L 541.255712 320.049983 
z
" clip-path="url(#p884e398b12)" style="fill: #1f77b4"/>
   </g>
   <g id="patch_161">
    <path d="M 543.968401 320.4 
L 546.681089 320.4 
L 546.681089 320.18124 
L 543.968401 320.18124 
z
" clip-path="url(#p884e398b12)" style="fill: #1f77b4"/>
   </g>
   <g id="patch_162">
    <path d="M 546.681089 320.4 
L 549.393777 320.4 
L 549.393777 320.137488 
L 546.681089 320.137488 
z
" clip-path="url(#p884e398b12)" style="fill: #1f77b4"/>
   </g>
   <g id="patch_163">
    <path d="M 549.393777 320.4 
L 552.106466 320.4 
L 552.106466 320.224992 
L 549.393777 320.224992 
z
" clip-path="url(#p884e398b12)" style="fill: #1f77b4"/>
   </g>
   <g id="patch_164">
    <path d="M 552.106466 320.4 
L 554.819154 320.4 
L 554.819154 320.356248 
L 552.106466 320.356248 
z
" clip-path="url(#p884e398b12)" style="fill: #1f77b4"/>
   </g>
   <g id="patch_165">
    <path d="M 554.819154 320.4 
L 557.531842 320.4 
L 557.531842 320.224992 
L 554.819154 320.224992 
z
" clip-path="url(#p884e398b12)" style="fill: #1f77b4"/>
   </g>
   <g id="patch_166">
    <path d="M 557.531842 320.4 
L 560.244531 320.4 
L 560.244531 320.312496 
L 557.531842 320.312496 
z
" clip-path="url(#p884e398b12)" style="fill: #1f77b4"/>
   </g>
   <g id="patch_167">
    <path d="M 560.244531 320.4 
L 562.957219 320.4 
L 562.957219 320.312496 
L 560.244531 320.312496 
z
" clip-path="url(#p884e398b12)" style="fill: #1f77b4"/>
   </g>
   <g id="patch_168">
    <path d="M 562.957219 320.4 
L 565.669908 320.4 
L 565.669908 320.312496 
L 562.957219 320.312496 
z
" clip-path="url(#p884e398b12)" style="fill: #1f77b4"/>
   </g>
   <g id="patch_169">
    <path d="M 565.669908 320.4 
L 568.382596 320.4 
L 568.382596 320.268744 
L 565.669908 320.268744 
z
" clip-path="url(#p884e398b12)" style="fill: #1f77b4"/>
   </g>
   <g id="patch_170">
    <path d="M 568.382596 320.4 
L 571.095284 320.4 
L 571.095284 320.268744 
L 568.382596 320.268744 
z
" clip-path="url(#p884e398b12)" style="fill: #1f77b4"/>
   </g>
   <g id="patch_171">
    <path d="M 571.095284 320.4 
L 573.807973 320.4 
L 573.807973 320.268744 
L 571.095284 320.268744 
z
" clip-path="url(#p884e398b12)" style="fill: #1f77b4"/>
   </g>
   <g id="patch_172">
    <path d="M 573.807973 320.4 
L 576.520661 320.4 
L 576.520661 320.312496 
L 573.807973 320.312496 
z
" clip-path="url(#p884e398b12)" style="fill: #1f77b4"/>
   </g>
   <g id="patch_173">
    <path d="M 576.520661 320.4 
L 579.23335 320.4 
L 579.23335 320.312496 
L 576.520661 320.312496 
z
" clip-path="url(#p884e398b12)" style="fill: #1f77b4"/>
   </g>
   <g id="patch_174">
    <path d="M 579.23335 320.4 
L 581.946038 320.4 
L 581.946038 320.4 
L 579.23335 320.4 
z
" clip-path="url(#p884e398b12)" style="fill: #1f77b4"/>
   </g>
   <g id="patch_175">
    <path d="M 581.946038 320.4 
L 584.658726 320.4 
L 584.658726 320.356248 
L 581.946038 320.356248 
z
" clip-path="url(#p884e398b12)" style="fill: #1f77b4"/>
   </g>
   <g id="patch_176">
    <path d="M 584.658726 320.4 
L 587.371415 320.4 
L 587.371415 320.4 
L 584.658726 320.4 
z
" clip-path="url(#p884e398b12)" style="fill: #1f77b4"/>
   </g>
   <g id="patch_177">
    <path d="M 587.371415 320.4 
L 590.084103 320.4 
L 590.084103 320.356248 
L 587.371415 320.356248 
z
" clip-path="url(#p884e398b12)" style="fill: #1f77b4"/>
   </g>
   <g id="patch_178">
    <path d="M 590.084103 320.4 
L 592.796791 320.4 
L 592.796791 320.356248 
L 590.084103 320.356248 
z
" clip-path="url(#p884e398b12)" style="fill: #1f77b4"/>
   </g>
   <g id="patch_179">
    <path d="M 592.796791 320.4 
L 595.50948 320.4 
L 595.50948 320.4 
L 592.796791 320.4 
z
" clip-path="url(#p884e398b12)" style="fill: #1f77b4"/>
   </g>
   <g id="patch_180">
    <path d="M 595.50948 320.4 
L 598.222168 320.4 
L 598.222168 320.4 
L 595.50948 320.4 
z
" clip-path="url(#p884e398b12)" style="fill: #1f77b4"/>
   </g>
   <g id="patch_181">
    <path d="M 598.222168 320.4 
L 600.934857 320.4 
L 600.934857 320.4 
L 598.222168 320.4 
z
" clip-path="url(#p884e398b12)" style="fill: #1f77b4"/>
   </g>
   <g id="patch_182">
    <path d="M 600.934857 320.4 
L 603.647545 320.4 
L 603.647545 320.4 
L 600.934857 320.4 
z
" clip-path="url(#p884e398b12)" style="fill: #1f77b4"/>
   </g>
   <g id="patch_183">
    <path d="M 603.647545 320.4 
L 606.360233 320.4 
L 606.360233 320.356248 
L 603.647545 320.356248 
z
" clip-path="url(#p884e398b12)" style="fill: #1f77b4"/>
   </g>
   <g id="patch_184">
    <path d="M 606.360233 320.4 
L 609.072922 320.4 
L 609.072922 320.4 
L 606.360233 320.4 
z
" clip-path="url(#p884e398b12)" style="fill: #1f77b4"/>
   </g>
   <g id="patch_185">
    <path d="M 609.072922 320.4 
L 611.78561 320.4 
L 611.78561 320.4 
L 609.072922 320.4 
z
" clip-path="url(#p884e398b12)" style="fill: #1f77b4"/>
   </g>
   <g id="patch_186">
    <path d="M 611.78561 320.4 
L 614.498298 320.4 
L 614.498298 320.4 
L 611.78561 320.4 
z
" clip-path="url(#p884e398b12)" style="fill: #1f77b4"/>
   </g>
   <g id="patch_187">
    <path d="M 614.498298 320.4 
L 617.210987 320.4 
L 617.210987 320.4 
L 614.498298 320.4 
z
" clip-path="url(#p884e398b12)" style="fill: #1f77b4"/>
   </g>
   <g id="patch_188">
    <path d="M 617.210987 320.4 
L 619.923675 320.4 
L 619.923675 320.356248 
L 617.210987 320.356248 
z
" clip-path="url(#p884e398b12)" style="fill: #1f77b4"/>
   </g>
   <g id="patch_189">
    <path d="M 619.923675 320.4 
L 622.636364 320.4 
L 622.636364 320.356248 
L 619.923675 320.356248 
z
" clip-path="url(#p884e398b12)" style="fill: #1f77b4"/>
   </g>
   <g id="matplotlib.axis_1">
    <g id="xtick_1">
     <g id="line2d_1">
      <defs>
       <path id="mb46ff540db" d="M 0 0 
L 0 3.5 
" style="stroke: #000000; stroke-width: 0.8"/>
      </defs>
      <g>
       <use xlink:href="#mb46ff540db" x="114.921635" y="320.4" style="stroke: #000000; stroke-width: 0.8"/>
      </g>
     </g>
     <g id="text_1">
      <!-- 0.0 -->
      <g transform="translate(106.970073 334.998438) scale(0.1 -0.1)">
       <defs>
        <path id="DejaVuSans-30" d="M 2034 4250 
Q 1547 4250 1301 3770 
Q 1056 3291 1056 2328 
Q 1056 1369 1301 889 
Q 1547 409 2034 409 
Q 2525 409 2770 889 
Q 3016 1369 3016 2328 
Q 3016 3291 2770 3770 
Q 2525 4250 2034 4250 
z
M 2034 4750 
Q 2819 4750 3233 4129 
Q 3647 3509 3647 2328 
Q 3647 1150 3233 529 
Q 2819 -91 2034 -91 
Q 1250 -91 836 529 
Q 422 1150 422 2328 
Q 422 3509 836 4129 
Q 1250 4750 2034 4750 
z
" transform="scale(0.015625)"/>
        <path id="DejaVuSans-2e" d="M 684 794 
L 1344 794 
L 1344 0 
L 684 0 
L 684 794 
z
" transform="scale(0.015625)"/>
       </defs>
       <use xlink:href="#DejaVuSans-30"/>
       <use xlink:href="#DejaVuSans-2e" x="63.623047"/>
       <use xlink:href="#DejaVuSans-30" x="95.410156"/>
      </g>
     </g>
    </g>
    <g id="xtick_2">
     <g id="line2d_2">
      <g>
       <use xlink:href="#mb46ff540db" x="203.523299" y="320.4" style="stroke: #000000; stroke-width: 0.8"/>
      </g>
     </g>
     <g id="text_2">
      <!-- 0.5 -->
      <g transform="translate(195.571737 334.998438) scale(0.1 -0.1)">
       <defs>
        <path id="DejaVuSans-35" d="M 691 4666 
L 3169 4666 
L 3169 4134 
L 1269 4134 
L 1269 2991 
Q 1406 3038 1543 3061 
Q 1681 3084 1819 3084 
Q 2600 3084 3056 2656 
Q 3513 2228 3513 1497 
Q 3513 744 3044 326 
Q 2575 -91 1722 -91 
Q 1428 -91 1123 -41 
Q 819 9 494 109 
L 494 744 
Q 775 591 1075 516 
Q 1375 441 1709 441 
Q 2250 441 2565 725 
Q 2881 1009 2881 1497 
Q 2881 1984 2565 2268 
Q 2250 2553 1709 2553 
Q 1456 2553 1204 2497 
Q 953 2441 691 2322 
L 691 4666 
z
" transform="scale(0.015625)"/>
       </defs>
       <use xlink:href="#DejaVuSans-30"/>
       <use xlink:href="#DejaVuSans-2e" x="63.623047"/>
       <use xlink:href="#DejaVuSans-35" x="95.410156"/>
      </g>
     </g>
    </g>
    <g id="xtick_3">
     <g id="line2d_3">
      <g>
       <use xlink:href="#mb46ff540db" x="292.124963" y="320.4" style="stroke: #000000; stroke-width: 0.8"/>
      </g>
     </g>
     <g id="text_3">
      <!-- 1.0 -->
      <g transform="translate(284.173401 334.998438) scale(0.1 -0.1)">
       <defs>
        <path id="DejaVuSans-31" d="M 794 531 
L 1825 531 
L 1825 4091 
L 703 3866 
L 703 4441 
L 1819 4666 
L 2450 4666 
L 2450 531 
L 3481 531 
L 3481 0 
L 794 0 
L 794 531 
z
" transform="scale(0.015625)"/>
       </defs>
       <use xlink:href="#DejaVuSans-31"/>
       <use xlink:href="#DejaVuSans-2e" x="63.623047"/>
       <use xlink:href="#DejaVuSans-30" x="95.410156"/>
      </g>
     </g>
    </g>
    <g id="xtick_4">
     <g id="line2d_4">
      <g>
       <use xlink:href="#mb46ff540db" x="380.726627" y="320.4" style="stroke: #000000; stroke-width: 0.8"/>
      </g>
     </g>
     <g id="text_4">
      <!-- 1.5 -->
      <g transform="translate(372.775064 334.998438) scale(0.1 -0.1)">
       <use xlink:href="#DejaVuSans-31"/>
       <use xlink:href="#DejaVuSans-2e" x="63.623047"/>
       <use xlink:href="#DejaVuSans-35" x="95.410156"/>
      </g>
     </g>
    </g>
    <g id="xtick_5">
     <g id="line2d_5">
      <g>
       <use xlink:href="#mb46ff540db" x="469.328291" y="320.4" style="stroke: #000000; stroke-width: 0.8"/>
      </g>
     </g>
     <g id="text_5">
      <!-- 2.0 -->
      <g transform="translate(461.376728 334.998438) scale(0.1 -0.1)">
       <defs>
        <path id="DejaVuSans-32" d="M 1228 531 
L 3431 531 
L 3431 0 
L 469 0 
L 469 531 
Q 828 903 1448 1529 
Q 2069 2156 2228 2338 
Q 2531 2678 2651 2914 
Q 2772 3150 2772 3378 
Q 2772 3750 2511 3984 
Q 2250 4219 1831 4219 
Q 1534 4219 1204 4116 
Q 875 4013 500 3803 
L 500 4441 
Q 881 4594 1212 4672 
Q 1544 4750 1819 4750 
Q 2544 4750 2975 4387 
Q 3406 4025 3406 3419 
Q 3406 3131 3298 2873 
Q 3191 2616 2906 2266 
Q 2828 2175 2409 1742 
Q 1991 1309 1228 531 
z
" transform="scale(0.015625)"/>
       </defs>
       <use xlink:href="#DejaVuSans-32"/>
       <use xlink:href="#DejaVuSans-2e" x="63.623047"/>
       <use xlink:href="#DejaVuSans-30" x="95.410156"/>
      </g>
     </g>
    </g>
    <g id="xtick_6">
     <g id="line2d_6">
      <g>
       <use xlink:href="#mb46ff540db" x="557.929955" y="320.4" style="stroke: #000000; stroke-width: 0.8"/>
      </g>
     </g>
     <g id="text_6">
      <!-- 2.5 -->
      <g transform="translate(549.978392 334.998438) scale(0.1 -0.1)">
       <use xlink:href="#DejaVuSans-32"/>
       <use xlink:href="#DejaVuSans-2e" x="63.623047"/>
       <use xlink:href="#DejaVuSans-35" x="95.410156"/>
      </g>
     </g>
    </g>
    <g id="xtick_7">
     <g id="line2d_7">
      <g>
       <use xlink:href="#mb46ff540db" x="646.531619" y="320.4" style="stroke: #000000; stroke-width: 0.8"/>
      </g>
     </g>
     <g id="text_7">
      <!-- 3.0 -->
      <g transform="translate(638.580056 334.998438) scale(0.1 -0.1)">
       <defs>
        <path id="DejaVuSans-33" d="M 2597 2516 
Q 3050 2419 3304 2112 
Q 3559 1806 3559 1356 
Q 3559 666 3084 287 
Q 2609 -91 1734 -91 
Q 1441 -91 1130 -33 
Q 819 25 488 141 
L 488 750 
Q 750 597 1062 519 
Q 1375 441 1716 441 
Q 2309 441 2620 675 
Q 2931 909 2931 1356 
Q 2931 1769 2642 2001 
Q 2353 2234 1838 2234 
L 1294 2234 
L 1294 2753 
L 1863 2753 
Q 2328 2753 2575 2939 
Q 2822 3125 2822 3475 
Q 2822 3834 2567 4026 
Q 2313 4219 1838 4219 
Q 1578 4219 1281 4162 
Q 984 4106 628 3988 
L 628 4550 
Q 988 4650 1302 4700 
Q 1616 4750 1894 4750 
Q 2613 4750 3031 4423 
Q 3450 4097 3450 3541 
Q 3450 3153 3228 2886 
Q 3006 2619 2597 2516 
z
" transform="scale(0.015625)"/>
       </defs>
       <use xlink:href="#DejaVuSans-33"/>
       <use xlink:href="#DejaVuSans-2e" x="63.623047"/>
       <use xlink:href="#DejaVuSans-30" x="95.410156"/>
      </g>
     </g>
    </g>
    <g id="text_8">
     <!-- singlet-triplet value -->
     <g transform="translate(290.89125 353.235625) scale(0.16 -0.16)">
      <defs>
       <path id="DejaVuSans-73" d="M 2834 3397 
L 2834 2853 
Q 2591 2978 2328 3040 
Q 2066 3103 1784 3103 
Q 1356 3103 1142 2972 
Q 928 2841 928 2578 
Q 928 2378 1081 2264 
Q 1234 2150 1697 2047 
L 1894 2003 
Q 2506 1872 2764 1633 
Q 3022 1394 3022 966 
Q 3022 478 2636 193 
Q 2250 -91 1575 -91 
Q 1294 -91 989 -36 
Q 684 19 347 128 
L 347 722 
Q 666 556 975 473 
Q 1284 391 1588 391 
Q 1994 391 2212 530 
Q 2431 669 2431 922 
Q 2431 1156 2273 1281 
Q 2116 1406 1581 1522 
L 1381 1569 
Q 847 1681 609 1914 
Q 372 2147 372 2553 
Q 372 3047 722 3315 
Q 1072 3584 1716 3584 
Q 2034 3584 2315 3537 
Q 2597 3491 2834 3397 
z
" transform="scale(0.015625)"/>
       <path id="DejaVuSans-69" d="M 603 3500 
L 1178 3500 
L 1178 0 
L 603 0 
L 603 3500 
z
M 603 4863 
L 1178 4863 
L 1178 4134 
L 603 4134 
L 603 4863 
z
" transform="scale(0.015625)"/>
       <path id="DejaVuSans-6e" d="M 3513 2113 
L 3513 0 
L 2938 0 
L 2938 2094 
Q 2938 2591 2744 2837 
Q 2550 3084 2163 3084 
Q 1697 3084 1428 2787 
Q 1159 2491 1159 1978 
L 1159 0 
L 581 0 
L 581 3500 
L 1159 3500 
L 1159 2956 
Q 1366 3272 1645 3428 
Q 1925 3584 2291 3584 
Q 2894 3584 3203 3211 
Q 3513 2838 3513 2113 
z
" transform="scale(0.015625)"/>
       <path id="DejaVuSans-67" d="M 2906 1791 
Q 2906 2416 2648 2759 
Q 2391 3103 1925 3103 
Q 1463 3103 1205 2759 
Q 947 2416 947 1791 
Q 947 1169 1205 825 
Q 1463 481 1925 481 
Q 2391 481 2648 825 
Q 2906 1169 2906 1791 
z
M 3481 434 
Q 3481 -459 3084 -895 
Q 2688 -1331 1869 -1331 
Q 1566 -1331 1297 -1286 
Q 1028 -1241 775 -1147 
L 775 -588 
Q 1028 -725 1275 -790 
Q 1522 -856 1778 -856 
Q 2344 -856 2625 -561 
Q 2906 -266 2906 331 
L 2906 616 
Q 2728 306 2450 153 
Q 2172 0 1784 0 
Q 1141 0 747 490 
Q 353 981 353 1791 
Q 353 2603 747 3093 
Q 1141 3584 1784 3584 
Q 2172 3584 2450 3431 
Q 2728 3278 2906 2969 
L 2906 3500 
L 3481 3500 
L 3481 434 
z
" transform="scale(0.015625)"/>
       <path id="DejaVuSans-6c" d="M 603 4863 
L 1178 4863 
L 1178 0 
L 603 0 
L 603 4863 
z
" transform="scale(0.015625)"/>
       <path id="DejaVuSans-65" d="M 3597 1894 
L 3597 1613 
L 953 1613 
Q 991 1019 1311 708 
Q 1631 397 2203 397 
Q 2534 397 2845 478 
Q 3156 559 3463 722 
L 3463 178 
Q 3153 47 2828 -22 
Q 2503 -91 2169 -91 
Q 1331 -91 842 396 
Q 353 884 353 1716 
Q 353 2575 817 3079 
Q 1281 3584 2069 3584 
Q 2775 3584 3186 3129 
Q 3597 2675 3597 1894 
z
M 3022 2063 
Q 3016 2534 2758 2815 
Q 2500 3097 2075 3097 
Q 1594 3097 1305 2825 
Q 1016 2553 972 2059 
L 3022 2063 
z
" transform="scale(0.015625)"/>
       <path id="DejaVuSans-74" d="M 1172 4494 
L 1172 3500 
L 2356 3500 
L 2356 3053 
L 1172 3053 
L 1172 1153 
Q 1172 725 1289 603 
Q 1406 481 1766 481 
L 2356 481 
L 2356 0 
L 1766 0 
Q 1100 0 847 248 
Q 594 497 594 1153 
L 594 3053 
L 172 3053 
L 172 3500 
L 594 3500 
L 594 4494 
L 1172 4494 
z
" transform="scale(0.015625)"/>
       <path id="DejaVuSans-2d" d="M 313 2009 
L 1997 2009 
L 1997 1497 
L 313 1497 
L 313 2009 
z
" transform="scale(0.015625)"/>
       <path id="DejaVuSans-72" d="M 2631 2963 
Q 2534 3019 2420 3045 
Q 2306 3072 2169 3072 
Q 1681 3072 1420 2755 
Q 1159 2438 1159 1844 
L 1159 0 
L 581 0 
L 581 3500 
L 1159 3500 
L 1159 2956 
Q 1341 3275 1631 3429 
Q 1922 3584 2338 3584 
Q 2397 3584 2469 3576 
Q 2541 3569 2628 3553 
L 2631 2963 
z
" transform="scale(0.015625)"/>
       <path id="DejaVuSans-70" d="M 1159 525 
L 1159 -1331 
L 581 -1331 
L 581 3500 
L 1159 3500 
L 1159 2969 
Q 1341 3281 1617 3432 
Q 1894 3584 2278 3584 
Q 2916 3584 3314 3078 
Q 3713 2572 3713 1747 
Q 3713 922 3314 415 
Q 2916 -91 2278 -91 
Q 1894 -91 1617 61 
Q 1341 213 1159 525 
z
M 3116 1747 
Q 3116 2381 2855 2742 
Q 2594 3103 2138 3103 
Q 1681 3103 1420 2742 
Q 1159 2381 1159 1747 
Q 1159 1113 1420 752 
Q 1681 391 2138 391 
Q 2594 391 2855 752 
Q 3116 1113 3116 1747 
z
" transform="scale(0.015625)"/>
       <path id="DejaVuSans-20" transform="scale(0.015625)"/>
       <path id="DejaVuSans-76" d="M 191 3500 
L 800 3500 
L 1894 563 
L 2988 3500 
L 3597 3500 
L 2284 0 
L 1503 0 
L 191 3500 
z
" transform="scale(0.015625)"/>
       <path id="DejaVuSans-61" d="M 2194 1759 
Q 1497 1759 1228 1600 
Q 959 1441 959 1056 
Q 959 750 1161 570 
Q 1363 391 1709 391 
Q 2188 391 2477 730 
Q 2766 1069 2766 1631 
L 2766 1759 
L 2194 1759 
z
M 3341 1997 
L 3341 0 
L 2766 0 
L 2766 531 
Q 2569 213 2275 61 
Q 1981 -91 1556 -91 
Q 1019 -91 701 211 
Q 384 513 384 1019 
Q 384 1609 779 1909 
Q 1175 2209 1959 2209 
L 2766 2209 
L 2766 2266 
Q 2766 2663 2505 2880 
Q 2244 3097 1772 3097 
Q 1472 3097 1187 3025 
Q 903 2953 641 2809 
L 641 3341 
Q 956 3463 1253 3523 
Q 1550 3584 1831 3584 
Q 2591 3584 2966 3190 
Q 3341 2797 3341 1997 
z
" transform="scale(0.015625)"/>
       <path id="DejaVuSans-75" d="M 544 1381 
L 544 3500 
L 1119 3500 
L 1119 1403 
Q 1119 906 1312 657 
Q 1506 409 1894 409 
Q 2359 409 2629 706 
Q 2900 1003 2900 1516 
L 2900 3500 
L 3475 3500 
L 3475 0 
L 2900 0 
L 2900 538 
Q 2691 219 2414 64 
Q 2138 -91 1772 -91 
Q 1169 -91 856 284 
Q 544 659 544 1381 
z
M 1991 3584 
L 1991 3584 
z
" transform="scale(0.015625)"/>
      </defs>
      <use xlink:href="#DejaVuSans-73"/>
      <use xlink:href="#DejaVuSans-69" x="52.099609"/>
      <use xlink:href="#DejaVuSans-6e" x="79.882812"/>
      <use xlink:href="#DejaVuSans-67" x="143.261719"/>
      <use xlink:href="#DejaVuSans-6c" x="206.738281"/>
      <use xlink:href="#DejaVuSans-65" x="234.521484"/>
      <use xlink:href="#DejaVuSans-74" x="296.044922"/>
      <use xlink:href="#DejaVuSans-2d" x="335.253906"/>
      <use xlink:href="#DejaVuSans-74" x="371.337891"/>
      <use xlink:href="#DejaVuSans-72" x="410.546875"/>
      <use xlink:href="#DejaVuSans-69" x="451.660156"/>
      <use xlink:href="#DejaVuSans-70" x="479.443359"/>
      <use xlink:href="#DejaVuSans-6c" x="542.919922"/>
      <use xlink:href="#DejaVuSans-65" x="570.703125"/>
      <use xlink:href="#DejaVuSans-74" x="632.226562"/>
      <use xlink:href="#DejaVuSans-20" x="671.435547"/>
      <use xlink:href="#DejaVuSans-76" x="703.222656"/>
      <use xlink:href="#DejaVuSans-61" x="762.402344"/>
      <use xlink:href="#DejaVuSans-6c" x="823.681641"/>
      <use xlink:href="#DejaVuSans-75" x="851.464844"/>
      <use xlink:href="#DejaVuSans-65" x="914.84375"/>
     </g>
    </g>
   </g>
   <g id="matplotlib.axis_2">
    <g id="ytick_1">
     <g id="line2d_8">
      <defs>
       <path id="m5f2bf5a0d4" d="M 0 0 
L -3.5 0 
" style="stroke: #000000; stroke-width: 0.8"/>
      </defs>
      <g>
       <use xlink:href="#m5f2bf5a0d4" x="90" y="320.4" style="stroke: #000000; stroke-width: 0.8"/>
      </g>
     </g>
     <g id="text_9">
      <!-- 0.0 -->
      <g transform="translate(67.096875 324.199219) scale(0.1 -0.1)">
       <use xlink:href="#DejaVuSans-30"/>
       <use xlink:href="#DejaVuSans-2e" x="63.623047"/>
       <use xlink:href="#DejaVuSans-30" x="95.410156"/>
      </g>
     </g>
    </g>
    <g id="ytick_2">
     <g id="line2d_9">
      <g>
       <use xlink:href="#m5f2bf5a0d4" x="90" y="266.289563" style="stroke: #000000; stroke-width: 0.8"/>
      </g>
     </g>
     <g id="text_10">
      <!-- 0.2 -->
      <g transform="translate(67.096875 270.088782) scale(0.1 -0.1)">
       <use xlink:href="#DejaVuSans-30"/>
       <use xlink:href="#DejaVuSans-2e" x="63.623047"/>
       <use xlink:href="#DejaVuSans-32" x="95.410156"/>
      </g>
     </g>
    </g>
    <g id="ytick_3">
     <g id="line2d_10">
      <g>
       <use xlink:href="#m5f2bf5a0d4" x="90" y="212.179127" style="stroke: #000000; stroke-width: 0.8"/>
      </g>
     </g>
     <g id="text_11">
      <!-- 0.4 -->
      <g transform="translate(67.096875 215.978346) scale(0.1 -0.1)">
       <defs>
        <path id="DejaVuSans-34" d="M 2419 4116 
L 825 1625 
L 2419 1625 
L 2419 4116 
z
M 2253 4666 
L 3047 4666 
L 3047 1625 
L 3713 1625 
L 3713 1100 
L 3047 1100 
L 3047 0 
L 2419 0 
L 2419 1100 
L 313 1100 
L 313 1709 
L 2253 4666 
z
" transform="scale(0.015625)"/>
       </defs>
       <use xlink:href="#DejaVuSans-30"/>
       <use xlink:href="#DejaVuSans-2e" x="63.623047"/>
       <use xlink:href="#DejaVuSans-34" x="95.410156"/>
      </g>
     </g>
    </g>
    <g id="ytick_4">
     <g id="line2d_11">
      <g>
       <use xlink:href="#m5f2bf5a0d4" x="90" y="158.06869" style="stroke: #000000; stroke-width: 0.8"/>
      </g>
     </g>
     <g id="text_12">
      <!-- 0.6 -->
      <g transform="translate(67.096875 161.867909) scale(0.1 -0.1)">
       <defs>
        <path id="DejaVuSans-36" d="M 2113 2584 
Q 1688 2584 1439 2293 
Q 1191 2003 1191 1497 
Q 1191 994 1439 701 
Q 1688 409 2113 409 
Q 2538 409 2786 701 
Q 3034 994 3034 1497 
Q 3034 2003 2786 2293 
Q 2538 2584 2113 2584 
z
M 3366 4563 
L 3366 3988 
Q 3128 4100 2886 4159 
Q 2644 4219 2406 4219 
Q 1781 4219 1451 3797 
Q 1122 3375 1075 2522 
Q 1259 2794 1537 2939 
Q 1816 3084 2150 3084 
Q 2853 3084 3261 2657 
Q 3669 2231 3669 1497 
Q 3669 778 3244 343 
Q 2819 -91 2113 -91 
Q 1303 -91 875 529 
Q 447 1150 447 2328 
Q 447 3434 972 4092 
Q 1497 4750 2381 4750 
Q 2619 4750 2861 4703 
Q 3103 4656 3366 4563 
z
" transform="scale(0.015625)"/>
       </defs>
       <use xlink:href="#DejaVuSans-30"/>
       <use xlink:href="#DejaVuSans-2e" x="63.623047"/>
       <use xlink:href="#DejaVuSans-36" x="95.410156"/>
      </g>
     </g>
    </g>
    <g id="ytick_5">
     <g id="line2d_12">
      <g>
       <use xlink:href="#m5f2bf5a0d4" x="90" y="103.958254" style="stroke: #000000; stroke-width: 0.8"/>
      </g>
     </g>
     <g id="text_13">
      <!-- 0.8 -->
      <g transform="translate(67.096875 107.757473) scale(0.1 -0.1)">
       <defs>
        <path id="DejaVuSans-38" d="M 2034 2216 
Q 1584 2216 1326 1975 
Q 1069 1734 1069 1313 
Q 1069 891 1326 650 
Q 1584 409 2034 409 
Q 2484 409 2743 651 
Q 3003 894 3003 1313 
Q 3003 1734 2745 1975 
Q 2488 2216 2034 2216 
z
M 1403 2484 
Q 997 2584 770 2862 
Q 544 3141 544 3541 
Q 544 4100 942 4425 
Q 1341 4750 2034 4750 
Q 2731 4750 3128 4425 
Q 3525 4100 3525 3541 
Q 3525 3141 3298 2862 
Q 3072 2584 2669 2484 
Q 3125 2378 3379 2068 
Q 3634 1759 3634 1313 
Q 3634 634 3220 271 
Q 2806 -91 2034 -91 
Q 1263 -91 848 271 
Q 434 634 434 1313 
Q 434 1759 690 2068 
Q 947 2378 1403 2484 
z
M 1172 3481 
Q 1172 3119 1398 2916 
Q 1625 2713 2034 2713 
Q 2441 2713 2670 2916 
Q 2900 3119 2900 3481 
Q 2900 3844 2670 4047 
Q 2441 4250 2034 4250 
Q 1625 4250 1398 4047 
Q 1172 3844 1172 3481 
z
" transform="scale(0.015625)"/>
       </defs>
       <use xlink:href="#DejaVuSans-30"/>
       <use xlink:href="#DejaVuSans-2e" x="63.623047"/>
       <use xlink:href="#DejaVuSans-38" x="95.410156"/>
      </g>
     </g>
    </g>
    <g id="ytick_6">
     <g id="line2d_13">
      <g>
       <use xlink:href="#m5f2bf5a0d4" x="90" y="49.847817" style="stroke: #000000; stroke-width: 0.8"/>
      </g>
     </g>
     <g id="text_14">
      <!-- 1.0 -->
      <g transform="translate(67.096875 53.647036) scale(0.1 -0.1)">
       <use xlink:href="#DejaVuSans-31"/>
       <use xlink:href="#DejaVuSans-2e" x="63.623047"/>
       <use xlink:href="#DejaVuSans-30" x="95.410156"/>
      </g>
     </g>
    </g>
    <g id="text_15">
     <!-- Relative frequency -->
     <g transform="translate(59.769375 256.7275) rotate(-90) scale(0.16 -0.16)">
      <defs>
       <path id="DejaVuSans-52" d="M 2841 2188 
Q 3044 2119 3236 1894 
Q 3428 1669 3622 1275 
L 4263 0 
L 3584 0 
L 2988 1197 
Q 2756 1666 2539 1819 
Q 2322 1972 1947 1972 
L 1259 1972 
L 1259 0 
L 628 0 
L 628 4666 
L 2053 4666 
Q 2853 4666 3247 4331 
Q 3641 3997 3641 3322 
Q 3641 2881 3436 2590 
Q 3231 2300 2841 2188 
z
M 1259 4147 
L 1259 2491 
L 2053 2491 
Q 2509 2491 2742 2702 
Q 2975 2913 2975 3322 
Q 2975 3731 2742 3939 
Q 2509 4147 2053 4147 
L 1259 4147 
z
" transform="scale(0.015625)"/>
       <path id="DejaVuSans-66" d="M 2375 4863 
L 2375 4384 
L 1825 4384 
Q 1516 4384 1395 4259 
Q 1275 4134 1275 3809 
L 1275 3500 
L 2222 3500 
L 2222 3053 
L 1275 3053 
L 1275 0 
L 697 0 
L 697 3053 
L 147 3053 
L 147 3500 
L 697 3500 
L 697 3744 
Q 697 4328 969 4595 
Q 1241 4863 1831 4863 
L 2375 4863 
z
" transform="scale(0.015625)"/>
       <path id="DejaVuSans-71" d="M 947 1747 
Q 947 1113 1208 752 
Q 1469 391 1925 391 
Q 2381 391 2643 752 
Q 2906 1113 2906 1747 
Q 2906 2381 2643 2742 
Q 2381 3103 1925 3103 
Q 1469 3103 1208 2742 
Q 947 2381 947 1747 
z
M 2906 525 
Q 2725 213 2448 61 
Q 2172 -91 1784 -91 
Q 1150 -91 751 415 
Q 353 922 353 1747 
Q 353 2572 751 3078 
Q 1150 3584 1784 3584 
Q 2172 3584 2448 3432 
Q 2725 3281 2906 2969 
L 2906 3500 
L 3481 3500 
L 3481 -1331 
L 2906 -1331 
L 2906 525 
z
" transform="scale(0.015625)"/>
       <path id="DejaVuSans-63" d="M 3122 3366 
L 3122 2828 
Q 2878 2963 2633 3030 
Q 2388 3097 2138 3097 
Q 1578 3097 1268 2742 
Q 959 2388 959 1747 
Q 959 1106 1268 751 
Q 1578 397 2138 397 
Q 2388 397 2633 464 
Q 2878 531 3122 666 
L 3122 134 
Q 2881 22 2623 -34 
Q 2366 -91 2075 -91 
Q 1284 -91 818 406 
Q 353 903 353 1747 
Q 353 2603 823 3093 
Q 1294 3584 2113 3584 
Q 2378 3584 2631 3529 
Q 2884 3475 3122 3366 
z
" transform="scale(0.015625)"/>
       <path id="DejaVuSans-79" d="M 2059 -325 
Q 1816 -950 1584 -1140 
Q 1353 -1331 966 -1331 
L 506 -1331 
L 506 -850 
L 844 -850 
Q 1081 -850 1212 -737 
Q 1344 -625 1503 -206 
L 1606 56 
L 191 3500 
L 800 3500 
L 1894 763 
L 2988 3500 
L 3597 3500 
L 2059 -325 
z
" transform="scale(0.015625)"/>
      </defs>
      <use xlink:href="#DejaVuSans-52"/>
      <use xlink:href="#DejaVuSans-65" x="64.982422"/>
      <use xlink:href="#DejaVuSans-6c" x="126.505859"/>
      <use xlink:href="#DejaVuSans-61" x="154.289062"/>
      <use xlink:href="#DejaVuSans-74" x="215.568359"/>
      <use xlink:href="#DejaVuSans-69" x="254.777344"/>
      <use xlink:href="#DejaVuSans-76" x="282.560547"/>
      <use xlink:href="#DejaVuSans-65" x="341.740234"/>
      <use xlink:href="#DejaVuSans-20" x="403.263672"/>
      <use xlink:href="#DejaVuSans-66" x="435.050781"/>
      <use xlink:href="#DejaVuSans-72" x="470.255859"/>
      <use xlink:href="#DejaVuSans-65" x="509.119141"/>
      <use xlink:href="#DejaVuSans-71" x="570.642578"/>
      <use xlink:href="#DejaVuSans-75" x="634.119141"/>
      <use xlink:href="#DejaVuSans-65" x="697.498047"/>
      <use xlink:href="#DejaVuSans-6e" x="759.021484"/>
      <use xlink:href="#DejaVuSans-63" x="822.400391"/>
      <use xlink:href="#DejaVuSans-79" x="877.380859"/>
     </g>
    </g>
   </g>
   <g id="line2d_14">
    <path d="M 216.047761 320.4 
L 216.047761 56.4 
" clip-path="url(#p884e398b12)" style="fill: none; stroke: #ff0000; stroke-width: 1.6; stroke-linecap: square"/>
   </g>
   <g id="patch_190">
    <path d="M 90 320.4 
L 90 43.2 
" style="fill: none; stroke: #000000; stroke-width: 0.8; stroke-linejoin: miter; stroke-linecap: square"/>
   </g>
   <g id="patch_191">
    <path d="M 648 320.4 
L 648 43.2 
" style="fill: none; stroke: #000000; stroke-width: 0.8; stroke-linejoin: miter; stroke-linecap: square"/>
   </g>
   <g id="patch_192">
    <path d="M 90 320.4 
L 648 320.4 
" style="fill: none; stroke: #000000; stroke-width: 0.8; stroke-linejoin: miter; stroke-linecap: square"/>
   </g>
   <g id="patch_193">
    <path d="M 90 43.2 
L 648 43.2 
" style="fill: none; stroke: #000000; stroke-width: 0.8; stroke-linejoin: miter; stroke-linecap: square"/>
   </g>
   <g id="text_16">
    <!-- $\mu_1 = 1.003$ -->
    <g transform="translate(480.6 77.325562) scale(0.19 -0.19)">
     <defs>
      <path id="DejaVuSans-Oblique-3bc" d="M -84 -1331 
L 856 3500 
L 1434 3500 
L 1009 1322 
Q 997 1256 987 1175 
Q 978 1094 978 1013 
Q 978 722 1161 565 
Q 1344 409 1684 409 
Q 2147 409 2431 671 
Q 2716 934 2816 1459 
L 3213 3500 
L 3788 3500 
L 3266 809 
Q 3253 750 3248 706 
Q 3244 663 3244 628 
Q 3244 531 3283 486 
Q 3322 441 3406 441 
Q 3438 441 3492 456 
Q 3547 472 3647 513 
L 3559 50 
Q 3422 -19 3297 -55 
Q 3172 -91 3053 -91 
Q 2847 -91 2730 40 
Q 2613 172 2613 403 
Q 2438 153 2195 31 
Q 1953 -91 1625 -91 
Q 1334 -91 1117 43 
Q 900 178 831 397 
L 494 -1331 
L -84 -1331 
z
" transform="scale(0.015625)"/>
      <path id="DejaVuSans-3d" d="M 678 2906 
L 4684 2906 
L 4684 2381 
L 678 2381 
L 678 2906 
z
M 678 1631 
L 4684 1631 
L 4684 1100 
L 678 1100 
L 678 1631 
z
" transform="scale(0.015625)"/>
     </defs>
     <use xlink:href="#DejaVuSans-Oblique-3bc" transform="translate(0 0.78125)"/>
     <use xlink:href="#DejaVuSans-31" transform="translate(63.623047 -15.625) scale(0.7)"/>
     <use xlink:href="#DejaVuSans-3d" transform="translate(130.375977 0.78125)"/>
     <use xlink:href="#DejaVuSans-31" transform="translate(233.647461 0.78125)"/>
     <use xlink:href="#DejaVuSans-2e" transform="translate(297.270508 0.78125)"/>
     <use xlink:href="#DejaVuSans-30" transform="translate(329.057617 0.78125)"/>
     <use xlink:href="#DejaVuSans-30" transform="translate(392.680664 0.78125)"/>
     <use xlink:href="#DejaVuSans-33" transform="translate(456.303711 0.78125)"/>
    </g>
    <!-- $\sigma_1 = 0.396$ -->
    <g transform="translate(480.6 98.64) scale(0.19 -0.19)">
     <defs>
      <path id="DejaVuSans-Oblique-3c3" d="M 2219 3044 
Q 1744 3044 1422 2700 
Q 1081 2341 969 1747 
Q 844 1119 1044 756 
Q 1241 397 1706 397 
Q 2166 397 2503 759 
Q 2844 1122 2966 1747 
Q 3075 2319 2881 2700 
Q 2700 3044 2219 3044 
z
M 2309 3503 
L 4219 3500 
L 4106 2925 
L 3463 2925 
Q 3706 2438 3575 1747 
Q 3406 888 2884 400 
Q 2359 -91 1609 -91 
Q 856 -91 525 400 
Q 194 888 363 1747 
Q 528 2609 1050 3097 
Q 1484 3503 2309 3503 
z
" transform="scale(0.015625)"/>
      <path id="DejaVuSans-39" d="M 703 97 
L 703 672 
Q 941 559 1184 500 
Q 1428 441 1663 441 
Q 2288 441 2617 861 
Q 2947 1281 2994 2138 
Q 2813 1869 2534 1725 
Q 2256 1581 1919 1581 
Q 1219 1581 811 2004 
Q 403 2428 403 3163 
Q 403 3881 828 4315 
Q 1253 4750 1959 4750 
Q 2769 4750 3195 4129 
Q 3622 3509 3622 2328 
Q 3622 1225 3098 567 
Q 2575 -91 1691 -91 
Q 1453 -91 1209 -44 
Q 966 3 703 97 
z
M 1959 2075 
Q 2384 2075 2632 2365 
Q 2881 2656 2881 3163 
Q 2881 3666 2632 3958 
Q 2384 4250 1959 4250 
Q 1534 4250 1286 3958 
Q 1038 3666 1038 3163 
Q 1038 2656 1286 2365 
Q 1534 2075 1959 2075 
z
" transform="scale(0.015625)"/>
     </defs>
     <use xlink:href="#DejaVuSans-Oblique-3c3" transform="translate(0 0.78125)"/>
     <use xlink:href="#DejaVuSans-31" transform="translate(63.378906 -15.625) scale(0.7)"/>
     <use xlink:href="#DejaVuSans-3d" transform="translate(130.131836 0.78125)"/>
     <use xlink:href="#DejaVuSans-30" transform="translate(233.40332 0.78125)"/>
     <use xlink:href="#DejaVuSans-2e" transform="translate(297.026367 0.78125)"/>
     <use xlink:href="#DejaVuSans-33" transform="translate(328.813477 0.78125)"/>
     <use xlink:href="#DejaVuSans-39" transform="translate(392.436523 0.78125)"/>
     <use xlink:href="#DejaVuSans-36" transform="translate(456.05957 0.78125)"/>
    </g>
   </g>
   <g id="text_17">
    <!-- Distribution of singlet-triplet value -->
    <g transform="translate(214.228125 37.2) scale(0.18 -0.18)">
     <defs>
      <path id="DejaVuSans-44" d="M 1259 4147 
L 1259 519 
L 2022 519 
Q 2988 519 3436 956 
Q 3884 1394 3884 2338 
Q 3884 3275 3436 3711 
Q 2988 4147 2022 4147 
L 1259 4147 
z
M 628 4666 
L 1925 4666 
Q 3281 4666 3915 4102 
Q 4550 3538 4550 2338 
Q 4550 1131 3912 565 
Q 3275 0 1925 0 
L 628 0 
L 628 4666 
z
" transform="scale(0.015625)"/>
      <path id="DejaVuSans-62" d="M 3116 1747 
Q 3116 2381 2855 2742 
Q 2594 3103 2138 3103 
Q 1681 3103 1420 2742 
Q 1159 2381 1159 1747 
Q 1159 1113 1420 752 
Q 1681 391 2138 391 
Q 2594 391 2855 752 
Q 3116 1113 3116 1747 
z
M 1159 2969 
Q 1341 3281 1617 3432 
Q 1894 3584 2278 3584 
Q 2916 3584 3314 3078 
Q 3713 2572 3713 1747 
Q 3713 922 3314 415 
Q 2916 -91 2278 -91 
Q 1894 -91 1617 61 
Q 1341 213 1159 525 
L 1159 0 
L 581 0 
L 581 4863 
L 1159 4863 
L 1159 2969 
z
" transform="scale(0.015625)"/>
      <path id="DejaVuSans-6f" d="M 1959 3097 
Q 1497 3097 1228 2736 
Q 959 2375 959 1747 
Q 959 1119 1226 758 
Q 1494 397 1959 397 
Q 2419 397 2687 759 
Q 2956 1122 2956 1747 
Q 2956 2369 2687 2733 
Q 2419 3097 1959 3097 
z
M 1959 3584 
Q 2709 3584 3137 3096 
Q 3566 2609 3566 1747 
Q 3566 888 3137 398 
Q 2709 -91 1959 -91 
Q 1206 -91 779 398 
Q 353 888 353 1747 
Q 353 2609 779 3096 
Q 1206 3584 1959 3584 
z
" transform="scale(0.015625)"/>
     </defs>
     <use xlink:href="#DejaVuSans-44"/>
     <use xlink:href="#DejaVuSans-69" x="77.001953"/>
     <use xlink:href="#DejaVuSans-73" x="104.785156"/>
     <use xlink:href="#DejaVuSans-74" x="156.884766"/>
     <use xlink:href="#DejaVuSans-72" x="196.09375"/>
     <use xlink:href="#DejaVuSans-69" x="237.207031"/>
     <use xlink:href="#DejaVuSans-62" x="264.990234"/>
     <use xlink:href="#DejaVuSans-75" x="328.466797"/>
     <use xlink:href="#DejaVuSans-74" x="391.845703"/>
     <use xlink:href="#DejaVuSans-69" x="431.054688"/>
     <use xlink:href="#DejaVuSans-6f" x="458.837891"/>
     <use xlink:href="#DejaVuSans-6e" x="520.019531"/>
     <use xlink:href="#DejaVuSans-20" x="583.398438"/>
     <use xlink:href="#DejaVuSans-6f" x="615.185547"/>
     <use xlink:href="#DejaVuSans-66" x="676.367188"/>
     <use xlink:href="#DejaVuSans-20" x="711.572266"/>
     <use xlink:href="#DejaVuSans-73" x="743.359375"/>
     <use xlink:href="#DejaVuSans-69" x="795.458984"/>
     <use xlink:href="#DejaVuSans-6e" x="823.242188"/>
     <use xlink:href="#DejaVuSans-67" x="886.621094"/>
     <use xlink:href="#DejaVuSans-6c" x="950.097656"/>
     <use xlink:href="#DejaVuSans-65" x="977.880859"/>
     <use xlink:href="#DejaVuSans-74" x="1039.404297"/>
     <use xlink:href="#DejaVuSans-2d" x="1078.613281"/>
     <use xlink:href="#DejaVuSans-74" x="1114.697266"/>
     <use xlink:href="#DejaVuSans-72" x="1153.90625"/>
     <use xlink:href="#DejaVuSans-69" x="1195.019531"/>
     <use xlink:href="#DejaVuSans-70" x="1222.802734"/>
     <use xlink:href="#DejaVuSans-6c" x="1286.279297"/>
     <use xlink:href="#DejaVuSans-65" x="1314.0625"/>
     <use xlink:href="#DejaVuSans-74" x="1375.585938"/>
     <use xlink:href="#DejaVuSans-20" x="1414.794922"/>
     <use xlink:href="#DejaVuSans-76" x="1446.582031"/>
     <use xlink:href="#DejaVuSans-61" x="1505.761719"/>
     <use xlink:href="#DejaVuSans-6c" x="1567.041016"/>
     <use xlink:href="#DejaVuSans-75" x="1594.824219"/>
     <use xlink:href="#DejaVuSans-65" x="1658.203125"/>
    </g>
   </g>
  </g>
 </g>
 <defs>
  <clipPath id="p884e398b12">
   <rect x="90" y="43.2" width="558" height="277.2"/>
  </clipPath>
 </defs>
</svg>
