<?xml version="1.0" encoding="utf-8" standalone="no"?>
<!DOCTYPE svg PUBLIC "-//W3C//DTD SVG 1.1//EN"
  "http://www.w3.org/Graphics/SVG/1.1/DTD/svg11.dtd">
<svg xmlns:xlink="http://www.w3.org/1999/xlink" width="460.8pt" height="345.6pt" viewBox="0 0 460.8 345.6" xmlns="http://www.w3.org/2000/svg" version="1.1">
 <metadata>
  <rdf:RDF xmlns:dc="http://purl.org/dc/elements/1.1/" xmlns:cc="http://creativecommons.org/ns#" xmlns:rdf="http://www.w3.org/1999/02/22-rdf-syntax-ns#">
   <cc:Work>
    <dc:type rdf:resource="http://purl.org/dc/dcmitype/StillImage"/>
    <dc:date>2024-06-27T11:15:09.203650</dc:date>
    <dc:format>image/svg+xml</dc:format>
    <dc:creator>
     <cc:Agent>
      <dc:title>Matplotlib v3.7.2, https://matplotlib.org/</dc:title>
     </cc:Agent>
    </dc:creator>
   </cc:Work>
  </rdf:RDF>
 </metadata>
 <defs>
  <style type="text/css">*{stroke-linejoin: round; stroke-linecap: butt}</style>
 </defs>
 <g id="figure_1">
  <g id="patch_1">
   <path d="M 0 345.6 
L 460.8 345.6 
L 460.8 0 
L 0 0 
z
" style="fill: #ffffff"/>
  </g>
  <g id="axes_1">
   <g id="patch_2">
    <path d="M 29.2 316.4 
L 450 316.4 
L 450 28.32 
L 29.2 28.32 
z
" style="fill: #ffffff"/>
   </g>
   <g id="PolyCollection_1">
    <defs>
     <path id="mb386215ed2" d="M 271.478788 -42.294545 
L 271.478788 -273.518601 
L 273.088828 -270.544671 
L 274.698867 -267.465356 
L 276.308907 -264.285977 
L 277.918947 -261.011972 
L 279.528987 -257.64888 
L 281.139027 -254.202325 
L 282.749066 -250.678004 
L 284.359106 -247.081664 
L 285.969146 -243.419095 
L 287.579186 -239.696109 
L 289.189226 -235.918527 
L 290.799265 -232.092165 
L 292.409305 -228.222816 
L 294.019345 -224.316239 
L 295.629385 -220.378146 
L 297.239425 -216.414186 
L 298.849464 -212.42993 
L 300.459504 -208.430867 
L 302.069544 -204.422382 
L 303.679584 -200.409751 
L 305.289624 -196.398131 
L 306.899663 -192.392545 
L 308.509703 -188.397877 
L 310.119743 -184.418862 
L 311.729783 -180.460078 
L 313.339822 -176.525938 
L 314.949862 -172.620684 
L 316.559902 -168.748384 
L 318.169942 -164.912922 
L 319.779982 -161.117996 
L 321.390021 -157.367116 
L 323.000061 -153.663597 
L 324.610101 -150.010562 
L 326.220141 -146.410936 
L 327.830181 -142.867446 
L 329.44022 -139.382623 
L 331.05026 -135.9588 
L 332.6603 -132.598115 
L 334.27034 -129.30251 
L 335.88038 -126.073735 
L 337.490419 -122.913351 
L 339.100459 -119.82273 
L 340.710499 -116.803063 
L 342.320539 -113.855362 
L 343.930579 -110.980464 
L 345.540618 -108.179034 
L 347.150658 -105.451577 
L 348.760698 -102.798435 
L 350.370738 -100.219798 
L 351.980777 -97.715707 
L 353.590817 -95.286065 
L 355.200857 -92.930637 
L 356.810897 -90.649061 
L 358.420937 -88.440852 
L 360.030976 -86.305412 
L 361.641016 -84.242031 
L 363.251056 -82.249902 
L 364.861096 -80.32812 
L 366.471136 -78.475692 
L 368.081175 -76.691546 
L 369.691215 -74.974532 
L 371.301255 -73.323434 
L 372.911295 -71.736973 
L 374.521335 -70.213817 
L 376.131374 -68.752581 
L 377.741414 -67.351839 
L 379.351454 -66.010128 
L 380.961494 -64.72595 
L 382.571534 -63.497784 
L 384.181573 -62.324086 
L 385.791613 -61.203296 
L 387.401653 -60.133842 
L 389.011693 -59.114146 
L 390.621732 -58.142627 
L 392.231772 -57.217704 
L 393.841812 -56.337803 
L 395.451852 -55.501359 
L 397.061892 -54.706817 
L 398.671931 -53.952639 
L 400.281971 -53.237306 
L 401.892011 -52.559317 
L 403.502051 -51.917196 
L 405.112091 -51.309493 
L 406.72213 -50.734785 
L 408.33217 -50.191677 
L 409.94221 -49.678807 
L 411.55225 -49.194842 
L 413.16229 -48.738486 
L 414.772329 -48.308475 
L 416.382369 -47.903582 
L 417.992409 -47.522613 
L 419.602449 -47.164413 
L 421.212489 -46.827864 
L 422.822528 -46.511883 
L 424.432568 -46.215425 
L 426.042608 -45.937483 
L 427.652648 -45.677086 
L 429.262687 -45.433299 
L 430.872727 -45.205227 
L 430.872727 -42.294545 
L 430.872727 -42.294545 
L 429.262687 -42.294545 
L 427.652648 -42.294545 
L 426.042608 -42.294545 
L 424.432568 -42.294545 
L 422.822528 -42.294545 
L 421.212489 -42.294545 
L 419.602449 -42.294545 
L 417.992409 -42.294545 
L 416.382369 -42.294545 
L 414.772329 -42.294545 
L 413.16229 -42.294545 
L 411.55225 -42.294545 
L 409.94221 -42.294545 
L 408.33217 -42.294545 
L 406.72213 -42.294545 
L 405.112091 -42.294545 
L 403.502051 -42.294545 
L 401.892011 -42.294545 
L 400.281971 -42.294545 
L 398.671931 -42.294545 
L 397.061892 -42.294545 
L 395.451852 -42.294545 
L 393.841812 -42.294545 
L 392.231772 -42.294545 
L 390.621732 -42.294545 
L 389.011693 -42.294545 
L 387.401653 -42.294545 
L 385.791613 -42.294545 
L 384.181573 -42.294545 
L 382.571534 -42.294545 
L 380.961494 -42.294545 
L 379.351454 -42.294545 
L 377.741414 -42.294545 
L 376.131374 -42.294545 
L 374.521335 -42.294545 
L 372.911295 -42.294545 
L 371.301255 -42.294545 
L 369.691215 -42.294545 
L 368.081175 -42.294545 
L 366.471136 -42.294545 
L 364.861096 -42.294545 
L 363.251056 -42.294545 
L 361.641016 -42.294545 
L 360.030976 -42.294545 
L 358.420937 -42.294545 
L 356.810897 -42.294545 
L 355.200857 -42.294545 
L 353.590817 -42.294545 
L 351.980777 -42.294545 
L 350.370738 -42.294545 
L 348.760698 -42.294545 
L 347.150658 -42.294545 
L 345.540618 -42.294545 
L 343.930579 -42.294545 
L 342.320539 -42.294545 
L 340.710499 -42.294545 
L 339.100459 -42.294545 
L 337.490419 -42.294545 
L 335.88038 -42.294545 
L 334.27034 -42.294545 
L 332.6603 -42.294545 
L 331.05026 -42.294545 
L 329.44022 -42.294545 
L 327.830181 -42.294545 
L 326.220141 -42.294545 
L 324.610101 -42.294545 
L 323.000061 -42.294545 
L 321.390021 -42.294545 
L 319.779982 -42.294545 
L 318.169942 -42.294545 
L 316.559902 -42.294545 
L 314.949862 -42.294545 
L 313.339822 -42.294545 
L 311.729783 -42.294545 
L 310.119743 -42.294545 
L 308.509703 -42.294545 
L 306.899663 -42.294545 
L 305.289624 -42.294545 
L 303.679584 -42.294545 
L 302.069544 -42.294545 
L 300.459504 -42.294545 
L 298.849464 -42.294545 
L 297.239425 -42.294545 
L 295.629385 -42.294545 
L 294.019345 -42.294545 
L 292.409305 -42.294545 
L 290.799265 -42.294545 
L 289.189226 -42.294545 
L 287.579186 -42.294545 
L 285.969146 -42.294545 
L 284.359106 -42.294545 
L 282.749066 -42.294545 
L 281.139027 -42.294545 
L 279.528987 -42.294545 
L 277.918947 -42.294545 
L 276.308907 -42.294545 
L 274.698867 -42.294545 
L 273.088828 -42.294545 
L 271.478788 -42.294545 
z
" style="stroke: #00fa9a; stroke-opacity: 0.3"/>
    </defs>
    <g clip-path="url(#pc2cacf2785)">
     <use xlink:href="#mb386215ed2" x="0" y="345.6" style="fill: #00fa9a; fill-opacity: 0.3; stroke: #00fa9a; stroke-opacity: 0.3"/>
    </g>
   </g>
   <g id="matplotlib.axis_1">
    <g id="text_1">
     <!-- Predicted value -->
     <g transform="translate(177.6525 332.5575) scale(0.16 -0.16)">
      <defs>
       <path id="DejaVuSans-50" d="M 1259 4147 
L 1259 2394 
L 2053 2394 
Q 2494 2394 2734 2622 
Q 2975 2850 2975 3272 
Q 2975 3691 2734 3919 
Q 2494 4147 2053 4147 
L 1259 4147 
z
M 628 4666 
L 2053 4666 
Q 2838 4666 3239 4311 
Q 3641 3956 3641 3272 
Q 3641 2581 3239 2228 
Q 2838 1875 2053 1875 
L 1259 1875 
L 1259 0 
L 628 0 
L 628 4666 
z
" transform="scale(0.015625)"/>
       <path id="DejaVuSans-72" d="M 2631 2963 
Q 2534 3019 2420 3045 
Q 2306 3072 2169 3072 
Q 1681 3072 1420 2755 
Q 1159 2438 1159 1844 
L 1159 0 
L 581 0 
L 581 3500 
L 1159 3500 
L 1159 2956 
Q 1341 3275 1631 3429 
Q 1922 3584 2338 3584 
Q 2397 3584 2469 3576 
Q 2541 3569 2628 3553 
L 2631 2963 
z
" transform="scale(0.015625)"/>
       <path id="DejaVuSans-65" d="M 3597 1894 
L 3597 1613 
L 953 1613 
Q 991 1019 1311 708 
Q 1631 397 2203 397 
Q 2534 397 2845 478 
Q 3156 559 3463 722 
L 3463 178 
Q 3153 47 2828 -22 
Q 2503 -91 2169 -91 
Q 1331 -91 842 396 
Q 353 884 353 1716 
Q 353 2575 817 3079 
Q 1281 3584 2069 3584 
Q 2775 3584 3186 3129 
Q 3597 2675 3597 1894 
z
M 3022 2063 
Q 3016 2534 2758 2815 
Q 2500 3097 2075 3097 
Q 1594 3097 1305 2825 
Q 1016 2553 972 2059 
L 3022 2063 
z
" transform="scale(0.015625)"/>
       <path id="DejaVuSans-64" d="M 2906 2969 
L 2906 4863 
L 3481 4863 
L 3481 0 
L 2906 0 
L 2906 525 
Q 2725 213 2448 61 
Q 2172 -91 1784 -91 
Q 1150 -91 751 415 
Q 353 922 353 1747 
Q 353 2572 751 3078 
Q 1150 3584 1784 3584 
Q 2172 3584 2448 3432 
Q 2725 3281 2906 2969 
z
M 947 1747 
Q 947 1113 1208 752 
Q 1469 391 1925 391 
Q 2381 391 2643 752 
Q 2906 1113 2906 1747 
Q 2906 2381 2643 2742 
Q 2381 3103 1925 3103 
Q 1469 3103 1208 2742 
Q 947 2381 947 1747 
z
" transform="scale(0.015625)"/>
       <path id="DejaVuSans-69" d="M 603 3500 
L 1178 3500 
L 1178 0 
L 603 0 
L 603 3500 
z
M 603 4863 
L 1178 4863 
L 1178 4134 
L 603 4134 
L 603 4863 
z
" transform="scale(0.015625)"/>
       <path id="DejaVuSans-63" d="M 3122 3366 
L 3122 2828 
Q 2878 2963 2633 3030 
Q 2388 3097 2138 3097 
Q 1578 3097 1268 2742 
Q 959 2388 959 1747 
Q 959 1106 1268 751 
Q 1578 397 2138 397 
Q 2388 397 2633 464 
Q 2878 531 3122 666 
L 3122 134 
Q 2881 22 2623 -34 
Q 2366 -91 2075 -91 
Q 1284 -91 818 406 
Q 353 903 353 1747 
Q 353 2603 823 3093 
Q 1294 3584 2113 3584 
Q 2378 3584 2631 3529 
Q 2884 3475 3122 3366 
z
" transform="scale(0.015625)"/>
       <path id="DejaVuSans-74" d="M 1172 4494 
L 1172 3500 
L 2356 3500 
L 2356 3053 
L 1172 3053 
L 1172 1153 
Q 1172 725 1289 603 
Q 1406 481 1766 481 
L 2356 481 
L 2356 0 
L 1766 0 
Q 1100 0 847 248 
Q 594 497 594 1153 
L 594 3053 
L 172 3053 
L 172 3500 
L 594 3500 
L 594 4494 
L 1172 4494 
z
" transform="scale(0.015625)"/>
       <path id="DejaVuSans-20" transform="scale(0.015625)"/>
       <path id="DejaVuSans-76" d="M 191 3500 
L 800 3500 
L 1894 563 
L 2988 3500 
L 3597 3500 
L 2284 0 
L 1503 0 
L 191 3500 
z
" transform="scale(0.015625)"/>
       <path id="DejaVuSans-61" d="M 2194 1759 
Q 1497 1759 1228 1600 
Q 959 1441 959 1056 
Q 959 750 1161 570 
Q 1363 391 1709 391 
Q 2188 391 2477 730 
Q 2766 1069 2766 1631 
L 2766 1759 
L 2194 1759 
z
M 3341 1997 
L 3341 0 
L 2766 0 
L 2766 531 
Q 2569 213 2275 61 
Q 1981 -91 1556 -91 
Q 1019 -91 701 211 
Q 384 513 384 1019 
Q 384 1609 779 1909 
Q 1175 2209 1959 2209 
L 2766 2209 
L 2766 2266 
Q 2766 2663 2505 2880 
Q 2244 3097 1772 3097 
Q 1472 3097 1187 3025 
Q 903 2953 641 2809 
L 641 3341 
Q 956 3463 1253 3523 
Q 1550 3584 1831 3584 
Q 2591 3584 2966 3190 
Q 3341 2797 3341 1997 
z
" transform="scale(0.015625)"/>
       <path id="DejaVuSans-6c" d="M 603 4863 
L 1178 4863 
L 1178 0 
L 603 0 
L 603 4863 
z
" transform="scale(0.015625)"/>
       <path id="DejaVuSans-75" d="M 544 1381 
L 544 3500 
L 1119 3500 
L 1119 1403 
Q 1119 906 1312 657 
Q 1506 409 1894 409 
Q 2359 409 2629 706 
Q 2900 1003 2900 1516 
L 2900 3500 
L 3475 3500 
L 3475 0 
L 2900 0 
L 2900 538 
Q 2691 219 2414 64 
Q 2138 -91 1772 -91 
Q 1169 -91 856 284 
Q 544 659 544 1381 
z
M 1991 3584 
L 1991 3584 
z
" transform="scale(0.015625)"/>
      </defs>
      <use xlink:href="#DejaVuSans-50"/>
      <use xlink:href="#DejaVuSans-72" x="58.552734"/>
      <use xlink:href="#DejaVuSans-65" x="97.416016"/>
      <use xlink:href="#DejaVuSans-64" x="158.939453"/>
      <use xlink:href="#DejaVuSans-69" x="222.416016"/>
      <use xlink:href="#DejaVuSans-63" x="250.199219"/>
      <use xlink:href="#DejaVuSans-74" x="305.179688"/>
      <use xlink:href="#DejaVuSans-65" x="344.388672"/>
      <use xlink:href="#DejaVuSans-64" x="405.912109"/>
      <use xlink:href="#DejaVuSans-20" x="469.388672"/>
      <use xlink:href="#DejaVuSans-76" x="501.175781"/>
      <use xlink:href="#DejaVuSans-61" x="560.355469"/>
      <use xlink:href="#DejaVuSans-6c" x="621.634766"/>
      <use xlink:href="#DejaVuSans-75" x="649.417969"/>
      <use xlink:href="#DejaVuSans-65" x="712.796875"/>
     </g>
    </g>
   </g>
   <g id="matplotlib.axis_2">
    <g id="text_2">
     <!-- Probability Density -->
     <g transform="translate(21.8725 247.6025) rotate(-90) scale(0.16 -0.16)">
      <defs>
       <path id="DejaVuSans-6f" d="M 1959 3097 
Q 1497 3097 1228 2736 
Q 959 2375 959 1747 
Q 959 1119 1226 758 
Q 1494 397 1959 397 
Q 2419 397 2687 759 
Q 2956 1122 2956 1747 
Q 2956 2369 2687 2733 
Q 2419 3097 1959 3097 
z
M 1959 3584 
Q 2709 3584 3137 3096 
Q 3566 2609 3566 1747 
Q 3566 888 3137 398 
Q 2709 -91 1959 -91 
Q 1206 -91 779 398 
Q 353 888 353 1747 
Q 353 2609 779 3096 
Q 1206 3584 1959 3584 
z
" transform="scale(0.015625)"/>
       <path id="DejaVuSans-62" d="M 3116 1747 
Q 3116 2381 2855 2742 
Q 2594 3103 2138 3103 
Q 1681 3103 1420 2742 
Q 1159 2381 1159 1747 
Q 1159 1113 1420 752 
Q 1681 391 2138 391 
Q 2594 391 2855 752 
Q 3116 1113 3116 1747 
z
M 1159 2969 
Q 1341 3281 1617 3432 
Q 1894 3584 2278 3584 
Q 2916 3584 3314 3078 
Q 3713 2572 3713 1747 
Q 3713 922 3314 415 
Q 2916 -91 2278 -91 
Q 1894 -91 1617 61 
Q 1341 213 1159 525 
L 1159 0 
L 581 0 
L 581 4863 
L 1159 4863 
L 1159 2969 
z
" transform="scale(0.015625)"/>
       <path id="DejaVuSans-79" d="M 2059 -325 
Q 1816 -950 1584 -1140 
Q 1353 -1331 966 -1331 
L 506 -1331 
L 506 -850 
L 844 -850 
Q 1081 -850 1212 -737 
Q 1344 -625 1503 -206 
L 1606 56 
L 191 3500 
L 800 3500 
L 1894 763 
L 2988 3500 
L 3597 3500 
L 2059 -325 
z
" transform="scale(0.015625)"/>
       <path id="DejaVuSans-44" d="M 1259 4147 
L 1259 519 
L 2022 519 
Q 2988 519 3436 956 
Q 3884 1394 3884 2338 
Q 3884 3275 3436 3711 
Q 2988 4147 2022 4147 
L 1259 4147 
z
M 628 4666 
L 1925 4666 
Q 3281 4666 3915 4102 
Q 4550 3538 4550 2338 
Q 4550 1131 3912 565 
Q 3275 0 1925 0 
L 628 0 
L 628 4666 
z
" transform="scale(0.015625)"/>
       <path id="DejaVuSans-6e" d="M 3513 2113 
L 3513 0 
L 2938 0 
L 2938 2094 
Q 2938 2591 2744 2837 
Q 2550 3084 2163 3084 
Q 1697 3084 1428 2787 
Q 1159 2491 1159 1978 
L 1159 0 
L 581 0 
L 581 3500 
L 1159 3500 
L 1159 2956 
Q 1366 3272 1645 3428 
Q 1925 3584 2291 3584 
Q 2894 3584 3203 3211 
Q 3513 2838 3513 2113 
z
" transform="scale(0.015625)"/>
       <path id="DejaVuSans-73" d="M 2834 3397 
L 2834 2853 
Q 2591 2978 2328 3040 
Q 2066 3103 1784 3103 
Q 1356 3103 1142 2972 
Q 928 2841 928 2578 
Q 928 2378 1081 2264 
Q 1234 2150 1697 2047 
L 1894 2003 
Q 2506 1872 2764 1633 
Q 3022 1394 3022 966 
Q 3022 478 2636 193 
Q 2250 -91 1575 -91 
Q 1294 -91 989 -36 
Q 684 19 347 128 
L 347 722 
Q 666 556 975 473 
Q 1284 391 1588 391 
Q 1994 391 2212 530 
Q 2431 669 2431 922 
Q 2431 1156 2273 1281 
Q 2116 1406 1581 1522 
L 1381 1569 
Q 847 1681 609 1914 
Q 372 2147 372 2553 
Q 372 3047 722 3315 
Q 1072 3584 1716 3584 
Q 2034 3584 2315 3537 
Q 2597 3491 2834 3397 
z
" transform="scale(0.015625)"/>
      </defs>
      <use xlink:href="#DejaVuSans-50"/>
      <use xlink:href="#DejaVuSans-72" x="58.552734"/>
      <use xlink:href="#DejaVuSans-6f" x="97.416016"/>
      <use xlink:href="#DejaVuSans-62" x="158.597656"/>
      <use xlink:href="#DejaVuSans-61" x="222.074219"/>
      <use xlink:href="#DejaVuSans-62" x="283.353516"/>
      <use xlink:href="#DejaVuSans-69" x="346.830078"/>
      <use xlink:href="#DejaVuSans-6c" x="374.613281"/>
      <use xlink:href="#DejaVuSans-69" x="402.396484"/>
      <use xlink:href="#DejaVuSans-74" x="430.179688"/>
      <use xlink:href="#DejaVuSans-79" x="469.388672"/>
      <use xlink:href="#DejaVuSans-20" x="528.568359"/>
      <use xlink:href="#DejaVuSans-44" x="560.355469"/>
      <use xlink:href="#DejaVuSans-65" x="637.357422"/>
      <use xlink:href="#DejaVuSans-6e" x="698.880859"/>
      <use xlink:href="#DejaVuSans-73" x="762.259766"/>
      <use xlink:href="#DejaVuSans-69" x="814.359375"/>
      <use xlink:href="#DejaVuSans-74" x="842.142578"/>
      <use xlink:href="#DejaVuSans-79" x="881.351562"/>
     </g>
    </g>
   </g>
   <g id="line2d_1">
    <path d="M 48.327273 300.394773 
L 52.191368 299.8208 
L 56.055464 299.148938 
L 59.919559 298.365714 
L 63.783655 297.456429 
L 67.64775 296.405158 
L 71.511846 295.194784 
L 75.375941 293.807052 
L 79.240037 292.222663 
L 83.104132 290.4214 
L 86.968228 288.382296 
L 90.832323 286.083845 
L 94.696419 283.504254 
L 98.560514 280.621744 
L 102.42461 277.414894 
L 106.288705 273.863027 
L 110.152801 269.946642 
L 114.016896 265.647881 
L 117.880992 260.95102 
L 121.745087 255.842996 
L 125.609183 250.313935 
L 129.473278 244.357694 
L 133.337374 237.972388 
L 137.201469 231.160898 
L 141.065565 223.93134 
L 144.92966 216.29749 
L 148.793756 208.279132 
L 152.657851 199.902337 
L 156.521947 191.199641 
L 160.386042 182.210114 
L 164.250138 172.979316 
L 168.114233 163.559122 
L 171.978329 154.007416 
L 175.842424 144.38764 
L 179.70652 134.768222 
L 183.570615 125.221854 
L 187.434711 115.824656 
L 191.298806 106.655226 
L 195.162902 97.793584 
L 199.026997 89.320044 
L 202.891093 81.314023 
L 206.755188 73.852817 
L 210.619284 67.010368 
L 214.483379 60.856049 
L 218.347475 55.453497 
L 222.21157 50.859523 
L 226.075666 47.123111 
L 229.939761 44.284554 
L 233.803857 42.374731 
L 237.667952 41.414545 
L 241.532048 41.414545 
L 245.396143 42.374731 
L 249.260239 44.284554 
L 253.124334 47.123111 
L 256.98843 50.859523 
L 260.852525 55.453497 
L 264.716621 60.856049 
L 268.580716 67.010368 
L 272.444812 73.852817 
L 276.308907 81.314023 
L 280.173003 89.320044 
L 284.037098 97.793584 
L 287.901194 106.655226 
L 291.765289 115.824656 
L 295.629385 125.221854 
L 299.49348 134.768222 
L 303.357576 144.38764 
L 307.221671 154.007416 
L 311.085767 163.559122 
L 314.949862 172.979316 
L 318.813958 182.210114 
L 322.678053 191.199641 
L 326.542149 199.902337 
L 330.406244 208.279132 
L 334.27034 216.29749 
L 338.134435 223.93134 
L 341.998531 231.160898 
L 345.862626 237.972388 
L 349.726722 244.357694 
L 353.590817 250.313935 
L 357.454913 255.842996 
L 361.319008 260.95102 
L 365.183104 265.647881 
L 369.047199 269.946642 
L 372.911295 273.863027 
L 376.77539 277.414894 
L 380.639486 280.621744 
L 384.503581 283.504254 
L 388.367677 286.083845 
L 392.231772 288.382296 
L 396.095868 290.4214 
L 399.959963 292.222663 
L 403.824059 293.807052 
L 407.688154 295.194784 
L 411.55225 296.405158 
L 415.416345 297.456429 
L 419.280441 298.365714 
L 423.144536 299.148938 
L 427.008632 299.8208 
L 430.872727 300.394773 
" clip-path="url(#pc2cacf2785)" style="fill: none; stroke: #000000; stroke-width: 1.5; stroke-linecap: square"/>
   </g>
   <g id="line2d_2">
    <path d="M 271.478788 316.4 
L 271.478788 28.32 
" clip-path="url(#pc2cacf2785)" style="fill: none; stroke: #008000; stroke-width: 1.5; stroke-linecap: square"/>
   </g>
   <g id="patch_3">
    <path d="M 29.2 316.4 
L 29.2 28.32 
" style="fill: none; stroke: #000000; stroke-width: 0.8; stroke-linejoin: miter; stroke-linecap: square"/>
   </g>
   <g id="patch_4">
    <path d="M 450 316.4 
L 450 28.32 
" style="fill: none; stroke: #000000; stroke-width: 0.8; stroke-linejoin: miter; stroke-linecap: square"/>
   </g>
   <g id="patch_5">
    <path d="M 29.2 316.4 
L 450 316.4 
" style="fill: none; stroke: #000000; stroke-width: 0.8; stroke-linejoin: miter; stroke-linecap: square"/>
   </g>
   <g id="patch_6">
    <path d="M 29.2 28.32 
L 450 28.32 
" style="fill: none; stroke: #000000; stroke-width: 0.8; stroke-linejoin: miter; stroke-linecap: square"/>
   </g>
   <g id="text_3">
    <!-- Maximization -->
    <g transform="translate(186.3975 22.32) scale(0.16 -0.16)">
     <defs>
      <path id="DejaVuSans-4d" d="M 628 4666 
L 1569 4666 
L 2759 1491 
L 3956 4666 
L 4897 4666 
L 4897 0 
L 4281 0 
L 4281 4097 
L 3078 897 
L 2444 897 
L 1241 4097 
L 1241 0 
L 628 0 
L 628 4666 
z
" transform="scale(0.015625)"/>
      <path id="DejaVuSans-78" d="M 3513 3500 
L 2247 1797 
L 3578 0 
L 2900 0 
L 1881 1375 
L 863 0 
L 184 0 
L 1544 1831 
L 300 3500 
L 978 3500 
L 1906 2253 
L 2834 3500 
L 3513 3500 
z
" transform="scale(0.015625)"/>
      <path id="DejaVuSans-6d" d="M 3328 2828 
Q 3544 3216 3844 3400 
Q 4144 3584 4550 3584 
Q 5097 3584 5394 3201 
Q 5691 2819 5691 2113 
L 5691 0 
L 5113 0 
L 5113 2094 
Q 5113 2597 4934 2840 
Q 4756 3084 4391 3084 
Q 3944 3084 3684 2787 
Q 3425 2491 3425 1978 
L 3425 0 
L 2847 0 
L 2847 2094 
Q 2847 2600 2669 2842 
Q 2491 3084 2119 3084 
Q 1678 3084 1418 2786 
Q 1159 2488 1159 1978 
L 1159 0 
L 581 0 
L 581 3500 
L 1159 3500 
L 1159 2956 
Q 1356 3278 1631 3431 
Q 1906 3584 2284 3584 
Q 2666 3584 2933 3390 
Q 3200 3197 3328 2828 
z
" transform="scale(0.015625)"/>
      <path id="DejaVuSans-7a" d="M 353 3500 
L 3084 3500 
L 3084 2975 
L 922 459 
L 3084 459 
L 3084 0 
L 275 0 
L 275 525 
L 2438 3041 
L 353 3041 
L 353 3500 
z
" transform="scale(0.015625)"/>
     </defs>
     <use xlink:href="#DejaVuSans-4d"/>
     <use xlink:href="#DejaVuSans-61" x="86.279297"/>
     <use xlink:href="#DejaVuSans-78" x="147.558594"/>
     <use xlink:href="#DejaVuSans-69" x="206.738281"/>
     <use xlink:href="#DejaVuSans-6d" x="234.521484"/>
     <use xlink:href="#DejaVuSans-69" x="331.933594"/>
     <use xlink:href="#DejaVuSans-7a" x="359.716797"/>
     <use xlink:href="#DejaVuSans-61" x="412.207031"/>
     <use xlink:href="#DejaVuSans-74" x="473.486328"/>
     <use xlink:href="#DejaVuSans-69" x="512.695312"/>
     <use xlink:href="#DejaVuSans-6f" x="540.478516"/>
     <use xlink:href="#DejaVuSans-6e" x="601.660156"/>
    </g>
   </g>
  </g>
 </g>
 <defs>
  <clipPath id="pc2cacf2785">
   <rect x="29.2" y="28.32" width="420.8" height="288.08"/>
  </clipPath>
 </defs>
</svg>
